G04 Layer: BottomSolderMaskLayer*
G04 Panelize: , Column: 1, Row: 1, Board Size: 43.14mm x 33.02mm, Panelized Board Size: 43.14mm x 33.02mm*
G04 EasyEDA v6.5.39, 2023-12-15 19:25:59*
G04 3b811ad68a954a9fa16293bbb790c8b3,9a4ed40c0dd746429eaf55b84663d2fb,10*
G04 Gerber Generator version 0.2*
G04 Scale: 100 percent, Rotated: No, Reflected: No *
G04 Dimensions in millimeters *
G04 leading zeros omitted , absolute positions ,4 integer and 5 decimal *
%FSLAX45Y45*%
%MOMM*%

%AMMACRO1*1,1,$1,$2,$3*1,1,$1,$4,$5*1,1,$1,0-$2,0-$3*1,1,$1,0-$4,0-$5*20,1,$1,$2,$3,$4,$5,0*20,1,$1,$4,$5,0-$2,0-$3,0*20,1,$1,0-$2,0-$3,0-$4,0-$5,0*20,1,$1,0-$4,0-$5,$2,$3,0*4,1,4,$2,$3,$4,$5,0-$2,0-$3,0-$4,0-$5,$2,$3,0*%
%ADD10C,0.9016*%
%ADD11R,1.9016X2.1016*%
%ADD12MACRO1,0.1016X-1.0776X0X0X-1.0776*%
%ADD13MACRO1,0.1016X0X1.0776X-1.0776X0*%
%ADD14MACRO1,0.1016X-0.2828X0.27X-0.2828X-0.27*%
%ADD15MACRO1,0.1016X0.2828X0.27X0.2828X-0.27*%
%ADD16MACRO1,0.1016X0.2828X-0.27X0.2828X0.27*%
%ADD17MACRO1,0.1016X-0.2828X-0.27X-0.2828X0.27*%
%ADD18MACRO1,0.1016X0.35X0.625X-0.35X0.625*%
%ADD19MACRO1,0.1016X-0.1516X0.162X-0.1516X-0.162*%
%ADD20MACRO1,0.1016X0.1516X0.162X0.1516X-0.162*%
%ADD21MACRO1,0.1016X-0.162X-0.1516X0.162X-0.1516*%
%ADD22MACRO1,0.1016X-0.162X0.1516X0.162X0.1516*%
%ADD23MACRO1,0.1X-0.135X-0.125X0.135X-0.125*%
%ADD24MACRO1,0.1X0.125X-0.135X0.125X0.135*%
%ADD25MACRO1,0.1016X0.4X-0.4X0.4X0.4*%
%ADD26MACRO1,0.1016X0.5499X-0.1499X0.5499X0.1499*%
%ADD27MACRO1,0.1016X0.5499X-0.1511X0.5499X0.1511*%
%ADD28O,2.3015956X1.3015976000000002*%
%ADD29R,1.2586X0.5916*%
%ADD30R,1.2766X0.5916*%
%ADD31MACRO1,0.1016X0.1516X-0.162X0.1516X0.162*%
%ADD32MACRO1,0.1016X-0.1516X-0.162X-0.1516X0.162*%
%ADD33MACRO1,0.1016X0.65X-0.15X0.65X0.15*%
%ADD34MACRO1,0.1016X1.5X-1X1.5X1*%
%ADD35O,1.8745962X0.8015985999999999*%
%ADD36MACRO1,0.1016X1.1X0.55X-1.1X0.55*%
%ADD37R,1.1016X1.1516*%
%ADD38R,0.5266X0.3816*%
%ADD39MACRO1,0.1016X-0.1842X0.162X-0.1842X-0.162*%
%ADD40MACRO1,0.1016X0.1842X0.162X0.1842X-0.162*%
%ADD41MACRO1,0.1016X-0.395X0.27X-0.395X-0.27*%
%ADD42MACRO1,0.1016X0.395X0.27X0.395X-0.27*%
%ADD43MACRO1,0.1016X-0.27X-0.395X0.27X-0.395*%
%ADD44MACRO1,0.1016X-0.27X0.395X0.27X0.395*%
%ADD45R,0.4256X0.4700*%
%ADD46MACRO1,0.1016X-0.27X-0.2828X0.27X-0.2828*%
%ADD47MACRO1,0.1016X-0.27X0.2828X0.27X0.2828*%
%ADD48MACRO1,0.1016X0.6364X0.1414X0.1414X0.6364*%
%ADD49MACRO1,0.1016X0.8839X-0.1061X-0.1061X0.8839*%
%ADD50MACRO1,0.1016X0.8309X0.0177X0.0177X0.8308*%
%ADD51MACRO1,0.1016X0.8308X0.0177X0.0177X0.8308*%
%ADD52C,0.9000*%
%ADD53MACRO1,0.1016X0.6478X-0.0735X0.3409X0.5557*%
%ADD54MACRO1,0.1016X0.8012X-0.388X0.1875X0.8703*%
%ADD55MACRO1,0.1016X0.7913X-0.2538X0.2872X0.7798*%
%ADD56R,0.6416X0.6673*%

%LPD*%
D10*
G01*
X1459562Y139539D03*
G01*
X1586562Y139539D03*
G01*
X1713562Y139539D03*
G01*
X1840562Y139539D03*
G01*
X1332562Y139539D03*
G01*
X1205562Y139539D03*
D11*
G01*
X1082906Y545000D03*
G01*
X2452905Y545000D03*
D12*
G01*
X-947802Y-92896D03*
G01*
X-768196Y-272502D03*
D13*
G01*
X-767594Y1789898D03*
G01*
X-947200Y1610292D03*
D14*
G01*
X-413015Y-301800D03*
D15*
G01*
X-499581Y-301800D03*
D16*
G01*
X-499281Y-419399D03*
D17*
G01*
X-412715Y-419399D03*
D18*
G01*
X939297Y1052830D03*
G01*
X1034293Y1302765D03*
G01*
X844301Y1302765D03*
D19*
G01*
X889053Y613498D03*
D20*
G01*
X840742Y613498D03*
D21*
G01*
X541799Y1457853D03*
D22*
G01*
X541799Y1409542D03*
D19*
G01*
X885753Y818398D03*
D20*
G01*
X837443Y818398D03*
D23*
G01*
X-812467Y728692D03*
G01*
X-812467Y771110D03*
D24*
G01*
X-800402Y506569D03*
G01*
X-842820Y506569D03*
D25*
G01*
X-403042Y-671446D03*
G01*
X-562942Y-670745D03*
D26*
G01*
X-1045382Y488970D03*
G01*
X-1045382Y518942D03*
G01*
X-1045382Y568980D03*
D27*
G01*
X-1045382Y618891D03*
D26*
G01*
X-1045382Y668802D03*
G01*
X-1045382Y718840D03*
G01*
X-1045382Y768878D03*
G01*
X-1045382Y818916D03*
G01*
X-1045382Y868954D03*
G01*
X-1045382Y918992D03*
D27*
G01*
X-1045382Y968903D03*
D26*
G01*
X-1045382Y999002D03*
G01*
X-1045382Y438932D03*
G01*
X-1045382Y408960D03*
G01*
X-1045382Y1048786D03*
D27*
G01*
X-1045382Y1078885D03*
D28*
G01*
X-1160447Y181907D03*
G01*
X-1560446Y181907D03*
G01*
X-1160447Y1305882D03*
G01*
X-1560446Y1305882D03*
D29*
G01*
X-434794Y174236D03*
G01*
X-434794Y79240D03*
G01*
X-434794Y-15755D03*
D30*
G01*
X-665528Y-15755D03*
G01*
X-665528Y174236D03*
D31*
G01*
X-906472Y581499D03*
D32*
G01*
X-858161Y581499D03*
D19*
G01*
X-861717Y916271D03*
D20*
G01*
X-910028Y916271D03*
D33*
G01*
X706615Y518853D03*
G01*
X706615Y568853D03*
G01*
X706615Y618853D03*
G01*
X706615Y668853D03*
G01*
X706615Y718853D03*
G01*
X706615Y768852D03*
G01*
X706615Y818852D03*
G01*
X706615Y868852D03*
G01*
X706615Y918852D03*
G01*
X706615Y968852D03*
D34*
G01*
X487265Y1133853D03*
G01*
X487268Y353852D03*
D35*
G01*
X2Y-770008D03*
G01*
X2Y-660001D03*
G01*
X2Y-549993D03*
G01*
X2Y-440011D03*
G01*
X2Y-330004D03*
G01*
X2Y-219997D03*
G01*
X2Y-110015D03*
G01*
X2Y-7D03*
G01*
X2Y109999D03*
G01*
X962306Y109999D03*
G01*
X962306Y-7D03*
G01*
X962306Y-110015D03*
G01*
X962306Y-219997D03*
G01*
X962306Y-330004D03*
G01*
X962306Y-440011D03*
G01*
X962306Y-549993D03*
G01*
X962306Y-660001D03*
G01*
X962306Y-770008D03*
D36*
G01*
X1290645Y-243998D03*
D37*
G01*
X1148158Y-394012D03*
D36*
G01*
X1290647Y-544000D03*
D37*
G01*
X1433146Y-394012D03*
D38*
G01*
X1237084Y-5824D03*
G01*
X1237084Y-55811D03*
G01*
X1237084Y-105824D03*
G01*
X1149581Y-105824D03*
G01*
X1149581Y-55811D03*
G01*
X1149581Y-5824D03*
D39*
G01*
X1427723Y-108457D03*
D40*
G01*
X1372880Y-108457D03*
D16*
G01*
X847248Y1595996D03*
D17*
G01*
X933814Y1595996D03*
D41*
G01*
X1844301Y347698D03*
D42*
G01*
X1735289Y347698D03*
D43*
G01*
X-138300Y-16893D03*
D44*
G01*
X-138300Y-125905D03*
D39*
G01*
X1620255Y-110489D03*
D40*
G01*
X1565412Y-110489D03*
D41*
G01*
X-409592Y-139199D03*
D42*
G01*
X-518604Y-139199D03*
D19*
G01*
X-160502Y-658621D03*
D20*
G01*
X-208813Y-658621D03*
D45*
G01*
X-224990Y-19032D03*
G01*
X-224990Y35831D03*
D14*
G01*
X-2437Y271780D03*
D15*
G01*
X-89002Y271780D03*
D46*
G01*
X652797Y1459878D03*
D47*
G01*
X652797Y1373313D03*
D48*
G01*
X1429109Y1671366D03*
G01*
X1241725Y1858747D03*
D49*
G01*
X1324811Y1754451D03*
D50*
G01*
X1582905Y1750917D03*
D51*
G01*
X1321276Y2012544D03*
D52*
G01*
X1562254Y1730265D03*
G01*
X1300609Y1991885D03*
D14*
G01*
X931020Y1475346D03*
D15*
G01*
X844454Y1475346D03*
D53*
G01*
X1678846Y1237369D03*
G01*
X1562677Y1475549D03*
D54*
G01*
X1607278Y1349884D03*
D55*
G01*
X1850161Y1262515D03*
G01*
X1687964Y1595067D03*
D52*
G01*
X1823900Y1249697D03*
G01*
X1661695Y1582234D03*
D43*
G01*
X1365585Y1343764D03*
D44*
G01*
X1365585Y1234752D03*
D56*
G01*
X1246202Y1234533D03*
G01*
X1246202Y1321122D03*
D14*
G01*
X-609672Y264507D03*
D15*
G01*
X-696238Y264507D03*
D14*
G01*
X-411516Y-551698D03*
D15*
G01*
X-498082Y-551698D03*
M02*
