G04 Layer: TopSilkscreenLayer*
G04 Panelize: , Column: 1, Row: 1, Board Size: 43.14mm x 33.02mm, Panelized Board Size: 43.14mm x 33.02mm*
G04 EasyEDA v6.5.42, 2024-03-19 15:40:22*
G04 eeb97d59e02942aebf3b2853903f826f,9a4ed40c0dd746429eaf55b84663d2fb,10*
G04 Gerber Generator version 0.2*
G04 Scale: 100 percent, Rotated: No, Reflected: No *
G04 Dimensions in millimeters *
G04 leading zeros omitted , absolute positions ,4 integer and 5 decimal *
%FSLAX45Y45*%
%MOMM*%

%ADD10C,0.1270*%
%ADD11C,0.1524*%
%ADD12C,0.1520*%
%ADD13C,0.2540*%
%ADD14C,0.1250*%
%ADD15C,0.1500*%
%ADD16C,0.2000*%
%ADD17C,0.1000*%
%ADD18C,0.1999*%
%ADD19C,0.2489*%
%ADD20C,0.2500*%
%ADD21C,0.2500*%
%ADD22C,0.0142*%

%LPD*%
G36*
X1158443Y-185775D02*
G01*
X1101496Y-185826D01*
X1099261Y-186791D01*
X1098854Y-187858D01*
X1087221Y-187858D01*
X1085900Y-188569D01*
X1085900Y-189890D01*
X1076452Y-189890D01*
X1075639Y-190703D01*
X1075639Y-191922D01*
X1067003Y-192125D01*
X1065377Y-194005D01*
X1059789Y-194005D01*
X1059027Y-196088D01*
X1053338Y-196088D01*
X1052880Y-197256D01*
X1052017Y-198120D01*
X1047292Y-198120D01*
X1045616Y-200152D01*
X1041704Y-200202D01*
X1040637Y-201269D01*
X1040637Y-202234D01*
X1036726Y-202336D01*
X1034999Y-202793D01*
X1034745Y-204317D01*
X1031443Y-204317D01*
X1030376Y-205384D01*
X1030376Y-206349D01*
X1026414Y-206552D01*
X1026210Y-208432D01*
X1022553Y-208432D01*
X1020318Y-210464D01*
X1017778Y-210464D01*
X1016660Y-211734D01*
X1016660Y-212547D01*
X1014526Y-212547D01*
X1012596Y-213563D01*
X1012190Y-214579D01*
X1009802Y-214579D01*
X1009802Y-216662D01*
X1006500Y-216662D01*
X1005687Y-217474D01*
X1005687Y-218694D01*
X1003452Y-218694D01*
X1001979Y-219100D01*
X1001521Y-220776D01*
X1000150Y-220776D01*
X997966Y-222300D01*
X997712Y-222808D01*
X995730Y-222808D01*
X995324Y-224790D01*
X991768Y-225399D01*
X991565Y-226923D01*
X989228Y-226923D01*
X989228Y-229006D01*
X986586Y-229006D01*
X985418Y-230276D01*
X985418Y-231038D01*
X983843Y-231038D01*
X983030Y-231851D01*
X983030Y-233070D01*
X981151Y-233273D01*
X980948Y-235051D01*
X977392Y-235661D01*
X977137Y-237236D01*
X975614Y-237236D01*
X974801Y-238048D01*
X974801Y-239217D01*
X972921Y-239471D01*
X972718Y-241350D01*
X971194Y-241350D01*
X969365Y-243433D01*
X966927Y-243840D01*
X966927Y-245414D01*
X964692Y-245617D01*
X964488Y-247497D01*
X963269Y-247497D01*
X962456Y-248361D01*
X962456Y-249580D01*
X961237Y-249580D01*
X960424Y-250393D01*
X960424Y-251561D01*
X958494Y-251815D01*
X958291Y-253644D01*
X956462Y-253847D01*
X956259Y-255727D01*
X954379Y-255930D01*
X954176Y-257759D01*
X952347Y-257962D01*
X952144Y-259842D01*
X950112Y-259842D01*
X950112Y-261874D01*
X948232Y-262077D01*
X948029Y-263956D01*
X946150Y-264160D01*
X945946Y-266039D01*
X943965Y-266039D01*
X943965Y-268020D01*
X942289Y-268427D01*
X941578Y-270510D01*
X940257Y-270510D01*
X939850Y-272491D01*
X938276Y-272745D01*
X937666Y-276301D01*
X935888Y-276504D01*
X935685Y-278333D01*
X933805Y-278536D01*
X933602Y-280365D01*
X931926Y-280822D01*
X931519Y-282752D01*
X930249Y-283108D01*
X929538Y-284937D01*
X929538Y-286562D01*
X927658Y-286766D01*
X927455Y-288645D01*
X925423Y-288645D01*
X925423Y-291388D01*
X924509Y-291388D01*
X923391Y-292658D01*
X923391Y-294843D01*
X922121Y-294843D01*
X921308Y-295656D01*
X921308Y-297078D01*
X919784Y-297738D01*
X919124Y-301040D01*
X918260Y-301040D01*
X917194Y-302107D01*
X917194Y-305104D01*
X915314Y-305308D01*
X914958Y-307340D01*
X913587Y-307594D01*
X913079Y-308406D01*
X913079Y-311302D01*
X910996Y-311302D01*
X910996Y-315366D01*
X909116Y-315569D01*
X908913Y-319481D01*
X907084Y-319684D01*
X906881Y-323596D01*
X905002Y-323799D01*
X904798Y-327761D01*
X902766Y-327761D01*
X902766Y-331825D01*
X1024178Y-331825D01*
X1024178Y-317500D01*
X1025398Y-317500D01*
X1026261Y-316636D01*
X1026261Y-310997D01*
X1027734Y-310794D01*
X1028242Y-309067D01*
X1028293Y-306374D01*
X1029462Y-305104D01*
X1030376Y-305104D01*
X1030376Y-302818D01*
X1031697Y-302463D01*
X1032408Y-300634D01*
X1032408Y-298958D01*
X1034491Y-298958D01*
X1034491Y-296926D01*
X1036370Y-296722D01*
X1036574Y-294894D01*
X1038402Y-294690D01*
X1038656Y-292760D01*
X1040637Y-292760D01*
X1040637Y-290728D01*
X1042517Y-290677D01*
X1044194Y-288645D01*
X1046835Y-288645D01*
X1046835Y-286664D01*
X1050747Y-286461D01*
X1051001Y-284530D01*
X1057097Y-284530D01*
X1057097Y-283768D01*
X1058265Y-282498D01*
X1075537Y-282498D01*
X1075944Y-284530D01*
X1081633Y-284530D01*
X1082446Y-286613D01*
X1085850Y-286613D01*
X1086256Y-288645D01*
X1089964Y-288645D01*
X1090218Y-290576D01*
X1091996Y-290779D01*
X1092403Y-292760D01*
X1093978Y-292760D01*
X1094790Y-294843D01*
X1096111Y-294843D01*
X1096873Y-296875D01*
X1098194Y-296875D01*
X1098600Y-298958D01*
X1100277Y-298958D01*
X1100480Y-300837D01*
X1102360Y-301040D01*
X1102360Y-304038D01*
X1102766Y-305104D01*
X1104442Y-305104D01*
X1104442Y-307898D01*
X1105154Y-309219D01*
X1106474Y-309219D01*
X1106474Y-314096D01*
X1107186Y-315417D01*
X1108557Y-315417D01*
X1108557Y-333959D01*
X1107287Y-333959D01*
X1106474Y-334772D01*
X1106474Y-340004D01*
X1104442Y-340410D01*
X1104442Y-344220D01*
X1103172Y-344220D01*
X1102360Y-345033D01*
X1102360Y-347370D01*
X1101496Y-348183D01*
X1100328Y-348640D01*
X1100328Y-350367D01*
X1098448Y-350570D01*
X1098194Y-352450D01*
X1097026Y-352450D01*
X1096213Y-353263D01*
X1096213Y-354533D01*
X1094943Y-354533D01*
X1094130Y-355346D01*
X1094130Y-356514D01*
X1092250Y-356768D01*
X1092047Y-358648D01*
X1089914Y-358648D01*
X1088644Y-359765D01*
X1088644Y-360629D01*
X1086104Y-360832D01*
X1085850Y-362762D01*
X1082141Y-362762D01*
X1081735Y-363778D01*
X1079652Y-364794D01*
X1075791Y-364845D01*
X1074064Y-365353D01*
X1073861Y-366877D01*
X1059180Y-366877D01*
X1059180Y-365506D01*
X1057859Y-364794D01*
X1052728Y-364794D01*
X1052372Y-363423D01*
X1050544Y-362762D01*
X1048613Y-362762D01*
X1048258Y-361391D01*
X1046429Y-360680D01*
X1044854Y-360680D01*
X1044448Y-359054D01*
X1042365Y-358648D01*
X1040384Y-356565D01*
X1038656Y-356565D01*
X1038402Y-354685D01*
X1036574Y-354482D01*
X1036370Y-352602D01*
X1034491Y-352399D01*
X1034491Y-350621D01*
X1032408Y-348691D01*
X1032408Y-347472D01*
X1031900Y-346710D01*
X1030528Y-346456D01*
X1030173Y-343357D01*
X1029614Y-342493D01*
X1028293Y-342493D01*
X1028293Y-339699D01*
X1027582Y-338378D01*
X1026261Y-338378D01*
X1026261Y-332282D01*
X1024178Y-331825D01*
X901547Y-331876D01*
X900734Y-332689D01*
X900734Y-335991D01*
X899058Y-336397D01*
X898702Y-337870D01*
X898652Y-340461D01*
X898144Y-340461D01*
X896772Y-342696D01*
X896467Y-346456D01*
X894994Y-346659D01*
X894537Y-348792D01*
X894537Y-352450D01*
X893571Y-352450D01*
X892505Y-353517D01*
X892505Y-358648D01*
X890422Y-358648D01*
X890422Y-365099D01*
X888949Y-365302D01*
X888441Y-367030D01*
X888390Y-373024D01*
X887425Y-373024D01*
X886307Y-374091D01*
X886307Y-381457D01*
X884834Y-382117D01*
X884326Y-383844D01*
X884275Y-392226D01*
X883564Y-392226D01*
X882243Y-394462D01*
X882192Y-408025D01*
X880567Y-408432D01*
X880160Y-409905D01*
X880160Y-449529D01*
X908964Y-449529D01*
X908964Y-422554D01*
X910488Y-421893D01*
X910945Y-420166D01*
X910996Y-403606D01*
X912266Y-403199D01*
X913079Y-401472D01*
X913079Y-391566D01*
X915162Y-391566D01*
X915162Y-383235D01*
X916584Y-382879D01*
X917194Y-381203D01*
X917194Y-375107D01*
X918413Y-375107D01*
X919226Y-374243D01*
X919226Y-368909D01*
X920038Y-368909D01*
X921308Y-367792D01*
X921308Y-362762D01*
X922274Y-362762D01*
X923391Y-361645D01*
X923391Y-356616D01*
X925271Y-356412D01*
X925474Y-352704D01*
X927506Y-350824D01*
X927506Y-346303D01*
X929538Y-346303D01*
X929538Y-342188D01*
X931418Y-341985D01*
X931621Y-340106D01*
X995680Y-340106D01*
X995883Y-341630D01*
X997458Y-342341D01*
X997458Y-347268D01*
X997864Y-348335D01*
X999490Y-348335D01*
X999490Y-352044D01*
X999947Y-354177D01*
X1001572Y-354584D01*
X1001572Y-357073D01*
X1001979Y-358648D01*
X1003503Y-358648D01*
X1003960Y-362102D01*
X1005687Y-362864D01*
X1005687Y-364794D01*
X1007618Y-364794D01*
X1008075Y-368249D01*
X1009700Y-369011D01*
X1010107Y-370992D01*
X1011783Y-370992D01*
X1011986Y-372872D01*
X1013866Y-373075D01*
X1014069Y-374904D01*
X1015949Y-375158D01*
X1015949Y-377139D01*
X1017981Y-377139D01*
X1018184Y-379018D01*
X1020013Y-379222D01*
X1020419Y-381254D01*
X1022451Y-381254D01*
X1022451Y-382473D01*
X1023315Y-383336D01*
X1026210Y-383336D01*
X1026414Y-385216D01*
X1028649Y-385419D01*
X1028649Y-386638D01*
X1029462Y-387451D01*
X1032408Y-387451D01*
X1032408Y-389483D01*
X1036472Y-389483D01*
X1037183Y-391566D01*
X1042619Y-391566D01*
X1043025Y-393598D01*
X1049223Y-393598D01*
X1049223Y-394970D01*
X1050544Y-395681D01*
X1083056Y-395681D01*
X1083868Y-394868D01*
X1083868Y-393598D01*
X1090015Y-393598D01*
X1090015Y-392938D01*
X1091133Y-392938D01*
X1091488Y-391566D01*
X1096010Y-391363D01*
X1096264Y-389534D01*
X1100124Y-389331D01*
X1100378Y-387451D01*
X1104239Y-387248D01*
X1104493Y-385368D01*
X1106119Y-385368D01*
X1107948Y-384708D01*
X1108252Y-383336D01*
X1110437Y-383133D01*
X1110640Y-381254D01*
X1112672Y-381254D01*
X1112672Y-379222D01*
X1114704Y-379222D01*
X1114704Y-377139D01*
X1116634Y-377139D01*
X1117295Y-375615D01*
X1118819Y-374904D01*
X1118819Y-373024D01*
X1120902Y-373024D01*
X1120902Y-370992D01*
X1122934Y-370992D01*
X1122934Y-368960D01*
X1124813Y-368757D01*
X1125067Y-366877D01*
X1125677Y-366877D01*
X1127048Y-365506D01*
X1127048Y-362813D01*
X1128928Y-362559D01*
X1129182Y-360172D01*
X1131163Y-358343D01*
X1131163Y-354533D01*
X1133246Y-354533D01*
X1133246Y-350418D01*
X1134465Y-350418D01*
X1135278Y-349554D01*
X1135278Y-344271D01*
X1137158Y-343357D01*
X1137361Y-331571D01*
X1138682Y-331165D01*
X1139393Y-329031D01*
X1139393Y-319938D01*
X1138732Y-318109D01*
X1137361Y-317754D01*
X1137361Y-306578D01*
X1136954Y-305460D01*
X1135278Y-305460D01*
X1135278Y-299262D01*
X1133246Y-298856D01*
X1133144Y-294995D01*
X1132687Y-293319D01*
X1131163Y-293065D01*
X1131163Y-291185D01*
X1130452Y-289052D01*
X1129182Y-288645D01*
X1128928Y-286766D01*
X1127048Y-286562D01*
X1127048Y-283311D01*
X1126236Y-282498D01*
X1125067Y-282498D01*
X1124813Y-280619D01*
X1122934Y-280416D01*
X1122934Y-278384D01*
X1122019Y-278384D01*
X1121003Y-277164D01*
X1120343Y-275132D01*
X1118920Y-274472D01*
X1118209Y-272542D01*
X1116787Y-272542D01*
X1115720Y-270510D01*
X1114704Y-270510D01*
X1112316Y-268071D01*
X1110640Y-268071D01*
X1110437Y-266192D01*
X1108557Y-265988D01*
X1108557Y-264668D01*
X1107236Y-263956D01*
X1104493Y-263956D01*
X1104239Y-262077D01*
X1102004Y-261874D01*
X1102004Y-260248D01*
X1098092Y-259740D01*
X1096162Y-257810D01*
X1092098Y-257810D01*
X1092098Y-256184D01*
X1090523Y-255778D01*
X1086002Y-255727D01*
X1085291Y-254152D01*
X1083106Y-253695D01*
X1073048Y-253695D01*
X1071524Y-252018D01*
X1066698Y-251561D01*
X1061872Y-252069D01*
X1061110Y-253695D01*
X1049528Y-253695D01*
X1047597Y-254711D01*
X1047191Y-255727D01*
X1042873Y-255828D01*
X1041146Y-256286D01*
X1040942Y-257810D01*
X1037336Y-257810D01*
X1036523Y-258622D01*
X1036523Y-259842D01*
X1032408Y-259842D01*
X1032408Y-261924D01*
X1029106Y-261924D01*
X1028293Y-262737D01*
X1028293Y-263906D01*
X1025601Y-264312D01*
X1024331Y-265938D01*
X1022502Y-266395D01*
X1022045Y-268071D01*
X1020267Y-268274D01*
X1020013Y-270103D01*
X1018184Y-270306D01*
X1017981Y-272186D01*
X1016152Y-272389D01*
X1015898Y-274218D01*
X1014069Y-274421D01*
X1013866Y-276301D01*
X1011986Y-276504D01*
X1011783Y-278333D01*
X1009954Y-278536D01*
X1009751Y-280416D01*
X1008786Y-280416D01*
X1007719Y-281533D01*
X1007719Y-282752D01*
X1005687Y-284988D01*
X1005687Y-286613D01*
X1004671Y-286613D01*
X1003604Y-287680D01*
X1003604Y-290728D01*
X1002385Y-290728D01*
X1001572Y-291541D01*
X1001572Y-294843D01*
X1000556Y-294843D01*
X999490Y-295910D01*
X999490Y-301040D01*
X998270Y-301040D01*
X997458Y-301853D01*
X997458Y-307543D01*
X995730Y-307543D01*
X995730Y-309219D01*
X950112Y-309219D01*
X950112Y-307187D01*
X952195Y-307187D01*
X952195Y-305104D01*
X954227Y-305104D01*
X954227Y-302514D01*
X956259Y-300837D01*
X956310Y-298958D01*
X958342Y-298958D01*
X958342Y-296926D01*
X960221Y-296722D01*
X960424Y-294843D01*
X961644Y-294843D01*
X962456Y-294030D01*
X962456Y-292506D01*
X963828Y-292150D01*
X964539Y-290322D01*
X964539Y-288645D01*
X966571Y-288645D01*
X966571Y-286613D01*
X968654Y-286613D01*
X968654Y-284530D01*
X970686Y-284530D01*
X970686Y-282498D01*
X972769Y-282498D01*
X972769Y-280416D01*
X974801Y-280416D01*
X974801Y-278384D01*
X976884Y-278384D01*
X976884Y-276301D01*
X978916Y-276301D01*
X978916Y-274269D01*
X980998Y-274269D01*
X980998Y-272186D01*
X983030Y-272186D01*
X983030Y-270154D01*
X984707Y-270154D01*
X986434Y-269341D01*
X986840Y-268173D01*
X988821Y-267766D01*
X989279Y-266090D01*
X991108Y-265887D01*
X991311Y-263956D01*
X993343Y-263956D01*
X993343Y-261924D01*
X995375Y-261924D01*
X995375Y-259842D01*
X998423Y-259842D01*
X999490Y-258775D01*
X999490Y-257860D01*
X1001369Y-257657D01*
X1001572Y-255727D01*
X1003604Y-255727D01*
X1003604Y-255117D01*
X1004976Y-254762D01*
X1004976Y-253746D01*
X1007567Y-253492D01*
X1007770Y-251612D01*
X1009497Y-251612D01*
X1011326Y-249631D01*
X1013714Y-249377D01*
X1013968Y-247497D01*
X1015796Y-247497D01*
X1017371Y-247091D01*
X1017981Y-245465D01*
X1020064Y-245465D01*
X1020064Y-243433D01*
X1024026Y-243230D01*
X1024229Y-241350D01*
X1027480Y-241350D01*
X1028293Y-240538D01*
X1028293Y-239267D01*
X1032103Y-239267D01*
X1032510Y-237236D01*
X1035710Y-237236D01*
X1036523Y-236423D01*
X1036523Y-235204D01*
X1040485Y-235000D01*
X1040688Y-233121D01*
X1044752Y-233121D01*
X1044752Y-232308D01*
X1045870Y-231038D01*
X1050086Y-231038D01*
X1050950Y-230225D01*
X1050950Y-229006D01*
X1055624Y-229006D01*
X1056436Y-228193D01*
X1056436Y-226923D01*
X1061059Y-226923D01*
X1062736Y-224891D01*
X1067206Y-224790D01*
X1068933Y-224332D01*
X1069136Y-222859D01*
X1075436Y-222656D01*
X1075690Y-220776D01*
X1083665Y-220725D01*
X1085342Y-218694D01*
X1095451Y-218694D01*
X1096264Y-216662D01*
X1110081Y-216560D01*
X1111808Y-216103D01*
X1112469Y-214579D01*
X1148283Y-214579D01*
X1148842Y-215493D01*
X1150518Y-216662D01*
X1164437Y-216662D01*
X1164437Y-217678D01*
X1166469Y-218694D01*
X1175410Y-218694D01*
X1176934Y-220776D01*
X1184503Y-220776D01*
X1185316Y-222808D01*
X1192834Y-222808D01*
X1193088Y-224688D01*
X1198981Y-224891D01*
X1199388Y-226923D01*
X1205230Y-226923D01*
X1205230Y-229006D01*
X1209344Y-229006D01*
X1209344Y-229971D01*
X1210868Y-231038D01*
X1215440Y-231038D01*
X1215847Y-233121D01*
X1219504Y-233121D01*
X1220266Y-235153D01*
X1223924Y-235356D01*
X1224178Y-236728D01*
X1224991Y-237236D01*
X1227886Y-237236D01*
X1227886Y-238201D01*
X1228953Y-239267D01*
X1232306Y-239267D01*
X1232509Y-241147D01*
X1236065Y-241401D01*
X1236522Y-243382D01*
X1240129Y-243382D01*
X1240536Y-245465D01*
X1242822Y-245465D01*
X1244498Y-247497D01*
X1246225Y-247497D01*
X1247038Y-249580D01*
X1250492Y-249580D01*
X1250696Y-251460D01*
X1252728Y-251815D01*
X1252982Y-253187D01*
X1253794Y-253695D01*
X1256639Y-253695D01*
X1256842Y-255574D01*
X1258722Y-255778D01*
X1259128Y-257810D01*
X1260754Y-257810D01*
X1262786Y-259842D01*
X1264869Y-259842D01*
X1265072Y-261721D01*
X1266901Y-261975D01*
X1267307Y-263956D01*
X1268984Y-263956D01*
X1269441Y-266039D01*
X1271016Y-266039D01*
X1273098Y-268071D01*
X1275181Y-268071D01*
X1275181Y-270154D01*
X1277213Y-270154D01*
X1277416Y-272034D01*
X1279296Y-272237D01*
X1279499Y-274116D01*
X1281328Y-274320D01*
X1281531Y-276148D01*
X1283462Y-276352D01*
X1283462Y-278384D01*
X1285443Y-278384D01*
X1285646Y-280263D01*
X1287576Y-280466D01*
X1287576Y-282498D01*
X1289558Y-282498D01*
X1289761Y-284378D01*
X1291640Y-284581D01*
X1291844Y-286461D01*
X1293672Y-286664D01*
X1293876Y-288493D01*
X1295755Y-288696D01*
X1295958Y-290576D01*
X1297838Y-290779D01*
X1297838Y-292760D01*
X1300226Y-295097D01*
X1300226Y-296519D01*
X1301902Y-296976D01*
X1302258Y-298958D01*
X1303985Y-298958D01*
X1304188Y-300837D01*
X1306068Y-301040D01*
X1306068Y-303123D01*
X1308049Y-305104D01*
X1308506Y-307187D01*
X1310182Y-307187D01*
X1310182Y-309219D01*
X1312265Y-309219D01*
X1312265Y-310896D01*
X1312672Y-313029D01*
X1314246Y-313436D01*
X1314450Y-315264D01*
X1316380Y-315468D01*
X1316380Y-318211D01*
X1317091Y-319532D01*
X1318412Y-319532D01*
X1318412Y-321919D01*
X1320444Y-323748D01*
X1320647Y-325526D01*
X1322527Y-325729D01*
X1322527Y-328269D01*
X1322933Y-329844D01*
X1324508Y-329844D01*
X1324965Y-333603D01*
X1326642Y-334010D01*
X1326642Y-336956D01*
X1327708Y-338074D01*
X1328623Y-338074D01*
X1329029Y-341477D01*
X1329436Y-342188D01*
X1330756Y-342188D01*
X1330756Y-346303D01*
X1332839Y-346303D01*
X1332839Y-349300D01*
X1333246Y-350418D01*
X1334871Y-350418D01*
X1334871Y-353720D01*
X1335328Y-355955D01*
X1336954Y-356666D01*
X1336954Y-358648D01*
X1283462Y-358648D01*
X1283411Y-355701D01*
X1282903Y-354939D01*
X1281531Y-354685D01*
X1281379Y-348742D01*
X1279347Y-348284D01*
X1279347Y-344678D01*
X1277264Y-343154D01*
X1277264Y-340106D01*
X1276451Y-340106D01*
X1275181Y-338988D01*
X1275181Y-336296D01*
X1273149Y-335889D01*
X1273149Y-333552D01*
X1272438Y-332232D01*
X1271117Y-332232D01*
X1270914Y-329996D01*
X1269085Y-329793D01*
X1268882Y-327914D01*
X1267002Y-327710D01*
X1267002Y-325729D01*
X1264920Y-325729D01*
X1264920Y-323646D01*
X1262888Y-323646D01*
X1262888Y-321614D01*
X1260856Y-321614D01*
X1260652Y-319684D01*
X1258773Y-319481D01*
X1258570Y-317652D01*
X1256690Y-317449D01*
X1256690Y-315772D01*
X1254810Y-315315D01*
X1253490Y-314045D01*
X1252575Y-314045D01*
X1252575Y-313385D01*
X1250492Y-313385D01*
X1250492Y-312013D01*
X1249172Y-311302D01*
X1246378Y-311302D01*
X1246378Y-309676D01*
X1245311Y-309219D01*
X1242263Y-309219D01*
X1242263Y-307594D01*
X1240739Y-307187D01*
X1236116Y-307187D01*
X1236116Y-305562D01*
X1235049Y-305104D01*
X1229715Y-305104D01*
X1228953Y-303530D01*
X1226769Y-303072D01*
X1198372Y-303072D01*
X1197000Y-303784D01*
X1197000Y-305104D01*
X1189990Y-305155D01*
X1189228Y-305663D01*
X1188974Y-307035D01*
X1184859Y-307390D01*
X1183640Y-307949D01*
X1182979Y-309168D01*
X1179525Y-309575D01*
X1178864Y-309981D01*
X1178864Y-311302D01*
X1176782Y-311302D01*
X1176324Y-312521D01*
X1175461Y-313385D01*
X1173175Y-313385D01*
X1172311Y-314198D01*
X1172311Y-315417D01*
X1170584Y-315417D01*
X1170127Y-316636D01*
X1169314Y-317500D01*
X1166571Y-317906D01*
X1166164Y-319481D01*
X1164437Y-319887D01*
X1164031Y-321614D01*
X1162862Y-321614D01*
X1162050Y-322427D01*
X1162050Y-323545D01*
X1159967Y-323951D01*
X1159967Y-325729D01*
X1158544Y-325729D01*
X1157782Y-327812D01*
X1156258Y-328168D01*
X1155903Y-329641D01*
X1155852Y-330911D01*
X1154988Y-331724D01*
X1153820Y-332181D01*
X1153820Y-333959D01*
X1152601Y-333959D01*
X1151737Y-334772D01*
X1151737Y-337058D01*
X1150874Y-337921D01*
X1149705Y-338378D01*
X1149705Y-340461D01*
X1148384Y-340461D01*
X1147927Y-341122D01*
X1147521Y-344576D01*
X1146708Y-344576D01*
X1145844Y-345592D01*
X1145387Y-350570D01*
X1143965Y-350774D01*
X1143508Y-352907D01*
X1143508Y-358648D01*
X1141476Y-358648D01*
X1141497Y-380187D01*
X1170279Y-380187D01*
X1170279Y-368858D01*
X1171702Y-368503D01*
X1172311Y-366826D01*
X1172311Y-360730D01*
X1174242Y-360527D01*
X1174445Y-356616D01*
X1176274Y-356412D01*
X1176477Y-352501D01*
X1178306Y-352298D01*
X1178560Y-350418D01*
X1179474Y-350418D01*
X1180541Y-349300D01*
X1180541Y-347776D01*
X1182573Y-346100D01*
X1182624Y-344220D01*
X1184605Y-344220D01*
X1184859Y-343712D01*
X1187043Y-342188D01*
X1187958Y-342188D01*
X1188770Y-341325D01*
X1188770Y-340156D01*
X1190701Y-339953D01*
X1190904Y-338074D01*
X1194155Y-338074D01*
X1194968Y-337210D01*
X1194968Y-336042D01*
X1198930Y-335838D01*
X1199134Y-333959D01*
X1205077Y-333857D01*
X1206804Y-333400D01*
X1207465Y-331876D01*
X1218539Y-331876D01*
X1220317Y-333959D01*
X1225804Y-333959D01*
X1225804Y-334924D01*
X1227328Y-335991D01*
X1230020Y-335991D01*
X1232052Y-338074D01*
X1234338Y-338074D01*
X1234694Y-339394D01*
X1236522Y-340106D01*
X1238148Y-340106D01*
X1238351Y-341985D01*
X1240129Y-342188D01*
X1240536Y-344220D01*
X1242212Y-344220D01*
X1242618Y-346303D01*
X1244295Y-346303D01*
X1244498Y-348183D01*
X1246378Y-348386D01*
X1246378Y-350418D01*
X1248460Y-350418D01*
X1248460Y-354533D01*
X1250492Y-354533D01*
X1250492Y-357530D01*
X1250950Y-358648D01*
X1252575Y-358648D01*
X1252575Y-363270D01*
X1252982Y-364794D01*
X1254658Y-364794D01*
X1254658Y-383641D01*
X1253286Y-383641D01*
X1252575Y-385013D01*
X1252575Y-389737D01*
X1251204Y-390093D01*
X1250492Y-391922D01*
X1250492Y-393547D01*
X1248867Y-393954D01*
X1248359Y-397713D01*
X1247241Y-397713D01*
X1246378Y-398526D01*
X1246378Y-399745D01*
X1244752Y-400202D01*
X1244295Y-402132D01*
X1242618Y-402539D01*
X1242618Y-403199D01*
X1240586Y-405028D01*
X1240586Y-405892D01*
X1238554Y-406349D01*
X1238148Y-408025D01*
X1236116Y-408025D01*
X1236116Y-409956D01*
X1232509Y-410565D01*
X1232306Y-412140D01*
X1230325Y-412140D01*
X1228496Y-412800D01*
X1228140Y-414172D01*
X1224280Y-414274D01*
X1222552Y-414731D01*
X1221892Y-416255D01*
X1203198Y-416255D01*
X1203198Y-414629D01*
X1201674Y-414172D01*
X1197000Y-414172D01*
X1197000Y-412546D01*
X1195933Y-412140D01*
X1192885Y-412140D01*
X1192885Y-410464D01*
X1191818Y-410057D01*
X1188770Y-410057D01*
X1188770Y-408025D01*
X1186789Y-408025D01*
X1186586Y-406146D01*
X1184656Y-405892D01*
X1184656Y-404215D01*
X1182624Y-403809D01*
X1182624Y-402183D01*
X1180592Y-401777D01*
X1180388Y-399948D01*
X1178509Y-399745D01*
X1178509Y-398119D01*
X1177798Y-396290D01*
X1176426Y-395935D01*
X1176426Y-393649D01*
X1174394Y-391617D01*
X1174394Y-389128D01*
X1173683Y-387756D01*
X1172311Y-387756D01*
X1172311Y-381914D01*
X1170279Y-380187D01*
X1141497Y-380187D01*
X1141526Y-388975D01*
X1141984Y-390702D01*
X1143508Y-391363D01*
X1143508Y-396646D01*
X1143965Y-397713D01*
X1145590Y-397713D01*
X1145590Y-402590D01*
X1146302Y-403910D01*
X1147622Y-403910D01*
X1147622Y-406908D01*
X1148080Y-408025D01*
X1149705Y-408025D01*
X1149705Y-410819D01*
X1150416Y-412140D01*
X1151737Y-412140D01*
X1151737Y-414578D01*
X1153820Y-415747D01*
X1153820Y-416966D01*
X1154531Y-418287D01*
X1155801Y-418287D01*
X1156055Y-420166D01*
X1157884Y-420420D01*
X1158087Y-422249D01*
X1159967Y-422452D01*
X1159967Y-424484D01*
X1162050Y-424484D01*
X1162050Y-426516D01*
X1164031Y-426516D01*
X1164285Y-428396D01*
X1166114Y-428650D01*
X1166317Y-430479D01*
X1168146Y-430682D01*
X1168552Y-432714D01*
X1170635Y-432714D01*
X1170635Y-434035D01*
X1171956Y-434746D01*
X1174394Y-434746D01*
X1174394Y-436829D01*
X1177086Y-436829D01*
X1178001Y-438708D01*
X1181608Y-438912D01*
X1183081Y-440943D01*
X1186738Y-440943D01*
X1186738Y-442976D01*
X1192733Y-442976D01*
X1193546Y-445058D01*
X1203553Y-445058D01*
X1203553Y-446074D01*
X1205534Y-447090D01*
X1221689Y-447090D01*
X1221689Y-445058D01*
X1231849Y-444855D01*
X1232052Y-442976D01*
X1239215Y-442976D01*
X1239215Y-440943D01*
X1243533Y-440943D01*
X1244346Y-440131D01*
X1244346Y-438861D01*
X1248460Y-438861D01*
X1248460Y-436829D01*
X1250137Y-436829D01*
X1251966Y-436118D01*
X1252321Y-434797D01*
X1254455Y-434593D01*
X1254658Y-432714D01*
X1256690Y-432714D01*
X1256690Y-431901D01*
X1257808Y-430631D01*
X1259535Y-430631D01*
X1260805Y-429514D01*
X1260805Y-428599D01*
X1262024Y-428599D01*
X1262888Y-427786D01*
X1262888Y-426567D01*
X1264767Y-426364D01*
X1264970Y-424484D01*
X1266139Y-424484D01*
X1267002Y-423672D01*
X1267002Y-422401D01*
X1268323Y-422401D01*
X1269034Y-421081D01*
X1269034Y-419557D01*
X1270152Y-418287D01*
X1271066Y-418287D01*
X1271066Y-416306D01*
X1272997Y-416051D01*
X1273200Y-413918D01*
X1274521Y-413562D01*
X1275181Y-411734D01*
X1275181Y-410057D01*
X1276451Y-410057D01*
X1277264Y-409244D01*
X1277264Y-405942D01*
X1278483Y-405942D01*
X1279347Y-405130D01*
X1279347Y-401269D01*
X1281328Y-399592D01*
X1281379Y-393598D01*
X1283462Y-393598D01*
X1283462Y-391566D01*
X1347216Y-391566D01*
X1347216Y-398678D01*
X1347673Y-400862D01*
X1349298Y-401624D01*
X1349298Y-414121D01*
X1349705Y-416255D01*
X1351330Y-417779D01*
X1351330Y-453593D01*
X1349806Y-453796D01*
X1349349Y-456895D01*
X1349298Y-470052D01*
X1347724Y-470255D01*
X1347317Y-472287D01*
X1347216Y-480720D01*
X1346504Y-480720D01*
X1345184Y-482955D01*
X1345184Y-490321D01*
X1343914Y-490321D01*
X1343101Y-491134D01*
X1343101Y-496519D01*
X1341272Y-498144D01*
X1340967Y-502970D01*
X1338986Y-504850D01*
X1338986Y-508812D01*
X1338072Y-509371D01*
X1336954Y-511556D01*
X1336954Y-515010D01*
X1335278Y-515416D01*
X1334871Y-516890D01*
X1334871Y-520192D01*
X1334008Y-521055D01*
X1332839Y-521512D01*
X1332839Y-525322D01*
X1331569Y-525322D01*
X1330756Y-526135D01*
X1330756Y-529437D01*
X1329791Y-529437D01*
X1328724Y-530504D01*
X1328724Y-533552D01*
X1327708Y-533552D01*
X1326642Y-534619D01*
X1326642Y-537667D01*
X1325676Y-537667D01*
X1324610Y-538734D01*
X1324610Y-541782D01*
X1323340Y-541782D01*
X1322527Y-542594D01*
X1322527Y-545846D01*
X1320647Y-546049D01*
X1320444Y-548182D01*
X1319123Y-548538D01*
X1318412Y-550367D01*
X1318412Y-552043D01*
X1316380Y-552043D01*
X1316329Y-554939D01*
X1314297Y-556666D01*
X1314297Y-558241D01*
X1313332Y-558241D01*
X1312265Y-559308D01*
X1312265Y-560527D01*
X1310182Y-562762D01*
X1310182Y-564388D01*
X1308963Y-564388D01*
X1308150Y-565200D01*
X1308150Y-566775D01*
X1306474Y-566775D01*
X1306017Y-570534D01*
X1304188Y-570738D01*
X1303985Y-572566D01*
X1302105Y-572770D01*
X1301902Y-574598D01*
X1300226Y-575056D01*
X1299819Y-577088D01*
X1298194Y-577088D01*
X1298194Y-578662D01*
X1296111Y-580186D01*
X1295704Y-582879D01*
X1293876Y-583082D01*
X1293672Y-584911D01*
X1291844Y-585165D01*
X1291640Y-586994D01*
X1289761Y-587197D01*
X1289558Y-589026D01*
X1287729Y-589280D01*
X1287526Y-591108D01*
X1285646Y-591312D01*
X1285443Y-593140D01*
X1283614Y-593394D01*
X1283411Y-595274D01*
X1281379Y-595274D01*
X1281379Y-597255D01*
X1279499Y-597509D01*
X1279296Y-599338D01*
X1277416Y-599541D01*
X1277213Y-601421D01*
X1275181Y-601421D01*
X1272692Y-603808D01*
X1271473Y-603808D01*
X1271270Y-605383D01*
X1269034Y-605586D01*
X1269034Y-607568D01*
X1267155Y-607771D01*
X1266952Y-609650D01*
X1265326Y-609650D01*
X1263091Y-611784D01*
X1261160Y-612140D01*
X1260957Y-613613D01*
X1258925Y-613968D01*
X1258722Y-615746D01*
X1256030Y-616204D01*
X1254709Y-617880D01*
X1253388Y-617880D01*
X1252575Y-618693D01*
X1252575Y-619963D01*
X1251153Y-619963D01*
X1249222Y-620979D01*
X1248816Y-621995D01*
X1247241Y-621995D01*
X1246378Y-622808D01*
X1246378Y-624078D01*
X1243736Y-624078D01*
X1242618Y-624484D01*
X1242618Y-626110D01*
X1240739Y-626110D01*
X1238961Y-628142D01*
X1236268Y-628345D01*
X1236065Y-630224D01*
X1232814Y-630224D01*
X1232001Y-631037D01*
X1232001Y-632307D01*
X1227886Y-632307D01*
X1227886Y-634339D01*
X1224584Y-634339D01*
X1223772Y-635152D01*
X1223772Y-636371D01*
X1219809Y-636574D01*
X1219606Y-638454D01*
X1216050Y-638556D01*
X1214323Y-639013D01*
X1213662Y-640537D01*
X1210208Y-640537D01*
X1209344Y-641350D01*
X1209344Y-642569D01*
X1206093Y-642569D01*
X1203553Y-643026D01*
X1203553Y-644652D01*
X1199235Y-644702D01*
X1197508Y-645160D01*
X1197305Y-646684D01*
X1192733Y-646684D01*
X1191260Y-647090D01*
X1190853Y-648766D01*
X1185214Y-648817D01*
X1183487Y-649274D01*
X1182776Y-650798D01*
X1176274Y-650849D01*
X1174800Y-651205D01*
X1174394Y-652830D01*
X1163675Y-653034D01*
X1162100Y-654913D01*
X1147724Y-654913D01*
X1145844Y-653948D01*
X1144930Y-654304D01*
X1143711Y-656945D01*
X1116838Y-656996D01*
X1116584Y-655421D01*
X1113536Y-654964D01*
X1100328Y-654913D01*
X1100328Y-585266D01*
X1102715Y-582930D01*
X1107744Y-582930D01*
X1108557Y-582066D01*
X1108557Y-580847D01*
X1112621Y-580847D01*
X1114653Y-578815D01*
X1117447Y-578815D01*
X1118819Y-577443D01*
X1118819Y-576732D01*
X1120902Y-576732D01*
X1120902Y-575919D01*
X1122019Y-574700D01*
X1125016Y-574700D01*
X1125016Y-572617D01*
X1127048Y-572617D01*
X1127048Y-570585D01*
X1129944Y-570585D01*
X1131163Y-569417D01*
X1131163Y-568502D01*
X1132433Y-568502D01*
X1133246Y-567690D01*
X1133246Y-566470D01*
X1135126Y-566267D01*
X1135329Y-564388D01*
X1136548Y-564388D01*
X1137361Y-563575D01*
X1137361Y-562356D01*
X1139393Y-562356D01*
X1139393Y-560019D01*
X1140764Y-559663D01*
X1141476Y-557834D01*
X1141476Y-556158D01*
X1143508Y-556158D01*
X1143508Y-554126D01*
X1144778Y-554126D01*
X1145590Y-553262D01*
X1145590Y-550011D01*
X1147470Y-549808D01*
X1147673Y-545896D01*
X1149502Y-545693D01*
X1149756Y-541782D01*
X1151585Y-541578D01*
X1151788Y-535635D01*
X1153617Y-535432D01*
X1153820Y-527354D01*
X1154633Y-527354D01*
X1155852Y-526237D01*
X1155852Y-501243D01*
X1153820Y-500430D01*
X1153820Y-492861D01*
X1151737Y-491337D01*
X1151737Y-486511D01*
X1149705Y-486105D01*
X1149502Y-482244D01*
X1147673Y-482041D01*
X1147470Y-478129D01*
X1145590Y-477926D01*
X1145590Y-474167D01*
X1143558Y-473760D01*
X1143355Y-471982D01*
X1141476Y-471728D01*
X1141476Y-468884D01*
X1140968Y-468122D01*
X1139596Y-467868D01*
X1139342Y-465937D01*
X1137361Y-465531D01*
X1137361Y-463905D01*
X1135278Y-463499D01*
X1135278Y-461822D01*
X1133246Y-461416D01*
X1133246Y-459790D01*
X1131163Y-459384D01*
X1131163Y-457403D01*
X1128877Y-457403D01*
X1128522Y-456031D01*
X1126693Y-455320D01*
X1125067Y-455320D01*
X1124813Y-453440D01*
X1123035Y-453237D01*
X1122273Y-451612D01*
X1118819Y-451154D01*
X1118819Y-449580D01*
X1117295Y-449173D01*
X1114704Y-449173D01*
X1114704Y-447751D01*
X1112977Y-447090D01*
X1109726Y-447090D01*
X1108049Y-445058D01*
X1102360Y-445058D01*
X1102360Y-443433D01*
X1100836Y-442976D01*
X1089253Y-442976D01*
X1086916Y-440943D01*
X1081024Y-440943D01*
X1078738Y-442366D01*
X1078738Y-442976D01*
X1066393Y-442976D01*
X1065326Y-444093D01*
X1065326Y-445008D01*
X1059332Y-445211D01*
X1059129Y-447090D01*
X1054862Y-447141D01*
X1053388Y-447497D01*
X1052982Y-449173D01*
X1049934Y-449173D01*
X1048867Y-450240D01*
X1048867Y-451205D01*
X1047191Y-451205D01*
X1045362Y-451916D01*
X1045057Y-453237D01*
X1042873Y-453440D01*
X1042669Y-455269D01*
X1040028Y-455676D01*
X1038707Y-457352D01*
X1036726Y-457555D01*
X1036472Y-459384D01*
X1034846Y-459790D01*
X1034389Y-461518D01*
X1033221Y-461518D01*
X1032408Y-462330D01*
X1032408Y-463550D01*
X1030376Y-463550D01*
X1030376Y-465531D01*
X1028649Y-465988D01*
X1028242Y-467969D01*
X1026769Y-468172D01*
X1026109Y-471779D01*
X1024331Y-471982D01*
X1024128Y-473862D01*
X1022858Y-473862D01*
X1022146Y-475183D01*
X1022146Y-477926D01*
X1020267Y-478129D01*
X1020013Y-482041D01*
X1018184Y-482244D01*
X1017981Y-486054D01*
X1015949Y-486816D01*
X1015949Y-492353D01*
X1014730Y-492353D01*
X1013917Y-493217D01*
X1013917Y-500888D01*
X1012342Y-501142D01*
X1011936Y-503174D01*
X1011936Y-513486D01*
X1042517Y-513486D01*
X1042720Y-502666D01*
X1043940Y-502666D01*
X1044752Y-501853D01*
X1044752Y-496468D01*
X1046835Y-496468D01*
X1046835Y-492353D01*
X1048867Y-492353D01*
X1048867Y-490321D01*
X1050086Y-490321D01*
X1050950Y-489508D01*
X1050950Y-487984D01*
X1052322Y-487629D01*
X1052982Y-485800D01*
X1052982Y-484124D01*
X1055065Y-484124D01*
X1055065Y-483362D01*
X1056182Y-482092D01*
X1057910Y-482092D01*
X1059180Y-480974D01*
X1059180Y-480059D01*
X1061059Y-479856D01*
X1061262Y-477977D01*
X1064107Y-477977D01*
X1065326Y-476859D01*
X1065326Y-475894D01*
X1067003Y-475894D01*
X1068832Y-475234D01*
X1069187Y-473862D01*
X1074318Y-473862D01*
X1075639Y-473151D01*
X1075639Y-471779D01*
X1092454Y-471779D01*
X1092454Y-473049D01*
X1093266Y-473862D01*
X1098600Y-473862D01*
X1098600Y-474878D01*
X1100632Y-475894D01*
X1102715Y-475894D01*
X1102715Y-477266D01*
X1104036Y-477977D01*
X1106424Y-477977D01*
X1106881Y-480009D01*
X1108913Y-480009D01*
X1108913Y-481380D01*
X1110234Y-482092D01*
X1112672Y-482092D01*
X1112672Y-484124D01*
X1114704Y-484124D01*
X1114704Y-486257D01*
X1116736Y-488238D01*
X1117346Y-490169D01*
X1118768Y-490372D01*
X1119022Y-492201D01*
X1120902Y-492404D01*
X1120902Y-495401D01*
X1121308Y-496468D01*
X1122934Y-496468D01*
X1122934Y-499821D01*
X1123391Y-502056D01*
X1124966Y-502767D01*
X1125169Y-512622D01*
X1126032Y-513181D01*
X1125016Y-516534D01*
X1125016Y-525272D01*
X1123340Y-525678D01*
X1122984Y-527202D01*
X1122934Y-531469D01*
X1120902Y-531469D01*
X1120902Y-534619D01*
X1120038Y-535432D01*
X1118819Y-535889D01*
X1118819Y-537565D01*
X1117092Y-538022D01*
X1116685Y-540054D01*
X1115060Y-540054D01*
X1115060Y-541731D01*
X1113180Y-543763D01*
X1111199Y-544525D01*
X1110894Y-545795D01*
X1108913Y-546201D01*
X1108456Y-547928D01*
X1107287Y-547928D01*
X1106474Y-548741D01*
X1106474Y-550011D01*
X1103477Y-550011D01*
X1102360Y-551078D01*
X1102360Y-552043D01*
X1099312Y-552043D01*
X1098245Y-553110D01*
X1098245Y-554126D01*
X1093165Y-554126D01*
X1092098Y-554532D01*
X1092098Y-556107D01*
X1090269Y-555193D01*
X1089355Y-555548D01*
X1089355Y-556158D01*
X1075639Y-556158D01*
X1075639Y-554532D01*
X1074521Y-554126D01*
X1069441Y-554126D01*
X1069441Y-552043D01*
X1065326Y-552043D01*
X1065326Y-550418D01*
X1064260Y-550011D01*
X1061262Y-550011D01*
X1061059Y-548081D01*
X1059180Y-547878D01*
X1059180Y-546252D01*
X1057198Y-545846D01*
X1056436Y-544169D01*
X1055166Y-544169D01*
X1052982Y-542086D01*
X1052982Y-540918D01*
X1052474Y-540105D01*
X1051102Y-539851D01*
X1050899Y-537667D01*
X1048867Y-537667D01*
X1048867Y-535838D01*
X1046886Y-533908D01*
X1046632Y-531622D01*
X1044752Y-531418D01*
X1044752Y-525932D01*
X1042720Y-525170D01*
X1042517Y-513486D01*
X1011936Y-513486D01*
X1011885Y-524764D01*
X1012393Y-526491D01*
X1013917Y-527202D01*
X1013917Y-534060D01*
X1014323Y-535584D01*
X1015949Y-535584D01*
X1015949Y-541782D01*
X1018032Y-541782D01*
X1018032Y-544779D01*
X1018438Y-545896D01*
X1020064Y-545896D01*
X1020064Y-548894D01*
X1020470Y-550011D01*
X1021994Y-550011D01*
X1022654Y-553923D01*
X1024128Y-554126D01*
X1024331Y-556006D01*
X1026261Y-556209D01*
X1026261Y-558190D01*
X1028547Y-560425D01*
X1028801Y-561848D01*
X1030274Y-562457D01*
X1030986Y-564388D01*
X1032256Y-564388D01*
X1033018Y-566369D01*
X1034643Y-566623D01*
X1034846Y-568198D01*
X1036878Y-568604D01*
X1036878Y-569874D01*
X1038199Y-570585D01*
X1040587Y-570585D01*
X1040841Y-572465D01*
X1042619Y-572668D01*
X1043025Y-574700D01*
X1046784Y-574700D01*
X1046987Y-576580D01*
X1049223Y-576783D01*
X1049223Y-578002D01*
X1050950Y-578815D01*
X1053338Y-578815D01*
X1055319Y-580847D01*
X1059078Y-580847D01*
X1059840Y-582930D01*
X1066139Y-582930D01*
X1067409Y-584047D01*
X1067409Y-646684D01*
X1063294Y-646684D01*
X1063294Y-645363D01*
X1061974Y-644652D01*
X1057097Y-644652D01*
X1057097Y-643432D01*
X1056284Y-642569D01*
X1050950Y-642569D01*
X1050950Y-640943D01*
X1049832Y-640537D01*
X1046886Y-640537D01*
X1046480Y-638911D01*
X1044346Y-638454D01*
X1042720Y-638454D01*
X1042720Y-637895D01*
X1039876Y-636422D01*
X1036574Y-636422D01*
X1036370Y-634542D01*
X1032459Y-634339D01*
X1032256Y-632460D01*
X1028293Y-632256D01*
X1028293Y-630224D01*
X1025245Y-630224D01*
X1023721Y-628192D01*
X1022096Y-628192D01*
X1021334Y-626465D01*
X1018032Y-626008D01*
X1018032Y-624078D01*
X1013917Y-624078D01*
X1013917Y-621995D01*
X1011986Y-621995D01*
X1011326Y-620471D01*
X1007770Y-619810D01*
X1007567Y-618083D01*
X1005738Y-617829D01*
X1005332Y-616254D01*
X1003198Y-615848D01*
X1001572Y-615848D01*
X1001369Y-613968D01*
X999490Y-613714D01*
X999490Y-612038D01*
X997508Y-611632D01*
X996797Y-610006D01*
X993343Y-609549D01*
X993343Y-607618D01*
X991260Y-607618D01*
X991260Y-605891D01*
X989228Y-605434D01*
X989228Y-603808D01*
X987196Y-603402D01*
X986790Y-601878D01*
X984859Y-601472D01*
X984097Y-599795D01*
X982167Y-599338D01*
X980998Y-598220D01*
X980998Y-597306D01*
X978916Y-597306D01*
X978916Y-595274D01*
X976884Y-595274D01*
X976884Y-593191D01*
X974852Y-593191D01*
X974648Y-591312D01*
X972769Y-591108D01*
X972769Y-589076D01*
X970686Y-589076D01*
X970686Y-587044D01*
X968654Y-587044D01*
X968654Y-585114D01*
X967079Y-584454D01*
X965555Y-581202D01*
X964590Y-581202D01*
X964184Y-579170D01*
X962609Y-578967D01*
X962406Y-577037D01*
X960424Y-576681D01*
X960221Y-574852D01*
X958392Y-574649D01*
X958189Y-572770D01*
X956310Y-572566D01*
X956106Y-569010D01*
X954227Y-568807D01*
X954227Y-566775D01*
X952195Y-566369D01*
X951992Y-564540D01*
X950112Y-564337D01*
X950112Y-561492D01*
X949604Y-560679D01*
X948232Y-560425D01*
X947877Y-558393D01*
X945997Y-558190D01*
X945997Y-555752D01*
X945286Y-554431D01*
X943965Y-554431D01*
X943762Y-552196D01*
X941882Y-551992D01*
X941882Y-548538D01*
X939850Y-547776D01*
X939850Y-546252D01*
X939139Y-544423D01*
X937768Y-544068D01*
X937768Y-542239D01*
X935736Y-540715D01*
X935532Y-537819D01*
X933703Y-537616D01*
X933500Y-533704D01*
X931621Y-533501D01*
X931418Y-529590D01*
X929538Y-529386D01*
X929538Y-525526D01*
X927506Y-523595D01*
X927506Y-520192D01*
X926388Y-519125D01*
X925423Y-519125D01*
X925423Y-515315D01*
X923391Y-514908D01*
X923391Y-509473D01*
X921308Y-508711D01*
X921308Y-503478D01*
X920496Y-502666D01*
X919226Y-502666D01*
X919226Y-496874D01*
X917194Y-496417D01*
X917194Y-489356D01*
X916127Y-488238D01*
X915162Y-488238D01*
X915162Y-480009D01*
X913079Y-480009D01*
X913079Y-469798D01*
X912266Y-468020D01*
X910996Y-468020D01*
X910996Y-451256D01*
X910234Y-449529D01*
X880160Y-449529D01*
X880160Y-461060D01*
X880567Y-463245D01*
X882192Y-463651D01*
X882396Y-477570D01*
X884275Y-479043D01*
X884275Y-487629D01*
X885291Y-489559D01*
X886307Y-489966D01*
X886307Y-496062D01*
X886764Y-498195D01*
X888390Y-498601D01*
X888390Y-503631D01*
X888847Y-505815D01*
X890422Y-506526D01*
X890422Y-511200D01*
X891133Y-512978D01*
X892505Y-512978D01*
X892505Y-517804D01*
X893216Y-519125D01*
X894537Y-519125D01*
X894537Y-522478D01*
X894994Y-524510D01*
X896619Y-525272D01*
X896619Y-528320D01*
X897026Y-529437D01*
X898652Y-529437D01*
X898652Y-532739D01*
X899109Y-534974D01*
X900734Y-535686D01*
X900734Y-538378D01*
X901446Y-539699D01*
X902766Y-539699D01*
X902969Y-543661D01*
X904849Y-543864D01*
X904849Y-546862D01*
X905256Y-547928D01*
X906881Y-547928D01*
X906881Y-552043D01*
X908964Y-552043D01*
X908964Y-555091D01*
X909370Y-556158D01*
X910996Y-556158D01*
X910996Y-558495D01*
X911707Y-560273D01*
X913079Y-560273D01*
X913079Y-561949D01*
X913790Y-563778D01*
X915111Y-564134D01*
X915314Y-566267D01*
X917194Y-566470D01*
X917194Y-568807D01*
X917854Y-570585D01*
X919226Y-570585D01*
X919429Y-572465D01*
X921308Y-572668D01*
X921308Y-575665D01*
X921715Y-576732D01*
X923340Y-576732D01*
X923544Y-578612D01*
X925321Y-578815D01*
X925728Y-582218D01*
X926134Y-582930D01*
X927455Y-582930D01*
X927658Y-584809D01*
X929538Y-585012D01*
X929538Y-586740D01*
X931570Y-588568D01*
X931773Y-590956D01*
X933551Y-591159D01*
X933958Y-593191D01*
X935685Y-593191D01*
X935888Y-595071D01*
X937768Y-595325D01*
X937768Y-597306D01*
X939850Y-597306D01*
X939850Y-599998D01*
X940917Y-601065D01*
X941882Y-601065D01*
X942340Y-603148D01*
X943914Y-603554D01*
X944321Y-605536D01*
X945896Y-605536D01*
X946302Y-607618D01*
X947978Y-607618D01*
X948385Y-609650D01*
X950010Y-609650D01*
X950417Y-611733D01*
X952093Y-611733D01*
X952500Y-613765D01*
X954125Y-613765D01*
X954532Y-615848D01*
X956208Y-615848D01*
X956614Y-617880D01*
X958240Y-617880D01*
X958646Y-619963D01*
X960323Y-619963D01*
X960729Y-621995D01*
X962304Y-621995D01*
X963066Y-624078D01*
X964793Y-624078D01*
X965149Y-625449D01*
X966978Y-626110D01*
X968654Y-626110D01*
X968654Y-628192D01*
X970635Y-628192D01*
X970838Y-630072D01*
X972667Y-630275D01*
X973074Y-632307D01*
X974648Y-632307D01*
X975410Y-634339D01*
X976833Y-634339D01*
X978916Y-635558D01*
X978916Y-636422D01*
X980948Y-636422D01*
X981151Y-638302D01*
X982878Y-638505D01*
X983640Y-640537D01*
X987094Y-640537D01*
X987298Y-642416D01*
X989177Y-642620D01*
X989584Y-644652D01*
X991209Y-644652D01*
X993292Y-645820D01*
X993343Y-646684D01*
X995324Y-646684D01*
X996035Y-648766D01*
X999439Y-648766D01*
X999642Y-650646D01*
X1001826Y-650849D01*
X1002182Y-652170D01*
X1004011Y-652881D01*
X1005636Y-652881D01*
X1005840Y-654761D01*
X1009802Y-654964D01*
X1009802Y-656996D01*
X1013866Y-656996D01*
X1014069Y-658876D01*
X1017930Y-659079D01*
X1018336Y-661111D01*
X1022045Y-661111D01*
X1022451Y-663143D01*
X1026109Y-663143D01*
X1026871Y-665226D01*
X1030681Y-665226D01*
X1030681Y-666546D01*
X1032052Y-667258D01*
X1036472Y-667258D01*
X1036878Y-669340D01*
X1040637Y-669340D01*
X1040637Y-670306D01*
X1042162Y-671372D01*
X1046683Y-671372D01*
X1047445Y-673455D01*
X1052931Y-673455D01*
X1053642Y-675487D01*
X1059484Y-675487D01*
X1059688Y-677011D01*
X1061415Y-677468D01*
X1067257Y-677570D01*
X1068019Y-679602D01*
X1075994Y-679602D01*
X1076401Y-680669D01*
X1078331Y-681685D01*
X1086916Y-681685D01*
X1087831Y-683564D01*
X1102512Y-683920D01*
X1102817Y-685292D01*
X1103579Y-685800D01*
X1157935Y-685800D01*
X1157935Y-683717D01*
X1171854Y-683717D01*
X1173886Y-681685D01*
X1182573Y-681685D01*
X1184249Y-681024D01*
X1184605Y-679602D01*
X1192072Y-679602D01*
X1192885Y-678789D01*
X1192885Y-677570D01*
X1200505Y-677570D01*
X1201267Y-675487D01*
X1206500Y-675487D01*
X1207312Y-674674D01*
X1207312Y-673455D01*
X1213459Y-673455D01*
X1213459Y-671372D01*
X1218844Y-671372D01*
X1219657Y-670560D01*
X1219657Y-669340D01*
X1223619Y-669290D01*
X1225296Y-667258D01*
X1229106Y-667258D01*
X1229918Y-666445D01*
X1229918Y-665226D01*
X1233881Y-665022D01*
X1234084Y-663143D01*
X1238148Y-663143D01*
X1238148Y-661111D01*
X1242263Y-661111D01*
X1242263Y-659028D01*
X1246378Y-659028D01*
X1246378Y-656996D01*
X1250492Y-656996D01*
X1250492Y-654964D01*
X1254455Y-654761D01*
X1254658Y-652881D01*
X1257909Y-652881D01*
X1258722Y-652068D01*
X1258722Y-650798D01*
X1260805Y-650798D01*
X1260805Y-648817D01*
X1264767Y-648563D01*
X1264970Y-646684D01*
X1266596Y-646684D01*
X1268425Y-646023D01*
X1268780Y-644652D01*
X1271066Y-644652D01*
X1271066Y-642569D01*
X1272692Y-642569D01*
X1274927Y-641502D01*
X1275283Y-640537D01*
X1277264Y-640537D01*
X1277264Y-638454D01*
X1279347Y-638454D01*
X1279347Y-636422D01*
X1281328Y-636422D01*
X1283004Y-635762D01*
X1283360Y-634390D01*
X1285341Y-634187D01*
X1285544Y-632307D01*
X1287576Y-632307D01*
X1287576Y-630224D01*
X1289608Y-630224D01*
X1289608Y-628192D01*
X1291285Y-628192D01*
X1293114Y-627481D01*
X1293469Y-626110D01*
X1294942Y-626110D01*
X1295806Y-625297D01*
X1295806Y-624078D01*
X1297838Y-624078D01*
X1297838Y-622046D01*
X1299718Y-621842D01*
X1299921Y-619963D01*
X1301953Y-619963D01*
X1301953Y-617880D01*
X1304036Y-617880D01*
X1304036Y-615848D01*
X1306068Y-615848D01*
X1306068Y-613765D01*
X1308150Y-613765D01*
X1308150Y-611733D01*
X1310182Y-611733D01*
X1310182Y-609650D01*
X1312265Y-609650D01*
X1312265Y-607618D01*
X1314297Y-607618D01*
X1314297Y-605536D01*
X1316380Y-605536D01*
X1316380Y-603554D01*
X1318260Y-603300D01*
X1318463Y-601421D01*
X1319631Y-601421D01*
X1320495Y-600608D01*
X1320495Y-599440D01*
X1322120Y-598373D01*
X1322628Y-596798D01*
X1324610Y-594969D01*
X1324610Y-593191D01*
X1326642Y-593191D01*
X1326642Y-591210D01*
X1328521Y-590956D01*
X1328775Y-589076D01*
X1329842Y-589076D01*
X1330756Y-587908D01*
X1330756Y-584962D01*
X1332839Y-584962D01*
X1332839Y-582980D01*
X1334719Y-582726D01*
X1334922Y-580593D01*
X1336243Y-580237D01*
X1336954Y-578408D01*
X1336954Y-576732D01*
X1338986Y-576732D01*
X1338986Y-574700D01*
X1340104Y-574700D01*
X1341018Y-573481D01*
X1341069Y-570636D01*
X1342948Y-570382D01*
X1343152Y-567994D01*
X1345184Y-566166D01*
X1345184Y-564388D01*
X1346403Y-564388D01*
X1347216Y-563575D01*
X1347216Y-560324D01*
X1349095Y-560120D01*
X1349298Y-556158D01*
X1351330Y-556158D01*
X1351330Y-554177D01*
X1352296Y-553821D01*
X1353413Y-551586D01*
X1353413Y-549300D01*
X1354480Y-549300D01*
X1354836Y-547928D01*
X1355445Y-547928D01*
X1355445Y-545338D01*
X1357477Y-543661D01*
X1357528Y-539699D01*
X1359560Y-539699D01*
X1359560Y-535635D01*
X1361440Y-535432D01*
X1361643Y-531469D01*
X1362557Y-531469D01*
X1363675Y-530199D01*
X1363675Y-525322D01*
X1365554Y-525119D01*
X1365758Y-520649D01*
X1367790Y-518820D01*
X1367790Y-512978D01*
X1369872Y-512978D01*
X1369872Y-506831D01*
X1371752Y-506628D01*
X1371955Y-500430D01*
X1373987Y-499516D01*
X1373987Y-490372D01*
X1375867Y-490169D01*
X1376070Y-480059D01*
X1377899Y-479856D01*
X1378102Y-467004D01*
X1379067Y-467004D01*
X1380134Y-464718D01*
X1379982Y-405536D01*
X1378102Y-403910D01*
X1378102Y-392023D01*
X1376019Y-390499D01*
X1376019Y-381660D01*
X1373987Y-379476D01*
X1373987Y-373430D01*
X1373276Y-371602D01*
X1371904Y-371246D01*
X1371904Y-365252D01*
X1369872Y-363728D01*
X1369872Y-358952D01*
X1368806Y-356920D01*
X1367790Y-356920D01*
X1367790Y-352856D01*
X1367129Y-351028D01*
X1365758Y-350672D01*
X1365758Y-346608D01*
X1363675Y-346202D01*
X1363675Y-340766D01*
X1361643Y-340055D01*
X1361643Y-336296D01*
X1359560Y-335889D01*
X1359560Y-331927D01*
X1357528Y-329895D01*
X1357528Y-328218D01*
X1356766Y-326085D01*
X1355445Y-325678D01*
X1355445Y-323240D01*
X1354734Y-321919D01*
X1353413Y-321919D01*
X1353413Y-319125D01*
X1352702Y-317804D01*
X1351330Y-317804D01*
X1351330Y-315722D01*
X1349349Y-313893D01*
X1349095Y-311454D01*
X1347216Y-311251D01*
X1347216Y-307492D01*
X1345184Y-307086D01*
X1345184Y-304241D01*
X1344320Y-303428D01*
X1343152Y-303428D01*
X1342948Y-301193D01*
X1341069Y-300990D01*
X1341069Y-297535D01*
X1339037Y-296773D01*
X1338834Y-294995D01*
X1336954Y-294792D01*
X1336903Y-291947D01*
X1336395Y-291134D01*
X1335074Y-290880D01*
X1334719Y-288848D01*
X1332839Y-288645D01*
X1332839Y-286664D01*
X1330756Y-284581D01*
X1330756Y-283108D01*
X1328724Y-282346D01*
X1328521Y-280619D01*
X1326642Y-280416D01*
X1326642Y-278384D01*
X1324610Y-278384D01*
X1324610Y-276352D01*
X1323797Y-274624D01*
X1322527Y-274624D01*
X1322527Y-272846D01*
X1320495Y-272135D01*
X1320495Y-270459D01*
X1318463Y-270052D01*
X1318260Y-268274D01*
X1316380Y-268071D01*
X1316177Y-266192D01*
X1314348Y-265988D01*
X1314145Y-264160D01*
X1312265Y-263956D01*
X1312062Y-262077D01*
X1310182Y-261874D01*
X1310182Y-259842D01*
X1308150Y-259842D01*
X1308150Y-257810D01*
X1306118Y-257810D01*
X1305915Y-255930D01*
X1304036Y-255727D01*
X1303832Y-253847D01*
X1302004Y-253644D01*
X1301800Y-251815D01*
X1299921Y-251612D01*
X1299718Y-249732D01*
X1297889Y-249529D01*
X1297686Y-247700D01*
X1295806Y-247446D01*
X1295806Y-245770D01*
X1293723Y-245364D01*
X1293723Y-244094D01*
X1291386Y-243128D01*
X1290929Y-241706D01*
X1287576Y-241249D01*
X1287373Y-239471D01*
X1285544Y-239217D01*
X1285341Y-237388D01*
X1283462Y-237185D01*
X1283462Y-235559D01*
X1281226Y-235102D01*
X1279245Y-233121D01*
X1277315Y-233121D01*
X1277112Y-231241D01*
X1275283Y-231038D01*
X1274876Y-229412D01*
X1272743Y-229006D01*
X1271117Y-229006D01*
X1270914Y-227126D01*
X1269034Y-226872D01*
X1269034Y-225602D01*
X1267714Y-224891D01*
X1264970Y-224891D01*
X1264767Y-223012D01*
X1262938Y-222808D01*
X1262227Y-221132D01*
X1258722Y-220675D01*
X1258722Y-219100D01*
X1257655Y-218694D01*
X1254658Y-218694D01*
X1254455Y-216814D01*
X1252118Y-216611D01*
X1250035Y-214579D01*
X1248562Y-214579D01*
X1247800Y-212902D01*
X1244346Y-212445D01*
X1244346Y-210870D01*
X1240332Y-210413D01*
X1239621Y-208838D01*
X1237386Y-208432D01*
X1235760Y-208432D01*
X1235354Y-207365D01*
X1233424Y-206349D01*
X1229918Y-206349D01*
X1229918Y-204724D01*
X1228852Y-204317D01*
X1225804Y-204317D01*
X1225804Y-202895D01*
X1224076Y-202234D01*
X1219657Y-202234D01*
X1219657Y-200609D01*
X1218590Y-200202D01*
X1215288Y-200202D01*
X1214932Y-198831D01*
X1213104Y-198120D01*
X1209344Y-198120D01*
X1207719Y-196291D01*
X1202690Y-195986D01*
X1200658Y-194005D01*
X1195070Y-194005D01*
X1194358Y-192379D01*
X1192123Y-191973D01*
X1186078Y-191973D01*
X1185519Y-191058D01*
X1183843Y-189890D01*
X1175816Y-189890D01*
X1175258Y-189026D01*
X1173530Y-187858D01*
X1161796Y-187858D01*
X1161084Y-186232D01*
G37*
D10*
X-850059Y431639D02*
G01*
X-850059Y371441D01*
X-850059Y431639D02*
G01*
X-829993Y431639D01*
X-821357Y428845D01*
X-815515Y423003D01*
X-812721Y417415D01*
X-809927Y408779D01*
X-809927Y394555D01*
X-812721Y385919D01*
X-815515Y380077D01*
X-821357Y374489D01*
X-829993Y371441D01*
X-850059Y371441D01*
X-790877Y420209D02*
G01*
X-785289Y423003D01*
X-776653Y431639D01*
X-776653Y371441D01*
X-144759Y-49618D02*
G01*
X-150601Y-52666D01*
X-156189Y-58254D01*
X-159237Y-64096D01*
X-159237Y-75780D01*
X-156189Y-81368D01*
X-150601Y-87210D01*
X-144759Y-90004D01*
X-136123Y-93052D01*
X-121645Y-93052D01*
X-113009Y-90004D01*
X-107167Y-87210D01*
X-101325Y-81368D01*
X-98531Y-75780D01*
X-98531Y-64096D01*
X-101325Y-58254D01*
X-107167Y-52666D01*
X-113009Y-49618D01*
X-147553Y-30568D02*
G01*
X-150601Y-24980D01*
X-159237Y-16344D01*
X-98531Y-16344D01*
X-159237Y31661D02*
G01*
X-118851Y2705D01*
X-118851Y46139D01*
X-159237Y31661D02*
G01*
X-98531Y31661D01*
X171848Y129593D02*
G01*
X171848Y86413D01*
X174896Y77777D01*
X180484Y71935D01*
X189120Y68887D01*
X194962Y68887D01*
X203598Y71935D01*
X209440Y77777D01*
X212234Y86413D01*
X212234Y129593D01*
X231284Y118163D02*
G01*
X237126Y120957D01*
X245762Y129593D01*
X245762Y68887D01*
X264812Y118163D02*
G01*
X270654Y120957D01*
X279290Y129593D01*
X279290Y68887D01*
X-519216Y-280004D02*
G01*
X-519216Y-340710D01*
X-519216Y-280004D02*
G01*
X-493308Y-280004D01*
X-484672Y-282798D01*
X-481878Y-285846D01*
X-478830Y-291688D01*
X-478830Y-297276D01*
X-481878Y-303118D01*
X-484672Y-305912D01*
X-493308Y-308960D01*
X-519216Y-308960D01*
X-499150Y-308960D02*
G01*
X-478830Y-340710D01*
X-459780Y-291688D02*
G01*
X-453938Y-288640D01*
X-445302Y-280004D01*
X-445302Y-340710D01*
X-391708Y-280004D02*
G01*
X-420664Y-280004D01*
X-423458Y-305912D01*
X-420664Y-303118D01*
X-412028Y-300324D01*
X-403138Y-300324D01*
X-394502Y-303118D01*
X-388914Y-308960D01*
X-385866Y-317596D01*
X-385866Y-323438D01*
X-388914Y-332074D01*
X-394502Y-337662D01*
X-403138Y-340710D01*
X-412028Y-340710D01*
X-420664Y-337662D01*
X-423458Y-334868D01*
X-426252Y-329026D01*
X-1006805Y-308152D02*
G01*
X-1012647Y-310946D01*
X-1018235Y-316788D01*
X-1021029Y-322376D01*
X-1024077Y-331012D01*
X-1024077Y-345236D01*
X-1021029Y-353872D01*
X-1018235Y-359714D01*
X-1012647Y-365302D01*
X-1006805Y-368350D01*
X-995375Y-368350D01*
X-989533Y-365302D01*
X-983945Y-359714D01*
X-980897Y-353872D01*
X-978103Y-345236D01*
X-978103Y-331012D01*
X-980897Y-322376D01*
X-983945Y-316788D01*
X-989533Y-310946D01*
X-995375Y-308152D01*
X-1006805Y-308152D01*
X-998169Y-356920D02*
G01*
X-980897Y-373938D01*
X-953465Y-308152D02*
G01*
X-921969Y-308152D01*
X-939241Y-331012D01*
X-930605Y-331012D01*
X-925017Y-333806D01*
X-921969Y-336854D01*
X-919175Y-345236D01*
X-919175Y-351078D01*
X-921969Y-359714D01*
X-927811Y-365302D01*
X-936447Y-368350D01*
X-944829Y-368350D01*
X-953465Y-365302D01*
X-956513Y-362508D01*
X-959307Y-356920D01*
X1331038Y263237D02*
G01*
X1331038Y202531D01*
X1331038Y263237D02*
G01*
X1356946Y263237D01*
X1365582Y260443D01*
X1368376Y257395D01*
X1371424Y251553D01*
X1371424Y245965D01*
X1368376Y240123D01*
X1365582Y237329D01*
X1356946Y234281D01*
X1331038Y234281D01*
X1351104Y234281D02*
G01*
X1371424Y202531D01*
X1419176Y263237D02*
G01*
X1390474Y222851D01*
X1433654Y222851D01*
X1419176Y263237D02*
G01*
X1419176Y202531D01*
X1332308Y346549D02*
G01*
X1332308Y285843D01*
X1332308Y346549D02*
G01*
X1358216Y346549D01*
X1366852Y343755D01*
X1369646Y340707D01*
X1372694Y334865D01*
X1372694Y329277D01*
X1369646Y323435D01*
X1366852Y320641D01*
X1358216Y317593D01*
X1332308Y317593D01*
X1352374Y317593D02*
G01*
X1372694Y285843D01*
X1406222Y346549D02*
G01*
X1397586Y343755D01*
X1394538Y337913D01*
X1394538Y332071D01*
X1397586Y326229D01*
X1403174Y323435D01*
X1414858Y320641D01*
X1423494Y317593D01*
X1429336Y312005D01*
X1432130Y306163D01*
X1432130Y297527D01*
X1429336Y291685D01*
X1426288Y288891D01*
X1417652Y285843D01*
X1406222Y285843D01*
X1397586Y288891D01*
X1394538Y291685D01*
X1391744Y297527D01*
X1391744Y306163D01*
X1394538Y312005D01*
X1400380Y317593D01*
X1409016Y320641D01*
X1420446Y323435D01*
X1426288Y326229D01*
X1429336Y332071D01*
X1429336Y337913D01*
X1426288Y343755D01*
X1417652Y346549D01*
X1406222Y346549D01*
X1330784Y439767D02*
G01*
X1330784Y379061D01*
X1330784Y439767D02*
G01*
X1356692Y439767D01*
X1365328Y436973D01*
X1368122Y433925D01*
X1371170Y428083D01*
X1371170Y422495D01*
X1368122Y416653D01*
X1365328Y413859D01*
X1356692Y410811D01*
X1330784Y410811D01*
X1350850Y410811D02*
G01*
X1371170Y379061D01*
X1393014Y425289D02*
G01*
X1393014Y428083D01*
X1396062Y433925D01*
X1398856Y436973D01*
X1404698Y439767D01*
X1416128Y439767D01*
X1421970Y436973D01*
X1424764Y433925D01*
X1427812Y428083D01*
X1427812Y422495D01*
X1424764Y416653D01*
X1418922Y408017D01*
X1390220Y379061D01*
X1430606Y379061D01*
X1449656Y428083D02*
G01*
X1455498Y431131D01*
X1464134Y439767D01*
X1464134Y379061D01*
X1343992Y514189D02*
G01*
X1343992Y453483D01*
X1343992Y514189D02*
G01*
X1369900Y514189D01*
X1378536Y511395D01*
X1381330Y508347D01*
X1384378Y502505D01*
X1384378Y496917D01*
X1381330Y491075D01*
X1378536Y488281D01*
X1369900Y485233D01*
X1343992Y485233D01*
X1364058Y485233D02*
G01*
X1384378Y453483D01*
X1406222Y499711D02*
G01*
X1406222Y502505D01*
X1409270Y508347D01*
X1412064Y511395D01*
X1417906Y514189D01*
X1429336Y514189D01*
X1435178Y511395D01*
X1437972Y508347D01*
X1441020Y502505D01*
X1441020Y496917D01*
X1437972Y491075D01*
X1432130Y482439D01*
X1403428Y453483D01*
X1443814Y453483D01*
X1468706Y514189D02*
G01*
X1500456Y514189D01*
X1482930Y491075D01*
X1491820Y491075D01*
X1497408Y488281D01*
X1500456Y485233D01*
X1503250Y476597D01*
X1503250Y470755D01*
X1500456Y462119D01*
X1494614Y456531D01*
X1485978Y453483D01*
X1477342Y453483D01*
X1468706Y456531D01*
X1465658Y459325D01*
X1462864Y465167D01*
X-908987Y1167985D02*
G01*
X-911781Y1173827D01*
X-917623Y1179669D01*
X-923465Y1182463D01*
X-934895Y1182463D01*
X-940737Y1179669D01*
X-946579Y1173827D01*
X-949373Y1167985D01*
X-952167Y1159349D01*
X-952167Y1144871D01*
X-949373Y1136235D01*
X-946579Y1130393D01*
X-940737Y1124805D01*
X-934895Y1121757D01*
X-923465Y1121757D01*
X-917623Y1124805D01*
X-911781Y1130393D01*
X-908987Y1136235D01*
X-875459Y1182463D02*
G01*
X-884095Y1179669D01*
X-886889Y1173827D01*
X-886889Y1167985D01*
X-884095Y1162143D01*
X-878253Y1159349D01*
X-866823Y1156555D01*
X-858187Y1153507D01*
X-852345Y1147919D01*
X-849551Y1142077D01*
X-849551Y1133441D01*
X-852345Y1127599D01*
X-855139Y1124805D01*
X-864029Y1121757D01*
X-875459Y1121757D01*
X-884095Y1124805D01*
X-886889Y1127599D01*
X-889937Y1133441D01*
X-889937Y1142077D01*
X-886889Y1147919D01*
X-881301Y1153507D01*
X-872665Y1156555D01*
X-860981Y1159349D01*
X-855139Y1162143D01*
X-852345Y1167985D01*
X-852345Y1173827D01*
X-855139Y1179669D01*
X-864029Y1182463D01*
X-875459Y1182463D01*
X-392409Y96288D02*
G01*
X-392409Y53332D01*
X-389547Y44742D01*
X-383819Y39014D01*
X-375229Y36151D01*
X-369501Y36151D01*
X-360908Y39014D01*
X-355183Y44742D01*
X-352318Y53332D01*
X-352318Y96288D01*
X-304782Y96288D02*
G01*
X-333418Y56197D01*
X-290464Y56197D01*
X-304782Y96288D02*
G01*
X-304782Y36151D01*
X-1148331Y-133014D02*
G01*
X-1148331Y-193151D01*
X-1148331Y-133014D02*
G01*
X-1122558Y-133014D01*
X-1113967Y-135879D01*
X-1111105Y-138742D01*
X-1108240Y-144470D01*
X-1108240Y-150197D01*
X-1111105Y-155925D01*
X-1113967Y-158788D01*
X-1122558Y-161653D01*
X-1148331Y-161653D01*
X-1128285Y-161653D02*
G01*
X-1108240Y-193151D01*
X-1054976Y-133014D02*
G01*
X-1083612Y-133014D01*
X-1086477Y-158788D01*
X-1083612Y-155925D01*
X-1075021Y-153060D01*
X-1066431Y-153060D01*
X-1057841Y-155925D01*
X-1052113Y-161653D01*
X-1049248Y-170243D01*
X-1049248Y-175971D01*
X-1052113Y-184561D01*
X-1057841Y-190289D01*
X-1066431Y-193151D01*
X-1075021Y-193151D01*
X-1083612Y-190289D01*
X-1086477Y-187424D01*
X-1089339Y-181696D01*
X-160898Y206273D02*
G01*
X-163784Y212046D01*
X-169557Y217820D01*
X-175328Y220705D01*
X-186875Y220705D01*
X-192648Y217820D01*
X-198419Y212046D01*
X-201307Y206273D01*
X-204193Y197614D01*
X-204193Y183184D01*
X-201307Y174523D01*
X-198419Y168752D01*
X-192648Y162979D01*
X-186875Y160093D01*
X-175328Y160093D01*
X-169557Y162979D01*
X-163784Y168752D01*
X-160898Y174523D01*
X-138960Y206273D02*
G01*
X-138960Y209161D01*
X-136075Y214934D01*
X-133187Y217820D01*
X-127416Y220705D01*
X-115869Y220705D01*
X-110098Y217820D01*
X-107210Y214934D01*
X-104325Y209161D01*
X-104325Y203387D01*
X-107210Y197614D01*
X-112984Y188955D01*
X-141848Y160093D01*
X-101437Y160093D01*
X-635200Y197131D02*
G01*
X-640974Y194246D01*
X-646747Y188473D01*
X-649632Y182702D01*
X-649632Y171155D01*
X-646747Y165381D01*
X-640974Y159611D01*
X-635200Y156723D01*
X-626541Y153837D01*
X-612112Y153837D01*
X-603450Y156723D01*
X-597679Y159611D01*
X-591906Y165381D01*
X-589020Y171155D01*
X-589020Y182702D01*
X-591906Y188473D01*
X-597679Y194246D01*
X-603450Y197131D01*
X-629429Y253705D02*
G01*
X-620770Y250819D01*
X-614997Y245046D01*
X-612112Y236387D01*
X-612112Y233502D01*
X-614997Y224843D01*
X-620770Y219069D01*
X-629429Y216181D01*
X-632315Y216181D01*
X-640974Y219069D01*
X-646747Y224843D01*
X-649632Y233502D01*
X-649632Y236387D01*
X-646747Y245046D01*
X-640974Y250819D01*
X-629429Y253705D01*
X-614997Y253705D01*
X-600565Y250819D01*
X-591906Y245046D01*
X-589020Y236387D01*
X-589020Y230614D01*
X-591906Y221955D01*
X-597679Y219069D01*
X-1025911Y-129197D02*
G01*
X-1025911Y-189809D01*
X-1025911Y-129197D02*
G01*
X-1005705Y-129197D01*
X-997046Y-132082D01*
X-991275Y-137855D01*
X-988387Y-143629D01*
X-985502Y-152288D01*
X-985502Y-166717D01*
X-988387Y-175379D01*
X-991275Y-181150D01*
X-997046Y-186923D01*
X-1005705Y-189809D01*
X-1025911Y-189809D01*
X-963566Y-143629D02*
G01*
X-963566Y-140741D01*
X-960678Y-134970D01*
X-957793Y-132082D01*
X-952019Y-129197D01*
X-940475Y-129197D01*
X-934702Y-132082D01*
X-931816Y-134970D01*
X-928928Y-140741D01*
X-928928Y-146514D01*
X-931816Y-152288D01*
X-937587Y-160947D01*
X-966452Y-189809D01*
X-926043Y-189809D01*
X-1102149Y1678002D02*
G01*
X-1102149Y1634568D01*
X-1099355Y1625932D01*
X-1093513Y1620090D01*
X-1084877Y1617296D01*
X-1079035Y1617296D01*
X-1070399Y1620090D01*
X-1064557Y1625932D01*
X-1061763Y1634568D01*
X-1061763Y1678002D01*
X-1008169Y1669366D02*
G01*
X-1010963Y1674954D01*
X-1019599Y1678002D01*
X-1025441Y1678002D01*
X-1034077Y1674954D01*
X-1039919Y1666318D01*
X-1042713Y1651840D01*
X-1042713Y1637616D01*
X-1039919Y1625932D01*
X-1034077Y1620090D01*
X-1025441Y1617296D01*
X-1022647Y1617296D01*
X-1013757Y1620090D01*
X-1008169Y1625932D01*
X-1005121Y1634568D01*
X-1005121Y1637616D01*
X-1008169Y1646252D01*
X-1013757Y1651840D01*
X-1022647Y1654888D01*
X-1025441Y1654888D01*
X-1034077Y1651840D01*
X-1039919Y1646252D01*
X-1042713Y1637616D01*
X1135245Y2008606D02*
G01*
X1132451Y2014448D01*
X1126609Y2020036D01*
X1121021Y2023084D01*
X1109337Y2023084D01*
X1103495Y2020036D01*
X1097907Y2014448D01*
X1094859Y2008606D01*
X1092065Y1999970D01*
X1092065Y1985492D01*
X1094859Y1976856D01*
X1097907Y1971014D01*
X1103495Y1965172D01*
X1109337Y1962378D01*
X1121021Y1962378D01*
X1126609Y1965172D01*
X1132451Y1971014D01*
X1135245Y1976856D01*
X1157343Y2008606D02*
G01*
X1157343Y2011400D01*
X1160137Y2017242D01*
X1163185Y2020036D01*
X1168773Y2023084D01*
X1180457Y2023084D01*
X1186045Y2020036D01*
X1189093Y2017242D01*
X1191887Y2011400D01*
X1191887Y2005812D01*
X1189093Y1999970D01*
X1183251Y1991334D01*
X1154295Y1962378D01*
X1194935Y1962378D01*
X1242687Y2023084D02*
G01*
X1213985Y1982698D01*
X1257165Y1982698D01*
X1242687Y2023084D02*
G01*
X1242687Y1962378D01*
X-623592Y1226334D02*
G01*
X-626386Y1232176D01*
X-632228Y1238018D01*
X-638070Y1240812D01*
X-649500Y1240812D01*
X-655342Y1238018D01*
X-660930Y1232176D01*
X-663978Y1226334D01*
X-666772Y1217698D01*
X-666772Y1203220D01*
X-663978Y1194584D01*
X-660930Y1188742D01*
X-655342Y1183154D01*
X-649500Y1180106D01*
X-638070Y1180106D01*
X-632228Y1183154D01*
X-626386Y1188742D01*
X-623592Y1194584D01*
X-604542Y1229382D02*
G01*
X-598700Y1232176D01*
X-590064Y1240812D01*
X-590064Y1180106D01*
X-536470Y1232176D02*
G01*
X-539264Y1238018D01*
X-547900Y1240812D01*
X-553742Y1240812D01*
X-562378Y1238018D01*
X-568220Y1229382D01*
X-571014Y1214904D01*
X-571014Y1200426D01*
X-568220Y1188742D01*
X-562378Y1183154D01*
X-553742Y1180106D01*
X-550694Y1180106D01*
X-542058Y1183154D01*
X-536470Y1188742D01*
X-533422Y1197632D01*
X-533422Y1200426D01*
X-536470Y1209062D01*
X-542058Y1214904D01*
X-550694Y1217698D01*
X-553742Y1217698D01*
X-562378Y1214904D01*
X-568220Y1209062D01*
X-571014Y1200426D01*
X1620647Y528198D02*
G01*
X1620647Y485018D01*
X1623440Y476128D01*
X1629283Y470540D01*
X1637918Y467492D01*
X1643761Y467492D01*
X1652397Y470540D01*
X1658238Y476128D01*
X1661033Y485018D01*
X1661033Y528198D01*
X1680083Y516768D02*
G01*
X1685925Y519562D01*
X1694561Y528198D01*
X1694561Y467492D01*
X1748154Y528198D02*
G01*
X1719199Y528198D01*
X1716404Y502290D01*
X1719199Y505084D01*
X1728088Y507878D01*
X1736725Y507878D01*
X1745361Y505084D01*
X1750949Y499242D01*
X1753997Y490606D01*
X1753997Y485018D01*
X1750949Y476128D01*
X1745361Y470540D01*
X1736725Y467492D01*
X1728088Y467492D01*
X1719199Y470540D01*
X1716404Y473334D01*
X1713611Y479176D01*
X-611703Y1769409D02*
G01*
X-550997Y1769409D01*
X-611703Y1769409D02*
G01*
X-611703Y1795317D01*
X-608655Y1803953D01*
X-605861Y1806747D01*
X-600019Y1809795D01*
X-594177Y1809795D01*
X-588589Y1806747D01*
X-585541Y1803953D01*
X-582747Y1795317D01*
X-582747Y1769409D01*
X-582747Y1789475D02*
G01*
X-550997Y1809795D01*
X-597225Y1831639D02*
G01*
X-600019Y1831639D01*
X-605861Y1834433D01*
X-608655Y1837481D01*
X-611703Y1843323D01*
X-611703Y1854753D01*
X-608655Y1860595D01*
X-605861Y1863389D01*
X-600019Y1866183D01*
X-594177Y1866183D01*
X-588589Y1863389D01*
X-579953Y1857547D01*
X-550997Y1828845D01*
X-550997Y1869231D01*
X-611703Y1916983D02*
G01*
X-571317Y1888281D01*
X-571317Y1931461D01*
X-611703Y1916983D02*
G01*
X-550997Y1916983D01*
X1159591Y700384D02*
G01*
X1156797Y706226D01*
X1150955Y711814D01*
X1145367Y714862D01*
X1133683Y714862D01*
X1127841Y711814D01*
X1122253Y706226D01*
X1119205Y700384D01*
X1116411Y691748D01*
X1116411Y677270D01*
X1119205Y668634D01*
X1122253Y662792D01*
X1127841Y656950D01*
X1133683Y654156D01*
X1145367Y654156D01*
X1150955Y656950D01*
X1156797Y662792D01*
X1159591Y668634D01*
X1181689Y700384D02*
G01*
X1181689Y703178D01*
X1184483Y709020D01*
X1187531Y711814D01*
X1193119Y714862D01*
X1204803Y714862D01*
X1210391Y711814D01*
X1213439Y709020D01*
X1216233Y703178D01*
X1216233Y697590D01*
X1213439Y691748D01*
X1207597Y683112D01*
X1178641Y654156D01*
X1219281Y654156D01*
X1272875Y714862D02*
G01*
X1243919Y714862D01*
X1241125Y688700D01*
X1243919Y691748D01*
X1252555Y694542D01*
X1261191Y694542D01*
X1270081Y691748D01*
X1275669Y685906D01*
X1278717Y677270D01*
X1278717Y671428D01*
X1275669Y662792D01*
X1270081Y656950D01*
X1261191Y654156D01*
X1252555Y654156D01*
X1243919Y656950D01*
X1241125Y659998D01*
X1238331Y665840D01*
X1108623Y1212331D02*
G01*
X1169329Y1212331D01*
X1108623Y1212331D02*
G01*
X1108623Y1238239D01*
X1111671Y1246875D01*
X1114465Y1249923D01*
X1120307Y1252717D01*
X1125895Y1252717D01*
X1131737Y1249923D01*
X1134785Y1246875D01*
X1137579Y1238239D01*
X1137579Y1212331D01*
X1137579Y1232651D02*
G01*
X1169329Y1252717D01*
X1123101Y1274561D02*
G01*
X1120307Y1274561D01*
X1114465Y1277609D01*
X1111671Y1280403D01*
X1108623Y1286245D01*
X1108623Y1297675D01*
X1111671Y1303517D01*
X1114465Y1306311D01*
X1120307Y1309359D01*
X1125895Y1309359D01*
X1131737Y1306311D01*
X1140373Y1300723D01*
X1169329Y1271767D01*
X1169329Y1312153D01*
X1108623Y1348475D02*
G01*
X1111671Y1339839D01*
X1120307Y1334251D01*
X1134785Y1331203D01*
X1143421Y1331203D01*
X1157645Y1334251D01*
X1166535Y1339839D01*
X1169329Y1348475D01*
X1169329Y1354317D01*
X1166535Y1362953D01*
X1157645Y1368795D01*
X1143421Y1371589D01*
X1134785Y1371589D01*
X1120307Y1368795D01*
X1111671Y1362953D01*
X1108623Y1354317D01*
X1108623Y1348475D01*
X1419344Y1210825D02*
G01*
X1480050Y1210825D01*
X1419344Y1210825D02*
G01*
X1419344Y1236733D01*
X1422138Y1245369D01*
X1425186Y1248417D01*
X1430774Y1251211D01*
X1436616Y1251211D01*
X1442458Y1248417D01*
X1445252Y1245369D01*
X1448300Y1236733D01*
X1448300Y1210825D01*
X1448300Y1230891D02*
G01*
X1480050Y1251211D01*
X1430774Y1270261D02*
G01*
X1427980Y1276103D01*
X1419344Y1284739D01*
X1480050Y1284739D01*
X1427980Y1338333D02*
G01*
X1422138Y1335539D01*
X1419344Y1326903D01*
X1419344Y1321061D01*
X1422138Y1312425D01*
X1430774Y1306583D01*
X1445252Y1303789D01*
X1459730Y1303789D01*
X1471414Y1306583D01*
X1477002Y1312425D01*
X1480050Y1321061D01*
X1480050Y1323855D01*
X1477002Y1332491D01*
X1471414Y1338333D01*
X1462524Y1341127D01*
X1459730Y1341127D01*
X1451094Y1338333D01*
X1445252Y1332491D01*
X1442458Y1323855D01*
X1442458Y1321061D01*
X1445252Y1312425D01*
X1451094Y1306583D01*
X1459730Y1303789D01*
X1159337Y590402D02*
G01*
X1156543Y596244D01*
X1150701Y601832D01*
X1145113Y604880D01*
X1133429Y604880D01*
X1127587Y601832D01*
X1121999Y596244D01*
X1118951Y590402D01*
X1116157Y581766D01*
X1116157Y567288D01*
X1118951Y558652D01*
X1121999Y552810D01*
X1127587Y546968D01*
X1133429Y544174D01*
X1145113Y544174D01*
X1150701Y546968D01*
X1156543Y552810D01*
X1159337Y558652D01*
X1181435Y590402D02*
G01*
X1181435Y593196D01*
X1184229Y599038D01*
X1187277Y601832D01*
X1192865Y604880D01*
X1204549Y604880D01*
X1210137Y601832D01*
X1213185Y599038D01*
X1215979Y593196D01*
X1215979Y587608D01*
X1213185Y581766D01*
X1207343Y573130D01*
X1178387Y544174D01*
X1219027Y544174D01*
X1272621Y596244D02*
G01*
X1269827Y601832D01*
X1260937Y604880D01*
X1255349Y604880D01*
X1246713Y601832D01*
X1240871Y593196D01*
X1238077Y578718D01*
X1238077Y564494D01*
X1240871Y552810D01*
X1246713Y546968D01*
X1255349Y544174D01*
X1258143Y544174D01*
X1266779Y546968D01*
X1272621Y552810D01*
X1275415Y561446D01*
X1275415Y564494D01*
X1272621Y573130D01*
X1266779Y578718D01*
X1258143Y581766D01*
X1255349Y581766D01*
X1246713Y578718D01*
X1240871Y573130D01*
X1238077Y564494D01*
X893950Y9502D02*
G01*
X893950Y-51203D01*
X893950Y9502D02*
G01*
X919858Y9502D01*
X928494Y6708D01*
X931542Y3660D01*
X934336Y-1927D01*
X934336Y-7769D01*
X931542Y-13611D01*
X928494Y-16405D01*
X919858Y-19453D01*
X893950Y-19453D01*
X914016Y-19453D02*
G01*
X934336Y-51203D01*
X959228Y9502D02*
G01*
X990978Y9502D01*
X973452Y-13611D01*
X982342Y-13611D01*
X987930Y-16405D01*
X990978Y-19453D01*
X993772Y-28089D01*
X993772Y-33677D01*
X990978Y-42567D01*
X985136Y-48155D01*
X976500Y-51203D01*
X967864Y-51203D01*
X959228Y-48155D01*
X956180Y-45361D01*
X953386Y-39519D01*
X1030094Y9502D02*
G01*
X1021458Y6708D01*
X1015616Y-1927D01*
X1012822Y-16405D01*
X1012822Y-25041D01*
X1015616Y-39519D01*
X1021458Y-48155D01*
X1030094Y-51203D01*
X1035936Y-51203D01*
X1044572Y-48155D01*
X1050414Y-39519D01*
X1053208Y-25041D01*
X1053208Y-16405D01*
X1050414Y-1927D01*
X1044572Y6708D01*
X1035936Y9502D01*
X1030094Y9502D01*
X542434Y161056D02*
G01*
X542434Y100350D01*
X542434Y161056D02*
G01*
X568342Y161056D01*
X576978Y158262D01*
X580026Y155214D01*
X582820Y149626D01*
X582820Y143784D01*
X580026Y137942D01*
X576978Y135148D01*
X568342Y132100D01*
X542434Y132100D01*
X562500Y132100D02*
G01*
X582820Y100350D01*
X604664Y146578D02*
G01*
X604664Y149626D01*
X607712Y155214D01*
X610506Y158262D01*
X616348Y161056D01*
X627778Y161056D01*
X633620Y158262D01*
X636414Y155214D01*
X639462Y149626D01*
X639462Y143784D01*
X636414Y137942D01*
X630826Y129306D01*
X601870Y100350D01*
X642256Y100350D01*
X698898Y140736D02*
G01*
X695850Y132100D01*
X690262Y126512D01*
X681626Y123464D01*
X678578Y123464D01*
X669942Y126512D01*
X664100Y132100D01*
X661306Y140736D01*
X661306Y143784D01*
X664100Y152420D01*
X669942Y158262D01*
X678578Y161056D01*
X681626Y161056D01*
X690262Y158262D01*
X695850Y152420D01*
X698898Y140736D01*
X698898Y126512D01*
X695850Y112034D01*
X690262Y103398D01*
X681626Y100350D01*
X675784Y100350D01*
X667148Y103398D01*
X664100Y108986D01*
X733579Y-125001D02*
G01*
X733579Y-185707D01*
X733579Y-125001D02*
G01*
X759487Y-125001D01*
X768123Y-127795D01*
X771171Y-130843D01*
X773965Y-136431D01*
X773965Y-142273D01*
X771171Y-148115D01*
X768123Y-150909D01*
X759487Y-153957D01*
X733579Y-153957D01*
X753645Y-153957D02*
G01*
X773965Y-185707D01*
X793015Y-136431D02*
G01*
X798857Y-133637D01*
X807493Y-125001D01*
X807493Y-185707D01*
X826543Y-136431D02*
G01*
X832131Y-133637D01*
X841021Y-125001D01*
X841021Y-185707D01*
D11*
X1453812Y1196754D02*
G01*
X1453812Y1153320D01*
X1456606Y1144684D01*
X1462448Y1139096D01*
X1471084Y1136048D01*
X1476926Y1136048D01*
X1485562Y1139096D01*
X1491404Y1144684D01*
X1494198Y1153320D01*
X1494198Y1196754D01*
X1527726Y1196754D02*
G01*
X1519090Y1193960D01*
X1516042Y1188118D01*
X1516042Y1182276D01*
X1519090Y1176434D01*
X1524678Y1173640D01*
X1536362Y1170846D01*
X1544998Y1167798D01*
X1550840Y1162210D01*
X1553634Y1156368D01*
X1553634Y1147732D01*
X1550840Y1141890D01*
X1547792Y1139096D01*
X1539156Y1136048D01*
X1527726Y1136048D01*
X1519090Y1139096D01*
X1516042Y1141890D01*
X1513248Y1147732D01*
X1513248Y1156368D01*
X1516042Y1162210D01*
X1521884Y1167798D01*
X1530520Y1170846D01*
X1542204Y1173640D01*
X1547792Y1176434D01*
X1550840Y1182276D01*
X1550840Y1188118D01*
X1547792Y1193960D01*
X1539156Y1196754D01*
X1527726Y1196754D01*
X1113421Y2217458D02*
G01*
X1113421Y2169706D01*
X1116469Y2160054D01*
X1122819Y2153704D01*
X1132471Y2150656D01*
X1138821Y2150656D01*
X1148473Y2153704D01*
X1154823Y2160054D01*
X1157871Y2169706D01*
X1157871Y2217458D01*
X1178953Y2204758D02*
G01*
X1185303Y2207806D01*
X1194701Y2217458D01*
X1194701Y2150656D01*
D10*
X1367657Y1788332D02*
G01*
X1367657Y1745152D01*
X1370451Y1736516D01*
X1376293Y1730674D01*
X1384929Y1727626D01*
X1390771Y1727626D01*
X1399407Y1730674D01*
X1404995Y1736516D01*
X1408043Y1745152D01*
X1408043Y1788332D01*
X1461637Y1788332D02*
G01*
X1432935Y1788332D01*
X1429887Y1762424D01*
X1432935Y1765218D01*
X1441571Y1768266D01*
X1450207Y1768266D01*
X1458843Y1765218D01*
X1464685Y1759376D01*
X1467479Y1750740D01*
X1467479Y1745152D01*
X1464685Y1736516D01*
X1458843Y1730674D01*
X1450207Y1727626D01*
X1441571Y1727626D01*
X1432935Y1730674D01*
X1429887Y1733468D01*
X1427093Y1739310D01*
D11*
X1104361Y1500296D02*
G01*
X1165067Y1500296D01*
X1104361Y1500296D02*
G01*
X1104361Y1526204D01*
X1107155Y1534840D01*
X1110203Y1537888D01*
X1115791Y1540682D01*
X1121633Y1540682D01*
X1127475Y1537888D01*
X1130269Y1534840D01*
X1133317Y1526204D01*
X1133317Y1500296D01*
X1133317Y1520362D02*
G01*
X1165067Y1540682D01*
X1115791Y1559732D02*
G01*
X1112997Y1565574D01*
X1104361Y1574210D01*
X1165067Y1574210D01*
X1124681Y1630598D02*
G01*
X1133317Y1627804D01*
X1138905Y1621962D01*
X1141953Y1613326D01*
X1141953Y1610532D01*
X1138905Y1601896D01*
X1133317Y1596054D01*
X1124681Y1593260D01*
X1121633Y1593260D01*
X1112997Y1596054D01*
X1107155Y1601896D01*
X1104361Y1610532D01*
X1104361Y1613326D01*
X1107155Y1621962D01*
X1112997Y1627804D01*
X1124681Y1630598D01*
X1138905Y1630598D01*
X1153383Y1627804D01*
X1162019Y1621962D01*
X1165067Y1613326D01*
X1165067Y1607738D01*
X1162019Y1598848D01*
X1156431Y1596054D01*
X1423131Y1495724D02*
G01*
X1483837Y1495724D01*
X1423131Y1495724D02*
G01*
X1423131Y1521632D01*
X1425925Y1530268D01*
X1428973Y1533316D01*
X1434561Y1536110D01*
X1440403Y1536110D01*
X1446245Y1533316D01*
X1449039Y1530268D01*
X1452087Y1521632D01*
X1452087Y1495724D01*
X1452087Y1515790D02*
G01*
X1483837Y1536110D01*
X1434561Y1555160D02*
G01*
X1431767Y1561002D01*
X1423131Y1569638D01*
X1483837Y1569638D01*
X1423131Y1603166D02*
G01*
X1425925Y1594276D01*
X1431767Y1591482D01*
X1437609Y1591482D01*
X1443451Y1594276D01*
X1446245Y1600118D01*
X1449039Y1611802D01*
X1452087Y1620438D01*
X1457675Y1626026D01*
X1463517Y1629074D01*
X1472153Y1629074D01*
X1477995Y1626026D01*
X1480789Y1623232D01*
X1483837Y1614596D01*
X1483837Y1603166D01*
X1480789Y1594276D01*
X1477995Y1591482D01*
X1472153Y1588688D01*
X1463517Y1588688D01*
X1457675Y1591482D01*
X1452087Y1597324D01*
X1449039Y1605960D01*
X1446245Y1617390D01*
X1443451Y1623232D01*
X1437609Y1626026D01*
X1431767Y1626026D01*
X1425925Y1623232D01*
X1423131Y1614596D01*
X1423131Y1603166D01*
D10*
X-662063Y2144311D02*
G01*
X-664857Y2150153D01*
X-670699Y2155995D01*
X-676541Y2158789D01*
X-687971Y2158789D01*
X-693813Y2155995D01*
X-699401Y2150153D01*
X-702449Y2144311D01*
X-705243Y2135675D01*
X-705243Y2121197D01*
X-702449Y2112561D01*
X-699401Y2106719D01*
X-693813Y2101131D01*
X-687971Y2098083D01*
X-676541Y2098083D01*
X-670699Y2101131D01*
X-664857Y2106719D01*
X-662063Y2112561D01*
X-608215Y2150153D02*
G01*
X-611263Y2155995D01*
X-619899Y2158789D01*
X-625741Y2158789D01*
X-634377Y2155995D01*
X-639965Y2147359D01*
X-643013Y2132881D01*
X-643013Y2118403D01*
X-639965Y2106719D01*
X-634377Y2101131D01*
X-625741Y2098083D01*
X-622693Y2098083D01*
X-614057Y2101131D01*
X-608215Y2106719D01*
X-605421Y2115609D01*
X-605421Y2118403D01*
X-608215Y2127039D01*
X-614057Y2132881D01*
X-622693Y2135675D01*
X-625741Y2135675D01*
X-634377Y2132881D01*
X-639965Y2127039D01*
X-643013Y2118403D01*
X2135040Y1144869D02*
G01*
X2135040Y1101689D01*
X2138088Y1093053D01*
X2143676Y1087211D01*
X2152312Y1084417D01*
X2158154Y1084417D01*
X2166790Y1087211D01*
X2172632Y1093053D01*
X2175426Y1101689D01*
X2175426Y1144869D01*
X2234862Y1144869D02*
G01*
X2206160Y1084417D01*
X2194476Y1144869D02*
G01*
X2234862Y1144869D01*
X1876884Y548965D02*
G01*
X1871159Y546100D01*
X1865431Y540372D01*
X1862566Y534647D01*
X1859704Y526054D01*
X1859704Y511736D01*
X1862566Y503146D01*
X1865431Y497418D01*
X1871159Y491690D01*
X1876884Y488828D01*
X1888340Y488828D01*
X1894067Y491690D01*
X1899795Y497418D01*
X1902658Y503146D01*
X1905523Y511736D01*
X1905523Y526054D01*
X1902658Y534647D01*
X1899795Y540372D01*
X1894067Y546100D01*
X1888340Y548965D01*
X1876884Y548965D01*
X1885477Y500283D02*
G01*
X1902658Y483100D01*
X1924423Y537509D02*
G01*
X1930148Y540372D01*
X1938741Y548965D01*
X1938741Y488828D01*
X1410058Y150357D02*
G01*
X1407195Y156082D01*
X1401467Y161810D01*
X1395740Y164675D01*
X1384284Y164675D01*
X1378559Y161810D01*
X1372831Y156082D01*
X1369966Y150357D01*
X1367104Y141765D01*
X1367104Y127447D01*
X1369966Y118856D01*
X1372831Y113129D01*
X1378559Y107401D01*
X1384284Y104538D01*
X1395740Y104538D01*
X1401467Y107401D01*
X1407195Y113129D01*
X1410058Y118856D01*
X1434685Y164675D02*
G01*
X1466187Y164675D01*
X1449003Y141765D01*
X1457594Y141765D01*
X1463321Y138902D01*
X1466187Y136037D01*
X1469049Y127447D01*
X1469049Y121719D01*
X1466187Y113129D01*
X1460459Y107401D01*
X1451866Y104538D01*
X1443276Y104538D01*
X1434685Y107401D01*
X1431823Y110266D01*
X1428958Y115994D01*
X1535790Y832182D02*
G01*
X1596402Y832182D01*
X1535790Y832182D02*
G01*
X1535790Y858159D01*
X1538676Y866818D01*
X1541564Y869706D01*
X1547334Y872591D01*
X1553108Y872591D01*
X1558881Y869706D01*
X1561767Y866818D01*
X1564652Y858159D01*
X1564652Y832182D01*
X1564652Y852388D02*
G01*
X1596402Y872591D01*
X1535790Y897415D02*
G01*
X1535790Y929165D01*
X1558881Y911847D01*
X1558881Y920506D01*
X1561767Y926277D01*
X1564652Y929165D01*
X1573311Y932050D01*
X1579084Y932050D01*
X1587743Y929165D01*
X1593517Y923391D01*
X1596402Y914732D01*
X1596402Y906073D01*
X1593517Y897415D01*
X1590631Y894527D01*
X1584858Y891641D01*
X1550222Y953985D02*
G01*
X1547334Y953985D01*
X1541564Y956873D01*
X1538676Y959759D01*
X1535790Y965532D01*
X1535790Y977077D01*
X1538676Y982850D01*
X1541564Y985735D01*
X1547334Y988623D01*
X1553108Y988623D01*
X1558881Y985735D01*
X1567540Y979965D01*
X1596402Y951100D01*
X1596402Y991509D01*
X1939315Y362394D02*
G01*
X1999927Y362394D01*
X1939315Y362394D02*
G01*
X1939315Y388371D01*
X1942200Y397029D01*
X1945088Y399917D01*
X1950859Y402803D01*
X1956633Y402803D01*
X1962406Y399917D01*
X1965291Y397029D01*
X1968177Y388371D01*
X1968177Y362394D01*
X1968177Y382600D02*
G01*
X1999927Y402803D01*
X1939315Y427626D02*
G01*
X1939315Y459376D01*
X1962406Y442059D01*
X1962406Y450717D01*
X1965291Y456488D01*
X1968177Y459376D01*
X1976836Y462262D01*
X1982609Y462262D01*
X1991268Y459376D01*
X1997041Y453603D01*
X1999927Y444944D01*
X1999927Y436285D01*
X1997041Y427626D01*
X1994156Y424738D01*
X1988383Y421853D01*
X1950859Y481312D02*
G01*
X1947974Y487085D01*
X1939315Y495744D01*
X1999927Y495744D01*
X2072208Y908403D02*
G01*
X2132820Y908403D01*
X2072208Y908403D02*
G01*
X2072208Y934379D01*
X2075093Y943038D01*
X2077981Y945926D01*
X2083752Y948811D01*
X2089525Y948811D01*
X2095299Y945926D01*
X2098184Y943038D01*
X2101070Y934379D01*
X2101070Y908403D01*
X2101070Y928608D02*
G01*
X2132820Y948811D01*
X2086640Y970747D02*
G01*
X2083752Y970747D01*
X2077981Y973635D01*
X2075093Y976520D01*
X2072208Y982294D01*
X2072208Y993838D01*
X2075093Y999611D01*
X2077981Y1002497D01*
X2083752Y1005385D01*
X2089525Y1005385D01*
X2095299Y1002497D01*
X2103958Y996726D01*
X2132820Y967861D01*
X2132820Y1008270D01*
X2086640Y1030206D02*
G01*
X2083752Y1030206D01*
X2077981Y1033094D01*
X2075093Y1035979D01*
X2072208Y1041753D01*
X2072208Y1053297D01*
X2075093Y1059070D01*
X2077981Y1061956D01*
X2083752Y1064844D01*
X2089525Y1064844D01*
X2095299Y1061956D01*
X2103958Y1056185D01*
X2132820Y1027320D01*
X2132820Y1067729D01*
X1539113Y575111D02*
G01*
X1599725Y575111D01*
X1539113Y575111D02*
G01*
X1539113Y601088D01*
X1541998Y609747D01*
X1544886Y612635D01*
X1550657Y615520D01*
X1556430Y615520D01*
X1562204Y612635D01*
X1565089Y609747D01*
X1567975Y601088D01*
X1567975Y575111D01*
X1567975Y595317D02*
G01*
X1599725Y615520D01*
X1539113Y640344D02*
G01*
X1539113Y672094D01*
X1562204Y654776D01*
X1562204Y663435D01*
X1565089Y669206D01*
X1567975Y672094D01*
X1576633Y674979D01*
X1582407Y674979D01*
X1591066Y672094D01*
X1596839Y666320D01*
X1599725Y657661D01*
X1599725Y649003D01*
X1596839Y640344D01*
X1593954Y637456D01*
X1588180Y634570D01*
X1539113Y699803D02*
G01*
X1539113Y731553D01*
X1562204Y714235D01*
X1562204Y722894D01*
X1565089Y728665D01*
X1567975Y731553D01*
X1576633Y734438D01*
X1582407Y734438D01*
X1591066Y731553D01*
X1596839Y725779D01*
X1599725Y717120D01*
X1599725Y708461D01*
X1596839Y699803D01*
X1593954Y696915D01*
X1588180Y694029D01*
X1771596Y970170D02*
G01*
X1765754Y967376D01*
X1760166Y961534D01*
X1757118Y955946D01*
X1757118Y944262D01*
X1760166Y938420D01*
X1765754Y932832D01*
X1771596Y929784D01*
X1780232Y926990D01*
X1794710Y926990D01*
X1803346Y929784D01*
X1809188Y932832D01*
X1815030Y938420D01*
X1817824Y944262D01*
X1817824Y955946D01*
X1815030Y961534D01*
X1809188Y967376D01*
X1803346Y970170D01*
X1757118Y1024018D02*
G01*
X1757118Y995062D01*
X1783280Y992268D01*
X1780232Y995062D01*
X1777438Y1003698D01*
X1777438Y1012334D01*
X1780232Y1020970D01*
X1786074Y1026812D01*
X1794710Y1029860D01*
X1800552Y1029860D01*
X1809188Y1026812D01*
X1815030Y1020970D01*
X1817824Y1012334D01*
X1817824Y1003698D01*
X1815030Y995062D01*
X1811982Y992268D01*
X1806140Y989220D01*
D12*
X-879627Y-29875D02*
G01*
X-879627Y-60797D01*
X-723600Y-29875D02*
G01*
X-723600Y-60797D01*
X-723600Y-39900D02*
G01*
X-701614Y-39900D01*
X-901613Y-39900D02*
G01*
X-879627Y-39900D01*
X-879627Y-49928D02*
G01*
X-901613Y-49928D01*
X-701614Y-49928D02*
G01*
X-723600Y-49928D01*
X-723600Y-29875D02*
G01*
X-701614Y-29875D01*
X-901613Y-29875D02*
G01*
X-879627Y-29875D01*
X-879627Y309201D02*
G01*
X-901613Y309201D01*
X-901613Y249201D01*
X-723600Y-60797D02*
G01*
X-701614Y-60797D01*
X-701614Y289201D01*
X-701614Y309201D01*
X-723600Y309201D01*
X-901613Y269201D02*
G01*
X-901613Y-60797D01*
X-879627Y-60797D01*
D13*
X-801613Y78402D02*
G01*
X-842253Y180002D01*
X-842253Y180002D02*
G01*
X-760973Y180002D01*
X-760973Y180002D02*
G01*
X-801613Y78402D01*
D11*
X-68760Y8630D02*
G01*
X-68760Y-70378D01*
X30960Y-70378D02*
G01*
X30960Y8630D01*
X15720Y23870D02*
G01*
X-53520Y23870D01*
X-68760Y-194630D02*
G01*
X-68760Y-115620D01*
X30960Y-115620D02*
G01*
X30960Y-194630D01*
X15720Y-209870D02*
G01*
X-53520Y-209870D01*
X153588Y-845004D02*
G01*
X91079Y-845004D01*
X91079Y-845004D01*
X91079Y-29766D01*
X91079Y-29766D01*
X153588Y-29766D01*
X643808Y-845004D02*
G01*
X706318Y-845004D01*
X706318Y-845004D01*
X706318Y-29766D01*
X706318Y-29766D01*
X643808Y-29766D01*
X-384477Y-352137D02*
G01*
X-312674Y-352137D01*
X-312674Y-451858D01*
X-384477Y-451858D01*
X-429719Y-352137D02*
G01*
X-501522Y-352137D01*
X-501522Y-451858D01*
X-429719Y-451858D01*
D14*
X-587735Y-257299D02*
G01*
X-581997Y-257299D01*
X-581997Y-422399D01*
X-777730Y-257299D02*
G01*
X-691065Y-257299D01*
X-786063Y-422399D02*
G01*
X-886797Y-422399D01*
X-886797Y-257299D01*
X-881057Y-257299D01*
X-581997Y-422399D02*
G01*
X-682731Y-422399D01*
D11*
X1238473Y278168D02*
G01*
X1192921Y278168D01*
X1192921Y200047D01*
X1238473Y200047D01*
X1271711Y278168D02*
G01*
X1317264Y278168D01*
X1317264Y200047D01*
X1271711Y200047D01*
X1237711Y357162D02*
G01*
X1192159Y357162D01*
X1192159Y279041D01*
X1237711Y279041D01*
X1270949Y357162D02*
G01*
X1316502Y357162D01*
X1316502Y279041D01*
X1270949Y279041D01*
X1236949Y450126D02*
G01*
X1191397Y450126D01*
X1191397Y372005D01*
X1236949Y372005D01*
X1270187Y450126D02*
G01*
X1315740Y450126D01*
X1315740Y372005D01*
X1270187Y372005D01*
X1240251Y536232D02*
G01*
X1194699Y536232D01*
X1194699Y458111D01*
X1240251Y458111D01*
X1273489Y536232D02*
G01*
X1319042Y536232D01*
X1319042Y458111D01*
X1273489Y458111D01*
X-943025Y1211041D02*
G01*
X-943025Y1290050D01*
X-1042746Y1290050D02*
G01*
X-1042746Y1211041D01*
X-1027506Y1195801D02*
G01*
X-958265Y1195801D01*
X-943025Y1414302D02*
G01*
X-943025Y1335293D01*
X-1042746Y1335293D02*
G01*
X-1042746Y1414302D01*
X-1027506Y1429542D02*
G01*
X-958265Y1429542D01*
D13*
X-375920Y-272000D02*
G01*
X-375920Y7907D01*
X-375920Y7907D02*
G01*
X-275843Y7907D01*
X-275843Y-272000D01*
X-375920Y-272000D01*
D11*
X-1067993Y-35575D02*
G01*
X-1067993Y-107378D01*
X-1167714Y-107378D01*
X-1167714Y-35575D01*
X-1067993Y9667D02*
G01*
X-1067993Y81470D01*
X-1167714Y81470D01*
X-1167714Y9667D01*
X-39339Y149428D02*
G01*
X-118351Y149428D01*
X-118348Y49707D02*
G01*
X-39339Y49707D01*
X-24099Y64947D02*
G01*
X-24099Y134188D01*
X-242600Y149428D02*
G01*
X-163591Y149428D01*
X-163588Y49707D02*
G01*
X-242600Y49707D01*
X-257840Y64947D02*
G01*
X-257840Y134188D01*
X-569137Y-82072D02*
G01*
X-569137Y-3063D01*
X-668858Y-3063D02*
G01*
X-668858Y-82072D01*
X-653618Y-97312D02*
G01*
X-584377Y-97312D01*
X-569137Y121188D02*
G01*
X-569137Y42179D01*
X-668858Y42179D02*
G01*
X-668858Y121188D01*
X-653618Y136428D02*
G01*
X-584377Y136428D01*
D12*
X-1044765Y-77190D02*
G01*
X-1044765Y52809D01*
X-951166Y52806D02*
G01*
X-951166Y-77193D01*
D15*
X-974631Y1765744D02*
G01*
X-664624Y1765741D01*
X-664624Y1455737D02*
G01*
X-664624Y1765741D01*
X-974628Y1455864D02*
G01*
X-664624Y1455864D01*
X-977044Y1765744D02*
G01*
X-977044Y1681924D01*
X-977044Y1539684D02*
G01*
X-977044Y1455864D01*
D11*
X1201181Y1844085D02*
G01*
X1280190Y1844085D01*
X1280190Y1943806D02*
G01*
X1201181Y1943806D01*
X1185941Y1928563D02*
G01*
X1185941Y1859328D01*
X1404442Y1844085D02*
G01*
X1325432Y1844085D01*
X1325432Y1943806D02*
G01*
X1404442Y1943806D01*
X1419682Y1928563D02*
G01*
X1419682Y1859328D01*
X-656838Y1476994D02*
G01*
X-656838Y1397985D01*
X-557118Y1397985D02*
G01*
X-557118Y1476994D01*
X-572358Y1492234D02*
G01*
X-641598Y1492234D01*
X-656838Y1273733D02*
G01*
X-656838Y1352743D01*
X-557118Y1352743D02*
G01*
X-557118Y1273733D01*
X-572358Y1258493D02*
G01*
X-641598Y1258493D01*
D13*
X1527627Y429102D02*
G01*
X1527627Y389907D01*
X1527627Y168681D02*
G01*
X1527627Y129100D01*
X1827629Y129100D02*
G01*
X1827629Y168681D01*
X1827629Y389907D02*
G01*
X1827629Y429102D01*
X1527627Y429102D02*
G01*
X1567154Y429102D01*
X1788228Y429102D02*
G01*
X1827629Y429102D01*
X1527627Y129100D02*
G01*
X1567154Y129100D01*
X1788380Y129100D02*
G01*
X1827629Y129100D01*
D11*
X-528162Y1625285D02*
G01*
X-528162Y1553481D01*
X-627882Y1553481D01*
X-627882Y1625285D01*
X-528162Y1670527D02*
G01*
X-528162Y1742330D01*
X-627882Y1742330D01*
X-627882Y1670527D01*
X1514713Y739424D02*
G01*
X1435704Y739424D01*
X1435704Y639704D02*
G01*
X1514713Y639704D01*
X1529953Y654944D02*
G01*
X1529953Y724184D01*
X1311452Y739424D02*
G01*
X1390462Y739424D01*
X1390462Y639704D02*
G01*
X1311452Y639704D01*
X1296212Y654944D02*
G01*
X1296212Y724184D01*
X1185407Y1298453D02*
G01*
X1185407Y1370256D01*
X1285128Y1370256D01*
X1285128Y1298453D01*
X1185407Y1253210D02*
G01*
X1185407Y1181407D01*
X1285128Y1181407D01*
X1285128Y1253210D01*
X1302501Y1299723D02*
G01*
X1302501Y1371526D01*
X1402222Y1371526D01*
X1402222Y1299723D01*
X1302501Y1254480D02*
G01*
X1302501Y1182677D01*
X1402222Y1182677D01*
X1402222Y1254480D01*
X1512681Y622330D02*
G01*
X1433672Y622330D01*
X1433672Y522610D02*
G01*
X1512681Y522610D01*
X1527921Y537850D02*
G01*
X1527921Y607090D01*
X1309420Y622330D02*
G01*
X1388430Y622330D01*
X1388430Y522610D02*
G01*
X1309420Y522610D01*
X1294180Y537850D02*
G01*
X1294180Y607090D01*
X933777Y107160D02*
G01*
X888225Y107160D01*
X888225Y29039D01*
X933777Y29039D01*
X967016Y107160D02*
G01*
X1012568Y107160D01*
X1012568Y29039D01*
X967016Y29039D01*
X763379Y167459D02*
G01*
X717826Y167459D01*
X717826Y89339D01*
X763379Y89339D01*
X796617Y167459D02*
G01*
X842170Y167459D01*
X842170Y89339D01*
X796617Y89339D01*
X744237Y-282117D02*
G01*
X744237Y-327670D01*
X822358Y-327670D01*
X822358Y-282117D01*
X744237Y-248879D02*
G01*
X744237Y-203327D01*
X822358Y-203327D01*
X822358Y-248879D01*
D16*
X1514370Y799614D02*
G01*
X1514370Y772114D01*
X1444370Y772114D01*
X1239372Y772114D02*
G01*
X1169370Y772114D01*
X1169370Y799614D01*
X1514370Y1089614D02*
G01*
X1514370Y1117114D01*
X1444370Y1117114D01*
X1239372Y1117114D02*
G01*
X1169370Y1117114D01*
X1169370Y1089614D01*
D10*
X-472993Y1776811D02*
G01*
X-472993Y2281814D01*
X1067008Y2281814D01*
X1067008Y1776811D01*
X1067008Y231830D02*
G01*
X-472993Y231830D01*
D11*
X1345892Y1703915D02*
G01*
X1250652Y1703915D01*
X1250652Y1799155D01*
X1345892Y1799155D01*
X1345892Y1703915D01*
X1186693Y1580865D02*
G01*
X1186693Y1652668D01*
X1286413Y1652668D01*
X1286413Y1580865D01*
X1186693Y1535623D02*
G01*
X1186693Y1463819D01*
X1286413Y1463819D01*
X1286413Y1535623D01*
X1306581Y1580611D02*
G01*
X1306581Y1652414D01*
X1406301Y1652414D01*
X1406301Y1580611D01*
X1306581Y1535369D02*
G01*
X1306581Y1463565D01*
X1406301Y1463565D01*
X1406301Y1535369D01*
X-787349Y1980316D02*
G01*
X-708339Y1980316D01*
X-708339Y2080036D02*
G01*
X-787349Y2080036D01*
X-802589Y2064796D02*
G01*
X-802589Y1995556D01*
X-584088Y1980316D02*
G01*
X-663097Y1980316D01*
X-663097Y2080036D02*
G01*
X-584088Y2080036D01*
X-568848Y2064796D02*
G01*
X-568848Y1995556D01*
D13*
X2472463Y471459D02*
G01*
X2472463Y423959D01*
X2172464Y1016467D02*
G01*
X2172464Y1063957D01*
X2472463Y1063957D01*
X2472463Y1016469D01*
X2472463Y423959D02*
G01*
X2172464Y423959D01*
X2172464Y471462D01*
D17*
X2353716Y951712D02*
G01*
X2353716Y886205D01*
X2291206Y886205D01*
X2291206Y951712D01*
X2353716Y951712D01*
X2382469Y598957D02*
G01*
X2382469Y528955D01*
X2262479Y528955D01*
X2262479Y598957D01*
X2382469Y598957D01*
D14*
X1851797Y856160D02*
G01*
X1851797Y861898D01*
X2016897Y861898D01*
X1851797Y666165D02*
G01*
X1851797Y752830D01*
X2016897Y657832D02*
G01*
X2016897Y557098D01*
X1851797Y557098D01*
X1851797Y562838D01*
X2016897Y861898D02*
G01*
X2016897Y761164D01*
D11*
X1130467Y80040D02*
G01*
X1209476Y80040D01*
X1209476Y179760D02*
G01*
X1130467Y179760D01*
X1115227Y164520D02*
G01*
X1115227Y95280D01*
X1333728Y80040D02*
G01*
X1254719Y80040D01*
X1254719Y179760D02*
G01*
X1333728Y179760D01*
X1348968Y164520D02*
G01*
X1348968Y95280D01*
X1611835Y882119D02*
G01*
X1611835Y953922D01*
X1711556Y953922D01*
X1711556Y882119D01*
X1611835Y836876D02*
G01*
X1611835Y765073D01*
X1711556Y765073D01*
X1711556Y836876D01*
X2117156Y427078D02*
G01*
X2117156Y355274D01*
X2017435Y355274D01*
X2017435Y427078D01*
X2117156Y472320D02*
G01*
X2117156Y544123D01*
X2017435Y544123D01*
X2017435Y472320D01*
X2054156Y954176D02*
G01*
X2054156Y882373D01*
X1954436Y882373D01*
X1954436Y954176D01*
X2054156Y999418D02*
G01*
X2054156Y1071222D01*
X1954436Y1071222D01*
X1954436Y999418D01*
X1713656Y623575D02*
G01*
X1713656Y551771D01*
X1613936Y551771D01*
X1613936Y623575D01*
X1713656Y668817D02*
G01*
X1713656Y740620D01*
X1613936Y740620D01*
X1613936Y668817D01*
X1935957Y886566D02*
G01*
X1935957Y965575D01*
X1836237Y965575D02*
G01*
X1836237Y886566D01*
X1851477Y871326D02*
G01*
X1920717Y871326D01*
X1935957Y1089827D02*
G01*
X1935957Y1010818D01*
X1836237Y1010818D02*
G01*
X1836237Y1089827D01*
X1851477Y1105067D02*
G01*
X1920717Y1105067D01*
D18*
G75*
G01*
X-617751Y1606944D02*
G03*
X-617751Y1606512I-10005J-216D01*
D11*
G75*
G01*
X30960Y8631D02*
G03*
X15720Y23871I-15240J0D01*
G75*
G01*
X-53520Y23871D02*
G03*
X-68760Y8631I0J-15240D01*
G75*
G01*
X30960Y-194630D02*
G02*
X15720Y-209870I-15240J0D01*
G75*
G01*
X-53520Y-209870D02*
G02*
X-68760Y-194630I0J15240D01*
G75*
G01*
X-1042746Y1211042D02*
G03*
X-1027506Y1195802I15240J0D01*
G75*
G01*
X-958266Y1195802D02*
G03*
X-943026Y1211042I0J15240D01*
G75*
G01*
X-1042746Y1414302D02*
G02*
X-1027506Y1429542I15240J0D01*
G75*
G01*
X-958266Y1429542D02*
G02*
X-943026Y1414302I0J-15240D01*
D19*
G75*
G01*
X-478028Y47147D02*
G02*
X-478028Y46893I12445J-127D01*
D11*
G75*
G01*
X-39340Y49708D02*
G03*
X-24100Y64948I0J15240D01*
G75*
G01*
X-24100Y134188D02*
G03*
X-39340Y149428I-15240J0D01*
G75*
G01*
X-242600Y49708D02*
G02*
X-257840Y64948I0J15240D01*
G75*
G01*
X-257840Y134188D02*
G02*
X-242600Y149428I15240J0D01*
G75*
G01*
X-668858Y-82072D02*
G03*
X-653618Y-97312I15240J0D01*
G75*
G01*
X-584378Y-97312D02*
G03*
X-569138Y-82072I0J15240D01*
G75*
G01*
X-668858Y121188D02*
G02*
X-653618Y136428I15240J0D01*
G75*
G01*
X-584378Y136428D02*
G02*
X-569138Y121188I0J-15240D01*
D15*
G75*
G01*
X-977044Y1679384D02*
G02*
X-977044Y1539684I-21730J-69850D01*
D11*
G75*
G01*
X1201181Y1943806D02*
G03*
X1185941Y1928564I0J-15240D01*
G75*
G01*
X1185941Y1859328D02*
G03*
X1201181Y1844086I15240J-2D01*
G75*
G01*
X1404442Y1943806D02*
G02*
X1419682Y1928564I0J-15240D01*
G75*
G01*
X1419682Y1859328D02*
G02*
X1404442Y1844086I-15240J-2D01*
G75*
G01*
X-557119Y1476995D02*
G03*
X-572359Y1492235I-15240J0D01*
G75*
G01*
X-641599Y1492235D02*
G03*
X-656839Y1476995I0J-15240D01*
G75*
G01*
X-557119Y1273734D02*
G02*
X-572359Y1258494I-15240J0D01*
G75*
G01*
X-641599Y1258494D02*
G02*
X-656839Y1273734I0J15240D01*
G75*
G01*
X1514714Y639704D02*
G03*
X1529954Y654944I0J15240D01*
G75*
G01*
X1529954Y724184D02*
G03*
X1514714Y739424I-15240J0D01*
G75*
G01*
X1311453Y639704D02*
G02*
X1296213Y654944I0J15240D01*
G75*
G01*
X1296213Y724184D02*
G02*
X1311453Y739424I15240J0D01*
G75*
G01*
X1512682Y522610D02*
G03*
X1527922Y537850I0J15240D01*
G75*
G01*
X1527922Y607090D02*
G03*
X1512682Y622330I-15240J0D01*
G75*
G01*
X1309421Y522610D02*
G02*
X1294181Y537850I0J15240D01*
G75*
G01*
X1294181Y607090D02*
G02*
X1309421Y622330I15240J0D01*
D20*
G75*
G01*
X1546850Y787133D02*
G03*
X1546850Y787387I12499J127D01*
D11*
G75*
G01*
X-787349Y2080036D02*
G03*
X-802589Y2064796I0J-15240D01*
G75*
G01*
X-802589Y1995556D02*
G03*
X-787349Y1980316I15240J0D01*
G75*
G01*
X-584088Y2080036D02*
G02*
X-568848Y2064796I0J-15240D01*
G75*
G01*
X-568848Y1995556D02*
G02*
X-584088Y1980316I-15240J0D01*
G75*
G01*
X1130468Y179761D02*
G03*
X1115228Y164521I0J-15240D01*
G75*
G01*
X1115228Y95280D02*
G03*
X1130468Y80040I15240J0D01*
G75*
G01*
X1333729Y179761D02*
G02*
X1348969Y164521I0J-15240D01*
G75*
G01*
X1348969Y95280D02*
G02*
X1333729Y80040I-15240J0D01*
G75*
G01*
X1836237Y886567D02*
G03*
X1851477Y871327I15240J0D01*
G75*
G01*
X1920718Y871327D02*
G03*
X1935958Y886567I0J15240D01*
G75*
G01*
X1836237Y1089828D02*
G02*
X1851477Y1105068I15240J0D01*
G75*
G01*
X1920718Y1105068D02*
G02*
X1935958Y1089828I0J-15240D01*
D15*
G75*
G01
X-907692Y1281168D02*
G03X-907692Y1281168I-10008J0D01*
G75*
G01
X2149706Y515358D02*
G03X2149706Y515358I-10008J0D01*
G75*
G01
X-686305Y-113800D02*
G03X-686305Y-113800I-14986J0D01*
G75*
G01
X-991004Y82034D02*
G03X-991004Y82034I-10008J0D01*
D21*
G75*
G01
X144503Y-881921D02*
G03X144503Y-881921I-12497J0D01*
D14*
G75*
G01
X-709394Y-123198D02*
G03X-709394Y-123198I-5004J0D01*
D13*
G75*
G01
X1554178Y94607D02*
G03X1554178Y94607I-5436J0D01*
D17*
G75*
G01
X1328677Y1827726D02*
G03X1328677Y1827726I-5004J0D01*
G75*
G01
X2344829Y918964D02*
G03X2344829Y918964I-22352J0D01*
D14*
G75*
G01
X1722707Y729480D02*
G03X1722707Y729480I-5004J0D01*
M02*
