G04 Layer: TopLayer*
G04 Panelize: , Column: 1, Row: 1, Board Size: 43.14mm x 33.02mm, Panelized Board Size: 43.14mm x 33.02mm*
G04 EasyEDA v6.5.42, 2024-03-19 15:40:22*
G04 eeb97d59e02942aebf3b2853903f826f,9a4ed40c0dd746429eaf55b84663d2fb,10*
G04 Gerber Generator version 0.2*
G04 Scale: 100 percent, Rotated: No, Reflected: No *
G04 Dimensions in millimeters *
G04 leading zeros omitted , absolute positions ,4 integer and 5 decimal *
%FSLAX45Y45*%
%MOMM*%

%AMMACRO1*21,1,$1,$2,0,0,$3*%
%AMMACRO2*4,1,4,-0.2,0.4001,0.2,0.4001,0.2,-0.4001,-0.2,-0.4001,-0.2,0.4001,0*%
%AMMACRO3*4,1,4,-0.1999,0.4001,0.1999,0.4001,0.1999,-0.4001,-0.1999,-0.4001,-0.1999,0.4001,0*%
%ADD10C,0.2000*%
%ADD11C,0.1600*%
%ADD12C,0.3000*%
%ADD13C,0.3130*%
%ADD14C,0.2620*%
%ADD15C,0.5000*%
%ADD16C,0.2030*%
%ADD17C,0.4648*%
%ADD18C,0.2960*%
%ADD19C,0.2110*%
%ADD20C,0.2616*%
%ADD21R,1.1999X1.1999*%
%ADD22R,1.2000X1.2000*%
%ADD23MACRO1,0.54X0.7901X0.0000*%
%ADD24R,0.5400X0.7901*%
%ADD25R,0.7112X1.7406*%
%ADD26MACRO1,0.54X0.5656X-90.0000*%
%ADD27R,0.7000X1.2500*%
%ADD28MACRO1,0.324X0.3031X-90.0000*%
%ADD29MACRO1,0.6223X1.1049X-90.0000*%
%ADD30MACRO1,0.54X0.5656X0.0000*%
%ADD31R,0.5400X0.5657*%
%ADD32MACRO1,0.54X0.7901X90.0000*%
%ADD33R,0.6000X0.5000*%
%ADD34R,0.3000X1.3000*%
%ADD35MACRO1,0.54X0.7901X-90.0000*%
%ADD36R,0.2500X0.6000*%
%ADD37R,0.6000X0.2500*%
%ADD38R,1.5000X1.5000*%
%ADD39MACRO1,0.324X0.3031X0.0000*%
%ADD40R,0.3240X0.3031*%
%ADD41O,0.7999984X0.2800096*%
%ADD42O,0.2800096X0.7999984*%
%ADD43R,0.8001X0.8001*%
%ADD44MACRO2*%
%ADD45MACRO3*%
%ADD46R,0.8001X0.4001*%
%ADD47R,0.5000X0.5000*%
%ADD48R,1.2000X2.3160*%
%ADD49R,1.2500X0.7000*%
%ADD50O,2.1999956000000003X1.1999976*%
%ADD51C,0.8000*%
%ADD52C,0.6096*%
%ADD53C,0.6200*%
%ADD54C,0.0195*%

%LPD*%
G36*
X-459435Y1491538D02*
G01*
X-463296Y1492250D01*
X-466598Y1494434D01*
X-468833Y1497685D01*
X-469646Y1501597D01*
X-471271Y1660347D01*
X-470306Y1665833D01*
X-470306Y1737868D01*
X-469544Y1741728D01*
X-467309Y1745030D01*
X-464007Y1747266D01*
X-460146Y1748028D01*
X1048359Y1748028D01*
X1052271Y1747266D01*
X1055522Y1745030D01*
X1057757Y1741728D01*
X1058519Y1737868D01*
X1058519Y1668627D01*
X1057757Y1664766D01*
X1055573Y1661464D01*
X1052322Y1659280D01*
X1048512Y1658467D01*
X839114Y1655825D01*
X837184Y1654962D01*
X793140Y1596034D01*
X790549Y1593596D01*
X732586Y1555699D01*
X729640Y1554378D01*
X726541Y1553565D01*
X717651Y1549400D01*
X709625Y1543812D01*
X701802Y1535887D01*
X699363Y1534007D01*
X696722Y1532788D01*
X693826Y1532331D01*
X-120243Y1531315D01*
X-355955Y1529283D01*
X-356971Y1528318D01*
X-356311Y1502562D01*
X-356971Y1498600D01*
X-359156Y1495247D01*
X-362458Y1492961D01*
X-366369Y1492148D01*
G37*

%LPD*%
G36*
X-3759Y787349D02*
G01*
X-7670Y788111D01*
X-10922Y790295D01*
X-13157Y793597D01*
X-13919Y797509D01*
X-13919Y1181912D01*
X-13157Y1185824D01*
X-10922Y1189075D01*
X41503Y1241552D01*
X44805Y1243787D01*
X48717Y1244549D01*
X444550Y1244549D01*
X448462Y1243787D01*
X451713Y1241552D01*
X453948Y1238250D01*
X454710Y1234389D01*
X454710Y797509D01*
X453948Y793597D01*
X451713Y790295D01*
X448462Y788111D01*
X444550Y787349D01*
G37*

%LPD*%
G36*
X-1174445Y1219D02*
G01*
X-1178356Y1828D01*
X-1181760Y3860D01*
X-1184097Y7112D01*
X-1185011Y10972D01*
X-1187551Y76504D01*
X-1186942Y80365D01*
X-1184960Y83718D01*
X-1181862Y86055D01*
X-1178102Y87020D01*
X-978611Y100787D01*
X-977239Y101142D01*
X-913536Y150774D01*
X-912469Y152552D01*
X-910590Y371652D01*
X-910945Y373126D01*
X-966978Y448665D01*
X-968451Y451510D01*
X-969010Y454710D01*
X-969010Y671474D01*
X-968197Y675487D01*
X-965860Y678840D01*
X-962406Y680974D01*
X-958342Y681583D01*
X-954379Y680567D01*
X-950163Y676910D01*
X-943406Y670153D01*
X-941019Y666445D01*
X-939647Y651865D01*
X-937107Y642416D01*
X-932942Y633476D01*
X-927303Y625449D01*
X-920394Y618490D01*
X-912317Y612851D01*
X-903427Y608736D01*
X-893927Y606196D01*
X-884123Y605332D01*
X-874369Y606196D01*
X-864869Y608736D01*
X-855980Y612851D01*
X-847902Y618490D01*
X-840994Y625449D01*
X-835355Y633476D01*
X-831189Y642416D01*
X-828649Y651865D01*
X-827786Y661670D01*
X-828649Y671474D01*
X-831189Y680923D01*
X-835355Y689864D01*
X-840994Y697890D01*
X-847902Y704850D01*
X-855980Y710488D01*
X-864869Y714603D01*
X-874369Y717143D01*
X-879856Y717651D01*
X-883462Y718667D01*
X-886460Y720902D01*
X-888441Y724103D01*
X-889152Y728776D01*
X-888390Y732688D01*
X-886155Y735990D01*
X-881887Y740257D01*
X-876249Y748284D01*
X-872083Y757224D01*
X-869543Y766673D01*
X-868680Y776478D01*
X-869543Y786282D01*
X-872083Y795731D01*
X-876249Y804672D01*
X-881887Y812698D01*
X-888796Y819658D01*
X-896874Y825296D01*
X-905764Y829411D01*
X-915263Y831951D01*
X-925017Y832815D01*
X-934821Y831951D01*
X-944321Y829411D01*
X-953211Y825296D01*
X-957275Y823671D01*
X-961644Y823925D01*
X-965504Y825957D01*
X-968146Y829411D01*
X-969060Y833678D01*
X-969111Y1036116D01*
X-969365Y1056182D01*
X-968603Y1060145D01*
X-966419Y1063498D01*
X-963066Y1065682D01*
X-959103Y1066444D01*
X-767080Y1064869D01*
X-763168Y1064056D01*
X-759917Y1061821D01*
X-757732Y1058519D01*
X-757021Y1054608D01*
X-757275Y1031900D01*
X-757021Y1030681D01*
X-758291Y908913D01*
X-759002Y905256D01*
X-761034Y902055D01*
X-764032Y899871D01*
X-767638Y898906D01*
X-778916Y897991D01*
X-788365Y895451D01*
X-797255Y891336D01*
X-805332Y885698D01*
X-812241Y878738D01*
X-817880Y870712D01*
X-822045Y861771D01*
X-824585Y852322D01*
X-825449Y842518D01*
X-824585Y832713D01*
X-822045Y823264D01*
X-817880Y814324D01*
X-812241Y806297D01*
X-805332Y799338D01*
X-797255Y793699D01*
X-788365Y789584D01*
X-778865Y787044D01*
X-768959Y786180D01*
X-765352Y785114D01*
X-762355Y782878D01*
X-760374Y779627D01*
X-759714Y775919D01*
X-763981Y369062D01*
X-763524Y367436D01*
X-702208Y293065D01*
X-700430Y289864D01*
X-699922Y285597D01*
X-617321Y286105D01*
X-613562Y285445D01*
X-610311Y283413D01*
X-608076Y280314D01*
X-607110Y276656D01*
X-607568Y272846D01*
X-609396Y269494D01*
X-705408Y152806D01*
X-705713Y145592D01*
X-706374Y142443D01*
X-707948Y139649D01*
X-743458Y95707D01*
X-746963Y92913D01*
X-751281Y91897D01*
X-762304Y91795D01*
X-779627Y74523D01*
X-782878Y72390D01*
X-786638Y71577D01*
X-858570Y70510D01*
X-859282Y63398D01*
X-860399Y59690D01*
X-862787Y56692D01*
X-866089Y54813D01*
X-872845Y52476D01*
X-877722Y49428D01*
X-881786Y45313D01*
X-884885Y40436D01*
X-886764Y34950D01*
X-887476Y28702D01*
X-888746Y24892D01*
X-891336Y21793D01*
X-894943Y20015D01*
X-951585Y4724D01*
X-954430Y4368D01*
X-1053744Y6350D01*
G37*

%LPD*%
G36*
X217271Y1226108D02*
G01*
X157276Y1166114D01*
X157276Y1106119D01*
X277266Y1106119D01*
X277266Y1226108D01*
G37*
D10*
X194642Y145127D02*
G01*
X194642Y209643D01*
X211914Y226915D01*
X211914Y304385D01*
D11*
X785700Y52163D02*
G01*
X785700Y8729D01*
X854026Y-59596D01*
X854026Y-569374D01*
X797638Y-625762D01*
X520270Y-625762D01*
X462104Y-683928D01*
X462104Y-836836D01*
X783414Y-289720D02*
G01*
X532462Y-289720D01*
X462104Y-219616D01*
X462104Y-37752D01*
D12*
X1356438Y1514695D02*
G01*
X1361236Y1509897D01*
X1393197Y1509897D01*
X1409697Y1493398D01*
X1431897Y1493398D01*
D11*
X1391998Y1084673D02*
G01*
X1391998Y1131663D01*
X1425018Y1164937D01*
X1425018Y1406237D01*
X1385902Y1445607D01*
X1177622Y1445607D01*
X1148412Y1474817D01*
X1148412Y1573369D01*
X1176606Y1601563D01*
X1236550Y1601563D01*
D10*
X1467589Y689551D02*
G01*
X1481889Y703851D01*
X1481889Y844618D01*
X1465658Y572355D02*
G01*
X1467690Y689449D01*
X1341960Y804511D02*
G01*
X1341706Y870551D01*
X1350342Y879441D01*
X1350342Y914493D01*
X1358470Y689449D02*
G01*
X1240106Y691481D01*
X1202006Y729835D01*
X1202006Y844643D01*
X1886028Y1042763D02*
G01*
X1806780Y1042763D01*
X1702894Y129125D02*
G01*
X1701878Y178401D01*
X1677748Y202277D01*
X1677748Y278985D01*
X552020Y304385D02*
G01*
X552020Y416653D01*
X737948Y602581D01*
X877140Y602581D01*
X915494Y641189D01*
X915494Y858613D01*
X873838Y900269D01*
X839802Y900269D01*
D11*
X1286588Y129887D02*
G01*
X1286588Y96867D01*
X1236042Y46321D01*
X1128092Y55973D02*
G01*
X1163906Y20159D01*
X1163906Y-134018D01*
X1116916Y-181008D01*
X1177592Y129908D02*
G01*
X1127998Y80314D01*
X1127998Y56100D01*
X804166Y128389D02*
G01*
X1042520Y128389D01*
X1071196Y157065D01*
X1071196Y380842D01*
X1042499Y409287D01*
X997031Y409287D01*
X1277698Y411065D02*
G01*
X1345516Y411065D01*
X1365074Y391507D01*
X1365074Y316831D01*
X1477596Y204309D01*
X1527634Y204309D01*
X1752678Y428337D02*
G01*
X1752678Y488281D01*
X1772490Y508093D01*
X1806780Y511903D01*
X1702625Y429092D02*
G01*
X1702625Y470870D01*
X1664995Y508500D01*
X1644906Y508500D01*
X1496486Y71912D02*
G01*
X1732452Y71912D01*
D10*
X1202004Y894684D02*
G01*
X1255857Y894684D01*
X1299898Y938725D01*
X1299898Y992700D01*
D11*
X1229339Y410966D02*
G01*
X1196660Y410966D01*
X1179893Y394200D01*
X1165506Y394200D01*
X1661746Y902809D02*
G01*
X1659206Y991201D01*
X1481889Y994630D02*
G01*
X1543004Y994630D01*
X1562181Y1013807D01*
X1562178Y1013807D02*
G01*
X1588340Y1039969D01*
X1588340Y1088991D01*
D12*
X1815736Y614494D02*
G01*
X1930796Y614494D01*
X2153996Y746399D02*
G01*
X2117087Y709490D01*
X2065672Y709490D01*
X2427556Y519015D02*
G01*
X2427556Y442561D01*
X2384376Y399635D01*
X2273632Y399635D01*
D11*
X2004392Y933543D02*
G01*
X2087704Y933543D01*
X2115898Y905349D01*
X2115898Y820259D01*
X2153998Y782159D01*
X2153998Y746345D01*
X1732452Y71912D02*
G01*
X1752805Y92262D01*
X1752805Y129092D01*
X2217498Y593945D02*
G01*
X2087958Y593945D01*
X2067384Y573371D01*
X2067384Y493107D01*
X2067384Y406493D02*
G01*
X2183970Y406493D01*
X2215720Y438243D01*
X2217465Y518972D02*
G01*
X2215779Y438147D01*
X1815746Y804486D02*
G01*
X1718812Y804486D01*
X1707078Y816218D01*
X1661698Y816218D01*
X1663778Y689449D02*
G01*
X1661746Y816195D01*
D10*
X1465653Y572861D02*
G01*
X1599463Y572861D01*
X1641096Y614494D01*
X1815746Y614494D01*
D11*
X1602818Y129125D02*
G01*
X1486486Y129125D01*
X1297510Y318101D01*
X1278460Y318101D01*
X1404444Y435703D02*
G01*
X1404444Y351375D01*
X1451180Y304385D01*
X1527634Y304385D01*
X1279222Y239107D02*
G01*
X1308940Y239107D01*
X1476072Y71975D01*
X1496392Y71975D01*
X1494751Y204271D02*
G01*
X1527520Y204271D01*
D10*
X1652770Y129087D02*
G01*
X1652770Y128295D01*
X1702777Y129095D01*
D11*
X1827740Y304355D02*
G01*
X1878291Y304355D01*
X1903199Y279450D01*
X1903199Y232503D01*
D13*
X1527606Y254284D02*
G01*
X1652846Y254284D01*
X1677624Y279082D01*
D14*
X1677624Y279082D02*
G01*
X1652597Y304078D01*
X1652597Y429094D01*
D11*
X1827618Y354284D02*
G01*
X1827618Y304302D01*
X1280947Y497070D02*
G01*
X1332936Y497070D01*
X1401894Y428106D01*
X1886028Y933797D02*
G01*
X2004392Y933543D01*
X1588340Y1088991D02*
G01*
X1622376Y1123027D01*
X1999566Y1123027D01*
X2060526Y1062067D01*
X2422222Y1062067D01*
X2476832Y1007457D01*
X2476832Y759807D01*
X2461084Y744059D01*
X2427556Y744059D01*
X2508328Y1011521D02*
G01*
X2508328Y1026761D01*
X2437462Y1097627D01*
X2074242Y1097627D01*
X2010742Y1161127D01*
X1568528Y1161127D01*
X1492074Y1084673D01*
X1391998Y1084673D01*
X2217470Y818967D02*
G01*
X2177127Y818967D01*
X2156998Y839096D01*
X2156998Y989995D01*
X2126912Y1020081D01*
X2004291Y1020081D01*
D10*
X-866780Y1847103D02*
G01*
X-866780Y1526794D01*
X-853488Y1513502D01*
D12*
X-213890Y167098D02*
G01*
X-213890Y167088D01*
X-195478Y148676D01*
X-195478Y99568D01*
X-86461Y99568D02*
G01*
X-86461Y126359D01*
X-127505Y167403D01*
D11*
X-866823Y1378297D02*
G01*
X-866823Y1233771D01*
X-798243Y1165191D01*
X-615871Y1165191D01*
X-454835Y1004409D01*
X-291005Y1004409D01*
X-190421Y1104739D01*
X-190421Y1322163D01*
X-120825Y1391759D01*
X187784Y1391759D01*
X-332407Y1089245D02*
G01*
X-281099Y1089245D01*
X-232585Y1138013D01*
X-232585Y1353405D01*
X-137843Y1448147D01*
X269826Y1448147D01*
X277954Y1440019D01*
D15*
X-829383Y-221241D02*
G01*
X-801618Y-193476D01*
X-801618Y-30716D01*
X-618995Y-34958D02*
G01*
X-623237Y-30716D01*
X-801621Y-30716D01*
X-455851Y-35720D02*
G01*
X-618919Y-34958D01*
D10*
X42014Y304337D02*
G01*
X41394Y258003D01*
X14097Y230698D01*
X-288594Y230698D01*
X-334210Y185084D01*
X-334210Y27602D01*
D15*
X206707Y-183294D02*
G01*
X208206Y-181795D01*
X208206Y-37879D01*
D16*
X-455851Y-225712D02*
G01*
X-456359Y-285910D01*
X-429689Y-312580D01*
X-381175Y-312580D01*
X-363903Y-330106D01*
X-363903Y-401988D01*
D10*
X-649805Y-624288D02*
G01*
X-649805Y-341909D01*
X-635787Y-327891D01*
X-635787Y-294868D01*
X-634596Y-294962D01*
D14*
X-766767Y1377104D02*
G01*
X-766767Y1273771D01*
X-758111Y1265115D01*
X-992883Y1367172D02*
G01*
X-926693Y1367172D01*
X-916762Y1377104D01*
D17*
X-523669Y1429453D02*
G01*
X-524073Y1429857D01*
X-606976Y1429857D01*
D18*
X-520113Y1319979D02*
G01*
X-521004Y1320871D01*
X-606976Y1320871D01*
D19*
X-716760Y1377104D02*
G01*
X-716760Y1563773D01*
X-675896Y1604637D01*
X-578004Y1604637D01*
D10*
X-766780Y1847103D02*
G01*
X-766780Y1758569D01*
X-698700Y1690489D01*
X-578025Y1691225D02*
G01*
X-578025Y1734151D01*
X-548053Y1764123D01*
X-526463Y1764123D01*
X-631111Y1972657D02*
G01*
X-631111Y1972657D01*
X-631111Y2030061D01*
X-816785Y1847181D02*
G01*
X-816785Y1924397D01*
X-793417Y1947765D01*
X-656003Y1947765D01*
X-631111Y1972657D01*
X-740331Y2030061D02*
G01*
X-740331Y2083909D01*
X-714169Y2109817D01*
X-551609Y2109817D01*
X-526463Y2084671D01*
X-526463Y1764123D01*
X-916861Y1847181D02*
G01*
X-916861Y1939129D01*
X-825675Y2030061D01*
X-740331Y2030061D01*
D11*
X-402996Y1089314D02*
G01*
X-288719Y1089314D01*
D12*
X-304975Y1344007D02*
G01*
X-403019Y1344261D01*
D11*
X1318265Y1731548D02*
G01*
X1356441Y1693372D01*
X1356441Y1601271D01*
X1278285Y1731548D02*
G01*
X1236553Y1689816D01*
X1236553Y1601525D01*
X1278285Y1771528D02*
G01*
X1248303Y1801510D01*
X1248303Y1893945D01*
X1318265Y1771528D02*
G01*
X1357320Y1810583D01*
X1357320Y1893945D01*
X1341884Y1084623D02*
G01*
X1341884Y1223332D01*
X1352359Y1233807D01*
X1303393Y804585D02*
G01*
X1303446Y804638D01*
X1341884Y804638D01*
X1356438Y1601307D02*
G01*
X1440667Y1601307D01*
X1486486Y1555488D01*
X1486489Y1555485D01*
X1486489Y1170122D01*
D10*
X-884171Y661662D02*
G01*
X-925070Y702561D01*
X-925070Y720846D01*
X-925070Y776475D01*
D15*
X-734387Y-471177D02*
G01*
X-734387Y-567623D01*
X-734113Y-567900D01*
X-25067Y-35212D02*
G01*
X-196009Y-35720D01*
X-196009Y-35720D02*
G01*
X-195501Y99661D01*
D11*
X-42593Y406493D02*
G01*
X-42593Y304736D01*
X-43004Y304325D01*
X1230096Y318023D02*
G01*
X1225882Y313809D01*
X1165202Y313809D01*
X1230866Y239034D02*
G01*
X1228831Y236999D01*
X1164008Y236999D01*
X-403019Y664303D02*
G01*
X-489125Y665065D01*
X-403019Y749393D02*
G01*
X-545259Y748377D01*
X-402993Y579335D02*
G01*
X-393057Y589272D01*
X-307591Y589272D01*
D10*
X381988Y304325D02*
G01*
X381988Y411767D01*
X264934Y528820D01*
X45722Y528820D01*
X297007Y304325D02*
G01*
X297007Y414309D01*
X241170Y470146D01*
X113286Y470146D01*
D11*
X-816785Y1377027D02*
G01*
X-816785Y1237581D01*
X-775383Y1196433D01*
X-581835Y1196433D01*
X-474901Y1089245D01*
X-403019Y1089245D01*
X-403019Y494377D02*
G01*
X-277792Y494377D01*
X-218691Y553481D01*
X-218691Y592320D01*
X-402993Y834321D02*
G01*
X-401530Y832858D01*
X-318767Y832858D01*
X997005Y1174325D02*
G01*
X999888Y1177206D01*
X1140005Y1177206D01*
X997005Y1089314D02*
G01*
X998794Y1091100D01*
X1085090Y1091100D01*
X997005Y1004326D02*
G01*
X1000086Y1007407D01*
X1084201Y1007407D01*
X997005Y919340D02*
G01*
X1001077Y923409D01*
X1080594Y923409D01*
X997005Y834321D02*
G01*
X1000572Y837887D01*
X1075794Y837887D01*
X997005Y749333D02*
G01*
X998870Y751197D01*
X1082398Y751197D01*
X1114808Y1399786D02*
G01*
X1114808Y1518584D01*
X1034115Y1599277D01*
X997031Y1599277D01*
X1232639Y497070D02*
G01*
X1232689Y497121D01*
X1232689Y553788D01*
D20*
X1213436Y894681D02*
G01*
X1213436Y842865D01*
X1228676Y842865D01*
D11*
X1291922Y1084673D02*
G01*
X1291922Y1150967D01*
X1235280Y1207609D01*
X1235280Y1232501D01*
D12*
X1300612Y1991888D02*
G01*
X1357320Y1935180D01*
X1357320Y1893945D01*
X997000Y1429318D02*
G01*
X997000Y1344330D01*
X997005Y1344330D02*
G01*
X784016Y1344330D01*
X749302Y1309616D01*
X1236550Y1514949D02*
G01*
X1356438Y1514695D01*
X1247726Y1391759D02*
G01*
X1235270Y1379303D01*
X1235270Y1319126D01*
X1248234Y1893917D02*
G01*
X1157556Y1892139D01*
D10*
X1201882Y994620D02*
G01*
X1203802Y992700D01*
X1299898Y992700D01*
X1358470Y689449D02*
G01*
X1356438Y572355D01*
X1481902Y1044608D02*
G01*
X1445166Y1044608D01*
X1393256Y992700D01*
X1299898Y992700D01*
D12*
X-997965Y-52196D02*
G01*
X-1002017Y-56248D01*
X-1117856Y-56248D01*
X-997884Y-52230D02*
G01*
X-999162Y-137068D01*
X-1000841Y-135389D01*
X-1013711Y-135389D01*
X-618919Y74007D02*
G01*
X-618919Y137990D01*
X-495297Y261612D01*
X-495297Y261612D02*
G01*
X-452584Y304325D01*
X-402993Y304325D01*
D11*
X823191Y754499D02*
G01*
X746602Y754499D01*
X651837Y659734D01*
X-298119Y303877D02*
G01*
X-298119Y406478D01*
X-93903Y610707D01*
X674720Y610707D01*
X743811Y679797D01*
X852299Y679797D01*
X-403019Y919319D02*
G01*
X-292275Y919319D01*
X-250111Y877409D01*
X-250111Y700879D01*
X-209217Y659731D01*
X651842Y659731D01*
D10*
X1391879Y804631D02*
G01*
X1391879Y763483D01*
X1354581Y726186D01*
X1358574Y722193D01*
X1358574Y689564D01*
D12*
X997005Y304325D02*
G01*
X1012802Y288531D01*
X1012802Y191406D01*
X1352359Y1320380D02*
G01*
X1346964Y1325775D01*
X1346964Y1389118D01*
D15*
X-523669Y1429351D02*
G01*
X-403019Y1429351D01*
D11*
X2322469Y1008959D02*
G01*
X2322469Y944585D01*
X2321384Y943500D01*
X2322469Y478962D02*
G01*
X2322469Y529336D01*
X2308202Y543603D01*
D12*
X2217460Y743958D02*
G01*
X2215019Y746396D01*
X2153998Y746396D01*
D11*
X2427437Y668873D02*
G01*
X2478001Y668873D01*
X2508387Y699254D01*
X2508387Y1011425D01*
D12*
X2427450Y968961D02*
G01*
X2427450Y893958D01*
X2217465Y593958D02*
G01*
X2250071Y594360D01*
X2321956Y666244D01*
X2321956Y742939D01*
X2217465Y968961D02*
G01*
X2217465Y893958D01*
X2217465Y893958D02*
G01*
X2260488Y893574D01*
X2318148Y835913D01*
X2318148Y817869D01*
X2427450Y893958D02*
G01*
X2385456Y895601D01*
X2318148Y828294D01*
X2318148Y817869D01*
D10*
X127081Y304388D02*
G01*
X127081Y73903D01*
X129898Y71086D01*
X-992883Y1258155D02*
G01*
X-992883Y1161034D01*
X-1001778Y1152136D01*
D15*
X208206Y-37879D02*
G01*
X-25069Y-37879D01*
X-25069Y-35212D01*
D11*
X594591Y123588D02*
G01*
X603910Y123588D01*
X608713Y128391D01*
X755855Y128391D01*
D16*
X-220804Y-128986D02*
G01*
X-205587Y-144205D01*
X-12595Y-144205D01*
D12*
X589193Y-836924D02*
G01*
X590908Y-835210D01*
X680392Y-835210D01*
D11*
X594601Y-37800D02*
G01*
X594601Y123578D01*
X594591Y123588D01*
X594601Y123578D01*
X594601Y96319D01*
X594601Y103576D01*
X926238Y68092D02*
G01*
X861001Y68092D01*
X845101Y52189D01*
X785700Y52189D01*
X828601Y397197D02*
G01*
X903902Y472498D01*
X903902Y536120D01*
X946988Y579211D01*
X997031Y579211D01*
X997031Y494377D02*
G01*
X1042746Y494377D01*
X1103965Y433161D01*
X1103965Y132684D01*
X1039370Y68089D01*
X974549Y68089D01*
X783414Y-241460D02*
G01*
X788240Y-77884D01*
X731344Y-17432D01*
X263095Y-262491D02*
G01*
X260939Y-264647D01*
X260939Y-556737D01*
X337139Y-632937D01*
X337139Y-845472D01*
D10*
X466930Y304388D02*
G01*
X466930Y226661D01*
X408891Y168622D01*
X408891Y104995D01*
X-455879Y-130741D02*
G01*
X-511858Y-130741D01*
X-536089Y-106509D01*
D15*
X-639493Y-221140D02*
G01*
X-639493Y-338996D01*
X-876221Y-338996D01*
X-911019Y-304198D01*
X-911019Y62831D01*
D10*
X-450263Y-401988D02*
G01*
X-455089Y-397162D01*
X-513509Y-397162D01*
X-544497Y-366174D01*
X-544497Y-179230D01*
X-618919Y-104808D01*
X-618919Y-34958D01*
D21*
G01*
X52250Y1011953D03*
G01*
X52250Y846955D03*
G01*
X217248Y846955D03*
G01*
X382247Y846955D03*
G01*
X382247Y1011953D03*
G01*
X382247Y1176952D03*
G01*
X217248Y1176952D03*
G01*
X217248Y1011953D03*
D22*
G01*
X-801621Y289196D03*
G01*
X-801621Y-30792D03*
D23*
G01*
X-18900Y-38493D03*
D24*
G01*
X-18895Y-147505D03*
D25*
G01*
X208206Y-836937D03*
G01*
X335206Y-836937D03*
G01*
X462206Y-836937D03*
G01*
X589206Y-836937D03*
G01*
X589206Y-37879D03*
G01*
X462206Y-37879D03*
G01*
X335206Y-37879D03*
G01*
X208206Y-37879D03*
D26*
G01*
X-450381Y-401998D03*
G01*
X-363815Y-401998D03*
D27*
G01*
X-734387Y-471177D03*
G01*
X-829383Y-221241D03*
G01*
X-639391Y-221241D03*
D28*
G01*
X1230937Y239107D03*
G01*
X1279248Y239107D03*
G01*
X1230175Y318101D03*
G01*
X1278486Y318101D03*
G01*
X1229413Y411065D03*
G01*
X1277724Y411065D03*
G01*
X1232715Y497171D03*
G01*
X1281026Y497171D03*
D23*
G01*
X-992886Y1258166D03*
D24*
G01*
X-992883Y1367172D03*
D29*
G01*
X-195879Y-225783D03*
G01*
X-195879Y-35834D03*
G01*
X-455884Y-35831D03*
G01*
X-455884Y-130746D03*
G01*
X-455881Y-225778D03*
D30*
G01*
X-1117854Y30328D03*
D31*
G01*
X-1117851Y-56243D03*
D32*
G01*
X-86464Y99568D03*
G01*
X-195474Y99568D03*
D23*
G01*
X-618997Y-34947D03*
D24*
G01*
X-618995Y74058D03*
D33*
G01*
X-997963Y-52204D03*
G01*
X-997963Y27805D03*
D34*
G01*
X-916759Y1377104D03*
G01*
X-866772Y1377104D03*
G01*
X-816785Y1377104D03*
G01*
X-766772Y1377104D03*
G01*
X-716760Y1377104D03*
G01*
X-716785Y1847080D03*
G01*
X-766772Y1847080D03*
G01*
X-816759Y1847080D03*
G01*
X-866772Y1847080D03*
G01*
X-916785Y1847080D03*
D35*
G01*
X1248305Y1893945D03*
G01*
X1357317Y1893945D03*
D23*
G01*
X-606978Y1429870D03*
D24*
G01*
X-606981Y1320868D03*
D36*
G01*
X1602767Y129100D03*
G01*
X1652780Y129100D03*
G01*
X1702767Y129100D03*
G01*
X1752780Y129100D03*
D37*
G01*
X1827608Y204284D03*
G01*
X1827608Y254297D03*
G01*
X1827608Y304284D03*
G01*
X1827608Y354296D03*
D36*
G01*
X1752627Y429099D03*
G01*
X1702615Y429099D03*
G01*
X1652628Y429099D03*
G01*
X1602767Y429099D03*
D37*
G01*
X1527609Y354296D03*
G01*
X1527609Y304284D03*
G01*
X1527609Y254297D03*
G01*
X1527609Y204284D03*
D38*
G01*
X1677621Y279087D03*
D30*
G01*
X-578022Y1691189D03*
D31*
G01*
X-578025Y1604611D03*
D32*
G01*
X1467589Y689564D03*
G01*
X1358577Y689564D03*
D30*
G01*
X1235268Y1232548D03*
D31*
G01*
X1235280Y1319115D03*
D30*
G01*
X1352362Y1233818D03*
D31*
G01*
X1352374Y1320385D03*
D32*
G01*
X1465557Y572470D03*
G01*
X1356545Y572470D03*
D28*
G01*
X926241Y68099D03*
G01*
X974552Y68099D03*
G01*
X755843Y128399D03*
G01*
X804153Y128399D03*
D39*
G01*
X783297Y-289653D03*
D40*
G01*
X783287Y-241333D03*
D41*
G01*
X1481889Y844618D03*
G01*
X1481889Y894631D03*
G01*
X1481889Y944618D03*
G01*
X1481889Y994630D03*
G01*
X1481889Y1044618D03*
D42*
G01*
X1391871Y1084623D03*
G01*
X1341884Y1084623D03*
G01*
X1291871Y1084623D03*
D41*
G01*
X1201879Y1044618D03*
G01*
X1201879Y994630D03*
G01*
X1201879Y944618D03*
G01*
X1201879Y894631D03*
G01*
X1201879Y844618D03*
D42*
G01*
X1291871Y804638D03*
G01*
X1341884Y804638D03*
G01*
X1391871Y804638D03*
D43*
G01*
X-402993Y1704306D03*
D44*
G01*
X-298000Y1704319D03*
G01*
X-212986Y1704319D03*
G01*
X-127998Y1704319D03*
G01*
X-42984Y1704319D03*
G01*
X42003Y1704319D03*
D45*
G01*
X127005Y1704319D03*
D44*
G01*
X212006Y1704319D03*
G01*
X382008Y1704319D03*
D45*
G01*
X297007Y1704319D03*
G01*
X467009Y1704319D03*
D44*
G01*
X552010Y1704319D03*
G01*
X636998Y1704319D03*
G01*
X722012Y1704319D03*
G01*
X807001Y1704319D03*
G01*
X892014Y1704319D03*
D43*
G01*
X997003Y1704306D03*
D46*
G01*
X997003Y1599303D03*
G01*
X997003Y1514314D03*
G01*
X997003Y1429326D03*
G01*
X997003Y1344312D03*
G01*
X997003Y1259298D03*
G01*
X997003Y1174310D03*
G01*
X997003Y1089296D03*
G01*
X997003Y1004333D03*
G01*
X997003Y919319D03*
G01*
X997003Y834306D03*
G01*
X997003Y749317D03*
G01*
X997003Y664303D03*
G01*
X997003Y579315D03*
G01*
X997003Y494301D03*
G01*
X997003Y409313D03*
D43*
G01*
X997003Y304309D03*
D44*
G01*
X892014Y304322D03*
G01*
X807001Y304322D03*
G01*
X722012Y304322D03*
G01*
X636998Y304322D03*
G01*
X552010Y304322D03*
D45*
G01*
X467009Y304322D03*
D44*
G01*
X382008Y304322D03*
D45*
G01*
X297007Y304322D03*
D44*
G01*
X212006Y304322D03*
D45*
G01*
X127005Y304322D03*
D44*
G01*
X42003Y304322D03*
G01*
X-42984Y304322D03*
G01*
X-127998Y304322D03*
G01*
X-212986Y304322D03*
G01*
X-298000Y304322D03*
D43*
G01*
X-402993Y304309D03*
D46*
G01*
X-402993Y409313D03*
G01*
X-402993Y494301D03*
G01*
X-402993Y579315D03*
G01*
X-402993Y664303D03*
G01*
X-402993Y749317D03*
G01*
X-402993Y834306D03*
G01*
X-402993Y919319D03*
G01*
X-402993Y1004333D03*
G01*
X-402993Y1089296D03*
G01*
X-402993Y1174310D03*
G01*
X-402993Y1259298D03*
G01*
X-402993Y1344312D03*
G01*
X-402993Y1429326D03*
G01*
X-402993Y1599303D03*
G01*
X-402993Y1514314D03*
D10*
G01*
X1318262Y1771515D03*
G01*
X1318262Y1731535D03*
G01*
X1278282Y1771515D03*
G01*
X1278282Y1731535D03*
D30*
G01*
X1236553Y1514961D03*
D31*
G01*
X1236550Y1601538D03*
D30*
G01*
X1356441Y1514707D03*
D31*
G01*
X1356438Y1601284D03*
D35*
G01*
X-740224Y2030176D03*
G01*
X-631212Y2030176D03*
D47*
G01*
X2217473Y518965D03*
G01*
X2217473Y593971D03*
G01*
X2217473Y668952D03*
G01*
X2217473Y743958D03*
G01*
X2217473Y818964D03*
G01*
X2217473Y893970D03*
G01*
X2217473Y968951D03*
G01*
X2322476Y478960D03*
D48*
G01*
X2322476Y743958D03*
D47*
G01*
X2322476Y1008956D03*
G01*
X2427455Y518965D03*
G01*
X2427455Y593971D03*
G01*
X2427455Y668952D03*
G01*
X2427455Y743958D03*
G01*
X2427455Y818964D03*
G01*
X2427455Y893970D03*
G01*
X2427455Y968951D03*
D49*
G01*
X2065657Y709490D03*
G01*
X1815721Y614494D03*
G01*
X1815721Y804486D03*
D35*
G01*
X1177592Y129900D03*
G01*
X1286603Y129900D03*
D30*
G01*
X1661695Y816215D03*
D31*
G01*
X1661695Y902784D03*
D30*
G01*
X2067295Y492982D03*
D31*
G01*
X2067283Y406417D03*
D30*
G01*
X2004296Y1020080D03*
D31*
G01*
X2004291Y933518D03*
D30*
G01*
X1663796Y689479D03*
D31*
G01*
X1663804Y602912D03*
D23*
G01*
X1886097Y933691D03*
D24*
G01*
X1886104Y1042713D03*
D50*
G01*
X-1160447Y181907D03*
G01*
X-1560446Y181907D03*
G01*
X-1160447Y1305882D03*
G01*
X-1560446Y1305882D03*
D51*
G01*
X1562254Y1730265D03*
G01*
X1300609Y1991885D03*
G01*
X1823900Y1249697D03*
G01*
X1661695Y1582234D03*
D52*
G01*
X-520113Y1319979D03*
G01*
X1903199Y232503D03*
G01*
X-526463Y1764225D03*
G01*
X-758111Y1265115D03*
G01*
X-523669Y1429453D03*
G01*
X277954Y1440121D03*
G01*
X187784Y1391861D03*
G01*
X-299641Y1599379D03*
G01*
X-304975Y1344109D03*
G01*
X-853488Y1513502D03*
G01*
X-698700Y1690489D03*
G01*
X-631111Y1972657D03*
G01*
X-1001773Y1152136D03*
G01*
X1114808Y1399786D03*
G01*
X1486486Y1170119D03*
G01*
X1588264Y1088890D03*
G01*
X1806907Y511802D03*
G01*
X-925065Y776470D03*
G01*
X-884171Y661662D03*
G01*
X45722Y528820D03*
G01*
X113286Y470146D03*
G01*
X-910333Y433824D03*
G01*
X-907539Y1011674D03*
G01*
X-734108Y-567900D03*
G01*
X-649805Y-624288D03*
G01*
X-278991Y-363888D03*
G01*
X194693Y145204D03*
G01*
X129898Y71086D03*
G01*
X-232788Y-436506D03*
G01*
X408891Y104995D03*
G01*
X731395Y-17406D03*
G01*
X828601Y397197D03*
G01*
X263095Y-262491D03*
G01*
X-42593Y406493D03*
G01*
X1116840Y-181109D03*
G01*
X1127991Y56100D03*
G01*
X1232689Y553788D03*
G01*
X1165506Y394200D03*
G01*
X1165202Y313809D03*
G01*
X-545335Y748276D03*
G01*
X-489201Y664964D03*
G01*
X-218691Y592320D03*
G01*
X-307591Y589272D03*
G01*
X852299Y679797D03*
G01*
X779096Y455388D03*
G01*
X574296Y731512D03*
G01*
X708306Y407103D03*
G01*
X514682Y805781D03*
G01*
X823191Y754499D03*
G01*
X-318767Y832858D03*
G01*
X2308202Y543603D03*
G01*
X2321384Y943500D03*
G01*
X2153998Y746396D03*
G01*
X1082398Y751197D03*
G01*
X1075794Y837887D03*
G01*
X1080594Y923409D03*
G01*
X1084201Y1007407D03*
G01*
X1140005Y1177206D03*
G01*
X1085090Y1091100D03*
G01*
X140972Y1076952D03*
G01*
X134114Y931410D03*
G01*
X300230Y1080508D03*
G01*
X296674Y931410D03*
G01*
X1148336Y1573268D03*
G01*
X1486486Y1555488D03*
G01*
X745797Y1500598D03*
G01*
X706630Y1032756D03*
G01*
X392940Y526534D03*
G01*
X749302Y1309616D03*
G01*
X1431902Y1493385D03*
G01*
X1247726Y1391759D03*
G01*
X1157556Y1892139D03*
G01*
X1299898Y992700D03*
G01*
X874499Y1173599D03*
G01*
X2318133Y817872D03*
G01*
X2273708Y399610D03*
G01*
X1677621Y279087D03*
G01*
X1235991Y46194D03*
G01*
X-989073Y302252D03*
G01*
X-1013711Y-135389D03*
G01*
X-769109Y842510D03*
G01*
X-495297Y261612D03*
G01*
X-220799Y-128988D03*
G01*
X612Y-867011D03*
G01*
X-213890Y167098D03*
G01*
X-127505Y167403D03*
G01*
X839701Y900295D03*
G01*
X1350342Y914493D03*
G01*
X1078994Y-70619D03*
G01*
X1452628Y-267977D03*
G01*
X1012802Y191406D03*
G01*
X2321943Y742942D03*
G01*
X2323238Y667504D03*
G01*
X1346964Y1389118D03*
G01*
X1164008Y236999D03*
G01*
X1314198Y-32519D03*
G01*
X1402844Y-30233D03*
G01*
X1452882Y-181617D03*
G01*
X1543052Y-183649D03*
G01*
X1696468Y-178061D03*
G01*
X1694436Y-88653D03*
G01*
X1541274Y-280423D03*
G01*
X1425450Y-505213D03*
G01*
X1148158Y-394114D03*
G01*
X1290652Y-543974D03*
G01*
X1290652Y-244000D03*
G01*
X785700Y52189D03*
G01*
X594591Y123588D03*
G01*
X206707Y-183294D03*
G01*
X-334210Y27602D03*
D53*
G01*
X-535505Y77563D03*
G01*
X-571192Y-420301D03*
D52*
G01*
X680392Y-835210D03*
G01*
X1930783Y614494D03*
G01*
X574499Y896993D03*
G01*
X830988Y529506D03*
G01*
X834011Y1049393D03*
G01*
X580189Y551400D03*
G01*
X1659206Y991201D03*
G01*
X1644906Y508500D03*
G01*
X1807491Y21887D03*
G01*
X1711505Y14394D03*
G01*
X1587908Y16197D03*
G01*
X1492201Y16502D03*
G01*
X1410591Y48607D03*
G01*
X1322402Y47998D03*
G01*
X1806907Y1042789D03*
G01*
X1169088Y1668289D03*
D53*
G01*
X-536089Y-106509D03*
M02*
