G04 Layer: InnerLayer2*
G04 Panelize: , Column: 1, Row: 1, Board Size: 43.14mm x 33.02mm, Panelized Board Size: 43.14mm x 33.02mm*
G04 EasyEDA v6.5.42, 2024-03-19 15:40:22*
G04 eeb97d59e02942aebf3b2853903f826f,9a4ed40c0dd746429eaf55b84663d2fb,10*
G04 Gerber Generator version 0.2*
G04 Scale: 100 percent, Rotated: No, Reflected: No *
G04 Dimensions in millimeters *
G04 leading zeros omitted , absolute positions ,4 integer and 5 decimal *
%FSLAX45Y45*%
%MOMM*%

%ADD10C,0.2000*%
%ADD11C,0.1600*%
%ADD12C,0.3000*%
%ADD13O,2.1999956000000003X1.1999976*%
%ADD14C,0.8000*%
%ADD15C,0.6096*%
%ADD16C,0.6200*%
%ADD17C,0.0110*%

%LPD*%
G36*
X271780Y-965758D02*
G01*
X213258Y-963930D01*
X154889Y-960069D01*
X96672Y-954278D01*
X38709Y-946505D01*
X12344Y-942035D01*
X8686Y-940663D01*
X5842Y-938021D01*
X4165Y-934466D01*
X4013Y-930554D01*
X5283Y-926846D01*
X7924Y-923950D01*
X11430Y-922223D01*
X19913Y-919937D01*
X28803Y-915771D01*
X36830Y-910132D01*
X43789Y-903224D01*
X49428Y-895146D01*
X53593Y-886256D01*
X56134Y-876757D01*
X56946Y-867003D01*
X56134Y-857199D01*
X53593Y-847699D01*
X49428Y-838809D01*
X43789Y-830783D01*
X36830Y-823823D01*
X28803Y-818184D01*
X19913Y-814019D01*
X10414Y-811479D01*
X609Y-810666D01*
X-9144Y-811479D01*
X-18643Y-814019D01*
X-27533Y-818184D01*
X-35610Y-823823D01*
X-42519Y-830783D01*
X-48158Y-838809D01*
X-52324Y-847699D01*
X-54864Y-857199D01*
X-55727Y-867003D01*
X-54864Y-876757D01*
X-52324Y-886256D01*
X-48158Y-895146D01*
X-42519Y-903224D01*
X-35610Y-910132D01*
X-28905Y-914857D01*
X-26162Y-917702D01*
X-24739Y-921359D01*
X-24790Y-925271D01*
X-26365Y-928928D01*
X-29159Y-931671D01*
X-32816Y-933145D01*
X-36779Y-933145D01*
X-76301Y-925068D01*
X-133197Y-911402D01*
X-189636Y-895858D01*
X-245465Y-878382D01*
X-300685Y-859028D01*
X-355193Y-837844D01*
X-408990Y-814781D01*
X-461924Y-789940D01*
X-514045Y-763270D01*
X-565200Y-734872D01*
X-615340Y-704748D01*
X-630986Y-694639D01*
X-634034Y-691591D01*
X-635558Y-687578D01*
X-635254Y-683260D01*
X-633222Y-679500D01*
X-629767Y-676910D01*
X-621588Y-673100D01*
X-613562Y-667461D01*
X-606602Y-660501D01*
X-600964Y-652475D01*
X-596849Y-643534D01*
X-594309Y-634085D01*
X-593445Y-624281D01*
X-594309Y-614476D01*
X-596849Y-605028D01*
X-600964Y-596087D01*
X-606602Y-588060D01*
X-613562Y-581101D01*
X-621588Y-575462D01*
X-630529Y-571347D01*
X-639978Y-568807D01*
X-649782Y-567944D01*
X-659587Y-568807D01*
X-665530Y-570382D01*
X-669950Y-570585D01*
X-674014Y-568909D01*
X-676960Y-565658D01*
X-678281Y-561441D01*
X-678586Y-558088D01*
X-681126Y-548640D01*
X-685292Y-539699D01*
X-690930Y-531672D01*
X-697839Y-524713D01*
X-705916Y-519074D01*
X-714806Y-514959D01*
X-724306Y-512419D01*
X-734060Y-511556D01*
X-743864Y-512419D01*
X-753364Y-514959D01*
X-762254Y-519074D01*
X-770331Y-524713D01*
X-777240Y-531672D01*
X-782878Y-539699D01*
X-787044Y-548640D01*
X-789584Y-558088D01*
X-789736Y-559714D01*
X-791057Y-563930D01*
X-794054Y-567182D01*
X-798169Y-568858D01*
X-802538Y-568604D01*
X-806450Y-566521D01*
X-849274Y-529691D01*
X-892302Y-490067D01*
X-934008Y-448970D01*
X-974242Y-406501D01*
X-1013002Y-362712D01*
X-1050290Y-317601D01*
X-1086002Y-271272D01*
X-1120140Y-223774D01*
X-1152652Y-175107D01*
X-1183487Y-125374D01*
X-1212596Y-74625D01*
X-1239977Y-22961D01*
X-1265580Y29616D01*
X-1268933Y34798D01*
X-1272286Y38252D01*
X-1277366Y42062D01*
X-1283258Y44551D01*
X-1456131Y95250D01*
X-1459992Y97434D01*
X-1462633Y101041D01*
X-1463395Y105460D01*
X-1462227Y109728D01*
X-1459331Y113131D01*
X-1454200Y116992D01*
X-1445514Y125679D01*
X-1438198Y135483D01*
X-1432306Y146253D01*
X-1428038Y157734D01*
X-1425448Y169672D01*
X-1424533Y181914D01*
X-1425448Y194106D01*
X-1428038Y206095D01*
X-1432306Y217576D01*
X-1438605Y229057D01*
X-1439824Y233070D01*
X-1439316Y237185D01*
X-1437182Y240792D01*
X-1433779Y243230D01*
X-1429664Y244094D01*
X-1291183Y244094D01*
X-1287068Y243230D01*
X-1283665Y240792D01*
X-1281582Y237185D01*
X-1281074Y233070D01*
X-1282242Y229057D01*
X-1288542Y217576D01*
X-1292860Y206095D01*
X-1295450Y194106D01*
X-1296314Y181914D01*
X-1295450Y169672D01*
X-1292860Y157734D01*
X-1288542Y146253D01*
X-1282700Y135483D01*
X-1275334Y125679D01*
X-1266647Y116992D01*
X-1256842Y109677D01*
X-1246124Y103784D01*
X-1234643Y99517D01*
X-1222654Y96875D01*
X-1210056Y96012D01*
X-1110792Y96012D01*
X-1098194Y96875D01*
X-1086256Y99517D01*
X-1074775Y103784D01*
X-1064006Y109677D01*
X-1054201Y116992D01*
X-1045514Y125679D01*
X-1038199Y135483D01*
X-1032306Y146253D01*
X-1028039Y157734D01*
X-1025448Y169672D01*
X-1024534Y181914D01*
X-1025448Y194106D01*
X-1028039Y206095D01*
X-1032306Y217576D01*
X-1038199Y228346D01*
X-1045514Y238150D01*
X-1054201Y246786D01*
X-1064006Y254152D01*
X-1074775Y260045D01*
X-1086256Y264312D01*
X-1092098Y265582D01*
X-1095349Y266903D01*
X-1097991Y269341D01*
X-1099616Y272440D01*
X-1100074Y275996D01*
X-1099108Y296418D01*
X-1099108Y1185926D01*
X-1100226Y1211834D01*
X-1099769Y1215339D01*
X-1098143Y1218488D01*
X-1095502Y1220825D01*
X-1092250Y1222197D01*
X-1086256Y1223518D01*
X-1074775Y1227785D01*
X-1064006Y1233627D01*
X-1054201Y1240993D01*
X-1045514Y1249680D01*
X-1038199Y1259484D01*
X-1032306Y1270203D01*
X-1028039Y1281684D01*
X-1025448Y1293672D01*
X-1024534Y1305915D01*
X-1025448Y1318107D01*
X-1028039Y1330096D01*
X-1032306Y1341577D01*
X-1038199Y1352346D01*
X-1045514Y1362151D01*
X-1054201Y1370787D01*
X-1064006Y1378153D01*
X-1074775Y1384046D01*
X-1086256Y1388313D01*
X-1098194Y1390904D01*
X-1110792Y1391818D01*
X-1210056Y1391818D01*
X-1222654Y1390904D01*
X-1234643Y1388313D01*
X-1246124Y1384046D01*
X-1256842Y1378153D01*
X-1266647Y1370787D01*
X-1275334Y1362151D01*
X-1282700Y1352346D01*
X-1288542Y1341577D01*
X-1292860Y1330096D01*
X-1295450Y1318107D01*
X-1296314Y1305915D01*
X-1295450Y1293672D01*
X-1292860Y1281684D01*
X-1288542Y1270203D01*
X-1282700Y1259484D01*
X-1280972Y1257147D01*
X-1279144Y1253083D01*
X-1279245Y1248613D01*
X-1281226Y1244650D01*
X-1284732Y1241907D01*
X-1289100Y1240891D01*
X-1431798Y1240891D01*
X-1436116Y1241907D01*
X-1439621Y1244650D01*
X-1441653Y1248613D01*
X-1441754Y1253083D01*
X-1439926Y1257147D01*
X-1438198Y1259484D01*
X-1432306Y1270203D01*
X-1428038Y1281684D01*
X-1425448Y1293672D01*
X-1424533Y1305915D01*
X-1425448Y1318107D01*
X-1428038Y1330096D01*
X-1432306Y1341577D01*
X-1438198Y1352346D01*
X-1445514Y1362151D01*
X-1454200Y1370787D01*
X-1464005Y1378153D01*
X-1466596Y1379575D01*
X-1469593Y1382064D01*
X-1471472Y1385519D01*
X-1471828Y1389430D01*
X-1470761Y1393190D01*
X-1468272Y1396238D01*
X-1464868Y1398168D01*
X-1283716Y1456994D01*
X-1278128Y1459585D01*
X-1273302Y1463141D01*
X-1268628Y1467662D01*
X-1265428Y1472692D01*
X-1240078Y1524863D01*
X-1212951Y1576070D01*
X-1184097Y1626362D01*
X-1153566Y1675688D01*
X-1121410Y1723948D01*
X-1087678Y1771091D01*
X-1052372Y1817065D01*
X-1015492Y1861820D01*
X-977188Y1905355D01*
X-937412Y1947519D01*
X-896213Y1988362D01*
X-853694Y2027783D01*
X-809904Y2065731D01*
X-764794Y2102205D01*
X-718566Y2137156D01*
X-671118Y2170531D01*
X-622604Y2202281D01*
X-573074Y2232355D01*
X-524001Y2259939D01*
X-519988Y2261209D01*
X-515823Y2260701D01*
X-512216Y2258618D01*
X-509727Y2255164D01*
X-508863Y2251100D01*
X-508863Y1774545D01*
X-508101Y1768043D01*
X-505968Y1762506D01*
X-502462Y1757375D01*
X-499414Y1754327D01*
X-495808Y1751685D01*
X-491540Y1749755D01*
X-488391Y1747520D01*
X-486257Y1744319D01*
X-485546Y1740509D01*
X-485546Y1477721D01*
X-483666Y1475130D01*
X-482752Y1474927D01*
X216306Y1474927D01*
X220268Y1474114D01*
X223621Y1471828D01*
X225806Y1468424D01*
X226466Y1464411D01*
X222707Y1450695D01*
X220675Y1446784D01*
X217170Y1444142D01*
X212902Y1443177D01*
X208584Y1444142D01*
X207060Y1444802D01*
X197612Y1447342D01*
X187807Y1448206D01*
X178003Y1447342D01*
X168554Y1444802D01*
X159613Y1440688D01*
X151587Y1435049D01*
X144627Y1428089D01*
X138988Y1420063D01*
X134874Y1411122D01*
X132334Y1401673D01*
X131470Y1391869D01*
X132334Y1382064D01*
X134874Y1372616D01*
X138988Y1363675D01*
X144627Y1355648D01*
X151587Y1348689D01*
X159613Y1343050D01*
X168554Y1338935D01*
X178003Y1336395D01*
X187807Y1335532D01*
X197612Y1336395D01*
X207060Y1338935D01*
X216001Y1343050D01*
X219456Y1344930D01*
X222554Y1345387D01*
X688136Y1345387D01*
X692099Y1344625D01*
X695452Y1342288D01*
X697636Y1338884D01*
X698296Y1334871D01*
X697331Y1330960D01*
X696366Y1328877D01*
X693826Y1319428D01*
X692962Y1309624D01*
X693826Y1299819D01*
X696366Y1290370D01*
X700532Y1281430D01*
X706170Y1273403D01*
X713079Y1266444D01*
X721156Y1260805D01*
X730046Y1256690D01*
X739546Y1254150D01*
X749350Y1253286D01*
X759104Y1254150D01*
X768604Y1256690D01*
X777494Y1260805D01*
X785571Y1266444D01*
X792480Y1273403D01*
X798118Y1281430D01*
X802284Y1290370D01*
X804824Y1299819D01*
X805688Y1309624D01*
X804824Y1319428D01*
X802284Y1328877D01*
X801319Y1330960D01*
X800354Y1334871D01*
X801014Y1338884D01*
X803198Y1342288D01*
X806551Y1344625D01*
X810514Y1345387D01*
X973683Y1345387D01*
X981252Y1346200D01*
X987958Y1348384D01*
X994206Y1351991D01*
X998474Y1355648D01*
X1041806Y1398981D01*
X1044956Y1401114D01*
X1048664Y1401927D01*
X1052474Y1401318D01*
X1055725Y1399387D01*
X1058062Y1396339D01*
X1059129Y1392682D01*
X1059332Y1389989D01*
X1061872Y1380540D01*
X1066038Y1371600D01*
X1071676Y1363573D01*
X1078585Y1356614D01*
X1086662Y1350975D01*
X1095552Y1346860D01*
X1105052Y1344320D01*
X1114856Y1343456D01*
X1124610Y1344320D01*
X1134110Y1346860D01*
X1143000Y1350975D01*
X1151077Y1356614D01*
X1157986Y1363573D01*
X1163624Y1371600D01*
X1167790Y1380540D01*
X1170330Y1389989D01*
X1171194Y1399794D01*
X1170330Y1409598D01*
X1167790Y1419047D01*
X1163624Y1427988D01*
X1157986Y1436014D01*
X1151077Y1442974D01*
X1143000Y1448612D01*
X1137259Y1451254D01*
X1134110Y1453591D01*
X1132078Y1456893D01*
X1131417Y1460754D01*
X1132230Y1464564D01*
X1134465Y1467764D01*
X1137716Y1469898D01*
X1141577Y1470660D01*
X1174851Y1470660D01*
X1182420Y1471422D01*
X1189126Y1473606D01*
X1195374Y1477213D01*
X1199642Y1480870D01*
X1237386Y1518615D01*
X1240688Y1520799D01*
X1244549Y1521612D01*
X1436827Y1521612D01*
X1440688Y1520799D01*
X1443990Y1518615D01*
X1450289Y1512316D01*
X1458315Y1506677D01*
X1467256Y1502562D01*
X1476705Y1500022D01*
X1486509Y1499158D01*
X1496314Y1500022D01*
X1505762Y1502562D01*
X1514703Y1506677D01*
X1522730Y1512316D01*
X1529689Y1519275D01*
X1535328Y1527302D01*
X1539443Y1536242D01*
X1541983Y1545691D01*
X1542846Y1555496D01*
X1541983Y1565300D01*
X1539443Y1574749D01*
X1535328Y1583690D01*
X1529689Y1591716D01*
X1522730Y1598676D01*
X1514703Y1604314D01*
X1505762Y1608429D01*
X1496314Y1610969D01*
X1486509Y1611833D01*
X1476705Y1610969D01*
X1467256Y1608429D01*
X1458315Y1604314D01*
X1450289Y1598676D01*
X1443990Y1592376D01*
X1440688Y1590192D01*
X1436827Y1589379D01*
X1226870Y1589379D01*
X1219301Y1588617D01*
X1213815Y1586839D01*
X1210208Y1586331D01*
X1206652Y1587195D01*
X1203604Y1589227D01*
X1201470Y1592224D01*
X1197152Y1601470D01*
X1194562Y1605178D01*
X1192936Y1608785D01*
X1192885Y1612747D01*
X1194308Y1616456D01*
X1197051Y1619351D01*
X1205331Y1625142D01*
X1212291Y1632051D01*
X1217930Y1640128D01*
X1222044Y1649018D01*
X1224584Y1658518D01*
X1225448Y1668272D01*
X1224584Y1678076D01*
X1222044Y1687575D01*
X1217930Y1696466D01*
X1212291Y1704543D01*
X1205331Y1711452D01*
X1197305Y1717090D01*
X1188364Y1721256D01*
X1178915Y1723796D01*
X1169111Y1724660D01*
X1159306Y1723796D01*
X1149858Y1721256D01*
X1140917Y1717090D01*
X1132890Y1711452D01*
X1126591Y1705152D01*
X1123289Y1702968D01*
X1119378Y1702206D01*
X1110843Y1702206D01*
X1106982Y1702968D01*
X1103680Y1705152D01*
X1101445Y1708454D01*
X1100683Y1712366D01*
X1100683Y1762048D01*
X1101750Y1766620D01*
X1102918Y1774088D01*
X1102918Y2251100D01*
X1103782Y2255215D01*
X1106271Y2258618D01*
X1109878Y2260752D01*
X1114094Y2261209D01*
X1118108Y2259939D01*
X1169314Y2231085D01*
X1219047Y2200757D01*
X1267714Y2168804D01*
X1315262Y2135225D01*
X1361694Y2100021D01*
X1406855Y2063292D01*
X1423314Y2048967D01*
X1425752Y2045817D01*
X1426768Y2041906D01*
X1426210Y2037943D01*
X1424178Y2034489D01*
X1383944Y1989836D01*
X1380845Y1987499D01*
X1377086Y1986483D01*
X1373225Y1986991D01*
X1369822Y1988870D01*
X1367383Y1991918D01*
X1366266Y1995627D01*
X1365453Y2003755D01*
X1362710Y2014016D01*
X1358341Y2023668D01*
X1352499Y2032507D01*
X1345336Y2040331D01*
X1336954Y2046884D01*
X1327708Y2051964D01*
X1317701Y2055520D01*
X1307287Y2057450D01*
X1296670Y2057654D01*
X1286154Y2056180D01*
X1276045Y2053031D01*
X1266545Y2048256D01*
X1257960Y2042058D01*
X1250492Y2034590D01*
X1244295Y2026005D01*
X1239520Y2016506D01*
X1236370Y2006396D01*
X1234897Y1995881D01*
X1235100Y1985264D01*
X1237030Y1974850D01*
X1240586Y1964893D01*
X1245717Y1955596D01*
X1252220Y1947214D01*
X1260043Y1940052D01*
X1268882Y1934210D01*
X1278534Y1929841D01*
X1288796Y1927098D01*
X1299311Y1926031D01*
X1309928Y1926691D01*
X1320241Y1929028D01*
X1330096Y1932990D01*
X1339138Y1938477D01*
X1347216Y1945335D01*
X1354124Y1953412D01*
X1359204Y1961845D01*
X1362151Y1964994D01*
X1366164Y1966620D01*
X1370482Y1966417D01*
X1374292Y1964486D01*
X1376984Y1961134D01*
X1379728Y1955647D01*
X1383944Y1950669D01*
X1419199Y1917954D01*
X1453540Y1884172D01*
X1486814Y1849323D01*
X1519072Y1813610D01*
X1523746Y1809496D01*
X1526184Y1808073D01*
X1530146Y1806448D01*
X1533347Y1804314D01*
X1535582Y1801164D01*
X1536446Y1797405D01*
X1535836Y1793595D01*
X1533855Y1790293D01*
X1530807Y1787956D01*
X1528216Y1786636D01*
X1519580Y1780438D01*
X1512112Y1772970D01*
X1505915Y1764334D01*
X1501190Y1754886D01*
X1497990Y1744725D01*
X1496517Y1734261D01*
X1496720Y1723643D01*
X1498650Y1713230D01*
X1502206Y1703222D01*
X1507337Y1693976D01*
X1513840Y1685594D01*
X1521663Y1678432D01*
X1530502Y1672589D01*
X1540154Y1668221D01*
X1550416Y1665478D01*
X1560931Y1664411D01*
X1571548Y1665071D01*
X1581861Y1667408D01*
X1591716Y1671320D01*
X1600809Y1676806D01*
X1608836Y1683715D01*
X1615744Y1691792D01*
X1621231Y1700834D01*
X1625193Y1710689D01*
X1627479Y1721002D01*
X1628139Y1731619D01*
X1627073Y1742135D01*
X1624330Y1752396D01*
X1619961Y1762048D01*
X1614119Y1770888D01*
X1606956Y1778711D01*
X1598625Y1785213D01*
X1589328Y1790344D01*
X1579321Y1793900D01*
X1568907Y1795830D01*
X1565808Y1795881D01*
X1561896Y1796745D01*
X1558594Y1799082D01*
X1556461Y1802536D01*
X1555851Y1806498D01*
X1556867Y1810410D01*
X1559255Y1813661D01*
X1603349Y1852726D01*
X1606804Y1854758D01*
X1610817Y1855266D01*
X1614678Y1854200D01*
X1617827Y1851710D01*
X1629664Y1837791D01*
X1663598Y1795018D01*
X1696212Y1751228D01*
X1727403Y1706422D01*
X1757172Y1660652D01*
X1785467Y1613966D01*
X1794256Y1598422D01*
X1795475Y1594561D01*
X1795119Y1590548D01*
X1793239Y1586992D01*
X1790141Y1584452D01*
X1740865Y1558239D01*
X1737156Y1557070D01*
X1733346Y1557426D01*
X1729892Y1559153D01*
X1727352Y1562049D01*
X1726031Y1565656D01*
X1726184Y1569516D01*
X1726895Y1572412D01*
X1727606Y1582978D01*
X1726641Y1593545D01*
X1723999Y1603806D01*
X1719732Y1613509D01*
X1713992Y1622399D01*
X1706880Y1630273D01*
X1698599Y1636877D01*
X1689354Y1642110D01*
X1679397Y1645716D01*
X1668983Y1647748D01*
X1658366Y1648053D01*
X1647850Y1646682D01*
X1637741Y1643634D01*
X1628190Y1638960D01*
X1619554Y1632864D01*
X1611985Y1625447D01*
X1605686Y1616862D01*
X1600860Y1607464D01*
X1597609Y1597355D01*
X1596034Y1586890D01*
X1596136Y1576273D01*
X1597964Y1565808D01*
X1601419Y1555800D01*
X1606448Y1546453D01*
X1612900Y1538071D01*
X1620621Y1530807D01*
X1629410Y1524863D01*
X1639062Y1520444D01*
X1649272Y1517599D01*
X1659788Y1516430D01*
X1670405Y1516989D01*
X1680768Y1519174D01*
X1690624Y1523085D01*
X1699768Y1528470D01*
X1705152Y1532991D01*
X1708759Y1534922D01*
X1712823Y1535277D01*
X1716735Y1534007D01*
X1719783Y1531264D01*
X1721561Y1527556D01*
X1722831Y1522171D01*
X1724304Y1518869D01*
X1746707Y1476044D01*
X1767789Y1432712D01*
X1787601Y1388770D01*
X1805939Y1344625D01*
X1809140Y1338935D01*
X1813458Y1334363D01*
X1815998Y1332484D01*
X1818639Y1329486D01*
X1819960Y1325727D01*
X1819706Y1321765D01*
X1817979Y1318209D01*
X1814982Y1315567D01*
X1799945Y1311046D01*
X1790395Y1306423D01*
X1781708Y1300276D01*
X1774189Y1292860D01*
X1767890Y1284325D01*
X1763064Y1274876D01*
X1759813Y1264818D01*
X1758238Y1254302D01*
X1758340Y1243736D01*
X1760169Y1233271D01*
X1763623Y1223264D01*
X1768652Y1213916D01*
X1775104Y1205534D01*
X1782825Y1198270D01*
X1791614Y1192326D01*
X1801266Y1187856D01*
X1811477Y1185062D01*
X1821992Y1183894D01*
X1832559Y1184402D01*
X1842922Y1186637D01*
X1852828Y1190498D01*
X1861921Y1195933D01*
X1870100Y1202690D01*
X1877009Y1210716D01*
X1882597Y1219758D01*
X1886661Y1229512D01*
X1889048Y1239875D01*
X1889810Y1250442D01*
X1888845Y1261008D01*
X1886204Y1271270D01*
X1881936Y1280972D01*
X1876196Y1289862D01*
X1869084Y1297736D01*
X1860753Y1304340D01*
X1851558Y1309522D01*
X1845157Y1311859D01*
X1841703Y1313992D01*
X1839366Y1317294D01*
X1838502Y1321206D01*
X1839214Y1325219D01*
X1841449Y1328572D01*
X1844802Y1330807D01*
X1898599Y1352956D01*
X1902561Y1353718D01*
X1906524Y1352854D01*
X1909825Y1350568D01*
X1911959Y1347165D01*
X1916938Y1334160D01*
X1933498Y1286560D01*
X1948637Y1238453D01*
X1961083Y1194612D01*
X1961794Y1189939D01*
X1963166Y1185773D01*
X1966214Y1180693D01*
X1972259Y1174953D01*
X1977389Y1172057D01*
X1983689Y1170330D01*
X2512466Y1091946D01*
X2515870Y1090777D01*
X2518664Y1088542D01*
X2520492Y1085443D01*
X2521102Y1081887D01*
X2521102Y406806D01*
X2520442Y403199D01*
X2518562Y400050D01*
X2515717Y397814D01*
X2512212Y396697D01*
X2339797Y375208D01*
X2335834Y375513D01*
X2332329Y377240D01*
X2329738Y380238D01*
X2328468Y383997D01*
X2328722Y387908D01*
X2329230Y389839D01*
X2330094Y399592D01*
X2329230Y409397D01*
X2326690Y418896D01*
X2322525Y427786D01*
X2316886Y435864D01*
X2309977Y442772D01*
X2301900Y448411D01*
X2293010Y452577D01*
X2283510Y455117D01*
X2273757Y455980D01*
X2263952Y455117D01*
X2254453Y452577D01*
X2245563Y448411D01*
X2237486Y442772D01*
X2230577Y435864D01*
X2224938Y427786D01*
X2220772Y418896D01*
X2218232Y409397D01*
X2217369Y399592D01*
X2218232Y389839D01*
X2220772Y380339D01*
X2223668Y374142D01*
X2224633Y370433D01*
X2224125Y366674D01*
X2222296Y363321D01*
X2219350Y360934D01*
X2215743Y359765D01*
X1984400Y330911D01*
X1978304Y329387D01*
X1973122Y326593D01*
X1968398Y322580D01*
X1964791Y317804D01*
X1962404Y312013D01*
X1946198Y255473D01*
X1928164Y199796D01*
X1908302Y144780D01*
X1886559Y90474D01*
X1871268Y55626D01*
X1868728Y52171D01*
X1865020Y50088D01*
X1860804Y49631D01*
X1856739Y51003D01*
X1853641Y53898D01*
X1850694Y58115D01*
X1844395Y64414D01*
X1842211Y67716D01*
X1841398Y71577D01*
X1841398Y173888D01*
X1840636Y181457D01*
X1838452Y188163D01*
X1834845Y194411D01*
X1831187Y198678D01*
X1814118Y215747D01*
X1808225Y220522D01*
X1801926Y223723D01*
X1794967Y225602D01*
X1789379Y226009D01*
X1728470Y226009D01*
X1724202Y226974D01*
X1720697Y229666D01*
X1718665Y233578D01*
X1718513Y237998D01*
X1720189Y242062D01*
X1726438Y250952D01*
X1730603Y259842D01*
X1733143Y269290D01*
X1734007Y279095D01*
X1733143Y288899D01*
X1730603Y298348D01*
X1726438Y307289D01*
X1720799Y315315D01*
X1713890Y322275D01*
X1705813Y327914D01*
X1696923Y332028D01*
X1687423Y334568D01*
X1677670Y335432D01*
X1667865Y334568D01*
X1658366Y332028D01*
X1649475Y327914D01*
X1641398Y322275D01*
X1634489Y315315D01*
X1628851Y307289D01*
X1624685Y298348D01*
X1622145Y288899D01*
X1621282Y279095D01*
X1622145Y269290D01*
X1624685Y259842D01*
X1628851Y250952D01*
X1635099Y242062D01*
X1636776Y237998D01*
X1636623Y233578D01*
X1634591Y229666D01*
X1631086Y226974D01*
X1626819Y226009D01*
X1604822Y226009D01*
X1600962Y226821D01*
X1597660Y229006D01*
X1592986Y233679D01*
X1590802Y236982D01*
X1589989Y240842D01*
X1589989Y459536D01*
X1590802Y463397D01*
X1592986Y466699D01*
X1596288Y468884D01*
X1600149Y469696D01*
X1604060Y468884D01*
X1607362Y466699D01*
X1608683Y465328D01*
X1616760Y459689D01*
X1625650Y455574D01*
X1635150Y453034D01*
X1644954Y452170D01*
X1654708Y453034D01*
X1664207Y455574D01*
X1673098Y459689D01*
X1681175Y465328D01*
X1688084Y472287D01*
X1693722Y480314D01*
X1697888Y489254D01*
X1700428Y498703D01*
X1701292Y508508D01*
X1700428Y518312D01*
X1697888Y527761D01*
X1693722Y536702D01*
X1688084Y544728D01*
X1681175Y551688D01*
X1673098Y557326D01*
X1664207Y561441D01*
X1654708Y563981D01*
X1644954Y564845D01*
X1635150Y563981D01*
X1625650Y561441D01*
X1616760Y557326D01*
X1608683Y551688D01*
X1607362Y550316D01*
X1604060Y548132D01*
X1600149Y547319D01*
X1596288Y548132D01*
X1592986Y550316D01*
X1590802Y553618D01*
X1589989Y557479D01*
X1589989Y575411D01*
X1589227Y582980D01*
X1587042Y589686D01*
X1583436Y595934D01*
X1579778Y600202D01*
X1280312Y899668D01*
X1278128Y902969D01*
X1277315Y906830D01*
X1277315Y927404D01*
X1278026Y931062D01*
X1279956Y934212D01*
X1282903Y936447D01*
X1286459Y937514D01*
X1299921Y936345D01*
X1309725Y937209D01*
X1319174Y939749D01*
X1328115Y943914D01*
X1336141Y949553D01*
X1343101Y956462D01*
X1348740Y964539D01*
X1352854Y973429D01*
X1356512Y987094D01*
X1358798Y990092D01*
X1362100Y992073D01*
X1365859Y992682D01*
X1369618Y991819D01*
X1372768Y989685D01*
X1394866Y967587D01*
X1400759Y962812D01*
X1407058Y959612D01*
X1414018Y957732D01*
X1419606Y957326D01*
X1609547Y957326D01*
X1613408Y956513D01*
X1616710Y954328D01*
X1623009Y948029D01*
X1631035Y942390D01*
X1639976Y938276D01*
X1649425Y935736D01*
X1659229Y934872D01*
X1669034Y935736D01*
X1678482Y938276D01*
X1687423Y942390D01*
X1695450Y948029D01*
X1702409Y954989D01*
X1708048Y963015D01*
X1712163Y971956D01*
X1714703Y981405D01*
X1715566Y991209D01*
X1714703Y1001014D01*
X1712163Y1010462D01*
X1708048Y1019403D01*
X1702409Y1027430D01*
X1695450Y1034389D01*
X1687423Y1040028D01*
X1678482Y1044143D01*
X1669034Y1046683D01*
X1659229Y1047546D01*
X1645107Y1046276D01*
X1641449Y1047445D01*
X1638503Y1049832D01*
X1636623Y1053185D01*
X1636115Y1056944D01*
X1637080Y1060653D01*
X1641246Y1069644D01*
X1643786Y1079093D01*
X1644650Y1088898D01*
X1643786Y1098702D01*
X1641246Y1108151D01*
X1637080Y1117092D01*
X1631442Y1125118D01*
X1624533Y1132078D01*
X1616456Y1137716D01*
X1607566Y1141831D01*
X1598066Y1144371D01*
X1588312Y1145235D01*
X1578508Y1144371D01*
X1569008Y1141831D01*
X1560118Y1137716D01*
X1551381Y1131620D01*
X1547317Y1129893D01*
X1542948Y1130096D01*
X1539036Y1132128D01*
X1536344Y1135634D01*
X1535430Y1139901D01*
X1536344Y1144219D01*
X1539443Y1150874D01*
X1541983Y1160322D01*
X1542846Y1170127D01*
X1541983Y1179931D01*
X1539443Y1189380D01*
X1535328Y1198321D01*
X1529689Y1206347D01*
X1522730Y1213307D01*
X1514703Y1218946D01*
X1505762Y1223060D01*
X1496314Y1225600D01*
X1486509Y1226464D01*
X1476705Y1225600D01*
X1467256Y1223060D01*
X1458315Y1218946D01*
X1450289Y1213307D01*
X1443329Y1206347D01*
X1437690Y1198321D01*
X1433576Y1189380D01*
X1431036Y1179931D01*
X1430172Y1170127D01*
X1431036Y1160322D01*
X1433576Y1150874D01*
X1437690Y1141933D01*
X1443329Y1133906D01*
X1450289Y1126947D01*
X1458315Y1121308D01*
X1467256Y1117193D01*
X1476705Y1114653D01*
X1486509Y1113790D01*
X1496314Y1114653D01*
X1505762Y1117193D01*
X1514703Y1121308D01*
X1523390Y1127404D01*
X1527454Y1129131D01*
X1531874Y1128928D01*
X1535734Y1126896D01*
X1538427Y1123391D01*
X1539392Y1119124D01*
X1538427Y1114806D01*
X1535328Y1108151D01*
X1532788Y1098702D01*
X1531924Y1088898D01*
X1532788Y1079093D01*
X1535328Y1069644D01*
X1539494Y1060704D01*
X1545132Y1052677D01*
X1552041Y1045718D01*
X1555089Y1043584D01*
X1557985Y1040485D01*
X1559356Y1036472D01*
X1558950Y1032205D01*
X1556867Y1028547D01*
X1553464Y1026007D01*
X1549298Y1025093D01*
X1437436Y1025093D01*
X1433576Y1025906D01*
X1430274Y1028090D01*
X1191056Y1267307D01*
X1185164Y1272082D01*
X1178864Y1275283D01*
X1171905Y1277162D01*
X1166317Y1277569D01*
X1020927Y1277569D01*
X1013358Y1276807D01*
X1006652Y1274622D01*
X1000404Y1271016D01*
X996137Y1267358D01*
X930503Y1201724D01*
X925728Y1195832D01*
X922528Y1189532D01*
X920648Y1182573D01*
X920242Y1176985D01*
X920242Y974394D01*
X919429Y970534D01*
X917244Y967232D01*
X891895Y941882D01*
X888593Y939698D01*
X884732Y938885D01*
X880821Y939698D01*
X877519Y941882D01*
X875944Y943457D01*
X867918Y949096D01*
X858977Y953262D01*
X849528Y955802D01*
X839724Y956665D01*
X829919Y955802D01*
X823315Y954024D01*
X818896Y953820D01*
X814832Y955497D01*
X811885Y958748D01*
X810564Y962964D01*
X811123Y967282D01*
X813460Y970991D01*
X833069Y990600D01*
X835914Y992581D01*
X839368Y993495D01*
X843838Y993902D01*
X853287Y996442D01*
X862228Y1000607D01*
X870254Y1006246D01*
X877214Y1013155D01*
X882853Y1021232D01*
X886968Y1030122D01*
X889508Y1039621D01*
X890371Y1049375D01*
X889508Y1059180D01*
X886968Y1068679D01*
X882853Y1077569D01*
X877214Y1085646D01*
X870254Y1092555D01*
X862228Y1098194D01*
X853287Y1102360D01*
X843838Y1104900D01*
X834034Y1105763D01*
X824230Y1104900D01*
X814781Y1102360D01*
X805840Y1098194D01*
X797814Y1092555D01*
X790854Y1085646D01*
X785215Y1077569D01*
X781100Y1068679D01*
X778560Y1059180D01*
X778306Y1056741D01*
X776986Y1052525D01*
X774039Y1049324D01*
X769975Y1047648D01*
X765556Y1047800D01*
X761695Y1049832D01*
X759002Y1053338D01*
X755446Y1060958D01*
X749808Y1068984D01*
X742899Y1075944D01*
X734822Y1081582D01*
X725932Y1085697D01*
X716432Y1088237D01*
X706678Y1089101D01*
X696874Y1088237D01*
X687374Y1085697D01*
X678484Y1081582D01*
X670407Y1075944D01*
X663498Y1068984D01*
X657860Y1060958D01*
X653694Y1052017D01*
X651154Y1042568D01*
X650290Y1032764D01*
X651154Y1022959D01*
X653694Y1013510D01*
X657860Y1004569D01*
X663498Y996543D01*
X670407Y989584D01*
X678484Y983945D01*
X690880Y978204D01*
X693420Y975614D01*
X694842Y972261D01*
X695045Y968603D01*
X693928Y965149D01*
X691083Y959866D01*
X688746Y952195D01*
X687933Y943711D01*
X687933Y632206D01*
X688746Y623722D01*
X691083Y616051D01*
X694842Y608990D01*
X700278Y602437D01*
X772210Y530504D01*
X774192Y527608D01*
X775106Y524205D01*
X775411Y521208D01*
X775106Y517702D01*
X773582Y514502D01*
X771093Y512013D01*
X767892Y510489D01*
X759866Y508355D01*
X750925Y504190D01*
X746760Y501853D01*
X743712Y501345D01*
X575614Y501345D01*
X571754Y502158D01*
X568452Y504342D01*
X545795Y526999D01*
X543610Y530250D01*
X542798Y534060D01*
X541375Y655472D01*
X542137Y659434D01*
X544372Y662736D01*
X554939Y673354D01*
X557733Y675335D01*
X561086Y676249D01*
X574344Y675182D01*
X584098Y676046D01*
X593598Y678586D01*
X602488Y682701D01*
X610565Y688340D01*
X617474Y695299D01*
X623112Y703326D01*
X627278Y712266D01*
X629818Y721715D01*
X630682Y731520D01*
X629818Y741324D01*
X627278Y750773D01*
X623112Y759714D01*
X617474Y767740D01*
X610565Y774700D01*
X602488Y780338D01*
X593598Y784453D01*
X584098Y786993D01*
X579628Y787400D01*
X575818Y788517D01*
X572770Y791006D01*
X570839Y794461D01*
X570433Y798423D01*
X571042Y805789D01*
X570179Y815594D01*
X567639Y825042D01*
X563524Y833983D01*
X557885Y842010D01*
X550926Y848969D01*
X542899Y854608D01*
X533958Y858723D01*
X524510Y861263D01*
X514705Y862126D01*
X504901Y861263D01*
X495452Y858723D01*
X486511Y854608D01*
X478485Y848969D01*
X471525Y842010D01*
X465886Y833983D01*
X461772Y825042D01*
X459232Y815594D01*
X458368Y805789D01*
X458927Y799490D01*
X458317Y795121D01*
X455980Y791413D01*
X445820Y781304D01*
X441045Y775360D01*
X437794Y769061D01*
X435965Y762101D01*
X435508Y756310D01*
X436626Y584098D01*
X435813Y580085D01*
X433527Y576732D01*
X430072Y574548D01*
X426059Y573887D01*
X422097Y574852D01*
X412242Y579475D01*
X402742Y582015D01*
X392988Y582879D01*
X383184Y582015D01*
X373684Y579475D01*
X364794Y575360D01*
X356717Y569722D01*
X349808Y562762D01*
X344170Y554736D01*
X340004Y545795D01*
X337464Y536346D01*
X336600Y526542D01*
X337464Y516737D01*
X340004Y507288D01*
X344170Y498348D01*
X349808Y490321D01*
X356717Y483362D01*
X364794Y477723D01*
X373684Y473608D01*
X383184Y471068D01*
X392988Y470204D01*
X402742Y471068D01*
X412242Y473608D01*
X421335Y477875D01*
X425399Y479551D01*
X429768Y479399D01*
X433679Y477367D01*
X436372Y473913D01*
X437337Y469646D01*
X437337Y465226D01*
X438200Y457657D01*
X440435Y450951D01*
X444093Y444703D01*
X447548Y440690D01*
X504748Y383489D01*
X510641Y378714D01*
X516940Y375513D01*
X523900Y373634D01*
X529488Y373227D01*
X658622Y373227D01*
X662533Y372414D01*
X665835Y370230D01*
X672084Y363931D01*
X680161Y358292D01*
X684682Y355396D01*
X686765Y352044D01*
X687374Y348183D01*
X686562Y344373D01*
X684326Y341172D01*
X681075Y339039D01*
X677214Y338277D01*
X135432Y338277D01*
X131572Y339090D01*
X128270Y341274D01*
X97586Y371957D01*
X91694Y376732D01*
X85394Y379933D01*
X78435Y381812D01*
X72847Y382219D01*
X22301Y382219D01*
X18643Y382930D01*
X15494Y384860D01*
X13208Y387807D01*
X12192Y391363D01*
X12903Y396697D01*
X13766Y406501D01*
X12903Y416306D01*
X10363Y425754D01*
X6248Y434695D01*
X609Y442722D01*
X-6350Y449681D01*
X-14376Y455320D01*
X-23317Y459435D01*
X-32766Y461975D01*
X-42570Y462838D01*
X-52374Y461975D01*
X-61823Y459435D01*
X-70764Y455320D01*
X-78790Y449681D01*
X-85750Y442722D01*
X-91389Y434695D01*
X-95504Y425754D01*
X-98044Y416306D01*
X-98907Y406501D01*
X-98044Y396697D01*
X-97332Y391363D01*
X-98348Y387807D01*
X-100634Y384860D01*
X-103784Y382930D01*
X-107442Y382219D01*
X-133299Y382219D01*
X-137160Y383032D01*
X-140462Y385216D01*
X-181711Y426466D01*
X-183896Y429768D01*
X-184708Y433628D01*
X-184708Y542696D01*
X-183896Y546608D01*
X-181711Y549910D01*
X-175514Y556107D01*
X-169875Y564134D01*
X-165709Y573074D01*
X-163169Y582523D01*
X-162306Y592328D01*
X-163169Y602132D01*
X-165709Y611581D01*
X-169875Y620522D01*
X-175514Y628548D01*
X-182422Y635508D01*
X-190500Y641146D01*
X-199390Y645261D01*
X-208889Y647801D01*
X-218694Y648665D01*
X-228447Y647801D01*
X-237947Y645261D01*
X-246837Y641146D01*
X-255066Y635355D01*
X-257962Y632764D01*
X-260807Y630885D01*
X-264160Y630123D01*
X-267512Y630478D01*
X-270611Y631952D01*
X-279400Y638098D01*
X-288290Y642213D01*
X-297789Y644753D01*
X-307594Y645617D01*
X-317347Y644753D01*
X-326847Y642213D01*
X-335737Y638098D01*
X-343814Y632460D01*
X-350723Y625500D01*
X-356362Y617474D01*
X-360527Y608533D01*
X-363067Y599084D01*
X-363931Y589280D01*
X-363067Y579475D01*
X-360527Y570026D01*
X-356362Y561086D01*
X-350723Y553059D01*
X-344373Y546709D01*
X-342188Y543407D01*
X-341376Y539496D01*
X-341376Y434035D01*
X-342188Y430123D01*
X-344373Y426872D01*
X-347675Y424637D01*
X-351586Y423875D01*
X-355447Y424637D01*
X-358749Y426872D01*
X-452221Y520446D01*
X-454406Y523748D01*
X-455218Y527608D01*
X-455218Y615340D01*
X-454406Y619252D01*
X-452221Y622554D01*
X-446024Y628751D01*
X-440385Y636778D01*
X-436219Y645718D01*
X-433679Y655167D01*
X-432816Y664972D01*
X-433679Y674776D01*
X-436219Y684225D01*
X-440385Y693166D01*
X-446024Y701192D01*
X-452932Y708152D01*
X-461009Y713790D01*
X-469900Y717905D01*
X-479399Y720445D01*
X-482244Y720699D01*
X-486409Y722020D01*
X-489661Y725017D01*
X-491337Y729081D01*
X-491185Y733450D01*
X-489813Y738479D01*
X-488950Y748284D01*
X-489813Y758088D01*
X-492353Y767537D01*
X-496519Y776478D01*
X-502158Y784504D01*
X-509066Y791464D01*
X-517143Y797102D01*
X-526034Y801217D01*
X-535533Y803757D01*
X-545287Y804621D01*
X-555091Y803757D01*
X-564286Y801319D01*
X-567944Y801014D01*
X-571500Y802081D01*
X-574446Y804316D01*
X-576376Y807466D01*
X-577088Y811123D01*
X-577088Y1093368D01*
X-577799Y1099667D01*
X-579678Y1105154D01*
X-582777Y1110030D01*
X-586841Y1114145D01*
X-591769Y1117193D01*
X-597357Y1119174D01*
X-603148Y1119835D01*
X-702411Y1119835D01*
X-708710Y1119124D01*
X-714197Y1117193D01*
X-719074Y1114145D01*
X-723188Y1110030D01*
X-726236Y1105154D01*
X-728218Y1099515D01*
X-728878Y1093774D01*
X-728878Y901649D01*
X-729691Y897686D01*
X-731977Y894334D01*
X-735380Y892149D01*
X-739394Y891489D01*
X-743356Y892454D01*
X-749808Y895451D01*
X-759307Y897991D01*
X-769061Y898855D01*
X-778865Y897991D01*
X-788365Y895451D01*
X-797255Y891336D01*
X-805332Y885698D01*
X-812241Y878738D01*
X-817880Y870712D01*
X-822045Y861771D01*
X-824585Y852322D01*
X-825449Y842518D01*
X-824585Y832713D01*
X-822045Y823264D01*
X-817880Y814324D01*
X-812241Y806297D01*
X-805332Y799338D01*
X-797255Y793699D01*
X-788365Y789584D01*
X-778865Y787044D01*
X-769061Y786180D01*
X-759307Y787044D01*
X-749808Y789584D01*
X-743356Y792581D01*
X-739394Y793546D01*
X-735380Y792886D01*
X-731977Y790702D01*
X-729691Y787349D01*
X-728878Y783386D01*
X-728878Y394512D01*
X-728167Y388162D01*
X-726236Y382727D01*
X-723188Y377799D01*
X-719074Y373735D01*
X-714197Y370636D01*
X-708710Y368757D01*
X-702411Y367995D01*
X-603554Y367995D01*
X-597204Y368757D01*
X-591769Y370636D01*
X-586841Y373735D01*
X-580237Y380593D01*
X-577037Y382270D01*
X-573430Y382676D01*
X-569874Y381762D01*
X-566928Y379730D01*
X-516077Y328879D01*
X-513943Y325678D01*
X-513130Y321868D01*
X-513791Y318058D01*
X-515823Y314756D01*
X-518972Y312521D01*
X-523443Y310438D01*
X-531520Y304800D01*
X-538429Y297840D01*
X-544068Y289814D01*
X-548233Y280873D01*
X-550773Y271424D01*
X-551637Y261620D01*
X-550773Y251815D01*
X-548233Y242366D01*
X-544068Y233425D01*
X-538429Y225399D01*
X-531520Y218440D01*
X-523443Y212801D01*
X-514553Y208686D01*
X-505053Y206146D01*
X-495249Y205282D01*
X-485495Y206146D01*
X-475996Y208686D01*
X-467106Y212801D01*
X-459028Y218440D01*
X-452120Y225399D01*
X-446481Y233425D01*
X-444398Y237896D01*
X-442112Y241046D01*
X-438810Y243128D01*
X-435000Y243789D01*
X-431190Y242976D01*
X-427990Y240792D01*
X-404977Y217779D01*
X-399084Y213004D01*
X-392785Y209804D01*
X-385826Y207924D01*
X-380238Y207517D01*
X-186690Y207517D01*
X-182727Y206705D01*
X-179374Y204368D01*
X-177190Y200964D01*
X-176530Y197002D01*
X-177444Y193040D01*
X-180441Y186690D01*
X-182981Y177190D01*
X-183845Y167386D01*
X-182981Y157632D01*
X-180441Y148132D01*
X-176276Y139242D01*
X-170637Y131165D01*
X-163728Y124256D01*
X-155651Y118618D01*
X-146761Y114452D01*
X-137261Y111912D01*
X-127508Y111048D01*
X-117703Y111912D01*
X-108204Y114452D01*
X-99314Y118618D01*
X-91236Y124256D01*
X-84328Y131165D01*
X-78689Y139242D01*
X-74523Y148132D01*
X-71983Y157632D01*
X-71120Y167386D01*
X-71983Y177190D01*
X-74523Y186690D01*
X-77520Y193040D01*
X-78435Y197002D01*
X-77774Y200964D01*
X-75590Y204368D01*
X-72237Y206705D01*
X-68275Y207517D01*
X-14782Y207517D01*
X-10922Y206705D01*
X-7620Y204520D01*
X21539Y175564D01*
X27482Y170789D01*
X33782Y167589D01*
X45110Y164693D01*
X48158Y162356D01*
X50190Y159105D01*
X50800Y155295D01*
X49987Y151536D01*
X47802Y148386D01*
X38862Y139395D01*
X33782Y133146D01*
X30378Y126492D01*
X28397Y119126D01*
X27940Y113233D01*
X27940Y58572D01*
X27178Y54660D01*
X24993Y51358D01*
X-148691Y-122275D01*
X-152247Y-124561D01*
X-156413Y-125222D01*
X-160477Y-124155D01*
X-163779Y-121513D01*
X-165658Y-117703D01*
X-167843Y-109728D01*
X-171958Y-100787D01*
X-177596Y-92760D01*
X-184556Y-85801D01*
X-192582Y-80162D01*
X-201523Y-76047D01*
X-210972Y-73507D01*
X-220776Y-72644D01*
X-230581Y-73507D01*
X-240029Y-76047D01*
X-248970Y-80162D01*
X-256997Y-85801D01*
X-263956Y-92760D01*
X-269595Y-100787D01*
X-273710Y-109728D01*
X-276250Y-119176D01*
X-277114Y-128981D01*
X-276250Y-138785D01*
X-273710Y-148234D01*
X-269595Y-157175D01*
X-263956Y-165201D01*
X-256997Y-172161D01*
X-248970Y-177800D01*
X-240029Y-181914D01*
X-232054Y-184099D01*
X-228244Y-185978D01*
X-225602Y-189280D01*
X-224536Y-193344D01*
X-225196Y-197510D01*
X-227482Y-201066D01*
X-304038Y-277672D01*
X-309118Y-283921D01*
X-312521Y-290576D01*
X-314502Y-297942D01*
X-314960Y-303834D01*
X-314960Y-316280D01*
X-315722Y-320141D01*
X-317906Y-323443D01*
X-322122Y-327660D01*
X-327761Y-335686D01*
X-331927Y-344627D01*
X-334467Y-354076D01*
X-335330Y-363880D01*
X-334467Y-373684D01*
X-331927Y-383133D01*
X-327761Y-392074D01*
X-322122Y-400100D01*
X-315214Y-407060D01*
X-307136Y-412699D01*
X-298246Y-416814D01*
X-295859Y-417474D01*
X-292658Y-418947D01*
X-290169Y-421436D01*
X-288696Y-424637D01*
X-288391Y-428142D01*
X-289102Y-436524D01*
X-288239Y-446278D01*
X-285699Y-455777D01*
X-281584Y-464667D01*
X-275945Y-472744D01*
X-268986Y-479653D01*
X-260959Y-485292D01*
X-252018Y-489458D01*
X-242570Y-491998D01*
X-232765Y-492861D01*
X-222961Y-491998D01*
X-213512Y-489458D01*
X-204571Y-485292D01*
X-196545Y-479653D01*
X-189585Y-472744D01*
X-183946Y-464667D01*
X-179832Y-455777D01*
X-177292Y-446278D01*
X-176428Y-436524D01*
X-176428Y-431698D01*
X-175514Y-429006D01*
X-171907Y-421944D01*
X-169926Y-414578D01*
X-169468Y-408686D01*
X-169468Y-326847D01*
X-168706Y-322935D01*
X-166522Y-319633D01*
X154889Y1778D01*
X159969Y8026D01*
X163423Y14782D01*
X164947Y20015D01*
X165455Y24130D01*
X166370Y27381D01*
X168351Y30124D01*
X173075Y34848D01*
X178714Y42926D01*
X182880Y51816D01*
X185420Y61315D01*
X186283Y71069D01*
X185674Y77876D01*
X186131Y81838D01*
X188010Y85293D01*
X191109Y87782D01*
X194919Y88900D01*
X204520Y89712D01*
X213969Y92252D01*
X222910Y96418D01*
X230936Y102057D01*
X237896Y108966D01*
X243535Y117043D01*
X247650Y125933D01*
X250190Y135432D01*
X251053Y145186D01*
X250291Y154279D01*
X250748Y158445D01*
X252882Y162052D01*
X256286Y164490D01*
X260400Y165354D01*
X365302Y165354D01*
X369214Y164541D01*
X372516Y162356D01*
X374700Y159054D01*
X375462Y155194D01*
X374700Y151282D01*
X372516Y147980D01*
X365760Y141224D01*
X360121Y133197D01*
X355955Y124256D01*
X353415Y114808D01*
X352552Y105003D01*
X353415Y95199D01*
X355955Y85750D01*
X360121Y76809D01*
X365760Y68783D01*
X372668Y61823D01*
X380746Y56184D01*
X389636Y52069D01*
X399135Y49530D01*
X408940Y48666D01*
X418693Y49530D01*
X428193Y52069D01*
X437083Y56184D01*
X445160Y61823D01*
X452069Y68783D01*
X457708Y76809D01*
X461873Y85750D01*
X464413Y95199D01*
X465277Y105003D01*
X464413Y114808D01*
X461873Y124256D01*
X457708Y133197D01*
X452069Y141224D01*
X445312Y147980D01*
X443128Y151282D01*
X442366Y155194D01*
X443128Y159054D01*
X445312Y162356D01*
X448614Y164541D01*
X452526Y165354D01*
X536194Y165354D01*
X540156Y164541D01*
X543509Y162204D01*
X545693Y158800D01*
X546354Y154838D01*
X545388Y150876D01*
X541680Y142849D01*
X539140Y133400D01*
X538276Y123596D01*
X539140Y113792D01*
X541680Y104343D01*
X545795Y95402D01*
X551434Y87376D01*
X558393Y80416D01*
X566420Y74777D01*
X575360Y70662D01*
X584809Y68122D01*
X594614Y67259D01*
X604418Y68122D01*
X613867Y70662D01*
X622808Y74777D01*
X630834Y80416D01*
X637794Y87376D01*
X643432Y95402D01*
X647547Y104343D01*
X650087Y113792D01*
X650951Y123596D01*
X650087Y133400D01*
X647547Y142849D01*
X643839Y150876D01*
X642874Y154838D01*
X643534Y158800D01*
X645718Y162204D01*
X649071Y164541D01*
X653034Y165354D01*
X912723Y165354D01*
X920292Y166116D01*
X926998Y168300D01*
X933246Y171907D01*
X937514Y175564D01*
X941984Y180035D01*
X945540Y182321D01*
X949706Y182981D01*
X953769Y181914D01*
X957071Y179222D01*
X959002Y175463D01*
X959866Y172161D01*
X964031Y163220D01*
X969670Y155194D01*
X976579Y148234D01*
X984656Y142595D01*
X993546Y138480D01*
X1003046Y135940D01*
X1012850Y135077D01*
X1022603Y135940D01*
X1032103Y138480D01*
X1040993Y142595D01*
X1049070Y148234D01*
X1055979Y155194D01*
X1061618Y163220D01*
X1065784Y172161D01*
X1068324Y181610D01*
X1069187Y191414D01*
X1068324Y201168D01*
X1065479Y211683D01*
X1065174Y215392D01*
X1066241Y218948D01*
X1068476Y221894D01*
X1071626Y223824D01*
X1075283Y224536D01*
X1101445Y224536D01*
X1105204Y223774D01*
X1108456Y221742D01*
X1110691Y218643D01*
X1115212Y208838D01*
X1120851Y200761D01*
X1127810Y193852D01*
X1135837Y188214D01*
X1144778Y184048D01*
X1154226Y181508D01*
X1164031Y180644D01*
X1173835Y181508D01*
X1183284Y184048D01*
X1192225Y188214D01*
X1200251Y193852D01*
X1207211Y200761D01*
X1212850Y208838D01*
X1216964Y217728D01*
X1219504Y227228D01*
X1220368Y236982D01*
X1219504Y246786D01*
X1216964Y256286D01*
X1212850Y265176D01*
X1210360Y268732D01*
X1208735Y272491D01*
X1208735Y276606D01*
X1210360Y280365D01*
X1214018Y285648D01*
X1218184Y294538D01*
X1220724Y304038D01*
X1221587Y313791D01*
X1220724Y323596D01*
X1218184Y333095D01*
X1214018Y341985D01*
X1209852Y347980D01*
X1208227Y351739D01*
X1208227Y355854D01*
X1209852Y359613D01*
X1214323Y366014D01*
X1218488Y374954D01*
X1221028Y384403D01*
X1221892Y394208D01*
X1221028Y404012D01*
X1218488Y413461D01*
X1214323Y422401D01*
X1208684Y430428D01*
X1201775Y437388D01*
X1193698Y443026D01*
X1184808Y447141D01*
X1175308Y449681D01*
X1165555Y450545D01*
X1155750Y449681D01*
X1146251Y447141D01*
X1137361Y443026D01*
X1129284Y437388D01*
X1123137Y431190D01*
X1119835Y429006D01*
X1115923Y428193D01*
X1054760Y428193D01*
X1050848Y429006D01*
X1047597Y431190D01*
X1045362Y434492D01*
X1044600Y438353D01*
X1045362Y442264D01*
X1047546Y445566D01*
X1118870Y516940D01*
X1122172Y519125D01*
X1126083Y519938D01*
X1182979Y519938D01*
X1186891Y519125D01*
X1190193Y516940D01*
X1196492Y510641D01*
X1204518Y505002D01*
X1213459Y500837D01*
X1222908Y498297D01*
X1232712Y497433D01*
X1242517Y498297D01*
X1251966Y500837D01*
X1260906Y505002D01*
X1268933Y510641D01*
X1271168Y512876D01*
X1274470Y515061D01*
X1278382Y515823D01*
X1282242Y515061D01*
X1285544Y512876D01*
X1287729Y509574D01*
X1288542Y505663D01*
X1288542Y97688D01*
X1287729Y93827D01*
X1285443Y90373D01*
X1282547Y88341D01*
X1279144Y87426D01*
X1275588Y87731D01*
X1272387Y89255D01*
X1264208Y94996D01*
X1255268Y99161D01*
X1245819Y101701D01*
X1236014Y102565D01*
X1226210Y101701D01*
X1216761Y99161D01*
X1207820Y94996D01*
X1199794Y89357D01*
X1192834Y82448D01*
X1187196Y74371D01*
X1183081Y65481D01*
X1180541Y55981D01*
X1179677Y46177D01*
X1180541Y36423D01*
X1183081Y26924D01*
X1187196Y18034D01*
X1192834Y9956D01*
X1199794Y3048D01*
X1207820Y-2590D01*
X1216761Y-6756D01*
X1226210Y-9296D01*
X1236014Y-10160D01*
X1250848Y-8839D01*
X1254760Y-10363D01*
X1257757Y-13360D01*
X1259281Y-17322D01*
X1257858Y-32512D01*
X1258722Y-42316D01*
X1261262Y-51765D01*
X1265428Y-60706D01*
X1271066Y-68732D01*
X1277975Y-75692D01*
X1286052Y-81330D01*
X1294942Y-85445D01*
X1304442Y-87985D01*
X1314246Y-88849D01*
X1324000Y-87985D01*
X1333500Y-85445D01*
X1342390Y-81330D01*
X1350467Y-75692D01*
X1352499Y-73609D01*
X1355394Y-71577D01*
X1358849Y-70662D01*
X1362354Y-71018D01*
X1365605Y-72542D01*
X1374749Y-79044D01*
X1383588Y-83159D01*
X1393088Y-85699D01*
X1402892Y-86563D01*
X1412646Y-85699D01*
X1422146Y-83159D01*
X1431036Y-79044D01*
X1439113Y-73406D01*
X1446022Y-66446D01*
X1451660Y-58419D01*
X1455826Y-49479D01*
X1457706Y-42468D01*
X1459738Y-38608D01*
X1463243Y-35915D01*
X1467510Y-34950D01*
X1482445Y-38963D01*
X1492250Y-39827D01*
X1502003Y-38963D01*
X1511503Y-36423D01*
X1520393Y-32308D01*
X1528470Y-26670D01*
X1532737Y-22352D01*
X1536039Y-20167D01*
X1539951Y-19405D01*
X1543812Y-20167D01*
X1547114Y-22352D01*
X1551686Y-26974D01*
X1559763Y-32613D01*
X1568653Y-36728D01*
X1578152Y-39268D01*
X1587957Y-40132D01*
X1597710Y-39268D01*
X1607210Y-36728D01*
X1616100Y-32613D01*
X1624177Y-26974D01*
X1631086Y-20015D01*
X1636725Y-11988D01*
X1640078Y-4724D01*
X1642313Y-1625D01*
X1645564Y406D01*
X1649323Y1117D01*
X1653082Y406D01*
X1656283Y-1625D01*
X1658518Y-4724D01*
X1662734Y-13766D01*
X1668373Y-21844D01*
X1669745Y-23215D01*
X1671878Y-26416D01*
X1672691Y-30175D01*
X1672031Y-34036D01*
X1669999Y-37287D01*
X1658213Y-45466D01*
X1651304Y-52425D01*
X1645666Y-60452D01*
X1641500Y-69392D01*
X1638960Y-78841D01*
X1638096Y-88646D01*
X1638960Y-98450D01*
X1641500Y-107899D01*
X1645666Y-116839D01*
X1651304Y-124866D01*
X1653590Y-127203D01*
X1655825Y-130454D01*
X1656588Y-134366D01*
X1655825Y-138277D01*
X1647698Y-149860D01*
X1643532Y-158800D01*
X1640992Y-168249D01*
X1640128Y-178054D01*
X1640992Y-187858D01*
X1643532Y-197307D01*
X1647698Y-206248D01*
X1653336Y-214274D01*
X1660245Y-221234D01*
X1668322Y-226872D01*
X1677212Y-230987D01*
X1686712Y-233527D01*
X1688185Y-233679D01*
X1692249Y-234899D01*
X1695450Y-237693D01*
X1697228Y-241554D01*
X1697278Y-245770D01*
X1695602Y-249682D01*
X1684782Y-264820D01*
X1649272Y-311353D01*
X1612239Y-356616D01*
X1573631Y-400608D01*
X1533601Y-443230D01*
X1492554Y-484073D01*
X1489354Y-486206D01*
X1485595Y-487019D01*
X1481734Y-486359D01*
X1478483Y-484276D01*
X1476197Y-481177D01*
X1474266Y-477012D01*
X1468628Y-468985D01*
X1461719Y-462026D01*
X1453642Y-456387D01*
X1444752Y-452272D01*
X1435252Y-449732D01*
X1425498Y-448868D01*
X1415694Y-449732D01*
X1406194Y-452272D01*
X1397304Y-456387D01*
X1389227Y-462026D01*
X1382318Y-468985D01*
X1376680Y-477012D01*
X1372514Y-485952D01*
X1369974Y-495401D01*
X1369110Y-505206D01*
X1369974Y-515010D01*
X1372514Y-524459D01*
X1376680Y-533400D01*
X1382318Y-541426D01*
X1389227Y-548386D01*
X1396187Y-553212D01*
X1398828Y-555904D01*
X1400302Y-559358D01*
X1400403Y-563067D01*
X1399184Y-566623D01*
X1396746Y-569468D01*
X1359662Y-599541D01*
X1312976Y-634796D01*
X1265123Y-668477D01*
X1216152Y-700532D01*
X1166114Y-730859D01*
X1115110Y-759510D01*
X1063142Y-786384D01*
X1010310Y-811479D01*
X956614Y-834796D01*
X902208Y-856234D01*
X847090Y-875842D01*
X791311Y-893571D01*
X734974Y-909370D01*
X678180Y-923290D01*
X620877Y-935278D01*
X563219Y-945286D01*
X505307Y-953312D01*
X447090Y-959408D01*
X388721Y-963523D01*
X330250Y-965606D01*
G37*

%LPC*%
G36*
X680415Y-891540D02*
G01*
X690219Y-890676D01*
X699668Y-888136D01*
X708609Y-884021D01*
X716635Y-878382D01*
X723595Y-871423D01*
X729234Y-863396D01*
X733348Y-854456D01*
X735888Y-845007D01*
X736752Y-835202D01*
X735888Y-825398D01*
X733348Y-815949D01*
X729234Y-807008D01*
X723595Y-798982D01*
X716635Y-792022D01*
X708609Y-786384D01*
X699668Y-782269D01*
X690219Y-779729D01*
X680415Y-778865D01*
X670610Y-779729D01*
X661162Y-782269D01*
X652221Y-786384D01*
X644194Y-792022D01*
X637235Y-798982D01*
X631596Y-807008D01*
X627481Y-815949D01*
X624941Y-825398D01*
X624078Y-835202D01*
X624941Y-845007D01*
X627481Y-854456D01*
X631596Y-863396D01*
X637235Y-871423D01*
X644194Y-878382D01*
X652221Y-884021D01*
X661162Y-888136D01*
X670610Y-890676D01*
G37*
G36*
X1290675Y-600303D02*
G01*
X1300480Y-599440D01*
X1309928Y-596900D01*
X1318869Y-592785D01*
X1326896Y-587146D01*
X1333855Y-580186D01*
X1339494Y-572160D01*
X1343609Y-563219D01*
X1346149Y-553770D01*
X1347012Y-543966D01*
X1346149Y-534162D01*
X1343609Y-524713D01*
X1339494Y-515772D01*
X1333855Y-507746D01*
X1326896Y-500786D01*
X1318869Y-495147D01*
X1309928Y-491032D01*
X1300480Y-488492D01*
X1290675Y-487629D01*
X1280871Y-488492D01*
X1271422Y-491032D01*
X1262481Y-495147D01*
X1254455Y-500786D01*
X1247495Y-507746D01*
X1241856Y-515772D01*
X1237742Y-524713D01*
X1235202Y-534162D01*
X1234338Y-543966D01*
X1235202Y-553770D01*
X1237742Y-563219D01*
X1241856Y-572160D01*
X1247495Y-580186D01*
X1254455Y-587146D01*
X1262481Y-592785D01*
X1271422Y-596900D01*
X1280871Y-599440D01*
G37*
G36*
X-568756Y-477113D02*
G01*
X-559206Y-475894D01*
X-549960Y-473049D01*
X-541375Y-468731D01*
X-533603Y-462991D01*
X-526948Y-456031D01*
X-521512Y-448005D01*
X-517550Y-439216D01*
X-515112Y-429920D01*
X-514299Y-420268D01*
X-515112Y-410667D01*
X-517550Y-401320D01*
X-521512Y-392531D01*
X-526948Y-384556D01*
X-533603Y-377596D01*
X-541375Y-371856D01*
X-549960Y-367538D01*
X-559206Y-364693D01*
X-568756Y-363474D01*
X-578408Y-363880D01*
X-587806Y-365912D01*
X-596798Y-369519D01*
X-604977Y-374548D01*
X-612241Y-380949D01*
X-618286Y-388467D01*
X-623011Y-396849D01*
X-626211Y-405942D01*
X-627837Y-415493D01*
X-627837Y-425094D01*
X-626211Y-434644D01*
X-623011Y-443738D01*
X-618286Y-452120D01*
X-612241Y-459638D01*
X-604977Y-466039D01*
X-596798Y-471068D01*
X-587806Y-474675D01*
X-578408Y-476707D01*
G37*
G36*
X1148181Y-450443D02*
G01*
X1157986Y-449580D01*
X1167434Y-447040D01*
X1176375Y-442925D01*
X1184402Y-437286D01*
X1191361Y-430326D01*
X1197000Y-422300D01*
X1201115Y-413359D01*
X1203655Y-403910D01*
X1204518Y-394106D01*
X1203655Y-384302D01*
X1201115Y-374853D01*
X1197000Y-365912D01*
X1191361Y-357886D01*
X1184402Y-350926D01*
X1176375Y-345287D01*
X1167434Y-341172D01*
X1157986Y-338632D01*
X1148181Y-337769D01*
X1138377Y-338632D01*
X1128928Y-341172D01*
X1119987Y-345287D01*
X1111961Y-350926D01*
X1105001Y-357886D01*
X1099362Y-365912D01*
X1095248Y-374853D01*
X1092708Y-384302D01*
X1091844Y-394106D01*
X1092708Y-403910D01*
X1095248Y-413359D01*
X1099362Y-422300D01*
X1105001Y-430326D01*
X1111961Y-437286D01*
X1119987Y-442925D01*
X1128928Y-447040D01*
X1138377Y-449580D01*
G37*
G36*
X1541322Y-336753D02*
G01*
X1551076Y-335889D01*
X1560576Y-333349D01*
X1569466Y-329234D01*
X1577543Y-323596D01*
X1584452Y-316636D01*
X1590090Y-308610D01*
X1594256Y-299669D01*
X1596796Y-290220D01*
X1597660Y-280416D01*
X1596796Y-270611D01*
X1594256Y-261162D01*
X1590090Y-252221D01*
X1584452Y-244195D01*
X1580388Y-240080D01*
X1578152Y-236829D01*
X1577390Y-232917D01*
X1578152Y-229006D01*
X1580388Y-225755D01*
X1586230Y-219862D01*
X1591868Y-211836D01*
X1596034Y-202895D01*
X1598574Y-193446D01*
X1599438Y-183642D01*
X1598574Y-173837D01*
X1596034Y-164388D01*
X1591868Y-155448D01*
X1586230Y-147421D01*
X1579321Y-140462D01*
X1571244Y-134823D01*
X1562354Y-130708D01*
X1552854Y-128168D01*
X1543100Y-127304D01*
X1533296Y-128168D01*
X1523796Y-130708D01*
X1514906Y-134823D01*
X1502918Y-143357D01*
X1499006Y-144119D01*
X1495094Y-143357D01*
X1491843Y-141122D01*
X1489151Y-138430D01*
X1481074Y-132791D01*
X1472184Y-128676D01*
X1462684Y-126136D01*
X1452930Y-125272D01*
X1443126Y-126136D01*
X1433626Y-128676D01*
X1424736Y-132791D01*
X1416659Y-138430D01*
X1409750Y-145389D01*
X1404112Y-153416D01*
X1399946Y-162356D01*
X1397406Y-171805D01*
X1396542Y-181610D01*
X1397406Y-191414D01*
X1399946Y-200863D01*
X1404112Y-209753D01*
X1410512Y-218795D01*
X1411986Y-221945D01*
X1412341Y-225450D01*
X1411478Y-228854D01*
X1403858Y-239775D01*
X1399692Y-248716D01*
X1397152Y-258165D01*
X1396288Y-267970D01*
X1397152Y-277774D01*
X1399692Y-287223D01*
X1403858Y-296164D01*
X1409496Y-304190D01*
X1416405Y-311150D01*
X1424482Y-316788D01*
X1433372Y-320903D01*
X1442872Y-323443D01*
X1452676Y-324307D01*
X1462430Y-323443D01*
X1471930Y-320903D01*
X1480820Y-316788D01*
X1484172Y-314401D01*
X1487373Y-312928D01*
X1490929Y-312623D01*
X1494332Y-313537D01*
X1497228Y-315620D01*
X1505102Y-323596D01*
X1513128Y-329234D01*
X1522018Y-333349D01*
X1531518Y-335889D01*
G37*
G36*
X263144Y-318820D02*
G01*
X272897Y-317957D01*
X282397Y-315417D01*
X291287Y-311302D01*
X299364Y-305663D01*
X306273Y-298704D01*
X311912Y-290677D01*
X316077Y-281736D01*
X318617Y-272288D01*
X319481Y-262483D01*
X318617Y-252679D01*
X316077Y-243230D01*
X311912Y-234289D01*
X306273Y-226263D01*
X299364Y-219303D01*
X291287Y-213664D01*
X282397Y-209550D01*
X272897Y-207010D01*
X263144Y-206146D01*
X253339Y-207010D01*
X243840Y-209550D01*
X234950Y-213664D01*
X226872Y-219303D01*
X219964Y-226263D01*
X214325Y-234289D01*
X210159Y-243230D01*
X207619Y-252679D01*
X206756Y-262483D01*
X207619Y-272288D01*
X210159Y-281736D01*
X214325Y-290677D01*
X219964Y-298704D01*
X226872Y-305663D01*
X234950Y-311302D01*
X243840Y-315417D01*
X253339Y-317957D01*
G37*
G36*
X1290675Y-300329D02*
G01*
X1300480Y-299466D01*
X1309928Y-296926D01*
X1318869Y-292811D01*
X1326896Y-287172D01*
X1333855Y-280212D01*
X1339494Y-272186D01*
X1343609Y-263245D01*
X1346149Y-253796D01*
X1347012Y-243992D01*
X1346149Y-234188D01*
X1343609Y-224739D01*
X1339494Y-215798D01*
X1333855Y-207771D01*
X1326896Y-200812D01*
X1318869Y-195173D01*
X1309928Y-191058D01*
X1300480Y-188518D01*
X1290675Y-187655D01*
X1280871Y-188518D01*
X1271422Y-191058D01*
X1262481Y-195173D01*
X1254455Y-200812D01*
X1247495Y-207771D01*
X1241856Y-215798D01*
X1237742Y-224739D01*
X1235202Y-234188D01*
X1234338Y-243992D01*
X1235202Y-253796D01*
X1237742Y-263245D01*
X1241856Y-272186D01*
X1247495Y-280212D01*
X1254455Y-287172D01*
X1262481Y-292811D01*
X1271422Y-296926D01*
X1280871Y-299466D01*
G37*
G36*
X-1013663Y-191719D02*
G01*
X-1003909Y-190855D01*
X-994410Y-188315D01*
X-985519Y-184200D01*
X-977442Y-178562D01*
X-970534Y-171602D01*
X-964895Y-163576D01*
X-960729Y-154635D01*
X-958189Y-145186D01*
X-957326Y-135382D01*
X-958189Y-125577D01*
X-960729Y-116128D01*
X-964895Y-107187D01*
X-970534Y-99161D01*
X-977442Y-92202D01*
X-985519Y-86563D01*
X-994410Y-82448D01*
X-1003909Y-79908D01*
X-1013663Y-79044D01*
X-1023467Y-79908D01*
X-1032967Y-82448D01*
X-1041857Y-86563D01*
X-1049934Y-92202D01*
X-1056843Y-99161D01*
X-1062482Y-107187D01*
X-1066647Y-116128D01*
X-1069187Y-125577D01*
X-1070051Y-135382D01*
X-1069187Y-145186D01*
X-1066647Y-154635D01*
X-1062482Y-163576D01*
X-1056843Y-171602D01*
X-1049934Y-178562D01*
X-1041857Y-184200D01*
X-1032967Y-188315D01*
X-1023467Y-190855D01*
G37*
G36*
X-533654Y-163322D02*
G01*
X-524103Y-162102D01*
X-514858Y-159258D01*
X-506272Y-154940D01*
X-498500Y-149199D01*
X-491794Y-142240D01*
X-486409Y-134213D01*
X-482447Y-125425D01*
X-480009Y-116128D01*
X-479196Y-106527D01*
X-480009Y-96875D01*
X-482447Y-87579D01*
X-486409Y-78790D01*
X-491794Y-70764D01*
X-498500Y-63804D01*
X-506272Y-58064D01*
X-514858Y-53746D01*
X-524103Y-50901D01*
X-533654Y-49682D01*
X-543306Y-50088D01*
X-552704Y-52120D01*
X-561695Y-55727D01*
X-569874Y-60756D01*
X-577138Y-67157D01*
X-583184Y-74676D01*
X-587908Y-83058D01*
X-591108Y-92151D01*
X-592734Y-101701D01*
X-592734Y-111302D01*
X-591108Y-120853D01*
X-587908Y-129946D01*
X-583184Y-138328D01*
X-577138Y-145846D01*
X-569874Y-152247D01*
X-561695Y-157276D01*
X-552704Y-160883D01*
X-543306Y-162915D01*
G37*
G36*
X1079042Y-126949D02*
G01*
X1088796Y-126085D01*
X1098296Y-123545D01*
X1107186Y-119430D01*
X1115263Y-113792D01*
X1122172Y-106832D01*
X1127810Y-98806D01*
X1131976Y-89865D01*
X1134516Y-80416D01*
X1135380Y-70612D01*
X1134516Y-60807D01*
X1131976Y-51358D01*
X1127810Y-42418D01*
X1122172Y-34391D01*
X1115263Y-27432D01*
X1107186Y-21793D01*
X1098296Y-17678D01*
X1088796Y-15138D01*
X1079042Y-14274D01*
X1069238Y-15138D01*
X1059738Y-17678D01*
X1050848Y-21793D01*
X1042771Y-27432D01*
X1035862Y-34391D01*
X1030224Y-42418D01*
X1026058Y-51358D01*
X1023518Y-60807D01*
X1022654Y-70612D01*
X1023518Y-80416D01*
X1026058Y-89865D01*
X1030224Y-98806D01*
X1035862Y-106832D01*
X1042771Y-113792D01*
X1050848Y-119430D01*
X1059738Y-123545D01*
X1069238Y-126085D01*
G37*
G36*
X731418Y-73761D02*
G01*
X741222Y-72898D01*
X750671Y-70358D01*
X759612Y-66192D01*
X767638Y-60553D01*
X774598Y-53644D01*
X780237Y-45567D01*
X784352Y-36677D01*
X786892Y-27178D01*
X787755Y-17424D01*
X787501Y-14122D01*
X787806Y-10617D01*
X789279Y-7416D01*
X791768Y-4927D01*
X794969Y-3454D01*
X804976Y-762D01*
X813917Y3403D01*
X821944Y9042D01*
X828903Y15951D01*
X834542Y24028D01*
X838657Y32918D01*
X841197Y42418D01*
X842060Y52171D01*
X841197Y61976D01*
X838657Y71475D01*
X834542Y80365D01*
X828903Y88442D01*
X821944Y95351D01*
X813917Y100990D01*
X804976Y105156D01*
X795528Y107696D01*
X785723Y108559D01*
X775919Y107696D01*
X766470Y105156D01*
X757529Y100990D01*
X749503Y95351D01*
X742543Y88442D01*
X736904Y80365D01*
X732790Y71475D01*
X730250Y61976D01*
X729386Y52171D01*
X729640Y48920D01*
X729335Y45415D01*
X727862Y42214D01*
X725373Y39725D01*
X722172Y38252D01*
X712165Y35560D01*
X703224Y31394D01*
X695198Y25755D01*
X688238Y18846D01*
X682599Y10769D01*
X678484Y1879D01*
X675944Y-7620D01*
X675081Y-17424D01*
X675944Y-27178D01*
X678484Y-36677D01*
X682599Y-45567D01*
X688238Y-53644D01*
X695198Y-60553D01*
X703224Y-66192D01*
X712165Y-70358D01*
X721614Y-72898D01*
G37*
G36*
X-334162Y-28752D02*
G01*
X-324408Y-27889D01*
X-314909Y-25349D01*
X-306019Y-21183D01*
X-297942Y-15544D01*
X-291033Y-8636D01*
X-285394Y-558D01*
X-281228Y8331D01*
X-278688Y17830D01*
X-277825Y27584D01*
X-278688Y37388D01*
X-281228Y46888D01*
X-285394Y55778D01*
X-291033Y63855D01*
X-297942Y70764D01*
X-306019Y76403D01*
X-314909Y80568D01*
X-324408Y83108D01*
X-334162Y83972D01*
X-343966Y83108D01*
X-353466Y80568D01*
X-362356Y76403D01*
X-370433Y70764D01*
X-377342Y63855D01*
X-382981Y55778D01*
X-387146Y46888D01*
X-389686Y37388D01*
X-390550Y27584D01*
X-389686Y17830D01*
X-387146Y8331D01*
X-382981Y-558D01*
X-377342Y-8636D01*
X-370433Y-15544D01*
X-362356Y-21183D01*
X-353466Y-25349D01*
X-343966Y-27889D01*
G37*
G36*
X-533044Y20726D02*
G01*
X-523493Y21996D01*
X-514299Y24790D01*
X-505663Y29159D01*
X-497890Y34899D01*
X-491235Y41859D01*
X-485851Y49834D01*
X-481838Y58623D01*
X-479450Y67970D01*
X-478586Y77571D01*
X-479450Y87172D01*
X-481838Y96520D01*
X-485851Y105308D01*
X-491235Y113283D01*
X-497890Y120243D01*
X-505663Y125983D01*
X-514299Y130352D01*
X-523493Y133146D01*
X-533044Y134416D01*
X-542696Y133959D01*
X-552145Y131927D01*
X-561086Y128371D01*
X-569315Y123291D01*
X-576529Y116941D01*
X-582625Y109423D01*
X-587298Y100990D01*
X-590499Y91897D01*
X-592124Y82397D01*
X-592124Y72745D01*
X-590499Y63246D01*
X-587298Y54152D01*
X-582625Y45720D01*
X-576529Y38201D01*
X-569315Y31851D01*
X-561086Y26771D01*
X-552145Y23215D01*
X-542696Y21183D01*
G37*
G36*
X-989076Y245922D02*
G01*
X-979271Y246786D01*
X-969771Y249326D01*
X-960882Y253441D01*
X-952804Y259079D01*
X-945896Y266039D01*
X-940257Y274066D01*
X-936091Y283006D01*
X-933551Y292455D01*
X-932687Y302260D01*
X-933551Y312064D01*
X-936091Y321513D01*
X-940257Y330454D01*
X-945896Y338480D01*
X-952804Y345440D01*
X-960882Y351078D01*
X-969771Y355193D01*
X-979271Y357733D01*
X-989076Y358597D01*
X-998829Y357733D01*
X-1008329Y355193D01*
X-1017219Y351078D01*
X-1025296Y345440D01*
X-1032205Y338480D01*
X-1037844Y330454D01*
X-1042009Y321513D01*
X-1044549Y312064D01*
X-1045413Y302260D01*
X-1044549Y292455D01*
X-1042009Y283006D01*
X-1037844Y274066D01*
X-1032205Y266039D01*
X-1025296Y259079D01*
X-1017219Y253441D01*
X-1008329Y249326D01*
X-998829Y246786D01*
G37*
G36*
X-910285Y377494D02*
G01*
X-900531Y378358D01*
X-891032Y380898D01*
X-882142Y385013D01*
X-874064Y390652D01*
X-867156Y397611D01*
X-861517Y405638D01*
X-857351Y414578D01*
X-854811Y424027D01*
X-853948Y433832D01*
X-854811Y443636D01*
X-857351Y453085D01*
X-861517Y462026D01*
X-867156Y470052D01*
X-874064Y477012D01*
X-882142Y482650D01*
X-891032Y486765D01*
X-900531Y489305D01*
X-910285Y490169D01*
X-920089Y489305D01*
X-929589Y486765D01*
X-938479Y482650D01*
X-946556Y477012D01*
X-953465Y470052D01*
X-959103Y462026D01*
X-963269Y453085D01*
X-965809Y443636D01*
X-966673Y433832D01*
X-965809Y424027D01*
X-963269Y414578D01*
X-959103Y405638D01*
X-953465Y397611D01*
X-946556Y390652D01*
X-938479Y385013D01*
X-929589Y380898D01*
X-920089Y378358D01*
G37*
G36*
X113334Y413816D02*
G01*
X123088Y414680D01*
X132588Y417220D01*
X141478Y421335D01*
X149555Y426974D01*
X156464Y433933D01*
X162102Y441959D01*
X166268Y450900D01*
X168808Y460349D01*
X169672Y470154D01*
X168808Y479958D01*
X166268Y489407D01*
X162102Y498348D01*
X156464Y506374D01*
X149555Y513334D01*
X141478Y518972D01*
X132588Y523087D01*
X123088Y525627D01*
X108559Y526846D01*
X105105Y528777D01*
X102616Y531876D01*
X101498Y535686D01*
X101244Y538632D01*
X98704Y548081D01*
X94538Y557022D01*
X88900Y565048D01*
X81991Y572008D01*
X73914Y577646D01*
X65024Y581761D01*
X55524Y584301D01*
X45770Y585165D01*
X35966Y584301D01*
X26466Y581761D01*
X17576Y577646D01*
X9499Y572008D01*
X2590Y565048D01*
X-3048Y557022D01*
X-7213Y548081D01*
X-9753Y538632D01*
X-10617Y528828D01*
X-9753Y519023D01*
X-7213Y509574D01*
X-3048Y500634D01*
X2590Y492607D01*
X9499Y485648D01*
X17576Y480009D01*
X26466Y475894D01*
X35966Y473354D01*
X50495Y472135D01*
X53949Y470204D01*
X56438Y467106D01*
X57556Y463296D01*
X57810Y460349D01*
X60350Y450900D01*
X64516Y441959D01*
X70154Y433933D01*
X77063Y426974D01*
X85140Y421335D01*
X94030Y417220D01*
X103530Y414680D01*
G37*
G36*
X1806956Y455472D02*
G01*
X1816709Y456336D01*
X1826209Y458876D01*
X1835099Y462991D01*
X1843176Y468630D01*
X1850085Y475589D01*
X1855724Y483616D01*
X1859889Y492556D01*
X1862429Y502005D01*
X1863293Y511809D01*
X1862429Y521614D01*
X1859889Y531063D01*
X1855724Y540004D01*
X1850085Y548030D01*
X1843176Y554990D01*
X1835099Y560628D01*
X1826209Y564743D01*
X1816709Y567283D01*
X1806956Y568147D01*
X1797151Y567283D01*
X1787652Y564743D01*
X1778762Y560628D01*
X1770684Y554990D01*
X1763775Y548030D01*
X1758137Y540004D01*
X1753971Y531063D01*
X1751431Y521614D01*
X1750568Y511809D01*
X1751431Y502005D01*
X1753971Y492556D01*
X1758137Y483616D01*
X1763775Y475589D01*
X1770684Y468630D01*
X1778762Y462991D01*
X1787652Y458876D01*
X1797151Y456336D01*
G37*
G36*
X2308250Y487273D02*
G01*
X2318004Y488137D01*
X2327503Y490677D01*
X2336393Y494792D01*
X2344470Y500430D01*
X2351379Y507390D01*
X2357018Y515416D01*
X2361184Y524357D01*
X2363724Y533806D01*
X2364587Y543610D01*
X2363724Y553415D01*
X2361184Y562864D01*
X2357018Y571804D01*
X2351379Y579831D01*
X2344470Y586790D01*
X2336393Y592429D01*
X2333752Y593648D01*
X2330450Y596087D01*
X2328418Y599643D01*
X2327960Y603707D01*
X2329129Y607669D01*
X2331770Y610819D01*
X2335428Y612648D01*
X2342540Y614578D01*
X2351430Y618693D01*
X2359507Y624332D01*
X2366416Y631291D01*
X2372055Y639318D01*
X2376220Y648258D01*
X2378760Y657707D01*
X2379624Y667512D01*
X2378760Y677316D01*
X2376220Y686765D01*
X2372055Y695706D01*
X2368804Y700328D01*
X2367178Y704088D01*
X2367178Y708202D01*
X2368804Y711962D01*
X2370785Y714756D01*
X2374900Y723696D01*
X2377440Y733145D01*
X2378303Y742950D01*
X2377440Y752754D01*
X2374900Y762203D01*
X2370785Y771144D01*
X2366416Y777290D01*
X2364790Y781100D01*
X2364790Y785164D01*
X2371090Y798626D01*
X2373630Y808075D01*
X2374493Y817880D01*
X2373630Y827684D01*
X2371090Y837133D01*
X2366975Y846074D01*
X2361336Y854100D01*
X2354376Y861060D01*
X2346350Y866698D01*
X2337054Y871016D01*
X2333752Y873455D01*
X2331720Y877011D01*
X2331212Y881126D01*
X2332380Y885037D01*
X2335022Y888187D01*
X2338730Y890016D01*
X2340660Y890574D01*
X2349601Y894689D01*
X2357628Y900328D01*
X2364587Y907287D01*
X2370226Y915314D01*
X2374341Y924255D01*
X2376881Y933703D01*
X2377744Y943508D01*
X2376881Y953312D01*
X2374341Y962761D01*
X2370226Y971702D01*
X2364587Y979728D01*
X2357628Y986688D01*
X2349601Y992327D01*
X2340660Y996442D01*
X2331212Y998982D01*
X2321407Y999845D01*
X2311603Y998982D01*
X2302154Y996442D01*
X2293213Y992327D01*
X2285187Y986688D01*
X2278227Y979728D01*
X2272588Y971702D01*
X2268474Y962761D01*
X2265934Y953312D01*
X2265070Y943508D01*
X2265934Y933703D01*
X2268474Y924255D01*
X2272588Y915314D01*
X2278227Y907287D01*
X2285187Y900328D01*
X2293213Y894689D01*
X2302510Y890371D01*
X2305812Y887933D01*
X2307844Y884377D01*
X2308352Y880262D01*
X2307183Y876350D01*
X2304542Y873201D01*
X2300833Y871372D01*
X2298903Y870813D01*
X2289962Y866698D01*
X2281936Y861060D01*
X2274976Y854100D01*
X2269337Y846074D01*
X2265222Y837133D01*
X2262682Y827684D01*
X2261819Y817880D01*
X2262682Y808075D01*
X2265222Y798626D01*
X2269337Y789686D01*
X2273706Y783539D01*
X2275332Y779729D01*
X2275332Y775614D01*
X2269032Y762203D01*
X2266492Y752754D01*
X2265629Y742950D01*
X2266492Y733145D01*
X2269032Y723696D01*
X2273147Y714756D01*
X2276398Y710133D01*
X2278024Y706374D01*
X2278024Y702259D01*
X2276398Y698500D01*
X2274468Y695706D01*
X2270302Y686765D01*
X2267762Y677316D01*
X2266899Y667512D01*
X2267762Y657707D01*
X2270302Y648258D01*
X2274468Y639318D01*
X2280107Y631291D01*
X2287016Y624332D01*
X2295093Y618693D01*
X2297734Y617474D01*
X2301036Y615035D01*
X2303068Y611479D01*
X2303526Y607415D01*
X2302357Y603453D01*
X2299716Y600303D01*
X2296058Y598474D01*
X2288946Y596544D01*
X2280056Y592429D01*
X2271979Y586790D01*
X2265070Y579831D01*
X2259431Y571804D01*
X2255266Y562864D01*
X2252726Y553415D01*
X2251862Y543610D01*
X2252726Y533806D01*
X2255266Y524357D01*
X2259431Y515416D01*
X2265070Y507390D01*
X2271979Y500430D01*
X2280056Y494792D01*
X2288946Y490677D01*
X2298446Y488137D01*
G37*
G36*
X-884123Y605332D02*
G01*
X-874369Y606196D01*
X-864869Y608736D01*
X-855980Y612851D01*
X-847902Y618490D01*
X-840994Y625449D01*
X-835355Y633476D01*
X-831189Y642416D01*
X-828649Y651865D01*
X-827786Y661670D01*
X-828649Y671474D01*
X-831189Y680923D01*
X-835355Y689864D01*
X-840994Y697890D01*
X-847902Y704850D01*
X-855980Y710488D01*
X-864869Y714603D01*
X-874369Y717143D01*
X-880821Y717702D01*
X-884478Y718769D01*
X-887526Y721106D01*
X-889457Y724357D01*
X-890066Y728167D01*
X-889253Y731875D01*
X-887120Y735025D01*
X-881887Y740257D01*
X-876249Y748284D01*
X-872083Y757224D01*
X-869543Y766673D01*
X-868680Y776478D01*
X-869543Y786282D01*
X-872083Y795731D01*
X-876249Y804672D01*
X-881887Y812698D01*
X-888796Y819658D01*
X-896874Y825296D01*
X-905764Y829411D01*
X-915263Y831951D01*
X-925017Y832815D01*
X-934821Y831951D01*
X-944321Y829411D01*
X-953211Y825296D01*
X-961288Y819658D01*
X-968197Y812698D01*
X-973836Y804672D01*
X-978001Y795731D01*
X-980541Y786282D01*
X-981405Y776478D01*
X-980541Y766673D01*
X-978001Y757224D01*
X-973836Y748284D01*
X-968197Y740257D01*
X-961288Y733298D01*
X-953211Y727659D01*
X-944321Y723544D01*
X-934821Y721004D01*
X-928369Y720445D01*
X-924712Y719378D01*
X-921664Y717042D01*
X-919734Y713790D01*
X-919124Y709980D01*
X-919937Y706272D01*
X-922070Y703122D01*
X-927303Y697890D01*
X-932942Y689864D01*
X-937107Y680923D01*
X-939647Y671474D01*
X-940511Y661670D01*
X-939647Y651865D01*
X-937107Y642416D01*
X-932942Y633476D01*
X-927303Y625449D01*
X-920394Y618490D01*
X-912317Y612851D01*
X-903427Y608736D01*
X-893927Y606196D01*
G37*
G36*
X2154021Y690067D02*
G01*
X2163826Y690930D01*
X2173274Y693470D01*
X2182215Y697585D01*
X2190242Y703224D01*
X2197201Y710184D01*
X2202840Y718210D01*
X2206955Y727151D01*
X2209495Y736600D01*
X2210358Y746404D01*
X2209495Y756208D01*
X2206955Y765657D01*
X2202840Y774598D01*
X2197201Y782624D01*
X2190242Y789584D01*
X2182215Y795223D01*
X2173274Y799338D01*
X2163826Y801878D01*
X2154021Y802741D01*
X2144217Y801878D01*
X2134768Y799338D01*
X2125827Y795223D01*
X2117801Y789584D01*
X2110841Y782624D01*
X2105202Y774598D01*
X2101088Y765657D01*
X2098548Y756208D01*
X2097684Y746404D01*
X2098548Y736600D01*
X2101088Y727151D01*
X2105202Y718210D01*
X2110841Y710184D01*
X2117801Y703224D01*
X2125827Y697585D01*
X2134768Y693470D01*
X2144217Y690930D01*
G37*
G36*
X-318719Y776528D02*
G01*
X-308965Y777392D01*
X-299466Y779932D01*
X-290576Y784047D01*
X-282498Y789686D01*
X-275590Y796645D01*
X-269951Y804672D01*
X-265785Y813612D01*
X-263245Y823061D01*
X-262382Y832866D01*
X-263245Y842670D01*
X-265785Y852119D01*
X-269951Y861060D01*
X-275590Y869086D01*
X-282498Y876046D01*
X-290576Y881684D01*
X-299466Y885799D01*
X-308965Y888339D01*
X-318719Y889203D01*
X-328523Y888339D01*
X-338023Y885799D01*
X-346913Y881684D01*
X-354990Y876046D01*
X-361899Y869086D01*
X-367538Y861060D01*
X-371703Y852119D01*
X-374243Y842670D01*
X-375107Y832866D01*
X-374243Y823061D01*
X-371703Y813612D01*
X-367538Y804672D01*
X-361899Y796645D01*
X-354990Y789686D01*
X-346913Y784047D01*
X-338023Y779932D01*
X-328523Y777392D01*
G37*
G36*
X296722Y875080D02*
G01*
X306476Y875944D01*
X315976Y878484D01*
X324866Y882599D01*
X332943Y888237D01*
X339852Y895197D01*
X345490Y903224D01*
X349656Y912164D01*
X352196Y921613D01*
X353060Y931418D01*
X352196Y941222D01*
X349656Y950671D01*
X345490Y959612D01*
X339852Y967638D01*
X332943Y974598D01*
X324866Y980236D01*
X315976Y984351D01*
X306476Y986891D01*
X296722Y987755D01*
X286918Y986891D01*
X277418Y984351D01*
X268528Y980236D01*
X260451Y974598D01*
X253542Y967638D01*
X247904Y959612D01*
X243738Y950671D01*
X241198Y941222D01*
X240334Y931418D01*
X241198Y921613D01*
X243738Y912164D01*
X247904Y903224D01*
X253542Y895197D01*
X260451Y888237D01*
X268528Y882599D01*
X277418Y878484D01*
X286918Y875944D01*
G37*
G36*
X134162Y875080D02*
G01*
X143916Y875944D01*
X153416Y878484D01*
X162306Y882599D01*
X170383Y888237D01*
X177292Y895197D01*
X182930Y903224D01*
X187096Y912164D01*
X189636Y921613D01*
X190500Y931418D01*
X189636Y941222D01*
X187096Y950671D01*
X182930Y959612D01*
X177292Y967638D01*
X170383Y974598D01*
X162306Y980236D01*
X153416Y984351D01*
X143916Y986891D01*
X134162Y987755D01*
X124358Y986891D01*
X114858Y984351D01*
X105968Y980236D01*
X97891Y974598D01*
X90982Y967638D01*
X85344Y959612D01*
X81178Y950671D01*
X78638Y941222D01*
X77774Y931418D01*
X78638Y921613D01*
X81178Y912164D01*
X85344Y903224D01*
X90982Y895197D01*
X97891Y888237D01*
X105968Y882599D01*
X114858Y878484D01*
X124358Y875944D01*
G37*
G36*
X-907542Y955344D02*
G01*
X-897737Y956208D01*
X-888237Y958748D01*
X-879348Y962863D01*
X-871270Y968502D01*
X-864362Y975461D01*
X-858723Y983487D01*
X-854557Y992428D01*
X-852017Y1001877D01*
X-851153Y1011682D01*
X-852017Y1021486D01*
X-854557Y1030935D01*
X-858723Y1039876D01*
X-864362Y1047902D01*
X-871270Y1054862D01*
X-879348Y1060500D01*
X-888237Y1064615D01*
X-897737Y1067155D01*
X-907542Y1068019D01*
X-917295Y1067155D01*
X-926795Y1064615D01*
X-935685Y1060500D01*
X-943762Y1054862D01*
X-950671Y1047902D01*
X-956310Y1039876D01*
X-960475Y1030935D01*
X-963015Y1021486D01*
X-963879Y1011682D01*
X-963015Y1001877D01*
X-960475Y992428D01*
X-956310Y983487D01*
X-950671Y975461D01*
X-943762Y968502D01*
X-935685Y962863D01*
X-926795Y958748D01*
X-917295Y956208D01*
G37*
G36*
X1806956Y986434D02*
G01*
X1816709Y987298D01*
X1826209Y989837D01*
X1835099Y994003D01*
X1843176Y999642D01*
X1850085Y1006551D01*
X1855724Y1014628D01*
X1859889Y1023518D01*
X1862429Y1033018D01*
X1863293Y1042771D01*
X1862429Y1052576D01*
X1859889Y1062075D01*
X1855724Y1070965D01*
X1850085Y1079042D01*
X1843176Y1085951D01*
X1835099Y1091590D01*
X1826209Y1095756D01*
X1816709Y1098296D01*
X1806956Y1099159D01*
X1797151Y1098296D01*
X1787652Y1095756D01*
X1778762Y1091590D01*
X1770684Y1085951D01*
X1763775Y1079042D01*
X1758137Y1070965D01*
X1753971Y1062075D01*
X1751431Y1052576D01*
X1750568Y1042771D01*
X1751431Y1033018D01*
X1753971Y1023518D01*
X1758137Y1014628D01*
X1763775Y1006551D01*
X1770684Y999642D01*
X1778762Y994003D01*
X1787652Y989837D01*
X1797151Y987298D01*
G37*
G36*
X141020Y1020622D02*
G01*
X150774Y1021486D01*
X160274Y1024026D01*
X169164Y1028141D01*
X177241Y1033780D01*
X184150Y1040739D01*
X189788Y1048766D01*
X193954Y1057706D01*
X196494Y1067155D01*
X197358Y1076960D01*
X196494Y1086764D01*
X193954Y1096213D01*
X189788Y1105154D01*
X184150Y1113180D01*
X177241Y1120140D01*
X169164Y1125778D01*
X160274Y1129893D01*
X150774Y1132433D01*
X141020Y1133297D01*
X131216Y1132433D01*
X121716Y1129893D01*
X112826Y1125778D01*
X104749Y1120140D01*
X97840Y1113180D01*
X92202Y1105154D01*
X88036Y1096213D01*
X85496Y1086764D01*
X84632Y1076960D01*
X85496Y1067155D01*
X88036Y1057706D01*
X92202Y1048766D01*
X97840Y1040739D01*
X104749Y1033780D01*
X112826Y1028141D01*
X121716Y1024026D01*
X131216Y1021486D01*
G37*
G36*
X300278Y1024178D02*
G01*
X310032Y1025042D01*
X319532Y1027582D01*
X328422Y1031697D01*
X336499Y1037336D01*
X343408Y1044295D01*
X349046Y1052322D01*
X353212Y1061262D01*
X355752Y1070711D01*
X356616Y1080516D01*
X355752Y1090320D01*
X353212Y1099769D01*
X349046Y1108710D01*
X343408Y1116736D01*
X336499Y1123696D01*
X328422Y1129334D01*
X319532Y1133449D01*
X310032Y1135989D01*
X300278Y1136853D01*
X290474Y1135989D01*
X280974Y1133449D01*
X272084Y1129334D01*
X264007Y1123696D01*
X257098Y1116736D01*
X251460Y1108710D01*
X247294Y1099769D01*
X244754Y1090320D01*
X243890Y1080516D01*
X244754Y1070711D01*
X247294Y1061262D01*
X251460Y1052322D01*
X257098Y1044295D01*
X264007Y1037336D01*
X272084Y1031697D01*
X280974Y1027582D01*
X290474Y1025042D01*
G37*
G36*
X-1001776Y1095806D02*
G01*
X-991971Y1096670D01*
X-982471Y1099210D01*
X-973582Y1103325D01*
X-965504Y1108964D01*
X-958596Y1115923D01*
X-952957Y1123950D01*
X-948791Y1132890D01*
X-946251Y1142339D01*
X-945387Y1152144D01*
X-946251Y1161948D01*
X-948791Y1171397D01*
X-952957Y1180338D01*
X-958596Y1188364D01*
X-965504Y1195324D01*
X-973582Y1200962D01*
X-982471Y1205077D01*
X-991971Y1207617D01*
X-1001776Y1208481D01*
X-1011529Y1207617D01*
X-1021029Y1205077D01*
X-1029919Y1200962D01*
X-1037996Y1195324D01*
X-1044905Y1188364D01*
X-1050544Y1180338D01*
X-1054709Y1171397D01*
X-1057249Y1161948D01*
X-1058113Y1152144D01*
X-1057249Y1142339D01*
X-1054709Y1132890D01*
X-1050544Y1123950D01*
X-1044905Y1115923D01*
X-1037996Y1108964D01*
X-1029919Y1103325D01*
X-1021029Y1099210D01*
X-1011529Y1096670D01*
G37*
G36*
X-758088Y1208786D02*
G01*
X-748284Y1209649D01*
X-738835Y1212189D01*
X-729894Y1216304D01*
X-721868Y1221943D01*
X-714908Y1228902D01*
X-709269Y1236929D01*
X-705154Y1245870D01*
X-702614Y1255318D01*
X-701751Y1265123D01*
X-702614Y1274927D01*
X-705154Y1284376D01*
X-709269Y1293317D01*
X-714908Y1301343D01*
X-721868Y1308303D01*
X-729894Y1313942D01*
X-738835Y1318056D01*
X-748284Y1320596D01*
X-758088Y1321460D01*
X-767892Y1320596D01*
X-777341Y1318056D01*
X-786282Y1313942D01*
X-794308Y1308303D01*
X-801268Y1301343D01*
X-806907Y1293317D01*
X-811022Y1284376D01*
X-813562Y1274927D01*
X-814425Y1265123D01*
X-813562Y1255318D01*
X-811022Y1245870D01*
X-806907Y1236929D01*
X-801268Y1228902D01*
X-794308Y1221943D01*
X-786282Y1216304D01*
X-777341Y1212189D01*
X-767892Y1209649D01*
G37*
G36*
X-520090Y1263650D02*
G01*
X-510285Y1264513D01*
X-500837Y1267053D01*
X-491896Y1271168D01*
X-483870Y1276807D01*
X-476910Y1283766D01*
X-471271Y1291793D01*
X-467156Y1300734D01*
X-464616Y1310182D01*
X-463753Y1319987D01*
X-464616Y1329791D01*
X-467156Y1339240D01*
X-471271Y1348181D01*
X-476910Y1356207D01*
X-483870Y1363167D01*
X-491896Y1368806D01*
X-500837Y1372920D01*
X-510285Y1375460D01*
X-520090Y1376324D01*
X-529894Y1375460D01*
X-539343Y1372920D01*
X-548284Y1368806D01*
X-556310Y1363167D01*
X-563270Y1356207D01*
X-568909Y1348181D01*
X-573024Y1339240D01*
X-575564Y1329791D01*
X-576427Y1319987D01*
X-575564Y1310182D01*
X-573024Y1300734D01*
X-568909Y1291793D01*
X-563270Y1283766D01*
X-556310Y1276807D01*
X-548284Y1271168D01*
X-539343Y1267053D01*
X-529894Y1264513D01*
G37*
G36*
X-304952Y1287780D02*
G01*
X-295148Y1288643D01*
X-285699Y1291183D01*
X-276758Y1295298D01*
X-268732Y1300937D01*
X-261772Y1307896D01*
X-256133Y1315923D01*
X-252018Y1324864D01*
X-249478Y1334312D01*
X-248615Y1344117D01*
X-249478Y1353921D01*
X-252018Y1363370D01*
X-256133Y1372311D01*
X-261772Y1380337D01*
X-268732Y1387297D01*
X-276758Y1392936D01*
X-285699Y1397050D01*
X-295148Y1399590D01*
X-304952Y1400454D01*
X-314756Y1399590D01*
X-324205Y1397050D01*
X-333146Y1392936D01*
X-341172Y1387297D01*
X-348132Y1380337D01*
X-353771Y1372311D01*
X-357886Y1363370D01*
X-360426Y1353921D01*
X-361289Y1344117D01*
X-360426Y1334312D01*
X-357886Y1324864D01*
X-353771Y1315923D01*
X-348132Y1307896D01*
X-341172Y1300937D01*
X-333146Y1295298D01*
X-324205Y1291183D01*
X-314756Y1288643D01*
G37*
G36*
X1347012Y1332788D02*
G01*
X1356766Y1333652D01*
X1366266Y1336192D01*
X1375156Y1340307D01*
X1383233Y1345946D01*
X1390142Y1352905D01*
X1395780Y1360932D01*
X1399946Y1369872D01*
X1402486Y1379321D01*
X1403350Y1389126D01*
X1402486Y1398930D01*
X1399946Y1408379D01*
X1395780Y1417320D01*
X1390142Y1425346D01*
X1383233Y1432306D01*
X1375156Y1437944D01*
X1366266Y1442059D01*
X1356766Y1444599D01*
X1347012Y1445463D01*
X1337208Y1444599D01*
X1327708Y1442059D01*
X1318818Y1437944D01*
X1310741Y1432306D01*
X1303832Y1425346D01*
X1298194Y1417320D01*
X1294028Y1408379D01*
X1291488Y1398930D01*
X1290624Y1389126D01*
X1291488Y1379321D01*
X1294028Y1369872D01*
X1298194Y1360932D01*
X1303832Y1352905D01*
X1310741Y1345946D01*
X1318818Y1340307D01*
X1327708Y1336192D01*
X1337208Y1333652D01*
G37*
G36*
X-853440Y1457147D02*
G01*
X-843686Y1458010D01*
X-834186Y1460550D01*
X-825296Y1464716D01*
X-817219Y1470355D01*
X-810310Y1477264D01*
X-804672Y1485341D01*
X-800506Y1494231D01*
X-797966Y1503730D01*
X-797102Y1513484D01*
X-797966Y1523288D01*
X-800506Y1532788D01*
X-804672Y1541678D01*
X-810310Y1549755D01*
X-817219Y1556664D01*
X-825296Y1562303D01*
X-834186Y1566468D01*
X-843686Y1569008D01*
X-853440Y1569872D01*
X-863244Y1569008D01*
X-872744Y1566468D01*
X-881634Y1562303D01*
X-889711Y1556664D01*
X-896619Y1549755D01*
X-902258Y1541678D01*
X-906424Y1532788D01*
X-908964Y1523288D01*
X-909828Y1513484D01*
X-908964Y1503730D01*
X-906424Y1494231D01*
X-902258Y1485341D01*
X-896619Y1477264D01*
X-889711Y1470355D01*
X-881634Y1464716D01*
X-872744Y1460550D01*
X-863244Y1458010D01*
G37*
G36*
X-698652Y1634134D02*
G01*
X-688898Y1634998D01*
X-679399Y1637538D01*
X-670509Y1641703D01*
X-662432Y1647342D01*
X-655523Y1654251D01*
X-649884Y1662328D01*
X-645718Y1671218D01*
X-643178Y1680718D01*
X-642315Y1690471D01*
X-643178Y1700275D01*
X-645718Y1709775D01*
X-649884Y1718665D01*
X-655523Y1726742D01*
X-662432Y1733651D01*
X-670509Y1739290D01*
X-679399Y1743456D01*
X-688898Y1745996D01*
X-698652Y1746859D01*
X-708456Y1745996D01*
X-717956Y1743456D01*
X-726846Y1739290D01*
X-734923Y1733651D01*
X-741832Y1726742D01*
X-747471Y1718665D01*
X-751636Y1709775D01*
X-754176Y1700275D01*
X-755040Y1690471D01*
X-754176Y1680718D01*
X-751636Y1671218D01*
X-747471Y1662328D01*
X-741832Y1654251D01*
X-734923Y1647342D01*
X-726846Y1641703D01*
X-717956Y1637538D01*
X-708456Y1634998D01*
G37*
G36*
X-631088Y1916328D02*
G01*
X-621284Y1917192D01*
X-611835Y1919732D01*
X-602894Y1923846D01*
X-594868Y1929485D01*
X-587908Y1936445D01*
X-582269Y1944471D01*
X-578154Y1953412D01*
X-575614Y1962861D01*
X-574751Y1972665D01*
X-575614Y1982470D01*
X-578154Y1991918D01*
X-582269Y2000859D01*
X-587908Y2008886D01*
X-594868Y2015845D01*
X-602894Y2021484D01*
X-611835Y2025599D01*
X-621284Y2028139D01*
X-631088Y2029002D01*
X-640892Y2028139D01*
X-650341Y2025599D01*
X-659282Y2021484D01*
X-667308Y2015845D01*
X-674268Y2008886D01*
X-679907Y2000859D01*
X-684022Y1991918D01*
X-686562Y1982470D01*
X-687425Y1972665D01*
X-686562Y1962861D01*
X-684022Y1953412D01*
X-679907Y1944471D01*
X-674268Y1936445D01*
X-667308Y1929485D01*
X-659282Y1923846D01*
X-650341Y1919732D01*
X-640892Y1917192D01*
G37*

%LPD*%
D10*
X-279067Y-363888D02*
G01*
X-279067Y-303436D01*
X63832Y39463D01*
X63832Y113631D01*
X95328Y145127D01*
X194642Y145127D01*
X-232839Y-436532D02*
G01*
X-205407Y-409100D01*
X-205407Y-307754D01*
X129872Y27525D01*
X129872Y71213D01*
D11*
X1232740Y553813D02*
G01*
X1107772Y553813D01*
X858598Y304385D01*
X117172Y304385D01*
X73230Y348327D01*
X-151559Y348327D01*
X-218615Y415383D01*
X-218615Y592421D01*
X1085166Y1091023D02*
G01*
X1116662Y1091023D01*
X1204546Y1003139D01*
X1204546Y878425D01*
X1519760Y563211D01*
X1084150Y1007457D02*
G01*
X1103708Y1007457D01*
X1170002Y941163D01*
X1170002Y859375D01*
X1484962Y544415D01*
X1479882Y239107D01*
X745797Y1500598D02*
G01*
X913465Y1668266D01*
X1169088Y1668266D01*
X1169088Y1668289D01*
X-545259Y748377D02*
G01*
X-545259Y405985D01*
X-380667Y241393D01*
X3380Y241393D01*
X45798Y199229D01*
X913208Y199229D01*
X972390Y258411D01*
X1142570Y258411D01*
X1163906Y237075D01*
X1163906Y237075D02*
G01*
X1163998Y236999D01*
X1165176Y313783D02*
G01*
X974168Y313783D01*
X892634Y232249D01*
X64086Y232249D01*
X18620Y277715D01*
X-257731Y277715D01*
X-489125Y509363D01*
X-489125Y665065D01*
X1165430Y394301D02*
G01*
X1001600Y394301D01*
X873330Y265777D01*
X92788Y265777D01*
X46306Y312259D01*
X-197025Y312259D01*
X-307515Y423003D01*
X-307515Y589373D01*
X839802Y900269D02*
G01*
X898222Y900269D01*
X954102Y956149D01*
X954102Y1177383D01*
X1020396Y1243677D01*
X1166700Y1243677D01*
X1419176Y991201D01*
X1659206Y991201D01*
X1243408Y1081117D02*
G01*
X1243408Y888585D01*
X1140005Y1177206D02*
G01*
X1147312Y1177206D01*
X1243403Y1081115D01*
X1243403Y888588D02*
G01*
X1556080Y575911D01*
X1556080Y222600D01*
X1586565Y192115D01*
X1789765Y192115D01*
X1807491Y174388D01*
X1807491Y21887D01*
X1082372Y751169D02*
G01*
X1119207Y751169D01*
X1322402Y547974D01*
X1322402Y47998D01*
X1080594Y923383D02*
G01*
X1110820Y923383D01*
X1134950Y899507D01*
X1134950Y844135D01*
X1432384Y546701D01*
X1432384Y273651D01*
X1075773Y837788D02*
G01*
X1085161Y837788D01*
X1399623Y523331D01*
X1399623Y59575D01*
X1410591Y48607D01*
X1432491Y273598D02*
G01*
X1432491Y170703D01*
X1492201Y110990D01*
X1492201Y16502D01*
X1479892Y239102D02*
G01*
X1479892Y192003D01*
X1587908Y83987D01*
X1587908Y16197D01*
X1519765Y563211D02*
G01*
X1519765Y207637D01*
X1598693Y128701D01*
X1687791Y128701D01*
X1711505Y104990D01*
X1711505Y14394D01*
D12*
X830988Y529506D02*
G01*
X728807Y631687D01*
X728807Y944211D01*
X833965Y1049365D01*
D11*
X469391Y756920D02*
G01*
X514682Y802210D01*
X514682Y805781D01*
X507238Y673607D02*
G01*
X565150Y731520D01*
X574293Y731520D01*
X779096Y455388D02*
G01*
X767031Y467453D01*
X557357Y467453D01*
X509099Y515711D01*
X507238Y673605D01*
X708306Y407103D02*
G01*
X529054Y407103D01*
X471246Y464911D01*
X469386Y756917D01*
X187779Y1391757D02*
G01*
X200479Y1379311D01*
X974173Y1379311D01*
X1099388Y1504538D01*
X1175339Y1504538D01*
X1226291Y1555488D01*
X1486486Y1555488D01*
X277957Y1440131D02*
G01*
X280957Y1435351D01*
X957828Y1435351D01*
X1095745Y1573268D01*
X1148336Y1573268D01*
D13*
G01*
X-1160447Y181907D03*
G01*
X-1560446Y181907D03*
G01*
X-1160447Y1305882D03*
G01*
X-1560446Y1305882D03*
D14*
G01*
X1562254Y1730265D03*
G01*
X1300609Y1991885D03*
G01*
X1823900Y1249697D03*
G01*
X1661695Y1582234D03*
D15*
G01*
X-520113Y1319979D03*
G01*
X1903199Y232503D03*
G01*
X-526463Y1764225D03*
G01*
X-758111Y1265115D03*
G01*
X-523669Y1429453D03*
G01*
X277954Y1440121D03*
G01*
X187784Y1391861D03*
G01*
X-299641Y1599379D03*
G01*
X-304975Y1344109D03*
G01*
X-853488Y1513502D03*
G01*
X-698700Y1690489D03*
G01*
X-631111Y1972657D03*
G01*
X-1001773Y1152136D03*
G01*
X1114808Y1399786D03*
G01*
X1486486Y1170119D03*
G01*
X1588264Y1088890D03*
G01*
X1806907Y511802D03*
G01*
X-925065Y776470D03*
G01*
X-884171Y661662D03*
G01*
X45722Y528820D03*
G01*
X113286Y470146D03*
G01*
X-910333Y433824D03*
G01*
X-907539Y1011674D03*
G01*
X-734108Y-567900D03*
G01*
X-649805Y-624288D03*
G01*
X-278991Y-363888D03*
G01*
X194693Y145204D03*
G01*
X129898Y71086D03*
G01*
X-232788Y-436506D03*
G01*
X408891Y104995D03*
G01*
X731395Y-17406D03*
G01*
X828601Y397197D03*
G01*
X263095Y-262491D03*
G01*
X-42593Y406493D03*
G01*
X1116840Y-181109D03*
G01*
X1127991Y56100D03*
G01*
X1232689Y553788D03*
G01*
X1165506Y394200D03*
G01*
X1165202Y313809D03*
G01*
X-545335Y748276D03*
G01*
X-489201Y664964D03*
G01*
X-218691Y592320D03*
G01*
X-307591Y589272D03*
G01*
X852299Y679797D03*
G01*
X779096Y455388D03*
G01*
X574296Y731512D03*
G01*
X708306Y407103D03*
G01*
X514682Y805781D03*
G01*
X823191Y754499D03*
G01*
X-318767Y832858D03*
G01*
X2308202Y543603D03*
G01*
X2321384Y943500D03*
G01*
X2153998Y746396D03*
G01*
X1082398Y751197D03*
G01*
X1075794Y837887D03*
G01*
X1080594Y923409D03*
G01*
X1084201Y1007407D03*
G01*
X1140005Y1177206D03*
G01*
X1085090Y1091100D03*
G01*
X140972Y1076952D03*
G01*
X134114Y931410D03*
G01*
X300230Y1080508D03*
G01*
X296674Y931410D03*
G01*
X1148336Y1573268D03*
G01*
X1486486Y1555488D03*
G01*
X745797Y1500598D03*
G01*
X706630Y1032756D03*
G01*
X392940Y526534D03*
G01*
X749302Y1309616D03*
G01*
X1431902Y1493385D03*
G01*
X1247726Y1391759D03*
G01*
X1157556Y1892139D03*
G01*
X1299898Y992700D03*
G01*
X874499Y1173599D03*
G01*
X2318133Y817872D03*
G01*
X2273708Y399610D03*
G01*
X1677621Y279087D03*
G01*
X1235991Y46194D03*
G01*
X-989073Y302252D03*
G01*
X-1013711Y-135389D03*
G01*
X-769109Y842510D03*
G01*
X-495297Y261612D03*
G01*
X-220799Y-128988D03*
G01*
X612Y-867011D03*
G01*
X-213890Y167098D03*
G01*
X-127505Y167403D03*
G01*
X839701Y900295D03*
G01*
X1350342Y914493D03*
G01*
X1078994Y-70619D03*
G01*
X1452628Y-267977D03*
G01*
X1012802Y191406D03*
G01*
X2321943Y742942D03*
G01*
X2323238Y667504D03*
G01*
X1346964Y1389118D03*
G01*
X1164008Y236999D03*
G01*
X1314198Y-32519D03*
G01*
X1402844Y-30233D03*
G01*
X1452882Y-181617D03*
G01*
X1543052Y-183649D03*
G01*
X1696468Y-178061D03*
G01*
X1694436Y-88653D03*
G01*
X1541274Y-280423D03*
G01*
X1425450Y-505213D03*
G01*
X1148158Y-394114D03*
G01*
X1290652Y-543974D03*
G01*
X1290652Y-244000D03*
G01*
X785700Y52189D03*
G01*
X594591Y123588D03*
G01*
X206707Y-183294D03*
G01*
X-334210Y27602D03*
D16*
G01*
X-535505Y77563D03*
G01*
X-571192Y-420301D03*
D15*
G01*
X680392Y-835210D03*
G01*
X1930783Y614494D03*
G01*
X574499Y896993D03*
G01*
X830988Y529506D03*
G01*
X834011Y1049393D03*
G01*
X580189Y551400D03*
G01*
X1659206Y991201D03*
G01*
X1644906Y508500D03*
G01*
X1807491Y21887D03*
G01*
X1711505Y14394D03*
G01*
X1587908Y16197D03*
G01*
X1492201Y16502D03*
G01*
X1410591Y48607D03*
G01*
X1322402Y47998D03*
G01*
X1806907Y1042789D03*
G01*
X1169088Y1668289D03*
D16*
G01*
X-536089Y-106509D03*
M02*
