G04 Layer: InnerLayer2*
G04 Panelize: , Column: 1, Row: 1, Board Size: 35.35mm x 33.79mm, Panelized Board Size: 35.35mm x 33.79mm*
G04 EasyEDA v6.5.34, 2023-08-25 09:09:34*
G04 d93e2c1bc76747fc85efea62cec83403,9a4ed40c0dd746429eaf55b84663d2fb,10*
G04 Gerber Generator version 0.2*
G04 Scale: 100 percent, Rotated: No, Reflected: No *
G04 Dimensions in millimeters *
G04 leading zeros omitted , absolute positions ,4 integer and 5 decimal *
%FSLAX45Y45*%
%MOMM*%

%AMMACRO1*1,1,$1,$2,$3*1,1,$1,$4,$5*20,1,$1,$2,$3,$4,$5,0*%
%ADD10C,0.2540*%
%ADD11C,0.2032*%
%ADD12C,0.1524*%
%ADD13C,0.9610*%
%ADD14C,0.2286*%
%ADD15C,0.5000*%
%ADD16C,0.2110*%
%ADD17C,0.2030*%
%ADD18C,0.2134*%
%ADD19C,0.8000*%
%ADD20MACRO1,1.2X-0.3535X0.3535X0.3535X-0.3535*%
%ADD21C,0.6096*%
%ADD22C,0.0124*%

%LPD*%
G36*
X-2181707Y119684D02*
G01*
X-2184298Y120040D01*
X-2187752Y121208D01*
X-2407462Y121208D01*
X-2411730Y122174D01*
X-2415184Y124815D01*
X-2417216Y128676D01*
X-2417470Y132994D01*
X-2408478Y188671D01*
X-2397099Y246583D01*
X-2383790Y304038D01*
X-2368600Y361086D01*
X-2351481Y417525D01*
X-2332532Y473405D01*
X-2311704Y528624D01*
X-2288997Y583082D01*
X-2264562Y636778D01*
X-2238298Y689610D01*
X-2210308Y741578D01*
X-2180590Y792530D01*
X-2149144Y842467D01*
X-2116124Y891336D01*
X-2081428Y939088D01*
X-2045207Y985672D01*
X-2007412Y1030986D01*
X-1968144Y1075029D01*
X-1927402Y1117701D01*
X-1885289Y1159052D01*
X-1841804Y1198930D01*
X-1797050Y1237335D01*
X-1750974Y1274216D01*
X-1703730Y1309573D01*
X-1655318Y1343304D01*
X-1605838Y1375410D01*
X-1557426Y1404569D01*
X-1553413Y1405940D01*
X-1549146Y1405534D01*
X-1545437Y1403451D01*
X-1542948Y1400048D01*
X-1542034Y1395882D01*
X-1542034Y1027937D01*
X-1542796Y1024077D01*
X-1545031Y1020775D01*
X-1548282Y1018540D01*
X-1552194Y1017778D01*
X-1556105Y1018540D01*
X-1559356Y1020775D01*
X-1620672Y1082040D01*
X-1622856Y1085342D01*
X-1623669Y1089253D01*
X-1623669Y1117549D01*
X-1622704Y1121867D01*
X-1621586Y1124204D01*
X-1619046Y1133703D01*
X-1618183Y1143457D01*
X-1619046Y1153261D01*
X-1621586Y1162761D01*
X-1625752Y1171651D01*
X-1631391Y1179728D01*
X-1638300Y1186637D01*
X-1646377Y1192276D01*
X-1655267Y1196441D01*
X-1664766Y1198981D01*
X-1674520Y1199845D01*
X-1684324Y1198981D01*
X-1693824Y1196441D01*
X-1702714Y1192276D01*
X-1710791Y1186637D01*
X-1717700Y1179728D01*
X-1723339Y1171651D01*
X-1727504Y1162761D01*
X-1730044Y1153261D01*
X-1730908Y1143457D01*
X-1730044Y1133703D01*
X-1727504Y1124204D01*
X-1726438Y1121867D01*
X-1725472Y1117600D01*
X-1725472Y1064158D01*
X-1725269Y1059484D01*
X-1724660Y1055116D01*
X-1723694Y1050747D01*
X-1722374Y1046530D01*
X-1720697Y1042416D01*
X-1718614Y1038504D01*
X-1716227Y1034745D01*
X-1713534Y1031240D01*
X-1710385Y1027785D01*
X-1629003Y946403D01*
X-1626819Y943102D01*
X-1626057Y939190D01*
X-1626057Y775766D01*
X-1625854Y771093D01*
X-1625244Y766673D01*
X-1624279Y762355D01*
X-1622958Y758139D01*
X-1621231Y754024D01*
X-1619199Y750062D01*
X-1616811Y746353D01*
X-1614119Y742797D01*
X-1610969Y739394D01*
X-1564284Y692708D01*
X-1560830Y689559D01*
X-1557324Y686866D01*
X-1553565Y684479D01*
X-1549654Y682396D01*
X-1545539Y680720D01*
X-1541322Y679399D01*
X-1536954Y678434D01*
X-1532585Y677824D01*
X-1527911Y677621D01*
X-1468323Y677621D01*
X-1464411Y676859D01*
X-1461109Y674674D01*
X-1433931Y647446D01*
X-1431696Y644144D01*
X-1430934Y640283D01*
X-1431696Y636371D01*
X-1433931Y633069D01*
X-1437233Y630885D01*
X-1441094Y630123D01*
X-1452016Y629920D01*
X-1456436Y629310D01*
X-1460754Y628345D01*
X-1465021Y627024D01*
X-1469085Y625348D01*
X-1473047Y623265D01*
X-1476806Y620877D01*
X-1480312Y618185D01*
X-1483766Y615035D01*
X-1539087Y559714D01*
X-1541983Y557682D01*
X-1549704Y554075D01*
X-1557731Y548436D01*
X-1564690Y541528D01*
X-1570329Y533450D01*
X-1574444Y524560D01*
X-1576984Y515061D01*
X-1577848Y505256D01*
X-1576984Y495503D01*
X-1574444Y486003D01*
X-1570329Y477113D01*
X-1564690Y469036D01*
X-1557731Y462127D01*
X-1549704Y456488D01*
X-1540764Y452323D01*
X-1531315Y449783D01*
X-1521510Y448919D01*
X-1511706Y449783D01*
X-1502257Y452323D01*
X-1493316Y456488D01*
X-1485290Y462127D01*
X-1478330Y469036D01*
X-1472692Y477113D01*
X-1469136Y484835D01*
X-1467104Y487680D01*
X-1429461Y525322D01*
X-1426210Y527507D01*
X-1422298Y528269D01*
X-1370126Y528269D01*
X-1366215Y527507D01*
X-1362964Y525322D01*
X-1360728Y522020D01*
X-1359966Y518109D01*
X-1359814Y515721D01*
X-1358290Y513588D01*
X-1356766Y510387D01*
X-1356410Y506831D01*
X-1357325Y503377D01*
X-1359357Y500430D01*
X-1361998Y497840D01*
X-1367637Y489762D01*
X-1371752Y480872D01*
X-1374292Y471373D01*
X-1375156Y461568D01*
X-1374292Y451815D01*
X-1371752Y442315D01*
X-1367637Y433425D01*
X-1361998Y425348D01*
X-1355039Y418439D01*
X-1347012Y412800D01*
X-1338072Y408635D01*
X-1328623Y406095D01*
X-1318818Y405231D01*
X-1309014Y406095D01*
X-1299565Y408635D01*
X-1290624Y412800D01*
X-1282598Y418439D01*
X-1275638Y425348D01*
X-1270000Y433425D01*
X-1265885Y442315D01*
X-1263345Y451815D01*
X-1262481Y461568D01*
X-1263345Y471373D01*
X-1266748Y484784D01*
X-1265986Y488746D01*
X-1263802Y492099D01*
X-1260500Y494334D01*
X-1256588Y495096D01*
X-1239723Y495096D01*
X-1235811Y494334D01*
X-1232509Y492150D01*
X-1231138Y490728D01*
X-1228902Y487426D01*
X-1228140Y483565D01*
X-1228140Y151079D01*
X-1228902Y147218D01*
X-1231138Y143916D01*
X-1252321Y122682D01*
X-1255623Y120497D01*
X-1259535Y119684D01*
G37*

%LPD*%
G36*
X-268528Y-995476D02*
G01*
X-272440Y-994664D01*
X-275691Y-992479D01*
X-364236Y-903986D01*
X-368706Y-900887D01*
X-370128Y-899109D01*
X-383540Y-877874D01*
X-385013Y-874064D01*
X-384810Y-869950D01*
X-374446Y-829005D01*
X-372973Y-825753D01*
X-370484Y-823163D01*
X-365607Y-821232D01*
X-356666Y-817067D01*
X-348640Y-811428D01*
X-341680Y-804519D01*
X-336042Y-796442D01*
X-331927Y-787552D01*
X-329387Y-778052D01*
X-328523Y-768299D01*
X-329387Y-758494D01*
X-331927Y-748995D01*
X-336042Y-740105D01*
X-341680Y-732028D01*
X-344220Y-729538D01*
X-346202Y-726694D01*
X-347116Y-723341D01*
X-346862Y-719886D01*
X-317246Y-602488D01*
X-299770Y-367639D01*
X-299008Y-364388D01*
X-297180Y-361594D01*
X-228752Y-285546D01*
X-226517Y-283667D01*
X-223824Y-282498D01*
X-219049Y-281228D01*
X-210108Y-277063D01*
X-200152Y-269951D01*
X-197866Y-268935D01*
X-189992Y-266598D01*
X-186385Y-266192D01*
X-182880Y-267055D01*
X-179933Y-269138D01*
X106680Y-555752D01*
X108915Y-559054D01*
X109677Y-562914D01*
X109677Y-590854D01*
X108915Y-594715D01*
X106680Y-598017D01*
X-88341Y-793038D01*
X-91897Y-795375D01*
X-96062Y-796036D01*
X-100126Y-794918D01*
X-103428Y-792276D01*
X-105308Y-788517D01*
X-107899Y-778967D01*
X-112014Y-770077D01*
X-117652Y-762000D01*
X-124612Y-755091D01*
X-132638Y-749452D01*
X-137972Y-746963D01*
X-141478Y-744270D01*
X-143510Y-740359D01*
X-143713Y-735990D01*
X-142036Y-731926D01*
X-138785Y-728929D01*
X-134569Y-727608D01*
X-130200Y-727252D01*
X-120751Y-724712D01*
X-111810Y-720547D01*
X-103784Y-714908D01*
X-96824Y-707999D01*
X-91186Y-699922D01*
X-87071Y-691032D01*
X-84531Y-681532D01*
X-83667Y-671779D01*
X-84531Y-661974D01*
X-87071Y-652475D01*
X-91186Y-643585D01*
X-96824Y-635508D01*
X-103784Y-628599D01*
X-111810Y-622960D01*
X-120751Y-618794D01*
X-130200Y-616254D01*
X-140004Y-615391D01*
X-149809Y-616254D01*
X-159258Y-618794D01*
X-168198Y-622960D01*
X-176225Y-628599D01*
X-183184Y-635508D01*
X-188823Y-643585D01*
X-192938Y-652475D01*
X-193649Y-655167D01*
X-195427Y-658723D01*
X-198424Y-661314D01*
X-202184Y-662584D01*
X-206095Y-662330D01*
X-215036Y-659942D01*
X-224840Y-659079D01*
X-234645Y-659942D01*
X-244094Y-662482D01*
X-253034Y-666648D01*
X-261061Y-672287D01*
X-268020Y-679196D01*
X-273659Y-687273D01*
X-277774Y-696163D01*
X-280314Y-705662D01*
X-281178Y-715467D01*
X-280314Y-725220D01*
X-277774Y-734720D01*
X-273659Y-743610D01*
X-268020Y-751687D01*
X-261061Y-758596D01*
X-253034Y-764235D01*
X-244094Y-768400D01*
X-234645Y-770940D01*
X-224231Y-771855D01*
X-220014Y-773176D01*
X-216763Y-776122D01*
X-215087Y-780186D01*
X-215290Y-784606D01*
X-216306Y-788466D01*
X-217170Y-798271D01*
X-216306Y-808024D01*
X-213766Y-817524D01*
X-209651Y-826414D01*
X-204012Y-834491D01*
X-197053Y-841400D01*
X-189026Y-847039D01*
X-180086Y-851204D01*
X-170586Y-853744D01*
X-166827Y-855675D01*
X-164134Y-858926D01*
X-163068Y-863041D01*
X-163728Y-867206D01*
X-166014Y-870762D01*
X-257657Y-962406D01*
X-258368Y-964082D01*
X-258368Y-985316D01*
X-259130Y-989177D01*
X-261366Y-992479D01*
X-264617Y-994664D01*
G37*

%LPC*%
G36*
X-134924Y-540156D02*
G01*
X-125120Y-539292D01*
X-115671Y-536752D01*
X-106730Y-532587D01*
X-98704Y-526948D01*
X-91744Y-520039D01*
X-86106Y-511962D01*
X-81991Y-503072D01*
X-79451Y-493572D01*
X-78587Y-483819D01*
X-79451Y-474014D01*
X-81991Y-464515D01*
X-86106Y-455625D01*
X-91744Y-447548D01*
X-98704Y-440639D01*
X-106730Y-435000D01*
X-115671Y-430834D01*
X-125120Y-428294D01*
X-134924Y-427431D01*
X-144729Y-428294D01*
X-154178Y-430834D01*
X-163118Y-435000D01*
X-171145Y-440639D01*
X-178104Y-447548D01*
X-183743Y-455625D01*
X-187858Y-464515D01*
X-190398Y-474014D01*
X-191262Y-483819D01*
X-190398Y-493572D01*
X-187858Y-503072D01*
X-183743Y-511962D01*
X-178104Y-520039D01*
X-171145Y-526948D01*
X-163118Y-532587D01*
X-154178Y-536752D01*
X-144729Y-539292D01*
G37*

%LPD*%
G36*
X-689305Y-1889404D02*
G01*
X-702411Y-1889048D01*
X-706272Y-1888185D01*
X-709523Y-1885848D01*
X-711657Y-1882444D01*
X-712266Y-1878482D01*
X-708355Y-1864156D01*
X-707491Y-1854403D01*
X-708355Y-1844598D01*
X-710895Y-1835099D01*
X-715010Y-1826209D01*
X-720648Y-1818132D01*
X-727608Y-1811223D01*
X-735634Y-1805584D01*
X-744575Y-1801418D01*
X-754024Y-1798878D01*
X-763828Y-1798015D01*
X-773633Y-1798878D01*
X-783082Y-1801418D01*
X-792022Y-1805584D01*
X-800049Y-1811223D01*
X-807008Y-1818132D01*
X-812647Y-1826209D01*
X-816762Y-1835099D01*
X-819302Y-1844598D01*
X-820166Y-1854403D01*
X-819302Y-1864156D01*
X-817930Y-1869389D01*
X-817676Y-1873250D01*
X-818845Y-1876958D01*
X-821385Y-1879904D01*
X-824839Y-1881733D01*
X-828700Y-1882089D01*
X-865886Y-1878584D01*
X-924407Y-1871014D01*
X-982675Y-1861515D01*
X-1040536Y-1850085D01*
X-1098042Y-1836724D01*
X-1155039Y-1821484D01*
X-1211478Y-1804314D01*
X-1267307Y-1785264D01*
X-1322476Y-1764385D01*
X-1366215Y-1746148D01*
X-1369466Y-1743964D01*
X-1371650Y-1740763D01*
X-1372463Y-1736953D01*
X-1371803Y-1733143D01*
X-1369771Y-1729841D01*
X-1366621Y-1727555D01*
X-1361643Y-1725218D01*
X-1353566Y-1719580D01*
X-1346657Y-1712671D01*
X-1341018Y-1704593D01*
X-1336852Y-1695704D01*
X-1334312Y-1686204D01*
X-1333449Y-1676450D01*
X-1334312Y-1666646D01*
X-1336852Y-1657146D01*
X-1341018Y-1648256D01*
X-1346657Y-1640179D01*
X-1353566Y-1633270D01*
X-1361643Y-1627632D01*
X-1370533Y-1623466D01*
X-1380032Y-1620926D01*
X-1389786Y-1620062D01*
X-1399590Y-1620926D01*
X-1409090Y-1623466D01*
X-1417980Y-1627632D01*
X-1426057Y-1633270D01*
X-1432966Y-1640179D01*
X-1438605Y-1648256D01*
X-1442770Y-1657146D01*
X-1445310Y-1666646D01*
X-1446174Y-1676450D01*
X-1445310Y-1686204D01*
X-1443837Y-1691690D01*
X-1443583Y-1695500D01*
X-1444752Y-1699209D01*
X-1447241Y-1702155D01*
X-1450644Y-1703984D01*
X-1454454Y-1704441D01*
X-1458163Y-1703374D01*
X-1483410Y-1690827D01*
X-1535328Y-1662734D01*
X-1586280Y-1632966D01*
X-1606346Y-1620316D01*
X-1609191Y-1617624D01*
X-1610817Y-1614119D01*
X-1611020Y-1610207D01*
X-1609699Y-1606550D01*
X-1607058Y-1603603D01*
X-1603603Y-1601927D01*
X-1595831Y-1599844D01*
X-1586941Y-1595678D01*
X-1578864Y-1590040D01*
X-1571955Y-1583131D01*
X-1566316Y-1575054D01*
X-1562150Y-1566164D01*
X-1559610Y-1556664D01*
X-1558747Y-1546910D01*
X-1559610Y-1537106D01*
X-1562150Y-1527606D01*
X-1566316Y-1518716D01*
X-1571955Y-1510639D01*
X-1578864Y-1503730D01*
X-1586941Y-1498092D01*
X-1595831Y-1493926D01*
X-1605330Y-1491386D01*
X-1615084Y-1490522D01*
X-1624888Y-1491386D01*
X-1628698Y-1492402D01*
X-1632762Y-1492656D01*
X-1636623Y-1491234D01*
X-1639620Y-1488440D01*
X-1644345Y-1481683D01*
X-1651254Y-1474774D01*
X-1659331Y-1469136D01*
X-1668221Y-1464970D01*
X-1677720Y-1462430D01*
X-1684121Y-1461871D01*
X-1687525Y-1460957D01*
X-1690420Y-1458925D01*
X-1692402Y-1456029D01*
X-1693316Y-1452626D01*
X-1693722Y-1448206D01*
X-1696262Y-1438706D01*
X-1700428Y-1429816D01*
X-1706067Y-1421739D01*
X-1712975Y-1414830D01*
X-1721053Y-1409192D01*
X-1729943Y-1405026D01*
X-1739442Y-1402486D01*
X-1749196Y-1401622D01*
X-1754479Y-1402080D01*
X-1758442Y-1401673D01*
X-1761896Y-1399743D01*
X-1764385Y-1396644D01*
X-1765503Y-1392885D01*
X-1766366Y-1382928D01*
X-1768906Y-1373428D01*
X-1773072Y-1364538D01*
X-1778711Y-1356461D01*
X-1785620Y-1349552D01*
X-1793697Y-1343914D01*
X-1802587Y-1339748D01*
X-1812086Y-1337208D01*
X-1818182Y-1336700D01*
X-1821992Y-1335582D01*
X-1825091Y-1333093D01*
X-1826971Y-1329639D01*
X-1827428Y-1325676D01*
X-1827225Y-1323644D01*
X-1828088Y-1313840D01*
X-1830628Y-1304340D01*
X-1834794Y-1295450D01*
X-1840433Y-1287373D01*
X-1847342Y-1280464D01*
X-1855419Y-1274826D01*
X-1864309Y-1270660D01*
X-1873808Y-1268120D01*
X-1883562Y-1267256D01*
X-1893366Y-1268120D01*
X-1902866Y-1270660D01*
X-1911756Y-1274826D01*
X-1919833Y-1280464D01*
X-1926742Y-1287373D01*
X-1932381Y-1295450D01*
X-1936546Y-1304340D01*
X-1939086Y-1313840D01*
X-1940407Y-1328216D01*
X-1942541Y-1331823D01*
X-1945944Y-1334262D01*
X-1950008Y-1335074D01*
X-1954123Y-1334211D01*
X-1957527Y-1331772D01*
X-1992325Y-1293774D01*
X-2030679Y-1248968D01*
X-2067509Y-1202893D01*
X-2102815Y-1155598D01*
X-2136495Y-1107135D01*
X-2168550Y-1057605D01*
X-2198928Y-1007008D01*
X-2227580Y-955446D01*
X-2254554Y-902969D01*
X-2279700Y-849579D01*
X-2303068Y-795426D01*
X-2324608Y-740460D01*
X-2344318Y-684885D01*
X-2362149Y-628599D01*
X-2378100Y-571804D01*
X-2392172Y-514502D01*
X-2404262Y-456742D01*
X-2414473Y-398627D01*
X-2422702Y-340207D01*
X-2429002Y-281533D01*
X-2433320Y-222707D01*
X-2435656Y-163728D01*
X-2435910Y-122783D01*
X-2435199Y-118922D01*
X-2433015Y-115620D01*
X-2429764Y-113385D01*
X-2425954Y-112572D01*
X-1681530Y-100533D01*
X-1252372Y-91643D01*
X-1194917Y-89154D01*
X-1192479Y-88392D01*
X-1148994Y-61163D01*
X-1148130Y-59994D01*
X-1149654Y15189D01*
X-1149299Y398729D01*
X-1148588Y402488D01*
X-1146505Y405688D01*
X-1143457Y407924D01*
X-1139545Y409752D01*
X-1131468Y415391D01*
X-1124559Y422300D01*
X-1118920Y430377D01*
X-1114755Y439267D01*
X-1112215Y448767D01*
X-1111351Y458520D01*
X-1112215Y468325D01*
X-1114755Y477824D01*
X-1118920Y486714D01*
X-1124559Y494792D01*
X-1131468Y501700D01*
X-1139545Y507339D01*
X-1143304Y509117D01*
X-1146403Y511352D01*
X-1148486Y514553D01*
X-1149197Y518312D01*
X-1149146Y564540D01*
X-1143609Y862685D01*
X-1142796Y866495D01*
X-1140561Y869746D01*
X-1137310Y871880D01*
X-1133449Y872642D01*
X10566Y872642D01*
X14478Y871880D01*
X17729Y869645D01*
X19964Y866394D01*
X20726Y862482D01*
X19964Y858570D01*
X17729Y855319D01*
X-75234Y762355D01*
X-78486Y760120D01*
X-82397Y759358D01*
X-919276Y759358D01*
X-923188Y760120D01*
X-926490Y762355D01*
X-930656Y766521D01*
X-938733Y772160D01*
X-947623Y776325D01*
X-957122Y778865D01*
X-966876Y779729D01*
X-976680Y778865D01*
X-986180Y776325D01*
X-995070Y772160D01*
X-1003147Y766521D01*
X-1010056Y759612D01*
X-1015695Y751535D01*
X-1019860Y742645D01*
X-1022400Y733145D01*
X-1023264Y723341D01*
X-1022400Y713587D01*
X-1019860Y704088D01*
X-1015695Y695198D01*
X-1010056Y687120D01*
X-1003147Y680212D01*
X-995070Y674573D01*
X-986180Y670407D01*
X-976680Y667867D01*
X-966876Y667004D01*
X-957122Y667867D01*
X-947623Y670407D01*
X-938733Y674573D01*
X-930656Y680212D01*
X-926642Y684225D01*
X-923340Y686460D01*
X-919429Y687222D01*
X-771448Y687222D01*
X-767537Y686460D01*
X-764235Y684225D01*
X-762050Y680974D01*
X-761288Y677062D01*
X-762050Y673150D01*
X-770585Y661111D01*
X-774750Y652221D01*
X-777290Y642721D01*
X-778154Y632917D01*
X-777290Y623163D01*
X-774750Y613664D01*
X-770585Y604774D01*
X-764946Y596696D01*
X-758037Y589788D01*
X-749960Y584149D01*
X-741070Y579983D01*
X-731570Y577443D01*
X-721766Y576580D01*
X-712012Y577443D01*
X-702513Y579983D01*
X-693623Y584149D01*
X-685546Y589788D01*
X-678637Y596696D01*
X-672998Y604774D01*
X-668832Y613664D01*
X-666292Y623163D01*
X-665429Y632917D01*
X-666292Y642721D01*
X-668832Y652221D01*
X-672998Y661111D01*
X-681532Y673150D01*
X-682294Y677062D01*
X-681532Y680974D01*
X-679348Y684225D01*
X-676046Y686460D01*
X-672134Y687222D01*
X-63754Y687222D01*
X-55778Y688086D01*
X-48615Y690372D01*
X-41960Y694232D01*
X-37439Y698093D01*
X252475Y988009D01*
X257556Y994257D01*
X260959Y1000963D01*
X262940Y1008380D01*
X263398Y1014272D01*
X263398Y1071422D01*
X264160Y1075334D01*
X266395Y1078585D01*
X304088Y1116279D01*
X307340Y1118514D01*
X311251Y1119276D01*
X380898Y1119276D01*
X384810Y1118514D01*
X389229Y1115161D01*
X391566Y1111453D01*
X392176Y1107084D01*
X391922Y1104188D01*
X392785Y1094435D01*
X395325Y1084935D01*
X399440Y1076045D01*
X405079Y1067968D01*
X412038Y1061059D01*
X420065Y1055420D01*
X429006Y1051255D01*
X438454Y1048715D01*
X448259Y1047851D01*
X450189Y1048054D01*
X454101Y1047597D01*
X457606Y1045718D01*
X460095Y1042619D01*
X461213Y1038809D01*
X460756Y1034846D01*
X458825Y1031392D01*
X452932Y1024280D01*
X447497Y1015187D01*
X443585Y1005332D01*
X441350Y994968D01*
X440740Y984402D01*
X441909Y973836D01*
X444703Y963625D01*
X449122Y953973D01*
X455015Y945184D01*
X462280Y937412D01*
X470662Y930960D01*
X479958Y925880D01*
X490016Y922426D01*
X500430Y920546D01*
X511048Y920445D01*
X521512Y921969D01*
X525526Y923290D01*
X529539Y923696D01*
X533450Y922528D01*
X536549Y919937D01*
X538378Y916330D01*
X538683Y912317D01*
X537413Y908456D01*
X535279Y904849D01*
X531469Y894943D01*
X529285Y884580D01*
X528777Y873963D01*
X529996Y863447D01*
X532892Y853236D01*
X537413Y843635D01*
X543356Y834898D01*
X550672Y827176D01*
X559104Y820775D01*
X568502Y815797D01*
X578510Y812393D01*
X588975Y810615D01*
X599592Y810564D01*
X610057Y812241D01*
X620115Y815543D01*
X629513Y820419D01*
X638048Y826719D01*
X645414Y834339D01*
X651510Y843026D01*
X656082Y852576D01*
X659079Y862736D01*
X660450Y873252D01*
X660044Y883869D01*
X658012Y894232D01*
X654304Y904189D01*
X649020Y913384D01*
X642366Y921664D01*
X634492Y928725D01*
X625551Y934415D01*
X615848Y938631D01*
X605536Y941222D01*
X594969Y942136D01*
X584403Y941324D01*
X575208Y939139D01*
X571398Y938936D01*
X567791Y940206D01*
X564896Y942644D01*
X563118Y946048D01*
X562711Y949807D01*
X563727Y953516D01*
X567893Y961948D01*
X570992Y972108D01*
X572414Y982624D01*
X572109Y993241D01*
X570128Y1003655D01*
X566521Y1013612D01*
X561340Y1022858D01*
X554736Y1031138D01*
X546912Y1038301D01*
X538022Y1044092D01*
X528320Y1048359D01*
X518058Y1051052D01*
X507492Y1052017D01*
X500075Y1051509D01*
X496316Y1051966D01*
X492963Y1053795D01*
X490524Y1056690D01*
X489356Y1060246D01*
X489508Y1064056D01*
X491083Y1067511D01*
X497078Y1076045D01*
X501192Y1084935D01*
X504850Y1098956D01*
X507187Y1101953D01*
X510438Y1103934D01*
X514197Y1104544D01*
X517906Y1103731D01*
X521055Y1101648D01*
X550519Y1072642D01*
X590905Y1030071D01*
X629818Y986129D01*
X667258Y940917D01*
X703122Y894435D01*
X737412Y846785D01*
X770077Y798017D01*
X801065Y748182D01*
X830326Y697280D01*
X857859Y645464D01*
X883666Y592683D01*
X907643Y539140D01*
X929792Y484784D01*
X950061Y429666D01*
X968502Y373938D01*
X985012Y317601D01*
X999642Y260756D01*
X1012291Y203454D01*
X1023010Y145745D01*
X1031798Y87731D01*
X1038606Y29413D01*
X1043432Y-29108D01*
X1046276Y-87731D01*
X1047140Y-146405D01*
X1046022Y-205079D01*
X1042924Y-263702D01*
X1037844Y-322173D01*
X1030732Y-380492D01*
X1021740Y-438454D01*
X1010716Y-496112D01*
X999693Y-544931D01*
X998169Y-548487D01*
X995375Y-551180D01*
X991768Y-552653D01*
X987907Y-552653D01*
X984300Y-551230D01*
X981506Y-548487D01*
X977392Y-542645D01*
X970432Y-535686D01*
X962406Y-530047D01*
X953465Y-525932D01*
X944016Y-523392D01*
X934212Y-522528D01*
X924407Y-523392D01*
X914958Y-525932D01*
X906018Y-530047D01*
X897991Y-535686D01*
X894384Y-539292D01*
X891082Y-541528D01*
X887171Y-542290D01*
X854151Y-542290D01*
X850290Y-541528D01*
X846988Y-539292D01*
X449122Y-141478D01*
X443179Y-136601D01*
X436880Y-133248D01*
X430022Y-131165D01*
X422401Y-130403D01*
X233730Y-130403D01*
X229870Y-129641D01*
X226567Y-127406D01*
X111048Y-11938D01*
X105105Y-7061D01*
X98806Y-3708D01*
X91948Y-1625D01*
X84328Y-863D01*
X-87376Y-863D01*
X-91084Y-152D01*
X-94335Y1879D01*
X-96570Y4978D01*
X-97993Y8128D01*
X-103632Y16154D01*
X-107645Y20167D01*
X-109829Y23418D01*
X-110591Y27330D01*
X-109829Y31242D01*
X-107645Y34493D01*
X-104343Y36728D01*
X-100431Y37490D01*
X-89154Y37490D01*
X-81178Y38354D01*
X-74015Y40640D01*
X-67360Y44500D01*
X-62839Y48361D01*
X-34239Y76911D01*
X-30988Y79146D01*
X-27076Y79908D01*
X315823Y79908D01*
X319481Y79248D01*
X322630Y77317D01*
X324916Y74371D01*
X325932Y70815D01*
X325678Y67106D01*
X325018Y64668D01*
X324154Y54864D01*
X325018Y45059D01*
X327558Y35610D01*
X331673Y26670D01*
X337312Y18643D01*
X344271Y11684D01*
X352298Y6045D01*
X361238Y1930D01*
X370687Y-609D01*
X380492Y-1473D01*
X390296Y-609D01*
X399745Y1930D01*
X408686Y6045D01*
X416712Y11684D01*
X423672Y18643D01*
X429310Y26670D01*
X433425Y35610D01*
X435965Y45059D01*
X436829Y54864D01*
X435965Y64668D01*
X435305Y67106D01*
X435051Y70815D01*
X436067Y74371D01*
X438353Y77317D01*
X441502Y79248D01*
X445160Y79908D01*
X449783Y79908D01*
X453643Y79146D01*
X456946Y76962D01*
X624636Y-90627D01*
X630885Y-95707D01*
X637590Y-99110D01*
X645007Y-101092D01*
X650900Y-101600D01*
X743915Y-101600D01*
X747826Y-102362D01*
X751128Y-104546D01*
X753313Y-107848D01*
X754075Y-111760D01*
X754075Y-183032D01*
X753313Y-186893D01*
X751128Y-190195D01*
X746963Y-194310D01*
X741324Y-202387D01*
X737209Y-211277D01*
X734669Y-220776D01*
X733806Y-230581D01*
X734669Y-240334D01*
X737209Y-249834D01*
X741324Y-258724D01*
X746963Y-266801D01*
X753922Y-273710D01*
X761949Y-279349D01*
X770890Y-283514D01*
X780338Y-286054D01*
X790143Y-286918D01*
X799947Y-286054D01*
X809396Y-283514D01*
X818337Y-279349D01*
X826363Y-273710D01*
X833323Y-266801D01*
X838962Y-258724D01*
X843076Y-249834D01*
X845616Y-240334D01*
X846480Y-230581D01*
X845616Y-220776D01*
X843076Y-211277D01*
X838962Y-202387D01*
X833323Y-194310D01*
X829157Y-190195D01*
X826973Y-186893D01*
X826211Y-183032D01*
X826211Y-65786D01*
X826008Y-61772D01*
X825398Y-58013D01*
X824433Y-54356D01*
X823061Y-50850D01*
X821334Y-47498D01*
X819302Y-44348D01*
X816914Y-41402D01*
X814273Y-38709D01*
X811326Y-36372D01*
X808177Y-34290D01*
X804824Y-32613D01*
X801268Y-31242D01*
X797661Y-30276D01*
X793902Y-29667D01*
X789889Y-29464D01*
X669645Y-29464D01*
X665784Y-28702D01*
X662482Y-26466D01*
X494741Y141122D01*
X493014Y142544D01*
X490372Y145745D01*
X489254Y149707D01*
X489813Y153822D01*
X491947Y157378D01*
X495350Y159766D01*
X499364Y160578D01*
X802538Y160578D01*
X806399Y159816D01*
X809701Y157632D01*
X866444Y100888D01*
X872439Y96062D01*
X876808Y93675D01*
X883564Y91490D01*
X885748Y90474D01*
X887679Y88950D01*
X895502Y81026D01*
X903478Y75387D01*
X912418Y71272D01*
X921867Y68732D01*
X931671Y67868D01*
X941476Y68732D01*
X950925Y71272D01*
X959866Y75387D01*
X967892Y81026D01*
X974852Y87985D01*
X980490Y96012D01*
X984605Y104952D01*
X987145Y114401D01*
X988009Y124206D01*
X987145Y134010D01*
X984605Y143459D01*
X980490Y152400D01*
X974852Y160426D01*
X967892Y167386D01*
X959866Y173024D01*
X950925Y177139D01*
X941476Y179679D01*
X937209Y180086D01*
X932992Y181406D01*
X929741Y184353D01*
X928065Y188417D01*
X928268Y192836D01*
X930300Y196748D01*
X933754Y199390D01*
X942035Y203250D01*
X950061Y208889D01*
X957021Y215798D01*
X962660Y223875D01*
X966774Y232765D01*
X969314Y242265D01*
X970178Y252018D01*
X969314Y261823D01*
X966774Y271322D01*
X962660Y280212D01*
X957021Y288290D01*
X950061Y295198D01*
X942035Y300837D01*
X933094Y305003D01*
X923645Y307543D01*
X913841Y308406D01*
X904036Y307543D01*
X894587Y305003D01*
X885647Y300837D01*
X877620Y295198D01*
X870661Y288290D01*
X865022Y280212D01*
X860907Y271322D01*
X858367Y261823D01*
X857503Y252018D01*
X858367Y242265D01*
X861974Y228600D01*
X861415Y224688D01*
X859332Y221284D01*
X856183Y218948D01*
X852322Y217982D01*
X848410Y218592D01*
X845058Y220573D01*
X839266Y225806D01*
X832713Y229565D01*
X825550Y231902D01*
X817575Y232714D01*
X565556Y232714D01*
X561289Y233679D01*
X557784Y236372D01*
X555752Y240284D01*
X555548Y244652D01*
X557276Y248716D01*
X559765Y252323D01*
X563930Y261213D01*
X566470Y270713D01*
X567334Y280466D01*
X566470Y290271D01*
X563930Y299770D01*
X559765Y308660D01*
X554126Y316738D01*
X547217Y323646D01*
X539140Y329285D01*
X530250Y333451D01*
X520750Y335991D01*
X510997Y336854D01*
X501192Y335991D01*
X491693Y333451D01*
X482803Y329285D01*
X474726Y323646D01*
X467817Y316738D01*
X462178Y308660D01*
X458012Y299770D01*
X455472Y290271D01*
X454609Y280466D01*
X455472Y270713D01*
X458012Y261213D01*
X462178Y252323D01*
X466547Y246075D01*
X468122Y242620D01*
X468274Y238861D01*
X467106Y235305D01*
X464667Y232410D01*
X461365Y230581D01*
X458266Y229565D01*
X451612Y225755D01*
X447141Y221894D01*
X432003Y206756D01*
X428701Y204571D01*
X424789Y203809D01*
X-99618Y203809D01*
X-103530Y204571D01*
X-106781Y206756D01*
X-111912Y211886D01*
X-119989Y217525D01*
X-128879Y221691D01*
X-138379Y224231D01*
X-148132Y225094D01*
X-157937Y224231D01*
X-167436Y221691D01*
X-176326Y217525D01*
X-184404Y211886D01*
X-191414Y204825D01*
X-194665Y201879D01*
X-198831Y200558D01*
X-203200Y201117D01*
X-206908Y203504D01*
X-213258Y209854D01*
X-221335Y215493D01*
X-230225Y219659D01*
X-239725Y222199D01*
X-249478Y223062D01*
X-259283Y222199D01*
X-268782Y219659D01*
X-277672Y215493D01*
X-285750Y209854D01*
X-292658Y202946D01*
X-298297Y194868D01*
X-302463Y185978D01*
X-305003Y176479D01*
X-305866Y166674D01*
X-305003Y156921D01*
X-302463Y147421D01*
X-298297Y138531D01*
X-292658Y130454D01*
X-285750Y123545D01*
X-277672Y117906D01*
X-268782Y113741D01*
X-259283Y111201D01*
X-249478Y110337D01*
X-244805Y110744D01*
X-240436Y110185D01*
X-236728Y107797D01*
X-177546Y48463D01*
X-173786Y45415D01*
X-171348Y42570D01*
X-170129Y39014D01*
X-170281Y35306D01*
X-171754Y31851D01*
X-174345Y29159D01*
X-183032Y23114D01*
X-189992Y16154D01*
X-195630Y8128D01*
X-199745Y-812D01*
X-202285Y-10261D01*
X-203149Y-20066D01*
X-202285Y-29870D01*
X-199745Y-39319D01*
X-195630Y-48260D01*
X-189992Y-56286D01*
X-183032Y-63246D01*
X-175006Y-68884D01*
X-166674Y-72745D01*
X-163474Y-75082D01*
X-161391Y-78486D01*
X-160782Y-82397D01*
X-161747Y-86258D01*
X-164236Y-91643D01*
X-166776Y-101142D01*
X-167640Y-110947D01*
X-166776Y-120700D01*
X-164236Y-130200D01*
X-160121Y-139090D01*
X-154482Y-147167D01*
X-147523Y-154076D01*
X-139496Y-159715D01*
X-130556Y-163880D01*
X-121107Y-166420D01*
X-111302Y-167284D01*
X-101498Y-166420D01*
X-92049Y-163880D01*
X-83108Y-159715D01*
X-75082Y-154076D01*
X-71374Y-150418D01*
X-68072Y-148183D01*
X-64211Y-147421D01*
X59639Y-147421D01*
X63500Y-148183D01*
X66802Y-150418D01*
X105206Y-188823D01*
X107442Y-192125D01*
X108204Y-195986D01*
X108204Y-319887D01*
X108966Y-327507D01*
X111048Y-334365D01*
X114401Y-340664D01*
X119278Y-346608D01*
X182067Y-409397D01*
X187960Y-414274D01*
X194310Y-417626D01*
X201168Y-419709D01*
X208788Y-420471D01*
X312928Y-420471D01*
X320548Y-419709D01*
X327406Y-417626D01*
X330504Y-416001D01*
X334568Y-414782D01*
X338988Y-415493D01*
X339496Y-410819D01*
X341782Y-407263D01*
X390398Y-358698D01*
X393700Y-356463D01*
X397560Y-355701D01*
X463245Y-355701D01*
X467106Y-356463D01*
X470408Y-358698D01*
X475792Y-364083D01*
X478028Y-367334D01*
X478790Y-371246D01*
X478790Y-384251D01*
X478028Y-388162D01*
X475792Y-391464D01*
X472185Y-395071D01*
X466547Y-403098D01*
X462432Y-412038D01*
X461162Y-416610D01*
X459536Y-420065D01*
X456742Y-422605D01*
X453186Y-423976D01*
X449376Y-423976D01*
X445871Y-422554D01*
X441655Y-419862D01*
X430530Y-414782D01*
X418795Y-411327D01*
X406654Y-409549D01*
X394411Y-409549D01*
X382270Y-411327D01*
X370484Y-414782D01*
X359359Y-419862D01*
X354482Y-423011D01*
X350520Y-424484D01*
X346303Y-424281D01*
X345186Y-423672D01*
X345490Y-425196D01*
X344525Y-429259D01*
X341985Y-432612D01*
X339801Y-434492D01*
X331774Y-443788D01*
X325120Y-454050D01*
X320040Y-465226D01*
X316585Y-476961D01*
X314858Y-489102D01*
X314858Y-501345D01*
X316585Y-513486D01*
X320040Y-525221D01*
X323189Y-532130D01*
X324104Y-536092D01*
X323392Y-540105D01*
X321157Y-543509D01*
X-253339Y-1118006D01*
X-256794Y-1120241D01*
X-260858Y-1121003D01*
X-264820Y-1120038D01*
X-268122Y-1117600D01*
X-270205Y-1114044D01*
X-270662Y-1109929D01*
X-270052Y-1102868D01*
X-270916Y-1093063D01*
X-273456Y-1083614D01*
X-277571Y-1074674D01*
X-283210Y-1066647D01*
X-290169Y-1059688D01*
X-298196Y-1054049D01*
X-307136Y-1049934D01*
X-316585Y-1047394D01*
X-326390Y-1046530D01*
X-336194Y-1047394D01*
X-345643Y-1049934D01*
X-354584Y-1054049D01*
X-362610Y-1059688D01*
X-369570Y-1066647D01*
X-375208Y-1074674D01*
X-379323Y-1083614D01*
X-381863Y-1093063D01*
X-382168Y-1096416D01*
X-383082Y-1099820D01*
X-385114Y-1102715D01*
X-388010Y-1104747D01*
X-391414Y-1105662D01*
X-394614Y-1105966D01*
X-404063Y-1108506D01*
X-413004Y-1112621D01*
X-421030Y-1118260D01*
X-427990Y-1125220D01*
X-433628Y-1133246D01*
X-434543Y-1135227D01*
X-436829Y-1138428D01*
X-440131Y-1140460D01*
X-443992Y-1141120D01*
X-447801Y-1140256D01*
X-451002Y-1138072D01*
X-453135Y-1134770D01*
X-453898Y-1130960D01*
X-453898Y-798880D01*
X-453135Y-795020D01*
X-451002Y-791768D01*
X-447801Y-789533D01*
X-443992Y-788720D01*
X-440131Y-789381D01*
X-436829Y-791413D01*
X-434543Y-794562D01*
X-433679Y-796442D01*
X-428040Y-804519D01*
X-421081Y-811428D01*
X-413054Y-817067D01*
X-407365Y-819708D01*
X-404469Y-821740D01*
X-402437Y-824585D01*
X-401523Y-827938D01*
X-401777Y-831443D01*
X-410870Y-867308D01*
X-411734Y-873607D01*
X-411175Y-879348D01*
X-409346Y-885088D01*
X-407619Y-888339D01*
X-389636Y-916736D01*
X-385826Y-921512D01*
X-383946Y-923188D01*
X-378714Y-926490D01*
X-376936Y-927912D01*
X-276910Y-1027937D01*
X-272135Y-1031748D01*
X-266903Y-1034287D01*
X-261569Y-1035507D01*
X-255168Y-1035507D01*
X-249834Y-1034287D01*
X-244602Y-1031748D01*
X-240080Y-1028141D01*
X-236423Y-1023619D01*
X-233934Y-1018387D01*
X-232664Y-1012748D01*
X-232460Y-1009548D01*
X-232460Y-978052D01*
X-231698Y-974140D01*
X-229463Y-970838D01*
X88138Y-653237D01*
X89458Y-652119D01*
X96621Y-647090D01*
X103581Y-640181D01*
X108559Y-633018D01*
X109728Y-631647D01*
X127812Y-613562D01*
X131622Y-608838D01*
X134112Y-603605D01*
X135382Y-597966D01*
X135585Y-594766D01*
X135585Y-559003D01*
X134924Y-552958D01*
X132994Y-547471D01*
X129895Y-542594D01*
X127812Y-540207D01*
X-165557Y-246837D01*
X-169367Y-243636D01*
X-177850Y-239318D01*
X-180340Y-236829D01*
X-181813Y-233629D01*
X-181965Y-228295D01*
X-182829Y-218490D01*
X-185369Y-208991D01*
X-189484Y-200101D01*
X-195122Y-192024D01*
X-202082Y-185115D01*
X-210108Y-179476D01*
X-219049Y-175310D01*
X-228498Y-172770D01*
X-238302Y-171907D01*
X-248107Y-172770D01*
X-257556Y-175310D01*
X-266496Y-179476D01*
X-274523Y-185115D01*
X-276098Y-186690D01*
X-279400Y-188874D01*
X-283311Y-189687D01*
X-348843Y-189687D01*
X-356870Y-190449D01*
X-364083Y-192633D01*
X-370738Y-196189D01*
X-376986Y-201320D01*
X-438200Y-262534D01*
X-441502Y-264769D01*
X-445414Y-265531D01*
X-704342Y-265531D01*
X-712368Y-266344D01*
X-719582Y-268528D01*
X-726287Y-272084D01*
X-732485Y-277215D01*
X-833119Y-377799D01*
X-836320Y-379984D01*
X-840130Y-380746D01*
X-843940Y-380085D01*
X-847191Y-378053D01*
X-849477Y-374904D01*
X-852932Y-367487D01*
X-858570Y-359410D01*
X-865530Y-352501D01*
X-873556Y-346862D01*
X-882497Y-342696D01*
X-891946Y-340156D01*
X-901750Y-339293D01*
X-911555Y-340156D01*
X-921003Y-342696D01*
X-929944Y-346862D01*
X-937971Y-352501D01*
X-944930Y-359410D01*
X-950569Y-367487D01*
X-954684Y-376377D01*
X-957224Y-385876D01*
X-958087Y-395681D01*
X-957224Y-405434D01*
X-954684Y-414934D01*
X-950569Y-423824D01*
X-944930Y-431901D01*
X-937971Y-438810D01*
X-929944Y-444449D01*
X-921003Y-448614D01*
X-911555Y-451154D01*
X-901750Y-452018D01*
X-891946Y-451154D01*
X-882497Y-448614D01*
X-872744Y-444042D01*
X-868781Y-443077D01*
X-864768Y-443788D01*
X-861364Y-445922D01*
X-859078Y-449275D01*
X-858266Y-453237D01*
X-858266Y-679805D01*
X-857453Y-687832D01*
X-855268Y-695045D01*
X-851712Y-701751D01*
X-846937Y-707593D01*
X-841095Y-712368D01*
X-834390Y-715924D01*
X-827176Y-718108D01*
X-821639Y-718667D01*
X-818286Y-719582D01*
X-815441Y-721614D01*
X-813511Y-723544D01*
X-805484Y-729183D01*
X-796544Y-733348D01*
X-787095Y-735888D01*
X-777290Y-736752D01*
X-767486Y-735888D01*
X-758037Y-733348D01*
X-749096Y-729183D01*
X-741070Y-723544D01*
X-734110Y-716635D01*
X-728472Y-708558D01*
X-724357Y-699668D01*
X-721817Y-690168D01*
X-720953Y-680415D01*
X-721817Y-670610D01*
X-724357Y-661111D01*
X-728472Y-652221D01*
X-734110Y-644144D01*
X-741070Y-637235D01*
X-749096Y-631596D01*
X-758037Y-627430D01*
X-767486Y-624890D01*
X-771753Y-624535D01*
X-775360Y-623519D01*
X-778357Y-621284D01*
X-780338Y-618083D01*
X-781050Y-614426D01*
X-781050Y-439166D01*
X-780288Y-435254D01*
X-778052Y-431952D01*
X-691845Y-345744D01*
X-688543Y-343509D01*
X-684631Y-342747D01*
X-494030Y-342747D01*
X-490016Y-343560D01*
X-486664Y-345897D01*
X-484530Y-349351D01*
X-483870Y-353415D01*
X-484885Y-357378D01*
X-487730Y-360883D01*
X-581964Y-455168D01*
X-587502Y-461873D01*
X-588873Y-463804D01*
X-593344Y-471220D01*
X-594410Y-473354D01*
X-598474Y-483616D01*
X-600557Y-492048D01*
X-600964Y-494385D01*
X-601776Y-503021D01*
X-601827Y-555142D01*
X-602589Y-559003D01*
X-604774Y-562305D01*
X-667816Y-625398D01*
X-673354Y-632053D01*
X-674725Y-633984D01*
X-680262Y-643534D01*
X-683564Y-651560D01*
X-684326Y-653846D01*
X-686409Y-662279D01*
X-686816Y-664616D01*
X-687628Y-673252D01*
X-687679Y-1015390D01*
X-688340Y-1019048D01*
X-690270Y-1022197D01*
X-693216Y-1024483D01*
X-696772Y-1025499D01*
X-700481Y-1025194D01*
X-708761Y-1023010D01*
X-718566Y-1022146D01*
X-728370Y-1023010D01*
X-737819Y-1025550D01*
X-746760Y-1029665D01*
X-759104Y-1038555D01*
X-763016Y-1039317D01*
X-766927Y-1038555D01*
X-778764Y-1030173D01*
X-787704Y-1026058D01*
X-797153Y-1023518D01*
X-806958Y-1022654D01*
X-816762Y-1023518D01*
X-826211Y-1026058D01*
X-835152Y-1030173D01*
X-843178Y-1035812D01*
X-850137Y-1042771D01*
X-855776Y-1050798D01*
X-859891Y-1059738D01*
X-862431Y-1069187D01*
X-863295Y-1078992D01*
X-862431Y-1088796D01*
X-859891Y-1098245D01*
X-855776Y-1107186D01*
X-850137Y-1115212D01*
X-843178Y-1122172D01*
X-835152Y-1127810D01*
X-826211Y-1131925D01*
X-816762Y-1134465D01*
X-806958Y-1135329D01*
X-797153Y-1134465D01*
X-787704Y-1131925D01*
X-778764Y-1127810D01*
X-766419Y-1118920D01*
X-762508Y-1118158D01*
X-758596Y-1118920D01*
X-746760Y-1127302D01*
X-737819Y-1131417D01*
X-728370Y-1133957D01*
X-718566Y-1134821D01*
X-708761Y-1133957D01*
X-700481Y-1131773D01*
X-696772Y-1131468D01*
X-693216Y-1132484D01*
X-690270Y-1134770D01*
X-688340Y-1137920D01*
X-687679Y-1141577D01*
X-687679Y-1169720D01*
X-686816Y-1181100D01*
X-684377Y-1191869D01*
X-680313Y-1202182D01*
X-674776Y-1211732D01*
X-667918Y-1220368D01*
X-659790Y-1227886D01*
X-650697Y-1234135D01*
X-640740Y-1238910D01*
X-630174Y-1242161D01*
X-619252Y-1243838D01*
X-608177Y-1243838D01*
X-597255Y-1242161D01*
X-586689Y-1238910D01*
X-576732Y-1234135D01*
X-572516Y-1231239D01*
X-569315Y-1229766D01*
X-565759Y-1229512D01*
X-562356Y-1230477D01*
X-554888Y-1234084D01*
X-544322Y-1237335D01*
X-533400Y-1239012D01*
X-522325Y-1239012D01*
X-511403Y-1237335D01*
X-500837Y-1234084D01*
X-490880Y-1229309D01*
X-481787Y-1223060D01*
X-473659Y-1215542D01*
X-466801Y-1206906D01*
X-461264Y-1197356D01*
X-457200Y-1187043D01*
X-456438Y-1183690D01*
X-454710Y-1179880D01*
X-451561Y-1177137D01*
X-447598Y-1175816D01*
X-443484Y-1176274D01*
X-439826Y-1178306D01*
X-437337Y-1181658D01*
X-433628Y-1189634D01*
X-427786Y-1197965D01*
X-426110Y-1202029D01*
X-426313Y-1206449D01*
X-428345Y-1210360D01*
X-431901Y-1213002D01*
X-435406Y-1214628D01*
X-445719Y-1221282D01*
X-455015Y-1229309D01*
X-463042Y-1238554D01*
X-469646Y-1248867D01*
X-474726Y-1259992D01*
X-478180Y-1271778D01*
X-479907Y-1283868D01*
X-479907Y-1296162D01*
X-478180Y-1308252D01*
X-474726Y-1320038D01*
X-469646Y-1331163D01*
X-463042Y-1341475D01*
X-454761Y-1351026D01*
X-404317Y-1401419D01*
X-402183Y-1404620D01*
X-401370Y-1408328D01*
X-401980Y-1412087D01*
X-403910Y-1415389D01*
X-406958Y-1417675D01*
X-410616Y-1418742D01*
X-418287Y-1419402D01*
X-427735Y-1421942D01*
X-436676Y-1426108D01*
X-444703Y-1431747D01*
X-451662Y-1438656D01*
X-457301Y-1446733D01*
X-463702Y-1460500D01*
X-467207Y-1463192D01*
X-471525Y-1464106D01*
X-650646Y-1463954D01*
X-658418Y-1464716D01*
X-665429Y-1466850D01*
X-671880Y-1470304D01*
X-677519Y-1474927D01*
X-681939Y-1480261D01*
X-685444Y-1483004D01*
X-689762Y-1483969D01*
X-714349Y-1483969D01*
X-718210Y-1483207D01*
X-721512Y-1481023D01*
X-725271Y-1477264D01*
X-733298Y-1471625D01*
X-742238Y-1467459D01*
X-751687Y-1464919D01*
X-761492Y-1464106D01*
X-771296Y-1464919D01*
X-780745Y-1467459D01*
X-789686Y-1471625D01*
X-791819Y-1473149D01*
X-795578Y-1474774D01*
X-799693Y-1474774D01*
X-803452Y-1473149D01*
X-809244Y-1469085D01*
X-818184Y-1464919D01*
X-827633Y-1462379D01*
X-837641Y-1461516D01*
X-841044Y-1460601D01*
X-843940Y-1458569D01*
X-1128064Y-1174445D01*
X-1130300Y-1171143D01*
X-1131062Y-1167282D01*
X-1131062Y-596747D01*
X-1131824Y-588975D01*
X-1133957Y-581964D01*
X-1137412Y-575513D01*
X-1142339Y-569468D01*
X-1240586Y-471220D01*
X-1242822Y-467918D01*
X-1243584Y-464058D01*
X-1243584Y-423316D01*
X-1242822Y-419455D01*
X-1240586Y-416153D01*
X-1237792Y-413359D01*
X-1232154Y-405282D01*
X-1228039Y-396392D01*
X-1225499Y-386892D01*
X-1224635Y-377139D01*
X-1225499Y-367334D01*
X-1228039Y-357835D01*
X-1232154Y-348945D01*
X-1237792Y-340868D01*
X-1244752Y-333959D01*
X-1246682Y-332587D01*
X-1249578Y-329488D01*
X-1250950Y-325475D01*
X-1250543Y-321208D01*
X-1248410Y-317550D01*
X-1245006Y-315010D01*
X-1240840Y-314147D01*
X-1174343Y-314147D01*
X-1170686Y-314807D01*
X-1167536Y-316738D01*
X-1165250Y-319684D01*
X-1164234Y-323240D01*
X-1164488Y-326898D01*
X-1166266Y-333552D01*
X-1167130Y-343357D01*
X-1166266Y-353110D01*
X-1163726Y-362610D01*
X-1159611Y-371500D01*
X-1153972Y-379577D01*
X-1147013Y-386486D01*
X-1138986Y-392125D01*
X-1130046Y-396290D01*
X-1120597Y-398830D01*
X-1110792Y-399694D01*
X-1100988Y-398830D01*
X-1091539Y-396290D01*
X-1082598Y-392125D01*
X-1074572Y-386486D01*
X-1067612Y-379577D01*
X-1061974Y-371500D01*
X-1057859Y-362610D01*
X-1055319Y-353110D01*
X-1054404Y-342798D01*
X-1053490Y-339394D01*
X-1051458Y-336499D01*
X-1048562Y-334467D01*
X-1045159Y-333552D01*
X-1036218Y-332790D01*
X-1026769Y-330250D01*
X-1017828Y-326085D01*
X-1009802Y-320446D01*
X-1002842Y-313537D01*
X-997000Y-305003D01*
X-994359Y-301548D01*
X-990447Y-299516D01*
X-986028Y-299313D01*
X-981964Y-300990D01*
X-980236Y-302209D01*
X-971296Y-306374D01*
X-961847Y-308914D01*
X-952042Y-309778D01*
X-942238Y-308914D01*
X-932789Y-306374D01*
X-923848Y-302209D01*
X-915822Y-296570D01*
X-908862Y-289661D01*
X-903224Y-281584D01*
X-902512Y-280009D01*
X-899820Y-276504D01*
X-895908Y-274472D01*
X-891540Y-274320D01*
X-887476Y-275996D01*
X-884478Y-278079D01*
X-875537Y-282244D01*
X-866089Y-284784D01*
X-856284Y-285648D01*
X-846480Y-284784D01*
X-837031Y-282244D01*
X-828090Y-278079D01*
X-820064Y-272440D01*
X-813104Y-265531D01*
X-807466Y-257454D01*
X-803351Y-248564D01*
X-800811Y-239064D01*
X-799947Y-229311D01*
X-800811Y-219506D01*
X-803351Y-210007D01*
X-807466Y-201117D01*
X-813104Y-193040D01*
X-820064Y-186131D01*
X-828090Y-180492D01*
X-837031Y-176326D01*
X-846480Y-173786D01*
X-856284Y-172923D01*
X-866089Y-173786D01*
X-875537Y-176326D01*
X-884478Y-180492D01*
X-892505Y-186131D01*
X-899464Y-193040D01*
X-905103Y-201117D01*
X-905814Y-202692D01*
X-908507Y-206197D01*
X-912418Y-208229D01*
X-916787Y-208381D01*
X-920851Y-206705D01*
X-923848Y-204622D01*
X-932789Y-200456D01*
X-942238Y-197916D01*
X-952042Y-197053D01*
X-961847Y-197916D01*
X-971296Y-200456D01*
X-980236Y-204622D01*
X-988263Y-210261D01*
X-995222Y-217170D01*
X-1001064Y-225704D01*
X-1003706Y-229158D01*
X-1007618Y-231190D01*
X-1012037Y-231394D01*
X-1016101Y-229717D01*
X-1017828Y-228498D01*
X-1026769Y-224332D01*
X-1036218Y-221792D01*
X-1046022Y-220929D01*
X-1055827Y-221792D01*
X-1065276Y-224332D01*
X-1074216Y-228498D01*
X-1082243Y-234137D01*
X-1089202Y-241046D01*
X-1092606Y-245059D01*
X-1095502Y-246532D01*
X-1098651Y-247091D01*
X-1147572Y-247091D01*
X-1151483Y-246278D01*
X-1154785Y-244094D01*
X-1156970Y-240792D01*
X-1157732Y-236931D01*
X-1156970Y-233019D01*
X-1148842Y-221386D01*
X-1144727Y-212496D01*
X-1142187Y-202996D01*
X-1141323Y-193243D01*
X-1142187Y-183438D01*
X-1144727Y-173939D01*
X-1148842Y-165049D01*
X-1154480Y-156972D01*
X-1161440Y-150063D01*
X-1169466Y-144424D01*
X-1178407Y-140258D01*
X-1187856Y-137718D01*
X-1197660Y-136855D01*
X-1207465Y-137718D01*
X-1216914Y-140258D01*
X-1225854Y-144424D01*
X-1233881Y-150063D01*
X-1240840Y-156972D01*
X-1246479Y-165049D01*
X-1250594Y-173939D01*
X-1253134Y-183438D01*
X-1253998Y-193243D01*
X-1253134Y-202996D01*
X-1250594Y-212496D01*
X-1246479Y-221386D01*
X-1238351Y-233019D01*
X-1237589Y-236931D01*
X-1238351Y-240792D01*
X-1240536Y-244094D01*
X-1243838Y-246278D01*
X-1247749Y-247091D01*
X-1768602Y-247091D01*
X-1776120Y-247853D01*
X-1782775Y-250037D01*
X-1788922Y-253593D01*
X-1793138Y-257149D01*
X-1830832Y-294843D01*
X-1835607Y-300736D01*
X-1838756Y-306933D01*
X-1840636Y-313842D01*
X-1841042Y-319328D01*
X-1841042Y-547776D01*
X-1841804Y-551688D01*
X-1844039Y-554939D01*
X-1850694Y-561594D01*
X-1856333Y-569671D01*
X-1860448Y-578561D01*
X-1862988Y-588060D01*
X-1863852Y-597865D01*
X-1862988Y-607618D01*
X-1860448Y-617118D01*
X-1856333Y-626008D01*
X-1850694Y-634085D01*
X-1843735Y-640994D01*
X-1835708Y-646633D01*
X-1826768Y-650798D01*
X-1817319Y-653338D01*
X-1807514Y-654202D01*
X-1797710Y-653338D01*
X-1788261Y-650798D01*
X-1779320Y-646633D01*
X-1771294Y-640994D01*
X-1764334Y-634085D01*
X-1758696Y-626008D01*
X-1754581Y-617118D01*
X-1752041Y-607618D01*
X-1751177Y-597865D01*
X-1752041Y-588060D01*
X-1754581Y-578561D01*
X-1758696Y-569671D01*
X-1764334Y-561594D01*
X-1770989Y-554939D01*
X-1773224Y-551637D01*
X-1773986Y-547776D01*
X-1773986Y-337058D01*
X-1773224Y-333146D01*
X-1770989Y-329844D01*
X-1758238Y-317093D01*
X-1754936Y-314909D01*
X-1751075Y-314147D01*
X-1321104Y-314147D01*
X-1316939Y-315010D01*
X-1313535Y-317550D01*
X-1311402Y-321208D01*
X-1310995Y-325475D01*
X-1312367Y-329488D01*
X-1315262Y-332587D01*
X-1317193Y-333959D01*
X-1324152Y-340868D01*
X-1329791Y-348945D01*
X-1333906Y-357835D01*
X-1336446Y-367334D01*
X-1337310Y-377139D01*
X-1336446Y-386892D01*
X-1333906Y-396392D01*
X-1329791Y-405282D01*
X-1324152Y-413359D01*
X-1321257Y-416255D01*
X-1319022Y-419506D01*
X-1318260Y-423418D01*
X-1318260Y-483209D01*
X-1317498Y-490982D01*
X-1315364Y-497992D01*
X-1311910Y-504443D01*
X-1306982Y-510489D01*
X-1208735Y-608736D01*
X-1206500Y-612038D01*
X-1205738Y-615899D01*
X-1205738Y-1186434D01*
X-1204976Y-1194206D01*
X-1202842Y-1201216D01*
X-1199388Y-1207668D01*
X-1194460Y-1213713D01*
X-896721Y-1511401D01*
X-894689Y-1514297D01*
X-893826Y-1517700D01*
X-892911Y-1527657D01*
X-890371Y-1537157D01*
X-886256Y-1546047D01*
X-880618Y-1554124D01*
X-873658Y-1561033D01*
X-865632Y-1566672D01*
X-856691Y-1570837D01*
X-847242Y-1573377D01*
X-837437Y-1574241D01*
X-827633Y-1573377D01*
X-818184Y-1570837D01*
X-809244Y-1566672D01*
X-807110Y-1565198D01*
X-803351Y-1563573D01*
X-799236Y-1563573D01*
X-795426Y-1565198D01*
X-789686Y-1569212D01*
X-780745Y-1573377D01*
X-771296Y-1575917D01*
X-761492Y-1576781D01*
X-751687Y-1575917D01*
X-742238Y-1573377D01*
X-733298Y-1569212D01*
X-725271Y-1563573D01*
X-721563Y-1559864D01*
X-718261Y-1557680D01*
X-714349Y-1556918D01*
X-670814Y-1556918D01*
X-663194Y-1556156D01*
X-656386Y-1554073D01*
X-650087Y-1550720D01*
X-644194Y-1545894D01*
X-639927Y-1541627D01*
X-636676Y-1539443D01*
X-632764Y-1538681D01*
X-435609Y-1538833D01*
X-427837Y-1538071D01*
X-420878Y-1535938D01*
X-414223Y-1532382D01*
X-411429Y-1531416D01*
X-398678Y-1530400D01*
X-389229Y-1527860D01*
X-380288Y-1523695D01*
X-372262Y-1518056D01*
X-365302Y-1511147D01*
X-359664Y-1503070D01*
X-355549Y-1494180D01*
X-353009Y-1484680D01*
X-352145Y-1474927D01*
X-353009Y-1465122D01*
X-355193Y-1456791D01*
X-355447Y-1452524D01*
X-353872Y-1448562D01*
X-350824Y-1445564D01*
X-346811Y-1444091D01*
X-329692Y-1446377D01*
X-317449Y-1446377D01*
X-305308Y-1444650D01*
X-293522Y-1441196D01*
X-282397Y-1436116D01*
X-272084Y-1429461D01*
X-262839Y-1421434D01*
X-254812Y-1412189D01*
X-248158Y-1401876D01*
X-243078Y-1390751D01*
X-239623Y-1378966D01*
X-239217Y-1376222D01*
X-237642Y-1372057D01*
X-234442Y-1368958D01*
X-230174Y-1367586D01*
X-225755Y-1368094D01*
X-221996Y-1370482D01*
X-121208Y-1471320D01*
X-118821Y-1475079D01*
X-118262Y-1479499D01*
X-119684Y-1483715D01*
X-122783Y-1486966D01*
X-126949Y-1488541D01*
X-129692Y-1488948D01*
X-141427Y-1492402D01*
X-152603Y-1497482D01*
X-162864Y-1504086D01*
X-172161Y-1512112D01*
X-180187Y-1521409D01*
X-186791Y-1531721D01*
X-191871Y-1542846D01*
X-195326Y-1554581D01*
X-197104Y-1566722D01*
X-197104Y-1578965D01*
X-195326Y-1591106D01*
X-191871Y-1602892D01*
X-186791Y-1614017D01*
X-180187Y-1624330D01*
X-171907Y-1633880D01*
X-101701Y-1704035D01*
X-92202Y-1712315D01*
X-81889Y-1718919D01*
X-70713Y-1724050D01*
X-58978Y-1727504D01*
X-46837Y-1729232D01*
X-34594Y-1729232D01*
X-22453Y-1727504D01*
X-10718Y-1724050D01*
X457Y-1718919D01*
X10769Y-1712315D01*
X20015Y-1704289D01*
X28041Y-1695043D01*
X34645Y-1684731D01*
X39776Y-1673555D01*
X43230Y-1661820D01*
X43586Y-1659077D01*
X45212Y-1654911D01*
X48412Y-1651812D01*
X52628Y-1650390D01*
X57048Y-1650949D01*
X60858Y-1653336D01*
X103784Y-1696262D01*
X105918Y-1699463D01*
X106730Y-1703273D01*
X106070Y-1707083D01*
X104038Y-1710385D01*
X100939Y-1712671D01*
X55727Y-1733905D01*
X1524Y-1757222D01*
X-53441Y-1778711D01*
X-109067Y-1798320D01*
X-165354Y-1816100D01*
X-222148Y-1832000D01*
X-279501Y-1845970D01*
X-337261Y-1858060D01*
X-395376Y-1868170D01*
X-453796Y-1876348D01*
X-512470Y-1882546D01*
X-571347Y-1886813D01*
X-630275Y-1889099D01*
G37*

%LPC*%
G36*
X-471779Y-1810105D02*
G01*
X-461975Y-1809242D01*
X-452526Y-1806702D01*
X-443585Y-1802536D01*
X-435559Y-1796897D01*
X-428599Y-1789988D01*
X-422960Y-1781911D01*
X-418846Y-1773021D01*
X-416306Y-1763522D01*
X-415442Y-1753768D01*
X-416306Y-1743964D01*
X-418846Y-1734464D01*
X-422960Y-1725574D01*
X-428599Y-1717497D01*
X-435559Y-1710588D01*
X-443585Y-1704949D01*
X-452526Y-1700784D01*
X-461975Y-1698243D01*
X-471779Y-1697380D01*
X-481584Y-1698243D01*
X-491032Y-1700784D01*
X-499973Y-1704949D01*
X-508000Y-1710588D01*
X-514959Y-1717497D01*
X-520598Y-1725574D01*
X-524713Y-1734464D01*
X-527253Y-1743964D01*
X-528116Y-1753768D01*
X-527253Y-1763522D01*
X-524713Y-1773021D01*
X-520598Y-1781911D01*
X-514959Y-1789988D01*
X-508000Y-1796897D01*
X-499973Y-1802536D01*
X-491032Y-1806702D01*
X-481584Y-1809242D01*
G37*
G36*
X-1199032Y-1507998D02*
G01*
X-1189278Y-1507134D01*
X-1179779Y-1504594D01*
X-1170889Y-1500428D01*
X-1162812Y-1494790D01*
X-1155903Y-1487881D01*
X-1150264Y-1479804D01*
X-1146098Y-1470914D01*
X-1143558Y-1461414D01*
X-1142695Y-1451660D01*
X-1143558Y-1441856D01*
X-1146098Y-1432356D01*
X-1150264Y-1423466D01*
X-1155903Y-1415389D01*
X-1162812Y-1408480D01*
X-1170889Y-1402842D01*
X-1179779Y-1398676D01*
X-1189278Y-1396136D01*
X-1199032Y-1395272D01*
X-1208836Y-1396136D01*
X-1218336Y-1398676D01*
X-1227226Y-1402842D01*
X-1235303Y-1408480D01*
X-1242212Y-1415389D01*
X-1247851Y-1423466D01*
X-1252016Y-1432356D01*
X-1254556Y-1441856D01*
X-1255420Y-1451660D01*
X-1254556Y-1461414D01*
X-1252016Y-1470914D01*
X-1247851Y-1479804D01*
X-1242212Y-1487881D01*
X-1235303Y-1494790D01*
X-1227226Y-1500428D01*
X-1218336Y-1504594D01*
X-1208836Y-1507134D01*
G37*
G36*
X-815594Y-1293571D02*
G01*
X-805789Y-1292707D01*
X-796340Y-1290167D01*
X-787400Y-1286052D01*
X-779373Y-1280414D01*
X-772414Y-1273454D01*
X-766775Y-1265428D01*
X-762660Y-1256487D01*
X-760120Y-1247038D01*
X-759256Y-1237234D01*
X-760120Y-1227429D01*
X-762660Y-1217980D01*
X-766775Y-1209040D01*
X-772414Y-1201013D01*
X-779373Y-1194054D01*
X-787400Y-1188415D01*
X-796340Y-1184300D01*
X-805789Y-1181760D01*
X-815594Y-1180896D01*
X-825398Y-1181760D01*
X-834847Y-1184300D01*
X-843787Y-1188415D01*
X-851814Y-1194054D01*
X-858774Y-1201013D01*
X-864412Y-1209040D01*
X-868527Y-1217980D01*
X-871067Y-1227429D01*
X-871931Y-1237234D01*
X-871067Y-1247038D01*
X-868527Y-1256487D01*
X-864412Y-1265428D01*
X-858774Y-1273454D01*
X-851814Y-1280414D01*
X-843787Y-1286052D01*
X-834847Y-1290167D01*
X-825398Y-1292707D01*
G37*
G36*
X-1914296Y-1118362D02*
G01*
X-1904542Y-1117498D01*
X-1895043Y-1114958D01*
X-1886153Y-1110792D01*
X-1878075Y-1105154D01*
X-1871167Y-1098245D01*
X-1865528Y-1090168D01*
X-1861362Y-1081278D01*
X-1858822Y-1071778D01*
X-1857959Y-1062024D01*
X-1858619Y-1054862D01*
X-1858111Y-1050747D01*
X-1856079Y-1047191D01*
X-1852777Y-1044752D01*
X-1848764Y-1043787D01*
X-1844751Y-1044498D01*
X-1841296Y-1046784D01*
X-1840077Y-1048003D01*
X-1832000Y-1053642D01*
X-1823110Y-1057808D01*
X-1813610Y-1060348D01*
X-1803857Y-1061212D01*
X-1794052Y-1060348D01*
X-1784553Y-1057808D01*
X-1775663Y-1053642D01*
X-1767586Y-1048003D01*
X-1760677Y-1041095D01*
X-1755038Y-1033018D01*
X-1750872Y-1024128D01*
X-1748332Y-1014628D01*
X-1747469Y-1004874D01*
X-1748332Y-995070D01*
X-1750872Y-985570D01*
X-1755038Y-976680D01*
X-1760677Y-968603D01*
X-1767586Y-961694D01*
X-1775663Y-956056D01*
X-1784553Y-951890D01*
X-1794052Y-949350D01*
X-1803857Y-948486D01*
X-1813610Y-949350D01*
X-1823110Y-951890D01*
X-1832000Y-956056D01*
X-1840077Y-961694D01*
X-1846986Y-968603D01*
X-1852625Y-976680D01*
X-1856790Y-985570D01*
X-1859330Y-995070D01*
X-1860194Y-1004874D01*
X-1859534Y-1011986D01*
X-1860042Y-1016101D01*
X-1862074Y-1019657D01*
X-1865375Y-1022096D01*
X-1869389Y-1023061D01*
X-1873402Y-1022350D01*
X-1876856Y-1020064D01*
X-1878075Y-1018844D01*
X-1886153Y-1013206D01*
X-1895043Y-1009040D01*
X-1904542Y-1006500D01*
X-1914296Y-1005636D01*
X-1924100Y-1006500D01*
X-1933600Y-1009040D01*
X-1942490Y-1013206D01*
X-1950567Y-1018844D01*
X-1957476Y-1025753D01*
X-1963115Y-1033830D01*
X-1967280Y-1042720D01*
X-1969820Y-1052220D01*
X-1970684Y-1062024D01*
X-1969820Y-1071778D01*
X-1967280Y-1081278D01*
X-1963115Y-1090168D01*
X-1957476Y-1098245D01*
X-1950567Y-1105154D01*
X-1942490Y-1110792D01*
X-1933600Y-1114958D01*
X-1924100Y-1117498D01*
G37*
G36*
X-1282750Y-873404D02*
G01*
X-1272946Y-872540D01*
X-1263497Y-870000D01*
X-1254556Y-865835D01*
X-1246530Y-860196D01*
X-1239570Y-853287D01*
X-1233932Y-845210D01*
X-1229817Y-836320D01*
X-1227277Y-826820D01*
X-1226413Y-817067D01*
X-1227277Y-807262D01*
X-1229817Y-797763D01*
X-1233932Y-788873D01*
X-1239570Y-780796D01*
X-1246530Y-773887D01*
X-1254556Y-768248D01*
X-1263497Y-764082D01*
X-1272946Y-761542D01*
X-1282750Y-760679D01*
X-1292555Y-761542D01*
X-1302004Y-764082D01*
X-1310944Y-768248D01*
X-1318971Y-773887D01*
X-1325930Y-780796D01*
X-1331569Y-788873D01*
X-1335684Y-797763D01*
X-1338224Y-807262D01*
X-1339088Y-817067D01*
X-1338224Y-826820D01*
X-1335684Y-836320D01*
X-1331569Y-845210D01*
X-1325930Y-853287D01*
X-1318971Y-860196D01*
X-1310944Y-865835D01*
X-1302004Y-870000D01*
X-1292555Y-872540D01*
G37*
G36*
X-1511350Y-619404D02*
G01*
X-1501546Y-618540D01*
X-1492097Y-616000D01*
X-1483156Y-611835D01*
X-1475130Y-606196D01*
X-1468170Y-599287D01*
X-1462532Y-591210D01*
X-1458417Y-582320D01*
X-1455877Y-572820D01*
X-1455013Y-563067D01*
X-1455877Y-553262D01*
X-1458417Y-543763D01*
X-1462532Y-534873D01*
X-1468170Y-526796D01*
X-1475130Y-519887D01*
X-1483156Y-514248D01*
X-1492097Y-510082D01*
X-1501546Y-507542D01*
X-1511350Y-506679D01*
X-1521155Y-507542D01*
X-1530604Y-510082D01*
X-1539544Y-514248D01*
X-1547571Y-519887D01*
X-1554530Y-526796D01*
X-1560169Y-534873D01*
X-1564284Y-543763D01*
X-1566824Y-553262D01*
X-1567688Y-563067D01*
X-1566824Y-572820D01*
X-1564284Y-582320D01*
X-1560169Y-591210D01*
X-1554530Y-599287D01*
X-1547571Y-606196D01*
X-1539544Y-611835D01*
X-1530604Y-616000D01*
X-1521155Y-618540D01*
G37*
G36*
X215900Y-568756D02*
G01*
X225704Y-567893D01*
X235153Y-565353D01*
X244094Y-561238D01*
X252120Y-555599D01*
X259079Y-548640D01*
X264718Y-540613D01*
X268833Y-531672D01*
X271373Y-522224D01*
X272237Y-512419D01*
X271373Y-502615D01*
X268833Y-493166D01*
X264718Y-484225D01*
X259079Y-476199D01*
X252120Y-469239D01*
X244094Y-463600D01*
X235153Y-459485D01*
X225704Y-456946D01*
X215900Y-456082D01*
X206095Y-456946D01*
X196646Y-459485D01*
X187706Y-463600D01*
X179679Y-469239D01*
X172720Y-476199D01*
X167081Y-484225D01*
X162966Y-493166D01*
X160426Y-502615D01*
X159562Y-512419D01*
X160426Y-522224D01*
X162966Y-531672D01*
X167081Y-540613D01*
X172720Y-548640D01*
X179679Y-555599D01*
X187706Y-561238D01*
X196646Y-565353D01*
X206095Y-567893D01*
G37*
G36*
X-701344Y-545998D02*
G01*
X-691540Y-545134D01*
X-682091Y-542594D01*
X-673150Y-538429D01*
X-665124Y-532790D01*
X-658164Y-525881D01*
X-652526Y-517804D01*
X-648411Y-508914D01*
X-645871Y-499414D01*
X-645007Y-489661D01*
X-645871Y-479856D01*
X-648411Y-470357D01*
X-652526Y-461467D01*
X-658164Y-453390D01*
X-665124Y-446481D01*
X-673150Y-440842D01*
X-682091Y-436676D01*
X-691540Y-434136D01*
X-701344Y-433273D01*
X-711149Y-434136D01*
X-720598Y-436676D01*
X-729538Y-440842D01*
X-737565Y-446481D01*
X-744524Y-453390D01*
X-750163Y-461467D01*
X-754278Y-470357D01*
X-756818Y-479856D01*
X-757682Y-489661D01*
X-756818Y-499414D01*
X-754278Y-508914D01*
X-750163Y-517804D01*
X-744524Y-525881D01*
X-737565Y-532790D01*
X-729538Y-538429D01*
X-720598Y-542594D01*
X-711149Y-545134D01*
G37*
G36*
X-327964Y-115976D02*
G01*
X-318160Y-115112D01*
X-308711Y-112572D01*
X-299770Y-108407D01*
X-291744Y-102768D01*
X-284784Y-95859D01*
X-279146Y-87782D01*
X-275031Y-78892D01*
X-272491Y-69392D01*
X-271627Y-59639D01*
X-272491Y-49834D01*
X-275031Y-40335D01*
X-279146Y-31445D01*
X-284784Y-23368D01*
X-286308Y-21844D01*
X-288544Y-18542D01*
X-289306Y-14681D01*
X-289306Y70510D01*
X-290118Y78536D01*
X-292303Y85750D01*
X-295859Y92456D01*
X-300990Y98653D01*
X-514146Y311810D01*
X-520344Y316941D01*
X-527050Y320497D01*
X-534263Y322681D01*
X-542290Y323494D01*
X-1005078Y323494D01*
X-1013104Y322681D01*
X-1020318Y320497D01*
X-1025499Y317754D01*
X-1029411Y316585D01*
X-1040079Y315671D01*
X-1049578Y313131D01*
X-1058468Y308965D01*
X-1066546Y303326D01*
X-1073454Y296418D01*
X-1079093Y288340D01*
X-1083259Y279450D01*
X-1085799Y269951D01*
X-1086662Y260146D01*
X-1085799Y250393D01*
X-1083259Y240893D01*
X-1079093Y232003D01*
X-1073454Y223926D01*
X-1066546Y217017D01*
X-1058468Y211378D01*
X-1049578Y207213D01*
X-1040079Y204673D01*
X-1030274Y203809D01*
X-1020521Y204673D01*
X-1011021Y207213D01*
X-1002131Y211378D01*
X-994054Y217017D01*
X-987145Y223926D01*
X-981506Y232003D01*
X-977595Y240436D01*
X-975360Y243484D01*
X-972108Y245567D01*
X-968349Y246278D01*
X-562000Y246278D01*
X-558088Y245516D01*
X-554786Y243281D01*
X-543458Y231952D01*
X-541274Y228752D01*
X-540461Y224942D01*
X-541121Y221132D01*
X-543204Y217830D01*
X-546354Y215544D01*
X-549706Y213969D01*
X-557784Y208330D01*
X-564692Y201422D01*
X-570331Y193344D01*
X-574497Y184454D01*
X-577037Y174955D01*
X-577900Y165150D01*
X-577037Y155397D01*
X-574497Y145897D01*
X-570331Y137007D01*
X-564692Y128930D01*
X-557784Y122021D01*
X-549706Y116382D01*
X-540816Y112217D01*
X-531317Y109677D01*
X-521512Y108813D01*
X-511759Y109677D01*
X-502259Y112217D01*
X-493369Y116382D01*
X-485292Y122021D01*
X-478383Y128930D01*
X-472744Y137007D01*
X-471170Y140360D01*
X-468884Y143510D01*
X-465582Y145592D01*
X-461772Y146253D01*
X-457962Y145440D01*
X-454761Y143256D01*
X-369519Y58013D01*
X-367284Y54711D01*
X-366522Y50800D01*
X-366522Y-14579D01*
X-367284Y-18440D01*
X-369519Y-21742D01*
X-371144Y-23368D01*
X-376783Y-31445D01*
X-380898Y-40335D01*
X-383438Y-49834D01*
X-384302Y-59639D01*
X-383438Y-69392D01*
X-380898Y-78892D01*
X-376783Y-87782D01*
X-371144Y-95859D01*
X-364185Y-102768D01*
X-356158Y-108407D01*
X-347218Y-112572D01*
X-337769Y-115112D01*
G37*
G36*
X-1018794Y50850D02*
G01*
X-1008989Y51714D01*
X-999540Y54254D01*
X-990600Y58369D01*
X-982573Y64008D01*
X-975614Y70967D01*
X-969975Y78994D01*
X-965860Y87934D01*
X-963320Y97383D01*
X-962456Y107187D01*
X-963320Y116992D01*
X-965860Y126441D01*
X-969975Y135382D01*
X-975614Y143408D01*
X-982573Y150368D01*
X-990600Y156006D01*
X-999540Y160121D01*
X-1008989Y162661D01*
X-1018794Y163525D01*
X-1028598Y162661D01*
X-1038047Y160121D01*
X-1046987Y156006D01*
X-1055014Y150368D01*
X-1061974Y143408D01*
X-1067612Y135382D01*
X-1071727Y126441D01*
X-1074267Y116992D01*
X-1075131Y107187D01*
X-1074267Y97383D01*
X-1071727Y87934D01*
X-1067612Y78994D01*
X-1061974Y70967D01*
X-1055014Y64008D01*
X-1046987Y58369D01*
X-1038047Y54254D01*
X-1028598Y51714D01*
G37*
G36*
X-174040Y274929D02*
G01*
X-164287Y275793D01*
X-154787Y278333D01*
X-145897Y282498D01*
X-137820Y288137D01*
X-130911Y295046D01*
X-125272Y303123D01*
X-121107Y312013D01*
X-118567Y321513D01*
X-117703Y331266D01*
X-118567Y341071D01*
X-121107Y350570D01*
X-125272Y359460D01*
X-130911Y367538D01*
X-137820Y374446D01*
X-145897Y380085D01*
X-154787Y384251D01*
X-164287Y386791D01*
X-174040Y387654D01*
X-183845Y386791D01*
X-193344Y384251D01*
X-202234Y380085D01*
X-210312Y374446D01*
X-217220Y367538D01*
X-222859Y359460D01*
X-227025Y350570D01*
X-229565Y341071D01*
X-230428Y331266D01*
X-229565Y321513D01*
X-227025Y312013D01*
X-222859Y303123D01*
X-217220Y295046D01*
X-210312Y288137D01*
X-202234Y282498D01*
X-193344Y278333D01*
X-183845Y275793D01*
G37*
G36*
X-665276Y359765D02*
G01*
X-655472Y360629D01*
X-646023Y363169D01*
X-637082Y367334D01*
X-629056Y372973D01*
X-622096Y379882D01*
X-616458Y387959D01*
X-612343Y396849D01*
X-609803Y406349D01*
X-608939Y416102D01*
X-609142Y418490D01*
X-608838Y421995D01*
X-607314Y425196D01*
X-604824Y427685D01*
X-601624Y429158D01*
X-596747Y430479D01*
X-587806Y434644D01*
X-579780Y440283D01*
X-572820Y447192D01*
X-567182Y455269D01*
X-563067Y464159D01*
X-560527Y473659D01*
X-559663Y483412D01*
X-560527Y493217D01*
X-563067Y502716D01*
X-567182Y511606D01*
X-572820Y519684D01*
X-579780Y526592D01*
X-587806Y532231D01*
X-596747Y536397D01*
X-606196Y538937D01*
X-616000Y539800D01*
X-625805Y538937D01*
X-635254Y536397D01*
X-644194Y532231D01*
X-652221Y526592D01*
X-656437Y522376D01*
X-659739Y520192D01*
X-663600Y519430D01*
X-667512Y520192D01*
X-670814Y522376D01*
X-673760Y525322D01*
X-681786Y530961D01*
X-690727Y535127D01*
X-700176Y537667D01*
X-709980Y538530D01*
X-719785Y537667D01*
X-729234Y535127D01*
X-738174Y530961D01*
X-746201Y525322D01*
X-753160Y518414D01*
X-758799Y510336D01*
X-762914Y501446D01*
X-765454Y491947D01*
X-766318Y482142D01*
X-765454Y472389D01*
X-762914Y462889D01*
X-758799Y453999D01*
X-753160Y445922D01*
X-746201Y439013D01*
X-738174Y433374D01*
X-725728Y427634D01*
X-723239Y425145D01*
X-721715Y421944D01*
X-721410Y418439D01*
X-721614Y416102D01*
X-720750Y406349D01*
X-718210Y396849D01*
X-714095Y387959D01*
X-708456Y379882D01*
X-701497Y372973D01*
X-693470Y367334D01*
X-684530Y363169D01*
X-675081Y360629D01*
G37*
G36*
X779475Y397865D02*
G01*
X789279Y398729D01*
X798728Y401269D01*
X807669Y405434D01*
X815695Y411073D01*
X822655Y417982D01*
X828294Y426059D01*
X832408Y434949D01*
X834948Y444449D01*
X835812Y454202D01*
X834948Y464007D01*
X832408Y473506D01*
X828294Y482396D01*
X822147Y491185D01*
X820572Y494639D01*
X820369Y498449D01*
X822147Y502970D01*
X824941Y506120D01*
X834136Y512927D01*
X841502Y520547D01*
X847547Y529234D01*
X852169Y538784D01*
X855167Y548944D01*
X856487Y559511D01*
X856132Y570077D01*
X854049Y580491D01*
X850341Y590397D01*
X845108Y599643D01*
X838453Y607872D01*
X830580Y614934D01*
X821639Y620674D01*
X811885Y624840D01*
X801624Y627481D01*
X791057Y628345D01*
X780491Y627583D01*
X770178Y625094D01*
X760374Y620979D01*
X751433Y615391D01*
X743458Y608380D01*
X736701Y600202D01*
X731316Y591058D01*
X727506Y581152D01*
X725373Y570788D01*
X724865Y560171D01*
X726084Y549656D01*
X728980Y539445D01*
X733450Y529844D01*
X739444Y521106D01*
X746353Y513842D01*
X748639Y510133D01*
X749096Y505815D01*
X747776Y501700D01*
X744829Y498500D01*
X743254Y497382D01*
X736295Y490474D01*
X730656Y482396D01*
X726541Y473506D01*
X724001Y464007D01*
X723138Y454202D01*
X724001Y444449D01*
X726541Y434949D01*
X730656Y426059D01*
X736295Y417982D01*
X743254Y411073D01*
X751281Y405434D01*
X760222Y401269D01*
X769670Y398729D01*
G37*
G36*
X221183Y411327D02*
G01*
X230987Y412191D01*
X240436Y414731D01*
X249377Y418896D01*
X257403Y424535D01*
X264363Y431444D01*
X270002Y439521D01*
X274116Y448411D01*
X276656Y457911D01*
X277520Y467664D01*
X276656Y477469D01*
X274116Y486968D01*
X270002Y495858D01*
X267055Y500075D01*
X265430Y503834D01*
X265430Y507949D01*
X267055Y511708D01*
X272846Y519938D01*
X276961Y528878D01*
X279501Y538327D01*
X280365Y548132D01*
X279501Y557936D01*
X276961Y567385D01*
X272846Y576326D01*
X267208Y584352D01*
X260248Y591312D01*
X252221Y596950D01*
X243281Y601065D01*
X233832Y603605D01*
X224028Y604469D01*
X214223Y603605D01*
X204774Y601065D01*
X195834Y596950D01*
X187807Y591312D01*
X183692Y587197D01*
X180390Y584962D01*
X176479Y584200D01*
X166979Y584200D01*
X159004Y583336D01*
X154127Y582472D01*
X150571Y583285D01*
X147574Y585266D01*
X145440Y588213D01*
X144475Y591718D01*
X143560Y601929D01*
X141020Y611428D01*
X136906Y620318D01*
X131267Y628396D01*
X124307Y635304D01*
X116281Y640943D01*
X107340Y645109D01*
X97891Y647649D01*
X88087Y648512D01*
X78282Y647649D01*
X68834Y645109D01*
X59893Y640943D01*
X51866Y635304D01*
X44907Y628396D01*
X39268Y620318D01*
X35153Y611428D01*
X32613Y601929D01*
X31750Y592124D01*
X32613Y582371D01*
X35153Y572871D01*
X37287Y568248D01*
X38252Y564235D01*
X37541Y560171D01*
X35255Y556768D01*
X28143Y549656D01*
X22504Y541578D01*
X18389Y532688D01*
X15849Y523189D01*
X14985Y513384D01*
X15849Y503631D01*
X18389Y494131D01*
X22504Y485241D01*
X28143Y477164D01*
X35102Y470255D01*
X43129Y464616D01*
X52069Y460451D01*
X61518Y457911D01*
X71323Y457047D01*
X81127Y457911D01*
X90576Y460451D01*
X99517Y464616D01*
X107543Y470255D01*
X111760Y474421D01*
X115062Y476656D01*
X118922Y477418D01*
X131318Y477418D01*
X139293Y478282D01*
X146456Y480568D01*
X150114Y482701D01*
X154279Y484022D01*
X158648Y483412D01*
X162356Y481076D01*
X164744Y477367D01*
X165303Y472998D01*
X164846Y467664D01*
X165709Y457911D01*
X168249Y448411D01*
X172364Y439521D01*
X178003Y431444D01*
X184962Y424535D01*
X192989Y418896D01*
X201930Y414731D01*
X211378Y412191D01*
G37*
G36*
X-317550Y418185D02*
G01*
X-307797Y419049D01*
X-298297Y421589D01*
X-289407Y425754D01*
X-281330Y431393D01*
X-274421Y438302D01*
X-268782Y446379D01*
X-264617Y455269D01*
X-262077Y464769D01*
X-261213Y474522D01*
X-262077Y484327D01*
X-264617Y493826D01*
X-268782Y502716D01*
X-274421Y510793D01*
X-281330Y517702D01*
X-289407Y523341D01*
X-298297Y527507D01*
X-307797Y530047D01*
X-317550Y530910D01*
X-327355Y530047D01*
X-336854Y527507D01*
X-345744Y523341D01*
X-353822Y517702D01*
X-360730Y510793D01*
X-366369Y502716D01*
X-370535Y493826D01*
X-373075Y484327D01*
X-373938Y474522D01*
X-373075Y464769D01*
X-370535Y455269D01*
X-366369Y446379D01*
X-360730Y438302D01*
X-353822Y431393D01*
X-345744Y425754D01*
X-336854Y421589D01*
X-327355Y419049D01*
G37*
G36*
X-115366Y538073D02*
G01*
X-105562Y538937D01*
X-96113Y541477D01*
X-87172Y545642D01*
X-79146Y551281D01*
X-72186Y558190D01*
X-66548Y566267D01*
X-62433Y575157D01*
X-59893Y584657D01*
X-59029Y594410D01*
X-59893Y604215D01*
X-62433Y613714D01*
X-66548Y622604D01*
X-72186Y630682D01*
X-79146Y637590D01*
X-87172Y643229D01*
X-96113Y647395D01*
X-105562Y649935D01*
X-115366Y650798D01*
X-125171Y649935D01*
X-134620Y647395D01*
X-143560Y643229D01*
X-151587Y637590D01*
X-158546Y630682D01*
X-164185Y622604D01*
X-168300Y613714D01*
X-170840Y604215D01*
X-171704Y594410D01*
X-170840Y584657D01*
X-168300Y575157D01*
X-164185Y566267D01*
X-158546Y558190D01*
X-151587Y551281D01*
X-143560Y545642D01*
X-134620Y541477D01*
X-125171Y538937D01*
G37*
G36*
X496011Y579221D02*
G01*
X505815Y580085D01*
X515264Y582625D01*
X524205Y586790D01*
X532231Y592429D01*
X539191Y599338D01*
X544830Y607415D01*
X548944Y616305D01*
X551484Y625805D01*
X552348Y635558D01*
X551484Y645363D01*
X548944Y654862D01*
X544830Y663752D01*
X539191Y671830D01*
X532231Y678738D01*
X524205Y684377D01*
X515264Y688543D01*
X505815Y691083D01*
X496011Y691946D01*
X486206Y691083D01*
X476758Y688543D01*
X467817Y684377D01*
X459790Y678738D01*
X452831Y671830D01*
X447192Y663752D01*
X443077Y654862D01*
X440537Y645363D01*
X439674Y635558D01*
X440537Y625805D01*
X443077Y616305D01*
X447192Y607415D01*
X452831Y599338D01*
X459790Y592429D01*
X467817Y586790D01*
X476758Y582625D01*
X486206Y580085D01*
G37*
G36*
X224790Y783894D02*
G01*
X234594Y784758D01*
X244043Y787298D01*
X252984Y791464D01*
X261010Y797102D01*
X267970Y804011D01*
X273608Y812088D01*
X277723Y820978D01*
X280263Y830478D01*
X281127Y840232D01*
X280263Y850036D01*
X277723Y859536D01*
X273608Y868426D01*
X267970Y876452D01*
X261010Y883412D01*
X252984Y889050D01*
X244043Y893216D01*
X234594Y895756D01*
X224790Y896569D01*
X214985Y895756D01*
X205536Y893216D01*
X196596Y889050D01*
X188569Y883412D01*
X181610Y876452D01*
X175971Y868426D01*
X171856Y859536D01*
X169316Y850036D01*
X168452Y840232D01*
X169316Y830478D01*
X171856Y820978D01*
X175971Y812088D01*
X181610Y804011D01*
X188569Y797102D01*
X196596Y791464D01*
X205536Y787298D01*
X214985Y784758D01*
G37*

%LPD*%
D10*
X-1030226Y260235D02*
G01*
X-1005588Y284873D01*
X-541784Y284873D01*
X-327916Y71005D01*
X-327916Y-59550D01*
D11*
X-148160Y168719D02*
G01*
X-147147Y167706D01*
X443941Y167706D01*
X472899Y196656D01*
X818083Y196656D01*
D12*
X-1807519Y-597855D02*
G01*
X-1807519Y-318963D01*
X-1769158Y-280609D01*
X-1049329Y-280609D01*
X-1046025Y-277304D01*
D13*
X-426519Y-488632D02*
G01*
X-613717Y-675830D01*
X-613717Y-1170114D01*
X-527865Y-1165288D02*
G01*
X-527865Y-505625D01*
X-435180Y-412940D01*
D11*
X-249430Y166763D02*
G01*
X-244604Y166763D01*
X-151640Y73545D01*
X-88648Y73545D01*
X-46230Y115963D01*
X468881Y115963D01*
X623059Y-37960D01*
X224025Y548119D02*
G01*
X166466Y548119D01*
X131823Y513476D01*
X71374Y513476D01*
D14*
X-837440Y-1517916D02*
G01*
X-1168400Y-1186957D01*
X-1168400Y-794115D01*
X-1168400Y-596254D01*
X-1280927Y-483727D01*
X-1280927Y-377050D01*
D15*
X-1293675Y579183D02*
G01*
X-1443022Y728530D01*
X-1528137Y728530D01*
X-1575127Y775520D01*
X-1575127Y964496D01*
X-1674558Y1063927D01*
X-1674558Y1143459D01*
X-1521513Y505269D02*
G01*
X-1447599Y579183D01*
X-1293675Y579183D01*
X-1293675Y579183D02*
G01*
X-1216718Y656140D01*
X-1119197Y656140D01*
D11*
X448307Y1104277D02*
G01*
X448307Y1107071D01*
X400047Y1155331D01*
X292097Y1155331D01*
X227327Y1090561D01*
X227327Y1013853D01*
X-63248Y723277D01*
X-966980Y723277D01*
D14*
X-408434Y-1474838D02*
G01*
X-435104Y-1501508D01*
X-651184Y-1501327D01*
D16*
X-761494Y-1520456D02*
G01*
X-670313Y-1520456D01*
X-651184Y-1501327D01*
D17*
X790140Y-230568D02*
G01*
X790140Y-65531D01*
X650504Y-65531D01*
X623008Y-38036D01*
D10*
X-777242Y-680323D02*
G01*
X-819660Y-680323D01*
X-819660Y-418962D01*
X-704850Y-304154D01*
X-425203Y-304154D01*
X-349331Y-228282D01*
X-238305Y-228282D01*
D18*
X934209Y-578878D02*
G01*
X834793Y-578878D01*
X422907Y-166992D01*
X214373Y-166992D01*
X84830Y-37454D01*
X-129443Y-37454D01*
X-146819Y-20078D01*
X-111249Y-110858D02*
G01*
X78988Y-110858D01*
X144772Y-176646D01*
X144772Y-320408D01*
X208272Y-383908D01*
X313430Y-383908D01*
X378208Y-319135D01*
X482600Y-319135D01*
X515363Y-351901D01*
X515363Y-431304D01*
D12*
X616709Y90665D02*
G01*
X756538Y90665D01*
X759157Y93284D01*
X770333Y93284D01*
X783790Y79822D01*
X807156Y79822D01*
X823155Y63817D01*
X833572Y63817D01*
X852398Y44996D01*
X868646Y44996D01*
X882340Y31302D01*
X903683Y31302D01*
X931669Y124193D02*
G01*
X890546Y124193D01*
X818083Y196656D01*
D19*
G01*
X790674Y562470D03*
G01*
X594611Y876236D03*
D20*
G01*
X435861Y-530593D03*
G01*
X718690Y-813447D03*
G01*
X-358904Y-1325359D03*
G01*
X-76075Y-1608213D03*
D19*
G01*
X506600Y986142D03*
G01*
X223161Y1223962D03*
D21*
G01*
X-281205Y-943622D03*
G01*
X-333352Y-888072D03*
G01*
X60398Y-603948D03*
G01*
X-527865Y-1165288D03*
G01*
X-613717Y-1170114D03*
G01*
X515363Y-431304D03*
G01*
X934209Y-578878D03*
G01*
X931669Y124193D03*
G01*
X-111305Y-110934D03*
G01*
X-146814Y-20078D03*
G01*
X-1318821Y461581D03*
G01*
X-837440Y-1517916D03*
G01*
X-1280975Y-377126D03*
G01*
X102816Y973899D03*
G01*
X-1018796Y107175D03*
G01*
X-1304343Y709739D03*
G01*
X-326392Y-1102880D03*
G01*
X-160835Y-798258D03*
G01*
X-224843Y-715454D03*
G01*
X-140007Y-671766D03*
G01*
X-521540Y165163D03*
G01*
X139646Y1301559D03*
G01*
X779472Y454215D03*
G01*
X478228Y484187D03*
G01*
X-1953186Y366737D03*
G01*
X-1953186Y448017D03*
G01*
X-1953186Y529297D03*
G01*
X-2147115Y450659D03*
G01*
X-2147115Y531939D03*
G01*
X-2147115Y613219D03*
G01*
X-2147115Y694499D03*
G01*
X-2125525Y779081D03*
G01*
X-2068883Y842835D03*
G01*
X-1919150Y721067D03*
G01*
X-2022782Y904963D03*
G01*
X-1985063Y992441D03*
G01*
X-384812Y-1161453D03*
G01*
X-1282753Y-817054D03*
G01*
X-1718363Y-928814D03*
G01*
X-1659054Y-1002830D03*
G01*
X-1022657Y-673798D03*
G01*
X291792Y-233362D03*
G01*
X252676Y-306768D03*
G01*
X-901753Y-395668D03*
G01*
X-709983Y482155D03*
G01*
X-616003Y483425D03*
G01*
X224025Y548119D03*
G01*
X221180Y467677D03*
G01*
X-1197663Y-193230D03*
G01*
X-1030302Y260159D03*
G01*
X-327967Y-59626D03*
G01*
X-174068Y331279D03*
G01*
X-249506Y166687D03*
G01*
X-148160Y168719D03*
G01*
X-777293Y-680402D03*
G01*
X-238305Y-228282D03*
G01*
X-1293675Y579183D03*
G01*
X215897Y-512432D03*
G01*
X-665279Y416115D03*
G01*
X-115369Y594423D03*
G01*
X-1511353Y-563054D03*
G01*
X-966904Y723353D03*
G01*
X-856287Y-229298D03*
G01*
X-1807517Y-597852D03*
G01*
X-1046025Y-277304D03*
G01*
X380489Y54851D03*
G01*
X616709Y90665D03*
G01*
X243837Y686549D03*
G01*
X71320Y513397D03*
G01*
X448256Y1104201D03*
G01*
X437080Y839025D03*
G01*
X496008Y635571D03*
G01*
X-408485Y-1474914D03*
G01*
X-1023673Y-748728D03*
G01*
X-701347Y-489648D03*
G01*
X-1110795Y-343344D03*
G01*
X-1521513Y505269D03*
G01*
X88084Y592137D03*
G01*
X-471782Y-1753755D03*
G01*
X-1389814Y-1676438D03*
G01*
X-952045Y-253428D03*
G01*
X-763831Y-1854390D03*
G01*
X-815596Y-1237246D03*
G01*
X-806960Y-1079004D03*
G01*
X-721794Y632929D03*
G01*
X-198173Y497395D03*
G01*
X790140Y-230568D03*
G01*
X-247474Y-338772D03*
G01*
X-209349Y-423862D03*
G01*
X-384863Y-768286D03*
G01*
X-362003Y-436562D03*
G01*
X-426519Y-488632D03*
G01*
X-435180Y-412940D03*
G01*
X850338Y-674560D03*
G01*
X578558Y-674560D03*
G01*
X913838Y252031D03*
G01*
X-2144600Y364299D03*
G01*
X-1821868Y-1392720D03*
G01*
X-1883590Y-1323632D03*
G01*
X-1749224Y-1457998D03*
G01*
X-1615112Y-1546898D03*
G01*
X-1687502Y-1517942D03*
G01*
X-1803834Y-1004862D03*
G01*
X-1914324Y-1062012D03*
G01*
X-1199060Y-1451648D03*
G01*
X-1772592Y1117053D03*
G01*
X-1753542Y647153D03*
G01*
X-1674548Y1143469D03*
G01*
X-1581330Y1320507D03*
G01*
X-761494Y-1520456D03*
G01*
X-1274142Y-1236662D03*
G01*
X248206Y-76466D03*
G01*
X224787Y840219D03*
G01*
X-134927Y-483806D03*
G01*
X-1527888Y371970D03*
G01*
X-317578Y474535D03*
G01*
X-1167716Y458533D03*
G01*
X510969Y280479D03*
G01*
X-718568Y-1078496D03*
M02*
