G04 Layer: TopSilkscreenLayer*
G04 Panelize: , Column: 1, Row: 1, Board Size: 35.35mm x 33.79mm, Panelized Board Size: 35.35mm x 33.79mm*
G04 EasyEDA v6.5.34, 2023-08-25 09:09:34*
G04 d93e2c1bc76747fc85efea62cec83403,9a4ed40c0dd746429eaf55b84663d2fb,10*
G04 Gerber Generator version 0.2*
G04 Scale: 100 percent, Rotated: No, Reflected: No *
G04 Dimensions in millimeters *
G04 leading zeros omitted , absolute positions ,4 integer and 5 decimal *
%FSLAX45Y45*%
%MOMM*%

%ADD10C,0.1524*%
%ADD11C,0.1270*%
%ADD12C,0.2540*%
%ADD13C,0.2000*%
%ADD14C,0.1500*%
%ADD15C,0.1999*%
%ADD16C,0.2500*%
%ADD17C,0.1000*%
%ADD18C,0.2500*%
%ADD19C,0.0120*%

%LPD*%
D10*
X110487Y529729D02*
G01*
X110487Y469023D01*
X110487Y529729D02*
G01*
X136395Y529729D01*
X145031Y526935D01*
X148079Y523887D01*
X150873Y518299D01*
X150873Y512457D01*
X148079Y506615D01*
X145031Y503821D01*
X136395Y500773D01*
X110487Y500773D01*
X130553Y500773D02*
G01*
X150873Y469023D01*
X169923Y518299D02*
G01*
X175765Y521093D01*
X184401Y529729D01*
X184401Y469023D01*
X217929Y529729D02*
G01*
X209039Y526935D01*
X206245Y521093D01*
X206245Y515251D01*
X209039Y509409D01*
X214881Y506615D01*
X226565Y503821D01*
X235201Y500773D01*
X240789Y495185D01*
X243837Y489343D01*
X243837Y480707D01*
X240789Y474865D01*
X237995Y472071D01*
X229359Y469023D01*
X217929Y469023D01*
X209039Y472071D01*
X206245Y474865D01*
X203451Y480707D01*
X203451Y489343D01*
X206245Y495185D01*
X212087Y500773D01*
X220723Y503821D01*
X232153Y506615D01*
X237995Y509409D01*
X240789Y515251D01*
X240789Y521093D01*
X237995Y526935D01*
X229359Y529729D01*
X217929Y529729D01*
X-1737545Y-754748D02*
G01*
X-1793275Y-806716D01*
X-1737545Y-754748D02*
G01*
X-1715198Y-778710D01*
X-1710352Y-789124D01*
X-1710527Y-794151D01*
X-1713489Y-801773D01*
X-1718876Y-806797D01*
X-1726501Y-809048D01*
X-1731713Y-809045D01*
X-1741764Y-803483D01*
X-1764111Y-779518D02*
G01*
X-1741764Y-803483D01*
X-1736915Y-813894D01*
X-1737276Y-819094D01*
X-1740052Y-826546D01*
X-1748040Y-833993D01*
X-1755853Y-836416D01*
X-1760880Y-836241D01*
X-1770928Y-830679D01*
X-1793275Y-806716D01*
X-1666694Y-830724D02*
G01*
X-1742173Y-861517D01*
X-1666694Y-830724D02*
G01*
X-1702503Y-904057D01*
X-1716148Y-852180D02*
G01*
X-1691375Y-878746D01*
X-1612996Y-888311D02*
G01*
X-1668724Y-940280D01*
X-1630492Y-869548D02*
G01*
X-1595673Y-906889D01*
X-1561894Y-943112D02*
G01*
X-1617621Y-995080D01*
X-1579389Y-924349D02*
G01*
X-1544571Y-961689D01*
X-1528287Y-979149D02*
G01*
X-1584015Y-1031118D01*
X-1528287Y-979149D02*
G01*
X-1496067Y-1013701D01*
X-1554850Y-1003922D02*
G01*
X-1534929Y-1025283D01*
X-1584015Y-1031118D02*
G01*
X-1551795Y-1065669D01*
X-1479610Y-1031349D02*
G01*
X-1535338Y-1083317D01*
X-1479610Y-1031349D02*
G01*
X-1457264Y-1055314D01*
X-1452415Y-1065725D01*
X-1452590Y-1070752D01*
X-1455552Y-1078377D01*
X-1460939Y-1083401D01*
X-1468567Y-1085649D01*
X-1473779Y-1085646D01*
X-1483827Y-1080084D01*
X-1506174Y-1056121D01*
X-1488851Y-1074696D02*
G01*
X-1500692Y-1120470D01*
X-1428508Y-1086149D02*
G01*
X-1435323Y-1132098D01*
X-1464490Y-1159296D01*
X-1388838Y-1128689D02*
G01*
X-1435323Y-1132098D01*
D11*
X763524Y152044D02*
G01*
X763524Y91338D01*
X803910Y152044D02*
G01*
X803910Y91338D01*
X763524Y123088D02*
G01*
X803910Y123088D01*
X825754Y137566D02*
G01*
X825754Y140360D01*
X828802Y146202D01*
X831596Y148996D01*
X837438Y152044D01*
X848868Y152044D01*
X854710Y148996D01*
X857504Y146202D01*
X860552Y140360D01*
X860552Y134518D01*
X857504Y128930D01*
X851915Y120294D01*
X822960Y91338D01*
X863346Y91338D01*
D10*
X-1981784Y-108280D02*
G01*
X-1981784Y-184734D01*
X-1930730Y-108280D02*
G01*
X-1930730Y-184734D01*
X-1981784Y-144602D02*
G01*
X-1930730Y-144602D01*
X-1877644Y-108280D02*
G01*
X-1906854Y-184734D01*
X-1877644Y-108280D02*
G01*
X-1848688Y-184734D01*
X-1895932Y-159080D02*
G01*
X-1859610Y-159080D01*
X-1824558Y-108280D02*
G01*
X-1824558Y-184734D01*
X-1824558Y-108280D02*
G01*
X-1791792Y-108280D01*
X-1780870Y-111836D01*
X-1777314Y-115646D01*
X-1773758Y-122758D01*
X-1773758Y-133680D01*
X-1777314Y-141046D01*
X-1780870Y-144602D01*
X-1791792Y-148158D01*
X-1824558Y-148158D01*
X-1724228Y-108280D02*
G01*
X-1724228Y-184734D01*
X-1749628Y-108280D02*
G01*
X-1698828Y-108280D01*
X-1674698Y-108280D02*
G01*
X-1674698Y-184734D01*
X-1596212Y-126314D02*
G01*
X-1599768Y-119202D01*
X-1607134Y-111836D01*
X-1614500Y-108280D01*
X-1628978Y-108280D01*
X-1636344Y-111836D01*
X-1643456Y-119202D01*
X-1647266Y-126314D01*
X-1650822Y-137236D01*
X-1650822Y-155524D01*
X-1647266Y-166446D01*
X-1643456Y-173812D01*
X-1636344Y-180924D01*
X-1628978Y-184734D01*
X-1614500Y-184734D01*
X-1607134Y-180924D01*
X-1599768Y-173812D01*
X-1596212Y-166446D01*
D11*
X-1630141Y1334592D02*
G01*
X-1632935Y1340434D01*
X-1638777Y1346276D01*
X-1644619Y1349070D01*
X-1656049Y1349070D01*
X-1661891Y1346276D01*
X-1667479Y1340434D01*
X-1670527Y1334592D01*
X-1673321Y1325956D01*
X-1673321Y1311478D01*
X-1670527Y1302842D01*
X-1667479Y1297000D01*
X-1661891Y1291412D01*
X-1656049Y1288364D01*
X-1644619Y1288364D01*
X-1638777Y1291412D01*
X-1632935Y1297000D01*
X-1630141Y1302842D01*
X-1576293Y1340434D02*
G01*
X-1579341Y1346276D01*
X-1587977Y1349070D01*
X-1593819Y1349070D01*
X-1602455Y1346276D01*
X-1608043Y1337640D01*
X-1611091Y1323162D01*
X-1611091Y1308684D01*
X-1608043Y1297000D01*
X-1602455Y1291412D01*
X-1593819Y1288364D01*
X-1590771Y1288364D01*
X-1582135Y1291412D01*
X-1576293Y1297000D01*
X-1573499Y1305890D01*
X-1573499Y1308684D01*
X-1576293Y1317320D01*
X-1582135Y1323162D01*
X-1590771Y1325956D01*
X-1593819Y1325956D01*
X-1602455Y1323162D01*
X-1608043Y1317320D01*
X-1611091Y1308684D01*
D10*
X-1930140Y-300136D02*
G01*
X-2011685Y-293131D01*
X-1930140Y-300136D02*
G01*
X-1995652Y-349044D01*
X-1984014Y-296557D02*
G01*
X-1974001Y-331472D01*
X-1915507Y-351165D02*
G01*
X-1968002Y-366217D01*
X-1977522Y-372645D01*
X-1982327Y-381688D01*
X-1982980Y-393237D01*
X-1981019Y-400072D01*
X-1974347Y-409521D01*
X-1965479Y-414642D01*
X-1954001Y-415048D01*
X-1901507Y-399996D01*
X-1894855Y-423191D02*
G01*
X-1968347Y-444266D01*
X-1894855Y-423191D02*
G01*
X-1887854Y-447608D01*
X-1888261Y-459087D01*
X-1893310Y-468198D01*
X-1899168Y-473577D01*
X-1908688Y-480006D01*
X-1926267Y-485046D01*
X-1937745Y-484639D01*
X-1945807Y-483250D01*
X-1954674Y-478132D01*
X-1961347Y-468683D01*
X-1968347Y-444266D01*
X-1874202Y-495218D02*
G01*
X-1947694Y-516293D01*
X-1861599Y-539168D02*
G01*
X-1867047Y-533067D01*
X-1876089Y-528261D01*
X-1883976Y-526559D01*
X-1895454Y-526153D01*
X-1913034Y-531192D01*
X-1922553Y-537621D01*
X-1928583Y-543313D01*
X-1933460Y-552112D01*
X-1935091Y-560242D01*
X-1931101Y-574159D01*
X-1925408Y-580189D01*
X-1916541Y-585309D01*
X-1908479Y-586699D01*
X-1897001Y-587105D01*
X-1879422Y-582066D01*
X-1869902Y-575635D01*
X-1864047Y-570257D01*
X-1858998Y-561146D01*
X-1857608Y-553085D01*
X-1861599Y-539168D01*
X115059Y655205D02*
G01*
X115059Y594499D01*
X115059Y655205D02*
G01*
X140967Y655205D01*
X149603Y652411D01*
X152651Y649363D01*
X155445Y643775D01*
X155445Y637933D01*
X152651Y632091D01*
X149603Y629297D01*
X140967Y626249D01*
X115059Y626249D01*
X135125Y626249D02*
G01*
X155445Y594499D01*
X174495Y643775D02*
G01*
X180337Y646569D01*
X188973Y655205D01*
X188973Y594499D01*
X245361Y634885D02*
G01*
X242567Y626249D01*
X236725Y620661D01*
X228089Y617613D01*
X225295Y617613D01*
X216659Y620661D01*
X210817Y626249D01*
X208023Y634885D01*
X208023Y637933D01*
X210817Y646569D01*
X216659Y652411D01*
X225295Y655205D01*
X228089Y655205D01*
X236725Y652411D01*
X242567Y646569D01*
X245361Y634885D01*
X245361Y620661D01*
X242567Y606183D01*
X236725Y597547D01*
X228089Y594499D01*
X222501Y594499D01*
X213611Y597547D01*
X210817Y603135D01*
D11*
X297456Y743826D02*
G01*
X297456Y700646D01*
X300250Y692010D01*
X306092Y686168D01*
X314728Y683120D01*
X320570Y683120D01*
X329206Y686168D01*
X334794Y692010D01*
X337842Y700646D01*
X337842Y743826D01*
X391436Y743826D02*
G01*
X362734Y743826D01*
X359686Y717918D01*
X362734Y720712D01*
X371370Y723760D01*
X380006Y723760D01*
X388642Y720712D01*
X394484Y714870D01*
X397278Y706234D01*
X397278Y700646D01*
X394484Y692010D01*
X388642Y686168D01*
X380006Y683120D01*
X371370Y683120D01*
X362734Y686168D01*
X359686Y688962D01*
X356892Y694804D01*
D10*
X-729256Y1500512D02*
G01*
X-729256Y1452760D01*
X-726208Y1443108D01*
X-719858Y1436758D01*
X-710206Y1433710D01*
X-703856Y1433710D01*
X-694204Y1436758D01*
X-687854Y1443108D01*
X-684806Y1452760D01*
X-684806Y1500512D01*
X-663724Y1487812D02*
G01*
X-657374Y1490860D01*
X-647976Y1500512D01*
X-647976Y1433710D01*
X348040Y-101488D02*
G01*
X348040Y-144922D01*
X350834Y-153558D01*
X356676Y-159146D01*
X365312Y-162194D01*
X371154Y-162194D01*
X379790Y-159146D01*
X385632Y-153558D01*
X388426Y-144922D01*
X388426Y-101488D01*
X421954Y-101488D02*
G01*
X413318Y-104282D01*
X410270Y-110124D01*
X410270Y-115966D01*
X413318Y-121808D01*
X418906Y-124602D01*
X430590Y-127396D01*
X439226Y-130444D01*
X445068Y-136032D01*
X447862Y-141874D01*
X447862Y-150510D01*
X445068Y-156352D01*
X442020Y-159146D01*
X433384Y-162194D01*
X421954Y-162194D01*
X413318Y-159146D01*
X410270Y-156352D01*
X407476Y-150510D01*
X407476Y-141874D01*
X410270Y-136032D01*
X416112Y-130444D01*
X424748Y-127396D01*
X436432Y-124602D01*
X442020Y-121808D01*
X445068Y-115966D01*
X445068Y-110124D01*
X442020Y-104282D01*
X433384Y-101488D01*
X421954Y-101488D01*
D11*
X-523392Y-740257D02*
G01*
X-523392Y-783691D01*
X-520598Y-792327D01*
X-514756Y-798169D01*
X-506120Y-800963D01*
X-500278Y-800963D01*
X-491642Y-798169D01*
X-486054Y-792327D01*
X-483006Y-783691D01*
X-483006Y-740257D01*
X-458368Y-740257D02*
G01*
X-426618Y-740257D01*
X-443890Y-763371D01*
X-435254Y-763371D01*
X-429412Y-766419D01*
X-426618Y-769213D01*
X-423570Y-777849D01*
X-423570Y-783691D01*
X-426618Y-792327D01*
X-432206Y-798169D01*
X-440842Y-800963D01*
X-449478Y-800963D01*
X-458368Y-798169D01*
X-461162Y-795121D01*
X-463956Y-789533D01*
X-312623Y-1773351D02*
G01*
X-312623Y-1834057D01*
X-312623Y-1773351D02*
G01*
X-286715Y-1773351D01*
X-278079Y-1776145D01*
X-275031Y-1779193D01*
X-272237Y-1784781D01*
X-272237Y-1790623D01*
X-275031Y-1796465D01*
X-278079Y-1799259D01*
X-286715Y-1802307D01*
X-312623Y-1802307D01*
X-292557Y-1802307D02*
G01*
X-272237Y-1834057D01*
X-218643Y-1773351D02*
G01*
X-247345Y-1773351D01*
X-250393Y-1799259D01*
X-247345Y-1796465D01*
X-238709Y-1793671D01*
X-230073Y-1793671D01*
X-221437Y-1796465D01*
X-215595Y-1802307D01*
X-212801Y-1810943D01*
X-212801Y-1816531D01*
X-215595Y-1825421D01*
X-221437Y-1831009D01*
X-230073Y-1834057D01*
X-238709Y-1834057D01*
X-247345Y-1831009D01*
X-250393Y-1828215D01*
X-253187Y-1822373D01*
X-330657Y-1567611D02*
G01*
X-330657Y-1628317D01*
X-330657Y-1567611D02*
G01*
X-304749Y-1567611D01*
X-296113Y-1570405D01*
X-293065Y-1573453D01*
X-290271Y-1579041D01*
X-290271Y-1584883D01*
X-293065Y-1590725D01*
X-296113Y-1593519D01*
X-304749Y-1596567D01*
X-330657Y-1596567D01*
X-310591Y-1596567D02*
G01*
X-290271Y-1628317D01*
X-271221Y-1579041D02*
G01*
X-265379Y-1576247D01*
X-256743Y-1567611D01*
X-256743Y-1628317D01*
X-203149Y-1567611D02*
G01*
X-232105Y-1567611D01*
X-234899Y-1593519D01*
X-232105Y-1590725D01*
X-223215Y-1587931D01*
X-214579Y-1587931D01*
X-205943Y-1590725D01*
X-200355Y-1596567D01*
X-197307Y-1605203D01*
X-197307Y-1610791D01*
X-200355Y-1619681D01*
X-205943Y-1625269D01*
X-214579Y-1628317D01*
X-223215Y-1628317D01*
X-232105Y-1625269D01*
X-234899Y-1622475D01*
X-237693Y-1616633D01*
X322323Y1191907D02*
G01*
X322323Y1131201D01*
X322323Y1191907D02*
G01*
X348231Y1191907D01*
X356867Y1189113D01*
X359915Y1186065D01*
X362709Y1180477D01*
X362709Y1174635D01*
X359915Y1168793D01*
X356867Y1165999D01*
X348231Y1162951D01*
X322323Y1162951D01*
X342389Y1162951D02*
G01*
X362709Y1131201D01*
X381759Y1180477D02*
G01*
X387601Y1183271D01*
X396237Y1191907D01*
X396237Y1131201D01*
X-1318770Y-1037343D02*
G01*
X-1258064Y-1037343D01*
X-1318770Y-1037343D02*
G01*
X-1318770Y-1011435D01*
X-1315976Y-1002799D01*
X-1312928Y-999751D01*
X-1307340Y-996957D01*
X-1301498Y-996957D01*
X-1295656Y-999751D01*
X-1292862Y-1002799D01*
X-1289814Y-1011435D01*
X-1289814Y-1037343D01*
X-1289814Y-1017277D02*
G01*
X-1258064Y-996957D01*
X-1318770Y-948951D02*
G01*
X-1278384Y-977907D01*
X-1278384Y-934727D01*
X-1318770Y-948951D02*
G01*
X-1258064Y-948951D01*
X-1223149Y-1033294D02*
G01*
X-1162443Y-1033294D01*
X-1223149Y-1033294D02*
G01*
X-1223149Y-1007386D01*
X-1220101Y-998750D01*
X-1217307Y-995956D01*
X-1211465Y-992908D01*
X-1205623Y-992908D01*
X-1200035Y-995956D01*
X-1196987Y-998750D01*
X-1194193Y-1007386D01*
X-1194193Y-1033294D01*
X-1194193Y-1013228D02*
G01*
X-1162443Y-992908D01*
X-1223149Y-959380D02*
G01*
X-1220101Y-968270D01*
X-1214513Y-971064D01*
X-1208671Y-971064D01*
X-1202829Y-968270D01*
X-1200035Y-962428D01*
X-1196987Y-950744D01*
X-1194193Y-942108D01*
X-1188351Y-936520D01*
X-1182763Y-933472D01*
X-1173873Y-933472D01*
X-1168285Y-936520D01*
X-1165237Y-939314D01*
X-1162443Y-947950D01*
X-1162443Y-959380D01*
X-1165237Y-968270D01*
X-1168285Y-971064D01*
X-1173873Y-973858D01*
X-1182763Y-973858D01*
X-1188351Y-971064D01*
X-1194193Y-965222D01*
X-1196987Y-956586D01*
X-1200035Y-945156D01*
X-1202829Y-939314D01*
X-1208671Y-936520D01*
X-1214513Y-936520D01*
X-1220101Y-939314D01*
X-1223149Y-947950D01*
X-1223149Y-959380D01*
X-965657Y-740333D02*
G01*
X-965657Y-801039D01*
X-965657Y-740333D02*
G01*
X-939749Y-740333D01*
X-931113Y-743127D01*
X-928065Y-746175D01*
X-925271Y-751763D01*
X-925271Y-757605D01*
X-928065Y-763447D01*
X-931113Y-766241D01*
X-939749Y-769289D01*
X-965657Y-769289D01*
X-945591Y-769289D02*
G01*
X-925271Y-801039D01*
X-906221Y-751763D02*
G01*
X-900379Y-748969D01*
X-891743Y-740333D01*
X-891743Y-801039D01*
X-872693Y-751763D02*
G01*
X-867105Y-748969D01*
X-858215Y-740333D01*
X-858215Y-801039D01*
X-1288704Y-1651873D02*
G01*
X-1288704Y-1712579D01*
X-1288704Y-1651873D02*
G01*
X-1262796Y-1651873D01*
X-1254160Y-1654921D01*
X-1251366Y-1657715D01*
X-1248318Y-1663557D01*
X-1248318Y-1669399D01*
X-1251366Y-1674987D01*
X-1254160Y-1678035D01*
X-1262796Y-1680829D01*
X-1288704Y-1680829D01*
X-1268638Y-1680829D02*
G01*
X-1248318Y-1712579D01*
X-1226474Y-1666351D02*
G01*
X-1226474Y-1663557D01*
X-1223680Y-1657715D01*
X-1220632Y-1654921D01*
X-1214790Y-1651873D01*
X-1203360Y-1651873D01*
X-1197518Y-1654921D01*
X-1194724Y-1657715D01*
X-1191930Y-1663557D01*
X-1191930Y-1669399D01*
X-1194724Y-1674987D01*
X-1200566Y-1683623D01*
X-1229268Y-1712579D01*
X-1188882Y-1712579D01*
X-1169832Y-1663557D02*
G01*
X-1163990Y-1660509D01*
X-1155354Y-1651873D01*
X-1155354Y-1712579D01*
X-1292463Y-1729267D02*
G01*
X-1292463Y-1789719D01*
X-1292463Y-1729267D02*
G01*
X-1266301Y-1729267D01*
X-1257665Y-1732061D01*
X-1254871Y-1734855D01*
X-1252077Y-1740697D01*
X-1252077Y-1746539D01*
X-1254871Y-1752381D01*
X-1257665Y-1755175D01*
X-1266301Y-1757969D01*
X-1292463Y-1757969D01*
X-1272143Y-1757969D02*
G01*
X-1252077Y-1789719D01*
X-1229979Y-1743491D02*
G01*
X-1229979Y-1740697D01*
X-1227185Y-1734855D01*
X-1224137Y-1732061D01*
X-1218549Y-1729267D01*
X-1206865Y-1729267D01*
X-1201277Y-1732061D01*
X-1198229Y-1734855D01*
X-1195435Y-1740697D01*
X-1195435Y-1746539D01*
X-1198229Y-1752381D01*
X-1204071Y-1761017D01*
X-1233027Y-1789719D01*
X-1192387Y-1789719D01*
X-1167749Y-1729267D02*
G01*
X-1135999Y-1729267D01*
X-1153271Y-1752381D01*
X-1144635Y-1752381D01*
X-1138793Y-1755175D01*
X-1135999Y-1757969D01*
X-1132951Y-1766605D01*
X-1132951Y-1772447D01*
X-1135999Y-1781083D01*
X-1141587Y-1786925D01*
X-1150477Y-1789719D01*
X-1159113Y-1789719D01*
X-1167749Y-1786925D01*
X-1170543Y-1784131D01*
X-1173337Y-1778289D01*
X202689Y-366382D02*
G01*
X202689Y-427088D01*
X202689Y-366382D02*
G01*
X228597Y-366382D01*
X237233Y-369176D01*
X240281Y-372224D01*
X243075Y-377812D01*
X243075Y-383654D01*
X240281Y-389496D01*
X237233Y-392290D01*
X228597Y-395338D01*
X202689Y-395338D01*
X222755Y-395338D02*
G01*
X243075Y-427088D01*
X264919Y-380860D02*
G01*
X264919Y-377812D01*
X267967Y-372224D01*
X270761Y-369176D01*
X276603Y-366382D01*
X288033Y-366382D01*
X293875Y-369176D01*
X296669Y-372224D01*
X299717Y-377812D01*
X299717Y-383654D01*
X296669Y-389496D01*
X291081Y-398132D01*
X262125Y-427088D01*
X302511Y-427088D01*
X359153Y-386702D02*
G01*
X356105Y-395338D01*
X350517Y-400926D01*
X341881Y-403974D01*
X338833Y-403974D01*
X330197Y-400926D01*
X324355Y-395338D01*
X321561Y-386702D01*
X321561Y-383654D01*
X324355Y-375018D01*
X330197Y-369176D01*
X338833Y-366382D01*
X341881Y-366382D01*
X350517Y-369176D01*
X356105Y-375018D01*
X359153Y-386702D01*
X359153Y-400926D01*
X356105Y-415404D01*
X350517Y-424040D01*
X341881Y-427088D01*
X336039Y-427088D01*
X327403Y-424040D01*
X324355Y-418452D01*
X248665Y-228345D02*
G01*
X248665Y-289052D01*
X248665Y-228345D02*
G01*
X274574Y-228345D01*
X283210Y-231139D01*
X286258Y-234187D01*
X289052Y-239776D01*
X289052Y-245618D01*
X286258Y-251460D01*
X283210Y-254253D01*
X274574Y-257302D01*
X248665Y-257302D01*
X268731Y-257302D02*
G01*
X289052Y-289052D01*
X313944Y-228345D02*
G01*
X345694Y-228345D01*
X328168Y-251460D01*
X337058Y-251460D01*
X342646Y-254253D01*
X345694Y-257302D01*
X348488Y-265937D01*
X348488Y-271526D01*
X345694Y-280415D01*
X339852Y-286003D01*
X331215Y-289052D01*
X322580Y-289052D01*
X313944Y-286003D01*
X310896Y-283210D01*
X308102Y-277368D01*
X384810Y-228345D02*
G01*
X376174Y-231139D01*
X370331Y-239776D01*
X367538Y-254253D01*
X367538Y-262889D01*
X370331Y-277368D01*
X376174Y-286003D01*
X384810Y-289052D01*
X390652Y-289052D01*
X399288Y-286003D01*
X405130Y-277368D01*
X407924Y-262889D01*
X407924Y-254253D01*
X405130Y-239776D01*
X399288Y-231139D01*
X390652Y-228345D01*
X384810Y-228345D01*
X600961Y370217D02*
G01*
X598167Y376059D01*
X592325Y381647D01*
X586737Y384695D01*
X575053Y384695D01*
X569211Y381647D01*
X563623Y376059D01*
X560575Y370217D01*
X557781Y361581D01*
X557781Y347103D01*
X560575Y338467D01*
X563623Y332625D01*
X569211Y326783D01*
X575053Y323989D01*
X586737Y323989D01*
X592325Y326783D01*
X598167Y332625D01*
X600961Y338467D01*
X623059Y370217D02*
G01*
X623059Y373011D01*
X625853Y378853D01*
X628901Y381647D01*
X634489Y384695D01*
X646173Y384695D01*
X651761Y381647D01*
X654809Y378853D01*
X657603Y373011D01*
X657603Y367423D01*
X654809Y361581D01*
X648967Y352945D01*
X620011Y323989D01*
X660651Y323989D01*
X714245Y376059D02*
G01*
X711451Y381647D01*
X702561Y384695D01*
X696973Y384695D01*
X688337Y381647D01*
X682495Y373011D01*
X679701Y358533D01*
X679701Y344309D01*
X682495Y332625D01*
X688337Y326783D01*
X696973Y323989D01*
X699767Y323989D01*
X708403Y326783D01*
X714245Y332625D01*
X717039Y341261D01*
X717039Y344309D01*
X714245Y352945D01*
X708403Y358533D01*
X699767Y361581D01*
X696973Y361581D01*
X688337Y358533D01*
X682495Y352945D01*
X679701Y344309D01*
X363778Y369646D02*
G01*
X363778Y308940D01*
X363778Y369646D02*
G01*
X389686Y369646D01*
X398322Y366852D01*
X401370Y363804D01*
X404164Y358216D01*
X404164Y352374D01*
X401370Y346532D01*
X398322Y343738D01*
X389686Y340690D01*
X363778Y340690D01*
X383844Y340690D02*
G01*
X404164Y308940D01*
X423214Y358216D02*
G01*
X429056Y361010D01*
X437692Y369646D01*
X437692Y308940D01*
X491286Y361010D02*
G01*
X488492Y366852D01*
X479856Y369646D01*
X474014Y369646D01*
X465378Y366852D01*
X459536Y358216D01*
X456742Y343738D01*
X456742Y329260D01*
X459536Y317576D01*
X465378Y311988D01*
X474014Y308940D01*
X476808Y308940D01*
X485444Y311988D01*
X491286Y317576D01*
X494080Y326466D01*
X494080Y329260D01*
X491286Y337896D01*
X485444Y343738D01*
X476808Y346532D01*
X474014Y346532D01*
X465378Y343738D01*
X459536Y337896D01*
X456742Y329260D01*
X40891Y-76314D02*
G01*
X40891Y-137020D01*
X40891Y-76314D02*
G01*
X66799Y-76314D01*
X75435Y-79362D01*
X78483Y-82156D01*
X81277Y-87998D01*
X81277Y-93586D01*
X78483Y-99428D01*
X75435Y-102476D01*
X66799Y-105270D01*
X40891Y-105270D01*
X61211Y-105270D02*
G01*
X81277Y-137020D01*
X103121Y-90792D02*
G01*
X103121Y-87998D01*
X106169Y-82156D01*
X108963Y-79362D01*
X114805Y-76314D01*
X126235Y-76314D01*
X132077Y-79362D01*
X134871Y-82156D01*
X137919Y-87998D01*
X137919Y-93586D01*
X134871Y-99428D01*
X129283Y-108064D01*
X100327Y-137020D01*
X140713Y-137020D01*
X177035Y-76314D02*
G01*
X168399Y-79362D01*
X162811Y-87998D01*
X159763Y-102476D01*
X159763Y-111112D01*
X162811Y-125336D01*
X168399Y-134226D01*
X177035Y-137020D01*
X182877Y-137020D01*
X191513Y-134226D01*
X197355Y-125336D01*
X200149Y-111112D01*
X200149Y-102476D01*
X197355Y-87998D01*
X191513Y-79362D01*
X182877Y-76314D01*
X177035Y-76314D01*
X609343Y703719D02*
G01*
X606549Y709561D01*
X600707Y715149D01*
X595119Y718197D01*
X583435Y718197D01*
X577593Y715149D01*
X572005Y709561D01*
X568957Y703719D01*
X566163Y695083D01*
X566163Y680605D01*
X568957Y671969D01*
X572005Y666127D01*
X577593Y660285D01*
X583435Y657491D01*
X595119Y657491D01*
X600707Y660285D01*
X606549Y666127D01*
X609343Y671969D01*
X631441Y703719D02*
G01*
X631441Y706513D01*
X634235Y712355D01*
X637283Y715149D01*
X642871Y718197D01*
X654555Y718197D01*
X660143Y715149D01*
X663191Y712355D01*
X665985Y706513D01*
X665985Y700925D01*
X663191Y695083D01*
X657349Y686447D01*
X628393Y657491D01*
X669033Y657491D01*
X722627Y718197D02*
G01*
X693671Y718197D01*
X690877Y692035D01*
X693671Y695083D01*
X702307Y697877D01*
X710943Y697877D01*
X719833Y695083D01*
X725421Y689241D01*
X728469Y680605D01*
X728469Y674763D01*
X725421Y666127D01*
X719833Y660285D01*
X710943Y657491D01*
X702307Y657491D01*
X693671Y660285D01*
X690877Y663333D01*
X688083Y669175D01*
X-1621360Y779833D02*
G01*
X-1560654Y779833D01*
X-1621360Y779833D02*
G01*
X-1621360Y805741D01*
X-1618312Y814377D01*
X-1615518Y817171D01*
X-1609676Y820219D01*
X-1603834Y820219D01*
X-1598246Y817171D01*
X-1595198Y814377D01*
X-1592404Y805741D01*
X-1592404Y779833D01*
X-1592404Y799899D02*
G01*
X-1560654Y820219D01*
X-1606882Y842063D02*
G01*
X-1609676Y842063D01*
X-1615518Y844857D01*
X-1618312Y847905D01*
X-1621360Y853747D01*
X-1621360Y865177D01*
X-1618312Y871019D01*
X-1615518Y873813D01*
X-1609676Y876607D01*
X-1603834Y876607D01*
X-1598246Y873813D01*
X-1589610Y867971D01*
X-1560654Y839269D01*
X-1560654Y879655D01*
X-1621360Y927407D02*
G01*
X-1580974Y898705D01*
X-1580974Y941885D01*
X-1621360Y927407D02*
G01*
X-1560654Y927407D01*
X-1994796Y380845D02*
G01*
X-2000638Y378051D01*
X-2006480Y372209D01*
X-2009274Y366367D01*
X-2009274Y354937D01*
X-2006480Y349095D01*
X-2000638Y343507D01*
X-1994796Y340459D01*
X-1986160Y337665D01*
X-1971682Y337665D01*
X-1963046Y340459D01*
X-1957204Y343507D01*
X-1951616Y349095D01*
X-1948568Y354937D01*
X-1948568Y366367D01*
X-1951616Y372209D01*
X-1957204Y378051D01*
X-1963046Y380845D01*
X-2009274Y414373D02*
G01*
X-2006480Y405737D01*
X-2000638Y402943D01*
X-1994796Y402943D01*
X-1988954Y405737D01*
X-1986160Y411579D01*
X-1983366Y423009D01*
X-1980318Y431645D01*
X-1974730Y437487D01*
X-1968888Y440281D01*
X-1960252Y440281D01*
X-1954410Y437487D01*
X-1951616Y434693D01*
X-1948568Y426057D01*
X-1948568Y414373D01*
X-1951616Y405737D01*
X-1954410Y402943D01*
X-1960252Y399895D01*
X-1968888Y399895D01*
X-1974730Y402943D01*
X-1980318Y408531D01*
X-1983366Y417167D01*
X-1986160Y428851D01*
X-1988954Y434693D01*
X-1994796Y437487D01*
X-2000638Y437487D01*
X-2006480Y434693D01*
X-2009274Y426057D01*
X-2009274Y414373D01*
X-1140673Y-1196761D02*
G01*
X-1140673Y-1239941D01*
X-1137879Y-1248831D01*
X-1132037Y-1254419D01*
X-1123401Y-1257467D01*
X-1117559Y-1257467D01*
X-1108923Y-1254419D01*
X-1103081Y-1248831D01*
X-1100287Y-1239941D01*
X-1100287Y-1196761D01*
X-1081237Y-1208191D02*
G01*
X-1075395Y-1205397D01*
X-1066759Y-1196761D01*
X-1066759Y-1257467D01*
X-1013165Y-1196761D02*
G01*
X-1042121Y-1196761D01*
X-1044915Y-1222669D01*
X-1042121Y-1219875D01*
X-1033231Y-1217081D01*
X-1024595Y-1217081D01*
X-1015959Y-1219875D01*
X-1010371Y-1225717D01*
X-1007323Y-1234353D01*
X-1007323Y-1239941D01*
X-1010371Y-1248831D01*
X-1015959Y-1254419D01*
X-1024595Y-1257467D01*
X-1033231Y-1257467D01*
X-1042121Y-1254419D01*
X-1044915Y-1251625D01*
X-1047709Y-1245783D01*
X-1724980Y364296D02*
G01*
X-1730822Y361502D01*
X-1736664Y355660D01*
X-1739458Y349818D01*
X-1739458Y338388D01*
X-1736664Y332546D01*
X-1730822Y326958D01*
X-1724980Y323910D01*
X-1716344Y321116D01*
X-1701866Y321116D01*
X-1693230Y323910D01*
X-1687388Y326958D01*
X-1681800Y332546D01*
X-1678752Y338388D01*
X-1678752Y349818D01*
X-1681800Y355660D01*
X-1687388Y361502D01*
X-1693230Y364296D01*
X-1728028Y383346D02*
G01*
X-1730822Y389188D01*
X-1739458Y397824D01*
X-1678752Y397824D01*
X-1730822Y451418D02*
G01*
X-1736664Y448624D01*
X-1739458Y439988D01*
X-1739458Y434146D01*
X-1736664Y425510D01*
X-1728028Y419668D01*
X-1713550Y416874D01*
X-1699072Y416874D01*
X-1687388Y419668D01*
X-1681800Y425510D01*
X-1678752Y434146D01*
X-1678752Y437194D01*
X-1681800Y445830D01*
X-1687388Y451418D01*
X-1696278Y454466D01*
X-1699072Y454466D01*
X-1707708Y451418D01*
X-1713550Y445830D01*
X-1716344Y437194D01*
X-1716344Y434146D01*
X-1713550Y425510D01*
X-1707708Y419668D01*
X-1699072Y416874D01*
X197609Y883297D02*
G01*
X194815Y889139D01*
X188973Y894981D01*
X183131Y897775D01*
X171701Y897775D01*
X165859Y894981D01*
X160271Y889139D01*
X157223Y883297D01*
X154429Y874661D01*
X154429Y860183D01*
X157223Y851547D01*
X160271Y845705D01*
X165859Y840117D01*
X171701Y837069D01*
X183131Y837069D01*
X188973Y840117D01*
X194815Y845705D01*
X197609Y851547D01*
X216659Y886345D02*
G01*
X222501Y889139D01*
X231137Y897775D01*
X231137Y837069D01*
X-1161036Y-694550D02*
G01*
X-1163830Y-688708D01*
X-1169672Y-682866D01*
X-1175514Y-680072D01*
X-1186944Y-680072D01*
X-1192786Y-682866D01*
X-1198374Y-688708D01*
X-1201422Y-694550D01*
X-1204216Y-703186D01*
X-1204216Y-717664D01*
X-1201422Y-726300D01*
X-1198374Y-732142D01*
X-1192786Y-737730D01*
X-1186944Y-740778D01*
X-1175514Y-740778D01*
X-1169672Y-737730D01*
X-1163830Y-732142D01*
X-1161036Y-726300D01*
X-1141986Y-691502D02*
G01*
X-1136144Y-688708D01*
X-1127508Y-680072D01*
X-1127508Y-740778D01*
X-1079502Y-680072D02*
G01*
X-1108458Y-720458D01*
X-1065024Y-720458D01*
X-1079502Y-680072D02*
G01*
X-1079502Y-740778D01*
X610867Y800747D02*
G01*
X608073Y806589D01*
X602231Y812177D01*
X596643Y815225D01*
X584959Y815225D01*
X579117Y812177D01*
X573529Y806589D01*
X570481Y800747D01*
X567687Y792111D01*
X567687Y777633D01*
X570481Y768997D01*
X573529Y763155D01*
X579117Y757313D01*
X584959Y754519D01*
X596643Y754519D01*
X602231Y757313D01*
X608073Y763155D01*
X610867Y768997D01*
X632965Y800747D02*
G01*
X632965Y803541D01*
X635759Y809383D01*
X638807Y812177D01*
X644395Y815225D01*
X656079Y815225D01*
X661667Y812177D01*
X664715Y809383D01*
X667509Y803541D01*
X667509Y797953D01*
X664715Y792111D01*
X658873Y783475D01*
X629917Y754519D01*
X670557Y754519D01*
X718309Y815225D02*
G01*
X689607Y774839D01*
X732787Y774839D01*
X718309Y815225D02*
G01*
X718309Y754519D01*
X-2047369Y800930D02*
G01*
X-2047369Y757496D01*
X-2044575Y748860D01*
X-2038733Y743018D01*
X-2030097Y740224D01*
X-2024255Y740224D01*
X-2015619Y743018D01*
X-2009777Y748860D01*
X-2006983Y757496D01*
X-2006983Y800930D01*
X-1953389Y792294D02*
G01*
X-1956183Y797882D01*
X-1964819Y800930D01*
X-1970661Y800930D01*
X-1979297Y797882D01*
X-1985139Y789246D01*
X-1987933Y774768D01*
X-1987933Y760544D01*
X-1985139Y748860D01*
X-1979297Y743018D01*
X-1970661Y740224D01*
X-1967867Y740224D01*
X-1958977Y743018D01*
X-1953389Y748860D01*
X-1950341Y757496D01*
X-1950341Y760544D01*
X-1953389Y769180D01*
X-1958977Y774768D01*
X-1967867Y777816D01*
X-1970661Y777816D01*
X-1979297Y774768D01*
X-1985139Y769180D01*
X-1987933Y760544D01*
D12*
X-1867616Y-811964D02*
G01*
X-1382580Y-1332102D01*
X-1642648Y-1574622D01*
X-2127686Y-1054483D01*
X-1867616Y-811964D01*
X620265Y-374002D02*
G01*
X620265Y-69202D01*
X1026665Y-374002D02*
G01*
X1026665Y-69202D01*
X-1568495Y-78026D02*
G01*
X-2279695Y-78026D01*
X-2279695Y277573D01*
X-1568495Y277573D01*
X-1568495Y-78026D01*
D10*
X-1763234Y1177165D02*
G01*
X-1684225Y1177165D01*
X-1684225Y1276885D02*
G01*
X-1763234Y1276885D01*
X-1778474Y1261645D02*
G01*
X-1778474Y1192405D01*
X-1559974Y1177165D02*
G01*
X-1638983Y1177165D01*
X-1638983Y1276885D02*
G01*
X-1559974Y1276885D01*
X-1544734Y1261645D02*
G01*
X-1544734Y1192405D01*
D12*
X-2103942Y-114861D02*
G01*
X-1907908Y-798515D01*
X-2249731Y-896533D01*
X-2445765Y-212877D01*
X-2103942Y-114861D01*
D10*
X339529Y447281D02*
G01*
X267726Y447281D01*
X267726Y547001D01*
X339529Y547001D01*
X384771Y447281D02*
G01*
X456575Y447281D01*
X456575Y547001D01*
X384771Y547001D01*
X339275Y568693D02*
G01*
X267472Y568693D01*
X267472Y668413D01*
X339275Y668413D01*
X384517Y568693D02*
G01*
X456321Y568693D01*
X456321Y668413D01*
X384517Y668413D01*
X390215Y859972D02*
G01*
X390215Y764733D01*
X294975Y764733D01*
X294975Y859972D01*
X390215Y859972D01*
D11*
X-1499308Y892716D02*
G01*
X-1499308Y1397718D01*
X40693Y1397718D01*
X40693Y892716D01*
X40693Y-652264D02*
G01*
X-1499308Y-652264D01*
D13*
X554822Y-52857D02*
G01*
X554822Y-80357D01*
X484822Y-80357D01*
X279824Y-80357D02*
G01*
X209821Y-80357D01*
X209821Y-52857D01*
X554822Y237142D02*
G01*
X554822Y264642D01*
X484822Y264642D01*
X279824Y264642D02*
G01*
X209821Y264642D01*
X209821Y237142D01*
D10*
X-913437Y-1725802D02*
G01*
X-975946Y-1725802D01*
X-975946Y-1725802D01*
X-975946Y-910564D01*
X-975946Y-910564D01*
X-913437Y-910564D01*
X-423217Y-1725802D02*
G01*
X-360707Y-1725802D01*
X-360707Y-1725802D01*
X-360707Y-910564D01*
X-360707Y-910564D01*
X-423217Y-910564D01*
X-272811Y-1763344D02*
G01*
X-344614Y-1763344D01*
X-344614Y-1663623D01*
X-272811Y-1663623D01*
X-227568Y-1763344D02*
G01*
X-155765Y-1763344D01*
X-155765Y-1663623D01*
X-227568Y-1663623D01*
X-288559Y-1547444D02*
G01*
X-360362Y-1547444D01*
X-360362Y-1447723D01*
X-288559Y-1447723D01*
X-243316Y-1547444D02*
G01*
X-171513Y-1547444D01*
X-171513Y-1447723D01*
X-243316Y-1447723D01*
X315643Y1042316D02*
G01*
X315643Y1114120D01*
X415363Y1114120D01*
X415363Y1042316D01*
X315643Y997074D02*
G01*
X315643Y925271D01*
X415363Y925271D01*
X415363Y997074D01*
X-1256276Y-1111189D02*
G01*
X-1256276Y-1065636D01*
X-1334396Y-1065636D01*
X-1334396Y-1111189D01*
X-1256276Y-1144427D02*
G01*
X-1256276Y-1189979D01*
X-1334396Y-1189979D01*
X-1334396Y-1144427D01*
X-1162296Y-1108903D02*
G01*
X-1162296Y-1063350D01*
X-1240416Y-1063350D01*
X-1240416Y-1108903D01*
X-1162296Y-1142141D02*
G01*
X-1162296Y-1187693D01*
X-1240416Y-1187693D01*
X-1240416Y-1142141D01*
X-793912Y-730496D02*
G01*
X-839464Y-730496D01*
X-839464Y-808616D01*
X-793912Y-808616D01*
X-760674Y-730496D02*
G01*
X-715121Y-730496D01*
X-715121Y-808616D01*
X-760674Y-808616D01*
X-1039449Y-1720334D02*
G01*
X-993896Y-1720334D01*
X-993896Y-1642214D01*
X-1039449Y-1642214D01*
X-1072687Y-1720334D02*
G01*
X-1118240Y-1720334D01*
X-1118240Y-1642214D01*
X-1072687Y-1642214D01*
X-1039195Y-1821426D02*
G01*
X-993642Y-1821426D01*
X-993642Y-1743306D01*
X-1039195Y-1743306D01*
X-1072433Y-1821426D02*
G01*
X-1117986Y-1821426D01*
X-1117986Y-1743306D01*
X-1072433Y-1743306D01*
X135742Y-435414D02*
G01*
X181295Y-435414D01*
X181295Y-357294D01*
X135742Y-357294D01*
X102504Y-435414D02*
G01*
X56951Y-435414D01*
X56951Y-357294D01*
X102504Y-357294D01*
X177909Y-292806D02*
G01*
X223461Y-292806D01*
X223461Y-214685D01*
X177909Y-214685D01*
X144670Y-292806D02*
G01*
X99118Y-292806D01*
X99118Y-214685D01*
X144670Y-214685D01*
X533316Y403339D02*
G01*
X612325Y403339D01*
X612325Y503059D02*
G01*
X533316Y503059D01*
X518076Y487819D02*
G01*
X518076Y418579D01*
X736577Y403339D02*
G01*
X657567Y403339D01*
X657567Y503059D02*
G01*
X736577Y503059D01*
X751817Y487819D02*
G01*
X751817Y418579D01*
X220149Y291071D02*
G01*
X148346Y291071D01*
X148346Y390791D01*
X220149Y390791D01*
X265391Y291071D02*
G01*
X337195Y291071D01*
X337195Y390791D01*
X265391Y390791D01*
X185750Y18526D02*
G01*
X185750Y-53276D01*
X86029Y-53276D01*
X86029Y18526D01*
X185750Y63769D02*
G01*
X185750Y135572D01*
X86029Y135572D01*
X86029Y63769D01*
X532604Y539051D02*
G01*
X611614Y539051D01*
X611614Y638771D02*
G01*
X532604Y638771D01*
X517364Y623531D02*
G01*
X517364Y554291D01*
X735865Y539051D02*
G01*
X656856Y539051D01*
X656856Y638771D02*
G01*
X735865Y638771D01*
X751105Y623531D02*
G01*
X751105Y554291D01*
X-1544688Y1038796D02*
G01*
X-1544688Y966993D01*
X-1644408Y966993D01*
X-1644408Y1038796D01*
X-1544688Y1084038D02*
G01*
X-1544688Y1155842D01*
X-1644408Y1155842D01*
X-1644408Y1084038D01*
X-1929264Y438988D02*
G01*
X-1929264Y402142D01*
X-1851144Y402142D02*
G01*
X-1851144Y438988D01*
X-1866384Y454228D02*
G01*
X-1914024Y454228D01*
X-1929264Y332059D02*
G01*
X-1929264Y368904D01*
X-1851144Y368904D02*
G01*
X-1851144Y332059D01*
X-1866384Y316819D02*
G01*
X-1914024Y316819D01*
D12*
X-1349085Y-1601647D02*
G01*
X-1309890Y-1601647D01*
X-1088664Y-1601647D02*
G01*
X-1049083Y-1601647D01*
X-1049083Y-1301645D02*
G01*
X-1088664Y-1301645D01*
X-1309890Y-1301645D02*
G01*
X-1349085Y-1301645D01*
X-1349085Y-1601647D02*
G01*
X-1349085Y-1562120D01*
X-1349085Y-1341046D02*
G01*
X-1349085Y-1301645D01*
X-1049083Y-1601647D02*
G01*
X-1049083Y-1562120D01*
X-1049083Y-1340893D02*
G01*
X-1049083Y-1301645D01*
D10*
X-1664030Y556544D02*
G01*
X-1664030Y477535D01*
X-1564309Y477535D02*
G01*
X-1564309Y556544D01*
X-1579549Y571784D02*
G01*
X-1648790Y571784D01*
X-1664030Y353283D02*
G01*
X-1664030Y432292D01*
X-1564309Y432292D02*
G01*
X-1564309Y353283D01*
X-1579549Y338043D02*
G01*
X-1648790Y338043D01*
X157401Y1148758D02*
G01*
X157401Y1069748D01*
X257121Y1069748D02*
G01*
X257121Y1148758D01*
X241881Y1163998D02*
G01*
X172641Y1163998D01*
X157401Y945497D02*
G01*
X157401Y1024506D01*
X257121Y1024506D02*
G01*
X257121Y945497D01*
X241881Y930257D02*
G01*
X172641Y930257D01*
X-1021102Y-765162D02*
G01*
X-1100112Y-765162D01*
X-1100112Y-864882D02*
G01*
X-1021102Y-864882D01*
X-1005862Y-849642D02*
G01*
X-1005862Y-780402D01*
X-1224363Y-765162D02*
G01*
X-1145354Y-765162D01*
X-1145354Y-864882D02*
G01*
X-1224363Y-864882D01*
X-1239603Y-849642D02*
G01*
X-1239603Y-780402D01*
X456308Y877917D02*
G01*
X456308Y798908D01*
X556028Y798908D02*
G01*
X556028Y877917D01*
X540786Y893157D02*
G01*
X471551Y893157D01*
X456308Y674657D02*
G01*
X456308Y753666D01*
X556028Y753666D02*
G01*
X556028Y674657D01*
X540786Y659417D02*
G01*
X471551Y659417D01*
D14*
X-1947214Y928811D02*
G01*
X-1637207Y928809D01*
X-1637207Y618804D02*
G01*
X-1637207Y928809D01*
X-1947212Y618931D02*
G01*
X-1637207Y618931D01*
X-1949627Y928811D02*
G01*
X-1949627Y844991D01*
X-1949627Y702751D02*
G01*
X-1949627Y618931D01*
D15*
G75*
G01*
X-1569824Y719087D02*
G03*
X-1569824Y718655I-10005J-216D01*
D10*
G75*
G01*
X-1763235Y1276886D02*
G03*
X-1778475Y1261646I0J-15240D01*
G75*
G01*
X-1778475Y1192406D02*
G03*
X-1763235Y1177166I15240J0D01*
G75*
G01*
X-1559974Y1276886D02*
G02*
X-1544734Y1261646I0J-15240D01*
G75*
G01*
X-1544734Y1192406D02*
G02*
X-1559974Y1177166I-15240J0D01*
D16*
G75*
G01*
X587301Y-65339D02*
G03*
X587301Y-65085I12499J127D01*
D10*
G75*
G01*
X533316Y503060D02*
G03*
X518076Y487820I0J-15240D01*
G75*
G01*
X518076Y418579D02*
G03*
X533316Y403339I15240J0D01*
G75*
G01*
X736577Y503060D02*
G02*
X751817Y487820I0J-15240D01*
G75*
G01*
X751817Y418579D02*
G02*
X736577Y403339I-15240J0D01*
G75*
G01*
X532605Y638772D02*
G03*
X517365Y623532I0J-15240D01*
G75*
G01*
X517365Y554292D02*
G03*
X532605Y539052I15240J0D01*
G75*
G01*
X735866Y638772D02*
G02*
X751106Y623532I0J-15240D01*
G75*
G01*
X751106Y554292D02*
G02*
X735866Y539052I-15240J0D01*
G75*
G01*
X-1851144Y438988D02*
G03*
X-1866384Y454228I-15240J0D01*
G75*
G01*
X-1914025Y454228D02*
G03*
X-1929265Y438988I0J-15240D01*
G75*
G01*
X-1851144Y332059D02*
G02*
X-1866384Y316819I-15240J0D01*
G75*
G01*
X-1914025Y316819D02*
G02*
X-1929265Y332059I0J15240D01*
G75*
G01*
X-1564310Y556544D02*
G03*
X-1579550Y571784I-15240J0D01*
G75*
G01*
X-1648790Y571784D02*
G03*
X-1664030Y556544I0J-15240D01*
G75*
G01*
X-1564310Y353284D02*
G02*
X-1579550Y338044I-15240J0D01*
G75*
G01*
X-1648790Y338044D02*
G02*
X-1664030Y353284I0J15240D01*
G75*
G01*
X257122Y1148758D02*
G03*
X241882Y1163998I-15240J0D01*
G75*
G01*
X172641Y1163998D02*
G03*
X157401Y1148758I0J-15240D01*
G75*
G01*
X257122Y945497D02*
G02*
X241882Y930257I-15240J0D01*
G75*
G01*
X172641Y930257D02*
G02*
X157401Y945497I0J15240D01*
G75*
G01*
X-1021103Y-864883D02*
G03*
X-1005863Y-849643I0J15240D01*
G75*
G01*
X-1005863Y-780402D02*
G03*
X-1021103Y-765162I-15240J0D01*
G75*
G01*
X-1224364Y-864883D02*
G02*
X-1239604Y-849643I0J15240D01*
G75*
G01*
X-1239604Y-780402D02*
G02*
X-1224364Y-765162I15240J0D01*
G75*
G01*
X556029Y877918D02*
G03*
X540786Y893158I-15240J0D01*
G75*
G01*
X471551Y893158D02*
G03*
X456308Y877918I-3J-15240D01*
G75*
G01*
X556029Y674657D02*
G02*
X540786Y659417I-15240J0D01*
G75*
G01*
X471551Y659417D02*
G02*
X456308Y674657I-3J15240D01*
D14*
G75*
G01*
X-1949628Y842452D02*
G02*
X-1949628Y702752I-21730J-69850D01*
D12*
G75*
G01
X1090165Y6998D02*
G03X1090165Y6998I-25400J0D01*
D17*
G75*
G01
X271396Y837756D02*
G03X271396Y837756I-5004J0D01*
D18*
G75*
G01
X-922531Y-1762722D02*
G03X-922531Y-1762722I-12497J0D01*
D12*
G75*
G01
X-1009145Y-1580528D02*
G03X-1009145Y-1580528I-5436J0D01*
M02*
