G04 Layer: BottomLayer*
G04 Panelize: , Column: 1, Row: 1, Board Size: 43.14mm x 33.02mm, Panelized Board Size: 43.14mm x 33.02mm*
G04 EasyEDA v6.5.42, 2024-06-18 11:53:45*
G04 3ed26e891263433bbece19e77b9ceb9f,9a4ed40c0dd746429eaf55b84663d2fb,10*
G04 Gerber Generator version 0.2*
G04 Scale: 100 percent, Rotated: No, Reflected: No *
G04 Dimensions in millimeters *
G04 leading zeros omitted , absolute positions ,4 integer and 5 decimal *
%FSLAX45Y45*%
%MOMM*%

%AMMACRO1*21,1,$1,$2,0,0,$3*%
%ADD10C,0.5000*%
%ADD11C,0.1600*%
%ADD12C,0.3000*%
%ADD13C,0.2000*%
%ADD14C,0.8000*%
%ADD15MACRO1,1.524X1.524X-44.9993*%
%ADD16MACRO1,1.524X1.524X-45.0007*%
%ADD17MACRO1,1.524X1.524X-134.9993*%
%ADD18MACRO1,1.524X1.524X-135.0007*%
%ADD19MACRO1,0.2997X1.0998X90.0000*%
%ADD20MACRO1,0.3023X1.0998X90.0000*%
%ADD21MACRO1,2X1.8X-90.0000*%
%ADD22MACRO1,0.54X0.5656X-90.0000*%
%ADD23MACRO1,0.54X0.5656X90.0000*%
%ADD24MACRO1,0.7X1.25X0.0000*%
%ADD25MACRO1,0.324X0.3031X-90.0000*%
%ADD26R,0.3240X0.3031*%
%ADD27MACRO1,0.324X0.3031X0.0000*%
%ADD28MACRO1,0.27X0.25X0.0000*%
%ADD29MACRO1,0.27X0.25X90.0000*%
%ADD30MACRO1,0.8X0.8X90.0000*%
%ADD31MACRO1,0.49X1.157X-90.0000*%
%ADD32MACRO1,0.49X1.175X-90.0000*%
%ADD33MACRO1,0.324X0.3031X90.0000*%
%ADD34MACRO1,0.3X1.3X90.0000*%
%ADD35MACRO1,2X3X90.0000*%
%ADD36O,1.7729962X0.6999986*%
%ADD37MACRO1,2.2X1.1X0.0000*%
%ADD38MACRO1,1.05X1X-90.0000*%
%ADD39R,0.4250X0.2800*%
%ADD40MACRO1,0.425X0.28X0.0000*%
%ADD41MACRO1,0.324X0.3685X-90.0000*%
%ADD42MACRO1,0.54X0.7901X-90.0000*%
%ADD43R,0.5400X0.7901*%
%ADD44MACRO1,0.54X0.7901X0.0000*%
%ADD45R,0.3240X0.3684*%
%ADD46MACRO1,0.324X0.3685X0.0000*%
%ADD47R,0.5400X0.5657*%
%ADD48MACRO1,0.54X0.5656X0.0000*%
%ADD49MACRO1,0.7X1.1X134.9985*%
%ADD50MACRO1,0.7X1.1X135.0015*%
%ADD51MACRO1,1.4X1.1X135.0000*%
%ADD52MACRO1,1.15X1.2X135.0009*%
%ADD53MACRO1,0.7X1.1X116.0007*%
%ADD54MACRO1,1.4X1.1X115.9997*%
%ADD55MACRO1,1.15X1.2X115.9997*%
%ADD56O,2.1999956000000003X1.1999976*%
%ADD57C,0.6096*%
%ADD58C,0.6200*%
%ADD59C,0.0198*%

%LPD*%
D10*
X-432407Y-176105D02*
G01*
X-434794Y-173718D01*
X-434794Y-15753D01*
X-432407Y-176105D02*
G01*
X-432407Y-206502D01*
X-499534Y-273629D01*
X-499534Y-301658D01*
X-736518Y-301658D01*
X-736518Y-296072D01*
D11*
X281106Y-260713D02*
G01*
X281106Y332689D01*
X221094Y392701D01*
X-25803Y392701D01*
X785695Y52191D02*
G01*
X785695Y181201D01*
X909594Y305094D01*
X909594Y422694D01*
X876289Y455998D01*
X767692Y455998D01*
X731398Y-17409D02*
G01*
X731398Y215699D01*
X832792Y317093D01*
X832792Y402302D01*
X595505Y103802D02*
G01*
X595505Y158386D01*
X706196Y269077D01*
X706196Y401386D01*
X652858Y1459831D02*
G01*
X541860Y1457799D01*
D12*
X962230Y-109888D02*
G01*
X1039700Y-109888D01*
X1079070Y-70518D01*
D13*
X1622043Y-230631D02*
G01*
X1622043Y-230631D01*
X1620812Y-110459D01*
X1433146Y-394114D02*
G01*
X1503172Y-394207D01*
D11*
X-403044Y-671428D02*
G01*
X-411502Y-662970D01*
X-411502Y-551695D01*
D10*
X-758111Y1265013D02*
G01*
X-593011Y1266029D01*
X-538909Y1319877D01*
X-520113Y1319877D01*
D12*
X1241717Y1858746D02*
G01*
X1264920Y1881949D01*
X1264920Y1943354D01*
X1321287Y1999721D01*
X1321287Y2012543D01*
X1562684Y1475554D02*
G01*
X1682193Y1595064D01*
X1687977Y1595064D01*
D13*
X-1045385Y999075D02*
G01*
X-907463Y999075D01*
X-907463Y1011775D01*
D12*
X1148158Y-394114D02*
G01*
X1148158Y-265844D01*
X1170002Y-244000D01*
X1290652Y-244000D01*
X1290652Y-543974D02*
G01*
X1164668Y-543974D01*
X1148158Y-527718D01*
X1148158Y-394114D01*
X1290657Y-243987D02*
G01*
X1314645Y-267977D01*
X1452628Y-267977D01*
X-89004Y271769D02*
G01*
X-103725Y257047D01*
X-160776Y257047D01*
X-213890Y203934D01*
X-213890Y167098D01*
X-138300Y-125915D02*
G01*
X-141371Y-128986D01*
X-220804Y-128986D01*
D13*
X-812467Y770983D02*
G01*
X-785289Y770983D01*
X-769033Y787239D01*
X-769033Y842611D01*
X-769033Y842611D02*
G01*
X-769033Y879949D01*
X-805609Y916271D01*
X-861743Y916271D01*
X-628878Y264413D02*
G01*
X-576577Y263144D01*
X-575045Y261612D01*
X-495297Y261612D01*
X-847265Y491583D02*
G01*
X-847265Y344263D01*
X-774875Y271873D01*
X-774875Y130903D01*
X-721535Y77563D01*
X-397431Y77563D01*
D10*
X-676831Y-17432D02*
G01*
X-725853Y-17432D01*
X-859203Y115917D01*
X-859203Y239615D01*
X-910257Y290669D01*
X-910257Y433925D01*
D13*
X-858187Y581499D02*
G01*
X-858187Y541621D01*
X-842947Y526127D01*
X-842947Y506569D01*
D12*
X-989073Y302252D02*
G01*
X-971951Y285130D01*
X-971951Y-60904D01*
X-1045448Y438960D02*
G01*
X-1047493Y355597D01*
X-994150Y302252D01*
X-989073Y302252D01*
X-1045385Y1048857D02*
G01*
X-1042334Y1051907D01*
X-1042334Y1111575D01*
X-1001773Y1152136D01*
D13*
X1365585Y1343766D02*
G01*
X1373057Y1336294D01*
X1475231Y1336294D01*
X1488823Y1349885D01*
X1607271Y1349885D01*
D12*
X1246202Y1321147D02*
G01*
X1247726Y1391759D01*
X487332Y353903D02*
G01*
X487332Y488027D01*
X448828Y526534D01*
X392940Y526534D01*
X487329Y1133911D02*
G01*
X491337Y1137920D01*
X681227Y1137920D01*
X706627Y1112520D01*
X706627Y1032763D01*
X706681Y968910D02*
G01*
X706630Y968961D01*
X706630Y1032756D01*
X706683Y918926D02*
G01*
X706683Y968913D01*
X1324815Y1754459D02*
G01*
X1241717Y1837557D01*
X1241717Y1858746D01*
X1607271Y1349885D02*
G01*
X1562684Y1394472D01*
X1562684Y1475554D01*
X-224995Y-19009D02*
G01*
X-210050Y-19009D01*
X-207939Y-16898D01*
X-138300Y-16898D01*
D13*
X1149581Y-105801D02*
G01*
X1149581Y-148369D01*
X1116840Y-181109D01*
D11*
X1486489Y1170132D02*
G01*
X1542361Y1170132D01*
X1588264Y1124231D01*
X1588264Y1088890D01*
X706681Y818923D02*
G01*
X812545Y818923D01*
X813064Y818405D01*
X837440Y818405D01*
X706683Y768913D02*
G01*
X627578Y768913D01*
X590710Y805781D01*
X514682Y805781D01*
X706704Y718911D02*
G01*
X586897Y718911D01*
X574296Y731512D01*
D13*
X1149581Y-55811D02*
G01*
X1149581Y-99580D01*
X1142039Y-107121D01*
X1237079Y-5801D02*
G01*
X1235991Y-4714D01*
X1235991Y46194D01*
X1237084Y-55811D02*
G01*
X1237084Y-14655D01*
X1229550Y-7122D01*
X1427736Y-108465D02*
G01*
X1429765Y-110495D01*
X1565429Y-110495D01*
X1237079Y-105801D02*
G01*
X1370208Y-105801D01*
X1372872Y-108465D01*
X1149581Y-5798D02*
G01*
X1143784Y-2D01*
X962304Y-2D01*
X-160449Y-658528D02*
G01*
X78Y-660052D01*
D10*
X-734108Y-567900D02*
G01*
X-736704Y-565304D01*
X-736704Y-296171D01*
D13*
X-1045461Y968923D02*
G01*
X-1035215Y979167D01*
X-911092Y979167D01*
X-907539Y982723D01*
X-907539Y1011674D01*
X-1045448Y488995D02*
G01*
X-945436Y488995D01*
X-910333Y453895D01*
X-910333Y433824D01*
X-1045461Y518972D02*
G01*
X-953571Y518972D01*
X-910333Y475734D01*
X-910333Y433824D01*
X-1045385Y818989D02*
G01*
X-973757Y818989D01*
X-952167Y840579D01*
X-892477Y840579D01*
X-865299Y813655D01*
X-865299Y721707D01*
X-677186Y264406D02*
G01*
X-677186Y172918D01*
X-676826Y172557D01*
X-906523Y581398D02*
G01*
X-944029Y618904D01*
X-1045461Y618904D01*
X-1045461Y668837D02*
G01*
X-891346Y668837D01*
X-884171Y661662D01*
X-1045385Y768951D02*
G01*
X-979345Y767935D01*
X-970709Y776571D01*
X-924989Y776571D01*
X-1045461Y919022D02*
G01*
X-1042609Y916170D01*
X-910104Y916170D01*
D12*
X81Y110073D02*
G01*
X-2435Y112590D01*
X-2435Y271772D01*
X-138300Y-16898D02*
G01*
X-16901Y-16898D01*
X-5Y-2D01*
X844306Y1302867D02*
G01*
X847257Y1305819D01*
X847257Y1596009D01*
D11*
X1678863Y1237378D02*
G01*
X1641358Y1237366D01*
X1607139Y1203154D01*
X1559664Y1203154D01*
X1528284Y1234531D01*
X1246207Y1234531D01*
D13*
X-562937Y-670745D02*
G01*
X-609384Y-624298D01*
X-649800Y-624298D01*
X-412671Y-419514D02*
G01*
X-412925Y-301912D01*
D12*
X-499285Y-419511D02*
G01*
X-549826Y-419511D01*
X-550616Y-420301D01*
X-571192Y-420301D01*
X-541423Y-176105D02*
G01*
X-541423Y-111848D01*
X-536084Y-106507D01*
X-535500Y-105918D01*
X-535500Y77561D01*
D11*
X1246207Y1234531D02*
G01*
X1154257Y1234531D01*
X1114808Y1273980D01*
X1114808Y1399786D01*
X-224995Y35821D02*
G01*
X-224983Y102887D01*
X-213890Y113979D01*
X-213890Y167098D01*
D12*
X962230Y110073D02*
G01*
X962230Y160619D01*
X991214Y189603D01*
X1021793Y189603D01*
D13*
X-498015Y-551594D02*
G01*
X-508175Y-541688D01*
X-508175Y-502318D01*
X-488363Y-482506D01*
X-381429Y-482506D01*
X-353997Y-455074D01*
X-353997Y-318930D01*
X-278305Y-243238D01*
X-278305Y138777D01*
X-312087Y172559D01*
X-397431Y172559D01*
X-698698Y1690496D02*
G01*
X-698698Y1720999D01*
X-767595Y1789897D01*
X-853498Y1513497D02*
G01*
X-853498Y1516593D01*
X-947199Y1610293D01*
D10*
X-520113Y1319877D02*
G01*
X-434261Y1405729D01*
X-434261Y1535269D01*
X-370253Y1599277D01*
X-299641Y1599277D01*
D11*
X652858Y1373217D02*
G01*
X731344Y1373217D01*
X745822Y1387695D01*
X745822Y1500725D01*
D12*
X1034366Y1302859D02*
G01*
X1034366Y1444337D01*
X1003378Y1475325D01*
X930988Y1475325D01*
D11*
X933782Y1595975D02*
G01*
X933782Y1648553D01*
X906604Y1672175D01*
X741758Y1672175D01*
X708484Y1638647D01*
X708484Y1578195D01*
X684862Y1554573D01*
X-255953Y1554573D01*
X-371777Y1438749D01*
X-371777Y886045D01*
X-318691Y832959D01*
X541860Y1457799D02*
G01*
X455500Y1457799D01*
X319102Y1321401D01*
X46814Y1321401D01*
X16588Y1351881D01*
X-297355Y1351881D01*
X-304975Y1344007D01*
X706706Y668875D02*
G01*
X23700Y668875D01*
X-46911Y739487D01*
X-46911Y1214721D01*
X21922Y1283301D01*
X347042Y1283301D01*
X473280Y1409539D01*
X541860Y1409539D01*
D12*
X1844299Y347690D02*
G01*
X1874100Y347690D01*
X1903199Y318592D01*
X1903199Y232503D01*
D13*
X1677748Y278985D02*
G01*
X1677748Y330039D01*
X1695274Y347565D01*
X1735406Y347565D01*
D12*
X2153996Y746401D02*
G01*
X2153996Y587700D01*
X2198093Y543603D01*
X2308202Y543603D01*
X2321384Y943449D02*
G01*
X2200226Y943449D01*
X2153998Y897221D01*
X2153998Y746345D01*
D13*
X706617Y568868D02*
G01*
X597656Y568868D01*
X580189Y551400D01*
X706605Y868850D02*
G01*
X602648Y868850D01*
X574499Y896998D01*
D11*
X889081Y613503D02*
G01*
X889081Y665827D01*
X876307Y678604D01*
X825604Y678604D01*
X840818Y613503D02*
G01*
X706706Y613503D01*
X706706Y618837D01*
D12*
X833998Y1049398D02*
G01*
X837430Y1052830D01*
X939297Y1052830D01*
X706704Y518761D02*
G01*
X820244Y518761D01*
X830988Y529506D01*
D11*
X1644982Y508601D02*
G01*
X1347294Y508347D01*
X1322148Y483201D01*
X1148666Y483201D01*
X1082880Y548987D01*
X1806780Y511903D02*
G01*
X2130122Y511903D01*
X2167714Y474057D01*
X2378026Y474057D01*
X2452956Y548987D01*
X1807491Y21887D02*
G01*
X1840565Y54960D01*
X1840565Y139542D01*
X1713565Y139542D02*
G01*
X1711505Y137482D01*
X1711505Y14394D01*
X1587908Y16197D02*
G01*
X1587908Y138198D01*
X1586565Y139542D01*
X1459562Y139539D02*
G01*
X1492196Y106906D01*
X1492196Y16499D01*
X1332565Y139542D02*
G01*
X1410591Y61516D01*
X1410591Y48607D01*
X1205562Y139539D02*
G01*
X1229311Y115790D01*
X1273964Y115790D01*
X1205562Y139539D02*
G01*
X1230858Y139539D01*
X1322397Y48000D01*
D12*
X874600Y1173573D02*
G01*
X982804Y1173573D01*
X1034366Y1225135D01*
X1034366Y1302859D01*
D13*
X1806780Y1042763D02*
G01*
X1806780Y1115915D01*
X1850214Y1159349D01*
X1850214Y1262473D01*
D11*
X1168986Y1668365D02*
G01*
X1214452Y1622899D01*
X1380822Y1622899D01*
X1429082Y1671413D01*
D12*
X612Y-867011D02*
G01*
X-5Y-867011D01*
X-5Y-770003D01*
D13*
X-1045385Y718913D02*
G01*
X-854377Y718913D01*
X-413004Y-301782D02*
G01*
X-334210Y-222991D01*
X-334210Y27602D01*
D10*
X81Y-219872D02*
G01*
X-110970Y-219872D01*
X-136192Y-245094D01*
X-136192Y-313799D01*
D13*
X78Y-330106D02*
G01*
X361774Y-330106D01*
X408764Y-282862D01*
X408764Y104995D01*
X-208709Y-658528D02*
G01*
X-248079Y-658528D01*
X-273479Y-632874D01*
X-273479Y-387256D01*
X78Y-550070D02*
G01*
X-188643Y-550070D01*
X-217853Y-520860D01*
X-217853Y-316898D01*
D11*
X885781Y818484D02*
G01*
X885781Y773777D01*
X868611Y756607D01*
X825908Y756607D01*
D13*
X113362Y470247D02*
G01*
X-380159Y470247D01*
X-526971Y323435D01*
X-754301Y323435D01*
X-794433Y363567D01*
X-794433Y635855D01*
X-820341Y661763D01*
X-884095Y661763D01*
X47322Y550511D02*
G01*
X14556Y517745D01*
X-413687Y517745D01*
X-568373Y363059D01*
X-722043Y363059D01*
X-746173Y387189D01*
X-746173Y667351D01*
X-800529Y721707D01*
X-852599Y721707D01*
D14*
G01*
X1459562Y139539D03*
G01*
X1586562Y139539D03*
G01*
X1713562Y139539D03*
G01*
X1840562Y139539D03*
G01*
X1332562Y139539D03*
G01*
X1205562Y139539D03*
D15*
G01*
X-947736Y-92984D03*
D16*
G01*
X-768130Y-272587D03*
D17*
G01*
X-767623Y1789918D03*
D18*
G01*
X-947226Y1610313D03*
D19*
G01*
X-1045382Y488970D03*
G01*
X-1045382Y518942D03*
G01*
X-1045382Y568980D03*
D20*
G01*
X-1045382Y618891D03*
D19*
G01*
X-1045382Y668802D03*
G01*
X-1045382Y718840D03*
G01*
X-1045382Y768878D03*
G01*
X-1045382Y818916D03*
G01*
X-1045382Y868954D03*
G01*
X-1045382Y918992D03*
D20*
G01*
X-1045382Y968903D03*
D19*
G01*
X-1045382Y999002D03*
G01*
X-1045382Y438932D03*
G01*
X-1045382Y408960D03*
G01*
X-1045382Y1048786D03*
D20*
G01*
X-1045382Y1078885D03*
D21*
G01*
X1082898Y545000D03*
G01*
X2452895Y545000D03*
D22*
G01*
X-413015Y-301800D03*
G01*
X-499581Y-301800D03*
D23*
G01*
X-499281Y-419399D03*
G01*
X-412715Y-419399D03*
D24*
G01*
X939297Y1052830D03*
G01*
X1034293Y1302765D03*
G01*
X844301Y1302765D03*
D25*
G01*
X889053Y613498D03*
G01*
X840742Y613498D03*
D26*
G01*
X541809Y1457850D03*
D27*
G01*
X541799Y1409542D03*
D25*
G01*
X885753Y818398D03*
G01*
X837443Y818398D03*
D28*
G01*
X-812467Y728692D03*
G01*
X-812467Y771110D03*
D29*
G01*
X-800402Y506569D03*
G01*
X-842820Y506569D03*
D30*
G01*
X-403042Y-671446D03*
G01*
X-562942Y-670745D03*
D31*
G01*
X-434797Y174243D03*
G01*
X-434797Y79248D03*
G01*
X-434797Y-15748D03*
D32*
G01*
X-665530Y-15748D03*
G01*
X-665530Y174243D03*
D33*
G01*
X-906472Y581499D03*
G01*
X-858161Y581499D03*
D25*
G01*
X-861717Y916271D03*
G01*
X-910028Y916271D03*
D34*
G01*
X706615Y518853D03*
G01*
X706615Y568853D03*
G01*
X706615Y618853D03*
G01*
X706615Y668853D03*
G01*
X706615Y718853D03*
G01*
X706615Y768852D03*
G01*
X706615Y818852D03*
G01*
X706615Y868852D03*
G01*
X706615Y918852D03*
G01*
X706615Y968852D03*
D35*
G01*
X487265Y1133853D03*
G01*
X487268Y353852D03*
D36*
G01*
X2Y-770008D03*
G01*
X2Y-660001D03*
G01*
X2Y-549993D03*
G01*
X2Y-440011D03*
G01*
X2Y-330004D03*
G01*
X2Y-219997D03*
G01*
X2Y-110015D03*
G01*
X2Y-7D03*
G01*
X2Y109999D03*
G01*
X962306Y109999D03*
G01*
X962306Y-7D03*
G01*
X962306Y-110015D03*
G01*
X962306Y-219997D03*
G01*
X962306Y-330004D03*
G01*
X962306Y-440011D03*
G01*
X962306Y-549993D03*
G01*
X962306Y-660001D03*
G01*
X962306Y-770008D03*
D37*
G01*
X1290645Y-243998D03*
D38*
G01*
X1148158Y-394000D03*
D37*
G01*
X1290647Y-544000D03*
D38*
G01*
X1433151Y-394000D03*
D39*
G01*
X1237084Y-5824D03*
G01*
X1237084Y-55811D03*
G01*
X1237084Y-105824D03*
D40*
G01*
X1149579Y-105816D03*
G01*
X1149579Y-55816D03*
G01*
X1149579Y-5816D03*
D41*
G01*
X1427723Y-108457D03*
G01*
X1372880Y-108457D03*
D23*
G01*
X847248Y1595996D03*
G01*
X933814Y1595996D03*
D42*
G01*
X1844301Y347698D03*
G01*
X1735289Y347698D03*
D43*
G01*
X-138300Y-16898D03*
D44*
G01*
X-138300Y-125905D03*
D41*
G01*
X1620255Y-110489D03*
G01*
X1565412Y-110489D03*
D42*
G01*
X-432394Y-176100D03*
G01*
X-541406Y-176100D03*
D25*
G01*
X-160502Y-658621D03*
G01*
X-208813Y-658621D03*
D45*
G01*
X-224990Y-19032D03*
D46*
G01*
X-224998Y35821D03*
D22*
G01*
X-2437Y271780D03*
G01*
X-89002Y271780D03*
D47*
G01*
X652807Y1459882D03*
D48*
G01*
X652797Y1373313D03*
D49*
G01*
X1429109Y1671365D03*
D50*
G01*
X1241725Y1858749D03*
D51*
G01*
X1324811Y1754450D03*
D52*
G01*
X1582905Y1750917D03*
G01*
X1321276Y2012544D03*
D22*
G01*
X931020Y1475346D03*
G01*
X844454Y1475346D03*
D53*
G01*
X1678846Y1237367D03*
G01*
X1562677Y1475549D03*
D54*
G01*
X1607278Y1349882D03*
D55*
G01*
X1850161Y1262514D03*
G01*
X1687964Y1595066D03*
D43*
G01*
X1365582Y1343753D03*
D44*
G01*
X1365585Y1234752D03*
D47*
G01*
X1246202Y1234533D03*
D48*
G01*
X1246205Y1321111D03*
D22*
G01*
X-609672Y264507D03*
G01*
X-696238Y264507D03*
G01*
X-411516Y-551698D03*
G01*
X-498082Y-551698D03*
D13*
G75*
G01*
X1508252Y-392430D02*
G03*
X1621658Y-230657I-41649J149833D01*
D56*
G01*
X-1160447Y181907D03*
G01*
X-1560446Y181907D03*
G01*
X-1160447Y1305882D03*
G01*
X-1560446Y1305882D03*
D14*
G01*
X1562254Y1730265D03*
G01*
X1300609Y1991885D03*
G01*
X1823900Y1249697D03*
G01*
X1661695Y1582234D03*
D57*
G01*
X-520113Y1319979D03*
G01*
X1903199Y232503D03*
G01*
X-526463Y1764225D03*
G01*
X-758111Y1265115D03*
G01*
X-523669Y1429453D03*
G01*
X277954Y1440121D03*
G01*
X187784Y1391861D03*
G01*
X-299641Y1599379D03*
G01*
X-304975Y1344109D03*
G01*
X-853488Y1513502D03*
G01*
X-698700Y1690489D03*
G01*
X-631111Y1972657D03*
G01*
X-1001773Y1152136D03*
G01*
X1114808Y1399786D03*
G01*
X1486486Y1170119D03*
G01*
X1588264Y1088890D03*
G01*
X1806907Y511802D03*
G01*
X-925065Y776470D03*
G01*
X-884171Y661662D03*
G01*
X47398Y550486D03*
G01*
X113286Y470146D03*
G01*
X-910333Y433824D03*
G01*
X-907539Y1011674D03*
G01*
X-734108Y-567900D03*
G01*
X-649805Y-624288D03*
G01*
X-273606Y-387306D03*
G01*
X212702Y113987D03*
G01*
X125402Y48887D03*
G01*
X-217802Y-316796D03*
G01*
X408891Y104995D03*
G01*
X731395Y-17406D03*
G01*
X832792Y402302D03*
G01*
X281104Y-260713D03*
G01*
X-25803Y392701D03*
G01*
X1116840Y-181109D03*
G01*
X1127991Y56100D03*
G01*
X1232689Y553788D03*
G01*
X1165506Y394200D03*
G01*
X1165202Y313809D03*
G01*
X-545335Y748276D03*
G01*
X-478203Y661205D03*
G01*
X-218691Y592320D03*
G01*
X-307591Y589272D03*
G01*
X825604Y678604D03*
G01*
X767692Y455998D03*
G01*
X574296Y731512D03*
G01*
X706198Y401388D03*
G01*
X514682Y805781D03*
G01*
X825908Y756607D03*
G01*
X-318767Y832858D03*
G01*
X2308202Y543603D03*
G01*
X2321384Y943500D03*
G01*
X2153998Y746396D03*
G01*
X1108204Y691202D03*
G01*
X1093802Y774590D03*
G01*
X1116586Y855286D03*
G01*
X1069494Y995088D03*
G01*
X1088697Y1188585D03*
G01*
X1087198Y1111496D03*
G01*
X140972Y1076952D03*
G01*
X134114Y931410D03*
G01*
X300230Y1080508D03*
G01*
X296674Y931410D03*
G01*
X1148336Y1573268D03*
G01*
X1486486Y1555488D03*
G01*
X745797Y1500598D03*
G01*
X706630Y1032756D03*
G01*
X392940Y526534D03*
G01*
X749302Y1309616D03*
G01*
X1431902Y1493385D03*
G01*
X1247726Y1391759D03*
G01*
X1157556Y1892139D03*
G01*
X1313690Y992700D03*
G01*
X874499Y1173599D03*
G01*
X2318133Y817872D03*
G01*
X2273708Y399610D03*
G01*
X1677621Y279087D03*
G01*
X1235991Y46194D03*
G01*
X-989073Y302252D03*
G01*
X-1013711Y-135389D03*
G01*
X-769109Y842510D03*
G01*
X-495297Y261612D03*
G01*
X-220799Y-128988D03*
G01*
X612Y-867011D03*
G01*
X-213890Y167098D03*
G01*
X-127505Y167403D03*
G01*
X830099Y903292D03*
G01*
X1368300Y907788D03*
G01*
X1078994Y-70619D03*
G01*
X1452628Y-267977D03*
G01*
X1021793Y189603D03*
G01*
X2321943Y742942D03*
G01*
X2323238Y667504D03*
G01*
X1346964Y1389118D03*
G01*
X1170586Y236999D03*
G01*
X1314198Y-32519D03*
G01*
X1402844Y-30233D03*
G01*
X1452882Y-181617D03*
G01*
X1543052Y-183649D03*
G01*
X1696468Y-178061D03*
G01*
X1694436Y-88653D03*
G01*
X1541274Y-280423D03*
G01*
X1425450Y-505213D03*
G01*
X1148158Y-394114D03*
G01*
X1290652Y-543974D03*
G01*
X1290652Y-244000D03*
G01*
X785700Y52189D03*
G01*
X595505Y103802D03*
G01*
X-136192Y-313799D03*
G01*
X-334210Y27602D03*
D58*
G01*
X-535505Y77563D03*
G01*
X-571192Y-420301D03*
D57*
G01*
X680392Y-835210D03*
G01*
X1930783Y614494D03*
G01*
X574499Y896993D03*
G01*
X830988Y529506D03*
G01*
X834011Y1049393D03*
G01*
X580189Y551400D03*
G01*
X1659206Y991201D03*
G01*
X1644906Y508500D03*
G01*
X1807491Y21887D03*
G01*
X1711505Y14394D03*
G01*
X1587908Y16197D03*
G01*
X1492201Y16502D03*
G01*
X1410591Y48607D03*
G01*
X1322402Y47998D03*
G01*
X1806907Y1042789D03*
G01*
X1169088Y1668289D03*
D58*
G01*
X-536089Y-106509D03*
G01*
X-581403Y-502495D03*
D57*
G01*
X124792Y-149410D03*
G01*
X-526488Y507306D03*
G01*
X-196796Y411294D03*
G01*
X-106499Y405604D03*
G01*
X1127686Y935702D03*
G01*
X1134950Y1052415D03*
M02*
