G04 Layer: BoardOutlineLayer*
G04 Panelize: , Column: 1, Row: 1, Board Size: 43.14mm x 33.02mm, Panelized Board Size: 43.14mm x 33.02mm*
G04 EasyEDA v6.5.42, 2024-06-18 11:53:45*
G04 3ed26e891263433bbece19e77b9ceb9f,9a4ed40c0dd746429eaf55b84663d2fb,10*
G04 Gerber Generator version 0.2*
G04 Scale: 100 percent, Rotated: No, Reflected: No *
G04 Dimensions in millimeters *
G04 leading zeros omitted , absolute positions ,4 integer and 5 decimal *
%FSLAX45Y45*%
%MOMM*%

%ADD10C,0.2032*%
%ADD11C,0.2030*%
%ADD12C,0.2134*%
%ADD13C,0.2540*%
D10*
X1987374Y305175D02*
G01*
X2546858Y374904D01*
X1077005Y1773918D02*
G01*
X1077005Y2308915D01*
X1467980Y2044423D02*
G01*
X1400997Y1970095D01*
X1613722Y1896602D02*
G01*
X1538996Y1830296D01*
X1834926Y1578924D02*
G01*
X1746897Y1532097D01*
X1922978Y1390954D02*
G01*
X1830595Y1352997D01*
X1986869Y1196040D02*
G01*
X2546858Y1113028D01*
X-1291503Y1481693D02*
G01*
X-1702625Y1348183D01*
X-1289984Y19512D02*
G01*
X-1702988Y140670D01*
D11*
X-1702983Y269999D02*
G01*
X-1702983Y140670D01*
X-1126319Y269999D02*
G01*
X-1702983Y269999D01*
X-1126319Y1214996D02*
G01*
X-1126319Y269999D01*
X-1702625Y1214996D02*
G01*
X-1126319Y1214996D01*
X-1702625Y1348183D02*
G01*
X-1702625Y1214996D01*
D10*
X2547002Y373898D02*
G01*
X2547002Y1113896D01*
X-702995Y393920D02*
G01*
X-702995Y1093919D01*
X-602995Y393920D02*
G01*
X-702995Y393920D01*
X-602995Y1093919D02*
G01*
X-702995Y1093919D01*
X-602995Y393920D02*
G01*
X-602995Y1093919D01*
X-482991Y1773918D02*
G01*
X1077005Y1773918D01*
X-482991Y1773918D02*
G01*
X-482991Y2308915D01*
G75*
G01*
X-482765Y2310587D02*
G03*
X-1289025Y1483502I779777J-1566664D01*
D12*
G75*
G01*
X1987367Y1196833D02*
G03*
X1922978Y1390955I-1690364J-452943D01*
G75*
G01*
X1830065Y1353977D02*
G03*
X1747045Y1531209I-1533069J-610071D01*
G75*
G01*
X1834926Y1578925D02*
G03*
X1613723Y1896603I-1537926J-835027D01*
G75*
G01*
X1467980Y2044423D02*
G03*
X1078309Y2309825I-1170977J-1300500D01*
G75*
G01*
X1538481Y1830733D02*
G03*
X1401064Y1970085I-1241495J-1086821D01*
G75*
G01*
X-1289050Y18542D02*
G03*
X1987352Y305189I1586035J739580D01*
D13*
X-1125402Y1186149D02*
G01*
X-1766971Y1186149D01*
X-1126916Y296263D02*
G01*
X-1766971Y296263D01*
X-1125049Y296151D02*
G01*
X-1125049Y1186149D01*
X-702995Y1093919D02*
G01*
X-602995Y1093919D01*
X-602995Y1093919D02*
G01*
X-602995Y393920D01*
X-602995Y393920D02*
G01*
X-702995Y393920D01*
X-702995Y393920D02*
G01*
X-702995Y1093919D01*
X-702995Y1093919D02*
G01*
X-702995Y1093919D01*

%LPD*%
M02*
