G04 Layer: InnerLayer1*
G04 Panelize: , Column: 1, Row: 1, Board Size: 43.14mm x 33.02mm, Panelized Board Size: 43.14mm x 33.02mm*
G04 EasyEDA v6.5.42, 2024-06-18 11:53:45*
G04 3ed26e891263433bbece19e77b9ceb9f,9a4ed40c0dd746429eaf55b84663d2fb,10*
G04 Gerber Generator version 0.2*
G04 Scale: 100 percent, Rotated: No, Reflected: No *
G04 Dimensions in millimeters *
G04 leading zeros omitted , absolute positions ,4 integer and 5 decimal *
%FSLAX45Y45*%
%MOMM*%

%ADD10O,2.1999956000000003X1.1999976*%
%ADD11C,0.8000*%
%ADD12C,0.6096*%
%ADD13C,0.6200*%

%LPD*%
G36*
X291685Y-991864D02*
G01*
X272829Y-991707D01*
X253977Y-991344D01*
X235127Y-990780D01*
X216286Y-990013D01*
X197454Y-989040D01*
X178633Y-987866D01*
X159826Y-986490D01*
X141036Y-984910D01*
X122262Y-983129D01*
X103510Y-981146D01*
X84780Y-978959D01*
X66075Y-976574D01*
X47396Y-973983D01*
X28747Y-971194D01*
X10126Y-968202D01*
X-8458Y-965012D01*
X-27007Y-961621D01*
X-45519Y-958029D01*
X-63990Y-954239D01*
X-82420Y-950249D01*
X-100807Y-946063D01*
X-119148Y-941677D01*
X-137439Y-937094D01*
X-155681Y-932314D01*
X-173870Y-927338D01*
X-192003Y-922167D01*
X-210080Y-916802D01*
X-228099Y-911240D01*
X-246057Y-905484D01*
X-263951Y-899538D01*
X-281779Y-893396D01*
X-299542Y-887064D01*
X-317235Y-880541D01*
X-334858Y-873828D01*
X-352404Y-866924D01*
X-369879Y-859833D01*
X-387273Y-852553D01*
X-404588Y-845085D01*
X-421825Y-837432D01*
X-438975Y-829597D01*
X-456041Y-821573D01*
X-473019Y-813366D01*
X-489907Y-804979D01*
X-506704Y-796409D01*
X-523410Y-787659D01*
X-540016Y-778728D01*
X-556529Y-769619D01*
X-572942Y-760336D01*
X-589252Y-750872D01*
X-605462Y-741235D01*
X-621565Y-731426D01*
X-637562Y-721441D01*
X-653450Y-711283D01*
X-669229Y-700958D01*
X-684895Y-690463D01*
X-700448Y-679797D01*
X-715883Y-668967D01*
X-731202Y-657969D01*
X-746401Y-646808D01*
X-761479Y-635485D01*
X-776434Y-623996D01*
X-791265Y-612350D01*
X-805969Y-600544D01*
X-820544Y-588581D01*
X-834991Y-576460D01*
X-849307Y-564187D01*
X-863488Y-551759D01*
X-877536Y-539178D01*
X-891446Y-526445D01*
X-905220Y-513565D01*
X-918852Y-500537D01*
X-932345Y-487365D01*
X-945692Y-474045D01*
X-958898Y-460583D01*
X-971956Y-446979D01*
X-984869Y-433237D01*
X-997633Y-419353D01*
X-1010244Y-405335D01*
X-1022705Y-391182D01*
X-1035014Y-376895D01*
X-1047165Y-362478D01*
X-1059162Y-347929D01*
X-1071001Y-333250D01*
X-1082682Y-318447D01*
X-1094204Y-303519D01*
X-1105562Y-288465D01*
X-1116756Y-273293D01*
X-1127790Y-257997D01*
X-1138656Y-242587D01*
X-1149355Y-227060D01*
X-1159888Y-211416D01*
X-1170249Y-195663D01*
X-1180442Y-179798D01*
X-1190462Y-163824D01*
X-1200310Y-147741D01*
X-1209984Y-131556D01*
X-1219484Y-115265D01*
X-1228806Y-98874D01*
X-1237952Y-82384D01*
X-1246921Y-65796D01*
X-1255709Y-49110D01*
X-1264318Y-32334D01*
X-1272743Y-15463D01*
X-1280988Y1496D01*
X-1289050Y18542D01*
X-1289984Y19512D01*
X-1587893Y106906D01*
X-1510446Y106906D01*
X-1510078Y106911D01*
X-1507088Y106984D01*
X-1506336Y107020D01*
X-1503352Y107243D01*
X-1502600Y107320D01*
X-1499631Y107693D01*
X-1498904Y107802D01*
X-1495958Y108320D01*
X-1495219Y108470D01*
X-1492303Y109136D01*
X-1491579Y109321D01*
X-1488699Y110131D01*
X-1487970Y110355D01*
X-1485135Y111310D01*
X-1484452Y111559D01*
X-1481665Y112651D01*
X-1480972Y112943D01*
X-1478246Y114172D01*
X-1477563Y114503D01*
X-1474901Y115869D01*
X-1474251Y116222D01*
X-1471660Y117718D01*
X-1471025Y118107D01*
X-1468511Y119730D01*
X-1467891Y120152D01*
X-1465463Y121897D01*
X-1464868Y122346D01*
X-1462529Y124211D01*
X-1461947Y124701D01*
X-1459704Y126682D01*
X-1459163Y127182D01*
X-1457022Y129270D01*
X-1456494Y129814D01*
X-1454459Y132008D01*
X-1453969Y132562D01*
X-1452046Y134853D01*
X-1451584Y135435D01*
X-1449776Y137820D01*
X-1449331Y138435D01*
X-1447647Y140906D01*
X-1447243Y141533D01*
X-1445684Y144086D01*
X-1445315Y144724D01*
X-1443883Y147350D01*
X-1443535Y148028D01*
X-1442237Y150726D01*
X-1441930Y151406D01*
X-1440769Y154162D01*
X-1440497Y154856D01*
X-1439473Y157667D01*
X-1439235Y158376D01*
X-1438353Y161234D01*
X-1438153Y161952D01*
X-1437413Y164853D01*
X-1437246Y165587D01*
X-1436654Y168518D01*
X-1436524Y169247D01*
X-1436077Y172206D01*
X-1435983Y172956D01*
X-1435686Y175933D01*
X-1435630Y176672D01*
X-1435481Y179659D01*
X-1435463Y180411D01*
X-1435463Y183403D01*
X-1435481Y184155D01*
X-1435630Y187142D01*
X-1435686Y187881D01*
X-1435983Y190858D01*
X-1436077Y191607D01*
X-1436524Y194566D01*
X-1436654Y195295D01*
X-1437246Y198226D01*
X-1437413Y198960D01*
X-1438153Y201861D01*
X-1438353Y202580D01*
X-1439235Y205437D01*
X-1439473Y206146D01*
X-1440497Y208958D01*
X-1440769Y209651D01*
X-1441930Y212407D01*
X-1442237Y213088D01*
X-1443535Y215785D01*
X-1443883Y216463D01*
X-1445315Y219090D01*
X-1445684Y219727D01*
X-1447243Y222280D01*
X-1447647Y222907D01*
X-1449331Y225379D01*
X-1449776Y225993D01*
X-1451584Y228379D01*
X-1452046Y228960D01*
X-1453969Y231251D01*
X-1454459Y231805D01*
X-1456494Y234000D01*
X-1457022Y234543D01*
X-1459163Y236631D01*
X-1459704Y237131D01*
X-1461947Y239113D01*
X-1462529Y239603D01*
X-1464868Y241467D01*
X-1465463Y241917D01*
X-1467891Y243662D01*
X-1468511Y244083D01*
X-1471025Y245706D01*
X-1471660Y246095D01*
X-1474251Y247591D01*
X-1474901Y247944D01*
X-1477563Y249311D01*
X-1478246Y249641D01*
X-1480972Y250870D01*
X-1481665Y251162D01*
X-1484452Y252255D01*
X-1485135Y252503D01*
X-1487970Y253458D01*
X-1488699Y253682D01*
X-1491579Y254492D01*
X-1492303Y254678D01*
X-1495219Y255343D01*
X-1495958Y255493D01*
X-1498904Y256011D01*
X-1499631Y256120D01*
X-1502600Y256494D01*
X-1503352Y256570D01*
X-1506336Y256794D01*
X-1507088Y256829D01*
X-1510078Y256903D01*
X-1510446Y256908D01*
X-1610446Y256908D01*
X-1610814Y256903D01*
X-1613804Y256829D01*
X-1614556Y256794D01*
X-1617540Y256570D01*
X-1618292Y256494D01*
X-1621261Y256120D01*
X-1621988Y256011D01*
X-1624934Y255493D01*
X-1625673Y255343D01*
X-1628589Y254678D01*
X-1629313Y254492D01*
X-1632193Y253682D01*
X-1632922Y253458D01*
X-1635757Y252503D01*
X-1636440Y252255D01*
X-1639227Y251162D01*
X-1639920Y250870D01*
X-1642645Y249641D01*
X-1643329Y249311D01*
X-1645991Y247944D01*
X-1646641Y247591D01*
X-1649232Y246095D01*
X-1649867Y245706D01*
X-1652381Y244083D01*
X-1653001Y243662D01*
X-1655429Y241917D01*
X-1656024Y241467D01*
X-1658363Y239603D01*
X-1658945Y239113D01*
X-1661187Y237131D01*
X-1661728Y236631D01*
X-1663870Y234543D01*
X-1664398Y234000D01*
X-1666433Y231805D01*
X-1666923Y231251D01*
X-1668846Y228960D01*
X-1669308Y228379D01*
X-1671116Y225993D01*
X-1671561Y225379D01*
X-1673245Y222907D01*
X-1673649Y222280D01*
X-1675208Y219727D01*
X-1675577Y219090D01*
X-1677009Y216463D01*
X-1677357Y215785D01*
X-1678655Y213088D01*
X-1678962Y212407D01*
X-1680123Y209651D01*
X-1680395Y208958D01*
X-1681419Y206146D01*
X-1681657Y205437D01*
X-1682539Y202580D01*
X-1682739Y201861D01*
X-1683478Y198960D01*
X-1683646Y198226D01*
X-1684238Y195295D01*
X-1684367Y194566D01*
X-1684815Y191607D01*
X-1684909Y190858D01*
X-1685206Y187881D01*
X-1685262Y187142D01*
X-1685411Y184155D01*
X-1685429Y183403D01*
X-1685429Y180411D01*
X-1685411Y179659D01*
X-1685262Y176672D01*
X-1685206Y175933D01*
X-1684909Y172956D01*
X-1684815Y172206D01*
X-1684367Y169247D01*
X-1684238Y168518D01*
X-1683646Y165587D01*
X-1683478Y164853D01*
X-1682739Y161952D01*
X-1682539Y161234D01*
X-1681657Y158376D01*
X-1681419Y157667D01*
X-1680395Y154856D01*
X-1680123Y154162D01*
X-1678962Y151406D01*
X-1678655Y150726D01*
X-1677357Y148028D01*
X-1677009Y147350D01*
X-1675577Y144724D01*
X-1675208Y144086D01*
X-1673649Y141533D01*
X-1673245Y140906D01*
X-1671561Y138435D01*
X-1671116Y137820D01*
X-1669308Y135435D01*
X-1668846Y134853D01*
X-1666923Y132562D01*
X-1666433Y132008D01*
X-1664398Y129814D01*
X-1663870Y129270D01*
X-1663758Y129161D01*
X-1702988Y140670D01*
X-1702983Y140670D01*
X-1702983Y269999D01*
X-1126319Y269999D01*
X-1126319Y1214996D01*
X-1702625Y1214996D01*
X-1702625Y1348183D01*
X-1660232Y1361950D01*
X-1661187Y1361107D01*
X-1661728Y1360606D01*
X-1663870Y1358519D01*
X-1664398Y1357975D01*
X-1666433Y1355780D01*
X-1666923Y1355227D01*
X-1668846Y1352936D01*
X-1669308Y1352354D01*
X-1671116Y1349969D01*
X-1671561Y1349354D01*
X-1673245Y1346883D01*
X-1673649Y1346255D01*
X-1675208Y1343703D01*
X-1675577Y1343065D01*
X-1677009Y1340439D01*
X-1677357Y1339761D01*
X-1678655Y1337063D01*
X-1678962Y1336382D01*
X-1680123Y1333627D01*
X-1680395Y1332933D01*
X-1681419Y1330121D01*
X-1681657Y1329413D01*
X-1682539Y1326555D01*
X-1682739Y1325836D01*
X-1683478Y1322936D01*
X-1683646Y1322202D01*
X-1684238Y1319270D01*
X-1684367Y1318541D01*
X-1684815Y1315582D01*
X-1684909Y1314833D01*
X-1685206Y1311856D01*
X-1685262Y1311117D01*
X-1685411Y1308130D01*
X-1685429Y1307378D01*
X-1685429Y1304386D01*
X-1685411Y1303634D01*
X-1685262Y1300647D01*
X-1685206Y1299908D01*
X-1684909Y1296931D01*
X-1684815Y1296182D01*
X-1684367Y1293223D01*
X-1684238Y1292494D01*
X-1683646Y1289563D01*
X-1683478Y1288829D01*
X-1682739Y1285928D01*
X-1682539Y1285209D01*
X-1681657Y1282352D01*
X-1681419Y1281643D01*
X-1680395Y1278831D01*
X-1680123Y1278138D01*
X-1678962Y1275382D01*
X-1678655Y1274701D01*
X-1677357Y1272004D01*
X-1677009Y1271325D01*
X-1675577Y1268699D01*
X-1675208Y1268061D01*
X-1673649Y1265509D01*
X-1673245Y1264881D01*
X-1671561Y1262410D01*
X-1671116Y1261795D01*
X-1669308Y1259410D01*
X-1668846Y1258829D01*
X-1666923Y1256538D01*
X-1666433Y1255984D01*
X-1664398Y1253789D01*
X-1663870Y1253246D01*
X-1661728Y1251158D01*
X-1661187Y1250657D01*
X-1658945Y1248676D01*
X-1658363Y1248186D01*
X-1656024Y1246322D01*
X-1655429Y1245872D01*
X-1653001Y1244127D01*
X-1652381Y1243705D01*
X-1649867Y1242082D01*
X-1649232Y1241694D01*
X-1646641Y1240198D01*
X-1645991Y1239845D01*
X-1643329Y1238478D01*
X-1642645Y1238148D01*
X-1639920Y1236919D01*
X-1639227Y1236626D01*
X-1636440Y1235534D01*
X-1635757Y1235285D01*
X-1632922Y1234330D01*
X-1632193Y1234107D01*
X-1629313Y1233296D01*
X-1628589Y1233111D01*
X-1625673Y1232446D01*
X-1624934Y1232296D01*
X-1621988Y1231778D01*
X-1621261Y1231668D01*
X-1618292Y1231295D01*
X-1617540Y1231219D01*
X-1614556Y1230995D01*
X-1613804Y1230960D01*
X-1610814Y1230886D01*
X-1610446Y1230881D01*
X-1510446Y1230881D01*
X-1510078Y1230886D01*
X-1507088Y1230960D01*
X-1506336Y1230995D01*
X-1503352Y1231219D01*
X-1502600Y1231295D01*
X-1499631Y1231668D01*
X-1498904Y1231778D01*
X-1495958Y1232296D01*
X-1495219Y1232446D01*
X-1492303Y1233111D01*
X-1491579Y1233296D01*
X-1488699Y1234107D01*
X-1487970Y1234330D01*
X-1485135Y1235285D01*
X-1484452Y1235534D01*
X-1481665Y1236626D01*
X-1480972Y1236919D01*
X-1478246Y1238148D01*
X-1477563Y1238478D01*
X-1474901Y1239845D01*
X-1474251Y1240198D01*
X-1471660Y1241694D01*
X-1471025Y1242082D01*
X-1468511Y1243705D01*
X-1467891Y1244127D01*
X-1465463Y1245872D01*
X-1464868Y1246322D01*
X-1462529Y1248186D01*
X-1461947Y1248676D01*
X-1459704Y1250657D01*
X-1459163Y1251158D01*
X-1457022Y1253246D01*
X-1456494Y1253789D01*
X-1454459Y1255984D01*
X-1453969Y1256538D01*
X-1452046Y1258829D01*
X-1451584Y1259410D01*
X-1449776Y1261795D01*
X-1449331Y1262410D01*
X-1447647Y1264881D01*
X-1447243Y1265509D01*
X-1445684Y1268061D01*
X-1445315Y1268699D01*
X-1443883Y1271325D01*
X-1443535Y1272004D01*
X-1442237Y1274701D01*
X-1441930Y1275382D01*
X-1440769Y1278138D01*
X-1440497Y1278831D01*
X-1439473Y1281643D01*
X-1439235Y1282352D01*
X-1438353Y1285209D01*
X-1438153Y1285928D01*
X-1437413Y1288829D01*
X-1437246Y1289563D01*
X-1436654Y1292494D01*
X-1436524Y1293223D01*
X-1436077Y1296182D01*
X-1435983Y1296931D01*
X-1435686Y1299908D01*
X-1435630Y1300647D01*
X-1435481Y1303634D01*
X-1435463Y1304386D01*
X-1435463Y1307378D01*
X-1435481Y1308130D01*
X-1435630Y1311117D01*
X-1435686Y1311856D01*
X-1435983Y1314833D01*
X-1436077Y1315582D01*
X-1436524Y1318541D01*
X-1436654Y1319270D01*
X-1437246Y1322202D01*
X-1437413Y1322936D01*
X-1438153Y1325836D01*
X-1438353Y1326555D01*
X-1439235Y1329413D01*
X-1439473Y1330121D01*
X-1440497Y1332933D01*
X-1440769Y1333627D01*
X-1441930Y1336382D01*
X-1442237Y1337063D01*
X-1443535Y1339761D01*
X-1443883Y1340439D01*
X-1445315Y1343065D01*
X-1445684Y1343703D01*
X-1447243Y1346255D01*
X-1447647Y1346883D01*
X-1449331Y1349354D01*
X-1449776Y1349969D01*
X-1451584Y1352354D01*
X-1452046Y1352936D01*
X-1453969Y1355227D01*
X-1454459Y1355780D01*
X-1456494Y1357975D01*
X-1457022Y1358519D01*
X-1459163Y1360606D01*
X-1459704Y1361107D01*
X-1461947Y1363088D01*
X-1462529Y1363578D01*
X-1464868Y1365443D01*
X-1465463Y1365892D01*
X-1467891Y1367637D01*
X-1468511Y1368059D01*
X-1471025Y1369682D01*
X-1471660Y1370070D01*
X-1474251Y1371566D01*
X-1474901Y1371920D01*
X-1477563Y1373286D01*
X-1478246Y1373616D01*
X-1480972Y1374846D01*
X-1481665Y1375138D01*
X-1484452Y1376230D01*
X-1485135Y1376479D01*
X-1487970Y1377434D01*
X-1488699Y1377657D01*
X-1491579Y1378468D01*
X-1492303Y1378653D01*
X-1495219Y1379319D01*
X-1495958Y1379468D01*
X-1498904Y1379987D01*
X-1499631Y1380096D01*
X-1502600Y1380469D01*
X-1503352Y1380545D01*
X-1506336Y1380769D01*
X-1507088Y1380804D01*
X-1510078Y1380878D01*
X-1510446Y1380883D01*
X-1601932Y1380883D01*
X-1291503Y1481693D01*
X-1289024Y1483502D01*
X-1285643Y1490708D01*
X-1277505Y1507718D01*
X-1269184Y1524640D01*
X-1260680Y1541472D01*
X-1251996Y1558211D01*
X-1243131Y1574853D01*
X-1234089Y1591401D01*
X-1224869Y1607850D01*
X-1215471Y1624197D01*
X-1205898Y1640446D01*
X-1196149Y1656588D01*
X-1186228Y1672623D01*
X-1176136Y1688553D01*
X-1165872Y1704370D01*
X-1155438Y1720077D01*
X-1144833Y1735673D01*
X-1134064Y1751152D01*
X-1123127Y1766514D01*
X-1112027Y1781756D01*
X-1100762Y1796879D01*
X-1089334Y1811881D01*
X-1077747Y1826755D01*
X-1065999Y1841507D01*
X-1054092Y1856130D01*
X-1042029Y1870623D01*
X-1029812Y1884987D01*
X-1017440Y1899218D01*
X-1004915Y1913315D01*
X-992238Y1927275D01*
X-979411Y1941098D01*
X-966436Y1954784D01*
X-953317Y1968327D01*
X-940051Y1981728D01*
X-926640Y1994987D01*
X-913089Y2008098D01*
X-899398Y2021065D01*
X-885565Y2033882D01*
X-871598Y2046551D01*
X-857493Y2059068D01*
X-843254Y2071430D01*
X-828885Y2083640D01*
X-814384Y2095695D01*
X-799754Y2107592D01*
X-784994Y2119332D01*
X-770112Y2130910D01*
X-755103Y2142329D01*
X-739975Y2153584D01*
X-724725Y2164676D01*
X-709358Y2175603D01*
X-693872Y2186365D01*
X-678271Y2196957D01*
X-662559Y2207381D01*
X-646732Y2217638D01*
X-630798Y2227722D01*
X-614756Y2237633D01*
X-598606Y2247371D01*
X-582355Y2256934D01*
X-566000Y2266322D01*
X-549546Y2275532D01*
X-532993Y2284564D01*
X-516343Y2293419D01*
X-499600Y2302093D01*
X-482765Y2310587D01*
X-482991Y2308915D01*
X-482991Y1778365D01*
X-483257Y1779226D01*
X-484357Y1782079D01*
X-485642Y1784852D01*
X-487113Y1787532D01*
X-488756Y1790108D01*
X-490570Y1792569D01*
X-492544Y1794903D01*
X-494667Y1797100D01*
X-496935Y1799150D01*
X-499333Y1801045D01*
X-501853Y1802775D01*
X-504484Y1804332D01*
X-507212Y1805711D01*
X-510026Y1806905D01*
X-512912Y1807908D01*
X-515861Y1808713D01*
X-518855Y1809323D01*
X-521886Y1809732D01*
X-524934Y1809935D01*
X-527992Y1809935D01*
X-531040Y1809732D01*
X-534070Y1809323D01*
X-537065Y1808713D01*
X-540014Y1807908D01*
X-542899Y1806905D01*
X-545713Y1805711D01*
X-548441Y1804332D01*
X-551073Y1802775D01*
X-553593Y1801045D01*
X-555990Y1799150D01*
X-558258Y1797100D01*
X-560382Y1794903D01*
X-562356Y1792569D01*
X-564169Y1790108D01*
X-565812Y1787532D01*
X-567283Y1784852D01*
X-568568Y1782079D01*
X-569668Y1779226D01*
X-570572Y1776308D01*
X-571281Y1773336D01*
X-571789Y1770321D01*
X-572096Y1767281D01*
X-572198Y1764225D01*
X-572096Y1761169D01*
X-571789Y1758129D01*
X-571281Y1755114D01*
X-570572Y1752142D01*
X-569668Y1749224D01*
X-568568Y1746371D01*
X-567283Y1743598D01*
X-565812Y1740918D01*
X-564169Y1738342D01*
X-562356Y1735881D01*
X-560382Y1733547D01*
X-558258Y1731350D01*
X-555990Y1729300D01*
X-553593Y1727405D01*
X-551073Y1725676D01*
X-548441Y1724118D01*
X-545713Y1722739D01*
X-542899Y1721545D01*
X-540014Y1720542D01*
X-537065Y1719737D01*
X-534070Y1719127D01*
X-531040Y1718718D01*
X-527992Y1718515D01*
X-524934Y1718515D01*
X-521886Y1718718D01*
X-518855Y1719127D01*
X-515861Y1719737D01*
X-512912Y1720542D01*
X-510026Y1721545D01*
X-507212Y1722739D01*
X-504484Y1724118D01*
X-501853Y1725676D01*
X-499333Y1727405D01*
X-496935Y1729300D01*
X-494667Y1731350D01*
X-492544Y1733547D01*
X-490570Y1735881D01*
X-488756Y1738342D01*
X-487113Y1740918D01*
X-485642Y1743598D01*
X-484357Y1746371D01*
X-483257Y1749224D01*
X-482353Y1752142D01*
X-481644Y1755114D01*
X-481136Y1758129D01*
X-480829Y1761169D01*
X-480728Y1764225D01*
X-480829Y1767281D01*
X-481136Y1770321D01*
X-481644Y1773336D01*
X-481784Y1773918D01*
X-128143Y1773918D01*
X-127695Y1576776D01*
X-129473Y1109670D01*
X719648Y1109670D01*
X721426Y1111448D01*
X721426Y1461907D01*
X723818Y1460492D01*
X726546Y1459113D01*
X729361Y1457919D01*
X732246Y1456916D01*
X735195Y1456110D01*
X738190Y1455501D01*
X741220Y1455092D01*
X744268Y1454889D01*
X747326Y1454889D01*
X750374Y1455092D01*
X753404Y1455501D01*
X756399Y1456110D01*
X759348Y1456916D01*
X762233Y1457919D01*
X765047Y1459113D01*
X767775Y1460492D01*
X770407Y1462049D01*
X772927Y1463779D01*
X775324Y1465673D01*
X777593Y1467723D01*
X779716Y1469920D01*
X781690Y1472255D01*
X783503Y1474716D01*
X785147Y1477291D01*
X786617Y1479971D01*
X787902Y1482745D01*
X789002Y1485597D01*
X789906Y1488516D01*
X790615Y1491488D01*
X791123Y1494502D01*
X791430Y1497543D01*
X791532Y1500598D01*
X791430Y1503654D01*
X791123Y1506694D01*
X790615Y1509709D01*
X789906Y1512681D01*
X789002Y1515600D01*
X787902Y1518452D01*
X786617Y1521226D01*
X785147Y1523906D01*
X783503Y1526481D01*
X781690Y1528942D01*
X779716Y1531277D01*
X777593Y1533474D01*
X775324Y1535523D01*
X772927Y1537418D01*
X770407Y1539148D01*
X767775Y1540705D01*
X765047Y1542084D01*
X762233Y1543278D01*
X759348Y1544281D01*
X756399Y1545087D01*
X753404Y1545696D01*
X750374Y1546105D01*
X747326Y1546308D01*
X744268Y1546308D01*
X741220Y1546105D01*
X738190Y1545696D01*
X735195Y1545087D01*
X732246Y1544281D01*
X729361Y1543278D01*
X726546Y1542084D01*
X723818Y1540705D01*
X721426Y1539290D01*
X721426Y1773918D01*
X1077005Y1773918D01*
X1077005Y2308915D01*
X1078308Y2309825D01*
X1079629Y2309167D01*
X1096449Y2300643D01*
X1113177Y2291938D01*
X1129809Y2283053D01*
X1146345Y2273990D01*
X1162784Y2264747D01*
X1179121Y2255332D01*
X1195357Y2245738D01*
X1211486Y2235972D01*
X1227510Y2226030D01*
X1243426Y2215918D01*
X1259232Y2205634D01*
X1274927Y2195182D01*
X1290507Y2184560D01*
X1305974Y2173770D01*
X1321323Y2162815D01*
X1336553Y2151694D01*
X1351661Y2140412D01*
X1366647Y2128967D01*
X1381511Y2117361D01*
X1396245Y2105596D01*
X1410855Y2093671D01*
X1425333Y2081590D01*
X1439682Y2069355D01*
X1453898Y2056965D01*
X1467980Y2044423D01*
X1401063Y1970084D01*
X1410482Y1961537D01*
X1423926Y1949107D01*
X1437231Y1936526D01*
X1450395Y1923798D01*
X1463418Y1910925D01*
X1476296Y1897910D01*
X1489029Y1884753D01*
X1501617Y1871454D01*
X1514055Y1858017D01*
X1526344Y1844443D01*
X1538480Y1830732D01*
X1613722Y1896602D01*
X1620781Y1888489D01*
X1633037Y1874159D01*
X1645140Y1859696D01*
X1657083Y1845106D01*
X1668871Y1830384D01*
X1680499Y1815541D01*
X1691965Y1800570D01*
X1703270Y1785477D01*
X1714413Y1770265D01*
X1725388Y1754931D01*
X1736201Y1739480D01*
X1746846Y1723915D01*
X1757321Y1708236D01*
X1767626Y1692445D01*
X1777763Y1676542D01*
X1787728Y1660532D01*
X1797517Y1644416D01*
X1807133Y1628195D01*
X1816574Y1611873D01*
X1825838Y1595447D01*
X1834926Y1578924D01*
X1747045Y1531208D01*
X1753072Y1520004D01*
X1761594Y1503799D01*
X1769938Y1487500D01*
X1778099Y1471109D01*
X1786077Y1454627D01*
X1793872Y1438059D01*
X1801482Y1421406D01*
X1808909Y1404668D01*
X1816148Y1387850D01*
X1823199Y1370952D01*
X1830064Y1353977D01*
X1922978Y1390954D01*
X1928850Y1375999D01*
X1935566Y1358379D01*
X1942091Y1340688D01*
X1948428Y1322925D01*
X1954570Y1305097D01*
X1960521Y1287205D01*
X1966280Y1269248D01*
X1971845Y1251229D01*
X1977214Y1233154D01*
X1982388Y1215021D01*
X1987367Y1196832D01*
X1986869Y1196040D01*
X2546858Y1113028D01*
X2547002Y1113896D01*
X2547002Y373898D01*
X2546858Y374904D01*
X1987374Y305175D01*
X1987351Y305188D01*
X1983590Y291378D01*
X1978464Y273230D01*
X1973140Y255140D01*
X1967623Y237109D01*
X1961913Y219138D01*
X1956008Y201228D01*
X1949912Y183385D01*
X1943623Y165607D01*
X1937141Y147899D01*
X1930471Y130261D01*
X1923610Y112694D01*
X1916562Y95204D01*
X1909325Y77792D01*
X1901901Y60457D01*
X1894288Y43205D01*
X1886493Y26035D01*
X1878512Y8950D01*
X1870349Y-8046D01*
X1862000Y-24958D01*
X1853473Y-41775D01*
X1844763Y-58501D01*
X1835873Y-75130D01*
X1826806Y-91663D01*
X1817560Y-108099D01*
X1808137Y-124434D01*
X1798540Y-140665D01*
X1788767Y-156794D01*
X1778822Y-172813D01*
X1768706Y-188729D01*
X1758416Y-204530D01*
X1747959Y-220223D01*
X1737334Y-235800D01*
X1726539Y-251264D01*
X1715579Y-266608D01*
X1704456Y-281835D01*
X1693169Y-296941D01*
X1681718Y-311924D01*
X1670108Y-326783D01*
X1658338Y-341515D01*
X1646410Y-356120D01*
X1634324Y-370598D01*
X1622084Y-384942D01*
X1609691Y-399153D01*
X1597144Y-413232D01*
X1584449Y-427174D01*
X1571602Y-440977D01*
X1558607Y-454642D01*
X1545465Y-468167D01*
X1532178Y-481548D01*
X1518749Y-494786D01*
X1505178Y-507878D01*
X1491465Y-520824D01*
X1477617Y-533620D01*
X1463629Y-546267D01*
X1449504Y-558761D01*
X1435247Y-571103D01*
X1420860Y-583293D01*
X1406339Y-595325D01*
X1391691Y-607199D01*
X1376916Y-618916D01*
X1362016Y-630473D01*
X1346989Y-641868D01*
X1331843Y-653102D01*
X1316578Y-664171D01*
X1301193Y-675073D01*
X1285692Y-685812D01*
X1270076Y-696381D01*
X1254345Y-706782D01*
X1238506Y-717014D01*
X1222555Y-727072D01*
X1206497Y-736960D01*
X1190335Y-746673D01*
X1174069Y-756213D01*
X1157701Y-765576D01*
X1141232Y-774760D01*
X1124666Y-783770D01*
X1108003Y-792599D01*
X1091247Y-801248D01*
X1074397Y-809716D01*
X1057457Y-818001D01*
X1040429Y-826104D01*
X1023317Y-834024D01*
X1006119Y-841758D01*
X988839Y-849307D01*
X971478Y-856668D01*
X954039Y-863841D01*
X936523Y-870828D01*
X918933Y-877623D01*
X901270Y-884232D01*
X883538Y-890648D01*
X865738Y-896871D01*
X847872Y-902903D01*
X829942Y-908743D01*
X811951Y-914389D01*
X793899Y-919840D01*
X775789Y-925098D01*
X757623Y-930160D01*
X739406Y-935024D01*
X721136Y-939695D01*
X702815Y-944166D01*
X684451Y-948441D01*
X666038Y-952517D01*
X647585Y-956393D01*
X629089Y-960071D01*
X610557Y-963551D01*
X591987Y-966830D01*
X573382Y-969909D01*
X554746Y-972786D01*
X536079Y-975464D01*
X517385Y-977940D01*
X498665Y-980213D01*
X479922Y-982286D01*
X461159Y-984156D01*
X442376Y-985824D01*
X423575Y-987290D01*
X404761Y-988552D01*
X385935Y-989611D01*
X367096Y-990467D01*
X348251Y-991123D01*
X329399Y-991572D01*
X310542Y-991821D01*
G37*

%LPC*%
G36*
X-651334Y-669998D02*
G01*
X-648276Y-669998D01*
X-645228Y-669795D01*
X-642198Y-669386D01*
X-639203Y-668776D01*
X-636254Y-667971D01*
X-633369Y-666968D01*
X-630554Y-665774D01*
X-627827Y-664395D01*
X-625195Y-662838D01*
X-622675Y-661108D01*
X-620278Y-659213D01*
X-618009Y-657164D01*
X-615886Y-654966D01*
X-613912Y-652632D01*
X-612099Y-650171D01*
X-610455Y-647595D01*
X-608985Y-644916D01*
X-607700Y-642142D01*
X-606600Y-639290D01*
X-605696Y-636371D01*
X-604987Y-633399D01*
X-604479Y-630384D01*
X-604172Y-627344D01*
X-604070Y-624288D01*
X-604172Y-621233D01*
X-604479Y-618192D01*
X-604987Y-615177D01*
X-605696Y-612206D01*
X-606600Y-609287D01*
X-607700Y-606435D01*
X-608985Y-603661D01*
X-610455Y-600981D01*
X-612099Y-598406D01*
X-613912Y-595944D01*
X-615886Y-593610D01*
X-618009Y-591413D01*
X-620278Y-589363D01*
X-622675Y-587468D01*
X-625195Y-585739D01*
X-627827Y-584182D01*
X-630554Y-582803D01*
X-633369Y-581609D01*
X-636254Y-580605D01*
X-639203Y-579800D01*
X-642198Y-579191D01*
X-645228Y-578782D01*
X-648276Y-578578D01*
X-651334Y-578578D01*
X-654382Y-578782D01*
X-657412Y-579191D01*
X-660407Y-579800D01*
X-663356Y-580605D01*
X-666241Y-581609D01*
X-669056Y-582803D01*
X-671784Y-584182D01*
X-674415Y-585739D01*
X-676935Y-587468D01*
X-679333Y-589363D01*
X-681601Y-591413D01*
X-683724Y-593610D01*
X-685698Y-595944D01*
X-687511Y-598406D01*
X-689155Y-600981D01*
X-690625Y-603661D01*
X-691911Y-606435D01*
X-693011Y-609287D01*
X-693915Y-612206D01*
X-694623Y-615177D01*
X-695131Y-618192D01*
X-695439Y-621233D01*
X-695540Y-624288D01*
X-695439Y-627344D01*
X-695131Y-630384D01*
X-694623Y-633399D01*
X-693915Y-636371D01*
X-693011Y-639290D01*
X-691911Y-642142D01*
X-690625Y-644916D01*
X-689155Y-647595D01*
X-687511Y-650171D01*
X-685698Y-652632D01*
X-683724Y-654966D01*
X-681601Y-657164D01*
X-679333Y-659213D01*
X-676935Y-661108D01*
X-674415Y-662838D01*
X-671784Y-664395D01*
X-669056Y-665774D01*
X-666241Y-666968D01*
X-663356Y-667971D01*
X-660407Y-668776D01*
X-657412Y-669386D01*
X-654382Y-669795D01*
G37*
G36*
X-735637Y-613610D02*
G01*
X-732579Y-613610D01*
X-729531Y-613407D01*
X-726500Y-612998D01*
X-723506Y-612388D01*
X-720557Y-611583D01*
X-717671Y-610580D01*
X-714857Y-609386D01*
X-712129Y-608007D01*
X-709498Y-606450D01*
X-706978Y-604720D01*
X-704580Y-602825D01*
X-702312Y-600776D01*
X-700189Y-598578D01*
X-698215Y-596244D01*
X-696401Y-593783D01*
X-694758Y-591207D01*
X-693287Y-588528D01*
X-692002Y-585754D01*
X-690902Y-582902D01*
X-689998Y-579983D01*
X-689289Y-577011D01*
X-688781Y-573996D01*
X-688474Y-570956D01*
X-688373Y-567900D01*
X-688474Y-564845D01*
X-688781Y-561804D01*
X-689289Y-558789D01*
X-689998Y-555818D01*
X-690902Y-552899D01*
X-692002Y-550047D01*
X-693287Y-547273D01*
X-694758Y-544593D01*
X-696401Y-542018D01*
X-698215Y-539556D01*
X-700189Y-537222D01*
X-702312Y-535025D01*
X-704580Y-532975D01*
X-706978Y-531080D01*
X-709498Y-529351D01*
X-712129Y-527794D01*
X-714857Y-526414D01*
X-717671Y-525221D01*
X-720557Y-524217D01*
X-723506Y-523412D01*
X-726500Y-522803D01*
X-729531Y-522394D01*
X-732579Y-522190D01*
X-735637Y-522190D01*
X-738685Y-522394D01*
X-741715Y-522803D01*
X-744710Y-523412D01*
X-747659Y-524217D01*
X-750544Y-525221D01*
X-753358Y-526414D01*
X-756086Y-527794D01*
X-758718Y-529351D01*
X-761238Y-531080D01*
X-763635Y-532975D01*
X-765903Y-535025D01*
X-768027Y-537222D01*
X-770000Y-539556D01*
X-771814Y-542018D01*
X-773457Y-544593D01*
X-774928Y-547273D01*
X-776213Y-550047D01*
X-777313Y-552899D01*
X-778217Y-555818D01*
X-778926Y-558789D01*
X-779434Y-561804D01*
X-779741Y-564845D01*
X-779843Y-567900D01*
X-779741Y-570956D01*
X-779434Y-573996D01*
X-778926Y-577011D01*
X-778217Y-579983D01*
X-777313Y-582902D01*
X-776213Y-585754D01*
X-774928Y-588528D01*
X-773457Y-591207D01*
X-771814Y-593783D01*
X-770000Y-596244D01*
X-768027Y-598578D01*
X-765903Y-600776D01*
X-763635Y-602825D01*
X-761238Y-604720D01*
X-758718Y-606450D01*
X-756086Y-608007D01*
X-753358Y-609386D01*
X-750544Y-610580D01*
X-747659Y-611583D01*
X-744710Y-612388D01*
X-741715Y-612998D01*
X-738685Y-613407D01*
G37*
G36*
X-582950Y-548726D02*
G01*
X-579856Y-548726D01*
X-576773Y-548520D01*
X-573709Y-548106D01*
X-570679Y-547491D01*
X-567700Y-546674D01*
X-564779Y-545660D01*
X-561931Y-544454D01*
X-559173Y-543059D01*
X-556513Y-541484D01*
X-553966Y-539734D01*
X-551538Y-537819D01*
X-549247Y-535744D01*
X-547098Y-533524D01*
X-545101Y-531162D01*
X-543267Y-528673D01*
X-541604Y-526069D01*
X-540118Y-523356D01*
X-538817Y-520552D01*
X-537707Y-517669D01*
X-536790Y-514715D01*
X-536074Y-511708D01*
X-535559Y-508660D01*
X-535251Y-505584D01*
X-535147Y-502495D01*
X-535251Y-499407D01*
X-535559Y-496331D01*
X-536074Y-493283D01*
X-536790Y-490275D01*
X-537707Y-487321D01*
X-538817Y-484438D01*
X-540118Y-481634D01*
X-541604Y-478922D01*
X-543267Y-476318D01*
X-545101Y-473829D01*
X-547098Y-471467D01*
X-549247Y-469247D01*
X-551538Y-467172D01*
X-553966Y-465256D01*
X-556513Y-463506D01*
X-559173Y-461932D01*
X-561931Y-460537D01*
X-564779Y-459331D01*
X-567700Y-458317D01*
X-570679Y-457499D01*
X-573709Y-456885D01*
X-576773Y-456471D01*
X-579856Y-456265D01*
X-582950Y-456265D01*
X-586033Y-456471D01*
X-589097Y-456885D01*
X-592127Y-457499D01*
X-595106Y-458317D01*
X-598027Y-459331D01*
X-600875Y-460537D01*
X-603633Y-461932D01*
X-606292Y-463506D01*
X-608840Y-465256D01*
X-611268Y-467172D01*
X-613559Y-469247D01*
X-615708Y-471467D01*
X-617705Y-473829D01*
X-619539Y-476318D01*
X-621202Y-478922D01*
X-622688Y-481634D01*
X-623989Y-484438D01*
X-625099Y-487321D01*
X-626016Y-490275D01*
X-626732Y-493283D01*
X-627247Y-496331D01*
X-627555Y-499407D01*
X-627659Y-502495D01*
X-627555Y-505584D01*
X-627247Y-508660D01*
X-626732Y-511708D01*
X-626016Y-514715D01*
X-625099Y-517669D01*
X-623989Y-520552D01*
X-622688Y-523356D01*
X-621202Y-526069D01*
X-619539Y-528673D01*
X-617705Y-531162D01*
X-615708Y-533524D01*
X-613559Y-535744D01*
X-611268Y-537819D01*
X-608840Y-539734D01*
X-606292Y-541484D01*
X-603633Y-543059D01*
X-600875Y-544454D01*
X-598027Y-545660D01*
X-595106Y-546674D01*
X-592127Y-547491D01*
X-589097Y-548106D01*
X-586033Y-548520D01*
G37*
G36*
X-275135Y-433016D02*
G01*
X-272077Y-433016D01*
X-269029Y-432813D01*
X-265998Y-432404D01*
X-263004Y-431794D01*
X-260055Y-430989D01*
X-257169Y-429986D01*
X-254355Y-428792D01*
X-251627Y-427413D01*
X-248996Y-425856D01*
X-246476Y-424126D01*
X-244078Y-422231D01*
X-241810Y-420182D01*
X-239687Y-417984D01*
X-237713Y-415650D01*
X-235899Y-413189D01*
X-234256Y-410613D01*
X-232785Y-407934D01*
X-231500Y-405160D01*
X-230400Y-402308D01*
X-229496Y-399389D01*
X-228787Y-396417D01*
X-228279Y-393402D01*
X-227972Y-390362D01*
X-227871Y-387306D01*
X-227972Y-384251D01*
X-228279Y-381210D01*
X-228787Y-378195D01*
X-229496Y-375224D01*
X-230400Y-372305D01*
X-231500Y-369453D01*
X-232785Y-366679D01*
X-234256Y-363999D01*
X-235899Y-361424D01*
X-237713Y-358962D01*
X-239212Y-357190D01*
X-237053Y-358282D01*
X-234238Y-359476D01*
X-231353Y-360479D01*
X-228404Y-361284D01*
X-225409Y-361894D01*
X-222379Y-362303D01*
X-219331Y-362506D01*
X-216273Y-362506D01*
X-213225Y-362303D01*
X-210195Y-361894D01*
X-207200Y-361284D01*
X-204251Y-360479D01*
X-201366Y-359476D01*
X-198551Y-358282D01*
X-195823Y-356903D01*
X-193192Y-355345D01*
X-190672Y-353616D01*
X-188274Y-351721D01*
X-186006Y-349671D01*
X-183883Y-347474D01*
X-181909Y-345140D01*
X-180096Y-342679D01*
X-178452Y-340103D01*
X-176982Y-337423D01*
X-176242Y-335828D01*
X-175541Y-337106D01*
X-173898Y-339681D01*
X-172084Y-342143D01*
X-170111Y-344477D01*
X-167987Y-346674D01*
X-165719Y-348724D01*
X-163322Y-350619D01*
X-160802Y-352348D01*
X-158170Y-353905D01*
X-155442Y-355285D01*
X-152628Y-356478D01*
X-149743Y-357482D01*
X-146794Y-358287D01*
X-143799Y-358896D01*
X-140769Y-359305D01*
X-137721Y-359509D01*
X-134663Y-359509D01*
X-131615Y-359305D01*
X-128584Y-358896D01*
X-125590Y-358287D01*
X-122641Y-357482D01*
X-119755Y-356478D01*
X-116941Y-355285D01*
X-114213Y-353905D01*
X-111582Y-352348D01*
X-109062Y-350619D01*
X-106664Y-348724D01*
X-104396Y-346674D01*
X-102273Y-344477D01*
X-100299Y-342143D01*
X-98485Y-339681D01*
X-96842Y-337106D01*
X-95371Y-334426D01*
X-94086Y-331652D01*
X-92986Y-328800D01*
X-92082Y-325881D01*
X-91373Y-322910D01*
X-90865Y-319895D01*
X-90558Y-316854D01*
X-90457Y-313799D01*
X-90558Y-310743D01*
X-90865Y-307703D01*
X-91373Y-304688D01*
X-92082Y-301716D01*
X-92986Y-298797D01*
X-94086Y-295945D01*
X-95371Y-293171D01*
X-96842Y-290492D01*
X-98485Y-287916D01*
X-100299Y-285455D01*
X-102273Y-283121D01*
X-104396Y-280923D01*
X-106664Y-278874D01*
X-109062Y-276979D01*
X-111582Y-275249D01*
X-114213Y-273692D01*
X-116941Y-272313D01*
X-119755Y-271119D01*
X-122641Y-270116D01*
X-125590Y-269311D01*
X-128584Y-268701D01*
X-131615Y-268292D01*
X-134663Y-268089D01*
X-137721Y-268089D01*
X-140769Y-268292D01*
X-143799Y-268701D01*
X-146794Y-269311D01*
X-149743Y-270116D01*
X-152628Y-271119D01*
X-155442Y-272313D01*
X-158170Y-273692D01*
X-160802Y-275249D01*
X-163322Y-276979D01*
X-165719Y-278874D01*
X-167987Y-280923D01*
X-170111Y-283121D01*
X-172084Y-285455D01*
X-173898Y-287916D01*
X-175541Y-290492D01*
X-177012Y-293171D01*
X-177751Y-294767D01*
X-178452Y-293489D01*
X-180096Y-290913D01*
X-181909Y-288452D01*
X-183883Y-286118D01*
X-186006Y-283921D01*
X-188274Y-281871D01*
X-190672Y-279976D01*
X-193192Y-278246D01*
X-195823Y-276689D01*
X-198551Y-275310D01*
X-201366Y-274116D01*
X-204251Y-273113D01*
X-207200Y-272308D01*
X-210195Y-271698D01*
X-213225Y-271289D01*
X-216273Y-271086D01*
X-219331Y-271086D01*
X-222379Y-271289D01*
X-225409Y-271698D01*
X-228404Y-272308D01*
X-231353Y-273113D01*
X-234238Y-274116D01*
X-237053Y-275310D01*
X-239781Y-276689D01*
X-242412Y-278246D01*
X-244932Y-279976D01*
X-247329Y-281871D01*
X-249598Y-283921D01*
X-251721Y-286118D01*
X-253695Y-288452D01*
X-255508Y-290913D01*
X-257152Y-293489D01*
X-258622Y-296169D01*
X-259908Y-298942D01*
X-261007Y-301795D01*
X-261912Y-304713D01*
X-262620Y-307685D01*
X-263128Y-310700D01*
X-263436Y-313740D01*
X-263537Y-316796D01*
X-263436Y-319852D01*
X-263128Y-322892D01*
X-262620Y-325907D01*
X-261912Y-328879D01*
X-261007Y-331797D01*
X-259908Y-334650D01*
X-258622Y-337423D01*
X-257152Y-340103D01*
X-255508Y-342679D01*
X-253695Y-345140D01*
X-252196Y-346913D01*
X-254355Y-345820D01*
X-257169Y-344627D01*
X-260055Y-343623D01*
X-263004Y-342818D01*
X-265998Y-342209D01*
X-269029Y-341800D01*
X-272077Y-341596D01*
X-275135Y-341596D01*
X-278183Y-341800D01*
X-281213Y-342209D01*
X-284208Y-342818D01*
X-287157Y-343623D01*
X-290042Y-344627D01*
X-292856Y-345820D01*
X-295584Y-347200D01*
X-298216Y-348757D01*
X-300736Y-350486D01*
X-303133Y-352381D01*
X-305401Y-354431D01*
X-307525Y-356628D01*
X-309499Y-358962D01*
X-311312Y-361424D01*
X-312955Y-363999D01*
X-314426Y-366679D01*
X-315711Y-369453D01*
X-316811Y-372305D01*
X-317715Y-375224D01*
X-318424Y-378195D01*
X-318932Y-381210D01*
X-319239Y-384251D01*
X-319341Y-387306D01*
X-319239Y-390362D01*
X-318932Y-393402D01*
X-318424Y-396417D01*
X-317715Y-399389D01*
X-316811Y-402308D01*
X-315711Y-405160D01*
X-314426Y-407934D01*
X-312955Y-410613D01*
X-311312Y-413189D01*
X-309499Y-415650D01*
X-307525Y-417984D01*
X-305401Y-420182D01*
X-303133Y-422231D01*
X-300736Y-424126D01*
X-298216Y-425856D01*
X-295584Y-427413D01*
X-292856Y-428792D01*
X-290042Y-429986D01*
X-287157Y-430989D01*
X-284208Y-431794D01*
X-281213Y-432404D01*
X-278183Y-432813D01*
G37*
G36*
X279575Y-306423D02*
G01*
X282633Y-306423D01*
X285681Y-306219D01*
X288711Y-305810D01*
X291706Y-305201D01*
X294655Y-304396D01*
X297540Y-303392D01*
X300354Y-302199D01*
X303082Y-300819D01*
X305714Y-299262D01*
X308234Y-297533D01*
X310631Y-295638D01*
X312900Y-293588D01*
X315023Y-291391D01*
X316997Y-289057D01*
X318810Y-286595D01*
X320454Y-284020D01*
X321924Y-281340D01*
X323209Y-278566D01*
X324309Y-275714D01*
X325213Y-272795D01*
X325922Y-269824D01*
X326430Y-266809D01*
X326737Y-263768D01*
X326839Y-260713D01*
X326737Y-257657D01*
X326430Y-254617D01*
X325922Y-251602D01*
X325213Y-248630D01*
X324309Y-245711D01*
X323209Y-242859D01*
X321924Y-240085D01*
X320454Y-237406D01*
X318810Y-234830D01*
X316997Y-232369D01*
X315023Y-230035D01*
X312900Y-227837D01*
X310631Y-225788D01*
X308234Y-223893D01*
X305714Y-222163D01*
X303082Y-220606D01*
X300354Y-219227D01*
X297540Y-218033D01*
X294655Y-217030D01*
X291706Y-216225D01*
X288711Y-215615D01*
X285681Y-215206D01*
X282633Y-215003D01*
X279575Y-215003D01*
X276527Y-215206D01*
X273497Y-215615D01*
X270502Y-216225D01*
X267553Y-217030D01*
X264668Y-218033D01*
X261853Y-219227D01*
X259125Y-220606D01*
X256494Y-222163D01*
X253974Y-223893D01*
X251576Y-225788D01*
X249308Y-227837D01*
X247185Y-230035D01*
X245211Y-232369D01*
X243398Y-234830D01*
X241754Y-237406D01*
X240284Y-240085D01*
X238998Y-242859D01*
X237898Y-245711D01*
X236994Y-248630D01*
X236286Y-251602D01*
X235778Y-254617D01*
X235470Y-257657D01*
X235369Y-260713D01*
X235470Y-263768D01*
X235778Y-266809D01*
X236286Y-269824D01*
X236994Y-272795D01*
X237898Y-275714D01*
X238998Y-278566D01*
X240284Y-281340D01*
X241754Y-284020D01*
X243398Y-286595D01*
X245211Y-289057D01*
X247185Y-291391D01*
X249308Y-293588D01*
X251576Y-295638D01*
X253974Y-297533D01*
X256494Y-299262D01*
X259125Y-300819D01*
X261853Y-302199D01*
X264668Y-303392D01*
X267553Y-304396D01*
X270502Y-305201D01*
X273497Y-305810D01*
X276527Y-306219D01*
G37*
G36*
X1115311Y-226819D02*
G01*
X1118369Y-226819D01*
X1121417Y-226616D01*
X1124447Y-226207D01*
X1127442Y-225597D01*
X1130391Y-224792D01*
X1133276Y-223789D01*
X1136091Y-222595D01*
X1138819Y-221216D01*
X1141450Y-219659D01*
X1143970Y-217929D01*
X1146368Y-216034D01*
X1148636Y-213984D01*
X1150759Y-211787D01*
X1152733Y-209453D01*
X1154546Y-206992D01*
X1156190Y-204416D01*
X1157660Y-201736D01*
X1158946Y-198963D01*
X1160045Y-196110D01*
X1160950Y-193192D01*
X1161658Y-190220D01*
X1162166Y-187205D01*
X1162474Y-184165D01*
X1162575Y-181109D01*
X1162474Y-178053D01*
X1162166Y-175013D01*
X1161658Y-171998D01*
X1160950Y-169026D01*
X1160045Y-166108D01*
X1158946Y-163255D01*
X1157660Y-160482D01*
X1156190Y-157802D01*
X1154546Y-155227D01*
X1152733Y-152765D01*
X1150759Y-150431D01*
X1148636Y-148234D01*
X1146368Y-146184D01*
X1143970Y-144289D01*
X1141450Y-142560D01*
X1138819Y-141003D01*
X1136091Y-139623D01*
X1133276Y-138429D01*
X1130391Y-137426D01*
X1127442Y-136621D01*
X1124447Y-136011D01*
X1121417Y-135602D01*
X1118369Y-135399D01*
X1115311Y-135399D01*
X1112263Y-135602D01*
X1109233Y-136011D01*
X1106238Y-136621D01*
X1103289Y-137426D01*
X1100404Y-138429D01*
X1097589Y-139623D01*
X1094861Y-141003D01*
X1092230Y-142560D01*
X1089710Y-144289D01*
X1087313Y-146184D01*
X1085044Y-148234D01*
X1082921Y-150431D01*
X1080947Y-152765D01*
X1079134Y-155227D01*
X1077490Y-157802D01*
X1076020Y-160482D01*
X1074734Y-163255D01*
X1073635Y-166108D01*
X1072730Y-169026D01*
X1072022Y-171998D01*
X1071514Y-175013D01*
X1071206Y-178053D01*
X1071105Y-181109D01*
X1071206Y-184165D01*
X1071514Y-187205D01*
X1072022Y-190220D01*
X1072730Y-193192D01*
X1073635Y-196110D01*
X1074734Y-198963D01*
X1076020Y-201736D01*
X1077490Y-204416D01*
X1079134Y-206992D01*
X1080947Y-209453D01*
X1082921Y-211787D01*
X1085044Y-213984D01*
X1087313Y-216034D01*
X1089710Y-217929D01*
X1092230Y-219659D01*
X1094861Y-221216D01*
X1097589Y-222595D01*
X1100404Y-223789D01*
X1103289Y-224792D01*
X1106238Y-225597D01*
X1109233Y-226207D01*
X1112263Y-226616D01*
G37*
G36*
X729866Y-63116D02*
G01*
X732924Y-63116D01*
X735972Y-62913D01*
X739002Y-62504D01*
X741997Y-61894D01*
X744946Y-61089D01*
X747831Y-60086D01*
X750646Y-58892D01*
X753374Y-57513D01*
X756005Y-55956D01*
X758525Y-54226D01*
X760923Y-52331D01*
X763191Y-50281D01*
X765314Y-48084D01*
X767288Y-45750D01*
X769101Y-43289D01*
X770745Y-40713D01*
X772215Y-38033D01*
X773501Y-35260D01*
X774600Y-32407D01*
X775505Y-29489D01*
X776213Y-26517D01*
X776721Y-23502D01*
X777029Y-20462D01*
X777130Y-17406D01*
X777029Y-14351D01*
X776721Y-11310D01*
X776213Y-8295D01*
X775505Y-5323D01*
X774600Y-2405D01*
X773501Y447D01*
X772215Y3220D01*
X770745Y5900D01*
X769101Y8475D01*
X767920Y10081D01*
X769264Y9509D01*
X772149Y8506D01*
X775098Y7701D01*
X778093Y7091D01*
X781123Y6682D01*
X784171Y6479D01*
X787229Y6479D01*
X790277Y6682D01*
X793308Y7091D01*
X796302Y7701D01*
X799251Y8506D01*
X802137Y9509D01*
X804951Y10703D01*
X807679Y12082D01*
X810310Y13639D01*
X812830Y15369D01*
X815228Y17264D01*
X817496Y19314D01*
X819619Y21511D01*
X821593Y23845D01*
X823407Y26306D01*
X825050Y28882D01*
X826521Y31562D01*
X827806Y34335D01*
X828906Y37188D01*
X829810Y40106D01*
X830519Y43078D01*
X831027Y46093D01*
X831334Y49133D01*
X831435Y52189D01*
X831334Y55245D01*
X831027Y58285D01*
X830519Y61300D01*
X829810Y64272D01*
X828906Y67190D01*
X827806Y70043D01*
X826521Y72816D01*
X825050Y75496D01*
X823407Y78071D01*
X821593Y80533D01*
X819619Y82867D01*
X817496Y85064D01*
X815228Y87114D01*
X812830Y89009D01*
X810310Y90738D01*
X807679Y92295D01*
X804951Y93675D01*
X802137Y94869D01*
X799251Y95872D01*
X796302Y96677D01*
X793308Y97287D01*
X790277Y97696D01*
X787229Y97899D01*
X784171Y97899D01*
X781123Y97696D01*
X778093Y97287D01*
X775098Y96677D01*
X772149Y95872D01*
X769264Y94869D01*
X766450Y93675D01*
X763722Y92295D01*
X761090Y90738D01*
X758570Y89009D01*
X756173Y87114D01*
X753905Y85064D01*
X751781Y82867D01*
X749808Y80533D01*
X747994Y78071D01*
X746351Y75496D01*
X744880Y72816D01*
X743595Y70043D01*
X742495Y67190D01*
X741591Y64272D01*
X740882Y61300D01*
X740374Y58285D01*
X740067Y55245D01*
X739965Y52189D01*
X740067Y49133D01*
X740374Y46093D01*
X740882Y43078D01*
X741591Y40106D01*
X742495Y37188D01*
X743595Y34335D01*
X744880Y31562D01*
X746351Y28882D01*
X747994Y26306D01*
X749175Y24701D01*
X747831Y25272D01*
X744946Y26276D01*
X741997Y27081D01*
X739002Y27691D01*
X735972Y28100D01*
X732924Y28303D01*
X729866Y28303D01*
X726818Y28100D01*
X723788Y27691D01*
X720793Y27081D01*
X717844Y26276D01*
X714959Y25272D01*
X712144Y24079D01*
X709416Y22699D01*
X706785Y21142D01*
X704265Y19413D01*
X701868Y17518D01*
X699599Y15468D01*
X697476Y13271D01*
X695502Y10937D01*
X693689Y8475D01*
X692045Y5900D01*
X690575Y3220D01*
X689289Y447D01*
X688190Y-2405D01*
X687285Y-5323D01*
X686577Y-8295D01*
X686069Y-11310D01*
X685761Y-14351D01*
X685660Y-17406D01*
X685761Y-20462D01*
X686069Y-23502D01*
X686577Y-26517D01*
X687285Y-29489D01*
X688190Y-32407D01*
X689289Y-35260D01*
X690575Y-38033D01*
X692045Y-40713D01*
X693689Y-43289D01*
X695502Y-45750D01*
X697476Y-48084D01*
X699599Y-50281D01*
X701868Y-52331D01*
X704265Y-54226D01*
X706785Y-55956D01*
X709416Y-57513D01*
X712144Y-58892D01*
X714959Y-60086D01*
X717844Y-61089D01*
X720793Y-61894D01*
X723788Y-62504D01*
X726818Y-62913D01*
G37*
G36*
X1709976Y-31315D02*
G01*
X1713034Y-31315D01*
X1716082Y-31112D01*
X1719112Y-30703D01*
X1722107Y-30093D01*
X1725056Y-29288D01*
X1727941Y-28285D01*
X1730756Y-27091D01*
X1733483Y-25712D01*
X1736115Y-24155D01*
X1738635Y-22425D01*
X1741032Y-20530D01*
X1743301Y-18481D01*
X1745424Y-16283D01*
X1747398Y-13949D01*
X1749211Y-11488D01*
X1750855Y-8912D01*
X1752325Y-6233D01*
X1753610Y-3459D01*
X1754710Y-607D01*
X1755614Y2311D01*
X1756323Y5283D01*
X1756831Y8298D01*
X1757138Y11338D01*
X1757240Y14394D01*
X1757138Y17449D01*
X1756831Y20490D01*
X1756323Y23505D01*
X1755614Y26476D01*
X1754710Y29395D01*
X1753610Y32247D01*
X1752325Y35021D01*
X1750855Y37701D01*
X1749211Y40276D01*
X1747398Y42738D01*
X1745424Y45072D01*
X1743301Y47269D01*
X1741032Y49319D01*
X1738635Y51214D01*
X1736115Y52943D01*
X1733483Y54500D01*
X1730756Y55880D01*
X1727941Y57073D01*
X1725056Y58077D01*
X1722107Y58882D01*
X1719112Y59491D01*
X1716082Y59900D01*
X1713034Y60104D01*
X1709976Y60104D01*
X1706928Y59900D01*
X1703898Y59491D01*
X1700903Y58882D01*
X1697954Y58077D01*
X1695068Y57073D01*
X1692254Y55880D01*
X1689526Y54500D01*
X1686895Y52943D01*
X1684375Y51214D01*
X1681977Y49319D01*
X1679709Y47269D01*
X1677586Y45072D01*
X1675612Y42738D01*
X1673799Y40276D01*
X1672155Y37701D01*
X1670684Y35021D01*
X1669399Y32247D01*
X1668299Y29395D01*
X1667395Y26476D01*
X1666687Y23505D01*
X1666179Y20490D01*
X1665871Y17449D01*
X1665770Y14394D01*
X1665871Y11338D01*
X1666179Y8298D01*
X1666687Y5283D01*
X1667395Y2311D01*
X1668299Y-607D01*
X1669399Y-3459D01*
X1670684Y-6233D01*
X1672155Y-8912D01*
X1673799Y-11488D01*
X1675612Y-13949D01*
X1677586Y-16283D01*
X1679709Y-18481D01*
X1681977Y-20530D01*
X1684375Y-22425D01*
X1686895Y-24155D01*
X1689526Y-25712D01*
X1692254Y-27091D01*
X1695068Y-28285D01*
X1697954Y-29288D01*
X1700903Y-30093D01*
X1703898Y-30703D01*
X1706928Y-31112D01*
G37*
G36*
X1586379Y-29512D02*
G01*
X1589438Y-29512D01*
X1592486Y-29309D01*
X1595516Y-28900D01*
X1598510Y-28290D01*
X1601459Y-27485D01*
X1604345Y-26482D01*
X1607159Y-25288D01*
X1609887Y-23909D01*
X1612518Y-22352D01*
X1615038Y-20622D01*
X1617436Y-18727D01*
X1619704Y-16677D01*
X1621828Y-14480D01*
X1623801Y-12146D01*
X1625615Y-9685D01*
X1627258Y-7109D01*
X1628729Y-4429D01*
X1630014Y-1656D01*
X1631114Y1196D01*
X1632018Y4114D01*
X1632727Y7086D01*
X1633235Y10101D01*
X1633542Y13141D01*
X1633644Y16197D01*
X1633542Y19253D01*
X1633235Y22293D01*
X1632727Y25308D01*
X1632018Y28280D01*
X1631114Y31198D01*
X1630014Y34051D01*
X1628729Y36824D01*
X1627258Y39504D01*
X1625615Y42080D01*
X1623801Y44541D01*
X1621828Y46875D01*
X1619704Y49072D01*
X1617436Y51122D01*
X1615038Y53017D01*
X1612518Y54747D01*
X1609887Y56304D01*
X1607159Y57683D01*
X1604345Y58877D01*
X1601459Y59880D01*
X1598510Y60685D01*
X1595516Y61295D01*
X1592486Y61704D01*
X1589438Y61907D01*
X1586379Y61907D01*
X1583331Y61704D01*
X1580301Y61295D01*
X1577306Y60685D01*
X1574358Y59880D01*
X1571472Y58877D01*
X1568658Y57683D01*
X1565930Y56304D01*
X1563298Y54747D01*
X1560779Y53017D01*
X1558381Y51122D01*
X1556113Y49072D01*
X1553989Y46875D01*
X1552016Y44541D01*
X1550202Y42080D01*
X1548559Y39504D01*
X1547088Y36824D01*
X1545803Y34051D01*
X1544703Y31198D01*
X1543799Y28280D01*
X1543090Y25308D01*
X1542582Y22293D01*
X1542275Y19253D01*
X1542173Y16197D01*
X1542275Y13141D01*
X1542582Y10101D01*
X1543090Y7086D01*
X1543799Y4114D01*
X1544703Y1196D01*
X1545803Y-1656D01*
X1547088Y-4429D01*
X1548559Y-7109D01*
X1550202Y-9685D01*
X1552016Y-12146D01*
X1553989Y-14480D01*
X1556113Y-16677D01*
X1558381Y-18727D01*
X1560779Y-20622D01*
X1563298Y-22352D01*
X1565930Y-23909D01*
X1568658Y-25288D01*
X1571472Y-26482D01*
X1574358Y-27485D01*
X1577306Y-28290D01*
X1580301Y-28900D01*
X1583331Y-29309D01*
G37*
G36*
X1490672Y-29207D02*
G01*
X1493730Y-29207D01*
X1496778Y-29004D01*
X1499809Y-28595D01*
X1502803Y-27985D01*
X1505752Y-27180D01*
X1508638Y-26177D01*
X1511452Y-24983D01*
X1514180Y-23604D01*
X1516811Y-22047D01*
X1519331Y-20317D01*
X1521729Y-18422D01*
X1523997Y-16372D01*
X1526120Y-14175D01*
X1528094Y-11841D01*
X1529908Y-9380D01*
X1531551Y-6804D01*
X1533022Y-4124D01*
X1534307Y-1351D01*
X1535407Y1501D01*
X1536311Y4419D01*
X1537020Y7391D01*
X1537528Y10406D01*
X1537835Y13446D01*
X1537936Y16502D01*
X1537835Y19557D01*
X1537528Y22598D01*
X1537020Y25613D01*
X1536311Y28585D01*
X1535407Y31503D01*
X1534307Y34356D01*
X1533022Y37129D01*
X1531551Y39809D01*
X1529908Y42384D01*
X1528094Y44846D01*
X1526120Y47180D01*
X1523997Y49377D01*
X1521729Y51427D01*
X1519331Y53322D01*
X1516811Y55051D01*
X1514180Y56608D01*
X1511452Y57988D01*
X1508638Y59181D01*
X1505752Y60185D01*
X1502803Y60990D01*
X1499809Y61600D01*
X1496778Y62009D01*
X1493730Y62212D01*
X1490672Y62212D01*
X1487624Y62009D01*
X1484594Y61600D01*
X1481599Y60990D01*
X1478650Y60185D01*
X1475765Y59181D01*
X1472951Y57988D01*
X1470223Y56608D01*
X1467591Y55051D01*
X1465072Y53322D01*
X1462674Y51427D01*
X1460406Y49377D01*
X1458282Y47180D01*
X1456309Y44846D01*
X1456128Y44602D01*
X1456225Y45552D01*
X1456326Y48607D01*
X1456225Y51663D01*
X1455917Y54703D01*
X1455409Y57718D01*
X1454701Y60690D01*
X1453796Y63609D01*
X1452697Y66461D01*
X1451411Y69235D01*
X1449941Y71915D01*
X1448297Y74490D01*
X1446484Y76951D01*
X1444510Y79286D01*
X1442387Y81483D01*
X1440119Y83532D01*
X1437721Y85427D01*
X1435201Y87157D01*
X1432570Y88714D01*
X1429842Y90093D01*
X1427027Y91287D01*
X1424142Y92290D01*
X1421193Y93096D01*
X1418198Y93705D01*
X1415168Y94114D01*
X1412120Y94317D01*
X1409062Y94317D01*
X1406014Y94114D01*
X1402984Y93705D01*
X1399989Y93096D01*
X1397040Y92290D01*
X1394155Y91287D01*
X1391340Y90093D01*
X1388612Y88714D01*
X1385981Y87157D01*
X1383461Y85427D01*
X1381064Y83532D01*
X1378795Y81483D01*
X1376672Y79286D01*
X1374698Y76951D01*
X1372885Y74490D01*
X1371241Y71915D01*
X1369771Y69235D01*
X1368485Y66461D01*
X1367386Y63609D01*
X1366481Y60690D01*
X1366413Y60401D01*
X1365608Y62999D01*
X1364508Y65852D01*
X1363223Y68625D01*
X1361752Y71305D01*
X1360109Y73880D01*
X1358295Y76342D01*
X1356321Y78676D01*
X1354198Y80873D01*
X1351930Y82923D01*
X1349532Y84818D01*
X1347012Y86547D01*
X1344381Y88104D01*
X1341653Y89484D01*
X1338839Y90678D01*
X1335953Y91681D01*
X1333004Y92486D01*
X1330010Y93096D01*
X1326979Y93505D01*
X1323931Y93708D01*
X1320873Y93708D01*
X1317825Y93505D01*
X1314795Y93096D01*
X1311800Y92486D01*
X1308851Y91681D01*
X1305966Y90678D01*
X1303152Y89484D01*
X1300424Y88104D01*
X1297792Y86547D01*
X1295272Y84818D01*
X1292875Y82923D01*
X1290607Y80873D01*
X1288483Y78676D01*
X1286509Y76342D01*
X1284696Y73880D01*
X1283053Y71305D01*
X1281582Y68625D01*
X1280297Y65852D01*
X1279197Y62999D01*
X1278293Y60081D01*
X1277584Y57109D01*
X1277076Y54094D01*
X1276769Y51054D01*
X1276667Y47998D01*
X1276769Y44942D01*
X1277076Y41902D01*
X1277584Y38887D01*
X1278293Y35915D01*
X1279197Y32997D01*
X1280297Y30144D01*
X1281582Y27371D01*
X1283053Y24691D01*
X1284696Y22115D01*
X1286509Y19654D01*
X1288483Y17320D01*
X1290607Y15123D01*
X1292875Y13073D01*
X1295272Y11178D01*
X1297792Y9448D01*
X1300424Y7891D01*
X1303152Y6512D01*
X1305966Y5318D01*
X1308851Y4315D01*
X1311800Y3510D01*
X1314795Y2900D01*
X1317825Y2491D01*
X1320873Y2288D01*
X1323931Y2288D01*
X1326979Y2491D01*
X1330010Y2900D01*
X1333004Y3510D01*
X1335953Y4315D01*
X1338839Y5318D01*
X1341653Y6512D01*
X1344381Y7891D01*
X1347012Y9448D01*
X1349532Y11178D01*
X1351930Y13073D01*
X1354198Y15123D01*
X1356321Y17320D01*
X1358295Y19654D01*
X1360109Y22115D01*
X1361752Y24691D01*
X1363223Y27371D01*
X1364508Y30144D01*
X1365608Y32997D01*
X1366512Y35915D01*
X1366580Y36205D01*
X1367386Y33606D01*
X1368485Y30754D01*
X1369771Y27980D01*
X1371241Y25300D01*
X1372885Y22725D01*
X1374698Y20264D01*
X1376672Y17929D01*
X1378795Y15732D01*
X1381064Y13682D01*
X1383461Y11788D01*
X1385981Y10058D01*
X1388612Y8501D01*
X1391340Y7122D01*
X1394155Y5928D01*
X1397040Y4925D01*
X1399989Y4119D01*
X1402984Y3510D01*
X1406014Y3101D01*
X1409062Y2898D01*
X1412120Y2898D01*
X1415168Y3101D01*
X1418198Y3510D01*
X1421193Y4119D01*
X1424142Y4925D01*
X1427027Y5928D01*
X1429842Y7122D01*
X1432570Y8501D01*
X1435201Y10058D01*
X1437721Y11788D01*
X1440119Y13682D01*
X1442387Y15732D01*
X1444510Y17929D01*
X1446484Y20264D01*
X1446664Y20507D01*
X1446568Y19557D01*
X1446466Y16502D01*
X1446568Y13446D01*
X1446875Y10406D01*
X1447383Y7391D01*
X1448092Y4419D01*
X1448996Y1501D01*
X1450096Y-1351D01*
X1451381Y-4124D01*
X1452852Y-6804D01*
X1454495Y-9380D01*
X1456309Y-11841D01*
X1458282Y-14175D01*
X1460406Y-16372D01*
X1462674Y-18422D01*
X1465072Y-20317D01*
X1467591Y-22047D01*
X1470223Y-23604D01*
X1472951Y-24983D01*
X1475765Y-26177D01*
X1478650Y-27180D01*
X1481599Y-27985D01*
X1484594Y-28595D01*
X1487624Y-29004D01*
G37*
G36*
X1805962Y-23822D02*
G01*
X1809021Y-23822D01*
X1812069Y-23619D01*
X1815099Y-23210D01*
X1818093Y-22600D01*
X1821042Y-21795D01*
X1823928Y-20792D01*
X1826742Y-19598D01*
X1829470Y-18219D01*
X1832102Y-16662D01*
X1834621Y-14932D01*
X1837019Y-13037D01*
X1839287Y-10988D01*
X1841411Y-8790D01*
X1843384Y-6456D01*
X1845198Y-3995D01*
X1846841Y-1419D01*
X1848312Y1259D01*
X1849597Y4033D01*
X1850697Y6885D01*
X1851601Y9804D01*
X1852310Y12776D01*
X1852818Y15791D01*
X1853125Y18831D01*
X1853227Y21887D01*
X1853125Y24942D01*
X1852818Y27983D01*
X1852310Y30998D01*
X1851601Y33969D01*
X1850697Y36888D01*
X1849597Y39740D01*
X1848312Y42514D01*
X1846841Y45194D01*
X1845198Y47769D01*
X1843384Y50231D01*
X1841411Y52565D01*
X1839287Y54762D01*
X1837019Y56812D01*
X1834621Y58707D01*
X1832102Y60436D01*
X1829470Y61993D01*
X1826742Y63372D01*
X1823928Y64566D01*
X1821042Y65570D01*
X1818093Y66375D01*
X1815099Y66984D01*
X1812069Y67393D01*
X1809021Y67597D01*
X1805962Y67597D01*
X1802914Y67393D01*
X1799884Y66984D01*
X1796889Y66375D01*
X1793941Y65570D01*
X1791055Y64566D01*
X1788241Y63372D01*
X1785513Y61993D01*
X1782881Y60436D01*
X1780362Y58707D01*
X1777964Y56812D01*
X1775696Y54762D01*
X1773572Y52565D01*
X1771599Y50231D01*
X1769785Y47769D01*
X1768142Y45194D01*
X1766671Y42514D01*
X1765386Y39740D01*
X1764286Y36888D01*
X1763382Y33969D01*
X1762673Y30998D01*
X1762165Y27983D01*
X1761858Y24942D01*
X1761756Y21887D01*
X1761858Y18831D01*
X1762165Y15791D01*
X1762673Y12776D01*
X1763382Y9804D01*
X1764286Y6885D01*
X1765386Y4033D01*
X1766671Y1259D01*
X1768142Y-1419D01*
X1769785Y-3995D01*
X1771599Y-6456D01*
X1773572Y-8790D01*
X1775696Y-10988D01*
X1777964Y-13037D01*
X1780362Y-14932D01*
X1782881Y-16662D01*
X1785513Y-18219D01*
X1788241Y-19598D01*
X1791055Y-20792D01*
X1793941Y-21795D01*
X1796889Y-22600D01*
X1799884Y-23210D01*
X1802914Y-23619D01*
G37*
G36*
X-335739Y-18107D02*
G01*
X-332681Y-18107D01*
X-329633Y-17904D01*
X-326603Y-17495D01*
X-323608Y-16885D01*
X-320659Y-16080D01*
X-317774Y-15077D01*
X-314959Y-13883D01*
X-312232Y-12504D01*
X-309600Y-10947D01*
X-307080Y-9217D01*
X-304683Y-7322D01*
X-302414Y-5273D01*
X-300291Y-3075D01*
X-298317Y-741D01*
X-296504Y1719D01*
X-294860Y4295D01*
X-293390Y6974D01*
X-292105Y9748D01*
X-291005Y12600D01*
X-290101Y15519D01*
X-289392Y18491D01*
X-288884Y21506D01*
X-288577Y24546D01*
X-288475Y27602D01*
X-288577Y30657D01*
X-288884Y33698D01*
X-289392Y36713D01*
X-290101Y39684D01*
X-291005Y42603D01*
X-292105Y45455D01*
X-293390Y48229D01*
X-294860Y50909D01*
X-296504Y53484D01*
X-298317Y55946D01*
X-300291Y58280D01*
X-302414Y60477D01*
X-304683Y62527D01*
X-307080Y64422D01*
X-309600Y66151D01*
X-312232Y67708D01*
X-314959Y69088D01*
X-317774Y70281D01*
X-320659Y71285D01*
X-323608Y72090D01*
X-326603Y72699D01*
X-329633Y73108D01*
X-332681Y73312D01*
X-335739Y73312D01*
X-338787Y73108D01*
X-341817Y72699D01*
X-344812Y72090D01*
X-347761Y71285D01*
X-350647Y70281D01*
X-353461Y69088D01*
X-356189Y67708D01*
X-358820Y66151D01*
X-361340Y64422D01*
X-363738Y62527D01*
X-366006Y60477D01*
X-368129Y58280D01*
X-370103Y55946D01*
X-371916Y53484D01*
X-373560Y50909D01*
X-375031Y48229D01*
X-376316Y45455D01*
X-377416Y42603D01*
X-378320Y39684D01*
X-379028Y36713D01*
X-379536Y33698D01*
X-379844Y30657D01*
X-379945Y27602D01*
X-379844Y24546D01*
X-379536Y21506D01*
X-379028Y18491D01*
X-378320Y15519D01*
X-377416Y12600D01*
X-376316Y9748D01*
X-375031Y6974D01*
X-373560Y4295D01*
X-371916Y1719D01*
X-370103Y-741D01*
X-368129Y-3075D01*
X-366006Y-5273D01*
X-363738Y-7322D01*
X-361340Y-9217D01*
X-358820Y-10947D01*
X-356189Y-12504D01*
X-353461Y-13883D01*
X-350647Y-15077D01*
X-347761Y-16080D01*
X-344812Y-16885D01*
X-341817Y-17495D01*
X-338787Y-17904D01*
G37*
G36*
X123870Y3190D02*
G01*
X126928Y3190D01*
X129976Y3393D01*
X133007Y3802D01*
X136001Y4411D01*
X138950Y5217D01*
X141836Y6220D01*
X144650Y7414D01*
X147378Y8793D01*
X150009Y10350D01*
X152529Y12080D01*
X154927Y13975D01*
X157195Y16024D01*
X159318Y18221D01*
X161292Y20556D01*
X163106Y23017D01*
X164749Y25593D01*
X166220Y28272D01*
X167505Y31046D01*
X168605Y33898D01*
X169509Y36817D01*
X170218Y39789D01*
X170726Y42804D01*
X171033Y45844D01*
X171135Y48900D01*
X171033Y51955D01*
X170726Y54996D01*
X170218Y58011D01*
X169509Y60982D01*
X168605Y63901D01*
X167505Y66753D01*
X166220Y69527D01*
X164749Y72207D01*
X163106Y74782D01*
X161292Y77243D01*
X159318Y79578D01*
X157195Y81775D01*
X154927Y83825D01*
X152529Y85719D01*
X150009Y87449D01*
X147378Y89006D01*
X144650Y90385D01*
X141836Y91579D01*
X138950Y92582D01*
X136001Y93388D01*
X133007Y93997D01*
X129976Y94406D01*
X126928Y94609D01*
X123870Y94609D01*
X120822Y94406D01*
X117792Y93997D01*
X114797Y93388D01*
X111848Y92582D01*
X108963Y91579D01*
X106149Y90385D01*
X103421Y89006D01*
X100789Y87449D01*
X98270Y85719D01*
X95872Y83825D01*
X93604Y81775D01*
X91480Y79578D01*
X89507Y77243D01*
X87693Y74782D01*
X86050Y72207D01*
X84579Y69527D01*
X83294Y66753D01*
X82194Y63901D01*
X81290Y60982D01*
X80581Y58011D01*
X80073Y54996D01*
X79766Y51955D01*
X79664Y48900D01*
X79766Y45844D01*
X80073Y42804D01*
X80581Y39789D01*
X81290Y36817D01*
X82194Y33898D01*
X83294Y31046D01*
X84579Y28272D01*
X86050Y25593D01*
X87693Y23017D01*
X89507Y20556D01*
X91480Y18221D01*
X93604Y16024D01*
X95872Y13975D01*
X98270Y12080D01*
X100789Y10350D01*
X103421Y8793D01*
X106149Y7414D01*
X108963Y6220D01*
X111848Y5217D01*
X114797Y4411D01*
X117792Y3802D01*
X120822Y3393D01*
G37*
G36*
X1126462Y10391D02*
G01*
X1129520Y10391D01*
X1132568Y10594D01*
X1135598Y11003D01*
X1138593Y11612D01*
X1141542Y12418D01*
X1144427Y13421D01*
X1147241Y14615D01*
X1149969Y15994D01*
X1152601Y17551D01*
X1155120Y19281D01*
X1157518Y21175D01*
X1159786Y23225D01*
X1161910Y25422D01*
X1163883Y27757D01*
X1165697Y30218D01*
X1167340Y32793D01*
X1168811Y35473D01*
X1170096Y38247D01*
X1171196Y41099D01*
X1172100Y44018D01*
X1172809Y46989D01*
X1173317Y50004D01*
X1173624Y53045D01*
X1173726Y56100D01*
X1173624Y59156D01*
X1173317Y62196D01*
X1172809Y65211D01*
X1172100Y68183D01*
X1171196Y71102D01*
X1170096Y73954D01*
X1168811Y76728D01*
X1167340Y79408D01*
X1165697Y81983D01*
X1163883Y84444D01*
X1161910Y86779D01*
X1159786Y88976D01*
X1157518Y91025D01*
X1155120Y92920D01*
X1152601Y94650D01*
X1149969Y96207D01*
X1147241Y97586D01*
X1144427Y98780D01*
X1141542Y99783D01*
X1138593Y100589D01*
X1135598Y101198D01*
X1132568Y101607D01*
X1129520Y101810D01*
X1126462Y101810D01*
X1123414Y101607D01*
X1120383Y101198D01*
X1117389Y100589D01*
X1114440Y99783D01*
X1111554Y98780D01*
X1108740Y97586D01*
X1106012Y96207D01*
X1103381Y94650D01*
X1100861Y92920D01*
X1098463Y91025D01*
X1096195Y88976D01*
X1094071Y86779D01*
X1092098Y84444D01*
X1090284Y81983D01*
X1088641Y79408D01*
X1087170Y76728D01*
X1085885Y73954D01*
X1084785Y71102D01*
X1083881Y68183D01*
X1083172Y65211D01*
X1082664Y62196D01*
X1082357Y59156D01*
X1082255Y56100D01*
X1082357Y53045D01*
X1082664Y50004D01*
X1083172Y46989D01*
X1083881Y44018D01*
X1084785Y41099D01*
X1085885Y38247D01*
X1087170Y35473D01*
X1088641Y32793D01*
X1090284Y30218D01*
X1092098Y27757D01*
X1094071Y25422D01*
X1096195Y23225D01*
X1098463Y21175D01*
X1100861Y19281D01*
X1103381Y17551D01*
X1106012Y15994D01*
X1108740Y14615D01*
X1111554Y13421D01*
X1114440Y12418D01*
X1117389Y11612D01*
X1120383Y11003D01*
X1123414Y10594D01*
G37*
G36*
X593968Y58089D02*
G01*
X597027Y58089D01*
X600075Y58293D01*
X603105Y58701D01*
X606099Y59311D01*
X609048Y60116D01*
X611934Y61120D01*
X614748Y62313D01*
X617476Y63693D01*
X620107Y65250D01*
X622627Y66979D01*
X625025Y68874D01*
X627293Y70924D01*
X629417Y73121D01*
X631390Y75455D01*
X633204Y77917D01*
X634847Y80492D01*
X636318Y83172D01*
X637603Y85945D01*
X638703Y88798D01*
X639607Y91716D01*
X640316Y94688D01*
X640824Y97703D01*
X641131Y100744D01*
X641233Y103799D01*
X641131Y106855D01*
X640824Y109895D01*
X640316Y112910D01*
X639607Y115882D01*
X638703Y118800D01*
X637603Y121653D01*
X636318Y124426D01*
X634847Y127106D01*
X633204Y129682D01*
X631390Y132143D01*
X629417Y134477D01*
X627293Y136674D01*
X625025Y138724D01*
X622627Y140619D01*
X620107Y142349D01*
X617476Y143906D01*
X614748Y145285D01*
X611934Y146479D01*
X609048Y147482D01*
X606099Y148287D01*
X603105Y148897D01*
X600075Y149306D01*
X597027Y149509D01*
X593968Y149509D01*
X590920Y149306D01*
X587890Y148897D01*
X584895Y148287D01*
X581947Y147482D01*
X579061Y146479D01*
X576247Y145285D01*
X573519Y143906D01*
X570887Y142349D01*
X568368Y140619D01*
X565970Y138724D01*
X563702Y136674D01*
X561578Y134477D01*
X559605Y132143D01*
X557791Y129682D01*
X556148Y127106D01*
X554677Y124426D01*
X553392Y121653D01*
X552292Y118800D01*
X551388Y115882D01*
X550679Y112910D01*
X550171Y109895D01*
X549864Y106855D01*
X549762Y103799D01*
X549864Y100744D01*
X550171Y97703D01*
X550679Y94688D01*
X551388Y91716D01*
X552292Y88798D01*
X553392Y85945D01*
X554677Y83172D01*
X556148Y80492D01*
X557791Y77917D01*
X559605Y75455D01*
X561578Y73121D01*
X563702Y70924D01*
X565970Y68874D01*
X568368Y66979D01*
X570887Y65250D01*
X573519Y63693D01*
X576247Y62313D01*
X579061Y61120D01*
X581947Y60116D01*
X584895Y59311D01*
X587890Y58701D01*
X590920Y58293D01*
G37*
G36*
X407362Y59286D02*
G01*
X410420Y59286D01*
X413468Y59489D01*
X416499Y59898D01*
X419493Y60507D01*
X422442Y61313D01*
X425328Y62316D01*
X428142Y63510D01*
X430870Y64889D01*
X433501Y66446D01*
X436021Y68176D01*
X438419Y70070D01*
X440687Y72120D01*
X442810Y74317D01*
X444784Y76652D01*
X446598Y79113D01*
X448241Y81688D01*
X449712Y84368D01*
X450997Y87142D01*
X452097Y89994D01*
X453001Y92913D01*
X453710Y95885D01*
X454218Y98899D01*
X454525Y101940D01*
X454626Y104995D01*
X454525Y108051D01*
X454218Y111091D01*
X453710Y114106D01*
X453001Y117078D01*
X452097Y119997D01*
X450997Y122849D01*
X449712Y125623D01*
X448241Y128303D01*
X446598Y130878D01*
X444784Y133339D01*
X442810Y135674D01*
X440687Y137871D01*
X438419Y139920D01*
X436021Y141815D01*
X433501Y143545D01*
X430870Y145102D01*
X428142Y146481D01*
X425328Y147675D01*
X422442Y148678D01*
X419493Y149484D01*
X416499Y150093D01*
X413468Y150502D01*
X410420Y150705D01*
X407362Y150705D01*
X404314Y150502D01*
X401284Y150093D01*
X398289Y149484D01*
X395340Y148678D01*
X392455Y147675D01*
X389641Y146481D01*
X386913Y145102D01*
X384281Y143545D01*
X381761Y141815D01*
X379364Y139920D01*
X377096Y137871D01*
X374972Y135674D01*
X372999Y133339D01*
X371185Y130878D01*
X369542Y128303D01*
X368071Y125623D01*
X366786Y122849D01*
X365686Y119997D01*
X364782Y117078D01*
X364073Y114106D01*
X363565Y111091D01*
X363258Y108051D01*
X363156Y104995D01*
X363258Y101940D01*
X363565Y98899D01*
X364073Y95885D01*
X364782Y92913D01*
X365686Y89994D01*
X366786Y87142D01*
X368071Y84368D01*
X369542Y81688D01*
X371185Y79113D01*
X372999Y76652D01*
X374972Y74317D01*
X377096Y72120D01*
X379364Y70070D01*
X381761Y68176D01*
X384281Y66446D01*
X386913Y64889D01*
X389641Y63510D01*
X392455Y62316D01*
X395340Y61313D01*
X398289Y60507D01*
X401284Y59898D01*
X404314Y59489D01*
G37*
G36*
X211170Y68290D02*
G01*
X214228Y68290D01*
X217276Y68493D01*
X220306Y68902D01*
X223301Y69512D01*
X226250Y70317D01*
X229135Y71320D01*
X231950Y72514D01*
X234678Y73893D01*
X237309Y75450D01*
X239829Y77180D01*
X242227Y79075D01*
X244495Y81125D01*
X246618Y83322D01*
X248592Y85656D01*
X250405Y88117D01*
X252049Y90693D01*
X253519Y93372D01*
X254805Y96146D01*
X255904Y98999D01*
X256809Y101917D01*
X257517Y104889D01*
X258025Y107904D01*
X258333Y110944D01*
X258434Y114000D01*
X258333Y117055D01*
X258025Y120096D01*
X257517Y123111D01*
X256809Y126083D01*
X255904Y129001D01*
X254805Y131853D01*
X253519Y134627D01*
X252049Y137307D01*
X250405Y139882D01*
X248592Y142344D01*
X246618Y144678D01*
X244495Y146875D01*
X242227Y148925D01*
X239829Y150820D01*
X237309Y152549D01*
X234678Y154106D01*
X231950Y155486D01*
X229135Y156679D01*
X226250Y157683D01*
X223301Y158488D01*
X220306Y159097D01*
X217276Y159506D01*
X214228Y159710D01*
X211170Y159710D01*
X208122Y159506D01*
X205092Y159097D01*
X202097Y158488D01*
X199148Y157683D01*
X196263Y156679D01*
X193448Y155486D01*
X190720Y154106D01*
X188089Y152549D01*
X185569Y150820D01*
X183172Y148925D01*
X180903Y146875D01*
X178780Y144678D01*
X176806Y142344D01*
X174993Y139882D01*
X173349Y137307D01*
X171879Y134627D01*
X170594Y131853D01*
X169494Y129001D01*
X168589Y126083D01*
X167881Y123111D01*
X167373Y120096D01*
X167065Y117055D01*
X166964Y114000D01*
X167065Y110944D01*
X167373Y107904D01*
X167881Y104889D01*
X168589Y101917D01*
X169494Y98999D01*
X170594Y96146D01*
X171879Y93372D01*
X173349Y90693D01*
X174993Y88117D01*
X176806Y85656D01*
X178780Y83322D01*
X180903Y81125D01*
X183172Y79075D01*
X185569Y77180D01*
X188089Y75450D01*
X190720Y73893D01*
X193448Y72514D01*
X196263Y71320D01*
X199148Y70317D01*
X202097Y69512D01*
X205092Y68902D01*
X208122Y68493D01*
G37*
G36*
X-1210447Y106906D02*
G01*
X-1110447Y106906D01*
X-1110079Y106911D01*
X-1107089Y106984D01*
X-1106337Y107020D01*
X-1103353Y107243D01*
X-1102601Y107320D01*
X-1099632Y107693D01*
X-1098905Y107802D01*
X-1095959Y108320D01*
X-1095220Y108470D01*
X-1092304Y109136D01*
X-1091580Y109321D01*
X-1088699Y110131D01*
X-1087970Y110355D01*
X-1085136Y111310D01*
X-1084452Y111559D01*
X-1081666Y112651D01*
X-1080973Y112943D01*
X-1078247Y114172D01*
X-1077564Y114503D01*
X-1074902Y115869D01*
X-1074252Y116222D01*
X-1071661Y117718D01*
X-1071026Y118107D01*
X-1068511Y119730D01*
X-1067892Y120152D01*
X-1065463Y121897D01*
X-1064869Y122346D01*
X-1062530Y124211D01*
X-1061948Y124701D01*
X-1059705Y126682D01*
X-1059164Y127182D01*
X-1057023Y129270D01*
X-1056495Y129814D01*
X-1054460Y132008D01*
X-1053970Y132562D01*
X-1052047Y134853D01*
X-1051585Y135435D01*
X-1049776Y137820D01*
X-1049332Y138435D01*
X-1047648Y140906D01*
X-1047244Y141533D01*
X-1045684Y144086D01*
X-1045316Y144724D01*
X-1043884Y147350D01*
X-1043536Y148028D01*
X-1042238Y150726D01*
X-1041930Y151406D01*
X-1040770Y154162D01*
X-1040498Y154856D01*
X-1039474Y157667D01*
X-1039235Y158376D01*
X-1038354Y161234D01*
X-1038153Y161952D01*
X-1037414Y164853D01*
X-1037247Y165587D01*
X-1036655Y168518D01*
X-1036525Y169247D01*
X-1036078Y172206D01*
X-1035984Y172956D01*
X-1035687Y175933D01*
X-1035631Y176672D01*
X-1035481Y179659D01*
X-1035464Y180411D01*
X-1035464Y183403D01*
X-1035481Y184155D01*
X-1035631Y187142D01*
X-1035687Y187881D01*
X-1035984Y190858D01*
X-1036078Y191607D01*
X-1036525Y194566D01*
X-1036655Y195295D01*
X-1037247Y198226D01*
X-1037414Y198960D01*
X-1038153Y201861D01*
X-1038354Y202580D01*
X-1039235Y205437D01*
X-1039474Y206146D01*
X-1040498Y208958D01*
X-1040770Y209651D01*
X-1041930Y212407D01*
X-1042238Y213088D01*
X-1043536Y215785D01*
X-1043884Y216463D01*
X-1045316Y219090D01*
X-1045684Y219727D01*
X-1047244Y222280D01*
X-1047648Y222907D01*
X-1049332Y225379D01*
X-1049776Y225993D01*
X-1051585Y228379D01*
X-1052047Y228960D01*
X-1053970Y231251D01*
X-1054460Y231805D01*
X-1056495Y234000D01*
X-1057023Y234543D01*
X-1059164Y236631D01*
X-1059705Y237131D01*
X-1061948Y239113D01*
X-1062530Y239603D01*
X-1064869Y241467D01*
X-1065463Y241917D01*
X-1067892Y243662D01*
X-1068511Y244083D01*
X-1071026Y245706D01*
X-1071661Y246095D01*
X-1074252Y247591D01*
X-1074902Y247944D01*
X-1077564Y249311D01*
X-1078247Y249641D01*
X-1080973Y250870D01*
X-1081666Y251162D01*
X-1084452Y252255D01*
X-1085136Y252503D01*
X-1087970Y253458D01*
X-1088699Y253682D01*
X-1091580Y254492D01*
X-1092304Y254678D01*
X-1095220Y255343D01*
X-1095959Y255493D01*
X-1098905Y256011D01*
X-1099632Y256120D01*
X-1102601Y256494D01*
X-1103353Y256570D01*
X-1106337Y256794D01*
X-1107089Y256829D01*
X-1110079Y256903D01*
X-1110447Y256908D01*
X-1210447Y256908D01*
X-1210815Y256903D01*
X-1213805Y256829D01*
X-1214556Y256794D01*
X-1217541Y256570D01*
X-1218293Y256494D01*
X-1221262Y256120D01*
X-1221988Y256011D01*
X-1224935Y255493D01*
X-1225674Y255343D01*
X-1228590Y254678D01*
X-1229314Y254492D01*
X-1232194Y253682D01*
X-1232923Y253458D01*
X-1235758Y252503D01*
X-1236441Y252255D01*
X-1239227Y251162D01*
X-1239921Y250870D01*
X-1242646Y249641D01*
X-1243329Y249311D01*
X-1245991Y247944D01*
X-1246642Y247591D01*
X-1249232Y246095D01*
X-1249867Y245706D01*
X-1252382Y244083D01*
X-1253002Y243662D01*
X-1255430Y241917D01*
X-1256024Y241467D01*
X-1258364Y239603D01*
X-1258945Y239113D01*
X-1261188Y237131D01*
X-1261729Y236631D01*
X-1263870Y234543D01*
X-1264399Y234000D01*
X-1266433Y231805D01*
X-1266924Y231251D01*
X-1268846Y228960D01*
X-1269309Y228379D01*
X-1271117Y225993D01*
X-1271562Y225379D01*
X-1273246Y222907D01*
X-1273649Y222280D01*
X-1275209Y219727D01*
X-1275577Y219090D01*
X-1277010Y216463D01*
X-1277358Y215785D01*
X-1278656Y213088D01*
X-1278963Y212407D01*
X-1280124Y209651D01*
X-1280396Y208958D01*
X-1281419Y206146D01*
X-1281658Y205437D01*
X-1282539Y202580D01*
X-1282740Y201861D01*
X-1283479Y198960D01*
X-1283647Y198226D01*
X-1284239Y195295D01*
X-1284368Y194566D01*
X-1284815Y191607D01*
X-1284909Y190858D01*
X-1285206Y187881D01*
X-1285262Y187142D01*
X-1285412Y184155D01*
X-1285430Y183403D01*
X-1285430Y180411D01*
X-1285412Y179659D01*
X-1285262Y176672D01*
X-1285206Y175933D01*
X-1284909Y172956D01*
X-1284815Y172206D01*
X-1284368Y169247D01*
X-1284239Y168518D01*
X-1283647Y165587D01*
X-1283479Y164853D01*
X-1282740Y161952D01*
X-1282539Y161234D01*
X-1281658Y158376D01*
X-1281419Y157667D01*
X-1280396Y154856D01*
X-1280124Y154162D01*
X-1278963Y151406D01*
X-1278656Y150726D01*
X-1277358Y148028D01*
X-1277010Y147350D01*
X-1275577Y144724D01*
X-1275209Y144086D01*
X-1273649Y141533D01*
X-1273246Y140906D01*
X-1271562Y138435D01*
X-1271117Y137820D01*
X-1269309Y135435D01*
X-1268846Y134853D01*
X-1266924Y132562D01*
X-1266433Y132008D01*
X-1264399Y129814D01*
X-1263870Y129270D01*
X-1261729Y127182D01*
X-1261188Y126682D01*
X-1258945Y124701D01*
X-1258364Y124211D01*
X-1256024Y122346D01*
X-1255430Y121897D01*
X-1253002Y120152D01*
X-1252382Y119730D01*
X-1249867Y118107D01*
X-1249232Y117718D01*
X-1246642Y116222D01*
X-1245991Y115869D01*
X-1243329Y114503D01*
X-1242646Y114172D01*
X-1239921Y112943D01*
X-1239227Y112651D01*
X-1236441Y111559D01*
X-1235758Y111310D01*
X-1232923Y110355D01*
X-1232194Y110131D01*
X-1229314Y109321D01*
X-1228590Y109136D01*
X-1225674Y108470D01*
X-1224935Y108320D01*
X-1221988Y107802D01*
X-1221262Y107693D01*
X-1218293Y107320D01*
X-1217541Y107243D01*
X-1214556Y107020D01*
X-1213805Y106984D01*
X-1210815Y106911D01*
G37*
G36*
X-215419Y121389D02*
G01*
X-212361Y121389D01*
X-209313Y121592D01*
X-206283Y122001D01*
X-203288Y122610D01*
X-200339Y123416D01*
X-197454Y124419D01*
X-194640Y125613D01*
X-191912Y126992D01*
X-189280Y128549D01*
X-186761Y130279D01*
X-184363Y132173D01*
X-182095Y134223D01*
X-179971Y136420D01*
X-177998Y138755D01*
X-176184Y141216D01*
X-174541Y143791D01*
X-173070Y146471D01*
X-171785Y149245D01*
X-170685Y152097D01*
X-169781Y155016D01*
X-169072Y157988D01*
X-168564Y161002D01*
X-168257Y164043D01*
X-168155Y167098D01*
X-168257Y170154D01*
X-168564Y173194D01*
X-169072Y176209D01*
X-169781Y179181D01*
X-170685Y182100D01*
X-171785Y184952D01*
X-173070Y187726D01*
X-174541Y190406D01*
X-176184Y192981D01*
X-177998Y195442D01*
X-179971Y197777D01*
X-182095Y199974D01*
X-184363Y202023D01*
X-186761Y203918D01*
X-189280Y205648D01*
X-191912Y207205D01*
X-194640Y208584D01*
X-197454Y209778D01*
X-200339Y210781D01*
X-203288Y211587D01*
X-206283Y212196D01*
X-209313Y212605D01*
X-212361Y212808D01*
X-215419Y212808D01*
X-218467Y212605D01*
X-221498Y212196D01*
X-224492Y211587D01*
X-227441Y210781D01*
X-230327Y209778D01*
X-233141Y208584D01*
X-235869Y207205D01*
X-238500Y205648D01*
X-241020Y203918D01*
X-243418Y202023D01*
X-245686Y199974D01*
X-247810Y197777D01*
X-249783Y195442D01*
X-251597Y192981D01*
X-253240Y190406D01*
X-254711Y187726D01*
X-255996Y184952D01*
X-257096Y182100D01*
X-258000Y179181D01*
X-258709Y176209D01*
X-259217Y173194D01*
X-259524Y170154D01*
X-259626Y167098D01*
X-259524Y164043D01*
X-259217Y161002D01*
X-258709Y157988D01*
X-258000Y155016D01*
X-257096Y152097D01*
X-255996Y149245D01*
X-254711Y146471D01*
X-253240Y143791D01*
X-251597Y141216D01*
X-249783Y138755D01*
X-247810Y136420D01*
X-245686Y134223D01*
X-243418Y132173D01*
X-241020Y130279D01*
X-238500Y128549D01*
X-235869Y126992D01*
X-233141Y125613D01*
X-230327Y124419D01*
X-227441Y123416D01*
X-224492Y122610D01*
X-221498Y122001D01*
X-218467Y121592D01*
G37*
G36*
X1901670Y186794D02*
G01*
X1904728Y186794D01*
X1907776Y186997D01*
X1910806Y187406D01*
X1913801Y188015D01*
X1916750Y188821D01*
X1919635Y189824D01*
X1922449Y191018D01*
X1925177Y192397D01*
X1927809Y193954D01*
X1930328Y195684D01*
X1932726Y197578D01*
X1934994Y199628D01*
X1937118Y201825D01*
X1939091Y204160D01*
X1940905Y206621D01*
X1942548Y209196D01*
X1944019Y211876D01*
X1945304Y214650D01*
X1946404Y217502D01*
X1947308Y220421D01*
X1948017Y223393D01*
X1948525Y226407D01*
X1948832Y229448D01*
X1948934Y232503D01*
X1948832Y235559D01*
X1948525Y238599D01*
X1948017Y241614D01*
X1947308Y244586D01*
X1946404Y247505D01*
X1945304Y250357D01*
X1944019Y253131D01*
X1942548Y255811D01*
X1940905Y258386D01*
X1939091Y260847D01*
X1937118Y263182D01*
X1934994Y265379D01*
X1932726Y267428D01*
X1930328Y269323D01*
X1927809Y271053D01*
X1925177Y272610D01*
X1922449Y273989D01*
X1919635Y275183D01*
X1916750Y276186D01*
X1913801Y276992D01*
X1910806Y277601D01*
X1907776Y278010D01*
X1904728Y278213D01*
X1901670Y278213D01*
X1898622Y278010D01*
X1895591Y277601D01*
X1892597Y276992D01*
X1889648Y276186D01*
X1886762Y275183D01*
X1883948Y273989D01*
X1881220Y272610D01*
X1878589Y271053D01*
X1876069Y269323D01*
X1873671Y267428D01*
X1871403Y265379D01*
X1869279Y263182D01*
X1867306Y260847D01*
X1865492Y258386D01*
X1863849Y255811D01*
X1862378Y253131D01*
X1861093Y250357D01*
X1859993Y247505D01*
X1859089Y244586D01*
X1858380Y241614D01*
X1857872Y238599D01*
X1857565Y235559D01*
X1857463Y232503D01*
X1857565Y229448D01*
X1857872Y226407D01*
X1858380Y223393D01*
X1859089Y220421D01*
X1859993Y217502D01*
X1861093Y214650D01*
X1862378Y211876D01*
X1863849Y209196D01*
X1865492Y206621D01*
X1867306Y204160D01*
X1869279Y201825D01*
X1871403Y199628D01*
X1873671Y197578D01*
X1876069Y195684D01*
X1878589Y193954D01*
X1881220Y192397D01*
X1883948Y191018D01*
X1886762Y189824D01*
X1889648Y188821D01*
X1892597Y188015D01*
X1895591Y187406D01*
X1898622Y186997D01*
G37*
G36*
X1169068Y191289D02*
G01*
X1172126Y191289D01*
X1175174Y191493D01*
X1178204Y191902D01*
X1181199Y192511D01*
X1184147Y193316D01*
X1187033Y194320D01*
X1189847Y195513D01*
X1192575Y196893D01*
X1195207Y198450D01*
X1197726Y200179D01*
X1200124Y202074D01*
X1202392Y204124D01*
X1204516Y206321D01*
X1206489Y208655D01*
X1208303Y211117D01*
X1209946Y213692D01*
X1211417Y216372D01*
X1212702Y219146D01*
X1213802Y221998D01*
X1214706Y224917D01*
X1215415Y227888D01*
X1215923Y230903D01*
X1216230Y233944D01*
X1216332Y236999D01*
X1216230Y240055D01*
X1215923Y243095D01*
X1215415Y246110D01*
X1214706Y249082D01*
X1213802Y252001D01*
X1212702Y254853D01*
X1211417Y257627D01*
X1209946Y260306D01*
X1208303Y262882D01*
X1206489Y265343D01*
X1204516Y267677D01*
X1202392Y269875D01*
X1200124Y271924D01*
X1197726Y273819D01*
X1195207Y275549D01*
X1192575Y277106D01*
X1192517Y277136D01*
X1194729Y278884D01*
X1196997Y280934D01*
X1199121Y283131D01*
X1201094Y285465D01*
X1202908Y287926D01*
X1204551Y290502D01*
X1206022Y293182D01*
X1207307Y295955D01*
X1208407Y298808D01*
X1209311Y301726D01*
X1210020Y304698D01*
X1210528Y307713D01*
X1210835Y310753D01*
X1210937Y313809D01*
X1210835Y316864D01*
X1210528Y319905D01*
X1210020Y322920D01*
X1209311Y325892D01*
X1208407Y328810D01*
X1207307Y331663D01*
X1206022Y334436D01*
X1204551Y337116D01*
X1202908Y339691D01*
X1201094Y342153D01*
X1199121Y344487D01*
X1196997Y346684D01*
X1194729Y348734D01*
X1192331Y350629D01*
X1189812Y352358D01*
X1187180Y353915D01*
X1187157Y353928D01*
X1187485Y354093D01*
X1190116Y355650D01*
X1192636Y357380D01*
X1195034Y359275D01*
X1197302Y361325D01*
X1199426Y363522D01*
X1201399Y365856D01*
X1203213Y368317D01*
X1204856Y370893D01*
X1206327Y373573D01*
X1207612Y376346D01*
X1208712Y379199D01*
X1209616Y382117D01*
X1210325Y385089D01*
X1210833Y388104D01*
X1211140Y391144D01*
X1211242Y394200D01*
X1211140Y397255D01*
X1210833Y400296D01*
X1210325Y403311D01*
X1209616Y406283D01*
X1208712Y409201D01*
X1207612Y412054D01*
X1206327Y414827D01*
X1204856Y417507D01*
X1203213Y420082D01*
X1201399Y422544D01*
X1199426Y424878D01*
X1197302Y427075D01*
X1195034Y429125D01*
X1192636Y431020D01*
X1190116Y432749D01*
X1187485Y434306D01*
X1184757Y435686D01*
X1181943Y436880D01*
X1179057Y437883D01*
X1176108Y438688D01*
X1173114Y439298D01*
X1170084Y439707D01*
X1167036Y439910D01*
X1163977Y439910D01*
X1160929Y439707D01*
X1157899Y439298D01*
X1154904Y438688D01*
X1151956Y437883D01*
X1149070Y436880D01*
X1146256Y435686D01*
X1143528Y434306D01*
X1140896Y432749D01*
X1138377Y431020D01*
X1135979Y429125D01*
X1133711Y427075D01*
X1131587Y424878D01*
X1129614Y422544D01*
X1127800Y420082D01*
X1126157Y417507D01*
X1124686Y414827D01*
X1123401Y412054D01*
X1122301Y409201D01*
X1121397Y406283D01*
X1120688Y403311D01*
X1120180Y400296D01*
X1119873Y397255D01*
X1119771Y394200D01*
X1119873Y391144D01*
X1120180Y388104D01*
X1120688Y385089D01*
X1121397Y382117D01*
X1122301Y379199D01*
X1123401Y376346D01*
X1124686Y373573D01*
X1126157Y370893D01*
X1127800Y368317D01*
X1129614Y365856D01*
X1131587Y363522D01*
X1133711Y361325D01*
X1135979Y359275D01*
X1138377Y357380D01*
X1140896Y355650D01*
X1143528Y354093D01*
X1143551Y354081D01*
X1143223Y353915D01*
X1140592Y352358D01*
X1138072Y350629D01*
X1135674Y348734D01*
X1133406Y346684D01*
X1131282Y344487D01*
X1129309Y342153D01*
X1127495Y339691D01*
X1125852Y337116D01*
X1124381Y334436D01*
X1123096Y331663D01*
X1121996Y328810D01*
X1121092Y325892D01*
X1120383Y322920D01*
X1119875Y319905D01*
X1119568Y316864D01*
X1119466Y313809D01*
X1119568Y310753D01*
X1119875Y307713D01*
X1120383Y304698D01*
X1121092Y301726D01*
X1121996Y298808D01*
X1123096Y295955D01*
X1124381Y293182D01*
X1125852Y290502D01*
X1127495Y287926D01*
X1129309Y285465D01*
X1131282Y283131D01*
X1133406Y280934D01*
X1135674Y278884D01*
X1138072Y276989D01*
X1140592Y275259D01*
X1143223Y273702D01*
X1143281Y273672D01*
X1141069Y271924D01*
X1138801Y269875D01*
X1136677Y267677D01*
X1134704Y265343D01*
X1132890Y262882D01*
X1131247Y260306D01*
X1129776Y257627D01*
X1128491Y254853D01*
X1127391Y252001D01*
X1126487Y249082D01*
X1125778Y246110D01*
X1125270Y243095D01*
X1124963Y240055D01*
X1124861Y236999D01*
X1124963Y233944D01*
X1125270Y230903D01*
X1125778Y227888D01*
X1126487Y224917D01*
X1127391Y221998D01*
X1128491Y219146D01*
X1129776Y216372D01*
X1131247Y213692D01*
X1132890Y211117D01*
X1134704Y208655D01*
X1136677Y206321D01*
X1138801Y204124D01*
X1141069Y202074D01*
X1143467Y200179D01*
X1145987Y198450D01*
X1148618Y196893D01*
X1151346Y195513D01*
X1154160Y194320D01*
X1157046Y193316D01*
X1159995Y192511D01*
X1162989Y191902D01*
X1166020Y191493D01*
G37*
G36*
X-27327Y346989D02*
G01*
X-24269Y346989D01*
X-21221Y347192D01*
X-18191Y347601D01*
X-15196Y348211D01*
X-12247Y349016D01*
X-9362Y350019D01*
X-6548Y351213D01*
X-3820Y352592D01*
X-1188Y354149D01*
X1330Y355879D01*
X3728Y357774D01*
X5996Y359824D01*
X8120Y362021D01*
X10093Y364355D01*
X11907Y366816D01*
X13550Y369392D01*
X15021Y372071D01*
X16306Y374845D01*
X17406Y377697D01*
X18310Y380616D01*
X19019Y383588D01*
X19527Y386603D01*
X19834Y389643D01*
X19936Y392699D01*
X19834Y395754D01*
X19527Y398795D01*
X19019Y401810D01*
X18310Y404782D01*
X17406Y407700D01*
X16306Y410552D01*
X15021Y413326D01*
X13550Y416006D01*
X11907Y418581D01*
X10093Y421043D01*
X8120Y423377D01*
X5996Y425574D01*
X3728Y427624D01*
X1330Y429519D01*
X-1188Y431248D01*
X-3820Y432805D01*
X-6548Y434185D01*
X-9362Y435378D01*
X-12247Y436382D01*
X-15196Y437187D01*
X-18191Y437796D01*
X-21221Y438205D01*
X-24269Y438409D01*
X-27327Y438409D01*
X-30375Y438205D01*
X-33406Y437796D01*
X-36400Y437187D01*
X-39349Y436382D01*
X-42235Y435378D01*
X-45049Y434185D01*
X-47777Y432805D01*
X-50408Y431248D01*
X-52928Y429519D01*
X-55326Y427624D01*
X-57594Y425574D01*
X-59717Y423377D01*
X-61691Y421043D01*
X-62915Y419381D01*
X-63294Y420601D01*
X-64394Y423453D01*
X-65679Y426227D01*
X-67149Y428906D01*
X-68793Y431482D01*
X-70606Y433943D01*
X-72580Y436278D01*
X-74703Y438475D01*
X-76972Y440524D01*
X-79369Y442419D01*
X-81889Y444149D01*
X-84521Y445706D01*
X-87249Y447085D01*
X-90063Y448279D01*
X-92948Y449282D01*
X-95897Y450088D01*
X-98892Y450697D01*
X-101922Y451106D01*
X-104970Y451309D01*
X-108028Y451309D01*
X-111076Y451106D01*
X-114106Y450697D01*
X-117101Y450088D01*
X-120050Y449282D01*
X-122936Y448279D01*
X-125750Y447085D01*
X-128478Y445706D01*
X-131109Y444149D01*
X-133629Y442419D01*
X-136027Y440524D01*
X-138295Y438475D01*
X-140418Y436278D01*
X-142392Y433943D01*
X-144205Y431482D01*
X-145849Y428906D01*
X-147320Y426227D01*
X-148605Y423453D01*
X-149705Y420601D01*
X-150609Y417682D01*
X-151236Y415053D01*
X-151472Y417395D01*
X-151980Y420410D01*
X-152689Y423382D01*
X-153593Y426300D01*
X-154693Y429153D01*
X-155978Y431927D01*
X-157449Y434606D01*
X-159092Y437182D01*
X-160906Y439643D01*
X-162880Y441977D01*
X-165003Y444174D01*
X-167271Y446224D01*
X-169669Y448119D01*
X-172189Y449849D01*
X-174820Y451406D01*
X-177548Y452785D01*
X-180362Y453979D01*
X-183248Y454982D01*
X-186197Y455787D01*
X-189191Y456397D01*
X-192222Y456806D01*
X-195270Y457009D01*
X-198328Y457009D01*
X-201376Y456806D01*
X-204406Y456397D01*
X-207401Y455787D01*
X-210350Y454982D01*
X-213235Y453979D01*
X-216049Y452785D01*
X-218777Y451406D01*
X-221409Y449849D01*
X-223928Y448119D01*
X-226326Y446224D01*
X-228594Y444174D01*
X-230718Y441977D01*
X-232691Y439643D01*
X-234505Y437182D01*
X-236148Y434606D01*
X-237619Y431927D01*
X-238904Y429153D01*
X-240004Y426300D01*
X-240908Y423382D01*
X-241617Y420410D01*
X-242125Y417395D01*
X-242432Y414355D01*
X-242534Y411299D01*
X-242432Y408244D01*
X-242125Y405203D01*
X-241617Y402188D01*
X-240908Y399216D01*
X-240004Y396298D01*
X-238904Y393446D01*
X-237619Y390672D01*
X-236148Y387992D01*
X-234505Y385417D01*
X-232691Y382955D01*
X-230718Y380621D01*
X-228594Y378424D01*
X-226326Y376374D01*
X-223928Y374479D01*
X-221409Y372750D01*
X-218777Y371193D01*
X-216049Y369813D01*
X-213235Y368620D01*
X-210350Y367616D01*
X-207401Y366811D01*
X-204406Y366201D01*
X-201376Y365793D01*
X-198328Y365589D01*
X-195270Y365589D01*
X-192222Y365793D01*
X-189191Y366201D01*
X-186197Y366811D01*
X-183248Y367616D01*
X-180362Y368620D01*
X-177548Y369813D01*
X-174820Y371193D01*
X-172189Y372750D01*
X-169669Y374479D01*
X-167271Y376374D01*
X-165003Y378424D01*
X-162880Y380621D01*
X-160906Y382955D01*
X-159092Y385417D01*
X-157449Y387992D01*
X-155978Y390672D01*
X-154693Y393446D01*
X-153593Y396298D01*
X-152689Y399216D01*
X-152062Y401845D01*
X-151825Y399503D01*
X-151317Y396488D01*
X-150609Y393517D01*
X-149705Y390598D01*
X-148605Y387746D01*
X-147320Y384972D01*
X-145849Y382292D01*
X-144205Y379717D01*
X-142392Y377256D01*
X-140418Y374921D01*
X-138295Y372724D01*
X-136027Y370674D01*
X-133629Y368780D01*
X-131109Y367050D01*
X-128478Y365493D01*
X-125750Y364114D01*
X-122936Y362920D01*
X-120050Y361916D01*
X-117101Y361111D01*
X-114106Y360502D01*
X-111076Y360093D01*
X-108028Y359890D01*
X-104970Y359890D01*
X-101922Y360093D01*
X-98892Y360502D01*
X-95897Y361111D01*
X-92948Y361916D01*
X-90063Y362920D01*
X-87249Y364114D01*
X-84521Y365493D01*
X-81889Y367050D01*
X-79369Y368780D01*
X-76972Y370674D01*
X-74703Y372724D01*
X-72580Y374921D01*
X-70606Y377256D01*
X-69382Y378917D01*
X-69004Y377697D01*
X-67904Y374845D01*
X-66619Y372071D01*
X-65148Y369392D01*
X-63505Y366816D01*
X-61691Y364355D01*
X-59717Y362021D01*
X-57594Y359824D01*
X-55326Y357774D01*
X-52928Y355879D01*
X-50408Y354149D01*
X-47777Y352592D01*
X-45049Y351213D01*
X-42235Y350019D01*
X-39349Y349016D01*
X-36400Y348211D01*
X-33406Y347601D01*
X-30375Y347192D01*
G37*
G36*
X704669Y355688D02*
G01*
X707727Y355688D01*
X710775Y355892D01*
X713806Y356301D01*
X716800Y356910D01*
X719749Y357715D01*
X722635Y358719D01*
X725449Y359912D01*
X728177Y361292D01*
X730808Y362849D01*
X733328Y364578D01*
X735726Y366473D01*
X737994Y368523D01*
X740117Y370720D01*
X742091Y373054D01*
X743905Y375516D01*
X745548Y378091D01*
X747019Y380771D01*
X748304Y383545D01*
X749404Y386397D01*
X750308Y389315D01*
X751017Y392287D01*
X751525Y395302D01*
X751832Y398343D01*
X751933Y401398D01*
X751832Y404454D01*
X751525Y407494D01*
X751017Y410509D01*
X750308Y413481D01*
X750222Y413758D01*
X751260Y413318D01*
X754146Y412315D01*
X757095Y411510D01*
X760089Y410900D01*
X763120Y410491D01*
X766168Y410288D01*
X769226Y410288D01*
X772274Y410491D01*
X775304Y410900D01*
X778299Y411510D01*
X781248Y412315D01*
X784133Y413318D01*
X786947Y414512D01*
X789058Y415579D01*
X788687Y414383D01*
X787979Y411411D01*
X787471Y408396D01*
X787163Y405356D01*
X787062Y402300D01*
X787163Y399244D01*
X787471Y396204D01*
X787979Y393189D01*
X788687Y390217D01*
X789592Y387299D01*
X790691Y384446D01*
X791977Y381673D01*
X793447Y378993D01*
X795091Y376417D01*
X796904Y373956D01*
X798878Y371622D01*
X801001Y369425D01*
X803269Y367375D01*
X805667Y365480D01*
X808187Y363750D01*
X810818Y362193D01*
X813546Y360814D01*
X816361Y359620D01*
X819246Y358617D01*
X822195Y357812D01*
X825190Y357202D01*
X828220Y356793D01*
X831268Y356590D01*
X834326Y356590D01*
X837374Y356793D01*
X840404Y357202D01*
X843399Y357812D01*
X846348Y358617D01*
X849233Y359620D01*
X852048Y360814D01*
X854776Y362193D01*
X857407Y363750D01*
X859927Y365480D01*
X862324Y367375D01*
X864593Y369425D01*
X866716Y371622D01*
X868690Y373956D01*
X870503Y376417D01*
X872147Y378993D01*
X873617Y381673D01*
X874902Y384446D01*
X876002Y387299D01*
X876907Y390217D01*
X877615Y393189D01*
X878123Y396204D01*
X878431Y399244D01*
X878532Y402300D01*
X878431Y405356D01*
X878123Y408396D01*
X877615Y411411D01*
X876907Y414383D01*
X876002Y417301D01*
X874902Y420154D01*
X873617Y422927D01*
X872147Y425607D01*
X870503Y428183D01*
X868690Y430644D01*
X866716Y432978D01*
X864593Y435175D01*
X862324Y437225D01*
X859927Y439120D01*
X857407Y440850D01*
X854776Y442407D01*
X852048Y443786D01*
X849233Y444980D01*
X846348Y445983D01*
X843399Y446788D01*
X840404Y447398D01*
X837374Y447807D01*
X834326Y448010D01*
X831268Y448010D01*
X828220Y447807D01*
X825190Y447398D01*
X822195Y446788D01*
X819246Y445983D01*
X816361Y444980D01*
X813546Y443786D01*
X811436Y442719D01*
X811806Y443915D01*
X812515Y446887D01*
X813023Y449902D01*
X813330Y452942D01*
X813432Y455998D01*
X813330Y459054D01*
X813023Y462094D01*
X812515Y465109D01*
X811806Y468081D01*
X810902Y470999D01*
X809802Y473852D01*
X808517Y476625D01*
X807046Y479305D01*
X805403Y481881D01*
X803589Y484342D01*
X801616Y486676D01*
X799492Y488873D01*
X797224Y490923D01*
X794826Y492818D01*
X792307Y494548D01*
X789675Y496105D01*
X786947Y497484D01*
X784133Y498678D01*
X781248Y499681D01*
X778299Y500486D01*
X775304Y501096D01*
X772274Y501505D01*
X769226Y501708D01*
X766168Y501708D01*
X763120Y501505D01*
X760089Y501096D01*
X757095Y500486D01*
X754146Y499681D01*
X751260Y498678D01*
X748446Y497484D01*
X745718Y496105D01*
X743087Y494548D01*
X740567Y492818D01*
X738169Y490923D01*
X735901Y488873D01*
X733778Y486676D01*
X731804Y484342D01*
X729990Y481881D01*
X728347Y479305D01*
X726876Y476625D01*
X725591Y473852D01*
X724491Y470999D01*
X723587Y468081D01*
X722878Y465109D01*
X722370Y462094D01*
X722063Y459054D01*
X721961Y455998D01*
X722063Y452942D01*
X722370Y449902D01*
X722878Y446887D01*
X723587Y443915D01*
X723673Y443638D01*
X722635Y444078D01*
X719749Y445081D01*
X716800Y445886D01*
X713806Y446496D01*
X710775Y446905D01*
X707727Y447108D01*
X704669Y447108D01*
X701621Y446905D01*
X698591Y446496D01*
X695596Y445886D01*
X692647Y445081D01*
X689762Y444078D01*
X686948Y442884D01*
X684220Y441505D01*
X681588Y439948D01*
X679068Y438218D01*
X676671Y436323D01*
X674403Y434273D01*
X672279Y432076D01*
X670306Y429742D01*
X668492Y427281D01*
X666849Y424705D01*
X665378Y422026D01*
X664093Y419252D01*
X662993Y416399D01*
X662089Y413481D01*
X661380Y410509D01*
X660872Y407494D01*
X660565Y404454D01*
X660463Y401398D01*
X660565Y398343D01*
X660872Y395302D01*
X661380Y392287D01*
X662089Y389315D01*
X662993Y386397D01*
X664093Y383545D01*
X665378Y380771D01*
X666849Y378091D01*
X668492Y375516D01*
X670306Y373054D01*
X672279Y370720D01*
X674403Y368523D01*
X676671Y366473D01*
X679068Y364578D01*
X681588Y362849D01*
X684220Y361292D01*
X686948Y359912D01*
X689762Y358719D01*
X692647Y357715D01*
X695596Y356910D01*
X698591Y356301D01*
X701621Y355892D01*
G37*
G36*
X-702995Y378919D02*
G01*
X-602995Y378919D01*
X-602183Y378942D01*
X-601372Y379008D01*
X-600570Y379117D01*
X-599770Y379270D01*
X-598982Y379465D01*
X-598205Y379704D01*
X-597443Y379984D01*
X-596696Y380306D01*
X-595970Y380667D01*
X-595261Y381066D01*
X-594578Y381505D01*
X-593918Y381977D01*
X-593285Y382488D01*
X-592678Y383029D01*
X-592104Y383603D01*
X-591563Y384210D01*
X-591052Y384843D01*
X-590580Y385503D01*
X-590141Y386186D01*
X-589742Y386895D01*
X-589381Y387621D01*
X-589059Y388368D01*
X-588779Y389130D01*
X-588540Y389907D01*
X-588345Y390695D01*
X-588192Y391495D01*
X-588083Y392297D01*
X-588017Y393108D01*
X-587994Y393920D01*
X-587994Y731857D01*
X-587441Y730422D01*
X-586155Y727649D01*
X-584685Y724969D01*
X-583041Y722393D01*
X-581228Y719932D01*
X-579254Y717598D01*
X-577131Y715401D01*
X-574862Y713351D01*
X-572465Y711456D01*
X-569945Y709726D01*
X-567314Y708169D01*
X-564586Y706790D01*
X-561771Y705596D01*
X-558886Y704593D01*
X-555937Y703788D01*
X-552942Y703178D01*
X-549912Y702769D01*
X-546864Y702566D01*
X-543806Y702566D01*
X-540758Y702769D01*
X-537728Y703178D01*
X-534733Y703788D01*
X-531784Y704593D01*
X-528899Y705596D01*
X-526084Y706790D01*
X-523356Y708169D01*
X-520725Y709726D01*
X-518205Y711456D01*
X-515807Y713351D01*
X-513539Y715401D01*
X-511416Y717598D01*
X-509442Y719932D01*
X-507629Y722393D01*
X-505985Y724969D01*
X-504515Y727649D01*
X-503229Y730422D01*
X-502130Y733275D01*
X-501225Y736193D01*
X-500517Y739165D01*
X-500009Y742180D01*
X-499701Y745220D01*
X-499600Y748276D01*
X-499701Y751331D01*
X-500009Y754372D01*
X-500517Y757387D01*
X-501225Y760359D01*
X-502130Y763277D01*
X-503229Y766130D01*
X-504515Y768903D01*
X-505985Y771583D01*
X-507629Y774158D01*
X-509442Y776620D01*
X-511416Y778954D01*
X-513539Y781151D01*
X-515807Y783201D01*
X-518205Y785096D01*
X-520725Y786825D01*
X-523356Y788382D01*
X-526084Y789762D01*
X-528899Y790955D01*
X-531784Y791959D01*
X-534733Y792764D01*
X-537728Y793374D01*
X-540758Y793783D01*
X-543806Y793986D01*
X-546864Y793986D01*
X-549912Y793783D01*
X-552942Y793374D01*
X-555937Y792764D01*
X-558886Y791959D01*
X-561771Y790955D01*
X-564586Y789762D01*
X-567314Y788382D01*
X-569945Y786825D01*
X-572465Y785096D01*
X-574862Y783201D01*
X-577131Y781151D01*
X-579254Y778954D01*
X-581228Y776620D01*
X-583041Y774158D01*
X-584685Y771583D01*
X-586155Y768903D01*
X-587441Y766130D01*
X-587994Y764694D01*
X-587994Y1093919D01*
X-588017Y1094732D01*
X-588083Y1095542D01*
X-588192Y1096345D01*
X-588345Y1097145D01*
X-588540Y1097932D01*
X-588779Y1098710D01*
X-589059Y1099472D01*
X-589381Y1100218D01*
X-589742Y1100945D01*
X-590141Y1101653D01*
X-590580Y1102337D01*
X-591052Y1102997D01*
X-591563Y1103630D01*
X-592104Y1104237D01*
X-592678Y1104811D01*
X-593285Y1105352D01*
X-593918Y1105862D01*
X-594578Y1106335D01*
X-595261Y1106774D01*
X-595970Y1107173D01*
X-596696Y1107533D01*
X-597443Y1107856D01*
X-598205Y1108135D01*
X-598982Y1108374D01*
X-599770Y1108570D01*
X-600570Y1108722D01*
X-601372Y1108831D01*
X-602183Y1108897D01*
X-602995Y1108920D01*
X-702995Y1108920D01*
X-703808Y1108897D01*
X-704618Y1108831D01*
X-705421Y1108722D01*
X-706221Y1108570D01*
X-707009Y1108374D01*
X-707786Y1108135D01*
X-708548Y1107856D01*
X-709295Y1107533D01*
X-710021Y1107173D01*
X-710730Y1106774D01*
X-711413Y1106335D01*
X-712073Y1105862D01*
X-712706Y1105352D01*
X-713313Y1104811D01*
X-713887Y1104237D01*
X-714428Y1103630D01*
X-714938Y1102997D01*
X-715411Y1102337D01*
X-715850Y1101653D01*
X-716249Y1100945D01*
X-716610Y1100218D01*
X-716932Y1099472D01*
X-717212Y1098710D01*
X-717450Y1097932D01*
X-717646Y1097145D01*
X-717798Y1096345D01*
X-717908Y1095542D01*
X-717974Y1094732D01*
X-717997Y1093919D01*
X-717997Y393920D01*
X-717974Y393108D01*
X-717908Y392297D01*
X-717798Y391495D01*
X-717646Y390695D01*
X-717450Y389907D01*
X-717212Y389130D01*
X-716932Y388368D01*
X-716610Y387621D01*
X-716249Y386895D01*
X-715850Y386186D01*
X-715411Y385503D01*
X-714938Y384843D01*
X-714428Y384210D01*
X-713887Y383603D01*
X-713313Y383029D01*
X-712706Y382488D01*
X-712073Y381977D01*
X-711413Y381505D01*
X-710730Y381066D01*
X-710021Y380667D01*
X-709295Y380306D01*
X-708548Y379984D01*
X-707786Y379704D01*
X-707009Y379465D01*
X-706221Y379270D01*
X-705421Y379117D01*
X-704618Y379008D01*
X-703808Y378942D01*
G37*
G36*
X-911862Y388114D02*
G01*
X-908804Y388114D01*
X-905756Y388317D01*
X-902726Y388726D01*
X-899731Y389336D01*
X-896782Y390141D01*
X-893897Y391144D01*
X-891082Y392338D01*
X-888354Y393717D01*
X-885723Y395274D01*
X-883203Y397004D01*
X-880805Y398899D01*
X-878537Y400949D01*
X-876414Y403146D01*
X-874440Y405480D01*
X-872627Y407941D01*
X-870983Y410517D01*
X-869513Y413197D01*
X-868227Y415970D01*
X-867128Y418823D01*
X-866223Y421741D01*
X-865515Y424713D01*
X-865007Y427728D01*
X-864699Y430768D01*
X-864598Y433824D01*
X-864699Y436880D01*
X-865007Y439920D01*
X-865515Y442935D01*
X-866223Y445907D01*
X-867128Y448825D01*
X-868227Y451678D01*
X-869513Y454451D01*
X-870983Y457131D01*
X-872627Y459706D01*
X-874440Y462168D01*
X-876414Y464502D01*
X-878537Y466699D01*
X-880805Y468749D01*
X-883203Y470644D01*
X-885723Y472373D01*
X-888354Y473930D01*
X-891082Y475310D01*
X-893897Y476504D01*
X-896782Y477507D01*
X-899731Y478312D01*
X-902726Y478922D01*
X-905756Y479331D01*
X-908804Y479534D01*
X-911862Y479534D01*
X-914910Y479331D01*
X-917940Y478922D01*
X-920935Y478312D01*
X-923884Y477507D01*
X-926769Y476504D01*
X-929584Y475310D01*
X-932312Y473930D01*
X-934943Y472373D01*
X-937463Y470644D01*
X-939860Y468749D01*
X-942129Y466699D01*
X-944252Y464502D01*
X-946226Y462168D01*
X-948039Y459706D01*
X-949683Y457131D01*
X-951153Y454451D01*
X-952439Y451678D01*
X-953538Y448825D01*
X-954443Y445907D01*
X-955151Y442935D01*
X-955659Y439920D01*
X-955967Y436880D01*
X-956068Y433824D01*
X-955967Y430768D01*
X-955659Y427728D01*
X-955151Y424713D01*
X-954443Y421741D01*
X-953538Y418823D01*
X-952439Y415970D01*
X-951153Y413197D01*
X-949683Y410517D01*
X-948039Y407941D01*
X-946226Y405480D01*
X-944252Y403146D01*
X-942129Y400949D01*
X-939860Y398899D01*
X-937463Y397004D01*
X-934943Y395274D01*
X-932312Y393717D01*
X-929584Y392338D01*
X-926769Y391144D01*
X-923884Y390141D01*
X-920935Y389336D01*
X-917940Y388726D01*
X-914910Y388317D01*
G37*
G36*
X111757Y424436D02*
G01*
X114815Y424436D01*
X117863Y424639D01*
X120893Y425048D01*
X123888Y425658D01*
X126837Y426463D01*
X129722Y427466D01*
X132537Y428660D01*
X135265Y430039D01*
X137896Y431596D01*
X140416Y433326D01*
X142814Y435221D01*
X145082Y437271D01*
X147205Y439468D01*
X149179Y441802D01*
X150992Y444263D01*
X152636Y446839D01*
X154106Y449519D01*
X155392Y452292D01*
X156491Y455145D01*
X157396Y458063D01*
X158104Y461035D01*
X158612Y464050D01*
X158920Y467090D01*
X159021Y470146D01*
X158920Y473202D01*
X158612Y476242D01*
X158104Y479257D01*
X157396Y482229D01*
X156491Y485147D01*
X155392Y488000D01*
X154106Y490773D01*
X152636Y493453D01*
X150992Y496028D01*
X149179Y498490D01*
X147205Y500824D01*
X145082Y503021D01*
X142814Y505071D01*
X140416Y506966D01*
X137896Y508695D01*
X135265Y510252D01*
X132537Y511632D01*
X129722Y512826D01*
X126837Y513829D01*
X123888Y514634D01*
X120893Y515244D01*
X117863Y515653D01*
X114815Y515856D01*
X111757Y515856D01*
X108709Y515653D01*
X105679Y515244D01*
X102684Y514634D01*
X99735Y513829D01*
X96850Y512826D01*
X94035Y511632D01*
X91307Y510252D01*
X88676Y508695D01*
X86156Y506966D01*
X83759Y505071D01*
X81490Y503021D01*
X79367Y500824D01*
X77393Y498490D01*
X75580Y496028D01*
X73936Y493453D01*
X72466Y490773D01*
X71180Y488000D01*
X70081Y485147D01*
X69176Y482229D01*
X68468Y479257D01*
X67960Y476242D01*
X67652Y473202D01*
X67551Y470146D01*
X67652Y467090D01*
X67960Y464050D01*
X68468Y461035D01*
X69176Y458063D01*
X70081Y455145D01*
X71180Y452292D01*
X72466Y449519D01*
X73936Y446839D01*
X75580Y444263D01*
X77393Y441802D01*
X79367Y439468D01*
X81490Y437271D01*
X83759Y435221D01*
X86156Y433326D01*
X88676Y431596D01*
X91307Y430039D01*
X94035Y428660D01*
X96850Y427466D01*
X99735Y426463D01*
X102684Y425658D01*
X105679Y425048D01*
X108709Y424639D01*
G37*
G36*
X-528017Y461596D02*
G01*
X-524959Y461596D01*
X-521911Y461799D01*
X-518881Y462208D01*
X-515886Y462818D01*
X-512937Y463623D01*
X-510052Y464626D01*
X-507238Y465820D01*
X-504510Y467199D01*
X-501878Y468756D01*
X-499358Y470486D01*
X-496961Y472381D01*
X-494692Y474431D01*
X-492569Y476628D01*
X-490595Y478962D01*
X-488782Y481423D01*
X-487138Y483999D01*
X-485668Y486679D01*
X-484383Y489452D01*
X-483283Y492305D01*
X-482379Y495223D01*
X-481670Y498195D01*
X-481162Y501210D01*
X-480855Y504250D01*
X-480753Y507306D01*
X-480855Y510362D01*
X-481162Y513402D01*
X-481670Y516417D01*
X-482379Y519389D01*
X-483283Y522307D01*
X-484383Y525160D01*
X-485668Y527933D01*
X-487138Y530613D01*
X-488782Y533189D01*
X-490595Y535650D01*
X-492569Y537984D01*
X-494692Y540181D01*
X-496961Y542231D01*
X-499358Y544126D01*
X-501878Y545856D01*
X-504510Y547413D01*
X-507238Y548792D01*
X-510052Y549986D01*
X-512937Y550989D01*
X-515886Y551794D01*
X-518881Y552404D01*
X-521911Y552813D01*
X-524959Y553016D01*
X-528017Y553016D01*
X-531065Y552813D01*
X-534095Y552404D01*
X-537090Y551794D01*
X-540039Y550989D01*
X-542925Y549986D01*
X-545739Y548792D01*
X-548467Y547413D01*
X-551098Y545856D01*
X-553618Y544126D01*
X-556016Y542231D01*
X-558284Y540181D01*
X-560407Y537984D01*
X-562381Y535650D01*
X-564194Y533189D01*
X-565838Y530613D01*
X-567309Y527933D01*
X-568594Y525160D01*
X-569694Y522307D01*
X-570598Y519389D01*
X-571306Y516417D01*
X-571814Y513402D01*
X-572122Y510362D01*
X-572223Y507306D01*
X-572122Y504250D01*
X-571814Y501210D01*
X-571306Y498195D01*
X-570598Y495223D01*
X-569694Y492305D01*
X-568594Y489452D01*
X-567309Y486679D01*
X-565838Y483999D01*
X-564194Y481423D01*
X-562381Y478962D01*
X-560407Y476628D01*
X-558284Y474431D01*
X-556016Y472381D01*
X-553618Y470486D01*
X-551098Y468756D01*
X-548467Y467199D01*
X-545739Y465820D01*
X-542925Y464626D01*
X-540039Y463623D01*
X-537090Y462818D01*
X-534095Y462208D01*
X-531065Y461799D01*
G37*
G36*
X1643377Y462790D02*
G01*
X1646435Y462790D01*
X1649483Y462993D01*
X1652513Y463402D01*
X1655508Y464012D01*
X1658457Y464817D01*
X1661342Y465820D01*
X1664157Y467014D01*
X1666885Y468393D01*
X1669516Y469950D01*
X1672036Y471680D01*
X1674434Y473575D01*
X1676702Y475625D01*
X1678825Y477822D01*
X1680799Y480156D01*
X1682612Y482617D01*
X1684256Y485193D01*
X1685726Y487873D01*
X1687012Y490646D01*
X1688111Y493499D01*
X1689016Y496417D01*
X1689724Y499389D01*
X1690232Y502404D01*
X1690540Y505444D01*
X1690641Y508500D01*
X1690540Y511555D01*
X1690232Y514596D01*
X1689724Y517611D01*
X1689016Y520583D01*
X1688111Y523501D01*
X1687012Y526354D01*
X1685726Y529127D01*
X1684256Y531807D01*
X1682612Y534382D01*
X1680799Y536844D01*
X1678825Y539178D01*
X1676702Y541375D01*
X1674434Y543425D01*
X1672036Y545320D01*
X1669516Y547049D01*
X1666885Y548606D01*
X1664157Y549986D01*
X1661342Y551180D01*
X1658457Y552183D01*
X1655508Y552988D01*
X1652513Y553598D01*
X1649483Y554007D01*
X1646435Y554210D01*
X1643377Y554210D01*
X1640329Y554007D01*
X1637299Y553598D01*
X1634304Y552988D01*
X1631355Y552183D01*
X1628470Y551180D01*
X1625655Y549986D01*
X1622927Y548606D01*
X1620296Y547049D01*
X1617776Y545320D01*
X1615379Y543425D01*
X1613110Y541375D01*
X1610987Y539178D01*
X1609013Y536844D01*
X1607200Y534382D01*
X1605556Y531807D01*
X1604086Y529127D01*
X1602800Y526354D01*
X1601701Y523501D01*
X1600796Y520583D01*
X1600088Y517611D01*
X1599580Y514596D01*
X1599272Y511555D01*
X1599171Y508500D01*
X1599272Y505444D01*
X1599580Y502404D01*
X1600088Y499389D01*
X1600796Y496417D01*
X1601701Y493499D01*
X1602800Y490646D01*
X1604086Y487873D01*
X1605556Y485193D01*
X1607200Y482617D01*
X1609013Y480156D01*
X1610987Y477822D01*
X1613110Y475625D01*
X1615379Y473575D01*
X1617776Y471680D01*
X1620296Y469950D01*
X1622927Y468393D01*
X1625655Y467014D01*
X1628470Y465820D01*
X1631355Y464817D01*
X1634304Y464012D01*
X1637299Y463402D01*
X1640329Y462993D01*
G37*
G36*
X1805378Y466092D02*
G01*
X1808436Y466092D01*
X1811484Y466295D01*
X1814515Y466704D01*
X1817509Y467314D01*
X1820458Y468119D01*
X1823344Y469122D01*
X1826158Y470316D01*
X1828886Y471695D01*
X1831517Y473252D01*
X1834037Y474982D01*
X1836435Y476877D01*
X1838703Y478927D01*
X1840826Y481124D01*
X1842800Y483458D01*
X1844614Y485919D01*
X1846257Y488495D01*
X1847728Y491175D01*
X1849013Y493948D01*
X1850113Y496801D01*
X1851017Y499719D01*
X1851726Y502691D01*
X1852234Y505706D01*
X1852541Y508746D01*
X1852642Y511802D01*
X1852541Y514857D01*
X1852234Y517898D01*
X1851726Y520913D01*
X1851017Y523885D01*
X1850113Y526803D01*
X1849013Y529656D01*
X1847728Y532429D01*
X1846257Y535109D01*
X1844614Y537684D01*
X1842800Y540146D01*
X1840826Y542480D01*
X1838703Y544677D01*
X1836435Y546727D01*
X1834037Y548622D01*
X1831517Y550351D01*
X1828886Y551908D01*
X1826158Y553288D01*
X1823344Y554481D01*
X1820458Y555485D01*
X1817509Y556290D01*
X1814515Y556900D01*
X1811484Y557309D01*
X1808436Y557512D01*
X1805378Y557512D01*
X1802330Y557309D01*
X1799300Y556900D01*
X1796305Y556290D01*
X1793356Y555485D01*
X1790471Y554481D01*
X1787657Y553288D01*
X1784929Y551908D01*
X1782297Y550351D01*
X1779777Y548622D01*
X1777380Y546727D01*
X1775112Y544677D01*
X1772988Y542480D01*
X1771015Y540146D01*
X1769201Y537684D01*
X1767558Y535109D01*
X1766087Y532429D01*
X1764802Y529656D01*
X1763702Y526803D01*
X1762798Y523885D01*
X1762089Y520913D01*
X1761581Y517898D01*
X1761274Y514857D01*
X1761172Y511802D01*
X1761274Y508746D01*
X1761581Y505706D01*
X1762089Y502691D01*
X1762798Y499719D01*
X1763702Y496801D01*
X1764802Y493948D01*
X1766087Y491175D01*
X1767558Y488495D01*
X1769201Y485919D01*
X1771015Y483458D01*
X1772988Y481124D01*
X1775112Y478927D01*
X1777380Y476877D01*
X1779777Y474982D01*
X1782297Y473252D01*
X1784929Y471695D01*
X1787657Y470316D01*
X1790471Y469122D01*
X1793356Y468119D01*
X1796305Y467314D01*
X1799300Y466704D01*
X1802330Y466295D01*
G37*
G36*
X829459Y483796D02*
G01*
X832518Y483796D01*
X835566Y483999D01*
X838596Y484408D01*
X841590Y485018D01*
X844539Y485823D01*
X847425Y486826D01*
X850239Y488020D01*
X852967Y489399D01*
X855599Y490956D01*
X858118Y492686D01*
X860516Y494581D01*
X862784Y496630D01*
X864908Y498828D01*
X866881Y501162D01*
X868695Y503623D01*
X870338Y506199D01*
X871809Y508878D01*
X873094Y511652D01*
X874194Y514504D01*
X875098Y517423D01*
X875807Y520395D01*
X876315Y523410D01*
X876622Y526450D01*
X876724Y529506D01*
X876622Y532561D01*
X876315Y535602D01*
X875807Y538617D01*
X875098Y541588D01*
X874194Y544507D01*
X873094Y547359D01*
X871809Y550133D01*
X870338Y552813D01*
X868695Y555388D01*
X866881Y557850D01*
X864908Y560184D01*
X862784Y562381D01*
X860516Y564431D01*
X858118Y566326D01*
X855599Y568055D01*
X852967Y569612D01*
X850239Y570992D01*
X847425Y572185D01*
X844539Y573189D01*
X841590Y573994D01*
X838596Y574603D01*
X835566Y575012D01*
X832518Y575216D01*
X829459Y575216D01*
X826411Y575012D01*
X823381Y574603D01*
X820386Y573994D01*
X817438Y573189D01*
X814552Y572185D01*
X811738Y570992D01*
X809010Y569612D01*
X806378Y568055D01*
X803859Y566326D01*
X801461Y564431D01*
X799193Y562381D01*
X797069Y560184D01*
X795096Y557850D01*
X793282Y555388D01*
X791639Y552813D01*
X790168Y550133D01*
X788883Y547359D01*
X787783Y544507D01*
X786879Y541588D01*
X786170Y538617D01*
X785662Y535602D01*
X785355Y532561D01*
X785253Y529506D01*
X785355Y526450D01*
X785662Y523410D01*
X786170Y520395D01*
X786879Y517423D01*
X787783Y514504D01*
X788883Y511652D01*
X790168Y508878D01*
X791639Y506199D01*
X793282Y503623D01*
X795096Y501162D01*
X797069Y498828D01*
X799193Y496630D01*
X801461Y494581D01*
X803859Y492686D01*
X806378Y490956D01*
X809010Y489399D01*
X811738Y488020D01*
X814552Y486826D01*
X817438Y485823D01*
X820386Y485018D01*
X823381Y484408D01*
X826411Y483999D01*
G37*
G36*
X2306673Y497893D02*
G01*
X2309731Y497893D01*
X2312779Y498096D01*
X2315809Y498505D01*
X2318804Y499115D01*
X2321753Y499920D01*
X2324638Y500923D01*
X2327452Y502117D01*
X2330180Y503496D01*
X2332812Y505053D01*
X2335331Y506783D01*
X2337729Y508678D01*
X2339997Y510727D01*
X2342121Y512925D01*
X2344094Y515259D01*
X2345908Y517720D01*
X2347551Y520296D01*
X2349022Y522975D01*
X2350307Y525749D01*
X2351407Y528601D01*
X2352311Y531520D01*
X2353020Y534492D01*
X2353528Y537507D01*
X2353835Y540547D01*
X2353937Y543603D01*
X2353835Y546658D01*
X2353528Y549699D01*
X2353020Y552714D01*
X2352311Y555685D01*
X2351407Y558604D01*
X2350307Y561456D01*
X2349022Y564230D01*
X2347551Y566910D01*
X2345908Y569485D01*
X2344094Y571947D01*
X2342121Y574281D01*
X2339997Y576478D01*
X2337729Y578528D01*
X2335331Y580423D01*
X2332812Y582152D01*
X2330180Y583709D01*
X2327452Y585088D01*
X2324638Y586282D01*
X2321753Y587286D01*
X2318804Y588091D01*
X2315809Y588700D01*
X2312779Y589109D01*
X2309731Y589313D01*
X2306673Y589313D01*
X2303625Y589109D01*
X2300594Y588700D01*
X2297600Y588091D01*
X2294651Y587286D01*
X2291765Y586282D01*
X2288951Y585088D01*
X2286223Y583709D01*
X2283592Y582152D01*
X2281072Y580423D01*
X2278674Y578528D01*
X2276406Y576478D01*
X2274282Y574281D01*
X2272309Y571947D01*
X2270495Y569485D01*
X2268852Y566910D01*
X2267381Y564230D01*
X2266096Y561456D01*
X2264996Y558604D01*
X2264092Y555685D01*
X2263383Y552714D01*
X2262875Y549699D01*
X2262568Y546658D01*
X2262466Y543603D01*
X2262568Y540547D01*
X2262875Y537507D01*
X2263383Y534492D01*
X2264092Y531520D01*
X2264996Y528601D01*
X2266096Y525749D01*
X2267381Y522975D01*
X2268852Y520296D01*
X2270495Y517720D01*
X2272309Y515259D01*
X2274282Y512925D01*
X2276406Y510727D01*
X2278674Y508678D01*
X2281072Y506783D01*
X2283592Y505053D01*
X2286223Y503496D01*
X2288951Y502117D01*
X2291765Y500923D01*
X2294651Y499920D01*
X2297600Y499115D01*
X2300594Y498505D01*
X2303625Y498096D01*
G37*
G36*
X45869Y504789D02*
G01*
X48928Y504789D01*
X51976Y504992D01*
X55006Y505401D01*
X58000Y506011D01*
X60949Y506816D01*
X63835Y507819D01*
X66649Y509013D01*
X69377Y510392D01*
X72009Y511949D01*
X74528Y513679D01*
X76926Y515574D01*
X79194Y517624D01*
X81318Y519821D01*
X83291Y522155D01*
X85105Y524616D01*
X86748Y527192D01*
X88219Y529871D01*
X89504Y532645D01*
X90604Y535498D01*
X91508Y538416D01*
X92217Y541388D01*
X92725Y544403D01*
X93032Y547443D01*
X93134Y550499D01*
X93032Y553554D01*
X92725Y556595D01*
X92217Y559610D01*
X91508Y562582D01*
X90604Y565500D01*
X89504Y568352D01*
X88219Y571126D01*
X86748Y573806D01*
X85105Y576381D01*
X83291Y578843D01*
X81318Y581177D01*
X79194Y583374D01*
X76926Y585424D01*
X74528Y587319D01*
X72009Y589048D01*
X69377Y590605D01*
X66649Y591985D01*
X63835Y593178D01*
X60949Y594182D01*
X58000Y594987D01*
X55006Y595596D01*
X51976Y596005D01*
X48928Y596209D01*
X45869Y596209D01*
X42821Y596005D01*
X39791Y595596D01*
X36796Y594987D01*
X33848Y594182D01*
X30962Y593178D01*
X28148Y591985D01*
X25420Y590605D01*
X22788Y589048D01*
X20269Y587319D01*
X17871Y585424D01*
X15603Y583374D01*
X13479Y581177D01*
X11506Y578843D01*
X9692Y576381D01*
X8049Y573806D01*
X6578Y571126D01*
X5293Y568352D01*
X4193Y565500D01*
X3289Y562582D01*
X2580Y559610D01*
X2072Y556595D01*
X1765Y553554D01*
X1663Y550499D01*
X1765Y547443D01*
X2072Y544403D01*
X2580Y541388D01*
X3289Y538416D01*
X4193Y535498D01*
X5293Y532645D01*
X6578Y529871D01*
X8049Y527192D01*
X9692Y524616D01*
X11506Y522155D01*
X13479Y519821D01*
X15603Y517624D01*
X17871Y515574D01*
X20269Y513679D01*
X22788Y511949D01*
X25420Y510392D01*
X28148Y509013D01*
X30962Y507819D01*
X33848Y506816D01*
X36796Y506011D01*
X39791Y505401D01*
X42821Y504992D01*
G37*
G36*
X578660Y505691D02*
G01*
X581718Y505691D01*
X584766Y505894D01*
X587796Y506303D01*
X590791Y506912D01*
X593740Y507718D01*
X596625Y508721D01*
X599440Y509915D01*
X602167Y511294D01*
X604799Y512851D01*
X607319Y514581D01*
X609716Y516475D01*
X611985Y518525D01*
X614108Y520722D01*
X616082Y523057D01*
X617895Y525518D01*
X619539Y528093D01*
X621009Y530773D01*
X622294Y533547D01*
X623394Y536399D01*
X624298Y539318D01*
X625007Y542289D01*
X625515Y545304D01*
X625822Y548345D01*
X625924Y551400D01*
X625822Y554456D01*
X625515Y557496D01*
X625007Y560511D01*
X624298Y563483D01*
X623394Y566402D01*
X622294Y569254D01*
X621009Y572028D01*
X619539Y574708D01*
X617895Y577283D01*
X616082Y579744D01*
X614108Y582079D01*
X611985Y584276D01*
X609716Y586325D01*
X607319Y588220D01*
X604799Y589950D01*
X602167Y591507D01*
X599440Y592886D01*
X596625Y594080D01*
X593740Y595083D01*
X590791Y595889D01*
X587796Y596498D01*
X584766Y596907D01*
X581718Y597110D01*
X578660Y597110D01*
X575612Y596907D01*
X572582Y596498D01*
X569587Y595889D01*
X566638Y595083D01*
X563752Y594080D01*
X560938Y592886D01*
X558210Y591507D01*
X555579Y589950D01*
X553059Y588220D01*
X550661Y586325D01*
X548393Y584276D01*
X546270Y582079D01*
X544296Y579744D01*
X542483Y577283D01*
X540839Y574708D01*
X539368Y572028D01*
X538083Y569254D01*
X536983Y566402D01*
X536079Y563483D01*
X535371Y560511D01*
X534863Y557496D01*
X534555Y554456D01*
X534454Y551400D01*
X534555Y548345D01*
X534863Y545304D01*
X535371Y542289D01*
X536079Y539318D01*
X536983Y536399D01*
X538083Y533547D01*
X539368Y530773D01*
X540839Y528093D01*
X542483Y525518D01*
X544296Y523057D01*
X546270Y520722D01*
X548393Y518525D01*
X550661Y516475D01*
X553059Y514581D01*
X555579Y512851D01*
X558210Y511294D01*
X560938Y509915D01*
X563752Y508721D01*
X566638Y507718D01*
X569587Y506912D01*
X572582Y506303D01*
X575612Y505894D01*
G37*
G36*
X1231160Y508078D02*
G01*
X1234219Y508078D01*
X1237267Y508281D01*
X1240297Y508690D01*
X1243291Y509300D01*
X1246240Y510105D01*
X1249126Y511108D01*
X1251940Y512302D01*
X1254668Y513681D01*
X1257300Y515238D01*
X1259819Y516968D01*
X1262217Y518863D01*
X1264485Y520913D01*
X1266609Y523110D01*
X1268582Y525444D01*
X1270396Y527905D01*
X1272039Y530481D01*
X1273510Y533161D01*
X1274795Y535934D01*
X1275895Y538787D01*
X1276799Y541705D01*
X1277508Y544677D01*
X1278016Y547692D01*
X1278323Y550732D01*
X1278425Y553788D01*
X1278323Y556844D01*
X1278016Y559884D01*
X1277508Y562899D01*
X1276799Y565871D01*
X1275895Y568789D01*
X1274795Y571642D01*
X1273510Y574415D01*
X1272039Y577095D01*
X1270396Y579671D01*
X1268582Y582132D01*
X1266609Y584466D01*
X1264485Y586663D01*
X1262217Y588713D01*
X1259819Y590608D01*
X1257300Y592338D01*
X1254668Y593895D01*
X1251940Y595274D01*
X1249126Y596468D01*
X1246240Y597471D01*
X1243291Y598276D01*
X1240297Y598886D01*
X1237267Y599295D01*
X1234219Y599498D01*
X1231160Y599498D01*
X1228112Y599295D01*
X1225082Y598886D01*
X1222087Y598276D01*
X1219139Y597471D01*
X1216253Y596468D01*
X1213439Y595274D01*
X1210711Y593895D01*
X1208079Y592338D01*
X1205560Y590608D01*
X1203162Y588713D01*
X1200894Y586663D01*
X1198770Y584466D01*
X1196797Y582132D01*
X1194983Y579671D01*
X1193340Y577095D01*
X1191869Y574415D01*
X1190584Y571642D01*
X1189484Y568789D01*
X1188580Y565871D01*
X1187871Y562899D01*
X1187363Y559884D01*
X1187056Y556844D01*
X1186954Y553788D01*
X1187056Y550732D01*
X1187363Y547692D01*
X1187871Y544677D01*
X1188580Y541705D01*
X1189484Y538787D01*
X1190584Y535934D01*
X1191869Y533161D01*
X1193340Y530481D01*
X1194983Y527905D01*
X1196797Y525444D01*
X1198770Y523110D01*
X1200894Y520913D01*
X1203162Y518863D01*
X1205560Y516968D01*
X1208079Y515238D01*
X1210711Y513681D01*
X1213439Y512302D01*
X1216253Y511108D01*
X1219139Y510105D01*
X1222087Y509300D01*
X1225082Y508690D01*
X1228112Y508281D01*
G37*
G36*
X-309120Y543562D02*
G01*
X-306062Y543562D01*
X-303014Y543765D01*
X-299984Y544174D01*
X-296989Y544784D01*
X-294040Y545589D01*
X-291155Y546592D01*
X-288340Y547786D01*
X-285612Y549165D01*
X-282981Y550722D01*
X-280461Y552452D01*
X-278063Y554347D01*
X-275795Y556397D01*
X-273672Y558594D01*
X-271698Y560928D01*
X-269885Y563389D01*
X-268241Y565965D01*
X-266771Y568645D01*
X-265485Y571418D01*
X-264386Y574271D01*
X-263481Y577189D01*
X-262775Y580153D01*
X-261896Y577319D01*
X-260797Y574466D01*
X-259511Y571693D01*
X-258041Y569013D01*
X-256397Y566437D01*
X-254584Y563976D01*
X-252610Y561642D01*
X-250487Y559445D01*
X-248218Y557395D01*
X-245821Y555500D01*
X-243301Y553770D01*
X-240670Y552213D01*
X-237942Y550834D01*
X-235127Y549640D01*
X-232242Y548637D01*
X-229293Y547832D01*
X-226298Y547222D01*
X-223268Y546813D01*
X-220220Y546610D01*
X-217162Y546610D01*
X-214114Y546813D01*
X-211084Y547222D01*
X-208089Y547832D01*
X-205140Y548637D01*
X-202255Y549640D01*
X-199440Y550834D01*
X-196712Y552213D01*
X-194081Y553770D01*
X-191561Y555500D01*
X-189163Y557395D01*
X-186895Y559445D01*
X-184772Y561642D01*
X-182798Y563976D01*
X-180985Y566437D01*
X-179341Y569013D01*
X-177871Y571693D01*
X-176585Y574466D01*
X-175486Y577319D01*
X-174581Y580237D01*
X-173873Y583209D01*
X-173365Y586224D01*
X-173057Y589264D01*
X-172956Y592320D01*
X-173057Y595376D01*
X-173365Y598416D01*
X-173873Y601431D01*
X-174581Y604403D01*
X-175486Y607321D01*
X-176585Y610174D01*
X-177871Y612947D01*
X-179341Y615627D01*
X-180985Y618202D01*
X-182798Y620664D01*
X-184772Y622998D01*
X-186895Y625195D01*
X-189163Y627245D01*
X-191561Y629140D01*
X-194081Y630869D01*
X-196712Y632426D01*
X-199440Y633806D01*
X-202255Y635000D01*
X-205140Y636003D01*
X-208089Y636808D01*
X-211084Y637418D01*
X-214114Y637827D01*
X-217162Y638030D01*
X-220220Y638030D01*
X-223268Y637827D01*
X-226298Y637418D01*
X-229293Y636808D01*
X-232242Y636003D01*
X-235127Y635000D01*
X-237942Y633806D01*
X-240670Y632426D01*
X-243301Y630869D01*
X-245821Y629140D01*
X-248218Y627245D01*
X-250487Y625195D01*
X-252610Y622998D01*
X-254584Y620664D01*
X-256397Y618202D01*
X-258041Y615627D01*
X-259511Y612947D01*
X-260797Y610174D01*
X-261896Y607321D01*
X-262801Y604403D01*
X-263507Y601438D01*
X-264386Y604273D01*
X-265485Y607126D01*
X-266771Y609899D01*
X-268241Y612579D01*
X-269885Y615154D01*
X-271698Y617616D01*
X-273672Y619950D01*
X-275795Y622147D01*
X-278063Y624197D01*
X-280461Y626092D01*
X-282981Y627821D01*
X-285612Y629378D01*
X-288340Y630758D01*
X-291155Y631952D01*
X-294040Y632955D01*
X-296989Y633760D01*
X-299984Y634370D01*
X-303014Y634779D01*
X-306062Y634982D01*
X-309120Y634982D01*
X-312168Y634779D01*
X-315198Y634370D01*
X-318193Y633760D01*
X-321142Y632955D01*
X-324027Y631952D01*
X-326842Y630758D01*
X-329570Y629378D01*
X-332201Y627821D01*
X-334721Y626092D01*
X-337118Y624197D01*
X-339387Y622147D01*
X-341510Y619950D01*
X-343484Y617616D01*
X-345297Y615154D01*
X-346941Y612579D01*
X-348411Y609899D01*
X-349697Y607126D01*
X-350796Y604273D01*
X-351701Y601355D01*
X-352409Y598383D01*
X-352917Y595368D01*
X-353225Y592328D01*
X-353326Y589272D01*
X-353225Y586216D01*
X-352917Y583176D01*
X-352409Y580161D01*
X-351701Y577189D01*
X-350796Y574271D01*
X-349697Y571418D01*
X-348411Y568645D01*
X-346941Y565965D01*
X-345297Y563389D01*
X-343484Y560928D01*
X-341510Y558594D01*
X-339387Y556397D01*
X-337118Y554347D01*
X-334721Y552452D01*
X-332201Y550722D01*
X-329570Y549165D01*
X-326842Y547786D01*
X-324027Y546592D01*
X-321142Y545589D01*
X-318193Y544784D01*
X-315198Y544174D01*
X-312168Y543765D01*
G37*
G36*
X1929254Y568784D02*
G01*
X1932312Y568784D01*
X1935360Y568987D01*
X1938390Y569396D01*
X1941385Y570006D01*
X1944334Y570811D01*
X1947219Y571814D01*
X1950034Y573008D01*
X1952762Y574387D01*
X1955393Y575945D01*
X1957913Y577674D01*
X1960311Y579569D01*
X1962579Y581619D01*
X1964702Y583816D01*
X1966676Y586150D01*
X1968489Y588611D01*
X1970133Y591187D01*
X1971603Y593867D01*
X1972889Y596640D01*
X1973988Y599493D01*
X1974893Y602411D01*
X1975601Y605383D01*
X1976109Y608398D01*
X1976417Y611438D01*
X1976518Y614494D01*
X1976417Y617550D01*
X1976109Y620590D01*
X1975601Y623605D01*
X1974893Y626577D01*
X1973988Y629495D01*
X1972889Y632348D01*
X1971603Y635121D01*
X1970133Y637801D01*
X1968489Y640377D01*
X1966676Y642838D01*
X1964702Y645172D01*
X1962579Y647369D01*
X1960311Y649419D01*
X1957913Y651314D01*
X1955393Y653044D01*
X1952762Y654601D01*
X1950034Y655980D01*
X1947219Y657174D01*
X1944334Y658177D01*
X1941385Y658982D01*
X1938390Y659592D01*
X1935360Y660001D01*
X1932312Y660204D01*
X1929254Y660204D01*
X1926206Y660001D01*
X1923176Y659592D01*
X1920181Y658982D01*
X1917232Y658177D01*
X1914347Y657174D01*
X1911532Y655980D01*
X1908804Y654601D01*
X1906173Y653044D01*
X1903653Y651314D01*
X1901256Y649419D01*
X1898987Y647369D01*
X1896864Y645172D01*
X1894890Y642838D01*
X1893077Y640377D01*
X1891433Y637801D01*
X1889963Y635121D01*
X1888677Y632348D01*
X1887578Y629495D01*
X1886673Y626577D01*
X1885965Y623605D01*
X1885457Y620590D01*
X1885149Y617550D01*
X1885048Y614494D01*
X1885149Y611438D01*
X1885457Y608398D01*
X1885965Y605383D01*
X1886673Y602411D01*
X1887578Y599493D01*
X1888677Y596640D01*
X1889963Y593867D01*
X1891433Y591187D01*
X1893077Y588611D01*
X1894890Y586150D01*
X1896864Y583816D01*
X1898987Y581619D01*
X1901256Y579569D01*
X1903653Y577674D01*
X1906173Y575945D01*
X1908804Y574387D01*
X1911532Y573008D01*
X1914347Y571814D01*
X1917232Y570811D01*
X1920181Y570006D01*
X1923176Y569396D01*
X1926206Y568987D01*
G37*
G36*
X-479732Y615495D02*
G01*
X-476674Y615495D01*
X-473626Y615698D01*
X-470595Y616107D01*
X-467601Y616717D01*
X-464652Y617522D01*
X-461766Y618525D01*
X-458952Y619719D01*
X-456224Y621098D01*
X-453593Y622655D01*
X-451073Y624385D01*
X-448675Y626280D01*
X-446407Y628329D01*
X-444284Y630527D01*
X-442310Y632861D01*
X-440496Y635322D01*
X-438853Y637898D01*
X-437382Y640577D01*
X-436097Y643351D01*
X-434997Y646203D01*
X-434093Y649122D01*
X-433384Y652094D01*
X-432876Y655109D01*
X-432569Y658149D01*
X-432468Y661205D01*
X-432569Y664260D01*
X-432876Y667301D01*
X-433384Y670316D01*
X-434093Y673287D01*
X-434997Y676206D01*
X-436097Y679058D01*
X-437382Y681832D01*
X-438853Y684512D01*
X-440496Y687087D01*
X-442310Y689549D01*
X-444284Y691883D01*
X-446407Y694080D01*
X-448675Y696130D01*
X-451073Y698025D01*
X-453593Y699754D01*
X-456224Y701311D01*
X-458952Y702690D01*
X-461766Y703884D01*
X-464652Y704888D01*
X-467601Y705693D01*
X-470595Y706302D01*
X-473626Y706711D01*
X-476674Y706915D01*
X-479732Y706915D01*
X-482780Y706711D01*
X-485810Y706302D01*
X-488805Y705693D01*
X-491754Y704888D01*
X-494639Y703884D01*
X-497453Y702690D01*
X-500181Y701311D01*
X-502813Y699754D01*
X-505333Y698025D01*
X-507730Y696130D01*
X-509998Y694080D01*
X-512122Y691883D01*
X-514095Y689549D01*
X-515909Y687087D01*
X-517552Y684512D01*
X-519023Y681832D01*
X-520308Y679058D01*
X-521408Y676206D01*
X-522312Y673287D01*
X-523021Y670316D01*
X-523529Y667301D01*
X-523836Y664260D01*
X-523938Y661205D01*
X-523836Y658149D01*
X-523529Y655109D01*
X-523021Y652094D01*
X-522312Y649122D01*
X-521408Y646203D01*
X-520308Y643351D01*
X-519023Y640577D01*
X-517552Y637898D01*
X-515909Y635322D01*
X-514095Y632861D01*
X-512122Y630527D01*
X-509998Y628329D01*
X-507730Y626280D01*
X-505333Y624385D01*
X-502813Y622655D01*
X-500181Y621098D01*
X-497453Y619719D01*
X-494639Y618525D01*
X-491754Y617522D01*
X-488805Y616717D01*
X-485810Y616107D01*
X-482780Y615698D01*
G37*
G36*
X-885700Y615952D02*
G01*
X-882642Y615952D01*
X-879594Y616155D01*
X-876564Y616564D01*
X-873569Y617174D01*
X-870620Y617979D01*
X-867735Y618982D01*
X-864920Y620176D01*
X-862192Y621555D01*
X-859561Y623112D01*
X-857041Y624842D01*
X-854643Y626737D01*
X-852375Y628787D01*
X-850252Y630984D01*
X-848278Y633318D01*
X-846465Y635779D01*
X-844821Y638355D01*
X-843351Y641035D01*
X-842065Y643808D01*
X-840966Y646661D01*
X-840061Y649579D01*
X-839353Y652551D01*
X-838845Y655566D01*
X-838537Y658606D01*
X-838436Y661662D01*
X-838537Y664718D01*
X-838845Y667758D01*
X-839353Y670773D01*
X-840061Y673745D01*
X-840966Y676663D01*
X-842065Y679516D01*
X-843351Y682289D01*
X-844821Y684969D01*
X-846465Y687544D01*
X-848278Y690006D01*
X-850252Y692340D01*
X-852375Y694537D01*
X-854643Y696587D01*
X-857041Y698482D01*
X-859561Y700211D01*
X-862192Y701768D01*
X-864920Y703148D01*
X-867735Y704342D01*
X-870620Y705345D01*
X-873569Y706150D01*
X-876564Y706760D01*
X-879594Y707169D01*
X-882642Y707372D01*
X-885700Y707372D01*
X-888748Y707169D01*
X-891778Y706760D01*
X-894773Y706150D01*
X-897722Y705345D01*
X-900607Y704342D01*
X-903422Y703148D01*
X-906150Y701768D01*
X-908781Y700211D01*
X-911301Y698482D01*
X-913698Y696587D01*
X-915967Y694537D01*
X-918090Y692340D01*
X-920064Y690006D01*
X-921877Y687544D01*
X-923521Y684969D01*
X-924991Y682289D01*
X-926277Y679516D01*
X-927376Y676663D01*
X-928281Y673745D01*
X-928989Y670773D01*
X-929497Y667758D01*
X-929805Y664718D01*
X-929906Y661662D01*
X-929805Y658606D01*
X-929497Y655566D01*
X-928989Y652551D01*
X-928281Y649579D01*
X-927376Y646661D01*
X-926277Y643808D01*
X-924991Y641035D01*
X-923521Y638355D01*
X-921877Y635779D01*
X-920064Y633318D01*
X-918090Y630984D01*
X-915967Y628787D01*
X-913698Y626737D01*
X-911301Y624842D01*
X-908781Y623112D01*
X-906150Y621555D01*
X-903422Y620176D01*
X-900607Y618982D01*
X-897722Y617979D01*
X-894773Y617174D01*
X-891778Y616564D01*
X-888748Y616155D01*
G37*
G36*
X824069Y632889D02*
G01*
X827128Y632889D01*
X830176Y633092D01*
X833206Y633501D01*
X836201Y634111D01*
X839149Y634916D01*
X842035Y635919D01*
X844849Y637113D01*
X847577Y638492D01*
X850209Y640049D01*
X852728Y641779D01*
X855126Y643674D01*
X857394Y645723D01*
X859518Y647920D01*
X861491Y650255D01*
X863305Y652716D01*
X864948Y655292D01*
X866419Y657971D01*
X867704Y660745D01*
X868804Y663597D01*
X869708Y666516D01*
X870417Y669488D01*
X870925Y672503D01*
X871232Y675543D01*
X871334Y678599D01*
X871232Y681654D01*
X870925Y684695D01*
X870417Y687710D01*
X869708Y690681D01*
X868804Y693600D01*
X867704Y696452D01*
X866419Y699226D01*
X864948Y701906D01*
X863305Y704481D01*
X861491Y706942D01*
X859518Y709277D01*
X857394Y711474D01*
X855126Y713524D01*
X852728Y715418D01*
X850209Y717148D01*
X849599Y717509D01*
X850508Y718047D01*
X853028Y719777D01*
X855426Y721672D01*
X857694Y723722D01*
X859817Y725919D01*
X861791Y728253D01*
X863605Y730714D01*
X865248Y733290D01*
X866719Y735970D01*
X868004Y738743D01*
X869104Y741596D01*
X870008Y744514D01*
X870717Y747486D01*
X871225Y750501D01*
X871532Y753541D01*
X871634Y756597D01*
X871532Y759653D01*
X871225Y762693D01*
X870717Y765708D01*
X870008Y768680D01*
X869104Y771598D01*
X868004Y774451D01*
X866719Y777224D01*
X865248Y779904D01*
X863605Y782480D01*
X861791Y784941D01*
X859817Y787275D01*
X857694Y789472D01*
X855426Y791522D01*
X853028Y793417D01*
X850508Y795146D01*
X847877Y796704D01*
X845149Y798083D01*
X842335Y799277D01*
X839449Y800280D01*
X836500Y801085D01*
X833506Y801695D01*
X830475Y802104D01*
X827427Y802307D01*
X824369Y802307D01*
X821321Y802104D01*
X818291Y801695D01*
X815296Y801085D01*
X812347Y800280D01*
X809462Y799277D01*
X806648Y798083D01*
X803920Y796704D01*
X801288Y795146D01*
X798769Y793417D01*
X796371Y791522D01*
X794103Y789472D01*
X791979Y787275D01*
X790006Y784941D01*
X788192Y782480D01*
X786549Y779904D01*
X785078Y777224D01*
X783793Y774451D01*
X782693Y771598D01*
X781789Y768680D01*
X781080Y765708D01*
X780572Y762693D01*
X780265Y759653D01*
X780163Y756597D01*
X780265Y753541D01*
X780572Y750501D01*
X781080Y747486D01*
X781789Y744514D01*
X782693Y741596D01*
X783793Y738743D01*
X785078Y735970D01*
X786549Y733290D01*
X788192Y730714D01*
X790006Y728253D01*
X791979Y725919D01*
X794103Y723722D01*
X796371Y721672D01*
X798769Y719777D01*
X801288Y718047D01*
X801898Y717687D01*
X800988Y717148D01*
X798469Y715418D01*
X796071Y713524D01*
X793803Y711474D01*
X791679Y709277D01*
X789706Y706942D01*
X787892Y704481D01*
X786249Y701906D01*
X784778Y699226D01*
X783493Y696452D01*
X782393Y693600D01*
X781489Y690681D01*
X780780Y687710D01*
X780272Y684695D01*
X779965Y681654D01*
X779863Y678599D01*
X779965Y675543D01*
X780272Y672503D01*
X780780Y669488D01*
X781489Y666516D01*
X782393Y663597D01*
X783493Y660745D01*
X784778Y657971D01*
X786249Y655292D01*
X787892Y652716D01*
X789706Y650255D01*
X791679Y647920D01*
X793803Y645723D01*
X796071Y643674D01*
X798469Y641779D01*
X800988Y640049D01*
X803620Y638492D01*
X806348Y637113D01*
X809162Y635919D01*
X812048Y634916D01*
X814997Y634111D01*
X817991Y633501D01*
X821021Y633092D01*
G37*
G36*
X1106667Y645487D02*
G01*
X1109725Y645487D01*
X1112774Y645690D01*
X1115804Y646099D01*
X1118798Y646709D01*
X1121747Y647514D01*
X1124633Y648517D01*
X1127447Y649711D01*
X1130175Y651090D01*
X1132806Y652647D01*
X1135326Y654377D01*
X1137724Y656272D01*
X1139992Y658322D01*
X1142116Y660519D01*
X1144089Y662853D01*
X1145903Y665314D01*
X1147546Y667890D01*
X1149017Y670570D01*
X1150302Y673343D01*
X1151402Y676196D01*
X1152306Y679114D01*
X1153015Y682086D01*
X1153523Y685101D01*
X1153830Y688141D01*
X1153932Y691197D01*
X1153830Y694253D01*
X1153523Y697293D01*
X1153015Y700308D01*
X1152306Y703280D01*
X1151402Y706198D01*
X1150302Y709051D01*
X1149017Y711824D01*
X1147546Y714504D01*
X1145903Y717080D01*
X1144089Y719541D01*
X1142116Y721875D01*
X1139992Y724072D01*
X1137724Y726122D01*
X1135326Y728017D01*
X1132806Y729747D01*
X1130175Y731304D01*
X1127447Y732683D01*
X1124633Y733877D01*
X1121747Y734880D01*
X1118798Y735685D01*
X1118052Y735838D01*
X1118407Y736048D01*
X1120927Y737778D01*
X1123325Y739673D01*
X1125593Y741723D01*
X1127716Y743920D01*
X1129690Y746254D01*
X1131503Y748715D01*
X1133147Y751291D01*
X1134618Y753971D01*
X1135903Y756744D01*
X1137003Y759597D01*
X1137907Y762515D01*
X1138615Y765487D01*
X1139123Y768502D01*
X1139431Y771542D01*
X1139532Y774598D01*
X1139431Y777654D01*
X1139123Y780694D01*
X1138615Y783709D01*
X1137907Y786681D01*
X1137003Y789599D01*
X1135903Y792452D01*
X1134618Y795225D01*
X1133147Y797905D01*
X1131503Y800480D01*
X1129690Y802942D01*
X1127716Y805276D01*
X1125593Y807473D01*
X1123325Y809523D01*
X1122720Y810000D01*
X1124204Y810201D01*
X1127198Y810811D01*
X1130147Y811616D01*
X1133033Y812619D01*
X1135847Y813813D01*
X1138575Y815192D01*
X1141206Y816749D01*
X1143726Y818479D01*
X1146124Y820374D01*
X1148392Y822424D01*
X1150515Y824621D01*
X1152489Y826955D01*
X1154302Y829416D01*
X1155946Y831992D01*
X1157417Y834671D01*
X1158702Y837445D01*
X1159802Y840298D01*
X1160706Y843216D01*
X1161415Y846188D01*
X1161922Y849203D01*
X1162230Y852243D01*
X1162331Y855299D01*
X1162230Y858354D01*
X1161922Y861395D01*
X1161415Y864410D01*
X1160706Y867382D01*
X1159802Y870300D01*
X1158702Y873152D01*
X1157417Y875926D01*
X1155946Y878606D01*
X1154302Y881181D01*
X1152489Y883643D01*
X1150515Y885977D01*
X1148392Y888174D01*
X1146124Y890224D01*
X1143726Y892119D01*
X1142994Y892622D01*
X1144132Y893018D01*
X1146947Y894212D01*
X1149675Y895591D01*
X1152306Y897148D01*
X1154826Y898878D01*
X1157224Y900772D01*
X1159492Y902822D01*
X1161615Y905019D01*
X1163589Y907354D01*
X1165402Y909815D01*
X1167046Y912390D01*
X1168516Y915070D01*
X1169802Y917844D01*
X1170901Y920696D01*
X1171806Y923615D01*
X1172514Y926586D01*
X1173022Y929601D01*
X1173330Y932642D01*
X1173431Y935697D01*
X1173330Y938753D01*
X1173022Y941793D01*
X1172514Y944808D01*
X1171806Y947780D01*
X1170901Y950699D01*
X1169802Y953551D01*
X1168516Y956325D01*
X1167046Y959004D01*
X1165402Y961580D01*
X1163589Y964041D01*
X1161615Y966376D01*
X1159492Y968573D01*
X1157224Y970622D01*
X1154826Y972517D01*
X1152306Y974247D01*
X1149675Y975804D01*
X1146947Y977183D01*
X1144132Y978377D01*
X1141247Y979380D01*
X1138298Y980186D01*
X1135303Y980795D01*
X1132273Y981204D01*
X1129225Y981407D01*
X1126167Y981407D01*
X1123119Y981204D01*
X1120089Y980795D01*
X1117094Y980186D01*
X1114145Y979380D01*
X1112159Y978689D01*
X1112702Y980097D01*
X1113607Y983015D01*
X1114315Y985987D01*
X1114823Y989002D01*
X1115131Y992042D01*
X1115232Y995098D01*
X1115131Y998153D01*
X1114823Y1001194D01*
X1114315Y1004209D01*
X1113607Y1007181D01*
X1112702Y1010099D01*
X1111603Y1012952D01*
X1111496Y1013183D01*
X1112972Y1012309D01*
X1115700Y1010930D01*
X1118514Y1009736D01*
X1121399Y1008733D01*
X1124348Y1007927D01*
X1127343Y1007318D01*
X1130373Y1006909D01*
X1133421Y1006706D01*
X1136479Y1006706D01*
X1139527Y1006909D01*
X1142558Y1007318D01*
X1145552Y1007927D01*
X1148501Y1008733D01*
X1151387Y1009736D01*
X1154201Y1010930D01*
X1156929Y1012309D01*
X1159560Y1013866D01*
X1162080Y1015596D01*
X1164478Y1017490D01*
X1166746Y1019540D01*
X1168869Y1021737D01*
X1170843Y1024072D01*
X1172657Y1026533D01*
X1174300Y1029108D01*
X1175771Y1031788D01*
X1177056Y1034562D01*
X1178156Y1037414D01*
X1179060Y1040333D01*
X1179769Y1043305D01*
X1180277Y1046319D01*
X1180584Y1049360D01*
X1180685Y1052415D01*
X1180584Y1055471D01*
X1180277Y1058511D01*
X1179769Y1061526D01*
X1179060Y1064498D01*
X1178156Y1067417D01*
X1177056Y1070269D01*
X1175771Y1073043D01*
X1174300Y1075723D01*
X1172657Y1078298D01*
X1170843Y1080759D01*
X1168869Y1083094D01*
X1166746Y1085291D01*
X1164478Y1087340D01*
X1162080Y1089235D01*
X1159560Y1090965D01*
X1156929Y1092522D01*
X1154201Y1093901D01*
X1151387Y1095095D01*
X1148501Y1096098D01*
X1145552Y1096904D01*
X1142558Y1097513D01*
X1139527Y1097922D01*
X1136479Y1098125D01*
X1133421Y1098125D01*
X1130856Y1097955D01*
X1131308Y1099416D01*
X1132017Y1102387D01*
X1132525Y1105402D01*
X1132832Y1108443D01*
X1132933Y1111498D01*
X1132832Y1114554D01*
X1132525Y1117594D01*
X1132017Y1120609D01*
X1131308Y1123581D01*
X1130404Y1126500D01*
X1129304Y1129352D01*
X1128019Y1132126D01*
X1126548Y1134805D01*
X1124905Y1137381D01*
X1123091Y1139842D01*
X1121117Y1142177D01*
X1118994Y1144374D01*
X1116726Y1146423D01*
X1114328Y1148318D01*
X1112502Y1149573D01*
X1113307Y1150048D01*
X1115827Y1151778D01*
X1118224Y1153673D01*
X1120493Y1155722D01*
X1122616Y1157919D01*
X1124590Y1160254D01*
X1126403Y1162715D01*
X1128047Y1165291D01*
X1129517Y1167970D01*
X1130802Y1170744D01*
X1131902Y1173596D01*
X1132806Y1176515D01*
X1133515Y1179487D01*
X1134023Y1182502D01*
X1134330Y1185542D01*
X1134432Y1188598D01*
X1134330Y1191653D01*
X1134023Y1194694D01*
X1133515Y1197709D01*
X1132806Y1200680D01*
X1131902Y1203599D01*
X1130802Y1206451D01*
X1129517Y1209225D01*
X1128047Y1211905D01*
X1126403Y1214480D01*
X1124590Y1216941D01*
X1122616Y1219276D01*
X1120493Y1221473D01*
X1118224Y1223523D01*
X1115827Y1225417D01*
X1113307Y1227147D01*
X1110675Y1228704D01*
X1107947Y1230083D01*
X1105133Y1231277D01*
X1102248Y1232280D01*
X1099299Y1233086D01*
X1096304Y1233695D01*
X1093274Y1234104D01*
X1090226Y1234307D01*
X1087168Y1234307D01*
X1084120Y1234104D01*
X1081090Y1233695D01*
X1078095Y1233086D01*
X1075146Y1232280D01*
X1072261Y1231277D01*
X1069446Y1230083D01*
X1066718Y1228704D01*
X1064087Y1227147D01*
X1061567Y1225417D01*
X1059169Y1223523D01*
X1056901Y1221473D01*
X1054778Y1219276D01*
X1052804Y1216941D01*
X1050991Y1214480D01*
X1049347Y1211905D01*
X1047877Y1209225D01*
X1046591Y1206451D01*
X1045491Y1203599D01*
X1044587Y1200680D01*
X1043879Y1197709D01*
X1043371Y1194694D01*
X1043063Y1191653D01*
X1042962Y1188598D01*
X1043063Y1185542D01*
X1043371Y1182502D01*
X1043879Y1179487D01*
X1044587Y1176515D01*
X1045491Y1173596D01*
X1046591Y1170744D01*
X1047877Y1167970D01*
X1049347Y1165291D01*
X1050991Y1162715D01*
X1052804Y1160254D01*
X1054778Y1157919D01*
X1056901Y1155722D01*
X1059169Y1153673D01*
X1061567Y1151778D01*
X1063393Y1150523D01*
X1062588Y1150048D01*
X1060068Y1148318D01*
X1057671Y1146423D01*
X1055403Y1144374D01*
X1053279Y1142177D01*
X1051306Y1139842D01*
X1049492Y1137381D01*
X1047849Y1134805D01*
X1046378Y1132126D01*
X1045093Y1129352D01*
X1043993Y1126500D01*
X1043089Y1123581D01*
X1042380Y1120609D01*
X1041872Y1117594D01*
X1041565Y1114554D01*
X1041463Y1111498D01*
X1041565Y1108443D01*
X1041872Y1105402D01*
X1042380Y1102387D01*
X1043089Y1099416D01*
X1043993Y1096497D01*
X1045093Y1093645D01*
X1046378Y1090871D01*
X1047849Y1088191D01*
X1049492Y1085616D01*
X1051306Y1083155D01*
X1053279Y1080820D01*
X1055403Y1078623D01*
X1057671Y1076573D01*
X1060068Y1074679D01*
X1062588Y1072949D01*
X1065220Y1071392D01*
X1067948Y1070013D01*
X1070762Y1068819D01*
X1073647Y1067815D01*
X1076596Y1067010D01*
X1079591Y1066401D01*
X1082621Y1065992D01*
X1085669Y1065789D01*
X1088727Y1065789D01*
X1091293Y1065959D01*
X1090841Y1064498D01*
X1090132Y1061526D01*
X1089624Y1058511D01*
X1089317Y1055471D01*
X1089215Y1052415D01*
X1089317Y1049360D01*
X1089624Y1046319D01*
X1090132Y1043305D01*
X1090841Y1040333D01*
X1091745Y1037414D01*
X1092845Y1034562D01*
X1092951Y1034331D01*
X1091476Y1035204D01*
X1088748Y1036584D01*
X1085933Y1037777D01*
X1083048Y1038781D01*
X1080099Y1039586D01*
X1077104Y1040196D01*
X1074074Y1040604D01*
X1071026Y1040808D01*
X1067968Y1040808D01*
X1064920Y1040604D01*
X1061890Y1040196D01*
X1058895Y1039586D01*
X1055946Y1038781D01*
X1053061Y1037777D01*
X1050246Y1036584D01*
X1047518Y1035204D01*
X1044887Y1033647D01*
X1042367Y1031918D01*
X1039969Y1030023D01*
X1037701Y1027973D01*
X1035578Y1025776D01*
X1033604Y1023442D01*
X1031791Y1020980D01*
X1030147Y1018405D01*
X1028677Y1015725D01*
X1027391Y1012952D01*
X1026292Y1010099D01*
X1025387Y1007181D01*
X1024679Y1004209D01*
X1024171Y1001194D01*
X1023863Y998153D01*
X1023762Y995098D01*
X1023863Y992042D01*
X1024171Y989002D01*
X1024679Y985987D01*
X1025387Y983015D01*
X1026292Y980097D01*
X1027391Y977244D01*
X1028677Y974471D01*
X1030147Y971791D01*
X1031791Y969215D01*
X1033604Y966754D01*
X1035578Y964420D01*
X1037701Y962223D01*
X1039969Y960173D01*
X1042367Y958278D01*
X1044887Y956548D01*
X1047518Y954991D01*
X1050246Y953612D01*
X1053061Y952418D01*
X1055946Y951415D01*
X1058895Y950610D01*
X1061890Y950000D01*
X1064920Y949591D01*
X1067968Y949388D01*
X1071026Y949388D01*
X1074074Y949591D01*
X1077104Y950000D01*
X1080099Y950610D01*
X1083048Y951415D01*
X1085034Y952106D01*
X1084491Y950699D01*
X1083586Y947780D01*
X1082878Y944808D01*
X1082370Y941793D01*
X1082062Y938753D01*
X1081961Y935697D01*
X1082062Y932642D01*
X1082370Y929601D01*
X1082878Y926586D01*
X1083586Y923615D01*
X1084491Y920696D01*
X1085590Y917844D01*
X1086876Y915070D01*
X1088346Y912390D01*
X1089990Y909815D01*
X1091803Y907354D01*
X1093777Y905019D01*
X1095900Y902822D01*
X1098168Y900772D01*
X1100566Y898878D01*
X1101298Y898375D01*
X1100160Y897978D01*
X1097346Y896785D01*
X1094618Y895405D01*
X1091986Y893848D01*
X1089466Y892119D01*
X1087069Y890224D01*
X1084800Y888174D01*
X1082677Y885977D01*
X1080703Y883643D01*
X1078890Y881181D01*
X1077247Y878606D01*
X1075776Y875926D01*
X1074491Y873152D01*
X1073391Y870300D01*
X1072487Y867382D01*
X1071778Y864410D01*
X1071270Y861395D01*
X1070963Y858354D01*
X1070861Y855299D01*
X1070963Y852243D01*
X1071270Y849203D01*
X1071778Y846188D01*
X1072487Y843216D01*
X1073391Y840298D01*
X1074491Y837445D01*
X1075776Y834671D01*
X1077247Y831992D01*
X1078890Y829416D01*
X1080703Y826955D01*
X1082677Y824621D01*
X1084800Y822424D01*
X1087069Y820374D01*
X1087673Y819896D01*
X1086190Y819696D01*
X1083195Y819086D01*
X1080246Y818281D01*
X1077361Y817278D01*
X1074547Y816084D01*
X1071819Y814705D01*
X1069187Y813147D01*
X1066667Y811418D01*
X1064270Y809523D01*
X1062001Y807473D01*
X1059878Y805276D01*
X1057904Y802942D01*
X1056091Y800480D01*
X1054447Y797905D01*
X1052977Y795225D01*
X1051692Y792452D01*
X1050592Y789599D01*
X1049688Y786681D01*
X1048979Y783709D01*
X1048471Y780694D01*
X1048164Y777654D01*
X1048062Y774598D01*
X1048164Y771542D01*
X1048471Y768502D01*
X1048979Y765487D01*
X1049688Y762515D01*
X1050592Y759597D01*
X1051692Y756744D01*
X1052977Y753971D01*
X1054447Y751291D01*
X1056091Y748715D01*
X1057904Y746254D01*
X1059878Y743920D01*
X1062001Y741723D01*
X1064270Y739673D01*
X1066667Y737778D01*
X1069187Y736048D01*
X1071819Y734491D01*
X1074547Y733112D01*
X1077361Y731918D01*
X1080246Y730915D01*
X1083195Y730110D01*
X1083942Y729957D01*
X1083586Y729747D01*
X1081067Y728017D01*
X1078669Y726122D01*
X1076401Y724072D01*
X1074277Y721875D01*
X1072304Y719541D01*
X1070490Y717080D01*
X1068847Y714504D01*
X1067376Y711824D01*
X1066091Y709051D01*
X1064991Y706198D01*
X1064087Y703280D01*
X1063378Y700308D01*
X1062870Y697293D01*
X1062563Y694253D01*
X1062461Y691197D01*
X1062563Y688141D01*
X1062870Y685101D01*
X1063378Y682086D01*
X1064087Y679114D01*
X1064991Y676196D01*
X1066091Y673343D01*
X1067376Y670570D01*
X1068847Y667890D01*
X1070490Y665314D01*
X1072304Y662853D01*
X1074277Y660519D01*
X1076401Y658322D01*
X1078669Y656272D01*
X1081067Y654377D01*
X1083586Y652647D01*
X1086218Y651090D01*
X1088946Y649711D01*
X1091760Y648517D01*
X1094646Y647514D01*
X1097594Y646709D01*
X1100589Y646099D01*
X1103619Y645690D01*
G37*
G36*
X572767Y685802D02*
G01*
X575825Y685802D01*
X578873Y686005D01*
X581903Y686414D01*
X584898Y687024D01*
X587847Y687829D01*
X590732Y688832D01*
X593547Y690026D01*
X596275Y691405D01*
X598906Y692962D01*
X601426Y694692D01*
X603824Y696587D01*
X606092Y698637D01*
X608215Y700834D01*
X610189Y703168D01*
X612002Y705629D01*
X613646Y708205D01*
X615116Y710885D01*
X616402Y713658D01*
X617501Y716511D01*
X618406Y719429D01*
X619114Y722401D01*
X619622Y725416D01*
X619930Y728456D01*
X620031Y731512D01*
X619930Y734568D01*
X619622Y737608D01*
X619114Y740623D01*
X618406Y743595D01*
X617501Y746513D01*
X616402Y749366D01*
X615116Y752139D01*
X613646Y754819D01*
X612002Y757394D01*
X610189Y759856D01*
X608215Y762190D01*
X606092Y764387D01*
X603824Y766437D01*
X601426Y768332D01*
X598906Y770061D01*
X596275Y771618D01*
X593547Y772998D01*
X590732Y774192D01*
X587847Y775195D01*
X584898Y776000D01*
X581903Y776610D01*
X578873Y777019D01*
X575825Y777222D01*
X572767Y777222D01*
X569719Y777019D01*
X566689Y776610D01*
X563694Y776000D01*
X560745Y775195D01*
X557860Y774192D01*
X555045Y772998D01*
X552317Y771618D01*
X549686Y770061D01*
X547166Y768332D01*
X544769Y766437D01*
X542500Y764387D01*
X540377Y762190D01*
X538403Y759856D01*
X536590Y757394D01*
X534946Y754819D01*
X533476Y752139D01*
X532190Y749366D01*
X531091Y746513D01*
X530186Y743595D01*
X529478Y740623D01*
X528970Y737608D01*
X528662Y734568D01*
X528561Y731512D01*
X528662Y728456D01*
X528970Y725416D01*
X529478Y722401D01*
X530186Y719429D01*
X531091Y716511D01*
X532190Y713658D01*
X533476Y710885D01*
X534946Y708205D01*
X536590Y705629D01*
X538403Y703168D01*
X540377Y700834D01*
X542500Y698637D01*
X544769Y696587D01*
X547166Y694692D01*
X549686Y692962D01*
X552317Y691405D01*
X555045Y690026D01*
X557860Y688832D01*
X560745Y687829D01*
X563694Y687024D01*
X566689Y686414D01*
X569719Y686005D01*
G37*
G36*
X2152469Y700686D02*
G01*
X2155527Y700686D01*
X2158575Y700890D01*
X2161606Y701299D01*
X2164600Y701908D01*
X2167549Y702713D01*
X2170435Y703717D01*
X2173249Y704910D01*
X2175977Y706290D01*
X2178608Y707847D01*
X2181128Y709576D01*
X2183526Y711471D01*
X2185794Y713521D01*
X2187917Y715718D01*
X2189891Y718052D01*
X2191705Y720514D01*
X2193348Y723089D01*
X2194819Y725769D01*
X2196104Y728543D01*
X2197204Y731395D01*
X2198108Y734313D01*
X2198817Y737285D01*
X2199325Y740300D01*
X2199632Y743341D01*
X2199733Y746396D01*
X2199632Y749452D01*
X2199325Y752492D01*
X2198817Y755507D01*
X2198108Y758479D01*
X2197204Y761398D01*
X2196104Y764250D01*
X2194819Y767024D01*
X2193348Y769703D01*
X2191705Y772279D01*
X2189891Y774740D01*
X2187917Y777074D01*
X2185794Y779271D01*
X2183526Y781321D01*
X2181128Y783216D01*
X2178608Y784946D01*
X2175977Y786503D01*
X2173249Y787882D01*
X2170435Y789076D01*
X2167549Y790079D01*
X2164600Y790884D01*
X2161606Y791494D01*
X2158575Y791903D01*
X2155527Y792106D01*
X2152469Y792106D01*
X2149421Y791903D01*
X2146391Y791494D01*
X2143396Y790884D01*
X2140447Y790079D01*
X2137562Y789076D01*
X2134748Y787882D01*
X2132020Y786503D01*
X2129388Y784946D01*
X2126868Y783216D01*
X2124471Y781321D01*
X2122203Y779271D01*
X2120079Y777074D01*
X2118106Y774740D01*
X2116292Y772279D01*
X2114649Y769703D01*
X2113178Y767024D01*
X2111893Y764250D01*
X2110793Y761398D01*
X2109889Y758479D01*
X2109180Y755507D01*
X2108672Y752492D01*
X2108365Y749452D01*
X2108263Y746396D01*
X2108365Y743341D01*
X2108672Y740300D01*
X2109180Y737285D01*
X2109889Y734313D01*
X2110793Y731395D01*
X2111893Y728543D01*
X2113178Y725769D01*
X2114649Y723089D01*
X2116292Y720514D01*
X2118106Y718052D01*
X2120079Y715718D01*
X2122203Y713521D01*
X2124471Y711471D01*
X2126868Y709576D01*
X2129388Y707847D01*
X2132020Y706290D01*
X2134748Y704910D01*
X2137562Y703717D01*
X2140447Y702713D01*
X2143396Y701908D01*
X2146391Y701299D01*
X2149421Y700890D01*
G37*
G36*
X-926594Y730760D02*
G01*
X-923536Y730760D01*
X-920488Y730963D01*
X-917458Y731372D01*
X-914463Y731982D01*
X-911514Y732787D01*
X-908629Y733790D01*
X-905814Y734984D01*
X-903086Y736363D01*
X-900455Y737920D01*
X-897935Y739650D01*
X-895537Y741545D01*
X-893269Y743595D01*
X-891146Y745792D01*
X-889172Y748126D01*
X-887359Y750587D01*
X-885715Y753163D01*
X-884245Y755843D01*
X-882959Y758616D01*
X-881860Y761469D01*
X-880955Y764387D01*
X-880247Y767359D01*
X-879739Y770374D01*
X-879431Y773414D01*
X-879330Y776470D01*
X-879431Y779526D01*
X-879739Y782566D01*
X-880247Y785581D01*
X-880955Y788553D01*
X-881860Y791471D01*
X-882959Y794324D01*
X-884245Y797097D01*
X-885715Y799777D01*
X-887359Y802352D01*
X-889172Y804814D01*
X-891146Y807148D01*
X-893269Y809345D01*
X-895537Y811395D01*
X-897935Y813290D01*
X-900455Y815019D01*
X-903086Y816576D01*
X-905814Y817956D01*
X-908629Y819150D01*
X-911514Y820153D01*
X-914463Y820958D01*
X-917458Y821568D01*
X-920488Y821977D01*
X-923536Y822180D01*
X-926594Y822180D01*
X-929642Y821977D01*
X-932672Y821568D01*
X-935667Y820958D01*
X-938616Y820153D01*
X-941501Y819150D01*
X-944316Y817956D01*
X-947044Y816576D01*
X-949675Y815019D01*
X-952195Y813290D01*
X-954592Y811395D01*
X-956861Y809345D01*
X-958984Y807148D01*
X-960958Y804814D01*
X-962771Y802352D01*
X-964415Y799777D01*
X-965885Y797097D01*
X-967171Y794324D01*
X-968270Y791471D01*
X-969175Y788553D01*
X-969883Y785581D01*
X-970391Y782566D01*
X-970699Y779526D01*
X-970800Y776470D01*
X-970699Y773414D01*
X-970391Y770374D01*
X-969883Y767359D01*
X-969175Y764387D01*
X-968270Y761469D01*
X-967171Y758616D01*
X-965885Y755843D01*
X-964415Y753163D01*
X-962771Y750587D01*
X-960958Y748126D01*
X-958984Y745792D01*
X-956861Y743595D01*
X-954592Y741545D01*
X-952195Y739650D01*
X-949675Y737920D01*
X-947044Y736363D01*
X-944316Y734984D01*
X-941501Y733790D01*
X-938616Y732787D01*
X-935667Y731982D01*
X-932672Y731372D01*
X-929642Y730963D01*
G37*
G36*
X513153Y760072D02*
G01*
X516211Y760072D01*
X519259Y760275D01*
X522290Y760684D01*
X525284Y761293D01*
X528233Y762099D01*
X531119Y763102D01*
X533933Y764296D01*
X536661Y765675D01*
X539292Y767232D01*
X541812Y768962D01*
X544210Y770856D01*
X546478Y772906D01*
X548601Y775103D01*
X550575Y777438D01*
X552389Y779899D01*
X554032Y782474D01*
X555503Y785154D01*
X556788Y787928D01*
X557888Y790780D01*
X558792Y793699D01*
X559501Y796671D01*
X560009Y799685D01*
X560316Y802726D01*
X560417Y805781D01*
X560316Y808837D01*
X560009Y811877D01*
X559501Y814892D01*
X558792Y817864D01*
X557888Y820783D01*
X556788Y823635D01*
X555503Y826409D01*
X554032Y829089D01*
X552389Y831664D01*
X550575Y834125D01*
X548601Y836460D01*
X546478Y838657D01*
X544210Y840706D01*
X541812Y842601D01*
X539292Y844331D01*
X536661Y845888D01*
X533933Y847267D01*
X531119Y848461D01*
X528233Y849464D01*
X525284Y850270D01*
X522290Y850879D01*
X519259Y851288D01*
X516211Y851491D01*
X513153Y851491D01*
X510105Y851288D01*
X507075Y850879D01*
X504080Y850270D01*
X501131Y849464D01*
X498246Y848461D01*
X495432Y847267D01*
X492704Y845888D01*
X490072Y844331D01*
X487552Y842601D01*
X485155Y840706D01*
X482887Y838657D01*
X480763Y836460D01*
X478790Y834125D01*
X476976Y831664D01*
X475333Y829089D01*
X473862Y826409D01*
X472577Y823635D01*
X471477Y820783D01*
X470573Y817864D01*
X469864Y814892D01*
X469356Y811877D01*
X469049Y808837D01*
X468947Y805781D01*
X469049Y802726D01*
X469356Y799685D01*
X469864Y796671D01*
X470573Y793699D01*
X471477Y790780D01*
X472577Y787928D01*
X473862Y785154D01*
X475333Y782474D01*
X476976Y779899D01*
X478790Y777438D01*
X480763Y775103D01*
X482887Y772906D01*
X485155Y770856D01*
X487552Y768962D01*
X490072Y767232D01*
X492704Y765675D01*
X495432Y764296D01*
X498246Y763102D01*
X501131Y762099D01*
X504080Y761293D01*
X507075Y760684D01*
X510105Y760275D01*
G37*
G36*
X-320296Y787148D02*
G01*
X-317238Y787148D01*
X-314190Y787351D01*
X-311160Y787760D01*
X-308165Y788370D01*
X-305216Y789175D01*
X-302331Y790178D01*
X-299516Y791372D01*
X-296788Y792751D01*
X-294157Y794308D01*
X-291637Y796038D01*
X-289239Y797933D01*
X-286971Y799983D01*
X-284848Y802180D01*
X-282874Y804514D01*
X-281061Y806975D01*
X-279417Y809551D01*
X-277947Y812231D01*
X-276661Y815004D01*
X-275562Y817857D01*
X-274657Y820775D01*
X-273949Y823747D01*
X-273441Y826762D01*
X-273133Y829802D01*
X-273032Y832858D01*
X-273133Y835913D01*
X-273441Y838954D01*
X-273949Y841969D01*
X-274657Y844941D01*
X-275562Y847859D01*
X-276661Y850712D01*
X-277947Y853485D01*
X-279417Y856165D01*
X-281061Y858740D01*
X-282874Y861202D01*
X-284848Y863536D01*
X-286971Y865733D01*
X-289239Y867783D01*
X-291637Y869678D01*
X-294157Y871407D01*
X-296788Y872964D01*
X-299516Y874344D01*
X-302331Y875538D01*
X-305216Y876541D01*
X-308165Y877346D01*
X-311160Y877956D01*
X-314190Y878365D01*
X-317238Y878568D01*
X-320296Y878568D01*
X-323344Y878365D01*
X-326374Y877956D01*
X-329369Y877346D01*
X-332318Y876541D01*
X-335203Y875538D01*
X-338018Y874344D01*
X-340746Y872964D01*
X-343377Y871407D01*
X-345897Y869678D01*
X-348294Y867783D01*
X-350563Y865733D01*
X-352686Y863536D01*
X-354660Y861202D01*
X-356473Y858740D01*
X-358117Y856165D01*
X-359587Y853485D01*
X-360873Y850712D01*
X-361972Y847859D01*
X-362877Y844941D01*
X-363585Y841969D01*
X-364093Y838954D01*
X-364401Y835913D01*
X-364502Y832858D01*
X-364401Y829802D01*
X-364093Y826762D01*
X-363585Y823747D01*
X-362877Y820775D01*
X-361972Y817857D01*
X-360873Y815004D01*
X-359587Y812231D01*
X-358117Y809551D01*
X-356473Y806975D01*
X-354660Y804514D01*
X-352686Y802180D01*
X-350563Y799983D01*
X-348294Y797933D01*
X-345897Y796038D01*
X-343377Y794308D01*
X-340746Y792751D01*
X-338018Y791372D01*
X-335203Y790178D01*
X-332318Y789175D01*
X-329369Y788370D01*
X-326374Y787760D01*
X-323344Y787351D01*
G37*
G36*
X572970Y851283D02*
G01*
X576028Y851283D01*
X579076Y851486D01*
X582107Y851895D01*
X585101Y852505D01*
X588050Y853310D01*
X590936Y854313D01*
X593750Y855507D01*
X596478Y856886D01*
X599109Y858443D01*
X601629Y860173D01*
X604027Y862068D01*
X606295Y864118D01*
X608418Y866315D01*
X610392Y868649D01*
X612206Y871110D01*
X613849Y873686D01*
X615320Y876366D01*
X616605Y879139D01*
X617705Y881992D01*
X618609Y884910D01*
X619318Y887882D01*
X619826Y890897D01*
X620133Y893937D01*
X620234Y896993D01*
X620133Y900048D01*
X619826Y903089D01*
X619318Y906104D01*
X618609Y909076D01*
X617705Y911994D01*
X616605Y914847D01*
X615320Y917620D01*
X613849Y920300D01*
X612206Y922875D01*
X610392Y925337D01*
X608418Y927671D01*
X606295Y929868D01*
X604027Y931918D01*
X601629Y933813D01*
X599109Y935542D01*
X596478Y937099D01*
X593750Y938479D01*
X590936Y939672D01*
X588050Y940676D01*
X585101Y941481D01*
X582107Y942091D01*
X579076Y942500D01*
X576028Y942703D01*
X572970Y942703D01*
X569922Y942500D01*
X566892Y942091D01*
X563897Y941481D01*
X560948Y940676D01*
X558063Y939672D01*
X555249Y938479D01*
X552521Y937099D01*
X549889Y935542D01*
X547370Y933813D01*
X544972Y931918D01*
X542704Y929868D01*
X540580Y927671D01*
X538606Y925337D01*
X536793Y922875D01*
X535150Y920300D01*
X533679Y917620D01*
X532394Y914847D01*
X531294Y911994D01*
X530390Y909076D01*
X529681Y906104D01*
X529173Y903089D01*
X528866Y900048D01*
X528764Y896993D01*
X528866Y893937D01*
X529173Y890897D01*
X529681Y887882D01*
X530390Y884910D01*
X531294Y881992D01*
X532394Y879139D01*
X533679Y876366D01*
X535150Y873686D01*
X536793Y871110D01*
X538606Y868649D01*
X540580Y866315D01*
X542704Y864118D01*
X544972Y862068D01*
X547370Y860173D01*
X549889Y858443D01*
X552521Y856886D01*
X555249Y855507D01*
X558063Y854313D01*
X560948Y853310D01*
X563897Y852505D01*
X566892Y851895D01*
X569922Y851486D01*
G37*
G36*
X828568Y857587D02*
G01*
X831626Y857587D01*
X834674Y857791D01*
X837704Y858199D01*
X840699Y858809D01*
X843648Y859614D01*
X846533Y860618D01*
X849348Y861811D01*
X852076Y863191D01*
X854707Y864748D01*
X857227Y866477D01*
X859624Y868372D01*
X861893Y870422D01*
X864016Y872619D01*
X865990Y874953D01*
X867803Y877415D01*
X869447Y879990D01*
X870917Y882670D01*
X872202Y885444D01*
X873302Y888296D01*
X874207Y891214D01*
X874915Y894186D01*
X875423Y897201D01*
X875731Y900242D01*
X875832Y903297D01*
X875731Y906353D01*
X875423Y909393D01*
X874915Y912408D01*
X874207Y915380D01*
X873302Y918298D01*
X872202Y921151D01*
X870917Y923925D01*
X869447Y926604D01*
X867803Y929180D01*
X865990Y931641D01*
X864016Y933975D01*
X861893Y936172D01*
X859624Y938222D01*
X857227Y940117D01*
X854707Y941847D01*
X852076Y943404D01*
X849348Y944783D01*
X846533Y945977D01*
X843648Y946980D01*
X840699Y947785D01*
X837704Y948395D01*
X834674Y948804D01*
X831626Y949007D01*
X828568Y949007D01*
X825520Y948804D01*
X822490Y948395D01*
X819495Y947785D01*
X816546Y946980D01*
X813661Y945977D01*
X810846Y944783D01*
X808118Y943404D01*
X805487Y941847D01*
X802967Y940117D01*
X800569Y938222D01*
X798301Y936172D01*
X796178Y933975D01*
X794204Y931641D01*
X792391Y929180D01*
X790747Y926604D01*
X789277Y923925D01*
X787991Y921151D01*
X786891Y918298D01*
X785987Y915380D01*
X785279Y912408D01*
X784771Y909393D01*
X784463Y906353D01*
X784362Y903297D01*
X784463Y900242D01*
X784771Y897201D01*
X785279Y894186D01*
X785987Y891214D01*
X786891Y888296D01*
X787991Y885444D01*
X789277Y882670D01*
X790747Y879990D01*
X792391Y877415D01*
X794204Y874953D01*
X796178Y872619D01*
X798301Y870422D01*
X800569Y868372D01*
X802967Y866477D01*
X805487Y864748D01*
X808118Y863191D01*
X810846Y861811D01*
X813661Y860618D01*
X816546Y859614D01*
X819495Y858809D01*
X822490Y858199D01*
X825520Y857791D01*
G37*
G36*
X1366768Y862088D02*
G01*
X1369827Y862088D01*
X1372875Y862291D01*
X1375905Y862700D01*
X1378899Y863310D01*
X1381848Y864115D01*
X1384734Y865118D01*
X1387548Y866312D01*
X1390276Y867691D01*
X1392908Y869248D01*
X1395427Y870978D01*
X1397825Y872873D01*
X1400093Y874923D01*
X1402217Y877120D01*
X1404190Y879454D01*
X1406004Y881915D01*
X1407647Y884491D01*
X1409118Y887171D01*
X1410403Y889944D01*
X1411503Y892797D01*
X1412407Y895715D01*
X1413116Y898687D01*
X1413624Y901702D01*
X1413931Y904742D01*
X1414033Y907798D01*
X1413931Y910854D01*
X1413624Y913894D01*
X1413116Y916909D01*
X1412407Y919881D01*
X1411503Y922799D01*
X1410403Y925652D01*
X1409118Y928425D01*
X1407647Y931105D01*
X1406004Y933681D01*
X1404190Y936142D01*
X1402217Y938476D01*
X1400093Y940673D01*
X1397825Y942723D01*
X1395427Y944618D01*
X1392908Y946348D01*
X1390276Y947905D01*
X1387548Y949284D01*
X1384734Y950478D01*
X1381848Y951481D01*
X1378899Y952286D01*
X1375905Y952896D01*
X1372875Y953305D01*
X1369827Y953508D01*
X1366768Y953508D01*
X1363720Y953305D01*
X1360690Y952896D01*
X1357696Y952286D01*
X1354747Y951481D01*
X1351861Y950478D01*
X1349047Y949284D01*
X1346319Y947905D01*
X1343687Y946348D01*
X1341168Y944618D01*
X1338770Y942723D01*
X1336502Y940673D01*
X1334378Y938476D01*
X1332405Y936142D01*
X1330591Y933681D01*
X1328948Y931105D01*
X1327477Y928425D01*
X1326192Y925652D01*
X1325092Y922799D01*
X1324188Y919881D01*
X1323479Y916909D01*
X1322971Y913894D01*
X1322664Y910854D01*
X1322562Y907798D01*
X1322664Y904742D01*
X1322971Y901702D01*
X1323479Y898687D01*
X1324188Y895715D01*
X1325092Y892797D01*
X1326192Y889944D01*
X1327477Y887171D01*
X1328948Y884491D01*
X1330591Y881915D01*
X1332405Y879454D01*
X1334378Y877120D01*
X1336502Y874923D01*
X1338770Y872873D01*
X1341168Y870978D01*
X1343687Y869248D01*
X1346319Y867691D01*
X1349047Y866312D01*
X1351861Y865118D01*
X1354747Y864115D01*
X1357696Y863310D01*
X1360690Y862700D01*
X1363720Y862291D01*
G37*
G36*
X2319855Y897790D02*
G01*
X2322913Y897790D01*
X2325961Y897994D01*
X2328992Y898403D01*
X2331986Y899012D01*
X2334935Y899817D01*
X2337821Y900821D01*
X2340635Y902014D01*
X2343363Y903394D01*
X2345994Y904951D01*
X2348514Y906680D01*
X2350912Y908575D01*
X2353180Y910625D01*
X2355303Y912822D01*
X2357277Y915156D01*
X2359091Y917618D01*
X2360734Y920193D01*
X2362205Y922873D01*
X2363490Y925647D01*
X2364590Y928499D01*
X2365494Y931418D01*
X2366203Y934389D01*
X2366711Y937404D01*
X2367018Y940445D01*
X2367119Y943500D01*
X2367018Y946556D01*
X2366711Y949596D01*
X2366203Y952611D01*
X2365494Y955583D01*
X2364590Y958502D01*
X2363490Y961354D01*
X2362205Y964128D01*
X2360734Y966807D01*
X2359091Y969383D01*
X2357277Y971844D01*
X2355303Y974178D01*
X2353180Y976376D01*
X2350912Y978425D01*
X2348514Y980320D01*
X2345994Y982050D01*
X2343363Y983607D01*
X2340635Y984986D01*
X2337821Y986180D01*
X2334935Y987183D01*
X2331986Y987988D01*
X2328992Y988598D01*
X2325961Y989007D01*
X2322913Y989210D01*
X2319855Y989210D01*
X2316807Y989007D01*
X2313777Y988598D01*
X2310782Y987988D01*
X2307833Y987183D01*
X2304948Y986180D01*
X2302134Y984986D01*
X2299406Y983607D01*
X2296774Y982050D01*
X2294254Y980320D01*
X2291857Y978425D01*
X2289589Y976376D01*
X2287465Y974178D01*
X2285491Y971844D01*
X2283678Y969383D01*
X2282035Y966807D01*
X2280564Y964128D01*
X2279279Y961354D01*
X2278179Y958502D01*
X2277275Y955583D01*
X2276566Y952611D01*
X2276058Y949596D01*
X2275751Y946556D01*
X2275649Y943500D01*
X2275751Y940445D01*
X2276058Y937404D01*
X2276566Y934389D01*
X2277275Y931418D01*
X2278179Y928499D01*
X2279279Y925647D01*
X2280564Y922873D01*
X2282035Y920193D01*
X2283678Y917618D01*
X2285491Y915156D01*
X2287465Y912822D01*
X2289589Y910625D01*
X2291857Y908575D01*
X2294254Y906680D01*
X2296774Y904951D01*
X2299406Y903394D01*
X2302134Y902014D01*
X2304948Y900821D01*
X2307833Y899817D01*
X2310782Y899012D01*
X2313777Y898403D01*
X2316807Y897994D01*
G37*
G36*
X1657677Y945492D02*
G01*
X1660735Y945492D01*
X1663783Y945695D01*
X1666814Y946104D01*
X1669808Y946713D01*
X1672757Y947519D01*
X1675643Y948522D01*
X1678457Y949716D01*
X1681185Y951095D01*
X1683816Y952652D01*
X1686336Y954382D01*
X1688734Y956276D01*
X1691002Y958326D01*
X1693125Y960523D01*
X1695099Y962858D01*
X1696913Y965319D01*
X1698556Y967894D01*
X1700027Y970574D01*
X1701312Y973348D01*
X1702412Y976200D01*
X1703316Y979119D01*
X1704025Y982090D01*
X1704533Y985105D01*
X1704840Y988146D01*
X1704941Y991201D01*
X1704840Y994257D01*
X1704533Y997297D01*
X1704025Y1000312D01*
X1703316Y1003284D01*
X1702412Y1006203D01*
X1701312Y1009055D01*
X1700027Y1011829D01*
X1698556Y1014509D01*
X1696913Y1017084D01*
X1695099Y1019545D01*
X1693125Y1021880D01*
X1691002Y1024077D01*
X1688734Y1026126D01*
X1686336Y1028021D01*
X1683816Y1029751D01*
X1681185Y1031308D01*
X1678457Y1032687D01*
X1675643Y1033881D01*
X1672757Y1034884D01*
X1669808Y1035690D01*
X1666814Y1036299D01*
X1663783Y1036708D01*
X1660735Y1036911D01*
X1657677Y1036911D01*
X1654629Y1036708D01*
X1651599Y1036299D01*
X1648604Y1035690D01*
X1645655Y1034884D01*
X1642770Y1033881D01*
X1639956Y1032687D01*
X1637228Y1031308D01*
X1634596Y1029751D01*
X1632077Y1028021D01*
X1629679Y1026126D01*
X1627411Y1024077D01*
X1625287Y1021880D01*
X1623313Y1019545D01*
X1621500Y1017084D01*
X1619857Y1014509D01*
X1618386Y1011829D01*
X1617101Y1009055D01*
X1616001Y1006203D01*
X1615097Y1003284D01*
X1614388Y1000312D01*
X1613880Y997297D01*
X1613573Y994257D01*
X1613471Y991201D01*
X1613573Y988146D01*
X1613880Y985105D01*
X1614388Y982090D01*
X1615097Y979119D01*
X1616001Y976200D01*
X1617101Y973348D01*
X1618386Y970574D01*
X1619857Y967894D01*
X1621500Y965319D01*
X1623313Y962858D01*
X1625287Y960523D01*
X1627411Y958326D01*
X1629679Y956276D01*
X1632077Y954382D01*
X1634596Y952652D01*
X1637228Y951095D01*
X1639956Y949716D01*
X1642770Y948522D01*
X1645655Y947519D01*
X1648604Y946713D01*
X1651599Y946104D01*
X1654629Y945695D01*
G37*
G36*
X-909068Y965964D02*
G01*
X-906010Y965964D01*
X-902962Y966167D01*
X-899932Y966576D01*
X-896937Y967186D01*
X-893988Y967991D01*
X-891103Y968994D01*
X-888288Y970188D01*
X-885560Y971567D01*
X-882929Y973124D01*
X-880409Y974854D01*
X-878011Y976749D01*
X-875743Y978799D01*
X-873620Y980996D01*
X-871646Y983330D01*
X-869833Y985791D01*
X-868189Y988367D01*
X-866719Y991047D01*
X-865433Y993820D01*
X-864334Y996673D01*
X-863429Y999591D01*
X-862721Y1002563D01*
X-862213Y1005578D01*
X-861905Y1008618D01*
X-861804Y1011674D01*
X-861905Y1014730D01*
X-862213Y1017770D01*
X-862721Y1020785D01*
X-863429Y1023757D01*
X-864334Y1026675D01*
X-865433Y1029528D01*
X-866719Y1032301D01*
X-868189Y1034981D01*
X-869833Y1037556D01*
X-871646Y1040018D01*
X-873620Y1042352D01*
X-875743Y1044549D01*
X-878011Y1046599D01*
X-880409Y1048494D01*
X-882929Y1050223D01*
X-885560Y1051780D01*
X-888288Y1053160D01*
X-891103Y1054354D01*
X-893988Y1055357D01*
X-896937Y1056162D01*
X-899932Y1056772D01*
X-902962Y1057181D01*
X-906010Y1057384D01*
X-909068Y1057384D01*
X-912116Y1057181D01*
X-915146Y1056772D01*
X-918141Y1056162D01*
X-921090Y1055357D01*
X-923975Y1054354D01*
X-926790Y1053160D01*
X-929518Y1051780D01*
X-932149Y1050223D01*
X-934669Y1048494D01*
X-937066Y1046599D01*
X-939335Y1044549D01*
X-941458Y1042352D01*
X-943432Y1040018D01*
X-945245Y1037556D01*
X-946889Y1034981D01*
X-948359Y1032301D01*
X-949645Y1029528D01*
X-950744Y1026675D01*
X-951649Y1023757D01*
X-952357Y1020785D01*
X-952865Y1017770D01*
X-953173Y1014730D01*
X-953274Y1011674D01*
X-953173Y1008618D01*
X-952865Y1005578D01*
X-952357Y1002563D01*
X-951649Y999591D01*
X-950744Y996673D01*
X-949645Y993820D01*
X-948359Y991047D01*
X-946889Y988367D01*
X-945245Y985791D01*
X-943432Y983330D01*
X-941458Y980996D01*
X-939335Y978799D01*
X-937066Y976749D01*
X-934669Y974854D01*
X-932149Y973124D01*
X-929518Y971567D01*
X-926790Y970188D01*
X-923975Y968994D01*
X-921090Y967991D01*
X-918141Y967186D01*
X-915146Y966576D01*
X-912116Y966167D01*
G37*
G36*
X832482Y1003683D02*
G01*
X835540Y1003683D01*
X838588Y1003886D01*
X841618Y1004295D01*
X844613Y1004905D01*
X847562Y1005710D01*
X850447Y1006713D01*
X853262Y1007907D01*
X855990Y1009286D01*
X858621Y1010843D01*
X861141Y1012573D01*
X863539Y1014468D01*
X865807Y1016518D01*
X867930Y1018715D01*
X869904Y1021049D01*
X871717Y1023510D01*
X873361Y1026086D01*
X874831Y1028766D01*
X876117Y1031539D01*
X877216Y1034392D01*
X878121Y1037310D01*
X878829Y1040282D01*
X879337Y1043297D01*
X879645Y1046337D01*
X879746Y1049393D01*
X879645Y1052448D01*
X879337Y1055489D01*
X878829Y1058504D01*
X878121Y1061476D01*
X877216Y1064394D01*
X876117Y1067247D01*
X874831Y1070020D01*
X873361Y1072700D01*
X871717Y1075275D01*
X869904Y1077737D01*
X867930Y1080071D01*
X865807Y1082268D01*
X863539Y1084318D01*
X861141Y1086213D01*
X858621Y1087942D01*
X855990Y1089499D01*
X853262Y1090879D01*
X850447Y1092072D01*
X847562Y1093076D01*
X844613Y1093881D01*
X841618Y1094491D01*
X838588Y1094900D01*
X835540Y1095103D01*
X832482Y1095103D01*
X829434Y1094900D01*
X826404Y1094491D01*
X823409Y1093881D01*
X820460Y1093076D01*
X817575Y1092072D01*
X814760Y1090879D01*
X812032Y1089499D01*
X809401Y1087942D01*
X806881Y1086213D01*
X804484Y1084318D01*
X802215Y1082268D01*
X800092Y1080071D01*
X798118Y1077737D01*
X796305Y1075275D01*
X794661Y1072700D01*
X793191Y1070020D01*
X791905Y1067247D01*
X790806Y1064394D01*
X789901Y1061476D01*
X789193Y1058504D01*
X788685Y1055489D01*
X788377Y1052448D01*
X788276Y1049393D01*
X788377Y1046337D01*
X788685Y1043297D01*
X789193Y1040282D01*
X789901Y1037310D01*
X790806Y1034392D01*
X791905Y1031539D01*
X793191Y1028766D01*
X794661Y1026086D01*
X796305Y1023510D01*
X798118Y1021049D01*
X800092Y1018715D01*
X802215Y1016518D01*
X804484Y1014468D01*
X806881Y1012573D01*
X809401Y1010843D01*
X812032Y1009286D01*
X814760Y1007907D01*
X817575Y1006713D01*
X820460Y1005710D01*
X823409Y1004905D01*
X826404Y1004295D01*
X829434Y1003886D01*
G37*
G36*
X1586735Y1043180D02*
G01*
X1589793Y1043180D01*
X1592841Y1043383D01*
X1595871Y1043792D01*
X1598866Y1044402D01*
X1601815Y1045207D01*
X1604700Y1046210D01*
X1607515Y1047404D01*
X1610243Y1048783D01*
X1612874Y1050340D01*
X1615394Y1052070D01*
X1617792Y1053965D01*
X1620060Y1056015D01*
X1622183Y1058212D01*
X1624157Y1060546D01*
X1625970Y1063007D01*
X1627614Y1065583D01*
X1629084Y1068263D01*
X1630370Y1071036D01*
X1631469Y1073889D01*
X1632374Y1076807D01*
X1633082Y1079779D01*
X1633590Y1082794D01*
X1633898Y1085834D01*
X1633999Y1088890D01*
X1633898Y1091946D01*
X1633590Y1094986D01*
X1633082Y1098001D01*
X1632374Y1100973D01*
X1631469Y1103891D01*
X1630370Y1106744D01*
X1629084Y1109517D01*
X1627614Y1112197D01*
X1625970Y1114772D01*
X1624157Y1117234D01*
X1622183Y1119568D01*
X1620060Y1121765D01*
X1617792Y1123815D01*
X1615394Y1125710D01*
X1612874Y1127439D01*
X1610243Y1128996D01*
X1607515Y1130376D01*
X1604700Y1131570D01*
X1601815Y1132573D01*
X1598866Y1133378D01*
X1595871Y1133988D01*
X1592841Y1134397D01*
X1589793Y1134600D01*
X1586735Y1134600D01*
X1583687Y1134397D01*
X1580657Y1133988D01*
X1577662Y1133378D01*
X1574713Y1132573D01*
X1571828Y1131570D01*
X1569013Y1130376D01*
X1566285Y1128996D01*
X1563654Y1127439D01*
X1561134Y1125710D01*
X1558737Y1123815D01*
X1556468Y1121765D01*
X1554345Y1119568D01*
X1552371Y1117234D01*
X1550558Y1114772D01*
X1548914Y1112197D01*
X1547444Y1109517D01*
X1546158Y1106744D01*
X1545059Y1103891D01*
X1544154Y1100973D01*
X1543446Y1098001D01*
X1542938Y1094986D01*
X1542630Y1091946D01*
X1542529Y1088890D01*
X1542630Y1085834D01*
X1542938Y1082794D01*
X1543446Y1079779D01*
X1544154Y1076807D01*
X1545059Y1073889D01*
X1546158Y1071036D01*
X1547444Y1068263D01*
X1548914Y1065583D01*
X1550558Y1063007D01*
X1552371Y1060546D01*
X1554345Y1058212D01*
X1556468Y1056015D01*
X1558737Y1053965D01*
X1561134Y1052070D01*
X1563654Y1050340D01*
X1566285Y1048783D01*
X1569013Y1047404D01*
X1571828Y1046210D01*
X1574713Y1045207D01*
X1577662Y1044402D01*
X1580657Y1043792D01*
X1583687Y1043383D01*
G37*
G36*
X1484957Y1124409D02*
G01*
X1488015Y1124409D01*
X1491063Y1124612D01*
X1494094Y1125021D01*
X1497088Y1125631D01*
X1500037Y1126436D01*
X1502923Y1127439D01*
X1505737Y1128633D01*
X1508465Y1130012D01*
X1511096Y1131570D01*
X1513616Y1133299D01*
X1516014Y1135194D01*
X1518282Y1137244D01*
X1520405Y1139441D01*
X1522379Y1141775D01*
X1524193Y1144236D01*
X1525836Y1146812D01*
X1527307Y1149492D01*
X1528592Y1152265D01*
X1529692Y1155118D01*
X1530596Y1158036D01*
X1531305Y1161008D01*
X1531813Y1164023D01*
X1532120Y1167063D01*
X1532221Y1170119D01*
X1532120Y1173175D01*
X1531813Y1176215D01*
X1531305Y1179230D01*
X1530596Y1182202D01*
X1529692Y1185120D01*
X1528592Y1187973D01*
X1527307Y1190746D01*
X1525836Y1193426D01*
X1524193Y1196002D01*
X1522379Y1198463D01*
X1520405Y1200797D01*
X1518282Y1202994D01*
X1516014Y1205044D01*
X1513616Y1206939D01*
X1511096Y1208669D01*
X1508465Y1210226D01*
X1505737Y1211605D01*
X1502923Y1212799D01*
X1500037Y1213802D01*
X1497088Y1214607D01*
X1494094Y1215217D01*
X1491063Y1215626D01*
X1488015Y1215829D01*
X1484957Y1215829D01*
X1481909Y1215626D01*
X1478879Y1215217D01*
X1475884Y1214607D01*
X1472935Y1213802D01*
X1470050Y1212799D01*
X1467236Y1211605D01*
X1464508Y1210226D01*
X1461876Y1208669D01*
X1459356Y1206939D01*
X1456959Y1205044D01*
X1454691Y1202994D01*
X1452567Y1200797D01*
X1450593Y1198463D01*
X1448780Y1196002D01*
X1447137Y1193426D01*
X1445666Y1190746D01*
X1444381Y1187973D01*
X1443281Y1185120D01*
X1442377Y1182202D01*
X1441668Y1179230D01*
X1441160Y1176215D01*
X1440853Y1173175D01*
X1440751Y1170119D01*
X1440853Y1167063D01*
X1441160Y1164023D01*
X1441668Y1161008D01*
X1442377Y1158036D01*
X1443281Y1155118D01*
X1444381Y1152265D01*
X1445666Y1149492D01*
X1447137Y1146812D01*
X1448780Y1144236D01*
X1450593Y1141775D01*
X1452567Y1139441D01*
X1454691Y1137244D01*
X1456959Y1135194D01*
X1459356Y1133299D01*
X1461876Y1131570D01*
X1464508Y1130012D01*
X1467236Y1128633D01*
X1470050Y1127439D01*
X1472935Y1126436D01*
X1475884Y1125631D01*
X1478879Y1125021D01*
X1481909Y1124612D01*
G37*
G36*
X872970Y1127889D02*
G01*
X876028Y1127889D01*
X879076Y1128092D01*
X882106Y1128501D01*
X885101Y1129111D01*
X888050Y1129916D01*
X890935Y1130919D01*
X893749Y1132113D01*
X896477Y1133492D01*
X899109Y1135049D01*
X901628Y1136779D01*
X904026Y1138674D01*
X906294Y1140724D01*
X908418Y1142921D01*
X910391Y1145255D01*
X912205Y1147716D01*
X913848Y1150292D01*
X915319Y1152972D01*
X916604Y1155745D01*
X917704Y1158598D01*
X918608Y1161516D01*
X919317Y1164488D01*
X919825Y1167503D01*
X920132Y1170543D01*
X920234Y1173599D01*
X920132Y1176655D01*
X919825Y1179695D01*
X919317Y1182710D01*
X918608Y1185682D01*
X917704Y1188600D01*
X916604Y1191453D01*
X915319Y1194226D01*
X913848Y1196906D01*
X912205Y1199481D01*
X910391Y1201943D01*
X908418Y1204277D01*
X906294Y1206474D01*
X904026Y1208524D01*
X901628Y1210419D01*
X899109Y1212148D01*
X896477Y1213705D01*
X893749Y1215085D01*
X890935Y1216279D01*
X888050Y1217282D01*
X885101Y1218087D01*
X882106Y1218697D01*
X879076Y1219106D01*
X876028Y1219309D01*
X872970Y1219309D01*
X869922Y1219106D01*
X866891Y1218697D01*
X863897Y1218087D01*
X860948Y1217282D01*
X858062Y1216279D01*
X855248Y1215085D01*
X852520Y1213705D01*
X849889Y1212148D01*
X847369Y1210419D01*
X844971Y1208524D01*
X842703Y1206474D01*
X840579Y1204277D01*
X838606Y1201943D01*
X836792Y1199481D01*
X835149Y1196906D01*
X833678Y1194226D01*
X832393Y1191453D01*
X831293Y1188600D01*
X830389Y1185682D01*
X829680Y1182710D01*
X829172Y1179695D01*
X828865Y1176655D01*
X828763Y1173599D01*
X828865Y1170543D01*
X829172Y1167503D01*
X829680Y1164488D01*
X830389Y1161516D01*
X831293Y1158598D01*
X832393Y1155745D01*
X833678Y1152972D01*
X835149Y1150292D01*
X836792Y1147716D01*
X838606Y1145255D01*
X840579Y1142921D01*
X842703Y1140724D01*
X844971Y1138674D01*
X847369Y1136779D01*
X849889Y1135049D01*
X852520Y1133492D01*
X855248Y1132113D01*
X858062Y1130919D01*
X860948Y1129916D01*
X863897Y1129111D01*
X866891Y1128501D01*
X869922Y1128092D01*
G37*
G36*
X1823057Y1194450D02*
G01*
X1826427Y1194501D01*
X1828492Y1194658D01*
X1814692Y1222954D01*
X1786371Y1209141D01*
X1788886Y1206952D01*
X1791558Y1204897D01*
X1794349Y1203007D01*
X1797250Y1201293D01*
X1800252Y1199758D01*
X1803341Y1198410D01*
X1806506Y1197251D01*
X1809734Y1196289D01*
X1813016Y1195524D01*
X1816341Y1194963D01*
X1819691Y1194602D01*
G37*
G36*
X1864446Y1212187D02*
G01*
X1865000Y1212766D01*
X1867174Y1215341D01*
X1869188Y1218044D01*
X1871035Y1220863D01*
X1872706Y1223789D01*
X1874194Y1226814D01*
X1875495Y1229921D01*
X1876605Y1233103D01*
X1877519Y1236347D01*
X1878233Y1239641D01*
X1878744Y1242974D01*
X1879053Y1246329D01*
X1879155Y1249697D01*
X1879053Y1253065D01*
X1878939Y1254290D01*
X1850643Y1240490D01*
G37*
G36*
X-1210447Y1230881D02*
G01*
X-1110447Y1230881D01*
X-1110079Y1230886D01*
X-1107089Y1230960D01*
X-1106337Y1230995D01*
X-1103353Y1231219D01*
X-1102601Y1231295D01*
X-1099632Y1231668D01*
X-1098905Y1231778D01*
X-1095959Y1232296D01*
X-1095220Y1232446D01*
X-1092304Y1233111D01*
X-1091580Y1233296D01*
X-1088699Y1234107D01*
X-1087970Y1234330D01*
X-1085136Y1235285D01*
X-1084452Y1235534D01*
X-1081666Y1236626D01*
X-1080973Y1236919D01*
X-1078247Y1238148D01*
X-1077564Y1238478D01*
X-1074902Y1239845D01*
X-1074252Y1240198D01*
X-1071661Y1241694D01*
X-1071026Y1242082D01*
X-1068511Y1243705D01*
X-1067892Y1244127D01*
X-1065463Y1245872D01*
X-1064869Y1246322D01*
X-1062530Y1248186D01*
X-1061948Y1248676D01*
X-1059705Y1250657D01*
X-1059164Y1251158D01*
X-1057023Y1253246D01*
X-1056495Y1253789D01*
X-1054460Y1255984D01*
X-1053970Y1256538D01*
X-1052047Y1258829D01*
X-1051585Y1259410D01*
X-1049776Y1261795D01*
X-1049332Y1262410D01*
X-1047648Y1264881D01*
X-1047244Y1265509D01*
X-1045684Y1268061D01*
X-1045316Y1268699D01*
X-1043884Y1271325D01*
X-1043536Y1272004D01*
X-1042238Y1274701D01*
X-1041930Y1275382D01*
X-1040770Y1278138D01*
X-1040498Y1278831D01*
X-1039474Y1281643D01*
X-1039235Y1282352D01*
X-1038354Y1285209D01*
X-1038153Y1285928D01*
X-1037414Y1288829D01*
X-1037247Y1289563D01*
X-1036655Y1292494D01*
X-1036525Y1293223D01*
X-1036078Y1296182D01*
X-1035984Y1296931D01*
X-1035687Y1299908D01*
X-1035631Y1300647D01*
X-1035481Y1303634D01*
X-1035464Y1304386D01*
X-1035464Y1307378D01*
X-1035481Y1308130D01*
X-1035631Y1311117D01*
X-1035687Y1311856D01*
X-1035984Y1314833D01*
X-1036078Y1315582D01*
X-1036525Y1318541D01*
X-1036655Y1319270D01*
X-1037247Y1322202D01*
X-1037414Y1322936D01*
X-1038153Y1325836D01*
X-1038354Y1326555D01*
X-1039235Y1329413D01*
X-1039474Y1330121D01*
X-1040498Y1332933D01*
X-1040770Y1333627D01*
X-1041930Y1336382D01*
X-1042238Y1337063D01*
X-1043536Y1339761D01*
X-1043884Y1340439D01*
X-1045316Y1343065D01*
X-1045684Y1343703D01*
X-1047244Y1346255D01*
X-1047648Y1346883D01*
X-1049332Y1349354D01*
X-1049776Y1349969D01*
X-1051585Y1352354D01*
X-1052047Y1352936D01*
X-1053970Y1355227D01*
X-1054460Y1355780D01*
X-1056495Y1357975D01*
X-1057023Y1358519D01*
X-1059164Y1360606D01*
X-1059705Y1361107D01*
X-1061948Y1363088D01*
X-1062530Y1363578D01*
X-1064869Y1365443D01*
X-1065463Y1365892D01*
X-1067892Y1367637D01*
X-1068511Y1368059D01*
X-1071026Y1369682D01*
X-1071661Y1370070D01*
X-1074252Y1371566D01*
X-1074902Y1371920D01*
X-1077564Y1373286D01*
X-1078247Y1373616D01*
X-1080973Y1374846D01*
X-1081666Y1375138D01*
X-1084452Y1376230D01*
X-1085136Y1376479D01*
X-1087970Y1377434D01*
X-1088699Y1377657D01*
X-1091580Y1378468D01*
X-1092304Y1378653D01*
X-1095220Y1379319D01*
X-1095959Y1379468D01*
X-1098905Y1379987D01*
X-1099632Y1380096D01*
X-1102601Y1380469D01*
X-1103353Y1380545D01*
X-1106337Y1380769D01*
X-1107089Y1380804D01*
X-1110079Y1380878D01*
X-1110447Y1380883D01*
X-1210447Y1380883D01*
X-1210815Y1380878D01*
X-1213805Y1380804D01*
X-1214556Y1380769D01*
X-1217541Y1380545D01*
X-1218293Y1380469D01*
X-1221262Y1380096D01*
X-1221988Y1379987D01*
X-1224935Y1379468D01*
X-1225674Y1379319D01*
X-1228590Y1378653D01*
X-1229314Y1378468D01*
X-1232194Y1377657D01*
X-1232923Y1377434D01*
X-1235758Y1376479D01*
X-1236441Y1376230D01*
X-1239227Y1375138D01*
X-1239921Y1374846D01*
X-1242646Y1373616D01*
X-1243329Y1373286D01*
X-1245991Y1371920D01*
X-1246642Y1371566D01*
X-1249232Y1370070D01*
X-1249867Y1369682D01*
X-1252382Y1368059D01*
X-1253002Y1367637D01*
X-1255430Y1365892D01*
X-1256024Y1365443D01*
X-1258364Y1363578D01*
X-1258945Y1363088D01*
X-1261188Y1361107D01*
X-1261729Y1360606D01*
X-1263870Y1358519D01*
X-1264399Y1357975D01*
X-1266433Y1355780D01*
X-1266924Y1355227D01*
X-1268846Y1352936D01*
X-1269309Y1352354D01*
X-1271117Y1349969D01*
X-1271562Y1349354D01*
X-1273246Y1346883D01*
X-1273649Y1346255D01*
X-1275209Y1343703D01*
X-1275577Y1343065D01*
X-1277010Y1340439D01*
X-1277358Y1339761D01*
X-1278656Y1337063D01*
X-1278963Y1336382D01*
X-1280124Y1333627D01*
X-1280396Y1332933D01*
X-1281419Y1330121D01*
X-1281658Y1329413D01*
X-1282539Y1326555D01*
X-1282740Y1325836D01*
X-1283479Y1322936D01*
X-1283647Y1322202D01*
X-1284239Y1319270D01*
X-1284368Y1318541D01*
X-1284815Y1315582D01*
X-1284909Y1314833D01*
X-1285206Y1311856D01*
X-1285262Y1311117D01*
X-1285412Y1308130D01*
X-1285430Y1307378D01*
X-1285430Y1304386D01*
X-1285412Y1303634D01*
X-1285262Y1300647D01*
X-1285206Y1299908D01*
X-1284909Y1296931D01*
X-1284815Y1296182D01*
X-1284368Y1293223D01*
X-1284239Y1292494D01*
X-1283647Y1289563D01*
X-1283479Y1288829D01*
X-1282740Y1285928D01*
X-1282539Y1285209D01*
X-1281658Y1282352D01*
X-1281419Y1281643D01*
X-1280396Y1278831D01*
X-1280124Y1278138D01*
X-1278963Y1275382D01*
X-1278656Y1274701D01*
X-1277358Y1272004D01*
X-1277010Y1271325D01*
X-1275577Y1268699D01*
X-1275209Y1268061D01*
X-1273649Y1265509D01*
X-1273246Y1264881D01*
X-1271562Y1262410D01*
X-1271117Y1261795D01*
X-1269309Y1259410D01*
X-1268846Y1258829D01*
X-1266924Y1256538D01*
X-1266433Y1255984D01*
X-1264399Y1253789D01*
X-1263870Y1253246D01*
X-1261729Y1251158D01*
X-1261188Y1250657D01*
X-1258945Y1248676D01*
X-1258364Y1248186D01*
X-1256024Y1246322D01*
X-1255430Y1245872D01*
X-1253002Y1244127D01*
X-1252382Y1243705D01*
X-1249867Y1242082D01*
X-1249232Y1241694D01*
X-1246642Y1240198D01*
X-1245991Y1239845D01*
X-1243329Y1238478D01*
X-1242646Y1238148D01*
X-1239921Y1236919D01*
X-1239227Y1236626D01*
X-1236441Y1235534D01*
X-1235758Y1235285D01*
X-1232923Y1234330D01*
X-1232194Y1234107D01*
X-1229314Y1233296D01*
X-1228590Y1233111D01*
X-1225674Y1232446D01*
X-1224935Y1232296D01*
X-1221988Y1231778D01*
X-1221262Y1231668D01*
X-1218293Y1231295D01*
X-1217541Y1231219D01*
X-1214556Y1230995D01*
X-1213805Y1230960D01*
X-1210815Y1230886D01*
G37*
G36*
X1768848Y1245100D02*
G01*
X1797156Y1258905D01*
X1783354Y1287208D01*
X1781693Y1285359D01*
X1779597Y1282717D01*
X1777667Y1279956D01*
X1775907Y1277081D01*
X1774327Y1274104D01*
X1772932Y1271036D01*
X1771726Y1267891D01*
X1770712Y1264676D01*
X1769899Y1261404D01*
X1769285Y1258092D01*
X1768876Y1254747D01*
X1768670Y1251381D01*
X1768670Y1248013D01*
G37*
G36*
X1833107Y1276441D02*
G01*
X1861403Y1290241D01*
X1860199Y1291356D01*
X1857593Y1293492D01*
X1854860Y1295463D01*
X1852013Y1297266D01*
X1849061Y1298892D01*
X1846013Y1300335D01*
X1842886Y1301587D01*
X1839688Y1302649D01*
X1836430Y1303512D01*
X1833125Y1304178D01*
X1829788Y1304637D01*
X1826427Y1304894D01*
X1823057Y1304945D01*
X1819691Y1304792D01*
X1819302Y1304749D01*
G37*
G36*
X-306504Y1298399D02*
G01*
X-303446Y1298399D01*
X-300398Y1298602D01*
X-297367Y1299011D01*
X-294373Y1299621D01*
X-291424Y1300426D01*
X-288538Y1301429D01*
X-285724Y1302623D01*
X-282996Y1304002D01*
X-280365Y1305560D01*
X-277845Y1307289D01*
X-275447Y1309184D01*
X-273179Y1311234D01*
X-271056Y1313431D01*
X-269082Y1315765D01*
X-267268Y1318226D01*
X-265625Y1320802D01*
X-264154Y1323482D01*
X-262869Y1326255D01*
X-261769Y1329108D01*
X-260865Y1332026D01*
X-260156Y1334998D01*
X-259648Y1338013D01*
X-259341Y1341053D01*
X-259240Y1344109D01*
X-259341Y1347165D01*
X-259648Y1350205D01*
X-260156Y1353220D01*
X-260865Y1356192D01*
X-261769Y1359110D01*
X-262869Y1361963D01*
X-264154Y1364736D01*
X-265625Y1367416D01*
X-267268Y1369992D01*
X-269082Y1372453D01*
X-271056Y1374787D01*
X-273179Y1376984D01*
X-275447Y1379034D01*
X-277845Y1380929D01*
X-280365Y1382659D01*
X-282996Y1384216D01*
X-285724Y1385595D01*
X-288538Y1386789D01*
X-291424Y1387792D01*
X-294373Y1388597D01*
X-297367Y1389207D01*
X-300398Y1389616D01*
X-303446Y1389819D01*
X-306504Y1389819D01*
X-309552Y1389616D01*
X-312582Y1389207D01*
X-315577Y1388597D01*
X-318526Y1387792D01*
X-321411Y1386789D01*
X-324225Y1385595D01*
X-326953Y1384216D01*
X-329585Y1382659D01*
X-332104Y1380929D01*
X-334502Y1379034D01*
X-336770Y1376984D01*
X-338894Y1374787D01*
X-340868Y1372453D01*
X-342681Y1369992D01*
X-344324Y1367416D01*
X-345795Y1364736D01*
X-347080Y1361963D01*
X-348180Y1359110D01*
X-349084Y1356192D01*
X-349793Y1353220D01*
X-350301Y1350205D01*
X-350608Y1347165D01*
X-350710Y1344109D01*
X-350608Y1341053D01*
X-350301Y1338013D01*
X-349793Y1334998D01*
X-349084Y1332026D01*
X-348180Y1329108D01*
X-347080Y1326255D01*
X-345795Y1323482D01*
X-344324Y1320802D01*
X-342681Y1318226D01*
X-340868Y1315765D01*
X-338894Y1313431D01*
X-336770Y1311234D01*
X-334502Y1309184D01*
X-332104Y1307289D01*
X-329585Y1305560D01*
X-326953Y1304002D01*
X-324225Y1302623D01*
X-321411Y1301429D01*
X-318526Y1300426D01*
X-315577Y1299621D01*
X-312582Y1299011D01*
X-309552Y1298602D01*
G37*
G36*
X1246197Y1346050D02*
G01*
X1249255Y1346050D01*
X1252303Y1346253D01*
X1255334Y1346662D01*
X1258328Y1347271D01*
X1261277Y1348077D01*
X1264163Y1349080D01*
X1266977Y1350274D01*
X1269705Y1351653D01*
X1272336Y1353210D01*
X1274856Y1354940D01*
X1277254Y1356834D01*
X1279522Y1358884D01*
X1281645Y1361081D01*
X1283619Y1363416D01*
X1285433Y1365877D01*
X1287076Y1368452D01*
X1288547Y1371132D01*
X1289832Y1373906D01*
X1290932Y1376758D01*
X1291836Y1379677D01*
X1292545Y1382648D01*
X1293053Y1385663D01*
X1293360Y1388704D01*
X1293461Y1391759D01*
X1293360Y1394815D01*
X1293053Y1397855D01*
X1292545Y1400870D01*
X1291836Y1403842D01*
X1290932Y1406761D01*
X1289832Y1409613D01*
X1288547Y1412387D01*
X1287076Y1415067D01*
X1285433Y1417642D01*
X1283619Y1420103D01*
X1281645Y1422438D01*
X1279522Y1424635D01*
X1277254Y1426684D01*
X1274856Y1428579D01*
X1272336Y1430309D01*
X1269705Y1431866D01*
X1266977Y1433245D01*
X1264163Y1434439D01*
X1261277Y1435442D01*
X1258328Y1436248D01*
X1255334Y1436857D01*
X1252303Y1437266D01*
X1249255Y1437469D01*
X1246197Y1437469D01*
X1243149Y1437266D01*
X1240119Y1436857D01*
X1237124Y1436248D01*
X1234175Y1435442D01*
X1231290Y1434439D01*
X1228476Y1433245D01*
X1225748Y1431866D01*
X1223116Y1430309D01*
X1220597Y1428579D01*
X1218199Y1426684D01*
X1215931Y1424635D01*
X1213807Y1422438D01*
X1211834Y1420103D01*
X1210020Y1417642D01*
X1208377Y1415067D01*
X1206906Y1412387D01*
X1205621Y1409613D01*
X1204521Y1406761D01*
X1203617Y1403842D01*
X1202908Y1400870D01*
X1202400Y1397855D01*
X1202093Y1394815D01*
X1201991Y1391759D01*
X1202093Y1388704D01*
X1202400Y1385663D01*
X1202908Y1382648D01*
X1203617Y1379677D01*
X1204521Y1376758D01*
X1205621Y1373906D01*
X1206906Y1371132D01*
X1208377Y1368452D01*
X1210020Y1365877D01*
X1211834Y1363416D01*
X1213807Y1361081D01*
X1215931Y1358884D01*
X1218199Y1356834D01*
X1220597Y1354940D01*
X1223116Y1353210D01*
X1225748Y1351653D01*
X1228476Y1350274D01*
X1231290Y1349080D01*
X1234175Y1348077D01*
X1237124Y1347271D01*
X1240119Y1346662D01*
X1243149Y1346253D01*
G37*
G36*
X1113279Y1354076D02*
G01*
X1116337Y1354076D01*
X1119385Y1354279D01*
X1122415Y1354688D01*
X1125410Y1355298D01*
X1128359Y1356103D01*
X1131244Y1357106D01*
X1134059Y1358300D01*
X1136787Y1359679D01*
X1139418Y1361236D01*
X1141938Y1362966D01*
X1144336Y1364861D01*
X1146604Y1366911D01*
X1148727Y1369108D01*
X1150701Y1371442D01*
X1152514Y1373903D01*
X1154158Y1376479D01*
X1155628Y1379159D01*
X1156914Y1381932D01*
X1158013Y1384785D01*
X1158918Y1387703D01*
X1159626Y1390675D01*
X1160134Y1393690D01*
X1160442Y1396730D01*
X1160543Y1399786D01*
X1160442Y1402842D01*
X1160134Y1405882D01*
X1159626Y1408897D01*
X1158918Y1411869D01*
X1158013Y1414787D01*
X1156914Y1417640D01*
X1155628Y1420413D01*
X1154158Y1423093D01*
X1152514Y1425668D01*
X1150701Y1428130D01*
X1148727Y1430464D01*
X1146604Y1432661D01*
X1144336Y1434711D01*
X1141938Y1436606D01*
X1139418Y1438335D01*
X1136787Y1439892D01*
X1134059Y1441272D01*
X1131244Y1442465D01*
X1128359Y1443469D01*
X1125410Y1444274D01*
X1122415Y1444884D01*
X1119385Y1445293D01*
X1116337Y1445496D01*
X1113279Y1445496D01*
X1110231Y1445293D01*
X1107201Y1444884D01*
X1104206Y1444274D01*
X1101257Y1443469D01*
X1098372Y1442465D01*
X1095557Y1441272D01*
X1092829Y1439892D01*
X1090198Y1438335D01*
X1087678Y1436606D01*
X1085281Y1434711D01*
X1083012Y1432661D01*
X1080889Y1430464D01*
X1078915Y1428130D01*
X1077102Y1425668D01*
X1075458Y1423093D01*
X1073988Y1420413D01*
X1072702Y1417640D01*
X1071603Y1414787D01*
X1070698Y1411869D01*
X1069990Y1408897D01*
X1069482Y1405882D01*
X1069174Y1402842D01*
X1069073Y1399786D01*
X1069174Y1396730D01*
X1069482Y1393690D01*
X1069990Y1390675D01*
X1070698Y1387703D01*
X1071603Y1384785D01*
X1072702Y1381932D01*
X1073988Y1379159D01*
X1075458Y1376479D01*
X1077102Y1373903D01*
X1078915Y1371442D01*
X1080889Y1369108D01*
X1083012Y1366911D01*
X1085281Y1364861D01*
X1087678Y1362966D01*
X1090198Y1361236D01*
X1092829Y1359679D01*
X1095557Y1358300D01*
X1098372Y1357106D01*
X1101257Y1356103D01*
X1104206Y1355298D01*
X1107201Y1354688D01*
X1110231Y1354279D01*
G37*
G36*
X-525198Y1383743D02*
G01*
X-522140Y1383743D01*
X-519092Y1383946D01*
X-516061Y1384355D01*
X-513067Y1384965D01*
X-510118Y1385770D01*
X-507232Y1386773D01*
X-504418Y1387967D01*
X-501690Y1389346D01*
X-499059Y1390904D01*
X-496539Y1392633D01*
X-494141Y1394528D01*
X-491873Y1396578D01*
X-489750Y1398775D01*
X-487776Y1401109D01*
X-485962Y1403570D01*
X-484319Y1406146D01*
X-482848Y1408826D01*
X-481563Y1411599D01*
X-480463Y1414452D01*
X-479559Y1417370D01*
X-478850Y1420342D01*
X-478342Y1423357D01*
X-478035Y1426397D01*
X-477934Y1429453D01*
X-478035Y1432509D01*
X-478342Y1435549D01*
X-478850Y1438564D01*
X-479559Y1441536D01*
X-480463Y1444454D01*
X-481563Y1447307D01*
X-482848Y1450080D01*
X-484319Y1452760D01*
X-485962Y1455336D01*
X-487776Y1457797D01*
X-489750Y1460131D01*
X-491873Y1462328D01*
X-494141Y1464378D01*
X-496539Y1466273D01*
X-499059Y1468003D01*
X-501690Y1469560D01*
X-504418Y1470939D01*
X-507232Y1472133D01*
X-510118Y1473136D01*
X-513067Y1473941D01*
X-516061Y1474551D01*
X-519092Y1474960D01*
X-522140Y1475163D01*
X-525198Y1475163D01*
X-528246Y1474960D01*
X-531276Y1474551D01*
X-534271Y1473941D01*
X-537220Y1473136D01*
X-540105Y1472133D01*
X-542919Y1470939D01*
X-545647Y1469560D01*
X-548279Y1468003D01*
X-550799Y1466273D01*
X-553196Y1464378D01*
X-555464Y1462328D01*
X-557588Y1460131D01*
X-559561Y1457797D01*
X-561375Y1455336D01*
X-563018Y1452760D01*
X-564489Y1450080D01*
X-565774Y1447307D01*
X-566874Y1444454D01*
X-567778Y1441536D01*
X-568487Y1438564D01*
X-568995Y1435549D01*
X-569302Y1432509D01*
X-569404Y1429453D01*
X-569302Y1426397D01*
X-568995Y1423357D01*
X-568487Y1420342D01*
X-567778Y1417370D01*
X-566874Y1414452D01*
X-565774Y1411599D01*
X-564489Y1408826D01*
X-563018Y1406146D01*
X-561375Y1403570D01*
X-559561Y1401109D01*
X-557588Y1398775D01*
X-555464Y1396578D01*
X-553196Y1394528D01*
X-550799Y1392633D01*
X-548279Y1390904D01*
X-545647Y1389346D01*
X-542919Y1387967D01*
X-540105Y1386773D01*
X-537220Y1385770D01*
X-534271Y1384965D01*
X-531276Y1384355D01*
X-528246Y1383946D01*
G37*
G36*
X1430373Y1447675D02*
G01*
X1433431Y1447675D01*
X1436479Y1447878D01*
X1439509Y1448287D01*
X1442504Y1448897D01*
X1445453Y1449702D01*
X1448338Y1450705D01*
X1451152Y1451899D01*
X1453880Y1453278D01*
X1456512Y1454835D01*
X1459031Y1456565D01*
X1461429Y1458460D01*
X1463697Y1460510D01*
X1465821Y1462707D01*
X1467794Y1465041D01*
X1469608Y1467502D01*
X1471251Y1470078D01*
X1472722Y1472758D01*
X1474007Y1475531D01*
X1475107Y1478384D01*
X1476011Y1481302D01*
X1476720Y1484274D01*
X1477228Y1487289D01*
X1477535Y1490329D01*
X1477637Y1493385D01*
X1477535Y1496440D01*
X1477228Y1499481D01*
X1476720Y1502496D01*
X1476011Y1505468D01*
X1475107Y1508386D01*
X1474007Y1511239D01*
X1473862Y1511551D01*
X1475884Y1511000D01*
X1478879Y1510390D01*
X1481909Y1509981D01*
X1484957Y1509778D01*
X1488015Y1509778D01*
X1491063Y1509981D01*
X1494094Y1510390D01*
X1497088Y1511000D01*
X1500037Y1511805D01*
X1502923Y1512808D01*
X1505737Y1514002D01*
X1508465Y1515381D01*
X1511096Y1516938D01*
X1513616Y1518668D01*
X1516014Y1520563D01*
X1518282Y1522613D01*
X1520405Y1524810D01*
X1522379Y1527144D01*
X1524193Y1529605D01*
X1525836Y1532181D01*
X1527307Y1534861D01*
X1528592Y1537634D01*
X1529692Y1540487D01*
X1530596Y1543405D01*
X1531305Y1546377D01*
X1531813Y1549392D01*
X1532120Y1552432D01*
X1532221Y1555488D01*
X1532120Y1558544D01*
X1531813Y1561584D01*
X1531305Y1564599D01*
X1530596Y1567571D01*
X1529692Y1570489D01*
X1528592Y1573342D01*
X1527307Y1576115D01*
X1525836Y1578795D01*
X1524193Y1581370D01*
X1522379Y1583832D01*
X1520405Y1586166D01*
X1518282Y1588363D01*
X1516014Y1590413D01*
X1513616Y1592308D01*
X1511096Y1594037D01*
X1508465Y1595594D01*
X1505737Y1596974D01*
X1502923Y1598168D01*
X1500037Y1599171D01*
X1497088Y1599976D01*
X1494094Y1600586D01*
X1491063Y1600995D01*
X1488015Y1601198D01*
X1484957Y1601198D01*
X1481909Y1600995D01*
X1478879Y1600586D01*
X1475884Y1599976D01*
X1472935Y1599171D01*
X1470050Y1598168D01*
X1467236Y1596974D01*
X1464508Y1595594D01*
X1461876Y1594037D01*
X1459356Y1592308D01*
X1456959Y1590413D01*
X1454691Y1588363D01*
X1452567Y1586166D01*
X1450593Y1583832D01*
X1448780Y1581370D01*
X1447137Y1578795D01*
X1445666Y1576115D01*
X1444381Y1573342D01*
X1443281Y1570489D01*
X1442377Y1567571D01*
X1441668Y1564599D01*
X1441160Y1561584D01*
X1440853Y1558544D01*
X1440751Y1555488D01*
X1440853Y1552432D01*
X1441160Y1549392D01*
X1441668Y1546377D01*
X1442377Y1543405D01*
X1443281Y1540487D01*
X1444381Y1537634D01*
X1444525Y1537322D01*
X1442504Y1537873D01*
X1439509Y1538483D01*
X1436479Y1538892D01*
X1433431Y1539095D01*
X1430373Y1539095D01*
X1427325Y1538892D01*
X1424294Y1538483D01*
X1421300Y1537873D01*
X1418351Y1537068D01*
X1415465Y1536064D01*
X1412651Y1534871D01*
X1409923Y1533491D01*
X1407292Y1531934D01*
X1404772Y1530205D01*
X1402374Y1528310D01*
X1400106Y1526260D01*
X1397982Y1524063D01*
X1396009Y1521729D01*
X1394195Y1519267D01*
X1392552Y1516692D01*
X1391081Y1514012D01*
X1389796Y1511239D01*
X1388696Y1508386D01*
X1387792Y1505468D01*
X1387083Y1502496D01*
X1386575Y1499481D01*
X1386268Y1496440D01*
X1386166Y1493385D01*
X1386268Y1490329D01*
X1386575Y1487289D01*
X1387083Y1484274D01*
X1387792Y1481302D01*
X1388696Y1478384D01*
X1389796Y1475531D01*
X1391081Y1472758D01*
X1392552Y1470078D01*
X1394195Y1467502D01*
X1396009Y1465041D01*
X1397982Y1462707D01*
X1400106Y1460510D01*
X1402374Y1458460D01*
X1404772Y1456565D01*
X1407292Y1454835D01*
X1409923Y1453278D01*
X1412651Y1451899D01*
X1415465Y1450705D01*
X1418351Y1449702D01*
X1421300Y1448897D01*
X1424294Y1448287D01*
X1427325Y1447878D01*
G37*
G36*
X-855017Y1467792D02*
G01*
X-851959Y1467792D01*
X-848911Y1467995D01*
X-845880Y1468404D01*
X-842886Y1469014D01*
X-839937Y1469819D01*
X-837051Y1470822D01*
X-834237Y1472016D01*
X-831509Y1473395D01*
X-828878Y1474952D01*
X-826358Y1476682D01*
X-823960Y1478577D01*
X-821692Y1480626D01*
X-819569Y1482824D01*
X-817595Y1485158D01*
X-815781Y1487619D01*
X-814138Y1490195D01*
X-812667Y1492874D01*
X-811382Y1495648D01*
X-810282Y1498500D01*
X-809378Y1501419D01*
X-808669Y1504391D01*
X-808161Y1507406D01*
X-807854Y1510446D01*
X-807753Y1513502D01*
X-807854Y1516557D01*
X-808161Y1519598D01*
X-808669Y1522613D01*
X-809378Y1525584D01*
X-810282Y1528503D01*
X-811382Y1531355D01*
X-812667Y1534129D01*
X-814138Y1536809D01*
X-815781Y1539384D01*
X-817595Y1541846D01*
X-819569Y1544180D01*
X-821692Y1546377D01*
X-823960Y1548427D01*
X-826358Y1550322D01*
X-828878Y1552051D01*
X-831509Y1553608D01*
X-834237Y1554988D01*
X-837051Y1556181D01*
X-839937Y1557185D01*
X-842886Y1557990D01*
X-845880Y1558599D01*
X-848911Y1559008D01*
X-851959Y1559212D01*
X-855017Y1559212D01*
X-858065Y1559008D01*
X-861095Y1558599D01*
X-864090Y1557990D01*
X-867039Y1557185D01*
X-869924Y1556181D01*
X-872738Y1554988D01*
X-875466Y1553608D01*
X-878098Y1552051D01*
X-880618Y1550322D01*
X-883015Y1548427D01*
X-885283Y1546377D01*
X-887407Y1544180D01*
X-889381Y1541846D01*
X-891194Y1539384D01*
X-892837Y1536809D01*
X-894308Y1534129D01*
X-895593Y1531355D01*
X-896693Y1528503D01*
X-897597Y1525584D01*
X-898306Y1522613D01*
X-898814Y1519598D01*
X-899121Y1516557D01*
X-899223Y1513502D01*
X-899121Y1510446D01*
X-898814Y1507406D01*
X-898306Y1504391D01*
X-897597Y1501419D01*
X-896693Y1498500D01*
X-895593Y1495648D01*
X-894308Y1492874D01*
X-892837Y1490195D01*
X-891194Y1487619D01*
X-889381Y1485158D01*
X-887407Y1482824D01*
X-885283Y1480626D01*
X-883015Y1478577D01*
X-880618Y1476682D01*
X-878098Y1474952D01*
X-875466Y1473395D01*
X-872738Y1472016D01*
X-869924Y1470822D01*
X-867039Y1469819D01*
X-864090Y1469014D01*
X-861095Y1468404D01*
X-858065Y1467995D01*
G37*
G36*
X1660852Y1526987D02*
G01*
X1664223Y1527037D01*
X1666288Y1527195D01*
X1652488Y1555490D01*
X1624167Y1541678D01*
X1626682Y1539488D01*
X1629354Y1537434D01*
X1632145Y1535544D01*
X1635046Y1533829D01*
X1638048Y1532295D01*
X1641137Y1530946D01*
X1644302Y1529788D01*
X1647530Y1528826D01*
X1650812Y1528061D01*
X1654136Y1527500D01*
X1657487Y1527139D01*
G37*
G36*
X1146807Y1527558D02*
G01*
X1149865Y1527558D01*
X1152913Y1527761D01*
X1155943Y1528170D01*
X1158938Y1528780D01*
X1161887Y1529585D01*
X1164772Y1530588D01*
X1167587Y1531782D01*
X1170315Y1533161D01*
X1172946Y1534718D01*
X1175466Y1536448D01*
X1177864Y1538343D01*
X1180132Y1540393D01*
X1182255Y1542590D01*
X1184229Y1544924D01*
X1186042Y1547385D01*
X1187686Y1549961D01*
X1189156Y1552641D01*
X1190442Y1555414D01*
X1191541Y1558267D01*
X1192446Y1561185D01*
X1193154Y1564157D01*
X1193662Y1567172D01*
X1193970Y1570212D01*
X1194071Y1573268D01*
X1193970Y1576323D01*
X1193662Y1579364D01*
X1193154Y1582379D01*
X1192446Y1585351D01*
X1191541Y1588269D01*
X1190442Y1591122D01*
X1189156Y1593895D01*
X1187686Y1596575D01*
X1186042Y1599150D01*
X1184229Y1601612D01*
X1182255Y1603946D01*
X1180132Y1606143D01*
X1177864Y1608193D01*
X1175466Y1610088D01*
X1172946Y1611817D01*
X1170315Y1613374D01*
X1167587Y1614754D01*
X1164772Y1615947D01*
X1161887Y1616951D01*
X1158938Y1617756D01*
X1155943Y1618366D01*
X1152913Y1618775D01*
X1149865Y1618978D01*
X1146807Y1618978D01*
X1143759Y1618775D01*
X1140729Y1618366D01*
X1137734Y1617756D01*
X1134785Y1616951D01*
X1131900Y1615947D01*
X1129085Y1614754D01*
X1126357Y1613374D01*
X1123726Y1611817D01*
X1121206Y1610088D01*
X1118809Y1608193D01*
X1116540Y1606143D01*
X1114417Y1603946D01*
X1112443Y1601612D01*
X1110630Y1599150D01*
X1108986Y1596575D01*
X1107516Y1593895D01*
X1106230Y1591122D01*
X1105131Y1588269D01*
X1104226Y1585351D01*
X1103518Y1582379D01*
X1103010Y1579364D01*
X1102702Y1576323D01*
X1102601Y1573268D01*
X1102702Y1570212D01*
X1103010Y1567172D01*
X1103518Y1564157D01*
X1104226Y1561185D01*
X1105131Y1558267D01*
X1106230Y1555414D01*
X1107516Y1552641D01*
X1108986Y1549961D01*
X1110630Y1547385D01*
X1112443Y1544924D01*
X1114417Y1542590D01*
X1116540Y1540393D01*
X1118809Y1538343D01*
X1121206Y1536448D01*
X1123726Y1534718D01*
X1126357Y1533161D01*
X1129085Y1531782D01*
X1131900Y1530588D01*
X1134785Y1529585D01*
X1137734Y1528780D01*
X1140729Y1528170D01*
X1143759Y1527761D01*
G37*
G36*
X1702241Y1544723D02*
G01*
X1702795Y1545302D01*
X1704969Y1547878D01*
X1706984Y1550581D01*
X1708830Y1553400D01*
X1710502Y1556326D01*
X1711990Y1559351D01*
X1713290Y1562458D01*
X1714400Y1565640D01*
X1715315Y1568884D01*
X1716029Y1572178D01*
X1716539Y1575511D01*
X1716849Y1578866D01*
X1716951Y1582234D01*
X1716849Y1585602D01*
X1716735Y1586826D01*
X1688439Y1573027D01*
G37*
G36*
X1606643Y1577637D02*
G01*
X1634952Y1591442D01*
X1621149Y1619745D01*
X1619488Y1617896D01*
X1617393Y1615254D01*
X1615462Y1612493D01*
X1613702Y1609618D01*
X1612122Y1606641D01*
X1610728Y1603573D01*
X1609521Y1600428D01*
X1608508Y1597212D01*
X1607695Y1593941D01*
X1607080Y1590629D01*
X1606671Y1587284D01*
X1606466Y1583918D01*
X1606466Y1580550D01*
G37*
G36*
X1670903Y1608978D02*
G01*
X1699199Y1622778D01*
X1697995Y1623893D01*
X1695389Y1626029D01*
X1692656Y1628000D01*
X1689808Y1629803D01*
X1686857Y1631429D01*
X1683809Y1632872D01*
X1680682Y1634124D01*
X1677484Y1635185D01*
X1674225Y1636049D01*
X1670921Y1636715D01*
X1667583Y1637174D01*
X1664223Y1637431D01*
X1660852Y1637482D01*
X1657487Y1637329D01*
X1657098Y1637286D01*
G37*
G36*
X1167559Y1622579D02*
G01*
X1170617Y1622579D01*
X1173665Y1622783D01*
X1176695Y1623192D01*
X1179690Y1623801D01*
X1182639Y1624606D01*
X1185524Y1625610D01*
X1188338Y1626803D01*
X1191066Y1628183D01*
X1193698Y1629740D01*
X1196218Y1631469D01*
X1198615Y1633364D01*
X1200884Y1635414D01*
X1203007Y1637611D01*
X1204981Y1639945D01*
X1206794Y1642407D01*
X1208438Y1644982D01*
X1209908Y1647662D01*
X1211193Y1650436D01*
X1212293Y1653288D01*
X1213197Y1656206D01*
X1213906Y1659178D01*
X1214414Y1662193D01*
X1214721Y1665234D01*
X1214823Y1668289D01*
X1214721Y1671345D01*
X1214414Y1674385D01*
X1213906Y1677400D01*
X1213197Y1680372D01*
X1212293Y1683291D01*
X1211193Y1686143D01*
X1209908Y1688917D01*
X1208438Y1691596D01*
X1206794Y1694172D01*
X1204981Y1696633D01*
X1203007Y1698967D01*
X1200884Y1701164D01*
X1198615Y1703214D01*
X1196218Y1705109D01*
X1193698Y1706839D01*
X1191066Y1708396D01*
X1188338Y1709775D01*
X1185524Y1710969D01*
X1182639Y1711972D01*
X1179690Y1712777D01*
X1176695Y1713387D01*
X1173665Y1713796D01*
X1170617Y1713999D01*
X1167559Y1713999D01*
X1164511Y1713796D01*
X1161481Y1713387D01*
X1158486Y1712777D01*
X1155537Y1711972D01*
X1152652Y1710969D01*
X1149837Y1709775D01*
X1147109Y1708396D01*
X1144478Y1706839D01*
X1141958Y1705109D01*
X1139560Y1703214D01*
X1137292Y1701164D01*
X1135169Y1698967D01*
X1133195Y1696633D01*
X1131382Y1694172D01*
X1129738Y1691596D01*
X1128268Y1688917D01*
X1126982Y1686143D01*
X1125882Y1683291D01*
X1124978Y1680372D01*
X1124270Y1677400D01*
X1123762Y1674385D01*
X1123454Y1671345D01*
X1123353Y1668289D01*
X1123454Y1665234D01*
X1123762Y1662193D01*
X1124270Y1659178D01*
X1124978Y1656206D01*
X1125882Y1653288D01*
X1126982Y1650436D01*
X1128268Y1647662D01*
X1129738Y1644982D01*
X1131382Y1642407D01*
X1133195Y1639945D01*
X1135169Y1637611D01*
X1137292Y1635414D01*
X1139560Y1633364D01*
X1141958Y1631469D01*
X1144478Y1629740D01*
X1147109Y1628183D01*
X1149837Y1626803D01*
X1152652Y1625610D01*
X1155537Y1624606D01*
X1158486Y1623801D01*
X1161481Y1623192D01*
X1164511Y1622783D01*
G37*
G36*
X-700229Y1644779D02*
G01*
X-697171Y1644779D01*
X-694123Y1644982D01*
X-691093Y1645391D01*
X-688098Y1646001D01*
X-685149Y1646806D01*
X-682264Y1647809D01*
X-679450Y1649003D01*
X-676722Y1650382D01*
X-674090Y1651939D01*
X-671570Y1653669D01*
X-669173Y1655564D01*
X-666904Y1657614D01*
X-664781Y1659811D01*
X-662807Y1662145D01*
X-660994Y1664606D01*
X-659350Y1667182D01*
X-657880Y1669862D01*
X-656595Y1672635D01*
X-655495Y1675488D01*
X-654591Y1678406D01*
X-653882Y1681378D01*
X-653374Y1684393D01*
X-653067Y1687433D01*
X-652965Y1690489D01*
X-653067Y1693545D01*
X-653374Y1696585D01*
X-653882Y1699600D01*
X-654591Y1702572D01*
X-655495Y1705490D01*
X-656595Y1708343D01*
X-657880Y1711116D01*
X-659350Y1713796D01*
X-660994Y1716371D01*
X-662807Y1718833D01*
X-664781Y1721167D01*
X-666904Y1723364D01*
X-669173Y1725414D01*
X-671570Y1727309D01*
X-674090Y1729038D01*
X-676722Y1730595D01*
X-679450Y1731975D01*
X-682264Y1733169D01*
X-685149Y1734172D01*
X-688098Y1734977D01*
X-691093Y1735587D01*
X-694123Y1735996D01*
X-697171Y1736199D01*
X-700229Y1736199D01*
X-703277Y1735996D01*
X-706307Y1735587D01*
X-709302Y1734977D01*
X-712251Y1734172D01*
X-715136Y1733169D01*
X-717951Y1731975D01*
X-720679Y1730595D01*
X-723310Y1729038D01*
X-725830Y1727309D01*
X-728228Y1725414D01*
X-730496Y1723364D01*
X-732619Y1721167D01*
X-734593Y1718833D01*
X-736406Y1716371D01*
X-738050Y1713796D01*
X-739520Y1711116D01*
X-740806Y1708343D01*
X-741906Y1705490D01*
X-742810Y1702572D01*
X-743518Y1699600D01*
X-744026Y1696585D01*
X-744334Y1693545D01*
X-744435Y1690489D01*
X-744334Y1687433D01*
X-744026Y1684393D01*
X-743518Y1681378D01*
X-742810Y1678406D01*
X-741906Y1675488D01*
X-740806Y1672635D01*
X-739520Y1669862D01*
X-738050Y1667182D01*
X-736406Y1664606D01*
X-734593Y1662145D01*
X-732619Y1659811D01*
X-730496Y1657614D01*
X-728228Y1655564D01*
X-725830Y1653669D01*
X-723310Y1651939D01*
X-720679Y1650382D01*
X-717951Y1649003D01*
X-715136Y1647809D01*
X-712251Y1646806D01*
X-709302Y1646001D01*
X-706307Y1645391D01*
X-703277Y1644982D01*
G37*
G36*
X1561411Y1675018D02*
G01*
X1564782Y1675069D01*
X1568142Y1675325D01*
X1571480Y1675785D01*
X1574784Y1676450D01*
X1578043Y1677314D01*
X1581241Y1678376D01*
X1584368Y1679628D01*
X1584530Y1679704D01*
X1562254Y1701980D01*
X1539994Y1679719D01*
X1541696Y1678978D01*
X1544861Y1677819D01*
X1548089Y1676857D01*
X1551371Y1676092D01*
X1554695Y1675531D01*
X1558046Y1675170D01*
G37*
G36*
X1612808Y1707997D02*
G01*
X1613849Y1710489D01*
X1614959Y1713671D01*
X1615874Y1716915D01*
X1616588Y1720209D01*
X1617098Y1723542D01*
X1617408Y1726897D01*
X1617510Y1730265D01*
X1617408Y1733633D01*
X1617098Y1736989D01*
X1616588Y1740321D01*
X1615874Y1743616D01*
X1614959Y1746859D01*
X1613849Y1750042D01*
X1612808Y1752533D01*
X1590540Y1730265D01*
G37*
G36*
X1511706Y1708002D02*
G01*
X1533969Y1730265D01*
X1511706Y1752528D01*
X1511287Y1751604D01*
X1510080Y1748459D01*
X1509067Y1745244D01*
X1508254Y1741972D01*
X1507639Y1738660D01*
X1507230Y1735315D01*
X1507025Y1731949D01*
X1507025Y1728581D01*
X1507230Y1725216D01*
X1507639Y1721871D01*
X1508254Y1718558D01*
X1509067Y1715287D01*
X1510080Y1712071D01*
X1511287Y1708927D01*
G37*
G36*
X1562254Y1758551D02*
G01*
X1584530Y1780827D01*
X1584368Y1780903D01*
X1581241Y1782155D01*
X1578043Y1783217D01*
X1574784Y1784080D01*
X1571480Y1784746D01*
X1568142Y1785205D01*
X1564782Y1785462D01*
X1561411Y1785513D01*
X1558046Y1785360D01*
X1554695Y1785000D01*
X1551371Y1784438D01*
X1548089Y1783674D01*
X1544861Y1782711D01*
X1541696Y1781553D01*
X1539994Y1780811D01*
G37*
G36*
X1156027Y1846430D02*
G01*
X1159085Y1846430D01*
X1162133Y1846633D01*
X1165164Y1847042D01*
X1168158Y1847651D01*
X1171107Y1848457D01*
X1173993Y1849460D01*
X1176807Y1850654D01*
X1179535Y1852033D01*
X1182166Y1853590D01*
X1184686Y1855320D01*
X1187084Y1857214D01*
X1189352Y1859264D01*
X1191475Y1861461D01*
X1193449Y1863796D01*
X1195263Y1866257D01*
X1196906Y1868832D01*
X1198377Y1871512D01*
X1199662Y1874286D01*
X1200762Y1877138D01*
X1201666Y1880057D01*
X1202375Y1883029D01*
X1202883Y1886043D01*
X1203190Y1889084D01*
X1203291Y1892139D01*
X1203190Y1895195D01*
X1202883Y1898235D01*
X1202375Y1901250D01*
X1201666Y1904222D01*
X1200762Y1907141D01*
X1199662Y1909993D01*
X1198377Y1912767D01*
X1196906Y1915447D01*
X1195263Y1918022D01*
X1193449Y1920483D01*
X1191475Y1922818D01*
X1189352Y1925015D01*
X1187084Y1927064D01*
X1184686Y1928959D01*
X1182166Y1930689D01*
X1179535Y1932246D01*
X1176807Y1933625D01*
X1173993Y1934819D01*
X1171107Y1935822D01*
X1168158Y1936628D01*
X1165164Y1937237D01*
X1162133Y1937646D01*
X1159085Y1937849D01*
X1156027Y1937849D01*
X1152979Y1937646D01*
X1149949Y1937237D01*
X1146954Y1936628D01*
X1144005Y1935822D01*
X1141120Y1934819D01*
X1138306Y1933625D01*
X1135578Y1932246D01*
X1132946Y1930689D01*
X1130427Y1928959D01*
X1128029Y1927064D01*
X1125761Y1925015D01*
X1123637Y1922818D01*
X1121663Y1920483D01*
X1119850Y1918022D01*
X1118207Y1915447D01*
X1116736Y1912767D01*
X1115451Y1909993D01*
X1114351Y1907141D01*
X1113447Y1904222D01*
X1112738Y1901250D01*
X1112230Y1898235D01*
X1111923Y1895195D01*
X1111821Y1892139D01*
X1111923Y1889084D01*
X1112230Y1886043D01*
X1112738Y1883029D01*
X1113447Y1880057D01*
X1114351Y1877138D01*
X1115451Y1874286D01*
X1116736Y1871512D01*
X1118207Y1868832D01*
X1119850Y1866257D01*
X1121663Y1863796D01*
X1123637Y1861461D01*
X1125761Y1859264D01*
X1128029Y1857214D01*
X1130427Y1855320D01*
X1132946Y1853590D01*
X1135578Y1852033D01*
X1138306Y1850654D01*
X1141120Y1849460D01*
X1144005Y1848457D01*
X1146954Y1847651D01*
X1149949Y1847042D01*
X1152979Y1846633D01*
G37*
G36*
X1299766Y1936638D02*
G01*
X1303136Y1936689D01*
X1306497Y1936945D01*
X1309834Y1937405D01*
X1313139Y1938070D01*
X1316398Y1938934D01*
X1319596Y1939996D01*
X1322722Y1941248D01*
X1322885Y1941324D01*
X1300609Y1963600D01*
X1278348Y1941339D01*
X1280050Y1940598D01*
X1283215Y1939439D01*
X1286443Y1938477D01*
X1289725Y1937712D01*
X1293050Y1937151D01*
X1296400Y1936790D01*
G37*
G36*
X1351163Y1969617D02*
G01*
X1352204Y1972109D01*
X1353314Y1975291D01*
X1354228Y1978535D01*
X1354942Y1981829D01*
X1355453Y1985162D01*
X1355763Y1988517D01*
X1355864Y1991885D01*
X1355763Y1995253D01*
X1355453Y1998609D01*
X1354942Y2001941D01*
X1354228Y2005236D01*
X1353314Y2008479D01*
X1352204Y2011662D01*
X1351163Y2014153D01*
X1328894Y1991885D01*
G37*
G36*
X1250061Y1969622D02*
G01*
X1272324Y1991885D01*
X1250061Y2014148D01*
X1249641Y2013224D01*
X1248435Y2010079D01*
X1247421Y2006864D01*
X1246609Y2003592D01*
X1245994Y2000280D01*
X1245585Y1996935D01*
X1245379Y1993569D01*
X1245379Y1990201D01*
X1245585Y1986836D01*
X1245994Y1983491D01*
X1246609Y1980178D01*
X1247421Y1976907D01*
X1248435Y1973691D01*
X1249641Y1970547D01*
G37*
G36*
X1300609Y2020171D02*
G01*
X1322885Y2042447D01*
X1322722Y2042523D01*
X1319596Y2043775D01*
X1316398Y2044837D01*
X1313139Y2045700D01*
X1309834Y2046366D01*
X1306497Y2046825D01*
X1303136Y2047082D01*
X1299766Y2047133D01*
X1296400Y2046980D01*
X1293050Y2046620D01*
X1289725Y2046058D01*
X1286443Y2045294D01*
X1283215Y2044331D01*
X1280050Y2043173D01*
X1278348Y2042431D01*
G37*

%LPD*%
D10*
G01*
X-1160447Y181907D03*
G01*
X-1560446Y181907D03*
G01*
X-1160447Y1305882D03*
G01*
X-1560446Y1305882D03*
D11*
G01*
X1562254Y1730265D03*
G01*
X1300609Y1991885D03*
G01*
X1823900Y1249697D03*
G01*
X1661695Y1582234D03*
D12*
G01*
X-520113Y1319979D03*
G01*
X1903199Y232503D03*
G01*
X-526463Y1764225D03*
G01*
X-758111Y1265115D03*
G01*
X-523669Y1429453D03*
G01*
X277954Y1440121D03*
G01*
X187784Y1391861D03*
G01*
X-299641Y1599379D03*
G01*
X-304975Y1344109D03*
G01*
X-853488Y1513502D03*
G01*
X-698700Y1690489D03*
G01*
X-631111Y1972657D03*
G01*
X-1001773Y1152136D03*
G01*
X1114808Y1399786D03*
G01*
X1486486Y1170119D03*
G01*
X1588264Y1088890D03*
G01*
X1806907Y511802D03*
G01*
X-925065Y776470D03*
G01*
X-884171Y661662D03*
G01*
X47398Y550486D03*
G01*
X113286Y470146D03*
G01*
X-910333Y433824D03*
G01*
X-907539Y1011674D03*
G01*
X-734108Y-567900D03*
G01*
X-649805Y-624288D03*
G01*
X-273606Y-387306D03*
G01*
X212702Y113987D03*
G01*
X125402Y48887D03*
G01*
X-217802Y-316796D03*
G01*
X408891Y104995D03*
G01*
X731395Y-17406D03*
G01*
X832792Y402302D03*
G01*
X281104Y-260713D03*
G01*
X-25803Y392701D03*
G01*
X1116840Y-181109D03*
G01*
X1127991Y56100D03*
G01*
X1232689Y553788D03*
G01*
X1165506Y394200D03*
G01*
X1165202Y313809D03*
G01*
X-545335Y748276D03*
G01*
X-478203Y661205D03*
G01*
X-218691Y592320D03*
G01*
X-307591Y589272D03*
G01*
X825604Y678604D03*
G01*
X767692Y455998D03*
G01*
X574296Y731512D03*
G01*
X706198Y401388D03*
G01*
X514682Y805781D03*
G01*
X825908Y756607D03*
G01*
X-318767Y832858D03*
G01*
X2308202Y543603D03*
G01*
X2321384Y943500D03*
G01*
X2153998Y746396D03*
G01*
X1108204Y691202D03*
G01*
X1093802Y774590D03*
G01*
X1116586Y855286D03*
G01*
X1069494Y995088D03*
G01*
X1088697Y1188585D03*
G01*
X1087198Y1111496D03*
G01*
X140972Y1076952D03*
G01*
X134114Y931410D03*
G01*
X300230Y1080508D03*
G01*
X296674Y931410D03*
G01*
X1148336Y1573268D03*
G01*
X1486486Y1555488D03*
G01*
X745797Y1500598D03*
G01*
X706630Y1032756D03*
G01*
X392940Y526534D03*
G01*
X749302Y1309616D03*
G01*
X1431902Y1493385D03*
G01*
X1247726Y1391759D03*
G01*
X1157556Y1892139D03*
G01*
X1313690Y992700D03*
G01*
X874499Y1173599D03*
G01*
X2318133Y817872D03*
G01*
X2273708Y399610D03*
G01*
X1677621Y279087D03*
G01*
X1235991Y46194D03*
G01*
X-989073Y302252D03*
G01*
X-1013711Y-135389D03*
G01*
X-769109Y842510D03*
G01*
X-495297Y261612D03*
G01*
X-220799Y-128988D03*
G01*
X612Y-867011D03*
G01*
X-213890Y167098D03*
G01*
X-127505Y167403D03*
G01*
X830099Y903292D03*
G01*
X1368300Y907788D03*
G01*
X1078994Y-70619D03*
G01*
X1452628Y-267977D03*
G01*
X1021793Y189603D03*
G01*
X2321943Y742942D03*
G01*
X2323238Y667504D03*
G01*
X1346964Y1389118D03*
G01*
X1170586Y236999D03*
G01*
X1314198Y-32519D03*
G01*
X1402844Y-30233D03*
G01*
X1452882Y-181617D03*
G01*
X1543052Y-183649D03*
G01*
X1696468Y-178061D03*
G01*
X1694436Y-88653D03*
G01*
X1541274Y-280423D03*
G01*
X1425450Y-505213D03*
G01*
X1148158Y-394114D03*
G01*
X1290652Y-543974D03*
G01*
X1290652Y-244000D03*
G01*
X785700Y52189D03*
G01*
X595505Y103802D03*
G01*
X-136192Y-313799D03*
G01*
X-334210Y27602D03*
D13*
G01*
X-535505Y77563D03*
G01*
X-571192Y-420301D03*
D12*
G01*
X680392Y-835210D03*
G01*
X1930783Y614494D03*
G01*
X574499Y896993D03*
G01*
X830988Y529506D03*
G01*
X834011Y1049393D03*
G01*
X580189Y551400D03*
G01*
X1659206Y991201D03*
G01*
X1644906Y508500D03*
G01*
X1807491Y21887D03*
G01*
X1711505Y14394D03*
G01*
X1587908Y16197D03*
G01*
X1492201Y16502D03*
G01*
X1410591Y48607D03*
G01*
X1322402Y47998D03*
G01*
X1806907Y1042789D03*
G01*
X1169088Y1668289D03*
D13*
G01*
X-536089Y-106509D03*
G01*
X-581403Y-502495D03*
D12*
G01*
X124792Y-149410D03*
G01*
X-526488Y507306D03*
G01*
X-196796Y411294D03*
G01*
X-106499Y405604D03*
G01*
X1127686Y935702D03*
G01*
X1134950Y1052415D03*
M02*
