G04 Layer: BottomSilkscreenLayer*
G04 Panelize: , Column: 1, Row: 1, Board Size: 43.14mm x 33.02mm, Panelized Board Size: 43.14mm x 33.02mm*
G04 EasyEDA v6.5.42, 2024-06-18 11:53:45*
G04 3ed26e891263433bbece19e77b9ceb9f,9a4ed40c0dd746429eaf55b84663d2fb,10*
G04 Gerber Generator version 0.2*
G04 Scale: 100 percent, Rotated: No, Reflected: No *
G04 Dimensions in millimeters *
G04 leading zeros omitted , absolute positions ,4 integer and 5 decimal *
%FSLAX45Y45*%
%MOMM*%

%ADD10C,0.1270*%
%ADD11C,0.1524*%
%ADD12C,0.3000*%
%ADD13C,0.1000*%
%ADD14C,0.1520*%
%ADD15C,0.0500*%
%ADD16C,0.2540*%
%ADD17C,0.1250*%
%ADD18C,0.0100*%
%ADD19C,0.1500*%
%ADD20C,0.2500*%
%ADD21C,0.0105*%

%LPD*%
D10*
X1209073Y-634337D02*
G01*
X1212253Y-627974D01*
X1218618Y-621609D01*
X1224981Y-618426D01*
X1237708Y-618426D01*
X1244071Y-621609D01*
X1250436Y-627974D01*
X1253616Y-634337D01*
X1256799Y-643882D01*
X1256799Y-659790D01*
X1253616Y-669335D01*
X1250436Y-675700D01*
X1244071Y-682063D01*
X1237708Y-685246D01*
X1224981Y-685246D01*
X1218618Y-682063D01*
X1212253Y-675700D01*
X1209073Y-669335D01*
X1209073Y-659790D01*
X1224981Y-659790D02*
G01*
X1209073Y-659790D01*
X1188072Y-618426D02*
G01*
X1188072Y-685246D01*
X1188072Y-618426D02*
G01*
X1159436Y-618426D01*
X1149891Y-621609D01*
X1146708Y-624791D01*
X1143528Y-631154D01*
X1143528Y-640699D01*
X1146708Y-647064D01*
X1149891Y-650245D01*
X1159436Y-653427D01*
X1188072Y-653427D01*
X1077981Y-627974D02*
G01*
X1084346Y-621609D01*
X1093891Y-618426D01*
X1106617Y-618426D01*
X1116162Y-621609D01*
X1122527Y-627974D01*
X1122527Y-634337D01*
X1119344Y-640699D01*
X1116162Y-643882D01*
X1109799Y-647064D01*
X1090709Y-653427D01*
X1084346Y-656610D01*
X1081163Y-659790D01*
X1077981Y-666155D01*
X1077981Y-675700D01*
X1084346Y-682063D01*
X1093891Y-685246D01*
X1106617Y-685246D01*
X1116162Y-682063D01*
X1122527Y-675700D01*
D11*
X1361099Y1620199D02*
G01*
X1313853Y1572953D01*
X1361099Y1620199D02*
G01*
X1340850Y1640448D01*
X1331851Y1644949D01*
X1327353Y1644949D01*
X1320601Y1642699D01*
X1316103Y1638200D01*
X1313853Y1631449D01*
X1313853Y1626951D01*
X1318351Y1617952D01*
X1338602Y1597703D02*
G01*
X1318351Y1617952D01*
X1309352Y1622450D01*
X1304853Y1622450D01*
X1298102Y1620199D01*
X1291353Y1613451D01*
X1289103Y1606702D01*
X1289103Y1602201D01*
X1293604Y1593202D01*
X1313853Y1572953D01*
X1301254Y1680047D02*
G01*
X1303502Y1673298D01*
X1303502Y1664299D01*
X1301254Y1657548D01*
X1296753Y1648548D01*
X1285504Y1637299D01*
X1276504Y1632800D01*
X1269756Y1630550D01*
X1260756Y1630550D01*
X1254005Y1632800D01*
X1245006Y1641800D01*
X1242755Y1648548D01*
X1242755Y1657548D01*
X1245006Y1664299D01*
X1249507Y1673298D01*
X1260756Y1684548D01*
X1269756Y1689046D01*
X1276504Y1691297D01*
X1285504Y1691297D01*
X1292252Y1689046D01*
X1301254Y1680047D01*
X1250406Y1730895D02*
G01*
X1252656Y1724144D01*
X1252656Y1715145D01*
X1250406Y1708396D01*
X1245905Y1699397D01*
X1234655Y1688147D01*
X1225656Y1683646D01*
X1218907Y1681398D01*
X1209908Y1681398D01*
X1203159Y1683646D01*
X1194158Y1692645D01*
X1191910Y1699397D01*
X1191910Y1708396D01*
X1194158Y1715145D01*
X1198659Y1724144D01*
X1209908Y1735394D01*
X1218907Y1739894D01*
X1225656Y1742145D01*
X1234655Y1742145D01*
X1241407Y1739894D01*
X1250406Y1730895D01*
X1197310Y1783991D02*
G01*
X1150061Y1736745D01*
X1213058Y1768243D02*
G01*
X1181559Y1799742D01*
D10*
X705378Y1728810D02*
G01*
X712650Y1736084D01*
X723559Y1739719D01*
X738106Y1739719D01*
X749015Y1736084D01*
X756287Y1728810D01*
X756287Y1721538D01*
X752650Y1714266D01*
X749015Y1710629D01*
X741740Y1706993D01*
X719924Y1699719D01*
X712650Y1696085D01*
X709015Y1692447D01*
X705378Y1685175D01*
X705378Y1674266D01*
X712650Y1666993D01*
X723559Y1663357D01*
X738106Y1663357D01*
X749015Y1666993D01*
X756287Y1674266D01*
X670468Y1739719D02*
G01*
X670468Y1677903D01*
X666833Y1666993D01*
X659559Y1663357D01*
X652287Y1663357D01*
X681377Y1714266D02*
G01*
X655924Y1714266D01*
X584652Y1714266D02*
G01*
X584652Y1663357D01*
X584652Y1703357D02*
G01*
X591924Y1710629D01*
X599196Y1714266D01*
X610105Y1714266D01*
X617377Y1710629D01*
X624652Y1703357D01*
X628287Y1692447D01*
X628287Y1685175D01*
X624652Y1674266D01*
X617377Y1666993D01*
X610105Y1663357D01*
X599196Y1663357D01*
X591924Y1666993D01*
X584652Y1674266D01*
X560651Y1714266D02*
G01*
X560651Y1663357D01*
X560651Y1692447D02*
G01*
X557014Y1703357D01*
X549742Y1710629D01*
X542470Y1714266D01*
X531561Y1714266D01*
X507560Y1739719D02*
G01*
X507560Y1663357D01*
X483560Y1739719D02*
G01*
X479925Y1736084D01*
X476288Y1739719D01*
X479925Y1743356D01*
X483560Y1739719D01*
X479925Y1714266D02*
G01*
X479925Y1663357D01*
X452288Y1714266D02*
G01*
X452288Y1663357D01*
X452288Y1699719D02*
G01*
X441378Y1710629D01*
X434106Y1714266D01*
X423197Y1714266D01*
X415925Y1710629D01*
X412288Y1699719D01*
X412288Y1663357D01*
X344652Y1714266D02*
G01*
X344652Y1656085D01*
X348288Y1645175D01*
X351924Y1641538D01*
X359196Y1637903D01*
X370105Y1637903D01*
X377377Y1641538D01*
X344652Y1703357D02*
G01*
X351924Y1710629D01*
X359196Y1714266D01*
X370105Y1714266D01*
X377377Y1710629D01*
X384652Y1703357D01*
X388288Y1692447D01*
X388288Y1685175D01*
X384652Y1674266D01*
X377377Y1666993D01*
X370105Y1663357D01*
X359196Y1663357D01*
X351924Y1666993D01*
X344652Y1674266D01*
X264652Y1739719D02*
G01*
X246471Y1663357D01*
X228287Y1739719D02*
G01*
X246471Y1663357D01*
X228287Y1739719D02*
G01*
X210106Y1663357D01*
X191924Y1739719D02*
G01*
X210106Y1663357D01*
X124289Y1714266D02*
G01*
X124289Y1663357D01*
X124289Y1703357D02*
G01*
X131561Y1710629D01*
X138833Y1714266D01*
X149743Y1714266D01*
X157015Y1710629D01*
X164288Y1703357D01*
X167924Y1692447D01*
X167924Y1685175D01*
X164288Y1674266D01*
X157015Y1666993D01*
X149743Y1663357D01*
X138833Y1663357D01*
X131561Y1666993D01*
X124289Y1674266D01*
X89380Y1739719D02*
G01*
X89380Y1677903D01*
X85742Y1666993D01*
X78470Y1663357D01*
X71198Y1663357D01*
X100289Y1714266D02*
G01*
X74833Y1714266D01*
X3561Y1703357D02*
G01*
X10835Y1710629D01*
X18107Y1714266D01*
X29016Y1714266D01*
X36288Y1710629D01*
X43561Y1703357D01*
X47198Y1692447D01*
X47198Y1685175D01*
X43561Y1674266D01*
X36288Y1666993D01*
X29016Y1663357D01*
X18107Y1663357D01*
X10835Y1666993D01*
X3561Y1674266D01*
X-20439Y1739719D02*
G01*
X-20439Y1663357D01*
X-20439Y1699719D02*
G01*
X-31346Y1710629D01*
X-38620Y1714266D01*
X-49529Y1714266D01*
X-56802Y1710629D01*
X-60439Y1699719D01*
X-60439Y1663357D01*
X-144073Y1721538D02*
G01*
X-144073Y1725175D01*
X-147711Y1732447D01*
X-151345Y1736084D01*
X-158620Y1739719D01*
X-173164Y1739719D01*
X-180439Y1736084D01*
X-184073Y1732447D01*
X-187711Y1725175D01*
X-187711Y1717903D01*
X-184073Y1710629D01*
X-176801Y1699719D01*
X-140439Y1663357D01*
X-191345Y1663357D01*
X-237164Y1739719D02*
G01*
X-226255Y1736084D01*
X-218983Y1725175D01*
X-215346Y1706993D01*
X-215346Y1696085D01*
X-218983Y1677903D01*
X-226255Y1666993D01*
X-237164Y1663357D01*
X-244436Y1663357D01*
X-255346Y1666993D01*
X-262620Y1677903D01*
X-266255Y1696085D01*
X-266255Y1706993D01*
X-262620Y1725175D01*
X-255346Y1736084D01*
X-244436Y1739719D01*
X-237164Y1739719D01*
X-293893Y1721538D02*
G01*
X-293893Y1725175D01*
X-297527Y1732447D01*
X-301165Y1736084D01*
X-308437Y1739719D01*
X-322983Y1739719D01*
X-330255Y1736084D01*
X-333893Y1732447D01*
X-337527Y1725175D01*
X-337527Y1717903D01*
X-333893Y1710629D01*
X-326618Y1699719D01*
X-290255Y1663357D01*
X-341165Y1663357D01*
X-401528Y1739719D02*
G01*
X-365165Y1688810D01*
X-419709Y1688810D01*
X-401528Y1739719D02*
G01*
X-401528Y1663357D01*
X766498Y1622422D02*
G01*
X737407Y1546059D01*
X708317Y1622422D02*
G01*
X737407Y1546059D01*
X684316Y1622422D02*
G01*
X684316Y1546059D01*
X616681Y1596969D02*
G01*
X616681Y1546059D01*
X616681Y1586059D02*
G01*
X623953Y1593331D01*
X631225Y1596969D01*
X642134Y1596969D01*
X649406Y1593331D01*
X656681Y1586059D01*
X660316Y1575150D01*
X660316Y1567878D01*
X656681Y1556969D01*
X649406Y1549696D01*
X642134Y1546059D01*
X631225Y1546059D01*
X623953Y1549696D01*
X616681Y1556969D01*
X549043Y1622422D02*
G01*
X549043Y1546059D01*
X549043Y1586059D02*
G01*
X556315Y1593331D01*
X563590Y1596969D01*
X574498Y1596969D01*
X581771Y1593331D01*
X589043Y1586059D01*
X592681Y1575150D01*
X592681Y1567878D01*
X589043Y1556969D01*
X581771Y1549696D01*
X574498Y1546059D01*
X563590Y1546059D01*
X556315Y1549696D01*
X549043Y1556969D01*
X443590Y1622422D02*
G01*
X443590Y1546059D01*
X469044Y1622422D02*
G01*
X418134Y1622422D01*
X357771Y1622422D02*
G01*
X394134Y1571513D01*
X339590Y1571513D01*
X357771Y1622422D02*
G01*
X357771Y1546059D01*
X230499Y1622422D02*
G01*
X259590Y1546059D01*
X230499Y1622422D02*
G01*
X201409Y1546059D01*
X248681Y1571513D02*
G01*
X212318Y1571513D01*
X177408Y1622422D02*
G01*
X177408Y1546059D01*
X177408Y1622422D02*
G01*
X148318Y1546059D01*
X119227Y1622422D02*
G01*
X148318Y1546059D01*
X119227Y1622422D02*
G01*
X119227Y1546059D01*
X39227Y1622422D02*
G01*
X39227Y1546059D01*
X39227Y1622422D02*
G01*
X10137Y1546059D01*
X-18953Y1622422D02*
G01*
X10137Y1546059D01*
X-18953Y1622422D02*
G01*
X-18953Y1546059D01*
X-72044Y1622422D02*
G01*
X-42953Y1546059D01*
X-72044Y1622422D02*
G01*
X-101135Y1546059D01*
X-53863Y1571513D02*
G01*
X-90228Y1571513D01*
X-179682Y1604241D02*
G01*
X-176044Y1611513D01*
X-168772Y1618787D01*
X-161500Y1622422D01*
X-146954Y1622422D01*
X-139682Y1618787D01*
X-132410Y1611513D01*
X-128772Y1604241D01*
X-125135Y1593331D01*
X-125135Y1575150D01*
X-128772Y1564241D01*
X-132410Y1556969D01*
X-139682Y1549696D01*
X-146954Y1546059D01*
X-161500Y1546059D01*
X-168772Y1549696D01*
X-176044Y1556969D01*
X-179682Y1564241D01*
X-179682Y1575150D01*
X-161500Y1575150D02*
G01*
X-179682Y1575150D01*
D11*
X1609732Y1185148D02*
G01*
X1549676Y1155857D01*
X1609732Y1185148D02*
G01*
X1597179Y1210886D01*
X1590136Y1218072D01*
X1585879Y1219537D01*
X1578767Y1219606D01*
X1573047Y1216817D01*
X1568724Y1211168D01*
X1567258Y1206914D01*
X1568582Y1196939D01*
X1581134Y1171201D01*
X1571370Y1191219D02*
G01*
X1530149Y1195895D01*
X1581000Y1244061D02*
G01*
X1520944Y1214770D01*
X1581000Y1244061D02*
G01*
X1562867Y1281239D01*
X1552402Y1230111D02*
G01*
X1541244Y1252989D01*
X1520944Y1214770D02*
G01*
X1502811Y1251945D01*
X1525557Y1335966D02*
G01*
X1534063Y1333035D01*
X1541109Y1325852D01*
X1546689Y1314411D01*
X1548013Y1304437D01*
X1545081Y1295928D01*
X1539364Y1293139D01*
X1532249Y1293207D01*
X1527992Y1294673D01*
X1522343Y1298999D01*
X1508257Y1313367D01*
X1502605Y1317693D01*
X1498353Y1319159D01*
X1491236Y1319227D01*
X1482658Y1315041D01*
X1479727Y1306535D01*
X1481053Y1296560D01*
X1486634Y1285120D01*
X1493674Y1277937D01*
X1502186Y1275006D01*
X1524929Y1359024D02*
G01*
X1464873Y1329733D01*
X1524929Y1359024D02*
G01*
X1506796Y1396202D01*
X1496331Y1345077D02*
G01*
X1485171Y1367955D01*
X1464873Y1329733D02*
G01*
X1446738Y1366911D01*
X1487827Y1435094D02*
G01*
X1427772Y1405806D01*
X1497589Y1415077D02*
G01*
X1478064Y1455112D01*
D10*
X1870443Y190799D02*
G01*
X1813168Y190799D01*
X1870443Y190799D02*
G01*
X1870443Y215346D01*
X1867715Y223527D01*
X1864987Y226253D01*
X1859534Y228980D01*
X1854078Y228980D01*
X1848624Y226253D01*
X1845896Y223527D01*
X1843168Y215346D01*
X1843168Y190799D01*
X1843168Y209890D02*
G01*
X1813168Y228980D01*
X1870443Y246981D02*
G01*
X1813168Y285163D01*
X1870443Y285163D02*
G01*
X1813168Y246981D01*
X1745343Y201190D02*
G01*
X1688068Y201190D01*
X1745343Y182100D02*
G01*
X1745343Y220281D01*
X1745343Y238282D02*
G01*
X1688068Y276463D01*
X1745343Y276463D02*
G01*
X1688068Y238282D01*
X1616341Y225272D02*
G01*
X1578160Y198000D01*
X1578160Y238909D01*
X1616341Y225272D02*
G01*
X1559067Y225272D01*
X1602704Y259636D02*
G01*
X1605432Y259636D01*
X1610885Y262364D01*
X1613613Y265092D01*
X1616341Y270545D01*
X1616341Y281454D01*
X1613613Y286910D01*
X1610885Y289636D01*
X1605432Y292364D01*
X1599976Y292364D01*
X1594523Y289636D01*
X1586341Y284182D01*
X1559067Y256910D01*
X1559067Y295092D01*
X1493039Y223474D02*
G01*
X1454858Y196202D01*
X1454858Y237111D01*
X1493039Y223474D02*
G01*
X1435765Y223474D01*
X1482130Y255112D02*
G01*
X1484858Y260565D01*
X1493039Y268747D01*
X1435765Y268747D01*
X1364340Y219870D02*
G01*
X1326159Y192598D01*
X1326159Y233507D01*
X1364340Y219870D02*
G01*
X1307066Y219870D01*
X1364340Y267870D02*
G01*
X1361612Y259689D01*
X1353431Y254233D01*
X1339794Y251508D01*
X1331612Y251508D01*
X1317975Y254233D01*
X1309794Y259689D01*
X1307066Y267870D01*
X1307066Y273324D01*
X1309794Y281508D01*
X1317975Y286961D01*
X1331612Y289689D01*
X1339794Y289689D01*
X1353431Y286961D01*
X1361612Y281508D01*
X1364340Y273324D01*
X1364340Y267870D01*
X1233540Y208854D02*
G01*
X1233540Y238853D01*
X1211722Y222491D01*
X1211722Y230672D01*
X1208994Y236128D01*
X1206266Y238853D01*
X1198084Y241581D01*
X1192631Y241581D01*
X1184450Y238853D01*
X1178994Y233400D01*
X1176266Y225219D01*
X1176266Y217037D01*
X1178994Y208854D01*
X1181722Y206128D01*
X1187175Y203400D01*
X1214450Y295036D02*
G01*
X1206266Y292310D01*
X1200812Y286854D01*
X1198084Y278673D01*
X1198084Y275945D01*
X1200812Y267764D01*
X1206266Y262310D01*
X1214450Y259582D01*
X1217175Y259582D01*
X1225359Y262310D01*
X1230812Y267764D01*
X1233540Y275945D01*
X1233540Y278673D01*
X1230812Y286854D01*
X1225359Y292310D01*
X1214450Y295036D01*
X1200812Y295036D01*
X1187175Y292310D01*
X1178994Y286854D01*
X1176266Y278673D01*
X1176266Y273217D01*
X1178994Y265036D01*
X1184450Y262310D01*
D12*
X-686389Y-155605D02*
G01*
X-628535Y-97751D01*
X-686389Y-97751D02*
G01*
X-628535Y-155605D01*
X-851595Y49077D02*
G01*
X-793742Y-8775D01*
X-592294Y1604403D02*
G01*
X-650148Y1662264D01*
X-650148Y1604403D02*
G01*
X-592294Y1662264D01*
X-829995Y1416400D02*
G01*
X-772142Y1474251D01*
D11*
X1517449Y367644D02*
G01*
X1521086Y374916D01*
X1528358Y382191D01*
X1535633Y385826D01*
X1550177Y385826D01*
X1557449Y382191D01*
X1564723Y374916D01*
X1568358Y367644D01*
X1571995Y356735D01*
X1571995Y338554D01*
X1568358Y327644D01*
X1564723Y320372D01*
X1557449Y313100D01*
X1550177Y309463D01*
X1535633Y309463D01*
X1528358Y313100D01*
X1521086Y320372D01*
X1517449Y327644D01*
X1517449Y338554D01*
X1535633Y338554D02*
G01*
X1517449Y338554D01*
X1493451Y385826D02*
G01*
X1493451Y309463D01*
X1493451Y385826D02*
G01*
X1460723Y385826D01*
X1449814Y382191D01*
X1446176Y378553D01*
X1442542Y371281D01*
X1442542Y360372D01*
X1446176Y353100D01*
X1449814Y349463D01*
X1460723Y345826D01*
X1493451Y345826D01*
X1418541Y385826D02*
G01*
X1418541Y309463D01*
X1372722Y385826D02*
G01*
X1379997Y382191D01*
X1387269Y374916D01*
X1390906Y367644D01*
X1394541Y356735D01*
X1394541Y338554D01*
X1390906Y327644D01*
X1387269Y320372D01*
X1379997Y313100D01*
X1372722Y309463D01*
X1358178Y309463D01*
X1350906Y313100D01*
X1343632Y320372D01*
X1339997Y327644D01*
X1336360Y338554D01*
X1336360Y356735D01*
X1339997Y367644D01*
X1343632Y374916D01*
X1350906Y382191D01*
X1358178Y385826D01*
X1372722Y385826D01*
D10*
X1566064Y83169D02*
G01*
X1566064Y22557D01*
X1525656Y83169D02*
G01*
X1525656Y22557D01*
X1566064Y54307D02*
G01*
X1525656Y54307D01*
X1503720Y68737D02*
G01*
X1503720Y71625D01*
X1500832Y77398D01*
X1497947Y80284D01*
X1492173Y83169D01*
X1480629Y83169D01*
X1474856Y80284D01*
X1471970Y77398D01*
X1469082Y71625D01*
X1469082Y65852D01*
X1471970Y60078D01*
X1477741Y51419D01*
X1506606Y22557D01*
X1466197Y22557D01*
D11*
X-874740Y-370763D02*
G01*
X-928735Y-424759D01*
X-874740Y-370763D02*
G01*
X-897879Y-347621D01*
X-908166Y-342478D01*
X-913307Y-342478D01*
X-921021Y-345048D01*
X-926165Y-350192D01*
X-928735Y-357906D01*
X-928735Y-363049D01*
X-923594Y-373334D01*
X-900452Y-396476D02*
G01*
X-923594Y-373334D01*
X-933879Y-368190D01*
X-939020Y-368190D01*
X-946734Y-370763D01*
X-954448Y-378475D01*
X-957021Y-386189D01*
X-957021Y-391332D01*
X-951877Y-401617D01*
X-928735Y-424759D01*
X-948278Y-297223D02*
G01*
X-981704Y-371789D01*
X-948278Y-297223D02*
G01*
X-1022845Y-330649D01*
X-971420Y-346077D02*
G01*
X-997132Y-320365D01*
X-1003818Y-241683D02*
G01*
X-1057816Y-295681D01*
X-985819Y-259681D02*
G01*
X-1021816Y-223685D01*
X-858677Y1995678D02*
G01*
X-804682Y1941682D01*
X-894676Y1959681D02*
G01*
X-840679Y1905683D01*
X-832965Y1969965D02*
G01*
X-868964Y1933968D01*
X-932218Y1922139D02*
G01*
X-857651Y1888713D01*
X-932218Y1922139D02*
G01*
X-898791Y1847573D01*
X-883363Y1898997D02*
G01*
X-909076Y1873285D01*
X-969759Y1884598D02*
G01*
X-915761Y1830603D01*
X-969759Y1884598D02*
G01*
X-992901Y1861456D01*
X-998042Y1851172D01*
X-998042Y1846028D01*
X-995471Y1838317D01*
X-987757Y1830603D01*
X-980043Y1828030D01*
X-974900Y1828030D01*
X-964615Y1833173D01*
X-941473Y1856315D01*
X-1040726Y1813631D02*
G01*
X-986729Y1759635D01*
X-1022728Y1831629D02*
G01*
X-1058725Y1795632D01*
X-1075695Y1778662D02*
G01*
X-1021699Y1724665D01*
X-1118379Y1710265D02*
G01*
X-1120950Y1717979D01*
X-1120950Y1728264D01*
X-1118379Y1735978D01*
X-1108095Y1746262D01*
X-1100381Y1748835D01*
X-1090094Y1748835D01*
X-1082380Y1746262D01*
X-1072095Y1741121D01*
X-1059238Y1728264D01*
X-1054097Y1717979D01*
X-1051524Y1710265D01*
X-1051524Y1699981D01*
X-1054097Y1692267D01*
X-1064381Y1681980D01*
X-1072095Y1679409D01*
X-1082380Y1679409D01*
X-1090094Y1681980D01*
D10*
X-1264079Y1412072D02*
G01*
X-1264079Y1368778D01*
X-1266964Y1360119D01*
X-1272738Y1354345D01*
X-1281396Y1351460D01*
X-1287170Y1351460D01*
X-1295829Y1354345D01*
X-1301602Y1360119D01*
X-1304488Y1368778D01*
X-1304488Y1412072D01*
X-1363946Y1403413D02*
G01*
X-1358173Y1409186D01*
X-1349514Y1412072D01*
X-1337970Y1412072D01*
X-1329311Y1409186D01*
X-1323538Y1403413D01*
X-1323538Y1397640D01*
X-1326423Y1391869D01*
X-1329311Y1388981D01*
X-1335084Y1386095D01*
X-1352402Y1380322D01*
X-1358173Y1377436D01*
X-1361061Y1374551D01*
X-1363946Y1368778D01*
X-1363946Y1360119D01*
X-1358173Y1354345D01*
X-1349514Y1351460D01*
X-1337970Y1351460D01*
X-1329311Y1354345D01*
X-1323538Y1360119D01*
X-1382996Y1412072D02*
G01*
X-1382996Y1351460D01*
X-1382996Y1412072D02*
G01*
X-1408973Y1412072D01*
X-1417634Y1409186D01*
X-1420520Y1406301D01*
X-1423405Y1400528D01*
X-1423405Y1394754D01*
X-1420520Y1388981D01*
X-1417634Y1386095D01*
X-1408973Y1383210D01*
X-1382996Y1383210D02*
G01*
X-1408973Y1383210D01*
X-1417634Y1380322D01*
X-1420520Y1377436D01*
X-1423405Y1371663D01*
X-1423405Y1363004D01*
X-1420520Y1357231D01*
X-1417634Y1354345D01*
X-1408973Y1351460D01*
X-1382996Y1351460D01*
X-1442455Y1400528D02*
G01*
X-1448229Y1403413D01*
X-1456888Y1412072D01*
X-1456888Y1351460D01*
D11*
X1105616Y388553D02*
G01*
X1123797Y340827D01*
X1105616Y388553D02*
G01*
X1087434Y340827D01*
X1116980Y356735D02*
G01*
X1094252Y356735D01*
X1072433Y388553D02*
G01*
X1072433Y354462D01*
X1070160Y347644D01*
X1065616Y343098D01*
X1058799Y340827D01*
X1054252Y340827D01*
X1047435Y343098D01*
X1042888Y347644D01*
X1040615Y354462D01*
X1040615Y388553D01*
X1025616Y388553D02*
G01*
X1025616Y340827D01*
X1025616Y388553D02*
G01*
X1009705Y388553D01*
X1002888Y386280D01*
X998344Y381736D01*
X996071Y377189D01*
X993797Y370372D01*
X993797Y359008D01*
X996071Y352191D01*
X998344Y347644D01*
X1002888Y343098D01*
X1009705Y340827D01*
X1025616Y340827D01*
X978799Y388553D02*
G01*
X978799Y340827D01*
X950160Y388553D02*
G01*
X954707Y386280D01*
X959251Y381736D01*
X961524Y377189D01*
X963797Y370372D01*
X963797Y359008D01*
X961524Y352191D01*
X959251Y347644D01*
X954707Y343098D01*
X950160Y340827D01*
X941070Y340827D01*
X936525Y343098D01*
X931979Y347644D01*
X929706Y352191D01*
X927435Y359008D01*
X927435Y370372D01*
X929706Y377189D01*
X931979Y381736D01*
X936525Y386280D01*
X941070Y388553D01*
X950160Y388553D01*
D10*
X-237289Y-292011D02*
G01*
X-237289Y-352623D01*
X-237289Y-292011D02*
G01*
X-263265Y-292011D01*
X-271924Y-294896D01*
X-274812Y-297781D01*
X-277698Y-303555D01*
X-277698Y-309328D01*
X-274812Y-315102D01*
X-271924Y-317987D01*
X-263265Y-320873D01*
X-237289Y-320873D01*
X-257495Y-320873D02*
G01*
X-277698Y-352623D01*
X-299633Y-306443D02*
G01*
X-299633Y-303555D01*
X-302521Y-297781D01*
X-305407Y-294896D01*
X-311180Y-292011D01*
X-322724Y-292011D01*
X-328498Y-294896D01*
X-331383Y-297781D01*
X-334271Y-303555D01*
X-334271Y-309328D01*
X-331383Y-315102D01*
X-325612Y-323761D01*
X-296748Y-352623D01*
X-337157Y-352623D01*
X-182999Y-376001D02*
G01*
X-182999Y-436613D01*
X-182999Y-376001D02*
G01*
X-208975Y-376001D01*
X-217634Y-378886D01*
X-220522Y-381772D01*
X-223408Y-387545D01*
X-223408Y-393319D01*
X-220522Y-399092D01*
X-217634Y-401977D01*
X-208975Y-404863D01*
X-182999Y-404863D01*
X-203205Y-404863D02*
G01*
X-223408Y-436613D01*
X-248231Y-376001D02*
G01*
X-279981Y-376001D01*
X-262663Y-399092D01*
X-271322Y-399092D01*
X-277093Y-401977D01*
X-279981Y-404863D01*
X-282867Y-413522D01*
X-282867Y-419295D01*
X-279981Y-427954D01*
X-274208Y-433727D01*
X-265549Y-436613D01*
X-256890Y-436613D01*
X-248231Y-433727D01*
X-245343Y-430842D01*
X-242458Y-425069D01*
X-330781Y-376001D02*
G01*
X-301917Y-416410D01*
X-345213Y-416410D01*
X-330781Y-376001D02*
G01*
X-330781Y-436613D01*
X861235Y1084254D02*
G01*
X866960Y1081389D01*
X872688Y1075662D01*
X875553Y1069936D01*
X878415Y1061344D01*
X878415Y1047026D01*
X875553Y1038435D01*
X872688Y1032708D01*
X866960Y1026980D01*
X861235Y1024117D01*
X849779Y1024117D01*
X844052Y1026980D01*
X838324Y1032708D01*
X835461Y1038435D01*
X832596Y1047026D01*
X832596Y1061344D01*
X835461Y1069936D01*
X838324Y1075662D01*
X844052Y1081389D01*
X849779Y1084254D01*
X861235Y1084254D01*
X852642Y1035573D02*
G01*
X835461Y1018390D01*
X810834Y1069936D02*
G01*
X810834Y1072799D01*
X807971Y1078527D01*
X805106Y1081389D01*
X799378Y1084254D01*
X787925Y1084254D01*
X782198Y1081389D01*
X779332Y1078527D01*
X776470Y1072799D01*
X776470Y1067071D01*
X779332Y1061344D01*
X785060Y1052753D01*
X813696Y1024117D01*
X773607Y1024117D01*
X903759Y556011D02*
G01*
X903759Y495399D01*
X903759Y556011D02*
G01*
X877783Y556011D01*
X869124Y553125D01*
X866236Y550240D01*
X863351Y544466D01*
X863351Y538693D01*
X866236Y532919D01*
X869124Y530034D01*
X877783Y527149D01*
X903759Y527149D01*
X883554Y527149D02*
G01*
X863351Y495399D01*
X806777Y535807D02*
G01*
X809665Y527149D01*
X815436Y521375D01*
X824095Y518490D01*
X826983Y518490D01*
X835642Y521375D01*
X841415Y527149D01*
X844301Y535807D01*
X844301Y538693D01*
X841415Y547352D01*
X835642Y553125D01*
X826983Y556011D01*
X824095Y556011D01*
X815436Y553125D01*
X809665Y547352D01*
X806777Y535807D01*
X806777Y521375D01*
X809665Y506943D01*
X815436Y498284D01*
X824095Y495399D01*
X829868Y495399D01*
X838527Y498284D01*
X841415Y504057D01*
X460110Y1365214D02*
G01*
X399498Y1365214D01*
X460110Y1365214D02*
G01*
X460110Y1391191D01*
X457225Y1399849D01*
X454339Y1402737D01*
X448566Y1405623D01*
X442793Y1405623D01*
X437019Y1402737D01*
X434134Y1399849D01*
X431248Y1391191D01*
X431248Y1365214D01*
X431248Y1385420D02*
G01*
X399498Y1405623D01*
X445678Y1427558D02*
G01*
X448566Y1427558D01*
X454339Y1430446D01*
X457225Y1433332D01*
X460110Y1439105D01*
X460110Y1450649D01*
X457225Y1456423D01*
X454339Y1459308D01*
X448566Y1462196D01*
X442793Y1462196D01*
X437019Y1459308D01*
X428360Y1453537D01*
X399498Y1424673D01*
X399498Y1465082D01*
X451451Y1518770D02*
G01*
X457225Y1515882D01*
X460110Y1507223D01*
X460110Y1501449D01*
X457225Y1492791D01*
X448566Y1487020D01*
X434134Y1484132D01*
X419701Y1484132D01*
X408157Y1487020D01*
X402384Y1492791D01*
X399498Y1501449D01*
X399498Y1504337D01*
X402384Y1512996D01*
X408157Y1518770D01*
X416816Y1521655D01*
X419701Y1521655D01*
X428360Y1518770D01*
X434134Y1512996D01*
X437019Y1504337D01*
X437019Y1501449D01*
X434134Y1492791D01*
X428360Y1487020D01*
X419701Y1484132D01*
X954298Y763676D02*
G01*
X954298Y703064D01*
X954298Y763676D02*
G01*
X928321Y763676D01*
X919662Y760790D01*
X916774Y757905D01*
X913889Y752132D01*
X913889Y746358D01*
X916774Y740585D01*
X919662Y737699D01*
X928321Y734814D01*
X954298Y734814D01*
X934092Y734814D02*
G01*
X913889Y703064D01*
X891954Y749244D02*
G01*
X891954Y752132D01*
X889066Y757905D01*
X886180Y760790D01*
X880407Y763676D01*
X868862Y763676D01*
X863089Y760790D01*
X860204Y757905D01*
X857316Y752132D01*
X857316Y746358D01*
X860204Y740585D01*
X865974Y731926D01*
X894839Y703064D01*
X854430Y703064D01*
X820948Y763676D02*
G01*
X829607Y760790D01*
X832492Y755017D01*
X832492Y749244D01*
X829607Y743473D01*
X823833Y740585D01*
X812289Y737699D01*
X803630Y734814D01*
X797857Y729040D01*
X794971Y723267D01*
X794971Y714608D01*
X797857Y708835D01*
X800742Y705949D01*
X809404Y703064D01*
X820948Y703064D01*
X829607Y705949D01*
X832492Y708835D01*
X835380Y714608D01*
X835380Y723267D01*
X832492Y729040D01*
X826721Y734814D01*
X818062Y737699D01*
X806516Y740585D01*
X800742Y743473D01*
X797857Y749244D01*
X797857Y755017D01*
X800742Y760790D01*
X809404Y763676D01*
X820948Y763676D01*
X-764791Y856300D02*
G01*
X-764791Y796163D01*
X-764791Y856300D02*
G01*
X-784837Y856300D01*
X-793427Y853434D01*
X-799155Y847707D01*
X-802017Y841982D01*
X-804882Y833389D01*
X-804882Y819071D01*
X-802017Y810480D01*
X-799155Y804753D01*
X-793427Y799026D01*
X-784837Y796163D01*
X-764791Y796163D01*
X-829510Y856300D02*
G01*
X-861009Y856300D01*
X-843828Y833389D01*
X-852418Y833389D01*
X-858146Y830526D01*
X-861009Y827661D01*
X-863874Y819071D01*
X-863874Y813343D01*
X-861009Y804753D01*
X-855281Y799026D01*
X-846691Y796163D01*
X-838100Y796163D01*
X-829510Y799026D01*
X-826645Y801890D01*
X-823782Y807618D01*
X-769312Y473445D02*
G01*
X-769312Y413308D01*
X-769312Y473445D02*
G01*
X-789358Y473445D01*
X-797948Y470580D01*
X-803676Y464853D01*
X-806538Y459127D01*
X-809404Y450535D01*
X-809404Y436217D01*
X-806538Y427626D01*
X-803676Y421899D01*
X-797948Y416172D01*
X-789358Y413308D01*
X-769312Y413308D01*
X-856940Y473445D02*
G01*
X-828304Y433354D01*
X-871258Y433354D01*
X-856940Y473445D02*
G01*
X-856940Y413308D01*
D13*
X-311099Y-760442D02*
G01*
X-311099Y-808169D01*
X-311099Y-808169D02*
G01*
X-338371Y-808169D01*
X-353372Y-760442D02*
G01*
X-353372Y-808169D01*
X-353372Y-760442D02*
G01*
X-382917Y-760442D01*
X-353372Y-783170D02*
G01*
X-371553Y-783170D01*
X-353372Y-808169D02*
G01*
X-382917Y-808169D01*
X-397916Y-760442D02*
G01*
X-397916Y-808169D01*
X-397916Y-760442D02*
G01*
X-413826Y-760442D01*
X-420644Y-762716D01*
X-425190Y-767260D01*
X-427461Y-771806D01*
X-429734Y-778624D01*
X-429734Y-789988D01*
X-427461Y-796805D01*
X-425190Y-801352D01*
X-420644Y-805898D01*
X-413826Y-808169D01*
X-397916Y-808169D01*
X-444736Y-769533D02*
G01*
X-449280Y-767260D01*
X-456097Y-760442D01*
X-456097Y-808169D01*
D10*
X-240362Y274921D02*
G01*
X-240362Y231487D01*
X-243156Y222851D01*
X-248998Y217263D01*
X-257634Y214215D01*
X-263476Y214215D01*
X-272112Y217263D01*
X-277700Y222851D01*
X-280748Y231487D01*
X-280748Y274921D01*
X-299798Y263237D02*
G01*
X-305640Y266285D01*
X-314276Y274921D01*
X-314276Y214215D01*
X-350598Y274921D02*
G01*
X-341962Y272127D01*
X-336120Y263237D01*
X-333326Y249013D01*
X-333326Y240377D01*
X-336120Y225899D01*
X-341962Y217263D01*
X-350598Y214215D01*
X-356440Y214215D01*
X-365076Y217263D01*
X-370664Y225899D01*
X-373712Y240377D01*
X-373712Y249013D01*
X-370664Y263237D01*
X-365076Y272127D01*
X-356440Y274921D01*
X-350598Y274921D01*
X-834735Y700145D02*
G01*
X-834735Y639533D01*
X-834735Y700145D02*
G01*
X-860712Y700145D01*
X-869370Y697260D01*
X-872258Y694375D01*
X-875144Y688601D01*
X-875144Y682828D01*
X-872258Y677054D01*
X-869370Y674169D01*
X-860712Y671283D01*
X-834735Y671283D01*
X-854941Y671283D02*
G01*
X-875144Y639533D01*
X-934603Y700145D02*
G01*
X-905741Y639533D01*
X-894194Y700145D02*
G01*
X-934603Y700145D01*
X-825649Y1037269D02*
G01*
X-825649Y976657D01*
X-825649Y1037269D02*
G01*
X-851626Y1037269D01*
X-860285Y1034384D01*
X-863173Y1031499D01*
X-866058Y1025725D01*
X-866058Y1019952D01*
X-863173Y1014178D01*
X-860285Y1011293D01*
X-851626Y1008407D01*
X-825649Y1008407D01*
X-845855Y1008407D02*
G01*
X-866058Y976657D01*
X-885108Y1025725D02*
G01*
X-890882Y1028611D01*
X-899540Y1037269D01*
X-899540Y976657D01*
X-958999Y1037269D02*
G01*
X-930135Y976657D01*
X-918590Y1037269D02*
G01*
X-958999Y1037269D01*
D14*
X65402Y944059D02*
G01*
X141765Y944059D01*
X65402Y944059D02*
G01*
X65402Y918606D01*
X69037Y907696D01*
X76311Y900422D01*
X83583Y896787D01*
X94493Y893150D01*
X112674Y893150D01*
X123583Y896787D01*
X130855Y900422D01*
X138127Y907696D01*
X141765Y918606D01*
X141765Y944059D01*
X65402Y869149D02*
G01*
X141765Y869149D01*
X76311Y794242D02*
G01*
X69037Y801514D01*
X65402Y812424D01*
X65402Y826968D01*
X69037Y837877D01*
X76311Y845149D01*
X83583Y845149D01*
X90855Y841514D01*
X94493Y837877D01*
X98128Y830605D01*
X105402Y808786D01*
X109037Y801514D01*
X112674Y797877D01*
X119946Y794242D01*
X130855Y794242D01*
X138127Y801514D01*
X141765Y812424D01*
X141765Y826968D01*
X138127Y837877D01*
X130855Y845149D01*
X65402Y770242D02*
G01*
X141765Y770242D01*
X65402Y770242D02*
G01*
X65402Y737514D01*
X69037Y726605D01*
X72674Y722970D01*
X79946Y719333D01*
X90855Y719333D01*
X98128Y722970D01*
X101765Y726605D01*
X105402Y737514D01*
X105402Y770242D01*
X65402Y695332D02*
G01*
X141765Y695332D01*
X141765Y695332D02*
G01*
X141765Y651695D01*
X65402Y598606D02*
G01*
X141765Y627697D01*
X65402Y598606D02*
G01*
X141765Y569513D01*
X116311Y616788D02*
G01*
X116311Y580423D01*
X65402Y545515D02*
G01*
X101765Y516425D01*
X141765Y516425D01*
X65402Y487332D02*
G01*
X101765Y516425D01*
D13*
X277101Y283809D02*
G01*
X258051Y296509D01*
X277101Y296509D02*
G01*
X258051Y283809D01*
X277101Y302605D02*
G01*
X258051Y315305D01*
X277101Y315305D02*
G01*
X258051Y302605D01*
D15*
X287007Y1161115D02*
G01*
X267957Y1153749D01*
X287007Y1161115D02*
G01*
X267957Y1168481D01*
X274307Y1156543D02*
G01*
X274307Y1165687D01*
D10*
X457456Y-872916D02*
G01*
X457459Y-916211D01*
X454571Y-924869D01*
X448797Y-930643D01*
X440138Y-933531D01*
X434365Y-933528D01*
X425706Y-930643D01*
X419933Y-924869D01*
X417047Y-916211D01*
X417047Y-872916D01*
X397997Y-884461D02*
G01*
X392224Y-881573D01*
X383565Y-872916D01*
X383565Y-933528D01*
X335650Y-872916D02*
G01*
X364515Y-913325D01*
X321221Y-913325D01*
X335650Y-872916D02*
G01*
X335650Y-933528D01*
X1652524Y-235412D02*
G01*
X1652524Y-302232D01*
X1652524Y-235412D02*
G01*
X1623888Y-235412D01*
X1614342Y-238594D01*
X1611160Y-241777D01*
X1607977Y-248140D01*
X1607977Y-254505D01*
X1611160Y-260868D01*
X1614342Y-264050D01*
X1623888Y-267230D01*
X1652524Y-267230D01*
X1630250Y-267230D02*
G01*
X1607977Y-302232D01*
X1586979Y-235412D02*
G01*
X1586979Y-302232D01*
X1586979Y-235412D02*
G01*
X1545615Y-235412D01*
X1586979Y-267230D02*
G01*
X1561523Y-267230D01*
X1521434Y-251322D02*
G01*
X1521434Y-248140D01*
X1518251Y-241777D01*
X1515069Y-238594D01*
X1508706Y-235412D01*
X1495978Y-235412D01*
X1489616Y-238594D01*
X1486433Y-241777D01*
X1483250Y-248140D01*
X1483250Y-254505D01*
X1486433Y-260868D01*
X1492796Y-270413D01*
X1524614Y-302232D01*
X1480070Y-302232D01*
X1166855Y-165788D02*
G01*
X1166855Y-208744D01*
X1163993Y-217335D01*
X1158265Y-223062D01*
X1149675Y-225925D01*
X1143947Y-225925D01*
X1135354Y-223062D01*
X1129629Y-217335D01*
X1126764Y-208744D01*
X1126764Y-165788D01*
X1105001Y-180106D02*
G01*
X1105001Y-177243D01*
X1102136Y-171516D01*
X1099273Y-168653D01*
X1093546Y-165788D01*
X1082093Y-165788D01*
X1076365Y-168653D01*
X1073500Y-171516D01*
X1070637Y-177243D01*
X1070637Y-182971D01*
X1073500Y-188699D01*
X1079228Y-197289D01*
X1107864Y-225925D01*
X1067772Y-225925D01*
X1443667Y9773D02*
G01*
X1443667Y-50363D01*
X1443667Y-50363D02*
G01*
X1409303Y-50363D01*
X1387541Y-4544D02*
G01*
X1387541Y-1681D01*
X1384675Y4046D01*
X1381813Y6908D01*
X1376085Y9773D01*
X1364630Y9773D01*
X1358905Y6908D01*
X1356039Y4046D01*
X1353177Y-1681D01*
X1353177Y-7409D01*
X1356039Y-13136D01*
X1361767Y-21727D01*
X1390403Y-50363D01*
X1350312Y-50363D01*
X1143767Y1616905D02*
G01*
X1143767Y1556293D01*
X1143767Y1616905D02*
G01*
X1117790Y1616905D01*
X1109131Y1614020D01*
X1106243Y1611132D01*
X1103358Y1605361D01*
X1103358Y1599587D01*
X1106243Y1593814D01*
X1109131Y1590929D01*
X1117790Y1588043D01*
X1143767Y1588043D01*
X1123561Y1588043D02*
G01*
X1103358Y1556293D01*
X1084308Y1605361D02*
G01*
X1078534Y1608246D01*
X1069875Y1616905D01*
X1069875Y1556293D01*
X1047940Y1602473D02*
G01*
X1047940Y1605361D01*
X1045052Y1611132D01*
X1042167Y1614020D01*
X1036393Y1616905D01*
X1024849Y1616905D01*
X1019075Y1614020D01*
X1016190Y1611132D01*
X1013302Y1605361D01*
X1013302Y1599587D01*
X1016190Y1593814D01*
X1021963Y1585155D01*
X1050825Y1556293D01*
X1010417Y1556293D01*
X2047999Y382371D02*
G01*
X2050884Y388145D01*
X2056658Y393918D01*
X2062429Y396803D01*
X2073976Y396803D01*
X2079749Y393918D01*
X2085520Y388145D01*
X2088408Y382371D01*
X2091293Y373712D01*
X2091293Y359282D01*
X2088408Y350621D01*
X2085520Y344850D01*
X2079749Y339077D01*
X2073976Y336191D01*
X2062429Y336191D01*
X2056658Y339077D01*
X2050884Y344850D01*
X2047999Y350621D01*
X2026061Y382371D02*
G01*
X2026061Y385259D01*
X2023176Y391032D01*
X2020288Y393918D01*
X2014517Y396803D01*
X2002970Y396803D01*
X1997199Y393918D01*
X1994311Y391032D01*
X1991426Y385259D01*
X1991426Y379486D01*
X1994311Y373712D01*
X2000084Y365053D01*
X2028949Y336191D01*
X1988538Y336191D01*
X1963717Y396803D02*
G01*
X1931967Y396803D01*
X1949284Y373712D01*
X1940626Y373712D01*
X1934852Y370827D01*
X1931967Y367941D01*
X1929079Y359282D01*
X1929079Y353509D01*
X1931967Y344850D01*
X1937738Y339077D01*
X1946399Y336191D01*
X1955058Y336191D01*
X1963717Y339077D01*
X1966602Y341962D01*
X1969488Y347736D01*
X-139306Y107551D02*
G01*
X-136420Y113324D01*
X-130647Y119098D01*
X-124876Y121983D01*
X-113329Y121983D01*
X-107556Y119098D01*
X-101785Y113324D01*
X-98897Y107551D01*
X-96011Y98892D01*
X-96011Y84462D01*
X-98897Y75801D01*
X-101785Y70030D01*
X-107556Y64256D01*
X-113329Y61371D01*
X-124876Y61371D01*
X-130647Y64256D01*
X-136420Y70030D01*
X-139306Y75801D01*
X-187220Y121983D02*
G01*
X-158356Y81574D01*
X-201653Y81574D01*
X-187220Y121983D02*
G01*
X-187220Y61371D01*
X1736483Y-91051D02*
G01*
X1739369Y-85277D01*
X1745142Y-79504D01*
X1750913Y-76619D01*
X1762460Y-76619D01*
X1768233Y-79504D01*
X1774004Y-85277D01*
X1776892Y-91051D01*
X1779777Y-99710D01*
X1779777Y-114139D01*
X1776892Y-122801D01*
X1774004Y-128572D01*
X1768233Y-134345D01*
X1762460Y-137231D01*
X1750913Y-137231D01*
X1745142Y-134345D01*
X1739369Y-128572D01*
X1736483Y-122801D01*
X1677022Y-76619D02*
G01*
X1705886Y-137231D01*
X1717433Y-76619D02*
G01*
X1677022Y-76619D01*
X-270395Y-224848D02*
G01*
X-267507Y-219075D01*
X-261736Y-213301D01*
X-255963Y-210418D01*
X-244419Y-210418D01*
X-238643Y-213304D01*
X-232872Y-219077D01*
X-229984Y-224850D01*
X-227098Y-233509D01*
X-227098Y-247939D01*
X-229984Y-256600D01*
X-232872Y-262371D01*
X-238643Y-268145D01*
X-244416Y-271028D01*
X-255965Y-271028D01*
X-261734Y-268145D01*
X-267507Y-262371D01*
X-270395Y-256600D01*
X-289443Y-221960D02*
G01*
X-295216Y-219077D01*
X-303875Y-210418D01*
X-303875Y-271028D01*
X-328698Y-210418D02*
G01*
X-360451Y-210418D01*
X-343133Y-233507D01*
X-351790Y-233507D01*
X-357563Y-236395D01*
X-360448Y-239278D01*
X-363334Y-247937D01*
X-363336Y-253712D01*
X-360451Y-262371D01*
X-354675Y-268145D01*
X-346016Y-271030D01*
X-337357Y-271028D01*
X-328698Y-268142D01*
X-325815Y-265259D01*
X-322925Y-259483D01*
X-160512Y-715627D02*
G01*
X-160512Y-776239D01*
X-160512Y-715627D02*
G01*
X-186489Y-715627D01*
X-195148Y-718512D01*
X-198036Y-721398D01*
X-200921Y-727171D01*
X-200921Y-732944D01*
X-198036Y-738718D01*
X-195148Y-741603D01*
X-186489Y-744489D01*
X-160512Y-744489D01*
X-180718Y-744489D02*
G01*
X-200921Y-776239D01*
X-219971Y-727171D02*
G01*
X-225745Y-724286D01*
X-234403Y-715627D01*
X-234403Y-776239D01*
X-282318Y-715627D02*
G01*
X-253453Y-756036D01*
X-296748Y-756036D01*
X-282318Y-715627D02*
G01*
X-282318Y-776239D01*
X-219900Y-76301D02*
G01*
X-219900Y-136913D01*
X-219900Y-136913D02*
G01*
X-254535Y-136913D01*
X-273585Y-87845D02*
G01*
X-279359Y-84960D01*
X-288018Y-76301D01*
X-288018Y-136913D01*
X-85854Y397583D02*
G01*
X-85852Y336971D01*
X-85854Y397583D02*
G01*
X-111828Y397586D01*
X-120489Y394698D01*
X-123375Y391812D01*
X-126263Y386039D01*
X-126260Y380265D01*
X-123375Y374492D01*
X-120487Y371607D01*
X-111828Y368721D01*
X-85852Y368721D01*
X-106057Y368721D02*
G01*
X-126260Y336969D01*
X-151084Y397586D02*
G01*
X-182834Y397586D01*
X-165516Y374495D01*
X-174175Y374492D01*
X-179946Y371607D01*
X-182834Y368719D01*
X-185719Y360062D01*
X-185719Y354289D01*
X-182834Y345627D01*
X-177060Y339857D01*
X-168402Y336971D01*
X-159743Y336969D01*
X-151084Y339857D01*
X-148198Y342742D01*
X-145310Y348515D01*
X719719Y1302113D02*
G01*
X719719Y1241501D01*
X719719Y1302113D02*
G01*
X693742Y1302113D01*
X685083Y1299227D01*
X682195Y1296339D01*
X679310Y1290568D01*
X679310Y1284795D01*
X682195Y1279022D01*
X685083Y1276136D01*
X693742Y1273251D01*
X719719Y1273251D01*
X699513Y1273251D02*
G01*
X679310Y1241501D01*
X657374Y1287680D02*
G01*
X657374Y1290568D01*
X654486Y1296339D01*
X651601Y1299227D01*
X645828Y1302113D01*
X634283Y1302113D01*
X628510Y1299227D01*
X625624Y1296339D01*
X622736Y1290568D01*
X622736Y1284795D01*
X625624Y1279022D01*
X631395Y1270363D01*
X660260Y1241501D01*
X619851Y1241501D01*
X560392Y1302113D02*
G01*
X589254Y1241501D01*
X600801Y1302113D02*
G01*
X560392Y1302113D01*
X1288475Y2102434D02*
G01*
X1245615Y2059576D01*
X1288475Y2102434D02*
G01*
X1270106Y2120803D01*
X1261943Y2124885D01*
X1257858Y2124885D01*
X1251737Y2122843D01*
X1247655Y2118761D01*
X1245615Y2112639D01*
X1245615Y2108558D01*
X1249697Y2100394D01*
X1268064Y2082025D02*
G01*
X1249697Y2100394D01*
X1241534Y2104476D01*
X1237452Y2104476D01*
X1231328Y2102434D01*
X1225204Y2096312D01*
X1223164Y2090188D01*
X1223164Y2086107D01*
X1227246Y2077946D01*
X1245615Y2059576D01*
X1234186Y2136315D02*
G01*
X1236225Y2138357D01*
X1238265Y2144478D01*
X1238265Y2148560D01*
X1236225Y2154681D01*
X1228062Y2162848D01*
X1221938Y2164890D01*
X1217856Y2164887D01*
X1211734Y2162848D01*
X1207653Y2158766D01*
X1205613Y2152642D01*
X1203571Y2142436D01*
X1203571Y2101618D01*
X1174996Y2130193D01*
X1136576Y1512036D02*
G01*
X1136576Y1451424D01*
X1136576Y1512036D02*
G01*
X1110599Y1512036D01*
X1101940Y1509151D01*
X1099052Y1506263D01*
X1096167Y1500492D01*
X1096167Y1494718D01*
X1099052Y1488945D01*
X1101940Y1486060D01*
X1110599Y1483174D01*
X1136576Y1483174D01*
X1116370Y1483174D02*
G01*
X1096167Y1451424D01*
X1077117Y1500492D02*
G01*
X1071344Y1503377D01*
X1062685Y1512036D01*
X1062685Y1451424D01*
X1037861Y1512036D02*
G01*
X1006111Y1512036D01*
X1023432Y1488945D01*
X1014773Y1488945D01*
X1008999Y1486060D01*
X1006111Y1483174D01*
X1003226Y1474515D01*
X1003226Y1468742D01*
X1006111Y1460083D01*
X1011885Y1454310D01*
X1020544Y1451424D01*
X1029202Y1451424D01*
X1037861Y1454310D01*
X1040749Y1457195D01*
X1043635Y1462968D01*
D11*
X1977029Y1147505D02*
G01*
X1918586Y1115110D01*
X1977029Y1147505D02*
G01*
X1963145Y1172550D01*
X1955733Y1179357D01*
X1951408Y1180597D01*
X1944298Y1180297D01*
X1938733Y1177211D01*
X1934712Y1171343D01*
X1933473Y1167018D01*
X1935314Y1157127D01*
X1949201Y1132080D02*
G01*
X1935314Y1157127D01*
X1927908Y1163932D01*
X1923580Y1165171D01*
X1916470Y1164869D01*
X1908124Y1160241D01*
X1904100Y1154374D01*
X1902861Y1150051D01*
X1904705Y1140157D01*
X1918586Y1115110D01*
X1934118Y1198661D02*
G01*
X1933818Y1205771D01*
X1937539Y1218747D01*
X1879097Y1186352D01*
D10*
X1384218Y1112398D02*
G01*
X1390058Y1109604D01*
X1395902Y1103762D01*
X1398694Y1097920D01*
X1398694Y1086490D01*
X1395900Y1080648D01*
X1390060Y1075060D01*
X1384218Y1072012D01*
X1375580Y1069218D01*
X1361102Y1069218D01*
X1352466Y1072012D01*
X1346624Y1075060D01*
X1341036Y1080648D01*
X1337988Y1086490D01*
X1337988Y1097920D01*
X1341036Y1103762D01*
X1346626Y1109604D01*
X1352468Y1112398D01*
X1387264Y1131450D02*
G01*
X1390058Y1137290D01*
X1398694Y1145926D01*
X1337988Y1145926D01*
X1275427Y1080993D02*
G01*
X1214719Y1080993D01*
X1275427Y1080993D02*
G01*
X1275427Y1106901D01*
X1272631Y1115534D01*
X1269583Y1118585D01*
X1263997Y1121379D01*
X1258155Y1121379D01*
X1252313Y1118585D01*
X1249519Y1115537D01*
X1246471Y1106901D01*
X1246471Y1080993D01*
X1246471Y1101059D02*
G01*
X1214721Y1121379D01*
X1263997Y1140429D02*
G01*
X1266791Y1146271D01*
X1275427Y1154907D01*
X1214721Y1154907D01*
X-770381Y314266D02*
G01*
X-770381Y253654D01*
X-770381Y314266D02*
G01*
X-796358Y314266D01*
X-805017Y311381D01*
X-807905Y308495D01*
X-810790Y302722D01*
X-810790Y296948D01*
X-807905Y291175D01*
X-805017Y288289D01*
X-796358Y285404D01*
X-770381Y285404D01*
X-790587Y285404D02*
G01*
X-810790Y253654D01*
X-864476Y305607D02*
G01*
X-861590Y311381D01*
X-852931Y314266D01*
X-847158Y314266D01*
X-838499Y311381D01*
X-832726Y302722D01*
X-829840Y288289D01*
X-829840Y273857D01*
X-832726Y262313D01*
X-838499Y256539D01*
X-847158Y253654D01*
X-850046Y253654D01*
X-858705Y256539D01*
X-864476Y262313D01*
X-867364Y270972D01*
X-867364Y273857D01*
X-864476Y282516D01*
X-858705Y288289D01*
X-850046Y291175D01*
X-847158Y291175D01*
X-838499Y288289D01*
X-832726Y282516D01*
X-829840Y273857D01*
X-213001Y-505315D02*
G01*
X-213001Y-565927D01*
X-213001Y-505315D02*
G01*
X-238978Y-505315D01*
X-247637Y-508200D01*
X-250525Y-511086D01*
X-253410Y-516859D01*
X-253410Y-522632D01*
X-250525Y-528406D01*
X-247637Y-531291D01*
X-238978Y-534177D01*
X-213001Y-534177D01*
X-233207Y-534177D02*
G01*
X-253410Y-565927D01*
X-272460Y-516859D02*
G01*
X-278234Y-513974D01*
X-286893Y-505315D01*
X-286893Y-565927D01*
X-323260Y-505315D02*
G01*
X-314601Y-508200D01*
X-308828Y-516859D01*
X-305943Y-531291D01*
X-305943Y-539950D01*
X-308828Y-554382D01*
X-314601Y-563041D01*
X-323260Y-565927D01*
X-329034Y-565927D01*
X-337693Y-563041D01*
X-343466Y-554382D01*
X-346351Y-539950D01*
X-346351Y-531291D01*
X-343466Y-516859D01*
X-337693Y-508200D01*
X-329034Y-505315D01*
X-323260Y-505315D01*
D14*
X-1118359Y-84002D02*
G01*
X-759150Y-443212D01*
X-597507Y-281569D01*
X-956716Y77640D01*
X-1118359Y-84002D01*
X-758642Y1960542D02*
G01*
X-1117851Y1601332D01*
X-956208Y1439689D01*
X-596999Y1798899D01*
X-758642Y1960542D01*
D16*
X-1777311Y296892D02*
G01*
X-1127300Y296892D01*
X-1127300Y1190896D01*
X-1777311Y1190896D01*
X-1777311Y296892D01*
X-1589224Y235882D02*
G01*
X-1538424Y235882D01*
X-1538424Y286682D01*
X-1589224Y286682D01*
X-1589224Y235882D01*
X-1589199Y1201082D02*
G01*
X-1538399Y1201082D01*
X-1538399Y1251882D01*
X-1589199Y1251882D01*
X-1589199Y1201082D01*
X-1185339Y1201082D02*
G01*
X-1134539Y1201082D01*
X-1134539Y1251882D01*
X-1185339Y1251882D01*
X-1185339Y1201082D01*
X-1185339Y235882D02*
G01*
X-1134539Y235882D01*
X-1134539Y286682D01*
X-1185339Y286682D01*
X-1185339Y235882D01*
X-1309824Y489882D02*
G01*
X-1182824Y489882D01*
X-1182824Y642282D01*
X-1309824Y642282D01*
X-1309824Y489882D01*
X-1309824Y845482D02*
G01*
X-1182824Y845482D01*
X-1182824Y997882D01*
X-1309824Y997882D01*
X-1309824Y845482D01*
D14*
X993195Y1055199D02*
G01*
X993195Y420199D01*
X2529895Y420199D01*
X2529895Y1055199D01*
X993195Y1055199D01*
D11*
X-478919Y-251940D02*
G01*
X-550722Y-251940D01*
X-550722Y-351660D01*
X-478919Y-351660D01*
X-433677Y-251940D02*
G01*
X-361873Y-251940D01*
X-361873Y-351660D01*
X-433677Y-351660D01*
X-433377Y-469259D02*
G01*
X-361574Y-469259D01*
X-361574Y-369539D01*
X-433377Y-369539D01*
X-478619Y-469259D02*
G01*
X-550423Y-469259D01*
X-550423Y-369539D01*
X-478619Y-369539D01*
D17*
X792634Y1266697D02*
G01*
X786897Y1266697D01*
X786897Y1101597D01*
X982629Y1266697D02*
G01*
X895964Y1266697D01*
X990963Y1101597D02*
G01*
X1091697Y1101597D01*
X1091697Y1266697D01*
X1085956Y1266697D01*
X786897Y1101597D02*
G01*
X887630Y1101597D01*
D11*
X881517Y652559D02*
G01*
X927069Y652559D01*
X927069Y574438D01*
X881517Y574438D01*
X848278Y652559D02*
G01*
X802726Y652559D01*
X802726Y574438D01*
X848278Y574438D01*
X502739Y1450317D02*
G01*
X502739Y1495869D01*
X580859Y1495869D01*
X580859Y1450317D01*
X502739Y1417078D02*
G01*
X502739Y1371526D01*
X580859Y1371526D01*
X580859Y1417078D01*
X878217Y857458D02*
G01*
X923770Y857458D01*
X923770Y779338D01*
X878217Y779338D01*
X844979Y857458D02*
G01*
X799426Y857458D01*
X799426Y779338D01*
X844979Y779338D01*
D18*
X-827453Y719904D02*
G01*
X-797455Y719904D01*
X-797455Y779899D01*
X-827453Y779899D01*
X-827453Y719904D01*
X-827453Y741164D02*
G01*
X-797455Y741164D01*
X-797455Y758664D01*
X-827453Y758664D01*
X-827453Y741164D01*
X-791613Y491583D02*
G01*
X-791613Y521581D01*
X-851608Y521581D01*
X-851608Y491583D01*
X-791613Y491583D01*
X-812873Y491583D02*
G01*
X-812873Y521581D01*
X-830374Y521581D01*
X-830374Y491583D01*
X-812873Y491583D01*
D19*
X-505038Y-703447D02*
G01*
X-504047Y-703447D01*
X-471037Y-670445D01*
X-505038Y-635444D02*
G01*
X-505038Y-636445D01*
X-471037Y-670445D01*
X-505038Y-635444D02*
G01*
X-505038Y-703447D01*
X-507042Y-595442D02*
G01*
X-622048Y-595442D01*
X-507042Y-745454D02*
G01*
X-622048Y-745454D01*
X-622048Y-595447D02*
G01*
X-622048Y-743445D01*
X-469041Y-745683D02*
G01*
X-364030Y-745683D01*
X-334035Y-705672D02*
G01*
X-334035Y-715675D01*
X-364030Y-745683D01*
X-334035Y-635680D02*
G01*
X-334035Y-705672D01*
X-334035Y-635680D02*
G01*
X-334035Y-625665D01*
X-364030Y-595670D01*
X-469041Y-595670D02*
G01*
X-364030Y-595670D01*
X-505038Y-670445D02*
G01*
X-471037Y-670445D01*
D11*
X-465043Y231868D02*
G01*
X-635284Y231868D01*
X-465043Y-73372D02*
G01*
X-635284Y-73372D01*
X-635284Y31607D02*
G01*
X-635284Y126888D01*
X-898936Y542439D02*
G01*
X-944488Y542439D01*
X-944488Y620560D01*
X-898936Y620560D01*
X-865698Y542439D02*
G01*
X-820145Y542439D01*
X-820145Y620560D01*
X-865698Y620560D01*
X-869254Y955332D02*
G01*
X-823701Y955332D01*
X-823701Y877211D01*
X-869254Y877211D01*
X-902492Y955332D02*
G01*
X-948044Y955332D01*
X-948044Y877211D01*
X-902492Y877211D01*
D17*
X638591Y273860D02*
G01*
X644116Y273860D01*
X644116Y487189D01*
X305259Y1223858D02*
G01*
X294116Y1223858D01*
X294116Y1273860D01*
X194116Y1273860D01*
X194116Y213857D01*
X644116Y1000516D02*
G01*
X644116Y1223858D01*
X638586Y1223858D01*
X194116Y213857D02*
G01*
X294116Y213857D01*
X294116Y273860D01*
X305262Y273860D01*
D11*
X-11463Y-819840D02*
G01*
X-11463Y-842611D01*
X-11463Y-842611D01*
X973777Y-842611D01*
X973777Y-842611D01*
X973777Y-819840D01*
X-11463Y159857D02*
G01*
X-11463Y182628D01*
X-11463Y182628D01*
X973777Y182628D01*
X973777Y182628D01*
X973777Y159857D01*
D16*
X1168145Y-310324D02*
G01*
X1168145Y-320885D01*
X1168145Y-467113D02*
G01*
X1168145Y-477674D01*
D11*
X1250950Y31803D02*
G01*
X1135710Y31803D01*
X1250950Y-143436D02*
G01*
X1135710Y-143436D01*
X1416921Y-69397D02*
G01*
X1453766Y-69397D01*
X1469006Y-84637D01*
X1469006Y-132278D01*
X1453766Y-147518D01*
X1416921Y-147518D01*
X1383682Y-69397D02*
G01*
X1346837Y-69397D01*
X1331597Y-84637D01*
X1331597Y-132278D01*
X1346837Y-147518D01*
X1383682Y-147518D01*
X913152Y1546136D02*
G01*
X984956Y1546136D01*
X984956Y1645856D01*
X913152Y1645856D01*
X867910Y1546136D02*
G01*
X796107Y1546136D01*
X796107Y1645856D01*
X867910Y1645856D01*
X1891426Y297837D02*
G01*
X1812416Y297837D01*
X1812416Y397558D02*
G01*
X1891426Y397558D01*
X1906666Y382318D02*
G01*
X1906666Y313077D01*
X1688165Y297837D02*
G01*
X1767174Y297837D01*
X1767174Y397558D02*
G01*
X1688165Y397558D01*
X1672925Y382318D02*
G01*
X1672925Y313077D01*
X-88440Y30231D02*
G01*
X-88440Y-48778D01*
X-188160Y-48778D02*
G01*
X-188160Y30231D01*
X-172920Y45471D02*
G01*
X-103680Y45471D01*
X-88440Y-173029D02*
G01*
X-88440Y-94020D01*
X-188160Y-94020D02*
G01*
X-188160Y-173029D01*
X-172920Y-188269D02*
G01*
X-103680Y-188269D01*
X1646298Y-149550D02*
G01*
X1609453Y-149550D01*
X1609453Y-71429D02*
G01*
X1646298Y-71429D01*
X1661538Y-86669D02*
G01*
X1661538Y-134310D01*
X1539369Y-149550D02*
G01*
X1576214Y-149550D01*
X1576214Y-71429D02*
G01*
X1539369Y-71429D01*
X1524129Y-86669D02*
G01*
X1524129Y-134310D01*
X-385269Y-225960D02*
G01*
X-464278Y-225960D01*
X-464278Y-126240D02*
G01*
X-385269Y-126240D01*
X-370029Y-141483D02*
G01*
X-370029Y-210718D01*
X-588530Y-225960D02*
G01*
X-509521Y-225960D01*
X-509521Y-126240D02*
G01*
X-588530Y-126240D01*
X-603770Y-141483D02*
G01*
X-603770Y-210718D01*
X-168038Y-619561D02*
G01*
X-122486Y-619561D01*
X-122486Y-697682D01*
X-168038Y-697682D01*
X-201277Y-619561D02*
G01*
X-246829Y-619561D01*
X-246829Y-697682D01*
X-201277Y-697682D01*
X-185938Y-8219D02*
G01*
X-185938Y-45064D01*
X-201178Y-60304D01*
X-248818Y-60304D01*
X-264058Y-45064D01*
X-264058Y-8219D01*
X-185938Y25019D02*
G01*
X-185938Y61864D01*
X-201178Y77104D01*
X-248818Y77104D01*
X-264058Y61864D01*
X-264058Y25019D01*
X-68341Y321640D02*
G01*
X-140144Y321640D01*
X-140144Y221919D01*
X-68341Y221919D01*
X-23098Y321640D02*
G01*
X48704Y321640D01*
X48704Y221919D01*
X-23098Y221919D01*
X602937Y1393974D02*
G01*
X602937Y1322171D01*
X702657Y1322171D01*
X702657Y1393974D01*
X602937Y1439217D02*
G01*
X602937Y1511020D01*
X702657Y1511020D01*
X702657Y1439217D01*
D16*
X1479100Y2014809D02*
G01*
X1416237Y1951946D01*
X1585168Y1908743D02*
G01*
X1522305Y1845878D01*
X1585168Y1908743D02*
G01*
X1479100Y2014809D01*
X1543083Y1825101D02*
G01*
X1395463Y1972726D01*
X1181821Y1881032D02*
G01*
X1163942Y1898914D01*
X1235786Y1970758D01*
X1545983Y1670296D02*
G01*
X1469273Y1593585D01*
X1451394Y1611464D01*
D11*
X865116Y1525206D02*
G01*
X793313Y1525206D01*
X793313Y1425486D01*
X865116Y1425486D01*
X910358Y1525206D02*
G01*
X982162Y1525206D01*
X982162Y1425486D01*
X910358Y1425486D01*
D16*
X1837928Y1545823D02*
G01*
X1758025Y1506855D01*
X1903686Y1411003D02*
G01*
X1823783Y1372034D01*
X1903686Y1411003D02*
G01*
X1837928Y1545823D01*
X1836663Y1345623D02*
G01*
X1745145Y1533265D01*
X1513296Y1516123D02*
G01*
X1502209Y1538848D01*
X1593527Y1583387D01*
X1789005Y1198305D02*
G01*
X1691500Y1150749D01*
X1680413Y1173474D01*
D11*
X1415445Y1390888D02*
G01*
X1415445Y1311879D01*
X1315725Y1311876D02*
G01*
X1315725Y1390888D01*
X1330965Y1406128D02*
G01*
X1400205Y1406128D01*
X1415445Y1187627D02*
G01*
X1415445Y1266639D01*
X1315725Y1266637D02*
G01*
X1315725Y1187627D01*
X1330965Y1172387D02*
G01*
X1400205Y1172387D01*
X1296065Y1300449D02*
G01*
X1296065Y1372252D01*
X1196345Y1372252D01*
X1196345Y1300446D01*
X1296065Y1255209D02*
G01*
X1296065Y1183403D01*
X1196345Y1183403D01*
X1196345Y1255207D01*
X-675576Y314368D02*
G01*
X-747379Y314368D01*
X-747379Y214647D01*
X-675576Y214647D01*
X-630334Y314368D02*
G01*
X-558530Y314368D01*
X-558530Y214647D01*
X-630334Y214647D01*
X-477420Y-501837D02*
G01*
X-549224Y-501837D01*
X-549224Y-601558D01*
X-477420Y-601558D01*
X-432178Y-501837D02*
G01*
X-360375Y-501837D01*
X-360375Y-601558D01*
X-432178Y-601558D01*
G75*
G01*
X1891426Y397558D02*
G02*
X1906666Y382318I0J-15240D01*
G75*
G01*
X1906666Y313078D02*
G02*
X1891426Y297838I-15240J0D01*
G75*
G01*
X1688165Y397558D02*
G03*
X1672925Y382318I0J-15240D01*
G75*
G01*
X1672925Y313078D02*
G03*
X1688165Y297838I15240J0D01*
G75*
G01*
X-188161Y30231D02*
G02*
X-172921Y45471I15240J0D01*
G75*
G01*
X-103680Y45471D02*
G02*
X-88440Y30231I0J-15240D01*
G75*
G01*
X-188161Y-173030D02*
G03*
X-172921Y-188270I15240J0D01*
G75*
G01*
X-103680Y-188270D02*
G03*
X-88440Y-173030I0J15240D01*
G75*
G01*
X1646298Y-71430D02*
G02*
X1661538Y-86670I0J-15240D01*
G75*
G01*
X1661538Y-134310D02*
G02*
X1646298Y-149550I-15240J0D01*
G75*
G01*
X1539370Y-71430D02*
G03*
X1524130Y-86670I0J-15240D01*
G75*
G01*
X1524130Y-134310D02*
G03*
X1539370Y-149550I15240J0D01*
G75*
G01*
X-385270Y-126241D02*
G02*
X-370030Y-141483I0J-15240D01*
G75*
G01*
X-370030Y-210718D02*
G02*
X-385270Y-225961I-15240J-3D01*
G75*
G01*
X-588531Y-126241D02*
G03*
X-603771Y-141483I0J-15240D01*
G75*
G01*
X-603771Y-210718D02*
G03*
X-588531Y-225961I15240J-3D01*
G75*
G01*
X1315725Y1390889D02*
G02*
X1330965Y1406129I15240J0D01*
G75*
G01*
X1400205Y1406129D02*
G02*
X1415445Y1390889I0J-15240D01*
G75*
G01*
X1315725Y1187628D02*
G03*
X1330965Y1172388I15240J0D01*
G75*
G01*
X1400205Y1172388D02*
G03*
X1415445Y1187628I0J15240D01*
D13*
G75*
G01
X779351Y264279D02*
G03X779351Y264279I-6604J0D01*
G75*
G01
X685371Y193921D02*
G03X685371Y193921I-5842J0D01*
D19*
G75*
G01
X-748942Y505960D02*
G03X-748942Y505960I-10008J0D01*
G75*
G01
X-801774Y691126D02*
G03X-801774Y691126I-10008J0D01*
D16*
G75*
G01
X-1035733Y337482D02*
G03X-1035733Y337482I-20091J0D01*
D17*
G75*
G01
X924309Y1400802D02*
G03X924309Y1400802I-5004J0D01*
D12*
G75*
G01
X-420850Y244340D02*
G03X-420850Y244340I-15011J0D01*
D16*
G75*
G01
X684406Y293870D02*
G03X684406Y293870I-10312J0D01*
D20*
G75*
G01
X-109344Y-770009D02*
G03X-109344Y-770009I-12497J0D01*
D16*
G75*
G01
X1363144Y-394012D02*
G03X1363144Y-394012I-70002J0D01*
G75*
G01
X1320498Y-394012D02*
G03X1320498Y-394012I-22352J0D01*
D19*
G75*
G01
X1295809Y-5824D02*
G03X1295809Y-5824I-7493J0D01*
M02*
