M48
INCH,LZ
;FILE_FORMAT=2:4
;TYPE=PLATED
;Layer: PTH_Through
;EasyEDA v6.4.31, 2022-02-15 11:42:09
;cf861d6554b0406c859822548a314204,c17a8ced473b4d519dda31697e0e54b6,10
;Gerber Generator version 0.2
;Holesize 1 = 0.0120 inch
T01C0.0120
;Holesize 2 = 0.0240 inch
T02C0.0240
%
G05
G90
T01
X001376Y-000453
X001376Y-000847
X001770Y-000847
X001770Y-000453
X009301Y002206
X009300Y001850
X010973Y004600
X010173Y-000250
X000523Y-003600
X000273Y-003350
X004750Y-002200
X005223Y-002150
X004173Y-000550
X-000565Y000060
X005165Y-000539
X005473Y-000300
X-000342Y-002140
X003740Y-004226
X010973Y001700
X011801Y000693
X006623Y-004500
X007173Y-001800
X009073Y-003450
X010023Y-002000
X011173Y-002050
X009373Y-001100
X009623Y-000850
X007323Y-004850
X010723Y-002100
X004300Y-002400
X006023Y-003600
X010773Y-003000
X003843Y-000294
X000018Y004398
X009823Y005800
X011873Y002700
X003457Y-001768
X005081Y-004758
X006223Y-004750
X001800Y004550
X002050Y-004650
X009700Y-001350
X009450Y006050
X004700Y000800
X003100Y006800
X000997Y005668
X001800Y005800
X002392Y004587
X003644Y000692
X004182Y000443
X004700Y000350
X001650Y002150
X011150Y-000500
X005541Y000220
X000478Y-002782
X001363Y003651
X003038Y-001728
X-000400Y001965
X011520Y-000550
X004018Y003038
X006068Y002704
X007465Y002689
X007042Y002544
X003744Y002472
X006328Y006981
X006531Y002738
X002152Y001859
X004235Y003898
X007854Y003053
X003644Y000331
X005231Y-002928
X000895Y-004038
T02
X007886Y-005946G85X007886Y-005532
X007886Y-007521G85X007886Y-007107
X003460Y-005946G85X003460Y-005532
X003460Y-007521G85X003460Y-007107
M30
