G04 Layer: BottomSilkscreenLayer*
G04 EasyEDA v6.4.31, 2022-02-15 11:42:09*
G04 cf861d6554b0406c859822548a314204,c17a8ced473b4d519dda31697e0e54b6,10*
G04 Gerber Generator version 0.2*
G04 Scale: 100 percent, Rotated: No, Reflected: No *
G04 Dimensions in inches *
G04 leading zeros omitted , absolute positions ,3 integer and 6 decimal *
%FSLAX36Y36*%
%MOIN*%

%ADD11C,0.0100*%
%ADD20C,0.0104*%
%ADD72C,0.0060*%
%ADD73C,0.0059*%
%ADD74C,0.0050*%
%ADD75C,0.0039*%
%ADD77C,0.0010*%
%ADD78C,0.0040*%
%ADD79C,0.0020*%
%ADD80C,0.0005*%
%ADD81C,0.0030*%

%LPD*%
G36*
X944720Y332060D02*
G01*
X941400Y331700D01*
X938420Y331000D01*
X936440Y330260D01*
X934520Y329340D01*
X932680Y328240D01*
X930939Y327000D01*
X929320Y325620D01*
X927800Y324099D01*
X926420Y322460D01*
X925180Y320720D01*
X924080Y318880D01*
X923139Y316960D01*
X922380Y314960D01*
X921736Y312480D01*
X933700Y312480D01*
X933780Y314300D01*
X934620Y315960D01*
X936120Y317120D01*
X937420Y317480D01*
X938720Y317460D01*
X939960Y317020D01*
X941040Y316220D01*
X942220Y314040D01*
X942000Y311760D01*
X940560Y309920D01*
X938120Y309100D01*
X937039Y309140D01*
X936080Y309440D01*
X935240Y309980D01*
X934440Y310820D01*
X933700Y312480D01*
X921736Y312480D01*
X921440Y310420D01*
X921311Y306980D01*
X924160Y306980D01*
X924200Y309600D01*
X924320Y311060D01*
X924479Y311660D01*
X930980Y311660D01*
X931120Y311020D01*
X931440Y310180D01*
X932020Y309260D01*
X932780Y308380D01*
X933620Y307640D01*
X935960Y306440D01*
X938379Y306160D01*
X940759Y306780D01*
X942960Y308280D01*
X943920Y309340D01*
X944580Y310480D01*
X944940Y311760D01*
X945060Y313280D01*
X944960Y314720D01*
X944640Y315920D01*
X944040Y317020D01*
X943120Y318160D01*
X940440Y319920D01*
X937320Y320319D01*
X934340Y319420D01*
X932000Y317240D01*
X931420Y316280D01*
X931100Y315520D01*
X930960Y314920D01*
X926180Y314960D01*
X925340Y315040D01*
X926140Y316720D01*
X927340Y318840D01*
X928780Y320820D01*
X930380Y322640D01*
X932140Y324280D01*
X934060Y325700D01*
X936100Y326920D01*
X938259Y327920D01*
X940500Y328640D01*
X942640Y329020D01*
X945380Y329200D01*
X948139Y329200D01*
X950400Y328960D01*
X953760Y328080D01*
X956880Y326680D01*
X959740Y324799D01*
X962360Y322420D01*
X963880Y320800D01*
X964360Y320000D01*
X963780Y319740D01*
X959659Y319700D01*
X959400Y320600D01*
X958620Y322220D01*
X957500Y323540D01*
X956120Y324520D01*
X954520Y325140D01*
X952840Y325379D01*
X951120Y325200D01*
X949440Y324620D01*
X947920Y323600D01*
X946180Y321260D01*
X945560Y318520D01*
X945599Y318300D01*
X948560Y318300D01*
X948640Y319480D01*
X948960Y320420D01*
X949500Y321200D01*
X950360Y321900D01*
X951260Y322299D01*
X952340Y322500D01*
X953439Y322440D01*
X954440Y322140D01*
X955819Y321140D01*
X956660Y319760D01*
X956919Y318180D01*
X956540Y316540D01*
X955060Y314800D01*
X953000Y314100D01*
X950840Y314480D01*
X949080Y315980D01*
X948820Y316420D01*
X948660Y316900D01*
X948560Y318300D01*
X945599Y318300D01*
X946060Y315740D01*
X947660Y313280D01*
X948840Y312300D01*
X950080Y311640D01*
X951460Y311320D01*
X953020Y311280D01*
X955060Y311640D01*
X956760Y312460D01*
X958139Y313760D01*
X959160Y315500D01*
X959659Y316660D01*
X966480Y316660D01*
X967620Y313560D01*
X968060Y311620D01*
X968300Y309480D01*
X968340Y305080D01*
X968080Y302620D01*
X967780Y301420D01*
X967000Y299060D01*
X965939Y296800D01*
X964640Y294640D01*
X963120Y292660D01*
X961400Y290860D01*
X959520Y289260D01*
X957500Y287920D01*
X954700Y286600D01*
X952580Y285920D01*
X952580Y292220D01*
X953560Y292600D01*
X954599Y293160D01*
X955660Y294000D01*
X956620Y295020D01*
X957340Y296060D01*
X957820Y297340D01*
X957920Y299240D01*
X957840Y300860D01*
X957520Y302140D01*
X956900Y303240D01*
X955920Y304340D01*
X954820Y305300D01*
X953720Y305900D01*
X952500Y306220D01*
X950960Y306320D01*
X949160Y306220D01*
X947960Y305820D01*
X946880Y305140D01*
X945860Y304240D01*
X945000Y303220D01*
X944360Y302120D01*
X943920Y300780D01*
X943803Y299720D01*
X946660Y299720D01*
X947440Y301720D01*
X949260Y303240D01*
X950480Y303580D01*
X951840Y303460D01*
X953120Y302960D01*
X954160Y302120D01*
X955040Y300380D01*
X955100Y298480D01*
X954400Y296760D01*
X952980Y295520D01*
X951860Y295180D01*
X950600Y295120D01*
X949360Y295340D01*
X948360Y295840D01*
X946960Y297620D01*
X946660Y299720D01*
X943803Y299720D01*
X943760Y299320D01*
X943860Y297860D01*
X944240Y296580D01*
X944940Y295420D01*
X945920Y294280D01*
X947020Y293320D01*
X948139Y292680D01*
X949320Y292200D01*
X949320Y285120D01*
X948080Y284980D01*
X945800Y284880D01*
X943240Y285140D01*
X940540Y285720D01*
X937860Y286600D01*
X935560Y287660D01*
X933420Y289000D01*
X931420Y290580D01*
X929620Y292400D01*
X928020Y294420D01*
X926660Y296580D01*
X925560Y298900D01*
X924760Y301320D01*
X924280Y303720D01*
X924160Y306980D01*
X921311Y306980D01*
X921380Y304360D01*
X921700Y301860D01*
X922200Y299900D01*
X922840Y298020D01*
X923620Y296200D01*
X924560Y294460D01*
X925620Y292800D01*
X926840Y291220D01*
X928180Y289720D01*
X929659Y288300D01*
X931380Y286940D01*
X933180Y285720D01*
X935080Y284680D01*
X937080Y283820D01*
X939120Y283120D01*
X941220Y282600D01*
X943360Y282260D01*
X945520Y282120D01*
X947700Y282140D01*
X949860Y282360D01*
X952020Y282760D01*
X954140Y283380D01*
X956860Y284420D01*
X959260Y285680D01*
X961520Y287240D01*
X963780Y289220D01*
X965340Y290860D01*
X966740Y292620D01*
X967940Y294480D01*
X968980Y296420D01*
X969820Y298460D01*
X970480Y300580D01*
X970939Y302760D01*
X971220Y305000D01*
X971300Y307300D01*
X971180Y309620D01*
X970860Y311980D01*
X970340Y314380D01*
X969740Y316200D01*
X968880Y318080D01*
X967800Y319980D01*
X966540Y321820D01*
X965140Y323579D01*
X963600Y325220D01*
X962000Y326659D01*
X960380Y327860D01*
X957980Y329300D01*
X955819Y330360D01*
X953660Y331120D01*
X951280Y331680D01*
X948120Y332060D01*
G37*
D78*
X394599Y-287982D02*
G01*
X407326Y-268890D01*
X407326Y-287982D02*
G01*
X394599Y-268890D01*
X414235Y-283436D02*
G01*
X414235Y-284344D01*
X415144Y-286163D01*
X416054Y-287073D01*
X417872Y-287982D01*
X421508Y-287982D01*
X423326Y-287073D01*
X424235Y-286163D01*
X425144Y-284344D01*
X425144Y-282527D01*
X424235Y-280709D01*
X422417Y-277982D01*
X413326Y-268890D01*
X426054Y-268890D01*
X283944Y-365417D02*
G01*
X285763Y-366327D01*
X287581Y-368144D01*
X288490Y-369963D01*
X289399Y-372690D01*
X289399Y-377235D01*
X288490Y-379963D01*
X287581Y-381781D01*
X285763Y-383600D01*
X283944Y-384508D01*
X280308Y-384508D01*
X278490Y-383600D01*
X276672Y-381781D01*
X275763Y-379963D01*
X274854Y-377235D01*
X274854Y-372690D01*
X275763Y-369963D01*
X276672Y-368144D01*
X278490Y-366327D01*
X280308Y-365417D01*
X283944Y-365417D01*
X281217Y-380873D02*
G01*
X275763Y-386327D01*
X267035Y-365417D02*
G01*
X257035Y-365417D01*
X262491Y-372690D01*
X259763Y-372690D01*
X257944Y-373600D01*
X257035Y-374508D01*
X256126Y-377235D01*
X256126Y-379054D01*
X257035Y-381781D01*
X258854Y-383600D01*
X261581Y-384508D01*
X264308Y-384508D01*
X267035Y-383600D01*
X267944Y-382690D01*
X268854Y-380873D01*
D77*
X1042454Y538072D02*
G01*
X1042454Y530435D01*
X1045000Y538072D02*
G01*
X1039908Y538072D01*
X1037509Y538072D02*
G01*
X1032417Y530435D01*
X1032417Y538072D02*
G01*
X1037509Y530435D01*
X1005000Y538072D02*
G01*
X1005000Y530435D01*
X1005000Y538072D02*
G01*
X1001726Y538072D01*
X1000635Y537708D01*
X1000272Y537345D01*
X999908Y536617D01*
X999908Y535891D01*
X1000272Y535163D01*
X1000635Y534800D01*
X1001726Y534436D01*
X1005000Y534436D01*
X1002454Y534436D02*
G01*
X999908Y530435D01*
X997509Y538072D02*
G01*
X992417Y530435D01*
X992417Y538072D02*
G01*
X997509Y530435D01*
X959272Y528072D02*
G01*
X955272Y528072D01*
X957454Y525163D01*
X956363Y525163D01*
X955635Y524800D01*
X955272Y524436D01*
X954908Y523344D01*
X954908Y522618D01*
X955272Y521527D01*
X955999Y520799D01*
X957090Y520435D01*
X958181Y520435D01*
X959272Y520799D01*
X959635Y521163D01*
X960000Y521891D01*
X952144Y522255D02*
G01*
X952509Y521891D01*
X952144Y521527D01*
X951781Y521891D01*
X952144Y522255D01*
X948654Y528072D02*
G01*
X944654Y528072D01*
X946835Y525163D01*
X945744Y525163D01*
X945018Y524800D01*
X944654Y524436D01*
X944290Y523344D01*
X944290Y522618D01*
X944654Y521527D01*
X945381Y520799D01*
X946472Y520435D01*
X947563Y520435D01*
X948654Y520799D01*
X949017Y521163D01*
X949381Y521891D01*
X941890Y528072D02*
G01*
X938981Y520435D01*
X936072Y528072D02*
G01*
X938981Y520435D01*
X924544Y556255D02*
G01*
X924908Y556981D01*
X925635Y557708D01*
X926363Y558072D01*
X927817Y558072D01*
X928544Y557708D01*
X929272Y556981D01*
X929635Y556255D01*
X930000Y555163D01*
X930000Y553344D01*
X929635Y552255D01*
X929272Y551527D01*
X928544Y550799D01*
X927817Y550435D01*
X926363Y550435D01*
X925635Y550799D01*
X924908Y551527D01*
X924544Y552255D01*
X924544Y553344D01*
X926363Y553344D02*
G01*
X924544Y553344D01*
X922144Y558072D02*
G01*
X922144Y550435D01*
X922144Y558072D02*
G01*
X917054Y550435D01*
X917054Y558072D02*
G01*
X917054Y550435D01*
X914654Y558072D02*
G01*
X914654Y550435D01*
X914654Y558072D02*
G01*
X912108Y558072D01*
X911017Y557708D01*
X910290Y556981D01*
X909926Y556255D01*
X909563Y555163D01*
X909563Y553344D01*
X909926Y552255D01*
X910290Y551527D01*
X911017Y550799D01*
X912108Y550435D01*
X914654Y550435D01*
D79*
X908000Y335381D02*
G01*
X908000Y326790D01*
X908000Y335381D02*
G01*
X904318Y335381D01*
X903091Y334972D01*
X902682Y334564D01*
X902273Y333744D01*
X902273Y332926D01*
X902682Y332109D01*
X903091Y331700D01*
X904318Y331291D01*
X908000Y331291D01*
X905136Y331291D02*
G01*
X902273Y326790D01*
X899573Y330064D02*
G01*
X894664Y330064D01*
X894664Y330882D01*
X895073Y331700D01*
X895482Y332109D01*
X896300Y332518D01*
X897527Y332518D01*
X898345Y332109D01*
X899164Y331291D01*
X899573Y330064D01*
X899573Y329245D01*
X899164Y328018D01*
X898345Y327199D01*
X897527Y326790D01*
X896300Y326790D01*
X895482Y327199D01*
X894664Y328018D01*
X888691Y335381D02*
G01*
X889509Y335381D01*
X890327Y334972D01*
X890736Y333744D01*
X890736Y326790D01*
X891965Y332518D02*
G01*
X889100Y332518D01*
X885991Y335381D02*
G01*
X885991Y326790D01*
X883291Y330064D02*
G01*
X878382Y330064D01*
X878382Y330882D01*
X878791Y331700D01*
X879200Y332109D01*
X880018Y332518D01*
X881245Y332518D01*
X882064Y332109D01*
X882882Y331291D01*
X883291Y330064D01*
X883291Y329245D01*
X882882Y328018D01*
X882064Y327199D01*
X881245Y326790D01*
X880018Y326790D01*
X879200Y327199D01*
X878382Y328018D01*
X870773Y331291D02*
G01*
X871591Y332109D01*
X872409Y332518D01*
X873636Y332518D01*
X874456Y332109D01*
X875273Y331291D01*
X875682Y330064D01*
X875682Y329245D01*
X875273Y328018D01*
X874456Y327199D01*
X873636Y326790D01*
X872409Y326790D01*
X871591Y327199D01*
X870773Y328018D01*
X866845Y335381D02*
G01*
X866845Y328427D01*
X866436Y327199D01*
X865618Y326790D01*
X864800Y326790D01*
X868073Y332518D02*
G01*
X865209Y332518D01*
X862100Y335381D02*
G01*
X861691Y334972D01*
X861282Y335381D01*
X861691Y335790D01*
X862100Y335381D01*
X861691Y332518D02*
G01*
X861691Y326790D01*
X856536Y332518D02*
G01*
X857355Y332109D01*
X858173Y331291D01*
X858582Y330064D01*
X858582Y329245D01*
X858173Y328018D01*
X857355Y327199D01*
X856536Y326790D01*
X855309Y326790D01*
X854491Y327199D01*
X853673Y328018D01*
X853264Y329245D01*
X853264Y330064D01*
X853673Y331291D01*
X854491Y332109D01*
X855309Y332518D01*
X856536Y332518D01*
X850564Y332518D02*
G01*
X850564Y326790D01*
X850564Y330882D02*
G01*
X849336Y332109D01*
X848518Y332518D01*
X847291Y332518D01*
X846473Y332109D01*
X846064Y330882D01*
X846064Y326790D01*
X838864Y331291D02*
G01*
X839273Y332109D01*
X840500Y332518D01*
X841727Y332518D01*
X842955Y332109D01*
X843364Y331291D01*
X842955Y330473D01*
X842136Y330064D01*
X840091Y329654D01*
X839273Y329245D01*
X838864Y328427D01*
X838864Y328018D01*
X839273Y327199D01*
X840500Y326790D01*
X841727Y326790D01*
X842955Y327199D01*
X843364Y328018D01*
D77*
X906618Y298463D02*
G01*
X907073Y298917D01*
X907755Y299144D01*
X908664Y299144D01*
X909345Y298917D01*
X909800Y298463D01*
X909800Y298009D01*
X909573Y297555D01*
X909345Y297327D01*
X908891Y297100D01*
X907527Y296644D01*
X907073Y296417D01*
X906845Y296190D01*
X906618Y295736D01*
X906618Y295055D01*
X907073Y294600D01*
X907755Y294373D01*
X908664Y294373D01*
X909345Y294600D01*
X909800Y295055D01*
X903527Y299144D02*
G01*
X903527Y294373D01*
X905118Y299144D02*
G01*
X901936Y299144D01*
X898618Y299144D02*
G01*
X900436Y294373D01*
X898618Y299144D02*
G01*
X896800Y294373D01*
X899755Y295963D02*
G01*
X897482Y295963D01*
X895300Y299144D02*
G01*
X895300Y294373D01*
X895300Y299144D02*
G01*
X893255Y299144D01*
X892573Y298917D01*
X892345Y298690D01*
X892118Y298236D01*
X892118Y297782D01*
X892345Y297327D01*
X892573Y297100D01*
X893255Y296873D01*
X895300Y296873D01*
X893709Y296873D02*
G01*
X892118Y294373D01*
X890618Y299144D02*
G01*
X890618Y294373D01*
X890618Y294373D02*
G01*
X887891Y294373D01*
X886391Y299144D02*
G01*
X886391Y294373D01*
X884891Y299144D02*
G01*
X884891Y294373D01*
X884891Y299144D02*
G01*
X881709Y294373D01*
X881709Y299144D02*
G01*
X881709Y294373D01*
X876800Y298009D02*
G01*
X877027Y298463D01*
X877482Y298917D01*
X877936Y299144D01*
X878845Y299144D01*
X879300Y298917D01*
X879755Y298463D01*
X879982Y298009D01*
X880209Y297327D01*
X880209Y296190D01*
X879982Y295509D01*
X879755Y295055D01*
X879300Y294600D01*
X878845Y294373D01*
X877936Y294373D01*
X877482Y294600D01*
X877027Y295055D01*
X876800Y295509D01*
X876800Y296190D01*
X877936Y296190D02*
G01*
X876800Y296190D01*
X875300Y299144D02*
G01*
X874164Y294373D01*
X873027Y299144D02*
G01*
X874164Y294373D01*
X873027Y299144D02*
G01*
X871891Y294373D01*
X870755Y299144D02*
G01*
X871891Y294373D01*
X867436Y299144D02*
G01*
X869255Y294373D01*
X867436Y299144D02*
G01*
X865618Y294373D01*
X868573Y295963D02*
G01*
X866300Y295963D01*
X862527Y299144D02*
G01*
X862527Y294373D01*
X864118Y299144D02*
G01*
X860936Y299144D01*
X856027Y298009D02*
G01*
X856255Y298463D01*
X856709Y298917D01*
X857164Y299144D01*
X858073Y299144D01*
X858527Y298917D01*
X858982Y298463D01*
X859209Y298009D01*
X859436Y297327D01*
X859436Y296190D01*
X859209Y295509D01*
X858982Y295055D01*
X858527Y294600D01*
X858073Y294373D01*
X857164Y294373D01*
X856709Y294600D01*
X856255Y295055D01*
X856027Y295509D01*
X854527Y299144D02*
G01*
X854527Y294373D01*
X851345Y299144D02*
G01*
X851345Y294373D01*
X854527Y296873D02*
G01*
X851345Y296873D01*
X849618Y295509D02*
G01*
X849845Y295282D01*
X849618Y295055D01*
X849391Y295282D01*
X849618Y295509D01*
X844483Y298009D02*
G01*
X844709Y298463D01*
X845164Y298917D01*
X845618Y299144D01*
X846527Y299144D01*
X846983Y298917D01*
X847436Y298463D01*
X847664Y298009D01*
X847891Y297327D01*
X847891Y296190D01*
X847664Y295509D01*
X847436Y295055D01*
X846983Y294600D01*
X846527Y294373D01*
X845618Y294373D01*
X845164Y294600D01*
X844709Y295055D01*
X844483Y295509D01*
X841618Y299144D02*
G01*
X842073Y298917D01*
X842527Y298463D01*
X842755Y298009D01*
X842982Y297327D01*
X842982Y296190D01*
X842755Y295509D01*
X842527Y295055D01*
X842073Y294600D01*
X841618Y294373D01*
X840709Y294373D01*
X840255Y294600D01*
X839800Y295055D01*
X839573Y295509D01*
X839345Y296190D01*
X839345Y297327D01*
X839573Y298009D01*
X839800Y298463D01*
X840255Y298917D01*
X840709Y299144D01*
X841618Y299144D01*
X837845Y299144D02*
G01*
X837845Y294373D01*
X837845Y299144D02*
G01*
X836027Y294373D01*
X834209Y299144D02*
G01*
X836027Y294373D01*
X834209Y299144D02*
G01*
X834209Y294373D01*
X828982Y298009D02*
G01*
X828982Y298236D01*
X828755Y298690D01*
X828527Y298917D01*
X828073Y299144D01*
X827164Y299144D01*
X826709Y298917D01*
X826482Y298690D01*
X826255Y298236D01*
X826255Y297782D01*
X826482Y297327D01*
X826936Y296644D01*
X829209Y294373D01*
X826027Y294373D01*
X823164Y299144D02*
G01*
X823845Y298917D01*
X824300Y298236D01*
X824527Y297100D01*
X824527Y296417D01*
X824300Y295282D01*
X823845Y294600D01*
X823164Y294373D01*
X822709Y294373D01*
X822027Y294600D01*
X821573Y295282D01*
X821345Y296417D01*
X821345Y297100D01*
X821573Y298236D01*
X822027Y298917D01*
X822709Y299144D01*
X823164Y299144D01*
X819618Y298009D02*
G01*
X819618Y298236D01*
X819391Y298690D01*
X819164Y298917D01*
X818709Y299144D01*
X817800Y299144D01*
X817345Y298917D01*
X817118Y298690D01*
X816891Y298236D01*
X816891Y297782D01*
X817118Y297327D01*
X817573Y296644D01*
X819845Y294373D01*
X816664Y294373D01*
X814936Y298009D02*
G01*
X814936Y298236D01*
X814709Y298690D01*
X814483Y298917D01*
X814027Y299144D01*
X813118Y299144D01*
X812664Y298917D01*
X812436Y298690D01*
X812209Y298236D01*
X812209Y297782D01*
X812436Y297327D01*
X812891Y296644D01*
X815164Y294373D01*
X811983Y294373D01*
X907936Y315844D02*
G01*
X908391Y315617D01*
X908845Y315163D01*
X909073Y314708D01*
X909300Y314027D01*
X909300Y312890D01*
X909073Y312208D01*
X908845Y311754D01*
X908391Y311300D01*
X907936Y311073D01*
X907027Y311073D01*
X906573Y311300D01*
X906118Y311754D01*
X905891Y312208D01*
X905664Y312890D01*
X905664Y314027D01*
X905891Y314708D01*
X906118Y315163D01*
X906573Y315617D01*
X907027Y315844D01*
X907936Y315844D01*
X904164Y315844D02*
G01*
X904164Y311073D01*
X904164Y315844D02*
G01*
X902118Y315844D01*
X901436Y315617D01*
X901209Y315390D01*
X900982Y314935D01*
X900982Y314254D01*
X901209Y313800D01*
X901436Y313573D01*
X902118Y313344D01*
X904164Y313344D01*
X899483Y315844D02*
G01*
X899483Y311073D01*
X899483Y315844D02*
G01*
X896527Y315844D01*
X899483Y313573D02*
G01*
X897664Y313573D01*
X899483Y311073D02*
G01*
X896527Y311073D01*
X895027Y315844D02*
G01*
X895027Y311073D01*
X895027Y315844D02*
G01*
X891845Y311073D01*
X891845Y315844D02*
G01*
X891845Y311073D01*
X890345Y313117D02*
G01*
X886255Y313117D01*
X881573Y315163D02*
G01*
X882027Y315617D01*
X882709Y315844D01*
X883618Y315844D01*
X884300Y315617D01*
X884755Y315163D01*
X884755Y314708D01*
X884527Y314254D01*
X884300Y314027D01*
X883845Y313800D01*
X882482Y313344D01*
X882027Y313117D01*
X881800Y312890D01*
X881573Y312435D01*
X881573Y311754D01*
X882027Y311300D01*
X882709Y311073D01*
X883618Y311073D01*
X884300Y311300D01*
X884755Y311754D01*
X878709Y315844D02*
G01*
X879164Y315617D01*
X879618Y315163D01*
X879845Y314708D01*
X880073Y314027D01*
X880073Y312890D01*
X879845Y312208D01*
X879618Y311754D01*
X879164Y311300D01*
X878709Y311073D01*
X877800Y311073D01*
X877345Y311300D01*
X876891Y311754D01*
X876664Y312208D01*
X876436Y312890D01*
X876436Y314027D01*
X876664Y314708D01*
X876891Y315163D01*
X877345Y315617D01*
X877800Y315844D01*
X878709Y315844D01*
X874936Y315844D02*
G01*
X874936Y312435D01*
X874709Y311754D01*
X874255Y311300D01*
X873573Y311073D01*
X873118Y311073D01*
X872436Y311300D01*
X871983Y311754D01*
X871755Y312435D01*
X871755Y315844D01*
X870255Y315844D02*
G01*
X870255Y311073D01*
X870255Y315844D02*
G01*
X868209Y315844D01*
X867527Y315617D01*
X867300Y315390D01*
X867073Y314935D01*
X867073Y314481D01*
X867300Y314027D01*
X867527Y313800D01*
X868209Y313573D01*
X870255Y313573D01*
X868664Y313573D02*
G01*
X867073Y311073D01*
X862164Y314708D02*
G01*
X862391Y315163D01*
X862845Y315617D01*
X863300Y315844D01*
X864209Y315844D01*
X864664Y315617D01*
X865118Y315163D01*
X865345Y314708D01*
X865573Y314027D01*
X865573Y312890D01*
X865345Y312208D01*
X865118Y311754D01*
X864664Y311300D01*
X864209Y311073D01*
X863300Y311073D01*
X862845Y311300D01*
X862391Y311754D01*
X862164Y312208D01*
X860664Y315844D02*
G01*
X860664Y311073D01*
X860664Y315844D02*
G01*
X857709Y315844D01*
X860664Y313573D02*
G01*
X858845Y313573D01*
X860664Y311073D02*
G01*
X857709Y311073D01*
X856209Y313117D02*
G01*
X852118Y313117D01*
X850618Y315844D02*
G01*
X850618Y311073D01*
X847436Y315844D02*
G01*
X847436Y311073D01*
X850618Y313573D02*
G01*
X847436Y313573D01*
X844118Y315844D02*
G01*
X845936Y311073D01*
X844118Y315844D02*
G01*
X842300Y311073D01*
X845255Y312663D02*
G01*
X842982Y312663D01*
X840800Y315844D02*
G01*
X840800Y311073D01*
X840800Y315844D02*
G01*
X838755Y315844D01*
X838073Y315617D01*
X837845Y315390D01*
X837618Y314935D01*
X837618Y314481D01*
X837845Y314027D01*
X838073Y313800D01*
X838755Y313573D01*
X840800Y313573D01*
X839209Y313573D02*
G01*
X837618Y311073D01*
X836118Y315844D02*
G01*
X836118Y311073D01*
X836118Y315844D02*
G01*
X834527Y315844D01*
X833845Y315617D01*
X833391Y315163D01*
X833164Y314708D01*
X832936Y314027D01*
X832936Y312890D01*
X833164Y312208D01*
X833391Y311754D01*
X833845Y311300D01*
X834527Y311073D01*
X836118Y311073D01*
X831436Y315844D02*
G01*
X830300Y311073D01*
X829164Y315844D02*
G01*
X830300Y311073D01*
X829164Y315844D02*
G01*
X828027Y311073D01*
X826891Y315844D02*
G01*
X828027Y311073D01*
X823573Y315844D02*
G01*
X825391Y311073D01*
X823573Y315844D02*
G01*
X821755Y311073D01*
X824709Y312663D02*
G01*
X822436Y312663D01*
X820255Y315844D02*
G01*
X820255Y311073D01*
X820255Y315844D02*
G01*
X818209Y315844D01*
X817527Y315617D01*
X817300Y315390D01*
X817073Y314935D01*
X817073Y314481D01*
X817300Y314027D01*
X817527Y313800D01*
X818209Y313573D01*
X820255Y313573D01*
X818664Y313573D02*
G01*
X817073Y311073D01*
X815573Y315844D02*
G01*
X815573Y311073D01*
X815573Y315844D02*
G01*
X812618Y315844D01*
X815573Y313573D02*
G01*
X813755Y313573D01*
X815573Y311073D02*
G01*
X812618Y311073D01*
X909000Y282645D02*
G01*
X909000Y277872D01*
X909000Y282645D02*
G01*
X907409Y282645D01*
X906727Y282417D01*
X906273Y281963D01*
X906045Y281509D01*
X905818Y280826D01*
X905818Y279690D01*
X906045Y279009D01*
X906273Y278555D01*
X906727Y278099D01*
X907409Y277872D01*
X909000Y277872D01*
X904318Y282645D02*
G01*
X904318Y277872D01*
X904318Y282645D02*
G01*
X901364Y282645D01*
X904318Y280372D02*
G01*
X902500Y280372D01*
X904318Y277872D02*
G01*
X901364Y277872D01*
X896682Y281963D02*
G01*
X897136Y282417D01*
X897818Y282645D01*
X898727Y282645D01*
X899409Y282417D01*
X899864Y281963D01*
X899864Y281509D01*
X899636Y281055D01*
X899409Y280826D01*
X898955Y280599D01*
X897591Y280145D01*
X897136Y279917D01*
X896909Y279690D01*
X896682Y279236D01*
X896682Y278555D01*
X897136Y278099D01*
X897818Y277872D01*
X898727Y277872D01*
X899409Y278099D01*
X899864Y278555D01*
X895182Y282645D02*
G01*
X895182Y277872D01*
X890273Y281509D02*
G01*
X890500Y281963D01*
X890955Y282417D01*
X891409Y282645D01*
X892318Y282645D01*
X892773Y282417D01*
X893227Y281963D01*
X893455Y281509D01*
X893682Y280826D01*
X893682Y279690D01*
X893455Y279009D01*
X893227Y278555D01*
X892773Y278099D01*
X892318Y277872D01*
X891409Y277872D01*
X890955Y278099D01*
X890500Y278555D01*
X890273Y279009D01*
X890273Y279690D01*
X891409Y279690D02*
G01*
X890273Y279690D01*
X888773Y282645D02*
G01*
X888773Y277872D01*
X888773Y282645D02*
G01*
X885591Y277872D01*
X885591Y282645D02*
G01*
X885591Y277872D01*
X880591Y282645D02*
G01*
X880591Y277872D01*
X880591Y282645D02*
G01*
X878545Y282645D01*
X877864Y282417D01*
X877636Y282190D01*
X877409Y281736D01*
X877409Y281282D01*
X877636Y280826D01*
X877864Y280599D01*
X878545Y280372D01*
X880591Y280372D02*
G01*
X878545Y280372D01*
X877864Y280145D01*
X877636Y279917D01*
X877409Y279463D01*
X877409Y278782D01*
X877636Y278326D01*
X877864Y278099D01*
X878545Y277872D01*
X880591Y277872D01*
X875909Y282645D02*
G01*
X874091Y280372D01*
X874091Y277872D01*
X872273Y282645D02*
G01*
X874091Y280372D01*
X865455Y282645D02*
G01*
X867273Y277872D01*
X865455Y282645D02*
G01*
X863636Y277872D01*
X866591Y279463D02*
G01*
X864318Y279463D01*
X862136Y282645D02*
G01*
X860318Y277872D01*
X858500Y282645D02*
G01*
X860318Y277872D01*
X857000Y282645D02*
G01*
X857000Y277872D01*
X855500Y282645D02*
G01*
X855500Y277872D01*
X855500Y282645D02*
G01*
X852318Y277872D01*
X852318Y282645D02*
G01*
X852318Y277872D01*
X849000Y282645D02*
G01*
X850818Y277872D01*
X849000Y282645D02*
G01*
X847182Y277872D01*
X850136Y279463D02*
G01*
X847864Y279463D01*
X845682Y282645D02*
G01*
X845682Y277872D01*
X845682Y282645D02*
G01*
X844091Y282645D01*
X843409Y282417D01*
X842955Y281963D01*
X842727Y281509D01*
X842500Y280826D01*
X842500Y279690D01*
X842727Y279009D01*
X842955Y278555D01*
X843409Y278099D01*
X844091Y277872D01*
X845682Y277872D01*
X839182Y282645D02*
G01*
X841000Y277872D01*
X839182Y282645D02*
G01*
X837364Y277872D01*
X840318Y279463D02*
G01*
X838045Y279463D01*
X835864Y282645D02*
G01*
X835864Y277872D01*
X835864Y282645D02*
G01*
X834273Y282645D01*
X833591Y282417D01*
X833136Y281963D01*
X832909Y281509D01*
X832682Y280826D01*
X832682Y279690D01*
X832909Y279009D01*
X833136Y278555D01*
X833591Y278099D01*
X834273Y277872D01*
X835864Y277872D01*
X827682Y282645D02*
G01*
X827682Y277872D01*
X827682Y282645D02*
G01*
X825864Y277872D01*
X824045Y282645D02*
G01*
X825864Y277872D01*
X824045Y282645D02*
G01*
X824045Y277872D01*
X822545Y282645D02*
G01*
X822545Y277872D01*
X822545Y282645D02*
G01*
X819591Y282645D01*
X822545Y280372D02*
G01*
X820727Y280372D01*
X822545Y277872D02*
G01*
X819591Y277872D01*
X818091Y282645D02*
G01*
X818091Y277872D01*
X818091Y282645D02*
G01*
X814909Y277872D01*
X814909Y282645D02*
G01*
X814909Y277872D01*
X813409Y282645D02*
G01*
X813409Y277872D01*
X813409Y282645D02*
G01*
X811818Y282645D01*
X811136Y282417D01*
X810682Y281963D01*
X810455Y281509D01*
X810227Y280826D01*
X810227Y279690D01*
X810455Y279009D01*
X810682Y278555D01*
X811136Y278099D01*
X811818Y277872D01*
X813409Y277872D01*
X808727Y282645D02*
G01*
X808727Y277872D01*
X808727Y282645D02*
G01*
X805773Y282645D01*
X808727Y280372D02*
G01*
X806909Y280372D01*
X808727Y277872D02*
G01*
X805773Y277872D01*
X801091Y282645D02*
G01*
X804273Y277872D01*
X804273Y282645D02*
G01*
X801091Y282645D01*
X804273Y277872D02*
G01*
X801091Y277872D01*
D80*
X160000Y620045D02*
G01*
X160000Y615273D01*
X160000Y620045D02*
G01*
X157954Y620045D01*
X157272Y619818D01*
X157044Y619591D01*
X156817Y619135D01*
X156817Y618681D01*
X157044Y618227D01*
X157272Y618000D01*
X157954Y617773D01*
X160000Y617773D02*
G01*
X157954Y617773D01*
X157272Y617545D01*
X157044Y617318D01*
X156817Y616864D01*
X156817Y616181D01*
X157044Y615727D01*
X157272Y615500D01*
X157954Y615273D01*
X160000Y615273D01*
X155317Y620045D02*
G01*
X155317Y616635D01*
X155090Y615954D01*
X154635Y615500D01*
X153954Y615273D01*
X153499Y615273D01*
X152817Y615500D01*
X152363Y615954D01*
X152135Y616635D01*
X152135Y620045D01*
X149044Y620045D02*
G01*
X149044Y615273D01*
X150635Y620045D02*
G01*
X147454Y620045D01*
X144363Y620045D02*
G01*
X144363Y615273D01*
X145954Y620045D02*
G01*
X142772Y620045D01*
X139908Y620045D02*
G01*
X140363Y619818D01*
X140817Y619364D01*
X141044Y618908D01*
X141272Y618227D01*
X141272Y617091D01*
X141044Y616408D01*
X140817Y615954D01*
X140363Y615500D01*
X139908Y615273D01*
X138999Y615273D01*
X138544Y615500D01*
X138090Y615954D01*
X137863Y616408D01*
X137635Y617091D01*
X137635Y618227D01*
X137863Y618908D01*
X138090Y619364D01*
X138544Y619818D01*
X138999Y620045D01*
X139908Y620045D01*
X136135Y620045D02*
G01*
X136135Y615273D01*
X136135Y620045D02*
G01*
X132954Y615273D01*
X132954Y620045D02*
G01*
X132954Y615273D01*
X131454Y619135D02*
G01*
X130999Y619364D01*
X130317Y620045D01*
X130317Y615273D01*
X245000Y650045D02*
G01*
X245000Y645273D01*
X245000Y650045D02*
G01*
X242954Y650045D01*
X242272Y649818D01*
X242044Y649591D01*
X241817Y649135D01*
X241817Y648681D01*
X242044Y648227D01*
X242272Y648000D01*
X242954Y647773D01*
X245000Y647773D02*
G01*
X242954Y647773D01*
X242272Y647545D01*
X242044Y647318D01*
X241817Y646864D01*
X241817Y646181D01*
X242044Y645727D01*
X242272Y645500D01*
X242954Y645273D01*
X245000Y645273D01*
X240317Y650045D02*
G01*
X240317Y646635D01*
X240090Y645954D01*
X239635Y645500D01*
X238954Y645273D01*
X238499Y645273D01*
X237817Y645500D01*
X237363Y645954D01*
X237135Y646635D01*
X237135Y650045D01*
X234044Y650045D02*
G01*
X234044Y645273D01*
X235635Y650045D02*
G01*
X232454Y650045D01*
X229363Y650045D02*
G01*
X229363Y645273D01*
X230954Y650045D02*
G01*
X227772Y650045D01*
X224908Y650045D02*
G01*
X225363Y649818D01*
X225817Y649364D01*
X226044Y648908D01*
X226272Y648227D01*
X226272Y647091D01*
X226044Y646408D01*
X225817Y645954D01*
X225363Y645500D01*
X224908Y645273D01*
X223999Y645273D01*
X223544Y645500D01*
X223090Y645954D01*
X222863Y646408D01*
X222635Y647091D01*
X222635Y648227D01*
X222863Y648908D01*
X223090Y649364D01*
X223544Y649818D01*
X223999Y650045D01*
X224908Y650045D01*
X221135Y650045D02*
G01*
X221135Y645273D01*
X221135Y650045D02*
G01*
X217954Y645273D01*
X217954Y650045D02*
G01*
X217954Y645273D01*
X216226Y648908D02*
G01*
X216226Y649135D01*
X215999Y649591D01*
X215772Y649818D01*
X215317Y650045D01*
X214408Y650045D01*
X213954Y649818D01*
X213726Y649591D01*
X213499Y649135D01*
X213499Y648681D01*
X213726Y648227D01*
X214181Y647545D01*
X216454Y645273D01*
X213272Y645273D01*
X325000Y615045D02*
G01*
X325000Y610273D01*
X325000Y615045D02*
G01*
X322954Y615045D01*
X322272Y614818D01*
X322044Y614591D01*
X321817Y614135D01*
X321817Y613681D01*
X322044Y613227D01*
X322272Y613000D01*
X322954Y612773D01*
X325000Y612773D02*
G01*
X322954Y612773D01*
X322272Y612545D01*
X322044Y612318D01*
X321817Y611864D01*
X321817Y611181D01*
X322044Y610727D01*
X322272Y610500D01*
X322954Y610273D01*
X325000Y610273D01*
X320317Y615045D02*
G01*
X320317Y611635D01*
X320090Y610954D01*
X319635Y610500D01*
X318954Y610273D01*
X318499Y610273D01*
X317817Y610500D01*
X317363Y610954D01*
X317135Y611635D01*
X317135Y615045D01*
X314044Y615045D02*
G01*
X314044Y610273D01*
X315635Y615045D02*
G01*
X312454Y615045D01*
X309363Y615045D02*
G01*
X309363Y610273D01*
X310954Y615045D02*
G01*
X307772Y615045D01*
X304908Y615045D02*
G01*
X305363Y614818D01*
X305817Y614364D01*
X306044Y613908D01*
X306272Y613227D01*
X306272Y612091D01*
X306044Y611408D01*
X305817Y610954D01*
X305363Y610500D01*
X304908Y610273D01*
X303999Y610273D01*
X303544Y610500D01*
X303090Y610954D01*
X302863Y611408D01*
X302635Y612091D01*
X302635Y613227D01*
X302863Y613908D01*
X303090Y614364D01*
X303544Y614818D01*
X303999Y615045D01*
X304908Y615045D01*
X301135Y615045D02*
G01*
X301135Y610273D01*
X301135Y615045D02*
G01*
X297954Y610273D01*
X297954Y615045D02*
G01*
X297954Y610273D01*
X295999Y615045D02*
G01*
X293499Y615045D01*
X294863Y613227D01*
X294181Y613227D01*
X293726Y613000D01*
X293499Y612773D01*
X293272Y612091D01*
X293272Y611635D01*
X293499Y610954D01*
X293954Y610500D01*
X294635Y610273D01*
X295317Y610273D01*
X295999Y610500D01*
X296226Y610727D01*
X296454Y611181D01*
D77*
X1150000Y140091D02*
G01*
X1150000Y130545D01*
X1150000Y140091D02*
G01*
X1145908Y140091D01*
X1144544Y139636D01*
X1144090Y139182D01*
X1143635Y138272D01*
X1143635Y137363D01*
X1144090Y136455D01*
X1144544Y135999D01*
X1145908Y135545D01*
X1150000Y135545D02*
G01*
X1145908Y135545D01*
X1144544Y135091D01*
X1144090Y134636D01*
X1143635Y133726D01*
X1143635Y132363D01*
X1144090Y131455D01*
X1144544Y130999D01*
X1145908Y130545D01*
X1150000Y130545D01*
X1136999Y140091D02*
G01*
X1140635Y130545D01*
X1136999Y140091D02*
G01*
X1133363Y130545D01*
X1139272Y133726D02*
G01*
X1134726Y133726D01*
X1127181Y140091D02*
G01*
X1127181Y130545D01*
X1130363Y140091D02*
G01*
X1123999Y140091D01*
X1117817Y140091D02*
G01*
X1117817Y130545D01*
X1120999Y140091D02*
G01*
X1114635Y140091D01*
X1111635Y140091D02*
G01*
X1111635Y130545D01*
X1111635Y140091D02*
G01*
X1105726Y140091D01*
X1111635Y135545D02*
G01*
X1107999Y135545D01*
X1111635Y130545D02*
G01*
X1105726Y130545D01*
X1102726Y140091D02*
G01*
X1102726Y130545D01*
X1102726Y140091D02*
G01*
X1098635Y140091D01*
X1097272Y139636D01*
X1096817Y139182D01*
X1096363Y138272D01*
X1096363Y137363D01*
X1096817Y136455D01*
X1097272Y135999D01*
X1098635Y135545D01*
X1102726Y135545D01*
X1099544Y135545D02*
G01*
X1096363Y130545D01*
X1093363Y140091D02*
G01*
X1089726Y135545D01*
X1089726Y130545D01*
X1086090Y140091D02*
G01*
X1089726Y135545D01*
X1076090Y134636D02*
G01*
X1067908Y134636D01*
X1155000Y-29908D02*
G01*
X1155000Y-39454D01*
X1155000Y-29908D02*
G01*
X1150908Y-29908D01*
X1149544Y-30363D01*
X1149090Y-30817D01*
X1148635Y-31727D01*
X1148635Y-32636D01*
X1149090Y-33544D01*
X1149544Y-34000D01*
X1150908Y-34454D01*
X1155000Y-34454D02*
G01*
X1150908Y-34454D01*
X1149544Y-34908D01*
X1149090Y-35363D01*
X1148635Y-36273D01*
X1148635Y-37636D01*
X1149090Y-38544D01*
X1149544Y-39000D01*
X1150908Y-39454D01*
X1155000Y-39454D01*
X1141999Y-29908D02*
G01*
X1145635Y-39454D01*
X1141999Y-29908D02*
G01*
X1138363Y-39454D01*
X1144272Y-36273D02*
G01*
X1139726Y-36273D01*
X1132181Y-29908D02*
G01*
X1132181Y-39454D01*
X1135363Y-29908D02*
G01*
X1128999Y-29908D01*
X1122817Y-29908D02*
G01*
X1122817Y-39454D01*
X1125999Y-29908D02*
G01*
X1119635Y-29908D01*
X1116635Y-29908D02*
G01*
X1116635Y-39454D01*
X1116635Y-29908D02*
G01*
X1110726Y-29908D01*
X1116635Y-34454D02*
G01*
X1112999Y-34454D01*
X1116635Y-39454D02*
G01*
X1110726Y-39454D01*
X1107726Y-29908D02*
G01*
X1107726Y-39454D01*
X1107726Y-29908D02*
G01*
X1103635Y-29908D01*
X1102272Y-30363D01*
X1101817Y-30817D01*
X1101363Y-31727D01*
X1101363Y-32636D01*
X1101817Y-33544D01*
X1102272Y-34000D01*
X1103635Y-34454D01*
X1107726Y-34454D01*
X1104544Y-34454D02*
G01*
X1101363Y-39454D01*
X1098363Y-29908D02*
G01*
X1094726Y-34454D01*
X1094726Y-39454D01*
X1091090Y-29908D02*
G01*
X1094726Y-34454D01*
X1076999Y-31273D02*
G01*
X1076999Y-39454D01*
X1081090Y-35363D02*
G01*
X1072908Y-35363D01*
X1025000Y110045D02*
G01*
X1025000Y105273D01*
X1025000Y110045D02*
G01*
X1022954Y110045D01*
X1022272Y109818D01*
X1022044Y109591D01*
X1021817Y109135D01*
X1021817Y108454D01*
X1022044Y108000D01*
X1022272Y107773D01*
X1022954Y107545D01*
X1025000Y107545D01*
X1018954Y110045D02*
G01*
X1019408Y109818D01*
X1019863Y109364D01*
X1020090Y108908D01*
X1020317Y108227D01*
X1020317Y107091D01*
X1020090Y106408D01*
X1019863Y105954D01*
X1019408Y105500D01*
X1018954Y105273D01*
X1018044Y105273D01*
X1017590Y105500D01*
X1017135Y105954D01*
X1016908Y106408D01*
X1016681Y107091D01*
X1016681Y108227D01*
X1016908Y108908D01*
X1017135Y109364D01*
X1017590Y109818D01*
X1018044Y110045D01*
X1018954Y110045D01*
X1015181Y110045D02*
G01*
X1014044Y105273D01*
X1012908Y110045D02*
G01*
X1014044Y105273D01*
X1012908Y110045D02*
G01*
X1011772Y105273D01*
X1010635Y110045D02*
G01*
X1011772Y105273D01*
X1009135Y110045D02*
G01*
X1009135Y105273D01*
X1009135Y110045D02*
G01*
X1006181Y110045D01*
X1009135Y107773D02*
G01*
X1007317Y107773D01*
X1009135Y105273D02*
G01*
X1006181Y105273D01*
X1004681Y110045D02*
G01*
X1004681Y105273D01*
X1004681Y110045D02*
G01*
X1002635Y110045D01*
X1001954Y109818D01*
X1001726Y109591D01*
X1001499Y109135D01*
X1001499Y108681D01*
X1001726Y108227D01*
X1001954Y108000D01*
X1002635Y107773D01*
X1004681Y107773D01*
X1003090Y107773D02*
G01*
X1001499Y105273D01*
X1000000Y103681D02*
G01*
X995908Y103681D01*
X994408Y110045D02*
G01*
X994408Y105273D01*
X994408Y110045D02*
G01*
X992363Y110045D01*
X991681Y109818D01*
X991454Y109591D01*
X991226Y109135D01*
X991226Y108681D01*
X991454Y108227D01*
X991681Y108000D01*
X992363Y107773D01*
X994408Y107773D02*
G01*
X992363Y107773D01*
X991681Y107545D01*
X991454Y107318D01*
X991226Y106864D01*
X991226Y106181D01*
X991454Y105727D01*
X991681Y105500D01*
X992363Y105273D01*
X994408Y105273D01*
X989726Y110045D02*
G01*
X989726Y106635D01*
X989499Y105954D01*
X989044Y105500D01*
X988363Y105273D01*
X987908Y105273D01*
X987226Y105500D01*
X986772Y105954D01*
X986544Y106635D01*
X986544Y110045D01*
X983454Y110045D02*
G01*
X983454Y105273D01*
X985045Y110045D02*
G01*
X981863Y110045D01*
X978772Y110045D02*
G01*
X978772Y105273D01*
X980363Y110045D02*
G01*
X977181Y110045D01*
X974317Y110045D02*
G01*
X974772Y109818D01*
X975226Y109364D01*
X975454Y108908D01*
X975681Y108227D01*
X975681Y107091D01*
X975454Y106408D01*
X975226Y105954D01*
X974772Y105500D01*
X974317Y105273D01*
X973408Y105273D01*
X972954Y105500D01*
X972500Y105954D01*
X972272Y106408D01*
X972044Y107091D01*
X972044Y108227D01*
X972272Y108908D01*
X972500Y109364D01*
X972954Y109818D01*
X973408Y110045D01*
X974317Y110045D01*
X970544Y110045D02*
G01*
X970544Y105273D01*
X970544Y110045D02*
G01*
X967363Y105273D01*
X967363Y110045D02*
G01*
X967363Y105273D01*
D75*
X1095000Y-64863D02*
G01*
X1095000Y-46073D01*
X1095000Y-64863D02*
G01*
X1103053Y-64863D01*
X1105736Y-63969D01*
X1106631Y-63074D01*
X1107527Y-61284D01*
X1107527Y-59495D01*
X1106631Y-57705D01*
X1105736Y-56810D01*
X1103053Y-55916D01*
X1095000Y-55916D01*
X1101262Y-55916D02*
G01*
X1107527Y-46073D01*
X1114326Y-60390D02*
G01*
X1114326Y-61284D01*
X1115221Y-63074D01*
X1116116Y-63969D01*
X1117905Y-64863D01*
X1121484Y-64863D01*
X1123274Y-63969D01*
X1124169Y-63074D01*
X1125063Y-61284D01*
X1125063Y-59495D01*
X1124169Y-57705D01*
X1122379Y-55021D01*
X1113431Y-46073D01*
X1125958Y-46073D01*
D81*
X949172Y120000D02*
G01*
X931035Y120000D01*
X949172Y120000D02*
G01*
X949172Y127773D01*
X948308Y130363D01*
X947444Y131226D01*
X945717Y132091D01*
X943990Y132091D01*
X942263Y131226D01*
X941399Y130363D01*
X940535Y127773D01*
X940535Y120000D01*
X940535Y126044D02*
G01*
X931035Y132091D01*
X944854Y138654D02*
G01*
X945717Y138654D01*
X947444Y139517D01*
X948308Y140381D01*
X949172Y142109D01*
X949172Y145563D01*
X948308Y147291D01*
X947444Y148155D01*
X945717Y149018D01*
X943990Y149018D01*
X942263Y148155D01*
X939672Y146426D01*
X931035Y137791D01*
X931035Y149881D01*
X949172Y164218D02*
G01*
X937081Y155581D01*
X937081Y168535D01*
X949172Y164218D02*
G01*
X931035Y164218D01*
D78*
X265153Y98314D02*
G01*
X263334Y99223D01*
X261516Y101041D01*
X260607Y102858D01*
X260607Y106494D01*
X261516Y108314D01*
X263334Y110131D01*
X265153Y111041D01*
X267880Y111950D01*
X272425Y111950D01*
X275153Y111041D01*
X276971Y110131D01*
X278789Y108314D01*
X279698Y106494D01*
X279698Y102858D01*
X278789Y101041D01*
X276971Y99223D01*
X275153Y98314D01*
X264244Y92314D02*
G01*
X263334Y90495D01*
X260607Y87768D01*
X279698Y87768D01*
X260607Y77222D02*
G01*
X261516Y79949D01*
X263334Y80859D01*
X265153Y80859D01*
X266971Y79949D01*
X267880Y78132D01*
X268789Y74495D01*
X269698Y71768D01*
X271516Y69949D01*
X273334Y69041D01*
X276062Y69041D01*
X277880Y69949D01*
X278789Y70859D01*
X279698Y73586D01*
X279698Y77222D01*
X278789Y79949D01*
X277880Y80859D01*
X276062Y81768D01*
X273334Y81768D01*
X271516Y80859D01*
X269698Y79041D01*
X268789Y76314D01*
X267880Y72676D01*
X266971Y70859D01*
X265153Y69949D01*
X263334Y69949D01*
X261516Y70859D01*
X260607Y73586D01*
X260607Y77222D01*
D75*
X500968Y248535D02*
G01*
X499178Y249430D01*
X497389Y251219D01*
X496494Y253009D01*
X495599Y255693D01*
X495599Y260167D01*
X496494Y262851D01*
X497389Y264641D01*
X499178Y266430D01*
X500968Y267325D01*
X504547Y267325D01*
X506336Y266430D01*
X508126Y264641D01*
X509021Y262851D01*
X509915Y260167D01*
X509915Y255693D01*
X509021Y253009D01*
X508126Y251219D01*
X506336Y249430D01*
X504547Y248535D01*
X500968Y248535D01*
X503652Y263746D02*
G01*
X509021Y269115D01*
X516716Y253009D02*
G01*
X516716Y252114D01*
X517610Y250326D01*
X518505Y249430D01*
X520295Y248535D01*
X523874Y248535D01*
X525663Y249430D01*
X526558Y250326D01*
X527453Y252114D01*
X527453Y253904D01*
X526558Y255693D01*
X524769Y258378D01*
X515821Y267325D01*
X528348Y267325D01*
X561663Y243591D02*
G01*
X561663Y224801D01*
X561663Y243591D02*
G01*
X553610Y243591D01*
X550926Y242696D01*
X550031Y241801D01*
X549136Y240012D01*
X549136Y238222D01*
X550031Y236433D01*
X550926Y235538D01*
X553610Y234643D01*
X561663Y234643D01*
X555400Y234643D02*
G01*
X549136Y224801D01*
X543231Y240012D02*
G01*
X541441Y240907D01*
X538757Y243591D01*
X538757Y224801D01*
X531956Y239117D02*
G01*
X531956Y240012D01*
X531062Y241801D01*
X530167Y242696D01*
X528377Y243591D01*
X524798Y243591D01*
X523009Y242696D01*
X522114Y241801D01*
X521219Y240012D01*
X521219Y238222D01*
X522114Y236433D01*
X523904Y233748D01*
X532851Y224801D01*
X520324Y224801D01*
X609927Y187301D02*
G01*
X609927Y206091D01*
X609927Y187301D02*
G01*
X617980Y187301D01*
X620664Y188197D01*
X621559Y189092D01*
X622454Y190880D01*
X622454Y192671D01*
X621559Y194459D01*
X620664Y195354D01*
X617980Y196250D01*
X609927Y196250D01*
X616190Y196250D02*
G01*
X622454Y206091D01*
X628359Y190880D02*
G01*
X630149Y189985D01*
X632833Y187301D01*
X632833Y206091D01*
X640528Y187301D02*
G01*
X650371Y187301D01*
X645002Y194459D01*
X647686Y194459D01*
X649476Y195354D01*
X650371Y196250D01*
X651266Y198933D01*
X651266Y200724D01*
X650371Y203407D01*
X648581Y205196D01*
X645897Y206091D01*
X643213Y206091D01*
X640528Y205196D01*
X639634Y204302D01*
X638739Y202512D01*
X75000Y-304863D02*
G01*
X75000Y-286073D01*
X75000Y-304863D02*
G01*
X83052Y-304863D01*
X85736Y-303969D01*
X86631Y-303074D01*
X87527Y-301284D01*
X87527Y-299495D01*
X86631Y-297705D01*
X85736Y-296810D01*
X83052Y-295916D01*
X75000Y-295916D01*
X81262Y-295916D02*
G01*
X87527Y-286073D01*
X102379Y-304863D02*
G01*
X93431Y-292337D01*
X106853Y-292337D01*
X102379Y-304863D02*
G01*
X102379Y-286073D01*
X182899Y-312764D02*
G01*
X182899Y-293973D01*
X182899Y-312764D02*
G01*
X190952Y-312764D01*
X193636Y-311869D01*
X194531Y-310974D01*
X195426Y-309185D01*
X195426Y-307395D01*
X194531Y-305605D01*
X193636Y-304711D01*
X190952Y-303816D01*
X182899Y-303816D01*
X189162Y-303816D02*
G01*
X195426Y-293973D01*
X203121Y-312764D02*
G01*
X212963Y-312764D01*
X207595Y-305605D01*
X210279Y-305605D01*
X212069Y-304711D01*
X212963Y-303816D01*
X213858Y-301131D01*
X213858Y-299342D01*
X212963Y-296658D01*
X211174Y-294868D01*
X208490Y-293973D01*
X205805Y-293973D01*
X203121Y-294868D01*
X202226Y-295763D01*
X201331Y-297552D01*
X818699Y354099D02*
G01*
X818699Y372899D01*
X818699Y354099D02*
G01*
X826799Y354099D01*
X829399Y355000D01*
X830299Y355900D01*
X831199Y357699D01*
X831199Y359499D01*
X830299Y361300D01*
X829399Y362199D01*
X826799Y363099D01*
X818699Y363099D01*
X825000Y363099D02*
G01*
X831199Y372899D01*
X837999Y358600D02*
G01*
X837999Y357699D01*
X838899Y355900D01*
X839799Y355000D01*
X841599Y354099D01*
X845199Y354099D01*
X846999Y355000D01*
X847899Y355900D01*
X848799Y357699D01*
X848799Y359499D01*
X847899Y361300D01*
X846099Y364000D01*
X837099Y372899D01*
X849699Y372899D01*
X868099Y354099D02*
G01*
X859099Y372899D01*
X855599Y354099D02*
G01*
X868099Y354099D01*
X912299Y-415136D02*
G01*
X912299Y-433926D01*
X912299Y-415136D02*
G01*
X904246Y-415136D01*
X901562Y-416030D01*
X900667Y-416925D01*
X899772Y-418715D01*
X899772Y-420504D01*
X900667Y-422294D01*
X901562Y-423189D01*
X904246Y-424083D01*
X912299Y-424083D01*
X906036Y-424083D02*
G01*
X899772Y-433926D01*
X883129Y-417820D02*
G01*
X884024Y-416030D01*
X886708Y-415136D01*
X888498Y-415136D01*
X891182Y-416030D01*
X892972Y-418715D01*
X893867Y-423189D01*
X893867Y-427662D01*
X892972Y-431242D01*
X891182Y-433031D01*
X888498Y-433926D01*
X887603Y-433926D01*
X884919Y-433031D01*
X883129Y-431242D01*
X882235Y-428557D01*
X882235Y-427662D01*
X883129Y-424978D01*
X884919Y-423189D01*
X887603Y-422294D01*
X888498Y-422294D01*
X891182Y-423189D01*
X892972Y-424978D01*
X893867Y-427662D01*
X755000Y444863D02*
G01*
X755000Y426073D01*
X755000Y444863D02*
G01*
X743367Y444863D01*
X755000Y435916D02*
G01*
X747841Y435916D01*
X737461Y444863D02*
G01*
X737461Y426073D01*
X737461Y444863D02*
G01*
X729408Y444863D01*
X726724Y443969D01*
X725829Y443074D01*
X724935Y441284D01*
X724935Y438600D01*
X725829Y436810D01*
X726724Y435916D01*
X729408Y435021D01*
X737461Y435021D01*
X705607Y440390D02*
G01*
X706502Y442179D01*
X708292Y443969D01*
X710081Y444863D01*
X713660Y444863D01*
X715450Y443969D01*
X717240Y442179D01*
X718134Y440390D01*
X719029Y437705D01*
X719029Y433231D01*
X718134Y430547D01*
X717240Y428757D01*
X715450Y426968D01*
X713660Y426073D01*
X710081Y426073D01*
X708292Y426968D01*
X706502Y428757D01*
X705607Y430547D01*
X699702Y441284D02*
G01*
X697912Y442179D01*
X695228Y444863D01*
X695228Y426073D01*
X547689Y-201577D02*
G01*
X549479Y-202472D01*
X551268Y-204263D01*
X552163Y-206051D01*
X552163Y-209630D01*
X551268Y-211421D01*
X549479Y-213209D01*
X547689Y-214104D01*
X545005Y-215000D01*
X540531Y-215000D01*
X537847Y-214104D01*
X536057Y-213209D01*
X534268Y-211421D01*
X533373Y-209630D01*
X533373Y-206051D01*
X534268Y-204263D01*
X536057Y-202472D01*
X537847Y-201577D01*
X547689Y-194778D02*
G01*
X548584Y-194778D01*
X550373Y-193883D01*
X551268Y-192988D01*
X552163Y-191199D01*
X552163Y-187620D01*
X551268Y-185830D01*
X550373Y-184935D01*
X548584Y-184041D01*
X546794Y-184041D01*
X545005Y-184935D01*
X542320Y-186725D01*
X533373Y-195673D01*
X533373Y-183146D01*
X567699Y-351599D02*
G01*
X569499Y-352500D01*
X571299Y-354299D01*
X572199Y-356100D01*
X572199Y-359600D01*
X571299Y-361399D01*
X569499Y-363200D01*
X567699Y-364099D01*
X565000Y-365000D01*
X560499Y-365000D01*
X557799Y-364099D01*
X556099Y-363200D01*
X554299Y-361399D01*
X553399Y-359600D01*
X553399Y-356100D01*
X554299Y-354299D01*
X556099Y-352500D01*
X557799Y-351599D01*
X572199Y-343899D02*
G01*
X572199Y-334000D01*
X565000Y-339400D01*
X565000Y-336700D01*
X564099Y-334899D01*
X563199Y-334000D01*
X560499Y-333099D01*
X558699Y-333099D01*
X556099Y-334000D01*
X554299Y-335799D01*
X553399Y-338499D01*
X553399Y-341199D01*
X554299Y-343899D01*
X555199Y-344800D01*
X556999Y-345700D01*
X51899Y111599D02*
G01*
X50099Y112500D01*
X48299Y114299D01*
X47399Y116100D01*
X47399Y119600D01*
X48299Y121399D01*
X50099Y123200D01*
X51899Y124099D01*
X54599Y125000D01*
X59099Y125000D01*
X61799Y124099D01*
X63499Y123200D01*
X65299Y121399D01*
X66199Y119600D01*
X66199Y116100D01*
X65299Y114299D01*
X63499Y112500D01*
X61799Y111599D01*
X47399Y96700D02*
G01*
X60000Y105700D01*
X60000Y92300D01*
X47399Y96700D02*
G01*
X66199Y96700D01*
X-48049Y71548D02*
G01*
X-49849Y72449D01*
X-51649Y74248D01*
X-52549Y76048D01*
X-52549Y79648D01*
X-51649Y81448D01*
X-49849Y83249D01*
X-48049Y84149D01*
X-45449Y85048D01*
X-40949Y85048D01*
X-38249Y84149D01*
X-36449Y83249D01*
X-34649Y81448D01*
X-33749Y79648D01*
X-33749Y76048D01*
X-34649Y74248D01*
X-36449Y72449D01*
X-38249Y71548D01*
X-52549Y54949D02*
G01*
X-52549Y63849D01*
X-44549Y64749D01*
X-45449Y63849D01*
X-46349Y61149D01*
X-46349Y58548D01*
X-45449Y55848D01*
X-43649Y54048D01*
X-40949Y53148D01*
X-39149Y53148D01*
X-36449Y54048D01*
X-34649Y55848D01*
X-33749Y58548D01*
X-33749Y61149D01*
X-34649Y63849D01*
X-35549Y64749D01*
X-37349Y65648D01*
X12689Y-81577D02*
G01*
X14479Y-82472D01*
X16268Y-84263D01*
X17163Y-86051D01*
X17163Y-89630D01*
X16268Y-91421D01*
X14479Y-93209D01*
X12689Y-94104D01*
X10005Y-95000D01*
X5531Y-95000D01*
X2847Y-94104D01*
X1057Y-93209D01*
X-731Y-91421D01*
X-1626Y-89630D01*
X-1626Y-86051D01*
X-731Y-84263D01*
X1057Y-82472D01*
X2847Y-81577D01*
X14479Y-64935D02*
G01*
X16268Y-65830D01*
X17163Y-68515D01*
X17163Y-70304D01*
X16268Y-72988D01*
X13584Y-74778D01*
X9110Y-75673D01*
X4636Y-75673D01*
X1057Y-74778D01*
X-731Y-72988D01*
X-1626Y-70304D01*
X-1626Y-69409D01*
X-731Y-66725D01*
X1057Y-64935D01*
X3741Y-64041D01*
X4636Y-64041D01*
X7320Y-64935D01*
X9110Y-66725D01*
X10005Y-69409D01*
X10005Y-70304D01*
X9110Y-72988D01*
X7320Y-74778D01*
X4636Y-75673D01*
X294599Y166599D02*
G01*
X292799Y167500D01*
X290999Y169299D01*
X290099Y171100D01*
X290099Y174600D01*
X290999Y176399D01*
X292799Y178200D01*
X294599Y179099D01*
X297299Y180000D01*
X301799Y180000D01*
X304499Y179099D01*
X306199Y178200D01*
X307999Y176399D01*
X308899Y174600D01*
X308899Y171100D01*
X307999Y169299D01*
X306199Y167500D01*
X304499Y166599D01*
X296399Y149000D02*
G01*
X299099Y149899D01*
X300899Y151700D01*
X301799Y154400D01*
X301799Y155300D01*
X300899Y158000D01*
X299099Y159800D01*
X296399Y160700D01*
X295499Y160700D01*
X292799Y159800D01*
X290999Y158000D01*
X290099Y155300D01*
X290099Y154400D01*
X290999Y151700D01*
X292799Y149899D01*
X296399Y149000D01*
X300899Y149000D01*
X305299Y149899D01*
X307999Y151700D01*
X308899Y154400D01*
X308899Y156199D01*
X307999Y158899D01*
X306199Y159800D01*
X-27032Y-230960D02*
G01*
X-26137Y-229169D01*
X-24347Y-227381D01*
X-22558Y-226485D01*
X-18979Y-226485D01*
X-17189Y-227381D01*
X-15400Y-229169D01*
X-14505Y-230960D01*
X-13610Y-233643D01*
X-13610Y-238117D01*
X-14505Y-240801D01*
X-15400Y-242591D01*
X-17189Y-244380D01*
X-18979Y-245275D01*
X-22558Y-245275D01*
X-24347Y-244380D01*
X-26137Y-242591D01*
X-27032Y-240801D01*
X-32937Y-230064D02*
G01*
X-34727Y-229169D01*
X-37411Y-226485D01*
X-37411Y-245275D01*
X-48685Y-226485D02*
G01*
X-46001Y-227381D01*
X-44211Y-230064D01*
X-43317Y-234538D01*
X-43317Y-237222D01*
X-44211Y-241696D01*
X-46001Y-244380D01*
X-48685Y-245275D01*
X-50475Y-245275D01*
X-53159Y-244380D01*
X-54949Y-241696D01*
X-55843Y-237222D01*
X-55843Y-234538D01*
X-54949Y-230064D01*
X-53159Y-227381D01*
X-50475Y-226485D01*
X-48685Y-226485D01*
X903421Y-390D02*
G01*
X902527Y-2179D01*
X900736Y-3969D01*
X898947Y-4863D01*
X895368Y-4863D01*
X893578Y-3969D01*
X891789Y-2179D01*
X890894Y-390D01*
X890000Y2294D01*
X890000Y6768D01*
X890894Y9452D01*
X891789Y11242D01*
X893578Y13031D01*
X895368Y13926D01*
X898947Y13926D01*
X900736Y13031D01*
X902527Y11242D01*
X903421Y9452D01*
X909326Y-1284D02*
G01*
X911116Y-2179D01*
X913800Y-4863D01*
X913800Y13926D01*
X920600Y-390D02*
G01*
X920600Y-1284D01*
X921495Y-3074D01*
X922390Y-3969D01*
X924179Y-4863D01*
X927758Y-4863D01*
X929548Y-3969D01*
X930443Y-3074D01*
X931338Y-1284D01*
X931338Y504D01*
X930443Y2294D01*
X928653Y4978D01*
X919706Y13926D01*
X932232Y13926D01*
X1233877Y-29609D02*
G01*
X1234772Y-27820D01*
X1236562Y-26030D01*
X1238351Y-25136D01*
X1241930Y-25136D01*
X1243720Y-26030D01*
X1245509Y-27820D01*
X1246404Y-29609D01*
X1247299Y-32294D01*
X1247299Y-36768D01*
X1246404Y-39452D01*
X1245509Y-41242D01*
X1243720Y-43031D01*
X1241930Y-43926D01*
X1238351Y-43926D01*
X1236562Y-43031D01*
X1234772Y-41242D01*
X1233877Y-39452D01*
X1227972Y-28715D02*
G01*
X1226182Y-27820D01*
X1223498Y-25136D01*
X1223498Y-43926D01*
X1215803Y-25136D02*
G01*
X1205960Y-25136D01*
X1211329Y-32294D01*
X1208645Y-32294D01*
X1206855Y-33189D01*
X1205960Y-34083D01*
X1205066Y-36768D01*
X1205066Y-38557D01*
X1205960Y-41242D01*
X1207750Y-43031D01*
X1210434Y-43926D01*
X1213119Y-43926D01*
X1215803Y-43031D01*
X1216698Y-42136D01*
X1217592Y-40347D01*
X333899Y-94600D02*
G01*
X334799Y-92800D01*
X336599Y-90999D01*
X338399Y-90100D01*
X341899Y-90100D01*
X343699Y-90999D01*
X345499Y-92800D01*
X346399Y-94600D01*
X347299Y-97300D01*
X347299Y-101799D01*
X346399Y-104499D01*
X345499Y-106199D01*
X343699Y-108000D01*
X341899Y-108899D01*
X338399Y-108899D01*
X336599Y-108000D01*
X334799Y-106199D01*
X333899Y-104499D01*
X327099Y-94600D02*
G01*
X327099Y-93699D01*
X326199Y-91900D01*
X325299Y-90999D01*
X323499Y-90100D01*
X319899Y-90100D01*
X318099Y-90999D01*
X317199Y-91900D01*
X316299Y-93699D01*
X316299Y-95500D01*
X317199Y-97300D01*
X318999Y-100000D01*
X327999Y-108899D01*
X315399Y-108899D01*
X304199Y-90100D02*
G01*
X306899Y-90999D01*
X308599Y-93699D01*
X309499Y-98200D01*
X309499Y-100900D01*
X308599Y-105300D01*
X306899Y-108000D01*
X304199Y-108899D01*
X302399Y-108899D01*
X299699Y-108000D01*
X297899Y-105300D01*
X296999Y-100900D01*
X296999Y-98200D01*
X297899Y-93699D01*
X299699Y-90999D01*
X302399Y-90100D01*
X304199Y-90100D01*
X358877Y-174609D02*
G01*
X359772Y-172820D01*
X361562Y-171030D01*
X363351Y-170136D01*
X366930Y-170136D01*
X368720Y-171030D01*
X370509Y-172820D01*
X371404Y-174609D01*
X372299Y-177294D01*
X372299Y-181768D01*
X371404Y-184452D01*
X370509Y-186242D01*
X368720Y-188031D01*
X366930Y-188926D01*
X363351Y-188926D01*
X361562Y-188031D01*
X359772Y-186242D01*
X358877Y-184452D01*
X352077Y-174609D02*
G01*
X352077Y-173715D01*
X351182Y-171925D01*
X350288Y-171030D01*
X348498Y-170136D01*
X344919Y-170136D01*
X343129Y-171030D01*
X342235Y-171925D01*
X341340Y-173715D01*
X341340Y-175504D01*
X342235Y-177294D01*
X344024Y-179978D01*
X352972Y-188926D01*
X340445Y-188926D01*
X334540Y-173715D02*
G01*
X332750Y-172820D01*
X330066Y-170136D01*
X330066Y-188926D01*
X755689Y-140785D02*
G01*
X755689Y-154207D01*
X754794Y-156891D01*
X753005Y-158681D01*
X750320Y-159576D01*
X748531Y-159576D01*
X745846Y-158681D01*
X744057Y-156891D01*
X743162Y-154207D01*
X743162Y-140785D01*
X737257Y-144364D02*
G01*
X735467Y-143470D01*
X732783Y-140785D01*
X732783Y-159576D01*
X717930Y-140785D02*
G01*
X726877Y-153312D01*
X713456Y-153312D01*
X717930Y-140785D02*
G01*
X717930Y-159576D01*
X177435Y115000D02*
G01*
X196225Y115000D01*
X196225Y115000D02*
G01*
X196225Y104263D01*
X181014Y98357D02*
G01*
X180119Y96568D01*
X177435Y93883D01*
X196225Y93883D01*
X927299Y-490100D02*
G01*
X927299Y-503600D01*
X926399Y-506199D01*
X924599Y-508000D01*
X921899Y-508899D01*
X920099Y-508899D01*
X917500Y-508000D01*
X915699Y-506199D01*
X914799Y-503600D01*
X914799Y-490100D01*
X907999Y-494600D02*
G01*
X907999Y-493699D01*
X907099Y-491900D01*
X906199Y-490999D01*
X904399Y-490100D01*
X900799Y-490100D01*
X898999Y-490999D01*
X898099Y-491900D01*
X897199Y-493699D01*
X897199Y-495500D01*
X898099Y-497300D01*
X899899Y-500000D01*
X908899Y-508899D01*
X896299Y-508899D01*
X-67564Y-130000D02*
G01*
X-48774Y-130000D01*
X-48774Y-130000D02*
G01*
X-48774Y-140736D01*
X-67564Y-155590D02*
G01*
X-55037Y-146642D01*
X-55037Y-160064D01*
X-67564Y-155590D02*
G01*
X-48774Y-155590D01*
X772178Y-370927D02*
G01*
X790968Y-370927D01*
X790968Y-370927D02*
G01*
X790968Y-381664D01*
X772178Y-387570D02*
G01*
X790968Y-387570D01*
X772178Y-387570D02*
G01*
X772178Y-399202D01*
X781126Y-387570D02*
G01*
X781126Y-394728D01*
X790968Y-387570D02*
G01*
X790968Y-399202D01*
X772178Y-405106D02*
G01*
X790968Y-405106D01*
X772178Y-405106D02*
G01*
X772178Y-411370D01*
X773073Y-414054D01*
X774862Y-415844D01*
X776652Y-416738D01*
X779336Y-417633D01*
X783810Y-417633D01*
X786494Y-416738D01*
X788284Y-415844D01*
X790073Y-414054D01*
X790968Y-411370D01*
X790968Y-405106D01*
X775757Y-423539D02*
G01*
X774862Y-425329D01*
X772178Y-428013D01*
X790968Y-428013D01*
X745263Y-357831D02*
G01*
X744368Y-359621D01*
X742579Y-361410D01*
X740789Y-362305D01*
X738105Y-363200D01*
X733631Y-363200D01*
X730947Y-362305D01*
X729157Y-361410D01*
X727368Y-359621D01*
X726473Y-357831D01*
X726473Y-354252D01*
X727368Y-352462D01*
X729157Y-350673D01*
X730947Y-349778D01*
X733631Y-348883D01*
X738105Y-348883D01*
X740789Y-349778D01*
X742579Y-350673D01*
X744368Y-352462D01*
X745263Y-354252D01*
X745263Y-357831D01*
X730052Y-355147D02*
G01*
X724683Y-349778D01*
X741684Y-342977D02*
G01*
X742579Y-341188D01*
X745263Y-338503D01*
X726473Y-338503D01*
X835699Y-195136D02*
G01*
X835699Y-213926D01*
X835699Y-195136D02*
G01*
X827646Y-195136D01*
X824962Y-196030D01*
X824067Y-196925D01*
X823172Y-198715D01*
X823172Y-200504D01*
X824067Y-202294D01*
X824962Y-203189D01*
X827646Y-204083D01*
X835699Y-204083D01*
X829436Y-204083D02*
G01*
X823172Y-213926D01*
X806529Y-195136D02*
G01*
X815477Y-195136D01*
X816372Y-203189D01*
X815477Y-202294D01*
X812793Y-201399D01*
X810108Y-201399D01*
X807424Y-202294D01*
X805635Y-204083D01*
X804740Y-206768D01*
X804740Y-208557D01*
X805635Y-211242D01*
X807424Y-213031D01*
X810108Y-213926D01*
X812793Y-213926D01*
X815477Y-213031D01*
X816372Y-212136D01*
X817267Y-210347D01*
X476663Y25435D02*
G01*
X457873Y25435D01*
X476663Y25435D02*
G01*
X476663Y33488D01*
X475768Y36172D01*
X474873Y37067D01*
X473084Y37962D01*
X471295Y37962D01*
X469505Y37067D01*
X468610Y36172D01*
X467715Y33488D01*
X467715Y25435D01*
X467715Y31698D02*
G01*
X457873Y37962D01*
X470400Y55500D02*
G01*
X467715Y54605D01*
X465926Y52815D01*
X465031Y50131D01*
X465031Y49236D01*
X465926Y46552D01*
X467715Y44762D01*
X470400Y43868D01*
X471295Y43868D01*
X473979Y44762D01*
X475768Y46552D01*
X476663Y49236D01*
X476663Y50131D01*
X475768Y52815D01*
X473979Y54605D01*
X470400Y55500D01*
X465926Y55500D01*
X461452Y54605D01*
X458768Y52815D01*
X457873Y50131D01*
X457873Y48341D01*
X458768Y45657D01*
X460557Y44762D01*
X567163Y75000D02*
G01*
X548373Y75000D01*
X567163Y75000D02*
G01*
X567163Y83052D01*
X566268Y85736D01*
X565373Y86631D01*
X563584Y87527D01*
X561794Y87527D01*
X560005Y86631D01*
X559110Y85736D01*
X558215Y83052D01*
X558215Y75000D01*
X558215Y81262D02*
G01*
X548373Y87527D01*
X563584Y93431D02*
G01*
X564479Y95221D01*
X567163Y97905D01*
X548373Y97905D01*
X567163Y109180D02*
G01*
X566268Y106496D01*
X563584Y104706D01*
X559110Y103811D01*
X556426Y103811D01*
X551952Y104706D01*
X549268Y106496D01*
X548373Y109180D01*
X548373Y110970D01*
X549268Y113654D01*
X551952Y115444D01*
X556426Y116338D01*
X559110Y116338D01*
X563584Y115444D01*
X566268Y113654D01*
X567163Y110970D01*
X567163Y109180D01*
X1077299Y-209863D02*
G01*
X1077299Y-196442D01*
X1078194Y-193757D01*
X1079983Y-191968D01*
X1082668Y-191073D01*
X1084457Y-191073D01*
X1087142Y-191968D01*
X1088931Y-193757D01*
X1089826Y-196442D01*
X1089826Y-209863D01*
X1108258Y-209863D02*
G01*
X1099310Y-191073D01*
X1095731Y-209863D02*
G01*
X1108258Y-209863D01*
X32299Y379863D02*
G01*
X32299Y361073D01*
X32299Y379863D02*
G01*
X24246Y379863D01*
X21562Y378969D01*
X20667Y378074D01*
X19772Y376284D01*
X19772Y374495D01*
X20667Y372705D01*
X21562Y371810D01*
X24246Y370916D01*
X32299Y370916D01*
X26036Y370916D02*
G01*
X19772Y361073D01*
X13867Y379863D02*
G01*
X13867Y361073D01*
X13867Y379863D02*
G01*
X2235Y379863D01*
X13867Y370916D02*
G01*
X6708Y370916D01*
X-4565Y375390D02*
G01*
X-4565Y376284D01*
X-5459Y378074D01*
X-6354Y378969D01*
X-8144Y379863D01*
X-11723Y379863D01*
X-13512Y378969D01*
X-14407Y378074D01*
X-15302Y376284D01*
X-15302Y374495D01*
X-14407Y372705D01*
X-12618Y370021D01*
X-3670Y361073D01*
X-16197Y361073D01*
X177299Y74863D02*
G01*
X177299Y61442D01*
X176404Y58757D01*
X174615Y56968D01*
X171930Y56073D01*
X170141Y56073D01*
X167456Y56968D01*
X165667Y58757D01*
X164772Y61442D01*
X164772Y74863D01*
X148129Y74863D02*
G01*
X157077Y74863D01*
X157972Y66810D01*
X157077Y67705D01*
X154393Y68600D01*
X151708Y68600D01*
X149024Y67705D01*
X147235Y65916D01*
X146340Y63231D01*
X146340Y61442D01*
X147235Y58757D01*
X149024Y56968D01*
X151708Y56073D01*
X154393Y56073D01*
X157077Y56968D01*
X157972Y57863D01*
X158867Y59652D01*
X1097163Y-370000D02*
G01*
X1083741Y-370000D01*
X1081057Y-369104D01*
X1079268Y-367316D01*
X1078373Y-364630D01*
X1078373Y-362842D01*
X1079268Y-360156D01*
X1081057Y-358368D01*
X1083741Y-357472D01*
X1097163Y-357472D01*
X1093584Y-351568D02*
G01*
X1094479Y-349778D01*
X1097163Y-347094D01*
X1078373Y-347094D01*
X1097163Y-335819D02*
G01*
X1096268Y-338503D01*
X1093584Y-340293D01*
X1089110Y-341188D01*
X1086426Y-341188D01*
X1081952Y-340293D01*
X1079268Y-338503D01*
X1078373Y-335819D01*
X1078373Y-334029D01*
X1079268Y-331345D01*
X1081952Y-329555D01*
X1086426Y-328661D01*
X1089110Y-328661D01*
X1093584Y-329555D01*
X1096268Y-331345D01*
X1097163Y-334029D01*
X1097163Y-335819D01*
X195699Y154600D02*
G01*
X194799Y152800D01*
X192999Y150999D01*
X191199Y150100D01*
X187699Y150100D01*
X185899Y150999D01*
X184099Y152800D01*
X183199Y154600D01*
X182299Y157300D01*
X182299Y161799D01*
X183199Y164499D01*
X184099Y166199D01*
X185899Y168000D01*
X187699Y168899D01*
X191199Y168899D01*
X192999Y168000D01*
X194799Y166199D01*
X195699Y164499D01*
X214199Y150100D02*
G01*
X205199Y168899D01*
X201599Y150100D02*
G01*
X214199Y150100D01*
X-93100Y-118400D02*
G01*
X-94900Y-117500D01*
X-96700Y-115700D01*
X-97600Y-113899D01*
X-97600Y-110399D01*
X-96700Y-108600D01*
X-94900Y-106799D01*
X-93100Y-105900D01*
X-90400Y-105000D01*
X-85900Y-105000D01*
X-83200Y-105900D01*
X-81500Y-106799D01*
X-79700Y-108600D01*
X-78800Y-110399D01*
X-78800Y-113899D01*
X-79700Y-115700D01*
X-81500Y-117500D01*
X-83200Y-118400D01*
X-94000Y-124299D02*
G01*
X-94900Y-126100D01*
X-97600Y-128800D01*
X-78800Y-128800D01*
X-94000Y-134699D02*
G01*
X-94900Y-136500D01*
X-97600Y-139200D01*
X-78800Y-139200D01*
X67299Y149899D02*
G01*
X67299Y131100D01*
X67299Y131100D02*
G01*
X56599Y131100D01*
X48899Y149899D02*
G01*
X38999Y149899D01*
X44399Y142699D01*
X41699Y142699D01*
X39899Y141799D01*
X38999Y140900D01*
X38099Y138200D01*
X38099Y136399D01*
X38999Y133800D01*
X40799Y131999D01*
X43499Y131100D01*
X46199Y131100D01*
X48899Y131999D01*
X49799Y132899D01*
X50699Y134699D01*
D78*
X750000Y149173D02*
G01*
X750000Y136217D01*
X749135Y133627D01*
X747408Y131900D01*
X744817Y131035D01*
X743090Y131035D01*
X740499Y131900D01*
X738772Y133627D01*
X737908Y136217D01*
X737908Y149173D01*
X732208Y145718D02*
G01*
X730481Y146581D01*
X727890Y149173D01*
X727890Y131035D01*
X720463Y149173D02*
G01*
X710963Y149173D01*
X716144Y142264D01*
X713554Y142264D01*
X711826Y141399D01*
X710963Y140536D01*
X710099Y137944D01*
X710099Y136217D01*
X710963Y133627D01*
X712690Y131900D01*
X715281Y131035D01*
X717872Y131035D01*
X720463Y131900D01*
X721326Y132764D01*
X722190Y134490D01*
D75*
X841935Y603800D02*
G01*
X860725Y603800D01*
X841935Y603800D02*
G01*
X841935Y595747D01*
X842830Y593063D01*
X843725Y592168D01*
X845514Y591273D01*
X847304Y591273D01*
X849093Y592168D01*
X849988Y593063D01*
X850883Y595747D01*
X850883Y603800D01*
X850883Y597537D02*
G01*
X860725Y591273D01*
X846409Y584472D02*
G01*
X845514Y584472D01*
X843725Y583578D01*
X842830Y582683D01*
X841935Y580893D01*
X841935Y577314D01*
X842830Y575524D01*
X843725Y574630D01*
X845514Y573735D01*
X847304Y573735D01*
X849093Y574630D01*
X851778Y576419D01*
X860725Y585367D01*
X860725Y572840D01*
X844619Y556197D02*
G01*
X842830Y557092D01*
X841935Y559776D01*
X841935Y561567D01*
X842830Y564250D01*
X845514Y566041D01*
X849988Y566934D01*
X854462Y566934D01*
X858041Y566041D01*
X859830Y564250D01*
X860725Y561567D01*
X860725Y560671D01*
X859830Y557988D01*
X858041Y556197D01*
X855357Y555302D01*
X854462Y555302D01*
X851778Y556197D01*
X849988Y557988D01*
X849093Y560671D01*
X849093Y561567D01*
X849988Y564250D01*
X851778Y566041D01*
X854462Y566934D01*
X366500Y-638573D02*
G01*
X366500Y-652073D01*
X365600Y-654773D01*
X363800Y-656473D01*
X361100Y-657372D01*
X359300Y-657372D01*
X356600Y-656473D01*
X354800Y-654773D01*
X353900Y-652073D01*
X353900Y-638573D01*
X335500Y-641273D02*
G01*
X337300Y-639472D01*
X340000Y-638573D01*
X343600Y-638573D01*
X346200Y-639472D01*
X348000Y-641273D01*
X348000Y-643072D01*
X347100Y-644872D01*
X346200Y-645772D01*
X344500Y-646673D01*
X339100Y-648472D01*
X337300Y-649373D01*
X336400Y-650273D01*
X335500Y-652073D01*
X335500Y-654773D01*
X337300Y-656473D01*
X340000Y-657372D01*
X343600Y-657372D01*
X346200Y-656473D01*
X348000Y-654773D01*
X329600Y-638573D02*
G01*
X329600Y-657372D01*
X329600Y-638573D02*
G01*
X321500Y-638573D01*
X318900Y-639472D01*
X318000Y-640372D01*
X317100Y-642172D01*
X317100Y-643973D01*
X318000Y-645772D01*
X318900Y-646673D01*
X321500Y-647573D01*
X329600Y-647573D02*
G01*
X321500Y-647573D01*
X318900Y-648472D01*
X318000Y-649373D01*
X317100Y-651172D01*
X317100Y-653872D01*
X318000Y-655572D01*
X318900Y-656473D01*
X321500Y-657372D01*
X329600Y-657372D01*
X311200Y-642172D02*
G01*
X309400Y-641273D01*
X306700Y-638573D01*
X306700Y-657372D01*
X114863Y475000D02*
G01*
X96073Y475000D01*
X114863Y475000D02*
G01*
X114863Y483052D01*
X113968Y485736D01*
X113073Y486631D01*
X111284Y487527D01*
X109494Y487527D01*
X107705Y486631D01*
X106810Y485736D01*
X105915Y483052D01*
X105915Y475000D01*
X105915Y481262D02*
G01*
X96073Y487527D01*
X111284Y493431D02*
G01*
X112179Y495221D01*
X114863Y497905D01*
X96073Y497905D01*
X114863Y514549D02*
G01*
X114863Y505601D01*
X106810Y504706D01*
X107705Y505601D01*
X108600Y508285D01*
X108600Y510970D01*
X107705Y513654D01*
X105915Y515444D01*
X103231Y516338D01*
X101441Y516338D01*
X98757Y515444D01*
X96968Y513654D01*
X96073Y510970D01*
X96073Y508285D01*
X96968Y505601D01*
X97862Y504706D01*
X99652Y503811D01*
X289863Y430000D02*
G01*
X271073Y430000D01*
X289863Y430000D02*
G01*
X289863Y438052D01*
X288968Y440736D01*
X288073Y441631D01*
X286284Y442527D01*
X284494Y442527D01*
X282705Y441631D01*
X281810Y440736D01*
X280915Y438052D01*
X280915Y430000D01*
X280915Y436262D02*
G01*
X271073Y442527D01*
X286284Y448431D02*
G01*
X287179Y450221D01*
X289863Y452905D01*
X271073Y452905D01*
X289863Y471338D02*
G01*
X271073Y462390D01*
X289863Y458811D02*
G01*
X289863Y471338D01*
X219863Y455000D02*
G01*
X201073Y455000D01*
X219863Y455000D02*
G01*
X219863Y463052D01*
X218968Y465736D01*
X218073Y466631D01*
X216284Y467527D01*
X214494Y467527D01*
X212705Y466631D01*
X211810Y465736D01*
X210915Y463052D01*
X210915Y455000D01*
X210915Y461262D02*
G01*
X201073Y467527D01*
X215389Y474326D02*
G01*
X216284Y474326D01*
X218073Y475221D01*
X218968Y476116D01*
X219863Y477905D01*
X219863Y481484D01*
X218968Y483274D01*
X218073Y484169D01*
X216284Y485064D01*
X214494Y485064D01*
X212705Y484169D01*
X210020Y482379D01*
X201073Y473431D01*
X201073Y485958D01*
X219863Y493654D02*
G01*
X219863Y503497D01*
X212705Y498128D01*
X212705Y500812D01*
X211810Y502602D01*
X210915Y503497D01*
X208231Y504391D01*
X206441Y504391D01*
X203757Y503497D01*
X201968Y501707D01*
X201073Y499023D01*
X201073Y496338D01*
X201968Y493654D01*
X202862Y492759D01*
X204652Y491864D01*
D78*
X-129036Y66464D02*
G01*
X-130855Y67372D01*
X-132673Y69191D01*
X-133582Y71008D01*
X-133582Y74645D01*
X-132673Y76464D01*
X-130855Y78281D01*
X-129036Y79191D01*
X-126309Y80100D01*
X-121764Y80100D01*
X-119036Y79191D01*
X-117218Y78281D01*
X-115400Y76464D01*
X-114491Y74645D01*
X-114491Y71008D01*
X-115400Y69191D01*
X-117218Y67372D01*
X-119036Y66464D01*
X-133582Y55918D02*
G01*
X-132673Y58645D01*
X-130855Y59555D01*
X-129036Y59555D01*
X-127218Y58645D01*
X-126309Y56826D01*
X-125400Y53191D01*
X-124491Y50464D01*
X-122673Y48645D01*
X-120855Y47735D01*
X-118127Y47735D01*
X-116309Y48645D01*
X-115400Y49555D01*
X-114491Y52282D01*
X-114491Y55918D01*
X-115400Y58645D01*
X-116309Y59555D01*
X-118127Y60464D01*
X-120855Y60464D01*
X-122673Y59555D01*
X-124491Y57735D01*
X-125400Y55009D01*
X-126309Y51372D01*
X-127218Y49555D01*
X-129036Y48645D01*
X-130855Y48645D01*
X-132673Y49555D01*
X-133582Y52282D01*
X-133582Y55918D01*
X752482Y330999D02*
G01*
X733390Y330999D01*
X752482Y330999D02*
G01*
X752482Y339182D01*
X751572Y341909D01*
X750663Y342818D01*
X748844Y343726D01*
X747026Y343726D01*
X745208Y342818D01*
X744299Y341909D01*
X743390Y339182D01*
X743390Y330999D01*
X743390Y337363D02*
G01*
X733390Y343726D01*
X752482Y351545D02*
G01*
X752482Y361545D01*
X745208Y356091D01*
X745208Y358818D01*
X744299Y360635D01*
X743390Y361545D01*
X740663Y362454D01*
X738844Y362454D01*
X736117Y361545D01*
X734299Y359726D01*
X733390Y356999D01*
X733390Y354272D01*
X734299Y351545D01*
X735208Y350635D01*
X737026Y349726D01*
X747935Y369364D02*
G01*
X748844Y369364D01*
X750663Y370273D01*
X751572Y371181D01*
X752482Y373000D01*
X752482Y376635D01*
X751572Y378454D01*
X750663Y379364D01*
X748844Y380273D01*
X747026Y380273D01*
X745208Y379364D01*
X742482Y377545D01*
X733390Y368454D01*
X733390Y381181D01*
X692937Y291712D02*
G01*
X674801Y291712D01*
X692937Y291712D02*
G01*
X692937Y299484D01*
X692074Y302076D01*
X691210Y302939D01*
X689483Y303802D01*
X687756Y303802D01*
X686028Y302939D01*
X685165Y302076D01*
X684301Y299484D01*
X684301Y291712D01*
X684301Y297757D02*
G01*
X674801Y303802D01*
X692937Y311230D02*
G01*
X692937Y320729D01*
X686028Y315547D01*
X686028Y318139D01*
X685165Y319866D01*
X684301Y320729D01*
X681710Y321594D01*
X679983Y321594D01*
X677392Y320729D01*
X675665Y319002D01*
X674801Y316412D01*
X674801Y313820D01*
X675665Y311230D01*
X676528Y310367D01*
X678256Y309502D01*
X692937Y329020D02*
G01*
X692937Y338521D01*
X686028Y333339D01*
X686028Y335929D01*
X685165Y337656D01*
X684301Y338521D01*
X681710Y339385D01*
X679983Y339385D01*
X677392Y338521D01*
X675665Y336793D01*
X674801Y334203D01*
X674801Y331612D01*
X675665Y329020D01*
X676528Y328157D01*
X678256Y327294D01*
X403465Y345014D02*
G01*
X403465Y325922D01*
X403465Y345014D02*
G01*
X395283Y345014D01*
X392556Y344104D01*
X391647Y343195D01*
X390737Y341377D01*
X390737Y339558D01*
X391647Y337741D01*
X392556Y336831D01*
X395283Y335922D01*
X403465Y335922D01*
X397101Y335922D02*
G01*
X390737Y325922D01*
X382919Y345014D02*
G01*
X372919Y345014D01*
X378374Y337741D01*
X375647Y337741D01*
X373828Y336831D01*
X372919Y335922D01*
X372010Y333195D01*
X372010Y331377D01*
X372919Y328649D01*
X374737Y326831D01*
X377465Y325922D01*
X380192Y325922D01*
X382919Y326831D01*
X383828Y327741D01*
X384737Y329558D01*
X366010Y341377D02*
G01*
X364192Y342287D01*
X361465Y345014D01*
X361465Y325922D01*
X125699Y-349517D02*
G01*
X125699Y-368609D01*
X125699Y-349517D02*
G01*
X117518Y-349517D01*
X114790Y-350426D01*
X113881Y-351336D01*
X112972Y-353155D01*
X112972Y-354972D01*
X113881Y-356790D01*
X114790Y-357699D01*
X117518Y-358609D01*
X125699Y-358609D01*
X119335Y-358609D02*
G01*
X112972Y-368609D01*
X105154Y-349517D02*
G01*
X95154Y-349517D01*
X100608Y-356790D01*
X97881Y-356790D01*
X96063Y-357699D01*
X95154Y-358609D01*
X94244Y-361336D01*
X94244Y-363155D01*
X95154Y-365882D01*
X96972Y-367699D01*
X99699Y-368609D01*
X102426Y-368609D01*
X105154Y-367699D01*
X106063Y-366790D01*
X106972Y-364972D01*
X79154Y-349517D02*
G01*
X88244Y-362244D01*
X74608Y-362244D01*
X79154Y-349517D02*
G01*
X79154Y-368609D01*
X105517Y-439099D02*
G01*
X119154Y-439099D01*
X121881Y-440009D01*
X123699Y-441826D01*
X124608Y-444555D01*
X124608Y-446372D01*
X123699Y-449099D01*
X121881Y-450918D01*
X119154Y-451826D01*
X105517Y-451826D01*
X111881Y-469645D02*
G01*
X114608Y-468735D01*
X116426Y-466918D01*
X117335Y-464191D01*
X117335Y-463281D01*
X116426Y-460554D01*
X114608Y-458735D01*
X111881Y-457827D01*
X110972Y-457827D01*
X108244Y-458735D01*
X106426Y-460554D01*
X105517Y-463281D01*
X105517Y-464191D01*
X106426Y-466918D01*
X108244Y-468735D01*
X111881Y-469645D01*
X116426Y-469645D01*
X120972Y-468735D01*
X123699Y-466918D01*
X124608Y-464191D01*
X124608Y-462372D01*
X123699Y-459645D01*
X121881Y-458735D01*
D11*
X289099Y-309400D02*
G01*
X329099Y-309400D01*
X329099Y-249400D02*
G01*
X289099Y-249400D01*
D72*
X260808Y-405513D02*
G01*
X317990Y-405513D01*
X317990Y-446127D01*
X260808Y-525686D02*
G01*
X317990Y-525686D01*
X317990Y-485072D01*
X260808Y-447671D02*
G01*
X260808Y-483528D01*
D11*
X338987Y115650D02*
G01*
X391655Y115650D01*
X339487Y187150D02*
G01*
X392152Y187150D01*
X320000Y146304D02*
G01*
X320000Y153694D01*
X420000Y146304D02*
G01*
X420000Y153694D01*
D20*
X1157298Y50001D02*
G01*
X1157298Y115001D01*
X1152298Y120001D01*
X1092298Y120001D01*
X1087298Y115001D01*
X1087298Y50001D01*
X1157298Y50001D01*
D72*
X1136205Y-109630D02*
G01*
X1164474Y-109630D01*
X1164474Y-70369D01*
X1136205Y-70369D01*
X1118393Y-109630D02*
G01*
X1090124Y-109630D01*
X1090124Y-70369D01*
X1118393Y-70369D01*
X880369Y111093D02*
G01*
X880369Y82824D01*
X919629Y82824D01*
X919629Y111093D01*
X880369Y128906D02*
G01*
X880369Y157175D01*
X919629Y157175D01*
X919629Y128906D01*
X292169Y-711D02*
G01*
X292169Y30394D01*
X331429Y30394D02*
G01*
X331429Y-711D01*
X325429Y-6712D02*
G01*
X298170Y-6712D01*
X292169Y79311D02*
G01*
X292169Y48206D01*
X331429Y48206D02*
G01*
X331429Y79311D01*
X325429Y85311D02*
G01*
X298170Y85311D01*
X524190Y288312D02*
G01*
X467008Y288312D01*
X467008Y328928D01*
X524190Y408487D02*
G01*
X467008Y408487D01*
X467008Y367872D01*
X524190Y330470D02*
G01*
X524190Y366329D01*
X464969Y217593D02*
G01*
X464969Y189324D01*
X504229Y189324D01*
X504229Y217593D01*
X464969Y235405D02*
G01*
X464969Y263674D01*
X504229Y263674D01*
X504229Y235405D01*
X568805Y160270D02*
G01*
X597074Y160270D01*
X597074Y199529D01*
X568805Y199529D01*
X550993Y160270D02*
G01*
X522724Y160270D01*
X522724Y199529D01*
X550993Y199529D01*
X119629Y-236093D02*
G01*
X119629Y-207824D01*
X80369Y-207824D01*
X80369Y-236093D01*
X119629Y-253906D02*
G01*
X119629Y-282175D01*
X80369Y-282175D01*
X80369Y-253906D01*
X168269Y-255306D02*
G01*
X168269Y-283575D01*
X207529Y-283575D01*
X207529Y-255306D01*
X168269Y-237494D02*
G01*
X168269Y-209225D01*
X207529Y-209225D01*
X207529Y-237494D01*
X809793Y423629D02*
G01*
X781524Y423629D01*
X781524Y384369D01*
X809793Y384369D01*
X827605Y423629D02*
G01*
X855874Y423629D01*
X855874Y384369D01*
X827605Y384369D01*
X910756Y-405378D02*
G01*
X892822Y-405378D01*
X892822Y-374621D01*
X910756Y-374621D01*
X923842Y-405378D02*
G01*
X941776Y-405378D01*
X941776Y-374621D01*
X923842Y-374621D01*
D11*
X767023Y677874D02*
G01*
X767023Y632842D01*
X767023Y475000D02*
G01*
X685573Y475000D01*
X767023Y507377D02*
G01*
X767023Y475000D01*
X357576Y507377D02*
G01*
X357576Y475630D01*
X439027Y475630D01*
X357576Y677874D02*
G01*
X357576Y632842D01*
X357576Y677874D02*
G01*
X767023Y677874D01*
D72*
X566929Y-64987D02*
G01*
X566929Y-96093D01*
X527669Y-96093D02*
G01*
X527669Y-64987D01*
X533669Y-58987D02*
G01*
X560929Y-58987D01*
X566929Y-145012D02*
G01*
X566929Y-113906D01*
X527669Y-113906D02*
G01*
X527669Y-145012D01*
X533669Y-151012D02*
G01*
X560929Y-151012D01*
X541929Y-324987D02*
G01*
X541929Y-356093D01*
X502669Y-356093D02*
G01*
X502669Y-324987D01*
X508669Y-318987D02*
G01*
X535929Y-318987D01*
X541929Y-405012D02*
G01*
X541929Y-373906D01*
X502669Y-373906D02*
G01*
X502669Y-405012D01*
X508669Y-411012D02*
G01*
X535929Y-411012D01*
X82287Y129630D02*
G01*
X113393Y129630D01*
X113393Y90369D02*
G01*
X82287Y90369D01*
X76287Y96370D02*
G01*
X76287Y123629D01*
X162311Y129630D02*
G01*
X131205Y129630D01*
X131205Y90369D02*
G01*
X162311Y90369D01*
X168311Y96370D02*
G01*
X168311Y123629D01*
X-17712Y89630D02*
G01*
X13393Y89630D01*
X13393Y50369D02*
G01*
X-17712Y50369D01*
X-23712Y56370D02*
G01*
X-23712Y83629D01*
X62311Y89630D02*
G01*
X31205Y89630D01*
X31205Y50369D02*
G01*
X62311Y50369D01*
X68311Y56370D02*
G01*
X68311Y83629D01*
X-13070Y-9987D02*
G01*
X-13070Y-41093D01*
X-52330Y-41093D02*
G01*
X-52330Y-9987D01*
X-46330Y-3987D02*
G01*
X-19070Y-3987D01*
X-13070Y-90012D02*
G01*
X-13070Y-58906D01*
X-52330Y-58906D02*
G01*
X-52330Y-90012D01*
X-46330Y-96012D02*
G01*
X-19070Y-96012D01*
X240369Y144987D02*
G01*
X240369Y176093D01*
X279629Y176093D02*
G01*
X279629Y144987D01*
X273629Y138987D02*
G01*
X246369Y138987D01*
X240369Y225012D02*
G01*
X240369Y193906D01*
X279629Y193906D02*
G01*
X279629Y225012D01*
X273629Y231012D02*
G01*
X246369Y231012D01*
X34429Y-201988D02*
G01*
X34429Y-233094D01*
X-4830Y-233094D02*
G01*
X-4830Y-201988D01*
X1169Y-195988D02*
G01*
X28429Y-195988D01*
X34429Y-282011D02*
G01*
X34429Y-250905D01*
X-4830Y-250905D02*
G01*
X-4830Y-282011D01*
X1169Y-288011D02*
G01*
X28429Y-288011D01*
X965011Y-54630D02*
G01*
X933905Y-54630D01*
X933905Y-15369D02*
G01*
X965011Y-15369D01*
X971011Y-21370D02*
G01*
X971011Y-48629D01*
X884987Y-54630D02*
G01*
X916093Y-54630D01*
X916093Y-15369D02*
G01*
X884987Y-15369D01*
X878987Y-21370D02*
G01*
X878987Y-48629D01*
X1167287Y29630D02*
G01*
X1198393Y29630D01*
X1198393Y-9630D02*
G01*
X1167287Y-9630D01*
X1161287Y-3629D02*
G01*
X1161287Y23629D01*
X1247311Y29630D02*
G01*
X1216205Y29630D01*
X1216205Y-9630D02*
G01*
X1247311Y-9630D01*
X1253311Y-3629D02*
G01*
X1253311Y23629D01*
X302287Y-40369D02*
G01*
X333393Y-40369D01*
X333393Y-79630D02*
G01*
X302287Y-79630D01*
X296287Y-73629D02*
G01*
X296287Y-46370D01*
X382311Y-40369D02*
G01*
X351205Y-40369D01*
X351205Y-79630D02*
G01*
X382311Y-79630D01*
X388311Y-73629D02*
G01*
X388311Y-46370D01*
X307287Y-120369D02*
G01*
X338393Y-120369D01*
X338393Y-159630D02*
G01*
X307287Y-159630D01*
X301287Y-153629D02*
G01*
X301287Y-126370D01*
X387311Y-120369D02*
G01*
X356205Y-120369D01*
X356205Y-159630D02*
G01*
X387311Y-159630D01*
X393311Y-153629D02*
G01*
X393311Y-126370D01*
X759405Y-237330D02*
G01*
X787674Y-237330D01*
X787674Y-198069D01*
X759405Y-198069D01*
X741593Y-237330D02*
G01*
X713324Y-237330D01*
X713324Y-198069D01*
X741593Y-198069D01*
X242677Y98456D02*
G01*
X242677Y83951D01*
X236677Y77950D01*
X217921Y77950D01*
X211921Y83951D01*
X211921Y98456D01*
X242677Y111543D02*
G01*
X242677Y126048D01*
X236677Y132049D01*
X217921Y132049D01*
X211921Y126048D01*
X211921Y111543D01*
X923393Y-440369D02*
G01*
X895124Y-440369D01*
X895124Y-479630D01*
X923393Y-479630D01*
X941205Y-440369D02*
G01*
X969474Y-440369D01*
X969474Y-479630D01*
X941205Y-479630D01*
D74*
X-38645Y-125309D02*
G01*
X-38645Y-164679D01*
X-6755Y-125309D02*
G01*
X-6755Y-164679D01*
D73*
X845036Y-388676D02*
G01*
X845036Y-388287D01*
X832042Y-375291D01*
X818262Y-388676D02*
G01*
X818656Y-388676D01*
X832042Y-375291D01*
X818262Y-388676D02*
G01*
X845036Y-388676D01*
X802513Y-389466D02*
G01*
X802513Y-434744D01*
X861573Y-389466D02*
G01*
X861573Y-434744D01*
X802515Y-434744D02*
G01*
X860782Y-434744D01*
X861663Y-374504D02*
G01*
X861663Y-333162D01*
X845911Y-321352D02*
G01*
X849849Y-321352D01*
X861663Y-333162D01*
X818355Y-321352D02*
G01*
X845911Y-321352D01*
X818355Y-321352D02*
G01*
X814412Y-321352D01*
X802603Y-333162D01*
X802603Y-374504D02*
G01*
X802603Y-333162D01*
X832042Y-388676D02*
G01*
X832042Y-375291D01*
D72*
X661808Y-248112D02*
G01*
X718990Y-248112D01*
X718990Y-288728D01*
X661808Y-368287D02*
G01*
X718990Y-368287D01*
X718990Y-327671D01*
X661808Y-290270D02*
G01*
X661808Y-326129D01*
X796193Y-148170D02*
G01*
X767924Y-148170D01*
X767924Y-187429D01*
X796193Y-187429D01*
X814005Y-148170D02*
G01*
X842274Y-148170D01*
X842274Y-187429D01*
X814005Y-187429D01*
X501205Y-24630D02*
G01*
X529474Y-24630D01*
X529474Y14630D01*
X501205Y14630D01*
X483393Y-24630D02*
G01*
X455124Y-24630D01*
X455124Y14630D01*
X483393Y14630D01*
X497669Y66093D02*
G01*
X497669Y37824D01*
X536929Y37824D01*
X536929Y66093D01*
X497669Y83906D02*
G01*
X497669Y112175D01*
X536929Y112175D01*
X536929Y83906D01*
X1103393Y-140369D02*
G01*
X1075124Y-140369D01*
X1075124Y-179630D01*
X1103393Y-179630D01*
X1121205Y-140369D02*
G01*
X1149474Y-140369D01*
X1149474Y-179630D01*
X1121205Y-179630D01*
D11*
X45242Y318231D02*
G01*
X41084Y318231D01*
X-16485Y318231D02*
G01*
X-20643Y318231D01*
D72*
X74523Y36424D02*
G01*
X55874Y36424D01*
X55874Y17775D01*
X74523Y-166424D02*
G01*
X55874Y-166424D01*
X55874Y-147775D01*
X240075Y36424D02*
G01*
X258724Y36424D01*
X258724Y17775D01*
X240075Y-166424D02*
G01*
X258724Y-166424D01*
X258724Y-147775D01*
D11*
X1063319Y-335432D02*
G01*
X1063319Y-264565D01*
X941271Y-335432D02*
G01*
X941271Y-264565D01*
D72*
X82287Y179630D02*
G01*
X113393Y179630D01*
X113393Y140369D02*
G01*
X82287Y140369D01*
X76287Y146370D02*
G01*
X76287Y173629D01*
X162311Y179630D02*
G01*
X131205Y179630D01*
X131205Y140369D02*
G01*
X162311Y140369D01*
X168311Y146370D02*
G01*
X168311Y173629D01*
X-68070Y-4987D02*
G01*
X-68070Y-36093D01*
X-107330Y-36093D02*
G01*
X-107330Y-4987D01*
X-101330Y1012D02*
G01*
X-74070Y1012D01*
X-68070Y-85012D02*
G01*
X-68070Y-53906D01*
X-107330Y-53906D02*
G01*
X-107330Y-85012D01*
X-101330Y-91012D02*
G01*
X-74070Y-91012D01*
X-8078Y151543D02*
G01*
X-8078Y166048D01*
X-2078Y172049D01*
X16677Y172049D01*
X22677Y166048D01*
X22677Y151543D01*
X-8078Y138456D02*
G01*
X-8078Y123951D01*
X-2078Y117950D01*
X16677Y117950D01*
X22677Y123951D01*
X22677Y138456D01*
D11*
X803009Y-80390D02*
G01*
X803009Y120399D01*
X803009Y120390D02*
G01*
X641589Y120390D01*
X641589Y120390D02*
G01*
X641589Y-80399D01*
X753799Y-80390D02*
G01*
X803009Y-80390D01*
X690799Y-80390D02*
G01*
X641589Y-80390D01*
D72*
X840706Y504169D02*
G01*
X868974Y504169D01*
X868974Y543429D01*
X840706Y543429D01*
X822893Y504169D02*
G01*
X794624Y504169D01*
X794624Y543429D01*
X822893Y543429D01*
D11*
X743284Y-816770D02*
G01*
X743284Y-560859D01*
X391314Y-560859D01*
X391314Y-816770D01*
X743284Y-816770D01*
X767304Y-742719D02*
G01*
X767304Y-722719D01*
X747304Y-722719D01*
X747304Y-742719D01*
X767304Y-742719D01*
X387304Y-742710D02*
G01*
X387304Y-722710D01*
X367304Y-722710D01*
X367304Y-742710D01*
X387304Y-742710D01*
X387304Y-583710D02*
G01*
X387304Y-563710D01*
X367304Y-563710D01*
X367304Y-583710D01*
X387304Y-583710D01*
X767304Y-583710D02*
G01*
X767304Y-563710D01*
X747304Y-563710D01*
X747304Y-583710D01*
X767304Y-583710D01*
X667304Y-632719D02*
G01*
X667304Y-582719D01*
X607304Y-582719D01*
X607304Y-632719D01*
X667304Y-632719D01*
X527304Y-632719D02*
G01*
X527304Y-582719D01*
X467304Y-582719D01*
X467304Y-632719D01*
X527304Y-632719D01*
D72*
X164629Y533906D02*
G01*
X164629Y562175D01*
X125369Y562175D01*
X125369Y533906D01*
X164629Y516093D02*
G01*
X164629Y487824D01*
X125369Y487824D01*
X125369Y516093D01*
X304629Y528906D02*
G01*
X304629Y557175D01*
X265369Y557175D01*
X265369Y528906D01*
X304629Y511093D02*
G01*
X304629Y482824D01*
X265369Y482824D01*
X265369Y511093D01*
X239629Y558906D02*
G01*
X239629Y587175D01*
X200369Y587175D01*
X200369Y558906D01*
X239629Y541093D02*
G01*
X239629Y512824D01*
X200369Y512824D01*
X200369Y541093D01*
X-103030Y40088D02*
G01*
X-103030Y71194D01*
X-63770Y71194D02*
G01*
X-63770Y40088D01*
X-69770Y34088D02*
G01*
X-97030Y34088D01*
X-103030Y120111D02*
G01*
X-103030Y89005D01*
X-63770Y89005D02*
G01*
X-63770Y120111D01*
X-69770Y126111D02*
G01*
X-97030Y126111D01*
X682669Y322094D02*
G01*
X682669Y293825D01*
X721929Y293825D01*
X721929Y322094D01*
X682669Y339906D02*
G01*
X682669Y368175D01*
X721929Y368175D01*
X721929Y339906D01*
X621269Y320194D02*
G01*
X621269Y291925D01*
X660529Y291925D01*
X660529Y320194D01*
X621269Y338006D02*
G01*
X621269Y366275D01*
X660529Y366275D01*
X660529Y338006D01*
X360593Y395430D02*
G01*
X332324Y395430D01*
X332324Y356170D01*
X360593Y356170D01*
X378405Y395430D02*
G01*
X406674Y395430D01*
X406674Y356170D01*
X378405Y356170D01*
X181205Y-384130D02*
G01*
X209474Y-384130D01*
X209474Y-344870D01*
X181205Y-344870D01*
X163393Y-384130D02*
G01*
X135124Y-384130D01*
X135124Y-344870D01*
X163393Y-344870D01*
X176729Y-439493D02*
G01*
X176729Y-411224D01*
X137469Y-411224D01*
X137469Y-439493D01*
X176729Y-457305D02*
G01*
X176729Y-485574D01*
X137469Y-485574D01*
X137469Y-457305D01*
G75*
G01*
X331430Y-712D02*
G02*
X325430Y-6712I-6000J0D01*
G75*
G01*
X298170Y-6712D02*
G02*
X292170Y-712I0J6000D01*
G75*
G01*
X331430Y79312D02*
G03*
X325430Y85312I-6000J0D01*
G75*
G01*
X298170Y85312D02*
G03*
X292170Y79312I0J-6000D01*
G75*
G01*
X527670Y-64988D02*
G02*
X533670Y-58988I6000J0D01*
G75*
G01*
X560930Y-58988D02*
G02*
X566930Y-64988I0J-6000D01*
G75*
G01*
X527670Y-145012D02*
G03*
X533670Y-151012I6000J0D01*
G75*
G01*
X560930Y-151012D02*
G03*
X566930Y-145012I0J6000D01*
G75*
G01*
X502670Y-324988D02*
G02*
X508670Y-318988I6000J0D01*
G75*
G01*
X535930Y-318988D02*
G02*
X541930Y-324988I0J-6000D01*
G75*
G01*
X502670Y-405012D02*
G03*
X508670Y-411012I6000J0D01*
G75*
G01*
X535930Y-411012D02*
G03*
X541930Y-405012I0J6000D01*
G75*
G01*
X82288Y90370D02*
G02*
X76288Y96370I0J6000D01*
G75*
G01*
X76288Y123630D02*
G02*
X82288Y129630I6000J0D01*
G75*
G01*
X162312Y90370D02*
G03*
X168312Y96370I0J6000D01*
G75*
G01*
X168312Y123630D02*
G03*
X162312Y129630I-6000J0D01*
G75*
G01*
X-17712Y50370D02*
G02*
X-23712Y56370I0J6000D01*
G75*
G01*
X-23712Y83630D02*
G02*
X-17712Y89630I6000J0D01*
G75*
G01*
X62312Y50370D02*
G03*
X68312Y56370I0J6000D01*
G75*
G01*
X68312Y83630D02*
G03*
X62312Y89630I-6000J0D01*
G75*
G01*
X-52330Y-9988D02*
G02*
X-46330Y-3988I6000J0D01*
G75*
G01*
X-19070Y-3988D02*
G02*
X-13070Y-9988I0J-6000D01*
G75*
G01*
X-52330Y-90012D02*
G03*
X-46330Y-96012I6000J0D01*
G75*
G01*
X-19070Y-96012D02*
G03*
X-13070Y-90012I0J6000D01*
G75*
G01*
X279630Y144988D02*
G02*
X273630Y138988I-6000J0D01*
G75*
G01*
X246370Y138988D02*
G02*
X240370Y144988I0J6000D01*
G75*
G01*
X279630Y225012D02*
G03*
X273630Y231012I-6000J0D01*
G75*
G01*
X246370Y231012D02*
G03*
X240370Y225012I0J-6000D01*
G75*
G01*
X-4830Y-201988D02*
G02*
X1170Y-195988I6000J0D01*
G75*
G01*
X28430Y-195988D02*
G02*
X34430Y-201988I0J-6000D01*
G75*
G01*
X-4830Y-282012D02*
G03*
X1170Y-288012I6000J0D01*
G75*
G01*
X28430Y-288012D02*
G03*
X34430Y-282012I0J6000D01*
G75*
G01*
X965012Y-15370D02*
G02*
X971012Y-21370I0J-6000D01*
G75*
G01*
X971012Y-48630D02*
G02*
X965012Y-54630I-6000J0D01*
G75*
G01*
X884988Y-15370D02*
G03*
X878988Y-21370I0J-6000D01*
G75*
G01*
X878988Y-48630D02*
G03*
X884988Y-54630I6000J0D01*
G75*
G01*
X1167288Y-9630D02*
G02*
X1161288Y-3630I0J6000D01*
G75*
G01*
X1161288Y23630D02*
G02*
X1167288Y29630I6000J0D01*
G75*
G01*
X1247312Y-9630D02*
G03*
X1253312Y-3630I0J6000D01*
G75*
G01*
X1253312Y23630D02*
G03*
X1247312Y29630I-6000J0D01*
G75*
G01*
X302288Y-79630D02*
G02*
X296288Y-73630I0J6000D01*
G75*
G01*
X296288Y-46370D02*
G02*
X302288Y-40370I6000J0D01*
G75*
G01*
X382312Y-79630D02*
G03*
X388312Y-73630I0J6000D01*
G75*
G01*
X388312Y-46370D02*
G03*
X382312Y-40370I-6000J0D01*
G75*
G01*
X307288Y-159630D02*
G02*
X301288Y-153630I0J6000D01*
G75*
G01*
X301288Y-126370D02*
G02*
X307288Y-120370I6000J0D01*
G75*
G01*
X387312Y-159630D02*
G03*
X393312Y-153630I0J6000D01*
G75*
G01*
X393312Y-126370D02*
G03*
X387312Y-120370I-6000J0D01*
G75*
G01*
X82288Y140370D02*
G02*
X76288Y146370I0J6000D01*
G75*
G01*
X76288Y173630D02*
G02*
X82288Y179630I6000J0D01*
G75*
G01*
X162312Y140370D02*
G03*
X168312Y146370I0J6000D01*
G75*
G01*
X168312Y173630D02*
G03*
X162312Y179630I-6000J0D01*
G75*
G01*
X-107330Y-4988D02*
G02*
X-101330Y1012I6000J0D01*
G75*
G01*
X-74070Y1012D02*
G02*
X-68070Y-4988I0J-6000D01*
G75*
G01*
X-107330Y-85012D02*
G03*
X-101330Y-91012I6000J0D01*
G75*
G01*
X-74070Y-91012D02*
G03*
X-68070Y-85012I0J6000D01*
D11*
G75*
G01*
X753800Y-78420D02*
G03*
X690800Y-78420I-31500J-14775D01*
D72*
G75*
G01*
X-63770Y40088D02*
G02*
X-69770Y34088I-6000J0D01*
G75*
G01*
X-97030Y34088D02*
G02*
X-103030Y40088I0J6000D01*
G75*
G01*
X-63770Y120112D02*
G03*
X-69770Y126112I-6000J0D01*
G75*
G01*
X-97030Y126112D02*
G03*
X-103030Y120112I0J-6000D01*
D11*
G75*
G01
X330000Y210010D02*
G03X330000Y210010I-5000J0D01*
G75*
G01
X436320Y450000D02*
G03X436320Y450000I-5000J0D01*
G75*
G01
X39860Y269020D02*
G03X39860Y269020I-27560J0D01*
G75*
G01
X21100Y267050D02*
G03X21100Y267050I-8800J0D01*
D73*
G75*
G01
X279940Y5870D02*
G03X279940Y5870I-2950J0D01*
D11*
G75*
G01
X942300Y-245000D02*
G03X942300Y-245000I-5000J0D01*
G75*
G01
X630570Y-99290D02*
G03X630570Y-99290I-6700J0D01*
G75*
G01
X735210Y-532720D02*
G03X735210Y-532720I-7910J0D01*
M02*
