G04 Layer: TopPasteMaskLayer*
G04 EasyEDA v6.4.31, 2022-02-15 11:42:09*
G04 cf861d6554b0406c859822548a314204,c17a8ced473b4d519dda31697e0e54b6,10*
G04 Gerber Generator version 0.2*
G04 Scale: 100 percent, Rotated: No, Reflected: No *
G04 Dimensions in inches *
G04 leading zeros omitted , absolute positions ,3 integer and 6 decimal *
%FSLAX36Y36*%
%MOIN*%

%ADD25R,0.0315X0.0158*%
%ADD28R,0.0236X0.0098*%
%ADD29R,0.0098X0.0236*%
%ADD32R,0.0118X0.0512*%
%ADD37R,0.0685X0.0280*%

%LPD*%
G36*
X1005699Y405640D02*
G01*
X1004120Y404060D01*
X1004120Y385940D01*
X1005699Y384360D01*
X1025400Y384360D01*
X1026979Y385940D01*
X1026979Y404060D01*
X1025400Y405640D01*
G37*
G36*
X1039180Y405640D02*
G01*
X1037620Y404060D01*
X1037620Y385940D01*
X1039180Y384360D01*
X1058900Y384360D01*
X1060480Y385940D01*
X1060480Y404060D01*
X1058900Y405640D01*
G37*
G36*
X1043240Y284680D02*
G01*
X1041660Y283120D01*
X1041660Y263400D01*
X1043240Y261820D01*
X1061360Y261820D01*
X1062920Y263400D01*
X1062920Y283120D01*
X1061360Y284680D01*
G37*
G36*
X1043240Y318180D02*
G01*
X1041660Y316600D01*
X1041660Y296880D01*
X1043240Y295320D01*
X1061360Y295320D01*
X1062920Y296880D01*
X1062920Y316600D01*
X1061360Y318180D01*
G37*
G36*
X121780Y331040D02*
G01*
X120220Y329460D01*
X120220Y311340D01*
X121780Y309760D01*
X141500Y309760D01*
X143080Y311340D01*
X143080Y329460D01*
X141500Y331040D01*
G37*
G36*
X88300Y331040D02*
G01*
X86720Y329460D01*
X86720Y311340D01*
X88300Y309760D01*
X108000Y309760D01*
X109580Y311340D01*
X109580Y329460D01*
X108000Y331040D01*
G37*
G36*
X122780Y421719D02*
G01*
X121220Y420160D01*
X121220Y402040D01*
X122780Y400480D01*
X142500Y400480D01*
X144080Y402040D01*
X144080Y420160D01*
X142500Y421719D01*
G37*
G36*
X89300Y421719D02*
G01*
X87720Y420160D01*
X87720Y402040D01*
X89300Y400480D01*
X109000Y400480D01*
X110580Y402040D01*
X110580Y420160D01*
X109000Y421719D01*
G37*
G36*
X193380Y-118960D02*
G01*
X191820Y-120540D01*
X191820Y-138660D01*
X193380Y-140240D01*
X213100Y-140240D01*
X214680Y-138660D01*
X214680Y-120540D01*
X213100Y-118960D01*
G37*
G36*
X159900Y-118960D02*
G01*
X158320Y-120540D01*
X158320Y-138660D01*
X159900Y-140240D01*
X179600Y-140240D01*
X181180Y-138660D01*
X181180Y-120540D01*
X179600Y-118960D01*
G37*
G36*
X226140Y383120D02*
G01*
X224180Y381140D01*
X224180Y362239D01*
X226140Y359480D01*
X243860Y359480D01*
X245820Y362239D01*
X245820Y381140D01*
X243860Y383120D01*
G37*
G36*
X226140Y345319D02*
G01*
X224180Y342560D01*
X224180Y323660D01*
X226140Y321700D01*
X243860Y321700D01*
X245820Y323660D01*
X245820Y342560D01*
X243860Y345319D01*
G37*
G36*
X449180Y-389360D02*
G01*
X447620Y-390940D01*
X447620Y-409060D01*
X449180Y-410640D01*
X468900Y-410640D01*
X470480Y-409060D01*
X470480Y-390940D01*
X468900Y-389360D01*
G37*
G36*
X415700Y-389360D02*
G01*
X414120Y-390940D01*
X414120Y-409060D01*
X415700Y-410640D01*
X435400Y-410640D01*
X436980Y-409060D01*
X436980Y-390940D01*
X435400Y-389360D01*
G37*
G36*
X870699Y-484360D02*
G01*
X869120Y-485940D01*
X869120Y-504060D01*
X870699Y-505640D01*
X890400Y-505640D01*
X891979Y-504060D01*
X891979Y-485940D01*
X890400Y-484360D01*
G37*
G36*
X904180Y-484360D02*
G01*
X902620Y-485940D01*
X902620Y-504060D01*
X904180Y-505640D01*
X923900Y-505640D01*
X925480Y-504060D01*
X925480Y-485940D01*
X923900Y-484360D01*
G37*
G36*
X936140Y502920D02*
G01*
X934180Y500160D01*
X934180Y481260D01*
X936140Y479300D01*
X953860Y479300D01*
X955819Y481260D01*
X955819Y500160D01*
X953860Y502920D01*
G37*
G36*
X936140Y540700D02*
G01*
X934180Y538740D01*
X934180Y519840D01*
X936140Y517080D01*
X953860Y517080D01*
X955819Y519840D01*
X955819Y538740D01*
X953860Y540700D01*
G37*
G36*
X538440Y-329300D02*
G01*
X536480Y-331260D01*
X536480Y-350160D01*
X538440Y-352920D01*
X556160Y-352920D01*
X558120Y-350160D01*
X558120Y-331260D01*
X556160Y-329300D01*
G37*
G36*
X538440Y-367080D02*
G01*
X536480Y-369840D01*
X536480Y-388740D01*
X538440Y-390700D01*
X556160Y-390700D01*
X558120Y-388740D01*
X558120Y-369840D01*
X556160Y-367080D01*
G37*
G36*
X138140Y107820D02*
G01*
X135380Y105860D01*
X135380Y88140D01*
X138140Y86180D01*
X157040Y86180D01*
X159000Y88140D01*
X159000Y105860D01*
X157040Y107820D01*
G37*
G36*
X99560Y107820D02*
G01*
X97600Y105860D01*
X97600Y88140D01*
X99560Y86180D01*
X118460Y86180D01*
X121220Y88140D01*
X121220Y105860D01*
X118460Y107820D01*
G37*
G36*
X90440Y197920D02*
G01*
X88480Y195159D01*
X88480Y176260D01*
X90440Y174300D01*
X108160Y174300D01*
X110120Y176260D01*
X110120Y195159D01*
X108160Y197920D01*
G37*
G36*
X90440Y235700D02*
G01*
X88480Y233740D01*
X88480Y214840D01*
X90440Y212079D01*
X108160Y212079D01*
X110120Y214840D01*
X110120Y233740D01*
X108160Y235700D01*
G37*
G36*
X1123240Y-270320D02*
G01*
X1121660Y-271880D01*
X1121660Y-291600D01*
X1123240Y-293180D01*
X1141360Y-293180D01*
X1142920Y-291600D01*
X1142920Y-271880D01*
X1141360Y-270320D01*
G37*
G36*
X1123240Y-236820D02*
G01*
X1121660Y-238400D01*
X1121660Y-258120D01*
X1123240Y-259680D01*
X1141360Y-259680D01*
X1142920Y-258120D01*
X1142920Y-238400D01*
X1141360Y-236820D01*
G37*
G36*
X-41760Y363180D02*
G01*
X-43339Y361599D01*
X-43339Y341880D01*
X-41760Y340319D01*
X-23640Y340319D01*
X-22080Y341880D01*
X-22080Y361599D01*
X-23640Y363180D01*
G37*
G36*
X-41760Y329680D02*
G01*
X-43339Y328120D01*
X-43339Y308400D01*
X-41760Y306820D01*
X-23640Y306820D01*
X-22080Y308400D01*
X-22080Y328120D01*
X-23640Y329680D01*
G37*
G36*
X1127140Y220820D02*
G01*
X1124380Y218860D01*
X1124380Y201140D01*
X1127140Y199180D01*
X1146040Y199180D01*
X1148000Y201140D01*
X1148000Y218860D01*
X1146040Y220820D01*
G37*
G36*
X1088560Y220820D02*
G01*
X1086600Y218860D01*
X1086600Y201140D01*
X1088560Y199180D01*
X1107460Y199180D01*
X1110220Y201140D01*
X1110220Y218860D01*
X1107460Y220820D01*
G37*
G36*
X1127140Y135820D02*
G01*
X1124380Y133860D01*
X1124380Y116140D01*
X1127140Y114179D01*
X1146040Y114179D01*
X1148000Y116140D01*
X1148000Y133860D01*
X1146040Y135820D01*
G37*
G36*
X1088560Y135820D02*
G01*
X1086600Y133860D01*
X1086600Y116140D01*
X1088560Y114179D01*
X1107460Y114179D01*
X1110220Y116140D01*
X1110220Y133860D01*
X1107460Y135820D01*
G37*
G36*
X1167140Y340820D02*
G01*
X1164380Y338860D01*
X1164380Y321140D01*
X1167140Y319180D01*
X1186040Y319180D01*
X1188000Y321140D01*
X1188000Y338860D01*
X1186040Y340820D01*
G37*
G36*
X1128560Y340820D02*
G01*
X1126600Y338860D01*
X1126600Y321140D01*
X1128560Y319180D01*
X1147460Y319180D01*
X1150220Y321140D01*
X1150220Y338860D01*
X1147460Y340820D01*
G37*
G36*
X1013240Y494680D02*
G01*
X1011660Y493120D01*
X1011660Y473400D01*
X1013240Y471820D01*
X1031360Y471820D01*
X1032920Y473400D01*
X1032920Y493120D01*
X1031360Y494680D01*
G37*
G36*
X1013240Y528180D02*
G01*
X1011660Y526600D01*
X1011660Y506880D01*
X1013240Y505319D01*
X1031360Y505319D01*
X1032920Y506880D01*
X1032920Y526600D01*
X1031360Y528180D01*
G37*
G36*
X1063240Y-125320D02*
G01*
X1061660Y-126880D01*
X1061660Y-146600D01*
X1063240Y-148180D01*
X1081360Y-148180D01*
X1082920Y-146600D01*
X1082920Y-126880D01*
X1081360Y-125320D01*
G37*
G36*
X1063240Y-91820D02*
G01*
X1061660Y-93400D01*
X1061660Y-113120D01*
X1063240Y-114680D01*
X1081360Y-114680D01*
X1082920Y-113120D01*
X1082920Y-93400D01*
X1081360Y-91820D01*
G37*
G36*
X1123240Y-91820D02*
G01*
X1121660Y-93400D01*
X1121660Y-113120D01*
X1123240Y-114680D01*
X1141360Y-114680D01*
X1142920Y-113120D01*
X1142920Y-93400D01*
X1141360Y-91820D01*
G37*
G36*
X1123240Y-125320D02*
G01*
X1121660Y-126880D01*
X1121660Y-146600D01*
X1123240Y-148180D01*
X1141360Y-148180D01*
X1142920Y-146600D01*
X1142920Y-126880D01*
X1141360Y-125320D01*
G37*
G36*
X1117020Y396820D02*
G01*
X1116240Y396019D01*
X1116240Y389720D01*
X1117020Y388940D01*
X1123320Y388940D01*
X1124100Y389720D01*
X1124100Y396019D01*
X1123320Y396820D01*
G37*
G36*
X1117020Y381060D02*
G01*
X1116240Y380280D01*
X1116240Y373980D01*
X1117020Y373180D01*
X1123320Y373180D01*
X1124100Y373980D01*
X1124100Y380280D01*
X1123320Y381060D01*
G37*
G36*
X1101280Y396820D02*
G01*
X1100480Y396019D01*
X1100480Y389720D01*
X1101280Y388940D01*
X1107580Y388940D01*
X1108360Y389720D01*
X1108360Y396019D01*
X1107580Y396820D01*
G37*
G36*
X1101280Y381060D02*
G01*
X1100480Y380280D01*
X1100480Y373980D01*
X1101280Y373180D01*
X1107580Y373180D01*
X1108360Y373980D01*
X1108360Y380280D01*
X1107580Y381060D01*
G37*
G36*
X21740Y-120520D02*
G01*
X20160Y-122100D01*
X20160Y-141820D01*
X21740Y-143380D01*
X39860Y-143380D01*
X41420Y-141820D01*
X41420Y-122100D01*
X39860Y-120520D01*
G37*
G36*
X21740Y-154020D02*
G01*
X20160Y-155600D01*
X20160Y-175300D01*
X21740Y-176880D01*
X39860Y-176880D01*
X41420Y-175300D01*
X41420Y-155600D01*
X39860Y-154020D01*
G37*
G36*
X78740Y-120820D02*
G01*
X77160Y-122400D01*
X77160Y-142100D01*
X78740Y-143680D01*
X96860Y-143680D01*
X98420Y-142100D01*
X98420Y-122400D01*
X96860Y-120820D01*
G37*
G36*
X78740Y-154320D02*
G01*
X77160Y-155880D01*
X77160Y-175600D01*
X78740Y-177180D01*
X96860Y-177180D01*
X98420Y-175600D01*
X98420Y-155880D01*
X96860Y-154320D01*
G37*
G36*
X-44260Y-88620D02*
G01*
X-45839Y-90200D01*
X-45839Y-109900D01*
X-44260Y-111480D01*
X-26140Y-111480D01*
X-24580Y-109900D01*
X-24580Y-90200D01*
X-26140Y-88620D01*
G37*
G36*
X-44260Y-122120D02*
G01*
X-45839Y-123699D01*
X-45839Y-143400D01*
X-44260Y-144980D01*
X-26140Y-144980D01*
X-24580Y-143400D01*
X-24580Y-123699D01*
X-26140Y-122120D01*
G37*
G36*
X287040Y-346380D02*
G01*
X284280Y-348340D01*
X284280Y-366060D01*
X287040Y-368020D01*
X305940Y-368020D01*
X307900Y-366060D01*
X307900Y-348340D01*
X305940Y-346380D01*
G37*
G36*
X248460Y-346380D02*
G01*
X246500Y-348340D01*
X246500Y-366060D01*
X248460Y-368020D01*
X267360Y-368020D01*
X270120Y-366060D01*
X270120Y-348340D01*
X267360Y-346380D01*
G37*
G36*
X287340Y-402180D02*
G01*
X284580Y-404140D01*
X284580Y-421860D01*
X287340Y-423820D01*
X306240Y-423820D01*
X308200Y-421860D01*
X308200Y-404140D01*
X306240Y-402180D01*
G37*
G36*
X248760Y-402180D02*
G01*
X246800Y-404140D01*
X246800Y-421860D01*
X248760Y-423820D01*
X267660Y-423820D01*
X270420Y-421860D01*
X270420Y-404140D01*
X267660Y-402180D01*
G37*
D25*
G01*
X-110000Y25000D03*
G01*
X-90000Y-45000D03*
G01*
X291499Y-250199D03*
G01*
X307399Y-293699D03*
G01*
X50499Y352500D03*
G01*
X50999Y421999D03*
G01*
X140000Y565000D03*
G01*
X90000Y535000D03*
D28*
G01*
X95949Y-250030D03*
G01*
X95949Y-269720D03*
G01*
X95949Y-289400D03*
G01*
X95949Y-309090D03*
D29*
G01*
X125549Y-338550D03*
G01*
X145239Y-338550D03*
G01*
X164919Y-338550D03*
G01*
X184609Y-338550D03*
D28*
G01*
X214049Y-309029D03*
G01*
X214049Y-289340D03*
G01*
X214049Y-269659D03*
G01*
X214059Y-250030D03*
G36*
X179687Y-208634D02*
G01*
X189529Y-208634D01*
X189529Y-232255D01*
X179687Y-232255D01*
G37*
G36*
X160002Y-208632D02*
G01*
X169844Y-208632D01*
X169844Y-232255D01*
X160002Y-232255D01*
G37*
G36*
X140317Y-208634D02*
G01*
X150159Y-208634D01*
X150159Y-232255D01*
X140317Y-232255D01*
G37*
G36*
X120632Y-208634D02*
G01*
X130474Y-208634D01*
X130474Y-232255D01*
X120632Y-232255D01*
G37*
G36*
X125471Y-249971D02*
G01*
X184527Y-249971D01*
X184527Y-309027D01*
X125471Y-309027D01*
G37*
D32*
G01*
X46669Y252519D03*
G01*
X26989Y252519D03*
G01*
X7309Y252519D03*
G01*
X-12390Y252519D03*
G01*
X-32070Y252519D03*
G01*
X-32060Y67480D03*
G01*
X-12390Y67480D03*
G01*
X7299Y67480D03*
G01*
X26989Y67480D03*
G01*
X46679Y67480D03*
G36*
X300959Y441340D02*
G01*
X332459Y441340D01*
X332459Y409839D01*
X300959Y409839D01*
G37*
G36*
X300959Y-109839D02*
G01*
X332459Y-109839D01*
X332459Y-141340D01*
X300959Y-141340D01*
G37*
G36*
X852139Y441340D02*
G01*
X883639Y441340D01*
X883639Y409839D01*
X852139Y409839D01*
G37*
G36*
X852139Y-109839D02*
G01*
X883639Y-109839D01*
X883639Y-141340D01*
X852139Y-141340D01*
G37*
G36*
X300959Y392125D02*
G01*
X332459Y392125D01*
X332459Y376374D01*
X300959Y376374D01*
G37*
G36*
X300959Y358665D02*
G01*
X332459Y358665D01*
X332459Y342914D01*
X300959Y342914D01*
G37*
G36*
X300959Y325195D02*
G01*
X332459Y325195D01*
X332459Y309445D01*
X300959Y309445D01*
G37*
G36*
X300959Y291734D02*
G01*
X332459Y291734D01*
X332459Y275984D01*
X300959Y275984D01*
G37*
G36*
X300959Y258265D02*
G01*
X332459Y258265D01*
X332459Y242514D01*
X300959Y242514D01*
G37*
G36*
X300959Y224804D02*
G01*
X332459Y224804D01*
X332459Y209054D01*
X300959Y209054D01*
G37*
G36*
X300959Y191334D02*
G01*
X332459Y191334D01*
X332459Y175585D01*
X300959Y175585D01*
G37*
G36*
X300959Y157874D02*
G01*
X332459Y157874D01*
X332459Y142125D01*
X300959Y142125D01*
G37*
G36*
X300959Y124414D02*
G01*
X332459Y124414D01*
X332459Y108665D01*
X300959Y108665D01*
G37*
G36*
X300959Y90945D02*
G01*
X332459Y90945D01*
X332459Y75195D01*
X300959Y75195D01*
G37*
G36*
X300959Y57485D02*
G01*
X332459Y57485D01*
X332459Y41734D01*
X300959Y41734D01*
G37*
G36*
X300959Y24015D02*
G01*
X332459Y24015D01*
X332459Y8265D01*
X300959Y8265D01*
G37*
G36*
X300959Y-9445D02*
G01*
X332459Y-9445D01*
X332459Y-25195D01*
X300959Y-25195D01*
G37*
G36*
X300959Y-42914D02*
G01*
X332459Y-42914D01*
X332459Y-58665D01*
X300959Y-58665D01*
G37*
G36*
X300959Y-76374D02*
G01*
X332459Y-76374D01*
X332459Y-92125D01*
X300959Y-92125D01*
G37*
G36*
X350169Y-109839D02*
G01*
X365919Y-109839D01*
X365919Y-141340D01*
X350169Y-141340D01*
G37*
G36*
X383639Y-109839D02*
G01*
X399389Y-109839D01*
X399389Y-141340D01*
X383639Y-141340D01*
G37*
G36*
X417099Y-109839D02*
G01*
X432849Y-109839D01*
X432849Y-141340D01*
X417099Y-141340D01*
G37*
G36*
X450569Y-109839D02*
G01*
X466319Y-109839D01*
X466319Y-141340D01*
X450569Y-141340D01*
G37*
G36*
X484029Y-109839D02*
G01*
X499779Y-109839D01*
X499779Y-141340D01*
X484029Y-141340D01*
G37*
G36*
X517500Y-109839D02*
G01*
X533239Y-109839D01*
X533239Y-141340D01*
X517500Y-141340D01*
G37*
G36*
X550959Y-109839D02*
G01*
X566709Y-109839D01*
X566709Y-141340D01*
X550959Y-141340D01*
G37*
G36*
X584429Y-109839D02*
G01*
X600169Y-109839D01*
X600169Y-141340D01*
X584429Y-141340D01*
G37*
G36*
X617889Y-109839D02*
G01*
X633639Y-109839D01*
X633639Y-141340D01*
X617889Y-141340D01*
G37*
G36*
X651359Y-109839D02*
G01*
X667099Y-109839D01*
X667099Y-141340D01*
X651359Y-141340D01*
G37*
G36*
X684819Y-109839D02*
G01*
X700569Y-109839D01*
X700569Y-141340D01*
X684819Y-141340D01*
G37*
G36*
X718279Y-109839D02*
G01*
X734029Y-109839D01*
X734029Y-141340D01*
X718279Y-141340D01*
G37*
G36*
X751749Y-109839D02*
G01*
X767500Y-109839D01*
X767500Y-141340D01*
X751749Y-141340D01*
G37*
G36*
X785209Y-109839D02*
G01*
X800959Y-109839D01*
X800959Y-141340D01*
X785209Y-141340D01*
G37*
G36*
X818679Y-109839D02*
G01*
X834429Y-109839D01*
X834429Y-141340D01*
X818679Y-141340D01*
G37*
G36*
X852139Y-76374D02*
G01*
X883639Y-76374D01*
X883639Y-92125D01*
X852139Y-92125D01*
G37*
G36*
X852139Y-42914D02*
G01*
X883639Y-42914D01*
X883639Y-58665D01*
X852139Y-58665D01*
G37*
G36*
X852139Y-9445D02*
G01*
X883639Y-9445D01*
X883639Y-25195D01*
X852139Y-25195D01*
G37*
G36*
X852139Y24015D02*
G01*
X883639Y24015D01*
X883639Y8265D01*
X852139Y8265D01*
G37*
G36*
X852139Y57485D02*
G01*
X883639Y57485D01*
X883639Y41734D01*
X852139Y41734D01*
G37*
G36*
X852139Y90945D02*
G01*
X883639Y90945D01*
X883639Y75195D01*
X852139Y75195D01*
G37*
G36*
X852139Y124414D02*
G01*
X883639Y124414D01*
X883639Y108665D01*
X852139Y108665D01*
G37*
G36*
X852139Y157874D02*
G01*
X883639Y157874D01*
X883639Y142125D01*
X852139Y142125D01*
G37*
G36*
X852139Y191334D02*
G01*
X883639Y191334D01*
X883639Y175585D01*
X852139Y175585D01*
G37*
G36*
X852139Y224804D02*
G01*
X883639Y224804D01*
X883639Y209054D01*
X852139Y209054D01*
G37*
G36*
X852139Y258265D02*
G01*
X883639Y258265D01*
X883639Y242514D01*
X852139Y242514D01*
G37*
G36*
X852139Y291734D02*
G01*
X883639Y291734D01*
X883639Y275984D01*
X852139Y275984D01*
G37*
G36*
X852139Y325195D02*
G01*
X883639Y325195D01*
X883639Y309445D01*
X852139Y309445D01*
G37*
G36*
X852139Y358665D02*
G01*
X883639Y358665D01*
X883639Y342914D01*
X852139Y342914D01*
G37*
G36*
X852139Y392125D02*
G01*
X883639Y392125D01*
X883639Y376374D01*
X852139Y376374D01*
G37*
G36*
X818679Y441340D02*
G01*
X834429Y441340D01*
X834429Y409839D01*
X818679Y409839D01*
G37*
G36*
X785209Y441340D02*
G01*
X800959Y441340D01*
X800959Y409839D01*
X785209Y409839D01*
G37*
G36*
X751749Y441340D02*
G01*
X767500Y441340D01*
X767500Y409839D01*
X751749Y409839D01*
G37*
G36*
X718279Y441340D02*
G01*
X734029Y441340D01*
X734029Y409839D01*
X718279Y409839D01*
G37*
G36*
X684819Y441340D02*
G01*
X700569Y441340D01*
X700569Y409839D01*
X684819Y409839D01*
G37*
G36*
X651359Y441340D02*
G01*
X667099Y441340D01*
X667099Y409839D01*
X651359Y409839D01*
G37*
G36*
X617889Y441340D02*
G01*
X633639Y441340D01*
X633639Y409839D01*
X617889Y409839D01*
G37*
G36*
X584429Y441340D02*
G01*
X600169Y441340D01*
X600169Y409839D01*
X584429Y409839D01*
G37*
G36*
X550959Y441340D02*
G01*
X566709Y441340D01*
X566709Y409839D01*
X550959Y409839D01*
G37*
G36*
X517500Y441340D02*
G01*
X533239Y441340D01*
X533239Y409839D01*
X517500Y409839D01*
G37*
G36*
X484029Y441340D02*
G01*
X499779Y441340D01*
X499779Y409839D01*
X484029Y409839D01*
G37*
G36*
X450569Y441340D02*
G01*
X466319Y441340D01*
X466319Y409839D01*
X450569Y409839D01*
G37*
G36*
X417099Y441340D02*
G01*
X432849Y441340D01*
X432849Y409839D01*
X417099Y409839D01*
G37*
G36*
X383639Y441340D02*
G01*
X399389Y441340D01*
X399389Y409839D01*
X383639Y409839D01*
G37*
G36*
X350169Y441340D02*
G01*
X365919Y441340D01*
X365919Y409839D01*
X350169Y409839D01*
G37*
G36*
X519465Y222834D02*
G01*
X535214Y222834D01*
X535214Y207085D01*
X519465Y207085D01*
G37*
G36*
X568679Y173620D02*
G01*
X615919Y173620D01*
X615919Y126379D01*
X568679Y126379D01*
G37*
G36*
X568679Y238580D02*
G01*
X615919Y238580D01*
X615919Y191340D01*
X568679Y191340D01*
G37*
G36*
X633639Y238580D02*
G01*
X680879Y238580D01*
X680879Y191340D01*
X633639Y191340D01*
G37*
G36*
X633639Y173620D02*
G01*
X680879Y173620D01*
X680879Y126379D01*
X633639Y126379D01*
G37*
G36*
X633639Y108659D02*
G01*
X680879Y108659D01*
X680879Y61419D01*
X633639Y61419D01*
G37*
G36*
X568679Y108659D02*
G01*
X615919Y108659D01*
X615919Y61419D01*
X568679Y61419D01*
G37*
G36*
X503719Y108659D02*
G01*
X550959Y108659D01*
X550959Y61419D01*
X503719Y61419D01*
G37*
G36*
X503719Y173620D02*
G01*
X550959Y173620D01*
X550959Y126379D01*
X503719Y126379D01*
G37*
D37*
G01*
X984589Y-400000D03*
G01*
X984589Y-350000D03*
G01*
X984589Y-300000D03*
G01*
X984589Y-250000D03*
G01*
X670009Y-250000D03*
G01*
X670009Y-300000D03*
G01*
X670009Y-350000D03*
G01*
X670009Y-400000D03*
G36*
X1033009Y35671D02*
G01*
X1052694Y35671D01*
X1052694Y24648D01*
X1033009Y24648D01*
G37*
G36*
X1033009Y55351D02*
G01*
X1052694Y55351D01*
X1052694Y44328D01*
X1033009Y44328D01*
G37*
G36*
X1042257Y84292D02*
G01*
X1053281Y84292D01*
X1053281Y64607D01*
X1042257Y64607D01*
G37*
G36*
X1061947Y84292D02*
G01*
X1072971Y84292D01*
X1072971Y64607D01*
X1061947Y64607D01*
G37*
G36*
X1081627Y84292D02*
G01*
X1092651Y84292D01*
X1092651Y64607D01*
X1081627Y64607D01*
G37*
G36*
X1101317Y84292D02*
G01*
X1112341Y84292D01*
X1112341Y64607D01*
X1101317Y64607D01*
G37*
G36*
X1101903Y55351D02*
G01*
X1121588Y55351D01*
X1121588Y44328D01*
X1101903Y44328D01*
G37*
G36*
X1101903Y35671D02*
G01*
X1121588Y35671D01*
X1121588Y24648D01*
X1101903Y24648D01*
G37*
G36*
X1101317Y15392D02*
G01*
X1112341Y15392D01*
X1112341Y-4292D01*
X1101317Y-4292D01*
G37*
G36*
X1081627Y15392D02*
G01*
X1092651Y15392D01*
X1092651Y-4292D01*
X1081627Y-4292D01*
G37*
G36*
X1061947Y15392D02*
G01*
X1072971Y15392D01*
X1072971Y-4292D01*
X1061947Y-4292D01*
G37*
G36*
X1042257Y15392D02*
G01*
X1053281Y15392D01*
X1053281Y-4292D01*
X1042257Y-4292D01*
G37*
M02*
