G04 Layer: InnerLayer3*
G04 EasyEDA v6.4.31, 2022-02-15 11:42:09*
G04 cf861d6554b0406c859822548a314204,c17a8ced473b4d519dda31697e0e54b6,10*
G04 Gerber Generator version 0.2*
G04 Scale: 100 percent, Rotated: No, Reflected: No *
G04 Dimensions in inches *
G04 leading zeros omitted , absolute positions ,3 integer and 6 decimal *
%FSLAX36Y36*%
%MOIN*%

%ADD23C,0.0240*%
%ADD24C,0.0240*%
%ADD41C,0.0472*%

%LPD*%
G36*
X297299Y-780000D02*
G01*
X297299Y-595000D01*
X294041Y-593685D01*
X287073Y-590814D01*
X280136Y-587867D01*
X273231Y-584846D01*
X266358Y-581754D01*
X259518Y-578587D01*
X252712Y-575349D01*
X245941Y-572038D01*
X239206Y-568656D01*
X232506Y-565203D01*
X225844Y-561678D01*
X219220Y-558083D01*
X212634Y-554418D01*
X206087Y-550684D01*
X199580Y-546880D01*
X193116Y-543006D01*
X186690Y-539065D01*
X180308Y-535057D01*
X173969Y-530979D01*
X167673Y-526835D01*
X161422Y-522626D01*
X155215Y-518350D01*
X149055Y-514007D01*
X142941Y-509600D01*
X136875Y-505127D01*
X130854Y-500592D01*
X124884Y-495992D01*
X118962Y-491329D01*
X113090Y-486604D01*
X107269Y-481817D01*
X101499Y-476968D01*
X95781Y-472058D01*
X90115Y-467087D01*
X84502Y-462058D01*
X78943Y-456968D01*
X73438Y-451819D01*
X67988Y-446613D01*
X62594Y-441350D01*
X57256Y-436028D01*
X51974Y-430652D01*
X46751Y-425219D01*
X41585Y-419731D01*
X36477Y-414187D01*
X31429Y-408591D01*
X26440Y-402941D01*
X21512Y-397240D01*
X16644Y-391484D01*
X11838Y-385679D01*
X7094Y-379823D01*
X2412Y-373917D01*
X-2206Y-367961D01*
X-6762Y-361956D01*
X-11253Y-355904D01*
X-15680Y-349803D01*
X-20042Y-343656D01*
X-24338Y-337465D01*
X-28569Y-331226D01*
X-32734Y-324944D01*
X-36831Y-318618D01*
X-40861Y-312249D01*
X-44823Y-305837D01*
X-48716Y-299385D01*
X-52541Y-292890D01*
X-56297Y-286356D01*
X-59983Y-279782D01*
X-63600Y-273168D01*
X-67146Y-266518D01*
X-70621Y-259830D01*
X-74025Y-253105D01*
X-77357Y-246345D01*
X-80618Y-239549D01*
X-83806Y-232721D01*
X-86921Y-225857D01*
X-89963Y-218962D01*
X-92933Y-212035D01*
X-95828Y-205075D01*
X-98650Y-198087D01*
X-101397Y-191068D01*
X-104069Y-184020D01*
X-106666Y-176945D01*
X-109189Y-169843D01*
X-111635Y-162714D01*
X-114006Y-155560D01*
X-116301Y-148380D01*
X-118519Y-141177D01*
X-120661Y-133951D01*
X-122726Y-126703D01*
X-124714Y-119432D01*
X-126625Y-112141D01*
X-128458Y-104830D01*
X-130214Y-97501D01*
X-131891Y-90154D01*
X-133491Y-82788D01*
X-135012Y-75405D01*
X-136455Y-68009D01*
X-137819Y-60596D01*
X-139105Y-53170D01*
X-140312Y-45729D01*
X-141439Y-38278D01*
X-142488Y-30814D01*
X-143457Y-23339D01*
X-144346Y-15855D01*
X-145157Y-8362D01*
X-145887Y-859D01*
X-146538Y6648D01*
X-147110Y14164D01*
X-147601Y21685D01*
X-148013Y29209D01*
X-148345Y36739D01*
X-148596Y44272D01*
X-148768Y51808D01*
X-148860Y59344D01*
X-148872Y66880D01*
X-148804Y74418D01*
X-148656Y81954D01*
X-148427Y89486D01*
X-148119Y97017D01*
X-147731Y104544D01*
X-147264Y112067D01*
X-146716Y119585D01*
X-146089Y127094D01*
X-145381Y134598D01*
X-144595Y142094D01*
X-143728Y149582D01*
X-142783Y157058D01*
X-141758Y164526D01*
X-140654Y171981D01*
X-139471Y179425D01*
X-138208Y186855D01*
X-136867Y194272D01*
X-135448Y201675D01*
X-133950Y209061D01*
X-132373Y216431D01*
X-130719Y223784D01*
X-128986Y231120D01*
X-127176Y238436D01*
X-125288Y245734D01*
X-123323Y253009D01*
X-121281Y260264D01*
X-119162Y267498D01*
X-116966Y274708D01*
X-114694Y281894D01*
X-112345Y289056D01*
X-109921Y296192D01*
X-107421Y303303D01*
X-104846Y310385D01*
X-102196Y317442D01*
X-99471Y324468D01*
X-96672Y331466D01*
X-93798Y338434D01*
X-90851Y345372D01*
X-87830Y352276D01*
X-84736Y359149D01*
X-81569Y365988D01*
X-78330Y372795D01*
X-75019Y379564D01*
X-71636Y386300D01*
X-68182Y393000D01*
X-64657Y399661D01*
X-61062Y406286D01*
X-57396Y412871D01*
X-53661Y419416D01*
X-49856Y425924D01*
X-45983Y432388D01*
X-42041Y438813D01*
X-38031Y445194D01*
X-33954Y451534D01*
X-29810Y457829D01*
X-25599Y464079D01*
X-21322Y470286D01*
X-16979Y476446D01*
X-12571Y482559D01*
X-8099Y488627D01*
X-3562Y494645D01*
X1037Y500616D01*
X5700Y506536D01*
X10426Y512408D01*
X15214Y518229D01*
X20064Y523998D01*
X24974Y529717D01*
X29945Y535381D01*
X34976Y540994D01*
X40066Y546552D01*
X45214Y552056D01*
X50421Y557507D01*
X55686Y562899D01*
X61007Y568238D01*
X66385Y573519D01*
X71818Y578742D01*
X77307Y583908D01*
X82850Y589014D01*
X88447Y594063D01*
X94097Y599050D01*
X99800Y603978D01*
X105555Y608845D01*
X111361Y613650D01*
X117218Y618395D01*
X123125Y623076D01*
X129081Y627694D01*
X135086Y632249D01*
X141139Y636741D01*
X147239Y641167D01*
X153386Y645529D01*
X159579Y649825D01*
X165817Y654054D01*
X172099Y658218D01*
X178426Y662314D01*
X184795Y666343D01*
X191207Y670304D01*
X197661Y674198D01*
X204156Y678022D01*
X210691Y681777D01*
X217265Y685464D01*
X223878Y689079D01*
X230529Y692624D01*
X237218Y696098D01*
X243942Y699502D01*
X250703Y702833D01*
X257500Y706093D01*
X264328Y709281D01*
X271192Y712395D01*
X278088Y715437D01*
X285015Y718407D01*
X291974Y721300D01*
X298964Y724122D01*
X305983Y726869D01*
X313030Y729540D01*
X320106Y732136D01*
X327208Y734659D01*
X334337Y737105D01*
X341492Y739475D01*
X348671Y741768D01*
X355875Y743987D01*
X363101Y746127D01*
X370350Y748191D01*
X377620Y750180D01*
X384911Y752089D01*
X392222Y753921D01*
X399552Y755677D01*
X406900Y757354D01*
X414265Y758953D01*
X421647Y760473D01*
X429045Y761916D01*
X436458Y763279D01*
X443885Y764564D01*
X451324Y765770D01*
X458777Y766896D01*
X466241Y767944D01*
X473715Y768912D01*
X481200Y769801D01*
X488693Y770612D01*
X496194Y771341D01*
X503703Y771992D01*
X511219Y772563D01*
X518741Y773052D01*
X526266Y773463D01*
X533795Y773795D01*
X541328Y774045D01*
X548863Y774218D01*
X556400Y774308D01*
X563937Y774319D01*
X571473Y774250D01*
X579009Y774101D01*
X586542Y773872D01*
X594073Y773564D01*
X601600Y773175D01*
X609122Y772707D01*
X616640Y772159D01*
X624150Y771531D01*
X631654Y770823D01*
X639150Y770036D01*
X646637Y769169D01*
X654114Y768222D01*
X661581Y767197D01*
X669037Y766091D01*
X676480Y764908D01*
X683911Y763645D01*
X691327Y762303D01*
X698729Y760882D01*
X706116Y759385D01*
X713486Y757806D01*
X720839Y756152D01*
X728174Y754418D01*
X735490Y752608D01*
X742787Y750720D01*
X750063Y748753D01*
X757318Y746711D01*
X764550Y744591D01*
X771760Y742395D01*
X778946Y740122D01*
X786108Y737773D01*
X793244Y735347D01*
X800354Y732847D01*
X807438Y730270D01*
X814493Y727620D01*
X821520Y724895D01*
X828517Y722094D01*
X835485Y719220D01*
X842422Y716273D01*
X849326Y713251D01*
X856199Y710156D01*
X863038Y706990D01*
X869843Y703750D01*
X876614Y700437D01*
X883349Y697055D01*
X890047Y693600D01*
X896709Y690073D01*
X903333Y686478D01*
X909918Y682811D01*
X916464Y679076D01*
X922970Y675270D01*
X929435Y671397D01*
X935859Y667454D01*
X942240Y663443D01*
X948579Y659366D01*
X954874Y655221D01*
X961124Y651010D01*
X967330Y646732D01*
X973489Y642388D01*
X979603Y637980D01*
X985670Y633508D01*
X991687Y628969D01*
X997657Y624369D01*
X1003578Y619706D01*
X1009449Y614978D01*
X1015269Y610190D01*
X1021038Y605340D01*
X1026756Y600430D01*
X1032421Y595457D01*
X1038033Y590426D01*
X1043591Y585336D01*
X1049095Y580187D01*
X1054543Y574980D01*
X1059937Y569715D01*
X1065274Y564393D01*
X1070554Y559014D01*
X1075777Y553580D01*
X1080942Y548092D01*
X1086048Y542548D01*
X1091096Y536950D01*
X1096083Y531300D01*
X1101011Y525596D01*
X1105877Y519841D01*
X1110682Y514034D01*
X1115425Y508177D01*
X1120106Y502271D01*
X1124724Y496314D01*
X1129279Y490309D01*
X1133769Y484254D01*
X1138195Y478155D01*
X1142556Y472006D01*
X1146851Y465814D01*
X1151080Y459576D01*
X1155243Y453292D01*
X1159339Y446966D01*
X1163368Y440596D01*
X1167329Y434182D01*
X1171221Y427728D01*
X1175045Y421233D01*
X1178800Y414699D01*
X1182485Y408123D01*
X1186100Y401511D01*
X1189645Y394859D01*
X1193119Y388171D01*
X1196521Y381446D01*
X1199852Y374684D01*
X1203112Y367889D01*
X1206298Y361059D01*
X1209413Y354194D01*
X1212455Y347298D01*
X1215422Y340371D01*
X1218316Y333411D01*
X1221136Y326421D01*
X1223881Y319403D01*
X1226553Y312354D01*
X1229149Y305279D01*
X1231669Y298175D01*
X1234115Y291046D01*
X1236484Y283892D01*
X1238778Y276712D01*
X1240995Y269508D01*
X1243135Y262283D01*
X1245199Y255034D01*
X1247186Y247762D01*
X1249095Y240471D01*
X1250927Y233161D01*
X1252681Y225830D01*
X1254358Y218483D01*
X1255956Y211116D01*
X1257476Y203735D01*
X1258917Y196336D01*
X1260280Y188924D01*
X1261564Y181496D01*
X1262769Y174056D01*
X1263896Y166604D01*
X1264943Y159140D01*
X1265910Y151667D01*
X1266799Y144182D01*
X1267608Y136689D01*
X1268337Y129187D01*
X1268986Y121678D01*
X1269556Y114162D01*
X1270046Y106640D01*
X1270457Y99115D01*
X1270787Y91586D01*
X1271037Y84052D01*
X1271208Y76518D01*
X1271298Y68980D01*
X1271309Y61444D01*
X1271239Y53908D01*
X1271090Y46372D01*
X1270860Y38838D01*
X1270551Y31307D01*
X1270161Y23780D01*
X1269692Y16259D01*
X1269143Y8742D01*
X1268514Y1230D01*
X1267806Y-6273D01*
X1267018Y-13768D01*
X1266150Y-21255D01*
X1265203Y-28731D01*
X1264177Y-36199D01*
X1263071Y-43654D01*
X1261886Y-51098D01*
X1260623Y-58528D01*
X1259281Y-65945D01*
X1257860Y-73346D01*
X1256360Y-80733D01*
X1254782Y-88103D01*
X1253126Y-95455D01*
X1251393Y-102791D01*
X1249581Y-110106D01*
X1247692Y-117402D01*
X1245725Y-124679D01*
X1243682Y-131934D01*
X1241561Y-139166D01*
X1239364Y-146376D01*
X1237090Y-153562D01*
X1234741Y-160722D01*
X1232315Y-167858D01*
X1229814Y-174969D01*
X1227238Y-182051D01*
X1224586Y-189106D01*
X1221860Y-196134D01*
X1219059Y-203130D01*
X1216184Y-210099D01*
X1213236Y-217035D01*
X1210214Y-223939D01*
X1207118Y-230812D01*
X1203951Y-237651D01*
X1200710Y-244456D01*
X1197398Y-251226D01*
X1194014Y-257959D01*
X1190558Y-264659D01*
X1187032Y-271320D01*
X1183436Y-277943D01*
X1179769Y-284528D01*
X1176032Y-291073D01*
X1172226Y-297579D01*
X1168352Y-304043D01*
X1164409Y-310466D01*
X1160398Y-316849D01*
X1156319Y-323186D01*
X1152174Y-329481D01*
X1147962Y-335731D01*
X1143683Y-341936D01*
X1139340Y-348096D01*
X1134931Y-354209D01*
X1130457Y-360275D01*
X1125919Y-366293D01*
X1121318Y-372262D01*
X1116654Y-378182D01*
X1111927Y-384052D01*
X1107138Y-389872D01*
X1102287Y-395641D01*
X1097375Y-401358D01*
X1092404Y-407022D01*
X1087372Y-412633D01*
X1082281Y-418191D01*
X1077131Y-423694D01*
X1071923Y-429144D01*
X1066658Y-434535D01*
X1061336Y-439872D01*
X1055957Y-445153D01*
X1050522Y-450374D01*
X1045033Y-455540D01*
X1039489Y-460646D01*
X1033891Y-465691D01*
X1028240Y-470679D01*
X1022536Y-475605D01*
X1016780Y-480471D01*
X1010973Y-485277D01*
X1005115Y-490019D01*
X999208Y-494699D01*
X993251Y-499317D01*
X987245Y-503870D01*
X981191Y-508360D01*
X975090Y-512786D01*
X968942Y-517145D01*
X962749Y-521440D01*
X956510Y-525670D01*
X950226Y-529832D01*
X943899Y-533928D01*
X937529Y-537955D01*
X931116Y-541916D01*
X924662Y-545808D01*
X918166Y-549630D01*
X911631Y-553384D01*
X905056Y-557069D01*
X898442Y-560684D01*
X891790Y-564227D01*
X885101Y-567701D01*
X878376Y-571104D01*
X871614Y-574434D01*
X864818Y-577692D01*
X857988Y-580878D01*
X851124Y-583991D01*
X844227Y-587033D01*
X837299Y-590000D01*
X837299Y-780000D01*
X801322Y-780000D01*
X801369Y-779980D01*
X801733Y-779816D01*
X802795Y-779304D01*
X803157Y-779119D01*
X804191Y-778555D01*
X804531Y-778359D01*
X805536Y-777744D01*
X805870Y-777528D01*
X806843Y-776866D01*
X807172Y-776630D01*
X808111Y-775918D01*
X808420Y-775671D01*
X809322Y-774913D01*
X809618Y-774652D01*
X810482Y-773852D01*
X810771Y-773569D01*
X811593Y-772726D01*
X811861Y-772438D01*
X812641Y-771554D01*
X812901Y-771244D01*
X813635Y-770324D01*
X813876Y-770007D01*
X814563Y-769050D01*
X814787Y-768719D01*
X815426Y-767730D01*
X815634Y-767393D01*
X816223Y-766372D01*
X816411Y-766026D01*
X816949Y-764978D01*
X817124Y-764612D01*
X817608Y-763539D01*
X817764Y-763171D01*
X818194Y-762073D01*
X818327Y-761707D01*
X818703Y-760592D01*
X818823Y-760203D01*
X819142Y-759070D01*
X819240Y-758683D01*
X819502Y-757536D01*
X819582Y-757141D01*
X819786Y-755981D01*
X819844Y-755594D01*
X819991Y-754425D01*
X820032Y-754023D01*
X820120Y-752849D01*
X820140Y-752449D01*
X820169Y-751271D01*
X820171Y-751075D01*
X820171Y-711705D01*
X820169Y-711507D01*
X820140Y-710331D01*
X820120Y-709931D01*
X820032Y-708755D01*
X819991Y-708355D01*
X819844Y-707186D01*
X819786Y-706797D01*
X819582Y-705637D01*
X819502Y-705243D01*
X819240Y-704095D01*
X819142Y-703710D01*
X818823Y-702575D01*
X818703Y-702188D01*
X818327Y-701071D01*
X818194Y-700706D01*
X817764Y-699609D01*
X817608Y-699239D01*
X817124Y-698166D01*
X816949Y-697802D01*
X816411Y-696754D01*
X816223Y-696406D01*
X815634Y-695387D01*
X815426Y-695050D01*
X814787Y-694059D01*
X814563Y-693728D01*
X813876Y-692773D01*
X813635Y-692456D01*
X812901Y-691534D01*
X812641Y-691224D01*
X811861Y-690342D01*
X811593Y-690052D01*
X810771Y-689209D01*
X810482Y-688928D01*
X809618Y-688126D01*
X809322Y-687865D01*
X808420Y-687109D01*
X808111Y-686862D01*
X807172Y-686149D01*
X806843Y-685913D01*
X805870Y-685250D01*
X805536Y-685034D01*
X804531Y-684421D01*
X804191Y-684225D01*
X803157Y-683661D01*
X802795Y-683474D01*
X801733Y-682964D01*
X801369Y-682800D01*
X800284Y-682343D01*
X799916Y-682199D01*
X798809Y-681795D01*
X798430Y-681667D01*
X797305Y-681320D01*
X796922Y-681214D01*
X795780Y-680922D01*
X795388Y-680832D01*
X794234Y-680599D01*
X793846Y-680531D01*
X792681Y-680356D01*
X792281Y-680306D01*
X791109Y-680189D01*
X790715Y-680158D01*
X789539Y-680100D01*
X789138Y-680090D01*
X787960Y-680090D01*
X787559Y-680100D01*
X786383Y-680158D01*
X785989Y-680189D01*
X784817Y-680306D01*
X784417Y-680356D01*
X783252Y-680531D01*
X782864Y-680599D01*
X781710Y-680832D01*
X781318Y-680922D01*
X780176Y-681214D01*
X779793Y-681320D01*
X778668Y-681667D01*
X778289Y-681795D01*
X777182Y-682199D01*
X776814Y-682343D01*
X775729Y-682800D01*
X775365Y-682964D01*
X774303Y-683474D01*
X773941Y-683661D01*
X772907Y-684225D01*
X772567Y-684421D01*
X771562Y-685034D01*
X771228Y-685250D01*
X770255Y-685913D01*
X769926Y-686149D01*
X768987Y-686862D01*
X768678Y-687109D01*
X767776Y-687865D01*
X767480Y-688126D01*
X766616Y-688928D01*
X766327Y-689209D01*
X765505Y-690052D01*
X765237Y-690342D01*
X764457Y-691224D01*
X764197Y-691534D01*
X763463Y-692456D01*
X763222Y-692773D01*
X762536Y-693728D01*
X762311Y-694059D01*
X761672Y-695050D01*
X761465Y-695387D01*
X760876Y-696406D01*
X760688Y-696754D01*
X760149Y-697802D01*
X759974Y-698166D01*
X759490Y-699239D01*
X759334Y-699609D01*
X758904Y-700706D01*
X758771Y-701071D01*
X758395Y-702188D01*
X758275Y-702575D01*
X757956Y-703710D01*
X757858Y-704095D01*
X757596Y-705243D01*
X757516Y-705637D01*
X757312Y-706797D01*
X757254Y-707186D01*
X757107Y-708355D01*
X757066Y-708755D01*
X756978Y-709931D01*
X756958Y-710331D01*
X756929Y-711507D01*
X756927Y-711705D01*
X756927Y-751075D01*
X756929Y-751271D01*
X756958Y-752449D01*
X756978Y-752849D01*
X757066Y-754023D01*
X757107Y-754425D01*
X757254Y-755594D01*
X757312Y-755981D01*
X757516Y-757141D01*
X757596Y-757536D01*
X757858Y-758683D01*
X757956Y-759070D01*
X758275Y-760203D01*
X758395Y-760592D01*
X758771Y-761707D01*
X758904Y-762073D01*
X759334Y-763171D01*
X759490Y-763539D01*
X759974Y-764612D01*
X760149Y-764978D01*
X760688Y-766026D01*
X760876Y-766372D01*
X761465Y-767393D01*
X761672Y-767730D01*
X762311Y-768719D01*
X762536Y-769050D01*
X763222Y-770007D01*
X763463Y-770324D01*
X764197Y-771244D01*
X764457Y-771554D01*
X765237Y-772438D01*
X765505Y-772726D01*
X766327Y-773569D01*
X766616Y-773852D01*
X767480Y-774652D01*
X767776Y-774913D01*
X768678Y-775671D01*
X768987Y-775918D01*
X769926Y-776630D01*
X770255Y-776866D01*
X771228Y-777528D01*
X771562Y-777744D01*
X772567Y-778359D01*
X772907Y-778555D01*
X773941Y-779119D01*
X774303Y-779304D01*
X775365Y-779816D01*
X775729Y-779980D01*
X775776Y-780000D01*
X358813Y-780000D01*
X358859Y-779980D01*
X359223Y-779816D01*
X360285Y-779304D01*
X360647Y-779119D01*
X361681Y-778555D01*
X362021Y-778359D01*
X363026Y-777744D01*
X363360Y-777528D01*
X364333Y-776866D01*
X364662Y-776630D01*
X365601Y-775918D01*
X365910Y-775671D01*
X366812Y-774913D01*
X367108Y-774652D01*
X367972Y-773852D01*
X368261Y-773569D01*
X369083Y-772726D01*
X369351Y-772438D01*
X370131Y-771554D01*
X370391Y-771244D01*
X371125Y-770324D01*
X371366Y-770007D01*
X372053Y-769050D01*
X372277Y-768719D01*
X372916Y-767730D01*
X373123Y-767393D01*
X373712Y-766372D01*
X373901Y-766026D01*
X374439Y-764978D01*
X374614Y-764612D01*
X375099Y-763539D01*
X375254Y-763171D01*
X375684Y-762073D01*
X375817Y-761707D01*
X376193Y-760592D01*
X376313Y-760203D01*
X376632Y-759070D01*
X376730Y-758683D01*
X376992Y-757536D01*
X377072Y-757141D01*
X377276Y-755981D01*
X377334Y-755594D01*
X377482Y-754425D01*
X377522Y-754023D01*
X377610Y-752849D01*
X377630Y-752449D01*
X377659Y-751271D01*
X377661Y-751075D01*
X377661Y-711705D01*
X377659Y-711507D01*
X377630Y-710331D01*
X377610Y-709931D01*
X377522Y-708755D01*
X377482Y-708355D01*
X377334Y-707186D01*
X377276Y-706797D01*
X377072Y-705637D01*
X376992Y-705243D01*
X376730Y-704095D01*
X376632Y-703710D01*
X376313Y-702575D01*
X376193Y-702188D01*
X375817Y-701071D01*
X375684Y-700706D01*
X375254Y-699609D01*
X375099Y-699239D01*
X374614Y-698166D01*
X374439Y-697802D01*
X373901Y-696754D01*
X373712Y-696406D01*
X373123Y-695387D01*
X372916Y-695050D01*
X372277Y-694059D01*
X372053Y-693728D01*
X371366Y-692773D01*
X371125Y-692456D01*
X370391Y-691534D01*
X370131Y-691224D01*
X369351Y-690342D01*
X369083Y-690052D01*
X368261Y-689209D01*
X367972Y-688928D01*
X367108Y-688126D01*
X366812Y-687865D01*
X365910Y-687109D01*
X365601Y-686862D01*
X364662Y-686149D01*
X364333Y-685913D01*
X363360Y-685250D01*
X363026Y-685034D01*
X362021Y-684421D01*
X361681Y-684225D01*
X360647Y-683661D01*
X360285Y-683474D01*
X359223Y-682964D01*
X358859Y-682800D01*
X357774Y-682343D01*
X357406Y-682199D01*
X356299Y-681795D01*
X355920Y-681667D01*
X354795Y-681320D01*
X354412Y-681214D01*
X353270Y-680922D01*
X352878Y-680832D01*
X351724Y-680599D01*
X351336Y-680531D01*
X350171Y-680356D01*
X349771Y-680306D01*
X348599Y-680189D01*
X348206Y-680158D01*
X347029Y-680100D01*
X346628Y-680090D01*
X345450Y-680090D01*
X345049Y-680100D01*
X343873Y-680158D01*
X343479Y-680189D01*
X342307Y-680306D01*
X341907Y-680356D01*
X340742Y-680531D01*
X340354Y-680599D01*
X339200Y-680832D01*
X338808Y-680922D01*
X337666Y-681214D01*
X337283Y-681320D01*
X336158Y-681667D01*
X335779Y-681795D01*
X334672Y-682199D01*
X334304Y-682343D01*
X333219Y-682800D01*
X332855Y-682964D01*
X331793Y-683474D01*
X331431Y-683661D01*
X330397Y-684225D01*
X330057Y-684421D01*
X329052Y-685034D01*
X328718Y-685250D01*
X327745Y-685913D01*
X327416Y-686149D01*
X326477Y-686862D01*
X326168Y-687109D01*
X325266Y-687865D01*
X324970Y-688126D01*
X324106Y-688928D01*
X323817Y-689209D01*
X322995Y-690052D01*
X322727Y-690342D01*
X321947Y-691224D01*
X321687Y-691534D01*
X320953Y-692456D01*
X320712Y-692773D01*
X320025Y-693728D01*
X319801Y-694059D01*
X319162Y-695050D01*
X318955Y-695387D01*
X318366Y-696406D01*
X318177Y-696754D01*
X317639Y-697802D01*
X317464Y-698166D01*
X316980Y-699239D01*
X316824Y-699609D01*
X316394Y-700706D01*
X316261Y-701071D01*
X315885Y-702188D01*
X315765Y-702575D01*
X315446Y-703710D01*
X315348Y-704095D01*
X315086Y-705243D01*
X315006Y-705637D01*
X314802Y-706797D01*
X314744Y-707186D01*
X314597Y-708355D01*
X314556Y-708755D01*
X314468Y-709931D01*
X314448Y-710331D01*
X314420Y-711507D01*
X314417Y-711705D01*
X314417Y-751075D01*
X314420Y-751271D01*
X314448Y-752449D01*
X314468Y-752849D01*
X314556Y-754023D01*
X314597Y-754425D01*
X314744Y-755594D01*
X314802Y-755981D01*
X315006Y-757141D01*
X315086Y-757536D01*
X315348Y-758683D01*
X315446Y-759070D01*
X315765Y-760203D01*
X315885Y-760592D01*
X316261Y-761707D01*
X316394Y-762073D01*
X316824Y-763171D01*
X316980Y-763539D01*
X317464Y-764612D01*
X317639Y-764978D01*
X318177Y-766026D01*
X318366Y-766372D01*
X318955Y-767393D01*
X319162Y-767730D01*
X319801Y-768719D01*
X320025Y-769050D01*
X320712Y-770007D01*
X320953Y-770324D01*
X321687Y-771244D01*
X321947Y-771554D01*
X322727Y-772438D01*
X322995Y-772726D01*
X323817Y-773569D01*
X324106Y-773852D01*
X324970Y-774652D01*
X325266Y-774913D01*
X326168Y-775671D01*
X326477Y-775918D01*
X327416Y-776630D01*
X327745Y-776866D01*
X328718Y-777528D01*
X329052Y-777744D01*
X330057Y-778359D01*
X330397Y-778555D01*
X331431Y-779119D01*
X331793Y-779304D01*
X332855Y-779816D01*
X333219Y-779980D01*
X333266Y-780000D01*
G37*

%LPC*%
G36*
X632480Y678002D02*
G01*
X633755Y678022D01*
X635027Y678123D01*
X636289Y678305D01*
X637538Y678566D01*
X638768Y678906D01*
X639973Y679324D01*
X641149Y679816D01*
X642292Y680383D01*
X643396Y681021D01*
X644458Y681727D01*
X645473Y682498D01*
X646437Y683335D01*
X647346Y684229D01*
X648197Y685180D01*
X648985Y686183D01*
X649708Y687233D01*
X650363Y688326D01*
X650948Y689461D01*
X651459Y690630D01*
X651895Y691828D01*
X652255Y693051D01*
X652536Y694295D01*
X652737Y695554D01*
X652859Y696824D01*
X652899Y698099D01*
X652859Y699375D01*
X652737Y700644D01*
X652536Y701903D01*
X652255Y703148D01*
X651895Y704371D01*
X651459Y705569D01*
X650948Y706738D01*
X650363Y707872D01*
X649708Y708966D01*
X648985Y710016D01*
X648197Y711019D01*
X647346Y711970D01*
X646437Y712865D01*
X645473Y713701D01*
X644458Y714472D01*
X643396Y715178D01*
X642292Y715817D01*
X641149Y716383D01*
X639973Y716876D01*
X638768Y717294D01*
X637538Y717633D01*
X636289Y717894D01*
X635027Y718076D01*
X633755Y718177D01*
X632480Y718197D01*
X631206Y718137D01*
X629938Y717995D01*
X628682Y717773D01*
X627443Y717473D01*
X626225Y717094D01*
X625033Y716639D01*
X623873Y716109D01*
X622749Y715506D01*
X621665Y714834D01*
X620626Y714095D01*
X619636Y713290D01*
X618699Y712424D01*
X617819Y711502D01*
X616999Y710524D01*
X616243Y709497D01*
X615554Y708425D01*
X614933Y707310D01*
X614385Y706158D01*
X613911Y704974D01*
X613513Y703762D01*
X613193Y702528D01*
X612951Y701275D01*
X612790Y700010D01*
X612709Y698737D01*
X612709Y697462D01*
X612790Y696188D01*
X612951Y694924D01*
X613193Y693672D01*
X613513Y692436D01*
X613911Y691224D01*
X614385Y690041D01*
X614933Y688890D01*
X615554Y687775D01*
X616243Y686702D01*
X616999Y685675D01*
X617819Y684697D01*
X618699Y683775D01*
X619636Y682908D01*
X620626Y682105D01*
X621665Y681365D01*
X622749Y680693D01*
X623873Y680091D01*
X625033Y679560D01*
X626225Y679104D01*
X627443Y678726D01*
X628682Y678425D01*
X629938Y678204D01*
X631206Y678063D01*
G37*
G36*
X944680Y584902D02*
G01*
X945955Y584922D01*
X947227Y585023D01*
X948489Y585205D01*
X949738Y585466D01*
X950967Y585805D01*
X952172Y586224D01*
X953349Y586716D01*
X954492Y587283D01*
X955596Y587921D01*
X956658Y588627D01*
X957673Y589398D01*
X958637Y590234D01*
X959546Y591129D01*
X960396Y592080D01*
X961185Y593083D01*
X961908Y594133D01*
X962563Y595226D01*
X963148Y596361D01*
X963659Y597530D01*
X964095Y598728D01*
X964456Y599951D01*
X964736Y601195D01*
X964937Y602454D01*
X965059Y603724D01*
X965099Y605000D01*
X965059Y606275D01*
X964937Y607545D01*
X964736Y608804D01*
X964456Y610048D01*
X964095Y611271D01*
X963659Y612469D01*
X963148Y613638D01*
X962563Y614773D01*
X961908Y615866D01*
X961185Y616916D01*
X960396Y617919D01*
X959546Y618870D01*
X958637Y619765D01*
X957673Y620601D01*
X956658Y621372D01*
X955596Y622078D01*
X954492Y622716D01*
X953349Y623283D01*
X952172Y623775D01*
X950967Y624194D01*
X949738Y624533D01*
X948489Y624794D01*
X947227Y624976D01*
X945955Y625077D01*
X944680Y625097D01*
X943406Y625037D01*
X942138Y624895D01*
X940882Y624674D01*
X939643Y624373D01*
X938425Y623994D01*
X937233Y623539D01*
X936073Y623009D01*
X934949Y622406D01*
X933865Y621734D01*
X932826Y620994D01*
X931836Y620190D01*
X930899Y619324D01*
X930019Y618402D01*
X929199Y617424D01*
X928443Y616397D01*
X927754Y615324D01*
X927133Y614209D01*
X926585Y613058D01*
X926111Y611875D01*
X925713Y610662D01*
X925393Y609427D01*
X925151Y608175D01*
X924991Y606911D01*
X924909Y605637D01*
X924909Y604362D01*
X924991Y603089D01*
X925151Y601824D01*
X925393Y600572D01*
X925713Y599337D01*
X926111Y598125D01*
X926585Y596941D01*
X927133Y595790D01*
X927754Y594675D01*
X928443Y593602D01*
X929199Y592575D01*
X930019Y591597D01*
X930899Y590675D01*
X931836Y589809D01*
X932826Y589005D01*
X933865Y588265D01*
X934949Y587593D01*
X936073Y586990D01*
X937233Y586460D01*
X938425Y586005D01*
X939643Y585626D01*
X940882Y585326D01*
X942138Y585104D01*
X943406Y584962D01*
G37*
G36*
X345450Y-625210D02*
G01*
X346628Y-625210D01*
X347029Y-625199D01*
X348206Y-625140D01*
X348599Y-625111D01*
X349771Y-624994D01*
X350171Y-624944D01*
X351336Y-624767D01*
X351724Y-624699D01*
X352878Y-624466D01*
X353270Y-624376D01*
X354412Y-624086D01*
X354795Y-623978D01*
X355920Y-623631D01*
X356299Y-623503D01*
X357406Y-623101D01*
X357774Y-622957D01*
X358859Y-622500D01*
X359223Y-622336D01*
X360285Y-621824D01*
X360647Y-621639D01*
X361681Y-621075D01*
X362021Y-620878D01*
X363026Y-620264D01*
X363360Y-620048D01*
X364333Y-619385D01*
X364662Y-619149D01*
X365601Y-618438D01*
X365910Y-618191D01*
X366812Y-617433D01*
X367108Y-617172D01*
X367972Y-616372D01*
X368261Y-616089D01*
X369083Y-615246D01*
X369351Y-614958D01*
X370131Y-614074D01*
X370391Y-613764D01*
X371125Y-612844D01*
X371366Y-612527D01*
X372053Y-611570D01*
X372277Y-611239D01*
X372916Y-610250D01*
X373123Y-609913D01*
X373712Y-608892D01*
X373901Y-608546D01*
X374439Y-607498D01*
X374614Y-607132D01*
X375099Y-606060D01*
X375254Y-605691D01*
X375684Y-604594D01*
X375817Y-604227D01*
X376193Y-603112D01*
X376313Y-602723D01*
X376632Y-601590D01*
X376730Y-601203D01*
X376992Y-600055D01*
X377072Y-599661D01*
X377276Y-598501D01*
X377334Y-598114D01*
X377482Y-596945D01*
X377522Y-596543D01*
X377610Y-595369D01*
X377630Y-594969D01*
X377659Y-593791D01*
X377661Y-593595D01*
X377661Y-554225D01*
X377659Y-554027D01*
X377630Y-552851D01*
X377610Y-552451D01*
X377522Y-551275D01*
X377482Y-550875D01*
X377334Y-549706D01*
X377276Y-549317D01*
X377072Y-548157D01*
X376992Y-547764D01*
X376730Y-546615D01*
X376632Y-546230D01*
X376313Y-545095D01*
X376193Y-544708D01*
X375817Y-543591D01*
X375684Y-543225D01*
X375254Y-542128D01*
X375099Y-541759D01*
X374614Y-540686D01*
X374439Y-540322D01*
X373901Y-539274D01*
X373712Y-538926D01*
X373123Y-537907D01*
X372916Y-537570D01*
X372277Y-536579D01*
X372053Y-536248D01*
X371366Y-535293D01*
X371125Y-534976D01*
X370391Y-534054D01*
X370131Y-533744D01*
X369351Y-532862D01*
X369083Y-532573D01*
X368261Y-531729D01*
X367972Y-531448D01*
X367108Y-530646D01*
X366812Y-530385D01*
X365910Y-529628D01*
X365601Y-529382D01*
X364662Y-528670D01*
X364333Y-528434D01*
X363360Y-527770D01*
X363026Y-527555D01*
X362021Y-526941D01*
X361681Y-526745D01*
X360647Y-526181D01*
X360285Y-525994D01*
X359223Y-525484D01*
X358859Y-525320D01*
X357774Y-524863D01*
X357406Y-524719D01*
X356299Y-524315D01*
X355920Y-524187D01*
X354795Y-523841D01*
X354412Y-523733D01*
X353270Y-523443D01*
X352878Y-523353D01*
X351724Y-523119D01*
X351336Y-523051D01*
X350171Y-522876D01*
X349771Y-522826D01*
X348599Y-522708D01*
X348206Y-522678D01*
X347029Y-522620D01*
X346628Y-522609D01*
X345450Y-522609D01*
X345049Y-522620D01*
X343873Y-522678D01*
X343479Y-522708D01*
X342307Y-522826D01*
X341907Y-522876D01*
X340742Y-523051D01*
X340354Y-523119D01*
X339200Y-523353D01*
X338808Y-523443D01*
X337666Y-523733D01*
X337283Y-523841D01*
X336158Y-524187D01*
X335779Y-524315D01*
X334672Y-524719D01*
X334304Y-524863D01*
X333219Y-525320D01*
X332855Y-525484D01*
X331793Y-525994D01*
X331431Y-526181D01*
X330397Y-526745D01*
X330057Y-526941D01*
X329052Y-527555D01*
X328718Y-527770D01*
X327745Y-528434D01*
X327416Y-528670D01*
X326477Y-529382D01*
X326168Y-529628D01*
X325266Y-530385D01*
X324970Y-530646D01*
X324106Y-531448D01*
X323817Y-531729D01*
X322995Y-532573D01*
X322727Y-532862D01*
X321947Y-533744D01*
X321687Y-534054D01*
X320953Y-534976D01*
X320712Y-535293D01*
X320025Y-536248D01*
X319801Y-536579D01*
X319162Y-537570D01*
X318955Y-537907D01*
X318366Y-538926D01*
X318177Y-539274D01*
X317639Y-540322D01*
X317464Y-540686D01*
X316980Y-541759D01*
X316824Y-542128D01*
X316394Y-543225D01*
X316261Y-543591D01*
X315885Y-544708D01*
X315765Y-545095D01*
X315446Y-546230D01*
X315348Y-546615D01*
X315086Y-547764D01*
X315006Y-548157D01*
X314802Y-549317D01*
X314744Y-549706D01*
X314597Y-550875D01*
X314556Y-551275D01*
X314468Y-552451D01*
X314448Y-552851D01*
X314420Y-554027D01*
X314417Y-554225D01*
X314417Y-593595D01*
X314420Y-593791D01*
X314448Y-594969D01*
X314468Y-595369D01*
X314556Y-596543D01*
X314597Y-596945D01*
X314744Y-598114D01*
X314802Y-598501D01*
X315006Y-599661D01*
X315086Y-600055D01*
X315348Y-601203D01*
X315446Y-601590D01*
X315765Y-602723D01*
X315885Y-603112D01*
X316261Y-604227D01*
X316394Y-604594D01*
X316824Y-605691D01*
X316980Y-606060D01*
X317464Y-607132D01*
X317639Y-607498D01*
X318177Y-608546D01*
X318366Y-608892D01*
X318955Y-609913D01*
X319162Y-610250D01*
X319801Y-611239D01*
X320025Y-611570D01*
X320712Y-612527D01*
X320953Y-612844D01*
X321687Y-613764D01*
X321947Y-614074D01*
X322727Y-614958D01*
X322995Y-615246D01*
X323817Y-616089D01*
X324106Y-616372D01*
X324970Y-617172D01*
X325266Y-617433D01*
X326168Y-618191D01*
X326477Y-618438D01*
X327416Y-619149D01*
X327745Y-619385D01*
X328718Y-620048D01*
X329052Y-620264D01*
X330057Y-620878D01*
X330397Y-621075D01*
X331431Y-621639D01*
X331793Y-621824D01*
X332855Y-622336D01*
X333219Y-622500D01*
X334304Y-622957D01*
X334672Y-623101D01*
X335779Y-623503D01*
X336158Y-623631D01*
X337283Y-623978D01*
X337666Y-624086D01*
X338808Y-624376D01*
X339200Y-624466D01*
X340354Y-624699D01*
X340742Y-624767D01*
X341907Y-624944D01*
X342307Y-624994D01*
X343479Y-625111D01*
X343873Y-625140D01*
X345049Y-625199D01*
G37*
G36*
X787960Y-625210D02*
G01*
X789138Y-625210D01*
X789539Y-625199D01*
X790715Y-625140D01*
X791109Y-625111D01*
X792281Y-624994D01*
X792681Y-624944D01*
X793846Y-624767D01*
X794234Y-624699D01*
X795388Y-624466D01*
X795780Y-624376D01*
X796922Y-624086D01*
X797305Y-623978D01*
X798430Y-623631D01*
X798809Y-623503D01*
X799916Y-623101D01*
X800284Y-622957D01*
X801369Y-622500D01*
X801733Y-622336D01*
X802795Y-621824D01*
X803157Y-621639D01*
X804191Y-621075D01*
X804531Y-620878D01*
X805536Y-620264D01*
X805870Y-620048D01*
X806843Y-619385D01*
X807172Y-619149D01*
X808111Y-618438D01*
X808420Y-618191D01*
X809322Y-617433D01*
X809618Y-617172D01*
X810482Y-616372D01*
X810771Y-616089D01*
X811593Y-615246D01*
X811861Y-614958D01*
X812641Y-614074D01*
X812901Y-613764D01*
X813635Y-612844D01*
X813876Y-612527D01*
X814563Y-611570D01*
X814787Y-611239D01*
X815426Y-610250D01*
X815634Y-609913D01*
X816223Y-608892D01*
X816411Y-608546D01*
X816949Y-607498D01*
X817124Y-607132D01*
X817608Y-606060D01*
X817764Y-605691D01*
X818194Y-604594D01*
X818327Y-604227D01*
X818703Y-603112D01*
X818823Y-602723D01*
X819142Y-601590D01*
X819240Y-601203D01*
X819502Y-600055D01*
X819582Y-599661D01*
X819786Y-598501D01*
X819844Y-598114D01*
X819991Y-596945D01*
X820032Y-596543D01*
X820120Y-595369D01*
X820140Y-594969D01*
X820169Y-593791D01*
X820171Y-593595D01*
X820171Y-554225D01*
X820169Y-554027D01*
X820140Y-552851D01*
X820120Y-552451D01*
X820032Y-551275D01*
X819991Y-550875D01*
X819844Y-549706D01*
X819786Y-549317D01*
X819582Y-548157D01*
X819502Y-547764D01*
X819240Y-546615D01*
X819142Y-546230D01*
X818823Y-545095D01*
X818703Y-544708D01*
X818327Y-543591D01*
X818194Y-543225D01*
X817764Y-542128D01*
X817608Y-541759D01*
X817124Y-540686D01*
X816949Y-540322D01*
X816411Y-539274D01*
X816223Y-538926D01*
X815634Y-537907D01*
X815426Y-537570D01*
X814787Y-536579D01*
X814563Y-536248D01*
X813876Y-535293D01*
X813635Y-534976D01*
X812901Y-534054D01*
X812641Y-533744D01*
X811861Y-532862D01*
X811593Y-532573D01*
X810771Y-531729D01*
X810482Y-531448D01*
X809618Y-530646D01*
X809322Y-530385D01*
X808420Y-529628D01*
X808111Y-529382D01*
X807172Y-528670D01*
X806843Y-528434D01*
X805870Y-527770D01*
X805536Y-527555D01*
X804531Y-526941D01*
X804191Y-526745D01*
X803157Y-526181D01*
X802795Y-525994D01*
X801733Y-525484D01*
X801369Y-525320D01*
X800284Y-524863D01*
X799916Y-524719D01*
X798809Y-524315D01*
X798430Y-524187D01*
X797305Y-523841D01*
X796922Y-523733D01*
X795780Y-523443D01*
X795388Y-523353D01*
X794234Y-523119D01*
X793846Y-523051D01*
X792681Y-522876D01*
X792281Y-522826D01*
X791109Y-522708D01*
X790715Y-522678D01*
X789539Y-522620D01*
X789138Y-522609D01*
X787960Y-522609D01*
X787559Y-522620D01*
X786383Y-522678D01*
X785989Y-522708D01*
X784817Y-522826D01*
X784417Y-522876D01*
X783252Y-523051D01*
X782864Y-523119D01*
X781710Y-523353D01*
X781318Y-523443D01*
X780176Y-523733D01*
X779793Y-523841D01*
X778668Y-524187D01*
X778289Y-524315D01*
X777182Y-524719D01*
X776814Y-524863D01*
X775729Y-525320D01*
X775365Y-525484D01*
X774303Y-525994D01*
X773941Y-526181D01*
X772907Y-526745D01*
X772567Y-526941D01*
X771562Y-527555D01*
X771228Y-527770D01*
X770255Y-528434D01*
X769926Y-528670D01*
X768987Y-529382D01*
X768678Y-529628D01*
X767776Y-530385D01*
X767480Y-530646D01*
X766616Y-531448D01*
X766327Y-531729D01*
X765505Y-532573D01*
X765237Y-532862D01*
X764457Y-533744D01*
X764197Y-534054D01*
X763463Y-534976D01*
X763222Y-535293D01*
X762536Y-536248D01*
X762311Y-536579D01*
X761672Y-537570D01*
X761465Y-537907D01*
X760876Y-538926D01*
X760688Y-539274D01*
X760149Y-540322D01*
X759974Y-540686D01*
X759490Y-541759D01*
X759334Y-542128D01*
X758904Y-543225D01*
X758771Y-543591D01*
X758395Y-544708D01*
X758275Y-545095D01*
X757956Y-546230D01*
X757858Y-546615D01*
X757596Y-547764D01*
X757516Y-548157D01*
X757312Y-549317D01*
X757254Y-549706D01*
X757107Y-550875D01*
X757066Y-551275D01*
X756978Y-552451D01*
X756958Y-552851D01*
X756929Y-554027D01*
X756927Y-554225D01*
X756927Y-593595D01*
X756929Y-593791D01*
X756958Y-594969D01*
X756978Y-595369D01*
X757066Y-596543D01*
X757107Y-596945D01*
X757254Y-598114D01*
X757312Y-598501D01*
X757516Y-599661D01*
X757596Y-600055D01*
X757858Y-601203D01*
X757956Y-601590D01*
X758275Y-602723D01*
X758395Y-603112D01*
X758771Y-604227D01*
X758904Y-604594D01*
X759334Y-605691D01*
X759490Y-606060D01*
X759974Y-607132D01*
X760149Y-607498D01*
X760688Y-608546D01*
X760876Y-608892D01*
X761465Y-609913D01*
X761672Y-610250D01*
X762311Y-611239D01*
X762536Y-611570D01*
X763222Y-612527D01*
X763463Y-612844D01*
X764197Y-613764D01*
X764457Y-614074D01*
X765237Y-614958D01*
X765505Y-615246D01*
X766327Y-616089D01*
X766616Y-616372D01*
X767480Y-617172D01*
X767776Y-617433D01*
X768678Y-618191D01*
X768987Y-618438D01*
X769926Y-619149D01*
X770255Y-619385D01*
X771228Y-620048D01*
X771562Y-620264D01*
X772567Y-620878D01*
X772907Y-621075D01*
X773941Y-621639D01*
X774303Y-621824D01*
X775365Y-622336D01*
X775729Y-622500D01*
X776814Y-622957D01*
X777182Y-623101D01*
X778289Y-623503D01*
X778668Y-623631D01*
X779793Y-623978D01*
X780176Y-624086D01*
X781318Y-624376D01*
X781710Y-624466D01*
X782864Y-624699D01*
X783252Y-624767D01*
X784417Y-624944D01*
X784817Y-624994D01*
X785989Y-625111D01*
X786383Y-625140D01*
X787559Y-625199D01*
G37*
G36*
X731980Y-505097D02*
G01*
X733255Y-505077D01*
X734527Y-504976D01*
X735789Y-504794D01*
X737038Y-504533D01*
X738267Y-504194D01*
X739472Y-503775D01*
X740649Y-503283D01*
X741792Y-502716D01*
X742896Y-502078D01*
X743958Y-501372D01*
X744973Y-500601D01*
X745937Y-499765D01*
X746846Y-498870D01*
X747696Y-497919D01*
X748485Y-496916D01*
X749208Y-495866D01*
X749863Y-494773D01*
X750448Y-493638D01*
X750959Y-492469D01*
X751395Y-491271D01*
X751755Y-490048D01*
X752036Y-488804D01*
X752237Y-487545D01*
X752359Y-486275D01*
X752399Y-485000D01*
X752359Y-483724D01*
X752237Y-482454D01*
X752036Y-481195D01*
X751755Y-479951D01*
X751395Y-478728D01*
X750959Y-477530D01*
X750448Y-476361D01*
X749863Y-475226D01*
X749208Y-474133D01*
X748485Y-473083D01*
X747696Y-472080D01*
X746846Y-471129D01*
X745937Y-470234D01*
X744973Y-469398D01*
X743958Y-468627D01*
X742896Y-467921D01*
X741792Y-467283D01*
X740649Y-466716D01*
X739472Y-466224D01*
X738267Y-465805D01*
X737038Y-465466D01*
X735789Y-465205D01*
X734527Y-465023D01*
X733255Y-464922D01*
X731980Y-464902D01*
X730706Y-464962D01*
X729438Y-465104D01*
X728182Y-465326D01*
X726943Y-465626D01*
X725725Y-466005D01*
X724533Y-466460D01*
X723373Y-466990D01*
X722249Y-467593D01*
X721165Y-468265D01*
X720126Y-469005D01*
X719136Y-469809D01*
X718199Y-470675D01*
X717319Y-471597D01*
X716499Y-472575D01*
X715743Y-473602D01*
X715054Y-474675D01*
X714433Y-475790D01*
X713885Y-476941D01*
X713411Y-478125D01*
X713013Y-479337D01*
X712693Y-480572D01*
X712451Y-481824D01*
X712290Y-483088D01*
X712209Y-484362D01*
X712209Y-485637D01*
X712290Y-486911D01*
X712451Y-488175D01*
X712693Y-489427D01*
X713013Y-490662D01*
X713411Y-491875D01*
X713885Y-493058D01*
X714433Y-494209D01*
X715054Y-495324D01*
X715743Y-496397D01*
X716499Y-497424D01*
X717319Y-498402D01*
X718199Y-499324D01*
X719136Y-500190D01*
X720126Y-500994D01*
X721165Y-501734D01*
X722249Y-502406D01*
X723373Y-503009D01*
X724533Y-503539D01*
X725725Y-503994D01*
X726943Y-504373D01*
X728182Y-504674D01*
X729438Y-504895D01*
X730706Y-505037D01*
G37*
G36*
X507770Y-495866D02*
G01*
X509045Y-495846D01*
X510317Y-495745D01*
X511579Y-495565D01*
X512828Y-495302D01*
X514057Y-494963D01*
X515262Y-494546D01*
X516439Y-494054D01*
X517582Y-493487D01*
X518686Y-492849D01*
X519748Y-492143D01*
X520763Y-491370D01*
X521727Y-490534D01*
X522636Y-489641D01*
X523486Y-488690D01*
X524275Y-487687D01*
X524998Y-486637D01*
X525653Y-485542D01*
X526238Y-484409D01*
X526749Y-483240D01*
X527185Y-482042D01*
X527545Y-480817D01*
X527826Y-479573D01*
X528027Y-478314D01*
X528149Y-477044D01*
X528189Y-475770D01*
X528149Y-474495D01*
X528027Y-473225D01*
X527826Y-471966D01*
X527545Y-470722D01*
X527185Y-469497D01*
X526749Y-468299D01*
X526238Y-467130D01*
X525653Y-465997D01*
X524998Y-464902D01*
X524275Y-463852D01*
X523486Y-462849D01*
X522636Y-461898D01*
X521727Y-461005D01*
X520763Y-460169D01*
X519748Y-459396D01*
X518686Y-458690D01*
X517582Y-458052D01*
X516439Y-457485D01*
X515262Y-456993D01*
X514057Y-456576D01*
X512828Y-456237D01*
X511579Y-455974D01*
X510317Y-455794D01*
X509045Y-455693D01*
X507770Y-455673D01*
X506496Y-455733D01*
X505228Y-455875D01*
X503972Y-456095D01*
X502733Y-456397D01*
X501515Y-456774D01*
X500323Y-457231D01*
X499163Y-457761D01*
X498039Y-458362D01*
X496956Y-459034D01*
X495916Y-459774D01*
X494926Y-460578D01*
X493989Y-461444D01*
X493109Y-462368D01*
X492289Y-463344D01*
X491533Y-464371D01*
X490844Y-465444D01*
X490223Y-466559D01*
X489675Y-467710D01*
X489201Y-468895D01*
X488804Y-470106D01*
X488483Y-471341D01*
X488241Y-472593D01*
X488080Y-473859D01*
X487999Y-475131D01*
X487999Y-476408D01*
X488080Y-477680D01*
X488241Y-478946D01*
X488483Y-480198D01*
X488804Y-481433D01*
X489201Y-482645D01*
X489675Y-483829D01*
X490223Y-484980D01*
X490844Y-486095D01*
X491533Y-487168D01*
X492289Y-488195D01*
X493109Y-489171D01*
X493989Y-490095D01*
X494926Y-490961D01*
X495916Y-491765D01*
X496956Y-492505D01*
X498039Y-493177D01*
X499163Y-493778D01*
X500323Y-494308D01*
X501515Y-494765D01*
X502733Y-495142D01*
X503972Y-495444D01*
X505228Y-495664D01*
X506496Y-495806D01*
G37*
G36*
X621980Y-495097D02*
G01*
X623255Y-495077D01*
X624527Y-494976D01*
X625789Y-494794D01*
X627038Y-494533D01*
X628267Y-494194D01*
X629472Y-493775D01*
X630649Y-493283D01*
X631792Y-492716D01*
X632896Y-492078D01*
X633958Y-491372D01*
X634973Y-490601D01*
X635937Y-489765D01*
X636846Y-488870D01*
X637696Y-487919D01*
X638485Y-486916D01*
X639208Y-485866D01*
X639863Y-484773D01*
X640448Y-483638D01*
X640959Y-482469D01*
X641395Y-481271D01*
X641755Y-480048D01*
X642036Y-478804D01*
X642237Y-477545D01*
X642359Y-476275D01*
X642399Y-475000D01*
X642359Y-473724D01*
X642237Y-472454D01*
X642036Y-471195D01*
X641755Y-469951D01*
X641395Y-468728D01*
X640959Y-467530D01*
X640448Y-466361D01*
X639863Y-465226D01*
X639208Y-464133D01*
X638485Y-463083D01*
X637696Y-462080D01*
X636846Y-461129D01*
X635937Y-460234D01*
X634973Y-459398D01*
X633958Y-458627D01*
X632896Y-457921D01*
X631792Y-457283D01*
X630649Y-456716D01*
X629472Y-456224D01*
X628267Y-455805D01*
X627038Y-455466D01*
X625789Y-455205D01*
X624527Y-455023D01*
X623255Y-454922D01*
X621980Y-454902D01*
X620706Y-454962D01*
X619438Y-455104D01*
X618182Y-455326D01*
X616943Y-455626D01*
X615725Y-456005D01*
X614533Y-456460D01*
X613373Y-456990D01*
X612249Y-457593D01*
X611165Y-458265D01*
X610126Y-459005D01*
X609136Y-459809D01*
X608199Y-460675D01*
X607319Y-461597D01*
X606499Y-462575D01*
X605743Y-463602D01*
X605054Y-464675D01*
X604433Y-465790D01*
X603885Y-466941D01*
X603411Y-468125D01*
X603013Y-469337D01*
X602693Y-470572D01*
X602451Y-471824D01*
X602290Y-473088D01*
X602209Y-474362D01*
X602209Y-475637D01*
X602290Y-476911D01*
X602451Y-478175D01*
X602693Y-479427D01*
X603013Y-480662D01*
X603411Y-481875D01*
X603885Y-483058D01*
X604433Y-484209D01*
X605054Y-485324D01*
X605743Y-486397D01*
X606499Y-487424D01*
X607319Y-488402D01*
X608199Y-489324D01*
X609136Y-490190D01*
X610126Y-490994D01*
X611165Y-491734D01*
X612249Y-492406D01*
X613373Y-493009D01*
X614533Y-493539D01*
X615725Y-493994D01*
X616943Y-494373D01*
X618182Y-494674D01*
X619438Y-494895D01*
X620706Y-495037D01*
G37*
G36*
X661980Y-470097D02*
G01*
X663255Y-470077D01*
X664527Y-469976D01*
X665789Y-469794D01*
X667038Y-469533D01*
X668267Y-469194D01*
X669472Y-468775D01*
X670649Y-468283D01*
X671792Y-467716D01*
X672896Y-467078D01*
X673958Y-466372D01*
X674973Y-465601D01*
X675937Y-464765D01*
X676846Y-463870D01*
X677696Y-462919D01*
X678485Y-461916D01*
X679208Y-460866D01*
X679863Y-459773D01*
X680448Y-458638D01*
X680959Y-457469D01*
X681395Y-456271D01*
X681755Y-455048D01*
X682036Y-453804D01*
X682237Y-452545D01*
X682359Y-451275D01*
X682399Y-450000D01*
X682359Y-448724D01*
X682237Y-447454D01*
X682036Y-446195D01*
X681755Y-444951D01*
X681395Y-443728D01*
X680959Y-442530D01*
X680448Y-441361D01*
X679863Y-440226D01*
X679208Y-439133D01*
X678485Y-438083D01*
X677696Y-437080D01*
X676846Y-436129D01*
X675937Y-435234D01*
X674973Y-434398D01*
X673958Y-433627D01*
X672896Y-432921D01*
X671792Y-432283D01*
X670649Y-431716D01*
X669472Y-431224D01*
X668267Y-430805D01*
X667038Y-430466D01*
X665789Y-430205D01*
X664527Y-430023D01*
X663255Y-429922D01*
X661980Y-429902D01*
X660706Y-429962D01*
X659438Y-430104D01*
X658182Y-430326D01*
X656943Y-430626D01*
X655725Y-431005D01*
X654533Y-431460D01*
X653373Y-431990D01*
X652249Y-432593D01*
X651165Y-433265D01*
X650126Y-434005D01*
X649136Y-434809D01*
X648199Y-435675D01*
X647319Y-436597D01*
X646499Y-437575D01*
X645743Y-438602D01*
X645054Y-439675D01*
X644433Y-440790D01*
X643885Y-441941D01*
X643411Y-443125D01*
X643013Y-444337D01*
X642693Y-445572D01*
X642451Y-446824D01*
X642290Y-448088D01*
X642209Y-449362D01*
X642209Y-450637D01*
X642290Y-451911D01*
X642451Y-453175D01*
X642693Y-454427D01*
X643013Y-455662D01*
X643411Y-456875D01*
X643885Y-458058D01*
X644433Y-459209D01*
X645054Y-460324D01*
X645743Y-461397D01*
X646499Y-462424D01*
X647319Y-463402D01*
X648199Y-464324D01*
X649136Y-465190D01*
X650126Y-465994D01*
X651165Y-466734D01*
X652249Y-467406D01*
X653373Y-468009D01*
X654533Y-468539D01*
X655725Y-468994D01*
X656943Y-469373D01*
X658182Y-469674D01*
X659438Y-469895D01*
X660706Y-470037D01*
G37*
G36*
X373680Y-442696D02*
G01*
X374955Y-442676D01*
X376227Y-442575D01*
X377489Y-442395D01*
X378738Y-442132D01*
X379967Y-441793D01*
X381172Y-441376D01*
X382349Y-440884D01*
X383492Y-440317D01*
X384596Y-439679D01*
X385658Y-438973D01*
X386673Y-438200D01*
X387637Y-437364D01*
X388546Y-436471D01*
X389396Y-435520D01*
X390185Y-434517D01*
X390908Y-433467D01*
X391563Y-432372D01*
X392148Y-431239D01*
X392659Y-430070D01*
X393095Y-428872D01*
X393455Y-427647D01*
X393736Y-426404D01*
X393937Y-425145D01*
X394059Y-423874D01*
X394099Y-422600D01*
X394059Y-421325D01*
X393937Y-420055D01*
X393736Y-418796D01*
X393455Y-417552D01*
X393095Y-416327D01*
X392659Y-415129D01*
X392148Y-413960D01*
X391563Y-412827D01*
X390908Y-411732D01*
X390185Y-410682D01*
X389396Y-409679D01*
X388546Y-408728D01*
X387637Y-407835D01*
X386673Y-406999D01*
X385658Y-406226D01*
X384596Y-405520D01*
X383492Y-404882D01*
X382349Y-404315D01*
X381172Y-403823D01*
X379967Y-403405D01*
X378738Y-403067D01*
X377489Y-402804D01*
X376227Y-402624D01*
X374955Y-402523D01*
X373680Y-402503D01*
X372406Y-402563D01*
X371138Y-402705D01*
X369882Y-402926D01*
X368643Y-403227D01*
X367425Y-403604D01*
X366233Y-404061D01*
X365073Y-404591D01*
X363949Y-405192D01*
X362865Y-405864D01*
X361826Y-406604D01*
X360836Y-407408D01*
X359899Y-408274D01*
X359019Y-409198D01*
X358199Y-410174D01*
X357443Y-411201D01*
X356754Y-412274D01*
X356133Y-413389D01*
X355585Y-414540D01*
X355111Y-415725D01*
X354713Y-416936D01*
X354393Y-418171D01*
X354151Y-419423D01*
X353990Y-420689D01*
X353909Y-421961D01*
X353909Y-423238D01*
X353990Y-424511D01*
X354151Y-425776D01*
X354393Y-427028D01*
X354713Y-428263D01*
X355111Y-429475D01*
X355585Y-430659D01*
X356133Y-431810D01*
X356754Y-432925D01*
X357443Y-433998D01*
X358199Y-435025D01*
X359019Y-436001D01*
X359899Y-436925D01*
X360836Y-437791D01*
X361826Y-438595D01*
X362865Y-439335D01*
X363949Y-440007D01*
X365073Y-440608D01*
X366233Y-441138D01*
X367425Y-441595D01*
X368643Y-441972D01*
X369882Y-442274D01*
X371138Y-442494D01*
X372406Y-442636D01*
G37*
G36*
X89180Y-423897D02*
G01*
X90455Y-423877D01*
X91727Y-423775D01*
X92989Y-423595D01*
X94238Y-423332D01*
X95467Y-422993D01*
X96672Y-422575D01*
X97849Y-422083D01*
X98992Y-421516D01*
X100096Y-420878D01*
X101158Y-420172D01*
X102173Y-419400D01*
X103137Y-418564D01*
X104046Y-417671D01*
X104896Y-416720D01*
X105685Y-415716D01*
X106408Y-414666D01*
X107063Y-413573D01*
X107648Y-412438D01*
X108159Y-411269D01*
X108595Y-410072D01*
X108955Y-408847D01*
X109236Y-407604D01*
X109438Y-406345D01*
X109559Y-405075D01*
X109599Y-403800D01*
X109559Y-402525D01*
X109438Y-401255D01*
X109236Y-399996D01*
X108955Y-398751D01*
X108595Y-397528D01*
X108159Y-396329D01*
X107648Y-395160D01*
X107063Y-394027D01*
X106408Y-392932D01*
X105685Y-391882D01*
X104896Y-390880D01*
X104046Y-389929D01*
X103137Y-389034D01*
X102173Y-388198D01*
X101158Y-387426D01*
X100096Y-386720D01*
X98992Y-386082D01*
X97849Y-385515D01*
X96672Y-385023D01*
X95467Y-384605D01*
X94238Y-384266D01*
X92989Y-384005D01*
X91727Y-383823D01*
X90455Y-383722D01*
X89180Y-383703D01*
X87906Y-383762D01*
X86638Y-383904D01*
X85382Y-384126D01*
X84143Y-384427D01*
X82925Y-384805D01*
X81733Y-385261D01*
X80573Y-385790D01*
X79449Y-386392D01*
X78365Y-387064D01*
X77326Y-387804D01*
X76336Y-388609D01*
X75399Y-389475D01*
X74519Y-390398D01*
X73699Y-391374D01*
X72943Y-392402D01*
X72254Y-393474D01*
X71633Y-394589D01*
X71085Y-395740D01*
X70611Y-396925D01*
X70213Y-398137D01*
X69893Y-399371D01*
X69651Y-400623D01*
X69490Y-401889D01*
X69409Y-403162D01*
X69409Y-404438D01*
X69490Y-405711D01*
X69651Y-406975D01*
X69893Y-408227D01*
X70213Y-409463D01*
X70611Y-410675D01*
X71085Y-411858D01*
X71633Y-413009D01*
X72254Y-414124D01*
X72943Y-415198D01*
X73699Y-416224D01*
X74519Y-417202D01*
X75399Y-418125D01*
X76336Y-418991D01*
X77326Y-419794D01*
X78365Y-420534D01*
X79449Y-421206D01*
X80573Y-421808D01*
X81733Y-422339D01*
X82925Y-422795D01*
X84143Y-423173D01*
X85382Y-423474D01*
X86638Y-423694D01*
X87906Y-423836D01*
G37*
G36*
X601980Y-380097D02*
G01*
X603255Y-380077D01*
X604527Y-379976D01*
X605789Y-379794D01*
X607038Y-379533D01*
X608267Y-379194D01*
X609472Y-378775D01*
X610649Y-378283D01*
X611792Y-377716D01*
X612896Y-377078D01*
X613958Y-376372D01*
X614973Y-375601D01*
X615937Y-374765D01*
X616846Y-373870D01*
X617696Y-372919D01*
X618485Y-371916D01*
X619208Y-370866D01*
X619863Y-369773D01*
X620448Y-368638D01*
X620959Y-367469D01*
X621395Y-366271D01*
X621755Y-365048D01*
X622036Y-363804D01*
X622237Y-362545D01*
X622359Y-361275D01*
X622399Y-360000D01*
X622359Y-358724D01*
X622237Y-357454D01*
X622036Y-356195D01*
X621755Y-354951D01*
X621395Y-353728D01*
X620959Y-352530D01*
X620448Y-351361D01*
X619863Y-350226D01*
X619208Y-349133D01*
X618485Y-348083D01*
X617696Y-347080D01*
X616846Y-346129D01*
X615937Y-345234D01*
X614973Y-344398D01*
X613958Y-343627D01*
X612896Y-342921D01*
X611792Y-342283D01*
X610649Y-341716D01*
X609472Y-341224D01*
X608267Y-340805D01*
X607038Y-340466D01*
X605789Y-340205D01*
X604527Y-340023D01*
X603255Y-339922D01*
X601980Y-339902D01*
X600706Y-339962D01*
X599438Y-340104D01*
X598182Y-340326D01*
X596943Y-340626D01*
X595725Y-341005D01*
X594533Y-341460D01*
X593373Y-341990D01*
X592249Y-342593D01*
X591165Y-343265D01*
X590126Y-344005D01*
X589136Y-344809D01*
X588199Y-345675D01*
X587319Y-346597D01*
X586499Y-347575D01*
X585743Y-348602D01*
X585054Y-349675D01*
X584433Y-350790D01*
X583885Y-351941D01*
X583411Y-353125D01*
X583013Y-354337D01*
X582693Y-355572D01*
X582451Y-356824D01*
X582290Y-358088D01*
X582209Y-359362D01*
X582209Y-360637D01*
X582290Y-361911D01*
X582451Y-363175D01*
X582693Y-364427D01*
X583013Y-365662D01*
X583411Y-366875D01*
X583885Y-368058D01*
X584433Y-369209D01*
X585054Y-370324D01*
X585743Y-371397D01*
X586499Y-372424D01*
X587319Y-373402D01*
X588199Y-374324D01*
X589136Y-375190D01*
X590126Y-375994D01*
X591165Y-376734D01*
X592249Y-377406D01*
X593373Y-378009D01*
X594533Y-378539D01*
X595725Y-378994D01*
X596943Y-379373D01*
X598182Y-379674D01*
X599438Y-379895D01*
X600706Y-380037D01*
G37*
G36*
X51980Y-380097D02*
G01*
X53255Y-380077D01*
X54527Y-379976D01*
X55789Y-379794D01*
X57038Y-379533D01*
X58267Y-379194D01*
X59472Y-378775D01*
X60649Y-378283D01*
X61792Y-377716D01*
X62896Y-377078D01*
X63958Y-376372D01*
X64973Y-375601D01*
X65937Y-374765D01*
X66846Y-373870D01*
X67696Y-372919D01*
X68485Y-371916D01*
X69208Y-370866D01*
X69863Y-369773D01*
X70448Y-368638D01*
X70959Y-367469D01*
X71395Y-366271D01*
X71755Y-365048D01*
X72036Y-363804D01*
X72237Y-362545D01*
X72359Y-361275D01*
X72399Y-360000D01*
X72359Y-358724D01*
X72237Y-357454D01*
X72036Y-356195D01*
X71755Y-354951D01*
X71395Y-353728D01*
X70959Y-352530D01*
X70448Y-351361D01*
X69863Y-350226D01*
X69208Y-349133D01*
X68485Y-348083D01*
X67696Y-347080D01*
X66846Y-346129D01*
X65937Y-345234D01*
X64973Y-344398D01*
X63958Y-343627D01*
X62896Y-342921D01*
X61792Y-342283D01*
X60649Y-341716D01*
X59472Y-341224D01*
X58267Y-340805D01*
X57038Y-340466D01*
X55789Y-340205D01*
X54527Y-340023D01*
X53255Y-339922D01*
X51980Y-339902D01*
X50706Y-339962D01*
X49438Y-340104D01*
X48182Y-340326D01*
X46943Y-340626D01*
X46549Y-340749D01*
X46755Y-340048D01*
X47036Y-338804D01*
X47237Y-337545D01*
X47359Y-336275D01*
X47399Y-335000D01*
X47359Y-333724D01*
X47237Y-332454D01*
X47036Y-331195D01*
X46755Y-329951D01*
X46395Y-328728D01*
X45959Y-327530D01*
X45448Y-326361D01*
X44863Y-325226D01*
X44208Y-324133D01*
X43485Y-323083D01*
X42696Y-322080D01*
X41846Y-321129D01*
X40937Y-320234D01*
X39973Y-319398D01*
X38958Y-318627D01*
X37896Y-317921D01*
X36792Y-317283D01*
X35649Y-316716D01*
X34472Y-316224D01*
X33267Y-315805D01*
X32038Y-315466D01*
X30789Y-315205D01*
X29527Y-315023D01*
X28255Y-314922D01*
X26980Y-314902D01*
X25706Y-314962D01*
X24438Y-315104D01*
X23182Y-315326D01*
X21943Y-315626D01*
X20725Y-316005D01*
X19533Y-316460D01*
X18373Y-316990D01*
X17249Y-317593D01*
X16165Y-318265D01*
X15126Y-319005D01*
X14136Y-319809D01*
X13199Y-320675D01*
X12319Y-321597D01*
X11499Y-322575D01*
X10743Y-323602D01*
X10054Y-324675D01*
X9433Y-325790D01*
X8885Y-326941D01*
X8411Y-328125D01*
X8013Y-329337D01*
X7693Y-330572D01*
X7451Y-331824D01*
X7290Y-333088D01*
X7209Y-334362D01*
X7209Y-335637D01*
X7290Y-336911D01*
X7451Y-338175D01*
X7693Y-339427D01*
X8013Y-340662D01*
X8411Y-341875D01*
X8885Y-343058D01*
X9433Y-344209D01*
X10054Y-345324D01*
X10743Y-346397D01*
X11499Y-347424D01*
X12319Y-348402D01*
X13199Y-349324D01*
X14136Y-350190D01*
X15126Y-350994D01*
X16165Y-351734D01*
X17249Y-352406D01*
X18373Y-353009D01*
X19533Y-353539D01*
X20725Y-353994D01*
X21943Y-354373D01*
X23182Y-354674D01*
X24438Y-354895D01*
X25706Y-355037D01*
X26980Y-355097D01*
X28255Y-355077D01*
X29527Y-354976D01*
X30789Y-354794D01*
X32038Y-354533D01*
X33039Y-354256D01*
X33013Y-354337D01*
X32693Y-355572D01*
X32451Y-356824D01*
X32290Y-358088D01*
X32209Y-359362D01*
X32209Y-360637D01*
X32290Y-361911D01*
X32451Y-363175D01*
X32693Y-364427D01*
X33013Y-365662D01*
X33411Y-366875D01*
X33885Y-368058D01*
X34433Y-369209D01*
X35054Y-370324D01*
X35743Y-371397D01*
X36499Y-372424D01*
X37319Y-373402D01*
X38199Y-374324D01*
X39136Y-375190D01*
X40126Y-375994D01*
X41165Y-376734D01*
X42249Y-377406D01*
X43373Y-378009D01*
X44533Y-378539D01*
X45725Y-378994D01*
X46943Y-379373D01*
X48182Y-379674D01*
X49438Y-379895D01*
X50706Y-380037D01*
G37*
G36*
X906980Y-365097D02*
G01*
X908255Y-365077D01*
X909527Y-364976D01*
X910789Y-364794D01*
X912038Y-364533D01*
X913267Y-364194D01*
X914472Y-363775D01*
X915649Y-363283D01*
X916792Y-362716D01*
X917896Y-362078D01*
X918958Y-361372D01*
X919973Y-360601D01*
X920937Y-359765D01*
X921846Y-358870D01*
X922696Y-357919D01*
X923485Y-356916D01*
X924208Y-355866D01*
X924863Y-354773D01*
X925448Y-353638D01*
X925959Y-352469D01*
X926395Y-351271D01*
X926755Y-350048D01*
X927036Y-348804D01*
X927237Y-347545D01*
X927359Y-346275D01*
X927399Y-345000D01*
X927359Y-343724D01*
X927237Y-342454D01*
X927036Y-341195D01*
X926755Y-339951D01*
X926395Y-338728D01*
X925959Y-337530D01*
X925448Y-336361D01*
X924863Y-335226D01*
X924208Y-334133D01*
X923485Y-333083D01*
X922696Y-332080D01*
X921846Y-331129D01*
X920937Y-330234D01*
X919973Y-329398D01*
X918958Y-328627D01*
X917896Y-327921D01*
X916792Y-327283D01*
X915649Y-326716D01*
X914472Y-326224D01*
X913267Y-325805D01*
X912038Y-325466D01*
X910789Y-325205D01*
X909527Y-325023D01*
X908255Y-324922D01*
X906980Y-324902D01*
X905706Y-324962D01*
X904438Y-325104D01*
X903182Y-325326D01*
X901943Y-325626D01*
X900725Y-326005D01*
X899533Y-326460D01*
X898373Y-326990D01*
X897249Y-327593D01*
X896165Y-328265D01*
X895126Y-329005D01*
X894136Y-329809D01*
X893199Y-330675D01*
X892319Y-331597D01*
X891499Y-332575D01*
X890743Y-333602D01*
X890054Y-334675D01*
X889433Y-335790D01*
X888885Y-336941D01*
X888411Y-338125D01*
X888013Y-339337D01*
X887693Y-340572D01*
X887451Y-341824D01*
X887290Y-343088D01*
X887209Y-344362D01*
X887209Y-345637D01*
X887290Y-346911D01*
X887451Y-348175D01*
X887693Y-349427D01*
X888013Y-350662D01*
X888411Y-351875D01*
X888885Y-353058D01*
X889433Y-354209D01*
X890054Y-355324D01*
X890743Y-356397D01*
X891499Y-357424D01*
X892319Y-358402D01*
X893199Y-359324D01*
X894136Y-360190D01*
X895126Y-360994D01*
X896165Y-361734D01*
X897249Y-362406D01*
X898373Y-363009D01*
X899533Y-363539D01*
X900725Y-363994D01*
X901943Y-364373D01*
X903182Y-364674D01*
X904438Y-364895D01*
X905706Y-365037D01*
G37*
G36*
X179680Y559902D02*
G01*
X180955Y559922D01*
X182227Y560023D01*
X183489Y560205D01*
X184738Y560466D01*
X185967Y560805D01*
X187172Y561224D01*
X188349Y561716D01*
X189492Y562283D01*
X190596Y562921D01*
X191658Y563627D01*
X192673Y564398D01*
X193637Y565234D01*
X194546Y566129D01*
X195396Y567080D01*
X196185Y568083D01*
X196908Y569133D01*
X197563Y570226D01*
X198148Y571361D01*
X198659Y572530D01*
X199095Y573728D01*
X199456Y574951D01*
X199736Y576195D01*
X199937Y577454D01*
X200059Y578724D01*
X200099Y580000D01*
X200059Y581275D01*
X199937Y582545D01*
X199736Y583804D01*
X199456Y585048D01*
X199095Y586271D01*
X198659Y587469D01*
X198148Y588638D01*
X197563Y589773D01*
X196908Y590866D01*
X196185Y591916D01*
X195396Y592919D01*
X194546Y593870D01*
X193637Y594765D01*
X192673Y595601D01*
X191658Y596372D01*
X190596Y597078D01*
X189492Y597716D01*
X188349Y598283D01*
X187172Y598775D01*
X185967Y599194D01*
X184738Y599533D01*
X183489Y599794D01*
X182227Y599976D01*
X180955Y600077D01*
X179680Y600097D01*
X178406Y600037D01*
X177138Y599895D01*
X175882Y599674D01*
X174643Y599373D01*
X173425Y598994D01*
X172233Y598539D01*
X171073Y598009D01*
X169949Y597406D01*
X168865Y596734D01*
X167826Y595994D01*
X166836Y595190D01*
X165899Y594324D01*
X165019Y593402D01*
X164199Y592424D01*
X163443Y591397D01*
X162754Y590324D01*
X162133Y589209D01*
X161585Y588058D01*
X161111Y586875D01*
X160713Y585662D01*
X160393Y584427D01*
X160151Y583175D01*
X159991Y581911D01*
X159909Y580637D01*
X159909Y579362D01*
X159991Y578089D01*
X160151Y576824D01*
X160393Y575572D01*
X160713Y574337D01*
X161111Y573125D01*
X161585Y571941D01*
X162133Y570790D01*
X162754Y569675D01*
X163443Y568602D01*
X164199Y567575D01*
X165019Y566597D01*
X165899Y565675D01*
X166836Y564809D01*
X167826Y564005D01*
X168865Y563265D01*
X169949Y562593D01*
X171073Y561990D01*
X172233Y561460D01*
X173425Y561005D01*
X174643Y560626D01*
X175882Y560326D01*
X177138Y560104D01*
X178406Y559962D01*
G37*
G36*
X99380Y546703D02*
G01*
X100655Y546723D01*
X101927Y546824D01*
X103189Y547004D01*
X104438Y547267D01*
X105667Y547606D01*
X106872Y548024D01*
X108049Y548515D01*
X109192Y549083D01*
X110296Y549720D01*
X111358Y550426D01*
X112373Y551199D01*
X113337Y552035D01*
X114246Y552928D01*
X115096Y553879D01*
X115885Y554882D01*
X116608Y555933D01*
X117263Y557026D01*
X117848Y558161D01*
X118359Y559329D01*
X118795Y560527D01*
X119155Y561752D01*
X119436Y562995D01*
X119637Y564254D01*
X119759Y565524D01*
X119799Y566799D01*
X119759Y568074D01*
X119637Y569344D01*
X119436Y570603D01*
X119155Y571848D01*
X118795Y573072D01*
X118359Y574270D01*
X117848Y575439D01*
X117263Y576572D01*
X116608Y577667D01*
X115885Y578717D01*
X115096Y579720D01*
X114246Y580671D01*
X113337Y581565D01*
X112373Y582400D01*
X111358Y583173D01*
X110296Y583879D01*
X109192Y584517D01*
X108049Y585084D01*
X106872Y585576D01*
X105667Y585994D01*
X104438Y586332D01*
X103189Y586595D01*
X101927Y586775D01*
X100655Y586876D01*
X99380Y586896D01*
X98106Y586837D01*
X96838Y586694D01*
X95582Y586473D01*
X94343Y586172D01*
X93125Y585794D01*
X91933Y585338D01*
X90773Y584809D01*
X89649Y584207D01*
X88565Y583535D01*
X87527Y582795D01*
X86536Y581990D01*
X85599Y581125D01*
X84719Y580201D01*
X83899Y579225D01*
X83143Y578198D01*
X82454Y577125D01*
X81833Y576010D01*
X81286Y574859D01*
X80811Y573674D01*
X80413Y572462D01*
X80093Y571228D01*
X79851Y569976D01*
X79690Y568710D01*
X79609Y567438D01*
X79609Y566161D01*
X79690Y564888D01*
X79851Y563623D01*
X80093Y562372D01*
X80413Y561136D01*
X80811Y559924D01*
X81286Y558741D01*
X81833Y557590D01*
X82454Y556475D01*
X83143Y555401D01*
X83899Y554375D01*
X84719Y553398D01*
X85599Y552474D01*
X86536Y551608D01*
X87527Y550805D01*
X88565Y550064D01*
X89649Y549393D01*
X90773Y548791D01*
X91933Y548261D01*
X93125Y547804D01*
X94343Y547426D01*
X95582Y547125D01*
X96838Y546905D01*
X98106Y546763D01*
G37*
G36*
X1076980Y-320097D02*
G01*
X1078255Y-320077D01*
X1079527Y-319976D01*
X1080789Y-319794D01*
X1082038Y-319533D01*
X1083267Y-319194D01*
X1084472Y-318775D01*
X1085649Y-318283D01*
X1086792Y-317716D01*
X1087896Y-317078D01*
X1088958Y-316372D01*
X1089973Y-315601D01*
X1090937Y-314765D01*
X1091846Y-313870D01*
X1092696Y-312919D01*
X1093485Y-311916D01*
X1094208Y-310866D01*
X1094863Y-309773D01*
X1095448Y-308638D01*
X1095959Y-307469D01*
X1096395Y-306271D01*
X1096755Y-305048D01*
X1097036Y-303804D01*
X1097237Y-302545D01*
X1097359Y-301275D01*
X1097399Y-300000D01*
X1097359Y-298724D01*
X1097237Y-297454D01*
X1097036Y-296195D01*
X1096755Y-294951D01*
X1096395Y-293728D01*
X1095959Y-292530D01*
X1095448Y-291361D01*
X1094863Y-290226D01*
X1094208Y-289133D01*
X1093485Y-288083D01*
X1092696Y-287080D01*
X1091846Y-286129D01*
X1090937Y-285234D01*
X1089973Y-284398D01*
X1088958Y-283627D01*
X1087896Y-282921D01*
X1086792Y-282283D01*
X1085649Y-281716D01*
X1084472Y-281224D01*
X1083267Y-280805D01*
X1082038Y-280466D01*
X1080789Y-280205D01*
X1079527Y-280023D01*
X1078255Y-279922D01*
X1076980Y-279902D01*
X1075706Y-279962D01*
X1074438Y-280104D01*
X1073182Y-280326D01*
X1071943Y-280626D01*
X1070725Y-281005D01*
X1069533Y-281460D01*
X1068373Y-281990D01*
X1067249Y-282593D01*
X1066165Y-283265D01*
X1065126Y-284005D01*
X1064136Y-284809D01*
X1063199Y-285675D01*
X1062319Y-286597D01*
X1061499Y-287575D01*
X1060743Y-288602D01*
X1060054Y-289675D01*
X1059433Y-290790D01*
X1058885Y-291941D01*
X1058411Y-293125D01*
X1058013Y-294337D01*
X1057693Y-295572D01*
X1057451Y-296824D01*
X1057290Y-298088D01*
X1057209Y-299362D01*
X1057209Y-300637D01*
X1057290Y-301911D01*
X1057451Y-303175D01*
X1057693Y-304427D01*
X1058013Y-305662D01*
X1058411Y-306875D01*
X1058885Y-308058D01*
X1059433Y-309209D01*
X1060054Y-310324D01*
X1060743Y-311397D01*
X1061499Y-312424D01*
X1062319Y-313402D01*
X1063199Y-314324D01*
X1064136Y-315190D01*
X1065126Y-315994D01*
X1066165Y-316734D01*
X1067249Y-317406D01*
X1068373Y-318009D01*
X1069533Y-318539D01*
X1070725Y-318994D01*
X1071943Y-319373D01*
X1073182Y-319674D01*
X1074438Y-319895D01*
X1075706Y-320037D01*
G37*
G36*
X522780Y-312896D02*
G01*
X524055Y-312876D01*
X525327Y-312775D01*
X526589Y-312595D01*
X527838Y-312332D01*
X529067Y-311993D01*
X530272Y-311576D01*
X531449Y-311084D01*
X532592Y-310516D01*
X533696Y-309879D01*
X534758Y-309173D01*
X535773Y-308400D01*
X536737Y-307564D01*
X537646Y-306671D01*
X538496Y-305720D01*
X539285Y-304717D01*
X540009Y-303667D01*
X540663Y-302573D01*
X541248Y-301439D01*
X541759Y-300270D01*
X542195Y-299072D01*
X542555Y-297847D01*
X542836Y-296604D01*
X543037Y-295345D01*
X543159Y-294074D01*
X543199Y-292800D01*
X543159Y-291525D01*
X543037Y-290255D01*
X542836Y-288996D01*
X542555Y-287752D01*
X542195Y-286527D01*
X541759Y-285329D01*
X541248Y-284160D01*
X540663Y-283027D01*
X540009Y-281932D01*
X539285Y-280882D01*
X538496Y-279879D01*
X537646Y-278928D01*
X536737Y-278034D01*
X535773Y-277199D01*
X534758Y-276426D01*
X533696Y-275720D01*
X532592Y-275082D01*
X531449Y-274515D01*
X530272Y-274023D01*
X529067Y-273605D01*
X527838Y-273267D01*
X526589Y-273004D01*
X525327Y-272824D01*
X524055Y-272723D01*
X522780Y-272703D01*
X521506Y-272762D01*
X520238Y-272905D01*
X518982Y-273126D01*
X517743Y-273427D01*
X516525Y-273805D01*
X515333Y-274261D01*
X514173Y-274791D01*
X513049Y-275392D01*
X511965Y-276064D01*
X510926Y-276804D01*
X509936Y-277609D01*
X508999Y-278474D01*
X508119Y-279398D01*
X507299Y-280374D01*
X506543Y-281401D01*
X505854Y-282474D01*
X505233Y-283589D01*
X504685Y-284740D01*
X504211Y-285925D01*
X503813Y-287136D01*
X503493Y-288371D01*
X503251Y-289623D01*
X503090Y-290889D01*
X503009Y-292161D01*
X503009Y-293438D01*
X503090Y-294711D01*
X503251Y-295976D01*
X503493Y-297228D01*
X503813Y-298463D01*
X504211Y-299675D01*
X504685Y-300859D01*
X505233Y-302010D01*
X505854Y-303125D01*
X506543Y-304198D01*
X507299Y-305225D01*
X508119Y-306201D01*
X508999Y-307125D01*
X509936Y-307991D01*
X510926Y-308795D01*
X511965Y-309535D01*
X513049Y-310207D01*
X514173Y-310808D01*
X515333Y-311338D01*
X516525Y-311795D01*
X517743Y-312172D01*
X518982Y-312474D01*
X520238Y-312694D01*
X521506Y-312836D01*
G37*
G36*
X47480Y-298296D02*
G01*
X48755Y-298276D01*
X50027Y-298175D01*
X51289Y-297995D01*
X52538Y-297732D01*
X53768Y-297393D01*
X54972Y-296975D01*
X56149Y-296484D01*
X57292Y-295916D01*
X58396Y-295279D01*
X59458Y-294573D01*
X60473Y-293800D01*
X61437Y-292964D01*
X62346Y-292071D01*
X63197Y-291120D01*
X63985Y-290117D01*
X64708Y-289067D01*
X65363Y-287973D01*
X65948Y-286838D01*
X66459Y-285670D01*
X66895Y-284472D01*
X67255Y-283247D01*
X67536Y-282004D01*
X67737Y-280745D01*
X67859Y-279475D01*
X67899Y-278200D01*
X67859Y-276925D01*
X67737Y-275655D01*
X67536Y-274396D01*
X67255Y-273152D01*
X66895Y-271927D01*
X66459Y-270729D01*
X65948Y-269560D01*
X65363Y-268427D01*
X64708Y-267332D01*
X63985Y-266282D01*
X63197Y-265279D01*
X62346Y-264328D01*
X61437Y-263434D01*
X60473Y-262599D01*
X59458Y-261826D01*
X58396Y-261120D01*
X57292Y-260482D01*
X56149Y-259915D01*
X54972Y-259423D01*
X53768Y-259005D01*
X52538Y-258667D01*
X51289Y-258404D01*
X50027Y-258224D01*
X48755Y-258123D01*
X47480Y-258103D01*
X46206Y-258162D01*
X44938Y-258305D01*
X43682Y-258526D01*
X42443Y-258827D01*
X41225Y-259205D01*
X40033Y-259661D01*
X38873Y-260190D01*
X37749Y-260792D01*
X36665Y-261464D01*
X35626Y-262204D01*
X34636Y-263009D01*
X33699Y-263874D01*
X32819Y-264798D01*
X31999Y-265774D01*
X31243Y-266801D01*
X30554Y-267874D01*
X29933Y-268989D01*
X29385Y-270140D01*
X28911Y-271325D01*
X28513Y-272537D01*
X28193Y-273771D01*
X27951Y-275023D01*
X27790Y-276289D01*
X27709Y-277561D01*
X27709Y-278838D01*
X27790Y-280111D01*
X27951Y-281376D01*
X28193Y-282627D01*
X28513Y-283863D01*
X28911Y-285075D01*
X29385Y-286259D01*
X29933Y-287409D01*
X30554Y-288524D01*
X31243Y-289598D01*
X31999Y-290625D01*
X32819Y-291601D01*
X33699Y-292525D01*
X34636Y-293391D01*
X35626Y-294194D01*
X36665Y-294935D01*
X37749Y-295607D01*
X38873Y-296208D01*
X40033Y-296738D01*
X41225Y-297195D01*
X42443Y-297573D01*
X43682Y-297874D01*
X44938Y-298094D01*
X46206Y-298236D01*
G37*
G36*
X429680Y-260097D02*
G01*
X430955Y-260077D01*
X432227Y-259976D01*
X433489Y-259794D01*
X434738Y-259533D01*
X435967Y-259194D01*
X437172Y-258775D01*
X438349Y-258283D01*
X439492Y-257716D01*
X440596Y-257078D01*
X441658Y-256372D01*
X442673Y-255601D01*
X443637Y-254765D01*
X444546Y-253870D01*
X445396Y-252919D01*
X446185Y-251916D01*
X446908Y-250866D01*
X447563Y-249773D01*
X448148Y-248638D01*
X448659Y-247469D01*
X449095Y-246271D01*
X449456Y-245048D01*
X449736Y-243804D01*
X449937Y-242545D01*
X450059Y-241275D01*
X450099Y-240000D01*
X450059Y-238724D01*
X449937Y-237454D01*
X449736Y-236195D01*
X449456Y-234951D01*
X449095Y-233728D01*
X448659Y-232530D01*
X448148Y-231361D01*
X447563Y-230226D01*
X446908Y-229133D01*
X446185Y-228083D01*
X445396Y-227080D01*
X444546Y-226129D01*
X443637Y-225234D01*
X442673Y-224398D01*
X441658Y-223627D01*
X440596Y-222921D01*
X439492Y-222283D01*
X438349Y-221716D01*
X437172Y-221224D01*
X435967Y-220805D01*
X434738Y-220466D01*
X433489Y-220205D01*
X432227Y-220023D01*
X430955Y-219922D01*
X429680Y-219902D01*
X428406Y-219962D01*
X427138Y-220104D01*
X425882Y-220326D01*
X424643Y-220626D01*
X423425Y-221005D01*
X422233Y-221460D01*
X421073Y-221990D01*
X419949Y-222593D01*
X418865Y-223265D01*
X417826Y-224005D01*
X416836Y-224809D01*
X415899Y-225675D01*
X415019Y-226597D01*
X414199Y-227575D01*
X413443Y-228602D01*
X412754Y-229675D01*
X412133Y-230790D01*
X411585Y-231941D01*
X411111Y-233125D01*
X410713Y-234337D01*
X410393Y-235572D01*
X410151Y-236824D01*
X409991Y-238088D01*
X409909Y-239362D01*
X409909Y-240637D01*
X409991Y-241911D01*
X410151Y-243175D01*
X410393Y-244427D01*
X410713Y-245662D01*
X411111Y-246875D01*
X411585Y-248058D01*
X412133Y-249209D01*
X412754Y-250324D01*
X413443Y-251397D01*
X414199Y-252424D01*
X415019Y-253402D01*
X415899Y-254324D01*
X416836Y-255190D01*
X417826Y-255994D01*
X418865Y-256734D01*
X419949Y-257406D01*
X421073Y-258009D01*
X422233Y-258539D01*
X423425Y-258994D01*
X424643Y-259373D01*
X425882Y-259673D01*
X427138Y-259895D01*
X428406Y-260037D01*
G37*
G36*
X474680Y-240097D02*
G01*
X475955Y-240077D01*
X477227Y-239976D01*
X478489Y-239794D01*
X479738Y-239533D01*
X480967Y-239194D01*
X482172Y-238775D01*
X483349Y-238283D01*
X484492Y-237716D01*
X485596Y-237078D01*
X486658Y-236372D01*
X487673Y-235601D01*
X488637Y-234765D01*
X489546Y-233870D01*
X490396Y-232919D01*
X491185Y-231916D01*
X491908Y-230866D01*
X492563Y-229773D01*
X493148Y-228638D01*
X493659Y-227469D01*
X494095Y-226271D01*
X494456Y-225048D01*
X494736Y-223804D01*
X494937Y-222545D01*
X495059Y-221275D01*
X495099Y-220000D01*
X495059Y-218724D01*
X494937Y-217454D01*
X494736Y-216195D01*
X494456Y-214951D01*
X494095Y-213728D01*
X493659Y-212530D01*
X493148Y-211361D01*
X492563Y-210226D01*
X491908Y-209133D01*
X491185Y-208083D01*
X490396Y-207080D01*
X489546Y-206129D01*
X488637Y-205234D01*
X487673Y-204398D01*
X486658Y-203627D01*
X485596Y-202921D01*
X484492Y-202283D01*
X483349Y-201716D01*
X482172Y-201224D01*
X480967Y-200805D01*
X479738Y-200466D01*
X478489Y-200205D01*
X477227Y-200023D01*
X475955Y-199922D01*
X474680Y-199902D01*
X473406Y-199962D01*
X472138Y-200104D01*
X470882Y-200326D01*
X469643Y-200626D01*
X468425Y-201005D01*
X467233Y-201460D01*
X466073Y-201990D01*
X464949Y-202593D01*
X463865Y-203265D01*
X462826Y-204005D01*
X461836Y-204809D01*
X460899Y-205675D01*
X460019Y-206597D01*
X459199Y-207575D01*
X458443Y-208602D01*
X457754Y-209675D01*
X457133Y-210790D01*
X456585Y-211941D01*
X456111Y-213125D01*
X455713Y-214337D01*
X455393Y-215572D01*
X455151Y-216824D01*
X454991Y-218088D01*
X454909Y-219362D01*
X454909Y-220637D01*
X454991Y-221911D01*
X455151Y-223175D01*
X455393Y-224427D01*
X455713Y-225662D01*
X456111Y-226875D01*
X456585Y-228058D01*
X457133Y-229209D01*
X457754Y-230324D01*
X458443Y-231397D01*
X459199Y-232424D01*
X460019Y-233402D01*
X460899Y-234324D01*
X461836Y-235190D01*
X462826Y-235994D01*
X463865Y-236734D01*
X464949Y-237406D01*
X466073Y-238009D01*
X467233Y-238539D01*
X468425Y-238994D01*
X469643Y-239373D01*
X470882Y-239673D01*
X472138Y-239895D01*
X473406Y-240037D01*
G37*
G36*
X521980Y-235097D02*
G01*
X523255Y-235077D01*
X524527Y-234976D01*
X525789Y-234794D01*
X527038Y-234533D01*
X528267Y-234194D01*
X529472Y-233775D01*
X530649Y-233283D01*
X531792Y-232716D01*
X532896Y-232078D01*
X533958Y-231372D01*
X534973Y-230601D01*
X535937Y-229765D01*
X536846Y-228870D01*
X537696Y-227919D01*
X538485Y-226916D01*
X539208Y-225866D01*
X539863Y-224773D01*
X540448Y-223638D01*
X540959Y-222469D01*
X541395Y-221271D01*
X541755Y-220048D01*
X542036Y-218804D01*
X542237Y-217545D01*
X542359Y-216275D01*
X542399Y-215000D01*
X542359Y-213724D01*
X542237Y-212454D01*
X542036Y-211195D01*
X541755Y-209951D01*
X541395Y-208728D01*
X540959Y-207530D01*
X540448Y-206361D01*
X539863Y-205226D01*
X539208Y-204133D01*
X538485Y-203083D01*
X537696Y-202080D01*
X536846Y-201129D01*
X535937Y-200234D01*
X534973Y-199398D01*
X533958Y-198627D01*
X532896Y-197921D01*
X531792Y-197283D01*
X530649Y-196716D01*
X529472Y-196224D01*
X528267Y-195805D01*
X527038Y-195466D01*
X525789Y-195205D01*
X524527Y-195023D01*
X523255Y-194922D01*
X521980Y-194902D01*
X520706Y-194962D01*
X519438Y-195104D01*
X518182Y-195326D01*
X516943Y-195626D01*
X515725Y-196005D01*
X514533Y-196460D01*
X513373Y-196990D01*
X512249Y-197593D01*
X511165Y-198265D01*
X510126Y-199005D01*
X509136Y-199809D01*
X508199Y-200675D01*
X507319Y-201597D01*
X506499Y-202575D01*
X505743Y-203602D01*
X505054Y-204675D01*
X504433Y-205790D01*
X503885Y-206941D01*
X503411Y-208125D01*
X503013Y-209337D01*
X502693Y-210572D01*
X502451Y-211824D01*
X502290Y-213088D01*
X502209Y-214362D01*
X502209Y-215637D01*
X502290Y-216911D01*
X502451Y-218175D01*
X502693Y-219427D01*
X503013Y-220662D01*
X503411Y-221875D01*
X503885Y-223058D01*
X504433Y-224209D01*
X505054Y-225324D01*
X505743Y-226397D01*
X506499Y-227424D01*
X507319Y-228402D01*
X508199Y-229324D01*
X509136Y-230190D01*
X510126Y-230994D01*
X511165Y-231734D01*
X512249Y-232406D01*
X513373Y-233009D01*
X514533Y-233539D01*
X515725Y-233994D01*
X516943Y-234373D01*
X518182Y-234673D01*
X519438Y-234895D01*
X520706Y-235037D01*
G37*
G36*
X1116980Y-225097D02*
G01*
X1118255Y-225077D01*
X1119527Y-224976D01*
X1120789Y-224794D01*
X1122038Y-224533D01*
X1123267Y-224194D01*
X1124472Y-223775D01*
X1125649Y-223283D01*
X1126792Y-222716D01*
X1127896Y-222078D01*
X1128958Y-221372D01*
X1129973Y-220601D01*
X1130937Y-219765D01*
X1131846Y-218870D01*
X1132696Y-217919D01*
X1133485Y-216916D01*
X1134208Y-215866D01*
X1134863Y-214773D01*
X1135448Y-213638D01*
X1135959Y-212469D01*
X1136395Y-211271D01*
X1136755Y-210048D01*
X1137036Y-208804D01*
X1137237Y-207545D01*
X1137359Y-206275D01*
X1137399Y-205000D01*
X1137359Y-203724D01*
X1137237Y-202454D01*
X1137036Y-201195D01*
X1136755Y-199951D01*
X1136395Y-198728D01*
X1135959Y-197530D01*
X1135448Y-196361D01*
X1134863Y-195226D01*
X1134208Y-194133D01*
X1133485Y-193083D01*
X1132696Y-192080D01*
X1131846Y-191129D01*
X1130937Y-190234D01*
X1129973Y-189398D01*
X1128958Y-188627D01*
X1127896Y-187921D01*
X1126792Y-187283D01*
X1125649Y-186716D01*
X1124472Y-186224D01*
X1123267Y-185805D01*
X1122038Y-185466D01*
X1120789Y-185205D01*
X1119527Y-185023D01*
X1118255Y-184922D01*
X1116980Y-184902D01*
X1115706Y-184962D01*
X1114438Y-185104D01*
X1113182Y-185326D01*
X1111943Y-185626D01*
X1110725Y-186005D01*
X1109533Y-186460D01*
X1108373Y-186990D01*
X1107249Y-187593D01*
X1106165Y-188265D01*
X1105126Y-189005D01*
X1104136Y-189809D01*
X1103199Y-190675D01*
X1102319Y-191597D01*
X1101499Y-192575D01*
X1100743Y-193602D01*
X1100054Y-194675D01*
X1099433Y-195790D01*
X1098885Y-196941D01*
X1098411Y-198125D01*
X1098013Y-199337D01*
X1097693Y-200572D01*
X1097451Y-201824D01*
X1097290Y-203088D01*
X1097209Y-204362D01*
X1097209Y-205637D01*
X1097290Y-206911D01*
X1097451Y-208175D01*
X1097693Y-209427D01*
X1098013Y-210662D01*
X1098411Y-211875D01*
X1098885Y-213058D01*
X1099433Y-214209D01*
X1100054Y-215324D01*
X1100743Y-216397D01*
X1101499Y-217424D01*
X1102319Y-218402D01*
X1103199Y-219324D01*
X1104136Y-220190D01*
X1105126Y-220994D01*
X1106165Y-221734D01*
X1107249Y-222406D01*
X1108373Y-223009D01*
X1109533Y-223539D01*
X1110725Y-223994D01*
X1111943Y-224373D01*
X1113182Y-224673D01*
X1114438Y-224895D01*
X1115706Y-225037D01*
G37*
G36*
X1001980Y-220097D02*
G01*
X1003255Y-220077D01*
X1004527Y-219976D01*
X1005789Y-219794D01*
X1007038Y-219533D01*
X1008267Y-219194D01*
X1009472Y-218775D01*
X1010649Y-218283D01*
X1011792Y-217716D01*
X1012896Y-217078D01*
X1013958Y-216372D01*
X1014973Y-215601D01*
X1015937Y-214765D01*
X1016846Y-213870D01*
X1017696Y-212919D01*
X1018485Y-211916D01*
X1019208Y-210866D01*
X1019863Y-209773D01*
X1020448Y-208638D01*
X1020959Y-207469D01*
X1021395Y-206271D01*
X1021755Y-205048D01*
X1022036Y-203804D01*
X1022237Y-202545D01*
X1022359Y-201275D01*
X1022399Y-200000D01*
X1022359Y-198724D01*
X1022237Y-197454D01*
X1022036Y-196195D01*
X1021755Y-194951D01*
X1021395Y-193728D01*
X1020959Y-192530D01*
X1020448Y-191361D01*
X1019863Y-190226D01*
X1019208Y-189133D01*
X1018485Y-188083D01*
X1017696Y-187080D01*
X1016846Y-186129D01*
X1015937Y-185234D01*
X1014973Y-184398D01*
X1013958Y-183627D01*
X1012896Y-182921D01*
X1011792Y-182283D01*
X1010649Y-181716D01*
X1009472Y-181224D01*
X1008267Y-180805D01*
X1007038Y-180466D01*
X1005789Y-180205D01*
X1004527Y-180023D01*
X1003255Y-179922D01*
X1001980Y-179902D01*
X1000706Y-179962D01*
X999438Y-180104D01*
X998182Y-180326D01*
X996943Y-180626D01*
X995725Y-181005D01*
X994533Y-181460D01*
X993373Y-181990D01*
X992249Y-182593D01*
X991165Y-183265D01*
X990126Y-184005D01*
X989136Y-184809D01*
X988199Y-185675D01*
X987319Y-186597D01*
X986499Y-187575D01*
X985743Y-188602D01*
X985054Y-189675D01*
X984433Y-190790D01*
X983885Y-191941D01*
X983411Y-193125D01*
X983013Y-194337D01*
X982693Y-195572D01*
X982451Y-196824D01*
X982290Y-198088D01*
X982209Y-199362D01*
X982209Y-200637D01*
X982290Y-201911D01*
X982451Y-203175D01*
X982693Y-204427D01*
X983013Y-205662D01*
X983411Y-206875D01*
X983885Y-208058D01*
X984433Y-209209D01*
X985054Y-210324D01*
X985743Y-211397D01*
X986499Y-212424D01*
X987319Y-213402D01*
X988199Y-214324D01*
X989136Y-215190D01*
X990126Y-215994D01*
X991165Y-216734D01*
X992249Y-217406D01*
X993373Y-218009D01*
X994533Y-218539D01*
X995725Y-218994D01*
X996943Y-219373D01*
X998182Y-219673D01*
X999438Y-219895D01*
X1000706Y-220037D01*
G37*
G36*
X716980Y-200097D02*
G01*
X718255Y-200077D01*
X719527Y-199976D01*
X720789Y-199794D01*
X722038Y-199533D01*
X723267Y-199194D01*
X724472Y-198775D01*
X725649Y-198283D01*
X726792Y-197716D01*
X727896Y-197078D01*
X728958Y-196372D01*
X729973Y-195601D01*
X730937Y-194765D01*
X731846Y-193870D01*
X732696Y-192919D01*
X733485Y-191916D01*
X734208Y-190866D01*
X734863Y-189773D01*
X735448Y-188638D01*
X735959Y-187469D01*
X736395Y-186271D01*
X736755Y-185048D01*
X737036Y-183804D01*
X737237Y-182545D01*
X737359Y-181275D01*
X737399Y-180000D01*
X737359Y-178724D01*
X737237Y-177454D01*
X737036Y-176195D01*
X736755Y-174951D01*
X736395Y-173728D01*
X735959Y-172530D01*
X735448Y-171361D01*
X734863Y-170226D01*
X734208Y-169133D01*
X733485Y-168083D01*
X732696Y-167080D01*
X731846Y-166129D01*
X730937Y-165234D01*
X729973Y-164398D01*
X728958Y-163627D01*
X727896Y-162921D01*
X726792Y-162283D01*
X725649Y-161716D01*
X724472Y-161224D01*
X723267Y-160805D01*
X722038Y-160466D01*
X720789Y-160205D01*
X719527Y-160023D01*
X718255Y-159922D01*
X716980Y-159902D01*
X715706Y-159962D01*
X714438Y-160104D01*
X713182Y-160326D01*
X711943Y-160626D01*
X710725Y-161005D01*
X709533Y-161460D01*
X708373Y-161990D01*
X707249Y-162593D01*
X706165Y-163265D01*
X705126Y-164005D01*
X704136Y-164809D01*
X703199Y-165675D01*
X702319Y-166597D01*
X701499Y-167575D01*
X700743Y-168602D01*
X700054Y-169675D01*
X699433Y-170790D01*
X698885Y-171941D01*
X698411Y-173125D01*
X698013Y-174337D01*
X697693Y-175572D01*
X697451Y-176824D01*
X697290Y-178088D01*
X697209Y-179362D01*
X697209Y-180637D01*
X697290Y-181911D01*
X697451Y-183175D01*
X697693Y-184427D01*
X698013Y-185662D01*
X698411Y-186875D01*
X698885Y-188058D01*
X699433Y-189209D01*
X700054Y-190324D01*
X700743Y-191397D01*
X701499Y-192424D01*
X702319Y-193402D01*
X703199Y-194324D01*
X704136Y-195190D01*
X705126Y-195994D01*
X706165Y-196734D01*
X707249Y-197406D01*
X708373Y-198009D01*
X709533Y-198539D01*
X710725Y-198994D01*
X711943Y-199373D01*
X713182Y-199673D01*
X714438Y-199895D01*
X715706Y-200037D01*
G37*
G36*
X303480Y-192896D02*
G01*
X304755Y-192876D01*
X306027Y-192775D01*
X307289Y-192595D01*
X308538Y-192332D01*
X309767Y-191993D01*
X310972Y-191576D01*
X312149Y-191084D01*
X313292Y-190516D01*
X314396Y-189879D01*
X315458Y-189173D01*
X316473Y-188400D01*
X317437Y-187564D01*
X318346Y-186671D01*
X319196Y-185720D01*
X319985Y-184717D01*
X320708Y-183667D01*
X321363Y-182573D01*
X321948Y-181439D01*
X322459Y-180270D01*
X322895Y-179072D01*
X323255Y-177847D01*
X323536Y-176604D01*
X323737Y-175345D01*
X323859Y-174074D01*
X323899Y-172800D01*
X323859Y-171525D01*
X323737Y-170255D01*
X323536Y-168996D01*
X323255Y-167752D01*
X322895Y-166527D01*
X322459Y-165329D01*
X321948Y-164160D01*
X321363Y-163027D01*
X320708Y-161932D01*
X319985Y-160882D01*
X319196Y-159879D01*
X318346Y-158928D01*
X317437Y-158034D01*
X316473Y-157199D01*
X315458Y-156426D01*
X314396Y-155720D01*
X313292Y-155082D01*
X312149Y-154515D01*
X310972Y-154023D01*
X309767Y-153605D01*
X308538Y-153267D01*
X307289Y-153004D01*
X306027Y-152824D01*
X304755Y-152723D01*
X303480Y-152703D01*
X302206Y-152762D01*
X300938Y-152905D01*
X299682Y-153126D01*
X298443Y-153427D01*
X297225Y-153805D01*
X296033Y-154261D01*
X294873Y-154791D01*
X293750Y-155392D01*
X292665Y-156064D01*
X291626Y-156804D01*
X290636Y-157609D01*
X289699Y-158474D01*
X288819Y-159398D01*
X287999Y-160374D01*
X287243Y-161401D01*
X286554Y-162474D01*
X285933Y-163589D01*
X285385Y-164740D01*
X284911Y-165925D01*
X284513Y-167136D01*
X284193Y-168371D01*
X283951Y-169623D01*
X283790Y-170889D01*
X283709Y-172161D01*
X283709Y-173438D01*
X283790Y-174711D01*
X283951Y-175976D01*
X284193Y-177228D01*
X284513Y-178463D01*
X284911Y-179675D01*
X285385Y-180859D01*
X285933Y-182010D01*
X286554Y-183125D01*
X287243Y-184198D01*
X287999Y-185225D01*
X288819Y-186201D01*
X289699Y-187125D01*
X290636Y-187991D01*
X291626Y-188795D01*
X292665Y-189535D01*
X293750Y-190207D01*
X294873Y-190808D01*
X296033Y-191338D01*
X297225Y-191795D01*
X298443Y-192172D01*
X299682Y-192474D01*
X300938Y-192694D01*
X302206Y-192836D01*
G37*
G36*
X969680Y-155097D02*
G01*
X970955Y-155077D01*
X972227Y-154976D01*
X973489Y-154794D01*
X974738Y-154533D01*
X975967Y-154194D01*
X977172Y-153775D01*
X978349Y-153283D01*
X979492Y-152716D01*
X980596Y-152078D01*
X981658Y-151372D01*
X982673Y-150601D01*
X983637Y-149765D01*
X984546Y-148870D01*
X985396Y-147919D01*
X986185Y-146916D01*
X986908Y-145866D01*
X987563Y-144773D01*
X988148Y-143638D01*
X988659Y-142469D01*
X989095Y-141271D01*
X989456Y-140048D01*
X989736Y-138804D01*
X989937Y-137545D01*
X990059Y-136275D01*
X990099Y-135000D01*
X990059Y-133724D01*
X989937Y-132454D01*
X989736Y-131195D01*
X989456Y-129951D01*
X989095Y-128728D01*
X988659Y-127530D01*
X988148Y-126361D01*
X987563Y-125226D01*
X986908Y-124133D01*
X986185Y-123083D01*
X985396Y-122080D01*
X984546Y-121129D01*
X983637Y-120234D01*
X982673Y-119398D01*
X981658Y-118627D01*
X980596Y-117921D01*
X979492Y-117283D01*
X978349Y-116716D01*
X977172Y-116224D01*
X975967Y-115805D01*
X974738Y-115466D01*
X973489Y-115205D01*
X972227Y-115023D01*
X970955Y-114922D01*
X969680Y-114902D01*
X968406Y-114962D01*
X967138Y-115104D01*
X965882Y-115326D01*
X964643Y-115626D01*
X963425Y-116005D01*
X962233Y-116460D01*
X961073Y-116990D01*
X959949Y-117593D01*
X958865Y-118265D01*
X957826Y-119005D01*
X956836Y-119809D01*
X955899Y-120675D01*
X955019Y-121597D01*
X954199Y-122575D01*
X953443Y-123602D01*
X952754Y-124675D01*
X952133Y-125790D01*
X951585Y-126941D01*
X951111Y-128125D01*
X950713Y-129337D01*
X950393Y-130572D01*
X950151Y-131824D01*
X949991Y-133088D01*
X949909Y-134362D01*
X949909Y-135637D01*
X949991Y-136911D01*
X950151Y-138175D01*
X950393Y-139427D01*
X950713Y-140662D01*
X951111Y-141875D01*
X951585Y-143058D01*
X952133Y-144209D01*
X952754Y-145324D01*
X953443Y-146397D01*
X954199Y-147424D01*
X955019Y-148402D01*
X955899Y-149324D01*
X956836Y-150190D01*
X957826Y-150994D01*
X958865Y-151734D01*
X959949Y-152406D01*
X961073Y-153009D01*
X962233Y-153539D01*
X963425Y-153994D01*
X964643Y-154373D01*
X965882Y-154673D01*
X967138Y-154895D01*
X968406Y-155037D01*
G37*
G36*
X936980Y-130097D02*
G01*
X938255Y-130077D01*
X939527Y-129976D01*
X940789Y-129794D01*
X942038Y-129533D01*
X943267Y-129194D01*
X944472Y-128775D01*
X945649Y-128283D01*
X946792Y-127716D01*
X947896Y-127078D01*
X948958Y-126372D01*
X949973Y-125601D01*
X950937Y-124765D01*
X951846Y-123870D01*
X952696Y-122919D01*
X953485Y-121916D01*
X954208Y-120866D01*
X954863Y-119773D01*
X955448Y-118638D01*
X955959Y-117469D01*
X956395Y-116271D01*
X956755Y-115048D01*
X957036Y-113804D01*
X957237Y-112545D01*
X957359Y-111275D01*
X957399Y-110000D01*
X957359Y-108724D01*
X957237Y-107454D01*
X957036Y-106195D01*
X956755Y-104951D01*
X956549Y-104250D01*
X956943Y-104373D01*
X958182Y-104673D01*
X959438Y-104895D01*
X960706Y-105037D01*
X961980Y-105097D01*
X963255Y-105077D01*
X964527Y-104976D01*
X965789Y-104794D01*
X967038Y-104533D01*
X968267Y-104194D01*
X969472Y-103775D01*
X970649Y-103283D01*
X971792Y-102716D01*
X972896Y-102078D01*
X973958Y-101372D01*
X974973Y-100601D01*
X975937Y-99765D01*
X976846Y-98870D01*
X977696Y-97919D01*
X978485Y-96916D01*
X979208Y-95866D01*
X979863Y-94773D01*
X980448Y-93638D01*
X980959Y-92469D01*
X981395Y-91271D01*
X981755Y-90048D01*
X982036Y-88804D01*
X982237Y-87545D01*
X982359Y-86275D01*
X982399Y-85000D01*
X982359Y-83724D01*
X982237Y-82454D01*
X982036Y-81195D01*
X981755Y-79951D01*
X981395Y-78728D01*
X980959Y-77530D01*
X980448Y-76361D01*
X979863Y-75226D01*
X979208Y-74133D01*
X978485Y-73083D01*
X977696Y-72080D01*
X976846Y-71129D01*
X975937Y-70234D01*
X974973Y-69398D01*
X973958Y-68627D01*
X972896Y-67921D01*
X971792Y-67283D01*
X970649Y-66716D01*
X969472Y-66224D01*
X968267Y-65805D01*
X967038Y-65466D01*
X965789Y-65205D01*
X964527Y-65023D01*
X963255Y-64922D01*
X961980Y-64902D01*
X960706Y-64962D01*
X959438Y-65104D01*
X958182Y-65326D01*
X956943Y-65626D01*
X955725Y-66005D01*
X954533Y-66460D01*
X953373Y-66990D01*
X952249Y-67593D01*
X951165Y-68265D01*
X950126Y-69005D01*
X949136Y-69809D01*
X948199Y-70675D01*
X947319Y-71597D01*
X946499Y-72575D01*
X945743Y-73602D01*
X945054Y-74675D01*
X944433Y-75790D01*
X943885Y-76941D01*
X943411Y-78125D01*
X943013Y-79337D01*
X942693Y-80572D01*
X942451Y-81824D01*
X942290Y-83088D01*
X942209Y-84362D01*
X942209Y-85637D01*
X942290Y-86911D01*
X942451Y-88175D01*
X942693Y-89427D01*
X943013Y-90662D01*
X943039Y-90743D01*
X942038Y-90466D01*
X940789Y-90205D01*
X939527Y-90023D01*
X938255Y-89922D01*
X936980Y-89902D01*
X935706Y-89962D01*
X934438Y-90104D01*
X933182Y-90326D01*
X931943Y-90626D01*
X930725Y-91005D01*
X929533Y-91460D01*
X928373Y-91990D01*
X927249Y-92593D01*
X926165Y-93265D01*
X925126Y-94005D01*
X924136Y-94809D01*
X923199Y-95675D01*
X922319Y-96597D01*
X921499Y-97575D01*
X920743Y-98602D01*
X920054Y-99675D01*
X919433Y-100790D01*
X918885Y-101941D01*
X918411Y-103125D01*
X918013Y-104337D01*
X917693Y-105572D01*
X917451Y-106824D01*
X917290Y-108088D01*
X917209Y-109362D01*
X917209Y-110637D01*
X917290Y-111911D01*
X917451Y-113175D01*
X917693Y-114427D01*
X918013Y-115662D01*
X918411Y-116875D01*
X918885Y-118058D01*
X919433Y-119209D01*
X920054Y-120324D01*
X920743Y-121397D01*
X921499Y-122424D01*
X922319Y-123402D01*
X923199Y-124324D01*
X924136Y-125190D01*
X925126Y-125994D01*
X926165Y-126734D01*
X927249Y-127406D01*
X928373Y-128009D01*
X929533Y-128539D01*
X930725Y-128994D01*
X931943Y-129373D01*
X933182Y-129673D01*
X934438Y-129895D01*
X935706Y-130037D01*
G37*
G36*
X1096980Y439895D02*
G01*
X1098256Y439915D01*
X1099528Y440016D01*
X1100791Y440196D01*
X1102040Y440459D01*
X1103269Y440799D01*
X1104475Y441215D01*
X1105652Y441709D01*
X1106795Y442276D01*
X1107900Y442914D01*
X1108963Y443620D01*
X1109978Y444393D01*
X1110942Y445228D01*
X1111852Y446123D01*
X1112703Y447074D01*
X1113491Y448078D01*
X1114215Y449128D01*
X1114870Y450223D01*
X1115455Y451358D01*
X1115967Y452527D01*
X1116403Y453726D01*
X1116763Y454949D01*
X1117044Y456194D01*
X1117245Y457453D01*
X1117367Y458724D01*
X1117407Y460000D01*
X1117367Y461275D01*
X1117245Y462546D01*
X1117044Y463805D01*
X1116763Y465050D01*
X1116403Y466273D01*
X1115967Y467472D01*
X1115455Y468641D01*
X1114870Y469776D01*
X1114215Y470871D01*
X1113491Y471921D01*
X1112703Y472925D01*
X1111852Y473876D01*
X1110942Y474771D01*
X1109978Y475607D01*
X1108963Y476379D01*
X1107900Y477085D01*
X1106795Y477723D01*
X1105652Y478290D01*
X1104475Y478784D01*
X1103269Y479200D01*
X1102040Y479540D01*
X1100791Y479803D01*
X1099528Y479983D01*
X1098256Y480084D01*
X1096980Y480104D01*
X1095706Y480045D01*
X1094438Y479902D01*
X1093181Y479681D01*
X1091941Y479380D01*
X1090722Y479002D01*
X1089530Y478546D01*
X1088370Y478016D01*
X1087245Y477413D01*
X1086161Y476741D01*
X1085121Y476001D01*
X1084131Y475196D01*
X1083194Y474331D01*
X1082313Y473407D01*
X1081493Y472429D01*
X1080737Y471401D01*
X1080047Y470329D01*
X1079426Y469214D01*
X1078878Y468061D01*
X1078404Y466876D01*
X1078006Y465664D01*
X1077685Y464430D01*
X1077444Y463177D01*
X1077282Y461911D01*
X1077201Y460637D01*
X1077201Y459362D01*
X1077282Y458088D01*
X1077444Y456822D01*
X1077685Y455569D01*
X1078006Y454335D01*
X1078404Y453123D01*
X1078878Y451938D01*
X1079426Y450785D01*
X1080047Y449670D01*
X1080737Y448598D01*
X1081493Y447570D01*
X1082313Y446592D01*
X1083194Y445668D01*
X1084131Y444803D01*
X1085121Y443998D01*
X1086161Y443258D01*
X1087245Y442586D01*
X1088370Y441983D01*
X1089530Y441453D01*
X1090722Y440997D01*
X1091941Y440619D01*
X1093181Y440318D01*
X1094438Y440097D01*
X1095706Y439954D01*
G37*
G36*
X137300Y-104787D02*
G01*
X138575Y-104767D01*
X139847Y-104666D01*
X141109Y-104484D01*
X142358Y-104223D01*
X143587Y-103883D01*
X144792Y-103465D01*
X145969Y-102973D01*
X147112Y-102406D01*
X148216Y-101768D01*
X149278Y-101062D01*
X150293Y-100291D01*
X151257Y-99454D01*
X152166Y-98560D01*
X153016Y-97609D01*
X153805Y-96606D01*
X154528Y-95556D01*
X155183Y-94463D01*
X155768Y-93328D01*
X156279Y-92159D01*
X156715Y-90961D01*
X157075Y-89738D01*
X157306Y-88717D01*
X157383Y-89117D01*
X157703Y-90353D01*
X158101Y-91565D01*
X158575Y-92748D01*
X159123Y-93899D01*
X159744Y-95014D01*
X160433Y-96087D01*
X161189Y-97114D01*
X162009Y-98092D01*
X162889Y-99014D01*
X163826Y-99881D01*
X164816Y-100684D01*
X165855Y-101424D01*
X166939Y-102096D01*
X168063Y-102698D01*
X169223Y-103229D01*
X170415Y-103685D01*
X171633Y-104063D01*
X172872Y-104364D01*
X174128Y-104585D01*
X175396Y-104726D01*
X176670Y-104787D01*
X177945Y-104767D01*
X179217Y-104666D01*
X180479Y-104484D01*
X181728Y-104223D01*
X182957Y-103883D01*
X184162Y-103465D01*
X185339Y-102973D01*
X186482Y-102406D01*
X187586Y-101768D01*
X188648Y-101062D01*
X189663Y-100291D01*
X190627Y-99454D01*
X191536Y-98560D01*
X192386Y-97609D01*
X193175Y-96606D01*
X193898Y-95556D01*
X194553Y-94463D01*
X195138Y-93328D01*
X195649Y-92159D01*
X196085Y-90961D01*
X196445Y-89738D01*
X196726Y-88494D01*
X196927Y-87235D01*
X197049Y-85965D01*
X197089Y-84690D01*
X197049Y-83414D01*
X196927Y-82145D01*
X196726Y-80886D01*
X196445Y-79641D01*
X196085Y-78418D01*
X195649Y-77220D01*
X195138Y-76051D01*
X194553Y-74917D01*
X193898Y-73823D01*
X193175Y-72773D01*
X192386Y-71770D01*
X191536Y-70819D01*
X190627Y-69924D01*
X189663Y-69088D01*
X188648Y-68317D01*
X187586Y-67611D01*
X186482Y-66972D01*
X185339Y-66406D01*
X184162Y-65913D01*
X182957Y-65495D01*
X181728Y-65156D01*
X181003Y-65005D01*
X181728Y-64852D01*
X182957Y-64513D01*
X184162Y-64095D01*
X185339Y-63604D01*
X186482Y-63036D01*
X187586Y-62399D01*
X188648Y-61693D01*
X189663Y-60920D01*
X190627Y-60084D01*
X191536Y-59191D01*
X192386Y-58240D01*
X193175Y-57237D01*
X193898Y-56186D01*
X194553Y-55093D01*
X195138Y-53958D01*
X195649Y-52789D01*
X196085Y-51592D01*
X196445Y-50367D01*
X196726Y-49124D01*
X196927Y-47865D01*
X197049Y-46595D01*
X197089Y-45320D01*
X197049Y-44045D01*
X196927Y-42775D01*
X196726Y-41516D01*
X196445Y-40271D01*
X196085Y-39047D01*
X195649Y-37849D01*
X195138Y-36680D01*
X194553Y-35547D01*
X193898Y-34452D01*
X193175Y-33402D01*
X192386Y-32399D01*
X191536Y-31448D01*
X190627Y-30554D01*
X189663Y-29719D01*
X188648Y-28946D01*
X187586Y-28240D01*
X186482Y-27602D01*
X185339Y-27035D01*
X184162Y-26543D01*
X182957Y-26125D01*
X181728Y-25787D01*
X180479Y-25524D01*
X179217Y-25344D01*
X177945Y-25243D01*
X176670Y-25223D01*
X175396Y-25282D01*
X174128Y-25425D01*
X172872Y-25646D01*
X171633Y-25947D01*
X170415Y-26325D01*
X169223Y-26781D01*
X168063Y-27310D01*
X166939Y-27912D01*
X165855Y-28584D01*
X164816Y-29324D01*
X163826Y-30129D01*
X162889Y-30994D01*
X162009Y-31918D01*
X161189Y-32894D01*
X160433Y-33921D01*
X159744Y-34994D01*
X159123Y-36109D01*
X158575Y-37260D01*
X158101Y-38445D01*
X157703Y-39657D01*
X157383Y-40891D01*
X157306Y-41293D01*
X157075Y-40271D01*
X156715Y-39047D01*
X156279Y-37849D01*
X155768Y-36680D01*
X155183Y-35547D01*
X154528Y-34452D01*
X153805Y-33402D01*
X153016Y-32399D01*
X152166Y-31448D01*
X151257Y-30554D01*
X150293Y-29719D01*
X149278Y-28946D01*
X148216Y-28240D01*
X147112Y-27602D01*
X145969Y-27035D01*
X144792Y-26543D01*
X143587Y-26125D01*
X142358Y-25787D01*
X141109Y-25524D01*
X139847Y-25344D01*
X138575Y-25243D01*
X137300Y-25223D01*
X136026Y-25282D01*
X134758Y-25425D01*
X133502Y-25646D01*
X132263Y-25947D01*
X131045Y-26325D01*
X129853Y-26781D01*
X128693Y-27310D01*
X127569Y-27912D01*
X126485Y-28584D01*
X125446Y-29324D01*
X124456Y-30129D01*
X123519Y-30994D01*
X122639Y-31918D01*
X121819Y-32894D01*
X121063Y-33921D01*
X120374Y-34994D01*
X119753Y-36109D01*
X119205Y-37260D01*
X118731Y-38445D01*
X118333Y-39657D01*
X118013Y-40891D01*
X117771Y-42143D01*
X117610Y-43409D01*
X117529Y-44681D01*
X117529Y-45958D01*
X117610Y-47231D01*
X117771Y-48496D01*
X118013Y-49747D01*
X118333Y-50983D01*
X118731Y-52195D01*
X119205Y-53378D01*
X119753Y-54529D01*
X120374Y-55644D01*
X121063Y-56718D01*
X121819Y-57744D01*
X122639Y-58721D01*
X123519Y-59645D01*
X124456Y-60511D01*
X125446Y-61314D01*
X126485Y-62055D01*
X127569Y-62726D01*
X128693Y-63328D01*
X129853Y-63859D01*
X131045Y-64315D01*
X132263Y-64693D01*
X133502Y-64994D01*
X133565Y-65005D01*
X133502Y-65016D01*
X132263Y-65317D01*
X131045Y-65695D01*
X129853Y-66150D01*
X128693Y-66680D01*
X127569Y-67283D01*
X126485Y-67955D01*
X125446Y-68694D01*
X124456Y-69499D01*
X123519Y-70365D01*
X122639Y-71287D01*
X121819Y-72265D01*
X121063Y-73292D01*
X120374Y-74364D01*
X119753Y-75479D01*
X119205Y-76631D01*
X118731Y-77815D01*
X118333Y-79027D01*
X118013Y-80261D01*
X117771Y-81514D01*
X117610Y-82779D01*
X117529Y-84052D01*
X117529Y-85327D01*
X117610Y-86601D01*
X117771Y-87865D01*
X118013Y-89117D01*
X118333Y-90353D01*
X118731Y-91565D01*
X119205Y-92748D01*
X119753Y-93899D01*
X120374Y-95014D01*
X121063Y-96087D01*
X121819Y-97114D01*
X122639Y-98092D01*
X123519Y-99014D01*
X124456Y-99881D01*
X125446Y-100684D01*
X126485Y-101424D01*
X127569Y-102096D01*
X128693Y-102698D01*
X129853Y-103229D01*
X131045Y-103685D01*
X132263Y-104063D01*
X133502Y-104364D01*
X134758Y-104585D01*
X136026Y-104726D01*
G37*
G36*
X238880Y438602D02*
G01*
X240155Y438622D01*
X241427Y438724D01*
X242689Y438904D01*
X243938Y439167D01*
X245167Y439506D01*
X246372Y439924D01*
X247549Y440416D01*
X248692Y440983D01*
X249796Y441621D01*
X250858Y442327D01*
X251873Y443099D01*
X252837Y443935D01*
X253746Y444828D01*
X254596Y445779D01*
X255385Y446783D01*
X256108Y447833D01*
X256763Y448926D01*
X257348Y450061D01*
X257859Y451230D01*
X258295Y452427D01*
X258655Y453652D01*
X258936Y454895D01*
X259137Y456154D01*
X259259Y457424D01*
X259299Y458699D01*
X259259Y459974D01*
X259137Y461244D01*
X258936Y462503D01*
X258655Y463748D01*
X258295Y464971D01*
X257859Y466170D01*
X257348Y467339D01*
X256763Y468472D01*
X256108Y469567D01*
X255385Y470617D01*
X254596Y471619D01*
X253746Y472570D01*
X252837Y473465D01*
X251873Y474301D01*
X250858Y475073D01*
X249796Y475779D01*
X248692Y476417D01*
X247549Y476984D01*
X246372Y477476D01*
X245167Y477894D01*
X243938Y478233D01*
X242689Y478494D01*
X241427Y478676D01*
X240155Y478777D01*
X238880Y478796D01*
X237606Y478737D01*
X236338Y478595D01*
X235082Y478373D01*
X233843Y478072D01*
X232625Y477694D01*
X231433Y477238D01*
X230273Y476709D01*
X229149Y476107D01*
X228065Y475435D01*
X227026Y474695D01*
X226036Y473890D01*
X225099Y473024D01*
X224219Y472101D01*
X223399Y471125D01*
X222643Y470097D01*
X221954Y469025D01*
X221333Y467910D01*
X220785Y466759D01*
X220311Y465574D01*
X219913Y464362D01*
X219593Y463128D01*
X219351Y461876D01*
X219190Y460610D01*
X219109Y459337D01*
X219109Y458061D01*
X219190Y456788D01*
X219351Y455524D01*
X219593Y454272D01*
X219913Y453036D01*
X220311Y451824D01*
X220785Y450641D01*
X221333Y449490D01*
X221954Y448375D01*
X222643Y447301D01*
X223399Y446275D01*
X224219Y445297D01*
X225099Y444375D01*
X226036Y443508D01*
X227026Y442705D01*
X228065Y441965D01*
X229149Y441293D01*
X230273Y440691D01*
X231433Y440160D01*
X232625Y439704D01*
X233843Y439326D01*
X235082Y439025D01*
X236338Y438805D01*
X237606Y438663D01*
G37*
G36*
X179680Y434902D02*
G01*
X180955Y434922D01*
X182227Y435023D01*
X183489Y435205D01*
X184738Y435466D01*
X185967Y435805D01*
X187172Y436224D01*
X188349Y436716D01*
X189492Y437283D01*
X190596Y437921D01*
X191658Y438627D01*
X192673Y439398D01*
X193637Y440234D01*
X194546Y441129D01*
X195396Y442080D01*
X196185Y443083D01*
X196908Y444133D01*
X197563Y445226D01*
X198148Y446361D01*
X198659Y447530D01*
X199095Y448728D01*
X199456Y449951D01*
X199736Y451195D01*
X199937Y452454D01*
X200059Y453724D01*
X200099Y455000D01*
X200059Y456275D01*
X199937Y457545D01*
X199736Y458804D01*
X199456Y460048D01*
X199095Y461271D01*
X198659Y462469D01*
X198148Y463638D01*
X197563Y464773D01*
X196908Y465866D01*
X196185Y466916D01*
X195396Y467919D01*
X194546Y468870D01*
X193637Y469765D01*
X192673Y470601D01*
X191658Y471372D01*
X190596Y472078D01*
X189492Y472716D01*
X188349Y473283D01*
X187172Y473775D01*
X185967Y474194D01*
X184738Y474533D01*
X183489Y474794D01*
X182227Y474976D01*
X180955Y475077D01*
X179680Y475097D01*
X178406Y475037D01*
X177138Y474895D01*
X175882Y474674D01*
X174643Y474373D01*
X173425Y473994D01*
X172233Y473539D01*
X171073Y473009D01*
X169949Y472406D01*
X168865Y471734D01*
X167826Y470994D01*
X166836Y470190D01*
X165899Y469324D01*
X165019Y468402D01*
X164199Y467424D01*
X163443Y466397D01*
X162754Y465324D01*
X162133Y464209D01*
X161585Y463058D01*
X161111Y461875D01*
X160713Y460662D01*
X160393Y459427D01*
X160151Y458175D01*
X159991Y456911D01*
X159909Y455637D01*
X159909Y454362D01*
X159991Y453088D01*
X160151Y451824D01*
X160393Y450572D01*
X160713Y449337D01*
X161111Y448125D01*
X161585Y446941D01*
X162133Y445790D01*
X162754Y444675D01*
X163443Y443602D01*
X164199Y442575D01*
X165019Y441597D01*
X165899Y440675D01*
X166836Y439809D01*
X167826Y439005D01*
X168865Y438265D01*
X169949Y437593D01*
X171073Y436990D01*
X172233Y436460D01*
X173425Y436005D01*
X174643Y435626D01*
X175882Y435326D01*
X177138Y435104D01*
X178406Y434962D01*
G37*
G36*
X423180Y369702D02*
G01*
X424456Y369722D01*
X425727Y369823D01*
X426989Y370005D01*
X428238Y370266D01*
X429467Y370605D01*
X430672Y371024D01*
X431849Y371516D01*
X432992Y372082D01*
X434096Y372721D01*
X435158Y373427D01*
X436173Y374198D01*
X437137Y375034D01*
X438046Y375929D01*
X438896Y376880D01*
X439685Y377883D01*
X440408Y378933D01*
X441063Y380027D01*
X441648Y381161D01*
X442159Y382330D01*
X442595Y383528D01*
X442955Y384751D01*
X443236Y385996D01*
X443437Y387255D01*
X443559Y388524D01*
X443599Y389800D01*
X443559Y391075D01*
X443437Y392345D01*
X443236Y393604D01*
X442955Y394848D01*
X442595Y396071D01*
X442159Y397269D01*
X441648Y398438D01*
X441063Y399573D01*
X440408Y400666D01*
X439685Y401716D01*
X438896Y402719D01*
X438046Y403670D01*
X437137Y404564D01*
X436173Y405401D01*
X435158Y406172D01*
X434096Y406878D01*
X432992Y407516D01*
X431849Y408083D01*
X430672Y408575D01*
X429467Y408993D01*
X428238Y409333D01*
X426989Y409594D01*
X425727Y409776D01*
X424456Y409877D01*
X423180Y409897D01*
X421906Y409837D01*
X420638Y409695D01*
X419382Y409474D01*
X418143Y409173D01*
X416925Y408795D01*
X415733Y408339D01*
X414573Y407809D01*
X413449Y407206D01*
X412365Y406534D01*
X411326Y405794D01*
X410336Y404991D01*
X409399Y404124D01*
X408519Y403202D01*
X407699Y402224D01*
X406943Y401197D01*
X406254Y400124D01*
X405634Y399009D01*
X405085Y397858D01*
X404611Y396675D01*
X404213Y395462D01*
X403893Y394227D01*
X403651Y392975D01*
X403490Y391711D01*
X403409Y390437D01*
X403409Y389162D01*
X403490Y387889D01*
X403651Y386624D01*
X403893Y385372D01*
X404213Y384137D01*
X404611Y382925D01*
X405085Y381741D01*
X405634Y380590D01*
X406254Y379475D01*
X406943Y378402D01*
X407699Y377375D01*
X408519Y376397D01*
X409399Y375475D01*
X410336Y374609D01*
X411326Y373805D01*
X412365Y373065D01*
X413449Y372393D01*
X414573Y371790D01*
X415733Y371260D01*
X416925Y370805D01*
X418143Y370426D01*
X419382Y370126D01*
X420638Y369904D01*
X421906Y369762D01*
G37*
G36*
X1151680Y-75097D02*
G01*
X1152955Y-75077D01*
X1154227Y-74976D01*
X1155489Y-74794D01*
X1156738Y-74533D01*
X1157967Y-74194D01*
X1159172Y-73775D01*
X1160349Y-73283D01*
X1161492Y-72716D01*
X1162596Y-72078D01*
X1163658Y-71372D01*
X1164673Y-70601D01*
X1165637Y-69765D01*
X1166546Y-68870D01*
X1167396Y-67919D01*
X1168185Y-66916D01*
X1168908Y-65866D01*
X1169563Y-64773D01*
X1170148Y-63638D01*
X1170659Y-62469D01*
X1171095Y-61271D01*
X1171455Y-60048D01*
X1171736Y-58804D01*
X1171938Y-57545D01*
X1172059Y-56275D01*
X1172099Y-55000D01*
X1172059Y-53724D01*
X1171938Y-52454D01*
X1171736Y-51195D01*
X1171455Y-49951D01*
X1171095Y-48728D01*
X1170659Y-47530D01*
X1170148Y-46361D01*
X1169563Y-45226D01*
X1168908Y-44133D01*
X1168185Y-43083D01*
X1167396Y-42080D01*
X1166546Y-41129D01*
X1165637Y-40234D01*
X1164673Y-39398D01*
X1163658Y-38627D01*
X1162596Y-37921D01*
X1161492Y-37283D01*
X1160349Y-36716D01*
X1159172Y-36224D01*
X1157967Y-35805D01*
X1156738Y-35466D01*
X1155489Y-35205D01*
X1154227Y-35023D01*
X1152955Y-34922D01*
X1151680Y-34902D01*
X1150406Y-34962D01*
X1149138Y-35104D01*
X1147882Y-35326D01*
X1146643Y-35626D01*
X1145425Y-36005D01*
X1144233Y-36460D01*
X1143073Y-36990D01*
X1141949Y-37593D01*
X1140865Y-38265D01*
X1139826Y-39005D01*
X1138836Y-39809D01*
X1137899Y-40675D01*
X1137019Y-41597D01*
X1136199Y-42575D01*
X1135443Y-43602D01*
X1134754Y-44675D01*
X1134497Y-45136D01*
X1134456Y-44951D01*
X1134095Y-43728D01*
X1133659Y-42530D01*
X1133148Y-41361D01*
X1132563Y-40226D01*
X1131908Y-39133D01*
X1131185Y-38083D01*
X1130396Y-37080D01*
X1129546Y-36129D01*
X1128637Y-35234D01*
X1127673Y-34398D01*
X1126658Y-33627D01*
X1125596Y-32921D01*
X1124492Y-32283D01*
X1123349Y-31716D01*
X1122172Y-31224D01*
X1120967Y-30805D01*
X1119738Y-30466D01*
X1118489Y-30205D01*
X1117227Y-30023D01*
X1115955Y-29922D01*
X1114680Y-29902D01*
X1113406Y-29962D01*
X1112138Y-30104D01*
X1110882Y-30326D01*
X1109643Y-30626D01*
X1108425Y-31005D01*
X1107233Y-31460D01*
X1106073Y-31990D01*
X1104949Y-32593D01*
X1103865Y-33265D01*
X1102826Y-34005D01*
X1101836Y-34809D01*
X1100899Y-35675D01*
X1100019Y-36597D01*
X1099199Y-37575D01*
X1098443Y-38602D01*
X1097754Y-39675D01*
X1097133Y-40790D01*
X1096585Y-41941D01*
X1096111Y-43125D01*
X1095713Y-44337D01*
X1095393Y-45572D01*
X1095151Y-46824D01*
X1094991Y-48088D01*
X1094909Y-49362D01*
X1094909Y-50637D01*
X1094991Y-51911D01*
X1095151Y-53175D01*
X1095393Y-54427D01*
X1095713Y-55662D01*
X1096111Y-56875D01*
X1096585Y-58058D01*
X1097133Y-59209D01*
X1097754Y-60324D01*
X1098443Y-61397D01*
X1099199Y-62424D01*
X1100019Y-63402D01*
X1100899Y-64324D01*
X1101836Y-65190D01*
X1102826Y-65994D01*
X1103865Y-66734D01*
X1104949Y-67406D01*
X1106073Y-68009D01*
X1107233Y-68539D01*
X1108425Y-68994D01*
X1109643Y-69373D01*
X1110882Y-69673D01*
X1112138Y-69895D01*
X1113406Y-70037D01*
X1114680Y-70097D01*
X1115955Y-70077D01*
X1117227Y-69976D01*
X1118489Y-69794D01*
X1119738Y-69533D01*
X1120967Y-69194D01*
X1122172Y-68775D01*
X1123349Y-68283D01*
X1124492Y-67716D01*
X1125596Y-67078D01*
X1126658Y-66372D01*
X1127673Y-65601D01*
X1128637Y-64765D01*
X1129546Y-63870D01*
X1130396Y-62919D01*
X1131185Y-61916D01*
X1131908Y-60866D01*
X1132507Y-59866D01*
X1132713Y-60662D01*
X1133111Y-61875D01*
X1133585Y-63058D01*
X1134133Y-64209D01*
X1134754Y-65324D01*
X1135443Y-66397D01*
X1136199Y-67424D01*
X1137019Y-68402D01*
X1137899Y-69324D01*
X1138836Y-70190D01*
X1139826Y-70994D01*
X1140865Y-71734D01*
X1141949Y-72406D01*
X1143073Y-73009D01*
X1144233Y-73539D01*
X1145425Y-73994D01*
X1146643Y-74373D01*
X1147882Y-74673D01*
X1149138Y-74895D01*
X1150406Y-75037D01*
G37*
G36*
X416980Y-75097D02*
G01*
X418255Y-75077D01*
X419527Y-74976D01*
X420789Y-74794D01*
X422038Y-74533D01*
X423267Y-74194D01*
X424472Y-73775D01*
X425649Y-73283D01*
X426792Y-72716D01*
X427896Y-72078D01*
X428958Y-71372D01*
X429973Y-70601D01*
X430937Y-69765D01*
X431846Y-68870D01*
X432696Y-67919D01*
X433485Y-66916D01*
X434208Y-65866D01*
X434863Y-64773D01*
X435448Y-63638D01*
X435959Y-62469D01*
X436395Y-61271D01*
X436755Y-60048D01*
X437036Y-58804D01*
X437237Y-57545D01*
X437359Y-56275D01*
X437399Y-55000D01*
X437359Y-53724D01*
X437237Y-52454D01*
X437036Y-51195D01*
X436755Y-49951D01*
X436395Y-48728D01*
X435959Y-47530D01*
X435448Y-46361D01*
X434863Y-45226D01*
X434208Y-44133D01*
X433485Y-43083D01*
X432696Y-42080D01*
X431846Y-41129D01*
X430937Y-40234D01*
X429973Y-39398D01*
X428958Y-38627D01*
X427896Y-37921D01*
X426792Y-37283D01*
X425649Y-36716D01*
X424472Y-36224D01*
X423267Y-35805D01*
X422038Y-35466D01*
X420789Y-35205D01*
X419527Y-35023D01*
X418255Y-34922D01*
X416980Y-34902D01*
X415706Y-34962D01*
X414438Y-35104D01*
X413182Y-35326D01*
X411943Y-35626D01*
X410725Y-36005D01*
X409533Y-36460D01*
X408373Y-36990D01*
X407249Y-37593D01*
X406165Y-38265D01*
X405126Y-39005D01*
X404136Y-39809D01*
X403199Y-40675D01*
X402319Y-41597D01*
X401499Y-42575D01*
X400743Y-43602D01*
X400054Y-44675D01*
X399433Y-45790D01*
X398885Y-46941D01*
X398411Y-48125D01*
X398013Y-49337D01*
X397693Y-50572D01*
X397451Y-51824D01*
X397290Y-53088D01*
X397209Y-54362D01*
X397209Y-55637D01*
X397290Y-56911D01*
X397451Y-58175D01*
X397693Y-59427D01*
X398013Y-60662D01*
X398411Y-61875D01*
X398885Y-63058D01*
X399433Y-64209D01*
X400054Y-65324D01*
X400743Y-66397D01*
X401499Y-67424D01*
X402319Y-68402D01*
X403199Y-69324D01*
X404136Y-70190D01*
X405126Y-70994D01*
X406165Y-71734D01*
X407249Y-72406D01*
X408373Y-73009D01*
X409533Y-73539D01*
X410725Y-73994D01*
X411943Y-74373D01*
X413182Y-74673D01*
X414438Y-74895D01*
X415706Y-75037D01*
G37*
G36*
X785081Y285203D02*
G01*
X786355Y285223D01*
X787627Y285324D01*
X788889Y285504D01*
X790138Y285767D01*
X791367Y286105D01*
X792572Y286523D01*
X793750Y287015D01*
X794892Y287582D01*
X795996Y288220D01*
X797058Y288926D01*
X798073Y289699D01*
X799037Y290534D01*
X799946Y291428D01*
X800796Y292379D01*
X801585Y293382D01*
X802308Y294432D01*
X802963Y295527D01*
X803548Y296660D01*
X804059Y297829D01*
X804495Y299027D01*
X804855Y300252D01*
X805136Y301496D01*
X805337Y302755D01*
X805459Y304025D01*
X805499Y305300D01*
X805459Y306574D01*
X805337Y307845D01*
X805136Y309104D01*
X804855Y310347D01*
X804495Y311572D01*
X804059Y312770D01*
X803548Y313939D01*
X802963Y315073D01*
X802308Y316167D01*
X801585Y317217D01*
X800796Y318220D01*
X799946Y319171D01*
X799037Y320064D01*
X798073Y320900D01*
X797058Y321673D01*
X795996Y322379D01*
X794892Y323016D01*
X793750Y323584D01*
X792572Y324076D01*
X791367Y324493D01*
X790138Y324832D01*
X788889Y325095D01*
X787627Y325275D01*
X786355Y325376D01*
X785081Y325396D01*
X783806Y325336D01*
X782538Y325194D01*
X781282Y324974D01*
X780043Y324672D01*
X778825Y324295D01*
X777633Y323838D01*
X776473Y323308D01*
X775349Y322707D01*
X774265Y322035D01*
X773226Y321295D01*
X772236Y320491D01*
X771299Y319625D01*
X770419Y318701D01*
X769599Y317725D01*
X768843Y316698D01*
X768154Y315625D01*
X767533Y314510D01*
X766985Y313359D01*
X766511Y312175D01*
X766113Y310963D01*
X765793Y309728D01*
X765551Y308476D01*
X765390Y307211D01*
X765309Y305938D01*
X765309Y304661D01*
X765390Y303389D01*
X765551Y302123D01*
X765793Y300871D01*
X766113Y299636D01*
X766511Y298425D01*
X766985Y297240D01*
X767533Y296089D01*
X768154Y294974D01*
X768843Y293901D01*
X769599Y292874D01*
X770419Y291898D01*
X771299Y290974D01*
X772236Y290109D01*
X773226Y289304D01*
X774265Y288564D01*
X775349Y287892D01*
X776473Y287291D01*
X777633Y286761D01*
X778825Y286305D01*
X780043Y285927D01*
X781282Y285626D01*
X782538Y285405D01*
X783806Y285262D01*
G37*
G36*
X383980Y-49497D02*
G01*
X385255Y-49477D01*
X386527Y-49376D01*
X387789Y-49194D01*
X389038Y-48933D01*
X390267Y-48593D01*
X391472Y-48175D01*
X392649Y-47683D01*
X393792Y-47116D01*
X394896Y-46478D01*
X395958Y-45772D01*
X396974Y-45001D01*
X397937Y-44164D01*
X398846Y-43270D01*
X399696Y-42319D01*
X400485Y-41316D01*
X401208Y-40266D01*
X401863Y-39173D01*
X402448Y-38038D01*
X402959Y-36869D01*
X403395Y-35671D01*
X403755Y-34448D01*
X404036Y-33204D01*
X404237Y-31945D01*
X404359Y-30675D01*
X404399Y-29400D01*
X404359Y-28125D01*
X404237Y-26855D01*
X404036Y-25596D01*
X403755Y-24351D01*
X403395Y-23128D01*
X402959Y-21930D01*
X402448Y-20761D01*
X401863Y-19627D01*
X401208Y-18533D01*
X400485Y-17483D01*
X399696Y-16480D01*
X398846Y-15529D01*
X397937Y-14634D01*
X396974Y-13798D01*
X395958Y-13027D01*
X394896Y-12321D01*
X393792Y-11682D01*
X392649Y-11116D01*
X391472Y-10623D01*
X390267Y-10205D01*
X389038Y-9866D01*
X387789Y-9605D01*
X386527Y-9423D01*
X385255Y-9322D01*
X383980Y-9302D01*
X382706Y-9362D01*
X381438Y-9504D01*
X380182Y-9726D01*
X378943Y-10027D01*
X377725Y-10405D01*
X376533Y-10860D01*
X375373Y-11390D01*
X374249Y-11993D01*
X373165Y-12665D01*
X372126Y-13404D01*
X371136Y-14209D01*
X370199Y-15075D01*
X369319Y-15997D01*
X368499Y-16975D01*
X367743Y-18002D01*
X367054Y-19074D01*
X366433Y-20189D01*
X365885Y-21341D01*
X365411Y-22525D01*
X365013Y-23737D01*
X364693Y-24971D01*
X364451Y-26224D01*
X364290Y-27489D01*
X364209Y-28762D01*
X364209Y-30037D01*
X364290Y-31311D01*
X364451Y-32575D01*
X364693Y-33827D01*
X365013Y-35063D01*
X365411Y-36275D01*
X365885Y-37458D01*
X366433Y-38609D01*
X367054Y-39724D01*
X367743Y-40797D01*
X368499Y-41824D01*
X369319Y-42802D01*
X370199Y-43724D01*
X371136Y-44591D01*
X372126Y-45394D01*
X373165Y-46134D01*
X374249Y-46806D01*
X375373Y-47408D01*
X376533Y-47939D01*
X377725Y-48395D01*
X378943Y-48773D01*
X380182Y-49074D01*
X381438Y-49295D01*
X382706Y-49436D01*
G37*
G36*
X652780Y253703D02*
G01*
X654055Y253722D01*
X655327Y253823D01*
X656589Y254005D01*
X657838Y254266D01*
X659067Y254605D01*
X660272Y255023D01*
X661449Y255515D01*
X662592Y256082D01*
X663696Y256720D01*
X664758Y257426D01*
X665773Y258198D01*
X666737Y259034D01*
X667646Y259929D01*
X668496Y260880D01*
X669285Y261882D01*
X670009Y262932D01*
X670663Y264027D01*
X671248Y265160D01*
X671759Y266329D01*
X672195Y267528D01*
X672555Y268751D01*
X672836Y269996D01*
X673037Y271255D01*
X673159Y272525D01*
X673199Y273800D01*
X673159Y275075D01*
X673037Y276345D01*
X672836Y277604D01*
X672555Y278847D01*
X672195Y280072D01*
X671759Y281269D01*
X671248Y282438D01*
X670663Y283573D01*
X670009Y284666D01*
X669285Y285716D01*
X668496Y286720D01*
X667646Y287671D01*
X666737Y288564D01*
X665773Y289400D01*
X664758Y290172D01*
X663696Y290878D01*
X662592Y291516D01*
X661449Y292083D01*
X660272Y292575D01*
X659067Y292993D01*
X657838Y293332D01*
X656589Y293595D01*
X655327Y293775D01*
X654055Y293877D01*
X652780Y293897D01*
X651506Y293836D01*
X650238Y293694D01*
X648982Y293474D01*
X647743Y293173D01*
X646525Y292795D01*
X645333Y292339D01*
X644173Y291808D01*
X643049Y291206D01*
X641965Y290534D01*
X640926Y289794D01*
X639936Y288991D01*
X638999Y288125D01*
X638119Y287202D01*
X637299Y286224D01*
X636543Y285198D01*
X635854Y284124D01*
X635233Y283009D01*
X634685Y281858D01*
X634211Y280675D01*
X633813Y279463D01*
X633493Y278227D01*
X633251Y276975D01*
X633090Y275711D01*
X633009Y274438D01*
X633009Y273162D01*
X633090Y271889D01*
X633251Y270623D01*
X633493Y269371D01*
X633813Y268137D01*
X634211Y266925D01*
X634685Y265740D01*
X635233Y264589D01*
X635854Y263474D01*
X636543Y262402D01*
X637299Y261374D01*
X638119Y260398D01*
X638999Y259475D01*
X639936Y258609D01*
X640926Y257804D01*
X641965Y257064D01*
X643049Y256392D01*
X644173Y255790D01*
X645333Y255261D01*
X646525Y254805D01*
X647743Y254427D01*
X648982Y254126D01*
X650238Y253904D01*
X651506Y253762D01*
G37*
G36*
X1016980Y-45104D02*
G01*
X1018256Y-45084D01*
X1019528Y-44983D01*
X1020791Y-44803D01*
X1022040Y-44540D01*
X1023269Y-44200D01*
X1024475Y-43784D01*
X1025652Y-43290D01*
X1026795Y-42723D01*
X1027900Y-42085D01*
X1028963Y-41379D01*
X1029978Y-40606D01*
X1030942Y-39771D01*
X1031852Y-38876D01*
X1032703Y-37925D01*
X1033491Y-36921D01*
X1034215Y-35871D01*
X1034870Y-34776D01*
X1035455Y-33641D01*
X1035967Y-32472D01*
X1036403Y-31273D01*
X1036763Y-30050D01*
X1037044Y-28805D01*
X1037245Y-27546D01*
X1037367Y-26275D01*
X1037407Y-25000D01*
X1037367Y-23724D01*
X1037245Y-22453D01*
X1037044Y-21194D01*
X1036763Y-19949D01*
X1036403Y-18726D01*
X1035967Y-17527D01*
X1035455Y-16358D01*
X1034870Y-15223D01*
X1034215Y-14128D01*
X1033491Y-13078D01*
X1032703Y-12074D01*
X1031852Y-11123D01*
X1030942Y-10228D01*
X1029978Y-9393D01*
X1028963Y-8620D01*
X1027900Y-7914D01*
X1026795Y-7276D01*
X1025652Y-6709D01*
X1024475Y-6215D01*
X1023269Y-5799D01*
X1022040Y-5459D01*
X1020791Y-5196D01*
X1019528Y-5016D01*
X1018256Y-4915D01*
X1016980Y-4895D01*
X1015706Y-4954D01*
X1014438Y-5097D01*
X1013181Y-5318D01*
X1011941Y-5619D01*
X1010722Y-5997D01*
X1009530Y-6453D01*
X1008370Y-6983D01*
X1007245Y-7586D01*
X1006161Y-8258D01*
X1005121Y-8998D01*
X1004131Y-9803D01*
X1003194Y-10668D01*
X1002313Y-11592D01*
X1001493Y-12570D01*
X1000737Y-13598D01*
X1000047Y-14670D01*
X999426Y-15785D01*
X998878Y-16938D01*
X998404Y-18123D01*
X998006Y-19335D01*
X997685Y-20569D01*
X997444Y-21822D01*
X997282Y-23088D01*
X997201Y-24362D01*
X997201Y-25637D01*
X997282Y-26911D01*
X997444Y-28177D01*
X997685Y-29430D01*
X998006Y-30664D01*
X998404Y-31876D01*
X998878Y-33061D01*
X999426Y-34214D01*
X1000047Y-35329D01*
X1000737Y-36401D01*
X1001493Y-37429D01*
X1002313Y-38407D01*
X1003194Y-39331D01*
X1004131Y-40196D01*
X1005121Y-41001D01*
X1006161Y-41741D01*
X1007245Y-42413D01*
X1008370Y-43016D01*
X1009530Y-43546D01*
X1010722Y-44002D01*
X1011941Y-44380D01*
X1013181Y-44681D01*
X1014438Y-44902D01*
X1015706Y-45045D01*
G37*
G36*
X606480Y250302D02*
G01*
X607755Y250322D01*
X609027Y250423D01*
X610289Y250605D01*
X611538Y250866D01*
X612767Y251206D01*
X613972Y251624D01*
X615149Y252116D01*
X616292Y252683D01*
X617396Y253321D01*
X618458Y254027D01*
X619474Y254798D01*
X620437Y255635D01*
X621346Y256529D01*
X622196Y257480D01*
X622985Y258483D01*
X623708Y259533D01*
X624363Y260626D01*
X624948Y261761D01*
X625459Y262930D01*
X625895Y264128D01*
X626255Y265351D01*
X626536Y266595D01*
X626737Y267854D01*
X626859Y269124D01*
X626899Y270399D01*
X626859Y271675D01*
X626737Y272944D01*
X626536Y274203D01*
X626255Y275448D01*
X625895Y276671D01*
X625459Y277869D01*
X624948Y279038D01*
X624363Y280172D01*
X623708Y281266D01*
X622985Y282316D01*
X622196Y283319D01*
X621346Y284270D01*
X620437Y285165D01*
X619474Y286001D01*
X618458Y286772D01*
X617396Y287478D01*
X616292Y288117D01*
X615149Y288683D01*
X613972Y289176D01*
X612767Y289594D01*
X611538Y289933D01*
X610289Y290194D01*
X609027Y290376D01*
X607755Y290477D01*
X606480Y290497D01*
X605206Y290437D01*
X603938Y290295D01*
X602682Y290073D01*
X601443Y289773D01*
X600225Y289394D01*
X599033Y288939D01*
X597873Y288409D01*
X596749Y287806D01*
X595665Y287134D01*
X594626Y286395D01*
X593636Y285590D01*
X592699Y284724D01*
X591819Y283802D01*
X590999Y282824D01*
X590243Y281797D01*
X589554Y280725D01*
X588933Y279609D01*
X588385Y278458D01*
X587911Y277274D01*
X587513Y276062D01*
X587193Y274828D01*
X586951Y273575D01*
X586790Y272310D01*
X586709Y271037D01*
X586709Y269762D01*
X586790Y268488D01*
X586951Y267224D01*
X587193Y265972D01*
X587513Y264737D01*
X587911Y263524D01*
X588385Y262341D01*
X588933Y261190D01*
X589554Y260075D01*
X590243Y259002D01*
X590999Y257975D01*
X591819Y256997D01*
X592699Y256075D01*
X593636Y255208D01*
X594626Y254405D01*
X595665Y253665D01*
X596749Y252993D01*
X597873Y252390D01*
X599033Y251860D01*
X600225Y251404D01*
X601443Y251026D01*
X602682Y250725D01*
X603938Y250504D01*
X605206Y250363D01*
G37*
G36*
X-56819Y-14097D02*
G01*
X-55543Y-14077D01*
X-54272Y-13975D01*
X-53010Y-13795D01*
X-51761Y-13533D01*
X-50532Y-13193D01*
X-49327Y-12775D01*
X-48150Y-12283D01*
X-47007Y-11716D01*
X-45903Y-11078D01*
X-44841Y-10372D01*
X-43826Y-9600D01*
X-42862Y-8764D01*
X-41953Y-7871D01*
X-41103Y-6920D01*
X-40314Y-5916D01*
X-39591Y-4866D01*
X-38936Y-3773D01*
X-38351Y-2638D01*
X-37840Y-1469D01*
X-37404Y-271D01*
X-37044Y952D01*
X-36763Y2195D01*
X-36562Y3454D01*
X-36440Y4724D01*
X-36400Y5999D01*
X-36440Y7274D01*
X-36562Y8544D01*
X-36763Y9803D01*
X-37044Y11048D01*
X-37404Y12271D01*
X-37840Y13470D01*
X-38351Y14639D01*
X-38936Y15772D01*
X-39591Y16867D01*
X-40314Y17917D01*
X-41103Y18919D01*
X-41953Y19870D01*
X-42862Y20765D01*
X-43826Y21601D01*
X-44841Y22372D01*
X-45903Y23078D01*
X-47007Y23717D01*
X-48150Y24283D01*
X-49327Y24776D01*
X-50532Y25194D01*
X-51761Y25533D01*
X-53010Y25794D01*
X-54272Y25976D01*
X-55543Y26077D01*
X-56819Y26096D01*
X-58093Y26037D01*
X-59361Y25895D01*
X-60617Y25673D01*
X-61856Y25372D01*
X-63074Y24994D01*
X-64266Y24538D01*
X-65426Y24009D01*
X-66550Y23407D01*
X-67634Y22734D01*
X-68673Y21995D01*
X-69663Y21190D01*
X-70600Y20324D01*
X-71480Y19402D01*
X-72300Y18425D01*
X-73056Y17397D01*
X-73745Y16325D01*
X-74365Y15210D01*
X-74914Y14059D01*
X-75388Y12874D01*
X-75786Y11662D01*
X-76106Y10428D01*
X-76348Y9176D01*
X-76509Y7910D01*
X-76590Y6637D01*
X-76590Y5362D01*
X-76509Y4088D01*
X-76348Y2824D01*
X-76106Y1572D01*
X-75786Y336D01*
X-75388Y-875D01*
X-74914Y-2058D01*
X-74365Y-3209D01*
X-73745Y-4324D01*
X-73056Y-5398D01*
X-72300Y-6424D01*
X-71480Y-7402D01*
X-70600Y-8324D01*
X-69663Y-9191D01*
X-68673Y-9994D01*
X-67634Y-10734D01*
X-66550Y-11406D01*
X-65426Y-12008D01*
X-64266Y-12539D01*
X-63074Y-12995D01*
X-61856Y-13373D01*
X-60617Y-13674D01*
X-59361Y-13895D01*
X-58093Y-14036D01*
G37*
G36*
X553780Y1903D02*
G01*
X555055Y1923D01*
X556327Y2024D01*
X557590Y2204D01*
X558838Y2467D01*
X560067Y2806D01*
X561272Y3224D01*
X562449Y3715D01*
X563592Y4283D01*
X564696Y4920D01*
X565758Y5626D01*
X566773Y6399D01*
X567737Y7235D01*
X568646Y8128D01*
X569496Y9079D01*
X570285Y10082D01*
X571008Y11132D01*
X571663Y12226D01*
X572248Y13360D01*
X572759Y14529D01*
X573195Y15727D01*
X573555Y16952D01*
X573836Y18195D01*
X574037Y19454D01*
X574159Y20725D01*
X574199Y21999D01*
X574159Y23274D01*
X574037Y24544D01*
X573836Y25803D01*
X573555Y27047D01*
X573195Y28272D01*
X572759Y29470D01*
X572248Y30639D01*
X571663Y31772D01*
X571008Y32867D01*
X570285Y33917D01*
X569496Y34920D01*
X568646Y35871D01*
X567737Y36765D01*
X566773Y37600D01*
X565758Y38373D01*
X564696Y39079D01*
X563592Y39717D01*
X562449Y40284D01*
X561272Y40776D01*
X560067Y41194D01*
X558838Y41532D01*
X557590Y41795D01*
X556327Y41975D01*
X555055Y42076D01*
X553780Y42096D01*
X552506Y42037D01*
X551238Y41894D01*
X549982Y41673D01*
X548743Y41372D01*
X547525Y40994D01*
X546333Y40538D01*
X545173Y40009D01*
X544049Y39407D01*
X542965Y38735D01*
X541926Y37995D01*
X540936Y37190D01*
X540000Y36325D01*
X539119Y35401D01*
X538299Y34425D01*
X537543Y33398D01*
X536854Y32325D01*
X536233Y31210D01*
X535685Y30059D01*
X535211Y28874D01*
X534813Y27662D01*
X534493Y26428D01*
X534251Y25176D01*
X534090Y23910D01*
X534009Y22638D01*
X534009Y21361D01*
X534090Y20088D01*
X534251Y18823D01*
X534493Y17572D01*
X534813Y16336D01*
X535211Y15124D01*
X535685Y13940D01*
X536233Y12789D01*
X536854Y11675D01*
X537543Y10601D01*
X538299Y9574D01*
X539119Y8598D01*
X540000Y7674D01*
X540936Y6808D01*
X541926Y6005D01*
X542965Y5264D01*
X544049Y4592D01*
X545173Y3991D01*
X546333Y3461D01*
X547525Y3004D01*
X548743Y2627D01*
X549982Y2325D01*
X551238Y2105D01*
X552506Y1963D01*
G37*
G36*
X364080Y13002D02*
G01*
X365355Y13022D01*
X366627Y13123D01*
X367889Y13305D01*
X369138Y13566D01*
X370367Y13906D01*
X371572Y14324D01*
X372749Y14816D01*
X373892Y15383D01*
X374996Y16021D01*
X376058Y16727D01*
X377073Y17498D01*
X378037Y18335D01*
X378946Y19229D01*
X379796Y20180D01*
X380585Y21183D01*
X381308Y22233D01*
X381963Y23326D01*
X382548Y24461D01*
X383059Y25630D01*
X383495Y26828D01*
X383855Y28051D01*
X384136Y29295D01*
X384337Y30554D01*
X384459Y31824D01*
X384499Y33099D01*
X384459Y34375D01*
X384337Y35644D01*
X384136Y36903D01*
X383855Y38148D01*
X383495Y39371D01*
X383059Y40569D01*
X382548Y41738D01*
X381963Y42872D01*
X381308Y43966D01*
X380585Y45016D01*
X379796Y46019D01*
X378946Y46970D01*
X378037Y47865D01*
X377073Y48701D01*
X376058Y49472D01*
X374996Y50178D01*
X373892Y50817D01*
X373221Y51149D01*
X373892Y51482D01*
X374996Y52121D01*
X376058Y52827D01*
X377073Y53598D01*
X378037Y54434D01*
X378946Y55329D01*
X379796Y56280D01*
X380585Y57283D01*
X381308Y58332D01*
X381963Y59427D01*
X382548Y60560D01*
X383059Y61729D01*
X383495Y62928D01*
X383855Y64151D01*
X384136Y65396D01*
X384337Y66655D01*
X384459Y67925D01*
X384499Y69200D01*
X384459Y70475D01*
X384337Y71745D01*
X384136Y73004D01*
X383855Y74247D01*
X383495Y75471D01*
X383059Y76669D01*
X382548Y77838D01*
X381963Y78973D01*
X381308Y80066D01*
X380585Y81116D01*
X379796Y82119D01*
X378946Y83070D01*
X378037Y83964D01*
X377073Y84801D01*
X376058Y85572D01*
X374996Y86278D01*
X373892Y86916D01*
X372749Y87483D01*
X371572Y87975D01*
X370367Y88393D01*
X369138Y88733D01*
X367889Y88994D01*
X366627Y89176D01*
X365355Y89277D01*
X364080Y89297D01*
X362806Y89236D01*
X361538Y89095D01*
X360282Y88874D01*
X359043Y88573D01*
X357825Y88195D01*
X356633Y87739D01*
X355473Y87208D01*
X354349Y86606D01*
X353265Y85934D01*
X352226Y85194D01*
X351236Y84391D01*
X350299Y83524D01*
X349420Y82602D01*
X348599Y81624D01*
X347843Y80597D01*
X347154Y79524D01*
X346533Y78409D01*
X345985Y77258D01*
X345511Y76075D01*
X345113Y74863D01*
X344793Y73627D01*
X344551Y72375D01*
X344390Y71111D01*
X344309Y69837D01*
X344309Y68562D01*
X344390Y67289D01*
X344551Y66024D01*
X344793Y64771D01*
X345113Y63537D01*
X345511Y62325D01*
X345985Y61140D01*
X346533Y59989D01*
X347154Y58874D01*
X347843Y57802D01*
X348599Y56774D01*
X349420Y55797D01*
X350299Y54875D01*
X351236Y54009D01*
X352226Y53204D01*
X353265Y52465D01*
X354349Y51792D01*
X355473Y51190D01*
X355563Y51149D01*
X355473Y51109D01*
X354349Y50506D01*
X353265Y49834D01*
X352226Y49095D01*
X351236Y48290D01*
X350299Y47424D01*
X349420Y46502D01*
X348599Y45524D01*
X347843Y44497D01*
X347154Y43425D01*
X346533Y42310D01*
X345985Y41158D01*
X345511Y39974D01*
X345113Y38762D01*
X344793Y37528D01*
X344551Y36275D01*
X344390Y35010D01*
X344309Y33737D01*
X344309Y32462D01*
X344390Y31188D01*
X344551Y29924D01*
X344793Y28672D01*
X345113Y27436D01*
X345511Y26224D01*
X345985Y25041D01*
X346533Y23890D01*
X347154Y22775D01*
X347843Y21702D01*
X348599Y20675D01*
X349420Y19697D01*
X350299Y18775D01*
X351236Y17908D01*
X352226Y17105D01*
X353265Y16365D01*
X354349Y15693D01*
X355473Y15091D01*
X356633Y14560D01*
X357825Y14104D01*
X359043Y13726D01*
X360282Y13425D01*
X361538Y13204D01*
X362806Y13063D01*
G37*
G36*
X469680Y14902D02*
G01*
X470955Y14922D01*
X472227Y15023D01*
X473489Y15205D01*
X474738Y15466D01*
X475967Y15805D01*
X477172Y16224D01*
X478349Y16716D01*
X479492Y17283D01*
X480596Y17921D01*
X481658Y18627D01*
X482673Y19398D01*
X483637Y20234D01*
X484546Y21129D01*
X485396Y22080D01*
X486185Y23083D01*
X486908Y24133D01*
X487563Y25226D01*
X488148Y26361D01*
X488659Y27530D01*
X489095Y28728D01*
X489456Y29951D01*
X489736Y31195D01*
X489937Y32454D01*
X490059Y33724D01*
X490099Y35000D01*
X490059Y36275D01*
X489937Y37545D01*
X489736Y38804D01*
X489456Y40048D01*
X489095Y41271D01*
X488659Y42469D01*
X488148Y43638D01*
X487563Y44773D01*
X486908Y45866D01*
X486185Y46916D01*
X485396Y47919D01*
X484546Y48870D01*
X483637Y49765D01*
X482673Y50601D01*
X481658Y51372D01*
X480596Y52078D01*
X479492Y52716D01*
X478349Y53283D01*
X477172Y53775D01*
X475967Y54194D01*
X474738Y54533D01*
X473489Y54794D01*
X472227Y54976D01*
X470955Y55077D01*
X469680Y55097D01*
X468406Y55037D01*
X467138Y54895D01*
X465882Y54673D01*
X464643Y54373D01*
X463425Y53994D01*
X462233Y53539D01*
X461073Y53009D01*
X459949Y52406D01*
X458865Y51734D01*
X457826Y50994D01*
X456836Y50190D01*
X455899Y49324D01*
X455019Y48402D01*
X454199Y47424D01*
X453443Y46397D01*
X452754Y45324D01*
X452133Y44209D01*
X451585Y43058D01*
X451111Y41875D01*
X450713Y40662D01*
X450393Y39427D01*
X450151Y38175D01*
X449991Y36911D01*
X449909Y35637D01*
X449909Y34362D01*
X449991Y33088D01*
X450151Y31824D01*
X450393Y30572D01*
X450713Y29337D01*
X451111Y28125D01*
X451585Y26941D01*
X452133Y25790D01*
X452754Y24675D01*
X453443Y23602D01*
X454199Y22575D01*
X455019Y21597D01*
X455899Y20675D01*
X456836Y19809D01*
X457826Y19005D01*
X458865Y18265D01*
X459949Y17593D01*
X461073Y16990D01*
X462233Y16460D01*
X463425Y16005D01*
X464643Y15626D01*
X465882Y15326D01*
X467138Y15104D01*
X468406Y14962D01*
G37*
G36*
X417880Y24203D02*
G01*
X419155Y24223D01*
X420427Y24324D01*
X421689Y24504D01*
X422938Y24767D01*
X424167Y25106D01*
X425372Y25524D01*
X426549Y26015D01*
X427692Y26583D01*
X428796Y27220D01*
X429858Y27926D01*
X430873Y28699D01*
X431837Y29535D01*
X432746Y30428D01*
X433596Y31379D01*
X434385Y32382D01*
X435108Y33432D01*
X435763Y34526D01*
X436349Y35661D01*
X436859Y36829D01*
X437295Y38027D01*
X437655Y39252D01*
X437936Y40495D01*
X438137Y41754D01*
X438259Y43024D01*
X438299Y44299D01*
X438259Y45574D01*
X438137Y46844D01*
X437936Y48103D01*
X437655Y49347D01*
X437295Y50572D01*
X436859Y51770D01*
X436349Y52939D01*
X435763Y54072D01*
X435108Y55167D01*
X434385Y56217D01*
X433596Y57220D01*
X432746Y58171D01*
X431837Y59065D01*
X430873Y59900D01*
X429858Y60673D01*
X428796Y61379D01*
X427692Y62017D01*
X426549Y62584D01*
X425372Y63076D01*
X424167Y63494D01*
X422938Y63832D01*
X421689Y64095D01*
X420427Y64275D01*
X419155Y64376D01*
X417880Y64396D01*
X416606Y64337D01*
X415338Y64194D01*
X414082Y63973D01*
X412843Y63672D01*
X411625Y63294D01*
X410433Y62838D01*
X409273Y62309D01*
X408149Y61707D01*
X407065Y61035D01*
X406026Y60295D01*
X405036Y59490D01*
X404099Y58625D01*
X403219Y57701D01*
X402399Y56725D01*
X401643Y55698D01*
X400954Y54625D01*
X400333Y53510D01*
X399785Y52359D01*
X399311Y51174D01*
X398913Y49962D01*
X398593Y48728D01*
X398351Y47476D01*
X398190Y46210D01*
X398109Y44938D01*
X398109Y43661D01*
X398190Y42388D01*
X398351Y41123D01*
X398593Y39872D01*
X398913Y38636D01*
X399311Y37424D01*
X399785Y36240D01*
X400333Y35090D01*
X400954Y33975D01*
X401643Y32901D01*
X402399Y31875D01*
X403219Y30898D01*
X404099Y29974D01*
X405036Y29108D01*
X406026Y28305D01*
X407065Y27564D01*
X408149Y26893D01*
X409273Y26291D01*
X410433Y25761D01*
X411625Y25304D01*
X412843Y24926D01*
X414082Y24625D01*
X415338Y24405D01*
X416606Y24263D01*
G37*
G36*
X1179780Y49203D02*
G01*
X1181055Y49223D01*
X1182327Y49324D01*
X1183589Y49504D01*
X1184838Y49767D01*
X1186067Y50106D01*
X1187272Y50524D01*
X1188449Y51015D01*
X1189592Y51583D01*
X1190697Y52220D01*
X1191758Y52926D01*
X1192773Y53699D01*
X1193737Y54535D01*
X1194646Y55428D01*
X1195496Y56379D01*
X1196286Y57382D01*
X1197008Y58432D01*
X1197663Y59526D01*
X1198248Y60661D01*
X1198759Y61829D01*
X1199195Y63027D01*
X1199555Y64252D01*
X1199836Y65495D01*
X1200037Y66754D01*
X1200159Y68024D01*
X1200199Y69299D01*
X1200159Y70574D01*
X1200037Y71844D01*
X1199836Y73103D01*
X1199555Y74347D01*
X1199195Y75572D01*
X1198759Y76770D01*
X1198248Y77939D01*
X1197663Y79072D01*
X1197008Y80167D01*
X1196286Y81217D01*
X1195496Y82220D01*
X1194646Y83171D01*
X1193737Y84065D01*
X1192773Y84900D01*
X1191758Y85673D01*
X1190697Y86379D01*
X1189592Y87017D01*
X1188449Y87584D01*
X1187272Y88076D01*
X1186067Y88494D01*
X1184838Y88832D01*
X1183589Y89095D01*
X1182327Y89275D01*
X1181055Y89376D01*
X1179780Y89396D01*
X1178506Y89337D01*
X1177238Y89194D01*
X1175982Y88973D01*
X1174743Y88672D01*
X1173525Y88294D01*
X1172333Y87838D01*
X1171173Y87309D01*
X1170049Y86707D01*
X1168965Y86035D01*
X1167926Y85295D01*
X1166936Y84490D01*
X1165999Y83625D01*
X1165119Y82701D01*
X1164299Y81725D01*
X1163543Y80698D01*
X1162854Y79625D01*
X1162233Y78510D01*
X1161685Y77359D01*
X1161211Y76174D01*
X1160813Y74962D01*
X1160493Y73728D01*
X1160251Y72476D01*
X1160090Y71210D01*
X1160009Y69938D01*
X1160009Y68661D01*
X1160090Y67388D01*
X1160251Y66123D01*
X1160493Y64872D01*
X1160813Y63636D01*
X1161211Y62424D01*
X1161685Y61240D01*
X1162233Y60090D01*
X1162854Y58975D01*
X1163543Y57901D01*
X1164299Y56875D01*
X1165119Y55898D01*
X1165999Y54974D01*
X1166936Y54108D01*
X1167926Y53305D01*
X1168965Y52564D01*
X1170049Y51893D01*
X1171173Y51291D01*
X1172333Y50761D01*
X1173525Y50304D01*
X1174743Y49926D01*
X1175982Y49625D01*
X1177238Y49405D01*
X1178506Y49263D01*
G37*
G36*
X469680Y59902D02*
G01*
X470955Y59922D01*
X472227Y60023D01*
X473489Y60205D01*
X474738Y60466D01*
X475967Y60805D01*
X477172Y61224D01*
X478349Y61716D01*
X479492Y62283D01*
X480596Y62921D01*
X481658Y63627D01*
X482673Y64398D01*
X483637Y65234D01*
X484546Y66129D01*
X485396Y67080D01*
X486185Y68083D01*
X486908Y69133D01*
X487563Y70226D01*
X488148Y71361D01*
X488659Y72530D01*
X489095Y73728D01*
X489456Y74951D01*
X489736Y76195D01*
X489937Y77454D01*
X490059Y78724D01*
X490099Y80000D01*
X490059Y81275D01*
X489937Y82545D01*
X489736Y83804D01*
X489456Y85048D01*
X489095Y86271D01*
X488659Y87469D01*
X488148Y88638D01*
X487563Y89773D01*
X486908Y90866D01*
X486185Y91916D01*
X485396Y92919D01*
X484546Y93870D01*
X483637Y94765D01*
X482673Y95601D01*
X481658Y96372D01*
X480596Y97078D01*
X479492Y97716D01*
X478349Y98283D01*
X477172Y98775D01*
X475967Y99194D01*
X474738Y99533D01*
X473489Y99794D01*
X472227Y99976D01*
X470955Y100077D01*
X469680Y100097D01*
X468406Y100037D01*
X467138Y99895D01*
X465882Y99673D01*
X464643Y99373D01*
X463425Y98994D01*
X462233Y98539D01*
X461073Y98009D01*
X459949Y97406D01*
X458865Y96734D01*
X457826Y95994D01*
X456836Y95190D01*
X455899Y94324D01*
X455019Y93402D01*
X454199Y92424D01*
X453443Y91397D01*
X452754Y90324D01*
X452133Y89209D01*
X451585Y88058D01*
X451111Y86875D01*
X450713Y85662D01*
X450393Y84427D01*
X450151Y83175D01*
X449991Y81911D01*
X449909Y80637D01*
X449909Y79362D01*
X449991Y78088D01*
X450151Y76824D01*
X450393Y75572D01*
X450713Y74337D01*
X451111Y73125D01*
X451585Y71941D01*
X452133Y70790D01*
X452754Y69675D01*
X453443Y68602D01*
X454199Y67575D01*
X455019Y66597D01*
X455899Y65675D01*
X456836Y64809D01*
X457826Y64005D01*
X458865Y63265D01*
X459949Y62593D01*
X461073Y61990D01*
X462233Y61460D01*
X463425Y61005D01*
X464643Y60626D01*
X465882Y60326D01*
X467138Y60104D01*
X468406Y59962D01*
G37*
G36*
X929680Y164902D02*
G01*
X930955Y164922D01*
X932227Y165023D01*
X933489Y165205D01*
X934738Y165466D01*
X935967Y165805D01*
X937172Y166224D01*
X938349Y166716D01*
X939492Y167283D01*
X940596Y167921D01*
X941658Y168627D01*
X942673Y169398D01*
X943637Y170234D01*
X944546Y171129D01*
X945396Y172080D01*
X946185Y173083D01*
X946908Y174133D01*
X947563Y175226D01*
X948148Y176361D01*
X948659Y177530D01*
X949095Y178728D01*
X949456Y179951D01*
X949736Y181195D01*
X949937Y182454D01*
X950059Y183724D01*
X950099Y185000D01*
X950059Y186275D01*
X949937Y187545D01*
X949736Y188804D01*
X949456Y190048D01*
X949095Y191271D01*
X948659Y192469D01*
X948148Y193638D01*
X947563Y194773D01*
X946908Y195866D01*
X946185Y196916D01*
X945396Y197919D01*
X944546Y198870D01*
X943637Y199765D01*
X942673Y200601D01*
X941658Y201372D01*
X940596Y202078D01*
X939492Y202716D01*
X939375Y202775D01*
X939592Y202883D01*
X940697Y203521D01*
X941758Y204227D01*
X942773Y204998D01*
X943737Y205835D01*
X944646Y206729D01*
X945496Y207680D01*
X946286Y208683D01*
X947008Y209733D01*
X947663Y210826D01*
X948248Y211961D01*
X948759Y213130D01*
X949195Y214328D01*
X949555Y215551D01*
X949836Y216795D01*
X950037Y218054D01*
X950159Y219324D01*
X950199Y220599D01*
X950159Y221875D01*
X950037Y223144D01*
X949836Y224403D01*
X949555Y225648D01*
X949195Y226871D01*
X948759Y228069D01*
X948248Y229238D01*
X947663Y230372D01*
X947008Y231466D01*
X946286Y232516D01*
X945496Y233519D01*
X944646Y234470D01*
X943737Y235365D01*
X942773Y236201D01*
X941758Y236972D01*
X940697Y237678D01*
X939592Y238317D01*
X938449Y238883D01*
X937272Y239376D01*
X936067Y239794D01*
X934838Y240133D01*
X933589Y240394D01*
X932327Y240576D01*
X931055Y240677D01*
X929780Y240697D01*
X928506Y240637D01*
X927238Y240495D01*
X925982Y240273D01*
X924743Y239972D01*
X923525Y239594D01*
X922333Y239139D01*
X921173Y238609D01*
X920049Y238006D01*
X918965Y237334D01*
X917926Y236595D01*
X916936Y235790D01*
X915999Y234924D01*
X915119Y234002D01*
X914299Y233024D01*
X913543Y231997D01*
X912854Y230925D01*
X912233Y229810D01*
X911685Y228658D01*
X911211Y227474D01*
X910813Y226262D01*
X910493Y225028D01*
X910251Y223775D01*
X910090Y222510D01*
X910009Y221237D01*
X910009Y219962D01*
X910090Y218688D01*
X910251Y217424D01*
X910493Y216172D01*
X910813Y214936D01*
X911211Y213724D01*
X911685Y212541D01*
X912233Y211390D01*
X912854Y210275D01*
X913543Y209202D01*
X914299Y208175D01*
X915119Y207197D01*
X915999Y206275D01*
X916936Y205408D01*
X917926Y204605D01*
X918965Y203865D01*
X920049Y203193D01*
X920733Y202827D01*
X919949Y202406D01*
X918865Y201734D01*
X917826Y200994D01*
X916836Y200190D01*
X915899Y199324D01*
X915019Y198402D01*
X914199Y197424D01*
X913443Y196397D01*
X912754Y195324D01*
X912133Y194209D01*
X911585Y193058D01*
X911111Y191875D01*
X910713Y190662D01*
X910393Y189427D01*
X910151Y188175D01*
X909991Y186911D01*
X909909Y185637D01*
X909909Y184362D01*
X909991Y183088D01*
X910151Y181824D01*
X910393Y180572D01*
X910713Y179337D01*
X911111Y178125D01*
X911585Y176941D01*
X912133Y175790D01*
X912754Y174675D01*
X913443Y173602D01*
X914199Y172575D01*
X915019Y171597D01*
X915899Y170675D01*
X916836Y169809D01*
X917826Y169005D01*
X918865Y168265D01*
X919949Y167593D01*
X921073Y166990D01*
X922233Y166460D01*
X923425Y166005D01*
X924643Y165626D01*
X925882Y165326D01*
X927138Y165104D01*
X928406Y164962D01*
G37*
G36*
X-40319Y176403D02*
G01*
X-39044Y176422D01*
X-37772Y176523D01*
X-36510Y176705D01*
X-35261Y176966D01*
X-34032Y177305D01*
X-32827Y177723D01*
X-31650Y178216D01*
X-30507Y178782D01*
X-29403Y179421D01*
X-28341Y180127D01*
X-27326Y180898D01*
X-26362Y181734D01*
X-25453Y182629D01*
X-24603Y183580D01*
X-23814Y184582D01*
X-23091Y185632D01*
X-22436Y186727D01*
X-21851Y187860D01*
X-21340Y189029D01*
X-20904Y190228D01*
X-20543Y191451D01*
X-20263Y192696D01*
X-20062Y193955D01*
X-19940Y195225D01*
X-19900Y196500D01*
X-19940Y197775D01*
X-20062Y199045D01*
X-20263Y200304D01*
X-20543Y201547D01*
X-20904Y202771D01*
X-21340Y203969D01*
X-21851Y205138D01*
X-22436Y206273D01*
X-23091Y207366D01*
X-23814Y208416D01*
X-24603Y209420D01*
X-25453Y210371D01*
X-26362Y211264D01*
X-27326Y212100D01*
X-28341Y212872D01*
X-29403Y213578D01*
X-30507Y214216D01*
X-31650Y214783D01*
X-32827Y215275D01*
X-34032Y215693D01*
X-35261Y216033D01*
X-36510Y216295D01*
X-37772Y216475D01*
X-39044Y216577D01*
X-40319Y216597D01*
X-41593Y216536D01*
X-42861Y216395D01*
X-44117Y216174D01*
X-45356Y215873D01*
X-46574Y215495D01*
X-47766Y215039D01*
X-48926Y214508D01*
X-50050Y213906D01*
X-51134Y213234D01*
X-52173Y212494D01*
X-53163Y211691D01*
X-54100Y210824D01*
X-54980Y209902D01*
X-55800Y208924D01*
X-56556Y207898D01*
X-57245Y206824D01*
X-57866Y205709D01*
X-58414Y204558D01*
X-58888Y203375D01*
X-59286Y202163D01*
X-59606Y200927D01*
X-59848Y199675D01*
X-60009Y198411D01*
X-60090Y197137D01*
X-60090Y195862D01*
X-60009Y194589D01*
X-59848Y193323D01*
X-59606Y192071D01*
X-59286Y190837D01*
X-58888Y189625D01*
X-58414Y188440D01*
X-57866Y187289D01*
X-57245Y186174D01*
X-56556Y185102D01*
X-55800Y184074D01*
X-54980Y183097D01*
X-54100Y182175D01*
X-53163Y181309D01*
X-52173Y180504D01*
X-51134Y179765D01*
X-50050Y179092D01*
X-48926Y178490D01*
X-47766Y177961D01*
X-46574Y177505D01*
X-45356Y177127D01*
X-44117Y176826D01*
X-42861Y176604D01*
X-41593Y176462D01*
G37*
G36*
X164680Y194902D02*
G01*
X165955Y194922D01*
X167227Y195023D01*
X168489Y195205D01*
X169738Y195466D01*
X170967Y195805D01*
X172172Y196224D01*
X173349Y196716D01*
X174492Y197283D01*
X175596Y197921D01*
X176658Y198627D01*
X177673Y199398D01*
X178637Y200234D01*
X179546Y201129D01*
X180396Y202080D01*
X181185Y203083D01*
X181908Y204133D01*
X182563Y205226D01*
X183148Y206361D01*
X183659Y207530D01*
X184095Y208728D01*
X184456Y209951D01*
X184736Y211195D01*
X184937Y212454D01*
X185059Y213724D01*
X185099Y215000D01*
X185059Y216275D01*
X184937Y217545D01*
X184736Y218804D01*
X184456Y220048D01*
X184095Y221271D01*
X183659Y222469D01*
X183148Y223638D01*
X182563Y224773D01*
X181908Y225866D01*
X181185Y226916D01*
X180396Y227919D01*
X179546Y228870D01*
X178637Y229765D01*
X177673Y230601D01*
X176658Y231372D01*
X175596Y232078D01*
X174492Y232716D01*
X173349Y233283D01*
X172172Y233775D01*
X170967Y234194D01*
X169738Y234533D01*
X168489Y234794D01*
X167227Y234976D01*
X165955Y235077D01*
X164680Y235097D01*
X163406Y235037D01*
X162138Y234895D01*
X160882Y234673D01*
X159643Y234373D01*
X158425Y233994D01*
X157233Y233539D01*
X156073Y233009D01*
X154949Y232406D01*
X153865Y231734D01*
X152826Y230994D01*
X151836Y230190D01*
X150899Y229324D01*
X150019Y228402D01*
X149199Y227424D01*
X148443Y226397D01*
X147754Y225324D01*
X147133Y224209D01*
X146585Y223058D01*
X146111Y221875D01*
X145713Y220662D01*
X145393Y219427D01*
X145151Y218175D01*
X144991Y216911D01*
X144909Y215637D01*
X144909Y214362D01*
X144991Y213088D01*
X145151Y211824D01*
X145393Y210572D01*
X145713Y209337D01*
X146111Y208125D01*
X146585Y206941D01*
X147133Y205790D01*
X147754Y204675D01*
X148443Y203602D01*
X149199Y202575D01*
X150019Y201597D01*
X150899Y200675D01*
X151836Y199809D01*
X152826Y199005D01*
X153865Y198265D01*
X154949Y197593D01*
X156073Y196990D01*
X157233Y196460D01*
X158425Y196005D01*
X159643Y195626D01*
X160882Y195326D01*
X162138Y195104D01*
X163406Y194962D01*
G37*
G36*
X374080Y227103D02*
G01*
X375355Y227123D01*
X376627Y227224D01*
X377889Y227404D01*
X379138Y227667D01*
X380367Y228006D01*
X381572Y228423D01*
X382749Y228915D01*
X383892Y229483D01*
X384996Y230120D01*
X386058Y230826D01*
X387073Y231599D01*
X388037Y232435D01*
X388946Y233328D01*
X389796Y234279D01*
X390585Y235282D01*
X391308Y236332D01*
X391963Y237426D01*
X392548Y238560D01*
X393059Y239729D01*
X393495Y240927D01*
X393855Y242152D01*
X394136Y243395D01*
X394337Y244654D01*
X394459Y245925D01*
X394499Y247199D01*
X394459Y248474D01*
X394337Y249744D01*
X394136Y251003D01*
X393855Y252247D01*
X393495Y253472D01*
X393059Y254670D01*
X392548Y255839D01*
X391963Y256972D01*
X391308Y258067D01*
X390585Y259117D01*
X389796Y260120D01*
X388946Y261071D01*
X388037Y261965D01*
X387073Y262800D01*
X386058Y263573D01*
X384996Y264279D01*
X383892Y264917D01*
X382749Y265484D01*
X381572Y265976D01*
X380367Y266394D01*
X379138Y266732D01*
X377889Y266995D01*
X376627Y267175D01*
X375355Y267276D01*
X374080Y267296D01*
X372806Y267237D01*
X371538Y267094D01*
X370282Y266873D01*
X369043Y266572D01*
X367825Y266194D01*
X366633Y265738D01*
X365473Y265208D01*
X364349Y264607D01*
X363265Y263935D01*
X362226Y263195D01*
X361236Y262390D01*
X360299Y261525D01*
X359420Y260601D01*
X358599Y259625D01*
X357843Y258598D01*
X357154Y257525D01*
X356533Y256410D01*
X355985Y255259D01*
X355511Y254074D01*
X355113Y252863D01*
X354793Y251628D01*
X354551Y250376D01*
X354390Y249110D01*
X354309Y247838D01*
X354309Y246561D01*
X354390Y245288D01*
X354551Y244023D01*
X354793Y242771D01*
X355113Y241536D01*
X355511Y240324D01*
X355985Y239140D01*
X356533Y237989D01*
X357154Y236875D01*
X357843Y235801D01*
X358599Y234774D01*
X359420Y233798D01*
X360299Y232874D01*
X361236Y232008D01*
X362226Y231204D01*
X363265Y230464D01*
X364349Y229792D01*
X365473Y229191D01*
X366633Y228661D01*
X367825Y228204D01*
X369043Y227827D01*
X370282Y227525D01*
X371538Y227305D01*
X372806Y227163D01*
G37*
G36*
X703880Y234302D02*
G01*
X705155Y234322D01*
X706427Y234423D01*
X707689Y234605D01*
X708938Y234866D01*
X710167Y235205D01*
X711372Y235623D01*
X712549Y236116D01*
X713692Y236682D01*
X714796Y237321D01*
X715858Y238027D01*
X716873Y238798D01*
X717837Y239634D01*
X718746Y240529D01*
X719596Y241480D01*
X720385Y242483D01*
X721108Y243533D01*
X721763Y244627D01*
X722348Y245761D01*
X722859Y246930D01*
X723295Y248128D01*
X723655Y249351D01*
X723936Y250596D01*
X724137Y251855D01*
X724259Y253125D01*
X724299Y254400D01*
X724259Y255675D01*
X724137Y256945D01*
X723936Y258204D01*
X723655Y259448D01*
X723295Y260671D01*
X722859Y261869D01*
X722348Y263038D01*
X721763Y264173D01*
X721108Y265266D01*
X720385Y266316D01*
X719596Y267319D01*
X718746Y268270D01*
X717837Y269164D01*
X716873Y270001D01*
X715858Y270772D01*
X714796Y271478D01*
X713692Y272116D01*
X712549Y272683D01*
X711372Y273175D01*
X710167Y273593D01*
X708938Y273933D01*
X707689Y274194D01*
X706427Y274376D01*
X705155Y274477D01*
X703880Y274497D01*
X702606Y274436D01*
X701338Y274295D01*
X700082Y274074D01*
X698843Y273773D01*
X697625Y273395D01*
X696433Y272939D01*
X695273Y272408D01*
X694149Y271806D01*
X693065Y271134D01*
X692026Y270394D01*
X691036Y269591D01*
X690099Y268724D01*
X689219Y267802D01*
X688399Y266824D01*
X687643Y265797D01*
X686954Y264724D01*
X686333Y263609D01*
X685785Y262458D01*
X685311Y261275D01*
X684913Y260063D01*
X684593Y258827D01*
X684351Y257575D01*
X684190Y256311D01*
X684109Y255037D01*
X684109Y253762D01*
X684190Y252489D01*
X684351Y251224D01*
X684593Y249971D01*
X684913Y248737D01*
X685311Y247525D01*
X685785Y246341D01*
X686333Y245189D01*
X686954Y244074D01*
X687643Y243002D01*
X688399Y241975D01*
X689219Y240997D01*
X690099Y240075D01*
X691036Y239209D01*
X692026Y238404D01*
X693065Y237665D01*
X694149Y236993D01*
X695273Y236390D01*
X696433Y235860D01*
X697625Y235405D01*
X698843Y235027D01*
X700082Y234726D01*
X701338Y234504D01*
X702606Y234362D01*
G37*
G36*
X746180Y248802D02*
G01*
X747455Y248823D01*
X748727Y248924D01*
X749989Y249104D01*
X751238Y249367D01*
X752467Y249706D01*
X753672Y250124D01*
X754849Y250616D01*
X755992Y251183D01*
X757096Y251820D01*
X758158Y252527D01*
X759173Y253299D01*
X760137Y254135D01*
X761046Y255028D01*
X761896Y255979D01*
X762685Y256983D01*
X763408Y258033D01*
X764063Y259126D01*
X764648Y260261D01*
X765159Y261430D01*
X765595Y262627D01*
X765955Y263852D01*
X766236Y265095D01*
X766437Y266354D01*
X766559Y267624D01*
X766599Y268899D01*
X766559Y270174D01*
X766437Y271444D01*
X766236Y272703D01*
X765955Y273948D01*
X765595Y275171D01*
X765159Y276370D01*
X764648Y277539D01*
X764063Y278672D01*
X763408Y279767D01*
X762685Y280817D01*
X761896Y281819D01*
X761046Y282770D01*
X760137Y283665D01*
X759173Y284501D01*
X758158Y285273D01*
X757096Y285979D01*
X755992Y286617D01*
X754849Y287184D01*
X753672Y287676D01*
X752467Y288094D01*
X751238Y288433D01*
X749989Y288694D01*
X748727Y288876D01*
X747455Y288976D01*
X746180Y288996D01*
X744906Y288937D01*
X743638Y288795D01*
X742382Y288573D01*
X741143Y288272D01*
X739925Y287894D01*
X738733Y287438D01*
X737573Y286909D01*
X736449Y286307D01*
X735365Y285635D01*
X734326Y284895D01*
X733336Y284090D01*
X732399Y283225D01*
X731519Y282301D01*
X730699Y281325D01*
X729943Y280297D01*
X729254Y279225D01*
X728633Y278110D01*
X728085Y276959D01*
X727611Y275774D01*
X727213Y274562D01*
X726893Y273328D01*
X726651Y272076D01*
X726490Y270810D01*
X726409Y269537D01*
X726409Y268261D01*
X726490Y266988D01*
X726651Y265724D01*
X726893Y264472D01*
X727213Y263236D01*
X727611Y262024D01*
X728085Y260841D01*
X728633Y259690D01*
X729254Y258575D01*
X729943Y257501D01*
X730699Y256475D01*
X731519Y255497D01*
X732399Y254574D01*
X733336Y253708D01*
X734326Y252905D01*
X735365Y252164D01*
X736449Y251493D01*
X737573Y250891D01*
X738733Y250360D01*
X739925Y249904D01*
X741143Y249526D01*
X742382Y249225D01*
X743638Y249005D01*
X744906Y248863D01*
G37*

%LPD*%
G36*
X157306Y-80662D02*
G01*
X157075Y-79641D01*
X156715Y-78418D01*
X156279Y-77220D01*
X155768Y-76051D01*
X155183Y-74917D01*
X154528Y-73823D01*
X153805Y-72773D01*
X153016Y-71770D01*
X152166Y-70819D01*
X151257Y-69924D01*
X150293Y-69088D01*
X149278Y-68317D01*
X148216Y-67611D01*
X147112Y-66972D01*
X145969Y-66406D01*
X144792Y-65913D01*
X143587Y-65495D01*
X142358Y-65156D01*
X141633Y-65005D01*
X142358Y-64852D01*
X143587Y-64513D01*
X144792Y-64095D01*
X145969Y-63604D01*
X147112Y-63036D01*
X148216Y-62399D01*
X149278Y-61693D01*
X150293Y-60920D01*
X151257Y-60084D01*
X152166Y-59191D01*
X153016Y-58240D01*
X153805Y-57237D01*
X154528Y-56186D01*
X155183Y-55093D01*
X155768Y-53958D01*
X156279Y-52789D01*
X156715Y-51592D01*
X157075Y-50367D01*
X157306Y-49346D01*
X157383Y-49747D01*
X157703Y-50983D01*
X158101Y-52195D01*
X158575Y-53378D01*
X159123Y-54529D01*
X159744Y-55644D01*
X160433Y-56718D01*
X161189Y-57744D01*
X162009Y-58721D01*
X162889Y-59645D01*
X163826Y-60511D01*
X164816Y-61314D01*
X165855Y-62055D01*
X166939Y-62726D01*
X168063Y-63328D01*
X169223Y-63859D01*
X170415Y-64315D01*
X171633Y-64693D01*
X172872Y-64994D01*
X172935Y-65005D01*
X172872Y-65016D01*
X171633Y-65317D01*
X170415Y-65695D01*
X169223Y-66150D01*
X168063Y-66680D01*
X166939Y-67283D01*
X165855Y-67955D01*
X164816Y-68694D01*
X163826Y-69499D01*
X162889Y-70365D01*
X162009Y-71287D01*
X161189Y-72265D01*
X160433Y-73292D01*
X159744Y-74364D01*
X159123Y-75479D01*
X158575Y-76631D01*
X158101Y-77815D01*
X157703Y-79027D01*
X157383Y-80261D01*
G37*

%LPC*%

%LPD*%
D23*
G01*
X137619Y-45320D03*
G01*
X137619Y-84690D03*
G01*
X176989Y-84690D03*
G01*
X176989Y-45320D03*
G01*
X930099Y220599D03*
G01*
X930000Y185000D03*
D24*
G01*
X1097299Y460000D03*
G01*
X1017299Y-25000D03*
D23*
G01*
X52299Y-360000D03*
G01*
X27299Y-335000D03*
G01*
X475000Y-220000D03*
G01*
X522299Y-215000D03*
G01*
X417299Y-55000D03*
G01*
X-56500Y5999D03*
G01*
X516499Y-53899D03*
G01*
X547299Y-30000D03*
G01*
X-34200Y-214000D03*
G01*
X373999Y-422600D03*
G01*
X1097299Y170000D03*
G01*
X1180099Y69299D03*
G01*
X662299Y-450000D03*
G01*
X717299Y-180000D03*
G01*
X907299Y-345000D03*
G01*
X1002299Y-200000D03*
G01*
X1117299Y-205000D03*
G01*
X937299Y-110000D03*
G01*
X962299Y-85000D03*
G01*
X732299Y-485000D03*
G01*
X1072299Y-210000D03*
G01*
X430000Y-240000D03*
G01*
X602299Y-360000D03*
G01*
X1077299Y-300000D03*
G01*
X384299Y-29400D03*
G01*
X1799Y439800D03*
G01*
X982299Y580000D03*
G01*
X1187299Y270000D03*
G01*
X345699Y-176799D03*
G01*
X508089Y-475770D03*
G01*
X622299Y-475000D03*
G01*
X180000Y455000D03*
G01*
X205000Y-465000D03*
G01*
X970000Y-135000D03*
G01*
X945000Y605000D03*
G01*
X470000Y80000D03*
G01*
X310000Y680000D03*
G01*
X99699Y566799D03*
G01*
X180000Y580000D03*
G01*
X239199Y458699D03*
G01*
X364399Y69200D03*
G01*
X418199Y44299D03*
G01*
X470000Y35000D03*
G01*
X165000Y215000D03*
G01*
X1115000Y-50000D03*
G01*
X554099Y21999D03*
G01*
X47799Y-278200D03*
G01*
X136299Y365100D03*
G01*
X303799Y-172800D03*
G01*
X-40000Y196500D03*
G01*
X1151999Y-55000D03*
G01*
X401799Y303800D03*
G01*
X606799Y270399D03*
G01*
X746499Y268899D03*
G01*
X704199Y254400D03*
G01*
X374399Y247199D03*
G01*
X632799Y698099D03*
G01*
X653099Y273800D03*
G01*
X215199Y185900D03*
G01*
X423499Y389800D03*
G01*
X785399Y305300D03*
G01*
X364399Y33099D03*
G01*
X523099Y-292800D03*
G01*
X89499Y-403800D03*
D41*
X788549Y-554225D02*
G01*
X788549Y-593595D01*
X788549Y-711705D02*
G01*
X788549Y-751075D01*
X346039Y-554225D02*
G01*
X346039Y-593595D01*
X346039Y-711705D02*
G01*
X346039Y-751075D01*
M02*
