G04 Layer: BottomPasteMaskLayer*
G04 EasyEDA v6.4.31, 2022-02-15 11:42:09*
G04 cf861d6554b0406c859822548a314204,c17a8ced473b4d519dda31697e0e54b6,10*
G04 Gerber Generator version 0.2*
G04 Scale: 100 percent, Rotated: No, Reflected: No *
G04 Dimensions in inches *
G04 leading zeros omitted , absolute positions ,3 integer and 6 decimal *
%FSLAX36Y36*%
%MOIN*%

%ADD55C,0.0600*%
%ADD56R,0.0315X0.0355*%
%ADD65R,0.0262X0.0088*%
%ADD67R,0.1309X0.1309*%

%LPD*%
G36*
X1100700Y-79360D02*
G01*
X1099120Y-80940D01*
X1099120Y-99060D01*
X1100700Y-100640D01*
X1120400Y-100640D01*
X1121980Y-99060D01*
X1121980Y-80940D01*
X1120400Y-79360D01*
G37*
G36*
X1134180Y-79360D02*
G01*
X1132620Y-80940D01*
X1132620Y-99060D01*
X1134180Y-100640D01*
X1153900Y-100640D01*
X1155480Y-99060D01*
X1155480Y-80940D01*
X1153900Y-79360D01*
G37*
G36*
X890939Y148180D02*
G01*
X889360Y146600D01*
X889360Y126880D01*
X890939Y125320D01*
X909060Y125320D01*
X910620Y126880D01*
X910620Y146600D01*
X909060Y148180D01*
G37*
G36*
X890939Y114680D02*
G01*
X889360Y113120D01*
X889360Y93400D01*
X890939Y91820D01*
X909060Y91820D01*
X910620Y93400D01*
X910620Y113120D01*
X909060Y114680D01*
G37*
G36*
X302940Y70020D02*
G01*
X300980Y68040D01*
X300980Y49140D01*
X302940Y46380D01*
X320660Y46380D01*
X322620Y49140D01*
X322620Y68040D01*
X320660Y70020D01*
G37*
G36*
X302940Y32220D02*
G01*
X300980Y29460D01*
X300980Y10560D01*
X302940Y8600D01*
X320660Y8600D01*
X322620Y10560D01*
X322620Y29460D01*
X320660Y32220D01*
G37*
G36*
X475540Y254680D02*
G01*
X473960Y253100D01*
X473960Y233380D01*
X475540Y231820D01*
X493660Y231820D01*
X495220Y233380D01*
X495220Y253100D01*
X493660Y254680D01*
G37*
G36*
X475540Y221180D02*
G01*
X473960Y219600D01*
X473960Y199899D01*
X475540Y198320D01*
X493660Y198320D01*
X495220Y199899D01*
X495220Y219600D01*
X493660Y221180D01*
G37*
G36*
X533300Y190520D02*
G01*
X531720Y188960D01*
X531720Y170840D01*
X533300Y169280D01*
X553000Y169280D01*
X554580Y170840D01*
X554580Y188960D01*
X553000Y190520D01*
G37*
G36*
X566780Y190520D02*
G01*
X565220Y188960D01*
X565220Y170840D01*
X566780Y169280D01*
X586500Y169280D01*
X588080Y170840D01*
X588080Y188960D01*
X586500Y190520D01*
G37*
G36*
X90940Y-250320D02*
G01*
X89360Y-251880D01*
X89360Y-271600D01*
X90940Y-273180D01*
X109060Y-273180D01*
X110620Y-271600D01*
X110620Y-251880D01*
X109060Y-250320D01*
G37*
G36*
X90940Y-216820D02*
G01*
X89360Y-218400D01*
X89360Y-238120D01*
X90940Y-239680D01*
X109060Y-239680D01*
X110620Y-238120D01*
X110620Y-218400D01*
X109060Y-216820D01*
G37*
G36*
X178840Y-218220D02*
G01*
X177260Y-219800D01*
X177260Y-239520D01*
X178840Y-241080D01*
X196960Y-241080D01*
X198520Y-239520D01*
X198520Y-219800D01*
X196960Y-218220D01*
G37*
G36*
X178840Y-251720D02*
G01*
X177260Y-253299D01*
X177260Y-273000D01*
X178840Y-274580D01*
X196960Y-274580D01*
X198520Y-273000D01*
X198520Y-253299D01*
X196960Y-251720D01*
G37*
G36*
X825580Y414640D02*
G01*
X824020Y413060D01*
X824020Y394940D01*
X825580Y393360D01*
X845300Y393360D01*
X846880Y394940D01*
X846880Y413060D01*
X845300Y414640D01*
G37*
G36*
X792099Y414640D02*
G01*
X790520Y413060D01*
X790520Y394940D01*
X792099Y393360D01*
X811800Y393360D01*
X813379Y394940D01*
X813379Y413060D01*
X811800Y414640D01*
G37*
G36*
X902760Y-383620D02*
G01*
X901820Y-384560D01*
X901820Y-395439D01*
X902760Y-396380D01*
X913160Y-396380D01*
X914120Y-395439D01*
X914120Y-384560D01*
X913160Y-383620D01*
G37*
G36*
X921440Y-383620D02*
G01*
X920480Y-384560D01*
X920480Y-395439D01*
X921440Y-396380D01*
X931840Y-396380D01*
X932780Y-395439D01*
X932780Y-384560D01*
X931840Y-383620D01*
G37*
G36*
X538440Y-112080D02*
G01*
X536480Y-114840D01*
X536480Y-133740D01*
X538440Y-135700D01*
X556160Y-135700D01*
X558120Y-133740D01*
X558120Y-114840D01*
X556160Y-112080D01*
G37*
G36*
X538440Y-74300D02*
G01*
X536480Y-76260D01*
X536480Y-95160D01*
X538440Y-97920D01*
X556160Y-97920D01*
X558120Y-95160D01*
X558120Y-76260D01*
X556160Y-74300D01*
G37*
G36*
X513440Y-372080D02*
G01*
X511480Y-374840D01*
X511480Y-393740D01*
X513440Y-395700D01*
X531160Y-395700D01*
X533120Y-393740D01*
X533120Y-374840D01*
X531160Y-372080D01*
G37*
G36*
X513440Y-334300D02*
G01*
X511480Y-336260D01*
X511480Y-355160D01*
X513440Y-357920D01*
X531160Y-357920D01*
X533120Y-355160D01*
X533120Y-336260D01*
X531160Y-334300D01*
G37*
G36*
X132140Y120820D02*
G01*
X129380Y118859D01*
X129380Y101140D01*
X132140Y99179D01*
X151040Y99179D01*
X153000Y101140D01*
X153000Y118859D01*
X151040Y120820D01*
G37*
G36*
X93560Y120820D02*
G01*
X91600Y118859D01*
X91600Y101140D01*
X93560Y99179D01*
X112460Y99179D01*
X115220Y101140D01*
X115220Y118859D01*
X112460Y120820D01*
G37*
G36*
X32140Y80820D02*
G01*
X29380Y78860D01*
X29380Y61140D01*
X32140Y59180D01*
X51040Y59180D01*
X53000Y61140D01*
X53000Y78860D01*
X51040Y80820D01*
G37*
G36*
X-6440Y80820D02*
G01*
X-8400Y78860D01*
X-8400Y61140D01*
X-6440Y59180D01*
X12460Y59180D01*
X15220Y61140D01*
X15220Y78860D01*
X12460Y80820D01*
G37*
G36*
X-41560Y-57080D02*
G01*
X-43520Y-59840D01*
X-43520Y-78740D01*
X-41560Y-80700D01*
X-23840Y-80700D01*
X-21880Y-78740D01*
X-21880Y-59840D01*
X-23840Y-57080D01*
G37*
G36*
X-41560Y-19300D02*
G01*
X-43520Y-21260D01*
X-43520Y-40160D01*
X-41560Y-42920D01*
X-23840Y-42920D01*
X-21880Y-40160D01*
X-21880Y-21260D01*
X-23840Y-19300D01*
G37*
G36*
X251140Y215700D02*
G01*
X249180Y213740D01*
X249180Y194840D01*
X251140Y192079D01*
X268860Y192079D01*
X270820Y194840D01*
X270820Y213740D01*
X268860Y215700D01*
G37*
G36*
X251140Y177920D02*
G01*
X249180Y175159D01*
X249180Y156260D01*
X251140Y154300D01*
X268860Y154300D01*
X270820Y156260D01*
X270820Y175159D01*
X268860Y177920D01*
G37*
G36*
X5940Y-249080D02*
G01*
X3980Y-251840D01*
X3980Y-270740D01*
X5940Y-272720D01*
X23660Y-272720D01*
X25620Y-270740D01*
X25620Y-251840D01*
X23660Y-249080D01*
G37*
G36*
X5940Y-211300D02*
G01*
X3980Y-213260D01*
X3980Y-232160D01*
X5940Y-234920D01*
X23660Y-234920D01*
X25620Y-232160D01*
X25620Y-213260D01*
X23660Y-211300D01*
G37*
G36*
X896260Y-24180D02*
G01*
X894280Y-26140D01*
X894280Y-43860D01*
X896260Y-45820D01*
X915160Y-45820D01*
X917920Y-43860D01*
X917920Y-26140D01*
X915160Y-24180D01*
G37*
G36*
X934840Y-24180D02*
G01*
X932080Y-26140D01*
X932080Y-43860D01*
X934840Y-45820D01*
X953740Y-45820D01*
X955699Y-43860D01*
X955699Y-26140D01*
X953740Y-24180D01*
G37*
G36*
X1217140Y20820D02*
G01*
X1214380Y18860D01*
X1214380Y1140D01*
X1217140Y-820D01*
X1236040Y-820D01*
X1238000Y1140D01*
X1238000Y18860D01*
X1236040Y20820D01*
G37*
G36*
X1178560Y20820D02*
G01*
X1176600Y18860D01*
X1176600Y1140D01*
X1178560Y-820D01*
X1197460Y-820D01*
X1200220Y1140D01*
X1200220Y18860D01*
X1197460Y20820D01*
G37*
G36*
X352140Y-49180D02*
G01*
X349380Y-51140D01*
X349380Y-68860D01*
X352140Y-70820D01*
X371040Y-70820D01*
X373000Y-68860D01*
X373000Y-51140D01*
X371040Y-49180D01*
G37*
G36*
X313560Y-49180D02*
G01*
X311600Y-51140D01*
X311600Y-68860D01*
X313560Y-70820D01*
X332460Y-70820D01*
X335220Y-68860D01*
X335220Y-51140D01*
X332460Y-49180D01*
G37*
G36*
X357140Y-129179D02*
G01*
X354380Y-131140D01*
X354380Y-148860D01*
X357140Y-150820D01*
X376040Y-150820D01*
X378000Y-148860D01*
X378000Y-131140D01*
X376040Y-129179D01*
G37*
G36*
X318560Y-129179D02*
G01*
X316600Y-131140D01*
X316600Y-148860D01*
X318560Y-150820D01*
X337460Y-150820D01*
X340220Y-148860D01*
X340220Y-131140D01*
X337460Y-129179D01*
G37*
G36*
X723900Y-207060D02*
G01*
X722320Y-208640D01*
X722320Y-226759D01*
X723900Y-228340D01*
X743600Y-228340D01*
X745180Y-226759D01*
X745180Y-208640D01*
X743600Y-207060D01*
G37*
G36*
X757380Y-207060D02*
G01*
X755819Y-208640D01*
X755819Y-226759D01*
X757380Y-228340D01*
X777099Y-228340D01*
X778680Y-226759D01*
X778680Y-208640D01*
X777099Y-207060D01*
G37*
G36*
X221860Y101820D02*
G01*
X220920Y100860D01*
X220920Y87899D01*
X221860Y86960D01*
X232740Y86960D01*
X233680Y87899D01*
X233680Y100860D01*
X232740Y101820D01*
G37*
G36*
X221860Y123040D02*
G01*
X220920Y122100D01*
X220920Y109140D01*
X221860Y108180D01*
X232740Y108180D01*
X233680Y109140D01*
X233680Y122100D01*
X232740Y123040D01*
G37*
G36*
X939180Y-449360D02*
G01*
X937620Y-450940D01*
X937620Y-469060D01*
X939180Y-470640D01*
X958900Y-470640D01*
X960480Y-469060D01*
X960480Y-450940D01*
X958900Y-449360D01*
G37*
G36*
X905699Y-449360D02*
G01*
X904120Y-450940D01*
X904120Y-469060D01*
X905699Y-470640D01*
X925400Y-470640D01*
X926979Y-469060D01*
X926979Y-450940D01*
X925400Y-449360D01*
G37*
G36*
X811979Y-157180D02*
G01*
X810420Y-158740D01*
X810420Y-176860D01*
X811979Y-178420D01*
X831700Y-178420D01*
X833280Y-176860D01*
X833280Y-158740D01*
X831700Y-157180D01*
G37*
G36*
X778500Y-157180D02*
G01*
X776919Y-158740D01*
X776919Y-176860D01*
X778500Y-178420D01*
X798199Y-178420D01*
X799780Y-176860D01*
X799780Y-158740D01*
X798199Y-157180D01*
G37*
G36*
X465700Y5639D02*
G01*
X464120Y4060D01*
X464120Y-14060D01*
X465700Y-15640D01*
X485400Y-15640D01*
X486980Y-14060D01*
X486980Y4060D01*
X485400Y5639D01*
G37*
G36*
X499180Y5639D02*
G01*
X497620Y4060D01*
X497620Y-14060D01*
X499180Y-15640D01*
X518900Y-15640D01*
X520480Y-14060D01*
X520480Y4060D01*
X518900Y5639D01*
G37*
G36*
X508240Y103180D02*
G01*
X506659Y101600D01*
X506659Y81880D01*
X508240Y80320D01*
X526360Y80320D01*
X527920Y81880D01*
X527920Y101600D01*
X526360Y103180D01*
G37*
G36*
X508240Y69680D02*
G01*
X506659Y68120D01*
X506659Y48400D01*
X508240Y46820D01*
X526360Y46820D01*
X527920Y48400D01*
X527920Y68120D01*
X526360Y69680D01*
G37*
G36*
X1119180Y-149360D02*
G01*
X1117620Y-150940D01*
X1117620Y-169060D01*
X1119180Y-170640D01*
X1138900Y-170640D01*
X1140480Y-169060D01*
X1140480Y-150940D01*
X1138900Y-149360D01*
G37*
G36*
X1085700Y-149360D02*
G01*
X1084120Y-150940D01*
X1084120Y-169060D01*
X1085700Y-170640D01*
X1105400Y-170640D01*
X1106980Y-169060D01*
X1106980Y-150940D01*
X1105400Y-149360D01*
G37*
G36*
X132140Y170820D02*
G01*
X129380Y168860D01*
X129380Y151140D01*
X132140Y149180D01*
X151040Y149180D01*
X153000Y151140D01*
X153000Y168860D01*
X151040Y170820D01*
G37*
G36*
X93560Y170820D02*
G01*
X91600Y168860D01*
X91600Y151140D01*
X93560Y149180D01*
X112460Y149180D01*
X115220Y151140D01*
X115220Y168860D01*
X112460Y170820D01*
G37*
G36*
X-96560Y-52080D02*
G01*
X-98520Y-54840D01*
X-98520Y-73740D01*
X-96560Y-75700D01*
X-78840Y-75700D01*
X-76880Y-73740D01*
X-76880Y-54840D01*
X-78840Y-52080D01*
G37*
G36*
X-96560Y-14300D02*
G01*
X-98520Y-16259D01*
X-98520Y-35160D01*
X-96560Y-37920D01*
X-78840Y-37920D01*
X-76880Y-35160D01*
X-76880Y-16259D01*
X-78840Y-14300D01*
G37*
G36*
X1860Y163039D02*
G01*
X920Y162100D01*
X920Y149140D01*
X1860Y148180D01*
X12740Y148180D01*
X13680Y149140D01*
X13680Y162100D01*
X12740Y163039D01*
G37*
G36*
X1860Y141820D02*
G01*
X920Y140860D01*
X920Y127899D01*
X1860Y126960D01*
X12740Y126960D01*
X13680Y127899D01*
X13680Y140860D01*
X12740Y141820D01*
G37*
G36*
X805200Y534440D02*
G01*
X803620Y532860D01*
X803620Y514739D01*
X805200Y513180D01*
X824900Y513180D01*
X826480Y514739D01*
X826480Y532860D01*
X824900Y534440D01*
G37*
G36*
X838680Y534440D02*
G01*
X837120Y532860D01*
X837120Y514739D01*
X838680Y513180D01*
X858400Y513180D01*
X859980Y514739D01*
X859980Y532860D01*
X858400Y534440D01*
G37*
G36*
X630260Y-506760D02*
G01*
X630260Y-550060D01*
X642060Y-550060D01*
X642060Y-506760D01*
G37*
G36*
X610560Y-506760D02*
G01*
X610560Y-550060D01*
X622460Y-550060D01*
X622460Y-506760D01*
G37*
G36*
X590960Y-506760D02*
G01*
X590960Y-550060D01*
X602760Y-550060D01*
X602760Y-506760D01*
G37*
G36*
X571260Y-506760D02*
G01*
X571260Y-550060D01*
X583060Y-550060D01*
X583060Y-506760D01*
G37*
G36*
X551560Y-506760D02*
G01*
X551560Y-550060D01*
X563360Y-550060D01*
X563360Y-506760D01*
G37*
G36*
X531860Y-506760D02*
G01*
X531860Y-550060D01*
X543660Y-550060D01*
X543660Y-506760D01*
G37*
G36*
X512160Y-506760D02*
G01*
X512160Y-550060D01*
X523960Y-550060D01*
X523960Y-506760D01*
G37*
G36*
X492460Y-506760D02*
G01*
X492460Y-550060D01*
X504260Y-550060D01*
X504260Y-506760D01*
G37*
G36*
X681340Y-506700D02*
G01*
X681340Y-550120D01*
X705060Y-550120D01*
X705060Y-506700D01*
G37*
G36*
X649840Y-506700D02*
G01*
X649840Y-550120D01*
X673560Y-550120D01*
X673560Y-506700D01*
G37*
G36*
X460880Y-506700D02*
G01*
X460880Y-550120D01*
X484600Y-550120D01*
X484600Y-506700D01*
G37*
G36*
X429440Y-506700D02*
G01*
X429440Y-550120D01*
X453160Y-550120D01*
X453160Y-506700D01*
G37*
G36*
X345340Y-688100D02*
G01*
X342560Y-688340D01*
X341180Y-688580D01*
X338480Y-689320D01*
X335880Y-690380D01*
X333440Y-691740D01*
X331160Y-693360D01*
X329099Y-695260D01*
X327260Y-697380D01*
X325700Y-699700D01*
X324420Y-702180D01*
X323459Y-704800D01*
X322800Y-707520D01*
X322460Y-710300D01*
X322420Y-751080D01*
X322580Y-753860D01*
X323080Y-756620D01*
X323900Y-759300D01*
X325020Y-761860D01*
X326460Y-764280D01*
X328160Y-766500D01*
X330100Y-768500D01*
X332280Y-770260D01*
X334640Y-771760D01*
X337160Y-772960D01*
X338480Y-773460D01*
X341180Y-774200D01*
X343940Y-774599D01*
X346740Y-774680D01*
X349540Y-774440D01*
X350920Y-774200D01*
X353620Y-773460D01*
X356200Y-772400D01*
X358660Y-771040D01*
X360920Y-769419D01*
X363000Y-767520D01*
X364820Y-765400D01*
X365640Y-764280D01*
X367060Y-761860D01*
X368180Y-759300D01*
X368640Y-757980D01*
X369300Y-755260D01*
X369620Y-752480D01*
X369660Y-711700D01*
X369500Y-708920D01*
X369300Y-707520D01*
X368640Y-704800D01*
X367660Y-702180D01*
X366380Y-699700D01*
X365640Y-698500D01*
X363940Y-696280D01*
X361980Y-694280D01*
X359820Y-692520D01*
X357440Y-691020D01*
X354920Y-689820D01*
X353620Y-689320D01*
X350920Y-688580D01*
X348140Y-688180D01*
G37*
G36*
X345340Y-530620D02*
G01*
X342560Y-530860D01*
X341180Y-531100D01*
X338480Y-531840D01*
X335880Y-532900D01*
X333440Y-534260D01*
X331160Y-535880D01*
X329099Y-537780D01*
X327260Y-539900D01*
X325700Y-542220D01*
X324420Y-544700D01*
X323459Y-547320D01*
X322800Y-550040D01*
X322460Y-552820D01*
X322420Y-593600D01*
X322580Y-596380D01*
X323080Y-599140D01*
X323900Y-601820D01*
X325020Y-604380D01*
X326460Y-606800D01*
X328160Y-609020D01*
X330100Y-611020D01*
X332280Y-612780D01*
X334640Y-614280D01*
X337160Y-615480D01*
X338480Y-615980D01*
X341180Y-616720D01*
X343940Y-617120D01*
X346740Y-617200D01*
X349540Y-616960D01*
X350920Y-616720D01*
X353620Y-615980D01*
X356200Y-614920D01*
X358660Y-613560D01*
X360920Y-611940D01*
X363000Y-610040D01*
X364820Y-607920D01*
X365640Y-606800D01*
X367060Y-604380D01*
X368180Y-601820D01*
X368640Y-600500D01*
X369300Y-597780D01*
X369620Y-595000D01*
X369660Y-554220D01*
X369500Y-551440D01*
X369300Y-550040D01*
X368640Y-547320D01*
X367660Y-544700D01*
X366380Y-542220D01*
X365640Y-541020D01*
X363940Y-538800D01*
X361980Y-536800D01*
X359820Y-535040D01*
X357440Y-533540D01*
X354920Y-532340D01*
X353620Y-531840D01*
X350920Y-531100D01*
X348140Y-530700D01*
G37*
G36*
X787860Y-688100D02*
G01*
X785060Y-688340D01*
X783680Y-688580D01*
X780980Y-689320D01*
X778400Y-690380D01*
X775939Y-691740D01*
X773680Y-693360D01*
X771600Y-695260D01*
X769780Y-697380D01*
X768960Y-698500D01*
X767540Y-700920D01*
X766420Y-703480D01*
X765960Y-704800D01*
X765300Y-707520D01*
X764980Y-710300D01*
X764940Y-751080D01*
X765100Y-753860D01*
X765300Y-755260D01*
X765960Y-757980D01*
X766940Y-760600D01*
X768220Y-763080D01*
X768960Y-764280D01*
X770660Y-766500D01*
X772620Y-768500D01*
X774780Y-770260D01*
X777159Y-771760D01*
X779680Y-772960D01*
X780980Y-773460D01*
X783680Y-774200D01*
X786460Y-774599D01*
X789260Y-774680D01*
X792039Y-774440D01*
X793420Y-774200D01*
X796120Y-773460D01*
X798720Y-772400D01*
X801160Y-771040D01*
X803439Y-769419D01*
X805500Y-767520D01*
X807340Y-765400D01*
X808900Y-763080D01*
X810180Y-760600D01*
X811140Y-757980D01*
X811800Y-755260D01*
X812140Y-752480D01*
X812180Y-711700D01*
X812020Y-708920D01*
X811520Y-706160D01*
X810699Y-703480D01*
X809580Y-700920D01*
X808139Y-698500D01*
X806440Y-696280D01*
X804500Y-694280D01*
X802320Y-692520D01*
X799960Y-691020D01*
X797440Y-689820D01*
X796120Y-689320D01*
X793420Y-688580D01*
X790660Y-688180D01*
G37*
G36*
X787860Y-530620D02*
G01*
X785060Y-530860D01*
X783680Y-531100D01*
X780980Y-531840D01*
X778400Y-532900D01*
X775939Y-534260D01*
X773680Y-535880D01*
X771600Y-537780D01*
X769780Y-539900D01*
X768960Y-541020D01*
X767540Y-543440D01*
X766420Y-546000D01*
X765960Y-547320D01*
X765300Y-550040D01*
X764980Y-552820D01*
X764940Y-593600D01*
X765100Y-596380D01*
X765300Y-597780D01*
X765960Y-600500D01*
X766940Y-603120D01*
X768220Y-605600D01*
X768960Y-606800D01*
X770660Y-609020D01*
X772620Y-611020D01*
X774780Y-612780D01*
X777159Y-614280D01*
X779680Y-615480D01*
X780980Y-615980D01*
X783680Y-616720D01*
X786460Y-617120D01*
X789260Y-617200D01*
X792039Y-616960D01*
X793420Y-616720D01*
X796120Y-615980D01*
X798720Y-614920D01*
X801160Y-613560D01*
X803439Y-611940D01*
X805500Y-610040D01*
X807340Y-607920D01*
X808900Y-605600D01*
X810180Y-603120D01*
X811140Y-600500D01*
X811800Y-597780D01*
X812140Y-595000D01*
X812180Y-554220D01*
X812020Y-551440D01*
X811520Y-548680D01*
X810699Y-546000D01*
X809580Y-543440D01*
X808139Y-541020D01*
X806440Y-538800D01*
X804500Y-536800D01*
X802320Y-535040D01*
X799960Y-533540D01*
X797440Y-532340D01*
X796120Y-531840D01*
X793420Y-531100D01*
X790660Y-530700D01*
G37*
G36*
X135940Y519680D02*
G01*
X134360Y518120D01*
X134360Y498400D01*
X135940Y496820D01*
X154060Y496820D01*
X155620Y498400D01*
X155620Y518120D01*
X154060Y519680D01*
G37*
G36*
X135940Y553180D02*
G01*
X134360Y551600D01*
X134360Y531880D01*
X135940Y530320D01*
X154060Y530320D01*
X155620Y531880D01*
X155620Y551600D01*
X154060Y553180D01*
G37*
G36*
X275940Y514680D02*
G01*
X274360Y513120D01*
X274360Y493400D01*
X275940Y491820D01*
X294060Y491820D01*
X295620Y493400D01*
X295620Y513120D01*
X294060Y514680D01*
G37*
G36*
X275940Y548180D02*
G01*
X274360Y546600D01*
X274360Y526880D01*
X275940Y525320D01*
X294060Y525320D01*
X295620Y526880D01*
X295620Y546600D01*
X294060Y548180D01*
G37*
G36*
X210940Y544680D02*
G01*
X209360Y543120D01*
X209360Y523400D01*
X210940Y521820D01*
X229060Y521820D01*
X230620Y523400D01*
X230620Y543120D01*
X229060Y544680D01*
G37*
G36*
X210940Y578180D02*
G01*
X209360Y576600D01*
X209360Y556880D01*
X210940Y555320D01*
X229060Y555320D01*
X230620Y556880D01*
X230620Y576600D01*
X229060Y578180D01*
G37*
G36*
X-92260Y110820D02*
G01*
X-94220Y108840D01*
X-94220Y89940D01*
X-92260Y87180D01*
X-74540Y87180D01*
X-72580Y89940D01*
X-72580Y108840D01*
X-74540Y110820D01*
G37*
G36*
X-92260Y73020D02*
G01*
X-94220Y70260D01*
X-94220Y51360D01*
X-92260Y49400D01*
X-74540Y49400D01*
X-72580Y51360D01*
X-72580Y70260D01*
X-74540Y73020D01*
G37*
G36*
X693240Y359180D02*
G01*
X691660Y357600D01*
X691660Y337900D01*
X693240Y336320D01*
X711360Y336320D01*
X712920Y337900D01*
X712920Y357600D01*
X711360Y359180D01*
G37*
G36*
X693240Y325680D02*
G01*
X691660Y324120D01*
X691660Y304400D01*
X693240Y302820D01*
X711360Y302820D01*
X712920Y304400D01*
X712920Y324120D01*
X711360Y325680D01*
G37*
G36*
X631840Y357280D02*
G01*
X630260Y355700D01*
X630260Y336000D01*
X631840Y334420D01*
X649960Y334420D01*
X651520Y336000D01*
X651520Y355700D01*
X649960Y357280D01*
G37*
G36*
X631840Y323780D02*
G01*
X630260Y322220D01*
X630260Y302500D01*
X631840Y300920D01*
X649960Y300920D01*
X651520Y302500D01*
X651520Y322220D01*
X649960Y323780D01*
G37*
G36*
X376380Y386440D02*
G01*
X374820Y384860D01*
X374820Y366740D01*
X376380Y365160D01*
X396100Y365160D01*
X397680Y366740D01*
X397680Y384860D01*
X396100Y386440D01*
G37*
G36*
X342900Y386440D02*
G01*
X341320Y384860D01*
X341320Y366740D01*
X342900Y365160D01*
X362600Y365160D01*
X364180Y366740D01*
X364180Y384860D01*
X362600Y386440D01*
G37*
G36*
X145700Y-353880D02*
G01*
X144120Y-355439D01*
X144120Y-373560D01*
X145700Y-375120D01*
X165400Y-375120D01*
X166980Y-373560D01*
X166980Y-355439D01*
X165400Y-353880D01*
G37*
G36*
X179180Y-353880D02*
G01*
X177620Y-355439D01*
X177620Y-373560D01*
X179180Y-375120D01*
X198900Y-375120D01*
X200479Y-373560D01*
X200479Y-355439D01*
X198900Y-353880D01*
G37*
G36*
X148040Y-453720D02*
G01*
X146460Y-455280D01*
X146460Y-475000D01*
X148040Y-476580D01*
X166160Y-476580D01*
X167719Y-475000D01*
X167719Y-455280D01*
X166160Y-453720D01*
G37*
G36*
X148040Y-420220D02*
G01*
X146460Y-421800D01*
X146460Y-441500D01*
X148040Y-443080D01*
X166160Y-443080D01*
X167719Y-441500D01*
X167719Y-421800D01*
X166160Y-420220D01*
G37*
G36*
X240201Y-243966D02*
G01*
X240201Y-314832D01*
X279571Y-314832D01*
X279571Y-243966D01*
G37*
G36*
X338627Y-243966D02*
G01*
X338627Y-314832D01*
X377997Y-314832D01*
X377997Y-243966D01*
G37*
G36*
X274635Y-489220D02*
G01*
X225423Y-489220D01*
X225423Y-516779D01*
X274635Y-516779D01*
G37*
G36*
X274635Y-414421D02*
G01*
X225423Y-414421D01*
X225423Y-441979D01*
X274635Y-441979D01*
G37*
G36*
X353375Y-451820D02*
G01*
X304163Y-451820D01*
X304163Y-479380D01*
X353375Y-479380D01*
G37*
D55*
G01*
X1122299Y85000D03*
G01*
X1122299Y10000D03*
D56*
G01*
X336289Y187150D03*
G01*
X394189Y187249D03*
G01*
X395689Y115349D03*
G01*
X335509Y115599D03*
G36*
X510363Y372020D02*
G01*
X559575Y372020D01*
X559575Y399580D01*
X510363Y399580D01*
G37*
G36*
X510363Y297221D02*
G01*
X559575Y297221D01*
X559575Y324780D01*
X510363Y324780D01*
G37*
G36*
X431623Y334621D02*
G01*
X480835Y334621D01*
X480835Y362179D01*
X431623Y362179D01*
G37*
G36*
X448127Y439704D02*
G01*
X459939Y439704D01*
X459939Y488915D01*
X448127Y488915D01*
G37*
G36*
X467812Y439704D02*
G01*
X479624Y439704D01*
X479624Y488915D01*
X467812Y488915D01*
G37*
G36*
X487497Y439704D02*
G01*
X499309Y439704D01*
X499309Y488915D01*
X487497Y488915D01*
G37*
G36*
X507182Y439704D02*
G01*
X518994Y439704D01*
X518994Y488915D01*
X507182Y488915D01*
G37*
G36*
X526867Y439704D02*
G01*
X538679Y439704D01*
X538679Y488915D01*
X526867Y488915D01*
G37*
G36*
X546552Y439704D02*
G01*
X558364Y439704D01*
X558364Y488915D01*
X546552Y488915D01*
G37*
G36*
X566237Y439704D02*
G01*
X578049Y439704D01*
X578049Y488915D01*
X566237Y488915D01*
G37*
G36*
X585922Y439704D02*
G01*
X597734Y439704D01*
X597734Y488915D01*
X585922Y488915D01*
G37*
G36*
X605607Y439704D02*
G01*
X617419Y439704D01*
X617419Y488915D01*
X605607Y488915D01*
G37*
G36*
X625292Y439704D02*
G01*
X637104Y439704D01*
X637104Y488915D01*
X625292Y488915D01*
G37*
G36*
X644977Y439704D02*
G01*
X656789Y439704D01*
X656789Y488915D01*
X644977Y488915D01*
G37*
G36*
X664662Y439704D02*
G01*
X676474Y439704D01*
X676474Y488915D01*
X664662Y488915D01*
G37*
G36*
X348127Y516476D02*
G01*
X426867Y516476D01*
X426867Y614902D01*
X348127Y614902D01*
G37*
G36*
X697734Y516476D02*
G01*
X776474Y516476D01*
X776474Y614902D01*
X697734Y614902D01*
G37*
G36*
X-11873Y-154841D02*
G01*
X-33527Y-154841D01*
X-33527Y-170590D01*
X-11873Y-170590D01*
G37*
G36*
X-11873Y-119409D02*
G01*
X-33527Y-119409D01*
X-33527Y-135156D01*
X-11873Y-135156D01*
G37*
G36*
X848184Y-332773D02*
G01*
X816688Y-332773D01*
X816688Y-364268D01*
X848184Y-364268D01*
G37*
G36*
X847908Y-395725D02*
G01*
X816412Y-395725D01*
X816412Y-427222D01*
X847908Y-427222D01*
G37*
G36*
X675635Y-331819D02*
G01*
X626423Y-331819D01*
X626423Y-359380D01*
X675635Y-359380D01*
G37*
G36*
X675635Y-257021D02*
G01*
X626423Y-257021D01*
X626423Y-284580D01*
X675635Y-284580D01*
G37*
G36*
X754375Y-294421D02*
G01*
X705163Y-294421D01*
X705163Y-321979D01*
X754375Y-321979D01*
G37*
G36*
X93008Y226696D02*
G01*
X93008Y313310D01*
X49701Y313310D01*
X49701Y226696D01*
G37*
G36*
X32968Y345785D02*
G01*
X-8370Y345785D01*
X-8370Y306415D01*
X32968Y306415D01*
G37*
G36*
X-25102Y226696D02*
G01*
X-25102Y313310D01*
X-68409Y313310D01*
X-68409Y226696D01*
G37*
G36*
X32968Y233584D02*
G01*
X-8370Y233584D01*
X-8370Y194214D01*
X32968Y194214D01*
G37*
D65*
G01*
X252079Y5869D03*
G01*
X252079Y-9879D03*
G01*
X252079Y-25630D03*
G01*
X252079Y-41379D03*
G01*
X252079Y-57130D03*
G01*
X252079Y-72869D03*
G01*
X252079Y-88620D03*
G01*
X252079Y-104369D03*
G01*
X252079Y-120120D03*
G01*
X252079Y-135869D03*
G36*
X232575Y-172873D02*
G01*
X223756Y-172873D01*
X223756Y-146693D01*
X232575Y-146693D01*
G37*
G36*
X216827Y-172873D02*
G01*
X208008Y-172873D01*
X208008Y-146693D01*
X216827Y-146693D01*
G37*
G36*
X201079Y-172873D02*
G01*
X192260Y-172873D01*
X192260Y-146693D01*
X201079Y-146693D01*
G37*
G36*
X185330Y-172873D02*
G01*
X176512Y-172873D01*
X176512Y-146693D01*
X185330Y-146693D01*
G37*
G36*
X169582Y-172873D02*
G01*
X160764Y-172873D01*
X160764Y-146693D01*
X169582Y-146693D01*
G37*
G36*
X153834Y-172873D02*
G01*
X145016Y-172873D01*
X145016Y-146693D01*
X153834Y-146693D01*
G37*
G36*
X138086Y-172873D02*
G01*
X129268Y-172873D01*
X129268Y-146693D01*
X138086Y-146693D01*
G37*
G36*
X122338Y-172873D02*
G01*
X113519Y-172873D01*
X113519Y-146693D01*
X122338Y-146693D01*
G37*
G36*
X106590Y-172873D02*
G01*
X97771Y-172873D01*
X97771Y-146693D01*
X106590Y-146693D01*
G37*
G36*
X90842Y-172873D02*
G01*
X82023Y-172873D01*
X82023Y-146693D01*
X90842Y-146693D01*
G37*
G36*
X49425Y-131457D02*
G01*
X75606Y-131457D01*
X75606Y-140275D01*
X49425Y-140275D01*
G37*
G36*
X49425Y-115709D02*
G01*
X75606Y-115709D01*
X75606Y-124528D01*
X49425Y-124528D01*
G37*
G36*
X49425Y-99960D02*
G01*
X75606Y-99960D01*
X75606Y-108779D01*
X49425Y-108779D01*
G37*
G36*
X49425Y-84212D02*
G01*
X75606Y-84212D01*
X75606Y-93031D01*
X49425Y-93031D01*
G37*
G36*
X49425Y-68465D02*
G01*
X75606Y-68465D01*
X75606Y-77283D01*
X49425Y-77283D01*
G37*
G36*
X49425Y-52716D02*
G01*
X75606Y-52716D01*
X75606Y-61534D01*
X49425Y-61534D01*
G37*
G36*
X49425Y-36968D02*
G01*
X75606Y-36968D01*
X75606Y-45787D01*
X49425Y-45787D01*
G37*
G36*
X49425Y-21220D02*
G01*
X75606Y-21220D01*
X75606Y-30039D01*
X49425Y-30039D01*
G37*
G36*
X49425Y-5471D02*
G01*
X75606Y-5471D01*
X75606Y-14290D01*
X49425Y-14290D01*
G37*
G36*
X49425Y10275D02*
G01*
X75606Y10275D01*
X75606Y1457D01*
X49425Y1457D01*
G37*
G36*
X90842Y16693D02*
G01*
X82023Y16693D01*
X82023Y42873D01*
X90842Y42873D01*
G37*
G36*
X106590Y16693D02*
G01*
X97771Y16693D01*
X97771Y42873D01*
X106590Y42873D01*
G37*
G36*
X122338Y16693D02*
G01*
X113519Y16693D01*
X113519Y42873D01*
X122338Y42873D01*
G37*
G36*
X138086Y16693D02*
G01*
X129268Y16693D01*
X129268Y42873D01*
X138086Y42873D01*
G37*
G36*
X153834Y16693D02*
G01*
X145016Y16693D01*
X145016Y42873D01*
X153834Y42873D01*
G37*
G36*
X169582Y16693D02*
G01*
X160764Y16693D01*
X160764Y42873D01*
X169582Y42873D01*
G37*
G36*
X185330Y16693D02*
G01*
X176512Y16693D01*
X176512Y42873D01*
X185330Y42873D01*
G37*
G36*
X201079Y16693D02*
G01*
X192260Y16693D01*
X192260Y42873D01*
X201079Y42873D01*
G37*
G36*
X216827Y16693D02*
G01*
X208008Y16693D01*
X208008Y42873D01*
X216827Y42873D01*
G37*
G36*
X232575Y16693D02*
G01*
X223756Y16693D01*
X223756Y42873D01*
X232575Y42873D01*
G37*
D67*
G01*
X157299Y-65000D03*
G36*
X1050529Y-264565D02*
G01*
X1050529Y-225196D01*
X1028875Y-225196D01*
X1028875Y-264565D01*
G37*
G36*
X1013129Y-264565D02*
G01*
X1013129Y-225196D01*
X991475Y-225196D01*
X991475Y-264565D01*
G37*
G36*
X975729Y-264565D02*
G01*
X975729Y-225196D01*
X954075Y-225196D01*
X954075Y-264565D01*
G37*
G36*
X975729Y-374805D02*
G01*
X975729Y-335435D01*
X954075Y-335435D01*
X954075Y-374805D01*
G37*
G36*
X1013129Y-374805D02*
G01*
X1013129Y-335435D01*
X991475Y-335435D01*
X991475Y-374805D01*
G37*
G36*
X1050529Y-374805D02*
G01*
X1050529Y-335435D01*
X1028875Y-335435D01*
X1028875Y-374805D01*
G37*
G36*
X631421Y-66810D02*
G01*
X631421Y-43189D01*
X584177Y-43189D01*
X584177Y-66810D01*
G37*
G36*
X631421Y-16810D02*
G01*
X631421Y6810D01*
X584177Y6810D01*
X584177Y-16810D01*
G37*
G36*
X631421Y33189D02*
G01*
X631421Y56810D01*
X584177Y56810D01*
X584177Y33189D01*
G37*
G36*
X631421Y83189D02*
G01*
X631421Y106810D01*
X584177Y106810D01*
X584177Y83189D01*
G37*
G36*
X860421Y83189D02*
G01*
X860421Y106810D01*
X813177Y106810D01*
X813177Y83189D01*
G37*
G36*
X860421Y33189D02*
G01*
X860421Y56810D01*
X813177Y56810D01*
X813177Y33189D01*
G37*
G36*
X860421Y-16810D02*
G01*
X860421Y6810D01*
X813177Y6810D01*
X813177Y-16810D01*
G37*
G36*
X860421Y-66810D02*
G01*
X860421Y-43189D01*
X813177Y-43189D01*
X813177Y-66810D01*
G37*
G36*
X673089Y88899D02*
G01*
X673089Y-48899D01*
X771509Y-48899D01*
X771509Y88899D01*
G37*
M02*
