G04 Layer: TopLayer*
G04 EasyEDA v6.4.31, 2022-02-15 11:42:09*
G04 cf861d6554b0406c859822548a314204,c17a8ced473b4d519dda31697e0e54b6,10*
G04 Gerber Generator version 0.2*
G04 Scale: 100 percent, Rotated: No, Reflected: No *
G04 Dimensions in inches *
G04 leading zeros omitted , absolute positions ,3 integer and 6 decimal *
%FSLAX36Y36*%
%MOIN*%

%ADD10C,0.0083*%
%ADD11C,0.0100*%
%ADD12C,0.0084*%
%ADD13C,0.0083*%
%ADD14C,0.0124*%
%ADD15C,0.0103*%
%ADD16C,0.0104*%
%ADD17C,0.0084*%
%ADD18C,0.0098*%
%ADD19C,0.0083*%
%ADD20C,0.0104*%
%ADD21C,0.0119*%
%ADD22C,0.0004*%
%ADD23C,0.0240*%
%ADD24C,0.0240*%
%ADD25R,0.0315X0.0158*%
%ADD27R,0.0213X0.0223*%
%ADD28R,0.0236X0.0098*%
%ADD29R,0.0098X0.0236*%
%ADD31R,0.0213X0.0311*%
%ADD32R,0.0118X0.0512*%
%ADD37R,0.0685X0.0280*%
%ADD40C,0.0079*%
%ADD41C,0.0472*%

%LPD*%
G36*
X527340Y238580D02*
G01*
X503720Y214960D01*
X503720Y191340D01*
X550960Y191340D01*
X550960Y238580D01*
G37*
D12*
X-56500Y5999D02*
G01*
X-15000Y5999D01*
X-15000Y0D01*
X5000Y15000D01*
X7299Y67500D01*
D13*
X364399Y69200D02*
G01*
X375799Y56100D01*
X445000Y-15000D01*
X445000Y-75000D01*
X425000Y-95000D01*
X425000Y-125599D01*
D14*
X303799Y-172800D02*
G01*
X316708Y-159890D01*
X316708Y-125590D01*
D10*
X811625Y333373D02*
G01*
X811625Y331525D01*
X785399Y305300D01*
D15*
X424979Y425590D02*
G01*
X424979Y391280D01*
X423499Y389800D01*
D10*
X945000Y531460D02*
G01*
X945000Y605000D01*
D15*
X106839Y96999D02*
G01*
X77319Y67480D01*
X46679Y67480D01*
X106839Y96999D02*
G01*
X106839Y62559D01*
X115599Y53800D01*
X195599Y53800D01*
X203599Y61799D01*
X203599Y149800D01*
X212599Y158800D01*
X212599Y183299D01*
X215199Y185900D01*
D13*
X962299Y-85000D02*
G01*
X928089Y-50790D01*
X867889Y-50790D01*
X937299Y-110000D02*
G01*
X911549Y-84250D01*
X867889Y-84250D01*
D16*
X316708Y150000D02*
G01*
X353901Y150000D01*
X364198Y160300D01*
X364198Y236999D01*
X374399Y247199D01*
D17*
X316708Y116541D02*
G01*
X413241Y116541D01*
X423500Y126799D01*
X423500Y265601D01*
X439897Y281999D01*
X595199Y281999D01*
X606799Y270399D01*
D11*
X1097299Y460000D02*
G01*
X1049339Y412040D01*
X1049339Y395000D01*
X1049339Y395000D02*
G01*
X1049339Y372040D01*
X1027299Y350000D01*
X982299Y350000D01*
X972299Y340000D01*
X972299Y185000D01*
X947299Y160000D01*
X947299Y25000D01*
X938439Y16140D01*
X867889Y16140D01*
D17*
X-40000Y196500D02*
G01*
X-17400Y196500D01*
X-12400Y201900D01*
X-12400Y252500D01*
D13*
X30799Y-131700D02*
G01*
X30799Y-70500D01*
X100299Y-999D01*
X209799Y-999D01*
X226899Y16100D01*
X316699Y16100D01*
D18*
X26991Y11990D02*
G01*
X25000Y0D01*
X25000Y0D01*
X-20000Y-45000D01*
X-90000Y-45000D01*
D15*
X145234Y-220444D02*
G01*
X145234Y-200835D01*
X125799Y-181399D01*
X125799Y-109899D01*
X137619Y-98079D01*
X137619Y-84690D01*
D13*
X-35200Y-99800D02*
G01*
X82699Y18099D01*
X191599Y18099D01*
X223099Y49600D01*
X316699Y49600D01*
X85499Y-48600D02*
G01*
X114399Y-19699D01*
X245499Y-19699D01*
X247879Y-17319D01*
X316709Y-17319D01*
D19*
X554099Y21999D02*
G01*
X581498Y-5399D01*
X581498Y-43501D01*
X525000Y-100000D01*
X525400Y-125601D01*
D17*
X867899Y150000D02*
G01*
X837199Y150000D01*
X745899Y241300D01*
X746499Y268899D01*
D14*
X391509Y425590D02*
G01*
X358049Y425590D01*
X358049Y425590D02*
G01*
X316709Y425590D01*
D12*
X1087139Y74450D02*
G01*
X1106830Y74450D01*
D20*
X1138759Y125000D02*
G01*
X1180099Y83659D01*
X1180099Y69299D01*
X1138759Y210000D02*
G01*
X1180099Y168659D01*
X1180099Y69299D01*
X1097299Y170000D02*
G01*
X1095839Y168539D01*
X1095839Y125000D01*
X1097299Y170000D02*
G01*
X1095839Y171460D01*
X1095839Y210000D01*
D11*
X984589Y-350000D02*
G01*
X1064339Y-350000D01*
X1132299Y-282040D01*
X670009Y-400000D02*
G01*
X565839Y-400000D01*
X547299Y-381460D01*
X930000Y185000D02*
G01*
X928458Y183458D01*
X867890Y183458D01*
X930099Y220599D02*
G01*
X926430Y216930D01*
X867890Y216930D01*
X1067459Y5549D02*
G01*
X1067459Y-98119D01*
X1072299Y-102959D01*
X1067459Y74450D02*
G01*
X1067459Y96619D01*
X1095839Y125000D01*
D10*
X425258Y-400000D02*
G01*
X402658Y-422600D01*
X373999Y-422600D01*
D18*
X-12390Y67480D02*
G01*
X-12390Y37609D01*
X-25000Y25000D01*
X-110000Y25000D01*
X26989Y67480D02*
G01*
X26989Y11990D01*
D11*
X1047797Y74499D02*
G01*
X1047299Y155000D01*
X1095839Y203539D01*
X1095839Y210000D01*
D14*
X867889Y283859D02*
G01*
X867889Y317319D01*
X867889Y425590D02*
G01*
X826549Y425590D01*
X826549Y425590D02*
G01*
X793089Y425590D01*
X793089Y425590D02*
G01*
X759619Y425590D01*
X759619Y425590D02*
G01*
X726159Y425590D01*
X726159Y425590D02*
G01*
X692689Y425590D01*
X692689Y425590D02*
G01*
X659229Y425590D01*
X659229Y425590D02*
G01*
X625759Y425590D01*
X625759Y425590D02*
G01*
X592299Y425590D01*
X592299Y425590D02*
G01*
X558840Y425590D01*
X558840Y425590D02*
G01*
X525369Y425590D01*
X525369Y425590D02*
G01*
X491909Y425590D01*
X491909Y425590D02*
G01*
X458439Y425590D01*
X458439Y425590D02*
G01*
X424979Y425590D01*
X424979Y425590D02*
G01*
X391509Y425590D01*
X316709Y425590D02*
G01*
X316709Y384250D01*
X316709Y384250D02*
G01*
X316709Y350790D01*
D15*
X255999Y-413000D02*
G01*
X255699Y-357199D01*
X205000Y-465000D02*
G01*
X205000Y-429200D01*
X221199Y-413000D01*
X256039Y-413000D01*
X184604Y-338555D02*
G01*
X184604Y-357199D01*
X298661Y-357199D02*
G01*
X308599Y-357199D01*
X373999Y-422600D01*
X298959Y-413000D02*
G01*
X364399Y-413000D01*
X373999Y-422600D01*
D13*
X214054Y-289344D02*
G01*
X236899Y-289344D01*
X95944Y-269715D02*
G01*
X95944Y-289405D01*
X373999Y-422600D02*
G01*
X458059Y-338539D01*
X547299Y-338539D01*
X99299Y226460D02*
G01*
X99299Y238000D01*
X84779Y252519D01*
X46669Y252519D01*
D11*
X149759Y96999D02*
G01*
X165000Y112240D01*
X165000Y215000D01*
D13*
X99299Y183499D02*
G01*
X127699Y182699D01*
X160000Y215000D01*
X165000Y215000D01*
X125554Y-220444D02*
G01*
X108809Y-203699D01*
X96299Y-203699D01*
X87799Y-195199D01*
X87799Y-166039D01*
X164924Y-220444D02*
G01*
X164924Y-134135D01*
X169459Y-129600D01*
X203539Y-129600D02*
G01*
X217999Y-115140D01*
X217999Y-86300D01*
X253509Y-50790D01*
X316709Y-50790D01*
D15*
X214101Y-269699D02*
G01*
X232201Y-269699D01*
X248100Y-253798D01*
X248100Y-236799D01*
X264897Y-220000D01*
X317797Y-220000D01*
X373999Y-276201D01*
X373999Y-422600D01*
X47799Y-278200D02*
G01*
X59003Y-289403D01*
X95942Y-289403D01*
D13*
X26989Y252519D02*
G01*
X26989Y310990D01*
X36399Y320399D01*
X97859Y320399D01*
D21*
X180000Y455000D02*
G01*
X140000Y495000D01*
X140000Y565000D01*
X1799Y439800D02*
G01*
X90000Y528000D01*
X90000Y535000D01*
D11*
X235000Y330940D02*
G01*
X248620Y317319D01*
X316708Y317319D01*
D13*
X97899Y320399D02*
G01*
X96199Y318699D01*
X96199Y287100D01*
X103999Y278800D01*
X160199Y278800D01*
X160199Y278800D02*
G01*
X168999Y279000D01*
X177599Y269600D01*
X177599Y250000D01*
X184299Y243600D01*
X236499Y243600D01*
X246799Y233600D01*
X246799Y222100D01*
X252799Y216900D01*
X316699Y216900D01*
X237299Y285599D02*
G01*
X257099Y285599D01*
X267599Y275100D01*
X267599Y258600D01*
X278399Y250399D01*
X316699Y250399D01*
X178899Y356599D02*
G01*
X189799Y345700D01*
X189799Y297399D01*
X201399Y285500D01*
X237299Y285599D01*
D15*
X235000Y373859D02*
G01*
X216199Y392660D01*
X216199Y423000D01*
X184199Y455000D01*
X180000Y455000D01*
D13*
X50499Y352500D02*
G01*
X50399Y320399D01*
X236899Y-289346D02*
G01*
X251855Y-289346D01*
X291000Y-250199D01*
X291499Y-250199D01*
D15*
X255739Y-357199D02*
G01*
X175899Y-357199D01*
X164924Y-346224D01*
X164924Y-338555D01*
D13*
X95899Y-309099D02*
G01*
X15099Y-309099D01*
X-4700Y-289299D01*
X-4700Y-199800D01*
X-35200Y-169299D01*
X-35200Y-133800D01*
X95944Y-250034D02*
G01*
X94709Y-248800D01*
X50299Y-248800D01*
X30799Y-229299D01*
X30799Y-165740D01*
D10*
X867889Y317319D02*
G01*
X865569Y315000D01*
X830000Y315000D01*
X793089Y351909D01*
X793089Y425590D01*
D13*
X982299Y580000D02*
G01*
X1022299Y540000D01*
X1022299Y517040D01*
X1015259Y395000D02*
G01*
X1015259Y407959D01*
X1057299Y450000D01*
X1057299Y545000D01*
X1022299Y580000D01*
X982299Y580000D01*
X1117299Y-205000D02*
G01*
X1132299Y-190000D01*
X1132299Y-137040D01*
X1132299Y-247959D02*
G01*
X1110259Y-247959D01*
X1072299Y-210000D01*
X1132299Y-281999D02*
G01*
X1104299Y-281999D01*
X1037299Y-215000D01*
X1037299Y-190000D01*
X1022299Y-175000D01*
X807299Y-175000D01*
X792299Y-160000D01*
X793099Y-125599D01*
X984589Y-250000D02*
G01*
X984589Y-217710D01*
X1002299Y-200000D01*
X914299Y-495000D02*
G01*
X912299Y-370000D01*
X907299Y-345000D01*
X647299Y-425000D02*
G01*
X810259Y-425000D01*
X880259Y-495000D01*
X622299Y-475000D02*
G01*
X637299Y-445000D01*
X647299Y-425000D01*
X475000Y-220000D02*
G01*
X505000Y-190000D01*
X572299Y-190000D01*
X592299Y-170000D01*
X592299Y-125590D01*
X522299Y-215000D02*
G01*
X592299Y-215000D01*
X625759Y-181539D01*
X625759Y-125590D01*
X418199Y44299D02*
G01*
X470000Y-10199D01*
X470000Y-75199D01*
X458439Y-86759D01*
X458439Y-125790D01*
X470000Y35000D02*
G01*
X491899Y13099D01*
X491899Y-125599D01*
X1799Y439800D02*
G01*
X-32700Y405300D01*
X-32700Y352040D01*
X-32700Y317959D02*
G01*
X-32700Y265039D01*
X-32070Y252519D01*
X-32070Y252519D01*
X87799Y-131959D02*
G01*
X85499Y-129659D01*
X85499Y-48600D01*
D10*
X867889Y-125590D02*
G01*
X877299Y-135000D01*
X970000Y-135000D01*
D11*
X945000Y488499D02*
G01*
X1022299Y488499D01*
X1022299Y483000D01*
X982115Y488499D02*
G01*
X982299Y479499D01*
X982299Y440000D01*
X927299Y384299D01*
X867899Y384299D01*
D13*
X508089Y-475770D02*
G01*
X508089Y-430790D01*
X477299Y-400000D01*
X459339Y-400000D01*
X1052299Y272959D02*
G01*
X1095839Y229420D01*
X1095839Y210000D01*
D18*
X205000Y-465000D02*
G01*
X205000Y-465000D01*
X360000Y-465000D01*
X415000Y-520000D01*
X535000Y-520000D01*
X547299Y-504899D01*
X547299Y-381500D01*
D11*
X235000Y331100D02*
G01*
X242799Y331100D01*
X268599Y356900D01*
X268599Y659000D01*
X289799Y680199D01*
X310000Y680199D01*
D13*
X670000Y-250000D02*
G01*
X670000Y-265000D01*
X398499Y-265000D01*
X332799Y-199299D01*
X274399Y-199299D01*
X257299Y-182199D01*
X257299Y-105000D01*
X278099Y-84299D01*
X316699Y-84299D01*
X214054Y-309025D02*
G01*
X292074Y-309025D01*
X307399Y-293699D01*
D12*
X1106801Y74499D02*
G01*
X1106801Y88899D01*
X1112500Y95300D01*
X1142299Y95000D01*
X1167999Y69299D01*
X1180099Y69299D01*
D13*
X997299Y225000D02*
G01*
X997299Y295000D01*
X1009339Y307040D01*
X1052299Y307040D01*
D15*
X95899Y-270000D02*
G01*
X76299Y-270199D01*
X58899Y-270100D01*
X47799Y-278200D01*
X47799Y-278200D01*
D13*
X670009Y-300000D02*
G01*
X632299Y-300000D01*
X602299Y-330000D01*
X602299Y-360000D01*
X984589Y-300000D02*
G01*
X1077299Y-300000D01*
X391498Y-125601D02*
G01*
X391000Y-80801D01*
X384299Y-74099D01*
X384299Y-29400D01*
X358099Y-125599D02*
G01*
X362399Y-125599D01*
X362399Y-155900D01*
X430000Y-223499D01*
X430000Y-240000D01*
X1187299Y270000D02*
G01*
X1135839Y321460D01*
X1135839Y330000D01*
X1178799Y330000D02*
G01*
X1214099Y294699D01*
X1214099Y258800D01*
X1230199Y242699D01*
X1230899Y222199D01*
X1235000Y215500D01*
X1235000Y-57300D01*
X1207299Y-85000D01*
X1207299Y-135000D01*
X1137299Y-205000D01*
X1117299Y-205000D01*
D11*
X1132299Y-103000D02*
G01*
X1087099Y-57800D01*
X1087099Y5500D01*
D13*
X1072299Y-137040D02*
G01*
X1072299Y-210000D01*
X867889Y-17319D02*
G01*
X870569Y-20000D01*
X950000Y-20000D01*
X980000Y10000D01*
X980000Y120000D01*
X997299Y137300D01*
X997299Y225000D01*
X178899Y356599D02*
G01*
X176599Y358899D01*
X176599Y420900D01*
X156099Y441399D01*
X112099Y441399D01*
X98899Y428200D01*
X98899Y411100D01*
X136299Y365100D02*
G01*
X132939Y368460D01*
X132939Y411100D01*
X131939Y320399D02*
G01*
X136299Y324760D01*
X136299Y365100D01*
X7299Y252500D02*
G01*
X7299Y365399D01*
X17799Y374499D01*
X38499Y395199D01*
X98899Y395199D01*
X98899Y411100D01*
X52115Y422750D02*
G01*
X52315Y394850D01*
D11*
X1052299Y306999D02*
G01*
X1110599Y306999D01*
X1112299Y305000D01*
X1210000Y207300D01*
X1210000Y27699D01*
X1157299Y-25000D01*
X1122299Y-25000D01*
X1106799Y-9499D01*
X1106799Y5500D01*
D20*
X1111698Y30199D02*
G01*
X1167299Y30000D01*
X1180099Y42800D01*
X1180099Y69299D01*
X1111698Y49800D02*
G01*
X1162299Y50000D01*
X1180099Y67800D01*
X1180099Y69299D01*
D13*
X1120899Y392699D02*
G01*
X1154399Y392899D01*
X1162299Y390000D01*
X1178759Y373539D01*
X1178759Y330000D01*
X1104429Y392869D02*
G01*
X1102299Y395000D01*
X1049339Y395000D01*
X1052299Y306999D02*
G01*
X1052299Y317800D01*
X1101499Y366999D01*
X1104299Y377300D01*
X1120169Y377130D02*
G01*
X1135839Y361460D01*
X1135839Y330000D01*
D10*
X470000Y80000D02*
G01*
X459899Y80000D01*
X447799Y92100D01*
X325299Y92100D01*
X316699Y83099D01*
D11*
X1017299Y-25000D02*
G01*
X1022299Y-30000D01*
X1042299Y-30000D01*
X1047768Y-24529D01*
X1047768Y5549D01*
D22*
X503719Y191340D02*
G01*
X550959Y191340D01*
X550959Y238580D01*
X527339Y238580D01*
X503719Y214960D01*
X503719Y191340D01*
D25*
G01*
X-110000Y25000D03*
G01*
X-90000Y-45000D03*
G01*
X291499Y-250199D03*
G01*
X307399Y-293699D03*
G01*
X50499Y352500D03*
G01*
X50999Y421999D03*
G01*
X140000Y565000D03*
G01*
X90000Y535000D03*
G36*
X1026393Y405630D02*
G01*
X1026393Y384369D01*
X1004124Y384369D01*
X1004124Y405630D01*
G37*
G36*
X1038206Y405630D02*
G01*
X1038206Y384369D01*
X1060474Y384369D01*
X1060474Y405630D01*
G37*
G36*
X1041669Y284094D02*
G01*
X1062929Y284094D01*
X1062929Y261824D01*
X1041669Y261824D01*
G37*
D27*
G01*
X1052299Y307040D03*
G36*
X120805Y309769D02*
G01*
X120805Y331030D01*
X143074Y331030D01*
X143074Y309769D01*
G37*
G36*
X108993Y309769D02*
G01*
X108993Y331030D01*
X86724Y331030D01*
X86724Y309769D01*
G37*
G36*
X121805Y400470D02*
G01*
X121805Y421729D01*
X144074Y421729D01*
X144074Y400470D01*
G37*
G36*
X109993Y400470D02*
G01*
X109993Y421729D01*
X87724Y421729D01*
X87724Y400470D01*
G37*
G36*
X192405Y-140230D02*
G01*
X192405Y-118969D01*
X214674Y-118969D01*
X214674Y-140230D01*
G37*
G36*
X180593Y-140230D02*
G01*
X180593Y-118969D01*
X158324Y-118969D01*
X158324Y-140230D01*
G37*
D28*
G01*
X95949Y-250030D03*
G01*
X95949Y-269720D03*
G01*
X95949Y-289400D03*
G01*
X95949Y-309090D03*
D29*
G01*
X125549Y-338550D03*
G01*
X145239Y-338550D03*
G01*
X164919Y-338550D03*
G01*
X184609Y-338550D03*
D28*
G01*
X214049Y-309029D03*
G01*
X214049Y-289340D03*
G01*
X214049Y-269659D03*
G01*
X214059Y-250030D03*
G36*
X179687Y-208634D02*
G01*
X189529Y-208634D01*
X189529Y-232256D01*
X179687Y-232256D01*
G37*
G36*
X160002Y-208632D02*
G01*
X169844Y-208632D01*
X169844Y-232255D01*
X160002Y-232255D01*
G37*
G36*
X140317Y-208634D02*
G01*
X150159Y-208634D01*
X150159Y-232256D01*
X140317Y-232256D01*
G37*
G36*
X120632Y-208634D02*
G01*
X130474Y-208634D01*
X130474Y-232256D01*
X120632Y-232256D01*
G37*
G36*
X125471Y-249971D02*
G01*
X184527Y-249971D01*
X184527Y-309027D01*
X125471Y-309027D01*
G37*
G36*
X224369Y346493D02*
G01*
X245629Y346493D01*
X245629Y315387D01*
X224369Y315387D01*
G37*
D31*
G01*
X235000Y373859D03*
G36*
X448206Y-410630D02*
G01*
X448206Y-389369D01*
X470474Y-389369D01*
X470474Y-410630D01*
G37*
G36*
X436393Y-410630D02*
G01*
X436393Y-389369D01*
X414124Y-389369D01*
X414124Y-410630D01*
G37*
G36*
X891393Y-484369D02*
G01*
X891393Y-505630D01*
X869124Y-505630D01*
X869124Y-484369D01*
G37*
G36*
X903206Y-484369D02*
G01*
X903206Y-505630D01*
X925474Y-505630D01*
X925474Y-484369D01*
G37*
D32*
G01*
X46669Y252519D03*
G01*
X26989Y252519D03*
G01*
X7309Y252519D03*
G01*
X-12390Y252519D03*
G01*
X-32070Y252519D03*
G01*
X-32060Y67480D03*
G01*
X-12390Y67480D03*
G01*
X7299Y67480D03*
G01*
X26989Y67480D03*
G01*
X46679Y67480D03*
G36*
X955629Y515905D02*
G01*
X934369Y515905D01*
X934369Y547011D01*
X955629Y547011D01*
G37*
D31*
G01*
X945000Y488539D03*
G36*
X536669Y-365905D02*
G01*
X557929Y-365905D01*
X557929Y-397011D01*
X536669Y-397011D01*
G37*
G01*
X547299Y-338539D03*
G36*
X122393Y107629D02*
G01*
X122393Y86370D01*
X91287Y86370D01*
X91287Y107629D01*
G37*
G36*
X134205Y107629D02*
G01*
X134205Y86370D01*
X165311Y86370D01*
X165311Y107629D01*
G37*
G36*
X109929Y210905D02*
G01*
X88669Y210905D01*
X88669Y242011D01*
X109929Y242011D01*
G37*
G01*
X99299Y183539D03*
G36*
X1121669Y-270905D02*
G01*
X1142929Y-270905D01*
X1142929Y-293175D01*
X1121669Y-293175D01*
G37*
D27*
G01*
X1132299Y-247959D03*
G36*
X-22070Y340905D02*
G01*
X-43330Y340905D01*
X-43330Y363175D01*
X-22070Y363175D01*
G37*
G01*
X-32700Y317959D03*
G36*
X1111393Y220630D02*
G01*
X1111393Y199369D01*
X1080287Y199369D01*
X1080287Y220630D01*
G37*
G36*
X1123206Y220630D02*
G01*
X1123206Y199369D01*
X1154312Y199369D01*
X1154312Y220630D01*
G37*
G36*
X1111393Y135630D02*
G01*
X1111393Y114369D01*
X1080287Y114369D01*
X1080287Y135630D01*
G37*
G36*
X1123206Y135630D02*
G01*
X1123206Y114369D01*
X1154312Y114369D01*
X1154312Y135630D01*
G37*
G36*
X1151393Y340630D02*
G01*
X1151393Y319369D01*
X1120287Y319369D01*
X1120287Y340630D01*
G37*
G36*
X1163206Y340630D02*
G01*
X1163206Y319369D01*
X1194312Y319369D01*
X1194312Y340630D01*
G37*
G36*
X1011669Y494094D02*
G01*
X1032929Y494094D01*
X1032929Y471824D01*
X1011669Y471824D01*
G37*
G01*
X1022299Y517040D03*
G36*
X1061669Y-125905D02*
G01*
X1082929Y-125905D01*
X1082929Y-148175D01*
X1061669Y-148175D01*
G37*
G01*
X1072299Y-102959D03*
G36*
X1142929Y-114094D02*
G01*
X1121669Y-114094D01*
X1121669Y-91824D01*
X1142929Y-91824D01*
G37*
G01*
X1132299Y-137040D03*
G36*
X300959Y441340D02*
G01*
X332459Y441340D01*
X332459Y409839D01*
X300959Y409839D01*
G37*
G36*
X300959Y-109839D02*
G01*
X332459Y-109839D01*
X332459Y-141340D01*
X300959Y-141340D01*
G37*
G36*
X852139Y441340D02*
G01*
X883639Y441340D01*
X883639Y409839D01*
X852139Y409839D01*
G37*
G36*
X852139Y-109839D02*
G01*
X883639Y-109839D01*
X883639Y-141340D01*
X852139Y-141340D01*
G37*
G36*
X300959Y392125D02*
G01*
X332459Y392125D01*
X332459Y376374D01*
X300959Y376374D01*
G37*
G36*
X300959Y358665D02*
G01*
X332459Y358665D01*
X332459Y342914D01*
X300959Y342914D01*
G37*
G36*
X300959Y325194D02*
G01*
X332459Y325194D01*
X332459Y309445D01*
X300959Y309445D01*
G37*
G36*
X300959Y291734D02*
G01*
X332459Y291734D01*
X332459Y275985D01*
X300959Y275985D01*
G37*
G36*
X300959Y258265D02*
G01*
X332459Y258265D01*
X332459Y242514D01*
X300959Y242514D01*
G37*
G36*
X300959Y224805D02*
G01*
X332459Y224805D01*
X332459Y209054D01*
X300959Y209054D01*
G37*
G36*
X300959Y191334D02*
G01*
X332459Y191334D01*
X332459Y175585D01*
X300959Y175585D01*
G37*
G36*
X300959Y157874D02*
G01*
X332459Y157874D01*
X332459Y142125D01*
X300959Y142125D01*
G37*
G36*
X300959Y124414D02*
G01*
X332459Y124414D01*
X332459Y108665D01*
X300959Y108665D01*
G37*
G36*
X300959Y90945D02*
G01*
X332459Y90945D01*
X332459Y75194D01*
X300959Y75194D01*
G37*
G36*
X300959Y57485D02*
G01*
X332459Y57485D01*
X332459Y41734D01*
X300959Y41734D01*
G37*
G36*
X300959Y24014D02*
G01*
X332459Y24014D01*
X332459Y8265D01*
X300959Y8265D01*
G37*
G36*
X300959Y-9445D02*
G01*
X332459Y-9445D01*
X332459Y-25194D01*
X300959Y-25194D01*
G37*
G36*
X300959Y-42914D02*
G01*
X332459Y-42914D01*
X332459Y-58665D01*
X300959Y-58665D01*
G37*
G36*
X300959Y-76374D02*
G01*
X332459Y-76374D01*
X332459Y-92125D01*
X300959Y-92125D01*
G37*
G36*
X350169Y-109839D02*
G01*
X365919Y-109839D01*
X365919Y-141340D01*
X350169Y-141340D01*
G37*
G36*
X383639Y-109839D02*
G01*
X399389Y-109839D01*
X399389Y-141340D01*
X383639Y-141340D01*
G37*
G36*
X417099Y-109839D02*
G01*
X432849Y-109839D01*
X432849Y-141340D01*
X417099Y-141340D01*
G37*
G36*
X450569Y-109839D02*
G01*
X466319Y-109839D01*
X466319Y-141340D01*
X450569Y-141340D01*
G37*
G36*
X484029Y-109839D02*
G01*
X499779Y-109839D01*
X499779Y-141340D01*
X484029Y-141340D01*
G37*
G36*
X517500Y-109839D02*
G01*
X533239Y-109839D01*
X533239Y-141340D01*
X517500Y-141340D01*
G37*
G36*
X550959Y-109839D02*
G01*
X566709Y-109839D01*
X566709Y-141340D01*
X550959Y-141340D01*
G37*
G36*
X584429Y-109839D02*
G01*
X600169Y-109839D01*
X600169Y-141340D01*
X584429Y-141340D01*
G37*
G36*
X617889Y-109839D02*
G01*
X633639Y-109839D01*
X633639Y-141340D01*
X617889Y-141340D01*
G37*
G36*
X651359Y-109839D02*
G01*
X667099Y-109839D01*
X667099Y-141340D01*
X651359Y-141340D01*
G37*
G36*
X684819Y-109839D02*
G01*
X700569Y-109839D01*
X700569Y-141340D01*
X684819Y-141340D01*
G37*
G36*
X718279Y-109839D02*
G01*
X734029Y-109839D01*
X734029Y-141340D01*
X718279Y-141340D01*
G37*
G36*
X751749Y-109839D02*
G01*
X767500Y-109839D01*
X767500Y-141340D01*
X751749Y-141340D01*
G37*
G36*
X785209Y-109839D02*
G01*
X800959Y-109839D01*
X800959Y-141340D01*
X785209Y-141340D01*
G37*
G36*
X818679Y-109839D02*
G01*
X834429Y-109839D01*
X834429Y-141340D01*
X818679Y-141340D01*
G37*
G36*
X852139Y-76374D02*
G01*
X883639Y-76374D01*
X883639Y-92125D01*
X852139Y-92125D01*
G37*
G36*
X852139Y-42914D02*
G01*
X883639Y-42914D01*
X883639Y-58665D01*
X852139Y-58665D01*
G37*
G36*
X852139Y-9445D02*
G01*
X883639Y-9445D01*
X883639Y-25194D01*
X852139Y-25194D01*
G37*
G36*
X852139Y24014D02*
G01*
X883639Y24014D01*
X883639Y8265D01*
X852139Y8265D01*
G37*
G36*
X852139Y57485D02*
G01*
X883639Y57485D01*
X883639Y41734D01*
X852139Y41734D01*
G37*
G36*
X852139Y90945D02*
G01*
X883639Y90945D01*
X883639Y75194D01*
X852139Y75194D01*
G37*
G36*
X852139Y124414D02*
G01*
X883639Y124414D01*
X883639Y108665D01*
X852139Y108665D01*
G37*
G36*
X852139Y157874D02*
G01*
X883639Y157874D01*
X883639Y142125D01*
X852139Y142125D01*
G37*
G36*
X852139Y191334D02*
G01*
X883639Y191334D01*
X883639Y175585D01*
X852139Y175585D01*
G37*
G36*
X852139Y224805D02*
G01*
X883639Y224805D01*
X883639Y209054D01*
X852139Y209054D01*
G37*
G36*
X852139Y258265D02*
G01*
X883639Y258265D01*
X883639Y242514D01*
X852139Y242514D01*
G37*
G36*
X852139Y291734D02*
G01*
X883639Y291734D01*
X883639Y275985D01*
X852139Y275985D01*
G37*
G36*
X852139Y325194D02*
G01*
X883639Y325194D01*
X883639Y309445D01*
X852139Y309445D01*
G37*
G36*
X852139Y358665D02*
G01*
X883639Y358665D01*
X883639Y342914D01*
X852139Y342914D01*
G37*
G36*
X852139Y392125D02*
G01*
X883639Y392125D01*
X883639Y376374D01*
X852139Y376374D01*
G37*
G36*
X818679Y441340D02*
G01*
X834429Y441340D01*
X834429Y409839D01*
X818679Y409839D01*
G37*
G36*
X785209Y441340D02*
G01*
X800959Y441340D01*
X800959Y409839D01*
X785209Y409839D01*
G37*
G36*
X751749Y441340D02*
G01*
X767500Y441340D01*
X767500Y409839D01*
X751749Y409839D01*
G37*
G36*
X718279Y441340D02*
G01*
X734029Y441340D01*
X734029Y409839D01*
X718279Y409839D01*
G37*
G36*
X684819Y441340D02*
G01*
X700569Y441340D01*
X700569Y409839D01*
X684819Y409839D01*
G37*
G36*
X651359Y441340D02*
G01*
X667099Y441340D01*
X667099Y409839D01*
X651359Y409839D01*
G37*
G36*
X617889Y441340D02*
G01*
X633639Y441340D01*
X633639Y409839D01*
X617889Y409839D01*
G37*
G36*
X584429Y441340D02*
G01*
X600169Y441340D01*
X600169Y409839D01*
X584429Y409839D01*
G37*
G36*
X550959Y441340D02*
G01*
X566709Y441340D01*
X566709Y409839D01*
X550959Y409839D01*
G37*
G36*
X517500Y441340D02*
G01*
X533239Y441340D01*
X533239Y409839D01*
X517500Y409839D01*
G37*
G36*
X484029Y441340D02*
G01*
X499779Y441340D01*
X499779Y409839D01*
X484029Y409839D01*
G37*
G36*
X450569Y441340D02*
G01*
X466319Y441340D01*
X466319Y409839D01*
X450569Y409839D01*
G37*
G36*
X417099Y441340D02*
G01*
X432849Y441340D01*
X432849Y409839D01*
X417099Y409839D01*
G37*
G36*
X383639Y441340D02*
G01*
X399389Y441340D01*
X399389Y409839D01*
X383639Y409839D01*
G37*
G36*
X350169Y441340D02*
G01*
X365919Y441340D01*
X365919Y409839D01*
X350169Y409839D01*
G37*
G36*
X519465Y222835D02*
G01*
X535214Y222835D01*
X535214Y207085D01*
X519465Y207085D01*
G37*
G36*
X568679Y173620D02*
G01*
X615919Y173620D01*
X615919Y126379D01*
X568679Y126379D01*
G37*
G36*
X568679Y238580D02*
G01*
X615919Y238580D01*
X615919Y191340D01*
X568679Y191340D01*
G37*
G36*
X633639Y238580D02*
G01*
X680879Y238580D01*
X680879Y191340D01*
X633639Y191340D01*
G37*
G36*
X633639Y173620D02*
G01*
X680879Y173620D01*
X680879Y126379D01*
X633639Y126379D01*
G37*
G36*
X633639Y108659D02*
G01*
X680879Y108659D01*
X680879Y61419D01*
X633639Y61419D01*
G37*
G36*
X568679Y108659D02*
G01*
X615919Y108659D01*
X615919Y61419D01*
X568679Y61419D01*
G37*
G36*
X503719Y108659D02*
G01*
X550959Y108659D01*
X550959Y61419D01*
X503719Y61419D01*
G37*
G36*
X503719Y173620D02*
G01*
X550959Y173620D01*
X550959Y126379D01*
X503719Y126379D01*
G37*
D37*
G01*
X984589Y-400000D03*
G01*
X984589Y-350000D03*
G01*
X984589Y-300000D03*
G01*
X984589Y-250000D03*
G01*
X670009Y-250000D03*
G01*
X670009Y-300000D03*
G01*
X670009Y-350000D03*
G01*
X670009Y-400000D03*
G36*
X1033009Y35671D02*
G01*
X1052694Y35671D01*
X1052694Y24648D01*
X1033009Y24648D01*
G37*
G36*
X1033009Y55351D02*
G01*
X1052694Y55351D01*
X1052694Y44328D01*
X1033009Y44328D01*
G37*
G36*
X1042257Y84292D02*
G01*
X1053281Y84292D01*
X1053281Y64607D01*
X1042257Y64607D01*
G37*
G36*
X1061947Y84292D02*
G01*
X1072971Y84292D01*
X1072971Y64607D01*
X1061947Y64607D01*
G37*
G36*
X1081627Y84292D02*
G01*
X1092651Y84292D01*
X1092651Y64607D01*
X1081627Y64607D01*
G37*
G36*
X1101317Y84292D02*
G01*
X1112341Y84292D01*
X1112341Y64607D01*
X1101317Y64607D01*
G37*
G36*
X1101903Y55351D02*
G01*
X1121588Y55351D01*
X1121588Y44328D01*
X1101903Y44328D01*
G37*
G36*
X1101903Y35671D02*
G01*
X1121588Y35671D01*
X1121588Y24648D01*
X1101903Y24648D01*
G37*
G36*
X1101317Y15392D02*
G01*
X1112341Y15392D01*
X1112341Y-4292D01*
X1101317Y-4292D01*
G37*
G36*
X1081627Y15392D02*
G01*
X1092651Y15392D01*
X1092651Y-4292D01*
X1081627Y-4292D01*
G37*
G36*
X1061947Y15392D02*
G01*
X1072971Y15392D01*
X1072971Y-4292D01*
X1061947Y-4292D01*
G37*
G36*
X1042257Y15392D02*
G01*
X1053281Y15392D01*
X1053281Y-4292D01*
X1042257Y-4292D01*
G37*
D40*
G01*
X1120169Y392869D03*
G01*
X1120169Y377130D03*
G01*
X1104429Y392869D03*
G01*
X1104429Y377130D03*
G36*
X41429Y-142793D02*
G01*
X20169Y-142793D01*
X20169Y-120524D01*
X41429Y-120524D01*
G37*
D27*
G01*
X30799Y-165740D03*
G36*
X98429Y-143094D02*
G01*
X77169Y-143094D01*
X77169Y-120824D01*
X98429Y-120824D01*
G37*
G01*
X87799Y-166039D03*
G36*
X-24570Y-110893D02*
G01*
X-45830Y-110893D01*
X-45830Y-88625D01*
X-24570Y-88625D01*
G37*
G01*
X-35200Y-133840D03*
G36*
X271293Y-346570D02*
G01*
X271293Y-367829D01*
X240187Y-367829D01*
X240187Y-346570D01*
G37*
G36*
X283105Y-346570D02*
G01*
X283105Y-367829D01*
X314211Y-367829D01*
X314211Y-346570D01*
G37*
G36*
X271593Y-402370D02*
G01*
X271593Y-423629D01*
X240487Y-423629D01*
X240487Y-402370D01*
G37*
G36*
X283405Y-402370D02*
G01*
X283405Y-423629D01*
X314511Y-423629D01*
X314511Y-402370D01*
G37*
D23*
G01*
X137619Y-45320D03*
G01*
X137619Y-84690D03*
G01*
X176989Y-84690D03*
G01*
X176989Y-45320D03*
G01*
X930099Y220599D03*
G01*
X930000Y185000D03*
D24*
G01*
X1097299Y460000D03*
G01*
X1017299Y-25000D03*
D23*
G01*
X52299Y-360000D03*
G01*
X27299Y-335000D03*
G01*
X475000Y-220000D03*
G01*
X522299Y-215000D03*
G01*
X417299Y-55000D03*
G01*
X-56500Y5999D03*
G01*
X516499Y-53899D03*
G01*
X547299Y-30000D03*
G01*
X-34200Y-214000D03*
G01*
X373999Y-422600D03*
G01*
X1097299Y170000D03*
G01*
X1180099Y69299D03*
G01*
X662299Y-450000D03*
G01*
X717299Y-180000D03*
G01*
X907299Y-345000D03*
G01*
X1002299Y-200000D03*
G01*
X1117299Y-205000D03*
G01*
X937299Y-110000D03*
G01*
X962299Y-85000D03*
G01*
X732299Y-485000D03*
G01*
X1072299Y-210000D03*
G01*
X430000Y-240000D03*
G01*
X602299Y-360000D03*
G01*
X1077299Y-300000D03*
G01*
X384299Y-29400D03*
G01*
X1799Y439800D03*
G01*
X982299Y580000D03*
G01*
X1187299Y270000D03*
G01*
X345699Y-176799D03*
G01*
X508089Y-475770D03*
G01*
X622299Y-475000D03*
G01*
X180000Y455000D03*
G01*
X205000Y-465000D03*
G01*
X970000Y-135000D03*
G01*
X945000Y605000D03*
G01*
X470000Y80000D03*
G01*
X310000Y680000D03*
G01*
X99699Y566799D03*
G01*
X180000Y580000D03*
G01*
X239199Y458699D03*
G01*
X364399Y69200D03*
G01*
X418199Y44299D03*
G01*
X470000Y35000D03*
G01*
X165000Y215000D03*
G01*
X1115000Y-50000D03*
G01*
X554099Y21999D03*
G01*
X47799Y-278200D03*
G01*
X136299Y365100D03*
G01*
X303799Y-172800D03*
G01*
X-40000Y196500D03*
G01*
X1151999Y-55000D03*
G01*
X401799Y303800D03*
G01*
X606799Y270399D03*
G01*
X746499Y268899D03*
G01*
X704199Y254400D03*
G01*
X374399Y247199D03*
G01*
X632799Y698099D03*
G01*
X653099Y273800D03*
G01*
X215199Y185900D03*
G01*
X423499Y389800D03*
G01*
X785399Y305300D03*
G01*
X364399Y33099D03*
G01*
X523099Y-292800D03*
G01*
X89499Y-403800D03*
D41*
X788549Y-554225D02*
G01*
X788549Y-593595D01*
X788549Y-711705D02*
G01*
X788549Y-751075D01*
X346039Y-554225D02*
G01*
X346039Y-593595D01*
X346039Y-711705D02*
G01*
X346039Y-751075D01*
M02*
