G04 Layer: BottomSolderMaskLayer*
G04 EasyEDA v6.4.31, 2022-02-15 11:42:09*
G04 cf861d6554b0406c859822548a314204,c17a8ced473b4d519dda31697e0e54b6,10*
G04 Gerber Generator version 0.2*
G04 Scale: 100 percent, Rotated: No, Reflected: No *
G04 Dimensions in inches *
G04 leading zeros omitted , absolute positions ,3 integer and 6 decimal *
%FSLAX36Y36*%
%MOIN*%

%ADD82C,0.0512*%
%ADD102C,0.0680*%

%LPD*%
D82*
X788549Y-554225D02*
G01*
X788549Y-593595D01*
X788549Y-711705D02*
G01*
X788549Y-751075D01*
X346039Y-554225D02*
G01*
X346039Y-593595D01*
X346039Y-711705D02*
G01*
X346039Y-751075D01*
G36*
X238199Y-316799D02*
G01*
X238199Y-241999D01*
X281599Y-241999D01*
X281599Y-316799D01*
G37*
G36*
X336599Y-316799D02*
G01*
X336599Y-241999D01*
X380000Y-241999D01*
X380000Y-316799D01*
G37*
G36*
X223399Y-518800D02*
G01*
X223399Y-487199D01*
X276599Y-487199D01*
X276599Y-518800D01*
G37*
G36*
X223399Y-444000D02*
G01*
X223399Y-412399D01*
X276599Y-412399D01*
X276599Y-444000D01*
G37*
G36*
X302199Y-481399D02*
G01*
X302199Y-449800D01*
X355399Y-449800D01*
X355399Y-481399D01*
G37*
D102*
G01*
X1122299Y85000D03*
G01*
X1122299Y10000D03*
G36*
X126899Y587399D02*
G01*
X126899Y612600D01*
X153099Y612600D01*
X153099Y587399D01*
G37*
G36*
X161899Y607399D02*
G01*
X161899Y632600D01*
X188099Y632600D01*
X188099Y607399D01*
G37*
G36*
X246899Y637399D02*
G01*
X246899Y662600D01*
X273099Y662600D01*
X273099Y637399D01*
G37*
G36*
X211899Y617399D02*
G01*
X211899Y642600D01*
X238099Y642600D01*
X238099Y617399D01*
G37*
G36*
X301899Y582399D02*
G01*
X301899Y607600D01*
X328099Y607600D01*
X328099Y582399D01*
G37*
G36*
X266899Y582399D02*
G01*
X266899Y607600D01*
X293099Y607600D01*
X293099Y582399D01*
G37*
G36*
X1016899Y502399D02*
G01*
X1016899Y527600D01*
X1043099Y527600D01*
X1043099Y502399D01*
G37*
G36*
X981899Y502399D02*
G01*
X981899Y527600D01*
X1008099Y527600D01*
X1008099Y502399D01*
G37*
G36*
X941899Y532399D02*
G01*
X941899Y557600D01*
X968099Y557600D01*
X968099Y532399D01*
G37*
G36*
X911899Y562399D02*
G01*
X911899Y587600D01*
X938099Y587600D01*
X938099Y562399D01*
G37*
G36*
X936899Y87399D02*
G01*
X936899Y112600D01*
X963099Y112600D01*
X963099Y87399D01*
G37*
G36*
X936899Y42399D02*
G01*
X936899Y67600D01*
X963099Y67600D01*
X963099Y42399D01*
G37*
G36*
X318599Y167500D02*
G01*
X318599Y206799D01*
X353999Y206799D01*
X353999Y167500D01*
G37*
G36*
X376499Y167600D02*
G01*
X376499Y206900D01*
X411899Y206900D01*
X411899Y167600D01*
G37*
G36*
X377999Y95700D02*
G01*
X377999Y135000D01*
X413399Y135000D01*
X413399Y95700D01*
G37*
G36*
X317799Y95900D02*
G01*
X317799Y135300D01*
X353199Y135300D01*
X353199Y95900D01*
G37*
G36*
X1097099Y-102600D02*
G01*
X1097099Y-77399D01*
X1123399Y-77399D01*
X1123399Y-102600D01*
G37*
G36*
X1131199Y-102600D02*
G01*
X1131199Y-77399D01*
X1157500Y-77399D01*
X1157500Y-102600D01*
G37*
G36*
X887399Y123899D02*
G01*
X887399Y150199D01*
X912599Y150199D01*
X912599Y123899D01*
G37*
G36*
X887399Y89800D02*
G01*
X887399Y116100D01*
X912599Y116100D01*
X912599Y89800D01*
G37*
G36*
X299199Y300D02*
G01*
X299199Y35399D01*
X324399Y35399D01*
X324399Y300D01*
G37*
G36*
X299199Y43200D02*
G01*
X299199Y78299D01*
X324399Y78299D01*
X324399Y43200D01*
G37*
G36*
X508399Y370000D02*
G01*
X508399Y401599D01*
X561599Y401599D01*
X561599Y370000D01*
G37*
G36*
X508399Y295199D02*
G01*
X508399Y326799D01*
X561599Y326799D01*
X561599Y295199D01*
G37*
G36*
X429599Y332600D02*
G01*
X429599Y364200D01*
X482799Y364200D01*
X482799Y332600D01*
G37*
G36*
X471999Y230399D02*
G01*
X471999Y256700D01*
X497199Y256700D01*
X497199Y230399D01*
G37*
G36*
X471999Y196300D02*
G01*
X471999Y222600D01*
X497199Y222600D01*
X497199Y196300D01*
G37*
G36*
X529699Y167300D02*
G01*
X529699Y192500D01*
X555999Y192500D01*
X555999Y167300D01*
G37*
G36*
X563799Y167300D02*
G01*
X563799Y192500D01*
X590099Y192500D01*
X590099Y167300D01*
G37*
G36*
X87399Y-275199D02*
G01*
X87399Y-248899D01*
X112599Y-248899D01*
X112599Y-275199D01*
G37*
G36*
X87399Y-241100D02*
G01*
X87399Y-214800D01*
X112599Y-214800D01*
X112599Y-241100D01*
G37*
G36*
X175299Y-242500D02*
G01*
X175299Y-216199D01*
X200499Y-216199D01*
X200499Y-242500D01*
G37*
G36*
X175299Y-276599D02*
G01*
X175299Y-250300D01*
X200499Y-250300D01*
X200499Y-276599D01*
G37*
G36*
X822599Y391399D02*
G01*
X822599Y416599D01*
X848899Y416599D01*
X848899Y391399D01*
G37*
G36*
X788499Y391399D02*
G01*
X788499Y416599D01*
X814799Y416599D01*
X814799Y391399D01*
G37*
G36*
X899799Y-398400D02*
G01*
X899799Y-381599D01*
X915799Y-381599D01*
X915799Y-398400D01*
G37*
G36*
X918799Y-398400D02*
G01*
X918799Y-381599D01*
X934799Y-381599D01*
X934799Y-398400D01*
G37*
G36*
X446199Y437699D02*
G01*
X446199Y490900D01*
X461899Y490900D01*
X461899Y437699D01*
G37*
G36*
X465799Y437699D02*
G01*
X465799Y490900D01*
X481599Y490900D01*
X481599Y437699D01*
G37*
G36*
X485499Y437699D02*
G01*
X485499Y490900D01*
X501299Y490900D01*
X501299Y437699D01*
G37*
G36*
X505199Y437699D02*
G01*
X505199Y490900D01*
X520999Y490900D01*
X520999Y437699D01*
G37*
G36*
X524899Y437699D02*
G01*
X524899Y490900D01*
X540599Y490900D01*
X540599Y437699D01*
G37*
G36*
X544599Y437699D02*
G01*
X544599Y490900D01*
X560299Y490900D01*
X560299Y437699D01*
G37*
G36*
X564299Y437699D02*
G01*
X564299Y490900D01*
X580000Y490900D01*
X580000Y437699D01*
G37*
G36*
X583999Y437699D02*
G01*
X583999Y490900D01*
X599699Y490900D01*
X599699Y437699D01*
G37*
G36*
X603599Y437699D02*
G01*
X603599Y490900D01*
X619399Y490900D01*
X619399Y437699D01*
G37*
G36*
X623299Y437699D02*
G01*
X623299Y490900D01*
X639099Y490900D01*
X639099Y437699D01*
G37*
G36*
X642999Y437699D02*
G01*
X642999Y490900D01*
X658799Y490900D01*
X658799Y437699D01*
G37*
G36*
X662699Y437699D02*
G01*
X662699Y490900D01*
X678399Y490900D01*
X678399Y437699D01*
G37*
G36*
X346199Y514499D02*
G01*
X346199Y616900D01*
X428799Y616900D01*
X428799Y514499D01*
G37*
G36*
X695799Y514499D02*
G01*
X695799Y616900D01*
X778399Y616900D01*
X778399Y514499D01*
G37*
G36*
X534699Y-101100D02*
G01*
X534699Y-65999D01*
X559899Y-65999D01*
X559899Y-101100D01*
G37*
G36*
X534699Y-144000D02*
G01*
X534699Y-108899D01*
X559899Y-108899D01*
X559899Y-144000D01*
G37*
G36*
X509699Y-361100D02*
G01*
X509699Y-325999D01*
X534899Y-325999D01*
X534899Y-361100D01*
G37*
G36*
X509699Y-404000D02*
G01*
X509699Y-368899D01*
X534899Y-368899D01*
X534899Y-404000D01*
G37*
G36*
X83299Y97399D02*
G01*
X83299Y122600D01*
X118399Y122600D01*
X118399Y97399D01*
G37*
G36*
X126199Y97399D02*
G01*
X126199Y122600D01*
X161299Y122600D01*
X161299Y97399D01*
G37*
G36*
X-16700Y57399D02*
G01*
X-16700Y82600D01*
X18399Y82600D01*
X18399Y57399D01*
G37*
G36*
X26199Y57399D02*
G01*
X26199Y82600D01*
X61299Y82600D01*
X61299Y57399D01*
G37*
G36*
X-45300Y-46100D02*
G01*
X-45300Y-10999D01*
X-20100Y-10999D01*
X-20100Y-46100D01*
G37*
G36*
X-45300Y-89000D02*
G01*
X-45300Y-53899D01*
X-20100Y-53899D01*
X-20100Y-89000D01*
G37*
G36*
X247399Y145999D02*
G01*
X247399Y181100D01*
X272599Y181100D01*
X272599Y145999D01*
G37*
G36*
X247399Y188899D02*
G01*
X247399Y224000D01*
X272599Y224000D01*
X272599Y188899D01*
G37*
G36*
X2199Y-238099D02*
G01*
X2199Y-203000D01*
X27399Y-203000D01*
X27399Y-238099D01*
G37*
G36*
X2199Y-280999D02*
G01*
X2199Y-245900D01*
X27399Y-245900D01*
X27399Y-280999D01*
G37*
G36*
X928899Y-47600D02*
G01*
X928899Y-22399D01*
X963999Y-22399D01*
X963999Y-47600D01*
G37*
G36*
X885999Y-47600D02*
G01*
X885999Y-22399D01*
X921099Y-22399D01*
X921099Y-47600D01*
G37*
G36*
X1168299Y-2600D02*
G01*
X1168299Y22600D01*
X1203399Y22600D01*
X1203399Y-2600D01*
G37*
G36*
X1211199Y-2600D02*
G01*
X1211199Y22600D01*
X1246299Y22600D01*
X1246299Y-2600D01*
G37*
G36*
X303299Y-72600D02*
G01*
X303299Y-47399D01*
X338399Y-47399D01*
X338399Y-72600D01*
G37*
G36*
X346199Y-72600D02*
G01*
X346199Y-47399D01*
X381299Y-47399D01*
X381299Y-72600D01*
G37*
G36*
X308299Y-152600D02*
G01*
X308299Y-127399D01*
X343399Y-127399D01*
X343399Y-152600D01*
G37*
G36*
X351199Y-152600D02*
G01*
X351199Y-127399D01*
X386299Y-127399D01*
X386299Y-152600D01*
G37*
G36*
X720299Y-230300D02*
G01*
X720299Y-205100D01*
X746599Y-205100D01*
X746599Y-230300D01*
G37*
G36*
X754399Y-230300D02*
G01*
X754399Y-205100D01*
X780699Y-205100D01*
X780699Y-230300D01*
G37*
G36*
X218899Y85000D02*
G01*
X218899Y103499D01*
X235699Y103499D01*
X235699Y85000D01*
G37*
G36*
X218899Y106500D02*
G01*
X218899Y125000D01*
X235699Y125000D01*
X235699Y106500D01*
G37*
G36*
X936199Y-472600D02*
G01*
X936199Y-447399D01*
X962500Y-447399D01*
X962500Y-472600D01*
G37*
G36*
X902099Y-472600D02*
G01*
X902099Y-447399D01*
X928399Y-447399D01*
X928399Y-472600D01*
G37*
G36*
X-35500Y-172600D02*
G01*
X-35500Y-152800D01*
X-9900Y-152800D01*
X-9900Y-172600D01*
G37*
G36*
X-35500Y-137199D02*
G01*
X-35500Y-117399D01*
X-9900Y-117399D01*
X-9900Y-137199D01*
G37*
G36*
X814699Y-366300D02*
G01*
X814699Y-330799D01*
X850199Y-330799D01*
X850199Y-366300D01*
G37*
G36*
X814399Y-429200D02*
G01*
X814399Y-393699D01*
X849899Y-393699D01*
X849899Y-429200D01*
G37*
G36*
X624399Y-361399D02*
G01*
X624399Y-329800D01*
X677599Y-329800D01*
X677599Y-361399D01*
G37*
G36*
X624399Y-286599D02*
G01*
X624399Y-255000D01*
X677599Y-255000D01*
X677599Y-286599D01*
G37*
G36*
X703199Y-324000D02*
G01*
X703199Y-292399D01*
X756399Y-292399D01*
X756399Y-324000D01*
G37*
G36*
X808999Y-180399D02*
G01*
X808999Y-155199D01*
X835299Y-155199D01*
X835299Y-180399D01*
G37*
G36*
X774899Y-180399D02*
G01*
X774899Y-155199D01*
X801199Y-155199D01*
X801199Y-180399D01*
G37*
G36*
X462099Y-17600D02*
G01*
X462099Y7600D01*
X488399Y7600D01*
X488399Y-17600D01*
G37*
G36*
X496199Y-17600D02*
G01*
X496199Y7600D01*
X522500Y7600D01*
X522500Y-17600D01*
G37*
G36*
X504699Y78899D02*
G01*
X504699Y105199D01*
X529899Y105199D01*
X529899Y78899D01*
G37*
G36*
X504699Y44800D02*
G01*
X504699Y71100D01*
X529899Y71100D01*
X529899Y44800D01*
G37*
G36*
X1116199Y-172600D02*
G01*
X1116199Y-147399D01*
X1142500Y-147399D01*
X1142500Y-172600D01*
G37*
G36*
X1082099Y-172600D02*
G01*
X1082099Y-147399D01*
X1108399Y-147399D01*
X1108399Y-172600D01*
G37*
G36*
X47699Y224699D02*
G01*
X47699Y315300D01*
X95000Y315300D01*
X95000Y224699D01*
G37*
G36*
X-10400Y304400D02*
G01*
X-10400Y347800D01*
X35000Y347800D01*
X35000Y304400D01*
G37*
G36*
X-70400Y224699D02*
G01*
X-70400Y315300D01*
X-23100Y315300D01*
X-23100Y224699D01*
G37*
G36*
X-10400Y192199D02*
G01*
X-10400Y235599D01*
X35000Y235599D01*
X35000Y192199D01*
G37*
G36*
X236999Y-500D02*
G01*
X236999Y12300D01*
X267199Y12300D01*
X267199Y-500D01*
G37*
G36*
X236999Y-16300D02*
G01*
X236999Y-3499D01*
X267199Y-3499D01*
X267199Y-16300D01*
G37*
G36*
X236999Y-31999D02*
G01*
X236999Y-19200D01*
X267199Y-19200D01*
X267199Y-31999D01*
G37*
G36*
X236999Y-47800D02*
G01*
X236999Y-35000D01*
X267199Y-35000D01*
X267199Y-47800D01*
G37*
G36*
X236999Y-63499D02*
G01*
X236999Y-50700D01*
X267199Y-50700D01*
X267199Y-63499D01*
G37*
G36*
X236999Y-79299D02*
G01*
X236999Y-66500D01*
X267199Y-66500D01*
X267199Y-79299D01*
G37*
G36*
X236999Y-95000D02*
G01*
X236999Y-82199D01*
X267199Y-82199D01*
X267199Y-95000D01*
G37*
G36*
X236999Y-110799D02*
G01*
X236999Y-98000D01*
X267199Y-98000D01*
X267199Y-110799D01*
G37*
G36*
X236999Y-126500D02*
G01*
X236999Y-113699D01*
X267199Y-113699D01*
X267199Y-126500D01*
G37*
G36*
X236999Y-142300D02*
G01*
X236999Y-129499D01*
X267199Y-129499D01*
X267199Y-142300D01*
G37*
G36*
X221799Y-174899D02*
G01*
X221799Y-144699D01*
X234599Y-144699D01*
X234599Y-174899D01*
G37*
G36*
X205999Y-174899D02*
G01*
X205999Y-144699D01*
X218799Y-144699D01*
X218799Y-174899D01*
G37*
G36*
X190299Y-174899D02*
G01*
X190299Y-144699D01*
X203099Y-144699D01*
X203099Y-174899D01*
G37*
G36*
X174499Y-174899D02*
G01*
X174499Y-144699D01*
X187299Y-144699D01*
X187299Y-174899D01*
G37*
G36*
X158799Y-174899D02*
G01*
X158799Y-144699D01*
X171599Y-144699D01*
X171599Y-174899D01*
G37*
G36*
X142999Y-174899D02*
G01*
X142999Y-144699D01*
X155799Y-144699D01*
X155799Y-174899D01*
G37*
G36*
X127299Y-174899D02*
G01*
X127299Y-144699D01*
X140099Y-144699D01*
X140099Y-174899D01*
G37*
G36*
X111499Y-174899D02*
G01*
X111499Y-144699D01*
X124299Y-144699D01*
X124299Y-174899D01*
G37*
G36*
X95799Y-174899D02*
G01*
X95799Y-144699D01*
X108599Y-144699D01*
X108599Y-174899D01*
G37*
G36*
X80000Y-174899D02*
G01*
X80000Y-144699D01*
X92799Y-144699D01*
X92799Y-174899D01*
G37*
G36*
X47399Y-142300D02*
G01*
X47399Y-129499D01*
X77599Y-129499D01*
X77599Y-142300D01*
G37*
G36*
X47399Y-126500D02*
G01*
X47399Y-113699D01*
X77599Y-113699D01*
X77599Y-126500D01*
G37*
G36*
X47399Y-110799D02*
G01*
X47399Y-98000D01*
X77599Y-98000D01*
X77599Y-110799D01*
G37*
G36*
X47399Y-95000D02*
G01*
X47399Y-82199D01*
X77599Y-82199D01*
X77599Y-95000D01*
G37*
G36*
X47399Y-79299D02*
G01*
X47399Y-66500D01*
X77599Y-66500D01*
X77599Y-79299D01*
G37*
G36*
X47399Y-63499D02*
G01*
X47399Y-50700D01*
X77599Y-50700D01*
X77599Y-63499D01*
G37*
G36*
X47399Y-47800D02*
G01*
X47399Y-35000D01*
X77599Y-35000D01*
X77599Y-47800D01*
G37*
G36*
X47399Y-31999D02*
G01*
X47399Y-19200D01*
X77599Y-19200D01*
X77599Y-31999D01*
G37*
G36*
X47399Y-16300D02*
G01*
X47399Y-3499D01*
X77599Y-3499D01*
X77599Y-16300D01*
G37*
G36*
X47399Y-500D02*
G01*
X47399Y12300D01*
X77599Y12300D01*
X77599Y-500D01*
G37*
G36*
X80000Y14699D02*
G01*
X80000Y44899D01*
X92799Y44899D01*
X92799Y14699D01*
G37*
G36*
X95799Y14699D02*
G01*
X95799Y44899D01*
X108599Y44899D01*
X108599Y14699D01*
G37*
G36*
X111499Y14699D02*
G01*
X111499Y44899D01*
X124299Y44899D01*
X124299Y14699D01*
G37*
G36*
X127299Y14699D02*
G01*
X127299Y44899D01*
X140099Y44899D01*
X140099Y14699D01*
G37*
G36*
X142999Y14699D02*
G01*
X142999Y44899D01*
X155799Y44899D01*
X155799Y14699D01*
G37*
G36*
X158799Y14699D02*
G01*
X158799Y44899D01*
X171599Y44899D01*
X171599Y14699D01*
G37*
G36*
X174499Y14699D02*
G01*
X174499Y44899D01*
X187299Y44899D01*
X187299Y14699D01*
G37*
G36*
X190299Y14699D02*
G01*
X190299Y44899D01*
X203099Y44899D01*
X203099Y14699D01*
G37*
G36*
X205999Y14699D02*
G01*
X205999Y44899D01*
X218799Y44899D01*
X218799Y14699D01*
G37*
G36*
X221799Y14699D02*
G01*
X221799Y44899D01*
X234599Y44899D01*
X234599Y14699D01*
G37*
G36*
X89799Y-132500D02*
G01*
X89799Y2500D01*
X224799Y2500D01*
X224799Y-132500D01*
G37*
G36*
X1026899Y-266599D02*
G01*
X1026899Y-223200D01*
X1052500Y-223200D01*
X1052500Y-266599D01*
G37*
G36*
X989499Y-266599D02*
G01*
X989499Y-223200D01*
X1015099Y-223200D01*
X1015099Y-266599D01*
G37*
G36*
X952099Y-266599D02*
G01*
X952099Y-223200D01*
X977699Y-223200D01*
X977699Y-266599D01*
G37*
G36*
X952099Y-376799D02*
G01*
X952099Y-333400D01*
X977699Y-333400D01*
X977699Y-376799D01*
G37*
G36*
X989499Y-376799D02*
G01*
X989499Y-333400D01*
X1015099Y-333400D01*
X1015099Y-376799D01*
G37*
G36*
X1026899Y-376799D02*
G01*
X1026899Y-333400D01*
X1052500Y-333400D01*
X1052500Y-376799D01*
G37*
G36*
X83299Y147399D02*
G01*
X83299Y172600D01*
X118399Y172600D01*
X118399Y147399D01*
G37*
G36*
X126199Y147399D02*
G01*
X126199Y172600D01*
X161299Y172600D01*
X161299Y147399D01*
G37*
G36*
X-100300Y-41100D02*
G01*
X-100300Y-5999D01*
X-75100Y-5999D01*
X-75100Y-41100D01*
G37*
G36*
X-100300Y-84000D02*
G01*
X-100300Y-48899D01*
X-75100Y-48899D01*
X-75100Y-84000D01*
G37*
G36*
X-1100Y146500D02*
G01*
X-1100Y165000D01*
X15699Y165000D01*
X15699Y146500D01*
G37*
G36*
X-1100Y125000D02*
G01*
X-1100Y143499D01*
X15699Y143499D01*
X15699Y125000D01*
G37*
G36*
X582199Y-68800D02*
G01*
X582199Y-41199D01*
X633399Y-41199D01*
X633399Y-68800D01*
G37*
G36*
X582199Y-18800D02*
G01*
X582199Y8800D01*
X633399Y8800D01*
X633399Y-18800D01*
G37*
G36*
X582199Y31199D02*
G01*
X582199Y58800D01*
X633399Y58800D01*
X633399Y31199D01*
G37*
G36*
X582199Y81199D02*
G01*
X582199Y108800D01*
X633399Y108800D01*
X633399Y81199D01*
G37*
G36*
X811199Y81199D02*
G01*
X811199Y108800D01*
X862399Y108800D01*
X862399Y81199D01*
G37*
G36*
X811199Y31199D02*
G01*
X811199Y58800D01*
X862399Y58800D01*
X862399Y31199D01*
G37*
G36*
X811199Y-18800D02*
G01*
X811199Y8800D01*
X862399Y8800D01*
X862399Y-18800D01*
G37*
G36*
X811199Y-68800D02*
G01*
X811199Y-41199D01*
X862399Y-41199D01*
X862399Y-68800D01*
G37*
G36*
X671099Y-50900D02*
G01*
X671099Y90900D01*
X773499Y90900D01*
X773499Y-50900D01*
G37*
G36*
X801599Y511199D02*
G01*
X801599Y536399D01*
X827899Y536399D01*
X827899Y511199D01*
G37*
G36*
X835699Y511199D02*
G01*
X835699Y536399D01*
X861999Y536399D01*
X861999Y511199D01*
G37*
G36*
X659799Y-552300D02*
G01*
X659799Y-505000D01*
X675599Y-505000D01*
X675599Y-552300D01*
G37*
G36*
X647999Y-552300D02*
G01*
X647999Y-505000D01*
X663799Y-505000D01*
X663799Y-552300D01*
G37*
G36*
X628299Y-552300D02*
G01*
X628299Y-505000D01*
X644099Y-505000D01*
X644099Y-552300D01*
G37*
G36*
X608599Y-552300D02*
G01*
X608599Y-505000D01*
X624499Y-505000D01*
X624499Y-552300D01*
G37*
G36*
X588999Y-552300D02*
G01*
X588999Y-505000D01*
X604799Y-505000D01*
X604799Y-552300D01*
G37*
G36*
X569299Y-552300D02*
G01*
X569299Y-505000D01*
X585099Y-505000D01*
X585099Y-552300D01*
G37*
G36*
X549599Y-552300D02*
G01*
X549599Y-505000D01*
X565399Y-505000D01*
X565399Y-552300D01*
G37*
G36*
X529899Y-552300D02*
G01*
X529899Y-505000D01*
X545699Y-505000D01*
X545699Y-552300D01*
G37*
G36*
X510199Y-552300D02*
G01*
X510199Y-505000D01*
X525999Y-505000D01*
X525999Y-552300D01*
G37*
G36*
X490499Y-552300D02*
G01*
X490499Y-505000D01*
X506299Y-505000D01*
X506299Y-552300D01*
G37*
G36*
X470799Y-552300D02*
G01*
X470799Y-505000D01*
X486699Y-505000D01*
X486699Y-552300D01*
G37*
G36*
X458999Y-552300D02*
G01*
X458999Y-505000D01*
X474799Y-505000D01*
X474799Y-552300D01*
G37*
G36*
X679499Y-552300D02*
G01*
X679499Y-505000D01*
X695299Y-505000D01*
X695299Y-552300D01*
G37*
G36*
X691299Y-552300D02*
G01*
X691299Y-505000D01*
X707099Y-505000D01*
X707099Y-552300D01*
G37*
G36*
X439399Y-552300D02*
G01*
X439399Y-505000D01*
X455199Y-505000D01*
X455199Y-552300D01*
G37*
G36*
X427500Y-552300D02*
G01*
X427500Y-505000D01*
X443399Y-505000D01*
X443399Y-552300D01*
G37*
G36*
X132399Y494800D02*
G01*
X132399Y521100D01*
X157599Y521100D01*
X157599Y494800D01*
G37*
G36*
X132399Y528899D02*
G01*
X132399Y555199D01*
X157599Y555199D01*
X157599Y528899D01*
G37*
G36*
X272399Y489800D02*
G01*
X272399Y516100D01*
X297599Y516100D01*
X297599Y489800D01*
G37*
G36*
X272399Y523899D02*
G01*
X272399Y550199D01*
X297599Y550199D01*
X297599Y523899D01*
G37*
G36*
X207399Y519800D02*
G01*
X207399Y546100D01*
X232599Y546100D01*
X232599Y519800D01*
G37*
G36*
X207399Y553899D02*
G01*
X207399Y580199D01*
X232599Y580199D01*
X232599Y553899D01*
G37*
G36*
X-96000Y41100D02*
G01*
X-96000Y76199D01*
X-70800Y76199D01*
X-70800Y41100D01*
G37*
G36*
X-96000Y84000D02*
G01*
X-96000Y119099D01*
X-70800Y119099D01*
X-70800Y84000D01*
G37*
G36*
X689699Y334899D02*
G01*
X689699Y361199D01*
X714899Y361199D01*
X714899Y334899D01*
G37*
G36*
X689699Y300799D02*
G01*
X689699Y327100D01*
X714899Y327100D01*
X714899Y300799D01*
G37*
G36*
X628299Y333000D02*
G01*
X628299Y359299D01*
X653499Y359299D01*
X653499Y333000D01*
G37*
G36*
X628299Y298899D02*
G01*
X628299Y325199D01*
X653499Y325199D01*
X653499Y298899D01*
G37*
G36*
X373399Y363200D02*
G01*
X373399Y388400D01*
X399699Y388400D01*
X399699Y363200D01*
G37*
G36*
X339299Y363200D02*
G01*
X339299Y388400D01*
X365599Y388400D01*
X365599Y363200D01*
G37*
G36*
X142099Y-377100D02*
G01*
X142099Y-351900D01*
X168399Y-351900D01*
X168399Y-377100D01*
G37*
G36*
X176199Y-377100D02*
G01*
X176199Y-351900D01*
X202500Y-351900D01*
X202500Y-377100D01*
G37*
G36*
X144499Y-478600D02*
G01*
X144499Y-452300D01*
X169699Y-452300D01*
X169699Y-478600D01*
G37*
G36*
X144499Y-444499D02*
G01*
X144499Y-418200D01*
X169699Y-418200D01*
X169699Y-444499D01*
G37*
M02*
