G04 Layer: BottomSilkscreenLayer*
G04 EasyEDA v6.5.22, 2023-01-25 14:40:03*
G04 67e638892e2345238d747ee42e984064,9a4ed40c0dd746429eaf55b84663d2fb,10*
G04 Gerber Generator version 0.2*
G04 Scale: 100 percent, Rotated: No, Reflected: No *
G04 Dimensions in inches *
G04 leading zeros omitted , absolute positions ,3 integer and 6 decimal *
%FSLAX36Y36*%
%MOIN*%

%ADD10C,0.0020*%
%ADD11C,0.0060*%
%ADD12C,0.0050*%

%LPD*%
G36*
X309840Y-194700D02*
G01*
X307220Y-194980D01*
X304880Y-195539D01*
X302540Y-196460D01*
X300360Y-197700D01*
X298340Y-199220D01*
X296520Y-200960D01*
X294920Y-202940D01*
X293580Y-205080D01*
X292540Y-207360D01*
X291747Y-210120D01*
X301160Y-210120D01*
X301220Y-208680D01*
X301880Y-207380D01*
X303060Y-206460D01*
X304080Y-206180D01*
X305100Y-206200D01*
X306080Y-206540D01*
X306940Y-207160D01*
X307880Y-208900D01*
X307680Y-210700D01*
X306560Y-212120D01*
X304640Y-212780D01*
X303780Y-212740D01*
X303040Y-212520D01*
X302380Y-212079D01*
X301740Y-211420D01*
X301160Y-210120D01*
X291747Y-210120D01*
X291500Y-211740D01*
X291408Y-214460D01*
X293660Y-214460D01*
X293760Y-211240D01*
X293900Y-210760D01*
X299020Y-210760D01*
X299120Y-211260D01*
X299380Y-211920D01*
X299840Y-212659D01*
X300440Y-213359D01*
X301100Y-213939D01*
X302940Y-214880D01*
X304840Y-215100D01*
X306720Y-214620D01*
X308460Y-213420D01*
X309220Y-212600D01*
X309720Y-211700D01*
X310020Y-210680D01*
X310100Y-209480D01*
X310020Y-208359D01*
X309780Y-207399D01*
X309300Y-206540D01*
X308580Y-205660D01*
X306460Y-204259D01*
X304020Y-203939D01*
X301660Y-204660D01*
X299820Y-206360D01*
X299120Y-207719D01*
X299000Y-208200D01*
X294580Y-208100D01*
X295200Y-206780D01*
X296160Y-205100D01*
X297280Y-203540D01*
X298540Y-202120D01*
X299940Y-200840D01*
X301440Y-199700D01*
X303060Y-198740D01*
X304740Y-197960D01*
X306500Y-197380D01*
X308200Y-197100D01*
X310360Y-196960D01*
X312540Y-196960D01*
X314320Y-197140D01*
X316960Y-197840D01*
X319400Y-198939D01*
X321680Y-200420D01*
X323720Y-202300D01*
X324920Y-203560D01*
X325300Y-204200D01*
X324840Y-204400D01*
X321599Y-204420D01*
X321380Y-203740D01*
X319900Y-201420D01*
X317560Y-200159D01*
X314860Y-200100D01*
X312360Y-201360D01*
X311000Y-203200D01*
X310500Y-205360D01*
X310531Y-205539D01*
X312860Y-205539D01*
X312920Y-204620D01*
X313160Y-203880D01*
X313600Y-203260D01*
X314280Y-202700D01*
X314980Y-202380D01*
X315820Y-202240D01*
X316700Y-202280D01*
X317480Y-202520D01*
X318580Y-203299D01*
X319240Y-204380D01*
X319440Y-205640D01*
X319140Y-206920D01*
X317980Y-208299D01*
X316360Y-208840D01*
X314660Y-208540D01*
X313260Y-207360D01*
X312940Y-206640D01*
X312860Y-205539D01*
X310531Y-205539D01*
X310880Y-207560D01*
X312160Y-209500D01*
X313080Y-210260D01*
X314060Y-210780D01*
X315140Y-211040D01*
X316380Y-211060D01*
X317980Y-210780D01*
X319320Y-210120D01*
X320400Y-209120D01*
X321220Y-207740D01*
X321599Y-206840D01*
X326980Y-206820D01*
X327860Y-209259D01*
X328220Y-210799D01*
X328400Y-212480D01*
X328420Y-215940D01*
X328220Y-217880D01*
X328000Y-218840D01*
X327380Y-220680D01*
X326560Y-222480D01*
X325520Y-224160D01*
X324320Y-225720D01*
X322980Y-227140D01*
X321480Y-228400D01*
X319900Y-229440D01*
X317700Y-230500D01*
X316020Y-231040D01*
X316020Y-226080D01*
X316800Y-225780D01*
X317620Y-225340D01*
X318460Y-224660D01*
X319220Y-223860D01*
X320020Y-222520D01*
X320160Y-222040D01*
X320240Y-220539D01*
X320160Y-219259D01*
X319920Y-218260D01*
X319420Y-217399D01*
X318660Y-216520D01*
X317780Y-215780D01*
X316920Y-215300D01*
X315960Y-215040D01*
X313920Y-214980D01*
X312860Y-215159D01*
X312380Y-215360D01*
X311540Y-215900D01*
X310740Y-216600D01*
X310060Y-217420D01*
X309540Y-218280D01*
X309200Y-219320D01*
X309113Y-220159D01*
X311360Y-220159D01*
X311980Y-218580D01*
X313400Y-217380D01*
X314380Y-217120D01*
X315440Y-217220D01*
X316440Y-217620D01*
X317260Y-218280D01*
X317960Y-219660D01*
X318020Y-221140D01*
X317460Y-222500D01*
X316340Y-223460D01*
X315460Y-223740D01*
X314460Y-223800D01*
X313500Y-223619D01*
X312700Y-223220D01*
X311600Y-221820D01*
X311360Y-220159D01*
X309113Y-220159D01*
X309160Y-221620D01*
X309460Y-222640D01*
X310020Y-223560D01*
X310780Y-224440D01*
X311660Y-225200D01*
X312520Y-225700D01*
X313460Y-226080D01*
X313460Y-231660D01*
X312480Y-231780D01*
X310680Y-231840D01*
X308660Y-231640D01*
X306560Y-231180D01*
X304420Y-230500D01*
X302640Y-229660D01*
X300940Y-228619D01*
X299360Y-227360D01*
X297940Y-225920D01*
X296680Y-224340D01*
X295620Y-222620D01*
X294760Y-220820D01*
X294120Y-218920D01*
X293740Y-217020D01*
X293660Y-214460D01*
X291408Y-214460D01*
X291460Y-216520D01*
X291720Y-218480D01*
X292620Y-221500D01*
X293960Y-224300D01*
X295760Y-226860D01*
X297980Y-229160D01*
X300020Y-230720D01*
X302260Y-232000D01*
X304620Y-232979D01*
X307080Y-233640D01*
X309620Y-233980D01*
X312180Y-234000D01*
X314740Y-233700D01*
X317260Y-233039D01*
X319400Y-232220D01*
X321280Y-231220D01*
X323060Y-229980D01*
X324840Y-228440D01*
X326640Y-226460D01*
X328120Y-224300D01*
X329280Y-221960D01*
X330120Y-219480D01*
X330620Y-216900D01*
X330760Y-214200D01*
X330560Y-211439D01*
X330020Y-208619D01*
X328860Y-205700D01*
X327020Y-202760D01*
X324700Y-200100D01*
X322160Y-198020D01*
X320280Y-196880D01*
X318580Y-196040D01*
X316860Y-195440D01*
X315000Y-195000D01*
X312500Y-194700D01*
G37*
D10*
X285000Y-212053D02*
G01*
X285000Y-219571D01*
X285000Y-212053D02*
G01*
X281779Y-212053D01*
X280704Y-212411D01*
X280347Y-212770D01*
X279989Y-213485D01*
X279989Y-214202D01*
X280347Y-214917D01*
X280704Y-215275D01*
X281779Y-215634D01*
X285000Y-215634D01*
X282494Y-215634D02*
G01*
X279989Y-219571D01*
X277627Y-212053D02*
G01*
X277627Y-219571D01*
X277627Y-212053D02*
G01*
X272973Y-212053D01*
X277627Y-215634D02*
G01*
X274764Y-215634D01*
X277627Y-219571D02*
G01*
X272973Y-219571D01*
X270612Y-212053D02*
G01*
X267748Y-219571D01*
X264884Y-212053D02*
G01*
X267748Y-219571D01*
X254148Y-212053D02*
G01*
X257011Y-219571D01*
X254148Y-212053D02*
G01*
X251284Y-219571D01*
X255938Y-217064D02*
G01*
X252359Y-217064D01*
D11*
X195399Y-205000D02*
G01*
X152500Y-205000D01*
X195399Y-205000D02*
G01*
X195399Y-186599D01*
X193400Y-180500D01*
X191300Y-178400D01*
X187199Y-176399D01*
X183099Y-176399D01*
X179000Y-178400D01*
X176999Y-180500D01*
X175000Y-186599D01*
X175000Y-205000D01*
X175000Y-190700D02*
G01*
X152500Y-176399D01*
X187199Y-162899D02*
G01*
X189299Y-158800D01*
X195399Y-152600D01*
X152500Y-152600D01*
D12*
X230000Y-149726D02*
G01*
X230000Y-178364D01*
X230000Y-149726D02*
G01*
X217726Y-149726D01*
X213636Y-151091D01*
X212273Y-152454D01*
X210909Y-155181D01*
X210909Y-157908D01*
X212273Y-160635D01*
X213636Y-161999D01*
X217726Y-163364D01*
X230000Y-163364D01*
X220455Y-163364D02*
G01*
X210909Y-178364D01*
X200545Y-156545D02*
G01*
X200545Y-155181D01*
X199182Y-152454D01*
X197818Y-151091D01*
X195091Y-149726D01*
X189636Y-149726D01*
X186909Y-151091D01*
X185545Y-152454D01*
X184182Y-155181D01*
X184182Y-157908D01*
X185545Y-160635D01*
X188272Y-164726D01*
X201909Y-178364D01*
X182818Y-178364D01*
X294726Y-135000D02*
G01*
X323364Y-135000D01*
X294726Y-135000D02*
G01*
X294726Y-147273D01*
X296091Y-151363D01*
X297454Y-152726D01*
X300181Y-154090D01*
X302908Y-154090D01*
X305635Y-152726D01*
X306999Y-151363D01*
X308364Y-147273D01*
X308364Y-135000D01*
X308364Y-144544D02*
G01*
X323364Y-154090D01*
X294726Y-165817D02*
G01*
X294726Y-180817D01*
X305635Y-172636D01*
X305635Y-176727D01*
X306999Y-179454D01*
X308364Y-180817D01*
X312454Y-182181D01*
X315181Y-182181D01*
X319272Y-180817D01*
X321999Y-178090D01*
X323364Y-174000D01*
X323364Y-169908D01*
X321999Y-165817D01*
X320635Y-164454D01*
X317908Y-163090D01*
X219544Y-101545D02*
G01*
X220909Y-98818D01*
X223636Y-96091D01*
X226363Y-94726D01*
X231817Y-94726D01*
X234544Y-96091D01*
X237273Y-98818D01*
X238636Y-101545D01*
X240000Y-105635D01*
X240000Y-112454D01*
X238636Y-116545D01*
X237273Y-119272D01*
X234544Y-121999D01*
X231817Y-123364D01*
X226363Y-123364D01*
X223636Y-121999D01*
X220909Y-119272D01*
X219544Y-116545D01*
X209182Y-101545D02*
G01*
X209182Y-100181D01*
X207818Y-97454D01*
X206455Y-96091D01*
X203726Y-94726D01*
X198272Y-94726D01*
X195545Y-96091D01*
X194182Y-97454D01*
X192818Y-100181D01*
X192818Y-102908D01*
X194182Y-105635D01*
X196909Y-109726D01*
X210545Y-123364D01*
X191455Y-123364D01*
X63454Y-174544D02*
G01*
X66181Y-175909D01*
X68908Y-178636D01*
X70273Y-181363D01*
X70273Y-186817D01*
X68908Y-189544D01*
X66181Y-192273D01*
X63454Y-193636D01*
X59364Y-195000D01*
X52545Y-195000D01*
X48454Y-193636D01*
X45727Y-192273D01*
X43000Y-189544D01*
X41635Y-186817D01*
X41635Y-181363D01*
X43000Y-178636D01*
X45727Y-175909D01*
X48454Y-174544D01*
X64818Y-165545D02*
G01*
X66181Y-162818D01*
X70273Y-158726D01*
X41635Y-158726D01*
D11*
X104621Y-198456D02*
G01*
X104621Y-180522D01*
X135378Y-180522D01*
X135378Y-198456D01*
X104621Y-211543D02*
G01*
X104621Y-229477D01*
X135378Y-229477D01*
X135378Y-211543D01*
X211543Y-189621D02*
G01*
X229477Y-189621D01*
X229477Y-220378D01*
X211543Y-220378D01*
X198456Y-189621D02*
G01*
X180522Y-189621D01*
X180522Y-220378D01*
X198456Y-220378D01*
X280378Y-166543D02*
G01*
X280378Y-184477D01*
X249621Y-184477D01*
X249621Y-166543D01*
X280378Y-153456D02*
G01*
X280378Y-135522D01*
X249621Y-135522D01*
X249621Y-153456D01*
X296048Y-125378D02*
G01*
X281543Y-125378D01*
X281543Y-94621D02*
G01*
X296048Y-94621D01*
X302049Y-100621D02*
G01*
X302049Y-119378D01*
X253951Y-125378D02*
G01*
X268456Y-125378D01*
X268456Y-94621D02*
G01*
X253951Y-94621D01*
X247950Y-100621D02*
G01*
X247950Y-119378D01*
X86048Y-235378D02*
G01*
X71543Y-235378D01*
X71543Y-204621D02*
G01*
X86048Y-204621D01*
X92049Y-210621D02*
G01*
X92049Y-229378D01*
X43951Y-235378D02*
G01*
X58456Y-235378D01*
X58456Y-204621D02*
G01*
X43951Y-204621D01*
X37950Y-210621D02*
G01*
X37950Y-229378D01*
G75*
G01*
X296049Y-94622D02*
G02*
X302049Y-100622I0J-6000D01*
G75*
G01*
X302049Y-119378D02*
G02*
X296049Y-125378I-6000J0D01*
G75*
G01*
X253951Y-94622D02*
G03*
X247951Y-100622I0J-6000D01*
G75*
G01*
X247951Y-119378D02*
G03*
X253951Y-125378I6000J0D01*
G75*
G01*
X86049Y-204622D02*
G02*
X92049Y-210622I0J-6000D01*
G75*
G01*
X92049Y-229378D02*
G02*
X86049Y-235378I-6000J0D01*
G75*
G01*
X43951Y-204622D02*
G03*
X37951Y-210622I0J-6000D01*
G75*
G01*
X37951Y-229378D02*
G03*
X43951Y-235378I6000J0D01*
M02*
