G04 Layer: BottomPasteMaskLayer*
G04 EasyEDA v6.5.22, 2023-01-25 14:40:03*
G04 67e638892e2345238d747ee42e984064,9a4ed40c0dd746429eaf55b84663d2fb,10*
G04 Gerber Generator version 0.2*
G04 Scale: 100 percent, Rotated: No, Reflected: No *
G04 Dimensions in inches *
G04 leading zeros omitted , absolute positions ,3 integer and 6 decimal *
%FSLAX36Y36*%
%MOIN*%

%AMMACRO1*21,1,$1,$2,0,0,$3*%
%ADD10MACRO1,0.0118X0.0512X0.0000*%

%LPD*%
G36*
X114560Y-189520D02*
G01*
X113620Y-190460D01*
X113620Y-200859D01*
X114560Y-201820D01*
X125440Y-201820D01*
X126380Y-200859D01*
X126380Y-190460D01*
X125440Y-189520D01*
G37*
G36*
X114560Y-208180D02*
G01*
X113620Y-209140D01*
X113620Y-219540D01*
X114560Y-220479D01*
X125440Y-220479D01*
X126380Y-219540D01*
X126380Y-209140D01*
X125440Y-208180D01*
G37*
G36*
X209140Y-198619D02*
G01*
X208180Y-199560D01*
X208180Y-210440D01*
X209140Y-211380D01*
X219540Y-211380D01*
X220479Y-210440D01*
X220479Y-199560D01*
X219540Y-198619D01*
G37*
G36*
X190460Y-198619D02*
G01*
X189520Y-199560D01*
X189520Y-210440D01*
X190460Y-211380D01*
X200859Y-211380D01*
X201820Y-210440D01*
X201820Y-199560D01*
X200859Y-198619D01*
G37*
G36*
X259560Y-163180D02*
G01*
X258619Y-164140D01*
X258619Y-174540D01*
X259560Y-175479D01*
X270440Y-175479D01*
X271380Y-174540D01*
X271380Y-164140D01*
X270440Y-163180D01*
G37*
G36*
X259560Y-144520D02*
G01*
X258619Y-145460D01*
X258619Y-155860D01*
X259560Y-156820D01*
X270440Y-156820D01*
X271380Y-155860D01*
X271380Y-145460D01*
X270440Y-144520D01*
G37*
G36*
X279140Y-103620D02*
G01*
X278180Y-104560D01*
X278180Y-115440D01*
X279140Y-116380D01*
X292100Y-116380D01*
X293040Y-115440D01*
X293040Y-104560D01*
X292100Y-103620D01*
G37*
G36*
X257900Y-103620D02*
G01*
X256960Y-104560D01*
X256960Y-115440D01*
X257900Y-116380D01*
X270860Y-116380D01*
X271820Y-115440D01*
X271820Y-104560D01*
X270860Y-103620D01*
G37*
G36*
X69140Y-213619D02*
G01*
X68180Y-214560D01*
X68180Y-225440D01*
X69140Y-226380D01*
X82100Y-226380D01*
X83040Y-225440D01*
X83040Y-214560D01*
X82100Y-213619D01*
G37*
G36*
X47900Y-213619D02*
G01*
X46960Y-214560D01*
X46960Y-225440D01*
X47900Y-226380D01*
X60860Y-226380D01*
X61820Y-225440D01*
X61820Y-214560D01*
X60860Y-213619D01*
G37*
D10*
G01*
X65000Y-115000D03*
G01*
X105000Y-115000D03*
G01*
X125000Y-115000D03*
G01*
X145000Y-115000D03*
G01*
X85000Y-115000D03*
M02*
