G04 Layer: TopLayer*
G04 EasyEDA v6.5.22, 2023-01-25 14:40:03*
G04 67e638892e2345238d747ee42e984064,9a4ed40c0dd746429eaf55b84663d2fb,10*
G04 Gerber Generator version 0.2*
G04 Scale: 100 percent, Rotated: No, Reflected: No *
G04 Dimensions in inches *
G04 leading zeros omitted , absolute positions ,3 integer and 6 decimal *
%FSLAX36Y36*%
%MOIN*%

%ADD10C,0.0120*%
%ADD11C,0.0118*%
%ADD12C,0.0081*%
%ADD13C,0.0180*%
%ADD14C,0.0080*%
%ADD15R,0.0912X0.0472*%
%ADD16R,0.0197X0.0197*%
%ADD17C,0.0157*%
%ADD18C,0.0159*%
%ADD19C,0.0103*%

%LPD*%
G36*
X39800Y-233980D02*
G01*
X38260Y-233660D01*
X36960Y-232800D01*
X36100Y-231500D01*
X35800Y-229980D01*
X35800Y-74520D01*
X36100Y-72980D01*
X36960Y-71680D01*
X38260Y-70820D01*
X39800Y-70520D01*
X158020Y-70520D01*
X159560Y-70820D01*
X160859Y-71680D01*
X161720Y-72980D01*
X162020Y-74520D01*
X162020Y-76720D01*
X162680Y-80079D01*
X163900Y-83140D01*
X164180Y-84660D01*
X163860Y-86180D01*
X163000Y-87460D01*
X161700Y-88320D01*
X160180Y-88620D01*
X145860Y-88620D01*
X143360Y-88900D01*
X142020Y-89360D01*
X140700Y-89600D01*
X139380Y-89360D01*
X138060Y-88900D01*
X135560Y-88620D01*
X133360Y-88620D01*
X133360Y-101740D01*
X134460Y-102640D01*
X135180Y-103840D01*
X135420Y-105239D01*
X135420Y-112080D01*
X135180Y-113480D01*
X134460Y-114700D01*
X133360Y-115580D01*
X133360Y-132700D01*
X133060Y-134240D01*
X131960Y-135680D01*
X159700Y-135680D01*
X159700Y-132700D01*
X160000Y-131180D01*
X160880Y-129880D01*
X162180Y-129000D01*
X163700Y-128699D01*
X165080Y-128699D01*
X167580Y-128420D01*
X168920Y-127960D01*
X170240Y-127739D01*
X171560Y-127960D01*
X172900Y-128420D01*
X175380Y-128699D01*
X194620Y-128699D01*
X197100Y-128420D01*
X198440Y-127960D01*
X199760Y-127739D01*
X201080Y-127960D01*
X202420Y-128420D01*
X204920Y-128699D01*
X206300Y-128699D01*
X207820Y-129000D01*
X209120Y-129880D01*
X210000Y-131180D01*
X210300Y-132700D01*
X210300Y-135680D01*
X240799Y-135680D01*
X240799Y-132700D01*
X241100Y-131180D01*
X241960Y-129880D01*
X243260Y-129000D01*
X244800Y-128699D01*
X253680Y-128699D01*
X256160Y-128420D01*
X257500Y-127960D01*
X258820Y-127739D01*
X260140Y-127960D01*
X261480Y-128420D01*
X263960Y-128699D01*
X266380Y-128699D01*
X266160Y-127700D01*
X266160Y-115580D01*
X265060Y-114700D01*
X264340Y-113480D01*
X264100Y-112080D01*
X264100Y-105239D01*
X264340Y-103840D01*
X265060Y-102640D01*
X266160Y-101740D01*
X266160Y-88620D01*
X263960Y-88620D01*
X262740Y-88760D01*
X261080Y-88600D01*
X259640Y-87760D01*
X258640Y-86420D01*
X258299Y-84780D01*
X258299Y-79220D01*
X258080Y-76080D01*
X258120Y-74380D01*
X258480Y-72900D01*
X259340Y-71640D01*
X260620Y-70800D01*
X262120Y-70520D01*
X326360Y-70520D01*
X327879Y-70820D01*
X329180Y-71680D01*
X330040Y-72980D01*
X330360Y-74520D01*
X330360Y-87739D01*
X330100Y-89160D01*
X329360Y-90380D01*
X328240Y-91280D01*
X326860Y-91720D01*
X325439Y-91640D01*
X322660Y-90980D01*
X319120Y-90820D01*
X315600Y-91320D01*
X312240Y-92440D01*
X309160Y-94160D01*
X306280Y-96540D01*
X300460Y-102380D01*
X299160Y-103240D01*
X297620Y-103539D01*
X296100Y-103240D01*
X294800Y-102380D01*
X293940Y-101080D01*
X293340Y-96560D01*
X292600Y-94400D01*
X291380Y-92480D01*
X289760Y-90860D01*
X287840Y-89660D01*
X285680Y-88900D01*
X283200Y-88620D01*
X281000Y-88620D01*
X281000Y-101240D01*
X291920Y-101240D01*
X293460Y-101540D01*
X294760Y-102420D01*
X295620Y-103699D01*
X295920Y-105239D01*
X295620Y-106780D01*
X294760Y-108059D01*
X287920Y-114920D01*
X286620Y-115780D01*
X285080Y-116080D01*
X281000Y-116080D01*
X281000Y-120160D01*
X280700Y-121679D01*
X279840Y-122980D01*
X275200Y-127660D01*
X273360Y-130100D01*
X272100Y-131180D01*
X271220Y-131460D01*
X271400Y-133080D01*
X270900Y-134660D01*
X270360Y-135640D01*
X269560Y-137900D01*
X269280Y-140380D01*
X269280Y-159620D01*
X269560Y-162100D01*
X270320Y-164259D01*
X270900Y-165159D01*
X271460Y-166759D01*
X271340Y-168440D01*
X270520Y-169920D01*
X269160Y-170940D01*
X267500Y-171300D01*
X263960Y-171300D01*
X261480Y-171580D01*
X260140Y-172040D01*
X258820Y-172260D01*
X257500Y-172040D01*
X256160Y-171580D01*
X253680Y-171300D01*
X251480Y-171300D01*
X251480Y-184420D01*
X252580Y-185300D01*
X253299Y-186520D01*
X253540Y-187920D01*
X253540Y-194760D01*
X253299Y-196160D01*
X252580Y-197360D01*
X251480Y-198260D01*
X251480Y-211380D01*
X253680Y-211380D01*
X256160Y-211100D01*
X257500Y-210640D01*
X258820Y-210400D01*
X260140Y-210640D01*
X261480Y-211100D01*
X263960Y-211380D01*
X283200Y-211380D01*
X285680Y-211100D01*
X287840Y-210340D01*
X289760Y-209140D01*
X291380Y-207520D01*
X292600Y-205600D01*
X293080Y-204620D01*
X293820Y-203840D01*
X295260Y-202659D01*
X300160Y-197760D01*
X301540Y-196840D01*
X303100Y-196260D01*
X305940Y-194480D01*
X308420Y-192240D01*
X310440Y-189560D01*
X311920Y-186560D01*
X312840Y-183340D01*
X313160Y-180000D01*
X312840Y-176660D01*
X311920Y-173440D01*
X310440Y-170440D01*
X308820Y-168299D01*
X308200Y-167140D01*
X308000Y-165859D01*
X308240Y-164560D01*
X309100Y-162100D01*
X309380Y-159620D01*
X309380Y-149460D01*
X309680Y-147920D01*
X310540Y-146640D01*
X323519Y-133660D01*
X324820Y-132780D01*
X326360Y-132480D01*
X327879Y-132780D01*
X329180Y-133660D01*
X330040Y-134940D01*
X330360Y-136480D01*
X330360Y-229980D01*
X330040Y-231500D01*
X329180Y-232800D01*
X327879Y-233660D01*
X326360Y-233980D01*
X198460Y-233980D01*
X196920Y-233660D01*
X195640Y-232800D01*
X194760Y-231500D01*
X194460Y-229980D01*
X194760Y-228440D01*
X195640Y-227140D01*
X196240Y-226520D01*
X198380Y-223939D01*
X199860Y-221160D01*
X200780Y-218140D01*
X201080Y-214980D01*
X201500Y-213580D01*
X202380Y-212420D01*
X203619Y-211640D01*
X205060Y-211380D01*
X224140Y-211380D01*
X226640Y-211100D01*
X227979Y-210640D01*
X229300Y-210400D01*
X230620Y-210640D01*
X231940Y-211100D01*
X234440Y-211380D01*
X236640Y-211380D01*
X236640Y-198260D01*
X235539Y-197360D01*
X234820Y-196160D01*
X234579Y-194760D01*
X234579Y-187920D01*
X234820Y-186520D01*
X235539Y-185300D01*
X236640Y-184420D01*
X236640Y-167300D01*
X236940Y-165760D01*
X238039Y-164320D01*
X210300Y-164320D01*
X210300Y-167300D01*
X210000Y-168820D01*
X209120Y-170120D01*
X207820Y-171000D01*
X206300Y-171300D01*
X204920Y-171300D01*
X202420Y-171580D01*
X201080Y-172040D01*
X199760Y-172260D01*
X198440Y-172040D01*
X197100Y-171580D01*
X194620Y-171300D01*
X175380Y-171300D01*
X172900Y-171580D01*
X171560Y-172040D01*
X170240Y-172260D01*
X168920Y-172040D01*
X167580Y-171580D01*
X165080Y-171300D01*
X163700Y-171300D01*
X162180Y-171000D01*
X160880Y-170120D01*
X160000Y-168820D01*
X159700Y-167300D01*
X159700Y-164320D01*
X132020Y-164320D01*
X133020Y-165660D01*
X133360Y-167300D01*
X133360Y-184420D01*
X134460Y-185300D01*
X135180Y-186520D01*
X135420Y-187920D01*
X135420Y-194760D01*
X135180Y-196160D01*
X134460Y-197360D01*
X133360Y-198260D01*
X133360Y-209899D01*
X133060Y-211420D01*
X132200Y-212719D01*
X130900Y-213600D01*
X129360Y-213900D01*
X122520Y-213900D01*
X121000Y-213600D01*
X119700Y-212719D01*
X118820Y-211420D01*
X118520Y-209899D01*
X118520Y-198760D01*
X103840Y-198760D01*
X103840Y-209899D01*
X103539Y-211420D01*
X102660Y-212719D01*
X101359Y-213600D01*
X99840Y-213900D01*
X93000Y-213900D01*
X91460Y-213600D01*
X90160Y-212719D01*
X89300Y-211420D01*
X89000Y-209899D01*
X89000Y-197800D01*
X88059Y-196620D01*
X87620Y-195159D01*
X88160Y-190000D01*
X88000Y-188280D01*
X88180Y-186660D01*
X89000Y-185260D01*
X89000Y-173760D01*
X89260Y-172320D01*
X90020Y-171080D01*
X91180Y-170180D01*
X92800Y-169760D01*
X94920Y-169000D01*
X98300Y-166780D01*
X98539Y-166720D01*
X99100Y-165159D01*
X99680Y-164259D01*
X100440Y-162100D01*
X100719Y-159620D01*
X100719Y-140380D01*
X100440Y-137900D01*
X99680Y-135740D01*
X99100Y-134840D01*
X98539Y-133280D01*
X94920Y-131000D01*
X91160Y-129800D01*
X90020Y-128900D01*
X89260Y-127660D01*
X89000Y-126240D01*
X89000Y-116080D01*
X76380Y-116080D01*
X76380Y-118280D01*
X76660Y-120760D01*
X77400Y-122920D01*
X77980Y-123820D01*
X78560Y-125420D01*
X78420Y-127100D01*
X77600Y-128580D01*
X76240Y-129600D01*
X74600Y-129960D01*
X71060Y-129960D01*
X68560Y-130239D01*
X66420Y-131000D01*
X64480Y-132200D01*
X62880Y-133820D01*
X61660Y-135740D01*
X60900Y-137900D01*
X60620Y-140380D01*
X60620Y-145480D01*
X60320Y-147000D01*
X59460Y-148300D01*
X58680Y-149080D01*
X56540Y-151680D01*
X55039Y-154480D01*
X54120Y-157520D01*
X53800Y-160859D01*
X53800Y-181040D01*
X53380Y-182820D01*
X53080Y-183440D01*
X52160Y-186660D01*
X51840Y-190000D01*
X52160Y-193340D01*
X53080Y-196560D01*
X53780Y-198240D01*
X53900Y-199160D01*
X53900Y-229980D01*
X53600Y-231500D01*
X52720Y-232800D01*
X51420Y-233660D01*
X49900Y-233980D01*
G37*

%LPC*%
G36*
X103840Y-183920D02*
G01*
X118520Y-183920D01*
X118520Y-171300D01*
X116320Y-171300D01*
X113840Y-171580D01*
X112500Y-172040D01*
X111180Y-172260D01*
X109860Y-172040D01*
X108520Y-171580D01*
X106039Y-171300D01*
X103840Y-171300D01*
G37*
G36*
X103840Y-128699D02*
G01*
X106039Y-128699D01*
X108520Y-128420D01*
X109860Y-127960D01*
X111180Y-127739D01*
X112500Y-127960D01*
X113840Y-128420D01*
X116320Y-128699D01*
X118520Y-128699D01*
X118520Y-116080D01*
X103840Y-116080D01*
G37*
G36*
X76380Y-101240D02*
G01*
X89000Y-101240D01*
X89000Y-88620D01*
X86800Y-88620D01*
X84320Y-88900D01*
X82160Y-89660D01*
X80239Y-90860D01*
X78620Y-92480D01*
X77400Y-94400D01*
X76660Y-96560D01*
X76380Y-99040D01*
G37*
G36*
X103840Y-101240D02*
G01*
X118520Y-101240D01*
X118520Y-88620D01*
X116320Y-88620D01*
X113840Y-88900D01*
X112500Y-89360D01*
X111180Y-89600D01*
X109860Y-89360D01*
X108520Y-88900D01*
X106039Y-88620D01*
X103840Y-88620D01*
G37*

%LPD*%
D10*
X70000Y-190000D02*
G01*
X70000Y-160670D01*
X80670Y-150000D01*
D11*
X70000Y-190000D02*
G01*
X70000Y-230000D01*
X170000Y-230000D01*
X185000Y-215000D01*
X185000Y-191340D01*
D12*
X155470Y-191340D02*
G01*
X160000Y-195869D01*
X160000Y-210000D01*
X155000Y-210000D01*
D13*
X120949Y-103659D02*
G01*
X101419Y-103659D01*
X96419Y-108659D01*
D14*
X214529Y-108659D02*
G01*
X214529Y-79529D01*
X210000Y-75000D01*
D10*
X320000Y-80000D02*
G01*
X302240Y-80000D01*
X273580Y-108659D01*
X273580Y-191340D02*
G01*
X283659Y-191340D01*
X295000Y-180000D01*
D14*
X185000Y-108659D02*
G01*
X185000Y-80000D01*
X180000Y-75000D01*
D13*
X289329Y-150000D02*
G01*
X289329Y-140670D01*
X320000Y-110000D01*
D12*
X244059Y-108659D02*
G01*
X244059Y-79059D01*
X240000Y-75000D01*
D15*
G01*
X185000Y-150000D03*
D16*
G01*
X185000Y-108659D03*
G01*
X185000Y-191340D03*
G01*
X214529Y-108659D03*
G01*
X155470Y-108659D03*
G01*
X244059Y-108659D03*
G01*
X125949Y-108659D03*
G01*
X273580Y-108659D03*
G01*
X96419Y-108659D03*
G01*
X96419Y-191340D03*
G01*
X273580Y-191340D03*
G01*
X125949Y-191340D03*
G01*
X244059Y-191340D03*
G01*
X155470Y-191340D03*
G01*
X214529Y-191340D03*
G01*
X289329Y-150000D03*
G01*
X80670Y-150000D03*
D17*
G01*
X180000Y-75000D03*
D18*
G01*
X210000Y-75000D03*
G01*
X215000Y-145000D03*
G01*
X70000Y-190000D03*
G01*
X320000Y-110000D03*
G01*
X165000Y-145000D03*
G01*
X190000Y-145000D03*
G01*
X295000Y-180000D03*
G01*
X320000Y-80000D03*
G01*
X240000Y-75000D03*
G01*
X155000Y-210000D03*
M02*
