M48
METRIC,LZ,000.000
;FILE_FORMAT=3:3
;TYPE=PLATED
;Layer: PTH_Through_Via
;EasyEDA v6.5.42, 2024-05-16 10:06:30
;7028ff2cb4d24ddea7bcc12f254d0658,9a4ed40c0dd746429eaf55b84663d2fb,10
;Gerber Generator version 0.2
;Holesize 1 = 0.305 mm
T01C0.305
;Holesize 2 = 0.310 mm
T02C0.310
%
G05
G90
T01
X-005201Y013200
X019032Y002325
X-005265Y017642
X-007581Y012651
X-005237Y014295
X002780Y014401
X001878Y013919
X-002996Y015994
X-003050Y013441
X-008535Y015135
X-006987Y016905
X-006311Y019727
X-010018Y011521
X011148Y013998
X014865Y011701
X015883Y010889
X018069Y005118
X-009251Y007765
X-008842Y006617
X000457Y005288
X001133Y004701
X-009103Y004338
X-009075Y010117
X-007341Y-005679
X-006498Y-006243
X-002736Y-003873
X001947Y001452
X001299Y000711
X-002178Y-003168
X004089Y001050
X007314Y-000174
X008286Y003972
X002811Y-002607
X-000426Y004065
X011168Y-001811
X011280Y000561
X012327Y005538
X011655Y003942
X011652Y003138
X-005453Y007483
X-004782Y006612
X-002187Y005923
X-003076Y005893
X008523Y006798
X007791Y004554
X005743Y007315
X007083Y004071
X005147Y008058
X008232Y007545
X-003188Y008329
X023082Y005436
X023214Y009435
X021540Y007464
X010824Y007512
X010758Y008379
X010806Y009234
X010842Y010074
X011400Y011772
X010851Y010911
X001410Y010770
X001341Y009314
X003002Y010805
X002967Y009314
X011483Y015733
X014865Y015555
X007458Y015006
X007066Y010328
X003929Y005265
X007493Y013096
X014319Y014934
X012477Y013918
X011576Y018921
X012999Y009927
X008745Y011736
X023181Y008179
X022737Y003996
X016776Y002791
X012360Y000462
X-009891Y003023
X-010137Y-001354
X-007691Y008425
X-004953Y002616
X-002208Y-001290
X000006Y-008670
X-002139Y001671
X-001275Y001674
X008397Y009003
X013503Y009145
X010790Y-000706
X014526Y-002680
X010128Y001914
X023219Y007429
X023232Y006675
X013470Y013891
X011640Y002370
X013142Y-000325
X014028Y-000302
X014529Y-001816
X015431Y-001836
X016965Y-001781
X016944Y-000887
X015413Y-002804
X014255Y-005052
X011482Y-003941
X012907Y-005440
X012907Y-002440
X007857Y000522
X005946Y001236
X-001362Y-003138
X-003342Y000276
X006804Y-008352
X019308Y006145
X005745Y008970
X008310Y005295
X008340Y010494
X005802Y005514
X016592Y009912
X016449Y005085
X018075Y000219
X017115Y000144
X015879Y000162
X014922Y000165
X014106Y000486
X013224Y000480
X018069Y010428
X011691Y016683
X001248Y-001494
X-005265Y005073
T02
X-005355Y000776
X-005712Y-004203
X-005361Y-001065
X-005814Y-005025
M30
