G04 Layer: BottomLayer*
G04 EasyEDA v6.5.23, 2023-06-19 17:21:20*
G04 ee985b8f540a42c383d3d7bffb3f9d32,c17a8ced473b4d519dda31697e0e54b6,10*
G04 Gerber Generator version 0.2*
G04 Scale: 100 percent, Rotated: No, Reflected: No *
G04 Dimensions in millimeters *
G04 leading zeros omitted , absolute positions ,4 integer and 5 decimal *
%FSLAX45Y45*%
%MOMM*%

%ADD10C,0.3580*%
%ADD11C,0.6000*%
%ADD12C,0.6096*%

%LPD*%
G36*
X316128Y-3530092D02*
G01*
X312216Y-3529329D01*
X308914Y-3527094D01*
X306730Y-3523792D01*
X305968Y-3519881D01*
X307136Y-3134715D01*
X307136Y-3005074D01*
X306374Y-2998927D01*
X304749Y-2993948D01*
X301904Y-2988106D01*
X298399Y-2983738D01*
X74879Y-2760218D01*
X72694Y-2756966D01*
X71932Y-2753055D01*
X71932Y-682345D01*
X71120Y-675436D01*
X71120Y-175768D01*
X71882Y-171856D01*
X74117Y-168605D01*
X77368Y-166370D01*
X81280Y-165608D01*
X827532Y-165608D01*
X831443Y-166370D01*
X834694Y-168605D01*
X836930Y-171856D01*
X837692Y-175768D01*
X837692Y-2755442D01*
X836930Y-2759303D01*
X834694Y-2762605D01*
X611124Y-2986227D01*
X608634Y-2989122D01*
X605078Y-2995574D01*
X603554Y-3000959D01*
X603250Y-3005226D01*
X603250Y-3116072D01*
X602081Y-3519982D01*
X601319Y-3523843D01*
X599084Y-3527145D01*
X595782Y-3529329D01*
X591921Y-3530092D01*
G37*

%LPC*%
G36*
X375005Y-685342D02*
G01*
X384810Y-684479D01*
X394258Y-681939D01*
X403199Y-677773D01*
X407670Y-674624D01*
X410413Y-673303D01*
X413461Y-672795D01*
X436778Y-672744D01*
X445008Y-671626D01*
X452678Y-669036D01*
X459740Y-665124D01*
X466293Y-659638D01*
X662533Y-463448D01*
X665378Y-461416D01*
X678281Y-457962D01*
X687171Y-453796D01*
X695198Y-448157D01*
X702157Y-441198D01*
X707796Y-433171D01*
X711962Y-424281D01*
X714502Y-414782D01*
X715365Y-404977D01*
X714502Y-395224D01*
X711962Y-385724D01*
X707796Y-376834D01*
X702157Y-368757D01*
X695198Y-361848D01*
X687171Y-356209D01*
X678281Y-352044D01*
X668782Y-349504D01*
X658977Y-348640D01*
X649224Y-349504D01*
X639724Y-352044D01*
X630834Y-356209D01*
X622757Y-361848D01*
X615848Y-368757D01*
X610209Y-376834D01*
X606044Y-385724D01*
X602589Y-398627D01*
X600557Y-401472D01*
X436168Y-565912D01*
X432866Y-568096D01*
X428955Y-568858D01*
X425094Y-568096D01*
X421792Y-565912D01*
X419608Y-562610D01*
X418795Y-558698D01*
X418795Y-476351D01*
X417626Y-467969D01*
X415035Y-460349D01*
X411124Y-453288D01*
X405638Y-446684D01*
X335432Y-376478D01*
X333400Y-373583D01*
X329946Y-360730D01*
X325780Y-351840D01*
X320141Y-343763D01*
X313232Y-336854D01*
X305155Y-331216D01*
X296265Y-327050D01*
X286766Y-324510D01*
X277012Y-323646D01*
X267208Y-324510D01*
X257708Y-327050D01*
X248818Y-331216D01*
X240792Y-336854D01*
X233832Y-343763D01*
X228193Y-351840D01*
X224028Y-360730D01*
X221488Y-370230D01*
X220675Y-379984D01*
X221488Y-389788D01*
X224028Y-399288D01*
X228193Y-408178D01*
X233832Y-416204D01*
X240792Y-423164D01*
X248818Y-428802D01*
X257708Y-432968D01*
X270611Y-436422D01*
X273456Y-438404D01*
X328218Y-493166D01*
X330403Y-496468D01*
X331216Y-500380D01*
X331216Y-590499D01*
X330708Y-593547D01*
X329336Y-596290D01*
X326186Y-600811D01*
X322072Y-609701D01*
X319532Y-619201D01*
X318668Y-629005D01*
X319532Y-638759D01*
X322072Y-648258D01*
X326186Y-657148D01*
X331825Y-665226D01*
X338785Y-672185D01*
X346811Y-677773D01*
X355752Y-681939D01*
X365201Y-684479D01*
G37*

%LPD*%
D10*
X375005Y-629005D02*
G01*
X375005Y-478007D01*
X276999Y-380001D01*
X375003Y-629003D02*
G01*
X435002Y-629003D01*
X659003Y-405003D01*
D11*
G01*
X545007Y-381000D03*
G01*
X396011Y-381000D03*
D12*
G01*
X277012Y-380009D03*
G01*
X659003Y-405003D03*
G01*
X375005Y-629005D03*
D11*
G01*
X469900Y-381000D03*
G01*
X431012Y-3148990D03*
M02*
