G04 Layer: BottomLayer*
G04 EasyEDA v6.5.23, 2023-06-20 13:25:00*
G04 d9f535e9693744e2bd262e855d7d9790,c17a8ced473b4d519dda31697e0e54b6,10*
G04 Gerber Generator version 0.2*
G04 Scale: 100 percent, Rotated: No, Reflected: No *
G04 Dimensions in millimeters *
G04 leading zeros omitted , absolute positions ,4 integer and 5 decimal *
%FSLAX45Y45*%
%MOMM*%

%AMMACRO1*21,1,$1,$2,0,0,$3*%
%AMMACRO2*1,1,$1,$2,$3*1,1,$1,$4,$5*20,1,$1,$2,$3,$4,$5,0*%
%ADD10C,0.2540*%
%ADD11C,0.2000*%
%ADD12C,0.1600*%
%ADD13C,0.4000*%
%ADD14C,0.5156*%
%ADD15C,0.3980*%
%ADD16C,0.1600*%
%ADD17C,0.1520*%
%ADD18C,0.2032*%
%ADD19C,0.8890*%
%ADD20C,0.6020*%
%ADD21C,0.2110*%
%ADD22C,0.5090*%
%ADD23C,0.4070*%
%ADD24C,0.4490*%
%ADD25C,0.2960*%
%ADD26C,0.1524*%
%ADD27C,0.3130*%
%ADD28C,0.3810*%
%ADD29C,0.3050*%
%ADD30C,0.6110*%
%ADD31C,0.2134*%
%ADD32C,0.2030*%
%ADD33C,0.2108*%
%ADD34C,0.4140*%
%ADD35C,0.3048*%
%ADD36C,0.3556*%
%ADD37C,0.1778*%
%ADD38C,0.2116*%
%ADD39C,0.3640*%
%ADD40C,0.3150*%
%ADD41C,0.2616*%
%ADD42C,0.3124*%
%ADD43C,0.6350*%
%ADD44C,0.6172*%
%ADD45C,0.2286*%
%ADD46C,0.4064*%
%ADD47C,0.9610*%
%ADD48C,0.4510*%
%ADD49MACRO1,0.7X1.1X122.0010*%
%ADD50MACRO1,1.4X1.1X121.9998*%
%ADD51MACRO1,1.15X1.2X121.9995*%
%ADD52MACRO1,0.3X1.25X0.0000*%
%ADD53MACRO1,2X2.5X0.0000*%
%ADD54MACRO1,2.2X1.1X0.0000*%
%ADD55MACRO1,1.05X1X90.0000*%
%ADD56MACRO1,0.2997X1.0998X-135.0000*%
%ADD57MACRO1,0.3023X1.0998X-135.0000*%
%ADD58MACRO1,0.3023X1.0998X-134.9966*%
%ADD59MACRO1,0.3X1.3X-90.0000*%
%ADD60MACRO1,2X3X-90.0000*%
%ADD61MACRO1,0.5X0.6X-90.0000*%
%ADD62MACRO1,0.27X0.25X-48.0008*%
%ADD63MACRO1,0.27X0.25X-47.9972*%
%ADD64MACRO1,1.2X1.2X45.0000*%
%ADD65MACRO1,0.27X0.25X90.0000*%
%ADD66MACRO1,0.54X0.5656X-90.0000*%
%ADD67MACRO1,0.7X1.1X139.9988*%
%ADD68MACRO1,0.7X1.1X140.0001*%
%ADD69MACRO1,1.4X1.1X140.0002*%
%ADD70MACRO1,1.15X1.2X140.0005*%
%ADD71O,0.6999986X1.7729962*%
%ADD72MACRO1,0.8X0.8X0.0000*%
%ADD73R,0.5400X0.7901*%
%ADD74MACRO1,0.54X0.7901X0.0000*%
%ADD75MACRO1,0.324X0.3031X90.0000*%
%ADD76R,0.5400X0.5657*%
%ADD77MACRO1,0.54X0.5656X0.0000*%
%ADD78MACRO1,0.54X0.5656X90.0000*%
%ADD79R,0.3240X0.3031*%
%ADD80MACRO1,0.324X0.3031X0.0000*%
%ADD81R,0.3240X0.3684*%
%ADD82MACRO1,0.324X0.3685X0.0000*%
%ADD83MACRO1,0.324X0.3685X-90.0000*%
%ADD84MACRO1,0.324X0.3031X-45.0000*%
%ADD85MACRO1,0.324X0.3031X45.0032*%
%ADD86MACRO1,1.25X0.7X90.0000*%
%ADD87MACRO1,0.54X0.7901X-90.0000*%
%ADD88MACRO1,1X0.55X-90.0000*%
%ADD89MACRO1,1.25X0.7X0.0000*%
%ADD90MACRO1,0.54X0.7901X90.0000*%
%ADD91MACRO1,0.672X1.575X90.0000*%
%ADD92C,0.8000*%
%ADD93MACRO2,1.2X-0.3535X0.3535X0.3535X-0.3535*%
%ADD94C,0.6096*%
%ADD95C,0.0119*%

%LPD*%
G36*
X-1952243Y119176D02*
G01*
X-1956155Y119989D01*
X-1959457Y122174D01*
X-1961642Y125476D01*
X-1962404Y129336D01*
X-1962404Y171805D01*
X-1977491Y171805D01*
X-1981403Y172567D01*
X-1984705Y174752D01*
X-1986889Y178054D01*
X-1987651Y181965D01*
X-1987651Y262991D01*
X-1986889Y266852D01*
X-1984705Y270154D01*
X-1981403Y272338D01*
X-1977491Y273151D01*
X-1962404Y273151D01*
X-1962404Y332079D01*
X-1971852Y327050D01*
X-1979777Y320903D01*
X-1985975Y314198D01*
X-1989226Y311810D01*
X-1993138Y310896D01*
X-1997151Y311607D01*
X-2000504Y313791D01*
X-2002789Y317093D01*
X-2003602Y321056D01*
X-2003602Y331571D01*
X-2004314Y333248D01*
X-2006803Y335788D01*
X-2009038Y339090D01*
X-2009800Y342950D01*
X-2009800Y438759D01*
X-2009393Y441553D01*
X-2006803Y446430D01*
X-2004872Y451916D01*
X-2004161Y458216D01*
X-2004161Y493928D01*
X-2005075Y502513D01*
X-2005025Y505612D01*
X-2004161Y513080D01*
X-2004161Y548792D01*
X-2004872Y555091D01*
X-2006803Y560578D01*
X-2009393Y565454D01*
X-2009800Y568248D01*
X-2009800Y587654D01*
X-2009038Y591515D01*
X-2006803Y594817D01*
X-2003501Y597001D01*
X-1999640Y597814D01*
X-1970278Y597814D01*
X-1963928Y598525D01*
X-1958492Y600405D01*
X-1953463Y603097D01*
X-1950669Y603504D01*
X-1935988Y603504D01*
X-1932127Y602742D01*
X-1928825Y600506D01*
X-1757680Y429361D01*
X-1755444Y426059D01*
X-1754682Y422148D01*
X-1754682Y332536D01*
X-1755444Y328676D01*
X-1757680Y325374D01*
X-1760931Y323189D01*
X-1764842Y322376D01*
X-1785772Y322376D01*
X-1789074Y322935D01*
X-1792020Y324561D01*
X-1795272Y327050D01*
X-1804111Y331876D01*
X-1813610Y335127D01*
X-1823516Y336753D01*
X-1833575Y336753D01*
X-1843532Y335127D01*
X-1853031Y331876D01*
X-1861870Y327050D01*
X-1865122Y324561D01*
X-1868068Y322935D01*
X-1871319Y322376D01*
X-1880666Y322376D01*
X-1884273Y320294D01*
X-1888286Y318465D01*
X-1892706Y318465D01*
X-1896668Y320395D01*
X-1905254Y327050D01*
X-1914702Y332079D01*
X-1914702Y273151D01*
X-1899615Y273151D01*
X-1895754Y272338D01*
X-1892452Y270154D01*
X-1890268Y266852D01*
X-1889455Y262991D01*
X-1889455Y181965D01*
X-1890268Y178054D01*
X-1892452Y174752D01*
X-1895754Y172567D01*
X-1899615Y171805D01*
X-1914702Y171805D01*
X-1914702Y129336D01*
X-1915515Y125476D01*
X-1917700Y122174D01*
X-1921002Y119989D01*
X-1924862Y119176D01*
G37*

%LPD*%
G36*
X-2210054Y104698D02*
G01*
X-2214473Y105714D01*
X-2217978Y108508D01*
X-2268931Y171704D01*
X-2270556Y174498D01*
X-2271166Y177698D01*
X-2275636Y302920D01*
X-2268778Y557987D01*
X-2268372Y626262D01*
X-2267458Y630377D01*
X-2264562Y636778D01*
X-2238298Y689610D01*
X-2210308Y741578D01*
X-2180590Y792530D01*
X-2149144Y842467D01*
X-2116124Y891336D01*
X-2081428Y939088D01*
X-2045207Y985672D01*
X-2007412Y1030986D01*
X-1968144Y1075029D01*
X-1927402Y1117701D01*
X-1885289Y1159052D01*
X-1878736Y1165047D01*
X-1875586Y1167028D01*
X-1871878Y1167688D01*
X-1739392Y1167688D01*
X-1735785Y1167028D01*
X-1732635Y1165098D01*
X-1730349Y1162151D01*
X-1729333Y1158595D01*
X-1730044Y1153261D01*
X-1730908Y1143457D01*
X-1730044Y1133703D01*
X-1727504Y1124204D01*
X-1723339Y1115314D01*
X-1717700Y1107236D01*
X-1715566Y1105103D01*
X-1713331Y1101801D01*
X-1712569Y1097889D01*
X-1712569Y1056132D01*
X-1637995Y1056132D01*
X-1637995Y1076706D01*
X-1638757Y1083005D01*
X-1640992Y1089507D01*
X-1641551Y1093216D01*
X-1640738Y1096924D01*
X-1638604Y1100023D01*
X-1631391Y1107236D01*
X-1625092Y1116380D01*
X-1621840Y1119428D01*
X-1617624Y1120749D01*
X-1613255Y1120190D01*
X-1609547Y1117803D01*
X-1545031Y1053287D01*
X-1542796Y1049985D01*
X-1542034Y1046124D01*
X-1542034Y945591D01*
X-1542948Y941374D01*
X-1545590Y937869D01*
X-1549400Y935837D01*
X-1553718Y935532D01*
X-1557782Y937107D01*
X-1565351Y944981D01*
X-1570228Y948080D01*
X-1575663Y949960D01*
X-1582013Y950671D01*
X-1600098Y950671D01*
X-1600098Y904849D01*
X-1551736Y904849D01*
X-1548130Y904189D01*
X-1544980Y902309D01*
X-1542745Y899414D01*
X-1541627Y895959D01*
X-1541221Y892657D01*
X-1539138Y887120D01*
X-1535582Y881989D01*
X-1532585Y878941D01*
X-1528978Y876300D01*
X-1523441Y873810D01*
X-1515973Y872642D01*
X-1379982Y872642D01*
X-1376121Y871880D01*
X-1372870Y869696D01*
X-1370634Y866444D01*
X-1369822Y862584D01*
X-1366418Y494690D01*
X-1367383Y490321D01*
X-1371752Y480872D01*
X-1374292Y471373D01*
X-1375156Y461568D01*
X-1374292Y451815D01*
X-1371752Y442315D01*
X-1366266Y430682D01*
X-1365808Y427735D01*
X-1365046Y345795D01*
X-1365961Y341477D01*
X-1368602Y337972D01*
X-1372463Y335889D01*
X-1376883Y335635D01*
X-1383538Y336753D01*
X-1393596Y336753D01*
X-1403502Y335127D01*
X-1413002Y331876D01*
X-1421841Y327050D01*
X-1433423Y318160D01*
X-1437335Y317246D01*
X-1448917Y316890D01*
X-1453134Y317703D01*
X-1465275Y327050D01*
X-1474114Y331876D01*
X-1483614Y335127D01*
X-1493520Y336753D01*
X-1503578Y336753D01*
X-1513535Y335127D01*
X-1523034Y331876D01*
X-1531874Y327050D01*
X-1539798Y320903D01*
X-1542846Y317550D01*
X-1546250Y315112D01*
X-1550365Y314248D01*
X-1556816Y314248D01*
X-1560880Y315112D01*
X-1564284Y317550D01*
X-1567332Y320903D01*
X-1575257Y327050D01*
X-1584096Y331876D01*
X-1593646Y335127D01*
X-1603552Y336753D01*
X-1613611Y336753D01*
X-1623517Y335127D01*
X-1633016Y331876D01*
X-1641856Y327050D01*
X-1647952Y322326D01*
X-1651406Y319176D01*
X-1652879Y317550D01*
X-1656283Y315112D01*
X-1660347Y314248D01*
X-1665782Y314248D01*
X-1669694Y315061D01*
X-1675536Y318871D01*
X-1678939Y322122D01*
X-1681276Y325475D01*
X-1682089Y329438D01*
X-1682089Y441350D01*
X-1682800Y448970D01*
X-1684883Y455777D01*
X-1688287Y462076D01*
X-1693113Y468020D01*
X-1849170Y624078D01*
X-1851355Y627380D01*
X-1852117Y631240D01*
X-1851355Y635152D01*
X-1849170Y638403D01*
X-1845868Y640638D01*
X-1841957Y641400D01*
X-1835302Y641400D01*
X-1835302Y688441D01*
X-1910435Y688441D01*
X-1912569Y684834D01*
X-1915972Y682396D01*
X-1920036Y681532D01*
X-1950872Y681532D01*
X-1954784Y682345D01*
X-1958086Y684530D01*
X-1964791Y691286D01*
X-1966518Y691946D01*
X-1996338Y691946D01*
X-2000199Y692759D01*
X-2003501Y694944D01*
X-2005736Y698246D01*
X-2006498Y702106D01*
X-2006498Y726490D01*
X-2005736Y730402D01*
X-2003501Y733704D01*
X-1946249Y790956D01*
X-1942947Y793140D01*
X-1939086Y793902D01*
X-1919325Y793902D01*
X-1915160Y793038D01*
X-1911756Y790549D01*
X-1909622Y786841D01*
X-1909216Y782624D01*
X-1909876Y776732D01*
X-1909876Y756158D01*
X-1835302Y756158D01*
X-1835302Y771499D01*
X-1834540Y775411D01*
X-1832305Y778713D01*
X-1829003Y780897D01*
X-1825091Y781659D01*
X-1722729Y780846D01*
X-1718818Y780084D01*
X-1715566Y777849D01*
X-1713382Y774547D01*
X-1712620Y770686D01*
X-1712620Y756158D01*
X-1664716Y756158D01*
X-1661210Y755548D01*
X-1658162Y753770D01*
X-1655876Y751027D01*
X-1654657Y747674D01*
X-1654352Y745744D01*
X-1653387Y750163D01*
X-1651152Y753313D01*
X-1647901Y755396D01*
X-1644142Y756107D01*
X-1637995Y756107D01*
X-1637995Y773531D01*
X-1642313Y773531D01*
X-1646275Y774344D01*
X-1649628Y776681D01*
X-1651812Y780186D01*
X-1652422Y784199D01*
X-1643735Y961339D01*
X-1642872Y964996D01*
X-1640738Y968095D01*
X-1637995Y969873D01*
X-1637995Y988415D01*
X-1712569Y988415D01*
X-1712569Y972362D01*
X-1713331Y968451D01*
X-1715516Y965200D01*
X-1718818Y962964D01*
X-1722678Y962202D01*
X-1825091Y961847D01*
X-1829003Y962660D01*
X-1832305Y964844D01*
X-1834489Y968146D01*
X-1835302Y972007D01*
X-1835302Y988415D01*
X-1909825Y988415D01*
X-1909825Y967841D01*
X-1909318Y963269D01*
X-1909724Y959103D01*
X-1911756Y955446D01*
X-1915160Y952906D01*
X-1919224Y951992D01*
X-1966874Y951077D01*
X-1972208Y949960D01*
X-1977643Y948080D01*
X-1982520Y944981D01*
X-1986635Y940866D01*
X-1989734Y935990D01*
X-1991614Y930503D01*
X-1992325Y924204D01*
X-1992325Y852271D01*
X-1993138Y848360D01*
X-1995322Y845058D01*
X-2068423Y771956D01*
X-2073249Y766064D01*
X-2076653Y759764D01*
X-2078736Y752906D01*
X-2079447Y745337D01*
X-2079447Y708101D01*
X-2079650Y706120D01*
X-2087321Y666800D01*
X-2088337Y664006D01*
X-2091283Y660146D01*
X-2091486Y659231D01*
X-2091486Y622604D01*
X-2087930Y616966D01*
X-2087168Y613105D01*
X-2087168Y558241D01*
X-2088388Y548792D01*
X-2088388Y513080D01*
X-2087473Y504494D01*
X-2087524Y501396D01*
X-2088388Y493928D01*
X-2088388Y458216D01*
X-2087168Y448767D01*
X-2087168Y327710D01*
X-2087880Y324002D01*
X-2089861Y320852D01*
X-2096109Y314045D01*
X-2099462Y311607D01*
X-2103577Y310794D01*
X-2107641Y311607D01*
X-2111044Y314045D01*
X-2117344Y320903D01*
X-2125268Y327050D01*
X-2134717Y332079D01*
X-2134717Y273151D01*
X-2119630Y273151D01*
X-2115769Y272338D01*
X-2112467Y270154D01*
X-2110232Y266852D01*
X-2109470Y262991D01*
X-2109470Y181965D01*
X-2110232Y178054D01*
X-2112467Y174752D01*
X-2115769Y172567D01*
X-2119630Y171805D01*
X-2134717Y171805D01*
X-2134717Y114858D01*
X-2135479Y110998D01*
X-2137714Y107696D01*
X-2140966Y105511D01*
X-2144877Y104698D01*
X-2172258Y104698D01*
X-2176170Y105511D01*
X-2179421Y107696D01*
X-2181656Y110998D01*
X-2182418Y114858D01*
X-2182418Y171805D01*
X-2219452Y171805D01*
X-2219452Y169214D01*
X-2218588Y158800D01*
X-2216150Y149047D01*
X-2212086Y139852D01*
X-2206599Y131419D01*
X-2199792Y124002D01*
X-2198370Y122885D01*
X-2195677Y119735D01*
X-2194458Y115722D01*
X-2194966Y111607D01*
X-2197100Y108000D01*
X-2200503Y105562D01*
X-2204618Y104698D01*
G37*

%LPC*%
G36*
X-1909825Y1056132D02*
G01*
X-1835302Y1056132D01*
X-1835302Y1103172D01*
X-1883359Y1103172D01*
X-1889658Y1102461D01*
X-1895144Y1100531D01*
X-1900021Y1097483D01*
X-1904136Y1093368D01*
X-1907235Y1088491D01*
X-1909114Y1083005D01*
X-1909825Y1076706D01*
G37*
G36*
X-2219452Y273151D02*
G01*
X-2182418Y273151D01*
X-2182418Y332079D01*
X-2191867Y327050D01*
X-2199792Y320903D01*
X-2206599Y313486D01*
X-2212086Y305054D01*
X-2216150Y295859D01*
X-2218588Y286105D01*
X-2219452Y275691D01*
G37*
G36*
X-1521510Y448919D02*
G01*
X-1511706Y449783D01*
X-1502257Y452323D01*
X-1493316Y456488D01*
X-1485290Y462127D01*
X-1478330Y469036D01*
X-1472692Y477113D01*
X-1468577Y486003D01*
X-1466037Y495503D01*
X-1465173Y505256D01*
X-1466037Y515061D01*
X-1468577Y524560D01*
X-1472692Y533450D01*
X-1478330Y541528D01*
X-1485290Y548436D01*
X-1493316Y554075D01*
X-1502257Y558241D01*
X-1511706Y560781D01*
X-1521510Y561644D01*
X-1531315Y560781D01*
X-1540764Y558241D01*
X-1549704Y554075D01*
X-1557731Y548436D01*
X-1564690Y541528D01*
X-1570329Y533450D01*
X-1574444Y524560D01*
X-1576984Y515061D01*
X-1577848Y505256D01*
X-1576984Y495503D01*
X-1574444Y486003D01*
X-1570329Y477113D01*
X-1564690Y469036D01*
X-1557731Y462127D01*
X-1549704Y456488D01*
X-1540764Y452323D01*
X-1531315Y449783D01*
G37*
G36*
X-1712620Y641400D02*
G01*
X-1664563Y641400D01*
X-1657451Y642213D01*
X-1656080Y642061D01*
X-1647799Y647039D01*
X-1643735Y651154D01*
X-1640636Y656031D01*
X-1638706Y661517D01*
X-1637995Y667816D01*
X-1637995Y688390D01*
X-1646478Y688390D01*
X-1650492Y689254D01*
X-1651609Y690016D01*
X-1652422Y689406D01*
X-1656689Y688441D01*
X-1712620Y688441D01*
G37*
G36*
X-1600098Y793851D02*
G01*
X-1582013Y793851D01*
X-1575663Y794562D01*
X-1570228Y796493D01*
X-1565351Y799541D01*
X-1561236Y803656D01*
X-1558137Y808532D01*
X-1556258Y814019D01*
X-1555546Y820318D01*
X-1555546Y839673D01*
X-1600098Y839673D01*
G37*

%LPD*%
G36*
X-1779117Y-1116736D02*
G01*
X-1821992Y-1113739D01*
X-1925726Y-1116482D01*
X-1952243Y-1115009D01*
X-1955901Y-1114094D01*
X-1959000Y-1111910D01*
X-1961032Y-1108710D01*
X-1961794Y-1105001D01*
X-1963013Y-1007313D01*
X-1962200Y-1003147D01*
X-1959660Y-999693D01*
X-1956003Y-997559D01*
X-1951736Y-997102D01*
X-1946351Y-997712D01*
X-1933549Y-997712D01*
X-1933549Y-964641D01*
X-1940864Y-964641D01*
X-1944776Y-963879D01*
X-1948078Y-961694D01*
X-1950262Y-958392D01*
X-1951024Y-954481D01*
X-1951024Y-935126D01*
X-1950262Y-931214D01*
X-1948078Y-927912D01*
X-1944776Y-925728D01*
X-1940864Y-924966D01*
X-1933549Y-924966D01*
X-1933549Y-911555D01*
X-1932787Y-907643D01*
X-1930552Y-904341D01*
X-1927250Y-902157D01*
X-1923389Y-901395D01*
X-1891487Y-901395D01*
X-1887626Y-902157D01*
X-1884324Y-904341D01*
X-1882089Y-907643D01*
X-1881327Y-911555D01*
X-1881327Y-924966D01*
X-1842007Y-924966D01*
X-1842007Y-918362D01*
X-1842668Y-912672D01*
X-1842262Y-908456D01*
X-1840128Y-904748D01*
X-1836724Y-902258D01*
X-1832559Y-901395D01*
X-1793443Y-901395D01*
X-1790039Y-901953D01*
X-1786991Y-903681D01*
X-1781657Y-908050D01*
X-1779168Y-909370D01*
X-1776171Y-911860D01*
X-1774291Y-915314D01*
X-1773885Y-919226D01*
X-1774698Y-928827D01*
X-1773834Y-938580D01*
X-1771294Y-948080D01*
X-1770430Y-949909D01*
X-1769516Y-954125D01*
X-1768805Y-1040384D01*
X-1769414Y-1044041D01*
X-1771294Y-1047191D01*
X-1774189Y-1049477D01*
X-1774189Y-1084681D01*
X-1771142Y-1086866D01*
X-1769059Y-1090066D01*
X-1768348Y-1093774D01*
X-1768246Y-1106525D01*
X-1769059Y-1110589D01*
X-1771446Y-1113993D01*
X-1775002Y-1116177D01*
G37*

%LPC*%
G36*
X-1865731Y-1083716D02*
G01*
X-1826412Y-1083716D01*
X-1826412Y-1050645D01*
X-1839214Y-1050645D01*
X-1845564Y-1051356D01*
X-1850999Y-1053287D01*
X-1855927Y-1056335D01*
X-1859991Y-1060450D01*
X-1863089Y-1065326D01*
X-1865020Y-1070813D01*
X-1865731Y-1077112D01*
G37*
G36*
X-1881327Y-997712D02*
G01*
X-1868525Y-997712D01*
X-1862175Y-997000D01*
X-1856739Y-995070D01*
X-1851812Y-992022D01*
X-1847748Y-987907D01*
X-1844649Y-983030D01*
X-1842719Y-977544D01*
X-1842007Y-971245D01*
X-1842007Y-964641D01*
X-1881327Y-964641D01*
G37*

%LPD*%
G36*
X-1640179Y-1116787D02*
G01*
X-1675282Y-1116736D01*
X-1724914Y-1115771D01*
X-1728774Y-1114907D01*
X-1731975Y-1112723D01*
X-1734108Y-1109421D01*
X-1734870Y-1105611D01*
X-1734870Y-1093876D01*
X-1734108Y-1089964D01*
X-1731924Y-1086662D01*
X-1728622Y-1084478D01*
X-1724710Y-1083716D01*
X-1717395Y-1083716D01*
X-1717395Y-1050645D01*
X-1730197Y-1050645D01*
X-1735785Y-1050391D01*
X-1739442Y-1048308D01*
X-1741982Y-1044905D01*
X-1742897Y-1040790D01*
X-1744014Y-903173D01*
X-1744218Y-900074D01*
X-1743608Y-896010D01*
X-1741474Y-892505D01*
X-1738172Y-890168D01*
X-1734159Y-889304D01*
X-1602943Y-887984D01*
X-1599133Y-888695D01*
X-1595831Y-890778D01*
X-1593596Y-893927D01*
X-1592681Y-897686D01*
X-1590700Y-940866D01*
X-1591360Y-945032D01*
X-1630629Y-1046327D01*
X-1632712Y-1049629D01*
X-1635861Y-1051915D01*
X-1639620Y-1052830D01*
X-1643481Y-1052271D01*
X-1646021Y-1051356D01*
X-1652371Y-1050645D01*
X-1665173Y-1050645D01*
X-1665173Y-1083716D01*
X-1640890Y-1083716D01*
X-1637131Y-1084427D01*
X-1633931Y-1086459D01*
X-1631696Y-1089609D01*
X-1630781Y-1093317D01*
X-1630070Y-1106017D01*
X-1630680Y-1110081D01*
X-1632813Y-1113586D01*
X-1636166Y-1115923D01*
G37*

%LPD*%
G36*
X-1609242Y-1605737D02*
G01*
X-1613154Y-1604924D01*
X-1616456Y-1602740D01*
X-1653133Y-1566011D01*
X-1654860Y-1565351D01*
X-1661058Y-1565351D01*
X-1664970Y-1564538D01*
X-1668272Y-1562354D01*
X-1713585Y-1516989D01*
X-1715312Y-1516329D01*
X-1724050Y-1516329D01*
X-1727962Y-1515516D01*
X-1731264Y-1513332D01*
X-1795881Y-1448663D01*
X-1797608Y-1448003D01*
X-1805838Y-1448003D01*
X-1809750Y-1447190D01*
X-1813052Y-1445006D01*
X-1937816Y-1320190D01*
X-1939798Y-1317447D01*
X-1940712Y-1314145D01*
X-1940560Y-1310741D01*
X-1939239Y-1307642D01*
X-1916988Y-1272286D01*
X-1914956Y-1269898D01*
X-1912315Y-1268323D01*
X-1909318Y-1267561D01*
X-1838350Y-1261262D01*
X-1834540Y-1261618D01*
X-1831136Y-1263446D01*
X-1765655Y-1315618D01*
X-1709470Y-1363014D01*
X-1707896Y-1364691D01*
X-1678838Y-1403654D01*
X-1624228Y-1456029D01*
X-1622958Y-1457502D01*
X-1589887Y-1504289D01*
X-1588719Y-1505102D01*
X-1519021Y-1500733D01*
X-1514957Y-1501343D01*
X-1511452Y-1503476D01*
X-1509064Y-1506880D01*
X-1508252Y-1510893D01*
X-1508252Y-1523847D01*
X-1471168Y-1523847D01*
X-1471168Y-1510436D01*
X-1470355Y-1506372D01*
X-1467916Y-1502968D01*
X-1464360Y-1500835D01*
X-1460246Y-1500327D01*
X-1432864Y-1502460D01*
X-1429207Y-1503476D01*
X-1426210Y-1505712D01*
X-1424178Y-1508912D01*
X-1423517Y-1512620D01*
X-1423517Y-1523847D01*
X-1418894Y-1523847D01*
X-1414983Y-1524609D01*
X-1411732Y-1526794D01*
X-1409496Y-1530096D01*
X-1408734Y-1534007D01*
X-1408582Y-1539290D01*
X-1407769Y-1539443D01*
X-1286103Y-1541068D01*
X-1282547Y-1541780D01*
X-1279448Y-1543710D01*
X-1277213Y-1546606D01*
X-1276146Y-1550111D01*
X-1272997Y-1578203D01*
X-1273454Y-1582420D01*
X-1275537Y-1586128D01*
X-1278940Y-1588617D01*
X-1283106Y-1589481D01*
X-1294384Y-1589481D01*
X-1294384Y-1595577D01*
X-1295146Y-1599438D01*
X-1297381Y-1602740D01*
X-1300683Y-1604924D01*
X-1304544Y-1605737D01*
X-1323949Y-1605737D01*
X-1327810Y-1604924D01*
X-1331112Y-1602740D01*
X-1333347Y-1599438D01*
X-1334109Y-1595577D01*
X-1334109Y-1589481D01*
X-1366113Y-1589481D01*
X-1367078Y-1593189D01*
X-1369314Y-1596288D01*
X-1372514Y-1598320D01*
X-1376273Y-1599031D01*
X-1424127Y-1599031D01*
X-1426260Y-1602536D01*
X-1429613Y-1604873D01*
X-1433677Y-1605737D01*
X-1461008Y-1605737D01*
X-1465072Y-1604873D01*
X-1468424Y-1602536D01*
X-1470558Y-1599031D01*
X-1508861Y-1599031D01*
X-1511046Y-1602536D01*
X-1514398Y-1604873D01*
X-1518412Y-1605737D01*
G37*

%LPD*%
G36*
X-1342440Y-1523695D02*
G01*
X-1348790Y-1530045D01*
X-1348790Y-1602435D01*
X-1344980Y-1606245D01*
X-1193850Y-1606245D01*
X-1167180Y-1632915D01*
X-1167180Y-1702765D01*
X-1140510Y-1729435D01*
X-1140510Y-1738325D01*
X-1139240Y-1737055D01*
X-983030Y-1737055D01*
X-871270Y-1735785D01*
X-872540Y-1734515D01*
X-872540Y-1636725D01*
X-1045260Y-1636725D01*
X-1158290Y-1523695D01*
G37*
G36*
X157429Y-477977D02*
G01*
X112725Y-518871D01*
X126187Y-601167D01*
X198526Y-673252D01*
X246075Y-629361D01*
X291033Y-579577D01*
X326085Y-547065D01*
X283921Y-503631D01*
X272237Y-493979D01*
X253695Y-480771D01*
G37*
G36*
X-293116Y-1002334D02*
G01*
X-456692Y-1157274D01*
X-408940Y-1204264D01*
X-374142Y-1207820D01*
X-352806Y-1201978D01*
X-319532Y-1183182D01*
X-269494Y-1131112D01*
X-214020Y-1080973D01*
X-219710Y-1076756D01*
G37*
G36*
X198526Y-673252D02*
G01*
X196545Y-675081D01*
X201371Y-676097D01*
G37*
G36*
X43129Y-543255D02*
G01*
X27432Y-560832D01*
X3048Y-591058D01*
X148793Y-736295D01*
X178308Y-700887D01*
X184150Y-694537D01*
X186436Y-692505D01*
X188925Y-691083D01*
G37*
G36*
X-312216Y-850849D02*
G01*
X-339394Y-852119D01*
X-378256Y-886409D01*
X-316534Y-975055D01*
X-270560Y-994105D01*
X-200202Y-1065479D01*
X-165404Y-1038047D01*
X-159308Y-1026617D01*
X-159054Y-1026617D01*
X-231190Y-954735D01*
X-244144Y-936193D01*
X-281482Y-897585D01*
X-307644Y-869645D01*
G37*
G36*
X-740460Y-459943D02*
G01*
X-744423Y-489661D01*
X-786333Y-512521D01*
X-848563Y-517601D01*
X-843483Y-572211D01*
X-847293Y-576021D01*
X-664413Y-582371D01*
X-664413Y-474421D01*
X-670763Y-468071D01*
X-692454Y-461721D01*
G37*
D10*
X-245087Y593153D02*
G01*
X-245087Y642251D01*
X-97741Y789597D01*
X-97741Y817943D01*
D11*
X-669800Y746899D02*
G01*
X-667514Y652157D01*
X-648464Y633107D01*
X-598934Y633107D01*
X-568454Y663587D01*
X-315470Y663587D01*
X-245112Y593229D01*
D12*
X-769914Y746937D02*
G01*
X-769914Y817681D01*
X-803338Y851105D01*
X-895797Y851105D01*
X-912045Y834852D01*
X-912045Y633425D01*
X-906711Y628091D01*
X-906711Y515571D01*
X-837123Y445975D01*
X-837123Y349963D01*
X-687148Y199989D01*
X-687148Y141998D01*
D13*
X-613717Y-1170114D02*
G01*
X-624575Y-1159255D01*
X-909827Y-1159255D01*
X-972106Y-1221534D01*
X-987310Y-1221534D01*
D14*
X-806960Y-1079004D02*
G01*
X-907541Y-1079004D01*
X-907541Y-1020178D01*
D15*
X-1691388Y-1103490D02*
G01*
X-1705104Y-1117460D01*
X-1705104Y-1176896D01*
X-1717804Y-1189596D01*
X-1967486Y-1189596D01*
X-2037590Y-1119492D01*
D16*
X-615950Y483499D02*
G01*
X-602741Y483499D01*
X-602741Y328307D01*
X-585218Y310784D01*
X-359918Y310784D01*
X-235719Y434987D01*
X30731Y434987D01*
X50538Y454799D01*
X108965Y454799D01*
X148592Y494426D01*
X148592Y531253D01*
X165455Y548119D01*
X224025Y548119D01*
D12*
X-1080010Y-28562D02*
G01*
X-1085598Y-22212D01*
X-1085598Y148983D01*
X-1040894Y193687D01*
X-864872Y193687D01*
X-729490Y58305D01*
X-473458Y58305D01*
X-424436Y107327D01*
X101597Y107327D01*
X184655Y24523D01*
X311909Y24523D01*
X345945Y-9512D01*
X502663Y-9512D01*
D17*
X-327916Y-59550D02*
G01*
X-307088Y-59550D01*
X-179326Y68211D01*
X-103886Y67564D01*
D18*
X-1257556Y425589D02*
G01*
X-1257627Y401378D01*
X-1181610Y331609D01*
X-1110236Y260235D01*
X-1030226Y260235D01*
D19*
X-1187198Y-1126604D02*
G01*
X-1187198Y-1069200D01*
X-988062Y-870064D01*
X-636272Y-870064D01*
D18*
X-1388366Y-935596D02*
G01*
X-1270256Y-935596D01*
X-1196596Y-861936D01*
X-1196596Y-524878D01*
X-1067310Y-395592D01*
X-901702Y-395592D01*
D16*
X-1072898Y-493890D02*
G01*
X-1149098Y-570090D01*
X-1149098Y-930262D01*
X-1228346Y-1009510D01*
X-1433578Y-1009510D01*
X-1470916Y-972172D01*
X-1522986Y-972172D01*
X-1581406Y-1030592D01*
X-1581406Y-1200264D01*
X-1773938Y-1392796D01*
X-1821944Y-1392796D01*
D20*
X-1352349Y-1361452D02*
G01*
X-1374076Y-1339725D01*
X-1374076Y-1154986D01*
X-1352303Y-1133213D01*
X-1352303Y-1126528D01*
X-1187310Y-1126538D01*
D21*
X-160530Y249059D02*
G01*
X-260352Y249059D01*
X-345696Y165239D01*
X-521464Y165239D01*
D18*
X-173992Y331355D02*
G01*
X-73916Y331355D01*
X-73916Y249059D01*
D16*
X-215902Y385711D02*
G01*
X-237492Y362851D01*
X-337822Y262521D01*
X-677928Y262521D01*
X-780290Y364883D01*
X-780290Y433971D01*
X-732030Y482231D01*
X-709932Y482231D01*
D22*
X-104975Y-578045D02*
G01*
X-20073Y-493717D01*
D12*
X-1187302Y-1316520D02*
G01*
X-1106116Y-1316520D01*
X-1004503Y-1418132D01*
X-1004503Y-1526590D01*
X-965499Y-1565597D01*
X-830257Y-1565597D01*
X-779528Y-1514868D01*
X-650750Y-1455280D02*
G01*
X-650750Y-1522336D01*
X-734570Y-1606156D01*
X-1027686Y-1606156D01*
X-1075438Y-1558404D01*
D23*
X-362003Y-436562D02*
G01*
X-362003Y-551340D01*
X-350431Y-562912D01*
X-362003Y-436562D02*
G01*
X-374449Y-436562D01*
X-426519Y-488632D01*
X-434157Y-484825D02*
G01*
X-435180Y-483801D01*
X-435180Y-412940D01*
D24*
X-500941Y-583222D02*
G01*
X-534057Y-550105D01*
X-728545Y-550105D01*
D19*
X-636328Y-870165D02*
G01*
X-500941Y-734778D01*
X-500941Y-692238D01*
D23*
X-350522Y-562978D02*
G01*
X-426468Y-488556D01*
X-435180Y-412940D02*
G01*
X-385622Y-412940D01*
X-362000Y-436562D01*
D24*
X-1167711Y458528D02*
G01*
X-1136804Y489435D01*
X-1038923Y489435D01*
X-317573Y474530D02*
G01*
X-332478Y489435D01*
X-450913Y489435D01*
D25*
X-134927Y-483809D02*
G01*
X-79070Y-539666D01*
X-79070Y-552711D01*
D22*
X-209349Y-423862D02*
G01*
X-150924Y-363405D01*
X-124157Y-336638D01*
D16*
X221231Y467753D02*
G01*
X189735Y467753D01*
X123441Y401459D01*
X-200154Y401459D01*
X-215902Y385711D01*
X-245747Y354596D01*
D25*
X289333Y765868D02*
G01*
X289333Y781514D01*
X232082Y838766D01*
D16*
X102867Y973975D02*
G01*
X176781Y900061D01*
X246885Y900061D01*
X415033Y731659D01*
X415033Y601103D01*
X472183Y543953D01*
X505203Y543953D01*
X536953Y512203D01*
X624837Y512203D01*
X647697Y535063D01*
D10*
X-184406Y818019D02*
G01*
X-255272Y746899D01*
X-620016Y746899D01*
D26*
X-861316Y117995D02*
G01*
X-861316Y101231D01*
X-770130Y10045D01*
X-624052Y9029D01*
D17*
X-819914Y746950D02*
G01*
X-819914Y581423D01*
X-791331Y552841D01*
X-634753Y552841D01*
X-615950Y534045D01*
X-615950Y483499D01*
X-869901Y746950D02*
G01*
X-869901Y540351D01*
X-820925Y491375D01*
X-719076Y491375D01*
X-709935Y482234D01*
D10*
X-966904Y723353D02*
G01*
X-966914Y723343D01*
X-966914Y723343D01*
X-1206042Y723277D01*
X-1206042Y706028D01*
D21*
X-1067056Y-1566786D02*
G01*
X-1075438Y-1558404D01*
X-1075438Y-1443342D01*
X-1128778Y-1390002D01*
X-1240538Y-1390002D01*
X-1307848Y-1457312D01*
X-1390398Y-1457312D01*
X-1438658Y-1409052D01*
X-1438658Y-1083932D01*
X-1461264Y-1061326D01*
X-1497840Y-1061326D01*
X-618898Y-1303464D02*
G01*
X-650684Y-1335250D01*
X-650684Y-1506014D01*
D27*
X294840Y131203D02*
G01*
X461896Y131203D01*
X502663Y90436D01*
D21*
X294840Y131203D02*
G01*
X461896Y131203D01*
X502663Y90436D01*
X-1257556Y473875D02*
G01*
X-1206045Y525386D01*
X-1206045Y619467D01*
D28*
X-2037590Y-1119492D02*
G01*
X-2069086Y-1119492D01*
X-2155192Y-1033386D01*
X-2155192Y-982078D01*
D22*
X722020Y-524560D02*
G01*
X532348Y-334888D01*
X502665Y-334888D01*
X578558Y-674560D02*
G01*
X722020Y-531098D01*
X722020Y-524560D01*
X850338Y-674560D02*
G01*
X722020Y-546242D01*
X722020Y-524560D01*
X913838Y252031D02*
G01*
X910422Y255447D01*
X722020Y255447D01*
D29*
X502665Y-259562D02*
G01*
X656752Y-259562D01*
X676099Y-240220D01*
X616709Y-180830D01*
X616709Y90665D01*
X502665Y-359562D02*
G01*
X502665Y-309549D01*
X502665Y40439D02*
G01*
X621466Y40439D01*
X616709Y45196D01*
X616709Y90665D01*
D17*
X252676Y-306768D02*
G01*
X311604Y-306768D01*
X344878Y-273494D01*
X344878Y-198564D01*
X383880Y-159562D01*
X502665Y-159562D01*
X291792Y-233362D02*
G01*
X291792Y-190690D01*
X372932Y-109550D01*
X502665Y-109550D01*
D23*
X53286Y-400621D02*
G01*
X53286Y-486097D01*
X-124147Y-336628D02*
G01*
X-108130Y-320611D01*
X53286Y-320611D01*
D10*
X-64264Y-642226D02*
G01*
X-116334Y-589902D01*
D30*
X-12453Y-486097D02*
G01*
X149329Y-486097D01*
X176273Y-513041D01*
D31*
X-293626Y-816216D02*
G01*
X-320550Y-816216D01*
X-320474Y-727392D01*
X-408942Y-795388D01*
X-408942Y-845934D01*
D32*
X-278056Y-727392D02*
G01*
X-266118Y-715454D01*
X-224843Y-715454D01*
D22*
X-209351Y-423862D02*
G01*
X-209351Y-376895D01*
X-247474Y-338772D01*
X-124157Y-336638D02*
G01*
X-124157Y-338668D01*
X-209351Y-423862D01*
D33*
X-781634Y-1295082D02*
G01*
X-815596Y-1261120D01*
X-815596Y-1237246D01*
D34*
X-806251Y-1690103D02*
G01*
X-806251Y-1811969D01*
X-763831Y-1854390D01*
X-955575Y-322897D02*
G01*
X-952045Y-319366D01*
X-952045Y-253428D01*
X-1314203Y-1672450D02*
G01*
X-1318191Y-1676438D01*
X-1389814Y-1676438D01*
D31*
X-511408Y-1641662D02*
G01*
X-559838Y-1690100D01*
X-711245Y-1690100D01*
X-733325Y-1295082D02*
G01*
X-711263Y-1317144D01*
X-711263Y-1410096D01*
X-532335Y-1303464D02*
G01*
X-510692Y-1325107D01*
X-510692Y-1481769D01*
D26*
X-1807517Y-597852D02*
G01*
X-1718617Y-686752D01*
X-1718617Y-739914D01*
X-166875Y-970396D02*
G01*
X-259590Y-877679D01*
X-259590Y-850379D01*
D35*
X-1282753Y-817054D02*
G01*
X-1278608Y-812909D01*
X-1278608Y-739917D01*
D10*
X-1828624Y-739914D02*
G01*
X-1828624Y-807631D01*
X-1760273Y-875982D01*
X-1716077Y-875474D01*
X-1718363Y-928814D01*
D36*
X-73891Y248983D02*
G01*
X-53215Y228307D01*
X37790Y228307D01*
X314037Y486984D02*
G01*
X314037Y417233D01*
X389836Y341436D01*
X389836Y331203D01*
X400606Y486984D02*
G01*
X403405Y484187D01*
X478228Y484187D01*
D18*
X-1388417Y-887387D02*
G01*
X-1388618Y-887186D01*
X-1388618Y-739917D01*
D35*
X-2155243Y-895438D02*
G01*
X-2158616Y-892065D01*
X-2158616Y-739917D01*
D37*
X-25250Y-828814D02*
G01*
X-120144Y-733920D01*
X-224792Y-733920D01*
X-224792Y-715378D01*
X-60632Y-864196D02*
G01*
X-116413Y-808415D01*
X-150677Y-808415D01*
X-160835Y-798258D01*
D31*
X10132Y-793432D02*
G01*
X-147881Y-635421D01*
X-147881Y-618401D01*
D38*
X-2042975Y639889D02*
G01*
X-2046277Y636587D01*
X-2046277Y530923D01*
X-1988060Y639965D02*
G01*
X-1916686Y639965D01*
X-1718566Y441845D01*
X-1718566Y222389D01*
X-1916483Y872299D02*
G01*
X-2042977Y745804D01*
X-2042977Y639886D01*
D39*
X-2037641Y-1064704D02*
G01*
X-2016457Y-1043520D01*
X-2016457Y-944816D01*
X-2016457Y-944816D02*
G01*
X-2048614Y-912660D01*
X-2048614Y-739914D01*
D38*
X-2048619Y222387D02*
G01*
X-2046277Y224729D01*
X-2046277Y476059D01*
D18*
X-1197663Y-193230D02*
G01*
X-1128341Y-123908D01*
X-1128341Y-27873D01*
X-1018796Y107175D02*
G01*
X-1008049Y117922D01*
X-909650Y117922D01*
X-1318821Y461581D02*
G01*
X-1306601Y473801D01*
X-1257609Y473801D01*
D40*
X199641Y-496430D02*
G01*
X215897Y-512432D01*
D37*
X-96014Y-899528D02*
G01*
X-136908Y-858634D01*
X-183898Y-858634D01*
X-190756Y-858634D01*
X-221744Y-827900D01*
X-221744Y-715378D01*
X-224792Y-715378D01*
D10*
X-2155192Y-982078D02*
G01*
X-2188207Y-950838D01*
X-2196345Y-950838D01*
X-2210061Y-937120D01*
X-2210061Y-890892D01*
X-2273861Y-827090D01*
X-2273861Y-675322D01*
D41*
X496008Y635571D02*
G01*
X499877Y639439D01*
X564713Y639439D01*
X564713Y639439D02*
G01*
X507222Y696930D01*
X507222Y759769D01*
X507222Y759769D02*
G01*
X496008Y748555D01*
X496008Y635571D01*
D36*
X37792Y314871D02*
G01*
X54127Y331205D01*
X199849Y331205D01*
D16*
X379092Y915860D02*
G01*
X405841Y942609D01*
X405841Y1055687D01*
X448256Y1098102D01*
X448256Y1104198D01*
D42*
X267967Y989545D02*
G01*
X175094Y1082418D01*
X175094Y1092560D01*
X175094Y1092560D02*
G01*
X241932Y1159398D01*
X241932Y1246339D01*
X241932Y1246339D02*
G01*
X266959Y1221313D01*
X266959Y995883D01*
D31*
X45465Y-758050D02*
G01*
X-5334Y-707250D01*
X-5334Y-632856D01*
X-30228Y-607961D01*
D16*
X-1110795Y-343344D02*
G01*
X-1292908Y-525457D01*
X-1292908Y-575243D01*
X-1325674Y-608012D01*
X-1432608Y-608012D01*
X-1498577Y-673973D01*
X-1498577Y-739856D01*
D31*
X-408942Y-845931D02*
G01*
X-408942Y-929246D01*
X-326392Y-1011796D01*
X-326392Y-1102880D01*
D43*
X-613717Y-1170114D02*
G01*
X-608891Y-1165288D01*
X-527865Y-1165288D01*
D44*
X-618898Y-1303464D02*
G01*
X-618898Y-1175296D01*
X-613717Y-1170114D01*
D16*
X-1072898Y-493890D02*
G01*
X-1029464Y-450456D01*
X-803150Y-450456D01*
X-758700Y-406006D01*
X-697740Y-406006D01*
X-644654Y-352920D01*
X-644654Y-324980D01*
X-869012Y-322897D02*
G01*
X-869012Y-242023D01*
X-856287Y-229298D01*
D41*
X-868936Y-322948D02*
G01*
X-731268Y-324980D01*
D45*
X202765Y765873D02*
G01*
X146276Y709383D01*
X90114Y709383D01*
D31*
X478281Y484261D02*
G01*
X399280Y484261D01*
X399280Y531106D01*
X243837Y686549D01*
D19*
X-912370Y-551802D02*
G01*
X-912370Y-662292D01*
X-907595Y-720128D01*
D35*
X-1023622Y-748652D02*
G01*
X-1022606Y-673722D01*
D46*
X-907595Y-720128D02*
G01*
X-995072Y-720128D01*
X-1023673Y-748728D01*
X-1023622Y-748652D02*
G01*
X-1022606Y-673722D01*
D10*
X-721794Y632929D02*
G01*
X-721794Y745075D01*
X-719919Y746950D01*
D36*
X90114Y795944D02*
G01*
X34836Y795944D01*
X-45087Y716020D01*
X-45087Y688149D01*
D10*
X-115369Y594423D02*
G01*
X-113339Y596452D01*
X5283Y596452D01*
X90114Y681291D01*
X90114Y709383D01*
D23*
X-198122Y497471D02*
G01*
X-44960Y498233D01*
X-600585Y141998D02*
G01*
X-544708Y141998D01*
X-521543Y165163D01*
D43*
X-1542341Y-1361452D02*
G01*
X-1497845Y-1316956D01*
X-1497845Y-1147942D01*
D47*
X-901245Y-1410093D02*
G01*
X-987300Y-1324038D01*
X-987300Y-1221524D01*
D48*
X-987300Y-1221524D02*
G01*
X-931064Y-1165288D01*
X-527865Y-1165288D01*
X-718568Y-1078598D02*
G01*
X-806960Y-1079106D01*
D17*
X-438406Y-104508D02*
G01*
X-392686Y-150228D01*
X-199646Y-150228D01*
X-148846Y-201028D01*
X13713Y-201028D01*
X54099Y-241668D01*
X137919Y-241668D01*
X186433Y-289928D01*
X186433Y-361048D01*
X214373Y-388988D01*
X290573Y-388988D01*
X379473Y-300088D01*
X379473Y-241668D01*
X411731Y-209664D01*
X502663Y-209664D01*
D26*
X-644146Y9029D02*
G01*
X-551944Y9029D01*
X-421134Y-121780D01*
D12*
X497583Y-59550D02*
G01*
X332229Y-59550D01*
X287525Y-15100D01*
X-66804Y-15100D01*
X-75694Y-5956D01*
X-75694Y41033D01*
X-102872Y68211D01*
X-122684Y68211D01*
D49*
G01*
X647710Y535038D03*
G01*
X507281Y759772D03*
D50*
G01*
X564774Y639456D03*
D51*
G01*
X815458Y577954D03*
G01*
X619389Y891730D03*
D52*
G01*
X-619912Y746848D03*
G01*
X-669912Y746848D03*
G01*
X-719912Y746848D03*
G01*
X-769912Y746848D03*
G01*
X-819911Y746848D03*
G01*
X-869911Y746848D03*
D53*
G01*
X-450910Y489343D03*
G01*
X-1038905Y489343D03*
D54*
G01*
X-1773928Y722245D03*
D55*
G01*
X-1631441Y872247D03*
D54*
G01*
X-1773930Y1022247D03*
D55*
G01*
X-1916435Y872247D03*
D56*
G01*
X137370Y-666362D03*
G01*
X116177Y-687556D03*
G01*
X80794Y-722938D03*
D57*
G01*
X45502Y-758230D03*
D56*
G01*
X10210Y-793523D03*
G01*
X-25171Y-828906D03*
G01*
X-60553Y-864288D03*
G01*
X-95935Y-899670D03*
G01*
X-131317Y-935052D03*
G01*
X-166700Y-970434D03*
D58*
G01*
X-201993Y-1005726D03*
D56*
G01*
X-223276Y-1027010D03*
G01*
X172753Y-630980D03*
G01*
X193946Y-609787D03*
G01*
X-258479Y-1062212D03*
D57*
G01*
X-279761Y-1083495D03*
D59*
G01*
X502666Y90449D03*
G01*
X502666Y40449D03*
G01*
X502666Y-9550D03*
G01*
X502666Y-59550D03*
G01*
X502666Y-109550D03*
G01*
X502666Y-159550D03*
G01*
X502666Y-209550D03*
G01*
X502666Y-259549D03*
G01*
X502666Y-309549D03*
G01*
X502666Y-359549D03*
D60*
G01*
X722015Y-524550D03*
G01*
X722012Y255450D03*
D61*
G01*
X53286Y-400617D03*
G01*
X53286Y-320615D03*
D62*
G01*
X-147895Y-618393D03*
D63*
G01*
X-116371Y-590011D03*
D64*
G01*
X-124150Y-336637D03*
G01*
X-350423Y-562910D03*
D65*
G01*
X-278056Y-727392D03*
G01*
X-320474Y-727392D03*
D66*
G01*
X-73884Y248978D03*
G01*
X-160450Y248978D03*
D67*
G01*
X379105Y915859D03*
D68*
G01*
X176103Y1086196D03*
D69*
G01*
X267962Y989537D03*
D70*
G01*
X525382Y1008510D03*
G01*
X241946Y1246341D03*
D71*
G01*
X-1278562Y-739863D03*
G01*
X-1388569Y-739863D03*
G01*
X-1498577Y-739863D03*
G01*
X-1608559Y-739863D03*
G01*
X-1718566Y-739863D03*
G01*
X-1828573Y-739863D03*
G01*
X-1938555Y-739863D03*
G01*
X-2048563Y-739863D03*
G01*
X-2158570Y-739863D03*
G01*
X-2158570Y222440D03*
G01*
X-2048563Y222440D03*
G01*
X-1938555Y222440D03*
G01*
X-1828573Y222440D03*
G01*
X-1718566Y222440D03*
G01*
X-1608559Y222440D03*
G01*
X-1498577Y222440D03*
G01*
X-1388569Y222440D03*
G01*
X-1278562Y222440D03*
D72*
G01*
X-511380Y-1641594D03*
G01*
X-510679Y-1481693D03*
D73*
G01*
X-500941Y-692238D03*
D74*
G01*
X-500941Y-583224D03*
D75*
G01*
X-1128295Y-27800D03*
G01*
X-1079985Y-27800D03*
D76*
G01*
X37843Y314947D03*
D77*
G01*
X37843Y228382D03*
D78*
G01*
X314092Y487057D03*
G01*
X400658Y487057D03*
D79*
G01*
X-1257556Y473875D03*
D80*
G01*
X-1257556Y425564D03*
D76*
G01*
X-1206045Y619467D03*
D77*
G01*
X-1206045Y706032D03*
D75*
G01*
X-909652Y117919D03*
G01*
X-861341Y117919D03*
D76*
G01*
X90116Y795947D03*
D77*
G01*
X90116Y709382D03*
D78*
G01*
X-955579Y-322900D03*
G01*
X-869014Y-322900D03*
G01*
X-618900Y-1303464D03*
G01*
X-532334Y-1303464D03*
G01*
X202769Y765868D03*
G01*
X289335Y765868D03*
D76*
G01*
X-2155243Y-895438D03*
D77*
G01*
X-2155243Y-982003D03*
D81*
G01*
X-2037641Y-1064704D03*
D82*
G01*
X-2037641Y-1119558D03*
D83*
G01*
X-1988121Y639889D03*
G01*
X-2042965Y639889D03*
D79*
G01*
X-1388417Y-887387D03*
D80*
G01*
X-1388417Y-935697D03*
D84*
G01*
X-30217Y-607950D03*
G01*
X-64377Y-642110D03*
D85*
G01*
X-293739Y-816230D03*
G01*
X-259577Y-850390D03*
D78*
G01*
X-731297Y-324932D03*
G01*
X-644732Y-324932D03*
D86*
G01*
X199844Y331203D03*
G01*
X389835Y331203D03*
G01*
X294839Y131203D03*
D75*
G01*
X-781636Y-1295082D03*
G01*
X-733325Y-1295082D03*
D87*
G01*
X-803305Y-551878D03*
G01*
X-912315Y-551878D03*
D73*
G01*
X-1314249Y-1563408D03*
D74*
G01*
X-1314249Y-1672422D03*
D88*
G01*
X-901252Y-1690100D03*
G01*
X-806256Y-1690100D03*
G01*
X-711260Y-1690100D03*
G01*
X-711260Y-1410091D03*
G01*
X-806256Y-1410091D03*
G01*
X-901252Y-1410091D03*
D89*
G01*
X-45087Y688149D03*
G01*
X-45087Y498158D03*
G01*
X-245087Y593154D03*
D81*
G01*
X-2046277Y530923D03*
D82*
G01*
X-2046277Y476069D03*
D90*
G01*
X-2016455Y-944816D03*
G01*
X-1907443Y-944816D03*
D91*
G01*
X-907590Y-1020127D03*
G01*
X-907590Y-720128D03*
G36*
X-543638Y-775157D02*
G01*
X-729058Y-775157D01*
X-733511Y-775263D01*
X-737953Y-775576D01*
X-742378Y-776096D01*
X-746772Y-776823D01*
X-751128Y-777758D01*
X-755434Y-778893D01*
X-759683Y-780229D01*
X-763864Y-781763D01*
X-767968Y-783493D01*
X-771989Y-785411D01*
X-775914Y-787516D01*
X-779736Y-789805D01*
X-783447Y-792269D01*
X-787039Y-794903D01*
X-790501Y-797702D01*
X-793831Y-800663D01*
X-797016Y-803775D01*
X-800054Y-807034D01*
X-802934Y-810430D01*
X-805652Y-813958D01*
X-808202Y-817610D01*
X-810577Y-821377D01*
X-812774Y-825253D01*
X-814788Y-829226D01*
X-816612Y-837156D01*
X-986345Y-837156D01*
X-986345Y-903155D01*
X-816612Y-903155D01*
X-814788Y-911090D01*
X-812774Y-915062D01*
X-810577Y-918938D01*
X-808202Y-922705D01*
X-805652Y-926358D01*
X-802934Y-929886D01*
X-800054Y-933282D01*
X-797016Y-936541D01*
X-793831Y-939652D01*
X-790501Y-942614D01*
X-787039Y-945413D01*
X-783447Y-948047D01*
X-779736Y-950511D01*
X-775914Y-952799D01*
X-771989Y-954905D01*
X-767968Y-956823D01*
X-763864Y-958552D01*
X-759683Y-960086D01*
X-755434Y-961423D01*
X-751128Y-962558D01*
X-746772Y-963493D01*
X-742378Y-964219D01*
X-737953Y-964740D01*
X-733511Y-965052D01*
X-729058Y-965159D01*
X-543638Y-965159D01*
X-539186Y-965052D01*
X-534743Y-964740D01*
X-530318Y-964219D01*
X-525924Y-963493D01*
X-521568Y-962558D01*
X-517263Y-961423D01*
X-513013Y-960086D01*
X-508833Y-958552D01*
X-504728Y-956823D01*
X-500707Y-954905D01*
X-496783Y-952799D01*
X-492960Y-950511D01*
X-489249Y-948047D01*
X-485658Y-945413D01*
X-482196Y-942614D01*
X-478866Y-939652D01*
X-475681Y-936541D01*
X-472643Y-933282D01*
X-469762Y-929886D01*
X-467045Y-926358D01*
X-464494Y-922705D01*
X-462119Y-918938D01*
X-459922Y-915062D01*
X-457908Y-911090D01*
X-456084Y-907026D01*
X-454451Y-902883D01*
X-453016Y-898667D01*
X-451779Y-894387D01*
X-450745Y-890054D01*
X-449915Y-885680D01*
X-449290Y-881268D01*
X-448873Y-876833D01*
X-448665Y-872385D01*
X-448665Y-867930D01*
X-448873Y-863483D01*
X-449290Y-859048D01*
X-449915Y-854636D01*
X-450745Y-850262D01*
X-451779Y-845929D01*
X-453016Y-841649D01*
X-454451Y-837432D01*
X-456084Y-833290D01*
X-457908Y-829226D01*
X-459922Y-825253D01*
X-462119Y-821377D01*
X-464494Y-817610D01*
X-467045Y-813958D01*
X-469762Y-810430D01*
X-472643Y-807034D01*
X-475681Y-803775D01*
X-478866Y-800663D01*
X-482196Y-797702D01*
X-485658Y-794903D01*
X-489249Y-792269D01*
X-492960Y-789805D01*
X-496783Y-787516D01*
X-500707Y-785411D01*
X-504728Y-783493D01*
X-508833Y-781763D01*
X-513013Y-780229D01*
X-517263Y-778893D01*
X-521568Y-777758D01*
X-525924Y-776823D01*
X-530318Y-776096D01*
X-534743Y-775576D01*
X-539186Y-775263D01*
X-543638Y-775157D01*
G37*
D87*
G01*
X-1691289Y-1103566D03*
G01*
X-1800301Y-1103566D03*
D86*
G01*
X-1542341Y-1361452D03*
G01*
X-1352350Y-1361452D03*
G01*
X-1447346Y-1561452D03*
D89*
G01*
X-1187310Y-1316530D03*
G01*
X-1187310Y-1126539D03*
G01*
X-987310Y-1221535D03*
D76*
G01*
X-1497891Y-1147864D03*
D77*
G01*
X-1497891Y-1061299D03*
D78*
G01*
X-184306Y817943D03*
G01*
X-97740Y817943D03*
G01*
X-687172Y141986D03*
G01*
X-600607Y141986D03*
D92*
G01*
X790674Y562470D03*
G01*
X594611Y876236D03*
D93*
G01*
X435861Y-530593D03*
G01*
X718690Y-813447D03*
G01*
X-358904Y-1325359D03*
G01*
X-76075Y-1608213D03*
D92*
G01*
X506600Y986142D03*
G01*
X223161Y1223962D03*
D94*
G01*
X-281205Y-943622D03*
G01*
X-333352Y-888072D03*
G01*
X60398Y-603948D03*
G01*
X-527865Y-1165288D03*
G01*
X-613717Y-1170114D03*
G01*
X515363Y-431304D03*
G01*
X934209Y-578878D03*
G01*
X931669Y124193D03*
G01*
X-111305Y-110934D03*
G01*
X-146814Y-20078D03*
G01*
X-1318821Y461581D03*
G01*
X-867488Y-1506664D03*
G01*
X-1280975Y-377126D03*
G01*
X102816Y973899D03*
G01*
X-1018796Y107175D03*
G01*
X-1304343Y709739D03*
G01*
X-326392Y-1102880D03*
G01*
X-160835Y-798258D03*
G01*
X-224843Y-715454D03*
G01*
X-140007Y-671766D03*
G01*
X-521540Y165163D03*
G01*
X139646Y1301559D03*
G01*
X779472Y454215D03*
G01*
X478228Y484187D03*
G01*
X-1953186Y366737D03*
G01*
X-1953186Y448017D03*
G01*
X-1953186Y529297D03*
G01*
X-2147115Y450659D03*
G01*
X-2147115Y531939D03*
G01*
X-2147115Y613219D03*
G01*
X-2147115Y694499D03*
G01*
X-2125525Y779081D03*
G01*
X-2068883Y842835D03*
G01*
X-1919150Y721067D03*
G01*
X-2022782Y904963D03*
G01*
X-1985063Y992441D03*
G01*
X-384812Y-1161453D03*
G01*
X-1282753Y-817054D03*
G01*
X-1718363Y-928814D03*
G01*
X-1659054Y-1002830D03*
G01*
X-1022657Y-673798D03*
G01*
X291792Y-233362D03*
G01*
X252676Y-306768D03*
G01*
X-901753Y-395668D03*
G01*
X-709983Y482155D03*
G01*
X-616003Y483425D03*
G01*
X224025Y548119D03*
G01*
X221180Y467677D03*
G01*
X-1197663Y-193230D03*
G01*
X-1030302Y260159D03*
G01*
X-327967Y-59626D03*
G01*
X-174068Y331279D03*
G01*
X-249506Y166687D03*
G01*
X-148160Y168719D03*
G01*
X-777293Y-680402D03*
G01*
X-238305Y-228282D03*
G01*
X-1293675Y579183D03*
G01*
X215897Y-512432D03*
G01*
X-665279Y416115D03*
G01*
X-115369Y594423D03*
G01*
X-1511353Y-563054D03*
G01*
X-966904Y723353D03*
G01*
X-856287Y-229298D03*
G01*
X-1807517Y-597852D03*
G01*
X-1046025Y-277304D03*
G01*
X380489Y54851D03*
G01*
X616709Y90665D03*
G01*
X243837Y686549D03*
G01*
X71320Y513397D03*
G01*
X448256Y1104201D03*
G01*
X437080Y839025D03*
G01*
X496008Y635571D03*
G01*
X-408485Y-1474914D03*
G01*
X-1023673Y-748728D03*
G01*
X-701347Y-489648D03*
G01*
X-1110795Y-343344D03*
G01*
X-1521513Y505269D03*
G01*
X-1641147Y-51498D03*
G01*
X88084Y592137D03*
G01*
X-471782Y-1753755D03*
G01*
X-1389814Y-1676438D03*
G01*
X-952045Y-253428D03*
G01*
X-763831Y-1854390D03*
G01*
X-815596Y-1237246D03*
G01*
X-806960Y-1079004D03*
G01*
X-721794Y632929D03*
G01*
X-198173Y497395D03*
G01*
X790140Y-230568D03*
G01*
X-247474Y-338772D03*
G01*
X-209349Y-423862D03*
G01*
X-384863Y-768286D03*
G01*
X-362003Y-436562D03*
G01*
X-426519Y-488632D03*
G01*
X-435180Y-412940D03*
G01*
X850338Y-674560D03*
G01*
X578558Y-674560D03*
G01*
X913838Y252031D03*
G01*
X-2144600Y364299D03*
G01*
X-1821868Y-1392720D03*
G01*
X-1883590Y-1323632D03*
G01*
X-1749224Y-1457998D03*
G01*
X-1615112Y-1546898D03*
G01*
X-1687502Y-1517942D03*
G01*
X-1803834Y-1004862D03*
G01*
X-1914324Y-1062012D03*
G01*
X-1199060Y-1451648D03*
G01*
X-1772592Y1117053D03*
G01*
X-1753542Y647153D03*
G01*
X-1674548Y1143469D03*
G01*
X-1581330Y1320507D03*
G01*
X-779528Y-1514868D03*
G01*
X-1274142Y-1236662D03*
G01*
X248206Y-76466D03*
G01*
X232077Y838771D03*
G01*
X-134927Y-483806D03*
G01*
X-1527888Y371970D03*
G01*
X-317578Y474535D03*
G01*
X-1167716Y458533D03*
G01*
X510969Y280479D03*
G01*
X-718568Y-1078496D03*
M02*
