M48
INCH,LZ
;FILE_FORMAT=2:4
;TYPE=PLATED
;Layer: PTH_Through
;EasyEDA v6.5.5, 2022-05-23 17:46:57
;b170b76dcbfd4e769ccdd405e25ecab7,c17a8ced473b4d519dda31697e0e54b6,10
;Gerber Generator version 0.2
;Holesize 1 = 0.0120 inch
T01C0.0120
;Holesize 2 = 0.0240 inch
T02C0.0240
;Holesize 3 = 0.0280 inch
T03C0.0280
;Holesize 4 = 0.0430 inch
T04C0.0430
%
G05
G90
T01
X-001628Y000714
X-001628Y000320
X-001234Y000320
X-001234Y000714
X-001978Y-002774
X-002255Y-002531
X001201Y000612
X-001354Y003317
X004457Y003502
X004213Y003765
X000679Y005225
X000618Y003534
X004418Y-001285
X004213Y-001067
X005750Y000068
X003441Y-002186
X003117Y-002187
X002337Y-000316
X002642Y-000320
X000500Y-003266
X000508Y-003581
X-003348Y002968
X-000105Y-000502
X007960Y000461
X009139Y000833
X009103Y001823
X009059Y002805
X005087Y001993
X004947Y002440
X004560Y003182
X004904Y003188
X000346Y004848
X004462Y002450
X000298Y004544
X003792Y-000615
X008173Y003083
X001671Y000564
X001865Y001445
X002172Y001439
X000980Y-004227
X000962Y000990
X005880Y006264
X000077Y007841
X001353Y004205
X004527Y004766
X001529Y003612
X000390Y005224
X000972Y005222
X001272Y005222
X-000988Y004885
X003347Y-004684
X003343Y-004980
X006533Y000204
X006322Y000417
X004327Y-002062
X003354Y001060
X000607Y001566
X-001720Y003779
X-003824Y003942
X-003655Y001645
X-000720Y-002778
X-002924Y-001954
X001186Y001824
X001138Y001333
X004892Y-000713
X004640Y-000387
X004975Y-000200
X002627Y003212
X006230Y005448
X007182Y003369
X003269Y003960
X006075Y007554
X007249Y006078
X007543Y001663
X002654Y-002820
X000125Y-001770
X008684Y004473
X000347Y-004222
X004737Y004985
X006146Y003639
X-001311Y-001920
X007434Y004655
X008289Y005470
X006639Y007120
X-001013Y005713
X004786Y-004382
X004260Y004390
X006030Y003096
X-001016Y004276
X002846Y004877
X004679Y002221
X000093Y-001471
X-000685Y003790
X000111Y003973
X006601Y005990
X-003675Y003189
X-000122Y-000024
X-003338Y-001041
X-003349Y004921
X-003896Y-000185
X-001724Y003379
T02
X007403Y000200G85X007111Y000493
X008517Y-000913G85X008225Y-000621
X004274Y-002929G85X003982Y-002636
X005388Y-004042G85X005095Y-003750
T03
X000702Y008287
X-000719Y007654
X003499Y008449
X001943Y008449
X-001495Y007075
X-002633Y006014
T04
X008706Y000294
X008706Y001294
X008706Y002294
X008706Y003294
M30
