G04 Layer: BottomSolderMaskLayer*
G04 EasyEDA v6.5.1, 2022-04-12 15:10:40*
G04 81e337274da949a3b7a457435bed675b,c17a8ced473b4d519dda31697e0e54b6,10*
G04 Gerber Generator version 0.2*
G04 Scale: 100 percent, Rotated: No, Reflected: No *
G04 Dimensions in millimeters *
G04 leading zeros omitted , absolute positions ,4 integer and 5 decimal *
%FSLAX45Y45*%
%MOMM*%

%ADD10C,0.0001*%

%LPD*%
G36*
X145034Y-362204D02*
G01*
X145034Y-221995D01*
X185165Y-221995D01*
X185165Y-362204D01*
G37*
G36*
X246634Y-362204D02*
G01*
X246634Y-221995D01*
X286765Y-221995D01*
X286765Y-362204D01*
G37*
G36*
X297434Y-362204D02*
G01*
X297434Y-221995D01*
X337565Y-221995D01*
X337565Y-362204D01*
G37*
G36*
X348234Y-362204D02*
G01*
X348234Y-221995D01*
X388365Y-221995D01*
X388365Y-362204D01*
G37*
G36*
X195834Y-362204D02*
G01*
X195834Y-221995D01*
X235965Y-221995D01*
X235965Y-362204D01*
G37*
G36*
X524510Y-567436D02*
G01*
X524510Y-524763D01*
X565150Y-524763D01*
X565150Y-567436D01*
G37*
G36*
X476250Y-567436D02*
G01*
X476250Y-524763D01*
X516889Y-524763D01*
X516889Y-567436D01*
G37*
G36*
X651763Y-450850D02*
G01*
X651763Y-410210D01*
X694436Y-410210D01*
X694436Y-450850D01*
G37*
G36*
X651763Y-402589D02*
G01*
X651763Y-361950D01*
X694436Y-361950D01*
X694436Y-402589D01*
G37*
G36*
X702310Y-300736D02*
G01*
X702310Y-258063D01*
X749300Y-258063D01*
X749300Y-300736D01*
G37*
G36*
X647700Y-300736D02*
G01*
X647700Y-258063D01*
X694689Y-258063D01*
X694689Y-300736D01*
G37*
G36*
X168910Y-580136D02*
G01*
X168910Y-537463D01*
X215900Y-537463D01*
X215900Y-580136D01*
G37*
G36*
X114300Y-580136D02*
G01*
X114300Y-537463D01*
X161289Y-537463D01*
X161289Y-580136D01*
G37*
M02*
