G04 Layer: TopSilkscreenLayer*
G04 EasyEDA v6.5.5, 2022-05-23 17:46:57*
G04 b170b76dcbfd4e769ccdd405e25ecab7,c17a8ced473b4d519dda31697e0e54b6,10*
G04 Gerber Generator version 0.2*
G04 Scale: 100 percent, Rotated: No, Reflected: No *
G04 Dimensions in inches *
G04 leading zeros omitted , absolute positions ,3 integer and 6 decimal *
%FSLAX36Y36*%
%MOIN*%

%ADD11C,0.0100*%
%ADD14C,0.0060*%
%ADD20C,0.0070*%
%ADD77C,0.0050*%
%ADD78C,0.0039*%
%ADD79C,0.0059*%
%ADD80C,0.0039*%
%ADD81C,0.0098*%
%ADD82C,0.0079*%
%ADD83C,0.0010*%
%ADD84C,0.0040*%

%LPD*%
D83*
X-420399Y77099D02*
G01*
X-420399Y72399D01*
X-417200Y77099D02*
G01*
X-417200Y72399D01*
X-420399Y74899D02*
G01*
X-417200Y74899D01*
X-413000Y75599D02*
G01*
X-413000Y72399D01*
X-413000Y74899D02*
G01*
X-413400Y75299D01*
X-413900Y75599D01*
X-414600Y75599D01*
X-415000Y75299D01*
X-415500Y74899D01*
X-415699Y74199D01*
X-415699Y73699D01*
X-415500Y73099D01*
X-415000Y72599D01*
X-414600Y72399D01*
X-413900Y72399D01*
X-413400Y72599D01*
X-413000Y73099D01*
X-411499Y75599D02*
G01*
X-411499Y70799D01*
X-411499Y74899D02*
G01*
X-411000Y75299D01*
X-410600Y75599D01*
X-409899Y75599D01*
X-409399Y75299D01*
X-408999Y74899D01*
X-408800Y74199D01*
X-408800Y73699D01*
X-408999Y73099D01*
X-409399Y72599D01*
X-409899Y72399D01*
X-410600Y72399D01*
X-411000Y72599D01*
X-411499Y73099D01*
X-406599Y77099D02*
G01*
X-406599Y73299D01*
X-406400Y72599D01*
X-405900Y72399D01*
X-405399Y72399D01*
X-407299Y75599D02*
G01*
X-405699Y75599D01*
X-403900Y77099D02*
G01*
X-403699Y76899D01*
X-403500Y77099D01*
X-403699Y77399D01*
X-403900Y77099D01*
X-403699Y75599D02*
G01*
X-403699Y72399D01*
X-399300Y74899D02*
G01*
X-399700Y75299D01*
X-400200Y75599D01*
X-400900Y75599D01*
X-401300Y75299D01*
X-401800Y74899D01*
X-401999Y74199D01*
X-401999Y73699D01*
X-401800Y73099D01*
X-401300Y72599D01*
X-400900Y72399D01*
X-400200Y72399D01*
X-399700Y72599D01*
X-399300Y73099D01*
X-392200Y76499D02*
G01*
X-392200Y72399D01*
X-394300Y74399D02*
G01*
X-390200Y74399D01*
X-403699Y15000D02*
G01*
X-403699Y10299D01*
X-400500Y15000D02*
G01*
X-400500Y10299D01*
X-403699Y12799D02*
G01*
X-400500Y12799D01*
X-396300Y13499D02*
G01*
X-396300Y10299D01*
X-396300Y12799D02*
G01*
X-396700Y13199D01*
X-397200Y13499D01*
X-397899Y13499D01*
X-398299Y13199D01*
X-398800Y12799D01*
X-398999Y12099D01*
X-398999Y11599D01*
X-398800Y10999D01*
X-398299Y10499D01*
X-397899Y10299D01*
X-397200Y10299D01*
X-396700Y10499D01*
X-396300Y10999D01*
X-394799Y13499D02*
G01*
X-394799Y8699D01*
X-394799Y12799D02*
G01*
X-394300Y13199D01*
X-393900Y13499D01*
X-393199Y13499D01*
X-392700Y13199D01*
X-392299Y12799D01*
X-392100Y12099D01*
X-392100Y11599D01*
X-392299Y10999D01*
X-392700Y10499D01*
X-393199Y10299D01*
X-393900Y10299D01*
X-394300Y10499D01*
X-394799Y10999D01*
X-389899Y15000D02*
G01*
X-389899Y11199D01*
X-389700Y10499D01*
X-389200Y10299D01*
X-388699Y10299D01*
X-390600Y13499D02*
G01*
X-388999Y13499D01*
X-387200Y15000D02*
G01*
X-386999Y14799D01*
X-386800Y15000D01*
X-386999Y15299D01*
X-387200Y15000D01*
X-386999Y13499D02*
G01*
X-386999Y10299D01*
X-382600Y12799D02*
G01*
X-383000Y13199D01*
X-383500Y13499D01*
X-384200Y13499D01*
X-384600Y13199D01*
X-385100Y12799D01*
X-385299Y12099D01*
X-385299Y11599D01*
X-385100Y10999D01*
X-384600Y10499D01*
X-384200Y10299D01*
X-383500Y10299D01*
X-383000Y10499D01*
X-382600Y10999D01*
X-377600Y12299D02*
G01*
X-373500Y12299D01*
X-383680Y-46370D02*
G01*
X-385479Y-51170D01*
X-383680Y-46370D02*
G01*
X-381880Y-51170D01*
X-384780Y-49570D02*
G01*
X-382579Y-49570D01*
X-380379Y-46370D02*
G01*
X-380379Y-49770D01*
X-380180Y-50470D01*
X-379679Y-50870D01*
X-378980Y-51170D01*
X-378580Y-51170D01*
X-377879Y-50870D01*
X-377380Y-50470D01*
X-377179Y-49770D01*
X-377179Y-46370D01*
X-375680Y-46370D02*
G01*
X-375680Y-51170D01*
X-375680Y-46370D02*
G01*
X-374080Y-46370D01*
X-373379Y-46570D01*
X-372979Y-47070D01*
X-372680Y-47470D01*
X-372479Y-48170D01*
X-372479Y-49270D01*
X-372680Y-49970D01*
X-372979Y-50470D01*
X-373379Y-50870D01*
X-374080Y-51170D01*
X-375680Y-51170D01*
X-370979Y-46370D02*
G01*
X-370979Y-51170D01*
X-368180Y-46370D02*
G01*
X-368580Y-46570D01*
X-369080Y-47070D01*
X-369279Y-47470D01*
X-369480Y-48170D01*
X-369480Y-49270D01*
X-369279Y-49970D01*
X-369080Y-50470D01*
X-368580Y-50870D01*
X-368180Y-51170D01*
X-367179Y-51170D01*
X-366779Y-50870D01*
X-366279Y-50470D01*
X-366080Y-49970D01*
X-365879Y-49270D01*
X-365879Y-48170D01*
X-366080Y-47470D01*
X-366279Y-47070D01*
X-366779Y-46570D01*
X-367179Y-46370D01*
X-368180Y-46370D01*
X-358779Y-47070D02*
G01*
X-358779Y-51170D01*
X-360879Y-49070D02*
G01*
X-356779Y-49070D01*
X-365879Y-114270D02*
G01*
X-367680Y-119070D01*
X-365879Y-114270D02*
G01*
X-364080Y-119070D01*
X-366980Y-117470D02*
G01*
X-364780Y-117470D01*
X-362579Y-114270D02*
G01*
X-362579Y-117670D01*
X-362380Y-118370D01*
X-361880Y-118770D01*
X-361180Y-119070D01*
X-360780Y-119070D01*
X-360079Y-118770D01*
X-359579Y-118370D01*
X-359380Y-117670D01*
X-359380Y-114270D01*
X-357879Y-114270D02*
G01*
X-357879Y-119070D01*
X-357879Y-114270D02*
G01*
X-356279Y-114270D01*
X-355579Y-114470D01*
X-355180Y-114970D01*
X-354880Y-115370D01*
X-354679Y-116070D01*
X-354679Y-117170D01*
X-354880Y-117870D01*
X-355180Y-118370D01*
X-355579Y-118770D01*
X-356279Y-119070D01*
X-357879Y-119070D01*
X-353180Y-114270D02*
G01*
X-353180Y-119070D01*
X-350379Y-114270D02*
G01*
X-350780Y-114470D01*
X-351279Y-114970D01*
X-351480Y-115370D01*
X-351679Y-116070D01*
X-351679Y-117170D01*
X-351480Y-117870D01*
X-351279Y-118370D01*
X-350780Y-118770D01*
X-350379Y-119070D01*
X-349380Y-119070D01*
X-348980Y-118770D01*
X-348479Y-118370D01*
X-348280Y-117870D01*
X-348079Y-117170D01*
X-348079Y-116070D01*
X-348280Y-115370D01*
X-348479Y-114970D01*
X-348980Y-114470D01*
X-349380Y-114270D01*
X-350379Y-114270D01*
X-343079Y-116970D02*
G01*
X-338980Y-116970D01*
D20*
X-512771Y-73758D02*
G01*
X-471531Y-61934D01*
X-512771Y-73758D02*
G01*
X-516739Y-59916D01*
X-516499Y-53501D01*
X-513688Y-48430D01*
X-510298Y-45378D01*
X-505012Y-41677D01*
X-495111Y-38838D01*
X-488668Y-39176D01*
X-484176Y-39968D01*
X-479106Y-42779D01*
X-475501Y-48092D01*
X-471531Y-61934D01*
X-524402Y-33194D02*
G01*
X-483164Y-21369D01*
X-524402Y-33194D02*
G01*
X-531734Y-7624D01*
X-504792Y-27570D02*
G01*
X-509284Y-11902D01*
X-536345Y30585D02*
G01*
X-539735Y27532D01*
X-539948Y21021D01*
X-538818Y17080D01*
X-535214Y11767D01*
X-528221Y9508D01*
X-517767Y10424D01*
X-507964Y13236D01*
X-500632Y17418D01*
X-497821Y22490D01*
X-497581Y28904D01*
X-498158Y30924D01*
X-501763Y36236D01*
X-506833Y39047D01*
X-513373Y39356D01*
X-515295Y38805D01*
X-520581Y35106D01*
X-523392Y30034D01*
X-523729Y23591D01*
X-523149Y21573D01*
X-519449Y16288D01*
X-514378Y13477D01*
X-507964Y13236D01*
X-553261Y67450D02*
G01*
X-547611Y47744D01*
X-529372Y50893D01*
X-531943Y52237D01*
X-535573Y57646D01*
X-537255Y63509D01*
X-537043Y70021D01*
X-534202Y74996D01*
X-528823Y78723D01*
X-524976Y79826D01*
X-518438Y79516D01*
X-513395Y76801D01*
X-509763Y71392D01*
X-508082Y65529D01*
X-508296Y59017D01*
X-509763Y56516D01*
X-513153Y53464D01*
X-534561Y91121D02*
G01*
X-544705Y126496D01*
X-578759Y156366D02*
G01*
X-573108Y136661D01*
X-554870Y139810D01*
X-557438Y141153D01*
X-561042Y146466D01*
X-562752Y152426D01*
X-562510Y158840D01*
X-559699Y163912D01*
X-554290Y167544D01*
X-550446Y168646D01*
X-543935Y168433D01*
X-538864Y165621D01*
X-535259Y160309D01*
X-533550Y154350D01*
X-533792Y147934D01*
X-535258Y145433D01*
X-538621Y142284D01*
X-583582Y173188D02*
G01*
X-542344Y185014D01*
X-583582Y173188D02*
G01*
X-588681Y190972D01*
X-588440Y197387D01*
X-586972Y199888D01*
X-583706Y203010D01*
X-577746Y204719D01*
X-573227Y203829D01*
X-570752Y202459D01*
X-567053Y197174D01*
X-561954Y179390D01*
D14*
X759920Y111429D02*
G01*
X802820Y111429D01*
X759920Y140029D02*
G01*
X802820Y140029D01*
X780320Y111429D02*
G01*
X780320Y140029D01*
X768119Y153529D02*
G01*
X766019Y157629D01*
X759920Y163829D01*
X802820Y163829D01*
D80*
X350219Y-290965D02*
G01*
X363720Y-290965D01*
X366319Y-290065D01*
X368119Y-288265D01*
X369020Y-285565D01*
X369020Y-283765D01*
X368119Y-281165D01*
X366319Y-279365D01*
X363720Y-278465D01*
X350219Y-278465D01*
X350219Y-270765D02*
G01*
X350219Y-260865D01*
X357420Y-266265D01*
X357420Y-263565D01*
X358320Y-261765D01*
X359219Y-260865D01*
X361920Y-259965D01*
X363720Y-259965D01*
X366319Y-260865D01*
X368119Y-262665D01*
X369020Y-265365D01*
X369020Y-268065D01*
X368119Y-270765D01*
X367219Y-271665D01*
X365420Y-272565D01*
X597899Y440799D02*
G01*
X597899Y421999D01*
X597899Y440799D02*
G01*
X606000Y440799D01*
X608599Y439899D01*
X609499Y438999D01*
X610399Y437199D01*
X610399Y435399D01*
X609499Y433599D01*
X608599Y432699D01*
X606000Y431799D01*
X597899Y431799D01*
X604200Y431799D02*
G01*
X610399Y421999D01*
X616300Y437199D02*
G01*
X618100Y438099D01*
X620799Y440799D01*
X620799Y421999D01*
X631199Y440799D02*
G01*
X628500Y439899D01*
X627600Y438099D01*
X627600Y436299D01*
X628500Y434499D01*
X630299Y433599D01*
X633900Y432699D01*
X636599Y431799D01*
X638299Y430000D01*
X639200Y428199D01*
X639200Y425599D01*
X638299Y423799D01*
X637399Y422899D01*
X634799Y421999D01*
X631199Y421999D01*
X628500Y422899D01*
X627600Y423799D01*
X626700Y425599D01*
X626700Y428199D01*
X627600Y430000D01*
X629399Y431799D01*
X632100Y432699D01*
X635699Y433599D01*
X637399Y434499D01*
X638299Y436299D01*
X638299Y438099D01*
X637399Y439899D01*
X634799Y440799D01*
X631199Y440799D01*
X599300Y492599D02*
G01*
X599300Y473799D01*
X599300Y492599D02*
G01*
X607399Y492599D01*
X610000Y491699D01*
X610900Y490799D01*
X611800Y488999D01*
X611800Y487199D01*
X610900Y485399D01*
X610000Y484499D01*
X607399Y483599D01*
X599300Y483599D01*
X605600Y483599D02*
G01*
X611800Y473799D01*
X617700Y488999D02*
G01*
X619499Y489899D01*
X622200Y492599D01*
X622200Y473799D01*
X639700Y486299D02*
G01*
X638800Y483599D01*
X637100Y481799D01*
X634399Y480899D01*
X633500Y480899D01*
X630799Y481799D01*
X628999Y483599D01*
X628100Y486299D01*
X628100Y487199D01*
X628999Y489899D01*
X630799Y491699D01*
X633500Y492599D01*
X634399Y492599D01*
X637100Y491699D01*
X638800Y489899D01*
X639700Y486299D01*
X639700Y481799D01*
X638800Y477399D01*
X637100Y474699D01*
X634399Y473799D01*
X632600Y473799D01*
X629899Y474699D01*
X628999Y476499D01*
D84*
X-189399Y558499D02*
G01*
X-189399Y539399D01*
X-189399Y558499D02*
G01*
X-181199Y558499D01*
X-178500Y557599D01*
X-177600Y556699D01*
X-176700Y554799D01*
X-176700Y552999D01*
X-177600Y551199D01*
X-178500Y550299D01*
X-181199Y549399D01*
X-189399Y549399D01*
X-183000Y549399D02*
G01*
X-176700Y539399D01*
X-169799Y553899D02*
G01*
X-169799Y554799D01*
X-168900Y556699D01*
X-167899Y557599D01*
X-166099Y558499D01*
X-162500Y558499D01*
X-160699Y557599D01*
X-159799Y556699D01*
X-158900Y554799D01*
X-158900Y552999D01*
X-159799Y551199D01*
X-161599Y548499D01*
X-170699Y539399D01*
X-157899Y539399D01*
X-140100Y552099D02*
G01*
X-141000Y549399D01*
X-142899Y547599D01*
X-145600Y546699D01*
X-146499Y546699D01*
X-149200Y547599D01*
X-151000Y549399D01*
X-151899Y552099D01*
X-151899Y552999D01*
X-151000Y555799D01*
X-149200Y557599D01*
X-146499Y558499D01*
X-145600Y558499D01*
X-142899Y557599D01*
X-141000Y555799D01*
X-140100Y552099D01*
X-140100Y547599D01*
X-141000Y542999D01*
X-142899Y540299D01*
X-145600Y539399D01*
X-147399Y539399D01*
X-150100Y540299D01*
X-151000Y542099D01*
X-219899Y682999D02*
G01*
X-219899Y663899D01*
X-219899Y682999D02*
G01*
X-211700Y682999D01*
X-208999Y682099D01*
X-208100Y681199D01*
X-207200Y679299D01*
X-207200Y677500D01*
X-208100Y675699D01*
X-208999Y674799D01*
X-211700Y673899D01*
X-219899Y673899D01*
X-213500Y673899D02*
G01*
X-207200Y663899D01*
X-199399Y682999D02*
G01*
X-189399Y682999D01*
X-194799Y675699D01*
X-192100Y675699D01*
X-190299Y674799D01*
X-189399Y673899D01*
X-188400Y671199D01*
X-188400Y669299D01*
X-189399Y666599D01*
X-191199Y664799D01*
X-193900Y663899D01*
X-196599Y663899D01*
X-199399Y664799D01*
X-200299Y665699D01*
X-201199Y667500D01*
X-176999Y682999D02*
G01*
X-179700Y682099D01*
X-181499Y679299D01*
X-182399Y674799D01*
X-182399Y672099D01*
X-181499Y667500D01*
X-179700Y664799D01*
X-176999Y663899D01*
X-175200Y663899D01*
X-172399Y664799D01*
X-170600Y667500D01*
X-169700Y672099D01*
X-169700Y674799D01*
X-170600Y679299D01*
X-172399Y682099D01*
X-175200Y682999D01*
X-176999Y682999D01*
X24899Y-485500D02*
G01*
X43999Y-485500D01*
X24899Y-485500D02*
G01*
X24899Y-477300D01*
X25799Y-474600D01*
X26700Y-473700D01*
X28599Y-472800D01*
X30399Y-472800D01*
X32200Y-473700D01*
X33100Y-474600D01*
X33999Y-477300D01*
X33999Y-485500D01*
X33999Y-479100D02*
G01*
X43999Y-472800D01*
X29499Y-465900D02*
G01*
X28599Y-465900D01*
X26700Y-465000D01*
X25799Y-464000D01*
X24899Y-462200D01*
X24899Y-458600D01*
X25799Y-456800D01*
X26700Y-455900D01*
X28599Y-455000D01*
X30399Y-455000D01*
X32200Y-455900D01*
X34899Y-457700D01*
X43999Y-466800D01*
X43999Y-454000D01*
X24899Y-443500D02*
G01*
X25799Y-446200D01*
X27600Y-447100D01*
X29499Y-447100D01*
X31300Y-446200D01*
X32200Y-444400D01*
X33100Y-440800D01*
X33999Y-438000D01*
X35799Y-436200D01*
X37600Y-435300D01*
X40399Y-435300D01*
X42200Y-436200D01*
X43100Y-437100D01*
X43999Y-439900D01*
X43999Y-443500D01*
X43100Y-446200D01*
X42200Y-447100D01*
X40399Y-448000D01*
X37600Y-448000D01*
X35799Y-447100D01*
X33999Y-445300D01*
X33100Y-442600D01*
X32200Y-439000D01*
X31300Y-437100D01*
X29499Y-436200D01*
X27600Y-436200D01*
X25799Y-437100D01*
X24899Y-439900D01*
X24899Y-443500D01*
X7865Y-250535D02*
G01*
X21464Y-250535D01*
X24165Y-249635D01*
X25964Y-247735D01*
X26864Y-245035D01*
X26864Y-243235D01*
X25964Y-240535D01*
X24165Y-238635D01*
X21464Y-237735D01*
X7865Y-237735D01*
X11464Y-231735D02*
G01*
X10564Y-229935D01*
X7865Y-227235D01*
X26864Y-227235D01*
X7865Y-210335D02*
G01*
X7865Y-219435D01*
X15964Y-220335D01*
X15065Y-219435D01*
X14165Y-216635D01*
X14165Y-213935D01*
X15065Y-211235D01*
X16864Y-209435D01*
X19665Y-208535D01*
X21464Y-208535D01*
X24165Y-209435D01*
X25964Y-211235D01*
X26864Y-213935D01*
X26864Y-216635D01*
X25964Y-219435D01*
X25065Y-220335D01*
X23265Y-221235D01*
D80*
X-61980Y397729D02*
G01*
X-60180Y398629D01*
X-58379Y400429D01*
X-57479Y402229D01*
X-57479Y405729D01*
X-58379Y407529D01*
X-60180Y409329D01*
X-61980Y410229D01*
X-64679Y411129D01*
X-69179Y411129D01*
X-71880Y410229D01*
X-73580Y409329D01*
X-75379Y407529D01*
X-76279Y405729D01*
X-76279Y402229D01*
X-75379Y400429D01*
X-73580Y398629D01*
X-71880Y397729D01*
X-61080Y391829D02*
G01*
X-60180Y390029D01*
X-57479Y387329D01*
X-76279Y387329D01*
X-60180Y370729D02*
G01*
X-58379Y371629D01*
X-57479Y374229D01*
X-57479Y376029D01*
X-58379Y378729D01*
X-61080Y380529D01*
X-65579Y381429D01*
X-70079Y381429D01*
X-73580Y380529D01*
X-75379Y378729D01*
X-76279Y376029D01*
X-76279Y375129D01*
X-75379Y372429D01*
X-73580Y370729D01*
X-70979Y369829D01*
X-70079Y369829D01*
X-67380Y370729D01*
X-65579Y372429D01*
X-64679Y375129D01*
X-64679Y376029D01*
X-65579Y378729D01*
X-67380Y380529D01*
X-70079Y381429D01*
X-329205Y339619D02*
G01*
X-329205Y326219D01*
X-328305Y323519D01*
X-326504Y321719D01*
X-323805Y320919D01*
X-322004Y320919D01*
X-319404Y321719D01*
X-317605Y323519D01*
X-316705Y326219D01*
X-316705Y339619D01*
X-300005Y337019D02*
G01*
X-300905Y338719D01*
X-303604Y339619D01*
X-305405Y339619D01*
X-308104Y338719D01*
X-309904Y336119D01*
X-310805Y331619D01*
X-310805Y327119D01*
X-309904Y323519D01*
X-308104Y321719D01*
X-305405Y320919D01*
X-304504Y320919D01*
X-301805Y321719D01*
X-300005Y323519D01*
X-299104Y326219D01*
X-299104Y327119D01*
X-300005Y329819D01*
X-301805Y331619D01*
X-304504Y332519D01*
X-305405Y332519D01*
X-308104Y331619D01*
X-309904Y329819D01*
X-310805Y327119D01*
X616719Y741329D02*
G01*
X617619Y739529D01*
X619420Y737729D01*
X621220Y736829D01*
X624719Y736829D01*
X626520Y737729D01*
X628320Y739529D01*
X629219Y741329D01*
X630119Y744029D01*
X630119Y748529D01*
X629219Y751229D01*
X628320Y752929D01*
X626520Y754729D01*
X624719Y755629D01*
X621220Y755629D01*
X619420Y754729D01*
X617619Y752929D01*
X616719Y751229D01*
X610820Y740429D02*
G01*
X609020Y739529D01*
X606319Y736829D01*
X606319Y755629D01*
X366419Y-342470D02*
G01*
X365519Y-340670D01*
X363720Y-338870D01*
X361920Y-337970D01*
X358419Y-337970D01*
X356620Y-338870D01*
X354819Y-340670D01*
X353919Y-342470D01*
X353019Y-345170D01*
X353019Y-349670D01*
X353919Y-352370D01*
X354819Y-354070D01*
X356620Y-355870D01*
X358419Y-356770D01*
X361920Y-356770D01*
X363720Y-355870D01*
X365519Y-354070D01*
X366419Y-352370D01*
X372319Y-341570D02*
G01*
X374120Y-340670D01*
X376819Y-337970D01*
X376819Y-356770D01*
X391719Y-337970D02*
G01*
X382719Y-350570D01*
X396120Y-350570D01*
X391719Y-337970D02*
G01*
X391719Y-356770D01*
X-63500Y301599D02*
G01*
X-65299Y300699D01*
X-67100Y298899D01*
X-68000Y297099D01*
X-68000Y293599D01*
X-67100Y291799D01*
X-65299Y290000D01*
X-63500Y289099D01*
X-60799Y288199D01*
X-56300Y288199D01*
X-53599Y289099D01*
X-51899Y290000D01*
X-50100Y291799D01*
X-49200Y293599D01*
X-49200Y297099D01*
X-50100Y298899D01*
X-51899Y300699D01*
X-53599Y301599D01*
X-64399Y307500D02*
G01*
X-65299Y309299D01*
X-68000Y311999D01*
X-49200Y311999D01*
X-68000Y328599D02*
G01*
X-68000Y319699D01*
X-59899Y318799D01*
X-60799Y319699D01*
X-61700Y322399D01*
X-61700Y325099D01*
X-60799Y327699D01*
X-58999Y329499D01*
X-56300Y330399D01*
X-54499Y330399D01*
X-51899Y329499D01*
X-50100Y327699D01*
X-49200Y325099D01*
X-49200Y322399D01*
X-50100Y319699D01*
X-51000Y318799D01*
X-52799Y317899D01*
X-371703Y432901D02*
G01*
X-372604Y434701D01*
X-374404Y436501D01*
X-376203Y437401D01*
X-379704Y437401D01*
X-381504Y436501D01*
X-383303Y434701D01*
X-384203Y432901D01*
X-385104Y430201D01*
X-385104Y425701D01*
X-384203Y423001D01*
X-383303Y421301D01*
X-381504Y419501D01*
X-379704Y418601D01*
X-376203Y418601D01*
X-374404Y419501D01*
X-372604Y421301D01*
X-371703Y423001D01*
X-365803Y433801D02*
G01*
X-364004Y434701D01*
X-361304Y437401D01*
X-361304Y418601D01*
X-342903Y437401D02*
G01*
X-351804Y418601D01*
X-355403Y437401D02*
G01*
X-342903Y437401D01*
X405720Y-344070D02*
G01*
X405720Y-362870D01*
X405720Y-344070D02*
G01*
X413819Y-344070D01*
X416419Y-344970D01*
X417319Y-345870D01*
X418220Y-347670D01*
X418220Y-349470D01*
X417319Y-351270D01*
X416419Y-352170D01*
X413819Y-353070D01*
X405720Y-353070D01*
X412020Y-353070D02*
G01*
X418220Y-362870D01*
X424120Y-347670D02*
G01*
X425919Y-346770D01*
X428620Y-344070D01*
X428620Y-362870D01*
X434520Y-347670D02*
G01*
X436319Y-346770D01*
X439020Y-344070D01*
X439020Y-362870D01*
X-241199Y533699D02*
G01*
X-260000Y533699D01*
X-241199Y533699D02*
G01*
X-241199Y525599D01*
X-242100Y522999D01*
X-243000Y522099D01*
X-244799Y521199D01*
X-246599Y521199D01*
X-248400Y522099D01*
X-249300Y522999D01*
X-250200Y525599D01*
X-250200Y533699D01*
X-250200Y527399D02*
G01*
X-260000Y521199D01*
X-244799Y515299D02*
G01*
X-243900Y513499D01*
X-241199Y510799D01*
X-260000Y510799D01*
X-241199Y495899D02*
G01*
X-253800Y504899D01*
X-253800Y491499D01*
X-241199Y495899D02*
G01*
X-260000Y495899D01*
X816580Y518269D02*
G01*
X815680Y520069D01*
X813879Y521869D01*
X812079Y522769D01*
X808580Y522769D01*
X806779Y521869D01*
X804979Y520069D01*
X804080Y518269D01*
X803180Y515569D01*
X803180Y511069D01*
X804080Y508369D01*
X804979Y506669D01*
X806779Y504869D01*
X808580Y503969D01*
X812079Y503969D01*
X813879Y504869D01*
X815680Y506669D01*
X816580Y508369D01*
X823379Y518269D02*
G01*
X823379Y519169D01*
X824279Y520969D01*
X825180Y521869D01*
X826980Y522769D01*
X830579Y522769D01*
X832380Y521869D01*
X833280Y520969D01*
X834179Y519169D01*
X834179Y517369D01*
X833280Y515569D01*
X831480Y512869D01*
X822479Y503969D01*
X835079Y503969D01*
X851679Y522769D02*
G01*
X842680Y522769D01*
X841880Y514669D01*
X842680Y515569D01*
X845379Y516469D01*
X848079Y516469D01*
X850780Y515569D01*
X852579Y513769D01*
X853479Y511069D01*
X853479Y509269D01*
X852579Y506669D01*
X850780Y504869D01*
X848079Y503969D01*
X845379Y503969D01*
X842680Y504869D01*
X841880Y505769D01*
X840979Y507569D01*
X866300Y418999D02*
G01*
X865399Y420799D01*
X863599Y422599D01*
X861800Y423499D01*
X858299Y423499D01*
X856499Y422599D01*
X854700Y420799D01*
X853800Y418999D01*
X852899Y416299D01*
X852899Y411799D01*
X853800Y409099D01*
X854700Y407399D01*
X856499Y405599D01*
X858299Y404699D01*
X861800Y404699D01*
X863599Y405599D01*
X865399Y407399D01*
X866300Y409099D01*
X873100Y418999D02*
G01*
X873100Y419899D01*
X873999Y421699D01*
X874899Y422599D01*
X876700Y423499D01*
X880299Y423499D01*
X882100Y422599D01*
X883000Y421699D01*
X883900Y419899D01*
X883900Y418099D01*
X883000Y416299D01*
X881199Y413599D01*
X872200Y404699D01*
X884799Y404699D01*
X901400Y420799D02*
G01*
X900500Y422599D01*
X897799Y423499D01*
X896000Y423499D01*
X893299Y422599D01*
X891599Y419899D01*
X890699Y415399D01*
X890699Y410899D01*
X891599Y407399D01*
X893299Y405599D01*
X896000Y404699D01*
X896899Y404699D01*
X899600Y405599D01*
X901400Y407399D01*
X902299Y410000D01*
X902299Y410899D01*
X901400Y413599D01*
X899600Y415399D01*
X896899Y416299D01*
X896000Y416299D01*
X893299Y415399D01*
X891599Y413599D01*
X890699Y410899D01*
X751180Y643569D02*
G01*
X750280Y645369D01*
X748479Y647169D01*
X746679Y648069D01*
X743180Y648069D01*
X741379Y647169D01*
X739579Y645369D01*
X738680Y643569D01*
X737780Y640869D01*
X737780Y636369D01*
X738680Y633669D01*
X739579Y631969D01*
X741379Y630169D01*
X743180Y629269D01*
X746679Y629269D01*
X748479Y630169D01*
X750280Y631969D01*
X751180Y633669D01*
X757979Y643569D02*
G01*
X757979Y644469D01*
X758879Y646269D01*
X759780Y647169D01*
X761580Y648069D01*
X765180Y648069D01*
X766980Y647169D01*
X767879Y646269D01*
X768779Y644469D01*
X768779Y642669D01*
X767879Y640869D01*
X766080Y638169D01*
X757079Y629269D01*
X769679Y629269D01*
X784480Y648069D02*
G01*
X775579Y635469D01*
X788980Y635469D01*
X784480Y648069D02*
G01*
X784480Y629269D01*
X719600Y621899D02*
G01*
X719600Y603099D01*
X719600Y621899D02*
G01*
X727700Y621899D01*
X730299Y620999D01*
X731199Y620099D01*
X732100Y618299D01*
X732100Y616499D01*
X731199Y614699D01*
X730299Y613799D01*
X727700Y612899D01*
X719600Y612899D01*
X725900Y612899D02*
G01*
X732100Y603099D01*
X738000Y618299D02*
G01*
X739799Y619199D01*
X742500Y621899D01*
X742500Y603099D01*
X678699Y181499D02*
G01*
X678699Y162699D01*
X678699Y181499D02*
G01*
X686800Y181499D01*
X689399Y180599D01*
X690299Y179699D01*
X691199Y177899D01*
X691199Y176099D01*
X690299Y174299D01*
X689399Y173399D01*
X686800Y172500D01*
X678699Y172500D01*
X685000Y172500D02*
G01*
X691199Y162699D01*
X697100Y177899D02*
G01*
X698900Y178799D01*
X701599Y181499D01*
X701599Y162699D01*
X718199Y178799D02*
G01*
X717399Y180599D01*
X714700Y181499D01*
X712899Y181499D01*
X710200Y180599D01*
X708400Y177899D01*
X707500Y173399D01*
X707500Y168899D01*
X708400Y165399D01*
X710200Y163599D01*
X712899Y162699D01*
X713800Y162699D01*
X716499Y163599D01*
X718199Y165399D01*
X719099Y167999D01*
X719099Y168899D01*
X718199Y171599D01*
X716499Y173399D01*
X713800Y174299D01*
X712899Y174299D01*
X710200Y173399D01*
X708400Y171599D01*
X707500Y168899D01*
X737219Y184829D02*
G01*
X737219Y166029D01*
X737219Y184829D02*
G01*
X745320Y184829D01*
X747920Y183929D01*
X748819Y183029D01*
X749719Y181229D01*
X749719Y179429D01*
X748819Y177629D01*
X747920Y176729D01*
X745320Y175829D01*
X737219Y175829D01*
X743519Y175829D02*
G01*
X749719Y166029D01*
X756520Y180329D02*
G01*
X756520Y181229D01*
X757420Y183029D01*
X758320Y183929D01*
X760119Y184829D01*
X763720Y184829D01*
X765519Y183929D01*
X766419Y183029D01*
X767319Y181229D01*
X767319Y179429D01*
X766419Y177629D01*
X764620Y174929D01*
X755619Y166029D01*
X768220Y166029D01*
X779420Y184829D02*
G01*
X776719Y183929D01*
X775020Y181229D01*
X774120Y176729D01*
X774120Y174029D01*
X775020Y169629D01*
X776719Y166929D01*
X779420Y166029D01*
X781220Y166029D01*
X783919Y166929D01*
X785720Y169629D01*
X786620Y174029D01*
X786620Y176729D01*
X785720Y181229D01*
X783919Y183929D01*
X781220Y184829D01*
X779420Y184829D01*
X631660Y278719D02*
G01*
X631660Y265319D01*
X632560Y262619D01*
X634359Y260819D01*
X637060Y260019D01*
X638860Y260019D01*
X641559Y260819D01*
X643360Y262619D01*
X644260Y265319D01*
X644260Y278719D01*
X654560Y278719D02*
G01*
X651959Y277819D01*
X651059Y276119D01*
X651059Y274319D01*
X651959Y272519D01*
X653760Y271619D01*
X657259Y270719D01*
X659960Y269819D01*
X661760Y268019D01*
X662659Y266219D01*
X662659Y263519D01*
X661760Y261719D01*
X660860Y260819D01*
X658159Y260019D01*
X654560Y260019D01*
X651959Y260819D01*
X651059Y261719D01*
X650159Y263519D01*
X650159Y266219D01*
X651059Y268019D01*
X652860Y269819D01*
X655460Y270719D01*
X659059Y271619D01*
X660860Y272519D01*
X661760Y274319D01*
X661760Y276119D01*
X660860Y277819D01*
X658159Y278719D01*
X654560Y278719D01*
X700290Y600789D02*
G01*
X700290Y587389D01*
X701189Y584689D01*
X702989Y582889D01*
X705690Y581989D01*
X707489Y581989D01*
X710190Y582889D01*
X711890Y584689D01*
X712790Y587389D01*
X712790Y600789D01*
X718689Y597189D02*
G01*
X720489Y598089D01*
X723190Y600789D01*
X723190Y581989D01*
X729089Y597189D02*
G01*
X730889Y598089D01*
X733590Y600789D01*
X733590Y581989D01*
X14099Y-207000D02*
G01*
X14099Y-225800D01*
X14099Y-207000D02*
G01*
X22200Y-207000D01*
X24799Y-207900D01*
X25699Y-208800D01*
X26599Y-210600D01*
X26599Y-212400D01*
X25699Y-214200D01*
X24799Y-215100D01*
X22200Y-216000D01*
X14099Y-216000D01*
X20399Y-216000D02*
G01*
X26599Y-225800D01*
X33400Y-211500D02*
G01*
X33400Y-210600D01*
X34300Y-208800D01*
X35200Y-207900D01*
X36999Y-207000D01*
X40600Y-207000D01*
X42399Y-207900D01*
X43299Y-208800D01*
X44200Y-210600D01*
X44200Y-212400D01*
X43299Y-214200D01*
X41499Y-216900D01*
X32500Y-225800D01*
X45100Y-225800D01*
X61700Y-207000D02*
G01*
X52799Y-207000D01*
X51899Y-215100D01*
X52799Y-214200D01*
X55399Y-213300D01*
X58100Y-213300D01*
X60799Y-214200D01*
X62600Y-216000D01*
X63500Y-218700D01*
X63500Y-220500D01*
X62600Y-223100D01*
X60799Y-224900D01*
X58100Y-225800D01*
X55399Y-225800D01*
X52799Y-224900D01*
X51899Y-224000D01*
X51000Y-222200D01*
X-47100Y-420600D02*
G01*
X-28299Y-420600D01*
X-47100Y-420600D02*
G01*
X-47100Y-412500D01*
X-46199Y-409900D01*
X-45299Y-409000D01*
X-43500Y-408100D01*
X-41700Y-408100D01*
X-39899Y-409000D01*
X-38999Y-409900D01*
X-38100Y-412500D01*
X-38100Y-420600D01*
X-38100Y-414300D02*
G01*
X-28299Y-408100D01*
X-42600Y-401300D02*
G01*
X-43500Y-401300D01*
X-45299Y-400400D01*
X-46199Y-399500D01*
X-47100Y-397700D01*
X-47100Y-394100D01*
X-46199Y-392300D01*
X-45299Y-391400D01*
X-43500Y-390500D01*
X-41700Y-390500D01*
X-39899Y-391400D01*
X-37200Y-393200D01*
X-28299Y-402200D01*
X-28299Y-389600D01*
X-42600Y-382800D02*
G01*
X-43500Y-382800D01*
X-45299Y-381900D01*
X-46199Y-381100D01*
X-47100Y-379300D01*
X-47100Y-375700D01*
X-46199Y-373900D01*
X-45299Y-373000D01*
X-43500Y-372100D01*
X-41700Y-372100D01*
X-39899Y-373000D01*
X-37200Y-374800D01*
X-28299Y-383700D01*
X-28299Y-371200D01*
X-156400Y198365D02*
G01*
X-165799Y182083D01*
X-156400Y198365D02*
G01*
X-149385Y194315D01*
X-147583Y192235D01*
X-147254Y191006D01*
X-147373Y188997D01*
X-148274Y187438D01*
X-149953Y186329D01*
X-151183Y186000D01*
X-153885Y186520D01*
X-160900Y190570D01*
X-155443Y187420D02*
G01*
X-154974Y175833D01*
X-141935Y184818D02*
G01*
X-141485Y185597D01*
X-139805Y186706D01*
X-138576Y187035D01*
X-136567Y186915D01*
X-133450Y185115D01*
X-132340Y183435D01*
X-132012Y182206D01*
X-132132Y180197D01*
X-133032Y178638D01*
X-134711Y177529D01*
X-137620Y176091D01*
X-149864Y172883D01*
X-138953Y166583D01*
X-126243Y176797D02*
G01*
X-124233Y176676D01*
X-120632Y177715D01*
X-130033Y161433D01*
X-19099Y-134800D02*
G01*
X-20000Y-133000D01*
X-21800Y-131200D01*
X-23599Y-130300D01*
X-27100Y-130300D01*
X-28900Y-131200D01*
X-30699Y-133000D01*
X-31599Y-134800D01*
X-32500Y-137500D01*
X-32500Y-142000D01*
X-31599Y-144700D01*
X-30699Y-146400D01*
X-28900Y-148200D01*
X-27100Y-149100D01*
X-23599Y-149100D01*
X-21800Y-148200D01*
X-20000Y-146400D01*
X-19099Y-144700D01*
X-12299Y-134800D02*
G01*
X-12299Y-133900D01*
X-11400Y-132100D01*
X-10500Y-131200D01*
X-8699Y-130300D01*
X-5100Y-130300D01*
X-3299Y-131200D01*
X-2399Y-132100D01*
X-1499Y-133900D01*
X-1499Y-135700D01*
X-2399Y-137500D01*
X-4200Y-140200D01*
X-13199Y-149100D01*
X-600Y-149100D01*
X6999Y-130300D02*
G01*
X16899Y-130300D01*
X11499Y-137500D01*
X14200Y-137500D01*
X16000Y-138400D01*
X16899Y-139300D01*
X17799Y-142000D01*
X17799Y-143800D01*
X16899Y-146400D01*
X15100Y-148200D01*
X12399Y-149100D01*
X9700Y-149100D01*
X6999Y-148200D01*
X6199Y-147300D01*
X5299Y-145500D01*
D77*
X566369Y-12300D02*
G01*
X-39930Y-12300D01*
X-39930Y595959D02*
G01*
X-39930Y794779D01*
X566369Y794779D01*
X566369Y595959D01*
D78*
X-108693Y-94261D02*
G01*
X-173804Y132809D01*
D11*
X820619Y387697D02*
G01*
X920619Y387697D01*
X820619Y-28838D02*
G01*
X820619Y387697D01*
X820619Y80355D02*
G01*
X920619Y80355D01*
X920619Y-28838D02*
G01*
X920619Y387697D01*
X820619Y-28838D02*
G01*
X920619Y-28838D01*
D14*
X315720Y-93095D02*
G01*
X340330Y-93095D01*
X340330Y-93095D01*
X340330Y-414055D01*
X340330Y-414055D01*
X315720Y-414055D01*
X122719Y-93095D02*
G01*
X98109Y-93095D01*
X98109Y-93095D01*
X98109Y-414055D01*
X98109Y-414055D01*
X122719Y-414055D01*
X684094Y414869D02*
G01*
X655825Y414869D01*
X655825Y454129D01*
X684094Y454129D01*
X701905Y414869D02*
G01*
X730174Y414869D01*
X730174Y454129D01*
X701905Y454129D01*
X681894Y465069D02*
G01*
X653625Y465069D01*
X653625Y504329D01*
X681894Y504329D01*
X699705Y465069D02*
G01*
X727974Y465069D01*
X727974Y504329D01*
X699705Y504329D01*
X-178005Y564769D02*
G01*
X-206274Y564769D01*
X-206274Y604029D01*
X-178005Y604029D01*
X-160194Y564769D02*
G01*
X-131925Y564769D01*
X-131925Y604029D01*
X-160194Y604029D01*
X-177906Y617069D02*
G01*
X-206175Y617069D01*
X-206175Y656329D01*
X-177906Y656329D01*
X-160093Y617069D02*
G01*
X-131824Y617069D01*
X-131824Y656329D01*
X-160093Y656329D01*
X86629Y-447906D02*
G01*
X86629Y-476175D01*
X47370Y-476175D01*
X47370Y-447906D01*
X86629Y-430094D02*
G01*
X86629Y-401825D01*
X47370Y-401825D01*
X47370Y-430094D01*
D11*
X-131060Y-336851D02*
G01*
X-115630Y-336851D01*
X-28532Y-336851D02*
G01*
X-12950Y-336851D01*
X-12950Y-218740D02*
G01*
X-28532Y-218740D01*
X-115630Y-218740D02*
G01*
X-131060Y-218740D01*
X-131060Y-336851D02*
G01*
X-131060Y-321289D01*
X-131060Y-234252D02*
G01*
X-131060Y-218740D01*
X-12950Y-336851D02*
G01*
X-12950Y-321289D01*
X-12950Y-234192D02*
G01*
X-12950Y-218740D01*
D14*
X-45749Y429117D02*
G01*
X-45749Y460223D01*
X-85010Y460223D02*
G01*
X-85010Y429117D01*
X-79009Y423117D02*
G01*
X-51750Y423117D01*
X-45749Y509141D02*
G01*
X-45749Y478035D01*
X-85010Y478035D02*
G01*
X-85010Y509141D01*
X-79009Y515141D02*
G01*
X-51750Y515141D01*
D79*
X-160754Y330306D02*
G01*
X-282804Y330306D01*
X-282804Y452356D02*
G01*
X-282804Y330306D01*
X-160754Y452306D02*
G01*
X-282804Y452306D01*
X-159804Y330306D02*
G01*
X-159804Y363306D01*
X-159804Y419306D02*
G01*
X-159804Y452306D01*
D14*
X614489Y695241D02*
G01*
X614489Y664135D01*
X653750Y664135D02*
G01*
X653750Y695241D01*
X647749Y701241D02*
G01*
X620489Y701241D01*
X614489Y615217D02*
G01*
X614489Y646323D01*
X653750Y646323D02*
G01*
X653750Y615217D01*
X647749Y609217D02*
G01*
X620489Y609217D01*
X391649Y-455882D02*
G01*
X391649Y-424776D01*
X352389Y-424776D02*
G01*
X352389Y-455882D01*
X358389Y-461882D02*
G01*
X385649Y-461882D01*
X391649Y-375858D02*
G01*
X391649Y-406964D01*
X352389Y-406964D02*
G01*
X352389Y-375858D01*
X358389Y-369858D02*
G01*
X385649Y-369858D01*
X-163112Y273569D02*
G01*
X-132006Y273569D01*
X-132006Y312829D02*
G01*
X-163112Y312829D01*
X-169111Y306829D02*
G01*
X-169111Y279569D01*
X-83087Y273569D02*
G01*
X-114193Y273569D01*
X-114193Y312829D02*
G01*
X-83087Y312829D01*
X-77088Y306829D02*
G01*
X-77088Y279569D01*
X-339930Y443911D02*
G01*
X-339930Y412805D01*
X-300670Y412805D02*
G01*
X-300670Y443911D01*
X-306670Y449911D02*
G01*
X-333930Y449911D01*
X-339930Y363887D02*
G01*
X-339930Y394993D01*
X-300670Y394993D02*
G01*
X-300670Y363887D01*
X-306670Y357887D02*
G01*
X-333930Y357887D01*
X445050Y-420876D02*
G01*
X445050Y-449145D01*
X405789Y-449145D01*
X405789Y-420876D01*
X445050Y-403064D02*
G01*
X445050Y-374795D01*
X405789Y-374795D01*
X405789Y-403064D01*
X-276170Y517793D02*
G01*
X-276170Y489524D01*
X-315429Y489524D01*
X-315429Y517793D01*
X-276170Y535605D02*
G01*
X-276170Y563874D01*
X-315429Y563874D01*
X-315429Y535605D01*
X762168Y455239D02*
G01*
X793274Y455239D01*
X793274Y494499D02*
G01*
X762168Y494499D01*
X756167Y488499D02*
G01*
X756167Y461239D01*
X842192Y455239D02*
G01*
X811085Y455239D01*
X811085Y494499D02*
G01*
X842192Y494499D01*
X848191Y488499D02*
G01*
X848191Y461239D01*
X760788Y405469D02*
G01*
X791894Y405469D01*
X791894Y444729D02*
G01*
X760788Y444729D01*
X754787Y438729D02*
G01*
X754787Y411469D01*
X840811Y405469D02*
G01*
X809705Y405469D01*
X809705Y444729D02*
G01*
X840811Y444729D01*
X846811Y438729D02*
G01*
X846811Y411469D01*
X806729Y533487D02*
G01*
X806729Y564593D01*
X767470Y564593D02*
G01*
X767470Y533487D01*
X773469Y527487D02*
G01*
X800730Y527487D01*
X806729Y613511D02*
G01*
X806729Y582405D01*
X767470Y582405D02*
G01*
X767470Y613511D01*
X773469Y619511D02*
G01*
X800730Y619511D01*
X668770Y656305D02*
G01*
X668770Y684574D01*
X708029Y684574D01*
X708029Y656305D01*
X668770Y638493D02*
G01*
X668770Y610224D01*
X708029Y610224D01*
X708029Y638493D01*
X681769Y238605D02*
G01*
X681769Y266875D01*
X721030Y266875D01*
X721030Y238605D01*
X681769Y220793D02*
G01*
X681769Y192524D01*
X721030Y192524D01*
X721030Y220793D01*
X777250Y220923D02*
G01*
X777250Y192654D01*
X737989Y192654D01*
X737989Y220923D01*
X777250Y238735D02*
G01*
X777250Y267004D01*
X737989Y267004D01*
X737989Y238735D01*
D80*
X668199Y316899D02*
G01*
X668199Y291899D01*
X677093Y291899D01*
X678199Y381899D02*
G01*
X668199Y381899D01*
X668199Y356899D01*
X768199Y316899D02*
G01*
X768199Y291899D01*
X758199Y291899D01*
X758199Y381899D02*
G01*
X768199Y381899D01*
X768199Y356899D01*
D14*
X754047Y536150D02*
G01*
X716550Y536150D01*
X716550Y573646D01*
X754047Y573646D01*
X754047Y536150D01*
X58729Y-281506D02*
G01*
X58729Y-309775D01*
X19470Y-309775D01*
X19470Y-281506D01*
X58729Y-263694D02*
G01*
X58729Y-235425D01*
X19470Y-235425D01*
X19470Y-263694D01*
X22529Y-406806D02*
G01*
X22529Y-435075D01*
X-16729Y-435075D01*
X-16729Y-406806D01*
X22529Y-388994D02*
G01*
X22529Y-360725D01*
X-16729Y-360725D01*
X-16729Y-388994D01*
X-83253Y153971D02*
G01*
X-97386Y129490D01*
X-131387Y149120D01*
X-117253Y173601D01*
X-74346Y169397D02*
G01*
X-60212Y193878D01*
X-94212Y213508D01*
X-108347Y189027D01*
X-84812Y-195430D02*
G01*
X-53706Y-195430D01*
X-53706Y-156170D02*
G01*
X-84812Y-156170D01*
X-90811Y-162170D02*
G01*
X-90811Y-189430D01*
X-4787Y-195430D02*
G01*
X-35893Y-195430D01*
X-35893Y-156170D02*
G01*
X-4787Y-156170D01*
X1211Y-162170D02*
G01*
X1211Y-189430D01*
D82*
G75*
G01*
X-65520Y526080D02*
G03*
X-65520Y525910I-3939J-85D01*
D78*
G75*
G01*
X-350648Y-143167D02*
G02*
X-349564Y-146946I417J-1925D01*
G75*
G01*
X-349564Y-146946D02*
G02*
X-350648Y-143167I-417J1925D01*
D14*
G75*
G01*
X-85010Y429118D02*
G03*
X-79010Y423118I6000J0D01*
G75*
G01*
X-51750Y423118D02*
G03*
X-45750Y429118I0J6000D01*
G75*
G01*
X-85010Y509142D02*
G02*
X-79010Y515142I6000J0D01*
G75*
G01*
X-51750Y515142D02*
G02*
X-45750Y509142I0J-6000D01*
D79*
G75*
G01*
X-159805Y364307D02*
G02*
X-159805Y419307I8555J27500D01*
D14*
G75*
G01*
X653750Y695242D02*
G03*
X647750Y701242I-6000J0D01*
G75*
G01*
X620490Y701242D02*
G03*
X614490Y695242I0J-6000D01*
G75*
G01*
X653750Y615218D02*
G02*
X647750Y609218I-6000J0D01*
G75*
G01*
X620490Y609218D02*
G02*
X614490Y615218I0J6000D01*
G75*
G01*
X352390Y-455882D02*
G03*
X358390Y-461882I6000J0D01*
G75*
G01*
X385650Y-461882D02*
G03*
X391650Y-455882I0J6000D01*
G75*
G01*
X352390Y-375858D02*
G02*
X358390Y-369858I6000J0D01*
G75*
G01*
X385650Y-369858D02*
G02*
X391650Y-375858I0J-6000D01*
G75*
G01*
X-163112Y312830D02*
G03*
X-169112Y306830I0J-6000D01*
G75*
G01*
X-169112Y279570D02*
G03*
X-163112Y273570I6000J0D01*
G75*
G01*
X-83088Y312830D02*
G02*
X-77088Y306830I0J-6000D01*
G75*
G01*
X-77088Y279570D02*
G02*
X-83088Y273570I-6000J0D01*
G75*
G01*
X-300670Y443912D02*
G03*
X-306670Y449912I-6000J0D01*
G75*
G01*
X-333930Y449912D02*
G03*
X-339930Y443912I0J-6000D01*
G75*
G01*
X-300670Y363888D02*
G02*
X-306670Y357888I-6000J0D01*
G75*
G01*
X-333930Y357888D02*
G02*
X-339930Y363888I0J6000D01*
G75*
G01*
X762168Y494500D02*
G03*
X756168Y488500I0J-6000D01*
G75*
G01*
X756168Y461240D02*
G03*
X762168Y455240I6000J0D01*
G75*
G01*
X842192Y494500D02*
G02*
X848192Y488500I0J-6000D01*
G75*
G01*
X848192Y461240D02*
G02*
X842192Y455240I-6000J0D01*
G75*
G01*
X760788Y444730D02*
G03*
X754788Y438730I0J-6000D01*
G75*
G01*
X754788Y411470D02*
G03*
X760788Y405470I6000J0D01*
G75*
G01*
X840812Y444730D02*
G02*
X846812Y438730I0J-6000D01*
G75*
G01*
X846812Y411470D02*
G02*
X840812Y405470I-6000J0D01*
G75*
G01*
X767470Y533488D02*
G03*
X773470Y527488I6000J0D01*
G75*
G01*
X800730Y527488D02*
G03*
X806730Y533488I0J6000D01*
G75*
G01*
X767470Y613512D02*
G02*
X773470Y619512I6000J0D01*
G75*
G01*
X800730Y619512D02*
G02*
X806730Y613512I0J-6000D01*
G75*
G01*
X-84812Y-156170D02*
G03*
X-90812Y-162170I0J-6000D01*
G75*
G01*
X-90812Y-189430D02*
G03*
X-84812Y-195430I6000J0D01*
G75*
G01*
X-4788Y-156170D02*
G02*
X1212Y-162170I0J-6000D01*
G75*
G01*
X1212Y-189430D02*
G02*
X-4788Y-195430I-6000J0D01*
D81*
G75*
G01
X329140Y-78570D02*
G03X329140Y-78570I-4920J0D01*
D11*
G75*
G01
X2770Y-328540D02*
G03X2770Y-328540I-2140J0D01*
D79*
G75*
G01
X691620Y279520D02*
G03X691620Y279520I-2950J0D01*
D80*
G75*
G01
X747270Y584900D02*
G03X747270Y584900I-1970J0D01*
M02*
