G04 Layer: BottomPasteMaskLayer*
G04 EasyEDA v6.5.1, 2022-04-12 15:10:40*
G04 81e337274da949a3b7a457435bed675b,c17a8ced473b4d519dda31697e0e54b6,10*
G04 Gerber Generator version 0.2*
G04 Scale: 100 percent, Rotated: No, Reflected: No *
G04 Dimensions in millimeters *
G04 leading zeros omitted , absolute positions ,4 integer and 5 decimal *
%FSLAX45Y45*%
%MOMM*%

%ADD10C,0.0001*%

%LPD*%
G36*
X531215Y-529894D02*
G01*
X528777Y-532282D01*
X528777Y-559917D01*
X531215Y-562305D01*
X557631Y-562305D01*
X560019Y-559917D01*
X560019Y-532282D01*
X557631Y-529894D01*
G37*
G36*
X483768Y-529894D02*
G01*
X481380Y-532282D01*
X481380Y-559917D01*
X483768Y-562305D01*
X510184Y-562305D01*
X512622Y-559917D01*
X512622Y-532282D01*
X510184Y-529894D01*
G37*
G36*
X659282Y-414477D02*
G01*
X656894Y-416915D01*
X656894Y-443331D01*
X659282Y-445719D01*
X686917Y-445719D01*
X689305Y-443331D01*
X689305Y-416915D01*
X686917Y-414477D01*
G37*
G36*
X659282Y-367080D02*
G01*
X656894Y-369468D01*
X656894Y-395884D01*
X659282Y-398322D01*
X686917Y-398322D01*
X689305Y-395884D01*
X689305Y-369468D01*
X686917Y-367080D01*
G37*
G36*
X709015Y-263194D02*
G01*
X706577Y-265582D01*
X706577Y-293217D01*
X709015Y-295605D01*
X741934Y-295605D01*
X744321Y-293217D01*
X744321Y-265582D01*
X741934Y-263194D01*
G37*
G36*
X655066Y-263194D02*
G01*
X652678Y-265582D01*
X652678Y-293217D01*
X655066Y-295605D01*
X687984Y-295605D01*
X690422Y-293217D01*
X690422Y-265582D01*
X687984Y-263194D01*
G37*
G36*
X175615Y-542594D02*
G01*
X173177Y-544982D01*
X173177Y-572617D01*
X175615Y-575005D01*
X208534Y-575005D01*
X210921Y-572617D01*
X210921Y-544982D01*
X208534Y-542594D01*
G37*
G36*
X121666Y-542594D02*
G01*
X119278Y-544982D01*
X119278Y-572617D01*
X121666Y-575005D01*
X154584Y-575005D01*
X157022Y-572617D01*
X157022Y-544982D01*
X154584Y-542594D01*
G37*
G36*
X180101Y-227098D02*
G01*
X150098Y-227098D01*
X150098Y-357101D01*
X180101Y-357101D01*
G37*
G36*
X281701Y-227098D02*
G01*
X251698Y-227098D01*
X251698Y-357101D01*
X281701Y-357101D01*
G37*
G36*
X332501Y-227098D02*
G01*
X302498Y-227098D01*
X302498Y-357101D01*
X332501Y-357101D01*
G37*
G36*
X383301Y-227098D02*
G01*
X353298Y-227098D01*
X353298Y-357101D01*
X383301Y-357101D01*
G37*
G36*
X230901Y-227098D02*
G01*
X200898Y-227098D01*
X200898Y-357101D01*
X230901Y-357101D01*
G37*
M02*
