G04 Layer: BottomLayer*
G04 EasyEDA v6.5.1, 2022-04-12 15:10:40*
G04 81e337274da949a3b7a457435bed675b,c17a8ced473b4d519dda31697e0e54b6,10*
G04 Gerber Generator version 0.2*
G04 Scale: 100 percent, Rotated: No, Reflected: No *
G04 Dimensions in millimeters *
G04 leading zeros omitted , absolute positions ,4 integer and 5 decimal *
%FSLAX45Y45*%
%MOMM*%

%ADD13C,0.3050*%
%ADD14C,0.2050*%
%ADD16C,0.4000*%
%ADD17C,0.4050*%
%ADD22R,0.3240X0.3031*%

%LPD*%
G36*
X262229Y-408330D02*
G01*
X258317Y-407568D01*
X255016Y-405384D01*
X252831Y-402082D01*
X252069Y-398170D01*
X252069Y-393192D01*
X252831Y-389229D01*
X252831Y-373380D01*
X253187Y-370789D01*
X256082Y-362864D01*
X256590Y-358343D01*
X257911Y-354330D01*
X260756Y-351231D01*
X264617Y-349554D01*
X268782Y-349554D01*
X272643Y-351231D01*
X275488Y-354330D01*
X276809Y-358343D01*
X277317Y-362864D01*
X280212Y-370789D01*
X280568Y-373380D01*
X280568Y-383032D01*
X287426Y-382320D01*
X292100Y-381254D01*
X296773Y-382320D01*
X303072Y-383032D01*
X331927Y-383032D01*
X338226Y-382320D01*
X342900Y-381254D01*
X347573Y-382320D01*
X353872Y-383032D01*
X382727Y-383032D01*
X389026Y-382320D01*
X394512Y-380390D01*
X399389Y-377291D01*
X403504Y-373227D01*
X406603Y-368300D01*
X408482Y-362864D01*
X409194Y-356514D01*
X409194Y-313029D01*
X410006Y-309118D01*
X412191Y-305816D01*
X415493Y-303631D01*
X419354Y-302869D01*
X482092Y-302869D01*
X490118Y-302006D01*
X497281Y-299669D01*
X503935Y-295859D01*
X508457Y-291998D01*
X556107Y-244348D01*
X559409Y-242112D01*
X563270Y-241350D01*
X567182Y-242112D01*
X570484Y-244348D01*
X572668Y-247650D01*
X573430Y-251510D01*
X573430Y-361797D01*
X572668Y-365709D01*
X570484Y-369011D01*
X534111Y-405384D01*
X530809Y-407568D01*
X526897Y-408330D01*
G37*

%LPD*%
G36*
X724306Y-416051D02*
G01*
X720140Y-415137D01*
X716686Y-412597D01*
X714603Y-408889D01*
X714248Y-404622D01*
X715213Y-396189D01*
X709879Y-396189D01*
X707085Y-395782D01*
X704494Y-394614D01*
X700532Y-392125D01*
X695045Y-390194D01*
X688746Y-389483D01*
X656894Y-389483D01*
X653338Y-388823D01*
X649224Y-386130D01*
X646785Y-382879D01*
X645769Y-378968D01*
X646379Y-374904D01*
X648563Y-371449D01*
X651916Y-369112D01*
X655929Y-368300D01*
X658672Y-368300D01*
X658672Y-338988D01*
X656336Y-335635D01*
X655523Y-331673D01*
X655523Y-293827D01*
X651764Y-292963D01*
X648614Y-290728D01*
X646480Y-287477D01*
X645769Y-283667D01*
X645769Y-275132D01*
X646480Y-271322D01*
X648614Y-268071D01*
X651764Y-265836D01*
X655523Y-264972D01*
X655523Y-237286D01*
X651764Y-236423D01*
X648614Y-234188D01*
X646480Y-230936D01*
X645769Y-227126D01*
X645769Y-222199D01*
X646277Y-218998D01*
X648817Y-214782D01*
X652576Y-207162D01*
X654913Y-198983D01*
X656183Y-186029D01*
X658317Y-182422D01*
X661720Y-179984D01*
X665784Y-179120D01*
X828954Y-179120D01*
X832815Y-179882D01*
X836117Y-182067D01*
X838301Y-185369D01*
X839114Y-189280D01*
X839114Y-225501D01*
X838352Y-229311D01*
X836218Y-232562D01*
X833069Y-234797D01*
X829259Y-235661D01*
X817067Y-233476D01*
X808532Y-233476D01*
X800201Y-235051D01*
X792226Y-238099D01*
X786434Y-241706D01*
X783844Y-242874D01*
X781100Y-243230D01*
X763778Y-243230D01*
X760984Y-242824D01*
X758393Y-241706D01*
X755548Y-239928D01*
X750112Y-237998D01*
X743762Y-237286D01*
X708050Y-237286D01*
X699465Y-238201D01*
X696366Y-238150D01*
X688949Y-237286D01*
X686663Y-237286D01*
X686663Y-245211D01*
X686257Y-248005D01*
X684225Y-251967D01*
X682294Y-257454D01*
X681583Y-263753D01*
X681583Y-295046D01*
X682294Y-301345D01*
X684225Y-306832D01*
X686257Y-310794D01*
X686663Y-313588D01*
X686663Y-322986D01*
X690778Y-321310D01*
X696976Y-320395D01*
X699414Y-320294D01*
X701751Y-320802D01*
X708050Y-321513D01*
X743762Y-321513D01*
X750112Y-320802D01*
X755548Y-318871D01*
X758393Y-317093D01*
X760984Y-315976D01*
X766470Y-315569D01*
X770382Y-316331D01*
X773684Y-318516D01*
X775868Y-321818D01*
X776630Y-325729D01*
X776630Y-403707D01*
X775868Y-407568D01*
X773734Y-410819D01*
X770483Y-413054D01*
X766673Y-413867D01*
X753567Y-411276D01*
X745032Y-411276D01*
X736701Y-412851D01*
X730199Y-415340D01*
X726541Y-416051D01*
G37*

%LPC*%
G36*
X687527Y-368300D02*
G01*
X715213Y-368300D01*
X714502Y-361340D01*
X712571Y-355854D01*
X709523Y-350977D01*
X705408Y-346862D01*
X700532Y-343814D01*
X695045Y-341884D01*
X691134Y-341426D01*
X687527Y-340258D01*
G37*

%LPD*%
G36*
X132283Y-594309D02*
G01*
X128371Y-593496D01*
X125069Y-591312D01*
X122885Y-588010D01*
X122123Y-584149D01*
X122123Y-573227D01*
X101092Y-573227D01*
X97180Y-572465D01*
X93878Y-570280D01*
X91694Y-566978D01*
X90932Y-563067D01*
X90932Y-554532D01*
X91694Y-550621D01*
X93878Y-547319D01*
X97180Y-545134D01*
X101092Y-544372D01*
X122123Y-544372D01*
X122123Y-516686D01*
X119837Y-516686D01*
X113487Y-517398D01*
X108051Y-519328D01*
X106476Y-520293D01*
X102412Y-521766D01*
X98145Y-521411D01*
X94386Y-519328D01*
X91795Y-515924D01*
X90932Y-511708D01*
X90932Y-189280D01*
X91694Y-185369D01*
X93878Y-182067D01*
X97180Y-179882D01*
X101092Y-179120D01*
X273558Y-179120D01*
X277164Y-179781D01*
X280365Y-181711D01*
X282600Y-184658D01*
X283667Y-188214D01*
X282905Y-193649D01*
X281990Y-195935D01*
X280568Y-197916D01*
X280568Y-210820D01*
X280212Y-213410D01*
X277317Y-221335D01*
X276809Y-225856D01*
X275488Y-229870D01*
X272643Y-232968D01*
X268782Y-234645D01*
X264617Y-234645D01*
X260756Y-232968D01*
X257911Y-229870D01*
X256590Y-225856D01*
X256082Y-221335D01*
X253187Y-213410D01*
X252831Y-210820D01*
X252831Y-201168D01*
X245973Y-201879D01*
X241300Y-202946D01*
X236626Y-201879D01*
X230327Y-201168D01*
X201472Y-201168D01*
X195173Y-201879D01*
X190500Y-202946D01*
X185826Y-201879D01*
X179527Y-201168D01*
X150672Y-201168D01*
X144373Y-201879D01*
X138887Y-203809D01*
X134010Y-206908D01*
X129895Y-210972D01*
X126796Y-215900D01*
X124917Y-221335D01*
X124206Y-227685D01*
X124206Y-356514D01*
X124917Y-362864D01*
X126796Y-368300D01*
X128524Y-371805D01*
X128930Y-374599D01*
X128930Y-482346D01*
X129133Y-486359D01*
X129743Y-490118D01*
X130708Y-493776D01*
X132029Y-497230D01*
X134467Y-501751D01*
X135585Y-505968D01*
X137210Y-506476D01*
X140360Y-509270D01*
X143713Y-513689D01*
X149047Y-518515D01*
X151180Y-521309D01*
X152247Y-524611D01*
X152146Y-528116D01*
X148894Y-536854D01*
X148183Y-543153D01*
X148183Y-574446D01*
X149453Y-584606D01*
X148590Y-588314D01*
X146354Y-591464D01*
X143103Y-593547D01*
X139344Y-594309D01*
G37*

%LPD*%
D13*
X671068Y-279400D02*
G01*
X671068Y-243331D01*
X711200Y-203200D01*
X812800Y-203200D01*
X673100Y-430552D02*
G01*
X699747Y-457200D01*
X749300Y-457200D01*
D14*
X393700Y-533400D02*
G01*
X406400Y-546100D01*
X496544Y-546100D01*
X165100Y-292100D02*
G01*
X165100Y-482600D01*
X177800Y-482600D01*
X544855Y-546100D02*
G01*
X660400Y-546100D01*
X673100Y-533400D01*
X673100Y-520700D01*
X725931Y-279400D02*
G01*
X812800Y-279400D01*
X192531Y-558800D02*
G01*
X192531Y-482600D01*
X177800Y-482600D01*
X137665Y-558800D02*
G01*
X114300Y-535434D01*
X114300Y-215900D01*
X139700Y-190500D01*
X241300Y-190500D01*
X266700Y-215900D01*
X266700Y-292100D01*
X215900Y-292100D02*
G01*
X215900Y-419100D01*
X241300Y-444500D01*
X546100Y-444500D01*
X609600Y-381000D01*
X609600Y-190500D01*
X192531Y-558800D02*
G01*
X268731Y-482600D01*
X635000Y-482600D01*
X673100Y-520700D01*
X774700Y-520700D01*
X812800Y-482600D01*
X812800Y-279400D01*
X317500Y-292100D02*
G01*
X317500Y-203200D01*
X330200Y-190500D01*
X419100Y-190500D01*
X457200Y-190500D01*
X368300Y-292100D02*
G01*
X393700Y-266700D01*
X482600Y-266700D01*
X533400Y-215900D01*
X533400Y-190500D01*
G36*
X180101Y-227098D02*
G01*
X150098Y-227098D01*
X150098Y-357101D01*
X180101Y-357101D01*
G37*
G36*
X281701Y-227098D02*
G01*
X251698Y-227098D01*
X251698Y-357101D01*
X281701Y-357101D01*
G37*
G36*
X332501Y-227098D02*
G01*
X302498Y-227098D01*
X302498Y-357101D01*
X332501Y-357101D01*
G37*
G36*
X383301Y-227098D02*
G01*
X353298Y-227098D01*
X353298Y-357101D01*
X383301Y-357101D01*
G37*
G36*
X230901Y-227098D02*
G01*
X200898Y-227098D01*
X200898Y-357101D01*
X230901Y-357101D01*
G37*
G36*
X529699Y-529899D02*
G01*
X529699Y-562300D01*
X560011Y-562300D01*
X560011Y-529899D01*
G37*
G36*
X511700Y-529899D02*
G01*
X511700Y-562300D01*
X481388Y-562300D01*
X481388Y-529899D01*
G37*
D22*
G01*
X673100Y-430555D03*
G36*
X689300Y-397400D02*
G01*
X656899Y-397400D01*
X656899Y-367088D01*
X689300Y-367088D01*
G37*
G36*
X707499Y-263199D02*
G01*
X707499Y-295600D01*
X744344Y-295600D01*
X744344Y-263199D01*
G37*
G36*
X689500Y-263199D02*
G01*
X689500Y-295600D01*
X652655Y-295600D01*
X652655Y-263199D01*
G37*
G36*
X174099Y-542599D02*
G01*
X174099Y-575000D01*
X210944Y-575000D01*
X210944Y-542599D01*
G37*
G36*
X156100Y-542599D02*
G01*
X156100Y-575000D01*
X119255Y-575000D01*
X119255Y-542599D01*
G37*
D16*
G01*
X457200Y-190500D03*
D17*
G01*
X533400Y-190500D03*
G01*
X546100Y-368300D03*
G01*
X177800Y-482600D03*
G01*
X812800Y-279400D03*
G01*
X419100Y-368300D03*
G01*
X482600Y-368300D03*
G01*
X749300Y-457200D03*
G01*
X812800Y-203200D03*
G01*
X609600Y-190500D03*
G01*
X393700Y-533400D03*
M02*
