G04 Layer: BottomPasteMaskLayer*
G04 EasyEDA v6.5.5, 2022-05-23 17:46:57*
G04 b170b76dcbfd4e769ccdd405e25ecab7,c17a8ced473b4d519dda31697e0e54b6,10*
G04 Gerber Generator version 0.2*
G04 Scale: 100 percent, Rotated: No, Reflected: No *
G04 Dimensions in inches *
G04 leading zeros omitted , absolute positions ,3 integer and 6 decimal *
%FSLAX36Y36*%
%MOIN*%

%ADD52C,0.0157*%
%ADD53R,0.0315X0.0355*%
%ADD66R,0.0262X0.0088*%
%ADD68R,0.1309X0.1309*%

%LPD*%
G36*
X-204940Y-192700D02*
G01*
X-206500Y-194280D01*
X-206500Y-213980D01*
X-204940Y-215560D01*
X-186820Y-215560D01*
X-185240Y-213980D01*
X-185240Y-194280D01*
X-186820Y-192700D01*
G37*
G36*
X-204940Y-226180D02*
G01*
X-206500Y-227760D01*
X-206500Y-247480D01*
X-204940Y-249040D01*
X-186820Y-249040D01*
X-185240Y-247480D01*
X-185240Y-227760D01*
X-186820Y-226180D01*
G37*
G36*
X-254740Y-225180D02*
G01*
X-256320Y-226759D01*
X-256320Y-246480D01*
X-254740Y-248039D01*
X-236620Y-248039D01*
X-235060Y-246480D01*
X-235060Y-226759D01*
X-236620Y-225180D01*
G37*
G36*
X-254740Y-191700D02*
G01*
X-256320Y-193280D01*
X-256320Y-212979D01*
X-254740Y-214560D01*
X-236620Y-214560D01*
X-235060Y-212979D01*
X-235060Y-193280D01*
X-236620Y-191700D01*
G37*
G36*
X541300Y1480D02*
G01*
X533620Y-6200D01*
X533620Y-7540D01*
X540960Y-14880D01*
X542300Y-14880D01*
X549980Y-7200D01*
X549980Y-5860D01*
X542640Y1480D01*
G37*
G36*
X528100Y14680D02*
G01*
X520420Y7000D01*
X520420Y5659D01*
X527760Y-1680D01*
X529100Y-1680D01*
X536780Y6000D01*
X536780Y7340D01*
X529440Y14680D01*
G37*
G36*
X428600Y-62420D02*
G01*
X420920Y-70100D01*
X420920Y-71440D01*
X428260Y-78780D01*
X429600Y-78780D01*
X437280Y-71100D01*
X437280Y-69760D01*
X429940Y-62420D01*
G37*
G36*
X441800Y-75620D02*
G01*
X434120Y-83300D01*
X434120Y-84640D01*
X441460Y-91980D01*
X442800Y-91980D01*
X450480Y-84300D01*
X450480Y-82960D01*
X443140Y-75620D01*
G37*
G36*
X31040Y-142820D02*
G01*
X29480Y-144400D01*
X29480Y-164100D01*
X31040Y-165680D01*
X49160Y-165680D01*
X50740Y-164100D01*
X50740Y-144400D01*
X49160Y-142820D01*
G37*
G36*
X31040Y-109320D02*
G01*
X29480Y-110900D01*
X29480Y-130620D01*
X31040Y-132180D01*
X49160Y-132180D01*
X50740Y-130620D01*
X50740Y-110900D01*
X49160Y-109320D01*
G37*
G36*
X574640Y-21460D02*
G01*
X566300Y-29800D01*
X596920Y-60420D01*
X605260Y-52080D01*
G37*
G36*
X560780Y-35320D02*
G01*
X552360Y-43740D01*
X582980Y-74360D01*
X591400Y-65940D01*
G37*
G36*
X546860Y-49240D02*
G01*
X538500Y-57600D01*
X569120Y-88219D01*
X577480Y-79860D01*
G37*
G36*
X532920Y-63179D02*
G01*
X524580Y-71520D01*
X555200Y-102140D01*
X563540Y-93800D01*
G37*
G36*
X519000Y-77100D02*
G01*
X510640Y-85460D01*
X541260Y-116080D01*
X549620Y-107720D01*
G37*
G36*
X505060Y-91039D02*
G01*
X496719Y-99380D01*
X527340Y-130000D01*
X535680Y-121660D01*
G37*
G36*
X491140Y-104960D02*
G01*
X482780Y-113320D01*
X513400Y-143940D01*
X521760Y-135580D01*
G37*
G36*
X477200Y-118900D02*
G01*
X468860Y-127240D01*
X499480Y-157860D01*
X507819Y-149520D01*
G37*
G36*
X619140Y23120D02*
G01*
X602380Y6360D01*
X633080Y-24360D01*
X649840Y-7580D01*
G37*
G36*
X596860Y840D02*
G01*
X580100Y-15920D01*
X610800Y-46640D01*
X627580Y-29860D01*
G37*
G36*
X463260Y-132760D02*
G01*
X446500Y-149540D01*
X477200Y-180240D01*
X493960Y-163480D01*
G37*
G36*
X441019Y-155000D02*
G01*
X424260Y-171759D01*
X454960Y-202480D01*
X471719Y-185700D01*
G37*
G36*
X510600Y-352080D02*
G01*
X507800Y-352200D01*
X505040Y-352660D01*
X503680Y-353000D01*
X501040Y-353940D01*
X498540Y-355180D01*
X496180Y-356700D01*
X494040Y-358500D01*
X492120Y-360540D01*
X490460Y-362780D01*
X489720Y-363980D01*
X488480Y-366500D01*
X487560Y-369140D01*
X487200Y-370480D01*
X486740Y-373240D01*
X486620Y-376040D01*
X486840Y-378840D01*
X487360Y-381580D01*
X488220Y-384240D01*
X489380Y-386800D01*
X490840Y-389180D01*
X492580Y-391380D01*
X521380Y-420240D01*
X523480Y-422080D01*
X525780Y-423660D01*
X528240Y-424960D01*
X530840Y-425959D01*
X533540Y-426640D01*
X536320Y-427000D01*
X539100Y-427040D01*
X541880Y-426740D01*
X544600Y-426120D01*
X547220Y-425180D01*
X549720Y-423940D01*
X552060Y-422420D01*
X554180Y-420620D01*
X556100Y-418600D01*
X557760Y-416360D01*
X559140Y-413940D01*
X560240Y-411360D01*
X561020Y-408700D01*
X561480Y-405940D01*
X561600Y-403160D01*
X561400Y-400379D01*
X560880Y-397640D01*
X560040Y-394980D01*
X558900Y-392440D01*
X557440Y-390060D01*
X555740Y-387860D01*
X526940Y-359000D01*
X524860Y-357140D01*
X522560Y-355540D01*
X520080Y-354219D01*
X517480Y-353200D01*
X514760Y-352500D01*
X512000Y-352140D01*
G37*
G36*
X399260Y-240820D02*
G01*
X396480Y-240940D01*
X393720Y-241400D01*
X391060Y-242180D01*
X388480Y-243280D01*
X386060Y-244660D01*
X383820Y-246320D01*
X381800Y-248240D01*
X380000Y-250380D01*
X378480Y-252700D01*
X377239Y-255200D01*
X376300Y-257840D01*
X375680Y-260539D01*
X375379Y-263320D01*
X375420Y-266120D01*
X375780Y-268880D01*
X376460Y-271580D01*
X377460Y-274180D01*
X378760Y-276660D01*
X380340Y-278940D01*
X382180Y-281040D01*
X411040Y-309840D01*
X413240Y-311580D01*
X415620Y-313040D01*
X418180Y-314200D01*
X420840Y-315060D01*
X423579Y-315600D01*
X426380Y-315800D01*
X429180Y-315680D01*
X431940Y-315220D01*
X433300Y-314880D01*
X435920Y-313940D01*
X438440Y-312700D01*
X440780Y-311160D01*
X442920Y-309380D01*
X444840Y-307340D01*
X446520Y-305080D01*
X447900Y-302660D01*
X449000Y-300080D01*
X449760Y-297380D01*
X450040Y-296020D01*
X450319Y-293220D01*
X450280Y-290440D01*
X449920Y-287660D01*
X449219Y-284940D01*
X448200Y-282340D01*
X446880Y-279860D01*
X445280Y-277560D01*
X443440Y-275480D01*
X414580Y-246680D01*
X412380Y-244980D01*
X409980Y-243540D01*
X407440Y-242380D01*
X404780Y-241540D01*
X402040Y-241020D01*
G37*
G36*
X823500Y-39180D02*
G01*
X820699Y-39300D01*
X817940Y-39760D01*
X815240Y-40519D01*
X812680Y-41620D01*
X810240Y-43000D01*
X808000Y-44680D01*
X806940Y-45599D01*
X805020Y-47640D01*
X803360Y-49880D01*
X802620Y-51080D01*
X801380Y-53600D01*
X800460Y-56220D01*
X800100Y-57580D01*
X799640Y-60340D01*
X799520Y-63140D01*
X799740Y-65940D01*
X800260Y-68680D01*
X801120Y-71340D01*
X802300Y-73880D01*
X803740Y-76280D01*
X805480Y-78480D01*
X834280Y-107340D01*
X836380Y-109200D01*
X838680Y-110800D01*
X841140Y-112100D01*
X842440Y-112660D01*
X845100Y-113500D01*
X846460Y-113820D01*
X849240Y-114179D01*
X852039Y-114240D01*
X854820Y-113940D01*
X856200Y-113680D01*
X858880Y-112899D01*
X861460Y-111800D01*
X863880Y-110420D01*
X866140Y-108760D01*
X868180Y-106840D01*
X869980Y-104680D01*
X871500Y-102340D01*
X872740Y-99840D01*
X873680Y-97200D01*
X874300Y-94460D01*
X874580Y-91679D01*
X874539Y-88880D01*
X874160Y-86100D01*
X873480Y-83400D01*
X872460Y-80780D01*
X871140Y-78320D01*
X869539Y-76020D01*
X867680Y-73920D01*
X838840Y-45119D01*
X836640Y-43400D01*
X834240Y-41940D01*
X831700Y-40780D01*
X830380Y-40300D01*
X827660Y-39600D01*
X824900Y-39240D01*
G37*
G36*
X712140Y72160D02*
G01*
X710740Y72140D01*
X707960Y71840D01*
X705240Y71220D01*
X702600Y70280D01*
X700100Y69040D01*
X697760Y67520D01*
X695620Y65720D01*
X694620Y64740D01*
X692840Y62600D01*
X691300Y60240D01*
X690060Y57740D01*
X689140Y55119D01*
X688780Y53760D01*
X688319Y51000D01*
X688199Y48200D01*
X688400Y45420D01*
X688620Y44040D01*
X689320Y41320D01*
X689780Y40000D01*
X690939Y37460D01*
X692400Y35080D01*
X694120Y32880D01*
X722920Y4020D01*
X725020Y2180D01*
X727320Y600D01*
X729780Y-700D01*
X732400Y-1700D01*
X735100Y-2380D01*
X737860Y-2740D01*
X740639Y-2780D01*
X743420Y-2480D01*
X746140Y-1860D01*
X747460Y-1440D01*
X750040Y-340D01*
X752460Y1040D01*
X754700Y2700D01*
X756720Y4620D01*
X758520Y6760D01*
X760040Y9100D01*
X761280Y11580D01*
X762220Y14220D01*
X762840Y16940D01*
X763120Y19700D01*
X763100Y22500D01*
X762740Y25259D01*
X762440Y26620D01*
X761580Y29280D01*
X760440Y31820D01*
X759000Y34200D01*
X758180Y35340D01*
X756340Y37420D01*
X727480Y66220D01*
X725280Y67940D01*
X724100Y68720D01*
X721640Y70020D01*
X719020Y71020D01*
X717680Y71420D01*
X714940Y71940D01*
G37*
G36*
X330700Y-53680D02*
G01*
X329120Y-55240D01*
X329120Y-73360D01*
X330700Y-74940D01*
X350400Y-74940D01*
X351980Y-73360D01*
X351980Y-55240D01*
X350400Y-53680D01*
G37*
G36*
X297200Y-53680D02*
G01*
X295620Y-55240D01*
X295620Y-73360D01*
X297200Y-74940D01*
X316900Y-74940D01*
X318480Y-73360D01*
X318480Y-55240D01*
X316900Y-53680D01*
G37*
G36*
X2540Y183200D02*
G01*
X580Y181240D01*
X580Y162340D01*
X2540Y159580D01*
X20259Y159580D01*
X22220Y162340D01*
X22220Y181240D01*
X20259Y183200D01*
G37*
G36*
X2540Y145420D02*
G01*
X580Y142660D01*
X580Y123760D01*
X2540Y121800D01*
X20259Y121800D01*
X22220Y123760D01*
X22220Y142660D01*
X20259Y145420D01*
G37*
G36*
X160159Y438500D02*
G01*
X158600Y436920D01*
X158600Y417220D01*
X160159Y415640D01*
X178280Y415640D01*
X179840Y417220D01*
X179840Y436920D01*
X178280Y438500D01*
G37*
G36*
X160159Y405020D02*
G01*
X158600Y403440D01*
X158600Y383720D01*
X160159Y382160D01*
X178280Y382160D01*
X179840Y383720D01*
X179840Y403440D01*
X178280Y405020D01*
G37*
G36*
X210420Y397760D02*
G01*
X208840Y396180D01*
X208840Y378080D01*
X210420Y376500D01*
X230120Y376500D01*
X231700Y378080D01*
X231700Y396180D01*
X230120Y397760D01*
G37*
G36*
X243900Y397760D02*
G01*
X242340Y396180D01*
X242340Y378080D01*
X243900Y376500D01*
X263620Y376500D01*
X265200Y378080D01*
X265200Y396180D01*
X263620Y397760D01*
G37*
G36*
X555480Y332800D02*
G01*
X541300Y319100D01*
X541260Y316880D01*
X553840Y303840D01*
X556060Y303800D01*
X570240Y317500D01*
X570280Y319720D01*
X557700Y332760D01*
G37*
G36*
X579580Y356060D02*
G01*
X565400Y342360D01*
X565360Y340140D01*
X577940Y327100D01*
X580160Y327060D01*
X594340Y340760D01*
X594380Y342980D01*
X581800Y356019D01*
G37*
G36*
X-25860Y-373020D02*
G01*
X-26820Y-373960D01*
X-26820Y-384840D01*
X-25860Y-385780D01*
X-15460Y-385780D01*
X-14520Y-384840D01*
X-14520Y-373960D01*
X-15460Y-373020D01*
G37*
G36*
X-44540Y-373020D02*
G01*
X-45480Y-373960D01*
X-45480Y-384840D01*
X-44540Y-385780D01*
X-34140Y-385780D01*
X-33180Y-384840D01*
X-33180Y-373960D01*
X-34140Y-373020D01*
G37*
G36*
X682120Y309660D02*
G01*
X668960Y297800D01*
X669340Y294440D01*
X681979Y280400D01*
X684760Y280260D01*
X697940Y292100D01*
X698080Y294880D01*
X685440Y308920D01*
G37*
G36*
X656840Y337740D02*
G01*
X643680Y325900D01*
X643520Y323120D01*
X656160Y309060D01*
X659479Y308340D01*
X672640Y320200D01*
X672260Y323560D01*
X659620Y337600D01*
G37*
G36*
X191360Y51540D02*
G01*
X189400Y49580D01*
X189400Y30680D01*
X191360Y27919D01*
X209080Y27919D01*
X211040Y30680D01*
X211040Y49580D01*
X209080Y51540D01*
G37*
G36*
X191360Y13740D02*
G01*
X189400Y10980D01*
X189400Y-7900D01*
X191360Y-9880D01*
X209080Y-9880D01*
X211040Y-7900D01*
X211040Y10980D01*
X209080Y13740D01*
G37*
G36*
X-168240Y237560D02*
G01*
X-171000Y235580D01*
X-171000Y217880D01*
X-168240Y215900D01*
X-149340Y215900D01*
X-147380Y217880D01*
X-147380Y235580D01*
X-149340Y237560D01*
G37*
G36*
X-206820Y237560D02*
G01*
X-208780Y235580D01*
X-208780Y217880D01*
X-206820Y215900D01*
X-187920Y215900D01*
X-185159Y217880D01*
X-185159Y235580D01*
X-187920Y237560D01*
G37*
G36*
X-268240Y197560D02*
G01*
X-271000Y195580D01*
X-271000Y177880D01*
X-268240Y175900D01*
X-249340Y175900D01*
X-247380Y177880D01*
X-247380Y195580D01*
X-249340Y197560D01*
G37*
G36*
X-306820Y197560D02*
G01*
X-308780Y195580D01*
X-308780Y177880D01*
X-306820Y175900D01*
X-287920Y175900D01*
X-285160Y177880D01*
X-285160Y195580D01*
X-287920Y197560D01*
G37*
G36*
X-345640Y79340D02*
G01*
X-347600Y76580D01*
X-347600Y57680D01*
X-345640Y55720D01*
X-327920Y55720D01*
X-325959Y57680D01*
X-325959Y76580D01*
X-327920Y79340D01*
G37*
G36*
X-345640Y117140D02*
G01*
X-347600Y115160D01*
X-347600Y96280D01*
X-345640Y93520D01*
X-327920Y93520D01*
X-325959Y96280D01*
X-325959Y115160D01*
X-327920Y117140D01*
G37*
G36*
X-47560Y326000D02*
G01*
X-49520Y324040D01*
X-49520Y305140D01*
X-47560Y302380D01*
X-29840Y302380D01*
X-27879Y305140D01*
X-27879Y324040D01*
X-29840Y326000D01*
G37*
G36*
X-47560Y288220D02*
G01*
X-49520Y285460D01*
X-49520Y266560D01*
X-47560Y264600D01*
X-29840Y264600D01*
X-27879Y266560D01*
X-27879Y285460D01*
X-29840Y288220D01*
G37*
G36*
X-294440Y-132360D02*
G01*
X-296400Y-135120D01*
X-296400Y-154020D01*
X-294440Y-155980D01*
X-276720Y-155980D01*
X-274760Y-154020D01*
X-274760Y-135120D01*
X-276720Y-132360D01*
G37*
G36*
X-294440Y-94560D02*
G01*
X-296400Y-96540D01*
X-296400Y-115420D01*
X-294440Y-118180D01*
X-276720Y-118180D01*
X-274760Y-115420D01*
X-274760Y-96540D01*
X-276720Y-94560D01*
G37*
G36*
X399640Y-402380D02*
G01*
X397680Y-405140D01*
X397680Y-424040D01*
X399640Y-426019D01*
X417360Y-426019D01*
X419320Y-424040D01*
X419320Y-405140D01*
X417360Y-402380D01*
G37*
G36*
X399640Y-364600D02*
G01*
X397680Y-366560D01*
X397680Y-385460D01*
X399640Y-388220D01*
X417360Y-388220D01*
X419320Y-385460D01*
X419320Y-366560D01*
X417360Y-364600D01*
G37*
G36*
X51760Y67560D02*
G01*
X49000Y65580D01*
X49000Y47880D01*
X51760Y45900D01*
X70660Y45900D01*
X72620Y47880D01*
X72620Y65580D01*
X70660Y67560D01*
G37*
G36*
X13180Y67560D02*
G01*
X11220Y65580D01*
X11220Y47880D01*
X13180Y45900D01*
X32080Y45900D01*
X34840Y47880D01*
X34840Y65580D01*
X32080Y67560D01*
G37*
G36*
X53160Y19260D02*
G01*
X50400Y17280D01*
X50400Y-420D01*
X53160Y-2400D01*
X72060Y-2400D01*
X74040Y-420D01*
X74040Y17280D01*
X72060Y19260D01*
G37*
G36*
X14580Y19260D02*
G01*
X12620Y17280D01*
X12620Y-420D01*
X14580Y-2400D01*
X33480Y-2400D01*
X36240Y-420D01*
X36240Y17280D01*
X33480Y19260D01*
G37*
G36*
X-82640Y218920D02*
G01*
X-83580Y217960D01*
X-83580Y205000D01*
X-82640Y204060D01*
X-71760Y204060D01*
X-70820Y205000D01*
X-70820Y217960D01*
X-71760Y218920D01*
G37*
G36*
X-82640Y240140D02*
G01*
X-83580Y239200D01*
X-83580Y226240D01*
X-82640Y225280D01*
X-71760Y225280D01*
X-70820Y226240D01*
X-70820Y239200D01*
X-71760Y240140D01*
G37*
G36*
X-102120Y-353980D02*
G01*
X-103680Y-355540D01*
X-103680Y-373660D01*
X-102120Y-375240D01*
X-82400Y-375240D01*
X-80820Y-373660D01*
X-80820Y-355540D01*
X-82400Y-353980D01*
G37*
G36*
X-135600Y-353980D02*
G01*
X-137180Y-355540D01*
X-137180Y-373660D01*
X-135600Y-375240D01*
X-115879Y-375240D01*
X-114320Y-373660D01*
X-114320Y-355540D01*
X-115879Y-353980D01*
G37*
G36*
X302360Y327200D02*
G01*
X300780Y325620D01*
X300780Y305920D01*
X302360Y304340D01*
X320480Y304340D01*
X322040Y305920D01*
X322040Y325620D01*
X320480Y327200D01*
G37*
G36*
X302360Y293720D02*
G01*
X300780Y292140D01*
X300780Y272420D01*
X302360Y270860D01*
X320480Y270860D01*
X322040Y272420D01*
X322040Y292140D01*
X320480Y293720D01*
G37*
G36*
X387299Y289060D02*
G01*
X385740Y287480D01*
X385740Y269380D01*
X387299Y267800D01*
X407020Y267800D01*
X408600Y269380D01*
X408600Y287480D01*
X407020Y289060D01*
G37*
G36*
X353820Y289060D02*
G01*
X352239Y287480D01*
X352239Y269380D01*
X353820Y267800D01*
X373540Y267800D01*
X375100Y269380D01*
X375100Y287480D01*
X373540Y289060D01*
G37*
G36*
X753000Y241420D02*
G01*
X751420Y239860D01*
X751420Y221740D01*
X753000Y220159D01*
X772700Y220159D01*
X774280Y221740D01*
X774280Y239860D01*
X772700Y241420D01*
G37*
G36*
X786500Y241420D02*
G01*
X784920Y239860D01*
X784920Y221740D01*
X786500Y220159D01*
X806200Y220159D01*
X807780Y221740D01*
X807780Y239860D01*
X806200Y241420D01*
G37*
G36*
X-168260Y291520D02*
G01*
X-171020Y289560D01*
X-171020Y271840D01*
X-168260Y269880D01*
X-149360Y269880D01*
X-147380Y271840D01*
X-147380Y289560D01*
X-149360Y291520D01*
G37*
G36*
X-206840Y291520D02*
G01*
X-208800Y289560D01*
X-208800Y271840D01*
X-206840Y269880D01*
X-187940Y269880D01*
X-185180Y271840D01*
X-185180Y289560D01*
X-187940Y291520D01*
G37*
G36*
X-395840Y79640D02*
G01*
X-397800Y76880D01*
X-397800Y57980D01*
X-395840Y56020D01*
X-378120Y56020D01*
X-376160Y57980D01*
X-376160Y76880D01*
X-378120Y79640D01*
G37*
G36*
X-395840Y117440D02*
G01*
X-397800Y115460D01*
X-397800Y96580D01*
X-395840Y93820D01*
X-378120Y93820D01*
X-376160Y96580D01*
X-376160Y115460D01*
X-378120Y117440D01*
G37*
G36*
X-293520Y288780D02*
G01*
X-294460Y287840D01*
X-294460Y274860D01*
X-293520Y273920D01*
X-282640Y273920D01*
X-281700Y274860D01*
X-281700Y287840D01*
X-282640Y288780D01*
G37*
G36*
X-293520Y267540D02*
G01*
X-294460Y266600D01*
X-294460Y253619D01*
X-293520Y252680D01*
X-282640Y252680D01*
X-281700Y253619D01*
X-281700Y266600D01*
X-282640Y267540D01*
G37*
G36*
X473180Y465460D02*
G01*
X459000Y451760D01*
X458960Y449540D01*
X471540Y436500D01*
X473760Y436460D01*
X487939Y450160D01*
X487980Y452380D01*
X475400Y465420D01*
G37*
G36*
X449080Y442180D02*
G01*
X434900Y428500D01*
X434860Y426280D01*
X447440Y413240D01*
X449660Y413200D01*
X463840Y426900D01*
X463880Y429120D01*
X451300Y442160D01*
G37*
G36*
X-348760Y271320D02*
G01*
X-351520Y269360D01*
X-351520Y251640D01*
X-348760Y249680D01*
X-329860Y249680D01*
X-327879Y251640D01*
X-327879Y269360D01*
X-329860Y271320D01*
G37*
G36*
X-387340Y271320D02*
G01*
X-389300Y269360D01*
X-389300Y251640D01*
X-387340Y249680D01*
X-368440Y249680D01*
X-365680Y251640D01*
X-365680Y269360D01*
X-368440Y271320D01*
G37*
G36*
X543460Y392960D02*
G01*
X529300Y379260D01*
X529260Y377040D01*
X541840Y364000D01*
X544060Y363960D01*
X558240Y377660D01*
X558280Y379880D01*
X545700Y392920D01*
G37*
G36*
X519380Y369700D02*
G01*
X505200Y356000D01*
X505160Y353780D01*
X517740Y340740D01*
X519980Y340700D01*
X534140Y354400D01*
X534180Y356620D01*
X521599Y369660D01*
G37*
G36*
X508060Y429260D02*
G01*
X493900Y415560D01*
X493860Y413340D01*
X506440Y400300D01*
X508660Y400260D01*
X522840Y413960D01*
X522879Y416180D01*
X510300Y429219D01*
G37*
G36*
X483980Y405980D02*
G01*
X469799Y392299D01*
X469760Y390080D01*
X482340Y377040D01*
X484580Y377000D01*
X498740Y390700D01*
X498780Y392920D01*
X486200Y405959D01*
G37*
G36*
X285780Y466620D02*
G01*
X284220Y465060D01*
X284220Y446940D01*
X285780Y445360D01*
X305500Y445360D01*
X307080Y446940D01*
X307080Y465060D01*
X305500Y466620D01*
G37*
G36*
X252300Y466620D02*
G01*
X250720Y465060D01*
X250720Y446940D01*
X252300Y445360D01*
X272020Y445360D01*
X273580Y446940D01*
X273580Y465060D01*
X272020Y466620D01*
G37*
G36*
X113900Y676919D02*
G01*
X112320Y675360D01*
X112320Y657240D01*
X113900Y655660D01*
X133600Y655660D01*
X135180Y657240D01*
X135180Y675360D01*
X133600Y676919D01*
G37*
G36*
X147380Y676919D02*
G01*
X145820Y675360D01*
X145820Y657240D01*
X147380Y655660D01*
X167100Y655660D01*
X168680Y657240D01*
X168680Y675360D01*
X167100Y676919D01*
G37*
G36*
X634940Y185219D02*
G01*
X632180Y183260D01*
X632180Y165539D01*
X634940Y163580D01*
X653840Y163580D01*
X655819Y165539D01*
X655819Y183260D01*
X653840Y185219D01*
G37*
G36*
X596360Y185219D02*
G01*
X594400Y183260D01*
X594400Y165539D01*
X596360Y163580D01*
X615260Y163580D01*
X618020Y165539D01*
X618020Y183260D01*
X615260Y185219D01*
G37*
G36*
X540140Y184520D02*
G01*
X538180Y181759D01*
X538180Y162860D01*
X540140Y160880D01*
X557860Y160880D01*
X559820Y162860D01*
X559820Y181759D01*
X557860Y184520D01*
G37*
G36*
X540140Y222300D02*
G01*
X538180Y220340D01*
X538180Y201439D01*
X540140Y198680D01*
X557860Y198680D01*
X559820Y201439D01*
X559820Y220340D01*
X557860Y222300D01*
G37*
G36*
X588700Y133820D02*
G01*
X587120Y132260D01*
X587120Y114140D01*
X588700Y112560D01*
X608420Y112560D01*
X609980Y114140D01*
X609980Y132260D01*
X608420Y133820D01*
G37*
G36*
X622200Y133820D02*
G01*
X620620Y132260D01*
X620620Y114140D01*
X622200Y112560D01*
X641900Y112560D01*
X643480Y114140D01*
X643480Y132260D01*
X641900Y133820D01*
G37*
G36*
X621000Y83320D02*
G01*
X619420Y81760D01*
X619420Y63640D01*
X621000Y62060D01*
X640699Y62060D01*
X642280Y63640D01*
X642280Y81760D01*
X640699Y83320D01*
G37*
G36*
X587500Y83320D02*
G01*
X585920Y81760D01*
X585920Y63640D01*
X587500Y62060D01*
X607220Y62060D01*
X608780Y63640D01*
X608780Y81760D01*
X607220Y83320D01*
G37*
G36*
X-22559Y551680D02*
G01*
X-23520Y550740D01*
X-23520Y539860D01*
X-22559Y538920D01*
X-12160Y538920D01*
X-11220Y539860D01*
X-11220Y550740D01*
X-12160Y551680D01*
G37*
G36*
X-41240Y551680D02*
G01*
X-42180Y550740D01*
X-42180Y539860D01*
X-41240Y538920D01*
X-30840Y538920D01*
X-29880Y539860D01*
X-29880Y550740D01*
X-30840Y551680D01*
G37*
G36*
X457100Y177020D02*
G01*
X455520Y175460D01*
X455520Y157340D01*
X457100Y155760D01*
X476800Y155760D01*
X478380Y157340D01*
X478380Y175460D01*
X476800Y177020D01*
G37*
G36*
X490600Y177020D02*
G01*
X489020Y175460D01*
X489020Y157340D01*
X490600Y155760D01*
X510300Y155760D01*
X511880Y157340D01*
X511880Y175460D01*
X510300Y177020D01*
G37*
G36*
X52100Y-58680D02*
G01*
X50519Y-60240D01*
X50519Y-78360D01*
X52100Y-79940D01*
X71800Y-79940D01*
X73380Y-78360D01*
X73380Y-60240D01*
X71800Y-58680D01*
G37*
G36*
X85600Y-58680D02*
G01*
X84019Y-60240D01*
X84019Y-78360D01*
X85600Y-79940D01*
X105300Y-79940D01*
X106880Y-78360D01*
X106880Y-60240D01*
X105300Y-58680D01*
G37*
G36*
X196700Y646820D02*
G01*
X195120Y645260D01*
X195120Y627140D01*
X196700Y625560D01*
X216400Y625560D01*
X217979Y627140D01*
X217979Y645260D01*
X216400Y646820D01*
G37*
G36*
X230200Y646820D02*
G01*
X228619Y645260D01*
X228619Y627140D01*
X230200Y625560D01*
X249899Y625560D01*
X251480Y627140D01*
X251480Y645260D01*
X249899Y646820D01*
G37*
G36*
X722400Y312520D02*
G01*
X720819Y310960D01*
X720819Y292840D01*
X722400Y291260D01*
X742120Y291260D01*
X743680Y292840D01*
X743680Y310960D01*
X742120Y312520D01*
G37*
G36*
X755879Y312520D02*
G01*
X754320Y310960D01*
X754320Y292840D01*
X755879Y291260D01*
X775600Y291260D01*
X777180Y292840D01*
X777180Y310960D01*
X775600Y312520D01*
G37*
G36*
X672240Y613580D02*
G01*
X670680Y612000D01*
X670680Y592280D01*
X672240Y590720D01*
X690360Y590720D01*
X691940Y592280D01*
X691940Y612000D01*
X690360Y613580D01*
G37*
G36*
X672240Y580080D02*
G01*
X670680Y578500D01*
X670680Y558800D01*
X672240Y557220D01*
X690360Y557220D01*
X691940Y558800D01*
X691940Y578500D01*
X690360Y580080D01*
G37*
G36*
X701000Y670520D02*
G01*
X699419Y668960D01*
X699419Y650840D01*
X701000Y649260D01*
X720699Y649260D01*
X722280Y650840D01*
X722280Y668960D01*
X720699Y670520D01*
G37*
G36*
X667500Y670520D02*
G01*
X665920Y668960D01*
X665920Y650840D01*
X667500Y649260D01*
X687220Y649260D01*
X688780Y650840D01*
X688780Y668960D01*
X687220Y670520D01*
G37*
D52*
X79997Y-191970D02*
G01*
X123303Y-191970D01*
X79997Y-166370D02*
G01*
X123303Y-166370D01*
X79997Y-140770D02*
G01*
X123303Y-140770D01*
X79997Y-115170D02*
G01*
X123303Y-115170D01*
X308335Y-191970D02*
G01*
X351643Y-191970D01*
X308335Y-166370D02*
G01*
X351643Y-166370D01*
X308335Y-140770D02*
G01*
X351643Y-140770D01*
X308335Y-115170D02*
G01*
X351643Y-115170D01*
D53*
G01*
X18100Y300399D03*
G01*
X109420Y298549D03*
G01*
X110200Y232099D03*
G01*
X16599Y231799D03*
G36*
X481746Y557818D02*
G01*
X490097Y549466D01*
X524895Y584265D01*
X516544Y592616D01*
G37*
G36*
X495664Y543899D02*
G01*
X504017Y535547D01*
X538815Y570345D01*
X530462Y578697D01*
G37*
G36*
X509584Y529980D02*
G01*
X517937Y521627D01*
X552735Y556425D01*
X544382Y564778D01*
G37*
G36*
X523504Y516061D02*
G01*
X531855Y507708D01*
X566653Y542506D01*
X558302Y550858D01*
G37*
G36*
X537424Y502141D02*
G01*
X545775Y493789D01*
X580573Y528587D01*
X572220Y536939D01*
G37*
G36*
X551342Y488221D02*
G01*
X559695Y479871D01*
X594493Y514667D01*
X586140Y523020D01*
G37*
G36*
X565262Y474302D02*
G01*
X573614Y465950D01*
X608413Y500748D01*
X600060Y509102D01*
G37*
G36*
X579182Y460384D02*
G01*
X587533Y452030D01*
X622331Y486829D01*
X613980Y495181D01*
G37*
G36*
X593100Y446463D02*
G01*
X601453Y438111D01*
X636252Y472909D01*
X627898Y481261D01*
G37*
G36*
X607020Y432544D02*
G01*
X615372Y424191D01*
X650171Y458990D01*
X641818Y467342D01*
G37*
G36*
X620940Y418625D02*
G01*
X629291Y410272D01*
X664089Y445071D01*
X655738Y453424D01*
G37*
G36*
X634858Y404706D02*
G01*
X643212Y396353D01*
X678010Y431151D01*
X669656Y439503D01*
G37*
G36*
X292906Y591690D02*
G01*
X281094Y591690D01*
X281094Y540508D01*
X292906Y540508D01*
G37*
G36*
X272906Y591690D02*
G01*
X261094Y591690D01*
X261094Y540508D01*
X272906Y540508D01*
G37*
G36*
X252906Y591690D02*
G01*
X241094Y591690D01*
X241094Y540508D01*
X252906Y540508D01*
G37*
G36*
X232906Y591690D02*
G01*
X221094Y591690D01*
X221094Y540508D01*
X232906Y540508D01*
G37*
G36*
X212906Y591690D02*
G01*
X201094Y591690D01*
X201094Y540508D01*
X212906Y540508D01*
G37*
G36*
X142280Y-464875D02*
G01*
X142280Y-504245D01*
X165900Y-504245D01*
X165900Y-464875D01*
G37*
G36*
X209210Y-464875D02*
G01*
X209210Y-504245D01*
X232830Y-504245D01*
X232830Y-464875D01*
G37*
G36*
X276139Y-464875D02*
G01*
X276139Y-504245D01*
X299759Y-504245D01*
X299759Y-464875D01*
G37*
G36*
X86180Y-250314D02*
G01*
X86180Y-321185D01*
X113739Y-321185D01*
X113739Y-250314D01*
G37*
G36*
X328299Y-250314D02*
G01*
X328299Y-321185D01*
X355860Y-321185D01*
X355860Y-250314D01*
G37*
G36*
X-110708Y-104305D02*
G01*
X-110708Y-171234D01*
X-152046Y-171234D01*
X-152046Y-104305D01*
G37*
G36*
X-51652Y-104305D02*
G01*
X-51652Y-171234D01*
X-10313Y-171234D01*
X-10313Y-104305D01*
G37*
G36*
X401840Y512865D02*
G01*
X401840Y463653D01*
X429399Y463653D01*
X429399Y512865D01*
G37*
G36*
X327040Y512865D02*
G01*
X327040Y463653D01*
X354600Y463653D01*
X354600Y512865D01*
G37*
G36*
X364440Y591605D02*
G01*
X364440Y542393D01*
X391999Y542393D01*
X391999Y591605D01*
G37*
G36*
X-312253Y-38112D02*
G01*
X-333906Y-38112D01*
X-333906Y-53860D01*
X-312253Y-53860D01*
G37*
G36*
X-312253Y-2679D02*
G01*
X-333906Y-2679D01*
X-333906Y-18427D01*
X-312253Y-18427D01*
G37*
G36*
X-111395Y-230043D02*
G01*
X-142890Y-230043D01*
X-142890Y-261539D01*
X-111395Y-261539D01*
G37*
G36*
X-111670Y-292996D02*
G01*
X-143167Y-292996D01*
X-143167Y-324492D01*
X-111670Y-324492D01*
G37*
G36*
X-207371Y343426D02*
G01*
X-207371Y430040D01*
X-250677Y430040D01*
X-250677Y343426D01*
G37*
G36*
X-267411Y462515D02*
G01*
X-308750Y462515D01*
X-308750Y423145D01*
X-267411Y423145D01*
G37*
G36*
X-325482Y343425D02*
G01*
X-325482Y430039D01*
X-368788Y430039D01*
X-368788Y343425D01*
G37*
G36*
X-267411Y350313D02*
G01*
X-308750Y350313D01*
X-308750Y310943D01*
X-267411Y310943D01*
G37*
D66*
G01*
X-48299Y122599D03*
G01*
X-48299Y106849D03*
G01*
X-48299Y91099D03*
G01*
X-48299Y75349D03*
G01*
X-48299Y59599D03*
G01*
X-48299Y43859D03*
G01*
X-48299Y28109D03*
G01*
X-48299Y12359D03*
G01*
X-48299Y-3390D03*
G01*
X-48299Y-19140D03*
G36*
X-67803Y-56143D02*
G01*
X-76622Y-56143D01*
X-76622Y-29963D01*
X-67803Y-29963D01*
G37*
G36*
X-83551Y-56143D02*
G01*
X-92371Y-56143D01*
X-92371Y-29963D01*
X-83551Y-29963D01*
G37*
G36*
X-99300Y-56143D02*
G01*
X-108118Y-56143D01*
X-108118Y-29963D01*
X-99300Y-29963D01*
G37*
G36*
X-115048Y-56143D02*
G01*
X-123867Y-56143D01*
X-123867Y-29963D01*
X-115048Y-29963D01*
G37*
G36*
X-130797Y-56143D02*
G01*
X-139615Y-56143D01*
X-139615Y-29963D01*
X-130797Y-29963D01*
G37*
G36*
X-146544Y-56143D02*
G01*
X-155362Y-56143D01*
X-155362Y-29963D01*
X-146544Y-29963D01*
G37*
G36*
X-162292Y-56143D02*
G01*
X-171111Y-56143D01*
X-171111Y-29963D01*
X-162292Y-29963D01*
G37*
G36*
X-178041Y-56143D02*
G01*
X-186859Y-56143D01*
X-186859Y-29963D01*
X-178041Y-29963D01*
G37*
G36*
X-193788Y-56143D02*
G01*
X-202608Y-56143D01*
X-202608Y-29963D01*
X-193788Y-29963D01*
G37*
G36*
X-209537Y-56143D02*
G01*
X-218356Y-56143D01*
X-218356Y-29963D01*
X-209537Y-29963D01*
G37*
G36*
X-250954Y-14727D02*
G01*
X-224772Y-14727D01*
X-224772Y-23546D01*
X-250954Y-23546D01*
G37*
G36*
X-250954Y1020D02*
G01*
X-224772Y1020D01*
X-224772Y-7798D01*
X-250954Y-7798D01*
G37*
G36*
X-250954Y16768D02*
G01*
X-224772Y16768D01*
X-224772Y7950D01*
X-250954Y7950D01*
G37*
G36*
X-250954Y32516D02*
G01*
X-224772Y32516D01*
X-224772Y23698D01*
X-250954Y23698D01*
G37*
G36*
X-250954Y48264D02*
G01*
X-224772Y48264D01*
X-224772Y39446D01*
X-250954Y39446D01*
G37*
G36*
X-250954Y64012D02*
G01*
X-224772Y64012D01*
X-224772Y55194D01*
X-250954Y55194D01*
G37*
G36*
X-250954Y79760D02*
G01*
X-224772Y79760D01*
X-224772Y70942D01*
X-250954Y70942D01*
G37*
G36*
X-250954Y95509D02*
G01*
X-224772Y95509D01*
X-224772Y86690D01*
X-250954Y86690D01*
G37*
G36*
X-250954Y111258D02*
G01*
X-224772Y111258D01*
X-224772Y102438D01*
X-250954Y102438D01*
G37*
G36*
X-250954Y127005D02*
G01*
X-224772Y127005D01*
X-224772Y118186D01*
X-250954Y118186D01*
G37*
G36*
X-209537Y133422D02*
G01*
X-218356Y133422D01*
X-218356Y159603D01*
X-209537Y159603D01*
G37*
G36*
X-193788Y133422D02*
G01*
X-202608Y133422D01*
X-202608Y159603D01*
X-193788Y159603D01*
G37*
G36*
X-178041Y133422D02*
G01*
X-186859Y133422D01*
X-186859Y159603D01*
X-178041Y159603D01*
G37*
G36*
X-162292Y133422D02*
G01*
X-171111Y133422D01*
X-171111Y159603D01*
X-162292Y159603D01*
G37*
G36*
X-146544Y133422D02*
G01*
X-155362Y133422D01*
X-155362Y159603D01*
X-146544Y159603D01*
G37*
G36*
X-130797Y133422D02*
G01*
X-139615Y133422D01*
X-139615Y159603D01*
X-130797Y159603D01*
G37*
G36*
X-115048Y133422D02*
G01*
X-123867Y133422D01*
X-123867Y159603D01*
X-115048Y159603D01*
G37*
G36*
X-99300Y133422D02*
G01*
X-108118Y133422D01*
X-108118Y159603D01*
X-99300Y159603D01*
G37*
G36*
X-83551Y133422D02*
G01*
X-92371Y133422D01*
X-92371Y159603D01*
X-83551Y159603D01*
G37*
G36*
X-67803Y133422D02*
G01*
X-76622Y133422D01*
X-76622Y159603D01*
X-67803Y159603D01*
G37*
D68*
G01*
X-143079Y51729D03*
G36*
X29449Y-239536D02*
G01*
X29449Y-200166D01*
X7795Y-200166D01*
X7795Y-239536D01*
G37*
G36*
X-7950Y-239536D02*
G01*
X-7950Y-200166D01*
X-29603Y-200166D01*
X-29603Y-239536D01*
G37*
G36*
X-45349Y-239536D02*
G01*
X-45349Y-200166D01*
X-67003Y-200166D01*
X-67003Y-239536D01*
G37*
G36*
X-45349Y-349776D02*
G01*
X-45349Y-310406D01*
X-67003Y-310406D01*
X-67003Y-349776D01*
G37*
G36*
X-7950Y-349776D02*
G01*
X-7950Y-310406D01*
X-29603Y-310406D01*
X-29603Y-349776D01*
G37*
G36*
X29449Y-349776D02*
G01*
X29449Y-310406D01*
X7795Y-310406D01*
X7795Y-349776D01*
G37*
G36*
X248608Y196907D02*
G01*
X272231Y196907D01*
X272231Y244151D01*
X248608Y244151D01*
G37*
G36*
X298608Y196907D02*
G01*
X322231Y196907D01*
X322231Y244151D01*
X298608Y244151D01*
G37*
G36*
X348608Y196907D02*
G01*
X372231Y196907D01*
X372231Y244151D01*
X348608Y244151D01*
G37*
G36*
X398608Y196907D02*
G01*
X422231Y196907D01*
X422231Y244151D01*
X398608Y244151D01*
G37*
G36*
X398608Y-32091D02*
G01*
X422231Y-32091D01*
X422231Y15152D01*
X398608Y15152D01*
G37*
G36*
X348608Y-32091D02*
G01*
X372231Y-32091D01*
X372231Y15152D01*
X348608Y15152D01*
G37*
G36*
X298608Y-32091D02*
G01*
X322231Y-32091D01*
X322231Y15152D01*
X298608Y15152D01*
G37*
G36*
X248608Y-32091D02*
G01*
X272231Y-32091D01*
X272231Y15152D01*
X248608Y15152D01*
G37*
G36*
X404319Y155240D02*
G01*
X266520Y155240D01*
X266520Y56819D01*
X404319Y56819D01*
G37*
G36*
X-81013Y718256D02*
G01*
X-65000Y682289D01*
X-14646Y704707D01*
X-30661Y740675D01*
G37*
G36*
X61054Y781507D02*
G01*
X77069Y745541D01*
X127421Y767959D01*
X111408Y803925D01*
G37*
G36*
X14630Y709123D02*
G01*
X22637Y691140D01*
X62202Y708754D01*
X54194Y726739D01*
G37*
G36*
X166784Y805557D02*
G01*
X166784Y766187D01*
X221903Y766187D01*
X221903Y805557D01*
G37*
G36*
X322296Y805556D02*
G01*
X322296Y766186D01*
X377415Y766186D01*
X377415Y805556D01*
G37*
G36*
X250446Y758312D02*
G01*
X250446Y738627D01*
X293753Y738627D01*
X293753Y758312D01*
G37*
G36*
X-256563Y553853D02*
G01*
X-229714Y525060D01*
X-189402Y562649D01*
X-216252Y591444D01*
G37*
G36*
X-142829Y659913D02*
G01*
X-115978Y631118D01*
X-75667Y668707D01*
X-102518Y697501D01*
G37*
G36*
X-163155Y576357D02*
G01*
X-149732Y561961D01*
X-118058Y591495D01*
X-131482Y605893D01*
G37*
G36*
X508041Y127552D02*
G01*
X508041Y121646D01*
X525757Y121646D01*
X525757Y127552D01*
G37*
G36*
X508041Y113772D02*
G01*
X508041Y107866D01*
X525757Y107866D01*
X525757Y113772D01*
G37*
G36*
X508041Y99992D02*
G01*
X508041Y94086D01*
X525757Y94086D01*
X525757Y99992D01*
G37*
G36*
X508041Y86212D02*
G01*
X508041Y80306D01*
X525757Y80306D01*
X525757Y86212D01*
G37*
G36*
X480482Y86212D02*
G01*
X480482Y80306D01*
X498198Y80306D01*
X498198Y86212D01*
G37*
G36*
X480482Y99992D02*
G01*
X480482Y94086D01*
X498198Y94086D01*
X498198Y99992D01*
G37*
G36*
X480482Y113772D02*
G01*
X480482Y107866D01*
X498198Y107866D01*
X498198Y113772D01*
G37*
G36*
X480482Y127552D02*
G01*
X480482Y121646D01*
X498198Y121646D01*
X498198Y127552D01*
G37*
G36*
X534564Y720919D02*
G01*
X583775Y720919D01*
X583775Y748479D01*
X534564Y748479D01*
G37*
G36*
X534564Y646121D02*
G01*
X583775Y646121D01*
X583775Y673679D01*
X534564Y673679D01*
G37*
G36*
X455824Y683520D02*
G01*
X505036Y683520D01*
X505036Y711079D01*
X455824Y711079D01*
G37*
M02*
