G04 Layer: InnerLayer1*
G04 EasyEDA v6.5.5, 2022-05-23 17:46:57*
G04 b170b76dcbfd4e769ccdd405e25ecab7,c17a8ced473b4d519dda31697e0e54b6,10*
G04 Gerber Generator version 0.2*
G04 Scale: 100 percent, Rotated: No, Reflected: No *
G04 Dimensions in inches *
G04 leading zeros omitted , absolute positions ,3 integer and 6 decimal *
%FSLAX36Y36*%
%MOIN*%

%ADD21C,0.0240*%
%ADD40R,0.0669X0.0669*%
%ADD41C,0.0669*%
%ADD42C,0.0472*%

%LPD*%
G36*
X262547Y-525684D02*
G01*
X255029Y-525641D01*
X247511Y-525519D01*
X239997Y-525316D01*
X232484Y-525034D01*
X224975Y-524671D01*
X217470Y-524229D01*
X209970Y-523706D01*
X202478Y-523104D01*
X194991Y-522423D01*
X187511Y-521661D01*
X180041Y-520821D01*
X172579Y-519900D01*
X165128Y-518901D01*
X157689Y-517822D01*
X150259Y-516664D01*
X142844Y-515427D01*
X135442Y-514111D01*
X128055Y-512716D01*
X120684Y-511243D01*
X113328Y-509692D01*
X105988Y-508062D01*
X98666Y-506355D01*
X91364Y-504569D01*
X84080Y-502706D01*
X76818Y-500766D01*
X69575Y-498748D01*
X62355Y-496654D01*
X55159Y-494482D01*
X47984Y-492235D01*
X40834Y-489911D01*
X33711Y-487511D01*
X26611Y-485035D01*
X19539Y-482484D01*
X12496Y-479858D01*
X5479Y-477158D01*
X-1507Y-474382D01*
X-8464Y-471533D01*
X-15389Y-468609D01*
X-22283Y-465612D01*
X-29147Y-462542D01*
X-35976Y-459399D01*
X-42771Y-456184D01*
X-49531Y-452896D01*
X-56257Y-449537D01*
X-62947Y-446106D01*
X-69600Y-442604D01*
X-76215Y-439032D01*
X-82790Y-435389D01*
X-89327Y-431677D01*
X-95825Y-427895D01*
X-102282Y-424045D01*
X-108698Y-420126D01*
X-115072Y-416139D01*
X-121401Y-412084D01*
X-127690Y-407962D01*
X-133932Y-403774D01*
X-140129Y-399519D01*
X-146283Y-395199D01*
X-152389Y-390813D01*
X-158447Y-386363D01*
X-164458Y-381848D01*
X-170421Y-377270D01*
X-176336Y-372628D01*
X-182200Y-367924D01*
X-188014Y-363158D01*
X-193777Y-358330D01*
X-199488Y-353441D01*
X-205146Y-348492D01*
X-210752Y-343482D01*
X-216305Y-338414D01*
X-221801Y-333286D01*
X-227245Y-328100D01*
X-232632Y-322857D01*
X-237964Y-317557D01*
X-243239Y-312200D01*
X-248455Y-306787D01*
X-253616Y-301319D01*
X-258716Y-295797D01*
X-263759Y-290220D01*
X-268741Y-284591D01*
X-273662Y-278908D01*
X-278524Y-273174D01*
X-283325Y-267388D01*
X-288063Y-261551D01*
X-292739Y-255664D01*
X-297352Y-249728D01*
X-301902Y-243743D01*
X-306387Y-237710D01*
X-310807Y-231630D01*
X-315164Y-225503D01*
X-319454Y-219330D01*
X-323680Y-213111D01*
X-327839Y-206848D01*
X-331930Y-200542D01*
X-335954Y-194191D01*
X-339911Y-187799D01*
X-343798Y-181365D01*
X-347618Y-174889D01*
X-351369Y-168374D01*
X-355050Y-161819D01*
X-358661Y-155225D01*
X-362200Y-148593D01*
X-365671Y-141924D01*
X-369068Y-135218D01*
X-372395Y-128476D01*
X-375650Y-121700D01*
X-378833Y-114889D01*
X-381944Y-108044D01*
X-384980Y-101167D01*
X-387944Y-94258D01*
X-390834Y-87318D01*
X-393650Y-80348D01*
X-396392Y-73348D01*
X-399059Y-66319D01*
X-401652Y-59262D01*
X-404169Y-52178D01*
X-406611Y-45068D01*
X-408976Y-37932D01*
X-411265Y-30771D01*
X-413478Y-23586D01*
X-415614Y-16379D01*
X-417674Y-9149D01*
X-419657Y-1897D01*
X-421562Y5374D01*
X-423391Y12667D01*
X-425141Y19978D01*
X-426814Y27307D01*
X-428407Y34654D01*
X-429924Y42018D01*
X-431361Y49397D01*
X-432721Y56791D01*
X-434000Y64199D01*
X-435203Y71620D01*
X-436324Y79054D01*
X-437367Y86499D01*
X-438332Y93954D01*
X-439215Y101420D01*
X-440020Y108895D01*
X-440747Y116377D01*
X-441391Y123867D01*
X-441958Y131364D01*
X-442443Y138866D01*
X-442851Y146373D01*
X-443176Y153884D01*
X-443423Y161397D01*
X-443590Y168913D01*
X-443676Y176431D01*
X-443683Y183949D01*
X-443609Y191466D01*
X-443455Y198982D01*
X-443222Y206496D01*
X-442908Y214008D01*
X-442515Y221515D01*
X-442043Y229018D01*
X-441490Y236516D01*
X-440856Y244007D01*
X-440145Y251491D01*
X-439353Y258967D01*
X-438481Y266434D01*
X-437529Y273891D01*
X-436499Y281338D01*
X-435390Y288774D01*
X-434201Y296197D01*
X-432934Y303607D01*
X-431589Y311004D01*
X-430164Y318385D01*
X-428661Y325751D01*
X-427079Y333101D01*
X-425419Y340433D01*
X-423681Y347747D01*
X-421866Y355043D01*
X-419974Y362318D01*
X-418002Y369574D01*
X-415955Y376807D01*
X-413832Y384019D01*
X-411630Y391207D01*
X-409354Y398372D01*
X-407001Y405512D01*
X-404571Y412627D01*
X-402066Y419715D01*
X-399486Y426776D01*
X-396832Y433810D01*
X-394102Y440814D01*
X-391298Y447790D01*
X-388420Y454735D01*
X-385469Y461649D01*
X-382443Y468531D01*
X-379345Y475381D01*
X-376175Y482197D01*
X-372930Y488980D01*
X-369615Y495727D01*
X-366229Y502439D01*
X-362771Y509114D01*
X-359242Y515752D01*
X-355643Y522352D01*
X-351972Y528914D01*
X-348234Y535436D01*
X-344426Y541917D01*
X-340549Y548358D01*
X-336602Y554758D01*
X-332590Y561115D01*
X-328509Y567429D01*
X-324362Y573699D01*
X-320147Y579925D01*
X-315868Y586105D01*
X-311521Y592240D01*
X-307111Y598328D01*
X-302637Y604369D01*
X-298096Y610362D01*
X-293495Y616306D01*
X-288828Y622200D01*
X-284101Y628045D01*
X-279310Y633840D01*
X-274458Y639582D01*
X-269547Y645273D01*
X-264574Y650912D01*
X-259542Y656497D01*
X-254450Y662028D01*
X-249300Y667505D01*
X-244093Y672927D01*
X-238827Y678293D01*
X-233504Y683602D01*
X-228127Y688855D01*
X-222692Y694050D01*
X-217204Y699187D01*
X-211660Y704265D01*
X-206063Y709284D01*
X-200412Y714244D01*
X-194710Y719143D01*
X-188955Y723980D01*
X-183150Y728757D01*
X-177295Y733471D01*
X-171388Y738123D01*
X-165433Y742711D01*
X-159430Y747236D01*
X-155150Y750391D01*
X-155150Y737373D01*
X-187196Y707491D01*
X-187427Y707262D01*
X-187646Y707022D01*
X-187852Y706770D01*
X-188045Y706508D01*
X-188221Y706236D01*
X-188383Y705954D01*
X-188531Y705664D01*
X-188661Y705366D01*
X-188775Y705062D01*
X-188873Y704752D01*
X-188954Y704438D01*
X-189017Y704119D01*
X-189065Y703797D01*
X-189093Y703474D01*
X-189104Y703149D01*
X-189098Y702824D01*
X-189075Y702500D01*
X-189032Y702178D01*
X-188975Y701858D01*
X-188899Y701542D01*
X-188806Y701232D01*
X-188695Y700925D01*
X-188569Y700625D01*
X-188428Y700333D01*
X-188270Y700049D01*
X-188096Y699774D01*
X-187910Y699509D01*
X-187708Y699254D01*
X-187493Y699010D01*
X-160641Y670215D01*
X-160414Y669983D01*
X-160173Y669765D01*
X-159921Y669559D01*
X-159660Y669367D01*
X-159386Y669190D01*
X-159106Y669028D01*
X-158815Y668881D01*
X-158518Y668751D01*
X-158213Y668636D01*
X-157903Y668538D01*
X-157590Y668458D01*
X-157271Y668394D01*
X-156949Y668347D01*
X-156625Y668319D01*
X-156301Y668307D01*
X-155976Y668313D01*
X-155652Y668337D01*
X-155330Y668379D01*
X-155150Y668412D01*
X-155150Y609149D01*
X-154449Y608449D01*
X465749Y608449D01*
X469350Y612049D01*
X469350Y814449D01*
X467025Y857119D01*
X468787Y856592D01*
X475965Y854362D01*
X483121Y852055D01*
X490252Y849674D01*
X497355Y847214D01*
X504434Y844681D01*
X511485Y842072D01*
X518506Y839388D01*
X525501Y836630D01*
X532465Y833797D01*
X539398Y830891D01*
X546300Y827911D01*
X553170Y824857D01*
X560006Y821731D01*
X566809Y818532D01*
X573578Y815261D01*
X580312Y811918D01*
X587010Y808504D01*
X593671Y805018D01*
X600294Y801462D01*
X606880Y797836D01*
X613425Y794139D01*
X619933Y790373D01*
X626399Y786540D01*
X632824Y782635D01*
X639207Y778664D01*
X645547Y774625D01*
X651845Y770518D01*
X658098Y766345D01*
X664306Y762105D01*
X670469Y757800D01*
X676585Y753429D01*
X682655Y748994D01*
X688679Y744494D01*
X694652Y739930D01*
X700577Y735303D01*
X706454Y730613D01*
X712278Y725861D01*
X718054Y721047D01*
X723777Y716172D01*
X729447Y711237D01*
X735065Y706241D01*
X740630Y701186D01*
X746139Y696072D01*
X751595Y690899D01*
X756995Y685669D01*
X762340Y680382D01*
X767628Y675038D01*
X772858Y669638D01*
X778032Y664183D01*
X783145Y658673D01*
X788202Y653109D01*
X793198Y647491D01*
X798134Y641821D01*
X803009Y636098D01*
X807822Y630324D01*
X812575Y624499D01*
X817265Y618624D01*
X821893Y612699D01*
X826458Y606725D01*
X830958Y600703D01*
X835393Y594633D01*
X839764Y588517D01*
X844071Y582354D01*
X848311Y576146D01*
X852484Y569893D01*
X856592Y563596D01*
X860631Y557256D01*
X864602Y550873D01*
X868506Y544449D01*
X872341Y537983D01*
X876108Y531476D01*
X879804Y524930D01*
X883432Y518345D01*
X886989Y511722D01*
X890474Y505061D01*
X893890Y498364D01*
X897232Y491630D01*
X900505Y484862D01*
X903703Y478058D01*
X906831Y471222D01*
X909885Y464352D01*
X912866Y457450D01*
X915772Y450517D01*
X918605Y443554D01*
X921364Y436560D01*
X924049Y429538D01*
X926657Y422488D01*
X929192Y415410D01*
X931651Y408305D01*
X934034Y401175D01*
X936341Y394020D01*
X938572Y386841D01*
X940726Y379638D01*
X942803Y372413D01*
X944804Y365167D01*
X946727Y357899D01*
X948572Y350611D01*
X950340Y343304D01*
X952030Y335979D01*
X953643Y328636D01*
X955177Y321276D01*
X956633Y313901D01*
X958010Y306510D01*
X959308Y299105D01*
X960528Y291687D01*
X961667Y284256D01*
X962730Y276814D01*
X963711Y269360D01*
X964614Y261897D01*
X965437Y254424D01*
X966180Y246943D01*
X966845Y239455D01*
X967429Y231960D01*
X967933Y224459D01*
X968357Y216953D01*
X968702Y209443D01*
X968968Y201930D01*
X969152Y194414D01*
X969257Y186897D01*
X969282Y179379D01*
X969227Y171862D01*
X969092Y164345D01*
X968877Y156830D01*
X968581Y149318D01*
X968207Y141810D01*
X967752Y134306D01*
X967218Y126807D01*
X966603Y119314D01*
X965909Y111829D01*
X965135Y104351D01*
X964282Y96881D01*
X963348Y89422D01*
X962336Y81972D01*
X961246Y74534D01*
X960075Y67108D01*
X958825Y59695D01*
X957497Y52295D01*
X956090Y44910D01*
X954606Y37540D01*
X953042Y30187D01*
X951400Y22850D01*
X949681Y15532D01*
X947883Y8232D01*
X946008Y952D01*
X944056Y-6307D01*
X942025Y-13546D01*
X939920Y-20762D01*
X937736Y-27956D01*
X935477Y-35126D01*
X933140Y-42272D01*
X930730Y-49393D01*
X928242Y-56487D01*
X925680Y-63555D01*
X923041Y-70594D01*
X920329Y-77606D01*
X917542Y-84588D01*
X914681Y-91540D01*
X911746Y-98461D01*
X908738Y-105351D01*
X905655Y-112208D01*
X902502Y-119032D01*
X899274Y-125823D01*
X895977Y-132578D01*
X892605Y-139298D01*
X889164Y-145982D01*
X885650Y-152628D01*
X882067Y-159237D01*
X878415Y-165807D01*
X875088Y-171649D01*
X687389Y16050D01*
X433189Y-237449D01*
X433189Y-240349D01*
X620988Y-428149D01*
X614988Y-413776D01*
X436284Y-235073D01*
X684050Y12691D01*
X684539Y12140D01*
X862722Y-166043D01*
X620988Y-428149D01*
X614489Y-431926D01*
X607948Y-435634D01*
X601369Y-439272D01*
X594751Y-442839D01*
X588098Y-446336D01*
X581405Y-449762D01*
X574678Y-453117D01*
X567915Y-456400D01*
X561117Y-459610D01*
X554284Y-462749D01*
X547421Y-465814D01*
X540523Y-468806D01*
X533595Y-471724D01*
X526637Y-474569D01*
X519647Y-477339D01*
X512629Y-480035D01*
X505583Y-482656D01*
X498510Y-485202D01*
X491409Y-487673D01*
X484283Y-490068D01*
X477133Y-492387D01*
X469957Y-494629D01*
X462758Y-496795D01*
X455537Y-498885D01*
X448293Y-500897D01*
X441028Y-502833D01*
X433743Y-504690D01*
X426440Y-506471D01*
X419117Y-508173D01*
X411777Y-509797D01*
X404420Y-511344D01*
X397047Y-512811D01*
X389659Y-514201D01*
X382255Y-515511D01*
X374840Y-516743D01*
X367411Y-517896D01*
X359970Y-518969D01*
X352518Y-519964D01*
X345056Y-520879D01*
X337584Y-521715D01*
X330105Y-522471D01*
X322618Y-523147D01*
X315123Y-523744D01*
X307623Y-524261D01*
X300119Y-524698D01*
X292610Y-525055D01*
X285096Y-525332D01*
X277582Y-525529D01*
X270065Y-525647D01*
G37*

%LPC*%
G36*
X663294Y693909D02*
G01*
X664504Y693909D01*
X665712Y693990D01*
X666911Y694151D01*
X668095Y694392D01*
X669263Y694712D01*
X670405Y695108D01*
X671518Y695581D01*
X672599Y696126D01*
X673639Y696743D01*
X674637Y697427D01*
X675586Y698177D01*
X676482Y698988D01*
X677323Y699858D01*
X678104Y700782D01*
X678822Y701755D01*
X679472Y702775D01*
X680055Y703836D01*
X680564Y704933D01*
X680999Y706062D01*
X681356Y707217D01*
X681637Y708394D01*
X681839Y709587D01*
X681959Y710790D01*
X681999Y711999D01*
X681959Y713208D01*
X681839Y714411D01*
X681637Y715604D01*
X681356Y716781D01*
X680999Y717936D01*
X680564Y719065D01*
X680055Y720162D01*
X679472Y721223D01*
X678822Y722243D01*
X678104Y723216D01*
X677323Y724140D01*
X676482Y725010D01*
X675586Y725821D01*
X674637Y726571D01*
X673639Y727255D01*
X672599Y727872D01*
X671518Y728417D01*
X670405Y728890D01*
X669263Y729286D01*
X668095Y729606D01*
X666911Y729847D01*
X665712Y730009D01*
X664504Y730089D01*
X663294Y730089D01*
X662088Y730009D01*
X660888Y729847D01*
X659704Y729606D01*
X658536Y729286D01*
X657394Y728890D01*
X656280Y728417D01*
X655200Y727872D01*
X654161Y727255D01*
X653163Y726571D01*
X652214Y725821D01*
X651316Y725010D01*
X650475Y724140D01*
X649695Y723216D01*
X648977Y722243D01*
X648326Y721223D01*
X647745Y720162D01*
X647236Y719065D01*
X646800Y717936D01*
X646442Y716781D01*
X646162Y715604D01*
X645960Y714411D01*
X645839Y713208D01*
X645799Y711999D01*
X645839Y710790D01*
X645960Y709587D01*
X646162Y708394D01*
X646442Y707217D01*
X646800Y706062D01*
X647236Y704933D01*
X647745Y703836D01*
X648326Y702775D01*
X648977Y701755D01*
X649695Y700782D01*
X650475Y699858D01*
X651316Y698988D01*
X652214Y698177D01*
X653163Y697427D01*
X654161Y696743D01*
X655200Y696126D01*
X656280Y695581D01*
X657394Y695108D01*
X658536Y694712D01*
X659704Y694392D01*
X660888Y694151D01*
X662088Y693990D01*
G37*
G36*
X97394Y-440790D02*
G01*
X98604Y-440790D01*
X99812Y-440709D01*
X101010Y-440548D01*
X102196Y-440307D01*
X103362Y-439987D01*
X104504Y-439591D01*
X105618Y-439118D01*
X106698Y-438573D01*
X107739Y-437956D01*
X108737Y-437272D01*
X109686Y-436522D01*
X110582Y-435711D01*
X111423Y-434841D01*
X112205Y-433917D01*
X112921Y-432944D01*
X113572Y-431924D01*
X114155Y-430863D01*
X114664Y-429766D01*
X115099Y-428637D01*
X115456Y-427482D01*
X115736Y-426305D01*
X115938Y-425112D01*
X116059Y-423909D01*
X116099Y-422700D01*
X116059Y-421491D01*
X115938Y-420288D01*
X115736Y-419095D01*
X115456Y-417918D01*
X115099Y-416763D01*
X114664Y-415634D01*
X114155Y-414537D01*
X113572Y-413476D01*
X112921Y-412456D01*
X112205Y-411483D01*
X111423Y-410559D01*
X110582Y-409689D01*
X109686Y-408878D01*
X108737Y-408128D01*
X107739Y-407444D01*
X106698Y-406827D01*
X105618Y-406282D01*
X104504Y-405809D01*
X103362Y-405413D01*
X102196Y-405093D01*
X101010Y-404852D01*
X99812Y-404691D01*
X98604Y-404610D01*
X97394Y-404610D01*
X96188Y-404691D01*
X94988Y-404852D01*
X93804Y-405093D01*
X92637Y-405413D01*
X91495Y-405809D01*
X90380Y-406282D01*
X89300Y-406827D01*
X88261Y-407444D01*
X87263Y-408128D01*
X86314Y-408878D01*
X85416Y-409689D01*
X84575Y-410559D01*
X83795Y-411483D01*
X83077Y-412456D01*
X82426Y-413476D01*
X81845Y-414537D01*
X81336Y-415634D01*
X80901Y-416763D01*
X80542Y-417918D01*
X80263Y-419095D01*
X80060Y-420288D01*
X79939Y-421491D01*
X79899Y-422700D01*
X79939Y-423909D01*
X80060Y-425112D01*
X80263Y-426305D01*
X80542Y-427482D01*
X80901Y-428637D01*
X81336Y-429766D01*
X81845Y-430863D01*
X82426Y-431924D01*
X83077Y-432944D01*
X83795Y-433917D01*
X84575Y-434841D01*
X85416Y-435711D01*
X86314Y-436522D01*
X87263Y-437272D01*
X88261Y-437956D01*
X89300Y-438573D01*
X90380Y-439118D01*
X91495Y-439591D01*
X92637Y-439987D01*
X93804Y-440307D01*
X94988Y-440548D01*
X96188Y-440709D01*
G37*
G36*
X538297Y-433159D02*
G01*
X538596Y-433155D01*
X539773Y-433111D01*
X540074Y-433092D01*
X541247Y-432989D01*
X541544Y-432956D01*
X542710Y-432795D01*
X543006Y-432746D01*
X544164Y-432527D01*
X544453Y-432465D01*
X545599Y-432189D01*
X545888Y-432111D01*
X547019Y-431778D01*
X547305Y-431686D01*
X548416Y-431297D01*
X548695Y-431191D01*
X549786Y-430747D01*
X550060Y-430628D01*
X551129Y-430130D01*
X551396Y-429997D01*
X552436Y-429447D01*
X552699Y-429300D01*
X553711Y-428698D01*
X553964Y-428539D01*
X554945Y-427888D01*
X555189Y-427718D01*
X556136Y-427019D01*
X556377Y-426832D01*
X557287Y-426086D01*
X557510Y-425895D01*
X558383Y-425105D01*
X558603Y-424897D01*
X559436Y-424064D01*
X559645Y-423844D01*
X560434Y-422970D01*
X560626Y-422748D01*
X561372Y-421837D01*
X561558Y-421597D01*
X562258Y-420649D01*
X562427Y-420406D01*
X563078Y-419425D01*
X563238Y-419172D01*
X563840Y-418159D01*
X563986Y-417897D01*
X564537Y-416856D01*
X564669Y-416589D01*
X565168Y-415521D01*
X565286Y-415247D01*
X565730Y-414156D01*
X565837Y-413877D01*
X566225Y-412766D01*
X566318Y-412479D01*
X566651Y-411349D01*
X566728Y-411059D01*
X567004Y-409914D01*
X567066Y-409624D01*
X567286Y-408467D01*
X567335Y-408171D01*
X567496Y-407004D01*
X567529Y-406708D01*
X567632Y-405534D01*
X567650Y-405234D01*
X567695Y-404057D01*
X567699Y-403757D01*
X567683Y-402580D01*
X567672Y-402284D01*
X567599Y-401108D01*
X567573Y-400807D01*
X567440Y-399637D01*
X567399Y-399343D01*
X567210Y-398180D01*
X567154Y-397883D01*
X566905Y-396732D01*
X566837Y-396447D01*
X566534Y-395309D01*
X566446Y-395014D01*
X566085Y-393893D01*
X565987Y-393618D01*
X565572Y-392516D01*
X565457Y-392235D01*
X564987Y-391156D01*
X564862Y-390887D01*
X564337Y-389832D01*
X564194Y-389562D01*
X563617Y-388535D01*
X563468Y-388283D01*
X562842Y-387286D01*
X562674Y-387035D01*
X561998Y-386070D01*
X561822Y-385829D01*
X561099Y-384899D01*
X560910Y-384670D01*
X560142Y-383777D01*
X559939Y-383552D01*
X559128Y-382699D01*
X559025Y-382593D01*
X531186Y-354755D01*
X531081Y-354652D01*
X530227Y-353840D01*
X530002Y-353637D01*
X529110Y-352869D01*
X528881Y-352681D01*
X527951Y-351958D01*
X527709Y-351781D01*
X526745Y-351105D01*
X526494Y-350938D01*
X525496Y-350312D01*
X525245Y-350162D01*
X524218Y-349585D01*
X523948Y-349442D01*
X522893Y-348918D01*
X522623Y-348793D01*
X521544Y-348322D01*
X521264Y-348208D01*
X520162Y-347792D01*
X519886Y-347695D01*
X518765Y-347333D01*
X518470Y-347246D01*
X517332Y-346942D01*
X517048Y-346874D01*
X515897Y-346626D01*
X515600Y-346570D01*
X514436Y-346380D01*
X514143Y-346339D01*
X512973Y-346207D01*
X512672Y-346181D01*
X511495Y-346108D01*
X511199Y-346096D01*
X510023Y-346081D01*
X509723Y-346085D01*
X508545Y-346129D01*
X508245Y-346148D01*
X507071Y-346251D01*
X506775Y-346284D01*
X505609Y-346445D01*
X505312Y-346494D01*
X504156Y-346713D01*
X503865Y-346775D01*
X502721Y-347051D01*
X502430Y-347129D01*
X501301Y-347462D01*
X501013Y-347554D01*
X499903Y-347943D01*
X499624Y-348049D01*
X498532Y-348493D01*
X498258Y-348612D01*
X497191Y-349110D01*
X496923Y-349243D01*
X495883Y-349793D01*
X495621Y-349940D01*
X494607Y-350542D01*
X494354Y-350701D01*
X493374Y-351352D01*
X493131Y-351522D01*
X492183Y-352221D01*
X491943Y-352408D01*
X491031Y-353154D01*
X490810Y-353345D01*
X489935Y-354135D01*
X489715Y-354343D01*
X488882Y-355176D01*
X488675Y-355396D01*
X487884Y-356270D01*
X487694Y-356492D01*
X486948Y-357403D01*
X486760Y-357643D01*
X486062Y-358591D01*
X485892Y-358834D01*
X485240Y-359815D01*
X485082Y-360068D01*
X484480Y-361081D01*
X484332Y-361343D01*
X483783Y-362384D01*
X483649Y-362651D01*
X483152Y-363719D01*
X483032Y-363993D01*
X482588Y-365084D01*
X482483Y-365363D01*
X482093Y-366474D01*
X482002Y-366761D01*
X481669Y-367891D01*
X481590Y-368181D01*
X481315Y-369326D01*
X481252Y-369616D01*
X481033Y-370773D01*
X480985Y-371069D01*
X480824Y-372236D01*
X480790Y-372532D01*
X480688Y-373706D01*
X480668Y-374006D01*
X480625Y-375183D01*
X480621Y-375483D01*
X480636Y-376660D01*
X480648Y-376956D01*
X480721Y-378132D01*
X480747Y-378433D01*
X480879Y-379603D01*
X480919Y-379897D01*
X481109Y-381060D01*
X481166Y-381357D01*
X481414Y-382508D01*
X481481Y-382793D01*
X481786Y-383931D01*
X481872Y-384226D01*
X482235Y-385347D01*
X482331Y-385622D01*
X482748Y-386724D01*
X482861Y-387005D01*
X483333Y-388084D01*
X483458Y-388353D01*
X483981Y-389408D01*
X484125Y-389678D01*
X484701Y-390705D01*
X484852Y-390957D01*
X485478Y-391954D01*
X485645Y-392205D01*
X486320Y-393170D01*
X486498Y-393411D01*
X487220Y-394341D01*
X487408Y-394570D01*
X488176Y-395463D01*
X488379Y-395688D01*
X489192Y-396541D01*
X489295Y-396647D01*
X517133Y-424485D01*
X517238Y-424588D01*
X518091Y-425400D01*
X518316Y-425603D01*
X519210Y-426371D01*
X519439Y-426559D01*
X520369Y-427282D01*
X520609Y-427459D01*
X521575Y-428135D01*
X521826Y-428302D01*
X522822Y-428928D01*
X523074Y-429078D01*
X524102Y-429655D01*
X524372Y-429798D01*
X525426Y-430322D01*
X525695Y-430447D01*
X526774Y-430918D01*
X527056Y-431032D01*
X528158Y-431448D01*
X528433Y-431545D01*
X529553Y-431907D01*
X529849Y-431994D01*
X530986Y-432298D01*
X531271Y-432366D01*
X532422Y-432614D01*
X532719Y-432670D01*
X533882Y-432860D01*
X534176Y-432901D01*
X535347Y-433033D01*
X535648Y-433059D01*
X536823Y-433132D01*
X537120Y-433144D01*
G37*
G36*
X587394Y608309D02*
G01*
X588604Y608309D01*
X589812Y608390D01*
X591010Y608551D01*
X592196Y608792D01*
X593362Y609112D01*
X594504Y609508D01*
X595618Y609982D01*
X596698Y610526D01*
X597739Y611143D01*
X598737Y611827D01*
X599686Y612577D01*
X600582Y613388D01*
X601423Y614258D01*
X602205Y615182D01*
X602921Y616155D01*
X603572Y617175D01*
X604155Y618236D01*
X604664Y619333D01*
X605099Y620462D01*
X605456Y621617D01*
X605736Y622794D01*
X605938Y623987D01*
X606059Y625190D01*
X606099Y626399D01*
X606059Y627608D01*
X605938Y628811D01*
X605736Y630004D01*
X605456Y631181D01*
X605099Y632336D01*
X604664Y633465D01*
X604155Y634562D01*
X603572Y635623D01*
X602921Y636643D01*
X602205Y637616D01*
X601423Y638540D01*
X600582Y639410D01*
X599686Y640221D01*
X598737Y640971D01*
X597739Y641655D01*
X596698Y642272D01*
X595618Y642817D01*
X594504Y643290D01*
X593362Y643686D01*
X592196Y644006D01*
X591010Y644247D01*
X589812Y644408D01*
X588604Y644489D01*
X587394Y644489D01*
X586188Y644408D01*
X584988Y644247D01*
X583804Y644006D01*
X582637Y643686D01*
X581495Y643290D01*
X580380Y642817D01*
X579300Y642272D01*
X578261Y641655D01*
X577263Y640971D01*
X576314Y640221D01*
X575416Y639410D01*
X574575Y638540D01*
X573795Y637616D01*
X573077Y636643D01*
X572426Y635623D01*
X571845Y634562D01*
X571336Y633465D01*
X570901Y632336D01*
X570542Y631181D01*
X570263Y630004D01*
X570060Y628811D01*
X569939Y627608D01*
X569899Y626399D01*
X569939Y625190D01*
X570060Y623987D01*
X570263Y622794D01*
X570542Y621617D01*
X570901Y620462D01*
X571336Y619333D01*
X571845Y618236D01*
X572426Y617175D01*
X573077Y616155D01*
X573795Y615182D01*
X574575Y614258D01*
X575416Y613388D01*
X576314Y612577D01*
X577263Y611827D01*
X578261Y611143D01*
X579300Y610526D01*
X580380Y609982D01*
X581495Y609508D01*
X582637Y609112D01*
X583804Y608792D01*
X584988Y608551D01*
X586188Y608390D01*
G37*
G36*
X50214Y-376160D02*
G01*
X51424Y-376160D01*
X52632Y-376079D01*
X53831Y-375918D01*
X55015Y-375677D01*
X56183Y-375357D01*
X57325Y-374961D01*
X58438Y-374488D01*
X59519Y-373943D01*
X60559Y-373326D01*
X61557Y-372642D01*
X62506Y-371892D01*
X63402Y-371081D01*
X64243Y-370211D01*
X65024Y-369287D01*
X65742Y-368314D01*
X66392Y-367294D01*
X66975Y-366233D01*
X67484Y-365136D01*
X67919Y-364007D01*
X68276Y-362852D01*
X68557Y-361675D01*
X68759Y-360482D01*
X68879Y-359279D01*
X68919Y-358070D01*
X68879Y-356861D01*
X68759Y-355658D01*
X68557Y-354465D01*
X68276Y-353288D01*
X67919Y-352133D01*
X67484Y-351004D01*
X66975Y-349907D01*
X66392Y-348846D01*
X65742Y-347826D01*
X65024Y-346853D01*
X64243Y-345929D01*
X63402Y-345059D01*
X62506Y-344248D01*
X61557Y-343498D01*
X60559Y-342814D01*
X59519Y-342197D01*
X59310Y-342092D01*
X59759Y-341826D01*
X60757Y-341142D01*
X61706Y-340392D01*
X62602Y-339581D01*
X63443Y-338711D01*
X64224Y-337787D01*
X64942Y-336814D01*
X65592Y-335794D01*
X66175Y-334733D01*
X66683Y-333636D01*
X67119Y-332507D01*
X67476Y-331352D01*
X67757Y-330175D01*
X67959Y-328982D01*
X68079Y-327779D01*
X68119Y-326570D01*
X68079Y-325361D01*
X67959Y-324158D01*
X67757Y-322965D01*
X67476Y-321788D01*
X67119Y-320633D01*
X66683Y-319504D01*
X66175Y-318407D01*
X65592Y-317346D01*
X64942Y-316326D01*
X64224Y-315353D01*
X63443Y-314429D01*
X62602Y-313559D01*
X61706Y-312748D01*
X60757Y-311998D01*
X59759Y-311314D01*
X58719Y-310697D01*
X57638Y-310152D01*
X56525Y-309679D01*
X55383Y-309283D01*
X54215Y-308963D01*
X53031Y-308722D01*
X51832Y-308561D01*
X50625Y-308480D01*
X49414Y-308480D01*
X48208Y-308561D01*
X47008Y-308722D01*
X45824Y-308963D01*
X44656Y-309283D01*
X43514Y-309679D01*
X42400Y-310152D01*
X41320Y-310697D01*
X40281Y-311314D01*
X39282Y-311998D01*
X38334Y-312748D01*
X37436Y-313559D01*
X36595Y-314429D01*
X35815Y-315353D01*
X35097Y-316326D01*
X34447Y-317346D01*
X33864Y-318407D01*
X33356Y-319504D01*
X32920Y-320633D01*
X32563Y-321788D01*
X32282Y-322965D01*
X32080Y-324158D01*
X31959Y-325361D01*
X31920Y-326570D01*
X31959Y-327779D01*
X32080Y-328982D01*
X32282Y-330175D01*
X32563Y-331352D01*
X32920Y-332507D01*
X33356Y-333636D01*
X33864Y-334733D01*
X34447Y-335794D01*
X35097Y-336814D01*
X35815Y-337787D01*
X36595Y-338711D01*
X37436Y-339581D01*
X38334Y-340392D01*
X39282Y-341142D01*
X40281Y-341826D01*
X41320Y-342443D01*
X41529Y-342548D01*
X41081Y-342814D01*
X40083Y-343498D01*
X39134Y-344248D01*
X38236Y-345059D01*
X37395Y-345929D01*
X36615Y-346853D01*
X35897Y-347826D01*
X35246Y-348846D01*
X34665Y-349907D01*
X34156Y-351004D01*
X33720Y-352133D01*
X33362Y-353288D01*
X33082Y-354465D01*
X32880Y-355658D01*
X32759Y-356861D01*
X32719Y-358070D01*
X32759Y-359279D01*
X32880Y-360482D01*
X33082Y-361675D01*
X33362Y-362852D01*
X33720Y-364007D01*
X34156Y-365136D01*
X34665Y-366233D01*
X35246Y-367294D01*
X35897Y-368314D01*
X36615Y-369287D01*
X37395Y-370211D01*
X38236Y-371081D01*
X39134Y-371892D01*
X40083Y-372642D01*
X41081Y-373326D01*
X42120Y-373943D01*
X43200Y-374488D01*
X44314Y-374961D01*
X45456Y-375357D01*
X46624Y-375677D01*
X47808Y-375918D01*
X49008Y-376079D01*
G37*
G36*
X426936Y-321799D02*
G01*
X427236Y-321795D01*
X428414Y-321751D01*
X428713Y-321732D01*
X429888Y-321629D01*
X430183Y-321596D01*
X431351Y-321435D01*
X431647Y-321386D01*
X432803Y-321167D01*
X433094Y-321105D01*
X434238Y-320829D01*
X434529Y-320751D01*
X435658Y-320418D01*
X435946Y-320326D01*
X437057Y-319937D01*
X437335Y-319831D01*
X438427Y-319387D01*
X438701Y-319268D01*
X439768Y-318770D01*
X440036Y-318637D01*
X441076Y-318087D01*
X441338Y-317940D01*
X442352Y-317338D01*
X442605Y-317179D01*
X443585Y-316528D01*
X443828Y-316358D01*
X444777Y-315659D01*
X445016Y-315472D01*
X445928Y-314726D01*
X446149Y-314535D01*
X447024Y-313745D01*
X447244Y-313537D01*
X448077Y-312704D01*
X448284Y-312484D01*
X449075Y-311610D01*
X449265Y-311388D01*
X450011Y-310477D01*
X450199Y-310237D01*
X450897Y-309289D01*
X451067Y-309046D01*
X451719Y-308065D01*
X451877Y-307812D01*
X452479Y-306799D01*
X452627Y-306537D01*
X453176Y-305496D01*
X453310Y-305229D01*
X453807Y-304161D01*
X453927Y-303887D01*
X454371Y-302796D01*
X454476Y-302517D01*
X454866Y-301406D01*
X454957Y-301119D01*
X455290Y-299989D01*
X455369Y-299699D01*
X455645Y-298554D01*
X455707Y-298264D01*
X455925Y-297107D01*
X455974Y-296811D01*
X456135Y-295644D01*
X456168Y-295348D01*
X456271Y-294174D01*
X456291Y-293874D01*
X456334Y-292697D01*
X456338Y-292397D01*
X456324Y-291220D01*
X456311Y-290924D01*
X456238Y-289748D01*
X456212Y-289447D01*
X456081Y-288277D01*
X456040Y-287983D01*
X455850Y-286820D01*
X455793Y-286523D01*
X455546Y-285372D01*
X455478Y-285087D01*
X455173Y-283949D01*
X455087Y-283654D01*
X454724Y-282533D01*
X454628Y-282258D01*
X454211Y-281156D01*
X454098Y-280875D01*
X453626Y-279796D01*
X453501Y-279527D01*
X452978Y-278472D01*
X452835Y-278202D01*
X452258Y-277175D01*
X452107Y-276923D01*
X451481Y-275926D01*
X451315Y-275675D01*
X450639Y-274710D01*
X450461Y-274469D01*
X449738Y-273539D01*
X449551Y-273310D01*
X448783Y-272417D01*
X448580Y-272192D01*
X447767Y-271339D01*
X447664Y-271233D01*
X419826Y-243395D01*
X419720Y-243292D01*
X418868Y-242480D01*
X418643Y-242277D01*
X417749Y-241509D01*
X417520Y-241321D01*
X416590Y-240598D01*
X416350Y-240421D01*
X415384Y-239745D01*
X415133Y-239578D01*
X414137Y-238952D01*
X413885Y-238802D01*
X412857Y-238225D01*
X412587Y-238082D01*
X411532Y-237558D01*
X411264Y-237433D01*
X410185Y-236962D01*
X409903Y-236848D01*
X408801Y-236432D01*
X408527Y-236335D01*
X407406Y-235973D01*
X407111Y-235886D01*
X405973Y-235582D01*
X405688Y-235514D01*
X404537Y-235266D01*
X404239Y-235210D01*
X403077Y-235020D01*
X402782Y-234979D01*
X401612Y-234847D01*
X401311Y-234821D01*
X400136Y-234748D01*
X399840Y-234736D01*
X398662Y-234721D01*
X398362Y-234725D01*
X397186Y-234769D01*
X396886Y-234788D01*
X395712Y-234891D01*
X395415Y-234924D01*
X394248Y-235085D01*
X393953Y-235134D01*
X392795Y-235353D01*
X392506Y-235415D01*
X391360Y-235691D01*
X391071Y-235769D01*
X389940Y-236102D01*
X389654Y-236194D01*
X388542Y-236583D01*
X388263Y-236689D01*
X387173Y-237133D01*
X386899Y-237252D01*
X385830Y-237750D01*
X385564Y-237883D01*
X384522Y-238433D01*
X384260Y-238580D01*
X383248Y-239182D01*
X382995Y-239341D01*
X382013Y-239992D01*
X381770Y-240162D01*
X380823Y-240861D01*
X380582Y-241048D01*
X379672Y-241794D01*
X379449Y-241985D01*
X378576Y-242775D01*
X378356Y-242983D01*
X377523Y-243816D01*
X377314Y-244036D01*
X376525Y-244910D01*
X376333Y-245132D01*
X375587Y-246043D01*
X375401Y-246283D01*
X374701Y-247231D01*
X374531Y-247474D01*
X373881Y-248455D01*
X373721Y-248708D01*
X373119Y-249721D01*
X372973Y-249983D01*
X372422Y-251024D01*
X372290Y-251291D01*
X371791Y-252359D01*
X371673Y-252633D01*
X371229Y-253724D01*
X371122Y-254003D01*
X370734Y-255114D01*
X370641Y-255401D01*
X370308Y-256531D01*
X370231Y-256821D01*
X369954Y-257966D01*
X369893Y-258256D01*
X369674Y-259413D01*
X369624Y-259709D01*
X369463Y-260876D01*
X369431Y-261172D01*
X369327Y-262346D01*
X369309Y-262646D01*
X369264Y-263823D01*
X369260Y-264123D01*
X369275Y-265300D01*
X369287Y-265596D01*
X369360Y-266772D01*
X369386Y-267073D01*
X369519Y-268243D01*
X369560Y-268537D01*
X369750Y-269700D01*
X369805Y-269997D01*
X370054Y-271148D01*
X370122Y-271433D01*
X370425Y-272571D01*
X370513Y-272866D01*
X370874Y-273987D01*
X370972Y-274262D01*
X371387Y-275364D01*
X371502Y-275645D01*
X371972Y-276724D01*
X372097Y-276993D01*
X372622Y-278048D01*
X372764Y-278318D01*
X373342Y-279345D01*
X373491Y-279597D01*
X374117Y-280594D01*
X374284Y-280845D01*
X374961Y-281810D01*
X375137Y-282051D01*
X375861Y-282981D01*
X376049Y-283210D01*
X376817Y-284103D01*
X377020Y-284328D01*
X377831Y-285181D01*
X377934Y-285287D01*
X405772Y-313125D01*
X405879Y-313228D01*
X406732Y-314040D01*
X406957Y-314243D01*
X407849Y-315011D01*
X408078Y-315199D01*
X409008Y-315922D01*
X409250Y-316099D01*
X410214Y-316775D01*
X410465Y-316942D01*
X411463Y-317568D01*
X411715Y-317718D01*
X412741Y-318295D01*
X413011Y-318438D01*
X414067Y-318962D01*
X414336Y-319087D01*
X415415Y-319558D01*
X415695Y-319672D01*
X416797Y-320088D01*
X417073Y-320185D01*
X418194Y-320547D01*
X418488Y-320634D01*
X419627Y-320938D01*
X419912Y-321006D01*
X421063Y-321254D01*
X421360Y-321310D01*
X422523Y-321500D01*
X422817Y-321541D01*
X423986Y-321673D01*
X424287Y-321699D01*
X425464Y-321772D01*
X425760Y-321784D01*
G37*
G36*
X-198405Y-295490D02*
G01*
X-197195Y-295490D01*
X-195987Y-295409D01*
X-194789Y-295248D01*
X-193603Y-295007D01*
X-192436Y-294687D01*
X-191295Y-294291D01*
X-190181Y-293818D01*
X-189101Y-293273D01*
X-188060Y-292656D01*
X-187062Y-291972D01*
X-186113Y-291222D01*
X-185217Y-290411D01*
X-184376Y-289541D01*
X-183594Y-288617D01*
X-182878Y-287644D01*
X-182227Y-286624D01*
X-181644Y-285563D01*
X-181135Y-284466D01*
X-180700Y-283337D01*
X-180343Y-282182D01*
X-180063Y-281005D01*
X-179861Y-279812D01*
X-179740Y-278609D01*
X-179700Y-277400D01*
X-179740Y-276191D01*
X-179861Y-274988D01*
X-180063Y-273795D01*
X-180343Y-272618D01*
X-180700Y-271463D01*
X-181135Y-270334D01*
X-181644Y-269237D01*
X-182227Y-268176D01*
X-182878Y-267156D01*
X-183594Y-266183D01*
X-184376Y-265259D01*
X-185217Y-264389D01*
X-186113Y-263578D01*
X-187062Y-262828D01*
X-188060Y-262144D01*
X-189101Y-261527D01*
X-190181Y-260982D01*
X-191295Y-260509D01*
X-192436Y-260113D01*
X-193603Y-259793D01*
X-194789Y-259552D01*
X-195987Y-259391D01*
X-197195Y-259310D01*
X-198405Y-259310D01*
X-199611Y-259391D01*
X-200811Y-259552D01*
X-201995Y-259793D01*
X-203163Y-260113D01*
X-204305Y-260509D01*
X-205419Y-260982D01*
X-206499Y-261527D01*
X-207538Y-262144D01*
X-208536Y-262828D01*
X-209485Y-263578D01*
X-210383Y-264389D01*
X-211224Y-265259D01*
X-212004Y-266183D01*
X-212722Y-267156D01*
X-213373Y-268176D01*
X-213954Y-269237D01*
X-214463Y-270334D01*
X-214898Y-271463D01*
X-215257Y-272618D01*
X-215537Y-273795D01*
X-215739Y-274988D01*
X-215860Y-276191D01*
X-215900Y-277400D01*
X-215860Y-278609D01*
X-215739Y-279812D01*
X-215537Y-281005D01*
X-215257Y-282182D01*
X-214898Y-283337D01*
X-214463Y-284466D01*
X-213954Y-285563D01*
X-213373Y-286624D01*
X-212722Y-287644D01*
X-212004Y-288617D01*
X-211224Y-289541D01*
X-210383Y-290411D01*
X-209485Y-291222D01*
X-208536Y-291972D01*
X-207538Y-292656D01*
X-206499Y-293273D01*
X-205419Y-293818D01*
X-204305Y-294291D01*
X-203163Y-294687D01*
X-201995Y-295007D01*
X-200811Y-295248D01*
X-199611Y-295409D01*
G37*
G36*
X-226104Y-271190D02*
G01*
X-224894Y-271190D01*
X-223688Y-271109D01*
X-222488Y-270948D01*
X-221304Y-270707D01*
X-220137Y-270387D01*
X-218995Y-269991D01*
X-217880Y-269518D01*
X-216800Y-268973D01*
X-215761Y-268356D01*
X-214763Y-267672D01*
X-213814Y-266922D01*
X-212916Y-266111D01*
X-212075Y-265241D01*
X-211295Y-264317D01*
X-210577Y-263344D01*
X-209926Y-262324D01*
X-209345Y-261263D01*
X-208836Y-260166D01*
X-208401Y-259037D01*
X-208042Y-257882D01*
X-207763Y-256705D01*
X-207560Y-255512D01*
X-207439Y-254309D01*
X-207399Y-253100D01*
X-207439Y-251891D01*
X-207560Y-250688D01*
X-207763Y-249495D01*
X-208042Y-248318D01*
X-208401Y-247163D01*
X-208836Y-246034D01*
X-209345Y-244937D01*
X-209926Y-243876D01*
X-210577Y-242856D01*
X-211295Y-241883D01*
X-212075Y-240959D01*
X-212916Y-240089D01*
X-213814Y-239278D01*
X-214763Y-238528D01*
X-215761Y-237844D01*
X-216800Y-237227D01*
X-217880Y-236682D01*
X-218995Y-236209D01*
X-220137Y-235813D01*
X-221304Y-235493D01*
X-222488Y-235252D01*
X-223688Y-235091D01*
X-224894Y-235010D01*
X-226104Y-235010D01*
X-227312Y-235091D01*
X-228510Y-235252D01*
X-229696Y-235493D01*
X-230862Y-235813D01*
X-232004Y-236209D01*
X-233118Y-236682D01*
X-234198Y-237227D01*
X-235239Y-237844D01*
X-236237Y-238528D01*
X-237186Y-239278D01*
X-238082Y-240089D01*
X-238923Y-240959D01*
X-239705Y-241883D01*
X-240421Y-242856D01*
X-241072Y-243876D01*
X-241655Y-244937D01*
X-242164Y-246034D01*
X-242599Y-247163D01*
X-242956Y-248318D01*
X-243236Y-249495D01*
X-243438Y-250688D01*
X-243559Y-251891D01*
X-243599Y-253100D01*
X-243559Y-254309D01*
X-243438Y-255512D01*
X-243236Y-256705D01*
X-242956Y-257882D01*
X-242599Y-259037D01*
X-242164Y-260166D01*
X-241655Y-261263D01*
X-241072Y-262324D01*
X-240421Y-263344D01*
X-239705Y-264317D01*
X-238923Y-265241D01*
X-238082Y-266111D01*
X-237186Y-266922D01*
X-236237Y-267672D01*
X-235239Y-268356D01*
X-234198Y-268973D01*
X-233118Y-269518D01*
X-232004Y-269991D01*
X-230862Y-270387D01*
X-229696Y-270707D01*
X-228510Y-270948D01*
X-227312Y-271109D01*
G37*
G36*
X311114Y-236760D02*
G01*
X312325Y-236760D01*
X313531Y-236679D01*
X314731Y-236518D01*
X315915Y-236277D01*
X317083Y-235957D01*
X318225Y-235561D01*
X319338Y-235088D01*
X320419Y-234543D01*
X321459Y-233926D01*
X322457Y-233242D01*
X323406Y-232492D01*
X324302Y-231681D01*
X325144Y-230811D01*
X325924Y-229887D01*
X326642Y-228914D01*
X327292Y-227894D01*
X327875Y-226833D01*
X327942Y-226686D01*
X327965Y-226733D01*
X328546Y-227794D01*
X329197Y-228814D01*
X329915Y-229787D01*
X330695Y-230711D01*
X331536Y-231581D01*
X332434Y-232392D01*
X333383Y-233142D01*
X334381Y-233826D01*
X335420Y-234443D01*
X336500Y-234988D01*
X337614Y-235461D01*
X338756Y-235857D01*
X339924Y-236177D01*
X341108Y-236418D01*
X342308Y-236579D01*
X343514Y-236660D01*
X344724Y-236660D01*
X345932Y-236579D01*
X347130Y-236418D01*
X348316Y-236177D01*
X349483Y-235857D01*
X350625Y-235461D01*
X351738Y-234988D01*
X352818Y-234443D01*
X353859Y-233826D01*
X354857Y-233142D01*
X355806Y-232392D01*
X356702Y-231581D01*
X357543Y-230711D01*
X358325Y-229787D01*
X359041Y-228814D01*
X359692Y-227794D01*
X360275Y-226733D01*
X360784Y-225636D01*
X361219Y-224507D01*
X361576Y-223352D01*
X361857Y-222175D01*
X362058Y-220982D01*
X362179Y-219779D01*
X362219Y-218570D01*
X362179Y-217361D01*
X362058Y-216158D01*
X361857Y-214965D01*
X361576Y-213788D01*
X361219Y-212633D01*
X360784Y-211504D01*
X360275Y-210407D01*
X359692Y-209346D01*
X359041Y-208326D01*
X358325Y-207353D01*
X357543Y-206429D01*
X356702Y-205559D01*
X355806Y-204748D01*
X354857Y-203998D01*
X353859Y-203314D01*
X352818Y-202697D01*
X351738Y-202152D01*
X350625Y-201679D01*
X349483Y-201283D01*
X348316Y-200963D01*
X347130Y-200722D01*
X345932Y-200561D01*
X344724Y-200480D01*
X343514Y-200480D01*
X342308Y-200561D01*
X341108Y-200722D01*
X339924Y-200963D01*
X338756Y-201283D01*
X337614Y-201679D01*
X336500Y-202152D01*
X335420Y-202697D01*
X334381Y-203314D01*
X333383Y-203998D01*
X332434Y-204748D01*
X331536Y-205559D01*
X330695Y-206429D01*
X329915Y-207353D01*
X329197Y-208326D01*
X328546Y-209346D01*
X327965Y-210407D01*
X327897Y-210554D01*
X327875Y-210507D01*
X327292Y-209446D01*
X326642Y-208426D01*
X325924Y-207453D01*
X325144Y-206529D01*
X324302Y-205659D01*
X323406Y-204848D01*
X322457Y-204098D01*
X321459Y-203414D01*
X320419Y-202797D01*
X319338Y-202252D01*
X318225Y-201779D01*
X317083Y-201383D01*
X315915Y-201063D01*
X314731Y-200822D01*
X313531Y-200661D01*
X312325Y-200580D01*
X311114Y-200580D01*
X309907Y-200661D01*
X308708Y-200822D01*
X307524Y-201063D01*
X306356Y-201383D01*
X305214Y-201779D01*
X304101Y-202252D01*
X303020Y-202797D01*
X301980Y-203414D01*
X300982Y-204098D01*
X300033Y-204848D01*
X299137Y-205659D01*
X298296Y-206529D01*
X297515Y-207453D01*
X296797Y-208426D01*
X296147Y-209446D01*
X295564Y-210507D01*
X295056Y-211604D01*
X294620Y-212733D01*
X294263Y-213888D01*
X293982Y-215065D01*
X293780Y-216258D01*
X293659Y-217461D01*
X293620Y-218670D01*
X293659Y-219879D01*
X293780Y-221082D01*
X293982Y-222275D01*
X294263Y-223452D01*
X294620Y-224607D01*
X295056Y-225736D01*
X295564Y-226833D01*
X296147Y-227894D01*
X296797Y-228914D01*
X297515Y-229887D01*
X298296Y-230811D01*
X299137Y-231681D01*
X300033Y-232492D01*
X300982Y-233242D01*
X301980Y-233926D01*
X303020Y-234543D01*
X304101Y-235088D01*
X305214Y-235561D01*
X306356Y-235957D01*
X307524Y-236277D01*
X308708Y-236518D01*
X309907Y-236679D01*
G37*
G36*
X659494Y580909D02*
G01*
X660704Y580909D01*
X661912Y580990D01*
X663110Y581151D01*
X664296Y581392D01*
X665462Y581712D01*
X666604Y582108D01*
X667718Y582581D01*
X668798Y583126D01*
X669839Y583743D01*
X670837Y584427D01*
X671786Y585177D01*
X672682Y585988D01*
X673523Y586858D01*
X674305Y587782D01*
X675021Y588755D01*
X675672Y589775D01*
X676255Y590836D01*
X676764Y591933D01*
X677199Y593062D01*
X677556Y594217D01*
X677836Y595394D01*
X678038Y596587D01*
X678159Y597790D01*
X678199Y598999D01*
X678159Y600208D01*
X678038Y601411D01*
X677836Y602604D01*
X677556Y603781D01*
X677199Y604936D01*
X676764Y606065D01*
X676255Y607162D01*
X675672Y608223D01*
X675021Y609243D01*
X674305Y610216D01*
X673523Y611140D01*
X672682Y612010D01*
X671786Y612821D01*
X670837Y613571D01*
X669839Y614255D01*
X668798Y614872D01*
X667718Y615417D01*
X666604Y615890D01*
X665462Y616286D01*
X664296Y616606D01*
X663110Y616848D01*
X661912Y617008D01*
X660704Y617089D01*
X659494Y617089D01*
X658288Y617008D01*
X657088Y616848D01*
X655904Y616606D01*
X654736Y616286D01*
X653594Y615890D01*
X652480Y615417D01*
X651400Y614872D01*
X650361Y614255D01*
X649363Y613571D01*
X648414Y612821D01*
X647516Y612010D01*
X646675Y611140D01*
X645895Y610216D01*
X645177Y609243D01*
X644526Y608223D01*
X643945Y607162D01*
X643436Y606065D01*
X643001Y604936D01*
X642642Y603781D01*
X642362Y602604D01*
X642160Y601411D01*
X642039Y600208D01*
X641999Y598999D01*
X642039Y597790D01*
X642160Y596587D01*
X642362Y595394D01*
X642642Y594217D01*
X643001Y593062D01*
X643436Y591933D01*
X643945Y590836D01*
X644526Y589775D01*
X645177Y588755D01*
X645895Y587782D01*
X646675Y586858D01*
X647516Y585988D01*
X648414Y585177D01*
X649363Y584427D01*
X650361Y583743D01*
X651400Y583126D01*
X652480Y582581D01*
X653594Y582108D01*
X654736Y581712D01*
X655904Y581392D01*
X657088Y581151D01*
X658288Y580990D01*
G37*
G36*
X-270034Y562249D02*
G01*
X-269709Y562255D01*
X-269386Y562279D01*
X-269063Y562321D01*
X-268743Y562379D01*
X-268428Y562455D01*
X-268117Y562548D01*
X-267811Y562658D01*
X-267511Y562784D01*
X-267218Y562926D01*
X-266935Y563084D01*
X-266660Y563257D01*
X-266394Y563444D01*
X-266139Y563646D01*
X-265896Y563861D01*
X-225586Y601450D01*
X-225353Y601678D01*
X-225136Y601918D01*
X-224930Y602170D01*
X-224737Y602432D01*
X-224561Y602704D01*
X-224399Y602986D01*
X-224251Y603276D01*
X-224121Y603574D01*
X-224007Y603878D01*
X-223909Y604188D01*
X-223828Y604502D01*
X-223765Y604821D01*
X-223717Y605143D01*
X-223689Y605466D01*
X-223677Y605791D01*
X-223684Y606116D01*
X-223707Y606440D01*
X-223750Y606762D01*
X-223807Y607082D01*
X-223883Y607398D01*
X-223977Y607709D01*
X-224086Y608015D01*
X-224212Y608315D01*
X-224354Y608607D01*
X-224512Y608891D01*
X-224686Y609166D01*
X-224872Y609431D01*
X-225074Y609686D01*
X-225289Y609930D01*
X-252139Y638725D01*
X-252367Y638956D01*
X-252608Y639175D01*
X-252860Y639381D01*
X-253122Y639573D01*
X-253393Y639750D01*
X-253675Y639912D01*
X-253966Y640059D01*
X-254263Y640189D01*
X-254567Y640304D01*
X-254877Y640402D01*
X-255191Y640482D01*
X-255510Y640546D01*
X-255833Y640593D01*
X-256156Y640621D01*
X-256481Y640634D01*
X-256805Y640627D01*
X-257129Y640603D01*
X-257452Y640561D01*
X-257771Y640503D01*
X-258087Y640427D01*
X-258398Y640334D01*
X-258704Y640224D01*
X-259004Y640098D01*
X-259296Y639956D01*
X-259580Y639798D01*
X-259855Y639625D01*
X-260122Y639438D01*
X-260375Y639236D01*
X-260619Y639021D01*
X-300931Y601431D01*
X-301162Y601203D01*
X-301381Y600963D01*
X-301586Y600711D01*
X-301778Y600449D01*
X-301956Y600176D01*
X-302118Y599895D01*
X-302264Y599605D01*
X-302394Y599307D01*
X-302510Y599003D01*
X-302608Y598693D01*
X-302687Y598379D01*
X-302752Y598060D01*
X-302798Y597738D01*
X-302826Y597415D01*
X-302839Y597090D01*
X-302833Y596765D01*
X-302808Y596441D01*
X-302767Y596119D01*
X-302709Y595799D01*
X-302632Y595483D01*
X-302539Y595172D01*
X-302430Y594866D01*
X-302304Y594566D01*
X-302161Y594274D01*
X-302003Y593990D01*
X-301831Y593715D01*
X-301643Y593449D01*
X-301441Y593195D01*
X-301226Y592951D01*
X-274376Y564157D01*
X-274147Y563925D01*
X-273908Y563707D01*
X-273656Y563501D01*
X-273393Y563309D01*
X-273121Y563132D01*
X-272839Y562970D01*
X-272550Y562823D01*
X-272251Y562693D01*
X-271948Y562578D01*
X-271638Y562480D01*
X-271324Y562400D01*
X-271004Y562336D01*
X-270682Y562289D01*
X-270360Y562261D01*
G37*
G36*
X-131705Y-210090D02*
G01*
X-130495Y-210090D01*
X-129287Y-210009D01*
X-128088Y-209848D01*
X-126904Y-209607D01*
X-125736Y-209287D01*
X-124594Y-208891D01*
X-123481Y-208418D01*
X-122400Y-207873D01*
X-121360Y-207256D01*
X-120362Y-206572D01*
X-119413Y-205822D01*
X-118517Y-205011D01*
X-117676Y-204141D01*
X-116895Y-203217D01*
X-116177Y-202244D01*
X-115527Y-201224D01*
X-114944Y-200163D01*
X-114435Y-199066D01*
X-114000Y-197937D01*
X-113643Y-196782D01*
X-113362Y-195605D01*
X-113161Y-194412D01*
X-113040Y-193209D01*
X-113000Y-192000D01*
X-113040Y-190791D01*
X-113161Y-189588D01*
X-113362Y-188395D01*
X-113643Y-187218D01*
X-114000Y-186063D01*
X-114435Y-184934D01*
X-114944Y-183837D01*
X-115527Y-182776D01*
X-116177Y-181756D01*
X-116895Y-180783D01*
X-117676Y-179859D01*
X-118517Y-178989D01*
X-119413Y-178178D01*
X-120362Y-177428D01*
X-121360Y-176744D01*
X-122400Y-176127D01*
X-123481Y-175582D01*
X-124594Y-175109D01*
X-125736Y-174713D01*
X-126904Y-174393D01*
X-128088Y-174152D01*
X-129287Y-173991D01*
X-130495Y-173910D01*
X-131705Y-173910D01*
X-132911Y-173991D01*
X-134111Y-174152D01*
X-135295Y-174393D01*
X-136463Y-174713D01*
X-137605Y-175109D01*
X-138719Y-175582D01*
X-139799Y-176127D01*
X-140838Y-176744D01*
X-141836Y-177428D01*
X-142785Y-178178D01*
X-143683Y-178989D01*
X-144524Y-179859D01*
X-145304Y-180783D01*
X-146022Y-181756D01*
X-146673Y-182776D01*
X-147254Y-183837D01*
X-147763Y-184934D01*
X-148199Y-186063D01*
X-148557Y-187218D01*
X-148837Y-188395D01*
X-149039Y-189588D01*
X-149160Y-190791D01*
X-149200Y-192000D01*
X-149160Y-193209D01*
X-149039Y-194412D01*
X-148837Y-195605D01*
X-148557Y-196782D01*
X-148199Y-197937D01*
X-147763Y-199066D01*
X-147254Y-200163D01*
X-146673Y-201224D01*
X-146022Y-202244D01*
X-145304Y-203217D01*
X-144524Y-204141D01*
X-143683Y-205011D01*
X-142785Y-205822D01*
X-141836Y-206572D01*
X-140838Y-207256D01*
X-139799Y-207873D01*
X-138719Y-208418D01*
X-137605Y-208891D01*
X-136463Y-209287D01*
X-135295Y-209607D01*
X-134111Y-209848D01*
X-132911Y-210009D01*
G37*
G36*
X-101904Y553209D02*
G01*
X-100694Y553209D01*
X-99488Y553290D01*
X-98289Y553451D01*
X-97103Y553692D01*
X-95937Y554012D01*
X-94795Y554408D01*
X-93680Y554881D01*
X-92601Y555426D01*
X-91561Y556043D01*
X-90563Y556727D01*
X-89614Y557477D01*
X-88716Y558288D01*
X-87875Y559158D01*
X-87094Y560082D01*
X-86378Y561055D01*
X-85726Y562075D01*
X-85145Y563136D01*
X-84636Y564233D01*
X-84201Y565362D01*
X-83842Y566517D01*
X-83563Y567694D01*
X-83361Y568887D01*
X-83239Y570090D01*
X-83199Y571299D01*
X-83239Y572509D01*
X-83361Y573711D01*
X-83563Y574904D01*
X-83842Y576081D01*
X-84201Y577236D01*
X-84636Y578365D01*
X-85145Y579462D01*
X-85726Y580523D01*
X-86378Y581543D01*
X-87094Y582516D01*
X-87875Y583440D01*
X-88716Y584310D01*
X-89614Y585121D01*
X-90563Y585871D01*
X-91561Y586555D01*
X-92601Y587172D01*
X-93680Y587717D01*
X-94795Y588190D01*
X-95937Y588586D01*
X-97103Y588906D01*
X-98289Y589147D01*
X-99488Y589308D01*
X-100694Y589389D01*
X-101904Y589389D01*
X-103112Y589308D01*
X-104310Y589147D01*
X-105496Y588906D01*
X-106662Y588586D01*
X-107804Y588190D01*
X-108918Y587717D01*
X-109998Y587172D01*
X-111039Y586555D01*
X-112037Y585871D01*
X-112986Y585121D01*
X-113882Y584310D01*
X-114723Y583440D01*
X-115505Y582516D01*
X-116221Y581543D01*
X-116872Y580523D01*
X-117454Y579462D01*
X-117964Y578365D01*
X-118398Y577236D01*
X-118756Y576081D01*
X-119036Y574904D01*
X-119238Y573711D01*
X-119359Y572509D01*
X-119399Y571299D01*
X-119359Y570090D01*
X-119238Y568887D01*
X-119036Y567694D01*
X-118756Y566517D01*
X-118398Y565362D01*
X-117964Y564233D01*
X-117454Y563136D01*
X-116872Y562075D01*
X-116221Y561055D01*
X-115505Y560082D01*
X-114723Y559158D01*
X-113882Y558288D01*
X-112986Y557477D01*
X-112037Y556727D01*
X-111039Y556043D01*
X-109998Y555426D01*
X-108918Y554881D01*
X-107804Y554408D01*
X-106662Y554012D01*
X-105496Y553692D01*
X-104310Y553451D01*
X-103112Y553290D01*
G37*
G36*
X8694Y-165190D02*
G01*
X9904Y-165190D01*
X11112Y-165109D01*
X12310Y-164948D01*
X13495Y-164707D01*
X14663Y-164387D01*
X15805Y-163991D01*
X16918Y-163518D01*
X17998Y-162973D01*
X19039Y-162356D01*
X20037Y-161672D01*
X20986Y-160922D01*
X21882Y-160111D01*
X22723Y-159241D01*
X23504Y-158317D01*
X24221Y-157344D01*
X24872Y-156324D01*
X25455Y-155263D01*
X25964Y-154166D01*
X26399Y-153037D01*
X26756Y-151882D01*
X27037Y-150705D01*
X27238Y-149512D01*
X27359Y-148309D01*
X27399Y-147100D01*
X27359Y-145891D01*
X27238Y-144688D01*
X27037Y-143495D01*
X26756Y-142318D01*
X26399Y-141163D01*
X25964Y-140034D01*
X25455Y-138937D01*
X24872Y-137876D01*
X24221Y-136856D01*
X23504Y-135883D01*
X22723Y-134959D01*
X21882Y-134089D01*
X20986Y-133278D01*
X20037Y-132528D01*
X19039Y-131844D01*
X17998Y-131227D01*
X16918Y-130682D01*
X15805Y-130209D01*
X14663Y-129813D01*
X13495Y-129493D01*
X12310Y-129252D01*
X11112Y-129091D01*
X9904Y-129010D01*
X8694Y-129010D01*
X7488Y-129091D01*
X6288Y-129252D01*
X5104Y-129493D01*
X3936Y-129813D01*
X2794Y-130209D01*
X1680Y-130682D01*
X600Y-131227D01*
X-438Y-131844D01*
X-1436Y-132528D01*
X-2385Y-133278D01*
X-3283Y-134089D01*
X-4124Y-134959D01*
X-4904Y-135883D01*
X-5622Y-136856D01*
X-6273Y-137876D01*
X-6854Y-138937D01*
X-7363Y-140034D01*
X-7798Y-141163D01*
X-8157Y-142318D01*
X-8437Y-143495D01*
X-8639Y-144688D01*
X-8760Y-145891D01*
X-8800Y-147100D01*
X-8760Y-148309D01*
X-8639Y-149512D01*
X-8437Y-150705D01*
X-8157Y-151882D01*
X-7798Y-153037D01*
X-7363Y-154166D01*
X-6854Y-155263D01*
X-6273Y-156324D01*
X-5622Y-157344D01*
X-4904Y-158317D01*
X-4124Y-159241D01*
X-3283Y-160111D01*
X-2385Y-160922D01*
X-1436Y-161672D01*
X-438Y-162356D01*
X600Y-162973D01*
X1680Y-163518D01*
X2794Y-163991D01*
X3936Y-164387D01*
X5104Y-164707D01*
X6288Y-164948D01*
X7488Y-165109D01*
G37*
G36*
X441204Y-146620D02*
G01*
X442415Y-146620D01*
X443621Y-146539D01*
X444821Y-146378D01*
X446005Y-146137D01*
X447173Y-145817D01*
X448315Y-145421D01*
X449429Y-144948D01*
X450509Y-144403D01*
X451549Y-143786D01*
X452547Y-143102D01*
X453495Y-142352D01*
X454393Y-141541D01*
X455234Y-140671D01*
X456014Y-139747D01*
X456732Y-138774D01*
X457382Y-137754D01*
X457965Y-136693D01*
X458473Y-135596D01*
X458909Y-134467D01*
X459266Y-133312D01*
X459547Y-132135D01*
X459749Y-130942D01*
X459870Y-129739D01*
X459909Y-128530D01*
X459870Y-127321D01*
X459749Y-126118D01*
X459547Y-124925D01*
X459266Y-123748D01*
X458909Y-122593D01*
X458473Y-121464D01*
X457965Y-120367D01*
X457382Y-119306D01*
X456732Y-118286D01*
X456014Y-117313D01*
X455234Y-116389D01*
X454393Y-115519D01*
X453495Y-114708D01*
X452547Y-113958D01*
X451549Y-113274D01*
X450509Y-112657D01*
X449429Y-112112D01*
X448315Y-111639D01*
X447173Y-111243D01*
X446005Y-110923D01*
X444821Y-110682D01*
X443621Y-110521D01*
X442415Y-110440D01*
X441204Y-110440D01*
X439997Y-110521D01*
X438922Y-110666D01*
X439017Y-110265D01*
X439219Y-109072D01*
X439340Y-107869D01*
X439380Y-106660D01*
X439340Y-105451D01*
X439219Y-104248D01*
X439017Y-103055D01*
X438737Y-101878D01*
X438379Y-100723D01*
X437943Y-99594D01*
X437434Y-98497D01*
X436853Y-97436D01*
X436202Y-96416D01*
X435484Y-95443D01*
X434704Y-94519D01*
X433863Y-93649D01*
X432965Y-92838D01*
X432016Y-92088D01*
X431018Y-91404D01*
X429979Y-90787D01*
X428899Y-90242D01*
X427785Y-89769D01*
X426643Y-89373D01*
X425475Y-89053D01*
X424291Y-88812D01*
X423091Y-88651D01*
X421885Y-88570D01*
X420675Y-88570D01*
X419467Y-88651D01*
X418269Y-88812D01*
X417084Y-89053D01*
X415916Y-89373D01*
X414774Y-89769D01*
X413661Y-90242D01*
X412581Y-90787D01*
X411540Y-91404D01*
X410542Y-92088D01*
X409593Y-92838D01*
X408697Y-93649D01*
X407856Y-94519D01*
X407075Y-95443D01*
X406358Y-96416D01*
X405707Y-97436D01*
X405124Y-98497D01*
X404615Y-99594D01*
X404180Y-100723D01*
X403823Y-101878D01*
X403542Y-103055D01*
X403341Y-104248D01*
X403220Y-105451D01*
X403180Y-106660D01*
X403220Y-107869D01*
X403341Y-109072D01*
X403542Y-110265D01*
X403823Y-111442D01*
X404180Y-112597D01*
X404615Y-113726D01*
X405124Y-114823D01*
X405707Y-115884D01*
X406358Y-116904D01*
X407075Y-117877D01*
X407856Y-118801D01*
X408697Y-119671D01*
X409593Y-120482D01*
X410542Y-121232D01*
X411540Y-121916D01*
X412581Y-122533D01*
X413661Y-123078D01*
X414774Y-123551D01*
X415916Y-123947D01*
X417084Y-124267D01*
X418269Y-124508D01*
X419467Y-124669D01*
X420675Y-124750D01*
X421885Y-124750D01*
X423091Y-124669D01*
X424167Y-124524D01*
X424072Y-124925D01*
X423870Y-126118D01*
X423750Y-127321D01*
X423710Y-128530D01*
X423750Y-129739D01*
X423870Y-130942D01*
X424072Y-132135D01*
X424353Y-133312D01*
X424710Y-134467D01*
X425146Y-135596D01*
X425654Y-136693D01*
X426237Y-137754D01*
X426887Y-138774D01*
X427605Y-139747D01*
X428386Y-140671D01*
X429227Y-141541D01*
X430123Y-142352D01*
X431072Y-143102D01*
X432070Y-143786D01*
X433110Y-144403D01*
X434191Y-144948D01*
X435304Y-145421D01*
X436446Y-145817D01*
X437614Y-146137D01*
X438798Y-146378D01*
X439997Y-146539D01*
G37*
G36*
X828294Y528909D02*
G01*
X829504Y528909D01*
X830712Y528990D01*
X831911Y529151D01*
X833095Y529392D01*
X834263Y529712D01*
X835405Y530108D01*
X836518Y530581D01*
X837599Y531126D01*
X838639Y531743D01*
X839637Y532427D01*
X840586Y533177D01*
X841482Y533988D01*
X842323Y534858D01*
X843104Y535782D01*
X843822Y536755D01*
X844472Y537775D01*
X845055Y538836D01*
X845564Y539933D01*
X845999Y541062D01*
X846356Y542217D01*
X846637Y543394D01*
X846839Y544587D01*
X846959Y545790D01*
X846999Y546999D01*
X846959Y548208D01*
X846839Y549411D01*
X846637Y550604D01*
X846356Y551781D01*
X845999Y552936D01*
X845564Y554065D01*
X845055Y555162D01*
X844472Y556223D01*
X843822Y557243D01*
X843104Y558216D01*
X842323Y559140D01*
X841482Y560010D01*
X840586Y560821D01*
X839637Y561571D01*
X838639Y562255D01*
X837599Y562872D01*
X836518Y563417D01*
X835405Y563890D01*
X834263Y564286D01*
X833095Y564606D01*
X831911Y564847D01*
X830712Y565009D01*
X829504Y565089D01*
X828294Y565089D01*
X827088Y565009D01*
X825888Y564847D01*
X824704Y564606D01*
X823536Y564286D01*
X822394Y563890D01*
X821280Y563417D01*
X820200Y562872D01*
X819161Y562255D01*
X818163Y561571D01*
X817214Y560821D01*
X816316Y560010D01*
X815475Y559140D01*
X814695Y558216D01*
X813977Y557243D01*
X813326Y556223D01*
X812745Y555162D01*
X812236Y554065D01*
X811800Y552936D01*
X811442Y551781D01*
X811162Y550604D01*
X810960Y549411D01*
X810839Y548208D01*
X810799Y546999D01*
X810839Y545790D01*
X810960Y544587D01*
X811162Y543394D01*
X811442Y542217D01*
X811800Y541062D01*
X812236Y539933D01*
X812745Y538836D01*
X813326Y537775D01*
X813977Y536755D01*
X814695Y535782D01*
X815475Y534858D01*
X816316Y533988D01*
X817214Y533177D01*
X818163Y532427D01*
X819161Y531743D01*
X820200Y531126D01*
X821280Y530581D01*
X822394Y530108D01*
X823536Y529712D01*
X824704Y529392D01*
X825888Y529151D01*
X827088Y528990D01*
G37*
G36*
X-334404Y-122190D02*
G01*
X-333194Y-122190D01*
X-331988Y-122109D01*
X-330789Y-121948D01*
X-329603Y-121707D01*
X-328437Y-121387D01*
X-327295Y-120991D01*
X-326180Y-120518D01*
X-325101Y-119973D01*
X-324061Y-119356D01*
X-323063Y-118672D01*
X-322114Y-117922D01*
X-321216Y-117111D01*
X-320375Y-116240D01*
X-319594Y-115317D01*
X-318878Y-114344D01*
X-318226Y-113324D01*
X-317645Y-112263D01*
X-317136Y-111166D01*
X-316701Y-110037D01*
X-316342Y-108882D01*
X-316063Y-107705D01*
X-315861Y-106512D01*
X-315739Y-105309D01*
X-315699Y-104100D01*
X-315739Y-102891D01*
X-315861Y-101688D01*
X-316063Y-100495D01*
X-316342Y-99318D01*
X-316701Y-98163D01*
X-317136Y-97034D01*
X-317645Y-95937D01*
X-318226Y-94876D01*
X-318878Y-93856D01*
X-319594Y-92883D01*
X-320375Y-91959D01*
X-321216Y-91089D01*
X-322114Y-90278D01*
X-323063Y-89528D01*
X-324061Y-88844D01*
X-325101Y-88227D01*
X-326180Y-87682D01*
X-327295Y-87209D01*
X-328437Y-86813D01*
X-329603Y-86493D01*
X-330789Y-86252D01*
X-331988Y-86091D01*
X-333194Y-86010D01*
X-334404Y-86010D01*
X-335612Y-86091D01*
X-336810Y-86252D01*
X-337996Y-86493D01*
X-339162Y-86813D01*
X-340304Y-87209D01*
X-341418Y-87682D01*
X-342498Y-88227D01*
X-343539Y-88844D01*
X-344537Y-89528D01*
X-345486Y-90278D01*
X-346382Y-91089D01*
X-347223Y-91959D01*
X-348005Y-92883D01*
X-348721Y-93856D01*
X-349372Y-94876D01*
X-349954Y-95937D01*
X-350464Y-97034D01*
X-350898Y-98163D01*
X-351256Y-99318D01*
X-351536Y-100495D01*
X-351738Y-101688D01*
X-351859Y-102891D01*
X-351899Y-104100D01*
X-351859Y-105309D01*
X-351738Y-106512D01*
X-351536Y-107705D01*
X-351256Y-108882D01*
X-350898Y-110037D01*
X-350464Y-111166D01*
X-349954Y-112263D01*
X-349372Y-113324D01*
X-348721Y-114344D01*
X-348005Y-115317D01*
X-347223Y-116240D01*
X-346382Y-117111D01*
X-345486Y-117922D01*
X-344537Y-118672D01*
X-343539Y-119356D01*
X-342498Y-119973D01*
X-341418Y-120518D01*
X-340304Y-120991D01*
X-339162Y-121387D01*
X-337996Y-121707D01*
X-336810Y-121948D01*
X-335612Y-122109D01*
G37*
G36*
X851197Y-120259D02*
G01*
X851496Y-120255D01*
X852673Y-120211D01*
X852974Y-120192D01*
X854147Y-120089D01*
X854444Y-120056D01*
X855610Y-119895D01*
X855906Y-119846D01*
X857064Y-119627D01*
X857353Y-119565D01*
X858499Y-119289D01*
X858788Y-119211D01*
X859918Y-118878D01*
X860205Y-118786D01*
X861316Y-118397D01*
X861595Y-118291D01*
X862686Y-117847D01*
X862960Y-117728D01*
X864029Y-117230D01*
X864296Y-117097D01*
X865336Y-116547D01*
X865599Y-116400D01*
X866611Y-115798D01*
X866864Y-115639D01*
X867845Y-114988D01*
X868089Y-114818D01*
X869036Y-114119D01*
X869277Y-113932D01*
X870187Y-113186D01*
X870410Y-112995D01*
X871283Y-112205D01*
X871504Y-111997D01*
X872336Y-111164D01*
X872545Y-110944D01*
X873334Y-110070D01*
X873526Y-109848D01*
X874272Y-108937D01*
X874458Y-108697D01*
X875158Y-107749D01*
X875327Y-107506D01*
X875978Y-106525D01*
X876138Y-106272D01*
X876739Y-105259D01*
X876886Y-104997D01*
X877436Y-103956D01*
X877569Y-103689D01*
X878068Y-102621D01*
X878186Y-102347D01*
X878630Y-101256D01*
X878737Y-100977D01*
X879125Y-99866D01*
X879218Y-99579D01*
X879551Y-98449D01*
X879629Y-98159D01*
X879904Y-97014D01*
X879966Y-96724D01*
X880186Y-95567D01*
X880235Y-95271D01*
X880396Y-94104D01*
X880429Y-93808D01*
X880532Y-92634D01*
X880550Y-92334D01*
X880595Y-91157D01*
X880599Y-90857D01*
X880583Y-89680D01*
X880572Y-89384D01*
X880498Y-88208D01*
X880473Y-87907D01*
X880340Y-86737D01*
X880299Y-86443D01*
X880110Y-85280D01*
X880054Y-84983D01*
X879805Y-83832D01*
X879737Y-83547D01*
X879434Y-82409D01*
X879346Y-82114D01*
X878985Y-80993D01*
X878887Y-80718D01*
X878472Y-79616D01*
X878357Y-79335D01*
X877887Y-78256D01*
X877762Y-77987D01*
X877237Y-76932D01*
X877094Y-76662D01*
X876517Y-75635D01*
X876368Y-75383D01*
X875742Y-74386D01*
X875574Y-74135D01*
X874898Y-73170D01*
X874722Y-72929D01*
X873999Y-71999D01*
X873810Y-71770D01*
X873042Y-70877D01*
X872839Y-70652D01*
X872028Y-69799D01*
X871925Y-69693D01*
X844086Y-41855D01*
X843981Y-41752D01*
X843127Y-40940D01*
X842902Y-40737D01*
X842010Y-39969D01*
X841781Y-39781D01*
X840851Y-39057D01*
X840609Y-38881D01*
X839645Y-38205D01*
X839394Y-38038D01*
X838397Y-37412D01*
X838145Y-37262D01*
X837118Y-36685D01*
X836848Y-36542D01*
X835793Y-36018D01*
X835523Y-35893D01*
X834444Y-35422D01*
X834164Y-35307D01*
X833061Y-34892D01*
X832786Y-34795D01*
X831665Y-34433D01*
X831370Y-34346D01*
X830232Y-34042D01*
X829948Y-33974D01*
X828797Y-33726D01*
X828500Y-33670D01*
X827336Y-33480D01*
X827043Y-33439D01*
X825873Y-33307D01*
X825572Y-33281D01*
X824395Y-33208D01*
X824099Y-33196D01*
X822923Y-33181D01*
X822623Y-33185D01*
X821445Y-33229D01*
X821145Y-33248D01*
X819971Y-33351D01*
X819675Y-33384D01*
X818509Y-33545D01*
X818212Y-33594D01*
X817056Y-33813D01*
X816765Y-33875D01*
X815621Y-34151D01*
X815330Y-34229D01*
X814201Y-34562D01*
X813914Y-34654D01*
X812803Y-35043D01*
X812524Y-35149D01*
X811432Y-35593D01*
X811158Y-35712D01*
X810091Y-36210D01*
X809823Y-36343D01*
X808783Y-36893D01*
X808521Y-37040D01*
X807507Y-37642D01*
X807254Y-37801D01*
X806274Y-38452D01*
X806031Y-38622D01*
X805083Y-39321D01*
X804843Y-39508D01*
X803932Y-40254D01*
X803710Y-40445D01*
X802835Y-41235D01*
X802615Y-41443D01*
X801782Y-42276D01*
X801575Y-42496D01*
X800784Y-43370D01*
X800594Y-43592D01*
X799848Y-44503D01*
X799660Y-44743D01*
X798962Y-45691D01*
X798792Y-45934D01*
X798140Y-46915D01*
X797982Y-47168D01*
X797380Y-48181D01*
X797232Y-48443D01*
X796683Y-49484D01*
X796549Y-49751D01*
X796051Y-50819D01*
X795933Y-51093D01*
X795488Y-52184D01*
X795383Y-52463D01*
X794993Y-53574D01*
X794902Y-53861D01*
X794569Y-54990D01*
X794490Y-55281D01*
X794215Y-56426D01*
X794152Y-56716D01*
X793933Y-57873D01*
X793885Y-58169D01*
X793724Y-59336D01*
X793690Y-59632D01*
X793587Y-60806D01*
X793568Y-61106D01*
X793524Y-62283D01*
X793521Y-62583D01*
X793536Y-63760D01*
X793548Y-64056D01*
X793621Y-65232D01*
X793647Y-65533D01*
X793779Y-66703D01*
X793819Y-66997D01*
X794009Y-68160D01*
X794066Y-68457D01*
X794314Y-69608D01*
X794381Y-69893D01*
X794686Y-71031D01*
X794772Y-71326D01*
X795135Y-72447D01*
X795231Y-72722D01*
X795648Y-73824D01*
X795762Y-74105D01*
X796233Y-75184D01*
X796358Y-75453D01*
X796881Y-76508D01*
X797025Y-76778D01*
X797601Y-77805D01*
X797752Y-78057D01*
X798378Y-79054D01*
X798545Y-79305D01*
X799220Y-80270D01*
X799398Y-80511D01*
X800120Y-81441D01*
X800308Y-81670D01*
X801076Y-82563D01*
X801279Y-82788D01*
X802092Y-83641D01*
X802195Y-83747D01*
X830033Y-111585D01*
X830138Y-111688D01*
X830991Y-112500D01*
X831216Y-112703D01*
X832110Y-113471D01*
X832339Y-113659D01*
X833269Y-114382D01*
X833509Y-114559D01*
X834475Y-115235D01*
X834726Y-115402D01*
X835722Y-116028D01*
X835974Y-116178D01*
X837002Y-116755D01*
X837272Y-116898D01*
X838326Y-117422D01*
X838595Y-117547D01*
X839674Y-118018D01*
X839956Y-118132D01*
X841058Y-118548D01*
X841333Y-118645D01*
X842453Y-119007D01*
X842749Y-119094D01*
X843887Y-119398D01*
X844171Y-119466D01*
X845322Y-119714D01*
X845619Y-119770D01*
X846782Y-119960D01*
X847076Y-120001D01*
X848247Y-120133D01*
X848548Y-120159D01*
X849723Y-120232D01*
X850020Y-120244D01*
G37*
G36*
X-335505Y474009D02*
G01*
X-334295Y474009D01*
X-333087Y474090D01*
X-331889Y474251D01*
X-330703Y474492D01*
X-329537Y474812D01*
X-328395Y475208D01*
X-327281Y475681D01*
X-326201Y476226D01*
X-325160Y476843D01*
X-324162Y477527D01*
X-323213Y478277D01*
X-322317Y479088D01*
X-321476Y479958D01*
X-320694Y480882D01*
X-319978Y481855D01*
X-319327Y482875D01*
X-318744Y483936D01*
X-318235Y485033D01*
X-317800Y486162D01*
X-317443Y487317D01*
X-317163Y488494D01*
X-316961Y489687D01*
X-316840Y490890D01*
X-316800Y492099D01*
X-316840Y493308D01*
X-316961Y494511D01*
X-317163Y495704D01*
X-317443Y496881D01*
X-317800Y498036D01*
X-318235Y499165D01*
X-318744Y500262D01*
X-319327Y501323D01*
X-319978Y502343D01*
X-320694Y503316D01*
X-321476Y504240D01*
X-322317Y505110D01*
X-323213Y505921D01*
X-324162Y506671D01*
X-325160Y507355D01*
X-326201Y507972D01*
X-327281Y508517D01*
X-328395Y508990D01*
X-329537Y509386D01*
X-330703Y509706D01*
X-331889Y509947D01*
X-333087Y510108D01*
X-334295Y510189D01*
X-335505Y510189D01*
X-336711Y510108D01*
X-337911Y509947D01*
X-339095Y509706D01*
X-340263Y509386D01*
X-341405Y508990D01*
X-342519Y508517D01*
X-343599Y507972D01*
X-344638Y507355D01*
X-345636Y506671D01*
X-346585Y505921D01*
X-347483Y505110D01*
X-348324Y504240D01*
X-349104Y503316D01*
X-349822Y502343D01*
X-350473Y501323D01*
X-351054Y500262D01*
X-351563Y499165D01*
X-351998Y498036D01*
X-352357Y496881D01*
X-352637Y495704D01*
X-352839Y494511D01*
X-352960Y493308D01*
X-353000Y492099D01*
X-352960Y490890D01*
X-352839Y489687D01*
X-352637Y488494D01*
X-352357Y487317D01*
X-351998Y486162D01*
X-351563Y485033D01*
X-351054Y483936D01*
X-350473Y482875D01*
X-349822Y481855D01*
X-349104Y480882D01*
X-348324Y479958D01*
X-347483Y479088D01*
X-346585Y478277D01*
X-345636Y477527D01*
X-344638Y476843D01*
X-343599Y476226D01*
X-342519Y475681D01*
X-341405Y475208D01*
X-340263Y474812D01*
X-339095Y474492D01*
X-337911Y474251D01*
X-336711Y474090D01*
G37*
G36*
X488594Y-89390D02*
G01*
X489804Y-89390D01*
X491012Y-89309D01*
X492210Y-89148D01*
X493396Y-88907D01*
X494562Y-88587D01*
X495704Y-88191D01*
X496818Y-87718D01*
X497898Y-87173D01*
X498939Y-86556D01*
X499936Y-85872D01*
X500886Y-85122D01*
X501782Y-84311D01*
X502623Y-83441D01*
X503405Y-82517D01*
X504121Y-81544D01*
X504772Y-80524D01*
X505354Y-79463D01*
X505864Y-78366D01*
X506298Y-77237D01*
X506656Y-76082D01*
X506936Y-74905D01*
X507138Y-73712D01*
X507259Y-72509D01*
X507299Y-71300D01*
X507259Y-70091D01*
X507138Y-68888D01*
X506936Y-67695D01*
X506656Y-66518D01*
X506298Y-65363D01*
X505864Y-64234D01*
X505354Y-63137D01*
X504772Y-62076D01*
X504121Y-61056D01*
X503405Y-60083D01*
X502623Y-59159D01*
X501782Y-58289D01*
X500886Y-57478D01*
X499936Y-56728D01*
X498939Y-56044D01*
X497898Y-55427D01*
X496818Y-54882D01*
X495704Y-54409D01*
X494562Y-54013D01*
X493396Y-53693D01*
X492210Y-53452D01*
X491012Y-53291D01*
X489804Y-53210D01*
X488594Y-53210D01*
X487388Y-53291D01*
X486189Y-53452D01*
X485003Y-53693D01*
X483837Y-54013D01*
X482695Y-54409D01*
X481580Y-54882D01*
X480501Y-55427D01*
X479461Y-56044D01*
X478463Y-56728D01*
X477514Y-57478D01*
X476616Y-58289D01*
X475775Y-59159D01*
X474994Y-60083D01*
X474278Y-61056D01*
X473626Y-62076D01*
X473045Y-63137D01*
X472536Y-64234D01*
X472101Y-65363D01*
X471742Y-66518D01*
X471463Y-67695D01*
X471261Y-68888D01*
X471139Y-70091D01*
X471099Y-71300D01*
X471139Y-72509D01*
X471261Y-73712D01*
X471463Y-74905D01*
X471742Y-76082D01*
X472101Y-77237D01*
X472536Y-78366D01*
X473045Y-79463D01*
X473626Y-80524D01*
X474278Y-81544D01*
X474994Y-82517D01*
X475775Y-83441D01*
X476616Y-84311D01*
X477514Y-85122D01*
X478463Y-85872D01*
X479461Y-86556D01*
X480501Y-87173D01*
X481580Y-87718D01*
X482695Y-88191D01*
X483837Y-88587D01*
X485003Y-88907D01*
X486189Y-89148D01*
X487388Y-89309D01*
G37*
G36*
X378594Y-79590D02*
G01*
X379804Y-79590D01*
X381012Y-79509D01*
X382210Y-79348D01*
X383396Y-79107D01*
X384562Y-78787D01*
X385704Y-78391D01*
X386818Y-77918D01*
X387898Y-77373D01*
X388939Y-76756D01*
X389936Y-76072D01*
X390886Y-75322D01*
X391782Y-74511D01*
X392623Y-73641D01*
X393405Y-72717D01*
X394121Y-71744D01*
X394772Y-70724D01*
X395354Y-69663D01*
X395864Y-68566D01*
X396298Y-67437D01*
X396656Y-66282D01*
X396936Y-65105D01*
X397138Y-63912D01*
X397259Y-62709D01*
X397299Y-61500D01*
X397259Y-60291D01*
X397138Y-59088D01*
X396936Y-57895D01*
X396656Y-56718D01*
X396298Y-55563D01*
X395864Y-54434D01*
X395354Y-53337D01*
X394772Y-52276D01*
X394121Y-51256D01*
X393405Y-50283D01*
X392623Y-49359D01*
X391782Y-48489D01*
X390886Y-47678D01*
X389936Y-46928D01*
X388939Y-46244D01*
X387898Y-45627D01*
X386818Y-45082D01*
X385704Y-44609D01*
X384562Y-44213D01*
X383396Y-43893D01*
X382210Y-43652D01*
X381012Y-43491D01*
X379804Y-43410D01*
X378594Y-43410D01*
X377388Y-43491D01*
X376189Y-43652D01*
X375003Y-43893D01*
X373837Y-44213D01*
X372695Y-44609D01*
X371580Y-45082D01*
X370501Y-45627D01*
X369461Y-46244D01*
X368463Y-46928D01*
X367514Y-47678D01*
X366616Y-48489D01*
X365775Y-49359D01*
X364994Y-50283D01*
X364278Y-51256D01*
X363626Y-52276D01*
X363045Y-53337D01*
X362536Y-54434D01*
X362101Y-55563D01*
X361742Y-56718D01*
X361463Y-57895D01*
X361261Y-59088D01*
X361139Y-60291D01*
X361099Y-61500D01*
X361139Y-62709D01*
X361261Y-63912D01*
X361463Y-65105D01*
X361742Y-66282D01*
X362101Y-67437D01*
X362536Y-68566D01*
X363045Y-69663D01*
X363626Y-70724D01*
X364278Y-71744D01*
X364994Y-72717D01*
X365775Y-73641D01*
X366616Y-74511D01*
X367514Y-75322D01*
X368463Y-76072D01*
X369461Y-76756D01*
X370501Y-77373D01*
X371580Y-77918D01*
X372695Y-78391D01*
X373837Y-78787D01*
X375003Y-79107D01*
X376189Y-79348D01*
X377388Y-79509D01*
G37*
G36*
X-11085Y-68260D02*
G01*
X-9875Y-68260D01*
X-8667Y-68179D01*
X-7469Y-68018D01*
X-6283Y-67777D01*
X-5117Y-67457D01*
X-3975Y-67061D01*
X-2861Y-66588D01*
X-1781Y-66043D01*
X-740Y-65426D01*
X257Y-64742D01*
X1206Y-63992D01*
X2102Y-63181D01*
X2943Y-62311D01*
X3725Y-61387D01*
X4441Y-60414D01*
X5092Y-59394D01*
X5675Y-58333D01*
X6184Y-57236D01*
X6619Y-56107D01*
X6976Y-54952D01*
X7256Y-53775D01*
X7458Y-52582D01*
X7579Y-51379D01*
X7619Y-50170D01*
X7579Y-48961D01*
X7458Y-47758D01*
X7256Y-46565D01*
X6976Y-45388D01*
X6619Y-44233D01*
X6184Y-43104D01*
X5675Y-42007D01*
X5092Y-40946D01*
X4441Y-39926D01*
X3725Y-38953D01*
X2943Y-38029D01*
X2102Y-37159D01*
X1206Y-36348D01*
X257Y-35598D01*
X-740Y-34914D01*
X-1781Y-34297D01*
X-2861Y-33752D01*
X-3975Y-33279D01*
X-5117Y-32883D01*
X-6283Y-32563D01*
X-7469Y-32322D01*
X-8667Y-32161D01*
X-9875Y-32080D01*
X-11085Y-32080D01*
X-12291Y-32161D01*
X-13491Y-32322D01*
X-14675Y-32563D01*
X-15843Y-32883D01*
X-16985Y-33279D01*
X-18099Y-33752D01*
X-19179Y-34297D01*
X-20218Y-34914D01*
X-21216Y-35598D01*
X-22165Y-36348D01*
X-23063Y-37159D01*
X-23904Y-38029D01*
X-24684Y-38953D01*
X-25402Y-39926D01*
X-26053Y-40946D01*
X-26634Y-42007D01*
X-27143Y-43104D01*
X-27578Y-44233D01*
X-27937Y-45388D01*
X-28217Y-46565D01*
X-28419Y-47758D01*
X-28540Y-48961D01*
X-28580Y-50170D01*
X-28540Y-51379D01*
X-28419Y-52582D01*
X-28217Y-53775D01*
X-27937Y-54952D01*
X-27578Y-56107D01*
X-27143Y-57236D01*
X-26634Y-58333D01*
X-26053Y-59394D01*
X-25402Y-60414D01*
X-24684Y-61387D01*
X-23904Y-62311D01*
X-23063Y-63181D01*
X-22165Y-63992D01*
X-21216Y-64742D01*
X-20218Y-65426D01*
X-19179Y-66043D01*
X-18099Y-66588D01*
X-16985Y-67061D01*
X-15843Y-67457D01*
X-14675Y-67777D01*
X-13491Y-68018D01*
X-12291Y-68179D01*
G37*
G36*
X463395Y-56790D02*
G01*
X464605Y-56790D01*
X465811Y-56709D01*
X467011Y-56548D01*
X468195Y-56307D01*
X469363Y-55987D01*
X470505Y-55591D01*
X471619Y-55118D01*
X472699Y-54573D01*
X473738Y-53956D01*
X474736Y-53272D01*
X475685Y-52522D01*
X476583Y-51711D01*
X477424Y-50841D01*
X478204Y-49917D01*
X478922Y-48944D01*
X479573Y-47924D01*
X480155Y-46863D01*
X480663Y-45766D01*
X481099Y-44637D01*
X481457Y-43482D01*
X481737Y-42305D01*
X481939Y-41112D01*
X482060Y-39909D01*
X482100Y-38700D01*
X482060Y-37490D01*
X481939Y-36288D01*
X481737Y-35095D01*
X481457Y-33918D01*
X481099Y-32763D01*
X480663Y-31634D01*
X480155Y-30537D01*
X479573Y-29476D01*
X478922Y-28456D01*
X478204Y-27483D01*
X477424Y-26559D01*
X476583Y-25689D01*
X475685Y-24878D01*
X474736Y-24128D01*
X473738Y-23444D01*
X472699Y-22827D01*
X471619Y-22282D01*
X470505Y-21809D01*
X469363Y-21413D01*
X468195Y-21093D01*
X467011Y-20852D01*
X465811Y-20691D01*
X464605Y-20610D01*
X463395Y-20610D01*
X462187Y-20691D01*
X460988Y-20852D01*
X459804Y-21093D01*
X458636Y-21413D01*
X457494Y-21809D01*
X456381Y-22282D01*
X455300Y-22827D01*
X454260Y-23444D01*
X453262Y-24128D01*
X452313Y-24878D01*
X451417Y-25689D01*
X450576Y-26559D01*
X449795Y-27483D01*
X449077Y-28456D01*
X448427Y-29476D01*
X447844Y-30537D01*
X447335Y-31634D01*
X446900Y-32763D01*
X446543Y-33918D01*
X446262Y-35095D01*
X446060Y-36288D01*
X445940Y-37490D01*
X445900Y-38700D01*
X445940Y-39909D01*
X446060Y-41112D01*
X446262Y-42305D01*
X446543Y-43482D01*
X446900Y-44637D01*
X447335Y-45766D01*
X447844Y-46863D01*
X448427Y-47924D01*
X449077Y-48944D01*
X449795Y-49917D01*
X450576Y-50841D01*
X451417Y-51711D01*
X452313Y-52522D01*
X453262Y-53272D01*
X454260Y-53956D01*
X455300Y-54573D01*
X456381Y-55118D01*
X457494Y-55591D01*
X458636Y-55987D01*
X459804Y-56307D01*
X460988Y-56548D01*
X462187Y-56709D01*
G37*
G36*
X263594Y-50090D02*
G01*
X264804Y-50090D01*
X266012Y-50009D01*
X267210Y-49848D01*
X268396Y-49607D01*
X269562Y-49287D01*
X270704Y-48891D01*
X271818Y-48418D01*
X272898Y-47873D01*
X273939Y-47256D01*
X274936Y-46572D01*
X275886Y-45822D01*
X276782Y-45011D01*
X277623Y-44141D01*
X278405Y-43217D01*
X279121Y-42244D01*
X279772Y-41224D01*
X280354Y-40163D01*
X280864Y-39066D01*
X281298Y-37937D01*
X281656Y-36782D01*
X281936Y-35605D01*
X282138Y-34412D01*
X282259Y-33209D01*
X282299Y-32000D01*
X282259Y-30791D01*
X282138Y-29588D01*
X281936Y-28395D01*
X281656Y-27218D01*
X281298Y-26063D01*
X280864Y-24934D01*
X280354Y-23837D01*
X279772Y-22776D01*
X279121Y-21756D01*
X278405Y-20783D01*
X277623Y-19859D01*
X276782Y-18989D01*
X275886Y-18178D01*
X274936Y-17428D01*
X273939Y-16744D01*
X272898Y-16127D01*
X271818Y-15582D01*
X270704Y-15109D01*
X269562Y-14713D01*
X268396Y-14393D01*
X267210Y-14152D01*
X266012Y-13991D01*
X264804Y-13910D01*
X263594Y-13910D01*
X262388Y-13991D01*
X261189Y-14152D01*
X260003Y-14393D01*
X258837Y-14713D01*
X257695Y-15109D01*
X256580Y-15582D01*
X255501Y-16127D01*
X254461Y-16744D01*
X253463Y-17428D01*
X252514Y-18178D01*
X251616Y-18989D01*
X250775Y-19859D01*
X249994Y-20783D01*
X249278Y-21756D01*
X249077Y-22070D01*
X248621Y-21356D01*
X247905Y-20383D01*
X247124Y-19459D01*
X246283Y-18589D01*
X245385Y-17778D01*
X244436Y-17028D01*
X243438Y-16344D01*
X242398Y-15727D01*
X241319Y-15182D01*
X240204Y-14709D01*
X239062Y-14313D01*
X237896Y-13993D01*
X236710Y-13752D01*
X235511Y-13591D01*
X234305Y-13510D01*
X233095Y-13510D01*
X231887Y-13591D01*
X230689Y-13752D01*
X229503Y-13993D01*
X228337Y-14313D01*
X227195Y-14709D01*
X226081Y-15182D01*
X225001Y-15727D01*
X223960Y-16344D01*
X222962Y-17028D01*
X222013Y-17778D01*
X221117Y-18589D01*
X220276Y-19459D01*
X219494Y-20383D01*
X218778Y-21356D01*
X218127Y-22376D01*
X217545Y-23437D01*
X217035Y-24534D01*
X216601Y-25663D01*
X216243Y-26818D01*
X215963Y-27995D01*
X215761Y-29188D01*
X215640Y-30391D01*
X215600Y-31600D01*
X215640Y-32809D01*
X215761Y-34012D01*
X215963Y-35205D01*
X216243Y-36382D01*
X216601Y-37537D01*
X217035Y-38666D01*
X217545Y-39763D01*
X218127Y-40824D01*
X218778Y-41844D01*
X219494Y-42817D01*
X220276Y-43740D01*
X221117Y-44611D01*
X222013Y-45422D01*
X222962Y-46172D01*
X223960Y-46856D01*
X225001Y-47473D01*
X226081Y-48018D01*
X227195Y-48491D01*
X228337Y-48887D01*
X229503Y-49207D01*
X230689Y-49448D01*
X231887Y-49609D01*
X233095Y-49690D01*
X234305Y-49690D01*
X235511Y-49609D01*
X236710Y-49448D01*
X237896Y-49207D01*
X239062Y-48887D01*
X240204Y-48491D01*
X241319Y-48018D01*
X242398Y-47473D01*
X243438Y-46856D01*
X244436Y-46172D01*
X245385Y-45422D01*
X246283Y-44611D01*
X247124Y-43740D01*
X247905Y-42817D01*
X248621Y-41844D01*
X248822Y-41530D01*
X249278Y-42244D01*
X249994Y-43217D01*
X250775Y-44141D01*
X251616Y-45011D01*
X252514Y-45822D01*
X253463Y-46572D01*
X254461Y-47256D01*
X255501Y-47873D01*
X256580Y-48418D01*
X257695Y-48891D01*
X258837Y-49287D01*
X260003Y-49607D01*
X261189Y-49848D01*
X262388Y-50009D01*
G37*
G36*
X283995Y469609D02*
G01*
X285204Y469609D01*
X286412Y469690D01*
X287610Y469851D01*
X288796Y470092D01*
X289962Y470412D01*
X291104Y470808D01*
X292219Y471281D01*
X293298Y471826D01*
X294338Y472443D01*
X295336Y473127D01*
X296286Y473877D01*
X297183Y474688D01*
X298023Y475558D01*
X298805Y476482D01*
X299521Y477455D01*
X300173Y478475D01*
X300754Y479536D01*
X301264Y480634D01*
X301698Y481762D01*
X302057Y482917D01*
X302336Y484094D01*
X302538Y485287D01*
X302659Y486490D01*
X302700Y487699D01*
X302659Y488908D01*
X302538Y490111D01*
X302336Y491304D01*
X302057Y492482D01*
X301698Y493636D01*
X301264Y494765D01*
X300754Y495862D01*
X300173Y496923D01*
X299521Y497943D01*
X298805Y498916D01*
X298023Y499840D01*
X297183Y500710D01*
X296286Y501521D01*
X295336Y502271D01*
X294338Y502955D01*
X293298Y503572D01*
X292219Y504117D01*
X291104Y504590D01*
X289962Y504986D01*
X288796Y505306D01*
X287610Y505547D01*
X286412Y505708D01*
X285204Y505789D01*
X283995Y505789D01*
X282788Y505708D01*
X281589Y505547D01*
X280403Y505306D01*
X279237Y504986D01*
X278095Y504590D01*
X276980Y504117D01*
X275901Y503572D01*
X274861Y502955D01*
X273863Y502271D01*
X272914Y501521D01*
X272016Y500710D01*
X271175Y499840D01*
X270394Y498916D01*
X269678Y497943D01*
X269026Y496923D01*
X268445Y495862D01*
X267935Y494765D01*
X267501Y493636D01*
X267142Y492482D01*
X266863Y491304D01*
X266661Y490111D01*
X266540Y488908D01*
X266499Y487699D01*
X266540Y486490D01*
X266661Y485287D01*
X266863Y484094D01*
X267142Y482917D01*
X267501Y481762D01*
X267935Y480634D01*
X268445Y479536D01*
X269026Y478475D01*
X269678Y477455D01*
X270394Y476482D01*
X271175Y475558D01*
X272016Y474688D01*
X272914Y473877D01*
X273863Y473127D01*
X274861Y472443D01*
X275901Y471826D01*
X276980Y471281D01*
X278095Y470808D01*
X279237Y470412D01*
X280403Y470092D01*
X281589Y469851D01*
X282788Y469690D01*
G37*
G36*
X496895Y-38090D02*
G01*
X498104Y-38090D01*
X499311Y-38009D01*
X500510Y-37848D01*
X501696Y-37607D01*
X502862Y-37287D01*
X504004Y-36891D01*
X505119Y-36418D01*
X506198Y-35873D01*
X507238Y-35256D01*
X508236Y-34572D01*
X509185Y-33822D01*
X510083Y-33011D01*
X510924Y-32141D01*
X511705Y-31217D01*
X512421Y-30244D01*
X513073Y-29224D01*
X513654Y-28163D01*
X514164Y-27066D01*
X514598Y-25937D01*
X514957Y-24782D01*
X515236Y-23605D01*
X515438Y-22412D01*
X515559Y-21209D01*
X515600Y-20000D01*
X515559Y-18791D01*
X515438Y-17588D01*
X515236Y-16395D01*
X514957Y-15218D01*
X514598Y-14063D01*
X514164Y-12934D01*
X513654Y-11837D01*
X513073Y-10776D01*
X512421Y-9756D01*
X511705Y-8783D01*
X510924Y-7859D01*
X510083Y-6989D01*
X509185Y-6178D01*
X508236Y-5428D01*
X507238Y-4744D01*
X506198Y-4127D01*
X505119Y-3582D01*
X504004Y-3109D01*
X502862Y-2713D01*
X501696Y-2393D01*
X500510Y-2152D01*
X499311Y-1991D01*
X498104Y-1910D01*
X496895Y-1910D01*
X495688Y-1991D01*
X494489Y-2152D01*
X493303Y-2393D01*
X492137Y-2713D01*
X490995Y-3109D01*
X489880Y-3582D01*
X488801Y-4127D01*
X487761Y-4744D01*
X486763Y-5428D01*
X485814Y-6178D01*
X484916Y-6989D01*
X484076Y-7859D01*
X483294Y-8783D01*
X482578Y-9756D01*
X481926Y-10776D01*
X481345Y-11837D01*
X480835Y-12934D01*
X480401Y-14063D01*
X480042Y-15218D01*
X479763Y-16395D01*
X479561Y-17588D01*
X479440Y-18791D01*
X479399Y-20000D01*
X479440Y-21209D01*
X479561Y-22412D01*
X479763Y-23605D01*
X480042Y-24782D01*
X480401Y-25937D01*
X480835Y-27066D01*
X481345Y-28163D01*
X481926Y-29224D01*
X482578Y-30244D01*
X483294Y-31217D01*
X484076Y-32141D01*
X484916Y-33011D01*
X485814Y-33822D01*
X486763Y-34572D01*
X487761Y-35256D01*
X488801Y-35873D01*
X489880Y-36418D01*
X490995Y-36891D01*
X492137Y-37287D01*
X493303Y-37607D01*
X494489Y-37848D01*
X495688Y-38009D01*
G37*
G36*
X452094Y458509D02*
G01*
X453305Y458509D01*
X454512Y458590D01*
X455711Y458751D01*
X456895Y458992D01*
X458063Y459312D01*
X459205Y459708D01*
X460318Y460181D01*
X461399Y460726D01*
X462439Y461343D01*
X463437Y462027D01*
X464386Y462777D01*
X465282Y463588D01*
X466123Y464458D01*
X466904Y465382D01*
X467622Y466355D01*
X468272Y467375D01*
X468855Y468436D01*
X469363Y469533D01*
X469799Y470662D01*
X470156Y471817D01*
X470437Y472994D01*
X470639Y474187D01*
X470760Y475390D01*
X470799Y476599D01*
X470760Y477808D01*
X470639Y479011D01*
X470437Y480204D01*
X470312Y480728D01*
X470689Y480651D01*
X471887Y480490D01*
X473095Y480409D01*
X474305Y480409D01*
X475511Y480490D01*
X476710Y480651D01*
X477896Y480892D01*
X479062Y481212D01*
X480204Y481608D01*
X481319Y482081D01*
X482398Y482626D01*
X483438Y483243D01*
X484436Y483927D01*
X485385Y484677D01*
X486283Y485488D01*
X487124Y486358D01*
X487905Y487282D01*
X488621Y488255D01*
X489273Y489275D01*
X489854Y490336D01*
X490363Y491433D01*
X490798Y492562D01*
X491157Y493717D01*
X491436Y494894D01*
X491638Y496087D01*
X491760Y497290D01*
X491800Y498499D01*
X491760Y499708D01*
X491638Y500911D01*
X491436Y502104D01*
X491157Y503281D01*
X490798Y504436D01*
X490363Y505565D01*
X489854Y506662D01*
X489273Y507723D01*
X488621Y508743D01*
X487905Y509716D01*
X487124Y510640D01*
X486283Y511510D01*
X485385Y512321D01*
X484436Y513071D01*
X483438Y513755D01*
X482398Y514372D01*
X481319Y514917D01*
X480204Y515390D01*
X479062Y515786D01*
X477896Y516106D01*
X476710Y516347D01*
X475511Y516508D01*
X474305Y516589D01*
X473095Y516589D01*
X471887Y516508D01*
X470689Y516347D01*
X469503Y516106D01*
X468337Y515786D01*
X467195Y515390D01*
X466081Y514917D01*
X465001Y514372D01*
X463960Y513755D01*
X462962Y513071D01*
X462013Y512321D01*
X461117Y511510D01*
X460276Y510640D01*
X459494Y509716D01*
X458778Y508743D01*
X458127Y507723D01*
X457545Y506662D01*
X457035Y505565D01*
X456601Y504436D01*
X456243Y503281D01*
X455963Y502104D01*
X455761Y500911D01*
X455640Y499708D01*
X455600Y498499D01*
X455640Y497290D01*
X455761Y496087D01*
X455963Y494894D01*
X456087Y494370D01*
X455711Y494447D01*
X454512Y494608D01*
X453305Y494689D01*
X452094Y494689D01*
X450888Y494608D01*
X449688Y494447D01*
X448504Y494206D01*
X447336Y493886D01*
X446194Y493490D01*
X445081Y493017D01*
X444000Y492472D01*
X442960Y491855D01*
X441962Y491171D01*
X441013Y490421D01*
X440117Y489610D01*
X439275Y488741D01*
X438495Y487817D01*
X437777Y486843D01*
X437127Y485823D01*
X436544Y484762D01*
X436036Y483665D01*
X435600Y482536D01*
X435243Y481381D01*
X434962Y480204D01*
X434760Y479011D01*
X434639Y477808D01*
X434600Y476599D01*
X434639Y475390D01*
X434760Y474187D01*
X434962Y472994D01*
X435243Y471817D01*
X435600Y470662D01*
X436036Y469533D01*
X436544Y468436D01*
X437127Y467375D01*
X437777Y466355D01*
X438495Y465382D01*
X439275Y464458D01*
X440117Y463588D01*
X441013Y462777D01*
X441962Y462027D01*
X442960Y461343D01*
X444000Y460726D01*
X445081Y460181D01*
X446194Y459708D01*
X447336Y459312D01*
X448504Y458992D01*
X449688Y458751D01*
X450888Y458590D01*
G37*
G36*
X574395Y-11290D02*
G01*
X575604Y-11290D01*
X576811Y-11209D01*
X578010Y-11048D01*
X579196Y-10807D01*
X580362Y-10487D01*
X581504Y-10091D01*
X582619Y-9618D01*
X583698Y-9073D01*
X584738Y-8456D01*
X585736Y-7772D01*
X586685Y-7022D01*
X587583Y-6211D01*
X588424Y-5341D01*
X589205Y-4417D01*
X589921Y-3444D01*
X590573Y-2424D01*
X591154Y-1363D01*
X591664Y-266D01*
X592098Y862D01*
X592457Y2017D01*
X592736Y3194D01*
X592938Y4387D01*
X593059Y5590D01*
X593100Y6799D01*
X593059Y8008D01*
X592938Y9211D01*
X592736Y10404D01*
X592457Y11581D01*
X592098Y12736D01*
X591664Y13865D01*
X591154Y14962D01*
X590573Y16023D01*
X589921Y17043D01*
X589205Y18016D01*
X588424Y18940D01*
X587583Y19810D01*
X586685Y20621D01*
X585736Y21371D01*
X584738Y22055D01*
X583698Y22672D01*
X582619Y23217D01*
X581504Y23690D01*
X580362Y24086D01*
X579196Y24406D01*
X578010Y24647D01*
X576811Y24808D01*
X575604Y24889D01*
X574395Y24889D01*
X573188Y24808D01*
X571989Y24647D01*
X570803Y24406D01*
X569637Y24086D01*
X568495Y23690D01*
X567380Y23217D01*
X566301Y22672D01*
X565261Y22055D01*
X564263Y21371D01*
X563314Y20621D01*
X562416Y19810D01*
X561576Y18940D01*
X560794Y18016D01*
X560078Y17043D01*
X559426Y16023D01*
X558845Y14962D01*
X558335Y13865D01*
X557901Y12736D01*
X557542Y11581D01*
X557263Y10404D01*
X557061Y9211D01*
X556940Y8008D01*
X556899Y6799D01*
X556940Y5590D01*
X557061Y4387D01*
X557263Y3194D01*
X557542Y2017D01*
X557901Y862D01*
X558335Y-266D01*
X558845Y-1363D01*
X559426Y-2424D01*
X560078Y-3444D01*
X560794Y-4417D01*
X561576Y-5341D01*
X562416Y-6211D01*
X563314Y-7022D01*
X564263Y-7772D01*
X565261Y-8456D01*
X566301Y-9073D01*
X567380Y-9618D01*
X568495Y-10091D01*
X569637Y-10487D01*
X570803Y-10807D01*
X571989Y-11048D01*
X573188Y-11209D01*
G37*
G36*
X837155Y-10035D02*
G01*
X904085Y-10035D01*
X904409Y-10026D01*
X904733Y-10000D01*
X905056Y-9956D01*
X905375Y-9895D01*
X905690Y-9816D01*
X906000Y-9721D01*
X906306Y-9609D01*
X906603Y-9480D01*
X906895Y-9336D01*
X907178Y-9176D01*
X907452Y-9001D01*
X907716Y-8812D01*
X907969Y-8608D01*
X908211Y-8391D01*
X908441Y-8161D01*
X908657Y-7919D01*
X908861Y-7666D01*
X909050Y-7402D01*
X909225Y-7128D01*
X909386Y-6845D01*
X909530Y-6554D01*
X909659Y-6256D01*
X909771Y-5951D01*
X909866Y-5640D01*
X909944Y-5325D01*
X910006Y-5006D01*
X910050Y-4684D01*
X910075Y-4360D01*
X910084Y-4035D01*
X910084Y62894D01*
X910075Y63219D01*
X910050Y63543D01*
X910006Y63865D01*
X909944Y64184D01*
X909866Y64499D01*
X909771Y64810D01*
X909659Y65115D01*
X909530Y65413D01*
X909386Y65704D01*
X909311Y65835D01*
X909723Y65722D01*
X910909Y65481D01*
X912107Y65320D01*
X913315Y65239D01*
X914525Y65239D01*
X915731Y65320D01*
X916931Y65481D01*
X918116Y65722D01*
X919282Y66042D01*
X920424Y66438D01*
X921539Y66911D01*
X922619Y67456D01*
X923658Y68073D01*
X924656Y68757D01*
X925605Y69507D01*
X926503Y70318D01*
X927344Y71188D01*
X928125Y72112D01*
X928842Y73085D01*
X929493Y74105D01*
X930074Y75166D01*
X930583Y76263D01*
X931018Y77392D01*
X931377Y78547D01*
X931656Y79724D01*
X931859Y80917D01*
X931980Y82120D01*
X932020Y83329D01*
X931980Y84538D01*
X931859Y85741D01*
X931656Y86934D01*
X931377Y88111D01*
X931018Y89266D01*
X930583Y90395D01*
X930074Y91492D01*
X929493Y92553D01*
X928842Y93573D01*
X928125Y94546D01*
X927344Y95470D01*
X926503Y96340D01*
X925605Y97151D01*
X924656Y97901D01*
X923658Y98585D01*
X922619Y99202D01*
X921539Y99747D01*
X920424Y100220D01*
X919282Y100616D01*
X918116Y100936D01*
X916931Y101177D01*
X915731Y101338D01*
X914525Y101419D01*
X913315Y101419D01*
X912107Y101338D01*
X910909Y101177D01*
X909723Y100936D01*
X908557Y100616D01*
X907415Y100220D01*
X906301Y99747D01*
X905221Y99202D01*
X904180Y98585D01*
X903182Y97901D01*
X902233Y97151D01*
X901337Y96340D01*
X900496Y95470D01*
X899714Y94546D01*
X898998Y93573D01*
X898347Y92553D01*
X897764Y91492D01*
X897255Y90395D01*
X896820Y89266D01*
X896463Y88111D01*
X896183Y86934D01*
X895981Y85741D01*
X895860Y84538D01*
X895820Y83329D01*
X895860Y82120D01*
X895981Y80917D01*
X896183Y79724D01*
X896463Y78547D01*
X896820Y77392D01*
X897255Y76263D01*
X897764Y75166D01*
X898347Y74105D01*
X898998Y73085D01*
X899714Y72112D01*
X900496Y71188D01*
X901337Y70318D01*
X902233Y69507D01*
X903010Y68894D01*
X837155Y68894D01*
X836829Y68885D01*
X836505Y68859D01*
X836184Y68815D01*
X835865Y68754D01*
X835550Y68675D01*
X835239Y68580D01*
X834934Y68468D01*
X834636Y68339D01*
X834345Y68195D01*
X834062Y68035D01*
X833788Y67860D01*
X833523Y67671D01*
X833271Y67467D01*
X833028Y67250D01*
X832799Y67020D01*
X832582Y66778D01*
X832377Y66525D01*
X832188Y66261D01*
X832013Y65987D01*
X831854Y65704D01*
X831710Y65413D01*
X831580Y65115D01*
X831468Y64810D01*
X831373Y64499D01*
X831295Y64184D01*
X831234Y63865D01*
X831189Y63543D01*
X831163Y63219D01*
X831154Y62894D01*
X831154Y-4035D01*
X831163Y-4360D01*
X831189Y-4684D01*
X831234Y-5006D01*
X831295Y-5325D01*
X831373Y-5640D01*
X831468Y-5951D01*
X831580Y-6256D01*
X831710Y-6554D01*
X831854Y-6845D01*
X832013Y-7128D01*
X832188Y-7402D01*
X832377Y-7666D01*
X832582Y-7919D01*
X832799Y-8161D01*
X833028Y-8391D01*
X833271Y-8608D01*
X833523Y-8812D01*
X833788Y-9001D01*
X834062Y-9176D01*
X834345Y-9336D01*
X834636Y-9480D01*
X834934Y-9609D01*
X835239Y-9721D01*
X835550Y-9816D01*
X835865Y-9895D01*
X836184Y-9956D01*
X836505Y-10000D01*
X836829Y-10026D01*
G37*
G36*
X739846Y-8899D02*
G01*
X740146Y-8895D01*
X741324Y-8851D01*
X741624Y-8832D01*
X742798Y-8729D01*
X743094Y-8696D01*
X744260Y-8535D01*
X744557Y-8486D01*
X745713Y-8267D01*
X746004Y-8205D01*
X747148Y-7929D01*
X747439Y-7851D01*
X748568Y-7518D01*
X748855Y-7426D01*
X749966Y-7037D01*
X750245Y-6931D01*
X751337Y-6487D01*
X751611Y-6368D01*
X752678Y-5870D01*
X752946Y-5737D01*
X753986Y-5187D01*
X754248Y-5040D01*
X755262Y-4438D01*
X755514Y-4279D01*
X756495Y-3628D01*
X756738Y-3458D01*
X757686Y-2759D01*
X757926Y-2572D01*
X758837Y-1826D01*
X759059Y-1635D01*
X759934Y-845D01*
X760154Y-637D01*
X760986Y195D01*
X761194Y415D01*
X761985Y1289D01*
X762175Y1511D01*
X762921Y2422D01*
X763109Y2662D01*
X763807Y3610D01*
X763977Y3853D01*
X764629Y4834D01*
X764787Y5087D01*
X765389Y6100D01*
X765537Y6362D01*
X766086Y7403D01*
X766220Y7670D01*
X766718Y8738D01*
X766836Y9012D01*
X767281Y10103D01*
X767386Y10382D01*
X767776Y11493D01*
X767867Y11780D01*
X768200Y12910D01*
X768279Y13200D01*
X768554Y14345D01*
X768617Y14635D01*
X768836Y15792D01*
X768885Y16088D01*
X769045Y17255D01*
X769079Y17551D01*
X769182Y18725D01*
X769201Y19025D01*
X769245Y20202D01*
X769248Y20502D01*
X769233Y21679D01*
X769221Y21975D01*
X769148Y23151D01*
X769122Y23452D01*
X768990Y24622D01*
X768950Y24916D01*
X768760Y26079D01*
X768703Y26376D01*
X768455Y27527D01*
X768388Y27812D01*
X768083Y28950D01*
X767996Y29245D01*
X767635Y30366D01*
X767538Y30641D01*
X767121Y31743D01*
X767007Y32024D01*
X766536Y33103D01*
X766412Y33372D01*
X765888Y34427D01*
X765744Y34697D01*
X765168Y35724D01*
X765018Y35976D01*
X764391Y36973D01*
X764224Y37224D01*
X763549Y38189D01*
X763371Y38430D01*
X762649Y39360D01*
X762461Y39589D01*
X761692Y40482D01*
X761490Y40707D01*
X760677Y41560D01*
X760574Y41666D01*
X732736Y69504D01*
X732631Y69607D01*
X731778Y70419D01*
X731553Y70622D01*
X730659Y71390D01*
X730430Y71578D01*
X729501Y72301D01*
X729260Y72478D01*
X728294Y73154D01*
X728043Y73321D01*
X727047Y73947D01*
X726795Y74097D01*
X725767Y74674D01*
X725497Y74817D01*
X724443Y75341D01*
X724174Y75466D01*
X723095Y75937D01*
X722813Y76051D01*
X721711Y76467D01*
X721436Y76564D01*
X720316Y76926D01*
X720020Y77013D01*
X718882Y77317D01*
X718598Y77385D01*
X717447Y77633D01*
X717150Y77689D01*
X715986Y77879D01*
X715693Y77920D01*
X714522Y78052D01*
X714221Y78078D01*
X713046Y78151D01*
X712749Y78163D01*
X711572Y78178D01*
X711273Y78174D01*
X710096Y78130D01*
X709795Y78111D01*
X708621Y78008D01*
X708325Y77975D01*
X707159Y77814D01*
X706863Y77765D01*
X705706Y77546D01*
X705415Y77484D01*
X704270Y77208D01*
X703981Y77130D01*
X702851Y76797D01*
X702564Y76705D01*
X701453Y76316D01*
X701174Y76210D01*
X700083Y75766D01*
X699808Y75647D01*
X698741Y75149D01*
X698473Y75016D01*
X697433Y74466D01*
X697170Y74319D01*
X696157Y73717D01*
X695905Y73558D01*
X694924Y72907D01*
X694681Y72737D01*
X693733Y72038D01*
X693492Y71851D01*
X692582Y71105D01*
X692359Y70914D01*
X691486Y70124D01*
X691265Y69916D01*
X690433Y69083D01*
X690225Y68863D01*
X689435Y67989D01*
X689243Y67767D01*
X688497Y66856D01*
X688311Y66616D01*
X687611Y65668D01*
X687442Y65425D01*
X686791Y64444D01*
X686631Y64191D01*
X686030Y63178D01*
X685883Y62916D01*
X685333Y61875D01*
X685200Y61608D01*
X684701Y60540D01*
X684583Y60266D01*
X684138Y59175D01*
X684032Y58896D01*
X683644Y57785D01*
X683551Y57498D01*
X683218Y56368D01*
X683140Y56078D01*
X682865Y54933D01*
X682803Y54643D01*
X682583Y53486D01*
X682534Y53190D01*
X682373Y52023D01*
X682340Y51727D01*
X682237Y50553D01*
X682219Y50253D01*
X682174Y49076D01*
X682170Y48776D01*
X682186Y47599D01*
X682197Y47303D01*
X682271Y46127D01*
X682296Y45826D01*
X682429Y44656D01*
X682470Y44362D01*
X682659Y43199D01*
X682716Y42902D01*
X682964Y41751D01*
X683032Y41466D01*
X683335Y40328D01*
X683423Y40033D01*
X683784Y38912D01*
X683882Y38637D01*
X684297Y37535D01*
X684412Y37254D01*
X684882Y36175D01*
X685007Y35906D01*
X685532Y34851D01*
X685675Y34581D01*
X686252Y33554D01*
X686401Y33302D01*
X687028Y32305D01*
X687195Y32054D01*
X687870Y31089D01*
X688047Y30848D01*
X688770Y29918D01*
X688959Y29689D01*
X689727Y28796D01*
X689930Y28571D01*
X690742Y27718D01*
X690844Y27612D01*
X718683Y-225D01*
X718788Y-328D01*
X719642Y-1140D01*
X719867Y-1343D01*
X720760Y-2111D01*
X720988Y-2299D01*
X721918Y-3022D01*
X722160Y-3199D01*
X723125Y-3875D01*
X723375Y-4042D01*
X724372Y-4668D01*
X724624Y-4818D01*
X725652Y-5395D01*
X725922Y-5538D01*
X726976Y-6062D01*
X727245Y-6187D01*
X728325Y-6658D01*
X728605Y-6772D01*
X729708Y-7188D01*
X729983Y-7285D01*
X731103Y-7647D01*
X731399Y-7734D01*
X732537Y-8038D01*
X732821Y-8106D01*
X733972Y-8354D01*
X734269Y-8410D01*
X735433Y-8600D01*
X735726Y-8641D01*
X736896Y-8773D01*
X737197Y-8799D01*
X738374Y-8872D01*
X738670Y-8884D01*
G37*
G36*
X795415Y28039D02*
G01*
X796625Y28039D01*
X797831Y28120D01*
X799031Y28281D01*
X800216Y28522D01*
X801382Y28842D01*
X802524Y29238D01*
X803639Y29711D01*
X804719Y30256D01*
X805758Y30873D01*
X806756Y31557D01*
X807705Y32307D01*
X808603Y33118D01*
X809444Y33988D01*
X810225Y34912D01*
X810942Y35885D01*
X811593Y36905D01*
X812174Y37966D01*
X812683Y39063D01*
X813118Y40192D01*
X813477Y41347D01*
X813756Y42524D01*
X813959Y43717D01*
X814080Y44920D01*
X814120Y46129D01*
X814080Y47338D01*
X813959Y48541D01*
X813756Y49734D01*
X813477Y50911D01*
X813118Y52066D01*
X812683Y53195D01*
X812174Y54292D01*
X811593Y55353D01*
X810942Y56373D01*
X810225Y57346D01*
X809444Y58270D01*
X808603Y59140D01*
X807705Y59951D01*
X806756Y60701D01*
X805758Y61385D01*
X804719Y62002D01*
X803639Y62547D01*
X802524Y63020D01*
X801382Y63416D01*
X800216Y63736D01*
X799031Y63977D01*
X797831Y64138D01*
X796625Y64219D01*
X795415Y64219D01*
X794207Y64138D01*
X793009Y63977D01*
X791823Y63736D01*
X790657Y63416D01*
X789515Y63020D01*
X788401Y62547D01*
X787321Y62002D01*
X786280Y61385D01*
X785282Y60701D01*
X784333Y59951D01*
X783437Y59140D01*
X782596Y58270D01*
X781814Y57346D01*
X781098Y56373D01*
X780447Y55353D01*
X779864Y54292D01*
X779355Y53195D01*
X778921Y52066D01*
X778563Y50911D01*
X778283Y49734D01*
X778081Y48541D01*
X777960Y47338D01*
X777920Y46129D01*
X777960Y44920D01*
X778081Y43717D01*
X778283Y42524D01*
X778563Y41347D01*
X778921Y40192D01*
X779355Y39063D01*
X779864Y37966D01*
X780447Y36905D01*
X781098Y35885D01*
X781814Y34912D01*
X782596Y33988D01*
X783437Y33118D01*
X784333Y32307D01*
X785282Y31557D01*
X786280Y30873D01*
X787321Y30256D01*
X788401Y29711D01*
X789515Y29238D01*
X790657Y28842D01*
X791823Y28522D01*
X793009Y28281D01*
X794207Y28120D01*
G37*
G36*
X166495Y38309D02*
G01*
X167704Y38309D01*
X168912Y38390D01*
X170110Y38551D01*
X171296Y38792D01*
X172462Y39112D01*
X173604Y39508D01*
X174719Y39981D01*
X175798Y40526D01*
X176838Y41143D01*
X177836Y41827D01*
X178786Y42577D01*
X179683Y43388D01*
X180523Y44258D01*
X181305Y45182D01*
X182021Y46155D01*
X182673Y47175D01*
X183254Y48236D01*
X183764Y49333D01*
X184198Y50462D01*
X184557Y51617D01*
X184836Y52794D01*
X185038Y53987D01*
X185159Y55190D01*
X185200Y56399D01*
X185159Y57608D01*
X185038Y58811D01*
X184836Y60004D01*
X184557Y61181D01*
X184198Y62336D01*
X183764Y63465D01*
X183254Y64562D01*
X182673Y65623D01*
X182021Y66643D01*
X181305Y67616D01*
X180523Y68540D01*
X179683Y69410D01*
X178786Y70221D01*
X177836Y70971D01*
X176838Y71655D01*
X175798Y72272D01*
X174719Y72817D01*
X173604Y73290D01*
X172462Y73686D01*
X171296Y74006D01*
X170110Y74247D01*
X168912Y74408D01*
X167704Y74489D01*
X166495Y74489D01*
X165288Y74408D01*
X164089Y74247D01*
X162903Y74006D01*
X161737Y73686D01*
X160595Y73290D01*
X159480Y72817D01*
X158401Y72272D01*
X157361Y71655D01*
X156363Y70971D01*
X155414Y70221D01*
X154516Y69410D01*
X153675Y68540D01*
X152894Y67616D01*
X152178Y66643D01*
X151526Y65623D01*
X150945Y64562D01*
X150435Y63465D01*
X150001Y62336D01*
X149642Y61181D01*
X149363Y60004D01*
X149161Y58811D01*
X149040Y57608D01*
X148999Y56399D01*
X149040Y55190D01*
X149161Y53987D01*
X149363Y52794D01*
X149642Y51617D01*
X150001Y50462D01*
X150435Y49333D01*
X150945Y48236D01*
X151526Y47175D01*
X152178Y46155D01*
X152894Y45182D01*
X153675Y44258D01*
X154516Y43388D01*
X155414Y42577D01*
X156363Y41827D01*
X157361Y41143D01*
X158401Y40526D01*
X159480Y39981D01*
X160595Y39508D01*
X161737Y39112D01*
X162903Y38792D01*
X164089Y38551D01*
X165288Y38390D01*
G37*
G36*
X742794Y447409D02*
G01*
X744004Y447409D01*
X745212Y447491D01*
X746410Y447651D01*
X747596Y447892D01*
X748762Y448212D01*
X749904Y448608D01*
X751018Y449081D01*
X752098Y449626D01*
X753139Y450243D01*
X754137Y450927D01*
X755086Y451677D01*
X755982Y452488D01*
X756823Y453358D01*
X757605Y454282D01*
X758321Y455255D01*
X758972Y456275D01*
X759555Y457336D01*
X760064Y458433D01*
X760498Y459562D01*
X760856Y460717D01*
X761136Y461894D01*
X761338Y463087D01*
X761459Y464290D01*
X761499Y465499D01*
X761459Y466708D01*
X761338Y467911D01*
X761136Y469104D01*
X760856Y470281D01*
X760498Y471436D01*
X760064Y472565D01*
X759555Y473662D01*
X758972Y474723D01*
X758321Y475743D01*
X757605Y476716D01*
X756823Y477640D01*
X755982Y478510D01*
X755086Y479321D01*
X754137Y480071D01*
X753139Y480755D01*
X752098Y481372D01*
X751018Y481917D01*
X749904Y482390D01*
X748762Y482786D01*
X747596Y483107D01*
X746410Y483347D01*
X745212Y483508D01*
X744004Y483589D01*
X742794Y483589D01*
X741588Y483508D01*
X740388Y483347D01*
X739203Y483107D01*
X738037Y482786D01*
X736895Y482390D01*
X735780Y481917D01*
X734701Y481372D01*
X733661Y480755D01*
X732663Y480071D01*
X731714Y479321D01*
X730816Y478510D01*
X729975Y477640D01*
X729194Y476716D01*
X728478Y475743D01*
X727826Y474723D01*
X727245Y473662D01*
X726736Y472565D01*
X726301Y471436D01*
X725942Y470281D01*
X725663Y469104D01*
X725460Y467911D01*
X725339Y466708D01*
X725299Y465499D01*
X725339Y464290D01*
X725460Y463087D01*
X725663Y461894D01*
X725942Y460717D01*
X726301Y459562D01*
X726736Y458433D01*
X727245Y457336D01*
X727826Y456275D01*
X728478Y455255D01*
X729194Y454282D01*
X729975Y453358D01*
X730816Y452488D01*
X731714Y451677D01*
X732663Y450927D01*
X733661Y450243D01*
X734701Y449626D01*
X735780Y449081D01*
X736895Y448608D01*
X738037Y448212D01*
X739203Y447892D01*
X740388Y447651D01*
X741588Y447491D01*
G37*
G36*
X95595Y80909D02*
G01*
X96805Y80909D01*
X98011Y80990D01*
X99210Y81151D01*
X100396Y81392D01*
X101562Y81712D01*
X102704Y82108D01*
X103819Y82581D01*
X104898Y83126D01*
X105938Y83743D01*
X106936Y84427D01*
X107885Y85177D01*
X108783Y85988D01*
X109624Y86858D01*
X110405Y87782D01*
X111121Y88755D01*
X111773Y89775D01*
X112354Y90836D01*
X112863Y91933D01*
X113298Y93062D01*
X113657Y94217D01*
X113936Y95394D01*
X114138Y96587D01*
X114260Y97790D01*
X114300Y98999D01*
X114260Y100208D01*
X114138Y101411D01*
X113936Y102604D01*
X113657Y103781D01*
X113298Y104936D01*
X112863Y106065D01*
X112354Y107162D01*
X111773Y108223D01*
X111121Y109243D01*
X110405Y110216D01*
X109624Y111140D01*
X108783Y112010D01*
X107885Y112821D01*
X106936Y113571D01*
X105938Y114255D01*
X104898Y114872D01*
X103819Y115417D01*
X102704Y115890D01*
X101562Y116286D01*
X100396Y116606D01*
X99210Y116847D01*
X98011Y117008D01*
X96805Y117089D01*
X95595Y117089D01*
X94387Y117008D01*
X93189Y116847D01*
X92003Y116606D01*
X90837Y116286D01*
X89695Y115890D01*
X88581Y115417D01*
X87501Y114872D01*
X86460Y114255D01*
X85462Y113571D01*
X84513Y112821D01*
X83617Y112010D01*
X82776Y111140D01*
X81994Y110216D01*
X81278Y109243D01*
X80627Y108223D01*
X80045Y107162D01*
X79535Y106065D01*
X79101Y104936D01*
X78743Y103781D01*
X78463Y102604D01*
X78261Y101411D01*
X78140Y100208D01*
X78100Y98999D01*
X78140Y97790D01*
X78261Y96587D01*
X78463Y95394D01*
X78743Y94217D01*
X79101Y93062D01*
X79535Y91933D01*
X80045Y90836D01*
X80627Y89775D01*
X81278Y88755D01*
X81994Y87782D01*
X82776Y86858D01*
X83617Y85988D01*
X84513Y85177D01*
X85462Y84427D01*
X86460Y83743D01*
X87501Y83126D01*
X88581Y82581D01*
X89695Y82108D01*
X90837Y81712D01*
X92003Y81392D01*
X93189Y81151D01*
X94387Y80990D01*
G37*
G36*
X870173Y89867D02*
G01*
X871961Y89887D01*
X873746Y89988D01*
X875525Y90170D01*
X877295Y90432D01*
X879049Y90773D01*
X880788Y91193D01*
X882505Y91692D01*
X884198Y92268D01*
X885864Y92919D01*
X887497Y93645D01*
X889098Y94444D01*
X890659Y95315D01*
X892181Y96256D01*
X893657Y97264D01*
X895087Y98338D01*
X896468Y99475D01*
X897794Y100674D01*
X899067Y101931D01*
X900280Y103244D01*
X901432Y104611D01*
X902523Y106029D01*
X903548Y107495D01*
X904504Y109005D01*
X905393Y110557D01*
X906211Y112148D01*
X906954Y113774D01*
X907626Y115431D01*
X908220Y117118D01*
X908738Y118830D01*
X909178Y120563D01*
X909539Y122314D01*
X909821Y124080D01*
X910023Y125857D01*
X910144Y127641D01*
X910183Y129429D01*
X910144Y131217D01*
X910023Y133001D01*
X909821Y134778D01*
X909539Y136544D01*
X909178Y138295D01*
X908738Y140028D01*
X908220Y141740D01*
X907626Y143427D01*
X906954Y145084D01*
X906211Y146710D01*
X905393Y148301D01*
X904504Y149853D01*
X903548Y151363D01*
X902523Y152829D01*
X901432Y154247D01*
X900280Y155614D01*
X899067Y156927D01*
X897794Y158184D01*
X896468Y159384D01*
X895087Y160520D01*
X893657Y161594D01*
X892181Y162602D01*
X890659Y163543D01*
X889098Y164414D01*
X887497Y165213D01*
X885864Y165939D01*
X884198Y166590D01*
X882505Y167166D01*
X880788Y167665D01*
X879049Y168085D01*
X877295Y168426D01*
X875525Y168688D01*
X873746Y168870D01*
X871961Y168971D01*
X870173Y168991D01*
X868386Y168930D01*
X866603Y168789D01*
X864828Y168567D01*
X863065Y168266D01*
X861319Y167885D01*
X859589Y167425D01*
X857884Y166888D01*
X856204Y166274D01*
X854555Y165585D01*
X852938Y164822D01*
X851355Y163987D01*
X849813Y163081D01*
X848315Y162107D01*
X846860Y161065D01*
X845456Y159960D01*
X844102Y158791D01*
X842802Y157563D01*
X841558Y156277D01*
X840375Y154937D01*
X839254Y153544D01*
X838195Y152102D01*
X837205Y150614D01*
X836282Y149082D01*
X835429Y147510D01*
X834647Y145902D01*
X833940Y144259D01*
X833307Y142587D01*
X832750Y140887D01*
X832272Y139164D01*
X831871Y137422D01*
X831549Y135662D01*
X831307Y133891D01*
X831145Y132110D01*
X831066Y130323D01*
X831066Y128535D01*
X831145Y126748D01*
X831307Y124967D01*
X831549Y123196D01*
X831871Y121436D01*
X832272Y119694D01*
X832750Y117971D01*
X833307Y116271D01*
X833940Y114599D01*
X834647Y112956D01*
X835429Y111348D01*
X836282Y109776D01*
X837205Y108244D01*
X838195Y106756D01*
X839254Y105314D01*
X840375Y103921D01*
X841558Y102581D01*
X842802Y101295D01*
X844102Y100067D01*
X845456Y98898D01*
X846860Y97793D01*
X848315Y96751D01*
X849813Y95777D01*
X851355Y94871D01*
X852938Y94036D01*
X854555Y93273D01*
X856204Y92584D01*
X857884Y91970D01*
X859589Y91433D01*
X861319Y90973D01*
X863065Y90592D01*
X864828Y90291D01*
X866603Y90069D01*
X868386Y89928D01*
G37*
G36*
X113194Y115209D02*
G01*
X114404Y115209D01*
X115612Y115290D01*
X116810Y115451D01*
X117996Y115692D01*
X119162Y116012D01*
X120304Y116408D01*
X121418Y116881D01*
X122498Y117426D01*
X123539Y118043D01*
X124537Y118727D01*
X125486Y119477D01*
X126382Y120288D01*
X127223Y121158D01*
X128005Y122082D01*
X128721Y123055D01*
X129372Y124075D01*
X129954Y125136D01*
X130464Y126233D01*
X130898Y127362D01*
X131256Y128517D01*
X131536Y129694D01*
X131738Y130887D01*
X131859Y132090D01*
X131899Y133299D01*
X131859Y134508D01*
X131738Y135711D01*
X131536Y136904D01*
X131256Y138081D01*
X130898Y139236D01*
X130464Y140365D01*
X129954Y141462D01*
X129372Y142523D01*
X128721Y143543D01*
X128005Y144516D01*
X127223Y145440D01*
X126382Y146310D01*
X125486Y147121D01*
X124537Y147871D01*
X123539Y148555D01*
X122498Y149172D01*
X121418Y149717D01*
X120304Y150190D01*
X119162Y150586D01*
X117996Y150906D01*
X116810Y151147D01*
X115612Y151308D01*
X114404Y151389D01*
X113194Y151389D01*
X111988Y151308D01*
X110789Y151147D01*
X109603Y150906D01*
X108437Y150586D01*
X107295Y150190D01*
X106180Y149717D01*
X105101Y149172D01*
X104061Y148555D01*
X103063Y147871D01*
X102114Y147121D01*
X101216Y146310D01*
X100375Y145440D01*
X99594Y144516D01*
X98878Y143543D01*
X98226Y142523D01*
X97645Y141462D01*
X97136Y140365D01*
X96701Y139236D01*
X96342Y138081D01*
X96063Y136904D01*
X95861Y135711D01*
X95739Y134508D01*
X95699Y133299D01*
X95739Y132090D01*
X95861Y130887D01*
X96063Y129694D01*
X96342Y128517D01*
X96701Y127362D01*
X97136Y126233D01*
X97645Y125136D01*
X98226Y124075D01*
X98878Y123055D01*
X99594Y122082D01*
X100375Y121158D01*
X101216Y120288D01*
X102114Y119477D01*
X103063Y118727D01*
X104061Y118043D01*
X105101Y117426D01*
X106180Y116881D01*
X107295Y116408D01*
X108437Y116012D01*
X109603Y115692D01*
X110789Y115451D01*
X111988Y115290D01*
G37*
G36*
X216594Y125809D02*
G01*
X217804Y125809D01*
X219012Y125890D01*
X220210Y126051D01*
X221396Y126292D01*
X222563Y126612D01*
X223704Y127008D01*
X224818Y127481D01*
X225898Y128026D01*
X226939Y128643D01*
X227937Y129327D01*
X228886Y130077D01*
X229782Y130888D01*
X230623Y131758D01*
X231405Y132682D01*
X232121Y133655D01*
X232772Y134675D01*
X233355Y135736D01*
X233864Y136833D01*
X234299Y137962D01*
X234656Y139117D01*
X234936Y140294D01*
X235138Y141487D01*
X235259Y142690D01*
X235299Y143899D01*
X235259Y145108D01*
X235138Y146311D01*
X234936Y147504D01*
X234656Y148681D01*
X234299Y149836D01*
X233864Y150965D01*
X233355Y152062D01*
X232772Y153123D01*
X232121Y154143D01*
X231405Y155116D01*
X230623Y156040D01*
X229782Y156910D01*
X228886Y157721D01*
X227937Y158471D01*
X226939Y159155D01*
X225898Y159772D01*
X224818Y160317D01*
X223704Y160790D01*
X222563Y161186D01*
X221396Y161506D01*
X220210Y161747D01*
X219012Y161908D01*
X217804Y161989D01*
X216594Y161989D01*
X215388Y161908D01*
X214188Y161747D01*
X213004Y161506D01*
X211836Y161186D01*
X210694Y160790D01*
X209580Y160317D01*
X208500Y159772D01*
X207461Y159155D01*
X206463Y158471D01*
X205514Y157721D01*
X204616Y156910D01*
X203775Y156040D01*
X202995Y155116D01*
X202277Y154143D01*
X202040Y153772D01*
X201422Y154743D01*
X200704Y155716D01*
X199924Y156640D01*
X199083Y157510D01*
X198185Y158321D01*
X197236Y159071D01*
X196238Y159755D01*
X195199Y160372D01*
X194119Y160917D01*
X193005Y161390D01*
X191863Y161786D01*
X190695Y162106D01*
X189511Y162347D01*
X188311Y162509D01*
X187105Y162589D01*
X185895Y162589D01*
X184687Y162509D01*
X183488Y162347D01*
X182304Y162106D01*
X181136Y161786D01*
X179994Y161390D01*
X178881Y160917D01*
X177800Y160372D01*
X176760Y159755D01*
X175762Y159071D01*
X174813Y158321D01*
X173917Y157510D01*
X173076Y156640D01*
X172295Y155716D01*
X171577Y154743D01*
X170927Y153723D01*
X170344Y152662D01*
X169835Y151565D01*
X169400Y150436D01*
X169043Y149281D01*
X168762Y148104D01*
X168560Y146911D01*
X168440Y145708D01*
X168400Y144499D01*
X168440Y143290D01*
X168560Y142087D01*
X168762Y140894D01*
X169043Y139717D01*
X169400Y138562D01*
X169835Y137433D01*
X170344Y136336D01*
X170927Y135275D01*
X171577Y134255D01*
X172295Y133282D01*
X173076Y132358D01*
X173917Y131488D01*
X174813Y130677D01*
X175762Y129927D01*
X176760Y129243D01*
X177800Y128626D01*
X178881Y128081D01*
X179994Y127608D01*
X181136Y127212D01*
X182304Y126892D01*
X183488Y126651D01*
X184687Y126490D01*
X185895Y126409D01*
X187105Y126409D01*
X188311Y126490D01*
X189511Y126651D01*
X190695Y126892D01*
X191863Y127212D01*
X193005Y127608D01*
X194119Y128081D01*
X195199Y128626D01*
X196238Y129243D01*
X197236Y129927D01*
X198185Y130677D01*
X199083Y131488D01*
X199924Y132358D01*
X200704Y133282D01*
X201422Y134255D01*
X201658Y134626D01*
X202277Y133655D01*
X202995Y132682D01*
X203775Y131758D01*
X204616Y130888D01*
X205514Y130077D01*
X206463Y129327D01*
X207461Y128643D01*
X208500Y128026D01*
X209580Y127481D01*
X210694Y127008D01*
X211836Y126612D01*
X213004Y126292D01*
X214188Y126051D01*
X215388Y125890D01*
G37*
G36*
X29194Y436309D02*
G01*
X30405Y436309D01*
X31611Y436390D01*
X32811Y436551D01*
X33995Y436792D01*
X35163Y437112D01*
X36305Y437509D01*
X37418Y437981D01*
X38499Y438526D01*
X39539Y439143D01*
X40537Y439827D01*
X41486Y440577D01*
X42382Y441388D01*
X43224Y442258D01*
X44004Y443182D01*
X44722Y444155D01*
X45372Y445175D01*
X45955Y446236D01*
X46463Y447333D01*
X46899Y448462D01*
X47256Y449617D01*
X47537Y450794D01*
X47739Y451987D01*
X47860Y453190D01*
X47899Y454399D01*
X47860Y455608D01*
X47739Y456811D01*
X47537Y458004D01*
X47256Y459181D01*
X46899Y460336D01*
X46463Y461465D01*
X45955Y462562D01*
X45372Y463623D01*
X44722Y464643D01*
X44004Y465616D01*
X43224Y466540D01*
X42382Y467410D01*
X41599Y468118D01*
X42219Y468381D01*
X43298Y468926D01*
X44338Y469543D01*
X45336Y470227D01*
X46286Y470977D01*
X47183Y471788D01*
X48023Y472658D01*
X48805Y473582D01*
X49521Y474555D01*
X50173Y475575D01*
X50754Y476636D01*
X51264Y477733D01*
X51698Y478862D01*
X52057Y480017D01*
X52336Y481194D01*
X52538Y482387D01*
X52659Y483590D01*
X52700Y484799D01*
X52659Y486008D01*
X52538Y487211D01*
X52336Y488404D01*
X52057Y489581D01*
X51698Y490736D01*
X51264Y491866D01*
X50754Y492962D01*
X50173Y494023D01*
X49521Y495043D01*
X48805Y496016D01*
X48023Y496940D01*
X47183Y497810D01*
X46286Y498621D01*
X45336Y499371D01*
X44338Y500055D01*
X43298Y500672D01*
X42219Y501217D01*
X41104Y501690D01*
X39962Y502086D01*
X38796Y502406D01*
X37610Y502647D01*
X36412Y502808D01*
X35204Y502889D01*
X33995Y502889D01*
X32788Y502808D01*
X31589Y502647D01*
X30403Y502406D01*
X29237Y502086D01*
X28095Y501690D01*
X26980Y501217D01*
X25901Y500672D01*
X24861Y500055D01*
X23863Y499371D01*
X22914Y498621D01*
X22016Y497810D01*
X21175Y496940D01*
X20394Y496016D01*
X19678Y495043D01*
X19026Y494023D01*
X18445Y492962D01*
X17935Y491866D01*
X17501Y490736D01*
X17142Y489581D01*
X16863Y488404D01*
X16661Y487211D01*
X16540Y486008D01*
X16499Y484799D01*
X16540Y483590D01*
X16661Y482387D01*
X16863Y481194D01*
X17142Y480017D01*
X17501Y478862D01*
X17935Y477733D01*
X18445Y476636D01*
X19026Y475575D01*
X19678Y474555D01*
X20394Y473582D01*
X21175Y472658D01*
X22016Y471788D01*
X22799Y471080D01*
X22181Y470817D01*
X21100Y470272D01*
X20060Y469655D01*
X19062Y468971D01*
X18113Y468221D01*
X17217Y467410D01*
X16376Y466540D01*
X15595Y465616D01*
X14877Y464643D01*
X14227Y463623D01*
X13644Y462562D01*
X13136Y461465D01*
X12700Y460336D01*
X12343Y459181D01*
X12062Y458004D01*
X11860Y456811D01*
X11739Y455608D01*
X11700Y454399D01*
X11739Y453190D01*
X11860Y451987D01*
X12062Y450794D01*
X12343Y449617D01*
X12700Y448462D01*
X13136Y447333D01*
X13644Y446236D01*
X14227Y445175D01*
X14877Y444155D01*
X15595Y443182D01*
X16376Y442258D01*
X17217Y441388D01*
X18113Y440577D01*
X19062Y439827D01*
X20060Y439143D01*
X21100Y438526D01*
X22181Y437981D01*
X23294Y437509D01*
X24436Y437112D01*
X25604Y436792D01*
X26788Y436551D01*
X27987Y436390D01*
G37*
G36*
X425394Y420909D02*
G01*
X426604Y420909D01*
X427812Y420990D01*
X429011Y421151D01*
X430195Y421392D01*
X431363Y421712D01*
X432505Y422108D01*
X433618Y422581D01*
X434699Y423126D01*
X435739Y423743D01*
X436737Y424427D01*
X437686Y425177D01*
X438582Y425988D01*
X439423Y426858D01*
X440204Y427782D01*
X440922Y428755D01*
X441572Y429775D01*
X442155Y430836D01*
X442664Y431933D01*
X443099Y433062D01*
X443456Y434217D01*
X443737Y435394D01*
X443939Y436587D01*
X444059Y437790D01*
X444099Y438999D01*
X444059Y440208D01*
X443939Y441411D01*
X443737Y442604D01*
X443456Y443781D01*
X443099Y444936D01*
X442664Y446065D01*
X442155Y447162D01*
X441572Y448223D01*
X440922Y449243D01*
X440204Y450216D01*
X439423Y451140D01*
X438582Y452010D01*
X437686Y452821D01*
X436737Y453571D01*
X435739Y454255D01*
X434699Y454872D01*
X433618Y455417D01*
X432505Y455890D01*
X431363Y456286D01*
X430195Y456606D01*
X429011Y456847D01*
X427812Y457008D01*
X426604Y457089D01*
X425394Y457089D01*
X424188Y457008D01*
X422988Y456847D01*
X421804Y456606D01*
X420636Y456286D01*
X419494Y455890D01*
X418380Y455417D01*
X417300Y454872D01*
X416261Y454255D01*
X415263Y453571D01*
X414314Y452821D01*
X413416Y452010D01*
X412575Y451140D01*
X411795Y450216D01*
X411077Y449243D01*
X410426Y448223D01*
X409844Y447162D01*
X409336Y446065D01*
X408900Y444936D01*
X408542Y443781D01*
X408262Y442604D01*
X408060Y441411D01*
X407939Y440208D01*
X407899Y438999D01*
X407939Y437790D01*
X408060Y436587D01*
X408262Y435394D01*
X408542Y434217D01*
X408900Y433062D01*
X409336Y431933D01*
X409844Y430836D01*
X410426Y429775D01*
X411077Y428755D01*
X411795Y427782D01*
X412575Y426858D01*
X413416Y425988D01*
X414314Y425177D01*
X415263Y424427D01*
X416261Y423743D01*
X417300Y423126D01*
X418380Y422581D01*
X419494Y422108D01*
X420636Y421712D01*
X421804Y421392D01*
X422988Y421151D01*
X424188Y420990D01*
G37*
G36*
X477995Y-456290D02*
G01*
X479205Y-456290D01*
X480411Y-456209D01*
X481611Y-456048D01*
X482795Y-455807D01*
X483963Y-455487D01*
X485105Y-455091D01*
X486219Y-454618D01*
X487299Y-454073D01*
X488338Y-453456D01*
X489336Y-452772D01*
X490285Y-452022D01*
X491183Y-451211D01*
X492024Y-450341D01*
X492804Y-449417D01*
X493522Y-448444D01*
X494173Y-447424D01*
X494754Y-446363D01*
X495263Y-445266D01*
X495699Y-444137D01*
X496057Y-442982D01*
X496337Y-441805D01*
X496539Y-440612D01*
X496660Y-439409D01*
X496700Y-438200D01*
X496660Y-436991D01*
X496539Y-435788D01*
X496337Y-434595D01*
X496057Y-433418D01*
X495699Y-432263D01*
X495263Y-431134D01*
X494754Y-430037D01*
X494173Y-428976D01*
X493522Y-427956D01*
X492804Y-426983D01*
X492024Y-426059D01*
X491183Y-425189D01*
X490285Y-424378D01*
X489336Y-423628D01*
X488338Y-422944D01*
X487299Y-422327D01*
X486219Y-421782D01*
X485105Y-421309D01*
X483963Y-420913D01*
X482795Y-420593D01*
X481611Y-420352D01*
X480411Y-420191D01*
X479205Y-420110D01*
X477995Y-420110D01*
X476787Y-420191D01*
X475588Y-420352D01*
X474404Y-420593D01*
X473236Y-420913D01*
X472094Y-421309D01*
X470981Y-421782D01*
X469900Y-422327D01*
X468860Y-422944D01*
X467862Y-423628D01*
X466913Y-424378D01*
X466017Y-425189D01*
X465176Y-426059D01*
X464395Y-426983D01*
X463677Y-427956D01*
X463027Y-428976D01*
X462444Y-430037D01*
X461935Y-431134D01*
X461500Y-432263D01*
X461143Y-433418D01*
X460862Y-434595D01*
X460661Y-435788D01*
X460540Y-436991D01*
X460500Y-438200D01*
X460540Y-439409D01*
X460661Y-440612D01*
X460862Y-441805D01*
X461143Y-442982D01*
X461500Y-444137D01*
X461935Y-445266D01*
X462444Y-446363D01*
X463027Y-447424D01*
X463677Y-448444D01*
X464395Y-449417D01*
X465176Y-450341D01*
X466017Y-451211D01*
X466913Y-452022D01*
X467862Y-452772D01*
X468860Y-453456D01*
X469900Y-454073D01*
X470981Y-454618D01*
X472094Y-455091D01*
X473236Y-455487D01*
X474404Y-455807D01*
X475588Y-456048D01*
X476787Y-456209D01*
G37*
G36*
X117995Y164309D02*
G01*
X119205Y164309D01*
X120411Y164390D01*
X121611Y164551D01*
X122795Y164792D01*
X123963Y165112D01*
X125105Y165508D01*
X126219Y165981D01*
X127299Y166526D01*
X128338Y167143D01*
X129336Y167827D01*
X130285Y168577D01*
X131183Y169388D01*
X132024Y170258D01*
X132804Y171182D01*
X133522Y172155D01*
X134173Y173175D01*
X134754Y174236D01*
X135263Y175333D01*
X135699Y176462D01*
X136057Y177617D01*
X136337Y178794D01*
X136539Y179987D01*
X136660Y181190D01*
X136700Y182399D01*
X136660Y183608D01*
X136539Y184811D01*
X136337Y186004D01*
X136057Y187181D01*
X135699Y188336D01*
X135263Y189465D01*
X134754Y190562D01*
X134173Y191623D01*
X133522Y192643D01*
X132804Y193616D01*
X132024Y194540D01*
X131183Y195410D01*
X130285Y196221D01*
X129336Y196971D01*
X128338Y197655D01*
X127299Y198272D01*
X126219Y198817D01*
X125105Y199290D01*
X123963Y199686D01*
X122795Y200006D01*
X121611Y200247D01*
X120411Y200408D01*
X119205Y200489D01*
X117995Y200489D01*
X116787Y200408D01*
X115588Y200247D01*
X114404Y200006D01*
X113236Y199686D01*
X112094Y199290D01*
X110981Y198817D01*
X109900Y198272D01*
X108860Y197655D01*
X107862Y196971D01*
X106913Y196221D01*
X106017Y195410D01*
X105176Y194540D01*
X104395Y193616D01*
X103677Y192643D01*
X103027Y191623D01*
X102444Y190562D01*
X101935Y189465D01*
X101500Y188336D01*
X101143Y187181D01*
X100862Y186004D01*
X100661Y184811D01*
X100540Y183608D01*
X100500Y182399D01*
X100540Y181190D01*
X100661Y179987D01*
X100862Y178794D01*
X101143Y177617D01*
X101500Y176462D01*
X101935Y175333D01*
X102444Y174236D01*
X103027Y173175D01*
X103677Y172155D01*
X104395Y171182D01*
X105176Y170258D01*
X106017Y169388D01*
X106913Y168577D01*
X107862Y167827D01*
X108860Y167143D01*
X109900Y166526D01*
X110981Y165981D01*
X112094Y165508D01*
X113236Y165112D01*
X114404Y164792D01*
X115588Y164551D01*
X116787Y164390D01*
G37*
G36*
X508095Y181209D02*
G01*
X509305Y181209D01*
X510511Y181290D01*
X511710Y181451D01*
X512896Y181692D01*
X514062Y182012D01*
X515204Y182408D01*
X516319Y182881D01*
X517398Y183426D01*
X518438Y184043D01*
X519436Y184727D01*
X520385Y185477D01*
X521283Y186288D01*
X522124Y187158D01*
X522905Y188082D01*
X523621Y189055D01*
X524273Y190075D01*
X524854Y191136D01*
X525363Y192233D01*
X525798Y193362D01*
X526157Y194517D01*
X526436Y195694D01*
X526638Y196887D01*
X526760Y198090D01*
X526800Y199299D01*
X526760Y200508D01*
X526638Y201711D01*
X526436Y202904D01*
X526157Y204081D01*
X525798Y205236D01*
X525363Y206365D01*
X524854Y207462D01*
X524273Y208523D01*
X523621Y209543D01*
X522905Y210516D01*
X522124Y211440D01*
X521283Y212310D01*
X520385Y213121D01*
X519436Y213871D01*
X518438Y214555D01*
X517398Y215172D01*
X516319Y215717D01*
X515204Y216190D01*
X514062Y216586D01*
X512896Y216906D01*
X511710Y217147D01*
X510511Y217308D01*
X509305Y217389D01*
X508095Y217389D01*
X506887Y217308D01*
X505689Y217147D01*
X504503Y216906D01*
X503337Y216586D01*
X502195Y216190D01*
X501081Y215717D01*
X500001Y215172D01*
X498960Y214555D01*
X497962Y213871D01*
X497013Y213121D01*
X496117Y212310D01*
X495276Y211440D01*
X494494Y210516D01*
X493778Y209543D01*
X493127Y208523D01*
X492545Y207462D01*
X492035Y206365D01*
X491601Y205236D01*
X491243Y204081D01*
X490963Y202904D01*
X490761Y201711D01*
X490640Y200508D01*
X490600Y199299D01*
X490640Y198090D01*
X490761Y196887D01*
X490963Y195694D01*
X491243Y194517D01*
X491601Y193362D01*
X492035Y192233D01*
X492545Y191136D01*
X493127Y190075D01*
X493778Y189055D01*
X494494Y188082D01*
X495276Y187158D01*
X496117Y186288D01*
X497013Y185477D01*
X497962Y184727D01*
X498960Y184043D01*
X500001Y183426D01*
X501081Y182881D01*
X502195Y182408D01*
X503337Y182012D01*
X504503Y181692D01*
X505689Y181451D01*
X506887Y181290D01*
G37*
G36*
X870173Y189867D02*
G01*
X871961Y189887D01*
X873746Y189988D01*
X875525Y190170D01*
X877295Y190432D01*
X879049Y190773D01*
X880788Y191193D01*
X882505Y191692D01*
X884198Y192268D01*
X885864Y192919D01*
X887497Y193645D01*
X889098Y194444D01*
X890659Y195315D01*
X892181Y196256D01*
X893657Y197264D01*
X895087Y198338D01*
X896468Y199475D01*
X897794Y200674D01*
X899067Y201931D01*
X900280Y203244D01*
X901432Y204611D01*
X902523Y206029D01*
X903548Y207495D01*
X904504Y209005D01*
X905393Y210557D01*
X906211Y212148D01*
X906954Y213774D01*
X907626Y215431D01*
X908220Y217118D01*
X908738Y218830D01*
X909178Y220563D01*
X909539Y222314D01*
X909821Y224080D01*
X910023Y225857D01*
X910144Y227641D01*
X910183Y229429D01*
X910144Y231217D01*
X910023Y233001D01*
X909821Y234778D01*
X909539Y236544D01*
X909178Y238295D01*
X908738Y240028D01*
X908220Y241740D01*
X907626Y243427D01*
X906954Y245084D01*
X906211Y246710D01*
X905393Y248301D01*
X904504Y249853D01*
X903548Y251363D01*
X902523Y252829D01*
X901432Y254247D01*
X900280Y255614D01*
X899067Y256927D01*
X897794Y258184D01*
X896468Y259384D01*
X895087Y260520D01*
X893657Y261594D01*
X892181Y262602D01*
X890659Y263543D01*
X889098Y264414D01*
X887497Y265213D01*
X885864Y265939D01*
X884198Y266590D01*
X882505Y267166D01*
X880788Y267665D01*
X879049Y268085D01*
X877295Y268426D01*
X875525Y268688D01*
X873746Y268870D01*
X871961Y268971D01*
X870173Y268991D01*
X868386Y268930D01*
X866603Y268789D01*
X864828Y268567D01*
X863065Y268266D01*
X861319Y267885D01*
X859589Y267425D01*
X857884Y266888D01*
X856204Y266274D01*
X854555Y265585D01*
X852938Y264822D01*
X851355Y263987D01*
X849813Y263081D01*
X848315Y262107D01*
X846860Y261065D01*
X845456Y259960D01*
X844102Y258791D01*
X842802Y257563D01*
X841558Y256277D01*
X840375Y254937D01*
X839254Y253544D01*
X838195Y252102D01*
X837205Y250614D01*
X836282Y249082D01*
X835429Y247510D01*
X834647Y245902D01*
X833940Y244259D01*
X833307Y242587D01*
X832750Y240887D01*
X832272Y239164D01*
X831871Y237422D01*
X831549Y235662D01*
X831307Y233891D01*
X831145Y232110D01*
X831066Y230323D01*
X831066Y228535D01*
X831145Y226748D01*
X831307Y224967D01*
X831549Y223196D01*
X831871Y221436D01*
X832272Y219694D01*
X832750Y217971D01*
X833307Y216271D01*
X833940Y214599D01*
X834647Y212956D01*
X835429Y211348D01*
X836282Y209776D01*
X837205Y208244D01*
X838195Y206756D01*
X839254Y205314D01*
X840375Y203921D01*
X841558Y202581D01*
X842802Y201295D01*
X844102Y200067D01*
X845456Y198898D01*
X846860Y197793D01*
X848315Y196751D01*
X849813Y195777D01*
X851355Y194871D01*
X852938Y194036D01*
X854555Y193273D01*
X856204Y192584D01*
X857884Y191970D01*
X859589Y191433D01*
X861319Y190973D01*
X863065Y190592D01*
X864828Y190291D01*
X866603Y190069D01*
X868386Y189928D01*
G37*
G36*
X494094Y225909D02*
G01*
X495304Y225909D01*
X496512Y225990D01*
X497710Y226151D01*
X498896Y226392D01*
X500063Y226712D01*
X501204Y227108D01*
X502318Y227581D01*
X503398Y228126D01*
X504439Y228743D01*
X505437Y229427D01*
X506386Y230177D01*
X507282Y230988D01*
X508123Y231858D01*
X508905Y232782D01*
X509621Y233755D01*
X510272Y234775D01*
X510855Y235836D01*
X511364Y236933D01*
X511799Y238062D01*
X512156Y239217D01*
X512436Y240394D01*
X512638Y241587D01*
X512759Y242790D01*
X512799Y243999D01*
X512759Y245208D01*
X512638Y246411D01*
X512436Y247604D01*
X512156Y248781D01*
X511799Y249936D01*
X511364Y251065D01*
X510855Y252162D01*
X510272Y253223D01*
X509621Y254243D01*
X508905Y255216D01*
X508123Y256140D01*
X507282Y257010D01*
X506386Y257821D01*
X505437Y258571D01*
X504439Y259255D01*
X503398Y259872D01*
X502318Y260417D01*
X501204Y260890D01*
X500063Y261286D01*
X498896Y261606D01*
X497710Y261847D01*
X496512Y262008D01*
X495304Y262089D01*
X494094Y262089D01*
X492888Y262008D01*
X491688Y261847D01*
X490504Y261606D01*
X489336Y261286D01*
X488194Y260890D01*
X487080Y260417D01*
X486000Y259872D01*
X484961Y259255D01*
X483963Y258571D01*
X483014Y257821D01*
X482116Y257010D01*
X481275Y256140D01*
X480495Y255216D01*
X479777Y254243D01*
X479126Y253223D01*
X478545Y252162D01*
X478036Y251065D01*
X477601Y249936D01*
X477242Y248781D01*
X476962Y247604D01*
X476760Y246411D01*
X476639Y245208D01*
X476599Y243999D01*
X476639Y242790D01*
X476760Y241587D01*
X476962Y240394D01*
X477242Y239217D01*
X477601Y238062D01*
X478036Y236933D01*
X478545Y235836D01*
X479126Y234775D01*
X479777Y233755D01*
X480495Y232782D01*
X481275Y231858D01*
X482116Y230988D01*
X483014Y230177D01*
X483963Y229427D01*
X484961Y228743D01*
X486000Y228126D01*
X487080Y227581D01*
X488194Y227108D01*
X489336Y226712D01*
X490504Y226392D01*
X491688Y226151D01*
X492888Y225990D01*
G37*
G36*
X445595Y226909D02*
G01*
X446805Y226909D01*
X448011Y226990D01*
X449210Y227151D01*
X450396Y227392D01*
X451562Y227712D01*
X452704Y228108D01*
X453819Y228581D01*
X454898Y229126D01*
X455938Y229743D01*
X456936Y230427D01*
X457885Y231177D01*
X458783Y231988D01*
X459624Y232858D01*
X460405Y233782D01*
X461121Y234755D01*
X461773Y235775D01*
X462354Y236836D01*
X462863Y237933D01*
X463298Y239062D01*
X463657Y240217D01*
X463936Y241394D01*
X464138Y242587D01*
X464260Y243790D01*
X464300Y245000D01*
X464260Y246208D01*
X464138Y247411D01*
X463936Y248604D01*
X463657Y249781D01*
X463298Y250936D01*
X462863Y252065D01*
X462354Y253162D01*
X461773Y254223D01*
X461121Y255243D01*
X460405Y256216D01*
X459624Y257140D01*
X458783Y258010D01*
X457885Y258821D01*
X456936Y259571D01*
X455938Y260255D01*
X454898Y260872D01*
X453819Y261417D01*
X452704Y261890D01*
X451562Y262286D01*
X450396Y262606D01*
X449210Y262847D01*
X448011Y263008D01*
X446805Y263089D01*
X445595Y263089D01*
X444387Y263008D01*
X443189Y262847D01*
X442003Y262606D01*
X440837Y262286D01*
X439695Y261890D01*
X438581Y261417D01*
X437501Y260872D01*
X436460Y260255D01*
X435462Y259571D01*
X434513Y258821D01*
X433617Y258010D01*
X432776Y257140D01*
X431994Y256216D01*
X431278Y255243D01*
X430627Y254223D01*
X430045Y253162D01*
X429535Y252065D01*
X429101Y250936D01*
X428743Y249781D01*
X428463Y248604D01*
X428261Y247411D01*
X428140Y246208D01*
X428100Y245000D01*
X428140Y243790D01*
X428261Y242587D01*
X428463Y241394D01*
X428743Y240217D01*
X429101Y239062D01*
X429535Y237933D01*
X430045Y236836D01*
X430627Y235775D01*
X431278Y234755D01*
X431994Y233782D01*
X432776Y232858D01*
X433617Y231988D01*
X434513Y231177D01*
X435462Y230427D01*
X436460Y229743D01*
X437501Y229126D01*
X438581Y228581D01*
X439695Y228108D01*
X440837Y227712D01*
X442003Y227392D01*
X443189Y227151D01*
X444387Y226990D01*
G37*
G36*
X905315Y262439D02*
G01*
X906525Y262439D01*
X907731Y262520D01*
X908931Y262681D01*
X910115Y262922D01*
X911283Y263242D01*
X912425Y263638D01*
X913539Y264111D01*
X914619Y264656D01*
X915658Y265273D01*
X916656Y265957D01*
X917605Y266707D01*
X918503Y267518D01*
X919344Y268388D01*
X920124Y269312D01*
X920842Y270285D01*
X921493Y271305D01*
X922075Y272366D01*
X922583Y273463D01*
X923019Y274592D01*
X923377Y275747D01*
X923657Y276924D01*
X923859Y278117D01*
X923980Y279320D01*
X924020Y280529D01*
X923980Y281738D01*
X923859Y282941D01*
X923657Y284134D01*
X923377Y285311D01*
X923019Y286466D01*
X922583Y287595D01*
X922075Y288692D01*
X921493Y289753D01*
X920842Y290773D01*
X920124Y291746D01*
X919344Y292670D01*
X918503Y293540D01*
X917605Y294351D01*
X916656Y295101D01*
X915658Y295785D01*
X914619Y296402D01*
X913539Y296947D01*
X912425Y297420D01*
X911283Y297817D01*
X910115Y298136D01*
X908931Y298377D01*
X907731Y298538D01*
X906525Y298619D01*
X905315Y298619D01*
X904107Y298538D01*
X902908Y298377D01*
X901724Y298136D01*
X900556Y297817D01*
X899414Y297420D01*
X898301Y296947D01*
X897220Y296402D01*
X896180Y295785D01*
X895182Y295101D01*
X894233Y294351D01*
X893337Y293540D01*
X892496Y292670D01*
X891715Y291746D01*
X890997Y290773D01*
X890347Y289753D01*
X889764Y288692D01*
X889255Y287595D01*
X888820Y286466D01*
X888463Y285311D01*
X888182Y284134D01*
X887980Y282941D01*
X887860Y281738D01*
X887820Y280529D01*
X887860Y279320D01*
X887980Y278117D01*
X888182Y276924D01*
X888463Y275747D01*
X888820Y274592D01*
X889255Y273463D01*
X889764Y272366D01*
X890347Y271305D01*
X890997Y270285D01*
X891715Y269312D01*
X892496Y268388D01*
X893337Y267518D01*
X894233Y266707D01*
X895182Y265957D01*
X896180Y265273D01*
X897220Y264656D01*
X898301Y264111D01*
X899414Y263638D01*
X900556Y263242D01*
X901724Y262922D01*
X902908Y262681D01*
X904107Y262520D01*
G37*
G36*
X-335405Y278709D02*
G01*
X-334194Y278709D01*
X-332987Y278790D01*
X-331788Y278951D01*
X-330604Y279192D01*
X-329436Y279512D01*
X-328294Y279908D01*
X-327181Y280381D01*
X-326100Y280926D01*
X-325060Y281543D01*
X-324062Y282227D01*
X-323113Y282977D01*
X-322217Y283788D01*
X-321376Y284658D01*
X-320595Y285582D01*
X-319877Y286555D01*
X-319227Y287575D01*
X-318644Y288636D01*
X-318136Y289733D01*
X-317700Y290862D01*
X-317343Y292017D01*
X-317062Y293194D01*
X-316860Y294387D01*
X-316739Y295590D01*
X-316700Y296799D01*
X-316739Y298008D01*
X-316860Y299211D01*
X-317062Y300404D01*
X-317343Y301581D01*
X-317700Y302736D01*
X-318136Y303865D01*
X-318644Y304962D01*
X-319227Y306023D01*
X-319877Y307043D01*
X-320595Y308016D01*
X-321376Y308940D01*
X-322217Y309810D01*
X-323113Y310621D01*
X-324062Y311371D01*
X-325060Y312055D01*
X-326100Y312672D01*
X-327181Y313217D01*
X-328294Y313690D01*
X-329436Y314086D01*
X-330604Y314406D01*
X-331788Y314647D01*
X-332987Y314808D01*
X-334194Y314889D01*
X-335405Y314889D01*
X-336611Y314808D01*
X-337811Y314647D01*
X-338995Y314406D01*
X-340163Y314086D01*
X-341305Y313690D01*
X-342418Y313217D01*
X-343499Y312672D01*
X-344539Y312055D01*
X-345537Y311371D01*
X-346486Y310621D01*
X-347382Y309810D01*
X-348224Y308940D01*
X-349004Y308016D01*
X-349722Y307043D01*
X-350372Y306023D01*
X-350955Y304962D01*
X-351463Y303865D01*
X-351899Y302736D01*
X-352256Y301581D01*
X-352537Y300404D01*
X-352739Y299211D01*
X-352860Y298008D01*
X-352899Y296799D01*
X-352860Y295590D01*
X-352739Y294387D01*
X-352537Y293194D01*
X-352256Y292017D01*
X-351899Y290862D01*
X-351463Y289733D01*
X-350955Y288636D01*
X-350372Y287575D01*
X-349722Y286555D01*
X-349004Y285582D01*
X-348224Y284658D01*
X-347382Y283788D01*
X-346486Y282977D01*
X-345537Y282227D01*
X-344539Y281543D01*
X-343499Y280926D01*
X-342418Y280381D01*
X-341305Y279908D01*
X-340163Y279512D01*
X-338995Y279192D01*
X-337811Y278951D01*
X-336611Y278790D01*
G37*
G36*
X870173Y289867D02*
G01*
X871961Y289887D01*
X873746Y289988D01*
X875525Y290170D01*
X877295Y290432D01*
X879049Y290773D01*
X880788Y291193D01*
X882505Y291692D01*
X884198Y292268D01*
X885864Y292919D01*
X887497Y293645D01*
X889098Y294444D01*
X890659Y295315D01*
X892181Y296256D01*
X893657Y297264D01*
X895087Y298338D01*
X896468Y299475D01*
X897794Y300674D01*
X899067Y301931D01*
X900280Y303244D01*
X901432Y304611D01*
X902523Y306029D01*
X903548Y307495D01*
X904504Y309005D01*
X905393Y310557D01*
X906211Y312148D01*
X906954Y313774D01*
X907626Y315431D01*
X908220Y317118D01*
X908738Y318830D01*
X909178Y320563D01*
X909539Y322314D01*
X909821Y324080D01*
X910023Y325857D01*
X910144Y327641D01*
X910183Y329429D01*
X910144Y331217D01*
X910023Y333001D01*
X909821Y334778D01*
X909539Y336544D01*
X909178Y338295D01*
X908738Y340028D01*
X908220Y341740D01*
X907626Y343427D01*
X906954Y345084D01*
X906211Y346710D01*
X905393Y348301D01*
X904504Y349853D01*
X903548Y351363D01*
X902523Y352829D01*
X901432Y354247D01*
X900280Y355614D01*
X899067Y356927D01*
X897794Y358184D01*
X896468Y359384D01*
X895087Y360520D01*
X893657Y361594D01*
X892181Y362602D01*
X890659Y363543D01*
X889098Y364414D01*
X887497Y365213D01*
X885864Y365939D01*
X884198Y366590D01*
X882505Y367166D01*
X880788Y367665D01*
X879049Y368085D01*
X877295Y368426D01*
X875525Y368688D01*
X873746Y368870D01*
X871961Y368971D01*
X870173Y368991D01*
X868386Y368930D01*
X866603Y368789D01*
X864828Y368567D01*
X863065Y368266D01*
X861319Y367885D01*
X859589Y367425D01*
X857884Y366888D01*
X856204Y366274D01*
X854555Y365585D01*
X852938Y364822D01*
X851355Y363987D01*
X849813Y363081D01*
X848315Y362107D01*
X846860Y361065D01*
X845456Y359960D01*
X844102Y358791D01*
X842802Y357563D01*
X841558Y356277D01*
X840375Y354937D01*
X839254Y353544D01*
X838195Y352102D01*
X837205Y350614D01*
X836282Y349082D01*
X835429Y347510D01*
X834647Y345902D01*
X833940Y344259D01*
X833307Y342587D01*
X832750Y340887D01*
X832272Y339164D01*
X831871Y337422D01*
X831549Y335662D01*
X831307Y333891D01*
X831145Y332110D01*
X831066Y330323D01*
X831066Y328535D01*
X831145Y326748D01*
X831307Y324967D01*
X831549Y323196D01*
X831871Y321436D01*
X832272Y319694D01*
X832750Y317971D01*
X832933Y317412D01*
X832872Y317523D01*
X832222Y318543D01*
X831504Y319516D01*
X830724Y320440D01*
X829882Y321310D01*
X828986Y322121D01*
X828037Y322871D01*
X827039Y323555D01*
X825999Y324172D01*
X824918Y324717D01*
X823805Y325190D01*
X822663Y325586D01*
X821495Y325906D01*
X820311Y326147D01*
X819111Y326308D01*
X817905Y326389D01*
X816694Y326389D01*
X815487Y326308D01*
X814288Y326147D01*
X813104Y325906D01*
X811936Y325586D01*
X810794Y325190D01*
X809681Y324717D01*
X808600Y324172D01*
X807560Y323555D01*
X806562Y322871D01*
X805613Y322121D01*
X804717Y321310D01*
X803876Y320440D01*
X803095Y319516D01*
X802377Y318543D01*
X801727Y317523D01*
X801144Y316462D01*
X800636Y315365D01*
X800200Y314236D01*
X799843Y313081D01*
X799562Y311904D01*
X799360Y310711D01*
X799239Y309508D01*
X799200Y308299D01*
X799239Y307090D01*
X799360Y305887D01*
X799562Y304694D01*
X799843Y303517D01*
X800200Y302362D01*
X800636Y301233D01*
X801144Y300136D01*
X801727Y299075D01*
X802377Y298055D01*
X803095Y297082D01*
X803876Y296158D01*
X804717Y295288D01*
X805613Y294477D01*
X806562Y293727D01*
X807560Y293043D01*
X808600Y292426D01*
X809681Y291881D01*
X810794Y291408D01*
X811936Y291012D01*
X813104Y290692D01*
X814288Y290451D01*
X815487Y290290D01*
X816694Y290209D01*
X817905Y290209D01*
X819111Y290290D01*
X820311Y290451D01*
X821495Y290692D01*
X822663Y291012D01*
X823805Y291408D01*
X824918Y291881D01*
X825999Y292426D01*
X827039Y293043D01*
X828037Y293727D01*
X828986Y294477D01*
X829882Y295288D01*
X830724Y296158D01*
X831504Y297082D01*
X832222Y298055D01*
X832872Y299075D01*
X833455Y300136D01*
X833963Y301233D01*
X834399Y302362D01*
X834756Y303517D01*
X835037Y304694D01*
X835239Y305887D01*
X835360Y307090D01*
X835399Y308299D01*
X835360Y309508D01*
X835239Y310711D01*
X835037Y311904D01*
X834920Y312396D01*
X835429Y311348D01*
X836282Y309776D01*
X837205Y308244D01*
X838195Y306756D01*
X839254Y305314D01*
X840375Y303921D01*
X841558Y302581D01*
X842802Y301295D01*
X844102Y300067D01*
X845456Y298898D01*
X846860Y297793D01*
X848315Y296751D01*
X849813Y295777D01*
X851355Y294871D01*
X852938Y294036D01*
X854555Y293273D01*
X856204Y292584D01*
X857884Y291970D01*
X859589Y291433D01*
X861319Y290973D01*
X863065Y290592D01*
X864828Y290291D01*
X866603Y290069D01*
X868386Y289928D01*
G37*
G36*
X-102205Y409509D02*
G01*
X-100995Y409509D01*
X-99787Y409590D01*
X-98589Y409751D01*
X-97403Y409992D01*
X-96237Y410312D01*
X-95095Y410708D01*
X-93981Y411181D01*
X-92901Y411726D01*
X-91860Y412343D01*
X-90862Y413027D01*
X-89913Y413777D01*
X-89017Y414588D01*
X-88176Y415458D01*
X-87394Y416382D01*
X-86678Y417355D01*
X-86027Y418375D01*
X-85444Y419436D01*
X-84935Y420533D01*
X-84501Y421662D01*
X-84143Y422817D01*
X-83863Y423994D01*
X-83661Y425187D01*
X-83540Y426390D01*
X-83500Y427599D01*
X-83540Y428808D01*
X-83661Y430011D01*
X-83863Y431204D01*
X-84143Y432381D01*
X-84501Y433536D01*
X-84935Y434665D01*
X-85444Y435762D01*
X-86027Y436823D01*
X-86678Y437843D01*
X-87394Y438816D01*
X-88176Y439740D01*
X-89017Y440610D01*
X-89913Y441421D01*
X-90862Y442171D01*
X-91860Y442855D01*
X-92901Y443472D01*
X-93981Y444017D01*
X-95095Y444490D01*
X-96237Y444886D01*
X-97403Y445206D01*
X-98589Y445447D01*
X-99787Y445608D01*
X-100995Y445689D01*
X-102205Y445689D01*
X-103411Y445608D01*
X-104611Y445447D01*
X-105796Y445206D01*
X-106962Y444886D01*
X-108104Y444490D01*
X-109219Y444017D01*
X-110298Y443472D01*
X-111338Y442855D01*
X-112336Y442171D01*
X-113285Y441421D01*
X-114183Y440610D01*
X-115024Y439740D01*
X-115805Y438816D01*
X-116521Y437843D01*
X-117173Y436823D01*
X-117754Y435762D01*
X-118263Y434665D01*
X-118698Y433536D01*
X-119057Y432381D01*
X-119336Y431204D01*
X-119539Y430011D01*
X-119660Y428808D01*
X-119700Y427599D01*
X-119660Y426390D01*
X-119539Y425187D01*
X-119336Y423994D01*
X-119057Y422817D01*
X-118698Y421662D01*
X-118263Y420533D01*
X-117754Y419436D01*
X-117173Y418375D01*
X-116521Y417355D01*
X-115805Y416382D01*
X-115024Y415458D01*
X-114183Y414588D01*
X-113285Y413777D01*
X-112336Y413027D01*
X-111338Y412343D01*
X-110298Y411726D01*
X-109219Y411181D01*
X-108104Y410708D01*
X-106962Y410312D01*
X-105796Y409992D01*
X-104611Y409751D01*
X-103411Y409590D01*
G37*
G36*
X602394Y291509D02*
G01*
X603604Y291509D01*
X604812Y291590D01*
X606010Y291751D01*
X607196Y291992D01*
X608362Y292312D01*
X609504Y292708D01*
X610618Y293181D01*
X611698Y293726D01*
X612739Y294343D01*
X613737Y295027D01*
X614686Y295777D01*
X615582Y296588D01*
X616423Y297458D01*
X617205Y298382D01*
X617921Y299355D01*
X618572Y300375D01*
X619155Y301436D01*
X619664Y302533D01*
X620099Y303662D01*
X620456Y304817D01*
X620736Y305994D01*
X620938Y307187D01*
X621059Y308390D01*
X621099Y309599D01*
X621059Y310808D01*
X620938Y312011D01*
X620736Y313204D01*
X620456Y314381D01*
X620099Y315536D01*
X619664Y316665D01*
X619155Y317762D01*
X618572Y318823D01*
X617921Y319843D01*
X617205Y320816D01*
X616423Y321740D01*
X615582Y322610D01*
X614686Y323421D01*
X613737Y324171D01*
X612739Y324855D01*
X611698Y325472D01*
X610618Y326017D01*
X609504Y326490D01*
X608362Y326886D01*
X607196Y327206D01*
X606010Y327447D01*
X604812Y327608D01*
X603604Y327689D01*
X602394Y327689D01*
X601188Y327608D01*
X599988Y327447D01*
X598804Y327206D01*
X597637Y326886D01*
X596495Y326490D01*
X595380Y326017D01*
X594300Y325472D01*
X593261Y324855D01*
X592263Y324171D01*
X591314Y323421D01*
X590416Y322610D01*
X589575Y321740D01*
X588795Y320816D01*
X588077Y319843D01*
X587426Y318823D01*
X586845Y317762D01*
X586336Y316665D01*
X585901Y315536D01*
X585542Y314381D01*
X585263Y313204D01*
X585060Y312011D01*
X584939Y310808D01*
X584899Y309599D01*
X584939Y308390D01*
X585060Y307187D01*
X585263Y305994D01*
X585542Y304817D01*
X585901Y303662D01*
X586336Y302533D01*
X586845Y301436D01*
X587426Y300375D01*
X588077Y299355D01*
X588795Y298382D01*
X589575Y297458D01*
X590416Y296588D01*
X591314Y295777D01*
X592263Y295027D01*
X593261Y294343D01*
X594300Y293726D01*
X595380Y293181D01*
X596495Y292708D01*
X597637Y292312D01*
X598804Y291992D01*
X599988Y291751D01*
X601188Y291590D01*
G37*
G36*
X455394Y300109D02*
G01*
X456604Y300109D01*
X457812Y300190D01*
X459011Y300351D01*
X460195Y300592D01*
X461363Y300912D01*
X462505Y301308D01*
X463618Y301781D01*
X464699Y302326D01*
X465739Y302943D01*
X466737Y303627D01*
X467686Y304377D01*
X468582Y305188D01*
X469423Y306058D01*
X470204Y306982D01*
X470922Y307955D01*
X471572Y308975D01*
X472155Y310036D01*
X472664Y311133D01*
X473099Y312262D01*
X473293Y312888D01*
X473301Y312862D01*
X473735Y311733D01*
X474245Y310636D01*
X474826Y309575D01*
X475478Y308555D01*
X476194Y307582D01*
X476976Y306658D01*
X477817Y305788D01*
X478713Y304977D01*
X479663Y304227D01*
X480661Y303543D01*
X481701Y302926D01*
X482781Y302381D01*
X483895Y301908D01*
X485037Y301512D01*
X486203Y301192D01*
X487389Y300951D01*
X488587Y300790D01*
X489795Y300709D01*
X491004Y300709D01*
X492211Y300790D01*
X493410Y300951D01*
X494596Y301192D01*
X495762Y301512D01*
X496904Y301908D01*
X498019Y302381D01*
X499098Y302926D01*
X500138Y303543D01*
X501136Y304227D01*
X502085Y304977D01*
X502983Y305788D01*
X503824Y306658D01*
X504605Y307582D01*
X505321Y308555D01*
X505973Y309575D01*
X506554Y310636D01*
X507064Y311733D01*
X507498Y312862D01*
X507857Y314017D01*
X508136Y315194D01*
X508338Y316387D01*
X508460Y317590D01*
X508500Y318799D01*
X508460Y320009D01*
X508338Y321211D01*
X508136Y322404D01*
X507857Y323581D01*
X507498Y324736D01*
X507064Y325865D01*
X506554Y326962D01*
X505973Y328023D01*
X505321Y329043D01*
X504605Y330016D01*
X503824Y330940D01*
X502983Y331810D01*
X502085Y332621D01*
X501136Y333371D01*
X500138Y334055D01*
X499098Y334672D01*
X498019Y335217D01*
X496904Y335690D01*
X495762Y336086D01*
X494596Y336406D01*
X493410Y336647D01*
X492211Y336808D01*
X491004Y336889D01*
X489795Y336889D01*
X488587Y336808D01*
X487389Y336647D01*
X486203Y336406D01*
X485037Y336086D01*
X483895Y335690D01*
X482781Y335217D01*
X481701Y334672D01*
X480661Y334055D01*
X479663Y333371D01*
X478713Y332621D01*
X477817Y331810D01*
X476976Y330940D01*
X476194Y330016D01*
X475478Y329043D01*
X474826Y328023D01*
X474245Y326962D01*
X473735Y325865D01*
X473301Y324736D01*
X473107Y324110D01*
X473099Y324136D01*
X472664Y325265D01*
X472155Y326362D01*
X471572Y327423D01*
X470922Y328443D01*
X470204Y329416D01*
X469423Y330340D01*
X468582Y331210D01*
X467686Y332021D01*
X466737Y332771D01*
X465739Y333455D01*
X464699Y334072D01*
X463618Y334617D01*
X462505Y335090D01*
X461363Y335486D01*
X460195Y335806D01*
X459011Y336047D01*
X457812Y336208D01*
X457222Y336248D01*
X457385Y336377D01*
X458283Y337188D01*
X459124Y338058D01*
X459904Y338982D01*
X460622Y339955D01*
X461273Y340975D01*
X461854Y342036D01*
X462363Y343134D01*
X462799Y344262D01*
X463157Y345417D01*
X463437Y346594D01*
X463639Y347787D01*
X463760Y348990D01*
X463800Y350199D01*
X463760Y351408D01*
X463639Y352611D01*
X463437Y353804D01*
X463157Y354982D01*
X462799Y356136D01*
X462363Y357265D01*
X461854Y358362D01*
X461273Y359423D01*
X460622Y360443D01*
X459904Y361416D01*
X459124Y362340D01*
X458283Y363210D01*
X457385Y364021D01*
X456436Y364771D01*
X455438Y365455D01*
X454399Y366072D01*
X453319Y366617D01*
X452205Y367090D01*
X451063Y367486D01*
X449895Y367806D01*
X448711Y368047D01*
X447511Y368208D01*
X446305Y368289D01*
X445095Y368289D01*
X443887Y368208D01*
X442689Y368047D01*
X441504Y367806D01*
X440336Y367486D01*
X439194Y367090D01*
X438081Y366617D01*
X437001Y366072D01*
X435960Y365455D01*
X435225Y364950D01*
X435505Y365282D01*
X436221Y366255D01*
X436872Y367275D01*
X437454Y368336D01*
X437964Y369433D01*
X438398Y370562D01*
X438756Y371717D01*
X439036Y372894D01*
X439238Y374087D01*
X439359Y375290D01*
X439399Y376499D01*
X439359Y377708D01*
X439238Y378911D01*
X439036Y380104D01*
X438756Y381281D01*
X438398Y382436D01*
X437964Y383565D01*
X437454Y384662D01*
X436872Y385723D01*
X436221Y386743D01*
X435505Y387716D01*
X434723Y388640D01*
X433882Y389510D01*
X432986Y390321D01*
X432037Y391071D01*
X431039Y391755D01*
X429998Y392372D01*
X428918Y392917D01*
X427804Y393390D01*
X426662Y393786D01*
X425496Y394106D01*
X424310Y394347D01*
X423112Y394508D01*
X421904Y394589D01*
X420694Y394589D01*
X419488Y394508D01*
X418289Y394347D01*
X417103Y394106D01*
X415937Y393786D01*
X414795Y393390D01*
X413680Y392917D01*
X412601Y392372D01*
X411561Y391755D01*
X410563Y391071D01*
X409614Y390321D01*
X408716Y389510D01*
X407875Y388640D01*
X407094Y387716D01*
X406378Y386743D01*
X405726Y385723D01*
X405145Y384662D01*
X404636Y383565D01*
X404201Y382436D01*
X403842Y381281D01*
X403563Y380104D01*
X403361Y378911D01*
X403239Y377708D01*
X403199Y376499D01*
X403239Y375290D01*
X403361Y374087D01*
X403563Y372894D01*
X403842Y371717D01*
X404201Y370562D01*
X404636Y369433D01*
X405145Y368336D01*
X405726Y367275D01*
X406378Y366255D01*
X407094Y365282D01*
X407875Y364358D01*
X408716Y363488D01*
X409614Y362677D01*
X410563Y361927D01*
X411561Y361243D01*
X412601Y360626D01*
X413680Y360081D01*
X414795Y359608D01*
X415937Y359212D01*
X417103Y358892D01*
X418289Y358651D01*
X419488Y358490D01*
X420694Y358409D01*
X421904Y358409D01*
X423112Y358490D01*
X424310Y358651D01*
X425496Y358892D01*
X426662Y359212D01*
X427804Y359608D01*
X428918Y360081D01*
X429998Y360626D01*
X431039Y361243D01*
X431774Y361748D01*
X431495Y361416D01*
X430778Y360443D01*
X430127Y359423D01*
X429544Y358362D01*
X429035Y357265D01*
X428600Y356136D01*
X428243Y354982D01*
X427962Y353804D01*
X427761Y352611D01*
X427640Y351408D01*
X427600Y350199D01*
X427640Y348990D01*
X427761Y347787D01*
X427962Y346594D01*
X428243Y345417D01*
X428600Y344262D01*
X429035Y343134D01*
X429544Y342036D01*
X430127Y340975D01*
X430778Y339955D01*
X431495Y338982D01*
X432276Y338058D01*
X433117Y337188D01*
X434013Y336377D01*
X434962Y335627D01*
X435960Y334943D01*
X437001Y334326D01*
X438081Y333781D01*
X439194Y333308D01*
X440336Y332912D01*
X441504Y332592D01*
X442689Y332351D01*
X443887Y332190D01*
X444477Y332150D01*
X444314Y332021D01*
X443416Y331210D01*
X442575Y330340D01*
X441795Y329416D01*
X441077Y328443D01*
X440426Y327423D01*
X439844Y326362D01*
X439336Y325265D01*
X438900Y324136D01*
X438542Y322981D01*
X438262Y321804D01*
X438060Y320611D01*
X437939Y319408D01*
X437899Y318199D01*
X437939Y316990D01*
X438060Y315787D01*
X438262Y314594D01*
X438542Y313417D01*
X438900Y312262D01*
X439336Y311133D01*
X439844Y310036D01*
X440426Y308975D01*
X441077Y307955D01*
X441795Y306982D01*
X442575Y306058D01*
X443416Y305188D01*
X444314Y304377D01*
X445263Y303627D01*
X446261Y302943D01*
X447300Y302326D01*
X448380Y301781D01*
X449494Y301308D01*
X450636Y300912D01*
X451804Y300592D01*
X452988Y300351D01*
X454188Y300190D01*
G37*
G36*
X134695Y402409D02*
G01*
X135905Y402409D01*
X137111Y402491D01*
X138311Y402651D01*
X139495Y402892D01*
X140663Y403212D01*
X141805Y403608D01*
X142919Y404081D01*
X143999Y404626D01*
X145038Y405243D01*
X146036Y405927D01*
X146985Y406677D01*
X147883Y407488D01*
X148724Y408358D01*
X149504Y409282D01*
X150222Y410255D01*
X150873Y411275D01*
X151454Y412336D01*
X151963Y413433D01*
X152398Y414562D01*
X152757Y415717D01*
X153037Y416894D01*
X153239Y418087D01*
X153360Y419290D01*
X153400Y420499D01*
X153360Y421708D01*
X153239Y422911D01*
X153037Y424104D01*
X152757Y425281D01*
X152398Y426436D01*
X151963Y427565D01*
X151454Y428662D01*
X150873Y429723D01*
X150222Y430743D01*
X149504Y431716D01*
X148724Y432640D01*
X147883Y433510D01*
X146985Y434321D01*
X146036Y435071D01*
X145038Y435755D01*
X143999Y436372D01*
X142919Y436917D01*
X141805Y437390D01*
X140663Y437786D01*
X139495Y438107D01*
X138311Y438347D01*
X137111Y438508D01*
X135905Y438589D01*
X134695Y438589D01*
X133487Y438508D01*
X132289Y438347D01*
X131103Y438107D01*
X129936Y437786D01*
X128795Y437390D01*
X127681Y436917D01*
X126601Y436372D01*
X125560Y435755D01*
X124562Y435071D01*
X123613Y434321D01*
X122717Y433510D01*
X121876Y432640D01*
X121094Y431716D01*
X120378Y430743D01*
X119727Y429723D01*
X119144Y428662D01*
X118635Y427565D01*
X118200Y426436D01*
X117843Y425281D01*
X117563Y424104D01*
X117361Y422911D01*
X117240Y421708D01*
X117200Y420499D01*
X117240Y419290D01*
X117361Y418087D01*
X117563Y416894D01*
X117843Y415717D01*
X118200Y414562D01*
X118635Y413433D01*
X119144Y412336D01*
X119727Y411275D01*
X120378Y410255D01*
X121094Y409282D01*
X121876Y408358D01*
X122717Y407488D01*
X123613Y406677D01*
X124562Y405927D01*
X125560Y405243D01*
X126601Y404626D01*
X127681Y404081D01*
X128795Y403608D01*
X129936Y403212D01*
X131103Y402892D01*
X132289Y402651D01*
X133487Y402491D01*
G37*
G36*
X10495Y379209D02*
G01*
X11705Y379209D01*
X12911Y379290D01*
X14111Y379451D01*
X15295Y379692D01*
X16463Y380012D01*
X17605Y380408D01*
X18719Y380881D01*
X19799Y381426D01*
X20838Y382043D01*
X21836Y382727D01*
X22785Y383477D01*
X23683Y384288D01*
X24524Y385158D01*
X25304Y386082D01*
X26022Y387055D01*
X26673Y388075D01*
X27254Y389136D01*
X27763Y390233D01*
X28199Y391362D01*
X28557Y392517D01*
X28837Y393694D01*
X29039Y394887D01*
X29160Y396090D01*
X29200Y397299D01*
X29160Y398508D01*
X29039Y399711D01*
X28837Y400904D01*
X28557Y402081D01*
X28199Y403236D01*
X27763Y404366D01*
X27254Y405462D01*
X26673Y406523D01*
X26022Y407543D01*
X25304Y408516D01*
X24524Y409440D01*
X23683Y410310D01*
X22785Y411121D01*
X21836Y411871D01*
X20838Y412555D01*
X19799Y413172D01*
X18719Y413717D01*
X17605Y414190D01*
X16463Y414586D01*
X15295Y414906D01*
X14111Y415147D01*
X12911Y415308D01*
X11705Y415389D01*
X10495Y415389D01*
X9287Y415308D01*
X8088Y415147D01*
X6904Y414906D01*
X5736Y414586D01*
X4594Y414190D01*
X3481Y413717D01*
X2400Y413172D01*
X1360Y412555D01*
X362Y411871D01*
X-586Y411121D01*
X-1482Y410310D01*
X-2323Y409440D01*
X-3104Y408516D01*
X-3822Y407543D01*
X-4472Y406523D01*
X-5055Y405462D01*
X-5564Y404366D01*
X-5999Y403236D01*
X-6356Y402081D01*
X-6637Y400904D01*
X-6838Y399711D01*
X-6959Y398508D01*
X-6999Y397299D01*
X-6959Y396090D01*
X-6838Y394887D01*
X-6637Y393694D01*
X-6356Y392517D01*
X-5999Y391362D01*
X-5564Y390233D01*
X-5055Y389136D01*
X-4472Y388075D01*
X-3822Y387055D01*
X-3104Y386082D01*
X-2323Y385158D01*
X-1482Y384288D01*
X-586Y383477D01*
X362Y382727D01*
X1360Y382043D01*
X2400Y381426D01*
X3481Y380881D01*
X4594Y380408D01*
X5736Y380012D01*
X6904Y379692D01*
X8088Y379451D01*
X9287Y379290D01*
G37*
G36*
X-173005Y319809D02*
G01*
X-171795Y319809D01*
X-170587Y319890D01*
X-169389Y320051D01*
X-168203Y320292D01*
X-167037Y320612D01*
X-165895Y321008D01*
X-164781Y321481D01*
X-163701Y322026D01*
X-162660Y322643D01*
X-161662Y323327D01*
X-160713Y324077D01*
X-159817Y324888D01*
X-158976Y325758D01*
X-158194Y326682D01*
X-157478Y327655D01*
X-156827Y328675D01*
X-156244Y329736D01*
X-155735Y330833D01*
X-155300Y331962D01*
X-154943Y333117D01*
X-154663Y334294D01*
X-154461Y335487D01*
X-154340Y336690D01*
X-154300Y337899D01*
X-154340Y339108D01*
X-154461Y340311D01*
X-154663Y341504D01*
X-154943Y342681D01*
X-155300Y343836D01*
X-155735Y344965D01*
X-156244Y346062D01*
X-156827Y347123D01*
X-157478Y348143D01*
X-158194Y349116D01*
X-158976Y350040D01*
X-159817Y350910D01*
X-160713Y351721D01*
X-161662Y352471D01*
X-162660Y353155D01*
X-163701Y353772D01*
X-164781Y354317D01*
X-165895Y354790D01*
X-167037Y355186D01*
X-168203Y355506D01*
X-169389Y355747D01*
X-170587Y355908D01*
X-171795Y355989D01*
X-173005Y355989D01*
X-174211Y355908D01*
X-175411Y355747D01*
X-176595Y355506D01*
X-177763Y355186D01*
X-178905Y354790D01*
X-180019Y354317D01*
X-181099Y353772D01*
X-182138Y353155D01*
X-183136Y352471D01*
X-184085Y351721D01*
X-184983Y350910D01*
X-185824Y350040D01*
X-186604Y349116D01*
X-187322Y348143D01*
X-187973Y347123D01*
X-188554Y346062D01*
X-189063Y344965D01*
X-189498Y343836D01*
X-189857Y342681D01*
X-190137Y341504D01*
X-190339Y340311D01*
X-190460Y339108D01*
X-190500Y337899D01*
X-190460Y336690D01*
X-190339Y335487D01*
X-190137Y334294D01*
X-189857Y333117D01*
X-189498Y331962D01*
X-189063Y330833D01*
X-188554Y329736D01*
X-187973Y328675D01*
X-187322Y327655D01*
X-186604Y326682D01*
X-185824Y325758D01*
X-184983Y324888D01*
X-184085Y324077D01*
X-183136Y323327D01*
X-182138Y322643D01*
X-181099Y322026D01*
X-180019Y321481D01*
X-178905Y321008D01*
X-177763Y320612D01*
X-176595Y320292D01*
X-175411Y320051D01*
X-174211Y319890D01*
G37*
G36*
X-69104Y360909D02*
G01*
X-67894Y360909D01*
X-66688Y360990D01*
X-65488Y361151D01*
X-64304Y361392D01*
X-63136Y361712D01*
X-61994Y362108D01*
X-60880Y362581D01*
X-59800Y363126D01*
X-58761Y363743D01*
X-57763Y364427D01*
X-56814Y365177D01*
X-55916Y365988D01*
X-55075Y366858D01*
X-54295Y367782D01*
X-53577Y368755D01*
X-52926Y369775D01*
X-52344Y370836D01*
X-51836Y371933D01*
X-51400Y373062D01*
X-51042Y374217D01*
X-50762Y375394D01*
X-50560Y376587D01*
X-50439Y377790D01*
X-50399Y378999D01*
X-50439Y380208D01*
X-50560Y381411D01*
X-50762Y382604D01*
X-51042Y383781D01*
X-51400Y384936D01*
X-51836Y386065D01*
X-52344Y387162D01*
X-52926Y388223D01*
X-53577Y389243D01*
X-54295Y390216D01*
X-55075Y391140D01*
X-55916Y392010D01*
X-56814Y392821D01*
X-57763Y393571D01*
X-58761Y394255D01*
X-59800Y394872D01*
X-60880Y395417D01*
X-61994Y395890D01*
X-63136Y396286D01*
X-64304Y396606D01*
X-65488Y396847D01*
X-66688Y397008D01*
X-67894Y397089D01*
X-69104Y397089D01*
X-70312Y397008D01*
X-71511Y396847D01*
X-72695Y396606D01*
X-73863Y396286D01*
X-75005Y395890D01*
X-76118Y395417D01*
X-77199Y394872D01*
X-78239Y394255D01*
X-79237Y393571D01*
X-80186Y392821D01*
X-81082Y392010D01*
X-81923Y391140D01*
X-82704Y390216D01*
X-83422Y389243D01*
X-84072Y388223D01*
X-84655Y387162D01*
X-85164Y386065D01*
X-85599Y384936D01*
X-85956Y383781D01*
X-86237Y382604D01*
X-86439Y381411D01*
X-86559Y380208D01*
X-86599Y378999D01*
X-86559Y377790D01*
X-86439Y376587D01*
X-86237Y375394D01*
X-85956Y374217D01*
X-85599Y373062D01*
X-85164Y371933D01*
X-84655Y370836D01*
X-84072Y369775D01*
X-83422Y368755D01*
X-82704Y367782D01*
X-81923Y366858D01*
X-81082Y365988D01*
X-80186Y365177D01*
X-79237Y364427D01*
X-78239Y363743D01*
X-77199Y363126D01*
X-76118Y362581D01*
X-75005Y362108D01*
X-73863Y361712D01*
X-72695Y361392D01*
X-71511Y361151D01*
X-70312Y360990D01*
G37*
G36*
X152295Y343109D02*
G01*
X153504Y343109D01*
X154711Y343190D01*
X155910Y343351D01*
X157096Y343592D01*
X158262Y343912D01*
X159404Y344308D01*
X160519Y344781D01*
X161598Y345326D01*
X162638Y345943D01*
X163636Y346627D01*
X164585Y347377D01*
X165483Y348188D01*
X166324Y349058D01*
X167105Y349982D01*
X167821Y350955D01*
X168473Y351975D01*
X169054Y353036D01*
X169564Y354133D01*
X169998Y355262D01*
X170357Y356417D01*
X170636Y357594D01*
X170838Y358787D01*
X170960Y359991D01*
X171000Y361199D01*
X170960Y362408D01*
X170838Y363611D01*
X170636Y364804D01*
X170357Y365981D01*
X169998Y367136D01*
X169564Y368265D01*
X169054Y369362D01*
X168473Y370423D01*
X167821Y371443D01*
X167105Y372416D01*
X166324Y373340D01*
X165483Y374210D01*
X164585Y375021D01*
X163636Y375771D01*
X162638Y376455D01*
X161598Y377072D01*
X160519Y377617D01*
X159404Y378090D01*
X158262Y378486D01*
X157096Y378806D01*
X155910Y379047D01*
X154711Y379208D01*
X153504Y379289D01*
X152295Y379289D01*
X151087Y379208D01*
X149889Y379047D01*
X148703Y378806D01*
X147537Y378486D01*
X146395Y378090D01*
X145281Y377617D01*
X144201Y377072D01*
X143161Y376455D01*
X142163Y375771D01*
X141213Y375021D01*
X140317Y374210D01*
X139476Y373340D01*
X138694Y372416D01*
X137978Y371443D01*
X137326Y370423D01*
X136745Y369362D01*
X136235Y368265D01*
X135801Y367136D01*
X135442Y365981D01*
X135163Y364804D01*
X134961Y363611D01*
X134840Y362408D01*
X134799Y361199D01*
X134840Y359991D01*
X134961Y358787D01*
X135163Y357594D01*
X135442Y356417D01*
X135801Y355262D01*
X136235Y354133D01*
X136745Y353036D01*
X137326Y351975D01*
X137978Y350955D01*
X138694Y349982D01*
X139476Y349058D01*
X140317Y348188D01*
X141213Y347377D01*
X142163Y346627D01*
X143161Y345943D01*
X144201Y345326D01*
X145281Y344781D01*
X146395Y344308D01*
X147537Y343912D01*
X148703Y343592D01*
X149889Y343351D01*
X151087Y343190D01*
G37*
G36*
X613995Y345809D02*
G01*
X615204Y345809D01*
X616412Y345890D01*
X617610Y346051D01*
X618796Y346292D01*
X619962Y346612D01*
X621104Y347008D01*
X622219Y347482D01*
X623298Y348026D01*
X624339Y348643D01*
X625336Y349327D01*
X626286Y350077D01*
X627183Y350888D01*
X628023Y351758D01*
X628805Y352682D01*
X629521Y353655D01*
X630173Y354675D01*
X630754Y355736D01*
X631264Y356833D01*
X631698Y357962D01*
X632057Y359117D01*
X632336Y360294D01*
X632538Y361487D01*
X632659Y362690D01*
X632700Y363899D01*
X632659Y365108D01*
X632538Y366311D01*
X632336Y367504D01*
X632057Y368681D01*
X631698Y369836D01*
X631264Y370965D01*
X630754Y372062D01*
X630173Y373123D01*
X629521Y374143D01*
X628805Y375116D01*
X628023Y376040D01*
X627183Y376910D01*
X626286Y377721D01*
X625336Y378471D01*
X624339Y379155D01*
X623298Y379772D01*
X622219Y380317D01*
X621104Y380790D01*
X619962Y381186D01*
X618796Y381506D01*
X617610Y381747D01*
X616412Y381908D01*
X615204Y381989D01*
X613995Y381989D01*
X612788Y381908D01*
X611589Y381747D01*
X610403Y381506D01*
X609237Y381186D01*
X608095Y380790D01*
X606980Y380317D01*
X605901Y379772D01*
X604861Y379155D01*
X603863Y378471D01*
X602914Y377721D01*
X602016Y376910D01*
X601175Y376040D01*
X600394Y375116D01*
X599678Y374143D01*
X599026Y373123D01*
X598445Y372062D01*
X597935Y370965D01*
X597501Y369836D01*
X597142Y368681D01*
X596863Y367504D01*
X596661Y366311D01*
X596540Y365108D01*
X596499Y363899D01*
X596540Y362690D01*
X596661Y361487D01*
X596863Y360294D01*
X597142Y359117D01*
X597501Y357962D01*
X597935Y356833D01*
X598445Y355736D01*
X599026Y354675D01*
X599678Y353655D01*
X600394Y352682D01*
X601175Y351758D01*
X602016Y350888D01*
X602914Y350077D01*
X603863Y349327D01*
X604861Y348643D01*
X605901Y348026D01*
X606980Y347482D01*
X608095Y347008D01*
X609237Y346612D01*
X610403Y346292D01*
X611589Y346051D01*
X612788Y345890D01*
G37*
G36*
X909714Y164239D02*
G01*
X910924Y164239D01*
X912132Y164320D01*
X913330Y164481D01*
X914516Y164722D01*
X915682Y165042D01*
X916824Y165438D01*
X917938Y165911D01*
X919018Y166456D01*
X920059Y167073D01*
X921057Y167757D01*
X922006Y168507D01*
X922902Y169318D01*
X923743Y170188D01*
X924525Y171112D01*
X925241Y172085D01*
X925892Y173105D01*
X926475Y174166D01*
X926984Y175263D01*
X927418Y176392D01*
X927776Y177547D01*
X928056Y178724D01*
X928258Y179917D01*
X928379Y181120D01*
X928419Y182329D01*
X928379Y183538D01*
X928258Y184741D01*
X928056Y185934D01*
X927776Y187111D01*
X927418Y188266D01*
X926984Y189395D01*
X926475Y190492D01*
X925892Y191553D01*
X925241Y192573D01*
X924525Y193546D01*
X923743Y194470D01*
X922902Y195340D01*
X922006Y196151D01*
X921057Y196901D01*
X920059Y197585D01*
X919018Y198202D01*
X917938Y198747D01*
X916824Y199220D01*
X915682Y199616D01*
X914516Y199936D01*
X913330Y200177D01*
X912132Y200338D01*
X910924Y200419D01*
X909714Y200419D01*
X908508Y200338D01*
X907308Y200177D01*
X906123Y199936D01*
X904957Y199616D01*
X903815Y199220D01*
X902700Y198747D01*
X901620Y198202D01*
X900581Y197585D01*
X899583Y196901D01*
X898634Y196151D01*
X897736Y195340D01*
X896895Y194470D01*
X896114Y193546D01*
X895397Y192573D01*
X894746Y191553D01*
X894165Y190492D01*
X893656Y189395D01*
X893221Y188266D01*
X892862Y187111D01*
X892583Y185934D01*
X892380Y184741D01*
X892259Y183538D01*
X892219Y182329D01*
X892259Y181120D01*
X892380Y179917D01*
X892583Y178724D01*
X892862Y177547D01*
X893221Y176392D01*
X893656Y175263D01*
X894165Y174166D01*
X894746Y173105D01*
X895397Y172085D01*
X896114Y171112D01*
X896895Y170188D01*
X897736Y169318D01*
X898634Y168507D01*
X899583Y167757D01*
X900581Y167073D01*
X901620Y166456D01*
X902700Y165911D01*
X903815Y165438D01*
X904957Y165042D01*
X906123Y164722D01*
X907308Y164481D01*
X908508Y164320D01*
G37*

%LPD*%
G36*
X53047Y799492D02*
G01*
X103400Y821910D01*
X87386Y857876D01*
X37034Y835458D01*
G37*
G36*
X-89020Y736239D02*
G01*
X-38666Y758657D01*
X-54678Y794623D01*
X-105032Y772205D01*
G37*
G36*
X322296Y825242D02*
G01*
X377415Y825242D01*
X377415Y864612D01*
X322296Y864612D01*
G37*
G36*
X166784Y825242D02*
G01*
X221903Y825242D01*
X221903Y864612D01*
X166784Y864612D01*
G37*
G36*
X-156253Y674307D02*
G01*
X-115942Y711899D01*
X-142793Y740692D01*
X-183104Y703102D01*
G37*
G36*
X-269988Y568249D02*
G01*
X-229678Y605838D01*
X-256527Y634633D01*
X-296838Y597043D01*
G37*
D40*
G01*
X870619Y29429D03*
D41*
G01*
X870619Y129429D03*
G01*
X870619Y229429D03*
G01*
X870619Y329429D03*
D21*
G01*
X-162759Y71409D03*
G01*
X-162759Y32039D03*
G01*
X-123389Y32039D03*
G01*
X-123389Y71409D03*
G01*
X-197799Y-277400D03*
G01*
X-225500Y-253100D03*
G01*
X120100Y61199D03*
G01*
X-135379Y331729D03*
G01*
X445699Y350199D03*
G01*
X421300Y376499D03*
G01*
X67899Y522500D03*
G01*
X61800Y353399D03*
G01*
X441809Y-128530D03*
G01*
X421279Y-106660D03*
G01*
X575000Y6799D03*
G01*
X344120Y-218570D03*
G01*
X311719Y-218670D03*
G01*
X233699Y-31600D03*
G01*
X264200Y-32000D03*
G01*
X50020Y-326570D03*
G01*
X50820Y-358070D03*
G01*
X-334799Y296799D03*
G01*
X-10479Y-50170D03*
G01*
X796019Y46129D03*
G01*
X913919Y83329D03*
G01*
X910320Y182329D03*
G01*
X905919Y280529D03*
G01*
X508699Y199299D03*
G01*
X494700Y243999D03*
G01*
X456000Y318199D03*
G01*
X490399Y318799D03*
G01*
X34600Y484799D03*
G01*
X446199Y245000D03*
G01*
X29799Y454399D03*
G01*
X379200Y-61500D03*
G01*
X817299Y308299D03*
G01*
X167100Y56399D03*
G01*
X186499Y144499D03*
G01*
X217200Y143899D03*
G01*
X98000Y-422700D03*
G01*
X96199Y98999D03*
G01*
X588000Y626399D03*
G01*
X7700Y784099D03*
G01*
X135299Y420499D03*
G01*
X452700Y476599D03*
G01*
X152899Y361199D03*
G01*
X38999Y522399D03*
G01*
X97200Y522199D03*
G01*
X127200Y522199D03*
G01*
X-98800Y488499D03*
G01*
X334700Y-468400D03*
G01*
X334300Y-498000D03*
G01*
X653270Y20449D03*
G01*
X632229Y41749D03*
G01*
X432680Y-206230D03*
G01*
X335420Y106029D03*
G01*
X60699Y156599D03*
G01*
X-171999Y377899D03*
G01*
X-382399Y394199D03*
G01*
X-365500Y164499D03*
G01*
X-71999Y-277800D03*
G01*
X-292399Y-195400D03*
G01*
X118599Y182399D03*
G01*
X113800Y133299D03*
G01*
X489200Y-71300D03*
G01*
X463999Y-38700D03*
G01*
X497500Y-20000D03*
G01*
X262700Y321199D03*
G01*
X623000Y544799D03*
G01*
X718199Y336899D03*
G01*
X326899Y395999D03*
G01*
X607500Y755399D03*
G01*
X724899Y607799D03*
G01*
X754300Y166299D03*
G01*
X265399Y-282000D03*
G01*
X12500Y-177000D03*
G01*
X868400Y447299D03*
G01*
X34700Y-422200D03*
G01*
X473699Y498499D03*
G01*
X614600Y363899D03*
G01*
X-131099Y-192000D03*
G01*
X743400Y465499D03*
G01*
X828900Y546999D03*
G01*
X663900Y711999D03*
G01*
X-101300Y571299D03*
G01*
X478599Y-438200D03*
G01*
X426000Y438999D03*
G01*
X603000Y309599D03*
G01*
X-101599Y427599D03*
G01*
X284600Y487699D03*
G01*
X467899Y222099D03*
G01*
X9300Y-147100D03*
G01*
X-68500Y378999D03*
G01*
X11099Y397299D03*
G01*
X660100Y598999D03*
G01*
X-367500Y318899D03*
G01*
X-12200Y-2400D03*
G01*
X-333800Y-104100D03*
G01*
X-334899Y492099D03*
G01*
X-389600Y-18500D03*
G01*
X-172399Y337899D03*
D42*
X711791Y48558D02*
G01*
X739629Y20720D01*
X823140Y-62801D02*
G01*
X850978Y-90639D01*
X398881Y-264341D02*
G01*
X426719Y-292179D01*
X510240Y-375701D02*
G01*
X538078Y-403539D01*
M02*
