G04 Layer: BottomSilkscreenLayer*
G04 EasyEDA v6.5.1, 2022-04-12 15:10:40*
G04 81e337274da949a3b7a457435bed675b,c17a8ced473b4d519dda31697e0e54b6,10*
G04 Gerber Generator version 0.2*
G04 Scale: 100 percent, Rotated: No, Reflected: No *
G04 Dimensions in millimeters *
G04 leading zeros omitted , absolute positions ,4 integer and 5 decimal *
%FSLAX45Y45*%
%MOMM*%

%ADD26C,0.1524*%
%ADD27C,0.0500*%

%LPD*%
G36*
X786993Y-494538D02*
G01*
X780338Y-495249D01*
X774395Y-496671D01*
X768451Y-499008D01*
X762914Y-502158D01*
X757783Y-506018D01*
X753160Y-510438D01*
X749096Y-515467D01*
X745693Y-520903D01*
X743051Y-526694D01*
X741039Y-533704D01*
X764946Y-533704D01*
X765098Y-530047D01*
X766775Y-526745D01*
X769772Y-524408D01*
X772363Y-523697D01*
X774954Y-523748D01*
X777443Y-524611D01*
X779627Y-526186D01*
X782015Y-530606D01*
X781507Y-535178D01*
X778662Y-538784D01*
X773785Y-540461D01*
X771601Y-540359D01*
X769721Y-539800D01*
X768045Y-538683D01*
X766419Y-537006D01*
X764946Y-533704D01*
X741039Y-533704D01*
X740410Y-537819D01*
X740177Y-544728D01*
X745896Y-544728D01*
X746150Y-536549D01*
X746506Y-535330D01*
X759510Y-535330D01*
X759764Y-536600D01*
X760425Y-538276D01*
X761593Y-540156D01*
X763117Y-541934D01*
X764794Y-543407D01*
X769467Y-545795D01*
X774293Y-546354D01*
X779068Y-545134D01*
X783488Y-542086D01*
X785418Y-540004D01*
X786688Y-537718D01*
X787450Y-535127D01*
X787654Y-532079D01*
X787450Y-529234D01*
X786841Y-526796D01*
X785622Y-524611D01*
X783793Y-522376D01*
X778408Y-518820D01*
X772210Y-518007D01*
X766216Y-519836D01*
X761542Y-524154D01*
X759764Y-527608D01*
X759460Y-528828D01*
X748233Y-528574D01*
X749808Y-525221D01*
X752246Y-520954D01*
X755091Y-516991D01*
X758291Y-513384D01*
X761847Y-510133D01*
X765657Y-507238D01*
X769772Y-504799D01*
X774039Y-502818D01*
X778510Y-501345D01*
X782828Y-500634D01*
X788314Y-500278D01*
X793851Y-500278D01*
X798372Y-500735D01*
X805078Y-502513D01*
X811276Y-505307D01*
X817067Y-509066D01*
X822248Y-513842D01*
X825296Y-517042D01*
X826262Y-518668D01*
X825093Y-519176D01*
X816864Y-519226D01*
X816305Y-517499D01*
X812546Y-511606D01*
X806602Y-508406D01*
X799744Y-508254D01*
X793394Y-511454D01*
X789940Y-516128D01*
X788670Y-521614D01*
X788748Y-522071D01*
X794664Y-522071D01*
X794816Y-519734D01*
X795426Y-517855D01*
X796544Y-516280D01*
X798271Y-514858D01*
X800049Y-514045D01*
X802182Y-513689D01*
X804418Y-513791D01*
X806399Y-514400D01*
X809193Y-516382D01*
X810869Y-519125D01*
X811377Y-522325D01*
X810615Y-525576D01*
X807669Y-529082D01*
X803554Y-530453D01*
X799236Y-529691D01*
X795680Y-526694D01*
X794867Y-524865D01*
X794664Y-522071D01*
X788748Y-522071D01*
X789635Y-527202D01*
X792886Y-532130D01*
X795223Y-534060D01*
X797712Y-535381D01*
X800455Y-536041D01*
X803605Y-536092D01*
X807669Y-535381D01*
X811072Y-533704D01*
X813816Y-531164D01*
X815898Y-527659D01*
X816864Y-525373D01*
X830529Y-525322D01*
X832764Y-531520D01*
X833678Y-535432D01*
X834136Y-539699D01*
X834186Y-548487D01*
X833678Y-553415D01*
X833119Y-555853D01*
X831545Y-560527D01*
X829462Y-565099D01*
X826820Y-569366D01*
X823772Y-573328D01*
X820369Y-576935D01*
X816559Y-580136D01*
X812546Y-582777D01*
X806958Y-585470D01*
X802690Y-586841D01*
X802690Y-574243D01*
X804672Y-573481D01*
X806754Y-572363D01*
X808888Y-570636D01*
X810818Y-568604D01*
X812850Y-565200D01*
X813206Y-563981D01*
X813409Y-560171D01*
X813206Y-556920D01*
X812596Y-554380D01*
X811326Y-552196D01*
X809396Y-549960D01*
X807161Y-548081D01*
X804976Y-546862D01*
X802538Y-546201D01*
X797356Y-546049D01*
X794664Y-546506D01*
X793445Y-547014D01*
X791311Y-548386D01*
X789279Y-550164D01*
X787552Y-552246D01*
X786231Y-554431D01*
X785368Y-557072D01*
X785147Y-559206D01*
X790854Y-559206D01*
X792429Y-555193D01*
X796036Y-552145D01*
X798525Y-551484D01*
X801217Y-551738D01*
X803757Y-552754D01*
X805840Y-554431D01*
X807618Y-557936D01*
X807770Y-561695D01*
X806348Y-565150D01*
X803503Y-567588D01*
X801268Y-568299D01*
X798728Y-568452D01*
X796290Y-567994D01*
X794258Y-566978D01*
X791464Y-563422D01*
X790854Y-559206D01*
X785147Y-559206D01*
X785266Y-562914D01*
X786028Y-565505D01*
X787450Y-567842D01*
X789381Y-570077D01*
X791616Y-572008D01*
X793800Y-573278D01*
X796188Y-574243D01*
X796188Y-588416D01*
X793699Y-588721D01*
X789127Y-588873D01*
X783996Y-588365D01*
X778662Y-587197D01*
X773226Y-585470D01*
X768705Y-583336D01*
X764387Y-580694D01*
X760374Y-577494D01*
X756767Y-573836D01*
X753567Y-569823D01*
X750874Y-565454D01*
X748690Y-560882D01*
X747064Y-556056D01*
X746099Y-551230D01*
X745896Y-544728D01*
X740177Y-544728D01*
X740308Y-549960D01*
X740968Y-554939D01*
X743254Y-562610D01*
X746658Y-569722D01*
X751230Y-576224D01*
X756869Y-582066D01*
X762050Y-586028D01*
X767740Y-589280D01*
X773734Y-591769D01*
X779983Y-593445D01*
X786434Y-594309D01*
X792937Y-594360D01*
X799439Y-593598D01*
X805840Y-591921D01*
X811276Y-589838D01*
X816051Y-587298D01*
X820572Y-584149D01*
X825093Y-580237D01*
X829665Y-575208D01*
X833424Y-569722D01*
X836371Y-563778D01*
X838504Y-557479D01*
X839774Y-550926D01*
X840130Y-544068D01*
X839622Y-537057D01*
X838250Y-529894D01*
X835304Y-522478D01*
X830630Y-515010D01*
X824737Y-508254D01*
X818286Y-502970D01*
X813511Y-500075D01*
X809193Y-497941D01*
X804824Y-496417D01*
X800100Y-495300D01*
X793750Y-494538D01*
G37*
D27*
X736600Y-538617D02*
G01*
X736600Y-557710D01*
X736600Y-538617D02*
G01*
X728418Y-538617D01*
X725690Y-539526D01*
X724781Y-540435D01*
X723872Y-542254D01*
X723872Y-544073D01*
X724781Y-545891D01*
X725690Y-546801D01*
X728418Y-547710D01*
X736600Y-547710D01*
X730237Y-547710D02*
G01*
X723872Y-557710D01*
X717872Y-538617D02*
G01*
X717872Y-557710D01*
X717872Y-538617D02*
G01*
X706053Y-538617D01*
X717872Y-547710D02*
G01*
X710600Y-547710D01*
X717872Y-557710D02*
G01*
X706053Y-557710D01*
X700054Y-538617D02*
G01*
X692782Y-557710D01*
X685507Y-538617D02*
G01*
X692782Y-557710D01*
X658235Y-538617D02*
G01*
X665507Y-557710D01*
X658235Y-538617D02*
G01*
X650963Y-557710D01*
X662782Y-551345D02*
G01*
X653691Y-551345D01*
X406400Y-553582D02*
G01*
X406400Y-534489D01*
X406400Y-553582D02*
G01*
X414581Y-553582D01*
X417309Y-552673D01*
X418218Y-551764D01*
X419127Y-549945D01*
X419127Y-548126D01*
X418218Y-546308D01*
X417309Y-545398D01*
X414581Y-544489D01*
X406400Y-544489D01*
X412762Y-544489D02*
G01*
X419127Y-534489D01*
X426036Y-549036D02*
G01*
X426036Y-549945D01*
X426946Y-551764D01*
X427855Y-552673D01*
X429671Y-553582D01*
X433308Y-553582D01*
X435127Y-552673D01*
X436036Y-551764D01*
X436946Y-549945D01*
X436946Y-548126D01*
X436036Y-546308D01*
X434218Y-543582D01*
X425127Y-534489D01*
X437855Y-534489D01*
X729117Y-393700D02*
G01*
X748210Y-393700D01*
X729117Y-393700D02*
G01*
X729117Y-401881D01*
X730026Y-404609D01*
X730935Y-405518D01*
X732754Y-406427D01*
X734573Y-406427D01*
X736391Y-405518D01*
X737301Y-404609D01*
X738210Y-401881D01*
X738210Y-393700D01*
X738210Y-400062D02*
G01*
X748210Y-406427D01*
X729117Y-414246D02*
G01*
X729117Y-424246D01*
X736391Y-418790D01*
X736391Y-421518D01*
X737301Y-423336D01*
X738210Y-424246D01*
X740935Y-425155D01*
X742754Y-425155D01*
X745482Y-424246D01*
X747301Y-422427D01*
X748210Y-419699D01*
X748210Y-416971D01*
X747301Y-414246D01*
X746391Y-413336D01*
X744573Y-412427D01*
X762937Y-345836D02*
G01*
X762027Y-347654D01*
X760209Y-349473D01*
X758390Y-350382D01*
X754753Y-350382D01*
X752937Y-349473D01*
X751118Y-347654D01*
X750209Y-345836D01*
X749300Y-343108D01*
X749300Y-338564D01*
X750209Y-335836D01*
X751118Y-334017D01*
X752937Y-332198D01*
X754753Y-331289D01*
X758390Y-331289D01*
X760209Y-332198D01*
X762027Y-334017D01*
X762937Y-335836D01*
X769846Y-345836D02*
G01*
X769846Y-346745D01*
X770755Y-348564D01*
X771664Y-349473D01*
X773480Y-350382D01*
X777118Y-350382D01*
X778936Y-349473D01*
X779846Y-348564D01*
X780755Y-346745D01*
X780755Y-344926D01*
X779846Y-343108D01*
X778027Y-340382D01*
X768936Y-331289D01*
X781664Y-331289D01*
X267637Y-561736D02*
G01*
X266727Y-563554D01*
X264909Y-565373D01*
X263090Y-566282D01*
X259453Y-566282D01*
X257637Y-565373D01*
X255818Y-563554D01*
X254909Y-561736D01*
X254000Y-559008D01*
X254000Y-554464D01*
X254909Y-551736D01*
X255818Y-549917D01*
X257637Y-548098D01*
X259453Y-547189D01*
X263090Y-547189D01*
X264909Y-548098D01*
X266727Y-549917D01*
X267637Y-551736D01*
X273636Y-562645D02*
G01*
X275455Y-563554D01*
X278180Y-566282D01*
X278180Y-547189D01*
D26*
X537319Y-507039D02*
G01*
X582871Y-507039D01*
X582871Y-585160D01*
X537319Y-585160D01*
X504080Y-507039D02*
G01*
X458528Y-507039D01*
X458528Y-585160D01*
X504080Y-585160D01*
X712160Y-423019D02*
G01*
X712160Y-468571D01*
X634039Y-468571D01*
X634039Y-423019D01*
X712160Y-389780D02*
G01*
X712160Y-344228D01*
X634039Y-344228D01*
X634039Y-389780D01*
X751964Y-318460D02*
G01*
X715119Y-318460D01*
X715119Y-240339D02*
G01*
X751964Y-240339D01*
X767204Y-255579D02*
G01*
X767204Y-303220D01*
X645035Y-318460D02*
G01*
X681880Y-318460D01*
X681880Y-240339D02*
G01*
X645035Y-240339D01*
X629795Y-255579D02*
G01*
X629795Y-303220D01*
X218564Y-597860D02*
G01*
X181719Y-597860D01*
X181719Y-519739D02*
G01*
X218564Y-519739D01*
X233804Y-534979D02*
G01*
X233804Y-582620D01*
X111635Y-597860D02*
G01*
X148480Y-597860D01*
X148480Y-519739D02*
G01*
X111635Y-519739D01*
X96395Y-534979D02*
G01*
X96395Y-582620D01*
G75*
G01*
X751964Y-240340D02*
G02*
X767204Y-255580I0J-15240D01*
G75*
G01*
X767204Y-303220D02*
G02*
X751964Y-318460I-15240J0D01*
G75*
G01*
X645036Y-240340D02*
G03*
X629796Y-255580I0J-15240D01*
G75*
G01*
X629796Y-303220D02*
G03*
X645036Y-318460I15240J0D01*
G75*
G01*
X218564Y-519740D02*
G02*
X233804Y-534980I0J-15240D01*
G75*
G01*
X233804Y-582620D02*
G02*
X218564Y-597860I-15240J0D01*
G75*
G01*
X111636Y-519740D02*
G03*
X96396Y-534980I0J-15240D01*
G75*
G01*
X96396Y-582620D02*
G03*
X111636Y-597860I15240J0D01*
M02*
