G04 Layer: TopPasteMaskLayer*
G04 EasyEDA v6.5.5, 2022-05-23 17:46:57*
G04 b170b76dcbfd4e769ccdd405e25ecab7,c17a8ced473b4d519dda31697e0e54b6,10*
G04 Gerber Generator version 0.2*
G04 Scale: 100 percent, Rotated: No, Reflected: No *
G04 Dimensions in inches *
G04 leading zeros omitted , absolute positions ,3 integer and 6 decimal *
%FSLAX36Y36*%
%MOIN*%

%ADD27R,0.0280X0.0685*%
%ADD30R,0.0236X0.0098*%
%ADD31R,0.0098X0.0236*%
%ADD32R,0.0591X0.0591*%
%ADD34R,0.0118X0.0512*%

%LPD*%
G36*
X699880Y445120D02*
G01*
X698319Y443560D01*
X698319Y425439D01*
X699880Y423860D01*
X719599Y423860D01*
X721180Y425439D01*
X721180Y443560D01*
X719599Y445120D01*
G37*
G36*
X666400Y445120D02*
G01*
X664820Y443560D01*
X664820Y425439D01*
X666400Y423860D01*
X686100Y423860D01*
X687680Y425439D01*
X687680Y443560D01*
X686100Y445120D01*
G37*
G36*
X697700Y495319D02*
G01*
X696120Y493760D01*
X696120Y475640D01*
X697700Y474060D01*
X717400Y474060D01*
X718980Y475640D01*
X718980Y493760D01*
X717400Y495319D01*
G37*
G36*
X664200Y495319D02*
G01*
X662620Y493760D01*
X662620Y475640D01*
X664200Y474060D01*
X683900Y474060D01*
X685480Y475640D01*
X685480Y493760D01*
X683900Y495319D01*
G37*
G36*
X-162200Y595020D02*
G01*
X-163780Y593460D01*
X-163780Y575340D01*
X-162200Y573760D01*
X-142500Y573760D01*
X-140920Y575340D01*
X-140920Y593460D01*
X-142500Y595020D01*
G37*
G36*
X-195700Y595020D02*
G01*
X-197280Y593460D01*
X-197280Y575340D01*
X-195700Y573760D01*
X-176000Y573760D01*
X-174420Y575340D01*
X-174420Y593460D01*
X-176000Y595020D01*
G37*
G36*
X-162120Y647320D02*
G01*
X-163680Y645759D01*
X-163680Y627640D01*
X-162120Y626060D01*
X-142400Y626060D01*
X-140820Y627640D01*
X-140820Y645759D01*
X-142400Y647320D01*
G37*
G36*
X-195600Y647320D02*
G01*
X-197180Y645759D01*
X-197180Y627640D01*
X-195600Y626060D01*
X-175880Y626060D01*
X-174320Y627640D01*
X-174320Y645759D01*
X-175880Y647320D01*
G37*
G36*
X57939Y-410820D02*
G01*
X56360Y-412400D01*
X56360Y-432120D01*
X57939Y-433680D01*
X76060Y-433680D01*
X77620Y-432120D01*
X77620Y-412400D01*
X76060Y-410820D01*
G37*
G36*
X57939Y-444320D02*
G01*
X56360Y-445900D01*
X56360Y-465600D01*
X57939Y-467180D01*
X76060Y-467180D01*
X77620Y-465600D01*
X77620Y-445900D01*
X76060Y-444320D01*
G37*
G36*
X-74240Y499840D02*
G01*
X-76200Y497879D01*
X-76200Y478980D01*
X-74240Y476220D01*
X-56520Y476220D01*
X-54560Y478980D01*
X-54560Y497879D01*
X-56520Y499840D01*
G37*
G36*
X-74240Y462040D02*
G01*
X-76200Y459280D01*
X-76200Y440400D01*
X-74240Y438420D01*
X-56520Y438420D01*
X-54560Y440400D01*
X-54560Y459280D01*
X-56520Y462040D01*
G37*
G36*
X625260Y648139D02*
G01*
X623300Y645380D01*
X623300Y626480D01*
X625260Y624520D01*
X642980Y624520D01*
X644940Y626480D01*
X644940Y645380D01*
X642980Y648139D01*
G37*
G36*
X625260Y685939D02*
G01*
X623300Y683960D01*
X623300Y665080D01*
X625260Y662320D01*
X642980Y662320D01*
X644940Y665080D01*
X644940Y683960D01*
X642980Y685939D01*
G37*
G36*
X363160Y-385160D02*
G01*
X361200Y-387120D01*
X361200Y-406019D01*
X363160Y-408780D01*
X380880Y-408780D01*
X382840Y-406019D01*
X382840Y-387120D01*
X380880Y-385160D01*
G37*
G36*
X363160Y-422960D02*
G01*
X361200Y-425720D01*
X361200Y-444600D01*
X363160Y-446580D01*
X380880Y-446580D01*
X382840Y-444600D01*
X382840Y-425720D01*
X380880Y-422960D01*
G37*
G36*
X-113260Y304020D02*
G01*
X-116020Y302060D01*
X-116020Y284340D01*
X-113260Y282380D01*
X-94360Y282380D01*
X-92380Y284340D01*
X-92380Y302060D01*
X-94360Y304020D01*
G37*
G36*
X-151840Y304020D02*
G01*
X-153800Y302060D01*
X-153800Y284340D01*
X-151840Y282380D01*
X-132940Y282380D01*
X-130180Y284340D01*
X-130180Y302060D01*
X-132940Y304020D01*
G37*
G36*
X-329159Y396820D02*
G01*
X-331120Y394060D01*
X-331120Y375160D01*
X-329159Y373180D01*
X-311440Y373180D01*
X-309480Y375160D01*
X-309480Y394060D01*
X-311440Y396820D01*
G37*
G36*
X-329159Y434600D02*
G01*
X-331120Y432640D01*
X-331120Y413740D01*
X-329159Y410980D01*
X-311440Y410980D01*
X-309480Y413740D01*
X-309480Y432640D01*
X-311440Y434600D01*
G37*
G36*
X416360Y-383800D02*
G01*
X414799Y-385379D01*
X414799Y-405080D01*
X416360Y-406659D01*
X434480Y-406659D01*
X436040Y-405080D01*
X436040Y-385379D01*
X434480Y-383800D01*
G37*
G36*
X416360Y-417280D02*
G01*
X414799Y-418860D01*
X414799Y-438579D01*
X416360Y-440140D01*
X434480Y-440140D01*
X436040Y-438579D01*
X436040Y-418860D01*
X434480Y-417280D01*
G37*
G36*
X-304860Y554880D02*
G01*
X-306440Y553300D01*
X-306440Y533580D01*
X-304860Y532020D01*
X-286740Y532020D01*
X-285160Y533580D01*
X-285160Y553300D01*
X-286740Y554880D01*
G37*
G36*
X-304860Y521380D02*
G01*
X-306440Y519799D01*
X-306440Y500100D01*
X-304860Y498519D01*
X-286740Y498519D01*
X-285160Y500100D01*
X-285160Y519799D01*
X-286740Y521380D01*
G37*
G36*
X812020Y485700D02*
G01*
X809260Y483720D01*
X809260Y466019D01*
X812020Y464040D01*
X830920Y464040D01*
X832880Y466019D01*
X832880Y483720D01*
X830920Y485700D01*
G37*
G36*
X773439Y485700D02*
G01*
X771480Y483720D01*
X771480Y466019D01*
X773439Y464040D01*
X792340Y464040D01*
X795100Y466019D01*
X795100Y483720D01*
X792340Y485700D01*
G37*
G36*
X810639Y435920D02*
G01*
X807880Y433960D01*
X807880Y416240D01*
X810639Y414280D01*
X829539Y414280D01*
X831500Y416240D01*
X831500Y433960D01*
X829539Y435920D01*
G37*
G36*
X772060Y435920D02*
G01*
X770100Y433960D01*
X770100Y416240D01*
X772060Y414280D01*
X790960Y414280D01*
X793720Y416240D01*
X793720Y433960D01*
X790960Y435920D01*
G37*
G36*
X778240Y604200D02*
G01*
X776280Y602240D01*
X776280Y583340D01*
X778240Y580580D01*
X795960Y580580D01*
X797920Y583340D01*
X797920Y602240D01*
X795960Y604200D01*
G37*
G36*
X778240Y566420D02*
G01*
X776280Y563660D01*
X776280Y544760D01*
X778240Y542800D01*
X795960Y542800D01*
X797920Y544760D01*
X797920Y563660D01*
X795960Y566420D01*
G37*
G36*
X679340Y642080D02*
G01*
X677780Y640500D01*
X677780Y620800D01*
X679340Y619220D01*
X697460Y619220D01*
X699040Y620800D01*
X699040Y640500D01*
X697460Y642080D01*
G37*
G36*
X679340Y675580D02*
G01*
X677780Y674000D01*
X677780Y654280D01*
X679340Y652720D01*
X697460Y652720D01*
X699040Y654280D01*
X699040Y674000D01*
X697460Y675580D01*
G37*
G36*
X692340Y224380D02*
G01*
X690780Y222800D01*
X690780Y203100D01*
X692340Y201520D01*
X710460Y201520D01*
X712039Y203100D01*
X712039Y222800D01*
X710460Y224380D01*
G37*
G36*
X692340Y257880D02*
G01*
X690780Y256300D01*
X690780Y236580D01*
X692340Y235020D01*
X710460Y235020D01*
X712039Y236580D01*
X712039Y256300D01*
X710460Y257880D01*
G37*
G36*
X748560Y258000D02*
G01*
X746979Y256420D01*
X746979Y236720D01*
X748560Y235140D01*
X766680Y235140D01*
X768240Y236720D01*
X768240Y256420D01*
X766680Y258000D01*
G37*
G36*
X748560Y224520D02*
G01*
X746979Y222940D01*
X746979Y203220D01*
X748560Y201660D01*
X766680Y201660D01*
X768240Y203220D01*
X768240Y222940D01*
X766680Y224520D01*
G37*
G36*
X740020Y566700D02*
G01*
X739240Y565920D01*
X739240Y559620D01*
X740020Y558840D01*
X746320Y558840D01*
X747120Y559620D01*
X747120Y565920D01*
X746320Y566700D01*
G37*
G36*
X740020Y550960D02*
G01*
X739240Y550180D01*
X739240Y543880D01*
X740020Y543080D01*
X746320Y543080D01*
X747120Y543880D01*
X747120Y550180D01*
X746320Y550960D01*
G37*
G36*
X724280Y566700D02*
G01*
X723480Y565920D01*
X723480Y559620D01*
X724280Y558840D01*
X730580Y558840D01*
X731360Y559620D01*
X731360Y565920D01*
X730580Y566700D01*
G37*
G36*
X724280Y550960D02*
G01*
X723480Y550180D01*
X723480Y543880D01*
X724280Y543080D01*
X730580Y543080D01*
X731360Y543880D01*
X731360Y550180D01*
X730580Y550960D01*
G37*
G36*
X30040Y-244420D02*
G01*
X28460Y-246000D01*
X28460Y-265720D01*
X30040Y-267280D01*
X48160Y-267280D01*
X49720Y-265720D01*
X49720Y-246000D01*
X48160Y-244420D01*
G37*
G36*
X30040Y-277920D02*
G01*
X28460Y-279500D01*
X28460Y-299200D01*
X30040Y-300780D01*
X48160Y-300780D01*
X49720Y-299200D01*
X49720Y-279500D01*
X48160Y-277920D01*
G37*
G36*
X-6160Y-369720D02*
G01*
X-7740Y-371300D01*
X-7740Y-391019D01*
X-6160Y-392580D01*
X11960Y-392580D01*
X13540Y-391019D01*
X13540Y-371300D01*
X11960Y-369720D01*
G37*
G36*
X-6160Y-403220D02*
G01*
X-7740Y-404799D01*
X-7740Y-424500D01*
X-6160Y-426079D01*
X11960Y-426079D01*
X13540Y-424500D01*
X13540Y-404799D01*
X11960Y-403220D01*
G37*
G36*
X-89560Y200420D02*
G01*
X-91700Y199860D01*
X-101560Y182780D01*
X-100980Y180620D01*
X-85300Y171580D01*
X-83140Y172160D01*
X-73300Y189220D01*
X-73880Y191380D01*
G37*
G36*
X-106300Y171420D02*
G01*
X-108460Y170840D01*
X-118300Y153780D01*
X-117720Y151620D01*
X-102040Y142580D01*
X-99900Y143140D01*
X-90040Y160219D01*
X-90620Y162360D01*
G37*
G36*
X-34960Y-164980D02*
G01*
X-37720Y-166940D01*
X-37720Y-184660D01*
X-34960Y-186620D01*
X-16060Y-186620D01*
X-14080Y-184660D01*
X-14080Y-166940D01*
X-16060Y-164980D01*
G37*
G36*
X-73540Y-164980D02*
G01*
X-75500Y-166940D01*
X-75500Y-184660D01*
X-73540Y-186620D01*
X-54640Y-186620D01*
X-51880Y-184660D01*
X-51880Y-166940D01*
X-54640Y-164980D01*
G37*
G36*
X-28119Y583169D02*
G01*
X3379Y583169D01*
X3379Y551669D01*
X-28119Y551669D01*
G37*
G36*
X-28119Y31989D02*
G01*
X3379Y31989D01*
X3379Y489D01*
X-28119Y489D01*
G37*
G36*
X523059Y583169D02*
G01*
X554560Y583169D01*
X554560Y551669D01*
X523059Y551669D01*
G37*
G36*
X523059Y31989D02*
G01*
X554560Y31989D01*
X554560Y489D01*
X523059Y489D01*
G37*
G36*
X-28119Y533954D02*
G01*
X3379Y533954D01*
X3379Y518204D01*
X-28119Y518204D01*
G37*
G36*
X-28119Y500494D02*
G01*
X3379Y500494D01*
X3379Y484744D01*
X-28119Y484744D01*
G37*
G36*
X-28119Y467024D02*
G01*
X3379Y467024D01*
X3379Y451274D01*
X-28119Y451274D01*
G37*
G36*
X-28119Y433565D02*
G01*
X3379Y433565D01*
X3379Y417814D01*
X-28119Y417814D01*
G37*
G36*
X-28119Y400094D02*
G01*
X3379Y400094D01*
X3379Y384344D01*
X-28119Y384344D01*
G37*
G36*
X-28119Y366634D02*
G01*
X3379Y366634D01*
X3379Y350884D01*
X-28119Y350884D01*
G37*
G36*
X-28119Y333164D02*
G01*
X3379Y333164D01*
X3379Y317414D01*
X-28119Y317414D01*
G37*
G36*
X-28119Y299704D02*
G01*
X3379Y299704D01*
X3379Y283954D01*
X-28119Y283954D01*
G37*
G36*
X-28119Y266244D02*
G01*
X3379Y266244D01*
X3379Y250494D01*
X-28119Y250494D01*
G37*
G36*
X-28119Y232774D02*
G01*
X3379Y232774D01*
X3379Y217024D01*
X-28119Y217024D01*
G37*
G36*
X-28119Y199314D02*
G01*
X3379Y199314D01*
X3379Y183565D01*
X-28119Y183565D01*
G37*
G36*
X-28119Y165844D02*
G01*
X3379Y165844D01*
X3379Y150094D01*
X-28119Y150094D01*
G37*
G36*
X-28119Y132384D02*
G01*
X3379Y132384D01*
X3379Y116634D01*
X-28119Y116634D01*
G37*
G36*
X-28119Y98914D02*
G01*
X3379Y98914D01*
X3379Y83164D01*
X-28119Y83164D01*
G37*
G36*
X-28119Y65454D02*
G01*
X3379Y65454D01*
X3379Y49704D01*
X-28119Y49704D01*
G37*
G36*
X21090Y31989D02*
G01*
X36840Y31989D01*
X36840Y489D01*
X21090Y489D01*
G37*
G36*
X54560Y31989D02*
G01*
X70309Y31989D01*
X70309Y489D01*
X54560Y489D01*
G37*
G36*
X88019Y31989D02*
G01*
X103770Y31989D01*
X103770Y489D01*
X88019Y489D01*
G37*
G36*
X121490Y31989D02*
G01*
X137240Y31989D01*
X137240Y489D01*
X121490Y489D01*
G37*
G36*
X154949Y31989D02*
G01*
X170699Y31989D01*
X170699Y489D01*
X154949Y489D01*
G37*
G36*
X188419Y31989D02*
G01*
X204160Y31989D01*
X204160Y489D01*
X188419Y489D01*
G37*
G36*
X221880Y31989D02*
G01*
X237629Y31989D01*
X237629Y489D01*
X221880Y489D01*
G37*
G36*
X255349Y31989D02*
G01*
X271090Y31989D01*
X271090Y489D01*
X255349Y489D01*
G37*
G36*
X288810Y31989D02*
G01*
X304560Y31989D01*
X304560Y489D01*
X288810Y489D01*
G37*
G36*
X322280Y31989D02*
G01*
X338019Y31989D01*
X338019Y489D01*
X322280Y489D01*
G37*
G36*
X355739Y31989D02*
G01*
X371490Y31989D01*
X371490Y489D01*
X355739Y489D01*
G37*
G36*
X389200Y31989D02*
G01*
X404949Y31989D01*
X404949Y489D01*
X389200Y489D01*
G37*
G36*
X422669Y31989D02*
G01*
X438419Y31989D01*
X438419Y489D01*
X422669Y489D01*
G37*
G36*
X456130Y31989D02*
G01*
X471880Y31989D01*
X471880Y489D01*
X456130Y489D01*
G37*
G36*
X489600Y31989D02*
G01*
X505349Y31989D01*
X505349Y489D01*
X489600Y489D01*
G37*
G36*
X523059Y65454D02*
G01*
X554560Y65454D01*
X554560Y49704D01*
X523059Y49704D01*
G37*
G36*
X523059Y98914D02*
G01*
X554560Y98914D01*
X554560Y83164D01*
X523059Y83164D01*
G37*
G36*
X523059Y132384D02*
G01*
X554560Y132384D01*
X554560Y116634D01*
X523059Y116634D01*
G37*
G36*
X523059Y165844D02*
G01*
X554560Y165844D01*
X554560Y150094D01*
X523059Y150094D01*
G37*
G36*
X523059Y199314D02*
G01*
X554560Y199314D01*
X554560Y183565D01*
X523059Y183565D01*
G37*
G36*
X523059Y232774D02*
G01*
X554560Y232774D01*
X554560Y217024D01*
X523059Y217024D01*
G37*
G36*
X523059Y266244D02*
G01*
X554560Y266244D01*
X554560Y250494D01*
X523059Y250494D01*
G37*
G36*
X523059Y299704D02*
G01*
X554560Y299704D01*
X554560Y283954D01*
X523059Y283954D01*
G37*
G36*
X523059Y333164D02*
G01*
X554560Y333164D01*
X554560Y317414D01*
X523059Y317414D01*
G37*
G36*
X523059Y366634D02*
G01*
X554560Y366634D01*
X554560Y350884D01*
X523059Y350884D01*
G37*
G36*
X523059Y400094D02*
G01*
X554560Y400094D01*
X554560Y384344D01*
X523059Y384344D01*
G37*
G36*
X523059Y433565D02*
G01*
X554560Y433565D01*
X554560Y417814D01*
X523059Y417814D01*
G37*
G36*
X523059Y467024D02*
G01*
X554560Y467024D01*
X554560Y451274D01*
X523059Y451274D01*
G37*
G36*
X523059Y500494D02*
G01*
X554560Y500494D01*
X554560Y484744D01*
X523059Y484744D01*
G37*
G36*
X523059Y533954D02*
G01*
X554560Y533954D01*
X554560Y518204D01*
X523059Y518204D01*
G37*
G36*
X489600Y583169D02*
G01*
X505349Y583169D01*
X505349Y551669D01*
X489600Y551669D01*
G37*
G36*
X456130Y583169D02*
G01*
X471880Y583169D01*
X471880Y551669D01*
X456130Y551669D01*
G37*
G36*
X422669Y583169D02*
G01*
X438419Y583169D01*
X438419Y551669D01*
X422669Y551669D01*
G37*
G36*
X389200Y583169D02*
G01*
X404949Y583169D01*
X404949Y551669D01*
X389200Y551669D01*
G37*
G36*
X355739Y583169D02*
G01*
X371490Y583169D01*
X371490Y551669D01*
X355739Y551669D01*
G37*
G36*
X322280Y583169D02*
G01*
X338019Y583169D01*
X338019Y551669D01*
X322280Y551669D01*
G37*
G36*
X288810Y583169D02*
G01*
X304560Y583169D01*
X304560Y551669D01*
X288810Y551669D01*
G37*
G36*
X255349Y583169D02*
G01*
X271090Y583169D01*
X271090Y551669D01*
X255349Y551669D01*
G37*
G36*
X221880Y583169D02*
G01*
X237629Y583169D01*
X237629Y551669D01*
X221880Y551669D01*
G37*
G36*
X188419Y583169D02*
G01*
X204160Y583169D01*
X204160Y551669D01*
X188419Y551669D01*
G37*
G36*
X154949Y583169D02*
G01*
X170699Y583169D01*
X170699Y551669D01*
X154949Y551669D01*
G37*
G36*
X121490Y583169D02*
G01*
X137240Y583169D01*
X137240Y551669D01*
X121490Y551669D01*
G37*
G36*
X88019Y583169D02*
G01*
X103770Y583169D01*
X103770Y551669D01*
X88019Y551669D01*
G37*
G36*
X54560Y583169D02*
G01*
X70309Y583169D01*
X70309Y551669D01*
X54560Y551669D01*
G37*
G36*
X21090Y583169D02*
G01*
X36840Y583169D01*
X36840Y551669D01*
X21090Y551669D01*
G37*
G36*
X239600Y315450D02*
G01*
X286840Y315450D01*
X286840Y268209D01*
X239600Y268209D01*
G37*
G36*
X239600Y380409D02*
G01*
X286840Y380409D01*
X286840Y333169D01*
X239600Y333169D01*
G37*
G36*
X304560Y380409D02*
G01*
X351800Y380409D01*
X351800Y333169D01*
X304560Y333169D01*
G37*
G36*
X304560Y315450D02*
G01*
X351800Y315450D01*
X351800Y268209D01*
X304560Y268209D01*
G37*
G36*
X304560Y250489D02*
G01*
X351800Y250489D01*
X351800Y203249D01*
X304560Y203249D01*
G37*
G36*
X239600Y250489D02*
G01*
X286840Y250489D01*
X286840Y203249D01*
X239600Y203249D01*
G37*
G36*
X174639Y250489D02*
G01*
X221880Y250489D01*
X221880Y203249D01*
X174639Y203249D01*
G37*
G36*
X174639Y315450D02*
G01*
X221880Y315450D01*
X221880Y268209D01*
X174639Y268209D01*
G37*
G36*
X-179562Y224334D02*
G01*
X-247685Y204799D01*
X-255284Y231292D01*
X-187156Y250828D01*
G37*
G36*
X-75924Y-137087D02*
G01*
X-144049Y-156622D01*
X-151647Y-130130D01*
X-83522Y-110595D01*
G37*
G36*
X-352992Y50706D02*
G01*
X-390837Y39854D01*
X-397346Y62559D01*
X-359502Y73412D01*
G37*
G36*
X-334543Y-13629D02*
G01*
X-372388Y-24483D01*
X-378897Y-1777D01*
X-341054Y9075D01*
G37*
G36*
X-316098Y-77958D02*
G01*
X-353942Y-88810D01*
X-360452Y-66106D01*
X-322608Y-55253D01*
G37*
G36*
X-297649Y-142295D02*
G01*
X-335493Y-153148D01*
X-342006Y-130442D01*
X-304160Y-119589D01*
G37*
G36*
X-371437Y115034D02*
G01*
X-409282Y104181D01*
X-415792Y126886D01*
X-377947Y137740D01*
G37*
D27*
G01*
X294219Y-96280D03*
G01*
X244219Y-96280D03*
G01*
X194219Y-96280D03*
G01*
X144219Y-96280D03*
G01*
X144219Y-410870D03*
G01*
X194219Y-410870D03*
G01*
X244219Y-410870D03*
G01*
X294219Y-410870D03*
D30*
G01*
X-12950Y-307270D03*
G01*
X-12950Y-287580D03*
G01*
X-12950Y-267900D03*
G01*
X-12950Y-248210D03*
G36*
X-47475Y-206934D02*
G01*
X-37632Y-206934D01*
X-37632Y-230556D01*
X-47475Y-230556D01*
G37*
G36*
X-67160Y-206934D02*
G01*
X-57317Y-206934D01*
X-57317Y-230556D01*
X-67160Y-230556D01*
G37*
G36*
X-86845Y-206935D02*
G01*
X-77003Y-206935D01*
X-77003Y-230557D01*
X-86845Y-230557D01*
G37*
G36*
X-106530Y-206934D02*
G01*
X-96688Y-206934D01*
X-96688Y-230556D01*
X-106530Y-230556D01*
G37*
G01*
X-131059Y-248270D03*
G01*
X-131059Y-267960D03*
G01*
X-131059Y-287640D03*
G01*
X-131059Y-307270D03*
D31*
G01*
X-101610Y-336860D03*
G01*
X-81920Y-336860D03*
G01*
X-62240Y-336860D03*
G01*
X-42550Y-336860D03*
D32*
G01*
X-71999Y-277800D03*
D34*
G01*
X-183530Y483319D03*
G01*
X-203220Y483319D03*
G01*
X-222889Y483319D03*
G01*
X-242590Y483319D03*
G01*
X-262269Y483319D03*
G01*
X-262259Y298279D03*
G01*
X-242590Y298279D03*
G01*
X-222899Y298279D03*
G01*
X-203220Y298279D03*
G01*
X-183519Y298279D03*
G36*
X673909Y332571D02*
G01*
X693594Y332571D01*
X693594Y321547D01*
X673909Y321547D01*
G37*
G36*
X673909Y352251D02*
G01*
X693594Y352251D01*
X693594Y341227D01*
X673909Y341227D01*
G37*
G36*
X683158Y381191D02*
G01*
X694182Y381191D01*
X694182Y361507D01*
X683158Y361507D01*
G37*
G36*
X702848Y381191D02*
G01*
X713872Y381191D01*
X713872Y361507D01*
X702848Y361507D01*
G37*
G36*
X722528Y381191D02*
G01*
X733551Y381191D01*
X733551Y361507D01*
X722528Y361507D01*
G37*
G36*
X742218Y381191D02*
G01*
X753242Y381191D01*
X753242Y361507D01*
X742218Y361507D01*
G37*
G36*
X742803Y352251D02*
G01*
X762488Y352251D01*
X762488Y341227D01*
X742803Y341227D01*
G37*
G36*
X742803Y332571D02*
G01*
X762488Y332571D01*
X762488Y321547D01*
X742803Y321547D01*
G37*
G36*
X742218Y312292D02*
G01*
X753242Y312292D01*
X753242Y292607D01*
X742218Y292607D01*
G37*
G36*
X722528Y312292D02*
G01*
X733551Y312292D01*
X733551Y292607D01*
X722528Y292607D01*
G37*
G36*
X702848Y312292D02*
G01*
X713872Y312292D01*
X713872Y292607D01*
X702848Y292607D01*
G37*
G36*
X683158Y312292D02*
G01*
X694182Y312292D01*
X694182Y292607D01*
X683158Y292607D01*
G37*
M02*
