G04 Layer: BottomLayer*
G04 EasyEDA v6.5.5, 2022-05-23 17:46:57*
G04 b170b76dcbfd4e769ccdd405e25ecab7,c17a8ced473b4d519dda31697e0e54b6,10*
G04 Gerber Generator version 0.2*
G04 Scale: 100 percent, Rotated: No, Reflected: No *
G04 Dimensions in inches *
G04 leading zeros omitted , absolute positions ,3 integer and 6 decimal *
%FSLAX36Y36*%
%MOIN*%

%ADD10C,0.0084*%
%ADD11C,0.0100*%
%ADD13C,0.0080*%
%ADD15C,0.0124*%
%ADD16C,0.0140*%
%ADD17C,0.0104*%
%ADD20C,0.0070*%
%ADD21C,0.0240*%
%ADD29R,0.0213X0.0223*%
%ADD33R,0.0213X0.0311*%
%ADD40R,0.0669X0.0669*%
%ADD41C,0.0669*%
%ADD42C,0.0472*%
%ADD43C,0.0150*%
%ADD44C,0.0274*%
%ADD45C,0.0104*%
%ADD46C,0.0083*%
%ADD47C,0.0084*%
%ADD48C,0.0203*%
%ADD49C,0.0244*%
%ADD50C,0.0110*%
%ADD51C,0.0090*%
%ADD52C,0.0157*%
%ADD53R,0.0315X0.0355*%
%ADD61R,0.0128X0.0145*%
%ADD66R,0.0262X0.0088*%
%ADD68R,0.1309X0.1309*%

%LPD*%
G36*
X271480Y-514360D02*
G01*
X269940Y-514060D01*
X268620Y-513200D01*
X267740Y-511880D01*
X267440Y-510319D01*
X268480Y-408140D01*
X268800Y-406640D01*
X269660Y-405360D01*
X273820Y-401180D01*
X275120Y-400319D01*
X276660Y-400020D01*
X450840Y-400020D01*
X452380Y-400319D01*
X453680Y-401180D01*
X455820Y-403340D01*
X456700Y-404640D01*
X457000Y-406160D01*
X457000Y-432900D01*
X456760Y-434360D01*
X456420Y-438220D01*
X456760Y-442060D01*
X457000Y-443519D01*
X457000Y-462860D01*
X456700Y-464380D01*
X455820Y-465680D01*
X447900Y-473620D01*
X446920Y-474340D01*
X445760Y-474700D01*
X434860Y-476659D01*
X434360Y-476820D01*
X409140Y-488440D01*
X379600Y-504380D01*
X378320Y-504820D01*
X332840Y-511920D01*
X329380Y-512299D01*
X308500Y-513940D01*
G37*

%LPD*%
G36*
X440100Y-153900D02*
G01*
X413800Y-179000D01*
X413800Y-211900D01*
X428600Y-226700D01*
X432700Y-226700D01*
X471900Y-186000D01*
X471300Y-184899D01*
X469000Y-183200D01*
G37*
G36*
X614500Y54800D02*
G01*
X596900Y38700D01*
X602200Y6300D01*
X631800Y-23200D01*
X633400Y-24300D01*
X671500Y11700D01*
X683000Y23200D01*
X685800Y23200D01*
X664300Y44700D01*
X659700Y48500D01*
X652400Y53700D01*
G37*
G36*
X31220Y-198280D02*
G01*
X5820Y-198580D01*
X5820Y-241480D01*
X10620Y-241980D01*
X17220Y-241780D01*
X21820Y-241880D01*
X29020Y-241480D01*
X30720Y-241080D01*
X31720Y-239380D01*
X156720Y-239080D01*
X157520Y-238280D01*
X157520Y-211180D01*
X157020Y-210680D01*
X32719Y-210680D01*
X31720Y-209680D01*
X31720Y-198780D01*
G37*
G36*
X62720Y-303880D02*
G01*
X61320Y-305280D01*
X5320Y-305280D01*
X5719Y-305680D01*
X5719Y-373480D01*
X6520Y-372680D01*
X63420Y-373480D01*
X62720Y-372780D01*
G37*
G36*
X159400Y287300D02*
G01*
X158400Y125300D01*
X237900Y122800D01*
X243700Y190500D01*
X275920Y192320D01*
X277400Y195300D01*
X276420Y285320D01*
X275420Y286320D01*
G37*
G36*
X178020Y17820D02*
G01*
X176420Y16220D01*
X176420Y-69180D01*
X275820Y-69180D01*
X277520Y-67480D01*
X277520Y15220D01*
X274920Y17820D01*
G37*
G36*
X283520Y-180780D02*
G01*
X279520Y-184780D01*
X279520Y-233780D01*
X281520Y-235780D01*
X381019Y-235780D01*
X393519Y-223280D01*
X393519Y-180780D01*
G37*
G36*
X563700Y34000D02*
G01*
X546700Y17700D01*
X611100Y-46900D01*
X622720Y-32980D01*
X625020Y-30480D01*
X625920Y-29680D01*
X626900Y-29100D01*
X569500Y29100D01*
G37*
G36*
X429600Y-92000D02*
G01*
X418900Y-92500D01*
X406100Y-104000D01*
X427900Y-140900D01*
X446000Y-148400D01*
X476500Y-179500D01*
X490620Y-167280D01*
X492920Y-164780D01*
X493820Y-163980D01*
X492700Y-161700D01*
X462600Y-131800D01*
X452800Y-118300D01*
G37*
G36*
X357100Y-130900D02*
G01*
X152900Y-132100D01*
X152700Y-140200D01*
X153120Y-253180D01*
X143120Y-263180D01*
X143020Y-263180D01*
X141120Y-265080D01*
X141120Y-507180D01*
X141420Y-507480D01*
X191220Y-507480D01*
X235120Y-507180D01*
X235120Y-152180D01*
X359000Y-151800D01*
X359600Y-140900D01*
X359300Y-131600D01*
G37*
D13*
X528519Y6629D02*
G01*
X528620Y36129D01*
X538119Y45629D01*
X612120Y45629D01*
D10*
X597020Y72729D02*
G01*
X597020Y65729D01*
X447920Y65729D01*
X447920Y51229D01*
D11*
X-10479Y-50170D02*
G01*
X-30280Y-50170D01*
X-48280Y-32070D01*
X-48280Y-19170D01*
D43*
X-288699Y281299D02*
G01*
X-288699Y330399D01*
X-337179Y260529D02*
G01*
X-288079Y259929D01*
X-337139Y260499D02*
G01*
X-334799Y262839D01*
X-334799Y296799D01*
D44*
X-333779Y-104070D02*
G01*
X-285579Y-103770D01*
D43*
X-156639Y280699D02*
G01*
X-125000Y280699D01*
X-77200Y232899D01*
X-288079Y281529D02*
G01*
X-200389Y281529D01*
X-199560Y280699D01*
D45*
X-380061Y260499D02*
G01*
X-378378Y258816D01*
X-378378Y164499D01*
X-365500Y164499D01*
D20*
X516340Y-110660D02*
G01*
X496300Y-94600D01*
X476220Y-92370D01*
X465219Y-81370D01*
X465219Y-38670D01*
X464020Y-38670D01*
X544219Y-82770D02*
G01*
X507420Y-45970D01*
X464020Y-45970D01*
X464020Y-38670D01*
X530270Y-96729D02*
G01*
X508838Y-75299D01*
X493199Y-75299D01*
X489200Y-71300D01*
D10*
X92420Y485129D02*
G01*
X141819Y485129D01*
X156220Y499529D01*
X156220Y614629D01*
X123419Y647429D01*
X123419Y666329D01*
X391520Y-90070D02*
G01*
X391520Y-156470D01*
X432719Y-197670D01*
X432719Y-206270D01*
X429020Y-70470D02*
G01*
X411120Y-70470D01*
X391520Y-90070D01*
D20*
X467920Y222129D02*
G01*
X529120Y222129D01*
X529120Y213029D01*
X549020Y213029D01*
D10*
X500739Y166399D02*
G01*
X500739Y170159D01*
X472269Y198629D01*
X445320Y198629D01*
X430219Y183629D01*
X430219Y38229D01*
X421019Y29029D01*
X267420Y29029D01*
X260420Y22029D01*
X260420Y-8470D01*
X378220Y567029D02*
G01*
X449219Y567029D01*
X477820Y538429D01*
X498519Y538429D01*
X517219Y557129D01*
X531157Y543205D02*
G01*
X509480Y521529D01*
X469319Y521529D01*
X460820Y530029D01*
X352820Y530029D01*
X340820Y518029D01*
X340820Y488259D01*
D46*
X-103680Y146529D02*
G01*
X-103680Y168929D01*
X-121580Y186729D01*
X-256580Y186729D01*
D10*
X488519Y-138470D02*
G01*
X464499Y-110600D01*
X442420Y-83870D01*
D46*
X-87979Y146529D02*
G01*
X-87979Y182129D01*
X-108079Y202229D01*
X-108079Y211729D01*
X-123079Y226729D01*
X-156580Y226729D01*
D10*
X503320Y571029D02*
G01*
X527020Y594729D01*
X602420Y594729D01*
X623019Y574129D01*
X623019Y544829D01*
X559020Y515329D02*
G01*
X585820Y542229D01*
X620420Y542229D01*
X623019Y544829D01*
X280720Y516529D02*
G01*
X279020Y510629D01*
X264719Y510629D01*
X220420Y466329D01*
X188019Y466329D01*
X175919Y454229D01*
X137319Y454229D01*
X87319Y404229D01*
X18019Y404229D01*
X11120Y397329D01*
D20*
X516899Y83259D02*
G01*
X561760Y83259D01*
X575444Y96944D01*
X631139Y96944D01*
X516899Y110818D02*
G01*
X585879Y110818D01*
X598260Y123199D01*
X516899Y97039D02*
G01*
X516899Y110819D01*
X516920Y124629D02*
G01*
X553819Y124629D01*
X603620Y174429D01*
D10*
X511502Y143999D02*
G01*
X500739Y154761D01*
X500739Y166399D01*
D20*
X489340Y97039D02*
G01*
X489340Y110819D01*
D10*
X548999Y170139D02*
G01*
X548999Y158899D01*
X534099Y143999D01*
X511502Y143999D01*
X508501Y140999D01*
X505739Y140999D01*
X489340Y124599D01*
D20*
X489340Y97039D02*
G01*
X472460Y97039D01*
X464399Y105099D01*
X464399Y145499D01*
X466660Y147759D01*
X466660Y166399D01*
X410420Y-8470D02*
G01*
X440420Y-8470D01*
X447920Y-970D01*
X447920Y65329D01*
X465820Y83229D01*
X489319Y83229D01*
D10*
X306759Y-64300D02*
G01*
X274458Y-32000D01*
X264200Y-32000D01*
X169219Y393289D02*
G01*
X175379Y387129D01*
X219979Y387129D01*
X788302Y225899D02*
G01*
X817299Y254897D01*
X817299Y308299D01*
X101649Y-115170D02*
G01*
X95739Y-109260D01*
X95739Y-69300D01*
X101649Y-140770D02*
G01*
X101649Y-166370D01*
X40100Y-154540D02*
G01*
X51930Y-166370D01*
X101649Y-166370D01*
X-127139Y-245790D02*
G01*
X-101199Y-219850D01*
X-56180Y-219850D01*
X-39510Y-379400D02*
G01*
X-56180Y-362730D01*
X-56180Y-330090D01*
X-126040Y-364600D02*
G01*
X-127420Y-363220D01*
X-127420Y-308740D01*
D17*
X-288079Y281529D02*
G01*
X-199560Y281529D01*
X-199560Y280699D01*
D10*
X175020Y784229D02*
G01*
X339920Y784229D01*
X341520Y785829D01*
X349819Y785829D01*
X157520Y666329D02*
G01*
X153119Y666329D01*
X153119Y844929D01*
X194319Y844929D01*
X-47826Y711479D02*
G01*
X-24107Y735199D01*
X12299Y735199D01*
X51832Y774731D01*
X94237Y774731D01*
X-207879Y584829D02*
G01*
X-188580Y584829D01*
X-112579Y660829D01*
X-112579Y668729D01*
X421319Y376529D02*
G01*
X465420Y377229D01*
X479520Y391329D01*
X484020Y391329D01*
X29799Y454399D02*
G01*
X32098Y452100D01*
X73501Y452100D01*
X92461Y471060D01*
X92461Y485105D01*
X-112550Y668679D02*
G01*
X-74579Y630708D01*
X-74579Y545330D01*
X-36180Y545330D01*
D15*
X194350Y844929D02*
G01*
X328951Y844929D01*
X330552Y843328D01*
D17*
X-228980Y386729D02*
G01*
X-228980Y431729D01*
X-241279Y442829D01*
X-288079Y442829D01*
X-288079Y442829D02*
G01*
X-326980Y442829D01*
X-347139Y422669D01*
X-347139Y386729D01*
X-72210Y146509D02*
G01*
X-72210Y206310D01*
X-77200Y211299D01*
D46*
X-48280Y106829D02*
G01*
X-25281Y106829D01*
X-17982Y114129D01*
X-17982Y173228D01*
X-17250Y173959D01*
X11400Y173959D01*
X-45878Y91128D02*
G01*
X-25479Y90529D01*
D45*
X63379Y56729D02*
G01*
X67849Y61199D01*
X120100Y61199D01*
X20460Y56729D02*
G01*
X17590Y59599D01*
X-48299Y59599D01*
D46*
X-38699Y273839D02*
G01*
X-38699Y132198D01*
X-48299Y122598D01*
X-48280Y123528D01*
X-323079Y-45970D02*
G01*
X-305780Y-63270D01*
X-288079Y-63270D01*
X-283079Y-58270D01*
X-283079Y-23270D01*
X-262979Y-3370D01*
X-237879Y-3370D01*
X-323079Y-10550D02*
G01*
X-300169Y12359D01*
X-237860Y12359D01*
X-237860Y28108D02*
G01*
X-299918Y28108D01*
X-336779Y64969D01*
X-323079Y-10550D02*
G01*
X-340360Y6729D01*
X-373079Y6729D01*
X-386980Y20629D01*
X-386980Y65269D01*
X-336781Y107889D02*
G01*
X-336781Y135780D01*
X-365500Y164499D01*
X-386980Y108189D02*
G01*
X-386980Y143018D01*
X-365500Y164499D01*
X-199579Y226729D02*
G01*
X-265879Y226729D01*
X-299579Y193029D01*
X-299579Y186729D01*
X-365500Y164499D02*
G01*
X-343270Y186729D01*
X-299539Y186729D01*
X445699Y350199D02*
G01*
X514669Y350199D01*
X519458Y354988D01*
D10*
X544020Y378629D02*
G01*
X561920Y396629D01*
X580420Y396629D01*
X628620Y445729D01*
X508620Y414929D02*
G01*
X522820Y429229D01*
X538220Y429229D01*
X550020Y417429D01*
X576019Y417429D01*
X614719Y456129D01*
X614719Y459729D01*
X580077Y341766D02*
G01*
X588419Y350109D01*
X588419Y374129D01*
X642511Y428221D01*
X642511Y431850D01*
X295940Y455999D02*
G01*
X328200Y488260D01*
X340820Y488260D01*
D47*
X310420Y220530D02*
G01*
X310420Y281989D01*
X311419Y281989D01*
D48*
X356419Y219529D02*
G01*
X356419Y127029D01*
X335420Y106029D01*
D10*
X-30979Y-137770D02*
G01*
X-72210Y-96539D01*
X-72210Y-43050D01*
X-131379Y-137770D02*
G01*
X-87957Y-94348D01*
X-87957Y-43050D01*
D46*
X-285579Y-103770D02*
G01*
X-276180Y-103770D01*
X-265379Y-92970D01*
X-265079Y-30270D01*
X-253980Y-19170D01*
X-237879Y-19170D01*
D10*
X-245680Y-202830D02*
G01*
X-244279Y-201430D01*
X-244279Y-105170D01*
X-220879Y-81770D01*
X-208680Y-81770D01*
X-198199Y-71290D01*
X-198199Y-43050D01*
X-195879Y-203870D02*
G01*
X-195780Y-101470D01*
X-182479Y-88170D01*
X-182479Y-43070D01*
X-245677Y-236910D02*
G01*
X-229488Y-253100D01*
X-225500Y-253100D01*
X-197799Y-277400D02*
G01*
X-197799Y-239792D01*
X-195878Y-237870D01*
X572017Y-54969D02*
G01*
X541920Y-24872D01*
X541920Y-6820D01*
D45*
X64781Y8428D02*
G01*
X86118Y8428D01*
X120100Y42409D01*
X120100Y61199D01*
X-48299Y28108D02*
G01*
X2181Y28108D01*
X21859Y8429D01*
D10*
X870619Y29429D02*
G01*
X853919Y46129D01*
X796019Y46129D01*
X913919Y83329D02*
G01*
X870619Y126629D01*
X870619Y129429D01*
X910320Y182329D02*
G01*
X870619Y222029D01*
X870619Y229429D01*
X905919Y280529D02*
G01*
X870619Y315829D01*
X870619Y329429D01*
X363379Y278429D02*
G01*
X359819Y281989D01*
X311419Y281989D01*
X70219Y828729D02*
G01*
X58819Y817329D01*
X-10479Y817329D01*
X-62380Y765429D01*
X-71880Y765429D01*
D17*
X7700Y784099D02*
G01*
X42463Y784099D01*
X51832Y774731D01*
X169219Y393289D02*
G01*
X162510Y393289D01*
X135299Y420499D01*
X473677Y451170D02*
G01*
X473677Y455621D01*
X452700Y476599D01*
D10*
X340841Y-64300D02*
G01*
X343640Y-61500D01*
X379200Y-61500D01*
X-17182Y545330D02*
G01*
X-17182Y508829D01*
X6847Y484799D01*
X34600Y484799D01*
D49*
X408500Y-373840D02*
G01*
X386431Y-351771D01*
X177618Y-351771D01*
D15*
X11400Y131039D02*
G01*
X35138Y131039D01*
X60699Y156600D01*
X-171999Y377899D02*
G01*
X-180829Y386729D01*
X-229020Y386729D01*
X-382399Y394199D02*
G01*
X-374930Y386729D01*
X-347138Y386729D01*
X646559Y174399D02*
G01*
X632340Y160179D01*
X632340Y123199D01*
X632340Y123199D02*
G01*
X631139Y121999D01*
X631139Y72699D01*
X631139Y72699D02*
G01*
X631139Y42835D01*
X632226Y41749D01*
X200219Y42289D02*
G01*
X263959Y106029D01*
X335420Y106029D01*
X-71999Y-277800D02*
G01*
X-38800Y-277800D01*
X-18779Y-257780D01*
X-18779Y-219850D01*
X40100Y-120460D02*
G01*
X61660Y-98900D01*
X61660Y-69300D01*
X61660Y-69300D02*
G01*
X64780Y-66180D01*
X64780Y8429D01*
X-292399Y-195400D02*
G01*
X-285579Y-188580D01*
X-285579Y-146730D01*
D10*
X558131Y-68871D02*
G01*
X509260Y-20000D01*
X497500Y-20000D01*
X572920Y501448D02*
G01*
X616271Y544799D01*
X623000Y544799D01*
X646559Y174399D02*
G01*
X702960Y230799D01*
X762560Y230799D01*
D17*
X731920Y375529D02*
G01*
X697920Y409529D01*
X697920Y446429D01*
X637120Y507229D01*
X606520Y507229D01*
X586819Y487529D01*
D10*
X731959Y301899D02*
G01*
X731959Y307659D01*
X756999Y332699D01*
X771000Y332699D01*
X771000Y347699D01*
X758500Y360199D01*
X747250Y360199D01*
X731920Y375529D01*
D17*
X254059Y387129D02*
G01*
X318029Y387129D01*
X326899Y395999D01*
D10*
X349819Y785828D02*
G01*
X372319Y808328D01*
X554570Y808328D01*
X607500Y755399D01*
D17*
X330020Y-166370D02*
G01*
X371520Y-166370D01*
X371520Y-94470D01*
X289719Y-94470D01*
X289719Y-57470D01*
X264219Y-31970D01*
D10*
X38999Y522399D02*
G01*
X27299Y534099D01*
X27299Y616289D01*
X360420Y220529D02*
G01*
X383299Y243409D01*
X383299Y258099D01*
X397460Y272259D01*
X397460Y278429D01*
D17*
X718199Y336899D02*
G01*
X656430Y398669D01*
X656430Y417929D01*
X329991Y-115169D02*
G01*
X177471Y-115169D01*
X127398Y-65101D01*
X127398Y-28099D01*
X120100Y-20801D01*
X120100Y61199D01*
X50820Y-358070D02*
G01*
X68819Y-358070D01*
X68819Y-437970D01*
X56120Y-450670D01*
X-16880Y-450670D01*
X-91980Y-375670D01*
X-91980Y-364570D01*
D10*
X34700Y-422200D02*
G01*
X-8100Y-379400D01*
X-20489Y-379400D01*
X473699Y498499D02*
G01*
X514300Y498499D01*
X545078Y529278D01*
X446220Y245029D02*
G01*
X468519Y267329D01*
X568620Y267329D01*
X603620Y232329D01*
X603620Y174429D01*
X656440Y324947D02*
G01*
X617488Y363899D01*
X614600Y363899D01*
X685159Y293051D02*
G01*
X695500Y303391D01*
X695500Y324299D01*
X708100Y336899D01*
X718199Y336899D01*
D15*
X449161Y427488D02*
G01*
X437650Y438999D01*
X426000Y438999D01*
X603000Y309599D02*
G01*
X564048Y309599D01*
X555558Y318089D01*
X262399Y274099D02*
G01*
X304369Y316069D01*
X311419Y316069D01*
D10*
X370219Y427329D02*
G01*
X415619Y472729D01*
X415619Y488229D01*
X169219Y427369D02*
G01*
X171049Y429199D01*
X199399Y429199D01*
X210900Y417699D01*
X266400Y417699D01*
X276030Y427329D01*
X370219Y427329D01*
D15*
X284601Y487698D02*
G01*
X261859Y464958D01*
X261859Y455999D01*
D10*
X473720Y451429D02*
G01*
X578519Y451429D01*
X600720Y473629D01*
D17*
X766019Y301929D02*
G01*
X766019Y279729D01*
X755420Y269129D01*
X726120Y269129D01*
X709719Y252729D01*
X615119Y252729D01*
X576819Y291029D01*
X429719Y291029D01*
X359520Y361229D01*
X152920Y361229D01*
D15*
X9300Y-147100D02*
G01*
X6700Y-144500D01*
X6700Y-91900D01*
X21860Y-76739D01*
X21860Y8428D01*
D10*
X70219Y828729D02*
G01*
X73819Y832329D01*
X128620Y832329D01*
X137920Y823129D01*
X137920Y755129D01*
X80919Y698129D01*
X80919Y665929D01*
X50320Y635329D01*
X27299Y616289D01*
X286999Y566099D02*
G01*
X286999Y539609D01*
X280720Y516529D01*
X247020Y566129D02*
G01*
X247020Y595329D01*
X256319Y604629D01*
X298320Y604629D01*
X309319Y593629D01*
X309319Y584629D01*
X312319Y581629D01*
X339319Y581629D01*
X363320Y605629D01*
X394319Y605629D01*
X416319Y583629D01*
X490720Y583629D01*
X503320Y571029D01*
X226999Y566099D02*
G01*
X226999Y600499D01*
X240339Y613839D01*
X240339Y636199D01*
X92420Y434929D02*
G01*
X87100Y430099D01*
X-55600Y427729D01*
X-68500Y414598D01*
X-68500Y378999D01*
X267020Y566129D02*
G01*
X265619Y564729D01*
X265619Y534829D01*
X263119Y534829D01*
X217120Y488829D01*
X185320Y488829D01*
X166419Y469929D01*
X127420Y469929D01*
X92420Y434929D01*
X87100Y430099D01*
D50*
X663901Y712000D02*
G01*
X647300Y695398D01*
X594098Y695398D01*
X559170Y660471D01*
X559170Y659899D01*
D20*
X711120Y659929D02*
G01*
X711120Y699329D01*
X676620Y733929D01*
X646620Y733929D01*
X638620Y725929D01*
D51*
X681300Y602439D02*
G01*
X677060Y606679D01*
X677060Y659899D01*
X681300Y568359D02*
G01*
X711059Y568359D01*
X721599Y578899D01*
X721599Y604499D01*
X724899Y607799D01*
D10*
X183299Y566673D02*
G01*
X206998Y548297D01*
X206998Y566099D01*
X206220Y636229D02*
G01*
X183320Y613229D01*
X183299Y566673D01*
D51*
X480429Y697299D02*
G01*
X480429Y675169D01*
X508999Y646599D01*
X508999Y626599D01*
X493000Y610599D01*
X423999Y610599D01*
X413299Y621299D01*
X290699Y621299D01*
X290699Y640999D01*
X267700Y663999D01*
X212500Y663999D01*
X201899Y653399D01*
X206260Y649040D01*
X206260Y636199D01*
D20*
X660100Y598999D02*
G01*
X663540Y602439D01*
X681300Y602439D01*
X638620Y725929D02*
G01*
X623119Y725929D01*
X613919Y716729D01*
X559219Y716729D01*
X559219Y734729D01*
D16*
X109420Y298549D02*
G01*
X109420Y305777D01*
X61797Y353399D01*
X11401Y173958D02*
G01*
X16599Y179156D01*
X16599Y231799D01*
D46*
X110200Y232099D02*
G01*
X110200Y216200D01*
X84098Y190098D01*
X84098Y134407D01*
X40221Y90528D01*
X-25482Y90528D01*
X-38680Y316729D02*
G01*
X-38680Y324729D01*
X-135379Y324729D01*
X-135379Y331729D01*
D10*
X200219Y-270D02*
G01*
X195020Y4629D01*
X155519Y4629D01*
X143519Y16729D01*
X143519Y319229D01*
X126520Y336229D01*
X126520Y351129D01*
X97920Y379729D01*
X42899Y379699D01*
X31520Y353629D01*
X-114679Y353629D01*
X-153580Y392529D01*
X-153580Y488629D01*
X-223180Y488629D01*
X-276180Y541629D01*
X-276180Y580829D01*
X-162780Y694329D01*
X-162780Y714529D01*
D52*
X79997Y-191970D02*
G01*
X123303Y-191970D01*
X79997Y-166370D02*
G01*
X123303Y-166370D01*
X79997Y-140770D02*
G01*
X123303Y-140770D01*
X79997Y-115170D02*
G01*
X123303Y-115170D01*
X308335Y-191970D02*
G01*
X351643Y-191970D01*
X308335Y-166370D02*
G01*
X351643Y-166370D01*
X308335Y-140770D02*
G01*
X351643Y-140770D01*
X308335Y-115170D02*
G01*
X351643Y-115170D01*
D53*
G01*
X18100Y300399D03*
G01*
X109420Y298549D03*
G01*
X110200Y232099D03*
G01*
X16599Y231799D03*
G36*
X481746Y557818D02*
G01*
X490097Y549466D01*
X524895Y584265D01*
X516544Y592616D01*
G37*
G36*
X495664Y543899D02*
G01*
X504017Y535547D01*
X538815Y570345D01*
X530462Y578697D01*
G37*
G36*
X509584Y529980D02*
G01*
X517937Y521627D01*
X552735Y556425D01*
X544382Y564778D01*
G37*
G36*
X523504Y516061D02*
G01*
X531855Y507708D01*
X566653Y542506D01*
X558302Y550858D01*
G37*
G36*
X537424Y502141D02*
G01*
X545775Y493789D01*
X580573Y528587D01*
X572220Y536939D01*
G37*
G36*
X551342Y488221D02*
G01*
X559695Y479870D01*
X594493Y514667D01*
X586140Y523020D01*
G37*
G36*
X565262Y474302D02*
G01*
X573614Y465950D01*
X608413Y500748D01*
X600060Y509101D01*
G37*
G36*
X579182Y460383D02*
G01*
X587533Y452030D01*
X622331Y486829D01*
X613980Y495181D01*
G37*
G36*
X593100Y446463D02*
G01*
X601453Y438111D01*
X636252Y472909D01*
X627898Y481261D01*
G37*
G36*
X607020Y432544D02*
G01*
X615372Y424191D01*
X650171Y458989D01*
X641818Y467342D01*
G37*
G36*
X620940Y418625D02*
G01*
X629291Y410272D01*
X664089Y445070D01*
X655738Y453424D01*
G37*
G36*
X634858Y404706D02*
G01*
X643212Y396353D01*
X678010Y431151D01*
X669656Y439503D01*
G37*
G36*
X292906Y591690D02*
G01*
X281094Y591690D01*
X281094Y540508D01*
X292906Y540508D01*
G37*
G36*
X272906Y591690D02*
G01*
X261094Y591690D01*
X261094Y540508D01*
X272906Y540508D01*
G37*
G36*
X252906Y591690D02*
G01*
X241094Y591690D01*
X241094Y540508D01*
X252906Y540508D01*
G37*
G36*
X232906Y591690D02*
G01*
X221094Y591690D01*
X221094Y540508D01*
X232906Y540508D01*
G37*
G36*
X212906Y591690D02*
G01*
X201094Y591690D01*
X201094Y540508D01*
X212906Y540508D01*
G37*
D29*
G01*
X-195879Y-203830D03*
G36*
X-206509Y-226776D02*
G01*
X-185249Y-226776D01*
X-185249Y-249045D01*
X-206509Y-249045D01*
G37*
G01*
X-245680Y-236910D03*
G36*
X-235050Y-213964D02*
G01*
X-256310Y-213964D01*
X-256310Y-191695D01*
X-235050Y-191695D01*
G37*
G36*
X542214Y1904D02*
G01*
X533194Y-7115D01*
X541634Y-15554D01*
X550654Y-6534D01*
G37*
G36*
X537205Y6914D02*
G01*
X528185Y-2105D01*
X519745Y6333D01*
X528765Y15353D01*
G37*
G36*
X428684Y-79205D02*
G01*
X437704Y-70185D01*
X429265Y-61746D01*
X420245Y-70766D01*
G37*
G36*
X433695Y-84215D02*
G01*
X442714Y-75195D01*
X451153Y-83634D01*
X442133Y-92654D01*
G37*
G36*
X142280Y-464875D02*
G01*
X142280Y-504245D01*
X165900Y-504245D01*
X165900Y-464875D01*
G37*
G36*
X209210Y-464875D02*
G01*
X209210Y-504245D01*
X232830Y-504245D01*
X232830Y-464875D01*
G37*
G36*
X276139Y-464875D02*
G01*
X276139Y-504245D01*
X299759Y-504245D01*
X299759Y-464875D01*
G37*
G36*
X86180Y-250315D02*
G01*
X86180Y-321185D01*
X113739Y-321185D01*
X113739Y-250315D01*
G37*
G36*
X328299Y-250315D02*
G01*
X328299Y-321185D01*
X355860Y-321185D01*
X355860Y-250315D01*
G37*
G01*
X40100Y-154540D03*
G36*
X50730Y-131594D02*
G01*
X29470Y-131594D01*
X29470Y-109325D01*
X50730Y-109325D01*
G37*
G36*
X-110708Y-104305D02*
G01*
X-110708Y-171235D01*
X-152046Y-171235D01*
X-152046Y-104305D01*
G37*
G36*
X-51652Y-104305D02*
G01*
X-51652Y-171235D01*
X-10313Y-171235D01*
X-10313Y-104305D01*
G37*
G36*
X597057Y672D02*
G01*
X588714Y-7672D01*
X619331Y-38288D01*
X627676Y-29945D01*
G37*
G36*
X588714Y-7672D02*
G01*
X580369Y-16014D01*
X610987Y-46632D01*
X619331Y-38288D01*
G37*
G36*
X574781Y-21601D02*
G01*
X566439Y-29945D01*
X597057Y-60562D01*
X605399Y-52219D01*
G37*
G36*
X560923Y-35460D02*
G01*
X552509Y-43875D01*
X583127Y-74491D01*
X591540Y-66078D01*
G37*
G36*
X546993Y-49391D02*
G01*
X538649Y-57733D01*
X569266Y-88352D01*
X577613Y-80006D01*
G37*
G36*
X533064Y-63320D02*
G01*
X524719Y-71664D01*
X555336Y-102281D01*
X563680Y-93937D01*
G37*
G36*
X519133Y-77251D02*
G01*
X510789Y-85593D01*
X541406Y-116211D01*
X549751Y-107867D01*
G37*
G36*
X505204Y-91179D02*
G01*
X496859Y-99524D01*
X527478Y-130141D01*
X535820Y-121798D01*
G37*
G36*
X491273Y-105110D02*
G01*
X482929Y-113453D01*
X513548Y-144071D01*
X521890Y-135728D01*
G37*
G36*
X477343Y-119040D02*
G01*
X468999Y-127383D01*
X499618Y-158002D01*
X507960Y-149658D01*
G37*
G36*
X463483Y-132900D02*
G01*
X455069Y-141314D01*
X485688Y-171931D01*
X494102Y-163516D01*
G37*
G36*
X455069Y-141314D02*
G01*
X446725Y-149656D01*
X477344Y-180276D01*
X485688Y-171931D01*
G37*
G36*
X610986Y14602D02*
G01*
X602641Y6259D01*
X633261Y-24358D01*
X641604Y-16014D01*
G37*
G36*
X619331Y22946D02*
G01*
X610986Y14602D01*
X641604Y-16014D01*
X649948Y-7671D01*
G37*
G36*
X441211Y-155174D02*
G01*
X432866Y-163517D01*
X463485Y-194134D01*
X471827Y-185791D01*
G37*
G36*
X432866Y-163517D02*
G01*
X424452Y-171933D01*
X455069Y-202549D01*
X463485Y-194134D01*
G37*
G36*
X329705Y-53670D02*
G01*
X329705Y-74930D01*
X351975Y-74930D01*
X351975Y-53670D01*
G37*
G36*
X317893Y-53670D02*
G01*
X317893Y-74930D01*
X295625Y-74930D01*
X295625Y-53670D01*
G37*
D33*
G01*
X11400Y131039D03*
G36*
X22030Y158405D02*
G01*
X770Y158405D01*
X770Y189511D01*
X22030Y189511D01*
G37*
G36*
X401840Y512865D02*
G01*
X401840Y463653D01*
X429399Y463653D01*
X429399Y512865D01*
G37*
G36*
X327040Y512865D02*
G01*
X327040Y463653D01*
X354600Y463653D01*
X354600Y512865D01*
G37*
G36*
X364440Y591605D02*
G01*
X364440Y542393D01*
X391999Y542393D01*
X391999Y591605D01*
G37*
D29*
G01*
X169219Y427369D03*
G36*
X158590Y404423D02*
G01*
X179849Y404423D01*
X179849Y382154D01*
X158590Y382154D01*
G37*
G36*
X231113Y376499D02*
G01*
X231113Y397759D01*
X208845Y397759D01*
X208845Y376499D01*
G37*
G36*
X242925Y376499D02*
G01*
X242925Y397759D01*
X265195Y397759D01*
X265195Y376499D01*
G37*
G36*
X570955Y318180D02*
G01*
X556188Y333473D01*
X540168Y318004D01*
X554936Y302711D01*
G37*
G36*
X579452Y326385D02*
G01*
X564683Y341678D01*
X580703Y357147D01*
X595471Y341854D01*
G37*
G36*
X-26457Y-373022D02*
G01*
X-26457Y-385778D01*
X-14522Y-385778D01*
X-14522Y-373022D01*
G37*
G36*
X-33542Y-373022D02*
G01*
X-33542Y-385778D01*
X-45477Y-385778D01*
X-45477Y-373022D01*
G37*
G36*
X658948Y306275D02*
G01*
X674747Y320501D01*
X653933Y343617D01*
X638135Y329391D01*
G37*
G36*
X666851Y297497D02*
G01*
X682651Y311723D01*
X703464Y288607D01*
X687665Y274381D01*
G37*
D33*
G01*
X200219Y-630D03*
G36*
X210850Y26735D02*
G01*
X189589Y26735D01*
X189589Y57841D01*
X210850Y57841D01*
G37*
G36*
X-183986Y216099D02*
G01*
X-183986Y237359D01*
X-215092Y237359D01*
X-215092Y216099D01*
G37*
G36*
X-172173Y216099D02*
G01*
X-172173Y237359D01*
X-141067Y237359D01*
X-141067Y216099D01*
G37*
G36*
X-283986Y176099D02*
G01*
X-283986Y197359D01*
X-315092Y197359D01*
X-315092Y176099D01*
G37*
G36*
X-272173Y176099D02*
G01*
X-272173Y197359D01*
X-241067Y197359D01*
X-241067Y176099D01*
G37*
G01*
X-336779Y107889D03*
G36*
X-347409Y80523D02*
G01*
X-326149Y80523D01*
X-326149Y49417D01*
X-347409Y49417D01*
G37*
G01*
X-38699Y273839D03*
G36*
X-28069Y301205D02*
G01*
X-49329Y301205D01*
X-49329Y332311D01*
X-28069Y332311D01*
G37*
G01*
X-285579Y-103810D03*
G36*
X-296210Y-131176D02*
G01*
X-274949Y-131176D01*
X-274949Y-162282D01*
X-296210Y-162282D01*
G37*
G01*
X408500Y-373840D03*
G36*
X397870Y-401206D02*
G01*
X419129Y-401206D01*
X419129Y-432312D01*
X397870Y-432312D01*
G37*
G36*
X36013Y46099D02*
G01*
X36013Y67359D01*
X4907Y67359D01*
X4907Y46099D01*
G37*
G36*
X47826Y46099D02*
G01*
X47826Y67359D01*
X78932Y67359D01*
X78932Y46099D01*
G37*
G36*
X37413Y-2200D02*
G01*
X37413Y19059D01*
X6307Y19059D01*
X6307Y-2200D01*
G37*
G36*
X49225Y-2200D02*
G01*
X49225Y19059D01*
X80331Y19059D01*
X80331Y-2200D01*
G37*
D61*
G01*
X-77200Y211299D03*
G36*
X-70821Y225642D02*
G01*
X-83577Y225642D01*
X-83577Y240148D01*
X-70821Y240148D01*
G37*
G36*
X-103094Y-353970D02*
G01*
X-103094Y-375230D01*
X-80825Y-375230D01*
X-80825Y-353970D01*
G37*
G36*
X-114906Y-353970D02*
G01*
X-114906Y-375230D01*
X-137174Y-375230D01*
X-137174Y-353970D01*
G37*
G36*
X-312253Y-38112D02*
G01*
X-333906Y-38112D01*
X-333906Y-53860D01*
X-312253Y-53860D01*
G37*
G36*
X-312253Y-2679D02*
G01*
X-333906Y-2679D01*
X-333906Y-18427D01*
X-312253Y-18427D01*
G37*
G36*
X-111395Y-230043D02*
G01*
X-142890Y-230043D01*
X-142890Y-261539D01*
X-111395Y-261539D01*
G37*
G36*
X-111670Y-292996D02*
G01*
X-143167Y-292996D01*
X-143167Y-324492D01*
X-111670Y-324492D01*
G37*
D29*
G01*
X311419Y316069D03*
G36*
X300789Y293123D02*
G01*
X322049Y293123D01*
X322049Y270854D01*
X300789Y270854D01*
G37*
G36*
X386325Y289059D02*
G01*
X386325Y267799D01*
X408594Y267799D01*
X408594Y289059D01*
G37*
G36*
X374513Y289059D02*
G01*
X374513Y267799D01*
X352245Y267799D01*
X352245Y289059D01*
G37*
G36*
X773693Y220169D02*
G01*
X773693Y241429D01*
X751424Y241429D01*
X751424Y220169D01*
G37*
G36*
X785505Y220169D02*
G01*
X785505Y241429D01*
X807775Y241429D01*
X807775Y220169D01*
G37*
G36*
X-207371Y343426D02*
G01*
X-207371Y430040D01*
X-250677Y430040D01*
X-250677Y343426D01*
G37*
G36*
X-267411Y462515D02*
G01*
X-308750Y462515D01*
X-308750Y423145D01*
X-267411Y423145D01*
G37*
G36*
X-325482Y343425D02*
G01*
X-325482Y430039D01*
X-368788Y430039D01*
X-368788Y343425D01*
G37*
G36*
X-267411Y350313D02*
G01*
X-308750Y350313D01*
X-308750Y310943D01*
X-267411Y310943D01*
G37*
D66*
G01*
X-48299Y122599D03*
G01*
X-48299Y106849D03*
G01*
X-48299Y91099D03*
G01*
X-48299Y75349D03*
G01*
X-48299Y59599D03*
G01*
X-48299Y43859D03*
G01*
X-48299Y28109D03*
G01*
X-48299Y12359D03*
G01*
X-48299Y-3390D03*
G01*
X-48299Y-19140D03*
G36*
X-67803Y-56144D02*
G01*
X-76622Y-56144D01*
X-76622Y-29963D01*
X-67803Y-29963D01*
G37*
G36*
X-83551Y-56144D02*
G01*
X-92371Y-56144D01*
X-92371Y-29963D01*
X-83551Y-29963D01*
G37*
G36*
X-99300Y-56144D02*
G01*
X-108118Y-56144D01*
X-108118Y-29963D01*
X-99300Y-29963D01*
G37*
G36*
X-115048Y-56144D02*
G01*
X-123867Y-56144D01*
X-123867Y-29963D01*
X-115048Y-29963D01*
G37*
G36*
X-130797Y-56144D02*
G01*
X-139615Y-56144D01*
X-139615Y-29963D01*
X-130797Y-29963D01*
G37*
G36*
X-146544Y-56144D02*
G01*
X-155362Y-56144D01*
X-155362Y-29963D01*
X-146544Y-29963D01*
G37*
G36*
X-162292Y-56144D02*
G01*
X-171111Y-56144D01*
X-171111Y-29963D01*
X-162292Y-29963D01*
G37*
G36*
X-178041Y-56144D02*
G01*
X-186859Y-56144D01*
X-186859Y-29963D01*
X-178041Y-29963D01*
G37*
G36*
X-193788Y-56144D02*
G01*
X-202608Y-56144D01*
X-202608Y-29963D01*
X-193788Y-29963D01*
G37*
G36*
X-209537Y-56144D02*
G01*
X-218356Y-56144D01*
X-218356Y-29963D01*
X-209537Y-29963D01*
G37*
G36*
X-250954Y-14727D02*
G01*
X-224772Y-14727D01*
X-224772Y-23546D01*
X-250954Y-23546D01*
G37*
G36*
X-250954Y1020D02*
G01*
X-224772Y1020D01*
X-224772Y-7798D01*
X-250954Y-7798D01*
G37*
G36*
X-250954Y16768D02*
G01*
X-224772Y16768D01*
X-224772Y7949D01*
X-250954Y7949D01*
G37*
G36*
X-250954Y32516D02*
G01*
X-224772Y32516D01*
X-224772Y23698D01*
X-250954Y23698D01*
G37*
G36*
X-250954Y48264D02*
G01*
X-224772Y48264D01*
X-224772Y39446D01*
X-250954Y39446D01*
G37*
G36*
X-250954Y64012D02*
G01*
X-224772Y64012D01*
X-224772Y55194D01*
X-250954Y55194D01*
G37*
G36*
X-250954Y79760D02*
G01*
X-224772Y79760D01*
X-224772Y70942D01*
X-250954Y70942D01*
G37*
G36*
X-250954Y95509D02*
G01*
X-224772Y95509D01*
X-224772Y86690D01*
X-250954Y86690D01*
G37*
G36*
X-250954Y111257D02*
G01*
X-224772Y111257D01*
X-224772Y102438D01*
X-250954Y102438D01*
G37*
G36*
X-250954Y127005D02*
G01*
X-224772Y127005D01*
X-224772Y118186D01*
X-250954Y118186D01*
G37*
G36*
X-209537Y133422D02*
G01*
X-218356Y133422D01*
X-218356Y159603D01*
X-209537Y159603D01*
G37*
G36*
X-193788Y133422D02*
G01*
X-202608Y133422D01*
X-202608Y159603D01*
X-193788Y159603D01*
G37*
G36*
X-178041Y133422D02*
G01*
X-186859Y133422D01*
X-186859Y159603D01*
X-178041Y159603D01*
G37*
G36*
X-162292Y133422D02*
G01*
X-171111Y133422D01*
X-171111Y159603D01*
X-162292Y159603D01*
G37*
G36*
X-146544Y133422D02*
G01*
X-155362Y133422D01*
X-155362Y159603D01*
X-146544Y159603D01*
G37*
G36*
X-130797Y133422D02*
G01*
X-139615Y133422D01*
X-139615Y159603D01*
X-130797Y159603D01*
G37*
G36*
X-115048Y133422D02*
G01*
X-123867Y133422D01*
X-123867Y159603D01*
X-115048Y159603D01*
G37*
G36*
X-99300Y133422D02*
G01*
X-108118Y133422D01*
X-108118Y159603D01*
X-99300Y159603D01*
G37*
G36*
X-83551Y133422D02*
G01*
X-92371Y133422D01*
X-92371Y159603D01*
X-83551Y159603D01*
G37*
G36*
X-67803Y133422D02*
G01*
X-76622Y133422D01*
X-76622Y159603D01*
X-67803Y159603D01*
G37*
D68*
G01*
X-143079Y51729D03*
G36*
X29449Y-239536D02*
G01*
X29449Y-200166D01*
X7795Y-200166D01*
X7795Y-239536D01*
G37*
G36*
X-7950Y-239536D02*
G01*
X-7950Y-200166D01*
X-29603Y-200166D01*
X-29603Y-239536D01*
G37*
G36*
X-45349Y-239536D02*
G01*
X-45349Y-200166D01*
X-67003Y-200166D01*
X-67003Y-239536D01*
G37*
G36*
X-45349Y-349776D02*
G01*
X-45349Y-310406D01*
X-67003Y-310406D01*
X-67003Y-349776D01*
G37*
G36*
X-7950Y-349776D02*
G01*
X-7950Y-310406D01*
X-29603Y-310406D01*
X-29603Y-349776D01*
G37*
G36*
X29449Y-349776D02*
G01*
X29449Y-310406D01*
X7795Y-310406D01*
X7795Y-349776D01*
G37*
G36*
X-184005Y270069D02*
G01*
X-184005Y291329D01*
X-215111Y291329D01*
X-215111Y270069D01*
G37*
G36*
X-172193Y270069D02*
G01*
X-172193Y291329D01*
X-141087Y291329D01*
X-141087Y270069D01*
G37*
D33*
G01*
X-386980Y108189D03*
G36*
X-397610Y80823D02*
G01*
X-376350Y80823D01*
X-376350Y49717D01*
X-397610Y49717D01*
G37*
D61*
G01*
X-288079Y281529D03*
G36*
X-294458Y267186D02*
G01*
X-281701Y267186D01*
X-281701Y252680D01*
X-294458Y252680D01*
G37*
G36*
X248608Y196907D02*
G01*
X272231Y196907D01*
X272231Y244151D01*
X248608Y244151D01*
G37*
G36*
X298608Y196907D02*
G01*
X322231Y196907D01*
X322231Y244151D01*
X298608Y244151D01*
G37*
G36*
X348608Y196907D02*
G01*
X372231Y196907D01*
X372231Y244151D01*
X348608Y244151D01*
G37*
G36*
X398608Y196907D02*
G01*
X422231Y196907D01*
X422231Y244151D01*
X398608Y244151D01*
G37*
G36*
X398608Y-32092D02*
G01*
X422231Y-32092D01*
X422231Y15151D01*
X398608Y15151D01*
G37*
G36*
X348608Y-32092D02*
G01*
X372231Y-32092D01*
X372231Y15151D01*
X348608Y15151D01*
G37*
G36*
X298608Y-32092D02*
G01*
X322231Y-32092D01*
X322231Y15151D01*
X298608Y15151D01*
G37*
G36*
X248608Y-32092D02*
G01*
X272231Y-32092D01*
X272231Y15151D01*
X248608Y15151D01*
G37*
G36*
X404319Y155239D02*
G01*
X266520Y155239D01*
X266520Y56819D01*
X404319Y56819D01*
G37*
G36*
X458284Y451078D02*
G01*
X473052Y435785D01*
X489071Y451254D01*
X474302Y466549D01*
G37*
G36*
X449786Y442873D02*
G01*
X464556Y427580D01*
X448536Y412110D01*
X433768Y427404D01*
G37*
G36*
X-364506Y249869D02*
G01*
X-364506Y271129D01*
X-395612Y271129D01*
X-395612Y249869D01*
G37*
G36*
X-352694Y249869D02*
G01*
X-352694Y271129D01*
X-321588Y271129D01*
X-321588Y249869D01*
G37*
G36*
X528585Y378579D02*
G01*
X543352Y363285D01*
X559371Y378754D01*
X544602Y394047D01*
G37*
G36*
X520087Y370373D02*
G01*
X534854Y355079D01*
X518837Y339611D01*
X504068Y354904D01*
G37*
G36*
X493184Y414878D02*
G01*
X507952Y399585D01*
X523972Y415054D01*
X509202Y430348D01*
G37*
G36*
X484687Y406673D02*
G01*
X499456Y391380D01*
X483437Y375910D01*
X468667Y391204D01*
G37*
G36*
X284805Y466629D02*
G01*
X284805Y445369D01*
X307075Y445369D01*
X307075Y466629D01*
G37*
G36*
X272993Y466629D02*
G01*
X272993Y445369D01*
X250725Y445369D01*
X250725Y466629D01*
G37*
G36*
X-81013Y718256D02*
G01*
X-65000Y682289D01*
X-14646Y704707D01*
X-30661Y740674D01*
G37*
G36*
X61054Y781507D02*
G01*
X77069Y745541D01*
X127421Y767959D01*
X111408Y803925D01*
G37*
G36*
X14630Y709123D02*
G01*
X22637Y691140D01*
X62202Y708754D01*
X54194Y726738D01*
G37*
G36*
X134593Y655669D02*
G01*
X134593Y676929D01*
X112325Y676929D01*
X112325Y655669D01*
G37*
G36*
X146405Y655669D02*
G01*
X146405Y676929D01*
X168675Y676929D01*
X168675Y655669D01*
G37*
G36*
X166784Y805557D02*
G01*
X166784Y766187D01*
X221903Y766187D01*
X221903Y805557D01*
G37*
G36*
X322296Y805556D02*
G01*
X322296Y766186D01*
X377415Y766186D01*
X377415Y805556D01*
G37*
G36*
X250446Y758312D02*
G01*
X250446Y738627D01*
X293753Y738627D01*
X293753Y758312D01*
G37*
G36*
X-256563Y553853D02*
G01*
X-229714Y525060D01*
X-189402Y562649D01*
X-216252Y591444D01*
G37*
G36*
X-142829Y659912D02*
G01*
X-115978Y631118D01*
X-75667Y668707D01*
X-102518Y697501D01*
G37*
G36*
X-163155Y576357D02*
G01*
X-149732Y561961D01*
X-118058Y591495D01*
X-131482Y605893D01*
G37*
G36*
X619193Y163769D02*
G01*
X619193Y185029D01*
X588087Y185029D01*
X588087Y163769D01*
G37*
G36*
X631005Y163769D02*
G01*
X631005Y185029D01*
X662111Y185029D01*
X662111Y163769D01*
G37*
D33*
G01*
X548999Y213059D03*
G36*
X538370Y185693D02*
G01*
X559629Y185693D01*
X559629Y154587D01*
X538370Y154587D01*
G37*
G36*
X609394Y112569D02*
G01*
X609394Y133829D01*
X587124Y133829D01*
X587124Y112569D01*
G37*
G36*
X621206Y112569D02*
G01*
X621206Y133829D01*
X643474Y133829D01*
X643474Y112569D01*
G37*
G36*
X620006Y83329D02*
G01*
X620006Y62069D01*
X642274Y62069D01*
X642274Y83329D01*
G37*
G36*
X608194Y83329D02*
G01*
X608194Y62069D01*
X585924Y62069D01*
X585924Y83329D01*
G37*
G36*
X-23157Y551677D02*
G01*
X-23157Y538921D01*
X-11222Y538921D01*
X-11222Y551677D01*
G37*
G36*
X-30243Y551677D02*
G01*
X-30243Y538921D01*
X-42177Y538921D01*
X-42177Y551677D01*
G37*
G36*
X477794Y155769D02*
G01*
X477794Y177029D01*
X455524Y177029D01*
X455524Y155769D01*
G37*
G36*
X489606Y155769D02*
G01*
X489606Y177029D01*
X511875Y177029D01*
X511875Y155769D01*
G37*
G36*
X508041Y127552D02*
G01*
X508041Y121646D01*
X525757Y121646D01*
X525757Y127552D01*
G37*
G36*
X508041Y113772D02*
G01*
X508041Y107866D01*
X525757Y107866D01*
X525757Y113772D01*
G37*
G36*
X508041Y99992D02*
G01*
X508041Y94086D01*
X525757Y94086D01*
X525757Y99992D01*
G37*
G36*
X508041Y86212D02*
G01*
X508041Y80306D01*
X525757Y80306D01*
X525757Y86212D01*
G37*
G36*
X480482Y86212D02*
G01*
X480482Y80306D01*
X498198Y80306D01*
X498198Y86212D01*
G37*
G36*
X480482Y99992D02*
G01*
X480482Y94086D01*
X498198Y94086D01*
X498198Y99992D01*
G37*
G36*
X480482Y113772D02*
G01*
X480482Y107866D01*
X498198Y107866D01*
X498198Y113772D01*
G37*
G36*
X480482Y127552D02*
G01*
X480482Y121646D01*
X498198Y121646D01*
X498198Y127552D01*
G37*
G36*
X72794Y-79930D02*
G01*
X72794Y-58670D01*
X50524Y-58670D01*
X50524Y-79930D01*
G37*
G36*
X84606Y-79930D02*
G01*
X84606Y-58670D01*
X106875Y-58670D01*
X106875Y-79930D01*
G37*
G36*
X217394Y625569D02*
G01*
X217394Y646829D01*
X195124Y646829D01*
X195124Y625569D01*
G37*
G36*
X229206Y625569D02*
G01*
X229206Y646829D01*
X251475Y646829D01*
X251475Y625569D01*
G37*
G36*
X743094Y291269D02*
G01*
X743094Y312529D01*
X720825Y312529D01*
X720825Y291269D01*
G37*
G36*
X754906Y291269D02*
G01*
X754906Y312529D01*
X777174Y312529D01*
X777174Y291269D01*
G37*
G36*
X534564Y720919D02*
G01*
X583775Y720919D01*
X583775Y748479D01*
X534564Y748479D01*
G37*
G36*
X534564Y646120D02*
G01*
X583775Y646120D01*
X583775Y673679D01*
X534564Y673679D01*
G37*
G36*
X455824Y683520D02*
G01*
X505036Y683520D01*
X505036Y711079D01*
X455824Y711079D01*
G37*
D29*
G01*
X681300Y602439D03*
G36*
X670670Y579493D02*
G01*
X691930Y579493D01*
X691930Y557224D01*
X670670Y557224D01*
G37*
G36*
X700006Y670529D02*
G01*
X700006Y649269D01*
X722274Y649269D01*
X722274Y670529D01*
G37*
G36*
X688194Y670529D02*
G01*
X688194Y649269D01*
X665924Y649269D01*
X665924Y670529D01*
G37*
G36*
X53047Y799492D02*
G01*
X103400Y821910D01*
X87386Y857876D01*
X37034Y835458D01*
G37*
G36*
X-89020Y736239D02*
G01*
X-38666Y758657D01*
X-54678Y794623D01*
X-105032Y772205D01*
G37*
G36*
X322296Y825242D02*
G01*
X377415Y825242D01*
X377415Y864612D01*
X322296Y864612D01*
G37*
G36*
X166784Y825242D02*
G01*
X221903Y825242D01*
X221903Y864612D01*
X166784Y864612D01*
G37*
G36*
X-156253Y674307D02*
G01*
X-115942Y711899D01*
X-142793Y740692D01*
X-183104Y703102D01*
G37*
G36*
X-269988Y568249D02*
G01*
X-229678Y605838D01*
X-256527Y634633D01*
X-296838Y597043D01*
G37*
D40*
G01*
X870619Y29429D03*
D41*
G01*
X870619Y129429D03*
G01*
X870619Y229429D03*
G01*
X870619Y329429D03*
D21*
G01*
X-162759Y71409D03*
G01*
X-162759Y32039D03*
G01*
X-123389Y32039D03*
G01*
X-123389Y71409D03*
G01*
X-197799Y-277400D03*
G01*
X-225500Y-253100D03*
G01*
X120100Y61199D03*
G01*
X-135379Y331729D03*
G01*
X445699Y350199D03*
G01*
X421300Y376499D03*
G01*
X67899Y522500D03*
G01*
X61800Y353399D03*
G01*
X441809Y-128530D03*
G01*
X421279Y-106660D03*
G01*
X575000Y6799D03*
G01*
X344120Y-218570D03*
G01*
X311719Y-218670D03*
G01*
X233699Y-31600D03*
G01*
X264200Y-32000D03*
G01*
X50020Y-326570D03*
G01*
X50820Y-358070D03*
G01*
X-334799Y296799D03*
G01*
X-10479Y-50170D03*
G01*
X796019Y46129D03*
G01*
X913919Y83329D03*
G01*
X910320Y182329D03*
G01*
X905919Y280529D03*
G01*
X508699Y199299D03*
G01*
X494700Y243999D03*
G01*
X456000Y318199D03*
G01*
X490399Y318799D03*
G01*
X34600Y484799D03*
G01*
X446199Y245000D03*
G01*
X29799Y454399D03*
G01*
X379200Y-61500D03*
G01*
X817299Y308299D03*
G01*
X167100Y56399D03*
G01*
X186499Y144499D03*
G01*
X217200Y143899D03*
G01*
X98000Y-422700D03*
G01*
X96199Y98999D03*
G01*
X588000Y626399D03*
G01*
X7700Y784099D03*
G01*
X135299Y420499D03*
G01*
X452700Y476599D03*
G01*
X152899Y361199D03*
G01*
X38999Y522399D03*
G01*
X97200Y522199D03*
G01*
X127200Y522199D03*
G01*
X-98800Y488499D03*
G01*
X334700Y-468400D03*
G01*
X334300Y-498000D03*
G01*
X653270Y20449D03*
G01*
X632229Y41749D03*
G01*
X432680Y-206230D03*
G01*
X335420Y106029D03*
G01*
X60699Y156599D03*
G01*
X-171999Y377899D03*
G01*
X-382399Y394199D03*
G01*
X-365500Y164499D03*
G01*
X-71999Y-277800D03*
G01*
X-292399Y-195400D03*
G01*
X118599Y182399D03*
G01*
X113800Y133299D03*
G01*
X489200Y-71300D03*
G01*
X463999Y-38700D03*
G01*
X497500Y-20000D03*
G01*
X262700Y321199D03*
G01*
X623000Y544799D03*
G01*
X718199Y336899D03*
G01*
X326899Y395999D03*
G01*
X607500Y755399D03*
G01*
X724899Y607799D03*
G01*
X754300Y166299D03*
G01*
X265399Y-282000D03*
G01*
X12500Y-177000D03*
G01*
X868400Y447299D03*
G01*
X34700Y-422200D03*
G01*
X473699Y498499D03*
G01*
X614600Y363899D03*
G01*
X-131099Y-192000D03*
G01*
X743400Y465499D03*
G01*
X828900Y546999D03*
G01*
X663900Y711999D03*
G01*
X-101300Y571299D03*
G01*
X478599Y-438200D03*
G01*
X426000Y438999D03*
G01*
X603000Y309599D03*
G01*
X-101599Y427599D03*
G01*
X284600Y487699D03*
G01*
X467899Y222099D03*
G01*
X9300Y-147100D03*
G01*
X-68500Y378999D03*
G01*
X11099Y397299D03*
G01*
X660100Y598999D03*
G01*
X-367500Y318899D03*
G01*
X-12200Y-2400D03*
G01*
X-333800Y-104100D03*
G01*
X-334899Y492099D03*
G01*
X-389600Y-18500D03*
G01*
X-172399Y337899D03*
D42*
X711791Y48558D02*
G01*
X739629Y20720D01*
X823140Y-62801D02*
G01*
X850978Y-90639D01*
X398881Y-264341D02*
G01*
X426719Y-292179D01*
X510240Y-375701D02*
G01*
X538078Y-403539D01*
M02*
