G04 Layer: BottomSolderMaskLayer*
G04 EasyEDA v6.5.5, 2022-05-23 17:46:57*
G04 b170b76dcbfd4e769ccdd405e25ecab7,c17a8ced473b4d519dda31697e0e54b6,10*
G04 Gerber Generator version 0.2*
G04 Scale: 100 percent, Rotated: No, Reflected: No *
G04 Dimensions in inches *
G04 leading zeros omitted , absolute positions ,3 integer and 6 decimal *
%FSLAX36Y36*%
%MOIN*%

%ADD87C,0.0512*%
%ADD95C,0.0709*%
%ADD109C,0.0197*%

%LPD*%
D109*
X79997Y-191970D02*
G01*
X123303Y-191970D01*
X79997Y-166370D02*
G01*
X123303Y-166370D01*
X79997Y-140770D02*
G01*
X123303Y-140770D01*
X79997Y-115170D02*
G01*
X123303Y-115170D01*
X308335Y-191970D02*
G01*
X351643Y-191970D01*
X308335Y-166370D02*
G01*
X351643Y-166370D01*
X308335Y-140770D02*
G01*
X351643Y-140770D01*
X308335Y-115170D02*
G01*
X351643Y-115170D01*
D87*
X711791Y48558D02*
G01*
X739629Y20720D01*
X823140Y-62801D02*
G01*
X850978Y-90639D01*
X398881Y-264341D02*
G01*
X426719Y-292179D01*
X510240Y-375701D02*
G01*
X538078Y-403539D01*
G36*
X420Y280729D02*
G01*
X420Y320129D01*
X35820Y320129D01*
X35820Y280729D01*
G37*
G36*
X91719Y278829D02*
G01*
X91719Y318229D01*
X127120Y318229D01*
X127120Y278829D01*
G37*
G36*
X92520Y212429D02*
G01*
X92520Y251829D01*
X127920Y251829D01*
X127920Y212429D01*
G37*
G36*
X-1080Y212129D02*
G01*
X-1080Y251529D01*
X34319Y251529D01*
X34319Y212129D01*
G37*
G36*
X490119Y546729D02*
G01*
X478919Y557829D01*
X516520Y595429D01*
X527719Y584229D01*
G37*
G36*
X504020Y532729D02*
G01*
X492920Y543929D01*
X530420Y581529D01*
X541620Y570329D01*
G37*
G36*
X517920Y518829D02*
G01*
X506819Y530029D01*
X544420Y567529D01*
X555519Y556429D01*
G37*
G36*
X531819Y504929D02*
G01*
X520720Y516029D01*
X558320Y553629D01*
X569420Y542529D01*
G37*
G36*
X545820Y491029D02*
G01*
X534620Y502129D01*
X572219Y539729D01*
X583320Y528629D01*
G37*
G36*
X559719Y477129D02*
G01*
X548519Y488229D01*
X586120Y525829D01*
X597319Y514629D01*
G37*
G36*
X573620Y463129D02*
G01*
X562520Y474329D01*
X600020Y511929D01*
X611220Y500729D01*
G37*
G36*
X587520Y449229D02*
G01*
X576419Y460429D01*
X614020Y497929D01*
X625119Y486829D01*
G37*
G36*
X601419Y435329D02*
G01*
X590320Y446429D01*
X627920Y484029D01*
X639020Y472929D01*
G37*
G36*
X615420Y421429D02*
G01*
X604219Y432529D01*
X641819Y470129D01*
X652920Y459029D01*
G37*
G36*
X629319Y407529D02*
G01*
X618119Y418629D01*
X655720Y456229D01*
X666920Y445029D01*
G37*
G36*
X643220Y393529D02*
G01*
X632120Y404729D01*
X669620Y442329D01*
X680820Y431129D01*
G37*
G36*
X279120Y538529D02*
G01*
X279120Y593729D01*
X294920Y593729D01*
X294920Y538529D01*
G37*
G36*
X259120Y538529D02*
G01*
X259120Y593729D01*
X274920Y593729D01*
X274920Y538529D01*
G37*
G36*
X239120Y538529D02*
G01*
X239120Y593729D01*
X254920Y593729D01*
X254920Y538529D01*
G37*
G36*
X219120Y538529D02*
G01*
X219120Y593729D01*
X234920Y593729D01*
X234920Y538529D01*
G37*
G36*
X199120Y538529D02*
G01*
X199120Y593729D01*
X214920Y593729D01*
X214920Y538529D01*
G37*
G36*
X-208479Y-216970D02*
G01*
X-208479Y-190670D01*
X-183280Y-190670D01*
X-183280Y-216970D01*
G37*
G36*
X-208479Y-251070D02*
G01*
X-208479Y-224770D01*
X-183280Y-224770D01*
X-183280Y-251070D01*
G37*
G36*
X-258280Y-250070D02*
G01*
X-258280Y-223770D01*
X-233079Y-223770D01*
X-233079Y-250070D01*
G37*
G36*
X-258280Y-215970D02*
G01*
X-258280Y-189670D01*
X-233079Y-189670D01*
X-233079Y-215970D01*
G37*
G36*
X541620Y-18370D02*
G01*
X530320Y-7070D01*
X542219Y4729D01*
X553519Y-6570D01*
G37*
G36*
X528220Y-4970D02*
G01*
X516920Y6329D01*
X528720Y18229D01*
X540020Y6929D01*
G37*
G36*
X428720Y-82070D02*
G01*
X417420Y-70770D01*
X429219Y-58870D01*
X440519Y-70170D01*
G37*
G36*
X442120Y-95470D02*
G01*
X430820Y-84170D01*
X442719Y-72370D01*
X454020Y-83670D01*
G37*
G36*
X140320Y-506270D02*
G01*
X140320Y-462870D01*
X167920Y-462870D01*
X167920Y-506270D01*
G37*
G36*
X207219Y-506270D02*
G01*
X207219Y-462870D01*
X234819Y-462870D01*
X234819Y-506270D01*
G37*
G36*
X274120Y-506270D02*
G01*
X274120Y-462870D01*
X301719Y-462870D01*
X301719Y-506270D01*
G37*
G36*
X84219Y-323170D02*
G01*
X84219Y-248270D01*
X115720Y-248270D01*
X115720Y-323170D01*
G37*
G36*
X326319Y-323170D02*
G01*
X326319Y-248270D01*
X357820Y-248270D01*
X357820Y-323170D01*
G37*
G36*
X27520Y-167670D02*
G01*
X27520Y-141370D01*
X52719Y-141370D01*
X52719Y-167670D01*
G37*
G36*
X27520Y-133570D02*
G01*
X27520Y-107370D01*
X52719Y-107370D01*
X52719Y-133570D01*
G37*
G36*
X-154080Y-173270D02*
G01*
X-154080Y-102270D01*
X-108680Y-102270D01*
X-108680Y-173270D01*
G37*
G36*
X-53680Y-173270D02*
G01*
X-53680Y-102270D01*
X-8280Y-102270D01*
X-8280Y-173270D01*
G37*
G36*
X619319Y-41070D02*
G01*
X585919Y-7670D01*
X597020Y3529D01*
X630519Y-29970D01*
G37*
G36*
X611019Y-49470D02*
G01*
X577520Y-15970D01*
X588720Y-4870D01*
X622120Y-38270D01*
G37*
G36*
X597020Y-63370D02*
G01*
X563620Y-29970D01*
X574819Y-18770D01*
X608220Y-52170D01*
G37*
G36*
X583119Y-77270D02*
G01*
X549719Y-43870D01*
X560919Y-32670D01*
X594319Y-66070D01*
G37*
G36*
X569219Y-91170D02*
G01*
X535820Y-57770D01*
X547020Y-46570D01*
X580420Y-79970D01*
G37*
G36*
X555320Y-105070D02*
G01*
X521920Y-71670D01*
X533019Y-60470D01*
X566520Y-93970D01*
G37*
G36*
X541419Y-119070D02*
G01*
X507920Y-85570D01*
X519120Y-74470D01*
X552619Y-107870D01*
G37*
G36*
X527520Y-132970D02*
G01*
X494020Y-99570D01*
X505219Y-88370D01*
X538620Y-121770D01*
G37*
G36*
X513519Y-146870D02*
G01*
X480119Y-113470D01*
X491319Y-102270D01*
X524719Y-135770D01*
G37*
G36*
X499620Y-160870D02*
G01*
X466220Y-127370D01*
X477319Y-116170D01*
X510820Y-149670D01*
G37*
G36*
X485720Y-174770D02*
G01*
X452219Y-141270D01*
X463519Y-130070D01*
X496920Y-163470D01*
G37*
G36*
X477319Y-183070D02*
G01*
X443919Y-149670D01*
X455119Y-138470D01*
X488519Y-171970D01*
G37*
G36*
X633220Y-27170D02*
G01*
X599819Y6229D01*
X611019Y17429D01*
X644420Y-15970D01*
G37*
G36*
X641620Y-18870D02*
G01*
X608119Y14629D01*
X619319Y25729D01*
X652820Y-7670D01*
G37*
G36*
X463519Y-196970D02*
G01*
X430020Y-163470D01*
X441220Y-152370D01*
X474620Y-185770D01*
G37*
G36*
X455020Y-205370D02*
G01*
X421620Y-171970D01*
X432820Y-160670D01*
X466319Y-194170D01*
G37*
G36*
X327719Y-76970D02*
G01*
X327719Y-51670D01*
X354020Y-51670D01*
X354020Y-76970D01*
G37*
G36*
X293620Y-76970D02*
G01*
X293620Y-51670D01*
X319920Y-51670D01*
X319920Y-76970D01*
G37*
G36*
X-1180Y113529D02*
G01*
X-1180Y148629D01*
X24020Y148629D01*
X24020Y113529D01*
G37*
G36*
X-1180Y156429D02*
G01*
X-1180Y191529D01*
X24020Y191529D01*
X24020Y156429D01*
G37*
G36*
X399819Y461629D02*
G01*
X399819Y514829D01*
X431419Y514829D01*
X431419Y461629D01*
G37*
G36*
X325020Y461629D02*
G01*
X325020Y514829D01*
X356620Y514829D01*
X356620Y461629D01*
G37*
G36*
X362420Y540429D02*
G01*
X362420Y593629D01*
X394020Y593629D01*
X394020Y540429D01*
G37*
G36*
X156620Y414229D02*
G01*
X156620Y440529D01*
X181819Y440529D01*
X181819Y414229D01*
G37*
G36*
X156620Y380129D02*
G01*
X156620Y406429D01*
X181819Y406429D01*
X181819Y380129D01*
G37*
G36*
X206819Y374529D02*
G01*
X206819Y399729D01*
X233119Y399729D01*
X233119Y374529D01*
G37*
G36*
X240919Y374529D02*
G01*
X240919Y399729D01*
X267219Y399729D01*
X267219Y374529D01*
G37*
G36*
X554920Y299929D02*
G01*
X537319Y318029D01*
X556220Y336329D01*
X573819Y318129D01*
G37*
G36*
X579420Y323529D02*
G01*
X561819Y341729D01*
X580720Y359929D01*
X598320Y341829D01*
G37*
G36*
X-28479Y-387770D02*
G01*
X-28479Y-371070D01*
X-12479Y-371070D01*
X-12479Y-387770D01*
G37*
G36*
X-47479Y-387770D02*
G01*
X-47479Y-371070D01*
X-31580Y-371070D01*
X-31580Y-387770D01*
G37*
G36*
X658819Y303429D02*
G01*
X635320Y329529D01*
X654120Y346429D01*
X677619Y320329D01*
G37*
G36*
X687520Y271529D02*
G01*
X664020Y297629D01*
X682820Y314529D01*
X706319Y288429D01*
G37*
G36*
X187619Y-18170D02*
G01*
X187619Y16929D01*
X212820Y16929D01*
X212820Y-18170D01*
G37*
G36*
X187619Y24729D02*
G01*
X187619Y59829D01*
X212820Y59829D01*
X212820Y24729D01*
G37*
G36*
X-217079Y214129D02*
G01*
X-217079Y239329D01*
X-181980Y239329D01*
X-181980Y214129D01*
G37*
G36*
X-174179Y214129D02*
G01*
X-174179Y239329D01*
X-139080Y239329D01*
X-139080Y214129D01*
G37*
G36*
X-317079Y174129D02*
G01*
X-317079Y199329D01*
X-281980Y199329D01*
X-281980Y174129D01*
G37*
G36*
X-274179Y174129D02*
G01*
X-274179Y199329D01*
X-239080Y199329D01*
X-239080Y174129D01*
G37*
G36*
X-349380Y90329D02*
G01*
X-349380Y125429D01*
X-324179Y125429D01*
X-324179Y90329D01*
G37*
G36*
X-349380Y47429D02*
G01*
X-349380Y82529D01*
X-324179Y82529D01*
X-324179Y47429D01*
G37*
G36*
X-51279Y256329D02*
G01*
X-51279Y291429D01*
X-26080Y291429D01*
X-26080Y256329D01*
G37*
G36*
X-51279Y299229D02*
G01*
X-51279Y334329D01*
X-26080Y334329D01*
X-26080Y299229D01*
G37*
G36*
X-298180Y-121370D02*
G01*
X-298180Y-86270D01*
X-272979Y-86270D01*
X-272979Y-121370D01*
G37*
G36*
X-298180Y-164270D02*
G01*
X-298180Y-129170D01*
X-272979Y-129170D01*
X-272979Y-164270D01*
G37*
G36*
X395919Y-391370D02*
G01*
X395919Y-356270D01*
X421120Y-356270D01*
X421120Y-391370D01*
G37*
G36*
X395919Y-434270D02*
G01*
X395919Y-399170D01*
X421120Y-399170D01*
X421120Y-434270D01*
G37*
G36*
X2920Y44129D02*
G01*
X2920Y69329D01*
X38019Y69329D01*
X38019Y44129D01*
G37*
G36*
X45820Y44129D02*
G01*
X45820Y69329D01*
X80919Y69329D01*
X80919Y44129D01*
G37*
G36*
X4319Y-4170D02*
G01*
X4319Y21029D01*
X39420Y21029D01*
X39420Y-4170D01*
G37*
G36*
X47219Y-4170D02*
G01*
X47219Y21029D01*
X82319Y21029D01*
X82319Y-4170D01*
G37*
G36*
X-85579Y202029D02*
G01*
X-85579Y220529D01*
X-68779Y220529D01*
X-68779Y202029D01*
G37*
G36*
X-85579Y223629D02*
G01*
X-85579Y242129D01*
X-68779Y242129D01*
X-68779Y223629D01*
G37*
G36*
X-105079Y-377270D02*
G01*
X-105079Y-351970D01*
X-78779Y-351970D01*
X-78779Y-377270D01*
G37*
G36*
X-139179Y-377270D02*
G01*
X-139179Y-351970D01*
X-112879Y-351970D01*
X-112879Y-377270D01*
G37*
G36*
X-335879Y-55870D02*
G01*
X-335879Y-36070D01*
X-310280Y-36070D01*
X-310280Y-55870D01*
G37*
G36*
X-335879Y-20470D02*
G01*
X-335879Y-670D01*
X-310280Y-670D01*
X-310280Y-20470D01*
G37*
G36*
X-144880Y-263570D02*
G01*
X-144880Y-228070D01*
X-109380Y-228070D01*
X-109380Y-263570D01*
G37*
G36*
X-145180Y-326470D02*
G01*
X-145180Y-290970D01*
X-109679Y-290970D01*
X-109679Y-326470D01*
G37*
G36*
X298819Y302929D02*
G01*
X298819Y329229D01*
X324020Y329229D01*
X324020Y302929D01*
G37*
G36*
X298819Y268829D02*
G01*
X298819Y295129D01*
X324020Y295129D01*
X324020Y268829D01*
G37*
G36*
X384319Y265829D02*
G01*
X384319Y291029D01*
X410619Y291029D01*
X410619Y265829D01*
G37*
G36*
X350219Y265829D02*
G01*
X350219Y291029D01*
X376520Y291029D01*
X376520Y265829D01*
G37*
G36*
X749420Y218129D02*
G01*
X749420Y243429D01*
X775720Y243429D01*
X775720Y218129D01*
G37*
G36*
X783519Y218129D02*
G01*
X783519Y243429D01*
X809819Y243429D01*
X809819Y218129D01*
G37*
G36*
X-252680Y341429D02*
G01*
X-252680Y432029D01*
X-205379Y432029D01*
X-205379Y341429D01*
G37*
G36*
X-310780Y421129D02*
G01*
X-310780Y464529D01*
X-265379Y464529D01*
X-265379Y421129D01*
G37*
G36*
X-370780Y341429D02*
G01*
X-370780Y432029D01*
X-323479Y432029D01*
X-323479Y341429D01*
G37*
G36*
X-310780Y308929D02*
G01*
X-310780Y352329D01*
X-265379Y352329D01*
X-265379Y308929D01*
G37*
G36*
X-63379Y116229D02*
G01*
X-63379Y129029D01*
X-33180Y129029D01*
X-33180Y116229D01*
G37*
G36*
X-63379Y100429D02*
G01*
X-63379Y113229D01*
X-33180Y113229D01*
X-33180Y100429D01*
G37*
G36*
X-63379Y84729D02*
G01*
X-63379Y97529D01*
X-33180Y97529D01*
X-33180Y84729D01*
G37*
G36*
X-63379Y68929D02*
G01*
X-63379Y81729D01*
X-33180Y81729D01*
X-33180Y68929D01*
G37*
G36*
X-63379Y53229D02*
G01*
X-63379Y66029D01*
X-33180Y66029D01*
X-33180Y53229D01*
G37*
G36*
X-63379Y37429D02*
G01*
X-63379Y50229D01*
X-33180Y50229D01*
X-33180Y37429D01*
G37*
G36*
X-63379Y21729D02*
G01*
X-63379Y34529D01*
X-33180Y34529D01*
X-33180Y21729D01*
G37*
G36*
X-63379Y5929D02*
G01*
X-63379Y18729D01*
X-33180Y18729D01*
X-33180Y5929D01*
G37*
G36*
X-63379Y-9770D02*
G01*
X-63379Y3029D01*
X-33180Y3029D01*
X-33180Y-9770D01*
G37*
G36*
X-63379Y-25570D02*
G01*
X-63379Y-12770D01*
X-33180Y-12770D01*
X-33180Y-25570D01*
G37*
G36*
X-78580Y-58170D02*
G01*
X-78580Y-27970D01*
X-65780Y-27970D01*
X-65780Y-58170D01*
G37*
G36*
X-94380Y-58170D02*
G01*
X-94380Y-27970D01*
X-81580Y-27970D01*
X-81580Y-58170D01*
G37*
G36*
X-110079Y-58170D02*
G01*
X-110079Y-27970D01*
X-97280Y-27970D01*
X-97280Y-58170D01*
G37*
G36*
X-125879Y-58170D02*
G01*
X-125879Y-27970D01*
X-113079Y-27970D01*
X-113079Y-58170D01*
G37*
G36*
X-141580Y-58170D02*
G01*
X-141580Y-27970D01*
X-128779Y-27970D01*
X-128779Y-58170D01*
G37*
G36*
X-157380Y-58170D02*
G01*
X-157380Y-27970D01*
X-144579Y-27970D01*
X-144579Y-58170D01*
G37*
G36*
X-173079Y-58170D02*
G01*
X-173079Y-27970D01*
X-160280Y-27970D01*
X-160280Y-58170D01*
G37*
G36*
X-188879Y-58170D02*
G01*
X-188879Y-27970D01*
X-176080Y-27970D01*
X-176080Y-58170D01*
G37*
G36*
X-204579Y-58170D02*
G01*
X-204579Y-27970D01*
X-191779Y-27970D01*
X-191779Y-58170D01*
G37*
G36*
X-220379Y-58170D02*
G01*
X-220379Y-27970D01*
X-207579Y-27970D01*
X-207579Y-58170D01*
G37*
G36*
X-252979Y-25570D02*
G01*
X-252979Y-12770D01*
X-222780Y-12770D01*
X-222780Y-25570D01*
G37*
G36*
X-252979Y-9770D02*
G01*
X-252979Y3029D01*
X-222780Y3029D01*
X-222780Y-9770D01*
G37*
G36*
X-252979Y5929D02*
G01*
X-252979Y18729D01*
X-222780Y18729D01*
X-222780Y5929D01*
G37*
G36*
X-252979Y21729D02*
G01*
X-252979Y34529D01*
X-222780Y34529D01*
X-222780Y21729D01*
G37*
G36*
X-252979Y37429D02*
G01*
X-252979Y50229D01*
X-222780Y50229D01*
X-222780Y37429D01*
G37*
G36*
X-252979Y53229D02*
G01*
X-252979Y66029D01*
X-222780Y66029D01*
X-222780Y53229D01*
G37*
G36*
X-252979Y68929D02*
G01*
X-252979Y81729D01*
X-222780Y81729D01*
X-222780Y68929D01*
G37*
G36*
X-252979Y84729D02*
G01*
X-252979Y97529D01*
X-222780Y97529D01*
X-222780Y84729D01*
G37*
G36*
X-252979Y100429D02*
G01*
X-252979Y113229D01*
X-222780Y113229D01*
X-222780Y100429D01*
G37*
G36*
X-252979Y116229D02*
G01*
X-252979Y129029D01*
X-222780Y129029D01*
X-222780Y116229D01*
G37*
G36*
X-220379Y131429D02*
G01*
X-220379Y161629D01*
X-207579Y161629D01*
X-207579Y131429D01*
G37*
G36*
X-204579Y131429D02*
G01*
X-204579Y161629D01*
X-191779Y161629D01*
X-191779Y131429D01*
G37*
G36*
X-188879Y131429D02*
G01*
X-188879Y161629D01*
X-176080Y161629D01*
X-176080Y131429D01*
G37*
G36*
X-173079Y131429D02*
G01*
X-173079Y161629D01*
X-160280Y161629D01*
X-160280Y131429D01*
G37*
G36*
X-157380Y131429D02*
G01*
X-157380Y161629D01*
X-144579Y161629D01*
X-144579Y131429D01*
G37*
G36*
X-141580Y131429D02*
G01*
X-141580Y161629D01*
X-128779Y161629D01*
X-128779Y131429D01*
G37*
G36*
X-125879Y131429D02*
G01*
X-125879Y161629D01*
X-113079Y161629D01*
X-113079Y131429D01*
G37*
G36*
X-110079Y131429D02*
G01*
X-110079Y161629D01*
X-97280Y161629D01*
X-97280Y131429D01*
G37*
G36*
X-94380Y131429D02*
G01*
X-94380Y161629D01*
X-81580Y161629D01*
X-81580Y131429D01*
G37*
G36*
X-78580Y131429D02*
G01*
X-78580Y161629D01*
X-65780Y161629D01*
X-65780Y131429D01*
G37*
G36*
X-210579Y-15770D02*
G01*
X-210579Y119229D01*
X-75579Y119229D01*
X-75579Y-15770D01*
G37*
G36*
X5820Y-241570D02*
G01*
X5820Y-198170D01*
X31419Y-198170D01*
X31419Y-241570D01*
G37*
G36*
X-31580Y-241570D02*
G01*
X-31580Y-198170D01*
X-5979Y-198170D01*
X-5979Y-241570D01*
G37*
G36*
X-68980Y-241570D02*
G01*
X-68980Y-198170D01*
X-43379Y-198170D01*
X-43379Y-241570D01*
G37*
G36*
X-68980Y-351770D02*
G01*
X-68980Y-308370D01*
X-43379Y-308370D01*
X-43379Y-351770D01*
G37*
G36*
X-31580Y-351770D02*
G01*
X-31580Y-308370D01*
X-5979Y-308370D01*
X-5979Y-351770D01*
G37*
G36*
X5820Y-351770D02*
G01*
X5820Y-308370D01*
X31419Y-308370D01*
X31419Y-351770D01*
G37*
G36*
X-217079Y268029D02*
G01*
X-217079Y293329D01*
X-181980Y293329D01*
X-181980Y268029D01*
G37*
G36*
X-174179Y268029D02*
G01*
X-174179Y293329D01*
X-139080Y293329D01*
X-139080Y268029D01*
G37*
G36*
X-399579Y90629D02*
G01*
X-399579Y125729D01*
X-374380Y125729D01*
X-374380Y90629D01*
G37*
G36*
X-399579Y47729D02*
G01*
X-399579Y82829D01*
X-374380Y82829D01*
X-374380Y47729D01*
G37*
G36*
X-296480Y272229D02*
G01*
X-296480Y290729D01*
X-279679Y290729D01*
X-279679Y272229D01*
G37*
G36*
X-296480Y250729D02*
G01*
X-296480Y269229D01*
X-279679Y269229D01*
X-279679Y250729D01*
G37*
G36*
X246620Y194929D02*
G01*
X246620Y246129D01*
X274219Y246129D01*
X274219Y194929D01*
G37*
G36*
X296620Y194929D02*
G01*
X296620Y246129D01*
X324219Y246129D01*
X324219Y194929D01*
G37*
G36*
X346620Y194929D02*
G01*
X346620Y246129D01*
X374219Y246129D01*
X374219Y194929D01*
G37*
G36*
X396620Y194929D02*
G01*
X396620Y246129D01*
X424219Y246129D01*
X424219Y194929D01*
G37*
G36*
X396620Y-34070D02*
G01*
X396620Y17129D01*
X424219Y17129D01*
X424219Y-34070D01*
G37*
G36*
X346620Y-34070D02*
G01*
X346620Y17129D01*
X374219Y17129D01*
X374219Y-34070D01*
G37*
G36*
X296620Y-34070D02*
G01*
X296620Y17129D01*
X324219Y17129D01*
X324219Y-34070D01*
G37*
G36*
X246620Y-34070D02*
G01*
X246620Y17129D01*
X274219Y17129D01*
X274219Y-34070D01*
G37*
G36*
X264520Y54829D02*
G01*
X264520Y157229D01*
X406319Y157229D01*
X406319Y54829D01*
G37*
G36*
X473019Y432929D02*
G01*
X455420Y451129D01*
X474319Y469329D01*
X491920Y451229D01*
G37*
G36*
X448519Y409329D02*
G01*
X430919Y427429D01*
X449819Y445729D01*
X467420Y427529D01*
G37*
G36*
X-397579Y247829D02*
G01*
X-397579Y273129D01*
X-362479Y273129D01*
X-362479Y247829D01*
G37*
G36*
X-354679Y247829D02*
G01*
X-354679Y273129D01*
X-319579Y273129D01*
X-319579Y247829D01*
G37*
G36*
X543320Y360429D02*
G01*
X525720Y378629D01*
X544620Y396829D01*
X562219Y378729D01*
G37*
G36*
X518819Y336829D02*
G01*
X501220Y354929D01*
X520119Y373229D01*
X537719Y355029D01*
G37*
G36*
X507920Y396729D02*
G01*
X490320Y414929D01*
X509219Y433129D01*
X526819Y415029D01*
G37*
G36*
X483419Y373129D02*
G01*
X465820Y391229D01*
X484719Y409529D01*
X502319Y391329D01*
G37*
G36*
X282820Y443329D02*
G01*
X282820Y468629D01*
X309120Y468629D01*
X309120Y443329D01*
G37*
G36*
X248720Y443329D02*
G01*
X248720Y468629D01*
X275020Y468629D01*
X275020Y443329D01*
G37*
G36*
X-65979Y679629D02*
G01*
X-83680Y719229D01*
X-29679Y743329D01*
X-11980Y703729D01*
G37*
G36*
X76019Y742929D02*
G01*
X58419Y782529D01*
X112420Y806529D01*
X130020Y766929D01*
G37*
G36*
X21620Y688529D02*
G01*
X12020Y710129D01*
X55219Y729329D01*
X64819Y707729D01*
G37*
G36*
X52020Y796829D02*
G01*
X34420Y836429D01*
X88419Y860529D01*
X106019Y820929D01*
G37*
G36*
X-90079Y733629D02*
G01*
X-107680Y773229D01*
X-53680Y797229D01*
X-35979Y757629D01*
G37*
G36*
X110320Y653629D02*
G01*
X110320Y678929D01*
X136620Y678929D01*
X136620Y653629D01*
G37*
G36*
X144420Y653629D02*
G01*
X144420Y678929D01*
X170720Y678929D01*
X170720Y653629D01*
G37*
G36*
X164819Y764229D02*
G01*
X164819Y807529D01*
X223919Y807529D01*
X223919Y764229D01*
G37*
G36*
X320320Y764229D02*
G01*
X320320Y807529D01*
X379420Y807529D01*
X379420Y764229D01*
G37*
G36*
X248419Y736629D02*
G01*
X248419Y760329D01*
X295720Y760329D01*
X295720Y736629D01*
G37*
G36*
X320320Y823229D02*
G01*
X320320Y866629D01*
X379420Y866629D01*
X379420Y823229D01*
G37*
G36*
X164819Y823229D02*
G01*
X164819Y866629D01*
X223919Y866629D01*
X223919Y823229D01*
G37*
G36*
X-229780Y522229D02*
G01*
X-259380Y553929D01*
X-216180Y594229D01*
X-186580Y562529D01*
G37*
G36*
X-116080Y628329D02*
G01*
X-145680Y660029D01*
X-102380Y700329D01*
X-72879Y668629D01*
G37*
G36*
X-149880Y559129D02*
G01*
X-165979Y576429D01*
X-131379Y608729D01*
X-115280Y591429D01*
G37*
G36*
X-156379Y671529D02*
G01*
X-185979Y703229D01*
X-142680Y743529D01*
X-113079Y711829D01*
G37*
G36*
X-270079Y565429D02*
G01*
X-299679Y597129D01*
X-256379Y637429D01*
X-226880Y605729D01*
G37*
G36*
X586120Y161729D02*
G01*
X586120Y187029D01*
X621220Y187029D01*
X621220Y161729D01*
G37*
G36*
X629020Y161729D02*
G01*
X629020Y187029D01*
X664120Y187029D01*
X664120Y161729D01*
G37*
G36*
X536419Y195529D02*
G01*
X536419Y230629D01*
X561620Y230629D01*
X561620Y195529D01*
G37*
G36*
X536419Y152629D02*
G01*
X536419Y187729D01*
X561620Y187729D01*
X561620Y152629D01*
G37*
G36*
X585119Y110529D02*
G01*
X585119Y135829D01*
X611419Y135829D01*
X611419Y110529D01*
G37*
G36*
X619219Y110529D02*
G01*
X619219Y135829D01*
X645519Y135829D01*
X645519Y110529D01*
G37*
G36*
X618019Y60029D02*
G01*
X618019Y85329D01*
X644319Y85329D01*
X644319Y60029D01*
G37*
G36*
X583919Y60029D02*
G01*
X583919Y85329D01*
X610219Y85329D01*
X610219Y60029D01*
G37*
G36*
X-25180Y536929D02*
G01*
X-25180Y553629D01*
X-9179Y553629D01*
X-9179Y536929D01*
G37*
G36*
X-44179Y536929D02*
G01*
X-44179Y553629D01*
X-28280Y553629D01*
X-28280Y536929D01*
G37*
G36*
X453519Y153729D02*
G01*
X453519Y179029D01*
X479819Y179029D01*
X479819Y153729D01*
G37*
G36*
X487619Y153729D02*
G01*
X487619Y179029D01*
X513919Y179029D01*
X513919Y153729D01*
G37*
G36*
X506019Y119629D02*
G01*
X506019Y129529D01*
X527719Y129529D01*
X527719Y119629D01*
G37*
G36*
X506019Y105829D02*
G01*
X506019Y115729D01*
X527719Y115729D01*
X527719Y105829D01*
G37*
G36*
X506019Y92129D02*
G01*
X506019Y102029D01*
X527719Y102029D01*
X527719Y92129D01*
G37*
G36*
X506019Y78329D02*
G01*
X506019Y88229D01*
X527719Y88229D01*
X527719Y78329D01*
G37*
G36*
X478519Y78329D02*
G01*
X478519Y88229D01*
X500219Y88229D01*
X500219Y78329D01*
G37*
G36*
X478519Y92129D02*
G01*
X478519Y102029D01*
X500219Y102029D01*
X500219Y92129D01*
G37*
G36*
X478519Y105829D02*
G01*
X478519Y115729D01*
X500219Y115729D01*
X500219Y105829D01*
G37*
G36*
X478519Y119629D02*
G01*
X478519Y129529D01*
X500219Y129529D01*
X500219Y119629D01*
G37*
G36*
X48519Y-81970D02*
G01*
X48519Y-56670D01*
X74819Y-56670D01*
X74819Y-81970D01*
G37*
G36*
X82619Y-81970D02*
G01*
X82619Y-56670D01*
X108919Y-56670D01*
X108919Y-81970D01*
G37*
G36*
X193119Y623529D02*
G01*
X193119Y648829D01*
X219420Y648829D01*
X219420Y623529D01*
G37*
G36*
X227219Y623529D02*
G01*
X227219Y648829D01*
X253519Y648829D01*
X253519Y623529D01*
G37*
G36*
X718819Y289229D02*
G01*
X718819Y314529D01*
X745119Y314529D01*
X745119Y289229D01*
G37*
G36*
X752920Y289229D02*
G01*
X752920Y314529D01*
X779219Y314529D01*
X779219Y289229D01*
G37*
G36*
X532520Y718929D02*
G01*
X532520Y750429D01*
X585820Y750429D01*
X585820Y718929D01*
G37*
G36*
X532520Y644129D02*
G01*
X532520Y675629D01*
X585820Y675629D01*
X585820Y644129D01*
G37*
G36*
X453819Y681529D02*
G01*
X453819Y713029D01*
X507020Y713029D01*
X507020Y681529D01*
G37*
G36*
X668720Y589329D02*
G01*
X668720Y615529D01*
X693919Y615529D01*
X693919Y589329D01*
G37*
G36*
X668720Y555229D02*
G01*
X668720Y581529D01*
X693919Y581529D01*
X693919Y555229D01*
G37*
G36*
X698019Y647229D02*
G01*
X698019Y672529D01*
X724319Y672529D01*
X724319Y647229D01*
G37*
G36*
X663919Y647229D02*
G01*
X663919Y672529D01*
X690219Y672529D01*
X690219Y647229D01*
G37*
G36*
X835119Y-6070D02*
G01*
X835119Y64929D01*
X906120Y64929D01*
X906120Y-6070D01*
G37*
D95*
G01*
X870619Y129429D03*
G01*
X870619Y229429D03*
G01*
X870619Y329429D03*
M02*
