G04 Layer: TopPasteMaskLayer*
G04 EasyEDA v6.5.1, 2022-04-12 15:10:40*
G04 81e337274da949a3b7a457435bed675b,c17a8ced473b4d519dda31697e0e54b6,10*
G04 Gerber Generator version 0.2*
G04 Scale: 100 percent, Rotated: No, Reflected: No *
G04 Dimensions in millimeters *
G04 leading zeros omitted , absolute positions ,4 integer and 5 decimal *
%FSLAX45Y45*%
%MOMM*%

%ADD10C,0.0001*%

%LPD*%
G36*
X354098Y-321000D02*
G01*
X585701Y-321000D01*
X585701Y-440999D01*
X354098Y-440999D01*
G37*
G36*
X444898Y-250997D02*
G01*
X494901Y-250997D01*
X494901Y-301000D01*
X444898Y-301000D01*
G37*
G36*
X444898Y-460999D02*
G01*
X494901Y-460999D01*
X494901Y-511002D01*
X444898Y-511002D01*
G37*
G36*
X519899Y-250997D02*
G01*
X569902Y-250997D01*
X569902Y-301000D01*
X519899Y-301000D01*
G37*
G36*
X369897Y-250997D02*
G01*
X419900Y-250997D01*
X419900Y-301000D01*
X369897Y-301000D01*
G37*
G36*
X594898Y-250997D02*
G01*
X644900Y-250997D01*
X644900Y-301000D01*
X594898Y-301000D01*
G37*
G36*
X294899Y-250997D02*
G01*
X344901Y-250997D01*
X344901Y-301000D01*
X294899Y-301000D01*
G37*
G36*
X669899Y-250997D02*
G01*
X719902Y-250997D01*
X719902Y-301000D01*
X669899Y-301000D01*
G37*
G36*
X219897Y-250997D02*
G01*
X269900Y-250997D01*
X269900Y-301000D01*
X219897Y-301000D01*
G37*
G36*
X219897Y-460999D02*
G01*
X269900Y-460999D01*
X269900Y-511002D01*
X219897Y-511002D01*
G37*
G36*
X669899Y-460999D02*
G01*
X719902Y-460999D01*
X719902Y-511002D01*
X669899Y-511002D01*
G37*
G36*
X294899Y-460999D02*
G01*
X344901Y-460999D01*
X344901Y-511002D01*
X294899Y-511002D01*
G37*
G36*
X594898Y-460999D02*
G01*
X644900Y-460999D01*
X644900Y-511002D01*
X594898Y-511002D01*
G37*
G36*
X369897Y-460999D02*
G01*
X419900Y-460999D01*
X419900Y-511002D01*
X369897Y-511002D01*
G37*
G36*
X519899Y-460999D02*
G01*
X569902Y-460999D01*
X569902Y-511002D01*
X519899Y-511002D01*
G37*
G36*
X709899Y-355998D02*
G01*
X759901Y-355998D01*
X759901Y-406001D01*
X709899Y-406001D01*
G37*
G36*
X179898Y-355998D02*
G01*
X229900Y-355998D01*
X229900Y-406001D01*
X179898Y-406001D01*
G37*
M02*
