G04 Layer: TopLayer*
G04 EasyEDA v6.5.1, 2022-04-12 15:10:40*
G04 81e337274da949a3b7a457435bed675b,c17a8ced473b4d519dda31697e0e54b6,10*
G04 Gerber Generator version 0.2*
G04 Scale: 100 percent, Rotated: No, Reflected: No *
G04 Dimensions in millimeters *
G04 leading zeros omitted , absolute positions ,4 integer and 5 decimal *
%FSLAX45Y45*%
%MOMM*%

%ADD11C,0.4580*%
%ADD12C,0.2030*%
%ADD13C,0.3050*%
%ADD14C,0.2050*%
%ADD15C,0.3000*%
%ADD16C,0.4000*%
%ADD17C,0.4050*%

%LPD*%
G36*
X101092Y-594309D02*
G01*
X97180Y-593496D01*
X93878Y-591312D01*
X91694Y-588010D01*
X90932Y-584149D01*
X90932Y-189280D01*
X91694Y-185369D01*
X93878Y-182067D01*
X97180Y-179882D01*
X101092Y-179120D01*
X401370Y-179120D01*
X405282Y-179882D01*
X408584Y-182067D01*
X410768Y-185369D01*
X411530Y-189280D01*
X411530Y-194868D01*
X413207Y-203403D01*
X416306Y-211175D01*
X417017Y-215036D01*
X416204Y-218897D01*
X414020Y-222148D01*
X410718Y-224332D01*
X406857Y-225094D01*
X370484Y-225094D01*
X364134Y-225806D01*
X360730Y-226974D01*
X357378Y-227584D01*
X354025Y-226974D01*
X350672Y-225806D01*
X344322Y-225094D01*
X338734Y-225094D01*
X338734Y-258419D01*
X341528Y-260705D01*
X343357Y-263753D01*
X343966Y-267309D01*
X343966Y-284683D01*
X343357Y-288239D01*
X341528Y-291338D01*
X338734Y-293573D01*
X338734Y-337058D01*
X337972Y-340969D01*
X335178Y-344627D01*
X405638Y-344627D01*
X405638Y-337058D01*
X406400Y-333197D01*
X408635Y-329895D01*
X411937Y-327660D01*
X415798Y-326898D01*
X419303Y-326898D01*
X425653Y-326186D01*
X429056Y-325018D01*
X432409Y-324459D01*
X435762Y-325018D01*
X439166Y-326186D01*
X445465Y-326898D01*
X494334Y-326898D01*
X500634Y-326186D01*
X504037Y-325018D01*
X507390Y-324459D01*
X510743Y-325018D01*
X514146Y-326186D01*
X520496Y-326898D01*
X524001Y-326898D01*
X527862Y-327660D01*
X531164Y-329895D01*
X533400Y-333197D01*
X534162Y-337058D01*
X534162Y-344627D01*
X611632Y-344627D01*
X611632Y-337058D01*
X612394Y-333197D01*
X614578Y-329895D01*
X617880Y-327660D01*
X621792Y-326898D01*
X644347Y-326898D01*
X650646Y-326186D01*
X654050Y-325018D01*
X657402Y-324459D01*
X660755Y-325018D01*
X664159Y-326186D01*
X670458Y-326898D01*
X676605Y-326898D01*
X676046Y-324358D01*
X676046Y-293573D01*
X673252Y-291338D01*
X671423Y-288239D01*
X670814Y-284683D01*
X670814Y-267309D01*
X671423Y-263753D01*
X673252Y-260705D01*
X676046Y-258419D01*
X676046Y-225094D01*
X670458Y-225094D01*
X667359Y-225450D01*
X663143Y-225044D01*
X659485Y-222910D01*
X656945Y-219506D01*
X656082Y-215341D01*
X656082Y-201218D01*
X655523Y-193243D01*
X655624Y-188925D01*
X656539Y-185166D01*
X658723Y-181965D01*
X661974Y-179832D01*
X665784Y-179120D01*
X828954Y-179120D01*
X832815Y-179882D01*
X836117Y-182067D01*
X838301Y-185369D01*
X839114Y-189280D01*
X839114Y-222859D01*
X838453Y-226466D01*
X836574Y-229565D01*
X833729Y-231851D01*
X830224Y-232968D01*
X826617Y-232765D01*
X819556Y-231089D01*
X810564Y-230682D01*
X801624Y-231952D01*
X793089Y-234797D01*
X785266Y-239166D01*
X777951Y-245211D01*
X763168Y-260045D01*
X759866Y-262229D01*
X755954Y-262991D01*
X752094Y-262229D01*
X748792Y-260045D01*
X746607Y-256743D01*
X745083Y-245262D01*
X743204Y-239775D01*
X740105Y-234899D01*
X735990Y-230784D01*
X731113Y-227736D01*
X725627Y-225806D01*
X719328Y-225094D01*
X713740Y-225094D01*
X713740Y-257149D01*
X741476Y-257149D01*
X745388Y-257911D01*
X748690Y-260146D01*
X750874Y-263398D01*
X751636Y-267309D01*
X750874Y-271221D01*
X748690Y-274472D01*
X731316Y-291896D01*
X728014Y-294081D01*
X724103Y-294843D01*
X713740Y-294843D01*
X713740Y-305206D01*
X712978Y-309067D01*
X710793Y-312369D01*
X699008Y-324256D01*
X694334Y-330454D01*
X691134Y-333197D01*
X688898Y-333908D01*
X689356Y-338023D01*
X688086Y-342036D01*
X686714Y-344525D01*
X684682Y-350266D01*
X683971Y-356565D01*
X683971Y-405434D01*
X684682Y-411734D01*
X686612Y-417220D01*
X688086Y-419506D01*
X689508Y-423570D01*
X689203Y-427837D01*
X687120Y-431596D01*
X683666Y-434187D01*
X679450Y-435101D01*
X670458Y-435101D01*
X664159Y-435813D01*
X660755Y-436981D01*
X657402Y-437540D01*
X654050Y-436981D01*
X650646Y-435813D01*
X644347Y-435101D01*
X638759Y-435101D01*
X638759Y-468426D01*
X641553Y-470662D01*
X643382Y-473760D01*
X643991Y-477316D01*
X643991Y-494690D01*
X643382Y-498246D01*
X641553Y-501294D01*
X638759Y-503580D01*
X638759Y-536905D01*
X644347Y-536905D01*
X650646Y-536194D01*
X654050Y-535025D01*
X657402Y-534416D01*
X660755Y-535025D01*
X664159Y-536194D01*
X670458Y-536905D01*
X719328Y-536905D01*
X725627Y-536194D01*
X731113Y-534263D01*
X735990Y-531215D01*
X740105Y-527100D01*
X743204Y-522224D01*
X744423Y-519734D01*
X746302Y-517753D01*
X749960Y-514756D01*
X762406Y-502310D01*
X765911Y-499973D01*
X769874Y-498500D01*
X777087Y-493979D01*
X783386Y-488289D01*
X788517Y-481482D01*
X792276Y-473862D01*
X794613Y-465683D01*
X795426Y-457200D01*
X794613Y-448716D01*
X792276Y-440537D01*
X788517Y-432917D01*
X784402Y-427482D01*
X782828Y-424535D01*
X782320Y-421284D01*
X782929Y-417982D01*
X785114Y-411734D01*
X785825Y-405434D01*
X785825Y-379628D01*
X786587Y-375716D01*
X788771Y-372465D01*
X821740Y-339496D01*
X825042Y-337261D01*
X828954Y-336499D01*
X832815Y-337261D01*
X836117Y-339496D01*
X838301Y-342747D01*
X839114Y-346659D01*
X839114Y-584149D01*
X838301Y-588010D01*
X836117Y-591312D01*
X832815Y-593496D01*
X828954Y-594309D01*
X504088Y-594309D01*
X500176Y-593496D01*
X496925Y-591312D01*
X494690Y-588010D01*
X493928Y-584149D01*
X494690Y-580237D01*
X496925Y-576935D01*
X498449Y-575360D01*
X503885Y-568807D01*
X507644Y-561746D01*
X509981Y-554075D01*
X510743Y-546049D01*
X511809Y-542493D01*
X514045Y-539546D01*
X517194Y-537565D01*
X520852Y-536905D01*
X569315Y-536905D01*
X575665Y-536194D01*
X579069Y-535025D01*
X582422Y-534416D01*
X585774Y-535025D01*
X589127Y-536194D01*
X595477Y-536905D01*
X601065Y-536905D01*
X601065Y-503580D01*
X598271Y-501294D01*
X596442Y-498246D01*
X595833Y-494690D01*
X595833Y-477316D01*
X596442Y-473760D01*
X598271Y-470662D01*
X601065Y-468426D01*
X601065Y-424942D01*
X601827Y-421030D01*
X604621Y-417372D01*
X534162Y-417372D01*
X534162Y-424942D01*
X533400Y-428802D01*
X531164Y-432104D01*
X527862Y-434340D01*
X524001Y-435101D01*
X520496Y-435101D01*
X514146Y-435813D01*
X510743Y-436981D01*
X507390Y-437540D01*
X504037Y-436981D01*
X500634Y-435813D01*
X494334Y-435101D01*
X445465Y-435101D01*
X439166Y-435813D01*
X435762Y-436981D01*
X432409Y-437540D01*
X429056Y-436981D01*
X425653Y-435813D01*
X419303Y-435101D01*
X415798Y-435101D01*
X411937Y-434340D01*
X408635Y-432104D01*
X406400Y-428802D01*
X405638Y-424942D01*
X405638Y-417372D01*
X335330Y-417372D01*
X337870Y-420776D01*
X338734Y-424942D01*
X338734Y-468426D01*
X341528Y-470662D01*
X343357Y-473760D01*
X343966Y-477316D01*
X343966Y-494690D01*
X343357Y-498246D01*
X341528Y-501294D01*
X338734Y-503580D01*
X338734Y-533146D01*
X337972Y-537006D01*
X335788Y-540308D01*
X332486Y-542544D01*
X328574Y-543306D01*
X311200Y-543306D01*
X307340Y-542544D01*
X304038Y-540308D01*
X301802Y-537006D01*
X301040Y-533146D01*
X301040Y-504850D01*
X263753Y-504850D01*
X263753Y-533146D01*
X262991Y-537006D01*
X260756Y-540308D01*
X257454Y-542544D01*
X253593Y-543306D01*
X236220Y-543306D01*
X232308Y-542544D01*
X229006Y-540308D01*
X226821Y-537006D01*
X226060Y-533146D01*
X226060Y-502412D01*
X223672Y-499414D01*
X222554Y-495706D01*
X223926Y-482600D01*
X223520Y-478231D01*
X223977Y-474116D01*
X226060Y-470560D01*
X226060Y-441350D01*
X226720Y-437692D01*
X228650Y-434543D01*
X231597Y-432257D01*
X235712Y-431190D01*
X241096Y-429259D01*
X249682Y-423621D01*
X250291Y-423468D01*
X251714Y-419506D01*
X253187Y-417220D01*
X255117Y-411734D01*
X255828Y-405434D01*
X255828Y-356565D01*
X255117Y-350266D01*
X253187Y-344779D01*
X251714Y-342493D01*
X250291Y-338531D01*
X241096Y-332740D01*
X231546Y-329692D01*
X228650Y-327406D01*
X226720Y-324256D01*
X226060Y-320649D01*
X226060Y-294843D01*
X194005Y-294843D01*
X194005Y-300431D01*
X194716Y-306730D01*
X196596Y-312216D01*
X198069Y-314502D01*
X199542Y-318566D01*
X199186Y-322834D01*
X197104Y-326593D01*
X193649Y-329184D01*
X189484Y-330098D01*
X180492Y-330098D01*
X174142Y-330809D01*
X168706Y-332740D01*
X163779Y-335788D01*
X159715Y-339902D01*
X156616Y-344779D01*
X154686Y-350266D01*
X153974Y-356565D01*
X153974Y-369519D01*
X153212Y-373380D01*
X151028Y-376682D01*
X149047Y-378663D01*
X143611Y-385267D01*
X139801Y-392379D01*
X137464Y-400100D01*
X136652Y-408584D01*
X136652Y-459841D01*
X135585Y-464362D01*
X134823Y-465937D01*
X132486Y-474116D01*
X131673Y-482600D01*
X132486Y-491083D01*
X134823Y-499262D01*
X136601Y-503529D01*
X136906Y-505866D01*
X136906Y-584149D01*
X136144Y-588010D01*
X133908Y-591312D01*
X130606Y-593496D01*
X126746Y-594309D01*
G37*

%LPC*%
G36*
X263753Y-467156D02*
G01*
X301040Y-467156D01*
X301040Y-435101D01*
X295452Y-435101D01*
X289153Y-435813D01*
X285750Y-436981D01*
X282397Y-437540D01*
X279044Y-436981D01*
X275640Y-435813D01*
X269341Y-435101D01*
X263753Y-435101D01*
G37*
G36*
X263753Y-326898D02*
G01*
X269341Y-326898D01*
X275640Y-326186D01*
X279044Y-325018D01*
X282397Y-324459D01*
X285750Y-325018D01*
X289153Y-326186D01*
X295452Y-326898D01*
X301040Y-326898D01*
X301040Y-294843D01*
X263753Y-294843D01*
G37*
G36*
X194005Y-257149D02*
G01*
X226060Y-257149D01*
X226060Y-225094D01*
X220471Y-225094D01*
X214172Y-225806D01*
X208686Y-227736D01*
X203809Y-230784D01*
X199694Y-234899D01*
X196596Y-239775D01*
X194716Y-245262D01*
X194005Y-251561D01*
G37*
G36*
X263753Y-257149D02*
G01*
X301040Y-257149D01*
X301040Y-225094D01*
X295452Y-225094D01*
X289153Y-225806D01*
X285750Y-226974D01*
X282397Y-227584D01*
X279044Y-226974D01*
X275640Y-225806D01*
X269341Y-225094D01*
X263753Y-225094D01*
G37*

%LPD*%
D11*
X734898Y-381000D02*
G01*
X734898Y-357301D01*
X812800Y-279400D01*
D12*
X469900Y-275996D02*
G01*
X469900Y-203200D01*
X457200Y-190500D01*
D13*
X694893Y-486003D02*
G01*
X720496Y-486003D01*
X749300Y-457200D01*
X812800Y-203200D02*
G01*
X767689Y-203200D01*
X694893Y-275996D01*
D12*
X544906Y-275996D02*
G01*
X544906Y-202006D01*
X533400Y-190500D01*
D11*
X307212Y-263296D02*
G01*
X257606Y-263296D01*
X244906Y-275996D01*
D14*
X394893Y-486003D02*
G01*
X406400Y-497509D01*
X406400Y-533400D01*
X393700Y-533400D01*
D15*
X177800Y-482600D02*
G01*
X177800Y-584200D01*
X431800Y-584200D01*
X469900Y-546100D01*
X469900Y-486003D01*
D14*
X619912Y-275996D02*
G01*
X619912Y-200812D01*
X609600Y-190500D01*
D13*
X177800Y-482600D02*
G01*
X177800Y-408101D01*
X204901Y-381000D01*
G36*
X354098Y-321000D02*
G01*
X585701Y-321000D01*
X585701Y-440999D01*
X354098Y-440999D01*
G37*
G36*
X444898Y-250997D02*
G01*
X494901Y-250997D01*
X494901Y-301000D01*
X444898Y-301000D01*
G37*
G36*
X444898Y-460999D02*
G01*
X494901Y-460999D01*
X494901Y-511002D01*
X444898Y-511002D01*
G37*
G36*
X519899Y-250997D02*
G01*
X569902Y-250997D01*
X569902Y-301000D01*
X519899Y-301000D01*
G37*
G36*
X369897Y-250997D02*
G01*
X419900Y-250997D01*
X419900Y-301000D01*
X369897Y-301000D01*
G37*
G36*
X594898Y-250997D02*
G01*
X644900Y-250997D01*
X644900Y-301000D01*
X594898Y-301000D01*
G37*
G36*
X294899Y-250997D02*
G01*
X344901Y-250997D01*
X344901Y-301000D01*
X294899Y-301000D01*
G37*
G36*
X669899Y-250997D02*
G01*
X719902Y-250997D01*
X719902Y-301000D01*
X669899Y-301000D01*
G37*
G36*
X219897Y-250997D02*
G01*
X269900Y-250997D01*
X269900Y-301000D01*
X219897Y-301000D01*
G37*
G36*
X219897Y-460999D02*
G01*
X269900Y-460999D01*
X269900Y-511002D01*
X219897Y-511002D01*
G37*
G36*
X669899Y-460999D02*
G01*
X719902Y-460999D01*
X719902Y-511002D01*
X669899Y-511002D01*
G37*
G36*
X294899Y-460999D02*
G01*
X344901Y-460999D01*
X344901Y-511002D01*
X294899Y-511002D01*
G37*
G36*
X594898Y-460999D02*
G01*
X644900Y-460999D01*
X644900Y-511002D01*
X594898Y-511002D01*
G37*
G36*
X369897Y-460999D02*
G01*
X419900Y-460999D01*
X419900Y-511002D01*
X369897Y-511002D01*
G37*
G36*
X519899Y-460999D02*
G01*
X569902Y-460999D01*
X569902Y-511002D01*
X519899Y-511002D01*
G37*
G36*
X709899Y-355998D02*
G01*
X759901Y-355998D01*
X759901Y-406001D01*
X709899Y-406001D01*
G37*
G36*
X179898Y-355998D02*
G01*
X229900Y-355998D01*
X229900Y-406001D01*
X179898Y-406001D01*
G37*
D16*
G01*
X457200Y-190500D03*
D17*
G01*
X533400Y-190500D03*
G01*
X546100Y-368300D03*
G01*
X177800Y-482600D03*
G01*
X812800Y-279400D03*
G01*
X419100Y-368300D03*
G01*
X482600Y-368300D03*
G01*
X749300Y-457200D03*
G01*
X812800Y-203200D03*
G01*
X609600Y-190500D03*
G01*
X393700Y-533400D03*
M02*
