M48
INCH,LZ
;FILE_FORMAT=2:4
;TYPE=PLATED
;Layer: PTH_Through_Via
;EasyEDA v6.5.22, 2023-01-25 14:37:09
;a2e63df7a23446a2ae1eb019cd18a306,9a4ed40c0dd746429eaf55b84663d2fb,10
;Gerber Generator version 0.2
;Holesize 1 = 0.0120 inch
T01C0.0120
%
G05
G90
T01
X-001134Y005578
X002605Y-000932
X002400Y-000714
X003950Y000405
X001634Y-001805
X001296Y-001824
X-001313Y-002913
X-001305Y-003228
X006448Y000786
X007326Y001186
X007290Y002176
X007246Y003158
X003274Y002346
X003134Y002793
X-001480Y004600
X-000833Y-003874
X-001331Y001298
X004117Y006617
X-000284Y003965
X-001423Y005577
X-000841Y005575
X-000541Y005575
X001534Y-004331
X001860Y-004271
X002482Y-001674
X-002533Y-002425
X003079Y-000360
X002827Y-000034
X003161Y000138
X000778Y003464
X004262Y007907
X006426Y004836
X-001441Y-003834
X005510Y004989
X002881Y002559
X-003993Y004282
X-003993Y004602
X-003993Y004922
X-004741Y004237
X-004741Y004557
X-004741Y004877
X-004741Y005197
X-004741Y005517
X-004656Y005850
X-004433Y006101
X-003934Y005657
X-004323Y006403
X-004103Y006690
X-003270Y005204
X-003050Y004999
X-002843Y004785
X-002738Y004515
X-002743Y004235
X002197Y-001790
X-004860Y002074
X-005307Y002074
X-001343Y-000434
X000760Y-001436
X-003641Y-001283
X-003791Y-001592
X-003378Y-001013
X-003046Y-001198
X-003053Y-000874
X-002734Y-001044
X-000837Y-000447
X004861Y001864
X004707Y001575
X000362Y001160
X000180Y001964
X000491Y001964
X000794Y001960
X000194Y001664
X000502Y001662
X000808Y001670
X006096Y003939
X000917Y004681
X001287Y004686
X001292Y004371
X000919Y004377
X004642Y005223
X004636Y004620
X004641Y004922
X-001003Y002022
X-000229Y004277
X002421Y002548
X002951Y004164
X-000773Y001087
X002710Y003554
X003094Y003552
X000185Y-000093
X002653Y001855
X-000068Y-000319
X002330Y001921
X-000603Y005056
X-000281Y005056
X000043Y005057
X004562Y000765
X000793Y004957
X002634Y004936
X002798Y005308
X006095Y000672
X-002238Y000566
X000009Y005650
X-000049Y000860
X001950Y001165
X001636Y001179
X001293Y001179
X-003404Y000429
X-000306Y001675
X006596Y002951
X006498Y003258
X004470Y006166
X003982Y004808
X007585Y001875
X005533Y007060
X-005226Y000031
M30
