G04 Layer: TopSilkscreenLayer*
G04 EasyEDA v6.5.22, 2023-01-25 14:37:09*
G04 a2e63df7a23446a2ae1eb019cd18a306,9a4ed40c0dd746429eaf55b84663d2fb,10*
G04 Gerber Generator version 0.2*
G04 Scale: 100 percent, Rotated: No, Reflected: No *
G04 Dimensions in inches *
G04 leading zeros omitted , absolute positions ,3 integer and 6 decimal *
%FSLAX36Y36*%
%MOIN*%

%ADD10C,0.0025*%
%ADD11C,0.0035*%
%ADD12C,0.0039*%
%ADD13C,0.0050*%
%ADD14C,0.0030*%
%ADD15C,0.0060*%
%ADD16C,0.0079*%
%ADD17C,0.0039*%
%ADD18C,0.0100*%
%ADD19C,0.0059*%
%ADD20C,0.0079*%
%ADD21C,0.0098*%
%ADD22C,0.0098*%
%ADD23C,0.0106*%

%LPD*%
D10*
X-584380Y136729D02*
G01*
X-584380Y127130D01*
X-578079Y136729D02*
G01*
X-578079Y127130D01*
X-584380Y132130D02*
G01*
X-578079Y132130D01*
X-569580Y133530D02*
G01*
X-569580Y127130D01*
X-569580Y132130D02*
G01*
X-570479Y133029D01*
X-571379Y133530D01*
X-572780Y133530D01*
X-573680Y133029D01*
X-574580Y132130D01*
X-575079Y130830D01*
X-575079Y129830D01*
X-574580Y128530D01*
X-573680Y127629D01*
X-572780Y127130D01*
X-571379Y127130D01*
X-570479Y127629D01*
X-569580Y128530D01*
X-566580Y133530D02*
G01*
X-566580Y123930D01*
X-566580Y132130D02*
G01*
X-565680Y133029D01*
X-564780Y133530D01*
X-563379Y133530D01*
X-562480Y133029D01*
X-561580Y132130D01*
X-561080Y130830D01*
X-561080Y129830D01*
X-561580Y128530D01*
X-562480Y127629D01*
X-563379Y127130D01*
X-564780Y127130D01*
X-565680Y127629D01*
X-566580Y128530D01*
X-556779Y136729D02*
G01*
X-556779Y128930D01*
X-556279Y127629D01*
X-555380Y127130D01*
X-554480Y127130D01*
X-558079Y133530D02*
G01*
X-554980Y133530D01*
X-551480Y136729D02*
G01*
X-551080Y136230D01*
X-550579Y136729D01*
X-551080Y137130D01*
X-551480Y136729D01*
X-551080Y133530D02*
G01*
X-551080Y127130D01*
X-542080Y132130D02*
G01*
X-543079Y133029D01*
X-543980Y133530D01*
X-545280Y133530D01*
X-546180Y133029D01*
X-547080Y132130D01*
X-547579Y130830D01*
X-547579Y129830D01*
X-547080Y128530D01*
X-546180Y127629D01*
X-545280Y127130D01*
X-543980Y127130D01*
X-543079Y127629D01*
X-542080Y128530D01*
X-528079Y135329D02*
G01*
X-528079Y127130D01*
X-532080Y131230D02*
G01*
X-523980Y131230D01*
X-569080Y66829D02*
G01*
X-569080Y57229D01*
X-562780Y66829D02*
G01*
X-562780Y57229D01*
X-569080Y62229D02*
G01*
X-562780Y62229D01*
X-554279Y63629D02*
G01*
X-554279Y57229D01*
X-554279Y62229D02*
G01*
X-555180Y63130D01*
X-556080Y63629D01*
X-557480Y63629D01*
X-558379Y63130D01*
X-559279Y62229D01*
X-559780Y60929D01*
X-559780Y59929D01*
X-559279Y58629D01*
X-558379Y57730D01*
X-557480Y57229D01*
X-556080Y57229D01*
X-555180Y57730D01*
X-554279Y58629D01*
X-551279Y63629D02*
G01*
X-551279Y54029D01*
X-551279Y62229D02*
G01*
X-550380Y63130D01*
X-549480Y63629D01*
X-548079Y63629D01*
X-547179Y63130D01*
X-546279Y62229D01*
X-545780Y60929D01*
X-545780Y59929D01*
X-546279Y58629D01*
X-547179Y57730D01*
X-548079Y57229D01*
X-549480Y57229D01*
X-550380Y57730D01*
X-551279Y58629D01*
X-541480Y66829D02*
G01*
X-541480Y59029D01*
X-540979Y57730D01*
X-540079Y57229D01*
X-539179Y57229D01*
X-542780Y63629D02*
G01*
X-539679Y63629D01*
X-536180Y66829D02*
G01*
X-535780Y66329D01*
X-535280Y66829D01*
X-535780Y67229D01*
X-536180Y66829D01*
X-535780Y63629D02*
G01*
X-535780Y57229D01*
X-526779Y62229D02*
G01*
X-527780Y63130D01*
X-528680Y63629D01*
X-529980Y63629D01*
X-530879Y63130D01*
X-531779Y62229D01*
X-532280Y60929D01*
X-532280Y59929D01*
X-531779Y58629D01*
X-530879Y57730D01*
X-529980Y57229D01*
X-528680Y57229D01*
X-527780Y57730D01*
X-526779Y58629D01*
X-516779Y61329D02*
G01*
X-508680Y61329D01*
X-520479Y-58270D02*
G01*
X-524080Y-67869D01*
X-520479Y-58270D02*
G01*
X-516779Y-67869D01*
X-522780Y-64670D02*
G01*
X-518180Y-64670D01*
X-513779Y-58270D02*
G01*
X-513779Y-65169D01*
X-513379Y-66469D01*
X-512480Y-67370D01*
X-511080Y-67869D01*
X-510180Y-67869D01*
X-508779Y-67370D01*
X-507880Y-66469D01*
X-507480Y-65169D01*
X-507480Y-58270D01*
X-504480Y-58270D02*
G01*
X-504480Y-67869D01*
X-504480Y-58270D02*
G01*
X-501279Y-58270D01*
X-499880Y-58769D01*
X-498980Y-59670D01*
X-498580Y-60570D01*
X-498079Y-61970D01*
X-498079Y-64169D01*
X-498580Y-65570D01*
X-498980Y-66469D01*
X-499880Y-67370D01*
X-501279Y-67869D01*
X-504480Y-67869D01*
X-495079Y-58270D02*
G01*
X-495079Y-67869D01*
X-489380Y-58270D02*
G01*
X-490280Y-58769D01*
X-491180Y-59670D01*
X-491679Y-60570D01*
X-492080Y-61970D01*
X-492080Y-64169D01*
X-491679Y-65570D01*
X-491180Y-66469D01*
X-490280Y-67370D01*
X-489380Y-67869D01*
X-487579Y-67869D01*
X-486679Y-67370D01*
X-485780Y-66469D01*
X-485280Y-65570D01*
X-484780Y-64169D01*
X-484780Y-61970D01*
X-485280Y-60570D01*
X-485780Y-59670D01*
X-486679Y-58769D01*
X-487579Y-58270D01*
X-489380Y-58270D01*
X-470780Y-59670D02*
G01*
X-470780Y-67869D01*
X-474780Y-63769D02*
G01*
X-466679Y-63769D01*
X-491580Y-115770D02*
G01*
X-495180Y-125369D01*
X-491580Y-115770D02*
G01*
X-487880Y-125369D01*
X-493879Y-122170D02*
G01*
X-489279Y-122170D01*
X-484880Y-115770D02*
G01*
X-484880Y-122669D01*
X-484480Y-123969D01*
X-483580Y-124870D01*
X-482179Y-125369D01*
X-481279Y-125369D01*
X-479880Y-124870D01*
X-478980Y-123969D01*
X-478580Y-122669D01*
X-478580Y-115770D01*
X-475579Y-115770D02*
G01*
X-475579Y-125369D01*
X-475579Y-115770D02*
G01*
X-472380Y-115770D01*
X-470979Y-116269D01*
X-470079Y-117170D01*
X-469679Y-118070D01*
X-469179Y-119470D01*
X-469179Y-121669D01*
X-469679Y-123070D01*
X-470079Y-123969D01*
X-470979Y-124870D01*
X-472380Y-125369D01*
X-475579Y-125369D01*
X-466180Y-115770D02*
G01*
X-466180Y-125369D01*
X-460479Y-115770D02*
G01*
X-461379Y-116269D01*
X-462280Y-117170D01*
X-462780Y-118070D01*
X-463180Y-119470D01*
X-463180Y-121669D01*
X-462780Y-123070D01*
X-462280Y-123969D01*
X-461379Y-124870D01*
X-460479Y-125369D01*
X-458680Y-125369D01*
X-457780Y-124870D01*
X-456880Y-123969D01*
X-456379Y-123070D01*
X-455879Y-121669D01*
X-455879Y-119470D01*
X-456379Y-118070D01*
X-456880Y-117170D01*
X-457780Y-116269D01*
X-458680Y-115770D01*
X-460479Y-115770D01*
X-445879Y-121269D02*
G01*
X-437780Y-121269D01*
D11*
X-494930Y554519D02*
G01*
X-497475Y554519D01*
X-500092Y553317D01*
X-502709Y550700D01*
X-503910Y548085D01*
X-503910Y545538D01*
X-502637Y544265D01*
X-500729Y543629D01*
X-499456Y543629D01*
X-497547Y544265D01*
X-492385Y546882D01*
X-490405Y547447D01*
X-489131Y547447D01*
X-487223Y546811D01*
X-485313Y544902D01*
X-485313Y542357D01*
X-486586Y539810D01*
X-489202Y537195D01*
X-491747Y535922D01*
X-494293Y535922D01*
X-490758Y562651D02*
G01*
X-479798Y551691D01*
X-477253Y550417D01*
X-475272Y551125D01*
X-474000Y552397D01*
X-488141Y556215D02*
G01*
X-483617Y560742D01*
X-471030Y573328D02*
G01*
X-462049Y564348D01*
X-469121Y571419D02*
G01*
X-471666Y571419D01*
X-473576Y570783D01*
X-475555Y568802D01*
X-476192Y566893D01*
X-476192Y564348D01*
X-474849Y561732D01*
X-473576Y560459D01*
X-471030Y559185D01*
X-468485Y559185D01*
X-466575Y559823D01*
X-464596Y561801D01*
X-463959Y563712D01*
X-463959Y566257D01*
X-466787Y577570D02*
G01*
X-457807Y568591D01*
X-462898Y573681D02*
G01*
X-464242Y576298D01*
X-464242Y578843D01*
X-463605Y580752D01*
X-461625Y582732D01*
X-461909Y591500D02*
G01*
X-448402Y577995D01*
X-457665Y595743D02*
G01*
X-456322Y595673D01*
X-456392Y597015D01*
X-457665Y597015D01*
X-457665Y595743D01*
X-452503Y591855D02*
G01*
X-443523Y582874D01*
X-447624Y596734D02*
G01*
X-438644Y587752D01*
X-445079Y594187D02*
G01*
X-445079Y598006D01*
X-444443Y599915D01*
X-442462Y601894D01*
X-440554Y602532D01*
X-438007Y601259D01*
X-431574Y594823D01*
X-428604Y615754D02*
G01*
X-418280Y605430D01*
X-417007Y602885D01*
X-417007Y601612D01*
X-417644Y599702D01*
X-419624Y597723D01*
X-421532Y597087D01*
X-426694Y613845D02*
G01*
X-429239Y613845D01*
X-431149Y613209D01*
X-433128Y611228D01*
X-433766Y609319D01*
X-433766Y606774D01*
X-432421Y604157D01*
X-431149Y602885D01*
X-428604Y601612D01*
X-426058Y601612D01*
X-424148Y602249D01*
X-422169Y604229D01*
X-421532Y606138D01*
X-421532Y608683D01*
X-418986Y634421D02*
G01*
X-402299Y624099D01*
X-412552Y640857D02*
G01*
X-402299Y624099D01*
X-412552Y640857D02*
G01*
X-395865Y630533D01*
X-406117Y647291D02*
G01*
X-395865Y630533D01*
X-389642Y654715D02*
G01*
X-380662Y645736D01*
X-387732Y652806D02*
G01*
X-390279Y652806D01*
X-392259Y652100D01*
X-394167Y650190D01*
X-394804Y648281D01*
X-394804Y645736D01*
X-393460Y643119D01*
X-392188Y641846D01*
X-389642Y640574D01*
X-387097Y640574D01*
X-385187Y641210D01*
X-383278Y643119D01*
X-382570Y645099D01*
X-382570Y647644D01*
X-388015Y665394D02*
G01*
X-377056Y654432D01*
X-374510Y653161D01*
X-372601Y653796D01*
X-371257Y655140D01*
X-385399Y658958D02*
G01*
X-380945Y663413D01*
X-366378Y674162D02*
G01*
X-368995Y674090D01*
X-370904Y673454D01*
X-372813Y671545D01*
X-373450Y669636D01*
X-373450Y667091D01*
X-372106Y664474D01*
X-370833Y663202D01*
X-368288Y661929D01*
X-365742Y661929D01*
X-363833Y662564D01*
X-361923Y664474D01*
X-361287Y666383D01*
X-361216Y669000D01*
X-368569Y684839D02*
G01*
X-355065Y671332D01*
X-361499Y677768D02*
G01*
X-361499Y681585D01*
X-360862Y683496D01*
X-358954Y685405D01*
X-356974Y686111D01*
X-354427Y684839D01*
X-347993Y678404D01*
X-343468Y703436D02*
G01*
X-344104Y704072D01*
X-344741Y705981D01*
X-344741Y707253D01*
X-344175Y709234D01*
X-341630Y711779D01*
X-339579Y712415D01*
X-338306Y712415D01*
X-336396Y711779D01*
X-335124Y710506D01*
X-334488Y708598D01*
X-333851Y705416D01*
X-333851Y692546D01*
X-324871Y701527D01*
X-330316Y723094D02*
G01*
X-331518Y720477D01*
X-330882Y717294D01*
X-328335Y713476D01*
X-326356Y711496D01*
X-322538Y708951D01*
X-319355Y708314D01*
X-316810Y709587D01*
X-315466Y710931D01*
X-314193Y713476D01*
X-314830Y716658D01*
X-317376Y720477D01*
X-319355Y722456D01*
X-323173Y725003D01*
X-326356Y725639D01*
X-328973Y724436D01*
X-330316Y723094D01*
X-317021Y729881D02*
G01*
X-317659Y730518D01*
X-318294Y732426D01*
X-318294Y733699D01*
X-317659Y735751D01*
X-315113Y738296D01*
X-313132Y738861D01*
X-311860Y738861D01*
X-309951Y738225D01*
X-308679Y736952D01*
X-308042Y735043D01*
X-307406Y731862D01*
X-307406Y718991D01*
X-298424Y727973D01*
X-303729Y743175D02*
G01*
X-304364Y743811D01*
X-305002Y745720D01*
X-305002Y746993D01*
X-304436Y748973D01*
X-301890Y751518D01*
X-299909Y752085D01*
X-298567Y752156D01*
X-296657Y751518D01*
X-295384Y750246D01*
X-294749Y748337D01*
X-294183Y745084D01*
X-294183Y732215D01*
X-285132Y741266D01*
X-462336Y537573D02*
G01*
X-448829Y524067D01*
X-466791Y533119D02*
G01*
X-457809Y542098D01*
X-453568Y546341D02*
G01*
X-440061Y532835D01*
X-446496Y539270D02*
G01*
X-446496Y543089D01*
X-445789Y545068D01*
X-443879Y546977D01*
X-441971Y547615D01*
X-439426Y546341D01*
X-432991Y539906D01*
X-442254Y557656D02*
G01*
X-440911Y557584D01*
X-440981Y558928D01*
X-442254Y558928D01*
X-442254Y557656D01*
X-437092Y553766D02*
G01*
X-428112Y544785D01*
X-432213Y558645D02*
G01*
X-423233Y549665D01*
X-429668Y556100D02*
G01*
X-429597Y559989D01*
X-428959Y561898D01*
X-427051Y563807D01*
X-425142Y564443D01*
X-422596Y563170D01*
X-416162Y556736D01*
X-413191Y577667D02*
G01*
X-402867Y567343D01*
X-401594Y564796D01*
X-401594Y563524D01*
X-402232Y561615D01*
X-404140Y559706D01*
X-406050Y559070D01*
X-411283Y575756D02*
G01*
X-413828Y575756D01*
X-415738Y575120D01*
X-417646Y573211D01*
X-418283Y571302D01*
X-418353Y568685D01*
X-417010Y566069D01*
X-415738Y564796D01*
X-413191Y563524D01*
X-410576Y563595D01*
X-408666Y564232D01*
X-406756Y566140D01*
X-406121Y568049D01*
X-406121Y570596D01*
X-408949Y590960D02*
G01*
X-395443Y577454D01*
X-413474Y586435D02*
G01*
X-404423Y595486D01*
X-395655Y595203D02*
G01*
X-384130Y588768D01*
X-390564Y600293D02*
G01*
X-384130Y588768D01*
X-390564Y600293D02*
G01*
X-378968Y593930D01*
X-385402Y605455D02*
G01*
X-378968Y593930D01*
X-377907Y612950D02*
G01*
X-378613Y610970D01*
X-378613Y608425D01*
X-377271Y605808D01*
X-375997Y604537D01*
X-373452Y603263D01*
X-370906Y603263D01*
X-368927Y603971D01*
X-367017Y605880D01*
X-366381Y607788D01*
X-366381Y610335D01*
X-367654Y612880D01*
X-368927Y614153D01*
X-371543Y615497D01*
X-374089Y615497D01*
X-375997Y614859D01*
X-377907Y612950D01*
X-358037Y641871D02*
G01*
X-349693Y623204D01*
X-358037Y641871D02*
G01*
X-339369Y633528D01*
X-352169Y629639D02*
G01*
X-345805Y636003D01*
X-348632Y651275D02*
G01*
X-335127Y637770D01*
X-348632Y651275D02*
G01*
X-330036Y642862D01*
X-338379Y661529D02*
G01*
X-330036Y642862D01*
X-338379Y661529D02*
G01*
X-324873Y648024D01*
X-324238Y675671D02*
G01*
X-310731Y662166D01*
X-324238Y675671D02*
G01*
X-305569Y667327D01*
X-313914Y685994D02*
G01*
X-305569Y667327D01*
X-313914Y685994D02*
G01*
X-300407Y672489D01*
X-304580Y695329D02*
G01*
X-296166Y676732D01*
X-304580Y695329D02*
G01*
X-285913Y686984D01*
X-298711Y683096D02*
G01*
X-292277Y689531D01*
X-282305Y711098D02*
G01*
X-284215Y711734D01*
X-286760Y711734D01*
X-288741Y711167D01*
X-291287Y708622D01*
X-291922Y706572D01*
X-291922Y704027D01*
X-291287Y702116D01*
X-290014Y699571D01*
X-286760Y696318D01*
X-284215Y695045D01*
X-282305Y694409D01*
X-279760Y694409D01*
X-277781Y695117D01*
X-275235Y697662D01*
X-274598Y699571D01*
X-274598Y702116D01*
X-275235Y704027D01*
X-277145Y705936D01*
X-280326Y702753D02*
G01*
X-277145Y705936D01*
D12*
X685506Y491972D02*
G01*
X683877Y492995D01*
X681418Y493654D01*
X679409Y493532D01*
X676292Y491732D01*
X675270Y490104D01*
X674610Y487644D01*
X674682Y485722D01*
X675252Y482934D01*
X677501Y479036D01*
X679632Y477148D01*
X681310Y476039D01*
X683769Y475380D01*
X685691Y475452D01*
X688810Y477251D01*
X689918Y478930D01*
X690577Y481390D01*
X690456Y483398D01*
X691395Y495372D02*
G01*
X690945Y496152D01*
X690874Y498074D01*
X691204Y499304D01*
X692313Y500983D01*
X695430Y502782D01*
X697353Y502853D01*
X698582Y502523D01*
X700213Y501502D01*
X701112Y499942D01*
X701233Y497934D01*
X701111Y494746D01*
X697816Y482451D01*
X708641Y488701D01*
X715055Y510994D02*
G01*
X713374Y512103D01*
X710586Y511532D01*
X709027Y510632D01*
X707139Y508503D01*
X706881Y505351D01*
X708351Y501005D01*
X710600Y497107D01*
X713180Y494439D01*
X715640Y493780D01*
X718428Y494351D01*
X719206Y494801D01*
X721095Y496930D01*
X721755Y499389D01*
X721184Y502179D01*
X720734Y502957D01*
X718604Y504845D01*
X716145Y505504D01*
X713356Y504935D01*
X712578Y504484D01*
X710689Y502354D01*
X710030Y499895D01*
X710600Y497107D01*
D13*
X516419Y425830D02*
G01*
X516419Y397229D01*
X516419Y425830D02*
G01*
X528720Y425830D01*
X532719Y424529D01*
X534120Y423130D01*
X535519Y420430D01*
X535519Y417730D01*
X534120Y414929D01*
X532719Y413629D01*
X528720Y412229D01*
X516419Y412229D01*
X525919Y412229D02*
G01*
X535519Y397229D01*
X544520Y420430D02*
G01*
X547219Y421829D01*
X551319Y425830D01*
X551319Y397229D01*
X576719Y421829D02*
G01*
X575320Y424529D01*
X571220Y425830D01*
X568519Y425830D01*
X564420Y424529D01*
X561719Y420430D01*
X560320Y413629D01*
X560320Y406829D01*
X561719Y401329D01*
X564420Y398629D01*
X568519Y397229D01*
X569819Y397229D01*
X573919Y398629D01*
X576719Y401329D01*
X578019Y405430D01*
X578019Y406829D01*
X576719Y410830D01*
X573919Y413629D01*
X569819Y414929D01*
X568519Y414929D01*
X564420Y413629D01*
X561719Y410830D01*
X560320Y406829D01*
D14*
X406329Y351579D02*
G01*
X389229Y351579D01*
X406329Y351579D02*
G01*
X406329Y344279D01*
X405529Y341779D01*
X404729Y340979D01*
X403130Y340180D01*
X401430Y340180D01*
X399830Y340979D01*
X399030Y341779D01*
X398230Y344279D01*
X398230Y351579D01*
X398230Y345880D02*
G01*
X389229Y340180D01*
X402229Y333879D02*
G01*
X403130Y333879D01*
X404729Y333079D01*
X405529Y332280D01*
X406329Y330679D01*
X406329Y327379D01*
X405529Y325779D01*
X404729Y324879D01*
X403130Y324079D01*
X401430Y324079D01*
X399830Y324879D01*
X397330Y326579D01*
X389229Y334780D01*
X389229Y323279D01*
X406329Y312979D02*
G01*
X405529Y315479D01*
X403130Y317080D01*
X399030Y317880D01*
X396530Y317880D01*
X392429Y317080D01*
X390029Y315479D01*
X389229Y312979D01*
X389229Y311379D01*
X390029Y308879D01*
X392429Y307280D01*
X396530Y306480D01*
X399030Y306480D01*
X403130Y307280D01*
X405529Y308879D01*
X406329Y311379D01*
X406329Y312979D01*
D13*
X573320Y299924D02*
G01*
X573320Y279524D01*
X574619Y275425D01*
X577420Y272725D01*
X581520Y271325D01*
X584219Y271325D01*
X588320Y272725D01*
X591019Y275425D01*
X592420Y279524D01*
X592420Y299924D01*
X602719Y293125D02*
G01*
X602719Y294524D01*
X604120Y297224D01*
X605519Y298625D01*
X608220Y299924D01*
X613620Y299924D01*
X616419Y298625D01*
X617719Y297224D01*
X619120Y294524D01*
X619120Y291824D01*
X617719Y289025D01*
X615019Y284924D01*
X601419Y271325D01*
X620519Y271325D01*
D12*
X678170Y526720D02*
G01*
X676469Y525819D01*
X674669Y524020D01*
X673769Y522219D01*
X673769Y518620D01*
X674669Y516920D01*
X676469Y515120D01*
X678170Y514220D01*
X680869Y513319D01*
X685370Y513319D01*
X688069Y514220D01*
X689870Y515120D01*
X691669Y516920D01*
X692569Y518620D01*
X692569Y522219D01*
X691669Y524020D01*
X689870Y525819D01*
X688069Y526720D01*
X678170Y533519D02*
G01*
X677269Y533519D01*
X675569Y534420D01*
X674669Y535320D01*
X673769Y537119D01*
X673769Y540720D01*
X674669Y542420D01*
X675569Y543319D01*
X677269Y544220D01*
X679070Y544220D01*
X680869Y543319D01*
X683569Y541619D01*
X692569Y532620D01*
X692569Y545120D01*
X673769Y561819D02*
G01*
X673769Y552820D01*
X681769Y551920D01*
X680869Y552820D01*
X679970Y555520D01*
X679970Y558220D01*
X680869Y560920D01*
X682669Y562719D01*
X685370Y563620D01*
X687169Y563620D01*
X689870Y562719D01*
X691669Y560920D01*
X692569Y558220D01*
X692569Y555520D01*
X691669Y552820D01*
X690770Y551920D01*
X688969Y551019D01*
D13*
X398320Y486430D02*
G01*
X398320Y457829D01*
X398320Y486430D02*
G01*
X410619Y486430D01*
X414619Y485129D01*
X416019Y483730D01*
X417420Y481030D01*
X417420Y478330D01*
X416019Y475529D01*
X414619Y474229D01*
X410619Y472829D01*
X398320Y472829D01*
X407820Y472829D02*
G01*
X417420Y457829D01*
X426419Y481030D02*
G01*
X429120Y482429D01*
X433220Y486430D01*
X433220Y457829D01*
X449020Y486430D02*
G01*
X444920Y485129D01*
X443620Y482429D01*
X443620Y479630D01*
X444920Y476929D01*
X447619Y475529D01*
X453119Y474229D01*
X457219Y472829D01*
X459920Y470129D01*
X461319Y467429D01*
X461319Y463330D01*
X459920Y460529D01*
X458620Y459229D01*
X454520Y457829D01*
X449020Y457829D01*
X444920Y459229D01*
X443620Y460529D01*
X442219Y463330D01*
X442219Y467429D01*
X443620Y470129D01*
X446319Y472829D01*
X450419Y474229D01*
X455820Y475529D01*
X458620Y476929D01*
X459920Y479630D01*
X459920Y482429D01*
X458620Y485129D01*
X454520Y486430D01*
X449020Y486430D01*
X398019Y536630D02*
G01*
X398019Y508029D01*
X398019Y536630D02*
G01*
X410320Y536630D01*
X414319Y535329D01*
X415720Y533930D01*
X417119Y531230D01*
X417119Y528530D01*
X415720Y525729D01*
X414319Y524429D01*
X410320Y523029D01*
X398019Y523029D01*
X407519Y523029D02*
G01*
X417119Y508029D01*
X426120Y531230D02*
G01*
X428819Y532629D01*
X432919Y536630D01*
X432919Y508029D01*
X459619Y527130D02*
G01*
X458320Y523029D01*
X455519Y520329D01*
X451419Y518930D01*
X450119Y518930D01*
X446019Y520329D01*
X443320Y523029D01*
X441920Y527130D01*
X441920Y528530D01*
X443320Y532629D01*
X446019Y535329D01*
X450119Y536630D01*
X451419Y536630D01*
X455519Y535329D01*
X458320Y532629D01*
X459619Y527130D01*
X459619Y520329D01*
X458320Y513530D01*
X455519Y509429D01*
X451419Y508029D01*
X448720Y508029D01*
X444619Y509429D01*
X443320Y512130D01*
X-162300Y-358000D02*
G01*
X-162300Y-386599D01*
X-162300Y-358000D02*
G01*
X-150000Y-358000D01*
X-146000Y-359299D01*
X-144600Y-360700D01*
X-143199Y-363400D01*
X-143199Y-366100D01*
X-144600Y-368899D01*
X-146000Y-370199D01*
X-150000Y-371599D01*
X-162300Y-371599D01*
X-152799Y-371599D02*
G01*
X-143199Y-386599D01*
X-132899Y-364800D02*
G01*
X-132899Y-363400D01*
X-131500Y-360700D01*
X-130100Y-359299D01*
X-127399Y-358000D01*
X-121999Y-358000D01*
X-119200Y-359299D01*
X-117899Y-360700D01*
X-116500Y-363400D01*
X-116500Y-366100D01*
X-117899Y-368899D01*
X-120600Y-373000D01*
X-134200Y-386599D01*
X-115100Y-386599D01*
X-103400Y-358000D02*
G01*
X-88400Y-358000D01*
X-96599Y-368899D01*
X-92500Y-368899D01*
X-89800Y-370199D01*
X-88400Y-371599D01*
X-86999Y-375700D01*
X-86999Y-378400D01*
X-88400Y-382500D01*
X-91099Y-385199D01*
X-95200Y-386599D01*
X-99300Y-386599D01*
X-103400Y-385199D01*
X-104800Y-383899D01*
X-106099Y-381100D01*
X-372680Y481529D02*
G01*
X-372680Y452930D01*
X-372680Y481529D02*
G01*
X-360380Y481529D01*
X-356379Y480230D01*
X-354980Y478829D01*
X-353580Y476129D01*
X-353580Y473429D01*
X-354980Y470630D01*
X-356379Y469329D01*
X-360380Y467930D01*
X-372680Y467930D01*
X-363180Y467930D02*
G01*
X-353580Y452930D01*
X-343280Y474729D02*
G01*
X-343280Y476129D01*
X-341880Y478829D01*
X-340479Y480230D01*
X-337780Y481529D01*
X-332380Y481529D01*
X-329580Y480230D01*
X-328280Y478829D01*
X-326880Y476129D01*
X-326880Y473429D01*
X-328280Y470630D01*
X-330979Y466529D01*
X-344580Y452930D01*
X-325479Y452930D01*
X-302880Y481529D02*
G01*
X-316480Y462530D01*
X-296080Y462530D01*
X-302880Y481529D02*
G01*
X-302880Y452930D01*
X451019Y139029D02*
G01*
X451019Y110430D01*
X451019Y139029D02*
G01*
X463320Y139029D01*
X467319Y137730D01*
X468720Y136329D01*
X470119Y133629D01*
X470119Y130929D01*
X468720Y128130D01*
X467319Y126829D01*
X463320Y125430D01*
X451019Y125430D01*
X460519Y125430D02*
G01*
X470119Y110430D01*
X480419Y132229D02*
G01*
X480419Y133629D01*
X481819Y136329D01*
X483220Y137730D01*
X485919Y139029D01*
X491319Y139029D01*
X494120Y137730D01*
X495419Y136329D01*
X496819Y133629D01*
X496819Y130929D01*
X495419Y128130D01*
X492719Y124029D01*
X479120Y110430D01*
X498220Y110430D01*
X524920Y129529D02*
G01*
X523519Y125430D01*
X520820Y122730D01*
X516719Y121329D01*
X515320Y121329D01*
X511319Y122730D01*
X508519Y125430D01*
X507219Y129529D01*
X507219Y130929D01*
X508519Y135030D01*
X511319Y137730D01*
X515320Y139029D01*
X516719Y139029D01*
X520820Y137730D01*
X523519Y135030D01*
X524920Y129529D01*
X524920Y122730D01*
X523519Y115929D01*
X520820Y111829D01*
X516719Y110430D01*
X514020Y110430D01*
X509920Y111829D01*
X508519Y114529D01*
X96419Y6430D02*
G01*
X96419Y-22170D01*
X96419Y6430D02*
G01*
X108720Y6430D01*
X112719Y5129D01*
X114120Y3730D01*
X115519Y1030D01*
X115519Y-1669D01*
X114120Y-4470D01*
X112719Y-5770D01*
X108720Y-7170D01*
X96419Y-7170D01*
X105919Y-7170D02*
G01*
X115519Y-22170D01*
X124520Y1030D02*
G01*
X127219Y2429D01*
X131319Y6430D01*
X131319Y-22170D01*
X140320Y1030D02*
G01*
X143019Y2429D01*
X147119Y6430D01*
X147119Y-22170D01*
X481120Y201829D02*
G01*
X481120Y173229D01*
X481120Y201829D02*
G01*
X493419Y201829D01*
X497420Y200529D01*
X498819Y199130D01*
X500219Y196430D01*
X500219Y193730D01*
X498819Y190929D01*
X497420Y189630D01*
X493419Y188229D01*
X481120Y188229D01*
X490619Y188229D02*
G01*
X500219Y173229D01*
X511920Y201829D02*
G01*
X526920Y201829D01*
X518720Y190929D01*
X522820Y190929D01*
X525519Y189630D01*
X526920Y188229D01*
X528320Y184130D01*
X528320Y181430D01*
X526920Y177330D01*
X524219Y174630D01*
X520119Y173229D01*
X516019Y173229D01*
X511920Y174630D01*
X510519Y175929D01*
X509219Y178730D01*
X545419Y201829D02*
G01*
X541419Y200529D01*
X538620Y196430D01*
X537319Y189630D01*
X537319Y185529D01*
X538620Y178730D01*
X541419Y174630D01*
X545419Y173229D01*
X548220Y173229D01*
X552319Y174630D01*
X555019Y178730D01*
X556419Y185529D01*
X556419Y189630D01*
X555019Y196430D01*
X552319Y200529D01*
X548220Y201829D01*
X545419Y201829D01*
X-162080Y-57170D02*
G01*
X-162080Y-85770D01*
X-162080Y-57170D02*
G01*
X-149780Y-57170D01*
X-145780Y-58470D01*
X-144380Y-59870D01*
X-142979Y-62570D01*
X-142979Y-65270D01*
X-144380Y-68070D01*
X-145780Y-69369D01*
X-149780Y-70770D01*
X-162080Y-70770D01*
X-152579Y-70770D02*
G01*
X-142979Y-85770D01*
X-132680Y-63969D02*
G01*
X-132680Y-62570D01*
X-131279Y-59870D01*
X-129880Y-58470D01*
X-127179Y-57170D01*
X-121779Y-57170D01*
X-118980Y-58470D01*
X-117680Y-59870D01*
X-116279Y-62570D01*
X-116279Y-65270D01*
X-117680Y-68070D01*
X-120380Y-72170D01*
X-133980Y-85770D01*
X-114880Y-85770D01*
X-104580Y-63969D02*
G01*
X-104580Y-62570D01*
X-103180Y-59870D01*
X-101779Y-58470D01*
X-99080Y-57170D01*
X-93680Y-57170D01*
X-90879Y-58470D01*
X-89580Y-59870D01*
X-88180Y-62570D01*
X-88180Y-65270D01*
X-89580Y-68070D01*
X-92280Y-72170D01*
X-105879Y-85770D01*
X-86779Y-85770D01*
X-288779Y224529D02*
G01*
X-290079Y227330D01*
X-292880Y230030D01*
X-295579Y231329D01*
X-300979Y231329D01*
X-303779Y230030D01*
X-306480Y227330D01*
X-307880Y224529D01*
X-309179Y220430D01*
X-309179Y213629D01*
X-307880Y209529D01*
X-306480Y206829D01*
X-303779Y204130D01*
X-300979Y202730D01*
X-295579Y202730D01*
X-292880Y204130D01*
X-290079Y206829D01*
X-288779Y209529D01*
X-272880Y231329D02*
G01*
X-276980Y230030D01*
X-278379Y227330D01*
X-278379Y224529D01*
X-276980Y221829D01*
X-274279Y220430D01*
X-268879Y219130D01*
X-264780Y217730D01*
X-261980Y215030D01*
X-260680Y212330D01*
X-260680Y208229D01*
X-261980Y205430D01*
X-263379Y204130D01*
X-267480Y202730D01*
X-272880Y202730D01*
X-276980Y204130D01*
X-278379Y205430D01*
X-279780Y208229D01*
X-279780Y212330D01*
X-278379Y215030D01*
X-275680Y217730D01*
X-271580Y219130D01*
X-266080Y220430D01*
X-263379Y221829D01*
X-261980Y224529D01*
X-261980Y227330D01*
X-263379Y230030D01*
X-267480Y231329D01*
X-272880Y231329D01*
X-211080Y-79769D02*
G01*
X-211080Y-108369D01*
X-211080Y-79769D02*
G01*
X-198779Y-79769D01*
X-194780Y-81069D01*
X-193379Y-82469D01*
X-191980Y-85169D01*
X-191980Y-87869D01*
X-193379Y-90670D01*
X-194780Y-91970D01*
X-198779Y-93369D01*
X-211080Y-93369D01*
X-201580Y-93369D02*
G01*
X-191980Y-108369D01*
X-169380Y-79769D02*
G01*
X-182979Y-98769D01*
X-162579Y-98769D01*
X-169380Y-79769D02*
G01*
X-169380Y-108369D01*
X-146329Y-213980D02*
G01*
X-117730Y-213980D01*
X-146329Y-213980D02*
G01*
X-146329Y-201680D01*
X-145029Y-197680D01*
X-143630Y-196280D01*
X-140929Y-194879D01*
X-138230Y-194879D01*
X-135429Y-196280D01*
X-134130Y-197680D01*
X-132730Y-201680D01*
X-132730Y-213980D01*
X-132730Y-204479D02*
G01*
X-117730Y-194879D01*
X-146329Y-179079D02*
G01*
X-145029Y-183180D01*
X-142330Y-184580D01*
X-139530Y-184580D01*
X-136829Y-183180D01*
X-135429Y-180480D01*
X-134130Y-174980D01*
X-132730Y-170880D01*
X-130029Y-168180D01*
X-127330Y-166779D01*
X-123230Y-166779D01*
X-120429Y-168180D01*
X-119130Y-169580D01*
X-117730Y-173679D01*
X-117730Y-179079D01*
X-119130Y-183180D01*
X-120429Y-184580D01*
X-123230Y-185880D01*
X-127330Y-185880D01*
X-130029Y-184580D01*
X-132730Y-181779D01*
X-134130Y-177680D01*
X-135429Y-172280D01*
X-136829Y-169580D01*
X-139530Y-168180D01*
X-142330Y-168180D01*
X-145029Y-169580D01*
X-146329Y-173679D01*
X-146329Y-179079D01*
X-275079Y-320070D02*
G01*
X-275079Y-348670D01*
X-275079Y-320070D02*
G01*
X-262780Y-320070D01*
X-258779Y-321370D01*
X-257380Y-322770D01*
X-255979Y-325470D01*
X-255979Y-328170D01*
X-257380Y-330970D01*
X-258779Y-332269D01*
X-262780Y-333670D01*
X-275079Y-333670D01*
X-265579Y-333670D02*
G01*
X-255979Y-348670D01*
X-245680Y-326869D02*
G01*
X-245680Y-325470D01*
X-244279Y-322770D01*
X-242880Y-321370D01*
X-240180Y-320070D01*
X-234780Y-320070D01*
X-231980Y-321370D01*
X-230680Y-322770D01*
X-229279Y-325470D01*
X-229279Y-328170D01*
X-230680Y-330970D01*
X-233379Y-335070D01*
X-246980Y-348670D01*
X-227880Y-348670D01*
X-218879Y-325470D02*
G01*
X-216180Y-324070D01*
X-212080Y-320070D01*
X-212080Y-348670D01*
X-433779Y250129D02*
G01*
X-435079Y252930D01*
X-437880Y255630D01*
X-440579Y256929D01*
X-445979Y256929D01*
X-448779Y255630D01*
X-451480Y252930D01*
X-452880Y250129D01*
X-454179Y246030D01*
X-454179Y239229D01*
X-452880Y235129D01*
X-451480Y232429D01*
X-448779Y229729D01*
X-445979Y228330D01*
X-440579Y228330D01*
X-437880Y229729D01*
X-435079Y232429D01*
X-433779Y235129D01*
X-408379Y252930D02*
G01*
X-409780Y255630D01*
X-413879Y256929D01*
X-416580Y256929D01*
X-420680Y255630D01*
X-423379Y251529D01*
X-424780Y244729D01*
X-424780Y237930D01*
X-423379Y232429D01*
X-420680Y229729D01*
X-416580Y228330D01*
X-415180Y228330D01*
X-411080Y229729D01*
X-408379Y232429D01*
X-406980Y236529D01*
X-406980Y237930D01*
X-408379Y241929D01*
X-411080Y244729D01*
X-415180Y246030D01*
X-416580Y246030D01*
X-420680Y244729D01*
X-423379Y241929D01*
X-424780Y237930D01*
X-282764Y58559D02*
G01*
X-262280Y66014D01*
X-257983Y66195D01*
X-256282Y65324D01*
X-254043Y63267D01*
X-253085Y60635D01*
X-253478Y57620D01*
X-254220Y55859D01*
X-257628Y53236D01*
X-260259Y52278D01*
X-279931Y70657D02*
G01*
X-281248Y70178D01*
X-284229Y70477D01*
X-286023Y71313D01*
X-288168Y73405D01*
X-290050Y78575D01*
X-289751Y81556D01*
X-288914Y83350D01*
X-286823Y85495D01*
X-284286Y86419D01*
X-281210Y86156D01*
X-276433Y85021D01*
X-258968Y76797D01*
X-265501Y94746D01*
X-263280Y611829D02*
G01*
X-263280Y591430D01*
X-261980Y587330D01*
X-259179Y584630D01*
X-255079Y583229D01*
X-252380Y583229D01*
X-248280Y584630D01*
X-245579Y587330D01*
X-244179Y591430D01*
X-244179Y611829D01*
X-235180Y606430D02*
G01*
X-232480Y607829D01*
X-228379Y611829D01*
X-228379Y583229D01*
X599070Y4020D02*
G01*
X627669Y4020D01*
X599070Y23119D02*
G01*
X627669Y23119D01*
X612669Y4020D02*
G01*
X612669Y23119D01*
X604470Y32119D02*
G01*
X603069Y34819D01*
X599070Y38919D01*
X627669Y38919D01*
X176970Y-404679D02*
G01*
X197370Y-404679D01*
X201469Y-403380D01*
X204169Y-400579D01*
X205569Y-396480D01*
X205569Y-393780D01*
X204169Y-389679D01*
X201469Y-386979D01*
X197370Y-385579D01*
X176970Y-385579D01*
X176970Y-373879D02*
G01*
X176970Y-358879D01*
X187870Y-367080D01*
X187870Y-362980D01*
X189169Y-360280D01*
X190569Y-358879D01*
X194669Y-357480D01*
X197370Y-357480D01*
X201469Y-358879D01*
X204169Y-361579D01*
X205569Y-365680D01*
X205569Y-369780D01*
X204169Y-373879D01*
X202870Y-375280D01*
X200069Y-376579D01*
X-354729Y-263279D02*
G01*
X-334329Y-263279D01*
X-330230Y-261979D01*
X-327529Y-259180D01*
X-326130Y-255079D01*
X-326130Y-252379D01*
X-327529Y-248279D01*
X-330230Y-245579D01*
X-334329Y-244180D01*
X-354729Y-244180D01*
X-349329Y-235180D02*
G01*
X-350730Y-232480D01*
X-354729Y-228380D01*
X-326130Y-228380D01*
X-354729Y-202980D02*
G01*
X-354729Y-216680D01*
X-342529Y-217980D01*
X-343829Y-216680D01*
X-345230Y-212579D01*
X-345230Y-208479D01*
X-343829Y-204380D01*
X-341130Y-201680D01*
X-337030Y-200280D01*
X-334329Y-200280D01*
X-330230Y-201680D01*
X-327529Y-204380D01*
X-326130Y-208479D01*
X-326130Y-212579D01*
X-327529Y-216680D01*
X-328829Y-217980D01*
X-331630Y-219380D01*
X-321480Y559929D02*
G01*
X-322780Y562730D01*
X-325579Y565430D01*
X-328280Y566729D01*
X-333680Y566729D01*
X-336480Y565430D01*
X-339179Y562730D01*
X-340579Y559929D01*
X-341880Y555830D01*
X-341880Y549029D01*
X-340579Y544929D01*
X-339179Y542229D01*
X-336480Y539529D01*
X-333680Y538130D01*
X-328280Y538130D01*
X-325579Y539529D01*
X-322780Y542229D01*
X-321480Y544929D01*
X-312480Y561329D02*
G01*
X-309679Y562730D01*
X-305579Y566729D01*
X-305579Y538130D01*
X-280280Y562730D02*
G01*
X-281580Y565430D01*
X-285680Y566729D01*
X-288479Y566729D01*
X-292579Y565430D01*
X-295280Y561329D01*
X-296580Y554529D01*
X-296580Y547730D01*
X-295280Y542229D01*
X-292579Y539529D01*
X-288479Y538130D01*
X-287080Y538130D01*
X-282979Y539529D01*
X-280280Y542229D01*
X-278879Y546329D01*
X-278879Y547730D01*
X-280280Y551729D01*
X-282979Y554529D01*
X-287080Y555830D01*
X-288479Y555830D01*
X-292579Y554529D01*
X-295280Y551729D01*
X-296580Y547730D01*
X452420Y629929D02*
G01*
X451120Y632730D01*
X448320Y635430D01*
X445619Y636729D01*
X440219Y636729D01*
X437420Y635430D01*
X434719Y632730D01*
X433320Y629929D01*
X432020Y625830D01*
X432020Y619029D01*
X433320Y614929D01*
X434719Y612229D01*
X437420Y609529D01*
X440219Y608130D01*
X445619Y608130D01*
X448320Y609529D01*
X451120Y612229D01*
X452420Y614929D01*
X461419Y631329D02*
G01*
X464219Y632730D01*
X468320Y636729D01*
X468320Y608130D01*
X-214480Y-3270D02*
G01*
X-215780Y-470D01*
X-218580Y2229D01*
X-221279Y3530D01*
X-226679Y3530D01*
X-229480Y2229D01*
X-232179Y-470D01*
X-233580Y-3270D01*
X-234880Y-7370D01*
X-234880Y-14169D01*
X-233580Y-18270D01*
X-232179Y-20970D01*
X-229480Y-23670D01*
X-226679Y-25070D01*
X-221279Y-25070D01*
X-218580Y-23670D01*
X-215780Y-20970D01*
X-214480Y-18270D01*
X-205479Y-1869D02*
G01*
X-202680Y-470D01*
X-198580Y3530D01*
X-198580Y-25070D01*
X-175979Y3530D02*
G01*
X-189580Y-15470D01*
X-169179Y-15470D01*
X-175979Y3530D02*
G01*
X-175979Y-25070D01*
X506300Y560700D02*
G01*
X505399Y562500D01*
X503599Y564299D01*
X501800Y565201D01*
X498299Y565201D01*
X496499Y564299D01*
X494700Y562500D01*
X493800Y560700D01*
X492899Y558000D01*
X492899Y553499D01*
X493798Y550799D01*
X494700Y549099D01*
X496499Y547300D01*
X498299Y546399D01*
X501799Y546401D01*
X503599Y547300D01*
X505399Y549099D01*
X506298Y550799D01*
X513099Y560700D02*
G01*
X513099Y561599D01*
X513999Y563400D01*
X514898Y564299D01*
X516700Y565201D01*
X520298Y565201D01*
X522100Y564301D01*
X523000Y563400D01*
X523899Y561601D01*
X523899Y559800D01*
X523000Y558000D01*
X521198Y555300D01*
X512199Y546401D01*
X524799Y546401D01*
X539598Y565201D02*
G01*
X530699Y552600D01*
X544099Y552600D01*
X539598Y565201D02*
G01*
X539600Y546401D01*
X498119Y752530D02*
G01*
X498119Y723930D01*
X498119Y752530D02*
G01*
X510419Y752530D01*
X514420Y751230D01*
X515820Y749830D01*
X517219Y747130D01*
X517219Y744429D01*
X515820Y741630D01*
X514420Y740329D01*
X510419Y738930D01*
X498119Y738930D01*
X507619Y738930D02*
G01*
X517219Y723930D01*
X526220Y747130D02*
G01*
X528919Y748530D01*
X533019Y752530D01*
X533019Y723930D01*
X435820Y591030D02*
G01*
X435820Y570630D01*
X437119Y566529D01*
X439920Y563829D01*
X444020Y562429D01*
X446719Y562429D01*
X450820Y563829D01*
X453519Y566529D01*
X454920Y570630D01*
X454920Y591030D01*
X463919Y585630D02*
G01*
X466620Y587029D01*
X470720Y591030D01*
X470720Y562429D01*
X479719Y585630D02*
G01*
X482420Y587029D01*
X486520Y591030D01*
X486520Y562429D01*
X-534580Y418829D02*
G01*
X-534580Y398429D01*
X-533280Y394329D01*
X-530479Y391630D01*
X-526379Y390230D01*
X-523680Y390230D01*
X-519580Y391630D01*
X-516880Y394329D01*
X-515479Y398429D01*
X-515479Y418829D01*
X-490180Y414830D02*
G01*
X-491480Y417530D01*
X-495579Y418829D01*
X-498280Y418829D01*
X-502380Y417530D01*
X-505180Y413429D01*
X-506480Y406630D01*
X-506480Y399830D01*
X-505180Y394329D01*
X-502380Y391630D01*
X-498280Y390230D01*
X-496980Y390230D01*
X-492880Y391630D01*
X-490180Y394329D01*
X-488779Y398429D01*
X-488779Y399830D01*
X-490180Y403829D01*
X-492880Y406630D01*
X-496980Y407930D01*
X-498280Y407930D01*
X-502380Y406630D01*
X-505180Y403829D01*
X-506480Y399830D01*
D15*
X581188Y437069D02*
G01*
X612294Y437069D01*
X612294Y476329D02*
G01*
X581188Y476329D01*
X575187Y470329D02*
G01*
X575187Y443069D01*
X661211Y437069D02*
G01*
X630105Y437069D01*
X630105Y476329D02*
G01*
X661211Y476329D01*
X667211Y470329D02*
G01*
X667211Y443069D01*
X459394Y393069D02*
G01*
X431125Y393069D01*
X431125Y432330D01*
X459394Y432330D01*
X477205Y393069D02*
G01*
X505474Y393069D01*
X505474Y432330D01*
X477205Y432330D01*
X420329Y388494D02*
G01*
X420329Y360225D01*
X381069Y360225D01*
X381069Y388494D01*
X420329Y406305D02*
G01*
X420329Y434574D01*
X381069Y434574D01*
X381069Y406305D01*
D16*
X563308Y257608D02*
G01*
X563308Y246781D01*
X535749Y246781D01*
X455042Y246781D02*
G01*
X427482Y246781D01*
X427482Y257608D01*
X563308Y371781D02*
G01*
X563308Y382608D01*
X535749Y382608D01*
X455042Y382608D02*
G01*
X427482Y382608D01*
X427482Y371781D01*
D15*
X580907Y490500D02*
G01*
X612013Y490500D01*
X612013Y529760D02*
G01*
X580907Y529760D01*
X574907Y523759D02*
G01*
X574907Y496500D01*
X660932Y490500D02*
G01*
X629826Y490500D01*
X629826Y529760D02*
G01*
X660932Y529760D01*
X666931Y523759D02*
G01*
X666931Y496500D01*
X502813Y450199D02*
G01*
X474544Y450199D01*
X474544Y489459D01*
X502813Y489459D01*
X520626Y450199D02*
G01*
X548895Y450199D01*
X548895Y489459D01*
X520626Y489459D01*
X500613Y500399D02*
G01*
X472344Y500399D01*
X472344Y539659D01*
X500613Y539659D01*
X518425Y500399D02*
G01*
X546694Y500399D01*
X546694Y539659D01*
X518425Y539659D01*
X-189157Y-386478D02*
G01*
X-171222Y-386478D01*
X-171222Y-355722D01*
X-189157Y-355722D01*
X-202242Y-386478D02*
G01*
X-220177Y-386478D01*
X-220177Y-355722D01*
X-202242Y-355722D01*
X-343386Y404000D02*
G01*
X-371655Y404000D01*
X-371655Y443260D01*
X-343386Y443260D01*
X-325573Y404000D02*
G01*
X-297304Y404000D01*
X-297304Y443260D01*
X-325573Y443260D01*
X424663Y106851D02*
G01*
X442596Y106851D01*
X442596Y137608D01*
X424663Y137608D01*
X411576Y106851D02*
G01*
X393643Y106851D01*
X393643Y137608D01*
X411576Y137608D01*
X56157Y8177D02*
G01*
X38222Y8177D01*
X38222Y-22577D01*
X56157Y-22577D01*
X69242Y8177D02*
G01*
X87177Y8177D01*
X87177Y-22577D01*
X69242Y-22577D01*
X453243Y171421D02*
G01*
X471176Y171421D01*
X471176Y202177D01*
X453243Y202177D01*
X440156Y171421D02*
G01*
X422222Y171421D01*
X422222Y202177D01*
X440156Y202177D01*
X-123378Y-124243D02*
G01*
X-123378Y-142177D01*
X-92622Y-142177D01*
X-92622Y-124243D01*
X-123378Y-111156D02*
G01*
X-123378Y-93222D01*
X-92622Y-93222D01*
X-92622Y-111156D01*
X-263351Y270277D02*
G01*
X-277857Y270277D01*
X-277857Y239522D02*
G01*
X-263351Y239522D01*
X-257350Y245522D02*
G01*
X-257350Y264277D01*
X-305448Y270277D02*
G01*
X-290942Y270277D01*
X-290942Y239522D02*
G01*
X-305448Y239522D01*
X-311449Y245522D02*
G01*
X-311449Y264277D01*
X-166122Y-135057D02*
G01*
X-166122Y-117123D01*
X-196877Y-117123D01*
X-196877Y-135057D01*
X-166122Y-148143D02*
G01*
X-166122Y-166077D01*
X-196877Y-166077D01*
X-196877Y-148143D01*
X-117421Y-243757D02*
G01*
X-117421Y-225823D01*
X-148177Y-225823D01*
X-148177Y-243757D01*
X-117421Y-256842D02*
G01*
X-117421Y-274776D01*
X-148177Y-274776D01*
X-148177Y-256842D01*
X-170456Y-346878D02*
G01*
X-152523Y-346878D01*
X-152523Y-316122D01*
X-170456Y-316122D01*
X-183542Y-346878D02*
G01*
X-201477Y-346878D01*
X-201477Y-316122D01*
X-183542Y-316122D01*
X-468388Y263930D02*
G01*
X-499494Y263930D01*
X-499494Y224670D02*
G01*
X-468388Y224670D01*
X-462388Y230670D02*
G01*
X-462388Y257930D01*
X-548411Y263930D02*
G01*
X-517305Y263930D01*
X-517305Y224670D02*
G01*
X-548411Y224670D01*
X-554412Y230670D02*
G01*
X-554412Y257930D01*
D17*
X-243420Y-92226D02*
G01*
X-324214Y129747D01*
D13*
X-218150Y628539D02*
G01*
X-218150Y827359D01*
X388149Y827359D01*
X388149Y628539D01*
X388149Y20279D02*
G01*
X-218150Y20279D01*
D18*
X643299Y413967D02*
G01*
X743299Y413967D01*
X643299Y-2568D02*
G01*
X643299Y413967D01*
X643299Y106626D02*
G01*
X743299Y106626D01*
X743299Y-2568D02*
G01*
X743299Y413967D01*
X643299Y-2568D02*
G01*
X743299Y-2568D01*
D15*
X-54300Y-405875D02*
G01*
X-78910Y-405875D01*
X-78910Y-405875D01*
X-78910Y-84915D01*
X-78910Y-84915D01*
X-54300Y-84915D01*
X138699Y-405875D02*
G01*
X163310Y-405875D01*
X163310Y-405875D01*
X163310Y-84915D01*
X163310Y-84915D01*
X138699Y-84915D01*
D18*
X-307260Y-298850D02*
G01*
X-291829Y-298850D01*
X-204732Y-298850D02*
G01*
X-189149Y-298850D01*
X-189149Y-180740D02*
G01*
X-204732Y-180740D01*
X-291829Y-180740D02*
G01*
X-307260Y-180740D01*
X-307260Y-298850D02*
G01*
X-307260Y-283288D01*
X-307260Y-196251D02*
G01*
X-307260Y-180740D01*
X-189149Y-298850D02*
G01*
X-189149Y-283288D01*
X-189149Y-196192D02*
G01*
X-189149Y-180740D01*
D15*
X-227370Y487388D02*
G01*
X-227370Y518494D01*
X-266630Y518494D02*
G01*
X-266630Y487388D01*
X-260630Y481388D02*
G01*
X-233370Y481388D01*
X-227370Y567411D02*
G01*
X-227370Y536305D01*
X-266630Y536305D02*
G01*
X-266630Y567411D01*
X-260630Y573411D02*
G01*
X-233370Y573411D01*
X433189Y730542D02*
G01*
X433189Y699436D01*
X472449Y699436D02*
G01*
X472449Y730542D01*
X466449Y736541D02*
G01*
X439189Y736541D01*
X433189Y650518D02*
G01*
X433189Y681624D01*
X472449Y681624D02*
G01*
X472449Y650518D01*
X466449Y644517D02*
G01*
X439189Y644517D01*
X-72287Y6030D02*
G01*
X-103393Y6030D01*
X-103393Y-33229D02*
G01*
X-72287Y-33229D01*
X-66288Y-27229D02*
G01*
X-66288Y30D01*
X-152312Y6030D02*
G01*
X-121206Y6030D01*
X-121206Y-33229D02*
G01*
X-152312Y-33229D01*
X-158312Y-27229D02*
G01*
X-158312Y30D01*
X550869Y623912D02*
G01*
X550869Y592806D01*
X590129Y592806D02*
G01*
X590129Y623912D01*
X584129Y629911D02*
G01*
X556871Y629911D01*
X550869Y543888D02*
G01*
X550869Y574994D01*
X590129Y574994D02*
G01*
X590129Y543888D01*
X584129Y537887D02*
G01*
X556871Y537887D01*
X495469Y688605D02*
G01*
X495469Y716875D01*
X534729Y716875D01*
X534729Y688605D01*
X495469Y670794D02*
G01*
X495469Y642525D01*
X534729Y642525D01*
X534729Y670794D01*
X535848Y611046D02*
G01*
X535848Y573550D01*
X498352Y573550D01*
X498352Y611046D01*
X535848Y611046D01*
D19*
X-471392Y275374D02*
G01*
X-471392Y397424D01*
X-349342Y397424D02*
G01*
X-471392Y397424D01*
X-349393Y275374D02*
G01*
X-349393Y397424D01*
X-471392Y274423D02*
G01*
X-438393Y274423D01*
X-382393Y274423D02*
G01*
X-349393Y274423D01*
D20*
G75*
G01*
X-246820Y561380D02*
G03*
X-246820Y561210I-3939J-85D01*
D15*
G75*
G01*
X581188Y476330D02*
G03*
X575188Y470330I0J-6000D01*
G75*
G01*
X575188Y443070D02*
G03*
X581188Y437070I6000J0D01*
G75*
G01*
X661212Y476330D02*
G02*
X667212Y470330I0J-6000D01*
G75*
G01*
X667212Y443070D02*
G02*
X661212Y437070I-6000J0D01*
D21*
G75*
G01*
X576096Y252695D02*
G03*
X576096Y252795I4921J50D01*
D15*
G75*
G01*
X580908Y529760D02*
G03*
X574908Y523760I0J-6000D01*
G75*
G01*
X574908Y496500D02*
G03*
X580908Y490500I6000J0D01*
G75*
G01*
X660932Y529760D02*
G02*
X666932Y523760I0J-6000D01*
G75*
G01*
X666932Y496500D02*
G02*
X660932Y490500I-6000J0D01*
G75*
G01*
X-263351Y239522D02*
G03*
X-257351Y245522I0J6000D01*
G75*
G01*
X-257351Y264278D02*
G03*
X-263351Y270278I-6000J0D01*
G75*
G01*
X-305449Y239522D02*
G02*
X-311449Y245522I0J6000D01*
G75*
G01*
X-311449Y264278D02*
G02*
X-305449Y270278I6000J0D01*
G75*
G01*
X-468388Y224670D02*
G03*
X-462388Y230670I0J6000D01*
G75*
G01*
X-462388Y257930D02*
G03*
X-468388Y263930I-6000J0D01*
G75*
G01*
X-548412Y224670D02*
G02*
X-554412Y230670I0J6000D01*
G75*
G01*
X-554412Y257930D02*
G02*
X-548412Y263930I6000J0D01*
D17*
G75*
G01*
X-485580Y-138053D02*
G02*
X-484234Y-141748I559J-1889D01*
G75*
G01*
X-484234Y-141748D02*
G02*
X-485580Y-138053I-559J1889D01*
D15*
G75*
G01*
X-266630Y487388D02*
G03*
X-260630Y481388I6000J0D01*
G75*
G01*
X-233370Y481388D02*
G03*
X-227370Y487388I0J6000D01*
G75*
G01*
X-266630Y567412D02*
G02*
X-260630Y573412I6000J0D01*
G75*
G01*
X-233370Y573412D02*
G02*
X-227370Y567412I0J-6000D01*
G75*
G01*
X472450Y730542D02*
G03*
X466450Y736542I-6000J0D01*
G75*
G01*
X439190Y736542D02*
G03*
X433190Y730542I0J-6000D01*
G75*
G01*
X472450Y650518D02*
G02*
X466450Y644518I-6000J0D01*
G75*
G01*
X439190Y644518D02*
G02*
X433190Y650518I0J6000D01*
G75*
G01*
X-72288Y-33230D02*
G03*
X-66288Y-27230I0J6000D01*
G75*
G01*
X-66288Y30D02*
G03*
X-72288Y6030I-6000J0D01*
G75*
G01*
X-152312Y-33230D02*
G02*
X-158312Y-27230I0J6000D01*
G75*
G01*
X-158312Y30D02*
G02*
X-152312Y6030I6000J0D01*
G75*
G01*
X590130Y623912D02*
G03*
X584129Y629912I-6000J0D01*
G75*
G01*
X556871Y629912D02*
G03*
X550870Y623912I-1J-6000D01*
G75*
G01*
X590130Y543888D02*
G02*
X584129Y537888I-6000J0D01*
G75*
G01*
X556871Y537888D02*
G02*
X550870Y543888I-1J6000D01*
D19*
G75*
G01*
X-437393Y274424D02*
G02*
X-382393Y274424I27500J-8555D01*
D22*
G75*
G01
X-57880Y-420400D02*
G03X-57880Y-420400I-4920J0D01*
D18*
G75*
G01
X-173430Y-290540D02*
G03X-173430Y-290540I-2140J0D01*
D12*
G75*
G01
X489070Y602300D02*
G03X489070Y602300I-1970J0D01*
M02*
