G04 Layer: TopSolderMaskLayer*
G04 EasyEDA v6.5.22, 2023-01-25 14:37:09*
G04 a2e63df7a23446a2ae1eb019cd18a306,9a4ed40c0dd746429eaf55b84663d2fb,10*
G04 Gerber Generator version 0.2*
G04 Scale: 100 percent, Rotated: No, Reflected: No *
G04 Dimensions in inches *
G04 leading zeros omitted , absolute positions ,3 integer and 6 decimal *
%FSLAX36Y36*%
%MOIN*%

%AMMACRO1*1,1,$1,$2,$3*1,1,$1,$4,$5*1,1,$1,0-$2,0-$3*1,1,$1,0-$4,0-$5*20,1,$1,$2,$3,$4,$5,0*20,1,$1,$4,$5,0-$2,0-$3,0*20,1,$1,0-$2,0-$3,0-$4,0-$5,0*20,1,$1,0-$4,0-$5,$2,$3,0*4,1,4,$2,$3,$4,$5,0-$2,0-$3,0-$4,0-$5,$2,$3,0*%
%AMMACRO2*1,1,$1,$2,$3*1,1,$1,$4,$5*20,1,$1,$2,$3,$4,$5,0*%
%AMMACRO3*4,1,4,-0.0118,-0.0197,-0.0118,0.0197,0.0118,0.0197,0.0118,-0.0197,-0.0118,-0.0197,0*%
%AMMACRO4*4,1,4,-0.0119,-0.0197,-0.0119,0.0197,0.0119,0.0197,0.0119,-0.0197,-0.0119,-0.0197,0*%
%AMMACRO5*4,1,4,-0.0118,-0.0198,-0.0118,0.0198,0.0118,0.0198,0.0118,-0.0198,-0.0118,-0.0198,0*%
%AMMACRO6*4,1,4,-0.0119,-0.0198,-0.0119,0.0198,0.0119,0.0198,0.0119,-0.0198,-0.0119,-0.0198,0*%
%ADD10MACRO1,0.008X-0.0236X0.0236X0.0236X0.0236*%
%ADD11MACRO2,0.0512X-0.0139X0.0139X0.0139X-0.0139*%
%ADD12C,0.0335*%
%ADD13MACRO1,0.004X0.0156X0.0106X0.0156X-0.0106*%
%ADD14MACRO1,0.004X-0.0156X0.0106X-0.0156X-0.0106*%
%ADD15MACRO1,0.004X-0.0111X-0.0106X-0.0111X0.0106*%
%ADD16MACRO1,0.004X0.0111X-0.0106X0.0111X0.0106*%
%ADD17MACRO1,0.004X0.0106X-0.0111X-0.0106X-0.0111*%
%ADD18MACRO1,0.004X0.0106X0.0111X-0.0106X0.0111*%
%ADD19O,0.035496X0.015024000000000003*%
%ADD20O,0.015024000000000003X0.035496*%
%ADD21MACRO1,0.004X-0.006X-0.0064X-0.006X0.0064*%
%ADD22MACRO1,0.004X0.006X-0.0064X0.006X0.0064*%
%ADD23MACRO1,0.004X0.006X0.0064X0.006X-0.0064*%
%ADD24MACRO1,0.004X-0.006X0.0064X-0.006X-0.0064*%
%ADD25MACRO1,0.004X-0.0064X0.006X0.0064X0.006*%
%ADD26MACRO1,0.004X-0.0064X-0.006X0.0064X-0.006*%
%ADD27MACRO1,0.004X-0.0073X-0.0064X-0.0073X0.0064*%
%ADD28MACRO1,0.004X0.0073X-0.0064X0.0073X0.0064*%
%ADD29MACRO1,0.004X0.0064X-0.006X-0.0064X-0.006*%
%ADD30MACRO1,0.004X0.0064X0.006X-0.0064X0.006*%
%ADD31MACRO1,0.004X-0.0156X-0.0106X-0.0156X0.0106*%
%ADD32MACRO1,0.004X0.0156X-0.0106X0.0156X0.0106*%
%ADD33MACRO1,0.004X0.0225X-0.0044X-0.0145X-0.0178*%
%ADD34MACRO1,0.004X0.038X-0.0008X-0.0286X-0.0251*%
%ADD35MACRO1,0.008X-0.0157X0.0157X0.0157X0.0157*%
%ADD36MACRO3*%
%ADD37MACRO4*%
%ADD38MACRO1,0.008X-0.0158X0.0157X0.0158X0.0157*%
%ADD39MACRO1,0.008X-0.0158X0.0079X0.0158X0.0079*%
%ADD40MACRO1,0.008X-0.0158X0.0158X0.0158X0.0158*%
%ADD41MACRO5*%
%ADD42MACRO6*%
%ADD43MACRO1,0.008X-0.0157X0.0158X0.0157X0.0158*%
%ADD44MACRO1,0.008X-0.0157X0.0079X0.0157X0.0079*%
%ADD45MACRO1,0.004X-0.0335X-0.0335X-0.0335X0.0335*%
%ADD46C,0.0709*%
%ADD47MACRO1,0.004X-0.014X0.0343X0.014X0.0343*%
%ADD48MACRO1,0.004X0.0118X0.0049X0.0118X-0.0049*%
%ADD49MACRO1,0.004X-0.0049X0.0118X0.0049X0.0118*%
%ADD50MACRO1,0.004X-0.0118X-0.0049X-0.0118X0.0049*%
%ADD51MACRO1,0.004X0.0049X-0.0118X-0.0049X-0.0118*%
%ADD52MACRO1,0.004X0.0295X-0.0295X-0.0295X-0.0295*%
%ADD53MACRO1,0.004X-0.0106X0.0156X0.0106X0.0156*%
%ADD54MACRO1,0.004X-0.0106X-0.0156X0.0106X-0.0156*%
%ADD55MACRO1,0.004X0.0106X-0.0156X-0.0106X-0.0156*%
%ADD56MACRO1,0.004X0.0106X0.0156X-0.0106X0.0156*%
%ADD57MACRO1,0.004X-0.0106X0.0111X0.0106X0.0111*%
%ADD58MACRO1,0.004X-0.0106X-0.0111X0.0106X-0.0111*%
%ADD59C,0.0119*%
%ADD60MACRO1,0.0012X-0.0256X-0.0059X-0.0256X0.0059*%
%ADD61MACRO1,0.004X-0.0256X-0.0059X-0.0256X0.0059*%
%ADD62C,0.0102*%

%LPD*%
D10*
G01*
X81920Y327129D03*
G01*
X81920Y392089D03*
G01*
X146880Y392089D03*
G01*
X146880Y327129D03*
G01*
X146880Y262170D03*
G01*
X81920Y262170D03*
G01*
X16959Y262170D03*
G01*
X16959Y327129D03*
D11*
G01*
X542790Y69410D03*
G01*
X654140Y-41950D03*
G01*
X229879Y-243490D03*
G01*
X341240Y-354850D03*
D12*
G01*
X712139Y459130D03*
G01*
X625529Y609149D03*
G01*
X594319Y650889D03*
G01*
X465599Y766799D03*
D13*
G01*
X599740Y456700D03*
D14*
G01*
X642659Y456700D03*
D15*
G01*
X485340Y412699D03*
D16*
G01*
X451259Y412699D03*
D17*
G01*
X400699Y414440D03*
D18*
G01*
X400699Y380359D03*
D19*
G01*
X550519Y275329D03*
G01*
X550519Y295019D03*
G01*
X550519Y314699D03*
G01*
X550519Y334389D03*
G01*
X550519Y354070D03*
D20*
G01*
X515079Y369819D03*
G01*
X495399Y369819D03*
G01*
X475709Y369819D03*
D19*
G01*
X440280Y354070D03*
G01*
X440280Y334389D03*
G01*
X440280Y314699D03*
G01*
X440280Y295019D03*
G01*
X440280Y275329D03*
D20*
G01*
X475709Y259589D03*
G01*
X495399Y259589D03*
G01*
X515079Y259589D03*
D13*
G01*
X599461Y510129D03*
D14*
G01*
X642379Y510129D03*
D15*
G01*
X528760Y469829D03*
D16*
G01*
X494679Y469829D03*
D15*
G01*
X526560Y520029D03*
D16*
G01*
X492479Y520029D03*
D21*
G01*
X-186190Y-371100D03*
D22*
G01*
X-205209Y-371100D03*
D15*
G01*
X-317439Y423630D03*
D16*
G01*
X-351520Y423630D03*
D21*
G01*
X427629Y122229D03*
D22*
G01*
X408609Y122229D03*
D23*
G01*
X53189Y-7200D03*
D24*
G01*
X72209Y-7200D03*
D21*
G01*
X456210Y186799D03*
D22*
G01*
X437190Y186799D03*
D25*
G01*
X-107999Y-127210D03*
D26*
G01*
X-107999Y-108189D03*
D27*
G01*
X-273604Y254899D03*
D28*
G01*
X-295196Y254899D03*
D29*
G01*
X-181500Y-132090D03*
D30*
G01*
X-181500Y-151109D03*
D29*
G01*
X-132800Y-240790D03*
D30*
G01*
X-132800Y-259809D03*
D21*
G01*
X-167489Y-331500D03*
D22*
G01*
X-186509Y-331500D03*
D31*
G01*
X-486940Y244300D03*
D32*
G01*
X-529858Y244300D03*
D33*
G01*
X-542662Y102595D03*
D34*
G01*
X-374354Y221478D03*
G01*
X-245757Y-131834D03*
D33*
G01*
X-519774Y39710D03*
G01*
X-496882Y-23183D03*
G01*
X-473994Y-86067D03*
G01*
X-451104Y-148961D03*
D35*
G01*
X-190590Y600000D03*
D36*
G01*
X-149230Y599980D03*
D37*
G01*
X-115779Y599980D03*
D36*
G01*
X-82329Y599980D03*
G01*
X-48830Y599980D03*
D37*
G01*
X-15380Y599980D03*
D36*
G01*
X18070Y599980D03*
D37*
G01*
X51519Y599980D03*
D36*
G01*
X118470Y599980D03*
D37*
G01*
X85019Y599980D03*
G01*
X151919Y599980D03*
G01*
X185419Y599980D03*
D36*
G01*
X218870Y599980D03*
D37*
G01*
X252319Y599980D03*
D36*
G01*
X285769Y599980D03*
G01*
X319270Y599980D03*
D38*
G01*
X360589Y600000D03*
D39*
G01*
X360589Y558659D03*
G01*
X360589Y525199D03*
G01*
X360589Y491730D03*
G01*
X360589Y458270D03*
G01*
X360589Y424800D03*
G01*
X360589Y391340D03*
G01*
X360589Y357870D03*
G01*
X360589Y324410D03*
G01*
X360589Y290950D03*
G01*
X360589Y257480D03*
G01*
X360589Y224020D03*
G01*
X360589Y190550D03*
G01*
X360589Y157090D03*
G01*
X360589Y123620D03*
G01*
X360589Y90160D03*
D40*
G01*
X360589Y48819D03*
D41*
G01*
X319270Y48779D03*
G01*
X285769Y48779D03*
D42*
G01*
X252319Y48779D03*
D41*
G01*
X218870Y48779D03*
D42*
G01*
X185419Y48779D03*
G01*
X151919Y48779D03*
D41*
G01*
X118470Y48779D03*
D42*
G01*
X85019Y48779D03*
G01*
X51519Y48779D03*
D41*
G01*
X18070Y48779D03*
D42*
G01*
X-15380Y48779D03*
D41*
G01*
X-48830Y48779D03*
G01*
X-82329Y48779D03*
D42*
G01*
X-115779Y48779D03*
D41*
G01*
X-149230Y48779D03*
D43*
G01*
X-190590Y48819D03*
D44*
G01*
X-190590Y90160D03*
G01*
X-190590Y123620D03*
G01*
X-190590Y157090D03*
G01*
X-190590Y190550D03*
G01*
X-190590Y224020D03*
G01*
X-190590Y257480D03*
G01*
X-190590Y290950D03*
G01*
X-190590Y324410D03*
G01*
X-190590Y357870D03*
G01*
X-190590Y391340D03*
G01*
X-190590Y424800D03*
G01*
X-190590Y458270D03*
G01*
X-190590Y491730D03*
G01*
X-190590Y558659D03*
G01*
X-190590Y525199D03*
D45*
G01*
X693299Y55699D03*
D46*
G01*
X693299Y155700D03*
G01*
X693299Y255700D03*
G01*
X693299Y355700D03*
D47*
G01*
X-32800Y-402695D03*
G01*
X17199Y-402695D03*
G01*
X67199Y-402695D03*
G01*
X117199Y-402695D03*
G01*
X117199Y-88105D03*
G01*
X67199Y-88105D03*
G01*
X17199Y-88105D03*
G01*
X-32800Y-88105D03*
D48*
G01*
X-189147Y-269268D03*
G01*
X-189146Y-249583D03*
G01*
X-189147Y-229898D03*
G01*
X-189147Y-210212D03*
D49*
G01*
X-218754Y-180744D03*
G01*
X-238439Y-180744D03*
G01*
X-258124Y-180746D03*
G01*
X-277809Y-180744D03*
D50*
G01*
X-307255Y-210272D03*
G01*
X-307255Y-229958D03*
G01*
X-307255Y-249643D03*
G01*
X-307256Y-269268D03*
D51*
G01*
X-277809Y-298855D03*
G01*
X-258124Y-298855D03*
G01*
X-238439Y-298855D03*
G01*
X-218754Y-298855D03*
D52*
G01*
X-248199Y-239800D03*
D53*
G01*
X-246999Y505940D03*
D54*
G01*
X-246999Y548858D03*
D55*
G01*
X452820Y711988D03*
D56*
G01*
X452820Y669070D03*
D31*
G01*
X-90841Y-13600D03*
D32*
G01*
X-133759Y-13600D03*
D55*
G01*
X570500Y605358D03*
D56*
G01*
X570500Y562440D03*
D57*
G01*
X515100Y662659D03*
D58*
G01*
X515100Y696740D03*
D59*
G01*
X509229Y600169D03*
G01*
X524970Y600169D03*
G01*
X509229Y584429D03*
G01*
X524970Y584429D03*
D60*
G01*
X-318380Y298153D03*
G01*
X-318381Y317833D03*
G01*
X-318381Y337514D03*
G01*
X-318381Y357204D03*
G01*
X-318381Y376893D03*
D61*
G01*
X-503420Y376884D03*
G01*
X-503420Y357204D03*
G01*
X-503420Y337523D03*
G01*
X-503420Y317834D03*
G01*
X-503420Y298143D03*
M02*
