G04 Layer: BottomSilkscreenLayer*
G04 EasyEDA v6.5.22, 2023-01-25 14:37:09*
G04 a2e63df7a23446a2ae1eb019cd18a306,9a4ed40c0dd746429eaf55b84663d2fb,10*
G04 Gerber Generator version 0.2*
G04 Scale: 100 percent, Rotated: No, Reflected: No *
G04 Dimensions in inches *
G04 leading zeros omitted , absolute positions ,3 integer and 6 decimal *
%FSLAX36Y36*%
%MOIN*%

%ADD10C,0.0060*%
%ADD11C,0.0050*%
%ADD12C,0.0039*%
%ADD13C,0.0100*%
%ADD14C,0.0079*%
%ADD15C,0.0059*%
%ADD16C,0.0098*%
%ADD17C,0.0189*%

%LPD*%
G36*
X340500Y343200D02*
G01*
X335400Y343060D01*
X330319Y342660D01*
X325420Y341980D01*
X320760Y341060D01*
X316460Y339880D01*
X314200Y339120D01*
X309760Y337340D01*
X305460Y335280D01*
X301280Y332920D01*
X297260Y330300D01*
X293420Y327420D01*
X289760Y324300D01*
X286280Y320959D01*
X283020Y317400D01*
X279980Y313660D01*
X277180Y309740D01*
X274620Y305640D01*
X272340Y301420D01*
X270340Y297040D01*
X268620Y292560D01*
X267220Y287980D01*
X266773Y286180D01*
X302100Y286180D01*
X302200Y288000D01*
X302540Y289820D01*
X303160Y291560D01*
X304000Y293220D01*
X305060Y294760D01*
X306360Y296140D01*
X307880Y297320D01*
X309580Y298280D01*
X311500Y298980D01*
X313460Y299360D01*
X315420Y299460D01*
X317360Y299260D01*
X319240Y298760D01*
X321060Y297980D01*
X322760Y296920D01*
X324300Y295580D01*
X325640Y294060D01*
X326659Y292420D01*
X327420Y290720D01*
X327879Y289000D01*
X328080Y287240D01*
X328020Y285500D01*
X327720Y283800D01*
X327180Y282160D01*
X326420Y280600D01*
X325439Y279140D01*
X324240Y277840D01*
X322860Y276680D01*
X321300Y275720D01*
X319540Y274960D01*
X317640Y274440D01*
X315580Y274180D01*
X312300Y274340D01*
X309480Y275200D01*
X306920Y276860D01*
X304500Y279380D01*
X303460Y280940D01*
X302720Y282600D01*
X302280Y284360D01*
X302100Y286180D01*
X266773Y286180D01*
X266200Y283440D01*
X265820Y280920D01*
X265320Y275240D01*
X265108Y267820D01*
X273700Y267820D01*
X273800Y275720D01*
X273960Y278540D01*
X274140Y280060D01*
X274660Y281860D01*
X294140Y281860D01*
X294560Y279960D01*
X295520Y277440D01*
X297280Y274680D01*
X299540Y272020D01*
X302060Y269800D01*
X304340Y268300D01*
X306680Y267120D01*
X309060Y266240D01*
X311480Y265660D01*
X313900Y265360D01*
X316340Y265380D01*
X318740Y265700D01*
X321140Y266320D01*
X323480Y267220D01*
X325760Y268420D01*
X327980Y269920D01*
X330100Y271720D01*
X331680Y273300D01*
X333000Y274920D01*
X334080Y276580D01*
X334940Y278340D01*
X335580Y280200D01*
X336040Y282200D01*
X336300Y284380D01*
X336380Y286760D01*
X336320Y289020D01*
X336100Y291060D01*
X335700Y292920D01*
X335120Y294660D01*
X334340Y296340D01*
X333320Y297980D01*
X332080Y299640D01*
X330540Y301360D01*
X328740Y303060D01*
X326780Y304520D01*
X324700Y305700D01*
X322500Y306640D01*
X320220Y307320D01*
X317900Y307740D01*
X315540Y307920D01*
X313180Y307840D01*
X310840Y307520D01*
X308560Y306980D01*
X306340Y306180D01*
X304200Y305140D01*
X302200Y303860D01*
X300360Y302340D01*
X298680Y300600D01*
X297200Y298640D01*
X295500Y295720D01*
X294880Y294420D01*
X294540Y293460D01*
X294100Y291660D01*
X282400Y291680D01*
X277900Y291860D01*
X277240Y292000D01*
X277940Y293640D01*
X279620Y297060D01*
X281980Y301360D01*
X284620Y305480D01*
X287520Y309380D01*
X290680Y313080D01*
X294060Y316520D01*
X295820Y318160D01*
X299520Y321220D01*
X303400Y324020D01*
X307460Y326540D01*
X311640Y328740D01*
X315980Y330640D01*
X318180Y331460D01*
X322680Y332840D01*
X324540Y333260D01*
X326719Y333640D01*
X331780Y334200D01*
X337340Y334500D01*
X342980Y334560D01*
X348160Y334320D01*
X350439Y334099D01*
X352420Y333800D01*
X355000Y333280D01*
X357540Y332660D01*
X362480Y331140D01*
X364900Y330240D01*
X367260Y329240D01*
X371840Y326960D01*
X376240Y324320D01*
X380460Y321300D01*
X384480Y317900D01*
X386420Y316080D01*
X390940Y311380D01*
X392819Y309300D01*
X393940Y307860D01*
X394260Y306900D01*
X393800Y306360D01*
X392540Y306100D01*
X390480Y306020D01*
X380200Y306020D01*
X379380Y308680D01*
X378600Y310740D01*
X377640Y312660D01*
X376500Y314440D01*
X375180Y316040D01*
X373740Y317500D01*
X372140Y318800D01*
X370439Y319940D01*
X368640Y320900D01*
X366740Y321700D01*
X364799Y322299D01*
X362780Y322720D01*
X360740Y322960D01*
X358680Y323020D01*
X356599Y322879D01*
X354540Y322520D01*
X352500Y321980D01*
X350500Y321220D01*
X348579Y320260D01*
X346719Y319080D01*
X344940Y317680D01*
X343340Y316100D01*
X341940Y314400D01*
X340760Y312600D01*
X339760Y310680D01*
X339000Y308700D01*
X338420Y306660D01*
X338060Y304580D01*
X337900Y302460D01*
X337919Y301780D01*
X346860Y301780D01*
X347140Y305320D01*
X348060Y308140D01*
X349720Y310480D01*
X352260Y312580D01*
X354980Y313820D01*
X358200Y314380D01*
X361520Y314220D01*
X364520Y313320D01*
X366780Y311980D01*
X368660Y310300D01*
X370140Y308340D01*
X371200Y306180D01*
X371820Y303860D01*
X371980Y301440D01*
X371640Y298980D01*
X370800Y296540D01*
X369620Y294440D01*
X368120Y292700D01*
X366380Y291300D01*
X364440Y290240D01*
X362380Y289540D01*
X360220Y289200D01*
X358020Y289200D01*
X355840Y289600D01*
X353740Y290340D01*
X351780Y291460D01*
X349980Y292960D01*
X348420Y294840D01*
X347640Y296180D01*
X347160Y297580D01*
X346940Y299340D01*
X346860Y301780D01*
X337919Y301780D01*
X337960Y300340D01*
X338220Y298220D01*
X338700Y296140D01*
X339380Y294100D01*
X340260Y292120D01*
X341380Y290220D01*
X342680Y288420D01*
X344219Y286720D01*
X345959Y285120D01*
X347720Y283780D01*
X349560Y282700D01*
X351460Y281840D01*
X353480Y281220D01*
X355600Y280840D01*
X357860Y280680D01*
X360280Y280720D01*
X363440Y281080D01*
X366360Y281800D01*
X369060Y282880D01*
X371500Y284300D01*
X373680Y286060D01*
X375620Y288180D01*
X377299Y290620D01*
X378720Y293400D01*
X380220Y296860D01*
X400660Y296880D01*
X402800Y291460D01*
X404060Y287600D01*
X405020Y283740D01*
X405680Y279720D01*
X406100Y275360D01*
X406280Y270500D01*
X406260Y264740D01*
X406100Y260000D01*
X405740Y256400D01*
X405060Y253020D01*
X403880Y248760D01*
X403100Y246400D01*
X401260Y241759D01*
X399060Y237280D01*
X396520Y232940D01*
X393680Y228800D01*
X392160Y226800D01*
X388900Y223000D01*
X385400Y219460D01*
X381680Y216200D01*
X377780Y213280D01*
X373680Y210680D01*
X369440Y208480D01*
X365300Y206720D01*
X361840Y205440D01*
X358960Y204660D01*
X358960Y223560D01*
X361880Y224680D01*
X363420Y225380D01*
X365000Y226360D01*
X366620Y227560D01*
X368220Y228920D01*
X369720Y230400D01*
X371079Y231960D01*
X372260Y233540D01*
X373200Y235100D01*
X374140Y237060D01*
X374660Y238920D01*
X374920Y241260D01*
X374980Y244640D01*
X374920Y247220D01*
X374700Y249480D01*
X374320Y251480D01*
X373760Y253299D01*
X372960Y255000D01*
X371900Y256620D01*
X370600Y258240D01*
X368980Y259940D01*
X367280Y261500D01*
X365660Y262780D01*
X364060Y263820D01*
X362400Y264600D01*
X360620Y265180D01*
X358680Y265560D01*
X356520Y265780D01*
X354060Y265840D01*
X350959Y265800D01*
X348700Y265580D01*
X346880Y265100D01*
X345060Y264340D01*
X343440Y263420D01*
X341840Y262320D01*
X340280Y261060D01*
X338800Y259660D01*
X337420Y258140D01*
X336200Y256560D01*
X335140Y254920D01*
X334260Y253280D01*
X333500Y251340D01*
X332960Y249240D01*
X332600Y247079D01*
X332460Y244860D01*
X332484Y243939D01*
X341120Y243939D01*
X341200Y246060D01*
X341640Y248140D01*
X342420Y250159D01*
X343540Y252060D01*
X345020Y253820D01*
X346820Y255360D01*
X348960Y256640D01*
X350720Y257300D01*
X352660Y257620D01*
X354660Y257620D01*
X356700Y257300D01*
X358680Y256680D01*
X360560Y255799D01*
X362239Y254640D01*
X363680Y253240D01*
X364840Y251600D01*
X365720Y249860D01*
X366320Y248020D01*
X366659Y246140D01*
X366719Y244240D01*
X366520Y242360D01*
X366060Y240539D01*
X365360Y238800D01*
X364400Y237200D01*
X363220Y235760D01*
X361800Y234500D01*
X360160Y233480D01*
X358560Y232840D01*
X356780Y232420D01*
X354900Y232220D01*
X352980Y232240D01*
X351100Y232460D01*
X349300Y232920D01*
X347680Y233560D01*
X346300Y234400D01*
X344500Y236020D01*
X343100Y237840D01*
X342080Y239780D01*
X341420Y241820D01*
X341120Y243939D01*
X332484Y243939D01*
X332520Y242640D01*
X332800Y240500D01*
X333260Y238480D01*
X333960Y236640D01*
X334860Y234899D01*
X336040Y233140D01*
X337420Y231420D01*
X338960Y229760D01*
X340600Y228240D01*
X342299Y226900D01*
X343980Y225780D01*
X345620Y224960D01*
X349159Y223500D01*
X349159Y202280D01*
X343280Y201620D01*
X340980Y201520D01*
X336100Y201700D01*
X330920Y202320D01*
X325560Y203380D01*
X320140Y204840D01*
X317440Y205720D01*
X314760Y206700D01*
X310160Y208700D01*
X305720Y211100D01*
X303560Y212440D01*
X299420Y215380D01*
X295480Y218660D01*
X293600Y220400D01*
X290060Y224100D01*
X286780Y228060D01*
X283820Y232260D01*
X281180Y236660D01*
X278900Y241260D01*
X277900Y243600D01*
X276180Y248400D01*
X274980Y252840D01*
X274280Y256320D01*
X273900Y259960D01*
X273700Y267820D01*
X265108Y267820D01*
X265200Y262920D01*
X265600Y257220D01*
X265920Y254700D01*
X266320Y252480D01*
X267480Y247760D01*
X268920Y243180D01*
X270620Y238740D01*
X272620Y234440D01*
X274880Y230300D01*
X277400Y226280D01*
X280200Y222440D01*
X283280Y218740D01*
X286600Y215200D01*
X290200Y211820D01*
X294000Y208680D01*
X298000Y205820D01*
X302160Y203240D01*
X306460Y200940D01*
X310900Y198939D01*
X315460Y197240D01*
X317780Y196480D01*
X322480Y195219D01*
X327260Y194259D01*
X332080Y193600D01*
X336960Y193260D01*
X341840Y193220D01*
X346740Y193500D01*
X351620Y194100D01*
X356460Y195020D01*
X361260Y196280D01*
X363640Y197020D01*
X369200Y199060D01*
X371780Y200159D01*
X374260Y201340D01*
X379000Y203939D01*
X383540Y206960D01*
X388000Y210479D01*
X392520Y214560D01*
X395720Y217800D01*
X398680Y221200D01*
X401420Y224740D01*
X403900Y228420D01*
X406140Y232240D01*
X408140Y236180D01*
X409880Y240219D01*
X411380Y244380D01*
X412640Y248640D01*
X413640Y252979D01*
X414380Y257399D01*
X414860Y261900D01*
X415080Y266480D01*
X415040Y271100D01*
X414739Y275780D01*
X414180Y280500D01*
X412840Y287640D01*
X411620Y292180D01*
X409980Y296620D01*
X407879Y301140D01*
X405319Y305680D01*
X402420Y310180D01*
X399200Y314540D01*
X395720Y318680D01*
X392040Y322540D01*
X390140Y324340D01*
X386260Y327640D01*
X384300Y329120D01*
X379820Y332040D01*
X375160Y334780D01*
X370800Y337020D01*
X366520Y338820D01*
X362160Y340260D01*
X357520Y341440D01*
X352780Y342320D01*
X348020Y342900D01*
X343040Y343160D01*
G37*
D10*
X547173Y634773D02*
G01*
X523549Y611149D01*
X547173Y634773D02*
G01*
X537048Y644897D01*
X532548Y647148D01*
X530299Y647148D01*
X526925Y646023D01*
X524674Y643773D01*
X523549Y640398D01*
X523549Y638148D01*
X525799Y633649D01*
X535923Y623523D02*
G01*
X525799Y633649D01*
X521300Y635898D01*
X519049Y635898D01*
X515675Y634773D01*
X512300Y631399D01*
X511175Y628024D01*
X511175Y625774D01*
X513424Y621273D01*
X523549Y611149D01*
X517249Y664697D02*
G01*
X518374Y661322D01*
X518374Y656822D01*
X517249Y653447D01*
X515000Y648948D01*
X509376Y643323D01*
X504875Y641073D01*
X501500Y639947D01*
X497001Y639947D01*
X493625Y641073D01*
X489126Y645572D01*
X488001Y648948D01*
X488001Y653447D01*
X489126Y656822D01*
X491377Y661322D01*
X497001Y666947D01*
X501500Y669196D01*
X504875Y670322D01*
X509376Y670322D01*
X512749Y669196D01*
X517249Y664697D01*
X491827Y690120D02*
G01*
X492951Y686745D01*
X492951Y682246D01*
X491827Y678870D01*
X489576Y674371D01*
X483951Y668746D01*
X479452Y666496D01*
X476076Y665371D01*
X471577Y665371D01*
X468203Y666496D01*
X463702Y670996D01*
X462578Y674371D01*
X462578Y678870D01*
X463702Y682246D01*
X465952Y686745D01*
X471577Y692370D01*
X476076Y694621D01*
X479452Y695745D01*
X483951Y695745D01*
X487326Y694621D01*
X491827Y690120D01*
X465277Y716669D02*
G01*
X441653Y693045D01*
X473153Y708795D02*
G01*
X457402Y724544D01*
X669585Y443359D02*
G01*
X640653Y426655D01*
X669585Y443359D02*
G01*
X662426Y455758D01*
X658662Y459097D01*
X656490Y459679D01*
X652938Y459465D01*
X650182Y457874D01*
X648222Y454906D01*
X647641Y452732D01*
X648649Y447804D01*
X655808Y435405D01*
X650240Y445048D02*
G01*
X629516Y445942D01*
X653199Y471741D02*
G01*
X624266Y455036D01*
X653199Y471741D02*
G01*
X642858Y489652D01*
X639421Y463786D02*
G01*
X633059Y474809D01*
X624266Y455036D02*
G01*
X613926Y472948D01*
X622339Y515648D02*
G01*
X626685Y514483D01*
X630450Y511145D01*
X633631Y505634D01*
X634639Y500704D01*
X633476Y496358D01*
X630720Y494767D01*
X627169Y494555D01*
X624996Y495136D01*
X622026Y497096D01*
X614498Y503773D01*
X611530Y505733D01*
X609357Y506314D01*
X605806Y506102D01*
X601673Y503715D01*
X600507Y499369D01*
X601517Y494441D01*
X604699Y488930D01*
X608463Y485592D01*
X612808Y484427D01*
X621223Y527127D02*
G01*
X592290Y510423D01*
X621223Y527127D02*
G01*
X610882Y545037D01*
X607444Y519173D02*
G01*
X601080Y530194D01*
X592290Y510423D02*
G01*
X581948Y528333D01*
X600064Y563775D02*
G01*
X571130Y547071D01*
X605631Y554131D02*
G01*
X594495Y573420D01*
D11*
X538954Y110599D02*
G01*
X540545Y113782D01*
X545317Y118555D01*
X511908Y118553D01*
X537363Y130646D02*
G01*
X538954Y130644D01*
X542137Y132235D01*
X543726Y133827D01*
X545317Y137008D01*
X545317Y143373D01*
X543726Y146554D01*
X542136Y148144D01*
X538954Y149735D01*
X535772Y149735D01*
X532591Y148144D01*
X527817Y144963D01*
X511908Y129054D01*
X511908Y151327D01*
X97169Y-14596D02*
G01*
X97169Y-43234D01*
X97169Y-14596D02*
G01*
X84897Y-14596D01*
X80806Y-15961D01*
X79443Y-17325D01*
X78078Y-20052D01*
X78078Y-22779D01*
X79443Y-25506D01*
X80806Y-26869D01*
X84897Y-28234D01*
X97169Y-28234D01*
X87624Y-28234D02*
G01*
X78078Y-43234D01*
X66351Y-14596D02*
G01*
X51351Y-14596D01*
X59534Y-25506D01*
X55442Y-25506D01*
X52714Y-26869D01*
X51351Y-28234D01*
X49988Y-32325D01*
X49988Y-35052D01*
X51351Y-39142D01*
X54079Y-41869D01*
X58170Y-43234D01*
X62260Y-43234D01*
X66351Y-41869D01*
X67714Y-40506D01*
X69079Y-37779D01*
X27352Y-14596D02*
G01*
X40987Y-33688D01*
X20533Y-33688D01*
X27352Y-14596D02*
G01*
X27352Y-43234D01*
X-350820Y-209302D02*
G01*
X-350820Y-233166D01*
X-350820Y-209302D02*
G01*
X-361046Y-209302D01*
X-364456Y-210439D01*
X-365592Y-211574D01*
X-366729Y-213847D01*
X-366729Y-216120D01*
X-365592Y-218393D01*
X-364456Y-219529D01*
X-361046Y-220666D01*
X-350820Y-220666D01*
X-358775Y-220666D02*
G01*
X-366729Y-233166D01*
X-374229Y-213847D02*
G01*
X-376502Y-212712D01*
X-379911Y-209302D01*
X-379911Y-233166D01*
X-394229Y-209302D02*
G01*
X-390820Y-210439D01*
X-388546Y-213847D01*
X-387411Y-219529D01*
X-387411Y-222939D01*
X-388546Y-228620D01*
X-390820Y-232029D01*
X-394229Y-233166D01*
X-396502Y-233166D01*
X-399911Y-232029D01*
X-402183Y-228620D01*
X-403320Y-222939D01*
X-403320Y-219529D01*
X-402183Y-213847D01*
X-399911Y-210439D01*
X-396502Y-209302D01*
X-394229Y-209302D01*
X548599Y528072D02*
G01*
X548599Y499436D01*
X548599Y528072D02*
G01*
X536327Y528072D01*
X532236Y526709D01*
X530873Y525344D01*
X529508Y522617D01*
X529508Y519890D01*
X530873Y517163D01*
X532236Y515799D01*
X536327Y514436D01*
X548599Y514436D01*
X539054Y514436D02*
G01*
X529508Y499436D01*
X519144Y521255D02*
G01*
X519144Y522617D01*
X517781Y525344D01*
X516418Y526709D01*
X513690Y528072D01*
X508235Y528072D01*
X505509Y526709D01*
X504144Y525344D01*
X502781Y522617D01*
X502781Y519890D01*
X504144Y517163D01*
X506872Y513072D01*
X520509Y499436D01*
X501418Y499436D01*
X476054Y528072D02*
G01*
X489691Y528072D01*
X491054Y515799D01*
X489691Y517163D01*
X485599Y518526D01*
X481508Y518526D01*
X477417Y517163D01*
X474691Y514436D01*
X473326Y510344D01*
X473326Y507617D01*
X474691Y503526D01*
X477417Y500799D01*
X481508Y499436D01*
X485599Y499436D01*
X489691Y500799D01*
X491054Y502163D01*
X492417Y504890D01*
X-86500Y525572D02*
G01*
X-86500Y496936D01*
X-86500Y525572D02*
G01*
X-98773Y525572D01*
X-102863Y524209D01*
X-104227Y522844D01*
X-105591Y520117D01*
X-105591Y517390D01*
X-104227Y514663D01*
X-102863Y513299D01*
X-98773Y511936D01*
X-86500Y511936D01*
X-96045Y511936D02*
G01*
X-105591Y496936D01*
X-115955Y518755D02*
G01*
X-115955Y520117D01*
X-117318Y522844D01*
X-118681Y524209D01*
X-121409Y525572D01*
X-126864Y525572D01*
X-129591Y524209D01*
X-130955Y522844D01*
X-132318Y520117D01*
X-132318Y517390D01*
X-130955Y514663D01*
X-128226Y510572D01*
X-114591Y496936D01*
X-133681Y496936D01*
X-159045Y521482D02*
G01*
X-157682Y524209D01*
X-153590Y525572D01*
X-150864Y525572D01*
X-146773Y524209D01*
X-144045Y520117D01*
X-142682Y513299D01*
X-142682Y506482D01*
X-144045Y501026D01*
X-146773Y498299D01*
X-150864Y496936D01*
X-152227Y496936D01*
X-156318Y498299D01*
X-159045Y501026D01*
X-160408Y505117D01*
X-160408Y506482D01*
X-159045Y510572D01*
X-156318Y513299D01*
X-152227Y514663D01*
X-150864Y514663D01*
X-146773Y513299D01*
X-144045Y510572D01*
X-142682Y506482D01*
X9600Y497773D02*
G01*
X9600Y469135D01*
X9600Y497773D02*
G01*
X-2673Y497773D01*
X-6764Y496408D01*
X-8127Y495045D01*
X-9490Y492318D01*
X-9490Y489591D01*
X-8127Y486864D01*
X-6764Y485500D01*
X-2673Y484135D01*
X9600Y484135D01*
X55Y484135D02*
G01*
X-9490Y469135D01*
X-19854Y490954D02*
G01*
X-19854Y492318D01*
X-21217Y495045D01*
X-22582Y496408D01*
X-25308Y497773D01*
X-30763Y497773D01*
X-33491Y496408D01*
X-34854Y495045D01*
X-36217Y492318D01*
X-36217Y489591D01*
X-34854Y486864D01*
X-32127Y482773D01*
X-18491Y469135D01*
X-37582Y469135D01*
X-65672Y497773D02*
G01*
X-52035Y469135D01*
X-46581Y497773D02*
G01*
X-65672Y497773D01*
X55500Y449773D02*
G01*
X55500Y421136D01*
X55500Y449773D02*
G01*
X43226Y449773D01*
X39135Y448409D01*
X37772Y447044D01*
X36409Y444317D01*
X36409Y441590D01*
X37772Y438863D01*
X39135Y437500D01*
X43226Y436136D01*
X55500Y436136D01*
X45954Y436136D02*
G01*
X36409Y421136D01*
X26044Y442955D02*
G01*
X26044Y444317D01*
X24682Y447044D01*
X23317Y448409D01*
X20590Y449773D01*
X15136Y449773D01*
X12408Y448409D01*
X11044Y447044D01*
X9682Y444317D01*
X9682Y441590D01*
X11044Y438863D01*
X13773Y434773D01*
X27408Y421136D01*
X8317Y421136D01*
X-7500Y449773D02*
G01*
X-3409Y448409D01*
X-2044Y445682D01*
X-2044Y442955D01*
X-3409Y440226D01*
X-6135Y438863D01*
X-11590Y437500D01*
X-15681Y436136D01*
X-18409Y433409D01*
X-19773Y430682D01*
X-19773Y426590D01*
X-18409Y423863D01*
X-17044Y422500D01*
X-12955Y421136D01*
X-7500Y421136D01*
X-3409Y422500D01*
X-2044Y423863D01*
X-681Y426590D01*
X-681Y430682D01*
X-2044Y433409D01*
X-4773Y436136D01*
X-8864Y437500D01*
X-14318Y438863D01*
X-17044Y440226D01*
X-18409Y442955D01*
X-18409Y445682D01*
X-17044Y448409D01*
X-12955Y449773D01*
X-7500Y449773D01*
X164526Y499400D02*
G01*
X193163Y499400D01*
X164526Y499400D02*
G01*
X164526Y487127D01*
X165891Y483036D01*
X167254Y481673D01*
X169981Y480309D01*
X172708Y480309D01*
X175435Y481673D01*
X176800Y483036D01*
X178163Y487127D01*
X178163Y499400D01*
X178163Y489854D02*
G01*
X193163Y480309D01*
X164526Y468582D02*
G01*
X164526Y453582D01*
X175435Y461763D01*
X175435Y457672D01*
X176800Y454944D01*
X178163Y453582D01*
X182254Y452217D01*
X184981Y452217D01*
X189072Y453582D01*
X191800Y456309D01*
X193163Y460399D01*
X193163Y464490D01*
X191800Y468582D01*
X190435Y469944D01*
X187708Y471309D01*
X169981Y443218D02*
G01*
X168617Y440491D01*
X164526Y436399D01*
X193163Y436399D01*
X415699Y523272D02*
G01*
X415699Y494636D01*
X415699Y523272D02*
G01*
X403427Y523272D01*
X399336Y521909D01*
X397973Y520545D01*
X396608Y517817D01*
X396608Y515090D01*
X397973Y512363D01*
X399336Y510999D01*
X403427Y509636D01*
X415699Y509636D01*
X406154Y509636D02*
G01*
X396608Y494636D01*
X384881Y523272D02*
G01*
X369881Y523272D01*
X378063Y512363D01*
X373972Y512363D01*
X371244Y510999D01*
X369881Y509636D01*
X368517Y505545D01*
X368517Y502817D01*
X369881Y498726D01*
X372609Y495999D01*
X376700Y494636D01*
X380790Y494636D01*
X384881Y495999D01*
X386244Y497363D01*
X387609Y500090D01*
X358154Y516455D02*
G01*
X358154Y517817D01*
X356791Y520545D01*
X355426Y521909D01*
X352699Y523272D01*
X347245Y523272D01*
X344517Y521909D01*
X343154Y520545D01*
X341791Y517817D01*
X341791Y515090D01*
X343154Y512363D01*
X345882Y508272D01*
X359517Y494636D01*
X340426Y494636D01*
X483499Y615273D02*
G01*
X483499Y586635D01*
X483499Y615273D02*
G01*
X471226Y615273D01*
X467136Y613908D01*
X465772Y612545D01*
X464408Y609818D01*
X464408Y607091D01*
X465772Y604364D01*
X467136Y603000D01*
X471226Y601635D01*
X483499Y601635D01*
X473954Y601635D02*
G01*
X464408Y586635D01*
X452681Y615273D02*
G01*
X437681Y615273D01*
X445864Y604364D01*
X441773Y604364D01*
X439044Y603000D01*
X437681Y601635D01*
X436318Y597545D01*
X436318Y594818D01*
X437681Y590727D01*
X440408Y588000D01*
X444499Y586635D01*
X448590Y586635D01*
X452681Y588000D01*
X454044Y589364D01*
X455408Y592091D01*
X424591Y615273D02*
G01*
X409591Y615273D01*
X417772Y604364D01*
X413681Y604364D01*
X410954Y603000D01*
X409591Y601635D01*
X408226Y597545D01*
X408226Y594818D01*
X409591Y590727D01*
X412317Y588000D01*
X416409Y586635D01*
X420500Y586635D01*
X424591Y588000D01*
X425954Y589364D01*
X427317Y592091D01*
X-40900Y243373D02*
G01*
X-40900Y214735D01*
X-40900Y243373D02*
G01*
X-53172Y243373D01*
X-57264Y242008D01*
X-58626Y240644D01*
X-59990Y237917D01*
X-59990Y235190D01*
X-58626Y232463D01*
X-57264Y231100D01*
X-53172Y229735D01*
X-40900Y229735D01*
X-50444Y229735D02*
G01*
X-59990Y214735D01*
X-86718Y233827D02*
G01*
X-85354Y229735D01*
X-82627Y227008D01*
X-78536Y225644D01*
X-77173Y225644D01*
X-73082Y227008D01*
X-70354Y229735D01*
X-68991Y233827D01*
X-68991Y235190D01*
X-70354Y239281D01*
X-73082Y242008D01*
X-77173Y243373D01*
X-78536Y243373D01*
X-82627Y242008D01*
X-85354Y239281D01*
X-86718Y233827D01*
X-86718Y227008D01*
X-85354Y220190D01*
X-82627Y216100D01*
X-78536Y214735D01*
X-75808Y214735D01*
X-71718Y216100D01*
X-70354Y218827D01*
X-546517Y-16736D02*
G01*
X-521716Y-2418D01*
X-546517Y-16736D02*
G01*
X-540380Y-27364D01*
X-537154Y-30226D01*
X-535290Y-30725D01*
X-532247Y-30542D01*
X-529885Y-29178D01*
X-528206Y-26633D01*
X-527705Y-24771D01*
X-528571Y-20547D01*
X-534706Y-9918D01*
X-529935Y-18184D02*
G01*
X-512170Y-18951D01*
X-531108Y-43425D02*
G01*
X-523608Y-56415D01*
X-518252Y-43876D01*
X-516206Y-47418D01*
X-513661Y-49099D01*
X-511797Y-49598D01*
X-507573Y-48733D01*
X-505212Y-47370D01*
X-502350Y-44142D01*
X-501352Y-40417D01*
X-502217Y-36192D01*
X-504261Y-32649D01*
X-507489Y-29789D01*
X-509351Y-29290D01*
X-512394Y-29472D01*
D10*
X-355100Y-180199D02*
G01*
X-398000Y-180199D01*
X-398000Y-180199D02*
G01*
X-398000Y-155700D01*
X-363299Y-142199D02*
G01*
X-361199Y-138099D01*
X-355100Y-131900D01*
X-398000Y-131900D01*
D11*
X-459499Y544472D02*
G01*
X-459499Y515835D01*
X-459499Y515835D02*
G01*
X-475864Y515835D01*
X-486226Y537654D02*
G01*
X-486226Y539018D01*
X-487591Y541745D01*
X-488955Y543108D01*
X-491682Y544472D01*
X-497136Y544472D01*
X-499863Y543108D01*
X-501226Y541745D01*
X-502591Y539018D01*
X-502591Y536291D01*
X-501226Y533564D01*
X-498500Y529472D01*
X-484863Y515835D01*
X-503955Y515835D01*
X-198800Y-63227D02*
G01*
X-198800Y-91864D01*
X-198800Y-63227D02*
G01*
X-211072Y-63227D01*
X-215164Y-64591D01*
X-216527Y-65954D01*
X-217890Y-68681D01*
X-217890Y-71408D01*
X-216527Y-74135D01*
X-215164Y-75500D01*
X-211072Y-76864D01*
X-198800Y-76864D01*
X-208344Y-76864D02*
G01*
X-217890Y-91864D01*
X-226891Y-68681D02*
G01*
X-229618Y-67318D01*
X-233708Y-63227D01*
X-233708Y-91864D01*
X-256345Y-63227D02*
G01*
X-242709Y-82318D01*
X-263163Y-82318D01*
X-256345Y-63227D02*
G01*
X-256345Y-91864D01*
X319093Y84405D02*
G01*
X339342Y64157D01*
X319093Y84405D02*
G01*
X310415Y75727D01*
X308486Y71871D01*
X308486Y69942D01*
X309452Y67049D01*
X311379Y65120D01*
X314273Y64157D01*
X316201Y64157D01*
X320057Y66086D01*
X328735Y74764D01*
X321986Y68013D02*
G01*
X325843Y50657D01*
X285730Y51042D02*
G01*
X315622Y40437D01*
X299230Y64542D02*
G01*
X285730Y51042D01*
X323905Y-36194D02*
G01*
X303657Y-56442D01*
X323905Y-36194D02*
G01*
X315227Y-27516D01*
X311370Y-25587D01*
X309443Y-25587D01*
X306549Y-26552D01*
X304620Y-28479D01*
X303657Y-31372D01*
X303657Y-33301D01*
X305586Y-37157D01*
X314264Y-45835D01*
X307514Y-39086D02*
G01*
X290158Y-42944D01*
X300186Y-20187D02*
G01*
X299221Y-17294D01*
X299221Y-11509D01*
X278972Y-31757D01*
X279358Y8353D02*
G01*
X268751Y-21538D01*
X292857Y-5145D02*
G01*
X279358Y8353D01*
X215963Y-274326D02*
G01*
X215963Y-296145D01*
X217326Y-300235D01*
X218690Y-301599D01*
X221418Y-302964D01*
X224144Y-302964D01*
X226872Y-301599D01*
X228235Y-300235D01*
X229600Y-296145D01*
X229600Y-293418D01*
X206963Y-279782D02*
G01*
X204236Y-278418D01*
X200145Y-274326D01*
X200145Y-302964D01*
X-203000Y-126127D02*
G01*
X-203000Y-154764D01*
X-203000Y-126127D02*
G01*
X-215272Y-126127D01*
X-219364Y-127490D01*
X-220726Y-128854D01*
X-222091Y-131581D01*
X-222091Y-134308D01*
X-220726Y-137035D01*
X-219364Y-138400D01*
X-215272Y-139764D01*
X-203000Y-139764D01*
X-212545Y-139764D02*
G01*
X-222091Y-154764D01*
X-247454Y-126127D02*
G01*
X-233818Y-126127D01*
X-232454Y-138400D01*
X-233818Y-137035D01*
X-237908Y-135673D01*
X-241999Y-135673D01*
X-246090Y-137035D01*
X-248818Y-139764D01*
X-250182Y-143854D01*
X-250182Y-146581D01*
X-248818Y-150673D01*
X-246090Y-153400D01*
X-241999Y-154764D01*
X-237908Y-154764D01*
X-233818Y-153400D01*
X-232454Y-152035D01*
X-231090Y-149308D01*
X233559Y-121186D02*
G01*
X233559Y-141642D01*
X232195Y-145733D01*
X229468Y-148460D01*
X225378Y-149823D01*
X222650Y-149823D01*
X218559Y-148460D01*
X215833Y-145733D01*
X214468Y-141642D01*
X214468Y-121186D01*
X187741Y-130733D02*
G01*
X189104Y-134823D01*
X191832Y-137550D01*
X195923Y-138915D01*
X197286Y-138915D01*
X201377Y-137550D01*
X204104Y-134823D01*
X205469Y-130733D01*
X205469Y-129369D01*
X204104Y-125277D01*
X201377Y-122550D01*
X197286Y-121186D01*
X195923Y-121186D01*
X191832Y-122550D01*
X189104Y-125277D01*
X187741Y-130733D01*
X187741Y-137550D01*
X189104Y-144369D01*
X191832Y-148460D01*
X195923Y-149823D01*
X198650Y-149823D01*
X202741Y-148460D01*
X204104Y-145733D01*
X340515Y-406723D02*
G01*
X326053Y-421186D01*
X322195Y-423116D01*
X318338Y-423116D01*
X314481Y-421186D01*
X312552Y-419259D01*
X310625Y-415401D01*
X310625Y-411545D01*
X312552Y-407687D01*
X327016Y-393225D01*
X304260Y-376253D02*
G01*
X308117Y-376253D01*
X311975Y-378182D01*
X315832Y-382038D01*
X317759Y-385896D01*
X317759Y-389753D01*
X315832Y-391682D01*
X312938Y-392645D01*
X311009Y-392645D01*
X308117Y-391682D01*
X300403Y-387824D01*
X297510Y-386860D01*
X295582Y-386860D01*
X292690Y-387824D01*
X289796Y-390718D01*
X289796Y-394574D01*
X291725Y-398432D01*
X295582Y-402287D01*
X299439Y-404216D01*
X303297Y-404216D01*
X300789Y-366997D02*
G01*
X280541Y-387246D01*
X300789Y-366997D02*
G01*
X292110Y-358319D01*
X288253Y-356390D01*
X286325Y-356390D01*
X283432Y-357355D01*
X281504Y-359284D01*
X280541Y-362175D01*
X280541Y-364104D01*
X282469Y-367962D01*
X291147Y-376640D02*
G01*
X282469Y-367962D01*
X278612Y-366033D01*
X276683Y-366033D01*
X273791Y-366997D01*
X270897Y-369890D01*
X269934Y-372782D01*
X269934Y-374711D01*
X271862Y-378568D01*
X280541Y-387246D01*
X277069Y-350990D02*
G01*
X276104Y-348097D01*
X276104Y-342312D01*
X255856Y-362561D01*
X179600Y-36626D02*
G01*
X179600Y-65264D01*
X179600Y-36626D02*
G01*
X167326Y-36626D01*
X163235Y-37991D01*
X161872Y-39355D01*
X160509Y-42082D01*
X160509Y-44809D01*
X161872Y-47536D01*
X163235Y-48899D01*
X167326Y-50264D01*
X179600Y-50264D01*
X170055Y-50264D02*
G01*
X160509Y-65264D01*
X150145Y-43445D02*
G01*
X150145Y-42082D01*
X148782Y-39355D01*
X147417Y-37991D01*
X144691Y-36626D01*
X139236Y-36626D01*
X136508Y-37991D01*
X135145Y-39355D01*
X133782Y-42082D01*
X133782Y-44809D01*
X135145Y-47536D01*
X137872Y-51626D01*
X151508Y-65264D01*
X132417Y-65264D01*
X459957Y330432D02*
G01*
X462685Y329068D01*
X465412Y326341D01*
X466775Y323614D01*
X468140Y319524D01*
X468140Y312705D01*
X466775Y308614D01*
X465412Y305886D01*
X462685Y303159D01*
X459957Y301795D01*
X454503Y301795D01*
X451775Y303159D01*
X449048Y305886D01*
X447685Y308614D01*
X446322Y312705D01*
X446322Y319524D01*
X447685Y323614D01*
X449048Y326341D01*
X451775Y329068D01*
X454503Y330432D01*
X459957Y330432D01*
X455866Y307251D02*
G01*
X447685Y299068D01*
X435958Y323614D02*
G01*
X435958Y324978D01*
X434594Y327705D01*
X433230Y329068D01*
X430504Y330432D01*
X425048Y330432D01*
X422321Y329068D01*
X420958Y327705D01*
X419594Y324978D01*
X419594Y322251D01*
X420958Y319524D01*
X423684Y315432D01*
X437321Y301795D01*
X418230Y301795D01*
X414099Y459573D02*
G01*
X414099Y430936D01*
X414099Y459573D02*
G01*
X401827Y459573D01*
X397735Y458209D01*
X396373Y456844D01*
X395009Y454117D01*
X395009Y451390D01*
X396373Y448663D01*
X397735Y447300D01*
X401827Y445936D01*
X414099Y445936D01*
X404555Y445936D02*
G01*
X395009Y430936D01*
X386008Y454117D02*
G01*
X383281Y455482D01*
X379191Y459573D01*
X379191Y430936D01*
X368827Y452755D02*
G01*
X368827Y454117D01*
X367463Y456844D01*
X366099Y458209D01*
X363373Y459573D01*
X357917Y459573D01*
X355190Y458209D01*
X353827Y456844D01*
X352463Y454117D01*
X352463Y451390D01*
X353827Y448663D01*
X356554Y444573D01*
X370190Y430936D01*
X351099Y430936D01*
X262500Y399472D02*
G01*
X262500Y370835D01*
X262500Y399472D02*
G01*
X250226Y399472D01*
X246135Y398108D01*
X244772Y396745D01*
X243409Y394018D01*
X243409Y391291D01*
X244772Y388564D01*
X246135Y387199D01*
X250226Y385835D01*
X262500Y385835D01*
X252955Y385835D02*
G01*
X243409Y370835D01*
X234408Y394018D02*
G01*
X231682Y395381D01*
X227591Y399472D01*
X227591Y370835D01*
X215864Y399472D02*
G01*
X200864Y399472D01*
X209044Y388564D01*
X204954Y388564D01*
X202227Y387199D01*
X200864Y385835D01*
X199499Y381745D01*
X199499Y379018D01*
X200864Y374926D01*
X203590Y372199D01*
X207681Y370835D01*
X211773Y370835D01*
X215864Y372199D01*
X217227Y373564D01*
X218590Y376291D01*
X-181900Y-366673D02*
G01*
X-181900Y-390536D01*
X-181900Y-366673D02*
G01*
X-192127Y-366673D01*
X-195536Y-367809D01*
X-196673Y-368944D01*
X-197808Y-371217D01*
X-197808Y-373490D01*
X-196673Y-375763D01*
X-195536Y-376900D01*
X-192127Y-378036D01*
X-181900Y-378036D01*
X-189854Y-378036D02*
G01*
X-197808Y-390536D01*
X-218945Y-370082D02*
G01*
X-217808Y-367809D01*
X-214400Y-366673D01*
X-212127Y-366673D01*
X-208717Y-367809D01*
X-206445Y-371217D01*
X-205308Y-376900D01*
X-205308Y-382582D01*
X-206445Y-387127D01*
X-208717Y-389400D01*
X-212127Y-390536D01*
X-213263Y-390536D01*
X-216673Y-389400D01*
X-218945Y-387127D01*
X-220082Y-383717D01*
X-220082Y-382582D01*
X-218945Y-379173D01*
X-216673Y-376900D01*
X-213263Y-375763D01*
X-212127Y-375763D01*
X-208717Y-376900D01*
X-206445Y-379173D01*
X-205308Y-382582D01*
X64345Y301954D02*
G01*
X65708Y304681D01*
X68436Y307408D01*
X71163Y308773D01*
X76617Y308773D01*
X79345Y307408D01*
X82073Y304681D01*
X83436Y301954D01*
X84799Y297863D01*
X84799Y291044D01*
X83436Y286954D01*
X82073Y284227D01*
X79345Y281500D01*
X76617Y280135D01*
X71163Y280135D01*
X68436Y281500D01*
X65708Y284227D01*
X64345Y286954D01*
X53981Y301954D02*
G01*
X53981Y303317D01*
X52618Y306044D01*
X51255Y307408D01*
X48526Y308773D01*
X43072Y308773D01*
X40344Y307408D01*
X38981Y306044D01*
X37618Y303317D01*
X37618Y300590D01*
X38981Y297863D01*
X41709Y293773D01*
X55344Y280135D01*
X36255Y280135D01*
X385474Y174544D02*
G01*
X386838Y177271D01*
X389565Y179998D01*
X392294Y181363D01*
X397748Y181363D01*
X400474Y179998D01*
X403203Y177271D01*
X404565Y174544D01*
X405929Y170453D01*
X405929Y163634D01*
X404565Y159544D01*
X403203Y156817D01*
X400474Y154090D01*
X397748Y152725D01*
X392294Y152725D01*
X389565Y154090D01*
X386838Y156817D01*
X385474Y159544D01*
X373747Y181363D02*
G01*
X358747Y181363D01*
X366930Y170453D01*
X362838Y170453D01*
X360111Y169090D01*
X358747Y167725D01*
X357384Y163634D01*
X357384Y160907D01*
X358747Y156817D01*
X361475Y154090D01*
X365565Y152725D01*
X369656Y152725D01*
X373747Y154090D01*
X375111Y155453D01*
X376475Y158180D01*
X246445Y-429544D02*
G01*
X247808Y-426817D01*
X250536Y-424090D01*
X253263Y-422726D01*
X258717Y-422726D01*
X261445Y-424090D01*
X264173Y-426817D01*
X265536Y-429544D01*
X266899Y-433636D01*
X266899Y-440455D01*
X265536Y-444544D01*
X264173Y-447273D01*
X261445Y-450000D01*
X258717Y-451363D01*
X253263Y-451363D01*
X250536Y-450000D01*
X247808Y-447273D01*
X246445Y-444544D01*
X237444Y-428182D02*
G01*
X234718Y-426817D01*
X230626Y-422726D01*
X230626Y-451363D01*
X218900Y-422726D02*
G01*
X203900Y-422726D01*
X212082Y-433636D01*
X207991Y-433636D01*
X205263Y-435000D01*
X203900Y-436363D01*
X202536Y-440455D01*
X202536Y-443182D01*
X203900Y-447273D01*
X206626Y-450000D01*
X210717Y-451363D01*
X214808Y-451363D01*
X218900Y-450000D01*
X220263Y-448636D01*
X221626Y-445909D01*
D12*
X-346096Y-197939D02*
G01*
X-346096Y-216729D01*
X-346096Y-216729D02*
G01*
X-356833Y-216729D01*
X-362740Y-197939D02*
G01*
X-362740Y-216729D01*
X-362740Y-197939D02*
G01*
X-374372Y-197939D01*
X-362740Y-206887D02*
G01*
X-369898Y-206887D01*
X-362740Y-216729D02*
G01*
X-374372Y-216729D01*
X-380277Y-197939D02*
G01*
X-380277Y-216729D01*
X-380277Y-197939D02*
G01*
X-386540Y-197939D01*
X-389224Y-198834D01*
X-391014Y-200623D01*
X-391909Y-202413D01*
X-392804Y-205097D01*
X-392804Y-209571D01*
X-391909Y-212255D01*
X-391014Y-214045D01*
X-389224Y-215833D01*
X-386540Y-216729D01*
X-380277Y-216729D01*
X-398710Y-201518D02*
G01*
X-400498Y-200623D01*
X-403184Y-197939D01*
X-403184Y-216729D01*
D11*
X-286999Y738472D02*
G01*
X-286999Y709836D01*
X-286999Y738472D02*
G01*
X-299273Y738472D01*
X-303364Y737109D01*
X-304727Y735745D01*
X-306090Y733018D01*
X-306090Y730291D01*
X-304727Y727563D01*
X-303364Y726199D01*
X-299273Y724836D01*
X-286999Y724836D01*
X-296545Y724836D02*
G01*
X-306090Y709836D01*
X-315091Y738472D02*
G01*
X-315091Y709836D01*
X-315091Y738472D02*
G01*
X-332817Y738472D01*
X-315091Y724836D02*
G01*
X-326000Y724836D01*
X-343181Y731655D02*
G01*
X-343181Y733018D01*
X-344544Y735745D01*
X-345909Y737109D01*
X-348635Y738472D01*
X-354090Y738472D01*
X-356818Y737109D01*
X-358181Y735745D01*
X-359544Y733018D01*
X-359544Y730291D01*
X-358181Y727563D01*
X-355455Y723472D01*
X-341818Y709836D01*
X-360909Y709836D01*
X-145672Y-285700D02*
G01*
X-125218Y-285700D01*
X-121126Y-287064D01*
X-118400Y-289791D01*
X-117035Y-293881D01*
X-117035Y-296608D01*
X-118400Y-300700D01*
X-121126Y-303427D01*
X-125218Y-304791D01*
X-145672Y-304791D01*
X-140218Y-313791D02*
G01*
X-141581Y-316518D01*
X-145672Y-320608D01*
X-117035Y-320608D01*
X-145672Y-337791D02*
G01*
X-144309Y-333699D01*
X-140218Y-330972D01*
X-133400Y-329609D01*
X-129309Y-329609D01*
X-122490Y-330972D01*
X-118400Y-333699D01*
X-117035Y-337791D01*
X-117035Y-340518D01*
X-118400Y-344609D01*
X-122490Y-347336D01*
X-129309Y-348699D01*
X-133400Y-348699D01*
X-140218Y-347336D01*
X-144309Y-344609D01*
X-145672Y-340518D01*
X-145672Y-337791D01*
X-12200Y66772D02*
G01*
X-12200Y38135D01*
X-12200Y66772D02*
G01*
X-24472Y66772D01*
X-28563Y65408D01*
X-29926Y64045D01*
X-31291Y61318D01*
X-31291Y58591D01*
X-29926Y55864D01*
X-28563Y54499D01*
X-24472Y53135D01*
X-12200Y53135D01*
X-21745Y53135D02*
G01*
X-31291Y38135D01*
X-40290Y61318D02*
G01*
X-43018Y62681D01*
X-47109Y66772D01*
X-47109Y38135D01*
X-72472Y66772D02*
G01*
X-58836Y66772D01*
X-57472Y54499D01*
X-58836Y55864D01*
X-62926Y57226D01*
X-67017Y57226D01*
X-71108Y55864D01*
X-73836Y53135D01*
X-75200Y49045D01*
X-75200Y46318D01*
X-73836Y42226D01*
X-71108Y39499D01*
X-67017Y38135D01*
X-62926Y38135D01*
X-58836Y39499D01*
X-57472Y40864D01*
X-56108Y43591D01*
X204396Y591028D02*
G01*
X205761Y593755D01*
X208487Y596482D01*
X211215Y597845D01*
X215306Y599209D01*
X222124Y599209D01*
X226215Y597845D01*
X228942Y596482D01*
X231669Y593755D01*
X233033Y591028D01*
X233033Y585574D01*
X231669Y582845D01*
X228942Y580118D01*
X226215Y578755D01*
X222124Y577391D01*
X215306Y577391D01*
X211215Y578755D01*
X208487Y580118D01*
X205761Y582845D01*
X204396Y585574D01*
X204396Y591028D01*
X227578Y586936D02*
G01*
X235761Y578755D01*
X209852Y568391D02*
G01*
X208487Y565664D01*
X204396Y561574D01*
X233033Y561574D01*
X-478254Y483854D02*
G01*
X-476891Y486581D01*
X-474164Y489308D01*
X-471436Y490673D01*
X-465982Y490673D01*
X-463254Y489308D01*
X-460527Y486581D01*
X-459164Y483854D01*
X-457799Y479764D01*
X-457799Y472944D01*
X-459164Y468854D01*
X-460527Y466127D01*
X-463254Y463400D01*
X-465982Y462035D01*
X-471436Y462035D01*
X-474164Y463400D01*
X-476891Y466127D01*
X-478254Y468854D01*
X-506345Y490673D02*
G01*
X-492709Y462035D01*
X-487255Y490673D02*
G01*
X-506345Y490673D01*
X-339355Y-51844D02*
G01*
X-337991Y-49117D01*
X-335263Y-46390D01*
X-332536Y-45027D01*
X-327082Y-45027D01*
X-324355Y-46390D01*
X-321626Y-49117D01*
X-320263Y-51844D01*
X-318900Y-55936D01*
X-318900Y-62755D01*
X-320263Y-66844D01*
X-321626Y-69573D01*
X-324355Y-72300D01*
X-327082Y-73663D01*
X-332536Y-73663D01*
X-335263Y-72300D01*
X-337991Y-69573D01*
X-339355Y-66844D01*
X-361990Y-45027D02*
G01*
X-348355Y-64117D01*
X-368809Y-64117D01*
X-361990Y-45027D02*
G01*
X-361990Y-73663D01*
X-548672Y182399D02*
G01*
X-528217Y182399D01*
X-524126Y181035D01*
X-521400Y178308D01*
X-520036Y174218D01*
X-520036Y171491D01*
X-521400Y167399D01*
X-524126Y164672D01*
X-528217Y163308D01*
X-548672Y163308D01*
X-543217Y154308D02*
G01*
X-544582Y151581D01*
X-548672Y147491D01*
X-520036Y147491D01*
X-548672Y124854D02*
G01*
X-529582Y138490D01*
X-529582Y118036D01*
X-548672Y124854D02*
G01*
X-520036Y124854D01*
X221800Y255273D02*
G01*
X221800Y234818D01*
X220435Y230727D01*
X217708Y228000D01*
X213617Y226635D01*
X210891Y226635D01*
X206800Y228000D01*
X204072Y230727D01*
X202708Y234818D01*
X202708Y255273D01*
X180073Y255273D02*
G01*
X193708Y236181D01*
X173254Y236181D01*
X180073Y255273D02*
G01*
X180073Y226635D01*
X-290754Y-107645D02*
G01*
X-289391Y-104918D01*
X-286664Y-102190D01*
X-283936Y-100826D01*
X-278482Y-100826D01*
X-275754Y-102190D01*
X-273027Y-104918D01*
X-271664Y-107645D01*
X-270299Y-111736D01*
X-270299Y-118555D01*
X-271664Y-122645D01*
X-273027Y-125372D01*
X-275754Y-128099D01*
X-278482Y-129463D01*
X-283936Y-129463D01*
X-286664Y-128099D01*
X-289391Y-125372D01*
X-290754Y-122645D01*
X-301117Y-107645D02*
G01*
X-301117Y-106282D01*
X-302482Y-103555D01*
X-303845Y-102190D01*
X-306572Y-100826D01*
X-312026Y-100826D01*
X-314755Y-102190D01*
X-316117Y-103555D01*
X-317482Y-106282D01*
X-317482Y-109009D01*
X-316117Y-111736D01*
X-313391Y-115826D01*
X-299755Y-129463D01*
X-318845Y-129463D01*
X-330573Y-100826D02*
G01*
X-345573Y-100826D01*
X-337390Y-111736D01*
X-341482Y-111736D01*
X-344209Y-113099D01*
X-345573Y-114463D01*
X-346936Y-118555D01*
X-346936Y-121282D01*
X-345573Y-125372D01*
X-342844Y-128099D01*
X-338755Y-129463D01*
X-334664Y-129463D01*
X-330573Y-128099D01*
X-329209Y-126736D01*
X-327844Y-124009D01*
X751316Y417235D02*
G01*
X726517Y402917D01*
X751316Y417235D02*
G01*
X745181Y427865D01*
X741953Y430725D01*
X740091Y431224D01*
X737047Y431041D01*
X734686Y429679D01*
X733005Y427134D01*
X732506Y425270D01*
X733370Y421046D01*
X739507Y410417D02*
G01*
X733370Y421046D01*
X730145Y423908D01*
X728281Y424407D01*
X725237Y424223D01*
X721694Y422179D01*
X720015Y419634D01*
X719516Y417770D01*
X720380Y413546D01*
X726517Y402917D01*
X732547Y438836D02*
G01*
X732364Y441880D01*
X733861Y447469D01*
X709062Y433150D01*
X451518Y736494D02*
G01*
X432357Y715214D01*
X451518Y736494D02*
G01*
X442398Y744706D01*
X438445Y746430D01*
X436521Y746329D01*
X433681Y745214D01*
X431857Y743188D01*
X431045Y740248D01*
X431147Y738323D01*
X433275Y734573D01*
X442394Y726361D02*
G01*
X433275Y734573D01*
X429322Y736296D01*
X427395Y736195D01*
X424556Y735081D01*
X421820Y732040D01*
X421008Y729103D01*
X421108Y727177D01*
X423236Y723425D01*
X432357Y715214D01*
X425068Y751136D02*
G01*
X425981Y752150D01*
X426791Y755088D01*
X426691Y757015D01*
X425577Y759854D01*
X421523Y763503D01*
X418584Y764315D01*
X416657Y764214D01*
X413819Y763099D01*
X411994Y761073D01*
X411184Y758132D01*
X410473Y753269D01*
X411481Y734009D01*
X397294Y746784D01*
D13*
X-61679Y298333D02*
G01*
X-61679Y305724D01*
X-161679Y298333D02*
G01*
X-161679Y305724D01*
D10*
X45590Y24724D02*
G01*
X45590Y-3544D01*
X84849Y-3544D01*
X84849Y24724D01*
X45590Y42536D02*
G01*
X45590Y70805D01*
X84849Y70805D01*
X84849Y42536D01*
X-294805Y-292170D02*
G01*
X-323074Y-292170D01*
X-323074Y-331430D01*
X-294805Y-331430D01*
X-276994Y-292170D02*
G01*
X-248725Y-292170D01*
X-248725Y-331430D01*
X-276994Y-331430D01*
X520825Y450399D02*
G01*
X549094Y450399D01*
X549094Y489659D01*
X520825Y489659D01*
X503014Y450399D02*
G01*
X474745Y450399D01*
X474745Y489659D01*
X503014Y489659D01*
X-139257Y461873D02*
G01*
X-139257Y479807D01*
X-108501Y479807D01*
X-108501Y461873D01*
X-139257Y448786D02*
G01*
X-139257Y430853D01*
X-108501Y430853D01*
X-108501Y448786D01*
X-3249Y561736D02*
G01*
X-3249Y590005D01*
X-42510Y590005D01*
X-42510Y561736D01*
X-3249Y543924D02*
G01*
X-3249Y515655D01*
X-42510Y515655D01*
X-42510Y543924D01*
X17476Y379351D02*
G01*
X-456Y379351D01*
X-456Y410108D01*
X17476Y410108D01*
X30563Y379351D02*
G01*
X48496Y379351D01*
X48496Y410108D01*
X30563Y410108D01*
X196149Y565936D02*
G01*
X196149Y594205D01*
X156890Y594205D01*
X156890Y565936D01*
X196149Y548123D02*
G01*
X196149Y519854D01*
X156890Y519854D01*
X156890Y548123D01*
X347089Y564324D02*
G01*
X347089Y536055D01*
X386350Y536055D01*
X386350Y564324D01*
X347089Y582136D02*
G01*
X347089Y610405D01*
X386350Y610405D01*
X386350Y582136D01*
X460525Y538899D02*
G01*
X488795Y538899D01*
X488795Y578159D01*
X460525Y578159D01*
X442713Y538899D02*
G01*
X414444Y538899D01*
X414444Y578159D01*
X442713Y578159D01*
X-70043Y251921D02*
G01*
X-87977Y251921D01*
X-87977Y282678D01*
X-70043Y282678D01*
X-56957Y251921D02*
G01*
X-39022Y251921D01*
X-39022Y282678D01*
X-56957Y282678D01*
X-496930Y-100205D02*
G01*
X-496930Y-128474D01*
X-457669Y-128474D01*
X-457669Y-100205D01*
X-496930Y-82393D02*
G01*
X-496930Y-54124D01*
X-457669Y-54124D01*
X-457669Y-82393D01*
X-446378Y-145156D02*
G01*
X-446378Y-130650D01*
X-440378Y-124650D01*
X-421621Y-124650D01*
X-415622Y-130650D01*
X-415622Y-145156D01*
X-446378Y-158243D02*
G01*
X-446378Y-172748D01*
X-440378Y-178749D01*
X-421621Y-178749D01*
X-415622Y-172748D01*
X-415622Y-158243D01*
X-415757Y545578D02*
G01*
X-401251Y545578D01*
X-395250Y539578D01*
X-395250Y520821D01*
X-401251Y514821D01*
X-415757Y514821D01*
X-428842Y545578D02*
G01*
X-443348Y545578D01*
X-449349Y539578D01*
X-449349Y520821D01*
X-443348Y514821D01*
X-428842Y514821D01*
X-190778Y-74057D02*
G01*
X-190778Y-56123D01*
X-160021Y-56123D01*
X-160021Y-74057D01*
X-190778Y-87143D02*
G01*
X-190778Y-105077D01*
X-160021Y-105077D01*
X-160021Y-87143D01*
X369399Y41446D02*
G01*
X382082Y28766D01*
X360334Y7017D01*
X347653Y19699D01*
X360146Y50700D02*
G01*
X347465Y63382D01*
X325717Y41633D01*
X338400Y28953D01*
X246800Y-56048D02*
G01*
X234117Y-43366D01*
X255865Y-21617D01*
X268546Y-34299D01*
X256053Y-65300D02*
G01*
X268733Y-77982D01*
X290482Y-56233D01*
X277799Y-43551D01*
D14*
X-52820Y-434690D02*
G01*
X-107939Y-434690D01*
X-107939Y-196509D01*
X132219Y-434690D02*
G01*
X187339Y-434690D01*
X187339Y-196509D01*
X-39040Y-196509D02*
G01*
X118440Y-196509D01*
D10*
X-162305Y-118870D02*
G01*
X-190574Y-118870D01*
X-190574Y-158130D01*
X-162305Y-158130D01*
X-144494Y-118870D02*
G01*
X-116225Y-118870D01*
X-116225Y-158130D01*
X-144494Y-158130D01*
D13*
X-48479Y-178668D02*
G01*
X6520Y-178668D01*
X64520Y-178668D02*
G01*
X119520Y-178668D01*
X119520Y-178668D02*
G01*
X119520Y-171874D01*
X119520Y-64661D02*
G01*
X119520Y-59668D01*
X119520Y-59668D02*
G01*
X-48479Y-59668D01*
X-48479Y-59668D02*
G01*
X-48479Y-65835D01*
X-48479Y-170700D02*
G01*
X-48479Y-177667D01*
X682506Y-134326D02*
G01*
X501552Y46630D01*
X252671Y-202251D01*
X433625Y-383206D01*
X682506Y-134326D01*
X647128Y-64981D02*
G01*
X632987Y-50837D01*
X618845Y-64980D01*
X632987Y-79122D01*
X647128Y-64981D01*
X378423Y-333674D02*
G01*
X364281Y-319531D01*
X350137Y-333674D01*
X364279Y-347815D01*
X378423Y-333674D01*
X265991Y-221244D02*
G01*
X251849Y-207101D01*
X237708Y-221244D01*
X251849Y-235385D01*
X265991Y-221244D01*
X534691Y47456D02*
G01*
X520550Y61599D01*
X506409Y47456D01*
X520550Y33314D01*
X534691Y47456D01*
X498638Y-57908D02*
G01*
X463283Y-22554D01*
X420855Y-64980D01*
X456211Y-100336D01*
X498638Y-57908D01*
X399642Y-156903D02*
G01*
X364286Y-121548D01*
X321859Y-163973D01*
X357214Y-199329D01*
X399642Y-156903D01*
D10*
X157305Y-28330D02*
G01*
X185574Y-28330D01*
X185574Y10929D01*
X157305Y10929D01*
X139493Y-28330D02*
G01*
X111224Y-28330D01*
X111224Y10929D01*
X139493Y10929D01*
X547386Y397890D02*
G01*
X547386Y340709D01*
X506772Y340709D01*
X427213Y397890D02*
G01*
X427213Y340709D01*
X467827Y340709D01*
X505228Y397890D02*
G01*
X469371Y397890D01*
X366469Y376293D02*
G01*
X366469Y348024D01*
X405730Y348024D01*
X405730Y376293D01*
X366469Y394106D02*
G01*
X366469Y422375D01*
X405730Y422375D01*
X405730Y394106D01*
X301693Y403429D02*
G01*
X273424Y403429D01*
X273424Y364169D01*
X301693Y364169D01*
X319506Y403429D02*
G01*
X347775Y403429D01*
X347775Y364169D01*
X319506Y364169D01*
X-204756Y-328722D02*
G01*
X-186823Y-328722D01*
X-186823Y-359477D01*
X-204756Y-359477D01*
X-217843Y-328722D02*
G01*
X-235776Y-328722D01*
X-235776Y-359477D01*
X-217843Y-359477D01*
X102712Y228269D02*
G01*
X71604Y228269D01*
X71606Y267530D02*
G01*
X102712Y267530D01*
X108711Y261529D02*
G01*
X108711Y234270D01*
X22687Y228269D02*
G01*
X53793Y228269D01*
X53795Y267530D02*
G01*
X22687Y267530D01*
X16687Y261529D02*
G01*
X16687Y234270D01*
X343188Y141729D02*
G01*
X374293Y141729D01*
X374293Y102469D02*
G01*
X343188Y102469D01*
X337187Y108469D02*
G01*
X337187Y135729D01*
X423212Y141729D02*
G01*
X392106Y141729D01*
X392106Y102469D02*
G01*
X423212Y102469D01*
X429211Y108469D02*
G01*
X429211Y135729D01*
X240129Y-329288D02*
G01*
X240129Y-360394D01*
X200869Y-360394D02*
G01*
X200869Y-329288D01*
X206869Y-323288D02*
G01*
X234129Y-323288D01*
X240129Y-409311D02*
G01*
X240129Y-378206D01*
X200869Y-378206D02*
G01*
X200869Y-409311D01*
X206869Y-415311D02*
G01*
X234129Y-415311D01*
D15*
X-295843Y-250646D02*
G01*
X-295843Y-250257D01*
X-308837Y-237260D01*
X-322617Y-250646D02*
G01*
X-322223Y-250646D01*
X-308837Y-237260D01*
X-322617Y-250646D02*
G01*
X-295843Y-250646D01*
X-338366Y-251435D02*
G01*
X-338366Y-296714D01*
X-279305Y-251435D02*
G01*
X-279305Y-296714D01*
X-338364Y-296714D02*
G01*
X-280097Y-296714D01*
X-279215Y-236475D02*
G01*
X-279215Y-195131D01*
X-294967Y-183323D02*
G01*
X-291030Y-183323D01*
X-279215Y-195131D01*
X-322524Y-183323D02*
G01*
X-294967Y-183323D01*
X-322524Y-183323D02*
G01*
X-326467Y-183323D01*
X-338276Y-195131D01*
X-338276Y-236475D02*
G01*
X-338276Y-195131D01*
X-308837Y-250646D02*
G01*
X-308837Y-237260D01*
D13*
X-278968Y588757D02*
G01*
X-278968Y592914D01*
X-278968Y650484D02*
G01*
X-278968Y654643D01*
X-139059Y-275102D02*
G01*
X-139059Y-204236D01*
X-261108Y-275102D02*
G01*
X-261108Y-204236D01*
D10*
X-60730Y-17505D02*
G01*
X-60730Y-45774D01*
X-21469Y-45774D01*
X-21469Y-17505D01*
X-60730Y306D02*
G01*
X-60730Y28575D01*
X-21469Y28575D01*
X-21469Y306D01*
X299790Y472613D02*
G01*
X242609Y472613D01*
X242609Y513227D01*
X299790Y592786D02*
G01*
X242609Y592786D01*
X242609Y552172D01*
X299790Y514771D02*
G01*
X299790Y550628D01*
X-419022Y497548D02*
G01*
X-419022Y483042D01*
X-449777Y483042D02*
G01*
X-449777Y497548D01*
X-443778Y503548D02*
G01*
X-425021Y503548D01*
X-419022Y455450D02*
G01*
X-419022Y469956D01*
X-449777Y469956D02*
G01*
X-449777Y455450D01*
X-443778Y449450D02*
G01*
X-425021Y449450D01*
X-441212Y-74070D02*
G01*
X-410106Y-74070D01*
X-410106Y-113330D02*
G01*
X-441212Y-113330D01*
X-447211Y-107330D02*
G01*
X-447211Y-80070D01*
X-361188Y-74070D02*
G01*
X-392294Y-74070D01*
X-392294Y-113330D02*
G01*
X-361188Y-113330D01*
X-355187Y-107330D02*
G01*
X-355187Y-80070D01*
X-112546Y-17545D02*
G01*
X-103581Y-17545D01*
X-103581Y-17545D01*
X-103581Y370344D01*
X-103581Y370344D01*
X-112546Y370344D01*
X-498253Y-17545D02*
G01*
X-507219Y-17545D01*
X-507219Y-17545D01*
X-507219Y370344D01*
X-507219Y370344D01*
X-498253Y370344D01*
X170842Y212586D02*
G01*
X275267Y212586D01*
X275267Y167357D01*
X170842Y29423D02*
G01*
X275267Y29423D01*
X275267Y74652D01*
X-281087Y-181530D02*
G01*
X-312193Y-181530D01*
X-312193Y-142269D02*
G01*
X-281087Y-142269D01*
X-275088Y-148270D02*
G01*
X-275088Y-175529D01*
X-361112Y-181530D02*
G01*
X-330006Y-181530D01*
X-330006Y-142269D02*
G01*
X-361112Y-142269D01*
X-367111Y-148270D02*
G01*
X-367111Y-175529D01*
D13*
X678868Y617217D02*
G01*
X666491Y610072D01*
X745797Y501295D02*
G01*
X733420Y494148D01*
X678868Y617217D02*
G01*
X745797Y501295D01*
X513829Y790960D02*
G01*
X504268Y780338D01*
X613306Y701390D02*
G01*
X603743Y690770D01*
X513829Y790960D02*
G01*
X613306Y701390D01*
G75*
G01*
X64520Y-178668D02*
G03*
X7520Y-178668I-28500J0D01*
D10*
G75*
G01*
X102712Y267530D02*
G02*
X108712Y261530I0J-6000D01*
G75*
G01*
X108712Y234270D02*
G02*
X102712Y228270I-6000J0D01*
G75*
G01*
X22688Y267530D02*
G03*
X16688Y261530I0J-6000D01*
G75*
G01*
X16688Y234270D02*
G03*
X22688Y228270I6000J0D01*
G75*
G01*
X343188Y102470D02*
G02*
X337188Y108470I0J6000D01*
G75*
G01*
X337188Y135730D02*
G02*
X343188Y141730I6000J0D01*
G75*
G01*
X423212Y102470D02*
G03*
X429212Y108470I0J6000D01*
G75*
G01*
X429212Y135730D02*
G03*
X423212Y141730I-6000J0D01*
G75*
G01*
X200870Y-329288D02*
G02*
X206870Y-323288I6000J0D01*
G75*
G01*
X234130Y-323288D02*
G02*
X240130Y-329288I0J-6000D01*
G75*
G01*
X200870Y-409312D02*
G03*
X206870Y-415312I6000J0D01*
G75*
G01*
X234130Y-415312D02*
G03*
X240130Y-409312I0J6000D01*
G75*
G01*
X-449778Y497549D02*
G02*
X-443778Y503549I6000J0D01*
G75*
G01*
X-425022Y503549D02*
G02*
X-419022Y497549I0J-6000D01*
G75*
G01*
X-449778Y455451D02*
G03*
X-443778Y449451I6000J0D01*
G75*
G01*
X-425022Y449451D02*
G03*
X-419022Y455451I0J6000D01*
G75*
G01*
X-441212Y-113330D02*
G02*
X-447212Y-107330I0J6000D01*
G75*
G01*
X-447212Y-80070D02*
G02*
X-441212Y-74070I6000J0D01*
G75*
G01*
X-361188Y-113330D02*
G03*
X-355188Y-107330I0J6000D01*
G75*
G01*
X-355188Y-80070D02*
G03*
X-361188Y-74070I-6000J0D01*
G75*
G01*
X-281088Y-142270D02*
G02*
X-275088Y-148270I0J-6000D01*
G75*
G01*
X-275088Y-175530D02*
G02*
X-281088Y-181530I-6000J0D01*
G75*
G01*
X-361112Y-142270D02*
G03*
X-367112Y-148270I0J-6000D01*
G75*
G01*
X-367112Y-175530D02*
G03*
X-361112Y-181530I6000J0D01*
D13*
G75*
G01
X-151680Y362040D02*
G03X-151680Y362040I-5000J0D01*
G75*
G01
X300840Y612280D02*
G03X300840Y612280I-5000J0D01*
G75*
G01
X580600Y438610D02*
G03X580600Y438610I-5000J0D01*
G75*
G01
X-62840Y-181260D02*
G03X-62840Y-181260I-5000J0D01*
G75*
G01
X478260Y55220D02*
G03X478260Y55220I-7910J0D01*
G75*
G01
X-300620Y621700D02*
G03X-300620Y621700I-27560J0D01*
G75*
G01
X-321350Y621700D02*
G03X-321350Y621700I-8800J0D01*
G75*
G01
X-260080Y-184670D02*
G03X-260080Y-184670I-5000J0D01*
D16*
G75*
G01
X-127250Y-61000D02*
G03X-127250Y-61000I-4920J0D01*
M02*
