G04 Layer: InnerLayer2*
G04 EasyEDA v6.5.22, 2023-01-25 14:37:09*
G04 a2e63df7a23446a2ae1eb019cd18a306,9a4ed40c0dd746429eaf55b84663d2fb,10*
G04 Gerber Generator version 0.2*
G04 Scale: 100 percent, Rotated: No, Reflected: No *
G04 Dimensions in inches *
G04 leading zeros omitted , absolute positions ,3 integer and 6 decimal *
%FSLAX36Y36*%
%MOIN*%

%AMMACRO1*1,1,$1,$2,$3*1,1,$1,$4,$5*20,1,$1,$2,$3,$4,$5,0*%
%ADD10C,0.0080*%
%ADD11C,0.0084*%
%ADD12C,0.0060*%
%ADD13C,0.0100*%
%ADD14MACRO1,0.0472X-0.0139X0.0139X0.0139X-0.0139*%
%ADD15C,0.0295*%
%ADD16R,0.0669X0.0669*%
%ADD17C,0.0669*%
%ADD18C,0.0240*%
%ADD19C,0.0126*%

%LPD*%
G36*
X-487720Y325379D02*
G01*
X-488740Y325520D01*
X-490100Y326000D01*
X-576600Y326000D01*
X-578280Y326380D01*
X-579640Y327400D01*
X-580440Y328940D01*
X-580540Y330640D01*
X-577000Y352560D01*
X-572520Y375340D01*
X-567280Y397980D01*
X-561300Y420439D01*
X-554560Y442640D01*
X-547100Y464660D01*
X-538900Y486400D01*
X-529960Y507819D01*
X-520340Y528960D01*
X-510000Y549760D01*
X-498980Y570240D01*
X-487280Y590300D01*
X-474900Y609940D01*
X-461900Y629180D01*
X-448240Y647980D01*
X-433980Y666320D01*
X-419099Y684160D01*
X-403640Y701500D01*
X-387600Y718319D01*
X-371019Y734580D01*
X-353900Y750300D01*
X-336280Y765420D01*
X-318140Y779920D01*
X-299540Y793840D01*
X-280480Y807140D01*
X-261000Y819760D01*
X-241940Y831260D01*
X-240360Y831800D01*
X-238680Y831640D01*
X-237220Y830819D01*
X-236240Y829479D01*
X-235880Y827820D01*
X-235880Y632260D01*
X-235560Y629720D01*
X-234740Y627540D01*
X-233340Y625500D01*
X-232160Y624320D01*
X-230740Y623260D01*
X-228560Y622280D01*
X-225620Y621820D01*
X-168200Y621820D01*
X-166660Y621520D01*
X-165380Y620660D01*
X-164500Y619360D01*
X-164200Y617820D01*
X-164200Y481599D01*
X-162940Y479200D01*
X-162800Y477800D01*
X-163160Y476440D01*
X-163960Y475300D01*
X-165000Y474280D01*
X-167220Y471079D01*
X-168840Y467600D01*
X-169840Y463840D01*
X-170180Y459980D01*
X-169840Y456140D01*
X-168840Y452400D01*
X-167220Y448920D01*
X-165000Y445720D01*
X-162260Y443000D01*
X-159100Y440800D01*
X-155580Y439140D01*
X-151860Y438160D01*
X-148000Y437800D01*
X-144140Y438160D01*
X-140420Y439140D01*
X-136900Y440800D01*
X-133740Y443000D01*
X-131000Y445720D01*
X-128780Y448920D01*
X-127160Y452400D01*
X-126160Y456140D01*
X-125820Y459980D01*
X-126160Y463840D01*
X-127500Y469140D01*
X-127200Y470680D01*
X-126340Y472020D01*
X-125040Y472879D01*
X-123500Y473180D01*
X-116860Y473180D01*
X-115320Y472879D01*
X-114019Y472020D01*
X-113480Y471460D01*
X-112600Y470160D01*
X-112300Y468640D01*
X-112300Y337760D01*
X-112600Y336240D01*
X-113480Y334920D01*
X-121820Y326580D01*
X-123120Y325700D01*
X-124660Y325379D01*
G37*

%LPD*%
G36*
X701360Y298520D02*
G01*
X698880Y298980D01*
X693300Y299340D01*
X687720Y298980D01*
X685400Y298560D01*
X683920Y298560D01*
X682520Y299100D01*
X681420Y300100D01*
X680780Y301440D01*
X680440Y302680D01*
X678820Y306200D01*
X677980Y307400D01*
X677340Y308880D01*
X677340Y310480D01*
X677960Y311980D01*
X679140Y313100D01*
X680660Y313640D01*
X682260Y313560D01*
X684960Y312840D01*
X690500Y312140D01*
X696100Y312140D01*
X699040Y312500D01*
X700460Y312420D01*
X701780Y311860D01*
X702800Y310860D01*
X703420Y309580D01*
X703780Y308240D01*
X706040Y303300D01*
X706060Y301720D01*
X705480Y300280D01*
X704380Y299140D01*
X702940Y298540D01*
G37*

%LPD*%
G36*
X624040Y277480D02*
G01*
X622500Y277800D01*
X621220Y278680D01*
X568780Y331079D01*
X566320Y333100D01*
X564660Y333940D01*
X563300Y335080D01*
X562560Y336659D01*
X562580Y338420D01*
X563380Y340000D01*
X564760Y341100D01*
X566480Y341480D01*
X649340Y341480D01*
X650840Y341220D01*
X652120Y340360D01*
X653000Y339120D01*
X654599Y335500D01*
X657500Y330720D01*
X660980Y326340D01*
X663319Y324099D01*
X664220Y322760D01*
X664539Y321140D01*
X664160Y319540D01*
X663199Y318240D01*
X661800Y317420D01*
X655740Y316960D01*
X652020Y315940D01*
X648500Y314320D01*
X645340Y312080D01*
X642600Y309360D01*
X640380Y306200D01*
X638760Y302680D01*
X637760Y298940D01*
X637420Y295100D01*
X637760Y291260D01*
X638760Y287500D01*
X640540Y283780D01*
X641200Y282200D01*
X641120Y280480D01*
X640320Y278940D01*
X638960Y277860D01*
X637260Y277480D01*
G37*

%LPD*%
G36*
X274880Y-126100D02*
G01*
X273240Y-125600D01*
X271980Y-124460D01*
X271020Y-122220D01*
X207979Y-59160D01*
X207100Y-57859D01*
X206800Y-56360D01*
X206800Y-54160D01*
X207120Y-52619D01*
X208000Y-51320D01*
X247820Y-12060D01*
X248140Y-11299D01*
X244380Y17040D01*
X244420Y18360D01*
X244899Y19600D01*
X245740Y20620D01*
X344720Y105900D01*
X346220Y106720D01*
X347900Y106820D01*
X354660Y105860D01*
X355740Y105540D01*
X356680Y104940D01*
X361420Y100879D01*
X428620Y33680D01*
X429500Y32380D01*
X429799Y30860D01*
X429799Y24140D01*
X429500Y22620D01*
X428620Y21320D01*
X423780Y16460D01*
X278000Y-125000D01*
X276560Y-125879D01*
G37*

%LPC*%
G36*
X306980Y-56580D02*
G01*
X310660Y-56400D01*
X314260Y-55580D01*
X317660Y-54140D01*
X320740Y-52080D01*
X323400Y-49540D01*
X325580Y-46560D01*
X327180Y-43220D01*
X328160Y-39680D01*
X328480Y-36020D01*
X328160Y-32340D01*
X327180Y-28760D01*
X325580Y-25460D01*
X323400Y-22440D01*
X320740Y-19900D01*
X317660Y-17860D01*
X314260Y-16440D01*
X310660Y-15620D01*
X306980Y-15440D01*
X304840Y-15420D01*
X303440Y-14720D01*
X302400Y-13560D01*
X301900Y-12040D01*
X302020Y-10480D01*
X302740Y-7800D01*
X303480Y-6400D01*
X304700Y-5340D01*
X306240Y-4900D01*
X307840Y-5080D01*
X311520Y-6260D01*
X315180Y-6780D01*
X318860Y-6600D01*
X322460Y-5780D01*
X325860Y-4320D01*
X328940Y-2280D01*
X331599Y260D01*
X333780Y3240D01*
X335379Y6580D01*
X336360Y10120D01*
X336680Y13779D01*
X336360Y17460D01*
X335379Y21040D01*
X333780Y24340D01*
X331599Y27360D01*
X328940Y29900D01*
X325860Y31920D01*
X322460Y33360D01*
X318860Y34180D01*
X315180Y34360D01*
X311520Y33880D01*
X308020Y32740D01*
X304760Y30960D01*
X301880Y28680D01*
X299440Y25880D01*
X297560Y22740D01*
X296260Y19280D01*
X296120Y18460D01*
X295620Y17160D01*
X294680Y16060D01*
X293420Y15380D01*
X292000Y15180D01*
X290600Y15500D01*
X289060Y16180D01*
X285460Y17000D01*
X281780Y17180D01*
X278120Y16660D01*
X274620Y15520D01*
X271360Y13759D01*
X268480Y11459D01*
X266040Y8700D01*
X264160Y5520D01*
X262860Y2060D01*
X262200Y-1560D01*
X262200Y-5260D01*
X262860Y-8880D01*
X264160Y-12340D01*
X266040Y-15480D01*
X268480Y-18280D01*
X271360Y-20580D01*
X274620Y-22340D01*
X278120Y-23480D01*
X281780Y-23960D01*
X284620Y-23820D01*
X286160Y-24080D01*
X287500Y-24900D01*
X288440Y-26180D01*
X288800Y-27700D01*
X288540Y-29240D01*
X288060Y-30520D01*
X287400Y-34140D01*
X287400Y-37840D01*
X288060Y-41460D01*
X289360Y-44920D01*
X291240Y-48099D01*
X293680Y-50860D01*
X296560Y-53179D01*
X299820Y-54920D01*
X303320Y-56060D01*
G37*

%LPD*%
G36*
X99840Y-465600D02*
G01*
X76620Y-464940D01*
X53440Y-463540D01*
X30320Y-461320D01*
X7280Y-458360D01*
X-15660Y-454620D01*
X-38440Y-450100D01*
X-61080Y-444860D01*
X-83520Y-438860D01*
X-105740Y-432080D01*
X-127720Y-424580D01*
X-149440Y-416380D01*
X-170880Y-407400D01*
X-192020Y-397780D01*
X-212800Y-387400D01*
X-233240Y-376360D01*
X-253299Y-364640D01*
X-272960Y-352239D01*
X-292180Y-339200D01*
X-310960Y-325540D01*
X-329280Y-311240D01*
X-347100Y-296380D01*
X-364420Y-280880D01*
X-381220Y-264840D01*
X-397460Y-248220D01*
X-413160Y-231080D01*
X-428260Y-213440D01*
X-442760Y-195300D01*
X-456659Y-176680D01*
X-469920Y-157600D01*
X-482540Y-138120D01*
X-494500Y-118180D01*
X-505780Y-97899D01*
X-516400Y-77220D01*
X-526300Y-56220D01*
X-535500Y-34900D01*
X-543980Y-13240D01*
X-551740Y8620D01*
X-558760Y30800D01*
X-565040Y53160D01*
X-570580Y75700D01*
X-575340Y98440D01*
X-579360Y121320D01*
X-582600Y144320D01*
X-585080Y167420D01*
X-586780Y190600D01*
X-587700Y213800D01*
X-587860Y237020D01*
X-587680Y243200D01*
X-587360Y244720D01*
X-586500Y245940D01*
X-585240Y246800D01*
X-583760Y247100D01*
X-288200Y251900D01*
X-119240Y255380D01*
X-96620Y256380D01*
X-95660Y256660D01*
X-78540Y267400D01*
X-78200Y267840D01*
X-78800Y297440D01*
X-78600Y513740D01*
X-78240Y533360D01*
X-77940Y534840D01*
X-77120Y536060D01*
X-75920Y536920D01*
X-73000Y538300D01*
X-71400Y539400D01*
X-69900Y540060D01*
X-68300Y540060D01*
X-66800Y539400D01*
X-65199Y538300D01*
X-61680Y536640D01*
X-57960Y535660D01*
X-54100Y535300D01*
X-50240Y535660D01*
X-46520Y536640D01*
X-43000Y538300D01*
X-39840Y540500D01*
X-37100Y543220D01*
X-34880Y546420D01*
X-33260Y549900D01*
X-32260Y553640D01*
X-31920Y557480D01*
X-32260Y561340D01*
X-33260Y565100D01*
X-34880Y568580D01*
X-37100Y571780D01*
X-39840Y574500D01*
X-43000Y576700D01*
X-46520Y578360D01*
X-50240Y579340D01*
X-54100Y579700D01*
X-57960Y579340D01*
X-61680Y578360D01*
X-65199Y576700D01*
X-66800Y575600D01*
X-68300Y574940D01*
X-69900Y574940D01*
X-71400Y575600D01*
X-73000Y576700D01*
X-75040Y577640D01*
X-76280Y578560D01*
X-77080Y579860D01*
X-77340Y581340D01*
X-76660Y617920D01*
X-76340Y619400D01*
X-75480Y620680D01*
X-74180Y621520D01*
X-72660Y621820D01*
X375379Y621820D01*
X376900Y621520D01*
X378200Y620660D01*
X379080Y619360D01*
X379380Y617820D01*
X379080Y616280D01*
X378200Y615000D01*
X343579Y580360D01*
X342280Y579520D01*
X340740Y579200D01*
X19620Y579200D01*
X18080Y579520D01*
X16780Y580360D01*
X15160Y582000D01*
X12000Y584200D01*
X8480Y585860D01*
X4760Y586840D01*
X900Y587200D01*
X-2960Y586840D01*
X-6680Y585860D01*
X-10200Y584200D01*
X-13360Y582000D01*
X-16100Y579280D01*
X-18320Y576080D01*
X-19940Y572600D01*
X-20940Y568840D01*
X-21280Y564980D01*
X-20940Y561140D01*
X-19940Y557400D01*
X-18320Y553920D01*
X-16100Y550720D01*
X-13360Y548000D01*
X-10200Y545800D01*
X-6680Y544140D01*
X-2960Y543160D01*
X900Y542800D01*
X4760Y543160D01*
X8480Y544140D01*
X12000Y545800D01*
X15160Y548000D01*
X16780Y549640D01*
X18080Y550480D01*
X19620Y550820D01*
X259140Y550820D01*
X260840Y550440D01*
X262200Y549360D01*
X263000Y547820D01*
X263080Y546100D01*
X262420Y544520D01*
X260580Y541880D01*
X258960Y538380D01*
X257960Y534660D01*
X257620Y530800D01*
X257960Y526960D01*
X258960Y523200D01*
X260580Y519720D01*
X262800Y516520D01*
X265540Y513800D01*
X268700Y511599D01*
X272220Y509940D01*
X275940Y508940D01*
X279800Y508600D01*
X283660Y508940D01*
X287380Y509940D01*
X290900Y511599D01*
X294060Y513800D01*
X296800Y516520D01*
X299020Y519720D01*
X300640Y523200D01*
X301640Y526960D01*
X301980Y530800D01*
X301640Y534660D01*
X300640Y538380D01*
X299020Y541880D01*
X297180Y544520D01*
X296520Y546100D01*
X296600Y547820D01*
X297400Y549360D01*
X298760Y550440D01*
X300460Y550820D01*
X348080Y550820D01*
X351240Y551120D01*
X354060Y552040D01*
X356659Y553560D01*
X358440Y555080D01*
X470620Y667240D01*
X472600Y669720D01*
X473960Y672360D01*
X474739Y675280D01*
X474920Y677600D01*
X474920Y700100D01*
X475220Y701640D01*
X476079Y702940D01*
X490940Y717760D01*
X492220Y718620D01*
X493760Y718940D01*
X521180Y718940D01*
X522720Y718620D01*
X524020Y717760D01*
X530180Y711600D01*
X531100Y710120D01*
X531320Y708420D01*
X531120Y706000D01*
X531460Y702159D01*
X532460Y698400D01*
X534080Y694900D01*
X536300Y691720D01*
X539040Y689000D01*
X542200Y686800D01*
X545720Y685140D01*
X549440Y684140D01*
X553300Y683800D01*
X557160Y684140D01*
X560880Y685140D01*
X564400Y686800D01*
X567560Y689000D01*
X570300Y691720D01*
X572520Y694900D01*
X574140Y698400D01*
X575140Y702159D01*
X575300Y703840D01*
X575700Y705300D01*
X576620Y706460D01*
X577900Y707240D01*
X579380Y707480D01*
X580840Y707180D01*
X582080Y706340D01*
X587960Y700560D01*
X603860Y683800D01*
X606280Y681060D01*
X607100Y679599D01*
X607260Y677960D01*
X606720Y676340D01*
X605580Y675120D01*
X604020Y674500D01*
X602340Y674520D01*
X598160Y675520D01*
X594040Y675840D01*
X589940Y675460D01*
X585960Y674380D01*
X582200Y672680D01*
X578780Y670420D01*
X575780Y667600D01*
X573280Y664320D01*
X571360Y660660D01*
X570060Y656760D01*
X569440Y652660D01*
X569480Y648560D01*
X570200Y644500D01*
X571580Y640620D01*
X573580Y637020D01*
X576160Y633780D01*
X579220Y631040D01*
X582680Y628800D01*
X586480Y627200D01*
X590480Y626240D01*
X594600Y625920D01*
X600420Y626480D01*
X601880Y626020D01*
X603040Y625040D01*
X603760Y623700D01*
X603920Y622180D01*
X603500Y620700D01*
X602400Y618540D01*
X601180Y614600D01*
X600600Y610520D01*
X600720Y606420D01*
X601520Y602360D01*
X602960Y598500D01*
X605020Y594920D01*
X607640Y591760D01*
X610740Y589060D01*
X614260Y586880D01*
X618080Y585320D01*
X622100Y584420D01*
X626200Y584200D01*
X630300Y584680D01*
X634260Y585800D01*
X638000Y587560D01*
X641380Y589900D01*
X644340Y592780D01*
X646780Y596080D01*
X648640Y599740D01*
X649860Y603700D01*
X650440Y607780D01*
X650320Y611880D01*
X649700Y615040D01*
X649700Y616580D01*
X650280Y618000D01*
X651360Y619120D01*
X652780Y619720D01*
X654320Y619740D01*
X655759Y619180D01*
X656880Y618160D01*
X661540Y611640D01*
X674400Y592440D01*
X686600Y572820D01*
X698120Y552800D01*
X708960Y532400D01*
X719120Y511620D01*
X728560Y490520D01*
X730620Y485439D01*
X730920Y483780D01*
X730520Y482200D01*
X729520Y480860D01*
X728060Y480100D01*
X726400Y479940D01*
X724840Y480500D01*
X723400Y481400D01*
X719580Y482960D01*
X715560Y483840D01*
X711440Y484080D01*
X707360Y483600D01*
X703379Y482480D01*
X699659Y480720D01*
X696280Y478380D01*
X693319Y475500D01*
X690879Y472200D01*
X689020Y468519D01*
X687780Y464580D01*
X687220Y460500D01*
X687340Y456400D01*
X688120Y452340D01*
X689580Y448500D01*
X691640Y444900D01*
X694260Y441719D01*
X697360Y439020D01*
X700860Y436860D01*
X704680Y435300D01*
X708700Y434400D01*
X712820Y434180D01*
X716919Y434660D01*
X720879Y435760D01*
X724620Y437540D01*
X728000Y439880D01*
X730960Y442760D01*
X733400Y446060D01*
X735260Y449720D01*
X735960Y451980D01*
X736760Y453400D01*
X738060Y454400D01*
X739659Y454780D01*
X741280Y454500D01*
X742640Y453560D01*
X743520Y452180D01*
X745260Y447420D01*
X752520Y425480D01*
X759020Y403320D01*
X764780Y380920D01*
X769760Y358360D01*
X773980Y335660D01*
X777440Y312800D01*
X780120Y289860D01*
X782020Y266820D01*
X783139Y243740D01*
X783480Y220640D01*
X783040Y197540D01*
X781820Y174460D01*
X779820Y151440D01*
X777020Y128460D01*
X773480Y105660D01*
X769140Y82960D01*
X764060Y60420D01*
X758199Y38040D01*
X751600Y15880D01*
X744240Y-6020D01*
X736160Y-27660D01*
X727340Y-49040D01*
X717820Y-70080D01*
X707580Y-90800D01*
X696640Y-111160D01*
X694240Y-115280D01*
X693300Y-116380D01*
X692020Y-117060D01*
X690580Y-117240D01*
X689160Y-116900D01*
X687960Y-116080D01*
X668240Y-96380D01*
X667300Y-94900D01*
X667099Y-93160D01*
X667640Y-91460D01*
X668860Y-90220D01*
X670500Y-89580D01*
X675260Y-88920D01*
X679880Y-87560D01*
X684280Y-85520D01*
X688340Y-82940D01*
X691979Y-79760D01*
X695140Y-76120D01*
X697740Y-72060D01*
X699740Y-67660D01*
X701100Y-63040D01*
X701800Y-58280D01*
X701800Y-53440D01*
X701100Y-48680D01*
X699740Y-44060D01*
X697740Y-39660D01*
X695140Y-35600D01*
X691880Y-31840D01*
X664240Y-4200D01*
X660500Y-940D01*
X656440Y1640D01*
X652039Y3640D01*
X647420Y5000D01*
X642640Y5699D01*
X637820Y5699D01*
X633040Y5000D01*
X628420Y3640D01*
X624020Y1640D01*
X619960Y-940D01*
X616320Y-4120D01*
X613160Y-7780D01*
X610560Y-11820D01*
X608560Y-16220D01*
X607200Y-20840D01*
X606500Y-25600D01*
X605880Y-27220D01*
X604620Y-28440D01*
X602940Y-28980D01*
X601200Y-28780D01*
X599720Y-27839D01*
X556900Y14980D01*
X555960Y16460D01*
X555740Y18200D01*
X556300Y19880D01*
X557500Y21140D01*
X559160Y21780D01*
X563900Y22440D01*
X568540Y23800D01*
X572920Y25820D01*
X576980Y28420D01*
X580620Y31600D01*
X583780Y35240D01*
X586400Y39300D01*
X588400Y43680D01*
X589580Y47740D01*
X590280Y49080D01*
X591400Y50060D01*
X592840Y50540D01*
X594340Y50480D01*
X595720Y49880D01*
X598400Y47980D01*
X601920Y46340D01*
X605640Y45340D01*
X609500Y45000D01*
X613360Y45340D01*
X617080Y46340D01*
X620600Y47980D01*
X623760Y50220D01*
X626500Y52939D01*
X628720Y56100D01*
X629180Y57080D01*
X630100Y58360D01*
X631420Y59140D01*
X632980Y59380D01*
X634480Y59020D01*
X637220Y57760D01*
X640939Y56760D01*
X646919Y56260D01*
X648340Y55439D01*
X649300Y54100D01*
X649640Y52460D01*
X649640Y22460D01*
X649920Y19960D01*
X650660Y17820D01*
X651880Y15880D01*
X653500Y14300D01*
X655420Y13060D01*
X657580Y12300D01*
X660060Y12020D01*
X726540Y12020D01*
X729020Y12300D01*
X731180Y13060D01*
X733100Y14300D01*
X734720Y15880D01*
X735939Y17820D01*
X736680Y19960D01*
X736960Y22460D01*
X736960Y88940D01*
X736680Y91440D01*
X736380Y92300D01*
X736160Y93940D01*
X736620Y95480D01*
X737660Y96760D01*
X739120Y97480D01*
X740200Y97780D01*
X743720Y99400D01*
X746880Y101640D01*
X749620Y104360D01*
X751840Y107540D01*
X753460Y111060D01*
X754460Y114760D01*
X754800Y118620D01*
X754460Y122480D01*
X753460Y126220D01*
X751840Y129720D01*
X749620Y132880D01*
X746880Y135640D01*
X743720Y137840D01*
X740200Y139480D01*
X738360Y139960D01*
X736940Y140680D01*
X735900Y141880D01*
X735420Y143380D01*
X735560Y144960D01*
X735860Y146000D01*
X736760Y151500D01*
X736940Y157080D01*
X736400Y162659D01*
X735160Y168140D01*
X733220Y173359D01*
X730639Y178340D01*
X727440Y182920D01*
X723680Y187060D01*
X721540Y188880D01*
X720580Y190080D01*
X720160Y191520D01*
X720300Y193060D01*
X721020Y194400D01*
X722180Y195420D01*
X723640Y195880D01*
X729020Y195460D01*
X732880Y195799D01*
X736600Y196800D01*
X740120Y198400D01*
X743280Y200640D01*
X746020Y203359D01*
X748240Y206520D01*
X749860Y210060D01*
X750860Y213760D01*
X751200Y217620D01*
X750860Y221480D01*
X749860Y225219D01*
X748240Y228740D01*
X746020Y231880D01*
X743280Y234640D01*
X740120Y236840D01*
X737120Y238220D01*
X735960Y239060D01*
X735160Y240240D01*
X734820Y241600D01*
X734980Y243000D01*
X735860Y246000D01*
X736760Y251500D01*
X736940Y257079D01*
X736400Y262660D01*
X735160Y268140D01*
X733220Y273360D01*
X730639Y278340D01*
X727440Y282920D01*
X723620Y287100D01*
X722760Y288640D01*
X722640Y290420D01*
X723280Y292040D01*
X724560Y293240D01*
X726240Y293780D01*
X728480Y293980D01*
X732200Y294980D01*
X735720Y296620D01*
X738880Y298820D01*
X741620Y301580D01*
X743840Y304720D01*
X745460Y308240D01*
X746460Y311980D01*
X746800Y315840D01*
X746460Y319700D01*
X745460Y323400D01*
X743840Y326920D01*
X741620Y330100D01*
X738880Y332819D01*
X735420Y335260D01*
X734460Y336220D01*
X733880Y337420D01*
X733720Y338780D01*
X735860Y346000D01*
X736760Y351500D01*
X736940Y357080D01*
X736400Y362660D01*
X735160Y368140D01*
X733220Y373360D01*
X730639Y378340D01*
X727440Y382920D01*
X723680Y387060D01*
X719419Y390680D01*
X714720Y393740D01*
X709680Y396180D01*
X704380Y397939D01*
X698880Y398980D01*
X693300Y399340D01*
X687720Y398980D01*
X682220Y397939D01*
X676919Y396180D01*
X671880Y393740D01*
X667180Y390680D01*
X662920Y387060D01*
X659160Y382920D01*
X655960Y378340D01*
X653379Y373360D01*
X653060Y372500D01*
X652220Y371140D01*
X650900Y370240D01*
X649320Y369900D01*
X626520Y369900D01*
X624980Y370220D01*
X623680Y371060D01*
X622820Y372380D01*
X622520Y373900D01*
X622820Y375439D01*
X623680Y376719D01*
X626600Y379640D01*
X628820Y382800D01*
X630440Y386300D01*
X631440Y390060D01*
X631780Y393900D01*
X631440Y397760D01*
X630440Y401480D01*
X628820Y404980D01*
X626600Y408180D01*
X623860Y410880D01*
X620700Y413120D01*
X617180Y414739D01*
X613460Y415740D01*
X609600Y416079D01*
X605740Y415740D01*
X602020Y414739D01*
X598500Y413120D01*
X595340Y410880D01*
X592600Y408180D01*
X590380Y404980D01*
X588760Y401480D01*
X587760Y397760D01*
X587420Y393900D01*
X587760Y390060D01*
X588760Y386300D01*
X590380Y382800D01*
X592600Y379640D01*
X595520Y376719D01*
X596380Y375439D01*
X596680Y373900D01*
X596380Y372380D01*
X595520Y371060D01*
X594220Y370220D01*
X592680Y369900D01*
X557600Y369900D01*
X554460Y369560D01*
X551640Y368640D01*
X549020Y367160D01*
X547240Y365640D01*
X541280Y359680D01*
X540000Y358800D01*
X538460Y358500D01*
X334460Y358500D01*
X332780Y358880D01*
X331400Y359920D01*
X330600Y361460D01*
X330240Y362800D01*
X328620Y366280D01*
X326400Y369480D01*
X323660Y372200D01*
X320500Y374400D01*
X316980Y376060D01*
X313260Y377040D01*
X309400Y377400D01*
X305540Y377040D01*
X301820Y376060D01*
X298300Y374400D01*
X295140Y372200D01*
X293120Y370180D01*
X291840Y369320D01*
X290300Y369000D01*
X288760Y369320D01*
X287480Y370180D01*
X285260Y372400D01*
X282100Y374600D01*
X278580Y376260D01*
X274860Y377239D01*
X271000Y377600D01*
X267140Y377239D01*
X263420Y376260D01*
X259899Y374600D01*
X256740Y372400D01*
X254000Y369680D01*
X251780Y366480D01*
X250159Y362980D01*
X249160Y359260D01*
X248820Y355379D01*
X249160Y351560D01*
X250159Y347800D01*
X251780Y344320D01*
X254000Y341120D01*
X256740Y338400D01*
X259899Y336200D01*
X264380Y334140D01*
X265200Y333519D01*
X287420Y311300D01*
X289880Y309320D01*
X292520Y307980D01*
X295440Y307200D01*
X297760Y307000D01*
X302460Y307000D01*
X303980Y306700D01*
X305260Y305860D01*
X306140Y304580D01*
X306460Y303100D01*
X306200Y301600D01*
X305400Y300280D01*
X304160Y299360D01*
X302300Y298520D01*
X299140Y296280D01*
X296400Y293560D01*
X294180Y290380D01*
X292560Y286880D01*
X291560Y283160D01*
X291420Y281680D01*
X291060Y280340D01*
X290260Y279200D01*
X289140Y278400D01*
X287780Y278040D01*
X284240Y277760D01*
X280520Y276760D01*
X277000Y275100D01*
X273840Y272880D01*
X271100Y270160D01*
X268800Y266860D01*
X268280Y265920D01*
X267220Y264720D01*
X265780Y264020D01*
X264180Y263940D01*
X262680Y264520D01*
X261520Y265620D01*
X259100Y269080D01*
X258320Y269840D01*
X257540Y270940D01*
X257180Y272260D01*
X256980Y274160D01*
X256119Y277020D01*
X254720Y279640D01*
X252700Y282080D01*
X133780Y401019D01*
X131340Y403020D01*
X128699Y404420D01*
X125860Y405300D01*
X122700Y405600D01*
X67260Y405600D01*
X65720Y405900D01*
X64420Y406780D01*
X36580Y434600D01*
X34140Y436640D01*
X31500Y438020D01*
X28660Y438900D01*
X25500Y439180D01*
X-1900Y439180D01*
X-3140Y439400D01*
X-4280Y439980D01*
X-5160Y440900D01*
X-5900Y441980D01*
X-8640Y444700D01*
X-11800Y446900D01*
X-15320Y448560D01*
X-19040Y449540D01*
X-22900Y449900D01*
X-26760Y449540D01*
X-30480Y448560D01*
X-34000Y446900D01*
X-37160Y444700D01*
X-39900Y441980D01*
X-42120Y438780D01*
X-43740Y435300D01*
X-44740Y431560D01*
X-45080Y427680D01*
X-44740Y423840D01*
X-43740Y420100D01*
X-42480Y417400D01*
X-42100Y415840D01*
X-42380Y414219D01*
X-43280Y412860D01*
X-45400Y410760D01*
X-47619Y407600D01*
X-49240Y404099D01*
X-50240Y400340D01*
X-50580Y396480D01*
X-50240Y392640D01*
X-49240Y388920D01*
X-47619Y385420D01*
X-45400Y382220D01*
X-42660Y379520D01*
X-39500Y377280D01*
X-35980Y375660D01*
X-32260Y374660D01*
X-28400Y374320D01*
X-24540Y374660D01*
X-20820Y375660D01*
X-17300Y377280D01*
X-14140Y379520D01*
X-11399Y382220D01*
X-9180Y385420D01*
X-7560Y388920D01*
X-6560Y392640D01*
X-6220Y396480D01*
X-6560Y400340D01*
X-7460Y403760D01*
X-7580Y405220D01*
X-7160Y406620D01*
X-6280Y407780D01*
X-5040Y408540D01*
X-3600Y408780D01*
X17740Y408780D01*
X19280Y408500D01*
X20580Y407620D01*
X48420Y379780D01*
X50860Y377780D01*
X53500Y376380D01*
X56340Y375500D01*
X59500Y375180D01*
X69520Y375180D01*
X71120Y374880D01*
X72440Y373940D01*
X73280Y372540D01*
X73500Y370900D01*
X73040Y369320D01*
X72000Y368060D01*
X66700Y365620D01*
X63540Y363380D01*
X60800Y360680D01*
X58580Y357480D01*
X56960Y353980D01*
X55960Y350260D01*
X55620Y346400D01*
X55960Y342560D01*
X56960Y338800D01*
X58580Y335300D01*
X60800Y332140D01*
X63540Y329400D01*
X66700Y327200D01*
X70220Y325540D01*
X73940Y324540D01*
X77800Y324200D01*
X81660Y324540D01*
X85380Y325540D01*
X88900Y327200D01*
X92060Y329400D01*
X94800Y332140D01*
X97020Y335300D01*
X98640Y338800D01*
X99640Y342560D01*
X99980Y346400D01*
X99640Y350260D01*
X98640Y353980D01*
X97020Y357480D01*
X94800Y360680D01*
X92060Y363380D01*
X88900Y365620D01*
X83600Y368060D01*
X82560Y369320D01*
X82100Y370900D01*
X82320Y372540D01*
X83160Y373940D01*
X84480Y374880D01*
X86080Y375180D01*
X114940Y375180D01*
X116480Y374900D01*
X117780Y374020D01*
X221860Y269920D01*
X222760Y268580D01*
X223039Y267000D01*
X222659Y265420D01*
X221260Y262400D01*
X220260Y258640D01*
X219920Y254780D01*
X220260Y250940D01*
X221260Y247220D01*
X222880Y243720D01*
X225100Y240520D01*
X227840Y237800D01*
X231000Y235600D01*
X234520Y233939D01*
X238240Y232960D01*
X242100Y232600D01*
X245960Y232960D01*
X249680Y233939D01*
X253200Y235600D01*
X256360Y237800D01*
X259100Y240520D01*
X261400Y243820D01*
X261920Y244760D01*
X262980Y245960D01*
X264420Y246660D01*
X266020Y246759D01*
X267520Y246200D01*
X268680Y245100D01*
X271100Y241640D01*
X273840Y238920D01*
X277000Y236680D01*
X280520Y235060D01*
X284240Y234060D01*
X288100Y233720D01*
X291960Y234060D01*
X295680Y235060D01*
X299600Y236900D01*
X301080Y237280D01*
X302600Y237060D01*
X303940Y236300D01*
X304880Y235100D01*
X305300Y233619D01*
X305560Y230740D01*
X306560Y227020D01*
X308180Y223520D01*
X310400Y220320D01*
X313140Y217600D01*
X316300Y215380D01*
X319820Y213760D01*
X323540Y212760D01*
X327400Y212399D01*
X331260Y212760D01*
X334980Y213760D01*
X338500Y215380D01*
X341659Y217600D01*
X343120Y219060D01*
X344420Y219920D01*
X345940Y220240D01*
X394700Y220240D01*
X396220Y219920D01*
X397520Y219060D01*
X412640Y203939D01*
X413519Y202620D01*
X413820Y201100D01*
X413820Y152340D01*
X414120Y149320D01*
X414940Y146640D01*
X416260Y144140D01*
X418180Y141820D01*
X442900Y117080D01*
X445240Y115160D01*
X447720Y113840D01*
X450420Y113020D01*
X453420Y112739D01*
X494420Y112739D01*
X497420Y113020D01*
X500120Y113840D01*
X501160Y114400D01*
X502760Y114880D01*
X504400Y114660D01*
X504960Y114300D01*
X504760Y115060D01*
X505020Y116679D01*
X505940Y118059D01*
X524920Y137040D01*
X526220Y137940D01*
X527740Y138220D01*
X553600Y138220D01*
X555120Y137940D01*
X556420Y137040D01*
X600280Y93200D01*
X601140Y91960D01*
X601440Y90460D01*
X601180Y88940D01*
X600380Y87640D01*
X599140Y86760D01*
X598400Y86420D01*
X595240Y84179D01*
X592500Y81460D01*
X590280Y78300D01*
X589860Y77360D01*
X588920Y76080D01*
X587560Y75280D01*
X585980Y75060D01*
X584460Y75460D01*
X583200Y76440D01*
X580520Y79520D01*
X552900Y107160D01*
X549140Y110380D01*
X545080Y113000D01*
X540700Y115000D01*
X536060Y116380D01*
X531280Y117040D01*
X526460Y117040D01*
X521680Y116380D01*
X517060Y115000D01*
X512680Y113000D01*
X510920Y111880D01*
X509380Y111280D01*
X507720Y111400D01*
X506860Y111820D01*
X507060Y110800D01*
X506680Y109160D01*
X505680Y107840D01*
X504960Y107240D01*
X501800Y103580D01*
X499200Y99520D01*
X497200Y95140D01*
X495840Y90500D01*
X495160Y85740D01*
X495160Y80900D01*
X495840Y76140D01*
X497200Y71500D01*
X499200Y67140D01*
X501599Y63380D01*
X502160Y62000D01*
X502160Y60480D01*
X501599Y59080D01*
X500560Y57980D01*
X499180Y57360D01*
X497680Y57000D01*
X495500Y55920D01*
X493760Y54520D01*
X276140Y-163120D01*
X274740Y-164000D01*
X273100Y-164280D01*
X271500Y-163820D01*
X270200Y-162780D01*
X269440Y-161300D01*
X269040Y-159820D01*
X267420Y-156300D01*
X265200Y-153140D01*
X262460Y-150420D01*
X259300Y-148180D01*
X255780Y-146560D01*
X252060Y-145540D01*
X249300Y-145300D01*
X247860Y-144900D01*
X246680Y-143980D01*
X245900Y-142720D01*
X245660Y-141240D01*
X245980Y-139740D01*
X246820Y-138520D01*
X254480Y-130780D01*
X255920Y-129860D01*
X257600Y-129620D01*
X259240Y-130100D01*
X260520Y-131220D01*
X261240Y-132780D01*
X261640Y-134720D01*
X262600Y-136800D01*
X264000Y-138580D01*
X265760Y-140040D01*
X267800Y-141060D01*
X270000Y-141600D01*
X272280Y-141640D01*
X274520Y-141160D01*
X276580Y-140200D01*
X278560Y-138680D01*
X430880Y9140D01*
X436940Y15220D01*
X438440Y17060D01*
X439420Y19140D01*
X439920Y21340D01*
X440000Y22599D01*
X440000Y32400D01*
X439739Y34760D01*
X438980Y36920D01*
X437760Y38840D01*
X436940Y39780D01*
X367860Y108800D01*
X362520Y113360D01*
X360540Y114720D01*
X358400Y115540D01*
X357140Y115820D01*
X347740Y117180D01*
X345760Y117260D01*
X343459Y116920D01*
X341340Y116080D01*
X339280Y114700D01*
X237520Y27000D01*
X236840Y26340D01*
X235380Y24460D01*
X234440Y22380D01*
X233960Y20120D01*
X234020Y17620D01*
X237160Y-6040D01*
X237140Y-7240D01*
X236740Y-8400D01*
X236000Y-9400D01*
X199720Y-45140D01*
X198220Y-47020D01*
X197200Y-49060D01*
X196880Y-50140D01*
X196560Y-52699D01*
X193000Y-71480D01*
X192360Y-73020D01*
X191140Y-74160D01*
X189579Y-74720D01*
X187900Y-74560D01*
X186460Y-73760D01*
X185440Y-72420D01*
X185080Y-70820D01*
X184600Y-34380D01*
X183060Y8760D01*
X183180Y9880D01*
X192320Y46220D01*
X192860Y47420D01*
X247260Y130300D01*
X248340Y132420D01*
X248900Y134640D01*
X248960Y136920D01*
X248500Y139140D01*
X248039Y140280D01*
X247120Y141860D01*
X246640Y143180D01*
X246640Y144580D01*
X247140Y145900D01*
X248039Y146980D01*
X249200Y147940D01*
X263500Y162220D01*
X264640Y163000D01*
X265980Y163359D01*
X269160Y163640D01*
X272880Y164660D01*
X276400Y166280D01*
X279560Y168520D01*
X282300Y171240D01*
X284520Y174400D01*
X286140Y177920D01*
X287140Y181640D01*
X287480Y185479D01*
X287140Y189340D01*
X286140Y193100D01*
X284520Y196600D01*
X282300Y199760D01*
X279560Y202480D01*
X276400Y204720D01*
X272880Y206340D01*
X269160Y207360D01*
X265300Y207680D01*
X261439Y207360D01*
X257719Y206340D01*
X254940Y205060D01*
X253600Y204700D01*
X252240Y204800D01*
X250980Y205380D01*
X247260Y209100D01*
X244100Y211300D01*
X240580Y212960D01*
X236860Y213939D01*
X233000Y214300D01*
X229140Y213939D01*
X225420Y212960D01*
X221900Y211300D01*
X218740Y209100D01*
X216000Y206380D01*
X213780Y203180D01*
X212160Y199700D01*
X211160Y195940D01*
X210820Y192079D01*
X211160Y188240D01*
X212160Y184520D01*
X213780Y181020D01*
X214480Y180040D01*
X215140Y178420D01*
X215060Y176680D01*
X214259Y175140D01*
X212880Y174120D01*
X211200Y173740D01*
X119920Y173740D01*
X116760Y173400D01*
X113920Y172560D01*
X111280Y171140D01*
X108840Y169140D01*
X63060Y123360D01*
X61800Y122540D01*
X60320Y122220D01*
X58800Y122460D01*
X57520Y123260D01*
X56620Y124520D01*
X55420Y127080D01*
X53200Y130280D01*
X50460Y132980D01*
X47300Y135220D01*
X43780Y136840D01*
X40060Y137840D01*
X36200Y138180D01*
X32340Y137840D01*
X28620Y136840D01*
X25099Y135220D01*
X21940Y132980D01*
X19200Y130280D01*
X16980Y127080D01*
X15360Y123580D01*
X14360Y119860D01*
X14020Y116000D01*
X14360Y112160D01*
X15380Y108360D01*
X15660Y107660D01*
X15980Y106000D01*
X15560Y104320D01*
X14500Y102980D01*
X12980Y102220D01*
X11259Y102180D01*
X9680Y102820D01*
X6240Y105260D01*
X2720Y106860D01*
X-1000Y107860D01*
X-4860Y108200D01*
X-8720Y107860D01*
X-10740Y107340D01*
X-12200Y107220D01*
X-13600Y107620D01*
X-14760Y108539D01*
X-15520Y109760D01*
X-15780Y111199D01*
X-15780Y134320D01*
X-16080Y137340D01*
X-16900Y140040D01*
X-18220Y142500D01*
X-18960Y143400D01*
X-19720Y144880D01*
X-19820Y146480D01*
X-19280Y148020D01*
X-18160Y149220D01*
X-16339Y150500D01*
X-13600Y153220D01*
X-11379Y156420D01*
X-9760Y159900D01*
X-8760Y163640D01*
X-8420Y167480D01*
X-8760Y171340D01*
X-9760Y175100D01*
X-11379Y178580D01*
X-13600Y181780D01*
X-16339Y184500D01*
X-19500Y186700D01*
X-23020Y188359D01*
X-26740Y189340D01*
X-30600Y189700D01*
X-34460Y189340D01*
X-38180Y188359D01*
X-41700Y186700D01*
X-44860Y184500D01*
X-47180Y182180D01*
X-48480Y181300D01*
X-50020Y181000D01*
X-80580Y181000D01*
X-82120Y181300D01*
X-83420Y182180D01*
X-84280Y183460D01*
X-84580Y184980D01*
X-84280Y186520D01*
X-81080Y191100D01*
X-79460Y194600D01*
X-78460Y198359D01*
X-78120Y202200D01*
X-78460Y206060D01*
X-79460Y209780D01*
X-81080Y213299D01*
X-83300Y216460D01*
X-86039Y219180D01*
X-89200Y221420D01*
X-92720Y223039D01*
X-96440Y224060D01*
X-100300Y224380D01*
X-104160Y224060D01*
X-107880Y223039D01*
X-111400Y221420D01*
X-114560Y219180D01*
X-117300Y216460D01*
X-119520Y213299D01*
X-121140Y209780D01*
X-122140Y206060D01*
X-122480Y202200D01*
X-122140Y198359D01*
X-121140Y194600D01*
X-119520Y191100D01*
X-116320Y186520D01*
X-116020Y184980D01*
X-116320Y183460D01*
X-117180Y182180D01*
X-118480Y181300D01*
X-120020Y181000D01*
X-325080Y181000D01*
X-328040Y180680D01*
X-330660Y179840D01*
X-333080Y178420D01*
X-334739Y177020D01*
X-349580Y162200D01*
X-351460Y159880D01*
X-352700Y157420D01*
X-353440Y154720D01*
X-353600Y152560D01*
X-353600Y62600D01*
X-353900Y61060D01*
X-354780Y59780D01*
X-357400Y57180D01*
X-359620Y53980D01*
X-361240Y50480D01*
X-362239Y46760D01*
X-362580Y42880D01*
X-362239Y39060D01*
X-361240Y35300D01*
X-359620Y31820D01*
X-357400Y28620D01*
X-354660Y25900D01*
X-351500Y23700D01*
X-347980Y22040D01*
X-344260Y21060D01*
X-340400Y20700D01*
X-336540Y21060D01*
X-332819Y22040D01*
X-329300Y23700D01*
X-326140Y25900D01*
X-323400Y28620D01*
X-321180Y31820D01*
X-319560Y35300D01*
X-318560Y39060D01*
X-318220Y42880D01*
X-318560Y46760D01*
X-319560Y50480D01*
X-321180Y53980D01*
X-323400Y57180D01*
X-326019Y59780D01*
X-326900Y61080D01*
X-327200Y62600D01*
X-327200Y145560D01*
X-326900Y147100D01*
X-326019Y148400D01*
X-321000Y153420D01*
X-319700Y154300D01*
X-318180Y154580D01*
X-148900Y154580D01*
X-147260Y154260D01*
X-145920Y153240D01*
X-145080Y151820D01*
X-144920Y150120D01*
X-145460Y148560D01*
X-146600Y147340D01*
X-147360Y146800D01*
X-150100Y144080D01*
X-152320Y140880D01*
X-153940Y137400D01*
X-154940Y133640D01*
X-155280Y129780D01*
X-154940Y125940D01*
X-153940Y122220D01*
X-152320Y118720D01*
X-150100Y115520D01*
X-147360Y112800D01*
X-144200Y110600D01*
X-140680Y108940D01*
X-136960Y107960D01*
X-133100Y107600D01*
X-129240Y107960D01*
X-125520Y108940D01*
X-122000Y110600D01*
X-118840Y112800D01*
X-116100Y115520D01*
X-114080Y118420D01*
X-113200Y119320D01*
X-112060Y119920D01*
X-110800Y120120D01*
X-102340Y120120D01*
X-100900Y119880D01*
X-99660Y119120D01*
X-98760Y117960D01*
X-98360Y116560D01*
X-98460Y115100D01*
X-99140Y112560D01*
X-99480Y108699D01*
X-99140Y104860D01*
X-98140Y101100D01*
X-96519Y97600D01*
X-94300Y94420D01*
X-91560Y91700D01*
X-88400Y89500D01*
X-84880Y87840D01*
X-81160Y86840D01*
X-77300Y86500D01*
X-73440Y86840D01*
X-69720Y87840D01*
X-66200Y89500D01*
X-63040Y91700D01*
X-60300Y94420D01*
X-58080Y97600D01*
X-56460Y101100D01*
X-55460Y104860D01*
X-55119Y108699D01*
X-55460Y112560D01*
X-56140Y115100D01*
X-56240Y116560D01*
X-55839Y117960D01*
X-54940Y119120D01*
X-53700Y119880D01*
X-52260Y120120D01*
X-48580Y120120D01*
X-47040Y119840D01*
X-45759Y118940D01*
X-44880Y117660D01*
X-44580Y116120D01*
X-44580Y-93940D01*
X-44880Y-95480D01*
X-45759Y-96780D01*
X-126580Y-177600D01*
X-127880Y-178480D01*
X-129400Y-178760D01*
X-188280Y-178760D01*
X-191280Y-179080D01*
X-193980Y-179899D01*
X-196460Y-181220D01*
X-198800Y-183140D01*
X-219240Y-203680D01*
X-221140Y-205980D01*
X-222460Y-208480D01*
X-223280Y-211180D01*
X-223580Y-214160D01*
X-223580Y-237640D01*
X-223920Y-239259D01*
X-224860Y-240580D01*
X-226260Y-241439D01*
X-227880Y-241640D01*
X-229440Y-241200D01*
X-230700Y-240120D01*
X-231439Y-238680D01*
X-232460Y-234899D01*
X-234080Y-231420D01*
X-236300Y-228220D01*
X-239040Y-225500D01*
X-242200Y-223299D01*
X-245720Y-221640D01*
X-249440Y-220660D01*
X-253299Y-220300D01*
X-257160Y-220660D01*
X-260880Y-221640D01*
X-264400Y-223299D01*
X-267560Y-225500D01*
X-270300Y-228220D01*
X-272520Y-231420D01*
X-274140Y-234899D01*
X-275140Y-238660D01*
X-275480Y-242520D01*
X-275140Y-246360D01*
X-274140Y-250100D01*
X-272520Y-253580D01*
X-270300Y-256780D01*
X-267560Y-259500D01*
X-264400Y-261700D01*
X-260880Y-263360D01*
X-257160Y-264340D01*
X-253299Y-264700D01*
X-249440Y-264340D01*
X-245720Y-263360D01*
X-242200Y-261700D01*
X-239040Y-259500D01*
X-236300Y-256780D01*
X-234080Y-253580D01*
X-232460Y-250100D01*
X-231439Y-246320D01*
X-230700Y-244880D01*
X-229440Y-243800D01*
X-227880Y-243359D01*
X-226260Y-243560D01*
X-224860Y-244440D01*
X-223920Y-245740D01*
X-223580Y-247360D01*
X-223580Y-344380D01*
X-223340Y-347120D01*
X-222560Y-349840D01*
X-221280Y-352360D01*
X-219400Y-354700D01*
X-205680Y-368940D01*
X-203380Y-370880D01*
X-200920Y-372239D01*
X-198240Y-373120D01*
X-194960Y-373480D01*
X-169540Y-373480D01*
X-168100Y-373740D01*
X-166860Y-374500D01*
X-165960Y-375660D01*
X-165560Y-377040D01*
X-165660Y-378519D01*
X-165940Y-379540D01*
X-166280Y-383400D01*
X-165940Y-387239D01*
X-164940Y-391000D01*
X-163320Y-394500D01*
X-161100Y-397660D01*
X-158360Y-400400D01*
X-155200Y-402600D01*
X-151680Y-404260D01*
X-147960Y-405260D01*
X-144100Y-405600D01*
X-140240Y-405260D01*
X-136520Y-404260D01*
X-133000Y-402600D01*
X-129840Y-400400D01*
X-127100Y-397660D01*
X-124880Y-394500D01*
X-123260Y-391000D01*
X-122260Y-387239D01*
X-121920Y-383400D01*
X-122320Y-379320D01*
X-122400Y-377580D01*
X-121740Y-375980D01*
X-120460Y-374820D01*
X-118800Y-374300D01*
X-117080Y-374520D01*
X-115620Y-375439D01*
X-106660Y-384400D01*
X-105860Y-385540D01*
X-105500Y-386900D01*
X-105140Y-391260D01*
X-104140Y-395000D01*
X-102520Y-398500D01*
X-100300Y-401659D01*
X-97560Y-404380D01*
X-94400Y-406620D01*
X-90879Y-408240D01*
X-87160Y-409260D01*
X-83300Y-409580D01*
X-79440Y-409260D01*
X-75720Y-408240D01*
X-72200Y-406620D01*
X-69040Y-404380D01*
X-66300Y-401659D01*
X-64080Y-398500D01*
X-62460Y-395000D01*
X-61460Y-391240D01*
X-61120Y-387400D01*
X-61460Y-383560D01*
X-62460Y-379820D01*
X-64080Y-376300D01*
X-66300Y-373140D01*
X-69040Y-370420D01*
X-72200Y-368180D01*
X-75720Y-366560D01*
X-79440Y-365540D01*
X-83780Y-365220D01*
X-85140Y-364860D01*
X-86300Y-364060D01*
X-96020Y-354320D01*
X-96880Y-353020D01*
X-97180Y-351500D01*
X-96880Y-349960D01*
X-96039Y-348700D01*
X-94740Y-347800D01*
X-93219Y-347500D01*
X-40820Y-347020D01*
X-39700Y-347200D01*
X-38680Y-347620D01*
X24760Y-386820D01*
X25580Y-387260D01*
X27839Y-388100D01*
X30320Y-388400D01*
X170060Y-389780D01*
X172820Y-389440D01*
X174960Y-388579D01*
X176840Y-387320D01*
X178380Y-385660D01*
X179520Y-383680D01*
X180200Y-381480D01*
X180380Y-378980D01*
X178840Y-336820D01*
X179820Y-321760D01*
X179400Y-248720D01*
X179760Y-247040D01*
X180780Y-245680D01*
X182260Y-244860D01*
X183960Y-244720D01*
X185560Y-245320D01*
X186780Y-246540D01*
X188900Y-249840D01*
X192160Y-253580D01*
X219780Y-281240D01*
X223540Y-284500D01*
X227600Y-287080D01*
X232000Y-289100D01*
X236620Y-290460D01*
X241400Y-291120D01*
X246220Y-291120D01*
X251000Y-290460D01*
X255620Y-289100D01*
X260020Y-287080D01*
X264060Y-284500D01*
X267720Y-281320D01*
X270880Y-277660D01*
X273480Y-273600D01*
X275480Y-269240D01*
X276840Y-264620D01*
X277540Y-259840D01*
X277540Y-254760D01*
X277840Y-253220D01*
X278700Y-251940D01*
X280000Y-251060D01*
X281540Y-250780D01*
X283060Y-251060D01*
X284360Y-251940D01*
X332800Y-300360D01*
X333660Y-301660D01*
X333980Y-303200D01*
X333660Y-304720D01*
X332800Y-306040D01*
X331500Y-306880D01*
X329980Y-307220D01*
X324920Y-307220D01*
X320140Y-307900D01*
X315500Y-309260D01*
X311120Y-311240D01*
X307060Y-313880D01*
X303420Y-317020D01*
X300260Y-320680D01*
X297640Y-324720D01*
X295640Y-329120D01*
X294280Y-333740D01*
X293600Y-338519D01*
X293600Y-343360D01*
X294280Y-348120D01*
X295640Y-352760D01*
X297640Y-357140D01*
X300260Y-361200D01*
X303500Y-364940D01*
X331140Y-392600D01*
X334900Y-395840D01*
X338960Y-398440D01*
X343340Y-400460D01*
X347980Y-401820D01*
X352740Y-402500D01*
X357580Y-402500D01*
X362340Y-401820D01*
X366980Y-400460D01*
X371360Y-398440D01*
X375420Y-395840D01*
X379060Y-392660D01*
X382220Y-389040D01*
X384840Y-384960D01*
X386840Y-380600D01*
X388200Y-375940D01*
X388880Y-371200D01*
X388880Y-366100D01*
X389200Y-364580D01*
X390060Y-363300D01*
X391360Y-362420D01*
X392879Y-362120D01*
X394420Y-362420D01*
X395720Y-363300D01*
X418720Y-386280D01*
X419560Y-387540D01*
X419880Y-388980D01*
X419660Y-390480D01*
X418900Y-391760D01*
X417700Y-392660D01*
X414180Y-394500D01*
X393160Y-404360D01*
X371820Y-413560D01*
X350180Y-422020D01*
X328280Y-429720D01*
X306120Y-436740D01*
X283760Y-442980D01*
X261180Y-448500D01*
X238440Y-453240D01*
X215560Y-457220D01*
X192560Y-460460D01*
X169460Y-462900D01*
X146280Y-464560D01*
X123080Y-465480D01*
G37*

%LPC*%
G36*
X153400Y-455280D02*
G01*
X157260Y-454940D01*
X160980Y-453940D01*
X164500Y-452320D01*
X167659Y-450100D01*
X170560Y-447200D01*
X171920Y-446300D01*
X173500Y-446040D01*
X175080Y-446400D01*
X178420Y-447960D01*
X182140Y-448940D01*
X186000Y-449300D01*
X189860Y-448940D01*
X193580Y-447960D01*
X197100Y-446300D01*
X200260Y-444099D01*
X203000Y-441380D01*
X205219Y-438180D01*
X206840Y-434700D01*
X207840Y-430940D01*
X208180Y-427120D01*
X207840Y-423240D01*
X206840Y-419520D01*
X205219Y-416019D01*
X203000Y-412819D01*
X200260Y-410100D01*
X197100Y-407900D01*
X193580Y-406240D01*
X189860Y-405260D01*
X186000Y-404900D01*
X182140Y-405260D01*
X178420Y-406240D01*
X174899Y-407900D01*
X171740Y-410100D01*
X168840Y-413000D01*
X167480Y-413900D01*
X165900Y-414159D01*
X164320Y-413800D01*
X160980Y-412239D01*
X157260Y-411240D01*
X153400Y-410900D01*
X149540Y-411240D01*
X145820Y-412239D01*
X142300Y-413900D01*
X139140Y-416100D01*
X136400Y-418820D01*
X134180Y-422020D01*
X132560Y-425500D01*
X131560Y-429260D01*
X131220Y-433120D01*
X131560Y-436960D01*
X132560Y-440680D01*
X134180Y-444180D01*
X136400Y-447380D01*
X139140Y-450100D01*
X142300Y-452320D01*
X145820Y-453940D01*
X149540Y-454940D01*
G37*
G36*
X-379099Y-181400D02*
G01*
X-375240Y-181060D01*
X-371520Y-180060D01*
X-368000Y-178400D01*
X-364840Y-176200D01*
X-362100Y-173480D01*
X-359880Y-170280D01*
X-358260Y-166800D01*
X-357260Y-163039D01*
X-356920Y-159200D01*
X-357260Y-155340D01*
X-357780Y-153380D01*
X-357900Y-152020D01*
X-357540Y-150660D01*
X-356740Y-149520D01*
X-355600Y-148740D01*
X-353000Y-147520D01*
X-349840Y-145280D01*
X-347100Y-142580D01*
X-344880Y-139380D01*
X-343260Y-135880D01*
X-342260Y-132160D01*
X-341760Y-127020D01*
X-341380Y-125700D01*
X-340580Y-124620D01*
X-339460Y-123859D01*
X-338140Y-123520D01*
X-333940Y-123160D01*
X-330220Y-122160D01*
X-326700Y-120500D01*
X-323540Y-118300D01*
X-320800Y-115580D01*
X-318580Y-112400D01*
X-316960Y-108900D01*
X-315960Y-105140D01*
X-315620Y-101300D01*
X-315960Y-97440D01*
X-316960Y-93720D01*
X-318580Y-90220D01*
X-320800Y-87020D01*
X-323540Y-84320D01*
X-326700Y-82080D01*
X-330220Y-80460D01*
X-333940Y-79460D01*
X-337800Y-79120D01*
X-341659Y-79460D01*
X-345379Y-80460D01*
X-348900Y-82080D01*
X-352060Y-84320D01*
X-354799Y-87020D01*
X-357020Y-90220D01*
X-358640Y-93720D01*
X-359640Y-97440D01*
X-360140Y-102600D01*
X-360520Y-103900D01*
X-361320Y-105000D01*
X-362440Y-105740D01*
X-363760Y-106080D01*
X-367960Y-106440D01*
X-371680Y-107440D01*
X-375200Y-109100D01*
X-378360Y-111300D01*
X-381100Y-114040D01*
X-383320Y-117220D01*
X-384940Y-120700D01*
X-385940Y-124460D01*
X-386280Y-128320D01*
X-385940Y-132160D01*
X-385420Y-134120D01*
X-385300Y-135480D01*
X-385660Y-136840D01*
X-386460Y-137980D01*
X-387600Y-138760D01*
X-390200Y-140000D01*
X-393360Y-142220D01*
X-396100Y-144920D01*
X-398320Y-148120D01*
X-399940Y-151620D01*
X-400940Y-155340D01*
X-401280Y-159200D01*
X-400940Y-163039D01*
X-399940Y-166800D01*
X-398320Y-170280D01*
X-396100Y-173480D01*
X-393360Y-176200D01*
X-390200Y-178400D01*
X-386680Y-180060D01*
X-382960Y-181060D01*
G37*
G36*
X-134300Y-65600D02*
G01*
X-130440Y-65260D01*
X-126720Y-64260D01*
X-123200Y-62600D01*
X-120040Y-60400D01*
X-117300Y-57660D01*
X-115079Y-54500D01*
X-113460Y-51000D01*
X-112460Y-47240D01*
X-112120Y-43400D01*
X-112460Y-39540D01*
X-113460Y-35820D01*
X-115079Y-32320D01*
X-117300Y-29140D01*
X-120040Y-26420D01*
X-123200Y-24180D01*
X-126720Y-22559D01*
X-130440Y-21560D01*
X-134300Y-21220D01*
X-138160Y-21560D01*
X-141880Y-22559D01*
X-145400Y-24180D01*
X-148560Y-26420D01*
X-151300Y-29140D01*
X-153520Y-32320D01*
X-155140Y-35820D01*
X-156140Y-39540D01*
X-156480Y-43400D01*
X-156140Y-47240D01*
X-155140Y-51000D01*
X-153520Y-54500D01*
X-151300Y-57660D01*
X-148560Y-60400D01*
X-145400Y-62600D01*
X-141880Y-64260D01*
X-138160Y-65260D01*
G37*
G36*
X-223800Y34400D02*
G01*
X-219940Y34740D01*
X-216220Y35740D01*
X-212700Y37400D01*
X-209540Y39600D01*
X-206800Y42340D01*
X-204579Y45500D01*
X-202960Y49000D01*
X-201960Y52760D01*
X-201620Y56600D01*
X-201960Y60460D01*
X-202960Y64180D01*
X-204579Y67680D01*
X-206800Y70860D01*
X-209540Y73580D01*
X-212700Y75820D01*
X-216220Y77440D01*
X-219940Y78440D01*
X-223800Y78780D01*
X-227659Y78440D01*
X-231380Y77440D01*
X-234899Y75820D01*
X-238060Y73580D01*
X-240799Y70860D01*
X-243020Y67680D01*
X-244640Y64180D01*
X-245640Y60460D01*
X-245980Y56600D01*
X-245640Y52760D01*
X-244640Y49000D01*
X-243020Y45500D01*
X-240799Y42340D01*
X-238060Y39600D01*
X-234899Y37400D01*
X-231380Y35740D01*
X-227659Y34740D01*
G37*
G36*
X456220Y54340D02*
G01*
X460080Y54700D01*
X463800Y55679D01*
X467320Y57300D01*
X470480Y59520D01*
X473220Y62260D01*
X475439Y65439D01*
X477060Y68940D01*
X478060Y72660D01*
X478400Y76520D01*
X478060Y80380D01*
X477060Y84120D01*
X475439Y87620D01*
X473220Y90800D01*
X470480Y93539D01*
X467320Y95740D01*
X463800Y97380D01*
X460080Y98360D01*
X456220Y98720D01*
X452360Y98360D01*
X448640Y97380D01*
X445120Y95740D01*
X441960Y93539D01*
X439219Y90800D01*
X437000Y87620D01*
X435379Y84120D01*
X434380Y80380D01*
X434040Y76520D01*
X434380Y72660D01*
X435379Y68940D01*
X437000Y65439D01*
X439219Y62260D01*
X441960Y59520D01*
X445120Y57300D01*
X448640Y55679D01*
X452360Y54700D01*
G37*
G36*
X-530700Y185219D02*
G01*
X-526840Y185539D01*
X-523120Y186560D01*
X-519600Y188180D01*
X-516440Y190420D01*
X-513700Y193140D01*
X-511480Y196300D01*
X-509860Y199800D01*
X-508860Y203560D01*
X-508519Y207399D01*
X-508860Y211260D01*
X-509860Y214980D01*
X-511480Y218500D01*
X-513700Y221660D01*
X-516440Y224380D01*
X-519600Y226620D01*
X-523120Y228240D01*
X-526840Y229259D01*
X-530700Y229579D01*
X-534560Y229259D01*
X-538280Y228240D01*
X-541800Y226620D01*
X-544960Y224380D01*
X-547700Y221660D01*
X-549920Y218500D01*
X-551540Y214980D01*
X-552540Y211260D01*
X-552880Y207399D01*
X-552540Y203560D01*
X-551540Y199800D01*
X-549920Y196300D01*
X-547700Y193140D01*
X-544960Y190420D01*
X-541800Y188180D01*
X-538280Y186560D01*
X-534560Y185539D01*
G37*
G36*
X295100Y394200D02*
G01*
X298960Y394540D01*
X302680Y395540D01*
X306200Y397200D01*
X309360Y399400D01*
X312100Y402140D01*
X314320Y405300D01*
X315940Y408800D01*
X316940Y412560D01*
X317280Y416400D01*
X316940Y420260D01*
X315940Y423980D01*
X314320Y427480D01*
X312100Y430680D01*
X309360Y433380D01*
X306200Y435620D01*
X302680Y437239D01*
X298960Y438240D01*
X295100Y438579D01*
X291240Y438240D01*
X287520Y437239D01*
X284000Y435620D01*
X280840Y433380D01*
X278100Y430680D01*
X275880Y427480D01*
X274260Y423980D01*
X273260Y420260D01*
X272920Y416400D01*
X273260Y412560D01*
X274260Y408800D01*
X275880Y405300D01*
X278100Y402140D01*
X280840Y399400D01*
X284000Y397200D01*
X287520Y395540D01*
X291240Y394540D01*
G37*
G36*
X129200Y414900D02*
G01*
X133060Y415260D01*
X136780Y416260D01*
X140300Y417879D01*
X143460Y420100D01*
X146200Y422819D01*
X148420Y426019D01*
X150040Y429520D01*
X151040Y433240D01*
X151380Y437080D01*
X151040Y440940D01*
X150040Y444700D01*
X148420Y448180D01*
X146500Y450900D01*
X145860Y452400D01*
X145860Y454000D01*
X146500Y455500D01*
X147920Y457500D01*
X149540Y461019D01*
X150540Y464739D01*
X150880Y468579D01*
X150540Y472440D01*
X149540Y476200D01*
X147920Y479700D01*
X145700Y482860D01*
X142960Y485600D01*
X139800Y487800D01*
X136280Y489460D01*
X132560Y490460D01*
X128699Y490800D01*
X124840Y490460D01*
X121120Y489460D01*
X117600Y487800D01*
X114440Y485600D01*
X112780Y483940D01*
X111480Y483060D01*
X109960Y482780D01*
X108420Y483060D01*
X107120Y483940D01*
X105960Y485100D01*
X102680Y487400D01*
X101560Y488560D01*
X101020Y490100D01*
X101480Y495680D01*
X101140Y499540D01*
X100140Y503300D01*
X98520Y506800D01*
X96300Y509960D01*
X93560Y512680D01*
X90399Y514900D01*
X86880Y516560D01*
X83160Y517560D01*
X79300Y517879D01*
X75440Y517560D01*
X71720Y516560D01*
X68200Y514900D01*
X65039Y512680D01*
X62300Y509960D01*
X60080Y506800D01*
X58460Y503300D01*
X57460Y499540D01*
X57120Y495680D01*
X57460Y491840D01*
X58460Y488120D01*
X60080Y484600D01*
X62300Y481440D01*
X65039Y478720D01*
X68320Y476420D01*
X69440Y475240D01*
X69980Y473720D01*
X69520Y468100D01*
X69860Y464260D01*
X70860Y460500D01*
X72480Y457020D01*
X73860Y455060D01*
X74500Y453560D01*
X74500Y451960D01*
X73860Y450480D01*
X72680Y448780D01*
X71060Y445300D01*
X70060Y441560D01*
X69720Y437680D01*
X70060Y433840D01*
X71060Y430100D01*
X72680Y426620D01*
X74900Y423420D01*
X77640Y420700D01*
X80800Y418500D01*
X84320Y416840D01*
X88040Y415860D01*
X91900Y415500D01*
X95760Y415860D01*
X99480Y416840D01*
X103000Y418500D01*
X106160Y420700D01*
X107420Y421980D01*
X108720Y422819D01*
X110239Y423140D01*
X111780Y422819D01*
X113080Y421980D01*
X114940Y420100D01*
X118100Y417879D01*
X121620Y416260D01*
X125340Y415260D01*
G37*
G36*
X463600Y439799D02*
G01*
X467460Y440140D01*
X471180Y441140D01*
X474700Y442800D01*
X477860Y445000D01*
X480600Y447740D01*
X482819Y450900D01*
X484440Y454400D01*
X485439Y458160D01*
X485780Y462000D01*
X485439Y465860D01*
X484440Y469580D01*
X482819Y473100D01*
X481860Y474460D01*
X481220Y475920D01*
X481220Y477560D01*
X481860Y479020D01*
X483320Y481100D01*
X484940Y484600D01*
X485940Y488360D01*
X486280Y492200D01*
X485940Y496060D01*
X484940Y499780D01*
X483320Y503300D01*
X482200Y504900D01*
X481560Y506380D01*
X481560Y507980D01*
X482200Y509480D01*
X483420Y511220D01*
X485040Y514720D01*
X486040Y518440D01*
X486380Y522280D01*
X486040Y526140D01*
X485040Y529900D01*
X483420Y533380D01*
X481200Y536580D01*
X478459Y539300D01*
X475300Y541500D01*
X471780Y543160D01*
X468060Y544140D01*
X464200Y544500D01*
X460340Y544140D01*
X456620Y543160D01*
X453100Y541500D01*
X449940Y539300D01*
X448320Y537660D01*
X447020Y536820D01*
X445480Y536500D01*
X415600Y536500D01*
X412460Y536180D01*
X409640Y535260D01*
X407020Y533760D01*
X405240Y532220D01*
X388300Y515300D01*
X386300Y512819D01*
X384960Y510180D01*
X384180Y507260D01*
X384000Y504940D01*
X384000Y499520D01*
X383700Y497980D01*
X382819Y496680D01*
X381200Y495080D01*
X378980Y491880D01*
X377360Y488380D01*
X376360Y484660D01*
X376019Y480800D01*
X376360Y476960D01*
X377360Y473200D01*
X378980Y469720D01*
X381200Y466520D01*
X383940Y463800D01*
X387100Y461599D01*
X390620Y459940D01*
X394340Y458940D01*
X398200Y458600D01*
X402060Y458940D01*
X405780Y459940D01*
X409300Y461599D01*
X412460Y463800D01*
X415200Y466520D01*
X417420Y469720D01*
X419040Y473200D01*
X420040Y476960D01*
X420379Y480800D01*
X420040Y484660D01*
X419040Y488380D01*
X417420Y491880D01*
X415200Y495080D01*
X414540Y495700D01*
X413680Y497020D01*
X413380Y498540D01*
X413680Y500080D01*
X414540Y501380D01*
X420120Y506920D01*
X421400Y507800D01*
X422939Y508120D01*
X440860Y508120D01*
X442420Y507800D01*
X443720Y506860D01*
X444580Y505520D01*
X444840Y503960D01*
X444480Y502400D01*
X443260Y499780D01*
X442260Y496060D01*
X441920Y492200D01*
X442260Y488360D01*
X443260Y484600D01*
X444880Y481100D01*
X445840Y479739D01*
X446480Y478260D01*
X446480Y476640D01*
X445840Y475160D01*
X444380Y473100D01*
X442760Y469580D01*
X441760Y465860D01*
X441420Y462000D01*
X441760Y458160D01*
X442760Y454400D01*
X444380Y450900D01*
X446599Y447740D01*
X449340Y445000D01*
X452500Y442800D01*
X456019Y441140D01*
X459739Y440140D01*
G37*
G36*
X642600Y461420D02*
G01*
X646460Y461760D01*
X650180Y462760D01*
X653700Y464380D01*
X656860Y466620D01*
X659599Y469320D01*
X661820Y472500D01*
X663439Y476019D01*
X664440Y479739D01*
X664780Y483579D01*
X664440Y487440D01*
X663439Y491200D01*
X661820Y494700D01*
X659599Y497860D01*
X656860Y500600D01*
X653700Y502800D01*
X650180Y504460D01*
X646460Y505460D01*
X642600Y505800D01*
X638740Y505460D01*
X635020Y504460D01*
X631500Y502800D01*
X628340Y500600D01*
X625600Y497860D01*
X623380Y494700D01*
X621760Y491200D01*
X620760Y487440D01*
X620420Y483579D01*
X620760Y479739D01*
X621760Y476019D01*
X623380Y472500D01*
X625600Y469320D01*
X628340Y466620D01*
X631500Y464380D01*
X635020Y462760D01*
X638740Y461760D01*
G37*

%LPD*%
G36*
X207000Y-52400D02*
G01*
X199400Y-92600D01*
X198900Y-116600D01*
X198600Y-137900D01*
X187800Y-148000D01*
X110320Y-149280D01*
X105320Y-151260D01*
X104420Y-200360D01*
X162420Y-201580D01*
X186020Y-200980D01*
X187100Y-196600D01*
X190400Y-191400D01*
X194500Y-170900D01*
X207399Y-163800D01*
X261100Y-109600D01*
X269100Y-115700D01*
X266200Y-111100D01*
X262900Y-108900D01*
X249500Y-96700D01*
G37*
G36*
X127500Y137500D02*
G01*
X70000Y85900D01*
X68700Y34400D01*
X63200Y9900D01*
X60700Y-25099D01*
X70400Y-35100D01*
X75120Y-33560D01*
X88520Y-33280D01*
X97020Y-36060D01*
X116020Y-41980D01*
X115300Y-115000D01*
X54400Y-115000D01*
X54500Y-149500D01*
X67300Y-157000D01*
X87899Y-157500D01*
X95700Y-139900D01*
X170200Y-139300D01*
X175700Y-132500D01*
X174400Y-34800D01*
X172800Y10400D01*
X183020Y51040D01*
X238800Y136000D01*
X180300Y136600D01*
G37*
G36*
X168920Y-197860D02*
G01*
X105700Y-198900D01*
X151300Y-244800D01*
X152300Y-272100D01*
X151500Y-307800D01*
X120700Y-320100D01*
X65500Y-319900D01*
X-40599Y-269600D01*
X-181380Y-268880D01*
X-182380Y-269880D01*
X-182380Y-320860D01*
X-181880Y-326580D01*
X-182280Y-338080D01*
X-36800Y-336800D01*
X30200Y-378200D01*
X170200Y-379600D01*
X168619Y-336860D01*
X169620Y-321860D01*
G37*
D10*
X553299Y705999D02*
G01*
X553299Y708551D01*
X528720Y733130D01*
X486220Y733130D01*
X460717Y707631D01*
X460717Y677429D01*
X348285Y565000D01*
X897Y565000D01*
X464198Y522300D02*
G01*
X415399Y522300D01*
X398199Y505100D01*
X398199Y480799D01*
X309399Y355199D02*
G01*
X320299Y344299D01*
X545999Y344299D01*
X557399Y355700D01*
X693299Y355700D01*
X270999Y355399D02*
G01*
X270999Y347800D01*
X297600Y321199D01*
X558599Y321199D01*
X616499Y263299D01*
X685699Y263299D01*
X693299Y255700D01*
D11*
X732619Y118629D02*
G01*
X631620Y118629D01*
X537719Y212530D01*
X455619Y212530D01*
X404619Y263530D01*
X329219Y263530D01*
X313419Y279329D01*
X327420Y234630D02*
G01*
X402319Y234630D01*
X428220Y208730D01*
X428220Y152130D01*
X453220Y127130D01*
X494619Y127130D01*
X520119Y152629D01*
X561220Y152629D01*
X635219Y78629D01*
X644819Y78629D01*
D12*
X-340401Y42898D02*
G01*
X-340401Y152698D01*
X-325298Y167798D01*
X-30898Y167798D01*
X-30600Y167500D01*
D11*
X-133079Y129830D02*
G01*
X-133079Y134529D01*
X-30180Y134529D01*
X-30180Y-101570D01*
X-121779Y-193170D01*
X-188479Y-193170D01*
X-209179Y-213969D01*
X-209179Y-344569D01*
X-195180Y-359070D01*
X-111630Y-359070D01*
X-83299Y-387400D01*
D12*
X649799Y325799D02*
G01*
X659300Y325799D01*
X670100Y315000D01*
X674499Y315000D01*
X679799Y309699D01*
X688999Y309699D01*
X695299Y303400D01*
X699399Y303400D01*
X706809Y295990D01*
X713209Y295990D01*
X718599Y290599D01*
X726999Y290599D01*
X724619Y315830D02*
G01*
X724619Y324380D01*
X693299Y355700D01*
D13*
X18519Y-9270D02*
G01*
X18519Y57330D01*
X119719Y158530D01*
X238320Y158530D01*
X265320Y185529D01*
X-22899Y427699D02*
G01*
X-19200Y424000D01*
X25699Y424000D01*
X59300Y390399D01*
X122899Y390399D01*
X242100Y271199D01*
X242100Y254800D01*
D14*
G01*
X542790Y69410D03*
G01*
X654140Y-41950D03*
G01*
X229879Y-243490D03*
G01*
X341240Y-354850D03*
D15*
G01*
X712139Y459130D03*
G01*
X625529Y609149D03*
G01*
X594319Y650889D03*
G01*
X465599Y766799D03*
D16*
G01*
X693299Y55700D03*
D17*
G01*
X693299Y155700D03*
G01*
X693299Y255700D03*
G01*
X693299Y355700D03*
D18*
G01*
X-113400Y557800D03*
G01*
X260509Y-93229D03*
G01*
X239979Y-71359D03*
G01*
X395000Y40500D03*
G01*
X163400Y-180500D03*
G01*
X129600Y-182400D03*
G01*
X-131279Y-291269D03*
G01*
X-130479Y-322770D03*
G01*
X644799Y78600D03*
G01*
X732619Y118629D03*
G01*
X729020Y217629D03*
G01*
X724619Y315830D03*
G01*
X327399Y234600D03*
G01*
X313400Y279299D03*
G01*
X-148000Y460000D03*
G01*
X-83299Y-387400D03*
G01*
X-133100Y129800D03*
G01*
X411700Y661700D03*
G01*
X-28400Y396500D03*
G01*
X-142300Y557699D03*
G01*
X-84099Y557500D03*
G01*
X-54099Y557500D03*
G01*
X153400Y-433099D03*
G01*
X185999Y-427100D03*
G01*
X248199Y-167400D03*
G01*
X-253299Y-242500D03*
G01*
X307899Y-35999D03*
G01*
X282699Y-3400D03*
G01*
X316099Y13800D03*
G01*
X77799Y346399D03*
G01*
X426199Y790700D03*
G01*
X642600Y483600D03*
G01*
X-144099Y-383400D03*
G01*
X550999Y498899D03*
G01*
X288099Y255900D03*
G01*
X-399300Y428200D03*
G01*
X-399300Y460199D03*
G01*
X-399300Y492199D03*
G01*
X-474099Y423699D03*
G01*
X-474099Y455700D03*
G01*
X-474099Y487699D03*
G01*
X-474099Y519699D03*
G01*
X-474099Y551700D03*
G01*
X-465600Y585000D03*
G01*
X-443299Y610099D03*
G01*
X-393400Y565700D03*
G01*
X-432300Y640300D03*
G01*
X-410299Y669000D03*
G01*
X-326999Y520399D03*
G01*
X-305000Y499899D03*
G01*
X-284300Y478499D03*
G01*
X-273800Y451500D03*
G01*
X-274300Y423499D03*
G01*
X219719Y-178989D03*
G01*
X-486000Y207399D03*
G01*
X-530699Y207399D03*
G01*
X-134300Y-43400D03*
G01*
X75999Y-143600D03*
G01*
X-364099Y-128299D03*
G01*
X-379099Y-159200D03*
G01*
X-337799Y-101300D03*
G01*
X-304600Y-119800D03*
G01*
X-305299Y-87400D03*
G01*
X-273400Y-104400D03*
G01*
X-83699Y-44699D03*
G01*
X486099Y186399D03*
G01*
X470699Y157500D03*
G01*
X36199Y115999D03*
G01*
X18000Y196399D03*
G01*
X49099Y196399D03*
G01*
X79399Y195999D03*
G01*
X19399Y166399D03*
G01*
X50199Y166199D03*
G01*
X80799Y166999D03*
G01*
X609600Y393899D03*
G01*
X91700Y468099D03*
G01*
X128699Y468600D03*
G01*
X129200Y437100D03*
G01*
X91899Y437699D03*
G01*
X464200Y522300D03*
G01*
X463599Y461999D03*
G01*
X464099Y492199D03*
G01*
X-100299Y202199D03*
G01*
X-22899Y427699D03*
G01*
X242100Y254800D03*
G01*
X295100Y416399D03*
G01*
X-77300Y108699D03*
G01*
X270999Y355399D03*
G01*
X309399Y355199D03*
G01*
X18499Y-9299D03*
G01*
X265299Y185500D03*
G01*
X-6800Y-31900D03*
G01*
X233000Y192100D03*
G01*
X-60299Y505599D03*
G01*
X-28100Y505599D03*
G01*
X4300Y505700D03*
G01*
X456220Y76529D03*
G01*
X79300Y495700D03*
G01*
X263400Y493600D03*
G01*
X279799Y530799D03*
G01*
X609499Y67199D03*
G01*
X-223800Y56599D03*
G01*
X900Y565000D03*
G01*
X-4859Y86030D03*
G01*
X195000Y116500D03*
G01*
X163599Y117899D03*
G01*
X129300Y117899D03*
G01*
X-340399Y42899D03*
G01*
X-30600Y167500D03*
G01*
X659600Y295099D03*
G01*
X649799Y325799D03*
G01*
X446999Y616599D03*
G01*
X398199Y480799D03*
G01*
X758499Y187500D03*
G01*
X553299Y705999D03*
G01*
X-522600Y3099D03*
M02*
