G04 Layer: InnerLayer1*
G04 EasyEDA v6.5.22, 2023-01-25 14:37:09*
G04 a2e63df7a23446a2ae1eb019cd18a306,9a4ed40c0dd746429eaf55b84663d2fb,10*
G04 Gerber Generator version 0.2*
G04 Scale: 100 percent, Rotated: No, Reflected: No *
G04 Dimensions in inches *
G04 leading zeros omitted , absolute positions ,3 integer and 6 decimal *
%FSLAX36Y36*%
%MOIN*%

%AMMACRO1*1,1,$1,$2,$3*1,1,$1,$4,$5*20,1,$1,$2,$3,$4,$5,0*%
%ADD10MACRO1,0.0472X-0.0139X0.0139X0.0139X-0.0139*%
%ADD11C,0.0295*%
%ADD12R,0.0669X0.0669*%
%ADD13C,0.0669*%
%ADD14C,0.0240*%
%ADD15C,0.0126*%

%LPD*%
G36*
X108632Y-475844D02*
G01*
X101118Y-475815D01*
X93605Y-475704D01*
X86094Y-475515D01*
X78585Y-475244D01*
X71078Y-474895D01*
X63576Y-474465D01*
X56080Y-473955D01*
X48589Y-473366D01*
X41104Y-472696D01*
X33629Y-471948D01*
X26159Y-471120D01*
X18701Y-470212D01*
X11251Y-469225D01*
X3814Y-468159D01*
X-3612Y-467013D01*
X-11026Y-465788D01*
X-18425Y-464484D01*
X-25812Y-463103D01*
X-33182Y-461642D01*
X-40537Y-460104D01*
X-47875Y-458485D01*
X-55196Y-456790D01*
X-62498Y-455018D01*
X-69780Y-453166D01*
X-77043Y-451239D01*
X-84283Y-449234D01*
X-91504Y-447150D01*
X-98701Y-444992D01*
X-105875Y-442757D01*
X-113024Y-440444D01*
X-120149Y-438056D01*
X-127247Y-435594D01*
X-134319Y-433054D01*
X-141365Y-430439D01*
X-148382Y-427750D01*
X-155369Y-424987D01*
X-162327Y-422150D01*
X-169254Y-419238D01*
X-176149Y-416253D01*
X-183013Y-413195D01*
X-189843Y-410063D01*
X-196639Y-406858D01*
X-203402Y-403582D01*
X-210128Y-400235D01*
X-216819Y-396815D01*
X-223474Y-393326D01*
X-230091Y-389764D01*
X-236670Y-386132D01*
X-243208Y-382431D01*
X-249709Y-378661D01*
X-256167Y-374821D01*
X-262586Y-370914D01*
X-268962Y-366938D01*
X-275295Y-362894D01*
X-281585Y-358782D01*
X-287830Y-354605D01*
X-294031Y-350360D01*
X-300186Y-346051D01*
X-306295Y-341676D01*
X-312358Y-337237D01*
X-318371Y-332732D01*
X-324337Y-328164D01*
X-330255Y-323533D01*
X-336122Y-318838D01*
X-341940Y-314083D01*
X-347707Y-309266D01*
X-353422Y-304387D01*
X-359084Y-299447D01*
X-364693Y-294448D01*
X-370250Y-289389D01*
X-375751Y-284270D01*
X-381198Y-279095D01*
X-386589Y-273861D01*
X-391926Y-268571D01*
X-397205Y-263222D01*
X-402426Y-257820D01*
X-407590Y-252361D01*
X-412696Y-246847D01*
X-417741Y-241280D01*
X-422728Y-235659D01*
X-427655Y-229987D01*
X-432521Y-224261D01*
X-437327Y-218483D01*
X-442070Y-212656D01*
X-446751Y-206777D01*
X-451369Y-200851D01*
X-455924Y-194873D01*
X-460415Y-188850D01*
X-464840Y-182777D01*
X-469202Y-176658D01*
X-473499Y-170493D01*
X-477728Y-164284D01*
X-481893Y-158029D01*
X-485990Y-151730D01*
X-490019Y-145387D01*
X-493981Y-139003D01*
X-497875Y-132577D01*
X-501700Y-126109D01*
X-505456Y-119601D01*
X-509143Y-113054D01*
X-512759Y-106467D01*
X-516306Y-99843D01*
X-519782Y-93180D01*
X-523186Y-86482D01*
X-526518Y-79747D01*
X-529780Y-72977D01*
X-532969Y-66174D01*
X-536085Y-59337D01*
X-539128Y-52465D01*
X-542098Y-45563D01*
X-544994Y-38631D01*
X-547817Y-31667D01*
X-550564Y-24673D01*
X-553238Y-17651D01*
X-555837Y-10599D01*
X-558360Y-3521D01*
X-560807Y3582D01*
X-563180Y10711D01*
X-565475Y17865D01*
X-567695Y25045D01*
X-569837Y32246D01*
X-571904Y39472D01*
X-573894Y46718D01*
X-575806Y53984D01*
X-577641Y61271D01*
X-579396Y68577D01*
X-581076Y75900D01*
X-582677Y83242D01*
X-584200Y90601D01*
X-585644Y97975D01*
X-587010Y105363D01*
X-588297Y112766D01*
X-589504Y120183D01*
X-590634Y127611D01*
X-591684Y135052D01*
X-592654Y142503D01*
X-593545Y149965D01*
X-594357Y157435D01*
X-595088Y164913D01*
X-595742Y172399D01*
X-596314Y179890D01*
X-596806Y187388D01*
X-597219Y194891D01*
X-597554Y202397D01*
X-597807Y209908D01*
X-597979Y217420D01*
X-598073Y224933D01*
X-598087Y232447D01*
X-598019Y239962D01*
X-597872Y247474D01*
X-597646Y254985D01*
X-597340Y262492D01*
X-596954Y269996D01*
X-596486Y277496D01*
X-595941Y284991D01*
X-595315Y292478D01*
X-594609Y299960D01*
X-593824Y307433D01*
X-592959Y314897D01*
X-592015Y322350D01*
X-590991Y329794D01*
X-589889Y337228D01*
X-588707Y344648D01*
X-587447Y352055D01*
X-586107Y359450D01*
X-584688Y366828D01*
X-583193Y374193D01*
X-581617Y381539D01*
X-579965Y388870D01*
X-578234Y396181D01*
X-576424Y403474D01*
X-574539Y410749D01*
X-572574Y418002D01*
X-570533Y425232D01*
X-568416Y432442D01*
X-566223Y439628D01*
X-563951Y446792D01*
X-561604Y453930D01*
X-559183Y461042D01*
X-556684Y468130D01*
X-554111Y475189D01*
X-551462Y482222D01*
X-548739Y489225D01*
X-545942Y496199D01*
X-543069Y503141D01*
X-540124Y510054D01*
X-537106Y516936D01*
X-534013Y523784D01*
X-530848Y530599D01*
X-527611Y537381D01*
X-524302Y544126D01*
X-520922Y550837D01*
X-517470Y557512D01*
X-513946Y564148D01*
X-510353Y570747D01*
X-506691Y577309D01*
X-502957Y583829D01*
X-499155Y590311D01*
X-495284Y596750D01*
X-491345Y603150D01*
X-487337Y609506D01*
X-483262Y615819D01*
X-479121Y622089D01*
X-474912Y628314D01*
X-470639Y634495D01*
X-466298Y640628D01*
X-461894Y646716D01*
X-457425Y652757D01*
X-452892Y658748D01*
X-448294Y664692D01*
X-443635Y670587D01*
X-438912Y676431D01*
X-434128Y682226D01*
X-429282Y687968D01*
X-424375Y693659D01*
X-419408Y699297D01*
X-414381Y704882D01*
X-409295Y710414D01*
X-404151Y715891D01*
X-398948Y721313D01*
X-393688Y726678D01*
X-388370Y731988D01*
X-382997Y737242D01*
X-377569Y742436D01*
X-372085Y747573D01*
X-366548Y752653D01*
X-360955Y757671D01*
X-355311Y762631D01*
X-349614Y767530D01*
X-343864Y772368D01*
X-338064Y777145D01*
X-332213Y781860D01*
X-326311Y786511D01*
X-320362Y791100D01*
X-314364Y795626D01*
X-308316Y800088D01*
X-302223Y804484D01*
X-296084Y808816D01*
X-289898Y813081D01*
X-283667Y817282D01*
X-277391Y821415D01*
X-271072Y825480D01*
X-264710Y829479D01*
X-258307Y833411D01*
X-251862Y837273D01*
X-245375Y841066D01*
X-238850Y844791D01*
X-232283Y848445D01*
X-229099Y850174D01*
X-229099Y629400D01*
X-228400Y628699D01*
X391800Y628699D01*
X395399Y632300D01*
X395399Y654072D01*
X395628Y653578D01*
X396207Y652523D01*
X396854Y651509D01*
X397569Y650540D01*
X398346Y649621D01*
X399182Y648757D01*
X400074Y647950D01*
X401018Y647204D01*
X402011Y646523D01*
X403046Y645909D01*
X404120Y645367D01*
X405228Y644897D01*
X406364Y644501D01*
X407525Y644184D01*
X408704Y643944D01*
X409898Y643784D01*
X411098Y643703D01*
X412301Y643703D01*
X413501Y643784D01*
X414695Y643944D01*
X415874Y644184D01*
X417034Y644501D01*
X418171Y644897D01*
X419278Y645367D01*
X420352Y645909D01*
X421388Y646523D01*
X422380Y647204D01*
X423324Y647950D01*
X424218Y648757D01*
X425054Y649621D01*
X425830Y650540D01*
X426544Y651509D01*
X427191Y652523D01*
X427771Y653578D01*
X428276Y654670D01*
X428710Y655794D01*
X429066Y656943D01*
X429345Y658112D01*
X429544Y659299D01*
X429665Y660497D01*
X429705Y661700D01*
X429665Y662903D01*
X429544Y664099D01*
X429345Y665286D01*
X429066Y666457D01*
X428710Y667606D01*
X428276Y668728D01*
X427771Y669821D01*
X427191Y670875D01*
X426544Y671889D01*
X425830Y672858D01*
X425054Y673777D01*
X424218Y674643D01*
X423324Y675450D01*
X422380Y676195D01*
X421388Y676876D01*
X420352Y677489D01*
X419278Y678033D01*
X418171Y678503D01*
X417034Y678897D01*
X415874Y679214D01*
X414695Y679454D01*
X413501Y679616D01*
X412301Y679695D01*
X411098Y679695D01*
X409898Y679616D01*
X408704Y679454D01*
X407525Y679214D01*
X406364Y678897D01*
X405228Y678503D01*
X404120Y678033D01*
X403046Y677489D01*
X402011Y676876D01*
X401018Y676195D01*
X400074Y675450D01*
X399182Y674643D01*
X398346Y673777D01*
X397569Y672858D01*
X396854Y671889D01*
X396207Y670875D01*
X395628Y669821D01*
X395399Y669326D01*
X395399Y834699D01*
X395330Y849547D01*
X401504Y846612D01*
X408195Y843341D01*
X414850Y840000D01*
X421469Y836586D01*
X428050Y833103D01*
X434594Y829549D01*
X441100Y825924D01*
X447566Y822229D01*
X453993Y818467D01*
X460378Y814634D01*
X466721Y810733D01*
X473023Y806765D01*
X479282Y802728D01*
X485496Y798625D01*
X491666Y794456D01*
X497791Y790221D01*
X503872Y785920D01*
X509903Y781554D01*
X515889Y777123D01*
X521827Y772627D01*
X527716Y768069D01*
X533555Y763447D01*
X539345Y758764D01*
X545084Y754018D01*
X550771Y749211D01*
X556408Y744344D01*
X561990Y739416D01*
X567520Y734427D01*
X572996Y729380D01*
X578419Y724274D01*
X583784Y719112D01*
X589094Y713890D01*
X594349Y708613D01*
X599547Y703279D01*
X604686Y697890D01*
X609767Y692447D01*
X614790Y686947D01*
X619753Y681395D01*
X624655Y675790D01*
X629498Y670133D01*
X634281Y664425D01*
X639000Y658665D01*
X643658Y652853D01*
X648253Y646993D01*
X652785Y641084D01*
X657254Y635127D01*
X661658Y629121D01*
X665997Y623069D01*
X670271Y616972D01*
X674480Y610828D01*
X678622Y604639D01*
X682698Y598406D01*
X686705Y592130D01*
X690646Y585810D01*
X694519Y579450D01*
X698323Y573047D01*
X702057Y566604D01*
X705722Y560122D01*
X709318Y553600D01*
X712843Y547040D01*
X716298Y540443D01*
X719682Y533809D01*
X722993Y527139D01*
X726234Y520434D01*
X729403Y513694D01*
X732497Y506921D01*
X735520Y500115D01*
X738469Y493278D01*
X741345Y486408D01*
X744147Y479508D01*
X746873Y472579D01*
X749526Y465619D01*
X752105Y458634D01*
X754607Y451619D01*
X757034Y444578D01*
X759385Y437512D01*
X761661Y430421D01*
X763860Y423308D01*
X765982Y416168D01*
X768028Y409009D01*
X769997Y401826D01*
X771889Y394623D01*
X773702Y387400D01*
X775439Y380160D01*
X777097Y372898D01*
X778677Y365621D01*
X780180Y358328D01*
X781603Y351017D01*
X782948Y343694D01*
X784214Y336354D01*
X785401Y329002D01*
X786509Y321639D01*
X787539Y314263D01*
X788488Y306878D01*
X789359Y299481D01*
X790150Y292076D01*
X790861Y284663D01*
X791494Y277244D01*
X792044Y269816D01*
X792518Y262384D01*
X792910Y254947D01*
X793221Y247507D01*
X793454Y240063D01*
X793607Y232618D01*
X793679Y225171D01*
X793671Y217725D01*
X793584Y210279D01*
X793415Y202833D01*
X793168Y195390D01*
X792840Y187950D01*
X792434Y180515D01*
X791947Y173083D01*
X791379Y165659D01*
X790733Y158240D01*
X790006Y150828D01*
X789201Y143425D01*
X788315Y136030D01*
X787349Y128647D01*
X786305Y121273D01*
X785182Y113910D01*
X783981Y106561D01*
X782699Y99225D01*
X781338Y91903D01*
X779900Y84596D01*
X778383Y77307D01*
X776788Y70032D01*
X775115Y62775D01*
X773365Y55536D01*
X771535Y48317D01*
X769629Y41120D01*
X767646Y33940D01*
X765586Y26784D01*
X763449Y19650D01*
X761235Y12541D01*
X758945Y5455D01*
X756579Y-1606D01*
X754138Y-8641D01*
X751620Y-15650D01*
X749029Y-22631D01*
X746361Y-29585D01*
X743621Y-36509D01*
X740805Y-43402D01*
X737915Y-50266D01*
X734952Y-57098D01*
X731916Y-63899D01*
X728806Y-70666D01*
X725625Y-77399D01*
X722371Y-84097D01*
X719044Y-90760D01*
X715648Y-97388D01*
X712179Y-103978D01*
X708640Y-110529D01*
X705032Y-117044D01*
X701354Y-123519D01*
X697605Y-129954D01*
X693792Y-136343D01*
X693819Y-136370D01*
X693788Y-136349D01*
X693792Y-136343D01*
X511220Y46230D01*
X259819Y-205070D01*
X251920Y-205070D01*
X439719Y-392869D01*
X433876Y-395951D01*
X427193Y-399387D01*
X420475Y-402753D01*
X413721Y-406048D01*
X406934Y-409270D01*
X400111Y-412418D01*
X393256Y-415495D01*
X386368Y-418499D01*
X379448Y-421430D01*
X372498Y-424286D01*
X365518Y-427067D01*
X358509Y-429776D01*
X351472Y-432409D01*
X344407Y-434965D01*
X337314Y-437449D01*
X330195Y-439855D01*
X323052Y-442186D01*
X315884Y-444441D01*
X308693Y-446619D01*
X301478Y-448721D01*
X294242Y-450745D01*
X286985Y-452692D01*
X279708Y-454562D01*
X272411Y-456356D01*
X265095Y-458070D01*
X257762Y-459706D01*
X250410Y-461266D01*
X243043Y-462746D01*
X235662Y-464146D01*
X228265Y-465471D01*
X220855Y-466714D01*
X213432Y-467880D01*
X205995Y-468966D01*
X198549Y-469972D01*
X191093Y-470900D01*
X183626Y-471748D01*
X176152Y-472516D01*
X168670Y-473206D01*
X161180Y-473816D01*
X153684Y-474344D01*
X146184Y-474794D01*
X138679Y-475165D01*
X131170Y-475455D01*
X123659Y-475664D01*
X116147Y-475794D01*
G37*

%LPC*%
G36*
X465051Y777222D02*
G01*
X473095Y786156D01*
X472260Y786469D01*
X471024Y786844D01*
X469767Y787143D01*
X468495Y787363D01*
X467209Y787503D01*
X465919Y787563D01*
X464628Y787543D01*
X463339Y787444D01*
X462061Y787264D01*
X460794Y787004D01*
X459547Y786666D01*
X458324Y786251D01*
X457128Y785763D01*
X456112Y785270D01*
G37*
G36*
X355378Y-398294D02*
G01*
X355673Y-398290D01*
X356850Y-398247D01*
X357146Y-398227D01*
X358320Y-398125D01*
X358611Y-398092D01*
X359777Y-397932D01*
X360069Y-397883D01*
X361225Y-397665D01*
X361512Y-397604D01*
X362656Y-397328D01*
X362942Y-397251D01*
X364071Y-396918D01*
X364354Y-396826D01*
X365465Y-396437D01*
X365739Y-396334D01*
X366831Y-395889D01*
X367101Y-395772D01*
X368168Y-395275D01*
X368432Y-395144D01*
X369472Y-394594D01*
X369731Y-394448D01*
X370743Y-393847D01*
X370992Y-393690D01*
X371974Y-393040D01*
X372213Y-392872D01*
X373161Y-392174D01*
X373397Y-391988D01*
X374309Y-391242D01*
X374526Y-391055D01*
X375401Y-390264D01*
X375617Y-390059D01*
X376449Y-389227D01*
X376655Y-389011D01*
X377444Y-388137D01*
X377632Y-387919D01*
X378378Y-387008D01*
X378563Y-386770D01*
X379263Y-385823D01*
X379430Y-385583D01*
X380081Y-384603D01*
X380236Y-384353D01*
X380838Y-383341D01*
X380983Y-383083D01*
X381534Y-382042D01*
X381665Y-381779D01*
X382163Y-380711D01*
X382280Y-380441D01*
X382723Y-379349D01*
X382827Y-379076D01*
X383216Y-377964D01*
X383307Y-377681D01*
X383640Y-376552D01*
X383717Y-376266D01*
X383994Y-375122D01*
X384054Y-374836D01*
X384273Y-373679D01*
X384322Y-373387D01*
X384483Y-372220D01*
X384515Y-371930D01*
X384618Y-370756D01*
X384637Y-370461D01*
X384681Y-369284D01*
X384684Y-368987D01*
X384669Y-367811D01*
X384659Y-367519D01*
X384585Y-366343D01*
X384560Y-366048D01*
X384427Y-364877D01*
X384387Y-364587D01*
X384197Y-363425D01*
X384142Y-363132D01*
X383895Y-361981D01*
X383827Y-361702D01*
X383522Y-360563D01*
X383436Y-360273D01*
X383074Y-359151D01*
X382979Y-358881D01*
X382564Y-357779D01*
X382452Y-357501D01*
X381980Y-356422D01*
X381857Y-356159D01*
X381332Y-355104D01*
X381193Y-354837D01*
X380616Y-353811D01*
X380469Y-353562D01*
X379843Y-352566D01*
X379678Y-352318D01*
X379002Y-351352D01*
X378828Y-351116D01*
X378104Y-350187D01*
X377919Y-349960D01*
X377151Y-349068D01*
X376952Y-348847D01*
X376139Y-347993D01*
X376037Y-347890D01*
X348199Y-320052D01*
X348095Y-319949D01*
X347242Y-319137D01*
X347021Y-318937D01*
X346129Y-318170D01*
X345902Y-317984D01*
X344972Y-317262D01*
X344736Y-317087D01*
X343771Y-316412D01*
X343523Y-316246D01*
X342527Y-315621D01*
X342278Y-315473D01*
X341251Y-314897D01*
X340986Y-314756D01*
X339930Y-314232D01*
X339666Y-314108D01*
X338587Y-313638D01*
X338311Y-313526D01*
X337209Y-313110D01*
X336938Y-313015D01*
X335816Y-312653D01*
X335525Y-312566D01*
X334387Y-312262D01*
X334107Y-312195D01*
X332956Y-311947D01*
X332664Y-311891D01*
X331502Y-311702D01*
X331211Y-311662D01*
X330042Y-311530D01*
X329745Y-311503D01*
X328569Y-311431D01*
X328279Y-311419D01*
X327101Y-311404D01*
X326805Y-311408D01*
X325628Y-311453D01*
X325334Y-311471D01*
X324160Y-311574D01*
X323868Y-311606D01*
X322701Y-311768D01*
X322411Y-311815D01*
X321253Y-312035D01*
X320968Y-312096D01*
X319822Y-312372D01*
X319538Y-312449D01*
X318407Y-312782D01*
X318125Y-312872D01*
X317013Y-313261D01*
X316739Y-313366D01*
X315649Y-313809D01*
X315379Y-313926D01*
X314310Y-314425D01*
X314048Y-314556D01*
X313006Y-315106D01*
X312749Y-315250D01*
X311736Y-315853D01*
X311486Y-316008D01*
X310505Y-316660D01*
X310267Y-316826D01*
X309318Y-317525D01*
X309081Y-317710D01*
X308171Y-318456D01*
X307952Y-318645D01*
X307079Y-319434D01*
X306863Y-319639D01*
X306030Y-320473D01*
X305824Y-320689D01*
X305034Y-321563D01*
X304846Y-321781D01*
X304101Y-322692D01*
X303915Y-322928D01*
X303216Y-323877D01*
X303050Y-324115D01*
X302398Y-325097D01*
X302242Y-325345D01*
X301640Y-326359D01*
X301495Y-326617D01*
X300945Y-327658D01*
X300815Y-327921D01*
X300316Y-328989D01*
X300199Y-329259D01*
X299755Y-330349D01*
X299651Y-330624D01*
X299263Y-331734D01*
X299171Y-332017D01*
X298838Y-333148D01*
X298761Y-333433D01*
X298486Y-334578D01*
X298424Y-334864D01*
X298206Y-336021D01*
X298158Y-336311D01*
X297996Y-337478D01*
X297964Y-337770D01*
X297861Y-338944D01*
X297843Y-339239D01*
X297798Y-340416D01*
X297794Y-340711D01*
X297809Y-341889D01*
X297820Y-342179D01*
X297893Y-343355D01*
X297919Y-343652D01*
X298051Y-344821D01*
X298091Y-345111D01*
X298281Y-346275D01*
X298337Y-346567D01*
X298585Y-347717D01*
X298652Y-347998D01*
X298957Y-349135D01*
X299043Y-349427D01*
X299404Y-350547D01*
X299499Y-350819D01*
X299916Y-351921D01*
X300028Y-352197D01*
X300498Y-353276D01*
X300622Y-353541D01*
X301147Y-354596D01*
X301287Y-354861D01*
X301863Y-355889D01*
X302011Y-356136D01*
X302636Y-357134D01*
X302802Y-357382D01*
X303477Y-358346D01*
X303652Y-358582D01*
X304375Y-359513D01*
X304560Y-359738D01*
X305327Y-360632D01*
X305527Y-360853D01*
X306340Y-361705D01*
X306441Y-361810D01*
X334279Y-389648D01*
X334384Y-389749D01*
X335236Y-390561D01*
X335457Y-390761D01*
X336350Y-391530D01*
X336576Y-391714D01*
X337506Y-392438D01*
X337743Y-392611D01*
X338707Y-393288D01*
X338955Y-393452D01*
X339952Y-394079D01*
X340200Y-394225D01*
X341228Y-394803D01*
X341494Y-394942D01*
X342548Y-395466D01*
X342812Y-395590D01*
X343891Y-396062D01*
X344169Y-396174D01*
X345271Y-396590D01*
X345541Y-396685D01*
X346662Y-397047D01*
X346953Y-397132D01*
X348091Y-397436D01*
X348371Y-397505D01*
X349522Y-397753D01*
X349814Y-397808D01*
X350977Y-397998D01*
X351268Y-398038D01*
X352438Y-398170D01*
X352734Y-398195D01*
X353909Y-398269D01*
X354201Y-398279D01*
G37*
G36*
X-131081Y-340765D02*
G01*
X-129877Y-340765D01*
X-128677Y-340686D01*
X-127484Y-340525D01*
X-126306Y-340284D01*
X-125145Y-339967D01*
X-124009Y-339573D01*
X-122901Y-339103D01*
X-121827Y-338560D01*
X-120790Y-337946D01*
X-119799Y-337265D01*
X-118855Y-336520D01*
X-117961Y-335713D01*
X-117125Y-334848D01*
X-116349Y-333928D01*
X-115635Y-332959D01*
X-114988Y-331945D01*
X-114409Y-330891D01*
X-113903Y-329798D01*
X-113469Y-328676D01*
X-113114Y-327527D01*
X-112835Y-326356D01*
X-112635Y-325169D01*
X-112514Y-323973D01*
X-112474Y-322770D01*
X-112514Y-321567D01*
X-112635Y-320369D01*
X-112835Y-319182D01*
X-113114Y-318013D01*
X-113469Y-316864D01*
X-113903Y-315740D01*
X-114409Y-314648D01*
X-114988Y-313593D01*
X-115635Y-312579D01*
X-116349Y-311610D01*
X-117125Y-310691D01*
X-117961Y-309827D01*
X-118855Y-309020D01*
X-119799Y-308274D01*
X-120790Y-307593D01*
X-121827Y-306979D01*
X-122184Y-306799D01*
X-121590Y-306446D01*
X-120599Y-305765D01*
X-119655Y-305019D01*
X-118761Y-304212D01*
X-117925Y-303348D01*
X-117148Y-302429D01*
X-116435Y-301460D01*
X-115788Y-300446D01*
X-115209Y-299391D01*
X-114702Y-298299D01*
X-114269Y-297175D01*
X-113914Y-296026D01*
X-113635Y-294857D01*
X-113434Y-293670D01*
X-113314Y-292472D01*
X-113274Y-291269D01*
X-113314Y-290066D01*
X-113434Y-288870D01*
X-113635Y-287683D01*
X-113914Y-286512D01*
X-114269Y-285363D01*
X-114702Y-284241D01*
X-115209Y-283148D01*
X-115788Y-282094D01*
X-116435Y-281080D01*
X-117148Y-280111D01*
X-117925Y-279191D01*
X-118761Y-278326D01*
X-119655Y-277519D01*
X-120599Y-276774D01*
X-121590Y-276093D01*
X-122627Y-275480D01*
X-123701Y-274936D01*
X-124809Y-274466D01*
X-125945Y-274072D01*
X-127106Y-273755D01*
X-128285Y-273515D01*
X-129477Y-273353D01*
X-130677Y-273274D01*
X-131882Y-273274D01*
X-133082Y-273353D01*
X-134274Y-273515D01*
X-135453Y-273755D01*
X-136615Y-274072D01*
X-137750Y-274466D01*
X-138859Y-274936D01*
X-139933Y-275480D01*
X-140969Y-276093D01*
X-141961Y-276774D01*
X-142905Y-277519D01*
X-143797Y-278326D01*
X-144634Y-279191D01*
X-145411Y-280111D01*
X-146125Y-281080D01*
X-146772Y-282094D01*
X-147350Y-283148D01*
X-147857Y-284241D01*
X-148289Y-285363D01*
X-148645Y-286512D01*
X-148924Y-287683D01*
X-149125Y-288870D01*
X-149246Y-290066D01*
X-149286Y-291269D01*
X-149246Y-292472D01*
X-149125Y-293670D01*
X-148924Y-294857D01*
X-148645Y-296026D01*
X-148289Y-297175D01*
X-147857Y-298299D01*
X-147350Y-299391D01*
X-146772Y-300446D01*
X-146125Y-301460D01*
X-145411Y-302429D01*
X-144634Y-303348D01*
X-143797Y-304212D01*
X-142905Y-305019D01*
X-141961Y-305765D01*
X-140969Y-306446D01*
X-139933Y-307060D01*
X-139575Y-307240D01*
X-140169Y-307593D01*
X-141161Y-308274D01*
X-142105Y-309020D01*
X-142997Y-309827D01*
X-143833Y-310691D01*
X-144611Y-311610D01*
X-145325Y-312579D01*
X-145972Y-313593D01*
X-146550Y-314648D01*
X-147057Y-315740D01*
X-147489Y-316864D01*
X-147845Y-318013D01*
X-148125Y-319182D01*
X-148325Y-320369D01*
X-148446Y-321567D01*
X-148486Y-322770D01*
X-148446Y-323973D01*
X-148325Y-325169D01*
X-148125Y-326356D01*
X-147845Y-327527D01*
X-147489Y-328676D01*
X-147057Y-329798D01*
X-146550Y-330891D01*
X-145972Y-331945D01*
X-145325Y-332959D01*
X-144611Y-333928D01*
X-143833Y-334848D01*
X-142997Y-335713D01*
X-142105Y-336520D01*
X-141161Y-337265D01*
X-140169Y-337946D01*
X-139133Y-338560D01*
X-138059Y-339103D01*
X-136950Y-339573D01*
X-135815Y-339967D01*
X-134654Y-340284D01*
X-133474Y-340525D01*
X-132282Y-340686D01*
G37*
G36*
X244017Y-286934D02*
G01*
X244313Y-286930D01*
X245491Y-286887D01*
X245785Y-286867D01*
X246959Y-286765D01*
X247250Y-286732D01*
X248418Y-286572D01*
X248708Y-286523D01*
X249866Y-286305D01*
X250151Y-286244D01*
X251296Y-285967D01*
X251581Y-285891D01*
X252712Y-285558D01*
X252995Y-285466D01*
X254106Y-285077D01*
X254380Y-284974D01*
X255470Y-284529D01*
X255740Y-284412D01*
X256809Y-283915D01*
X257071Y-283784D01*
X258113Y-283234D01*
X258370Y-283088D01*
X259384Y-282487D01*
X259633Y-282330D01*
X260613Y-281680D01*
X260852Y-281512D01*
X261800Y-280814D01*
X262038Y-280628D01*
X262948Y-279882D01*
X263167Y-279695D01*
X264040Y-278904D01*
X264256Y-278699D01*
X265090Y-277867D01*
X265294Y-277651D01*
X266085Y-276777D01*
X266273Y-276559D01*
X267019Y-275648D01*
X267204Y-275410D01*
X267902Y-274463D01*
X268069Y-274223D01*
X268720Y-273243D01*
X268877Y-272993D01*
X269479Y-271981D01*
X269624Y-271723D01*
X270173Y-270682D01*
X270304Y-270419D01*
X270802Y-269351D01*
X270919Y-269081D01*
X271364Y-267989D01*
X271467Y-267716D01*
X271857Y-266604D01*
X271948Y-266322D01*
X272281Y-265192D01*
X272357Y-264906D01*
X272633Y-263762D01*
X272695Y-263476D01*
X272914Y-262319D01*
X272961Y-262028D01*
X273122Y-260860D01*
X273154Y-260570D01*
X273257Y-259396D01*
X273276Y-259101D01*
X273320Y-257923D01*
X273324Y-257627D01*
X273310Y-256451D01*
X273298Y-256159D01*
X273225Y-254983D01*
X273199Y-254688D01*
X273068Y-253517D01*
X273027Y-253227D01*
X272838Y-252065D01*
X272782Y-251772D01*
X272534Y-250621D01*
X272466Y-250342D01*
X272163Y-249203D01*
X272076Y-248913D01*
X271714Y-247791D01*
X271620Y-247521D01*
X271203Y-246419D01*
X271091Y-246141D01*
X270621Y-245063D01*
X270496Y-244798D01*
X269972Y-243744D01*
X269832Y-243478D01*
X269255Y-242451D01*
X269108Y-242202D01*
X268482Y-241206D01*
X268317Y-240958D01*
X267641Y-239992D01*
X267467Y-239756D01*
X266745Y-238827D01*
X266559Y-238600D01*
X265792Y-237708D01*
X265591Y-237487D01*
X264780Y-236633D01*
X264678Y-236530D01*
X236840Y-208692D01*
X236736Y-208589D01*
X235883Y-207777D01*
X235662Y-207577D01*
X234768Y-206810D01*
X234543Y-206624D01*
X233612Y-205902D01*
X233377Y-205727D01*
X232411Y-205052D01*
X232164Y-204886D01*
X231166Y-204261D01*
X230919Y-204113D01*
X229891Y-203537D01*
X229625Y-203396D01*
X228571Y-202872D01*
X228306Y-202748D01*
X227227Y-202278D01*
X226950Y-202166D01*
X225848Y-201750D01*
X225577Y-201655D01*
X224457Y-201293D01*
X224165Y-201206D01*
X223027Y-200902D01*
X222748Y-200835D01*
X221597Y-200587D01*
X221305Y-200531D01*
X220141Y-200342D01*
X219852Y-200302D01*
X218681Y-200169D01*
X218386Y-200144D01*
X217209Y-200070D01*
X216918Y-200059D01*
X215742Y-200045D01*
X215446Y-200048D01*
X214268Y-200093D01*
X213973Y-200111D01*
X212799Y-200214D01*
X212509Y-200246D01*
X211341Y-200408D01*
X211050Y-200455D01*
X209893Y-200675D01*
X209607Y-200736D01*
X208463Y-201012D01*
X208177Y-201089D01*
X207047Y-201422D01*
X206764Y-201512D01*
X205653Y-201902D01*
X205379Y-202006D01*
X204288Y-202449D01*
X204018Y-202566D01*
X202951Y-203065D01*
X202687Y-203195D01*
X201647Y-203746D01*
X201388Y-203890D01*
X200375Y-204493D01*
X200127Y-204648D01*
X199146Y-205300D01*
X198906Y-205466D01*
X197959Y-206165D01*
X197722Y-206350D01*
X196810Y-207096D01*
X196593Y-207285D01*
X195718Y-208074D01*
X195502Y-208279D01*
X194669Y-209113D01*
X194465Y-209329D01*
X193675Y-210203D01*
X193486Y-210421D01*
X192740Y-211332D01*
X192555Y-211568D01*
X191856Y-212516D01*
X191689Y-212755D01*
X191039Y-213737D01*
X190883Y-213985D01*
X190280Y-214999D01*
X190136Y-215257D01*
X189585Y-216298D01*
X189454Y-216561D01*
X188957Y-217629D01*
X188840Y-217899D01*
X188396Y-218989D01*
X188292Y-219263D01*
X187902Y-220374D01*
X187811Y-220657D01*
X187479Y-221788D01*
X187402Y-222073D01*
X187125Y-223218D01*
X187065Y-223503D01*
X186845Y-224661D01*
X186797Y-224951D01*
X186637Y-226118D01*
X186604Y-226410D01*
X186502Y-227584D01*
X186482Y-227878D01*
X186439Y-229056D01*
X186435Y-229351D01*
X186449Y-230529D01*
X186460Y-230819D01*
X186534Y-231995D01*
X186559Y-232292D01*
X186692Y-233461D01*
X186732Y-233751D01*
X186921Y-234915D01*
X186976Y-235207D01*
X187224Y-236358D01*
X187292Y-236637D01*
X187596Y-237775D01*
X187682Y-238067D01*
X188045Y-239187D01*
X188140Y-239459D01*
X188555Y-240561D01*
X188667Y-240837D01*
X189138Y-241916D01*
X189263Y-242181D01*
X189786Y-243236D01*
X189926Y-243501D01*
X190504Y-244529D01*
X190650Y-244776D01*
X191277Y-245774D01*
X191441Y-246021D01*
X192118Y-246986D01*
X192291Y-247222D01*
X193014Y-248153D01*
X193199Y-248378D01*
X193967Y-249272D01*
X194167Y-249493D01*
X194979Y-250345D01*
X195082Y-250450D01*
X222919Y-278288D01*
X223023Y-278389D01*
X223877Y-279202D01*
X224097Y-279402D01*
X224991Y-280169D01*
X225217Y-280354D01*
X226147Y-281078D01*
X226382Y-281251D01*
X227348Y-281927D01*
X227596Y-282092D01*
X228593Y-282719D01*
X228841Y-282865D01*
X229867Y-283443D01*
X230133Y-283582D01*
X231188Y-284106D01*
X231453Y-284230D01*
X232532Y-284702D01*
X232808Y-284814D01*
X233910Y-285230D01*
X234182Y-285324D01*
X235303Y-285686D01*
X235594Y-285772D01*
X236732Y-286077D01*
X237011Y-286145D01*
X238162Y-286392D01*
X238454Y-286448D01*
X239618Y-286637D01*
X239907Y-286678D01*
X241077Y-286810D01*
X241373Y-286835D01*
X242550Y-286909D01*
X242840Y-286920D01*
G37*
G36*
X128998Y-200396D02*
G01*
X130201Y-200396D01*
X131401Y-200315D01*
X132595Y-200154D01*
X133774Y-199915D01*
X134934Y-199598D01*
X136071Y-199203D01*
X137178Y-198733D01*
X138252Y-198189D01*
X139288Y-197577D01*
X140280Y-196896D01*
X141224Y-196150D01*
X142118Y-195342D01*
X142953Y-194477D01*
X143730Y-193559D01*
X144444Y-192590D01*
X145091Y-191576D01*
X145671Y-190520D01*
X146176Y-189429D01*
X146610Y-188306D01*
X146840Y-187564D01*
X147328Y-188620D01*
X147907Y-189675D01*
X148554Y-190689D01*
X149268Y-191658D01*
X150046Y-192577D01*
X150882Y-193443D01*
X151774Y-194250D01*
X152718Y-194996D01*
X153711Y-195677D01*
X154746Y-196289D01*
X155820Y-196833D01*
X156929Y-197303D01*
X158064Y-197698D01*
X159225Y-198015D01*
X160405Y-198254D01*
X161597Y-198416D01*
X162798Y-198496D01*
X164002Y-198496D01*
X165201Y-198416D01*
X166395Y-198254D01*
X167573Y-198015D01*
X168734Y-197698D01*
X169871Y-197303D01*
X170978Y-196833D01*
X172052Y-196289D01*
X173088Y-195677D01*
X174080Y-194996D01*
X175024Y-194250D01*
X175918Y-193443D01*
X176754Y-192577D01*
X177530Y-191658D01*
X178244Y-190689D01*
X178891Y-189675D01*
X179471Y-188620D01*
X179976Y-187528D01*
X180410Y-186406D01*
X180766Y-185257D01*
X181044Y-184086D01*
X181244Y-182899D01*
X181365Y-181703D01*
X181405Y-180500D01*
X181365Y-179297D01*
X181244Y-178099D01*
X181044Y-176912D01*
X180766Y-175743D01*
X180410Y-174594D01*
X179976Y-173470D01*
X179471Y-172379D01*
X178891Y-171323D01*
X178244Y-170309D01*
X177530Y-169340D01*
X176754Y-168422D01*
X175918Y-167557D01*
X175024Y-166750D01*
X174080Y-166003D01*
X173088Y-165322D01*
X172052Y-164710D01*
X170978Y-164167D01*
X169871Y-163697D01*
X168734Y-163301D01*
X167573Y-162984D01*
X166395Y-162744D01*
X165201Y-162584D01*
X164002Y-162503D01*
X162798Y-162503D01*
X161597Y-162584D01*
X160405Y-162744D01*
X159225Y-162984D01*
X158064Y-163301D01*
X156929Y-163697D01*
X155820Y-164167D01*
X154746Y-164710D01*
X153711Y-165322D01*
X152718Y-166003D01*
X151774Y-166750D01*
X150882Y-167557D01*
X150046Y-168422D01*
X149268Y-169340D01*
X148554Y-170309D01*
X147907Y-171323D01*
X147328Y-172379D01*
X146822Y-173470D01*
X146390Y-174594D01*
X146159Y-175335D01*
X145671Y-174279D01*
X145091Y-173224D01*
X144444Y-172210D01*
X143730Y-171241D01*
X142953Y-170322D01*
X142118Y-169457D01*
X141224Y-168650D01*
X140280Y-167903D01*
X139288Y-167222D01*
X138252Y-166610D01*
X137178Y-166066D01*
X136071Y-165597D01*
X134934Y-165201D01*
X133774Y-164884D01*
X132595Y-164645D01*
X131401Y-164484D01*
X130201Y-164403D01*
X128998Y-164403D01*
X127798Y-164484D01*
X126604Y-164645D01*
X125425Y-164884D01*
X124264Y-165201D01*
X123128Y-165597D01*
X122020Y-166066D01*
X120946Y-166610D01*
X119911Y-167222D01*
X118918Y-167903D01*
X117974Y-168650D01*
X117082Y-169457D01*
X116246Y-170322D01*
X115469Y-171241D01*
X114754Y-172210D01*
X114107Y-173224D01*
X113528Y-174279D01*
X113023Y-175371D01*
X112590Y-176494D01*
X112233Y-177642D01*
X111954Y-178813D01*
X111755Y-180000D01*
X111633Y-181197D01*
X111593Y-182400D01*
X111633Y-183602D01*
X111755Y-184800D01*
X111954Y-185987D01*
X112233Y-187157D01*
X112590Y-188306D01*
X113023Y-189429D01*
X113528Y-190520D01*
X114107Y-191576D01*
X114754Y-192590D01*
X115469Y-193559D01*
X116246Y-194477D01*
X117082Y-195342D01*
X117974Y-196150D01*
X118918Y-196896D01*
X119911Y-197577D01*
X120946Y-198189D01*
X122020Y-198733D01*
X123128Y-199203D01*
X124264Y-199598D01*
X125425Y-199915D01*
X126604Y-200154D01*
X127798Y-200315D01*
G37*
G36*
X484961Y759293D02*
G01*
X485370Y760439D01*
X485726Y761682D01*
X486005Y762943D01*
X486206Y764218D01*
X486327Y765506D01*
X486367Y766797D01*
X486327Y768087D01*
X486206Y769375D01*
X486005Y770650D01*
X485726Y771911D01*
X485370Y773153D01*
X484936Y774371D01*
X484429Y775558D01*
X484066Y776277D01*
X476022Y767343D01*
G37*
G36*
X447124Y757312D02*
G01*
X455171Y766250D01*
X446238Y774293D01*
X446031Y773766D01*
X445635Y772536D01*
X445316Y771284D01*
X445078Y770014D01*
X444916Y768732D01*
X444836Y767442D01*
X444836Y766150D01*
X444916Y764861D01*
X445078Y763580D01*
X445316Y762309D01*
X445635Y761057D01*
X446031Y759827D01*
X446502Y758625D01*
X447047Y757453D01*
G37*
G36*
X75397Y-161595D02*
G01*
X76602Y-161595D01*
X77802Y-161516D01*
X78994Y-161354D01*
X80173Y-161114D01*
X81334Y-160797D01*
X82470Y-160403D01*
X83578Y-159933D01*
X84652Y-159389D01*
X85689Y-158777D01*
X86680Y-158096D01*
X87624Y-157350D01*
X88517Y-156543D01*
X89354Y-155677D01*
X90131Y-154758D01*
X90844Y-153789D01*
X91491Y-152775D01*
X92070Y-151721D01*
X92577Y-150628D01*
X93009Y-149506D01*
X93365Y-148357D01*
X93644Y-147186D01*
X93845Y-145999D01*
X93966Y-144803D01*
X94005Y-143600D01*
X93966Y-142397D01*
X93845Y-141199D01*
X93644Y-140012D01*
X93365Y-138843D01*
X93009Y-137694D01*
X92577Y-136570D01*
X92070Y-135479D01*
X91491Y-134423D01*
X90844Y-133409D01*
X90131Y-132440D01*
X89354Y-131521D01*
X88517Y-130657D01*
X87624Y-129850D01*
X86680Y-129104D01*
X85689Y-128423D01*
X84652Y-127809D01*
X83578Y-127267D01*
X82470Y-126797D01*
X81334Y-126401D01*
X80173Y-126084D01*
X78994Y-125844D01*
X77802Y-125684D01*
X76602Y-125603D01*
X75397Y-125603D01*
X74197Y-125684D01*
X73005Y-125844D01*
X71826Y-126084D01*
X70664Y-126401D01*
X69529Y-126797D01*
X68420Y-127267D01*
X67346Y-127809D01*
X66310Y-128423D01*
X65318Y-129104D01*
X64375Y-129850D01*
X63481Y-130657D01*
X62645Y-131521D01*
X61868Y-132440D01*
X61154Y-133409D01*
X60507Y-134423D01*
X59929Y-135479D01*
X59422Y-136570D01*
X58990Y-137694D01*
X58634Y-138843D01*
X58355Y-140012D01*
X58154Y-141199D01*
X58033Y-142397D01*
X57993Y-143600D01*
X58033Y-144803D01*
X58154Y-145999D01*
X58355Y-147186D01*
X58634Y-148357D01*
X58990Y-149506D01*
X59422Y-150628D01*
X59929Y-151721D01*
X60507Y-152775D01*
X61154Y-153789D01*
X61868Y-154758D01*
X62645Y-155677D01*
X63481Y-156543D01*
X64375Y-157350D01*
X65318Y-158096D01*
X66310Y-158777D01*
X67346Y-159389D01*
X68420Y-159933D01*
X69529Y-160403D01*
X70664Y-160797D01*
X71826Y-161114D01*
X73005Y-161354D01*
X74197Y-161516D01*
G37*
G36*
X-305201Y-137795D02*
G01*
X-303998Y-137795D01*
X-302798Y-137716D01*
X-301604Y-137555D01*
X-300425Y-137314D01*
X-299265Y-136997D01*
X-298128Y-136603D01*
X-297021Y-136132D01*
X-295946Y-135590D01*
X-294911Y-134976D01*
X-293919Y-134295D01*
X-292974Y-133550D01*
X-292082Y-132743D01*
X-291246Y-131878D01*
X-290469Y-130958D01*
X-289755Y-129990D01*
X-289107Y-128976D01*
X-288528Y-127921D01*
X-288023Y-126829D01*
X-287590Y-125706D01*
X-287233Y-124556D01*
X-286954Y-123387D01*
X-286755Y-122199D01*
X-286634Y-121003D01*
X-286594Y-119800D01*
X-286634Y-118596D01*
X-286755Y-117400D01*
X-286949Y-116246D01*
X-286754Y-116478D01*
X-285918Y-117343D01*
X-285025Y-118150D01*
X-284080Y-118895D01*
X-283088Y-119576D01*
X-282053Y-120190D01*
X-280978Y-120733D01*
X-279871Y-121203D01*
X-278734Y-121597D01*
X-277574Y-121914D01*
X-276395Y-122155D01*
X-275201Y-122316D01*
X-274002Y-122395D01*
X-272798Y-122395D01*
X-271598Y-122316D01*
X-270405Y-122155D01*
X-269225Y-121914D01*
X-268064Y-121597D01*
X-266929Y-121203D01*
X-265821Y-120733D01*
X-264746Y-120190D01*
X-263711Y-119576D01*
X-262718Y-118895D01*
X-261774Y-118150D01*
X-260882Y-117343D01*
X-260046Y-116478D01*
X-259269Y-115558D01*
X-258554Y-114589D01*
X-257907Y-113575D01*
X-257328Y-112521D01*
X-256823Y-111428D01*
X-256390Y-110306D01*
X-256033Y-109157D01*
X-255754Y-107986D01*
X-255555Y-106799D01*
X-255434Y-105603D01*
X-255393Y-104400D01*
X-255434Y-103197D01*
X-255555Y-101999D01*
X-255754Y-100812D01*
X-256033Y-99643D01*
X-256390Y-98494D01*
X-256823Y-97370D01*
X-257328Y-96278D01*
X-257907Y-95223D01*
X-258554Y-94209D01*
X-259269Y-93240D01*
X-260046Y-92321D01*
X-260882Y-91457D01*
X-261774Y-90650D01*
X-262718Y-89904D01*
X-263711Y-89223D01*
X-264746Y-88609D01*
X-265821Y-88067D01*
X-266929Y-87597D01*
X-268064Y-87202D01*
X-269225Y-86885D01*
X-270405Y-86644D01*
X-271598Y-86484D01*
X-272798Y-86404D01*
X-274002Y-86404D01*
X-275201Y-86484D01*
X-276395Y-86644D01*
X-277574Y-86885D01*
X-278734Y-87202D01*
X-279871Y-87597D01*
X-280978Y-88067D01*
X-282053Y-88609D01*
X-283088Y-89223D01*
X-284080Y-89904D01*
X-285025Y-90650D01*
X-285918Y-91457D01*
X-286754Y-92321D01*
X-287530Y-93240D01*
X-288244Y-94209D01*
X-288892Y-95223D01*
X-289471Y-96278D01*
X-289976Y-97370D01*
X-290410Y-98494D01*
X-290766Y-99643D01*
X-291045Y-100812D01*
X-291244Y-101999D01*
X-291365Y-103197D01*
X-291405Y-104400D01*
X-291365Y-105603D01*
X-291244Y-106799D01*
X-291050Y-107953D01*
X-291246Y-107721D01*
X-292082Y-106856D01*
X-292974Y-106050D01*
X-293919Y-105304D01*
X-294911Y-104623D01*
X-295946Y-104009D01*
X-297021Y-103467D01*
X-297116Y-103427D01*
X-296647Y-103189D01*
X-295610Y-102577D01*
X-294619Y-101896D01*
X-293675Y-101150D01*
X-292781Y-100342D01*
X-291945Y-99477D01*
X-291168Y-98559D01*
X-290455Y-97590D01*
X-289808Y-96576D01*
X-289229Y-95520D01*
X-288722Y-94429D01*
X-288289Y-93306D01*
X-287934Y-92157D01*
X-287655Y-90987D01*
X-287454Y-89800D01*
X-287334Y-88602D01*
X-287294Y-87400D01*
X-287334Y-86197D01*
X-287454Y-85000D01*
X-287655Y-83813D01*
X-287934Y-82642D01*
X-288289Y-81494D01*
X-288722Y-80371D01*
X-289229Y-79279D01*
X-289808Y-78224D01*
X-290455Y-77210D01*
X-291168Y-76240D01*
X-291945Y-75322D01*
X-292781Y-74457D01*
X-293675Y-73650D01*
X-294619Y-72903D01*
X-295610Y-72222D01*
X-296647Y-71610D01*
X-297721Y-71066D01*
X-298829Y-70597D01*
X-299965Y-70201D01*
X-301126Y-69884D01*
X-302304Y-69645D01*
X-303497Y-69484D01*
X-304697Y-69403D01*
X-305902Y-69403D01*
X-307102Y-69484D01*
X-308294Y-69645D01*
X-309474Y-69884D01*
X-310635Y-70201D01*
X-311770Y-70597D01*
X-312879Y-71066D01*
X-313953Y-71610D01*
X-314989Y-72222D01*
X-315981Y-72903D01*
X-316925Y-73650D01*
X-317817Y-74457D01*
X-318653Y-75322D01*
X-319431Y-76240D01*
X-320145Y-77210D01*
X-320792Y-78224D01*
X-321370Y-79279D01*
X-321877Y-80371D01*
X-322309Y-81494D01*
X-322665Y-82642D01*
X-322944Y-83813D01*
X-323145Y-85000D01*
X-323266Y-86197D01*
X-323306Y-87400D01*
X-323266Y-88602D01*
X-323145Y-89800D01*
X-322944Y-90987D01*
X-322665Y-92157D01*
X-322309Y-93306D01*
X-321877Y-94429D01*
X-321370Y-95520D01*
X-320792Y-96576D01*
X-320145Y-97590D01*
X-319431Y-98559D01*
X-318653Y-99477D01*
X-317817Y-100342D01*
X-316925Y-101150D01*
X-315981Y-101896D01*
X-314989Y-102577D01*
X-313953Y-103189D01*
X-312879Y-103733D01*
X-312784Y-103773D01*
X-313253Y-104009D01*
X-314288Y-104623D01*
X-315281Y-105304D01*
X-316225Y-106050D01*
X-317118Y-106856D01*
X-317953Y-107721D01*
X-318730Y-108641D01*
X-319445Y-109610D01*
X-320092Y-110624D01*
X-320671Y-111678D01*
X-321176Y-112771D01*
X-321610Y-113894D01*
X-321966Y-115043D01*
X-322245Y-116213D01*
X-322444Y-117400D01*
X-322565Y-118596D01*
X-322606Y-119800D01*
X-322565Y-121003D01*
X-322444Y-122199D01*
X-322245Y-123387D01*
X-321966Y-124556D01*
X-321610Y-125706D01*
X-321176Y-126829D01*
X-320671Y-127921D01*
X-320092Y-128976D01*
X-319445Y-129990D01*
X-318730Y-130958D01*
X-317953Y-131878D01*
X-317118Y-132743D01*
X-316225Y-133550D01*
X-315281Y-134295D01*
X-314288Y-134976D01*
X-313253Y-135590D01*
X-312179Y-136132D01*
X-311071Y-136603D01*
X-309935Y-136997D01*
X-308774Y-137314D01*
X-307595Y-137555D01*
X-306401Y-137716D01*
G37*
G36*
X465919Y746030D02*
G01*
X467209Y746089D01*
X468495Y746230D01*
X469767Y746449D01*
X471024Y746748D01*
X472260Y747125D01*
X473470Y747577D01*
X474650Y748103D01*
X475077Y748326D01*
X466143Y756370D01*
X458096Y747435D01*
X458324Y747341D01*
X459547Y746927D01*
X460794Y746590D01*
X462061Y746329D01*
X463339Y746149D01*
X464628Y746050D01*
G37*
G36*
X552698Y688004D02*
G01*
X553901Y688004D01*
X555101Y688083D01*
X556295Y688245D01*
X557474Y688485D01*
X558634Y688802D01*
X559771Y689196D01*
X560878Y689666D01*
X561953Y690210D01*
X562988Y690823D01*
X563981Y691503D01*
X564925Y692249D01*
X565817Y693056D01*
X566653Y693921D01*
X567430Y694841D01*
X568144Y695810D01*
X568792Y696824D01*
X569371Y697878D01*
X569876Y698971D01*
X570309Y700093D01*
X570666Y701242D01*
X570945Y702413D01*
X571144Y703600D01*
X571265Y704796D01*
X571305Y705999D01*
X571265Y707202D01*
X571144Y708400D01*
X570945Y709587D01*
X570666Y710756D01*
X570309Y711905D01*
X569876Y713029D01*
X569371Y714121D01*
X568792Y715176D01*
X568144Y716190D01*
X567430Y717159D01*
X566653Y718078D01*
X565817Y718942D01*
X564925Y719749D01*
X563981Y720495D01*
X562988Y721176D01*
X561953Y721790D01*
X560878Y722332D01*
X559771Y722802D01*
X558634Y723197D01*
X557474Y723514D01*
X556295Y723755D01*
X555101Y723915D01*
X553901Y723996D01*
X552698Y723996D01*
X551498Y723915D01*
X550304Y723755D01*
X549125Y723514D01*
X547964Y723197D01*
X546828Y722802D01*
X545721Y722332D01*
X544646Y721790D01*
X543611Y721176D01*
X542618Y720495D01*
X541674Y719749D01*
X540781Y718942D01*
X539945Y718078D01*
X539169Y717159D01*
X538454Y716190D01*
X537807Y715176D01*
X537228Y714121D01*
X536723Y713029D01*
X536289Y711905D01*
X535933Y710756D01*
X535654Y709587D01*
X535455Y708400D01*
X535334Y707202D01*
X535294Y705999D01*
X535334Y704796D01*
X535455Y703600D01*
X535654Y702413D01*
X535933Y701242D01*
X536289Y700093D01*
X536723Y698971D01*
X537228Y697878D01*
X537807Y696824D01*
X538454Y695810D01*
X539169Y694841D01*
X539945Y693921D01*
X540781Y693056D01*
X541674Y692249D01*
X542618Y691503D01*
X543611Y690823D01*
X544646Y690210D01*
X545721Y689666D01*
X546828Y689196D01*
X547964Y688802D01*
X549125Y688485D01*
X550304Y688245D01*
X551498Y688083D01*
G37*
G36*
X259907Y-111226D02*
G01*
X261112Y-111226D01*
X262312Y-111145D01*
X263504Y-110985D01*
X264683Y-110745D01*
X265844Y-110428D01*
X266980Y-110032D01*
X268088Y-109562D01*
X269162Y-109020D01*
X270199Y-108407D01*
X271190Y-107726D01*
X272134Y-106979D01*
X273027Y-106172D01*
X273864Y-105308D01*
X274641Y-104389D01*
X275354Y-103420D01*
X276001Y-102406D01*
X276580Y-101350D01*
X277087Y-100259D01*
X277519Y-99135D01*
X277875Y-97986D01*
X278154Y-96817D01*
X278355Y-95630D01*
X278476Y-94432D01*
X278515Y-93229D01*
X278476Y-92026D01*
X278355Y-90830D01*
X278154Y-89643D01*
X277875Y-88472D01*
X277519Y-87323D01*
X277087Y-86201D01*
X276580Y-85109D01*
X276001Y-84054D01*
X275354Y-83040D01*
X274641Y-82071D01*
X273864Y-81152D01*
X273027Y-80286D01*
X272134Y-79479D01*
X271190Y-78733D01*
X270199Y-78052D01*
X269162Y-77440D01*
X268088Y-76896D01*
X266980Y-76426D01*
X265844Y-76032D01*
X264683Y-75715D01*
X263504Y-75475D01*
X262312Y-75313D01*
X261112Y-75234D01*
X259907Y-75234D01*
X258707Y-75313D01*
X257515Y-75475D01*
X257497Y-75477D01*
X257624Y-74947D01*
X257825Y-73760D01*
X257946Y-72563D01*
X257986Y-71359D01*
X257946Y-70156D01*
X257825Y-68960D01*
X257624Y-67773D01*
X257345Y-66603D01*
X256989Y-65453D01*
X256557Y-64331D01*
X256050Y-63238D01*
X255471Y-62184D01*
X254825Y-61170D01*
X254111Y-60201D01*
X253333Y-59281D01*
X252497Y-58416D01*
X251604Y-57609D01*
X250661Y-56864D01*
X249669Y-56183D01*
X248632Y-55570D01*
X247559Y-55027D01*
X246450Y-54556D01*
X245315Y-54162D01*
X244153Y-53845D01*
X242974Y-53605D01*
X241782Y-53443D01*
X240581Y-53364D01*
X239377Y-53364D01*
X238177Y-53443D01*
X236984Y-53605D01*
X235806Y-53845D01*
X234645Y-54162D01*
X233508Y-54556D01*
X232400Y-55027D01*
X231327Y-55570D01*
X230290Y-56183D01*
X229299Y-56864D01*
X228355Y-57609D01*
X227461Y-58416D01*
X226625Y-59281D01*
X225848Y-60201D01*
X225135Y-61170D01*
X224488Y-62184D01*
X223909Y-63238D01*
X223402Y-64331D01*
X222969Y-65453D01*
X222614Y-66603D01*
X222335Y-67773D01*
X222134Y-68960D01*
X222013Y-70156D01*
X221974Y-71359D01*
X222013Y-72563D01*
X222134Y-73760D01*
X222335Y-74947D01*
X222614Y-76116D01*
X222969Y-77265D01*
X223402Y-78389D01*
X223909Y-79481D01*
X224488Y-80536D01*
X225135Y-81550D01*
X225848Y-82519D01*
X226625Y-83438D01*
X227461Y-84302D01*
X228355Y-85109D01*
X229299Y-85855D01*
X230290Y-86536D01*
X231327Y-87150D01*
X232400Y-87692D01*
X233508Y-88162D01*
X234645Y-88557D01*
X235806Y-88874D01*
X236984Y-89115D01*
X238177Y-89275D01*
X239377Y-89356D01*
X240581Y-89356D01*
X241782Y-89275D01*
X242974Y-89115D01*
X242991Y-89112D01*
X242865Y-89643D01*
X242664Y-90830D01*
X242543Y-92026D01*
X242503Y-93229D01*
X242543Y-94432D01*
X242664Y-95630D01*
X242865Y-96817D01*
X243144Y-97986D01*
X243499Y-99135D01*
X243932Y-100259D01*
X244439Y-101350D01*
X245018Y-102406D01*
X245664Y-103420D01*
X246378Y-104389D01*
X247155Y-105308D01*
X247991Y-106172D01*
X248885Y-106979D01*
X249828Y-107726D01*
X250820Y-108407D01*
X251856Y-109020D01*
X252930Y-109562D01*
X254039Y-110032D01*
X255174Y-110428D01*
X256336Y-110745D01*
X257515Y-110985D01*
X258707Y-111145D01*
G37*
G36*
X593773Y661320D02*
G01*
X601817Y670255D01*
X600982Y670567D01*
X599746Y670942D01*
X598490Y671242D01*
X597217Y671462D01*
X595932Y671601D01*
X594642Y671662D01*
X593350Y671642D01*
X592061Y671541D01*
X590783Y671361D01*
X589516Y671102D01*
X588270Y670765D01*
X587047Y670349D01*
X585851Y669861D01*
X584835Y669367D01*
G37*
G36*
X613684Y643391D02*
G01*
X614092Y644537D01*
X614448Y645779D01*
X614727Y647040D01*
X614927Y648317D01*
X615048Y649603D01*
X615088Y650895D01*
X615048Y652186D01*
X614927Y653472D01*
X614727Y654749D01*
X614448Y656010D01*
X614092Y657251D01*
X613658Y658469D01*
X613150Y659657D01*
X612789Y660374D01*
X604745Y651440D01*
G37*
G36*
X668278Y-85394D02*
G01*
X668573Y-85390D01*
X669750Y-85347D01*
X670046Y-85327D01*
X671220Y-85225D01*
X671511Y-85192D01*
X672677Y-85032D01*
X672969Y-84983D01*
X674125Y-84765D01*
X674412Y-84704D01*
X675556Y-84427D01*
X675842Y-84351D01*
X676971Y-84018D01*
X677254Y-83926D01*
X678365Y-83537D01*
X678639Y-83434D01*
X679731Y-82989D01*
X680001Y-82872D01*
X681068Y-82375D01*
X681332Y-82244D01*
X682372Y-81694D01*
X682631Y-81548D01*
X683643Y-80947D01*
X683892Y-80790D01*
X684873Y-80140D01*
X685113Y-79972D01*
X686060Y-79274D01*
X686297Y-79088D01*
X687209Y-78342D01*
X687426Y-78155D01*
X688301Y-77364D01*
X688517Y-77159D01*
X689349Y-76327D01*
X689555Y-76111D01*
X690344Y-75237D01*
X690532Y-75019D01*
X691278Y-74108D01*
X691463Y-73870D01*
X692163Y-72923D01*
X692330Y-72683D01*
X692980Y-71703D01*
X693136Y-71453D01*
X693738Y-70441D01*
X693883Y-70183D01*
X694434Y-69142D01*
X694565Y-68879D01*
X695063Y-67811D01*
X695180Y-67541D01*
X695623Y-66449D01*
X695727Y-66176D01*
X696116Y-65064D01*
X696207Y-64782D01*
X696540Y-63652D01*
X696617Y-63366D01*
X696894Y-62222D01*
X696954Y-61936D01*
X697173Y-60779D01*
X697222Y-60488D01*
X697382Y-59320D01*
X697415Y-59030D01*
X697518Y-57856D01*
X697537Y-57561D01*
X697581Y-56383D01*
X697584Y-56087D01*
X697569Y-54911D01*
X697559Y-54619D01*
X697485Y-53443D01*
X697460Y-53148D01*
X697327Y-51977D01*
X697287Y-51687D01*
X697097Y-50525D01*
X697043Y-50232D01*
X696795Y-49081D01*
X696727Y-48802D01*
X696422Y-47663D01*
X696337Y-47373D01*
X695974Y-46251D01*
X695879Y-45981D01*
X695464Y-44879D01*
X695352Y-44601D01*
X694880Y-43523D01*
X694756Y-43258D01*
X694232Y-42204D01*
X694093Y-41938D01*
X693515Y-40911D01*
X693369Y-40662D01*
X692743Y-39666D01*
X692578Y-39418D01*
X691902Y-38452D01*
X691728Y-38216D01*
X691004Y-37287D01*
X690820Y-37060D01*
X690051Y-36168D01*
X689852Y-35947D01*
X689039Y-35093D01*
X688937Y-34990D01*
X661099Y-7152D01*
X660995Y-7049D01*
X660142Y-6237D01*
X659921Y-6037D01*
X659029Y-5270D01*
X658802Y-5084D01*
X657872Y-4362D01*
X657636Y-4187D01*
X656671Y-3512D01*
X656423Y-3346D01*
X655426Y-2721D01*
X655178Y-2573D01*
X654151Y-1997D01*
X653886Y-1856D01*
X652830Y-1332D01*
X652566Y-1208D01*
X651487Y-738D01*
X651211Y-626D01*
X650109Y-210D01*
X649837Y-115D01*
X648716Y246D01*
X648425Y333D01*
X647287Y637D01*
X647007Y704D01*
X645856Y952D01*
X645564Y1008D01*
X644402Y1197D01*
X644111Y1237D01*
X642942Y1370D01*
X642645Y1395D01*
X641469Y1469D01*
X641179Y1480D01*
X640001Y1494D01*
X639705Y1491D01*
X638528Y1446D01*
X638234Y1428D01*
X637060Y1325D01*
X636768Y1293D01*
X635601Y1131D01*
X635311Y1084D01*
X634153Y864D01*
X633868Y803D01*
X632722Y527D01*
X632438Y450D01*
X631307Y117D01*
X631024Y27D01*
X629913Y-362D01*
X629639Y-466D01*
X628549Y-909D01*
X628279Y-1026D01*
X627210Y-1525D01*
X626948Y-1655D01*
X625906Y-2206D01*
X625649Y-2350D01*
X624636Y-2953D01*
X624386Y-3108D01*
X623405Y-3760D01*
X623167Y-3926D01*
X622218Y-4625D01*
X621981Y-4810D01*
X621071Y-5556D01*
X620852Y-5745D01*
X619979Y-6534D01*
X619763Y-6739D01*
X618930Y-7573D01*
X618724Y-7789D01*
X617934Y-8663D01*
X617746Y-8881D01*
X617001Y-9792D01*
X616815Y-10028D01*
X616116Y-10976D01*
X615950Y-11215D01*
X615298Y-12197D01*
X615142Y-12445D01*
X614540Y-13458D01*
X614395Y-13717D01*
X613846Y-14758D01*
X613715Y-15021D01*
X613216Y-16089D01*
X613099Y-16359D01*
X612655Y-17449D01*
X612551Y-17723D01*
X612163Y-18834D01*
X612071Y-19117D01*
X611738Y-20248D01*
X611661Y-20533D01*
X611386Y-21678D01*
X611324Y-21963D01*
X611105Y-23121D01*
X611058Y-23411D01*
X610896Y-24578D01*
X610865Y-24870D01*
X610761Y-26044D01*
X610743Y-26338D01*
X610698Y-27516D01*
X610694Y-27811D01*
X610709Y-28989D01*
X610721Y-29279D01*
X610793Y-30455D01*
X610820Y-30752D01*
X610951Y-31921D01*
X610991Y-32211D01*
X611181Y-33375D01*
X611237Y-33667D01*
X611485Y-34818D01*
X611553Y-35097D01*
X611857Y-36235D01*
X611943Y-36527D01*
X612304Y-37647D01*
X612399Y-37919D01*
X612816Y-39021D01*
X612928Y-39297D01*
X613398Y-40376D01*
X613522Y-40641D01*
X614047Y-41696D01*
X614187Y-41961D01*
X614763Y-42989D01*
X614911Y-43236D01*
X615536Y-44234D01*
X615702Y-44481D01*
X616377Y-45446D01*
X616552Y-45682D01*
X617274Y-46613D01*
X617460Y-46838D01*
X618227Y-47732D01*
X618428Y-47953D01*
X619239Y-48805D01*
X619341Y-48910D01*
X647179Y-76748D01*
X647283Y-76849D01*
X648136Y-77662D01*
X648357Y-77862D01*
X649250Y-78629D01*
X649476Y-78814D01*
X650406Y-79538D01*
X650643Y-79711D01*
X651607Y-80387D01*
X651855Y-80552D01*
X652852Y-81179D01*
X653100Y-81325D01*
X654128Y-81903D01*
X654394Y-82042D01*
X655448Y-82566D01*
X655712Y-82690D01*
X656791Y-83162D01*
X657069Y-83274D01*
X658171Y-83690D01*
X658441Y-83784D01*
X659562Y-84146D01*
X659853Y-84232D01*
X660991Y-84537D01*
X661271Y-84605D01*
X662422Y-84852D01*
X662714Y-84908D01*
X663877Y-85097D01*
X664167Y-85138D01*
X665338Y-85270D01*
X665634Y-85295D01*
X666809Y-85369D01*
X667101Y-85380D01*
G37*
G36*
X575846Y641410D02*
G01*
X583892Y650349D01*
X574960Y658391D01*
X574753Y657863D01*
X574358Y656633D01*
X574039Y655381D01*
X573800Y654112D01*
X573639Y652829D01*
X573558Y651541D01*
X573558Y650248D01*
X573639Y648960D01*
X573800Y647678D01*
X574039Y646408D01*
X574358Y645156D01*
X574753Y643926D01*
X575223Y642723D01*
X575769Y641552D01*
G37*
G36*
X-84301Y-62696D02*
G01*
X-83097Y-62696D01*
X-81898Y-62615D01*
X-80704Y-62454D01*
X-79526Y-62215D01*
X-78365Y-61898D01*
X-77228Y-61503D01*
X-76121Y-61033D01*
X-75047Y-60489D01*
X-74011Y-59877D01*
X-73019Y-59196D01*
X-72075Y-58449D01*
X-71181Y-57642D01*
X-70345Y-56777D01*
X-69569Y-55859D01*
X-68855Y-54890D01*
X-68208Y-53876D01*
X-67628Y-52820D01*
X-67123Y-51729D01*
X-66689Y-50606D01*
X-66333Y-49457D01*
X-66054Y-48287D01*
X-65855Y-47100D01*
X-65734Y-45902D01*
X-65694Y-44699D01*
X-65734Y-43497D01*
X-65855Y-42300D01*
X-66054Y-41113D01*
X-66333Y-39942D01*
X-66689Y-38793D01*
X-67123Y-37671D01*
X-67628Y-36579D01*
X-68208Y-35524D01*
X-68855Y-34510D01*
X-69569Y-33541D01*
X-70345Y-32622D01*
X-71181Y-31757D01*
X-72075Y-30949D01*
X-73019Y-30203D01*
X-74011Y-29522D01*
X-75047Y-28910D01*
X-76121Y-28366D01*
X-77228Y-27896D01*
X-78365Y-27501D01*
X-79526Y-27184D01*
X-80704Y-26945D01*
X-81898Y-26784D01*
X-83097Y-26703D01*
X-84301Y-26703D01*
X-85501Y-26784D01*
X-86694Y-26945D01*
X-87874Y-27184D01*
X-89035Y-27501D01*
X-90171Y-27896D01*
X-91279Y-28366D01*
X-92353Y-28910D01*
X-93388Y-29522D01*
X-94381Y-30203D01*
X-95325Y-30949D01*
X-96217Y-31757D01*
X-97053Y-32622D01*
X-97830Y-33541D01*
X-98545Y-34510D01*
X-99192Y-35524D01*
X-99771Y-36579D01*
X-100277Y-37671D01*
X-100709Y-38793D01*
X-101066Y-39942D01*
X-101345Y-41113D01*
X-101545Y-42300D01*
X-101666Y-43497D01*
X-101706Y-44699D01*
X-101666Y-45902D01*
X-101545Y-47100D01*
X-101345Y-48287D01*
X-101066Y-49457D01*
X-100709Y-50606D01*
X-100277Y-51729D01*
X-99771Y-52820D01*
X-99192Y-53876D01*
X-98545Y-54890D01*
X-97830Y-55859D01*
X-97053Y-56777D01*
X-96217Y-57642D01*
X-95325Y-58449D01*
X-94381Y-59196D01*
X-93388Y-59877D01*
X-92353Y-60489D01*
X-91279Y-61033D01*
X-90171Y-61503D01*
X-89035Y-61898D01*
X-87874Y-62215D01*
X-86694Y-62454D01*
X-85501Y-62615D01*
G37*
G36*
X307298Y-53996D02*
G01*
X308501Y-53996D01*
X309701Y-53915D01*
X310895Y-53755D01*
X312074Y-53515D01*
X313234Y-53198D01*
X314371Y-52802D01*
X315478Y-52332D01*
X316553Y-51790D01*
X317588Y-51177D01*
X318580Y-50495D01*
X319525Y-49749D01*
X320417Y-48942D01*
X321253Y-48078D01*
X322030Y-47159D01*
X322744Y-46190D01*
X323392Y-45176D01*
X323971Y-44121D01*
X324476Y-43029D01*
X324909Y-41905D01*
X325266Y-40756D01*
X325545Y-39587D01*
X325744Y-38400D01*
X325865Y-37202D01*
X325905Y-35999D01*
X325865Y-34796D01*
X325744Y-33600D01*
X325545Y-32413D01*
X325266Y-31242D01*
X324909Y-30093D01*
X324476Y-28971D01*
X323971Y-27878D01*
X323392Y-26824D01*
X322744Y-25810D01*
X322030Y-24841D01*
X321253Y-23922D01*
X320417Y-23056D01*
X319525Y-22249D01*
X318580Y-21503D01*
X317588Y-20823D01*
X316553Y-20210D01*
X315478Y-19666D01*
X314371Y-19196D01*
X313234Y-18802D01*
X312074Y-18485D01*
X310895Y-18245D01*
X309701Y-18083D01*
X308501Y-18004D01*
X307298Y-18004D01*
X306098Y-18083D01*
X304904Y-18245D01*
X303725Y-18485D01*
X302564Y-18802D01*
X301428Y-19196D01*
X300320Y-19666D01*
X299246Y-20210D01*
X298211Y-20823D01*
X297218Y-21503D01*
X296274Y-22249D01*
X295381Y-23056D01*
X294546Y-23922D01*
X293769Y-24841D01*
X293054Y-25810D01*
X292407Y-26824D01*
X291828Y-27878D01*
X291323Y-28971D01*
X290889Y-30093D01*
X290533Y-31242D01*
X290254Y-32413D01*
X290055Y-33600D01*
X289934Y-34796D01*
X289893Y-35999D01*
X289934Y-37202D01*
X290055Y-38400D01*
X290254Y-39587D01*
X290533Y-40756D01*
X290889Y-41905D01*
X291323Y-43029D01*
X291828Y-44121D01*
X292407Y-45176D01*
X293054Y-46190D01*
X293769Y-47159D01*
X294546Y-48078D01*
X295381Y-48942D01*
X296274Y-49749D01*
X297218Y-50495D01*
X298211Y-51177D01*
X299246Y-51790D01*
X300320Y-52332D01*
X301428Y-52802D01*
X302564Y-53198D01*
X303725Y-53515D01*
X304904Y-53755D01*
X306098Y-53915D01*
G37*
G36*
X17897Y-27296D02*
G01*
X19102Y-27296D01*
X20302Y-27215D01*
X21494Y-27055D01*
X22673Y-26815D01*
X23834Y-26498D01*
X24970Y-26102D01*
X26078Y-25632D01*
X27152Y-25090D01*
X28189Y-24477D01*
X29180Y-23796D01*
X30124Y-23049D01*
X31017Y-22242D01*
X31854Y-21377D01*
X32631Y-20459D01*
X33344Y-19490D01*
X33991Y-18476D01*
X34570Y-17420D01*
X35077Y-16329D01*
X35509Y-15205D01*
X35865Y-14057D01*
X36144Y-12887D01*
X36345Y-11700D01*
X36466Y-10502D01*
X36505Y-9299D01*
X36466Y-8097D01*
X36345Y-6900D01*
X36144Y-5713D01*
X35865Y-4542D01*
X35509Y-3393D01*
X35077Y-2271D01*
X34570Y-1179D01*
X33991Y-124D01*
X33344Y889D01*
X32631Y1858D01*
X31854Y2777D01*
X31017Y3643D01*
X30124Y4450D01*
X29180Y5196D01*
X28189Y5877D01*
X27152Y6489D01*
X26078Y7033D01*
X24970Y7503D01*
X23834Y7898D01*
X22673Y8215D01*
X21494Y8454D01*
X20302Y8616D01*
X19102Y8695D01*
X17897Y8695D01*
X16697Y8616D01*
X15505Y8454D01*
X14326Y8215D01*
X13164Y7898D01*
X12029Y7503D01*
X10920Y7033D01*
X9846Y6489D01*
X8810Y5877D01*
X7818Y5196D01*
X6875Y4450D01*
X5981Y3643D01*
X5145Y2777D01*
X4368Y1858D01*
X3654Y889D01*
X3007Y-124D01*
X2429Y-1179D01*
X1922Y-2271D01*
X1490Y-3393D01*
X1134Y-4542D01*
X855Y-5713D01*
X654Y-6900D01*
X533Y-8097D01*
X493Y-9299D01*
X533Y-10502D01*
X654Y-11700D01*
X855Y-12887D01*
X1134Y-14057D01*
X1490Y-15205D01*
X1922Y-16329D01*
X2429Y-17420D01*
X3007Y-18476D01*
X3654Y-19490D01*
X4368Y-20459D01*
X5145Y-21377D01*
X5981Y-22242D01*
X6875Y-23049D01*
X7818Y-23796D01*
X8810Y-24477D01*
X9846Y-25090D01*
X10920Y-25632D01*
X12029Y-26102D01*
X13164Y-26498D01*
X14326Y-26815D01*
X15505Y-27055D01*
X16697Y-27215D01*
G37*
G36*
X282097Y-21395D02*
G01*
X283302Y-21395D01*
X284502Y-21316D01*
X285694Y-21154D01*
X286873Y-20914D01*
X288034Y-20597D01*
X289170Y-20203D01*
X290279Y-19733D01*
X291352Y-19189D01*
X292389Y-18577D01*
X293380Y-17896D01*
X294324Y-17150D01*
X295217Y-16343D01*
X296053Y-15477D01*
X296831Y-14558D01*
X297545Y-13589D01*
X298191Y-12575D01*
X298770Y-11521D01*
X299277Y-10428D01*
X299709Y-9306D01*
X300065Y-8157D01*
X300344Y-6986D01*
X300545Y-5799D01*
X300666Y-4603D01*
X300706Y-3400D01*
X300666Y-2197D01*
X300545Y-999D01*
X300344Y187D01*
X300065Y1356D01*
X299709Y2505D01*
X299277Y3629D01*
X298770Y4720D01*
X298191Y5776D01*
X297545Y6790D01*
X296831Y7759D01*
X296053Y8677D01*
X295217Y9542D01*
X294324Y10349D01*
X293380Y11095D01*
X292389Y11777D01*
X291352Y12390D01*
X290279Y12932D01*
X289170Y13402D01*
X288034Y13798D01*
X286873Y14115D01*
X285694Y14355D01*
X284502Y14515D01*
X283302Y14596D01*
X282097Y14596D01*
X280897Y14515D01*
X279704Y14355D01*
X278526Y14115D01*
X277364Y13798D01*
X276229Y13402D01*
X275120Y12932D01*
X274047Y12390D01*
X273010Y11777D01*
X272019Y11095D01*
X271075Y10349D01*
X270181Y9542D01*
X269345Y8677D01*
X268568Y7759D01*
X267854Y6790D01*
X267208Y5776D01*
X266629Y4720D01*
X266122Y3629D01*
X265689Y2505D01*
X265334Y1356D01*
X265055Y187D01*
X264854Y-999D01*
X264733Y-2197D01*
X264693Y-3400D01*
X264733Y-4603D01*
X264854Y-5799D01*
X265055Y-6986D01*
X265334Y-8157D01*
X265689Y-9306D01*
X266122Y-10428D01*
X266629Y-11521D01*
X267208Y-12575D01*
X267854Y-13589D01*
X268568Y-14558D01*
X269345Y-15477D01*
X270181Y-16343D01*
X271075Y-17150D01*
X272019Y-17896D01*
X273010Y-18577D01*
X274047Y-19189D01*
X275120Y-19733D01*
X276229Y-20203D01*
X277364Y-20597D01*
X278526Y-20914D01*
X279704Y-21154D01*
X280897Y-21316D01*
G37*
G36*
X-523202Y-14895D02*
G01*
X-521998Y-14895D01*
X-520798Y-14816D01*
X-519605Y-14655D01*
X-518425Y-14414D01*
X-517264Y-14097D01*
X-516129Y-13703D01*
X-515020Y-13233D01*
X-513946Y-12690D01*
X-512911Y-12076D01*
X-511918Y-11395D01*
X-510974Y-10650D01*
X-510082Y-9843D01*
X-509246Y-8978D01*
X-508469Y-8058D01*
X-507754Y-7089D01*
X-507107Y-6075D01*
X-506529Y-5021D01*
X-506023Y-3928D01*
X-505590Y-2806D01*
X-505234Y-1657D01*
X-504954Y-486D01*
X-504755Y700D01*
X-504634Y1896D01*
X-504593Y3099D01*
X-504634Y4302D01*
X-504755Y5500D01*
X-504954Y6687D01*
X-505234Y7856D01*
X-505590Y9005D01*
X-506023Y10129D01*
X-506529Y11221D01*
X-507107Y12276D01*
X-507754Y13290D01*
X-508469Y14259D01*
X-509246Y15178D01*
X-510082Y16042D01*
X-510974Y16849D01*
X-511918Y17595D01*
X-512911Y18276D01*
X-513946Y18890D01*
X-515020Y19432D01*
X-516129Y19902D01*
X-517264Y20297D01*
X-518425Y20614D01*
X-519605Y20855D01*
X-520798Y21015D01*
X-521998Y21095D01*
X-523202Y21095D01*
X-524402Y21015D01*
X-525595Y20855D01*
X-526774Y20614D01*
X-527934Y20297D01*
X-529071Y19902D01*
X-530178Y19432D01*
X-531252Y18890D01*
X-532289Y18276D01*
X-533280Y17595D01*
X-534224Y16849D01*
X-535118Y16042D01*
X-535954Y15178D01*
X-536730Y14259D01*
X-537444Y13290D01*
X-538091Y12276D01*
X-538671Y11221D01*
X-539176Y10129D01*
X-539610Y9005D01*
X-539966Y7856D01*
X-540245Y6687D01*
X-540444Y5500D01*
X-540565Y4302D01*
X-540605Y3099D01*
X-540565Y1896D01*
X-540444Y700D01*
X-540245Y-486D01*
X-539966Y-1657D01*
X-539610Y-2806D01*
X-539176Y-3928D01*
X-538671Y-5021D01*
X-538091Y-6075D01*
X-537444Y-7089D01*
X-536730Y-8058D01*
X-535954Y-8978D01*
X-535118Y-9843D01*
X-534224Y-10650D01*
X-533280Y-11395D01*
X-532289Y-12076D01*
X-531252Y-12690D01*
X-530178Y-13233D01*
X-529071Y-13703D01*
X-527934Y-14097D01*
X-526774Y-14414D01*
X-525595Y-14655D01*
X-524402Y-14816D01*
G37*
G36*
X315497Y-4196D02*
G01*
X316701Y-4196D01*
X317901Y-4115D01*
X319094Y-3955D01*
X320273Y-3715D01*
X321435Y-3398D01*
X322570Y-3002D01*
X323679Y-2532D01*
X324753Y-1990D01*
X325788Y-1377D01*
X326781Y-695D01*
X327725Y50D01*
X328617Y857D01*
X329453Y1721D01*
X330231Y2640D01*
X330945Y3609D01*
X331592Y4623D01*
X332170Y5679D01*
X332677Y6770D01*
X333109Y7894D01*
X333465Y9043D01*
X333744Y10212D01*
X333945Y11399D01*
X334066Y12597D01*
X334106Y13800D01*
X334066Y15003D01*
X333945Y16199D01*
X333744Y17386D01*
X333465Y18557D01*
X333109Y19706D01*
X332677Y20828D01*
X332170Y21920D01*
X331592Y22975D01*
X330945Y23989D01*
X330231Y24958D01*
X329453Y25877D01*
X328617Y26743D01*
X327725Y27550D01*
X326781Y28296D01*
X325788Y28976D01*
X324753Y29589D01*
X323679Y30133D01*
X322570Y30603D01*
X321435Y30997D01*
X320273Y31314D01*
X319094Y31554D01*
X317901Y31716D01*
X316701Y31795D01*
X315497Y31795D01*
X314297Y31716D01*
X313104Y31554D01*
X311926Y31314D01*
X310765Y30997D01*
X309628Y30603D01*
X308521Y30133D01*
X307447Y29589D01*
X306410Y28976D01*
X305419Y28296D01*
X304475Y27550D01*
X303581Y26743D01*
X302745Y25877D01*
X301968Y24958D01*
X301255Y23989D01*
X300608Y22975D01*
X300028Y21920D01*
X299522Y20828D01*
X299089Y19706D01*
X298733Y18557D01*
X298454Y17386D01*
X298254Y16199D01*
X298134Y15003D01*
X298094Y13800D01*
X298134Y12597D01*
X298254Y11399D01*
X298454Y10212D01*
X298733Y9043D01*
X299089Y7894D01*
X299522Y6770D01*
X300028Y5679D01*
X300608Y4623D01*
X301255Y3609D01*
X301968Y2640D01*
X302745Y1721D01*
X303581Y857D01*
X304475Y50D01*
X305419Y-695D01*
X306410Y-1377D01*
X307447Y-1990D01*
X308521Y-2532D01*
X309628Y-3002D01*
X310765Y-3398D01*
X311926Y-3715D01*
X313104Y-3955D01*
X314297Y-4115D01*
G37*
G36*
X659835Y16329D02*
G01*
X726764Y16329D01*
X727084Y16338D01*
X727403Y16363D01*
X727719Y16406D01*
X728034Y16466D01*
X728344Y16543D01*
X728650Y16637D01*
X728950Y16747D01*
X729245Y16875D01*
X729530Y17017D01*
X729809Y17173D01*
X730078Y17346D01*
X730338Y17532D01*
X730587Y17734D01*
X730826Y17946D01*
X731053Y18173D01*
X731265Y18411D01*
X731467Y18661D01*
X731652Y18921D01*
X731826Y19189D01*
X731983Y19468D01*
X732124Y19755D01*
X732251Y20048D01*
X732362Y20349D01*
X732456Y20655D01*
X732533Y20965D01*
X732592Y21280D01*
X732636Y21595D01*
X732662Y21914D01*
X732671Y22235D01*
X732671Y89164D01*
X732662Y89484D01*
X732636Y89803D01*
X732592Y90120D01*
X732533Y90434D01*
X732456Y90745D01*
X732362Y91050D01*
X732251Y91350D01*
X732124Y91644D01*
X731983Y91930D01*
X731826Y92210D01*
X731652Y92478D01*
X731467Y92739D01*
X731265Y92988D01*
X731053Y93227D01*
X730826Y93452D01*
X730587Y93665D01*
X730338Y93867D01*
X730078Y94052D01*
X729809Y94225D01*
X729530Y94382D01*
X729245Y94524D01*
X728950Y94652D01*
X728650Y94762D01*
X728344Y94855D01*
X728034Y94933D01*
X727719Y94992D01*
X727403Y95036D01*
X727084Y95061D01*
X726764Y95070D01*
X659835Y95070D01*
X659515Y95061D01*
X659196Y95036D01*
X658879Y94992D01*
X658564Y94933D01*
X658254Y94855D01*
X657948Y94762D01*
X657649Y94652D01*
X657354Y94524D01*
X657069Y94382D01*
X656790Y94225D01*
X656521Y94052D01*
X656260Y93867D01*
X656012Y93665D01*
X655772Y93452D01*
X655546Y93227D01*
X655450Y93117D01*
X654489Y93777D01*
X653452Y94389D01*
X652379Y94933D01*
X651270Y95403D01*
X650135Y95797D01*
X648973Y96114D01*
X647794Y96354D01*
X646602Y96516D01*
X645401Y96595D01*
X644197Y96595D01*
X642997Y96516D01*
X641804Y96354D01*
X640626Y96114D01*
X639465Y95797D01*
X638329Y95403D01*
X637220Y94933D01*
X636147Y94389D01*
X635110Y93777D01*
X634119Y93096D01*
X633175Y92350D01*
X632281Y91543D01*
X631445Y90677D01*
X630668Y89758D01*
X629954Y88789D01*
X629308Y87775D01*
X628729Y86720D01*
X628222Y85628D01*
X627789Y84506D01*
X627434Y83357D01*
X627155Y82186D01*
X626954Y80999D01*
X626833Y79803D01*
X626793Y78600D01*
X626833Y77397D01*
X626954Y76199D01*
X627155Y75012D01*
X627434Y73843D01*
X627789Y72694D01*
X628222Y71570D01*
X628729Y70479D01*
X629308Y69423D01*
X629954Y68409D01*
X630668Y67440D01*
X631445Y66521D01*
X632281Y65657D01*
X633175Y64850D01*
X634119Y64103D01*
X635110Y63422D01*
X636147Y62809D01*
X637220Y62267D01*
X638329Y61797D01*
X639465Y61401D01*
X640626Y61084D01*
X641804Y60844D01*
X642997Y60684D01*
X644197Y60603D01*
X645401Y60603D01*
X646602Y60684D01*
X647794Y60844D01*
X648973Y61084D01*
X650135Y61401D01*
X651270Y61797D01*
X652379Y62267D01*
X653452Y62809D01*
X653928Y63092D01*
X653928Y22235D01*
X653937Y21914D01*
X653963Y21595D01*
X654007Y21280D01*
X654066Y20965D01*
X654143Y20655D01*
X654237Y20349D01*
X654348Y20048D01*
X654475Y19755D01*
X654616Y19468D01*
X654773Y19189D01*
X654947Y18921D01*
X655132Y18661D01*
X655334Y18411D01*
X655546Y18173D01*
X655772Y17946D01*
X656012Y17734D01*
X656260Y17532D01*
X656521Y17346D01*
X656790Y17173D01*
X657069Y17017D01*
X657354Y16875D01*
X657649Y16747D01*
X657948Y16637D01*
X658254Y16543D01*
X658564Y16466D01*
X658879Y16406D01*
X659196Y16363D01*
X659515Y16338D01*
G37*
G36*
X394398Y22503D02*
G01*
X395601Y22503D01*
X396801Y22584D01*
X397995Y22744D01*
X399174Y22984D01*
X400334Y23301D01*
X401471Y23697D01*
X402578Y24166D01*
X403652Y24710D01*
X404688Y25322D01*
X405680Y26003D01*
X406624Y26750D01*
X407518Y27557D01*
X408353Y28422D01*
X409130Y29340D01*
X409844Y30309D01*
X410491Y31323D01*
X411071Y32379D01*
X411576Y33470D01*
X412010Y34594D01*
X412366Y35742D01*
X412645Y36912D01*
X412844Y38099D01*
X412965Y39297D01*
X413005Y40500D01*
X412965Y41702D01*
X412844Y42899D01*
X412645Y44086D01*
X412366Y45257D01*
X412010Y46406D01*
X411576Y47528D01*
X411071Y48620D01*
X410491Y49675D01*
X409844Y50689D01*
X409130Y51658D01*
X408353Y52577D01*
X407518Y53442D01*
X406624Y54250D01*
X405680Y54996D01*
X404688Y55677D01*
X403652Y56289D01*
X402578Y56833D01*
X401471Y57303D01*
X400334Y57698D01*
X399174Y58015D01*
X397995Y58254D01*
X396801Y58416D01*
X395601Y58496D01*
X394398Y58496D01*
X393198Y58416D01*
X392004Y58254D01*
X390825Y58015D01*
X389664Y57698D01*
X388528Y57303D01*
X387420Y56833D01*
X386346Y56289D01*
X385311Y55677D01*
X384318Y54996D01*
X383374Y54250D01*
X382482Y53442D01*
X381646Y52577D01*
X380869Y51658D01*
X380154Y50689D01*
X379507Y49675D01*
X378928Y48620D01*
X378423Y47528D01*
X377989Y46406D01*
X377633Y45257D01*
X377354Y44086D01*
X377155Y42899D01*
X377034Y41702D01*
X376993Y40500D01*
X377034Y39297D01*
X377155Y38099D01*
X377354Y36912D01*
X377633Y35742D01*
X377989Y34594D01*
X378423Y33470D01*
X378928Y32379D01*
X379507Y31323D01*
X380154Y30309D01*
X380869Y29340D01*
X381646Y28422D01*
X382482Y27557D01*
X383374Y26750D01*
X384318Y26003D01*
X385311Y25322D01*
X386346Y24710D01*
X387420Y24166D01*
X388528Y23697D01*
X389664Y23301D01*
X390825Y22984D01*
X392004Y22744D01*
X393198Y22584D01*
G37*
G36*
X-341001Y24904D02*
G01*
X-339798Y24904D01*
X-338598Y24983D01*
X-337404Y25144D01*
X-336225Y25385D01*
X-335065Y25702D01*
X-333928Y26096D01*
X-332821Y26567D01*
X-331747Y27109D01*
X-330711Y27723D01*
X-329719Y28404D01*
X-328775Y29149D01*
X-327881Y29956D01*
X-327046Y30821D01*
X-326269Y31741D01*
X-325555Y32710D01*
X-324908Y33724D01*
X-324328Y34778D01*
X-323823Y35871D01*
X-323389Y36993D01*
X-323033Y38143D01*
X-322754Y39313D01*
X-322555Y40500D01*
X-322434Y41696D01*
X-322394Y42899D01*
X-322434Y44103D01*
X-322555Y45300D01*
X-322754Y46487D01*
X-323033Y47656D01*
X-323389Y48805D01*
X-323823Y49929D01*
X-324328Y51021D01*
X-324908Y52076D01*
X-325555Y53090D01*
X-326269Y54059D01*
X-327046Y54978D01*
X-327881Y55842D01*
X-328775Y56649D01*
X-329719Y57395D01*
X-330711Y58076D01*
X-331747Y58690D01*
X-332821Y59232D01*
X-333928Y59702D01*
X-335065Y60097D01*
X-336225Y60414D01*
X-337404Y60655D01*
X-338598Y60815D01*
X-339798Y60895D01*
X-341001Y60895D01*
X-342201Y60815D01*
X-343395Y60655D01*
X-344574Y60414D01*
X-345735Y60097D01*
X-346871Y59702D01*
X-347979Y59232D01*
X-349053Y58690D01*
X-350088Y58076D01*
X-351081Y57395D01*
X-352025Y56649D01*
X-352917Y55842D01*
X-353753Y54978D01*
X-354530Y54059D01*
X-355245Y53090D01*
X-355892Y52076D01*
X-356471Y51021D01*
X-356976Y49929D01*
X-357409Y48805D01*
X-357766Y47656D01*
X-358045Y46487D01*
X-358244Y45300D01*
X-358366Y44103D01*
X-358406Y42899D01*
X-358366Y41696D01*
X-358244Y40500D01*
X-358045Y39313D01*
X-357766Y38143D01*
X-357409Y36993D01*
X-356976Y35871D01*
X-356471Y34778D01*
X-355892Y33724D01*
X-355245Y32710D01*
X-354530Y31741D01*
X-353753Y30821D01*
X-352917Y29956D01*
X-352025Y29149D01*
X-351081Y28404D01*
X-350088Y27723D01*
X-349053Y27109D01*
X-347979Y26567D01*
X-346871Y26096D01*
X-345735Y25702D01*
X-344574Y25385D01*
X-343395Y25144D01*
X-342201Y24983D01*
G37*
G36*
X556927Y25965D02*
G01*
X557223Y25969D01*
X558401Y26012D01*
X558695Y26032D01*
X559870Y26134D01*
X560160Y26167D01*
X561328Y26327D01*
X561619Y26376D01*
X562776Y26594D01*
X563061Y26655D01*
X564206Y26932D01*
X564492Y27008D01*
X565622Y27341D01*
X565905Y27433D01*
X567016Y27822D01*
X567290Y27925D01*
X568380Y28369D01*
X568650Y28487D01*
X569718Y28984D01*
X569982Y29115D01*
X571022Y29666D01*
X571280Y29810D01*
X572294Y30412D01*
X572542Y30569D01*
X573523Y31219D01*
X573762Y31386D01*
X574710Y32085D01*
X574947Y32271D01*
X575859Y33016D01*
X576076Y33204D01*
X576950Y33994D01*
X577166Y34200D01*
X578000Y35032D01*
X578204Y35248D01*
X578994Y36122D01*
X579183Y36340D01*
X579929Y37251D01*
X580114Y37489D01*
X580812Y38436D01*
X580979Y38676D01*
X581630Y39657D01*
X581786Y39906D01*
X582389Y40918D01*
X582533Y41176D01*
X583083Y42217D01*
X583215Y42480D01*
X583712Y43548D01*
X583829Y43818D01*
X584273Y44909D01*
X584377Y45183D01*
X584767Y46295D01*
X584857Y46577D01*
X585190Y47707D01*
X585267Y47993D01*
X585543Y49137D01*
X585604Y49423D01*
X585824Y50581D01*
X585871Y50871D01*
X586032Y52038D01*
X586064Y52330D01*
X586167Y53503D01*
X586186Y53798D01*
X586230Y54976D01*
X586234Y55271D01*
X586220Y56448D01*
X586208Y56739D01*
X586135Y57916D01*
X586109Y58211D01*
X585977Y59382D01*
X585937Y59672D01*
X585748Y60835D01*
X585693Y61127D01*
X585444Y62278D01*
X585376Y62557D01*
X585073Y63695D01*
X584987Y63987D01*
X584624Y65108D01*
X584529Y65378D01*
X584113Y66480D01*
X584002Y66757D01*
X583531Y67836D01*
X583406Y68101D01*
X582883Y69155D01*
X582743Y69421D01*
X582165Y70448D01*
X582019Y70697D01*
X581392Y71693D01*
X581228Y71941D01*
X580551Y72907D01*
X580378Y73143D01*
X579655Y74072D01*
X579470Y74299D01*
X578702Y75192D01*
X578501Y75412D01*
X577690Y76266D01*
X577587Y76370D01*
X549749Y104207D01*
X549646Y104310D01*
X548792Y105122D01*
X548571Y105322D01*
X547678Y106089D01*
X547452Y106275D01*
X546522Y106997D01*
X546287Y107172D01*
X545321Y107847D01*
X545073Y108013D01*
X544076Y108638D01*
X543828Y108786D01*
X542802Y109362D01*
X542536Y109502D01*
X541481Y110027D01*
X541216Y110151D01*
X540137Y110621D01*
X539861Y110733D01*
X538759Y111149D01*
X538487Y111244D01*
X537366Y111606D01*
X537075Y111693D01*
X535937Y111997D01*
X535658Y112064D01*
X534507Y112312D01*
X534214Y112368D01*
X533051Y112557D01*
X532762Y112597D01*
X531592Y112730D01*
X531296Y112755D01*
X530119Y112829D01*
X529828Y112840D01*
X528652Y112854D01*
X528356Y112851D01*
X527178Y112806D01*
X526884Y112788D01*
X525709Y112685D01*
X525419Y112653D01*
X524251Y112492D01*
X523960Y112444D01*
X522803Y112224D01*
X522518Y112163D01*
X521373Y111887D01*
X521087Y111810D01*
X519957Y111478D01*
X519674Y111386D01*
X518563Y110997D01*
X518289Y110893D01*
X517199Y110450D01*
X516929Y110333D01*
X515860Y109834D01*
X515597Y109704D01*
X514556Y109153D01*
X514299Y109009D01*
X513285Y108407D01*
X513036Y108251D01*
X512056Y107599D01*
X511817Y107433D01*
X510869Y106734D01*
X510631Y106548D01*
X509720Y105803D01*
X509502Y105614D01*
X508629Y104825D01*
X508413Y104619D01*
X507579Y103786D01*
X507375Y103571D01*
X506584Y102696D01*
X506396Y102478D01*
X505650Y101567D01*
X505465Y101331D01*
X504767Y100383D01*
X504600Y100144D01*
X503949Y99162D01*
X503792Y98913D01*
X503190Y97901D01*
X503045Y97642D01*
X502496Y96601D01*
X502364Y96338D01*
X501867Y95270D01*
X501750Y95000D01*
X501305Y93910D01*
X501202Y93636D01*
X500812Y92525D01*
X500721Y92242D01*
X500388Y91111D01*
X500311Y90826D01*
X500036Y89681D01*
X499974Y89396D01*
X499755Y88238D01*
X499708Y87948D01*
X499547Y86781D01*
X499515Y86489D01*
X499412Y85315D01*
X499393Y85021D01*
X499349Y83843D01*
X499345Y83548D01*
X499359Y82370D01*
X499371Y82080D01*
X499444Y80904D01*
X499470Y80608D01*
X499601Y79438D01*
X499642Y79148D01*
X499831Y77984D01*
X499886Y77692D01*
X500135Y76541D01*
X500203Y76262D01*
X500506Y75124D01*
X500592Y74832D01*
X500954Y73712D01*
X501049Y73440D01*
X501466Y72339D01*
X501577Y72062D01*
X502048Y70983D01*
X502173Y70718D01*
X502696Y69663D01*
X502836Y69398D01*
X503414Y68371D01*
X503560Y68123D01*
X504187Y67125D01*
X504351Y66878D01*
X505028Y65913D01*
X505201Y65677D01*
X505924Y64746D01*
X506109Y64520D01*
X506877Y63627D01*
X507078Y63407D01*
X507889Y62554D01*
X507991Y62449D01*
X535829Y34612D01*
X535933Y34510D01*
X536786Y33697D01*
X537007Y33497D01*
X537901Y32730D01*
X538126Y32545D01*
X539057Y31822D01*
X539292Y31648D01*
X540258Y30972D01*
X540505Y30806D01*
X541503Y30180D01*
X541750Y30034D01*
X542777Y29456D01*
X543043Y29317D01*
X544098Y28793D01*
X544363Y28668D01*
X545442Y28197D01*
X545718Y28085D01*
X546820Y27669D01*
X547092Y27575D01*
X548212Y27213D01*
X548504Y27127D01*
X549642Y26822D01*
X549921Y26754D01*
X551072Y26507D01*
X551364Y26451D01*
X552528Y26262D01*
X552817Y26221D01*
X553987Y26089D01*
X554283Y26064D01*
X555460Y25990D01*
X555751Y25979D01*
G37*
G36*
X594642Y630127D02*
G01*
X595932Y630187D01*
X597217Y630327D01*
X598490Y630547D01*
X599746Y630846D01*
X600982Y631223D01*
X602192Y631675D01*
X603371Y632201D01*
X603798Y632424D01*
X594864Y640468D01*
X586818Y631532D01*
X587047Y631439D01*
X588270Y631024D01*
X589516Y630688D01*
X590783Y630428D01*
X592061Y630248D01*
X593350Y630147D01*
G37*
G36*
X-5461Y68033D02*
G01*
X-4257Y68033D01*
X-3058Y68114D01*
X-1864Y68274D01*
X-686Y68514D01*
X474Y68831D01*
X1611Y69227D01*
X2718Y69697D01*
X3792Y70239D01*
X4828Y70853D01*
X5820Y71534D01*
X6764Y72280D01*
X7658Y73087D01*
X8494Y73951D01*
X9270Y74870D01*
X9984Y75839D01*
X10631Y76853D01*
X11211Y77908D01*
X11716Y79000D01*
X12150Y80124D01*
X12506Y81273D01*
X12785Y82442D01*
X12984Y83629D01*
X13105Y84827D01*
X13145Y86030D01*
X13105Y87233D01*
X12984Y88429D01*
X12785Y89616D01*
X12506Y90787D01*
X12150Y91936D01*
X11716Y93058D01*
X11211Y94151D01*
X10631Y95205D01*
X9984Y96219D01*
X9270Y97188D01*
X8494Y98108D01*
X7658Y98973D01*
X6764Y99780D01*
X5820Y100525D01*
X4828Y101206D01*
X3792Y101819D01*
X2718Y102363D01*
X1611Y102833D01*
X474Y103227D01*
X-686Y103544D01*
X-1864Y103784D01*
X-3058Y103946D01*
X-4257Y104025D01*
X-5461Y104025D01*
X-6661Y103946D01*
X-7854Y103784D01*
X-9034Y103544D01*
X-10195Y103227D01*
X-11331Y102833D01*
X-12439Y102363D01*
X-13513Y101819D01*
X-14548Y101206D01*
X-15541Y100525D01*
X-16485Y99780D01*
X-17377Y98973D01*
X-18213Y98108D01*
X-18991Y97188D01*
X-19705Y96219D01*
X-20352Y95205D01*
X-20931Y94151D01*
X-21437Y93058D01*
X-21869Y91936D01*
X-22226Y90787D01*
X-22505Y89616D01*
X-22705Y88429D01*
X-22826Y87233D01*
X-22866Y86030D01*
X-22826Y84827D01*
X-22705Y83629D01*
X-22505Y82442D01*
X-22226Y81273D01*
X-21869Y80124D01*
X-21437Y79000D01*
X-20931Y77908D01*
X-20352Y76853D01*
X-19705Y75839D01*
X-18991Y74870D01*
X-18213Y73951D01*
X-17377Y73087D01*
X-16485Y72280D01*
X-15541Y71534D01*
X-14548Y70853D01*
X-13513Y70239D01*
X-12439Y69697D01*
X-11331Y69227D01*
X-10195Y68831D01*
X-9034Y68514D01*
X-7854Y68274D01*
X-6661Y68114D01*
G37*
G36*
X-77902Y90704D02*
G01*
X-76697Y90704D01*
X-75497Y90783D01*
X-74305Y90945D01*
X-73126Y91185D01*
X-71965Y91502D01*
X-70829Y91896D01*
X-69720Y92366D01*
X-68647Y92910D01*
X-67610Y93523D01*
X-66619Y94203D01*
X-65675Y94949D01*
X-64782Y95756D01*
X-63946Y96621D01*
X-63168Y97541D01*
X-62454Y98510D01*
X-61808Y99524D01*
X-61229Y100578D01*
X-60722Y101671D01*
X-60290Y102793D01*
X-59934Y103942D01*
X-59655Y105113D01*
X-59454Y106300D01*
X-59333Y107496D01*
X-59293Y108699D01*
X-59333Y109902D01*
X-59454Y111100D01*
X-59655Y112287D01*
X-59934Y113456D01*
X-60290Y114605D01*
X-60722Y115729D01*
X-61229Y116820D01*
X-61808Y117876D01*
X-62454Y118890D01*
X-63168Y119859D01*
X-63946Y120778D01*
X-64782Y121642D01*
X-65675Y122449D01*
X-66619Y123195D01*
X-67610Y123876D01*
X-68647Y124490D01*
X-69720Y125032D01*
X-70829Y125502D01*
X-71965Y125898D01*
X-73126Y126215D01*
X-74305Y126455D01*
X-75497Y126615D01*
X-76697Y126696D01*
X-77902Y126696D01*
X-79102Y126615D01*
X-80295Y126455D01*
X-81473Y126215D01*
X-82635Y125898D01*
X-83770Y125502D01*
X-84879Y125032D01*
X-85952Y124490D01*
X-86989Y123876D01*
X-87980Y123195D01*
X-88924Y122449D01*
X-89818Y121642D01*
X-90654Y120778D01*
X-91431Y119859D01*
X-92145Y118890D01*
X-92791Y117876D01*
X-93370Y116820D01*
X-93877Y115729D01*
X-94310Y114605D01*
X-94665Y113456D01*
X-94944Y112287D01*
X-95145Y111100D01*
X-95266Y109902D01*
X-95306Y108699D01*
X-95266Y107496D01*
X-95145Y106300D01*
X-94944Y105113D01*
X-94665Y103942D01*
X-94310Y102793D01*
X-93877Y101671D01*
X-93370Y100578D01*
X-92791Y99524D01*
X-92145Y98510D01*
X-91431Y97541D01*
X-90654Y96621D01*
X-89818Y95756D01*
X-88924Y94949D01*
X-87980Y94203D01*
X-86989Y93523D01*
X-85952Y92910D01*
X-84879Y92366D01*
X-83770Y91896D01*
X-82635Y91502D01*
X-81473Y91185D01*
X-80295Y90945D01*
X-79102Y90783D01*
G37*
G36*
X628231Y619234D02*
G01*
X638644Y625246D01*
X637894Y625839D01*
X636832Y626574D01*
X635727Y627244D01*
X634583Y627842D01*
X633404Y628369D01*
X632193Y628822D01*
X630958Y629198D01*
X629700Y629497D01*
X628428Y629717D01*
X627142Y629857D01*
X625852Y629917D01*
X624561Y629897D01*
X623272Y629796D01*
X622218Y629648D01*
G37*
G36*
X35597Y98004D02*
G01*
X36801Y98004D01*
X38001Y98083D01*
X39194Y98245D01*
X40374Y98485D01*
X41535Y98802D01*
X42671Y99196D01*
X43778Y99666D01*
X44853Y100210D01*
X45888Y100823D01*
X46881Y101503D01*
X47825Y102249D01*
X48717Y103056D01*
X49553Y103921D01*
X50330Y104841D01*
X51044Y105810D01*
X51692Y106824D01*
X52271Y107878D01*
X52776Y108971D01*
X53209Y110093D01*
X53566Y111242D01*
X53845Y112413D01*
X54044Y113600D01*
X54165Y114796D01*
X54205Y115999D01*
X54165Y117202D01*
X54044Y118400D01*
X53845Y119587D01*
X53566Y120756D01*
X53209Y121905D01*
X52776Y123029D01*
X52271Y124121D01*
X51692Y125176D01*
X51044Y126190D01*
X50330Y127159D01*
X49553Y128078D01*
X48717Y128942D01*
X47825Y129749D01*
X46881Y130495D01*
X45888Y131176D01*
X44853Y131790D01*
X43778Y132332D01*
X42671Y132802D01*
X41535Y133197D01*
X40374Y133514D01*
X39194Y133755D01*
X38001Y133915D01*
X36801Y133996D01*
X35597Y133996D01*
X34398Y133915D01*
X33204Y133755D01*
X32025Y133514D01*
X30865Y133197D01*
X29728Y132802D01*
X28621Y132332D01*
X27546Y131790D01*
X26511Y131176D01*
X25518Y130495D01*
X24574Y129749D01*
X23681Y128942D01*
X22845Y128078D01*
X22069Y127159D01*
X21355Y126190D01*
X20707Y125176D01*
X20128Y124121D01*
X19623Y123029D01*
X19189Y121905D01*
X18833Y120756D01*
X18554Y119587D01*
X18355Y118400D01*
X18234Y117202D01*
X18194Y115999D01*
X18234Y114796D01*
X18355Y113600D01*
X18554Y112413D01*
X18833Y111242D01*
X19189Y110093D01*
X19623Y108971D01*
X20128Y107878D01*
X20707Y106824D01*
X21355Y105810D01*
X22069Y104841D01*
X22845Y103921D01*
X23681Y103056D01*
X24574Y102249D01*
X25518Y101503D01*
X26511Y100823D01*
X27546Y100210D01*
X28621Y99666D01*
X29728Y99196D01*
X30865Y98802D01*
X32025Y98485D01*
X33204Y98245D01*
X34398Y98083D01*
G37*
G36*
X194398Y98503D02*
G01*
X195601Y98503D01*
X196801Y98584D01*
X197995Y98744D01*
X199174Y98984D01*
X200334Y99301D01*
X201471Y99697D01*
X202578Y100167D01*
X203652Y100709D01*
X204688Y101322D01*
X205680Y102004D01*
X206624Y102750D01*
X207518Y103557D01*
X208353Y104421D01*
X209130Y105340D01*
X209844Y106309D01*
X210491Y107323D01*
X211071Y108378D01*
X211576Y109470D01*
X212010Y110594D01*
X212366Y111743D01*
X212645Y112912D01*
X212844Y114099D01*
X212965Y115297D01*
X213005Y116500D01*
X212965Y117703D01*
X212844Y118899D01*
X212645Y120086D01*
X212366Y121257D01*
X212010Y122406D01*
X211576Y123528D01*
X211071Y124621D01*
X210491Y125675D01*
X209844Y126689D01*
X209130Y127658D01*
X208353Y128577D01*
X207518Y129443D01*
X206624Y130250D01*
X205680Y130996D01*
X204688Y131676D01*
X203652Y132289D01*
X202578Y132833D01*
X201471Y133303D01*
X200334Y133697D01*
X199174Y134014D01*
X197995Y134254D01*
X196801Y134416D01*
X195601Y134495D01*
X194398Y134495D01*
X193198Y134416D01*
X192004Y134254D01*
X190825Y134014D01*
X189664Y133697D01*
X188528Y133303D01*
X187420Y132833D01*
X186346Y132289D01*
X185311Y131676D01*
X184318Y130996D01*
X183374Y130250D01*
X182481Y129443D01*
X181646Y128577D01*
X180869Y127658D01*
X180154Y126689D01*
X179695Y125969D01*
X179670Y126021D01*
X179092Y127076D01*
X178445Y128090D01*
X177731Y129059D01*
X176953Y129978D01*
X176117Y130842D01*
X175225Y131649D01*
X174281Y132395D01*
X173288Y133076D01*
X172253Y133690D01*
X171179Y134232D01*
X170070Y134702D01*
X168935Y135097D01*
X167773Y135414D01*
X166594Y135655D01*
X165401Y135815D01*
X164201Y135895D01*
X162997Y135895D01*
X161797Y135815D01*
X160604Y135655D01*
X159426Y135414D01*
X158265Y135097D01*
X157128Y134702D01*
X156021Y134232D01*
X154947Y133690D01*
X153910Y133076D01*
X152919Y132395D01*
X151975Y131649D01*
X151081Y130842D01*
X150245Y129978D01*
X149468Y129059D01*
X148755Y128090D01*
X148108Y127076D01*
X147528Y126021D01*
X147022Y124929D01*
X146589Y123805D01*
X146449Y123353D01*
X146310Y123805D01*
X145877Y124929D01*
X145370Y126021D01*
X144791Y127076D01*
X144144Y128090D01*
X143431Y129059D01*
X142654Y129978D01*
X141818Y130842D01*
X140924Y131649D01*
X139980Y132395D01*
X138989Y133076D01*
X137952Y133690D01*
X136878Y134232D01*
X135770Y134702D01*
X134634Y135097D01*
X133473Y135414D01*
X132294Y135655D01*
X131102Y135815D01*
X129902Y135895D01*
X128697Y135895D01*
X127497Y135815D01*
X126305Y135655D01*
X125126Y135414D01*
X123964Y135097D01*
X122829Y134702D01*
X121720Y134232D01*
X120646Y133690D01*
X119610Y133076D01*
X118618Y132395D01*
X117674Y131649D01*
X116782Y130842D01*
X115945Y129978D01*
X115168Y129059D01*
X114454Y128090D01*
X113807Y127076D01*
X113229Y126021D01*
X112722Y124929D01*
X112290Y123805D01*
X111934Y122656D01*
X111655Y121487D01*
X111454Y120300D01*
X111333Y119103D01*
X111293Y117899D01*
X111333Y116696D01*
X111454Y115500D01*
X111655Y114313D01*
X111934Y113143D01*
X112290Y111993D01*
X112722Y110871D01*
X113229Y109778D01*
X113807Y108724D01*
X114454Y107710D01*
X115168Y106741D01*
X115945Y105821D01*
X116782Y104956D01*
X117674Y104149D01*
X118618Y103404D01*
X119610Y102723D01*
X120646Y102109D01*
X121720Y101567D01*
X122829Y101096D01*
X123964Y100702D01*
X125126Y100385D01*
X126305Y100144D01*
X127497Y99983D01*
X128697Y99904D01*
X129902Y99904D01*
X131102Y99983D01*
X132294Y100144D01*
X133473Y100385D01*
X134634Y100702D01*
X135770Y101096D01*
X136878Y101567D01*
X137952Y102109D01*
X138989Y102723D01*
X139980Y103404D01*
X140924Y104149D01*
X141818Y104956D01*
X142654Y105821D01*
X143431Y106741D01*
X144144Y107710D01*
X144791Y108724D01*
X145370Y109778D01*
X145877Y110871D01*
X146310Y111993D01*
X146449Y112445D01*
X146589Y111993D01*
X147022Y110871D01*
X147528Y109778D01*
X148108Y108724D01*
X148755Y107710D01*
X149468Y106741D01*
X150245Y105821D01*
X151081Y104956D01*
X151975Y104149D01*
X152919Y103404D01*
X153910Y102723D01*
X154947Y102109D01*
X156021Y101567D01*
X157128Y101096D01*
X158265Y100702D01*
X159426Y100385D01*
X160604Y100144D01*
X161797Y99983D01*
X162997Y99904D01*
X164201Y99904D01*
X165401Y99983D01*
X166594Y100144D01*
X167773Y100385D01*
X168935Y100702D01*
X170070Y101096D01*
X171179Y101567D01*
X172253Y102109D01*
X173288Y102723D01*
X174281Y103404D01*
X175225Y104149D01*
X176117Y104956D01*
X176953Y105821D01*
X177731Y106741D01*
X178445Y107710D01*
X178904Y108431D01*
X178928Y108378D01*
X179507Y107323D01*
X180154Y106309D01*
X180869Y105340D01*
X181646Y104421D01*
X182481Y103557D01*
X183374Y102750D01*
X184318Y102004D01*
X185311Y101322D01*
X186346Y100709D01*
X187420Y100167D01*
X188528Y99697D01*
X189664Y99301D01*
X190825Y98984D01*
X192004Y98744D01*
X193198Y98584D01*
G37*
G36*
X605028Y605837D02*
G01*
X615446Y611851D01*
X609435Y622262D01*
X609035Y621772D01*
X608283Y620722D01*
X607596Y619627D01*
X606980Y618492D01*
X606435Y617321D01*
X605963Y616118D01*
X605568Y614888D01*
X605249Y613636D01*
X605010Y612366D01*
X604849Y611084D01*
X604769Y609796D01*
X604769Y608503D01*
X604849Y607215D01*
X605010Y605933D01*
G37*
G36*
X446397Y598604D02*
G01*
X447601Y598604D01*
X448801Y598683D01*
X449994Y598845D01*
X451174Y599085D01*
X452335Y599402D01*
X453470Y599796D01*
X454579Y600266D01*
X455653Y600810D01*
X456688Y601422D01*
X457681Y602103D01*
X458625Y602849D01*
X459517Y603656D01*
X460353Y604522D01*
X461130Y605441D01*
X461845Y606410D01*
X462492Y607424D01*
X463070Y608478D01*
X463576Y609571D01*
X464009Y610693D01*
X464366Y611842D01*
X464645Y613013D01*
X464844Y614200D01*
X464965Y615396D01*
X465006Y616599D01*
X464965Y617802D01*
X464844Y619000D01*
X464645Y620187D01*
X464366Y621356D01*
X464009Y622505D01*
X463576Y623629D01*
X463070Y624720D01*
X462492Y625776D01*
X461845Y626790D01*
X461130Y627759D01*
X460353Y628677D01*
X459517Y629542D01*
X458625Y630349D01*
X457681Y631095D01*
X456688Y631777D01*
X455653Y632390D01*
X454579Y632932D01*
X453470Y633402D01*
X452335Y633798D01*
X451174Y634115D01*
X449994Y634355D01*
X448801Y634515D01*
X447601Y634596D01*
X446397Y634596D01*
X445198Y634515D01*
X444004Y634355D01*
X442825Y634115D01*
X441665Y633798D01*
X440528Y633402D01*
X439421Y632932D01*
X438347Y632390D01*
X437310Y631777D01*
X436319Y631095D01*
X435374Y630349D01*
X434481Y629542D01*
X433645Y628677D01*
X432869Y627759D01*
X432155Y626790D01*
X431508Y625776D01*
X430928Y624720D01*
X430423Y623629D01*
X429989Y622505D01*
X429633Y621356D01*
X429354Y620187D01*
X429155Y619000D01*
X429034Y617802D01*
X428994Y616599D01*
X429034Y615396D01*
X429155Y614200D01*
X429354Y613013D01*
X429633Y611842D01*
X429989Y610693D01*
X430423Y609571D01*
X430928Y608478D01*
X431508Y607424D01*
X432155Y606410D01*
X432869Y605441D01*
X433645Y604522D01*
X434481Y603656D01*
X435374Y602849D01*
X436319Y602103D01*
X437310Y601422D01*
X438347Y600810D01*
X439421Y600266D01*
X440528Y599796D01*
X441665Y599402D01*
X442825Y599085D01*
X444004Y598845D01*
X445198Y598683D01*
G37*
G36*
X732017Y100634D02*
G01*
X733221Y100634D01*
X734421Y100713D01*
X735614Y100875D01*
X736793Y101114D01*
X737955Y101431D01*
X739090Y101826D01*
X740199Y102296D01*
X741273Y102840D01*
X742308Y103452D01*
X743301Y104133D01*
X744245Y104879D01*
X745137Y105686D01*
X745973Y106552D01*
X746750Y107471D01*
X747465Y108440D01*
X748112Y109454D01*
X748690Y110509D01*
X749196Y111601D01*
X749629Y112723D01*
X749985Y113872D01*
X750264Y115043D01*
X750464Y116230D01*
X750586Y117426D01*
X750626Y118629D01*
X750586Y119832D01*
X750464Y121030D01*
X750264Y122217D01*
X749985Y123386D01*
X749629Y124535D01*
X749196Y125659D01*
X748690Y126750D01*
X748112Y127806D01*
X747465Y128820D01*
X746750Y129789D01*
X745973Y130707D01*
X745137Y131572D01*
X744245Y132379D01*
X743301Y133125D01*
X742308Y133807D01*
X741273Y134420D01*
X740199Y134962D01*
X739090Y135432D01*
X737955Y135828D01*
X736793Y136145D01*
X735614Y136385D01*
X734421Y136545D01*
X733221Y136626D01*
X732017Y136626D01*
X730817Y136545D01*
X729624Y136385D01*
X728445Y136145D01*
X727412Y135862D01*
X727991Y136873D01*
X728805Y138460D01*
X729548Y140081D01*
X730217Y141736D01*
X730811Y143418D01*
X731328Y145126D01*
X731766Y146855D01*
X732127Y148602D01*
X732407Y150363D01*
X732609Y152136D01*
X732730Y153915D01*
X732771Y155700D01*
X732730Y157483D01*
X732609Y159263D01*
X732407Y161035D01*
X732127Y162797D01*
X731766Y164544D01*
X731328Y166273D01*
X730811Y167982D01*
X730217Y169663D01*
X729548Y171318D01*
X728805Y172939D01*
X727991Y174526D01*
X727105Y176075D01*
X726148Y177581D01*
X725127Y179043D01*
X724039Y180459D01*
X722889Y181822D01*
X721678Y183132D01*
X720410Y184387D01*
X719085Y185583D01*
X717709Y186718D01*
X716283Y187788D01*
X714809Y188795D01*
X713292Y189733D01*
X711733Y190601D01*
X710137Y191399D01*
X708508Y192123D01*
X706845Y192773D01*
X705156Y193346D01*
X703443Y193845D01*
X701710Y194263D01*
X699958Y194605D01*
X698194Y194866D01*
X696418Y195046D01*
X694637Y195147D01*
X692853Y195167D01*
X691071Y195108D01*
X689292Y194967D01*
X687521Y194744D01*
X685763Y194443D01*
X684021Y194063D01*
X682296Y193605D01*
X680595Y193069D01*
X678918Y192458D01*
X677272Y191770D01*
X675659Y191008D01*
X674081Y190176D01*
X672543Y189272D01*
X671048Y188299D01*
X669597Y187260D01*
X668195Y186158D01*
X666845Y184992D01*
X665547Y183766D01*
X664308Y182483D01*
X663127Y181147D01*
X662008Y179758D01*
X660952Y178319D01*
X659964Y176833D01*
X659043Y175306D01*
X658191Y173737D01*
X657412Y172134D01*
X656706Y170495D01*
X656076Y168825D01*
X655520Y167130D01*
X655042Y165412D01*
X654642Y163674D01*
X654322Y161918D01*
X654080Y160151D01*
X653919Y158373D01*
X653840Y156592D01*
X653840Y154807D01*
X653919Y153025D01*
X654080Y151248D01*
X654322Y149481D01*
X654642Y147725D01*
X655042Y145987D01*
X655520Y144268D01*
X656076Y142573D01*
X656706Y140904D01*
X657412Y139265D01*
X658191Y137662D01*
X659043Y136093D01*
X659964Y134565D01*
X660952Y133081D01*
X662008Y131642D01*
X663127Y130252D01*
X664308Y128915D01*
X665547Y127633D01*
X666845Y126408D01*
X668195Y125241D01*
X669597Y124139D01*
X671048Y123099D01*
X672543Y122127D01*
X674081Y121224D01*
X675659Y120390D01*
X677272Y119630D01*
X678918Y118942D01*
X680595Y118330D01*
X682296Y117793D01*
X684021Y117336D01*
X685763Y116956D01*
X687521Y116655D01*
X689292Y116433D01*
X691071Y116291D01*
X692853Y116231D01*
X694637Y116251D01*
X696418Y116352D01*
X698194Y116534D01*
X699958Y116795D01*
X701710Y117136D01*
X703443Y117554D01*
X705156Y118052D01*
X706845Y118627D01*
X708508Y119277D01*
X710137Y120000D01*
X711733Y120799D01*
X713292Y121666D01*
X714809Y122604D01*
X715118Y122815D01*
X714974Y122217D01*
X714774Y121030D01*
X714654Y119832D01*
X714614Y118629D01*
X714654Y117426D01*
X714774Y116230D01*
X714974Y115043D01*
X715253Y113872D01*
X715609Y112723D01*
X716042Y111601D01*
X716548Y110509D01*
X717128Y109454D01*
X717775Y108440D01*
X718488Y107471D01*
X719265Y106552D01*
X720101Y105686D01*
X720995Y104879D01*
X721939Y104133D01*
X722930Y103452D01*
X723967Y102840D01*
X725041Y102296D01*
X726148Y101826D01*
X727285Y101431D01*
X728445Y101114D01*
X729624Y100875D01*
X730817Y100713D01*
G37*
G36*
X-133702Y111804D02*
G01*
X-132498Y111804D01*
X-131297Y111884D01*
X-130105Y112044D01*
X-128926Y112285D01*
X-127764Y112602D01*
X-126629Y112997D01*
X-125520Y113467D01*
X-124447Y114009D01*
X-123411Y114623D01*
X-122418Y115304D01*
X-121475Y116050D01*
X-120582Y116856D01*
X-119746Y117721D01*
X-118968Y118640D01*
X-118254Y119609D01*
X-117608Y120623D01*
X-117029Y121678D01*
X-116522Y122770D01*
X-116090Y123894D01*
X-115734Y125043D01*
X-115455Y126212D01*
X-115254Y127399D01*
X-115133Y128596D01*
X-115093Y129800D01*
X-115133Y131003D01*
X-115254Y132199D01*
X-115455Y133386D01*
X-115734Y134556D01*
X-116090Y135706D01*
X-116522Y136828D01*
X-117029Y137921D01*
X-117608Y138975D01*
X-118254Y139989D01*
X-118968Y140958D01*
X-119746Y141878D01*
X-120582Y142743D01*
X-121475Y143550D01*
X-122418Y144295D01*
X-123411Y144976D01*
X-124447Y145590D01*
X-125520Y146132D01*
X-126629Y146603D01*
X-127764Y146997D01*
X-128926Y147314D01*
X-130105Y147554D01*
X-131297Y147716D01*
X-132498Y147795D01*
X-133702Y147795D01*
X-134902Y147716D01*
X-136095Y147554D01*
X-137273Y147314D01*
X-138434Y146997D01*
X-139571Y146603D01*
X-140679Y146132D01*
X-141752Y145590D01*
X-142789Y144976D01*
X-143780Y144295D01*
X-144724Y143550D01*
X-145618Y142743D01*
X-146454Y141878D01*
X-147231Y140958D01*
X-147944Y139989D01*
X-148591Y138975D01*
X-149170Y137921D01*
X-149677Y136828D01*
X-150110Y135706D01*
X-150465Y134556D01*
X-150744Y133386D01*
X-150945Y132199D01*
X-151066Y131003D01*
X-151105Y129800D01*
X-151066Y128596D01*
X-150945Y127399D01*
X-150744Y126212D01*
X-150465Y125043D01*
X-150110Y123894D01*
X-149677Y122770D01*
X-149170Y121678D01*
X-148591Y120623D01*
X-147944Y119609D01*
X-147231Y118640D01*
X-146454Y117721D01*
X-145618Y116856D01*
X-144724Y116050D01*
X-143780Y115304D01*
X-142789Y114623D01*
X-141752Y114009D01*
X-140679Y113467D01*
X-139571Y112997D01*
X-138434Y112602D01*
X-137273Y112285D01*
X-136095Y112044D01*
X-134902Y111884D01*
G37*
G36*
X641629Y596028D02*
G01*
X642408Y597046D01*
X643128Y598119D01*
X643779Y599234D01*
X644362Y600387D01*
X644870Y601576D01*
X645303Y602793D01*
X645659Y604034D01*
X645938Y605295D01*
X646139Y606572D01*
X646260Y607858D01*
X646300Y609149D01*
X646260Y610441D01*
X646139Y611727D01*
X646024Y612458D01*
X635613Y606448D01*
G37*
G36*
X625852Y588382D02*
G01*
X627142Y588442D01*
X628428Y588582D01*
X628838Y588654D01*
X622827Y599065D01*
X612415Y593054D01*
X612651Y592853D01*
X613689Y592085D01*
X614773Y591381D01*
X615900Y590747D01*
X617061Y590183D01*
X618257Y589695D01*
X619480Y589279D01*
X620727Y588942D01*
X621993Y588683D01*
X623272Y588503D01*
X624561Y588402D01*
G37*
G36*
X298Y547004D02*
G01*
X1502Y547004D01*
X2701Y547083D01*
X3895Y547244D01*
X5073Y547485D01*
X6234Y547802D01*
X7371Y548197D01*
X8478Y548667D01*
X9552Y549209D01*
X10588Y549823D01*
X11580Y550504D01*
X12524Y551250D01*
X13418Y552056D01*
X14254Y552921D01*
X15030Y553840D01*
X15744Y554809D01*
X16391Y555823D01*
X16971Y556878D01*
X17476Y557970D01*
X17910Y559094D01*
X18266Y560243D01*
X18544Y561412D01*
X18744Y562599D01*
X18865Y563796D01*
X18905Y565000D01*
X18865Y566203D01*
X18744Y567399D01*
X18544Y568586D01*
X18266Y569756D01*
X17910Y570906D01*
X17476Y572028D01*
X16971Y573121D01*
X16391Y574175D01*
X15744Y575189D01*
X15030Y576158D01*
X14254Y577078D01*
X13418Y577943D01*
X12524Y578750D01*
X11580Y579495D01*
X10588Y580176D01*
X9552Y580790D01*
X8478Y581332D01*
X7371Y581802D01*
X6234Y582197D01*
X5073Y582514D01*
X3895Y582755D01*
X2701Y582916D01*
X1502Y582995D01*
X298Y582995D01*
X-902Y582916D01*
X-2094Y582755D01*
X-3274Y582514D01*
X-4435Y582197D01*
X-5570Y581802D01*
X-6679Y581332D01*
X-7753Y580790D01*
X-8788Y580176D01*
X-9781Y579495D01*
X-10725Y578750D01*
X-11617Y577943D01*
X-12453Y577078D01*
X-13231Y576158D01*
X-13945Y575189D01*
X-14592Y574175D01*
X-15171Y573121D01*
X-15677Y572028D01*
X-16109Y570906D01*
X-16466Y569756D01*
X-16745Y568586D01*
X-16945Y567399D01*
X-17066Y566203D01*
X-17106Y565000D01*
X-17066Y563796D01*
X-16945Y562599D01*
X-16745Y561412D01*
X-16466Y560243D01*
X-16109Y559094D01*
X-15677Y557970D01*
X-15171Y556878D01*
X-14592Y555823D01*
X-13945Y554809D01*
X-13231Y553840D01*
X-12453Y552921D01*
X-11617Y552056D01*
X-10725Y551250D01*
X-9781Y550504D01*
X-8788Y549823D01*
X-7753Y549209D01*
X-6679Y548667D01*
X-5570Y548197D01*
X-4435Y547802D01*
X-3274Y547485D01*
X-2094Y547244D01*
X-902Y547083D01*
G37*
G36*
X279197Y512804D02*
G01*
X280401Y512804D01*
X281602Y512883D01*
X282794Y513045D01*
X283973Y513285D01*
X285135Y513602D01*
X286270Y513996D01*
X287379Y514466D01*
X288452Y515009D01*
X289489Y515623D01*
X290480Y516304D01*
X291424Y517049D01*
X292317Y517856D01*
X293153Y518721D01*
X293931Y519641D01*
X294645Y520610D01*
X295291Y521624D01*
X295870Y522678D01*
X296377Y523771D01*
X296809Y524893D01*
X297165Y526042D01*
X297444Y527213D01*
X297645Y528400D01*
X297766Y529596D01*
X297806Y530799D01*
X297766Y532002D01*
X297645Y533200D01*
X297444Y534387D01*
X297165Y535556D01*
X296809Y536705D01*
X296377Y537829D01*
X295870Y538921D01*
X295291Y539976D01*
X294645Y540990D01*
X293931Y541959D01*
X293153Y542878D01*
X292317Y543742D01*
X291424Y544549D01*
X290480Y545295D01*
X289489Y545976D01*
X288452Y546590D01*
X287379Y547132D01*
X286270Y547602D01*
X285135Y547997D01*
X283973Y548314D01*
X282794Y548555D01*
X281602Y548715D01*
X280401Y548795D01*
X279197Y548795D01*
X277997Y548715D01*
X276804Y548555D01*
X275626Y548314D01*
X274465Y547997D01*
X273329Y547602D01*
X272220Y547132D01*
X271147Y546590D01*
X270110Y545976D01*
X269119Y545295D01*
X268175Y544549D01*
X267281Y543742D01*
X266445Y542878D01*
X265668Y541959D01*
X264954Y540990D01*
X264308Y539976D01*
X263729Y538921D01*
X263222Y537829D01*
X262789Y536705D01*
X262434Y535556D01*
X262155Y534387D01*
X261954Y533200D01*
X261833Y532002D01*
X261793Y530799D01*
X261833Y529596D01*
X261954Y528400D01*
X262155Y527213D01*
X262434Y526042D01*
X262789Y524893D01*
X263222Y523771D01*
X263729Y522678D01*
X264308Y521624D01*
X264954Y520610D01*
X265668Y519641D01*
X266445Y518721D01*
X267281Y517856D01*
X268175Y517049D01*
X269119Y516304D01*
X270110Y515623D01*
X271147Y515009D01*
X272220Y514466D01*
X273329Y513996D01*
X274465Y513602D01*
X275626Y513285D01*
X276804Y513045D01*
X277997Y512883D01*
G37*
G36*
X470097Y139504D02*
G01*
X471301Y139504D01*
X472501Y139583D01*
X473694Y139744D01*
X474873Y139985D01*
X476035Y140302D01*
X477170Y140697D01*
X478279Y141167D01*
X479353Y141709D01*
X480388Y142323D01*
X481381Y143004D01*
X482325Y143750D01*
X483217Y144556D01*
X484053Y145421D01*
X484830Y146340D01*
X485545Y147309D01*
X486192Y148323D01*
X486770Y149378D01*
X487276Y150470D01*
X487709Y151594D01*
X488065Y152743D01*
X488344Y153912D01*
X488544Y155099D01*
X488666Y156296D01*
X488706Y157500D01*
X488666Y158703D01*
X488544Y159899D01*
X488344Y161086D01*
X488065Y162256D01*
X487709Y163405D01*
X487276Y164528D01*
X486770Y165621D01*
X486192Y166675D01*
X485545Y167689D01*
X484993Y168438D01*
X485497Y168404D01*
X486701Y168404D01*
X487901Y168483D01*
X489094Y168645D01*
X490273Y168885D01*
X491435Y169202D01*
X492570Y169596D01*
X493679Y170066D01*
X494753Y170610D01*
X495788Y171222D01*
X496781Y171903D01*
X497725Y172649D01*
X498617Y173456D01*
X499453Y174322D01*
X500231Y175241D01*
X500945Y176210D01*
X501592Y177224D01*
X502170Y178278D01*
X502677Y179371D01*
X503109Y180493D01*
X503465Y181642D01*
X503744Y182813D01*
X503945Y184000D01*
X504066Y185196D01*
X504106Y186399D01*
X504066Y187602D01*
X503945Y188800D01*
X503744Y189987D01*
X503465Y191156D01*
X503109Y192305D01*
X502677Y193429D01*
X502170Y194520D01*
X501592Y195576D01*
X500945Y196590D01*
X500231Y197559D01*
X499453Y198478D01*
X498617Y199342D01*
X497725Y200149D01*
X496781Y200895D01*
X495788Y201576D01*
X494753Y202190D01*
X493679Y202732D01*
X492570Y203202D01*
X491435Y203598D01*
X490273Y203915D01*
X489094Y204155D01*
X487901Y204315D01*
X486701Y204396D01*
X485497Y204396D01*
X484297Y204315D01*
X483104Y204155D01*
X481926Y203915D01*
X480765Y203598D01*
X479628Y203202D01*
X478521Y202732D01*
X477447Y202190D01*
X476410Y201576D01*
X475419Y200895D01*
X474475Y200149D01*
X473581Y199342D01*
X472745Y198478D01*
X471968Y197559D01*
X471255Y196590D01*
X470608Y195576D01*
X470028Y194520D01*
X469522Y193429D01*
X469089Y192305D01*
X468733Y191156D01*
X468454Y189987D01*
X468254Y188800D01*
X468134Y187602D01*
X468094Y186399D01*
X468134Y185196D01*
X468254Y184000D01*
X468454Y182813D01*
X468733Y181642D01*
X469089Y180493D01*
X469522Y179371D01*
X470028Y178278D01*
X470608Y177224D01*
X471255Y176210D01*
X471805Y175461D01*
X471301Y175495D01*
X470097Y175495D01*
X468897Y175416D01*
X467704Y175255D01*
X466526Y175014D01*
X465365Y174697D01*
X464228Y174302D01*
X463121Y173832D01*
X462047Y173290D01*
X461010Y172676D01*
X460019Y171995D01*
X459075Y171250D01*
X458181Y170443D01*
X457345Y169578D01*
X456568Y168658D01*
X455855Y167689D01*
X455208Y166675D01*
X454628Y165621D01*
X454122Y164528D01*
X453689Y163405D01*
X453333Y162256D01*
X453054Y161086D01*
X452854Y159899D01*
X452734Y158703D01*
X452694Y157500D01*
X452734Y156296D01*
X452854Y155099D01*
X453054Y153912D01*
X453333Y152743D01*
X453689Y151594D01*
X454122Y150470D01*
X454628Y149378D01*
X455208Y148323D01*
X455855Y147309D01*
X456568Y146340D01*
X457345Y145421D01*
X458181Y144556D01*
X459075Y143750D01*
X460019Y143004D01*
X461010Y142323D01*
X462047Y141709D01*
X463121Y141167D01*
X464228Y140697D01*
X465365Y140302D01*
X466526Y139985D01*
X467704Y139744D01*
X468897Y139583D01*
G37*
G36*
X49597Y148204D02*
G01*
X50802Y148204D01*
X52002Y148283D01*
X53194Y148445D01*
X54373Y148685D01*
X55534Y149002D01*
X56670Y149396D01*
X57779Y149866D01*
X58852Y150410D01*
X59889Y151023D01*
X60880Y151703D01*
X61824Y152449D01*
X62717Y153256D01*
X63553Y154121D01*
X64331Y155041D01*
X65045Y156010D01*
X65691Y157024D01*
X65749Y157130D01*
X65954Y156810D01*
X66669Y155841D01*
X67445Y154922D01*
X68281Y154056D01*
X69174Y153249D01*
X70118Y152503D01*
X71111Y151822D01*
X72146Y151210D01*
X73221Y150666D01*
X74328Y150196D01*
X75464Y149801D01*
X76625Y149484D01*
X77804Y149245D01*
X78998Y149083D01*
X80198Y149003D01*
X81401Y149003D01*
X82601Y149083D01*
X83795Y149245D01*
X84974Y149484D01*
X86134Y149801D01*
X87271Y150196D01*
X88378Y150666D01*
X89453Y151210D01*
X90488Y151822D01*
X91481Y152503D01*
X92425Y153249D01*
X93317Y154056D01*
X94153Y154922D01*
X94930Y155841D01*
X95644Y156810D01*
X96292Y157824D01*
X96871Y158879D01*
X97376Y159971D01*
X97809Y161093D01*
X98166Y162242D01*
X98445Y163413D01*
X98644Y164600D01*
X98765Y165796D01*
X98805Y166999D01*
X98765Y168202D01*
X98644Y169400D01*
X98445Y170587D01*
X98166Y171756D01*
X97809Y172905D01*
X97376Y174029D01*
X96871Y175120D01*
X96292Y176176D01*
X95644Y177190D01*
X94930Y178159D01*
X94153Y179077D01*
X93317Y179942D01*
X92425Y180749D01*
X91481Y181496D01*
X90725Y182013D01*
X91024Y182249D01*
X91917Y183056D01*
X92753Y183921D01*
X93531Y184841D01*
X94245Y185810D01*
X94891Y186824D01*
X95470Y187878D01*
X95977Y188971D01*
X96409Y190093D01*
X96765Y191242D01*
X97044Y192413D01*
X97245Y193600D01*
X97366Y194796D01*
X97406Y195999D01*
X97366Y197202D01*
X97245Y198400D01*
X97044Y199587D01*
X96765Y200756D01*
X96409Y201905D01*
X95977Y203029D01*
X95470Y204121D01*
X94891Y205176D01*
X94245Y206190D01*
X93531Y207159D01*
X92753Y208078D01*
X91917Y208942D01*
X91024Y209749D01*
X90081Y210495D01*
X89088Y211176D01*
X88052Y211790D01*
X86979Y212332D01*
X85870Y212802D01*
X84735Y213197D01*
X83573Y213514D01*
X82394Y213755D01*
X81202Y213915D01*
X80001Y213996D01*
X78797Y213996D01*
X77597Y213915D01*
X76404Y213755D01*
X75226Y213514D01*
X74065Y213197D01*
X72928Y212802D01*
X71820Y212332D01*
X70747Y211790D01*
X69710Y211176D01*
X68719Y210495D01*
X67775Y209749D01*
X66881Y208942D01*
X66045Y208078D01*
X65268Y207159D01*
X64555Y206190D01*
X64377Y205911D01*
X63945Y206590D01*
X63230Y207559D01*
X62453Y208478D01*
X61617Y209342D01*
X60725Y210149D01*
X59781Y210895D01*
X58788Y211576D01*
X57753Y212190D01*
X56678Y212732D01*
X55570Y213202D01*
X54435Y213598D01*
X53274Y213915D01*
X52094Y214155D01*
X50901Y214315D01*
X49701Y214396D01*
X48497Y214396D01*
X47298Y214315D01*
X46104Y214155D01*
X44925Y213915D01*
X43765Y213598D01*
X42628Y213202D01*
X41521Y212732D01*
X40446Y212190D01*
X39411Y211576D01*
X38419Y210895D01*
X37474Y210149D01*
X36581Y209342D01*
X35745Y208478D01*
X34969Y207559D01*
X34255Y206590D01*
X33607Y205576D01*
X33549Y205470D01*
X33491Y205576D01*
X32844Y206590D01*
X32130Y207559D01*
X31354Y208478D01*
X30518Y209342D01*
X29624Y210149D01*
X28680Y210895D01*
X27689Y211576D01*
X26652Y212190D01*
X25578Y212732D01*
X24471Y213202D01*
X23334Y213598D01*
X22173Y213915D01*
X20995Y214155D01*
X19801Y214315D01*
X18602Y214396D01*
X17398Y214396D01*
X16197Y214315D01*
X15005Y214155D01*
X13825Y213915D01*
X12664Y213598D01*
X11529Y213202D01*
X10420Y212732D01*
X9346Y212190D01*
X8311Y211576D01*
X7318Y210895D01*
X6374Y210149D01*
X5482Y209342D01*
X4646Y208478D01*
X3868Y207559D01*
X3154Y206590D01*
X2507Y205576D01*
X1929Y204520D01*
X1422Y203429D01*
X990Y202305D01*
X634Y201156D01*
X354Y199987D01*
X154Y198800D01*
X33Y197602D01*
X-6Y196399D01*
X33Y195196D01*
X154Y194000D01*
X354Y192813D01*
X634Y191642D01*
X990Y190493D01*
X1422Y189371D01*
X1929Y188278D01*
X2507Y187224D01*
X3154Y186210D01*
X3868Y185241D01*
X4646Y184322D01*
X5482Y183456D01*
X6374Y182649D01*
X7318Y181903D01*
X8311Y181222D01*
X8786Y180942D01*
X8719Y180895D01*
X7775Y180149D01*
X6881Y179342D01*
X6045Y178478D01*
X5268Y177559D01*
X4555Y176590D01*
X3908Y175576D01*
X3329Y174520D01*
X2822Y173429D01*
X2389Y172305D01*
X2034Y171156D01*
X1755Y169987D01*
X1554Y168800D01*
X1433Y167602D01*
X1394Y166399D01*
X1433Y165196D01*
X1554Y164000D01*
X1755Y162813D01*
X2034Y161642D01*
X2389Y160493D01*
X2822Y159371D01*
X3329Y158278D01*
X3908Y157224D01*
X4555Y156210D01*
X5268Y155241D01*
X6045Y154322D01*
X6881Y153456D01*
X7775Y152649D01*
X8719Y151903D01*
X9710Y151222D01*
X10747Y150610D01*
X11820Y150066D01*
X12928Y149596D01*
X14065Y149202D01*
X15226Y148885D01*
X16404Y148645D01*
X17597Y148483D01*
X18797Y148404D01*
X20001Y148404D01*
X21202Y148483D01*
X22394Y148645D01*
X23573Y148885D01*
X24735Y149202D01*
X25870Y149596D01*
X26979Y150066D01*
X28052Y150610D01*
X29088Y151222D01*
X30081Y151903D01*
X31024Y152649D01*
X31917Y153456D01*
X32753Y154322D01*
X33531Y155241D01*
X34245Y156210D01*
X34736Y156979D01*
X35354Y156010D01*
X36068Y155041D01*
X36845Y154121D01*
X37681Y153256D01*
X38575Y152449D01*
X39519Y151703D01*
X40510Y151023D01*
X41547Y150410D01*
X42620Y149866D01*
X43729Y149396D01*
X44864Y149002D01*
X46026Y148685D01*
X47204Y148445D01*
X48397Y148283D01*
G37*
G36*
X463598Y504304D02*
G01*
X464801Y504304D01*
X466001Y504384D01*
X467195Y504544D01*
X468374Y504785D01*
X469534Y505102D01*
X470671Y505497D01*
X471778Y505967D01*
X472852Y506509D01*
X473888Y507123D01*
X474880Y507804D01*
X475824Y508550D01*
X476718Y509357D01*
X477554Y510221D01*
X478330Y511140D01*
X479044Y512109D01*
X479691Y513123D01*
X480271Y514178D01*
X480776Y515270D01*
X481210Y516394D01*
X481566Y517543D01*
X481845Y518712D01*
X482044Y519899D01*
X482165Y521096D01*
X482205Y522300D01*
X482165Y523503D01*
X482044Y524699D01*
X481845Y525886D01*
X481566Y527056D01*
X481210Y528206D01*
X480776Y529328D01*
X480271Y530421D01*
X479691Y531475D01*
X479044Y532489D01*
X478330Y533458D01*
X477554Y534378D01*
X476718Y535243D01*
X475824Y536050D01*
X474880Y536795D01*
X473888Y537476D01*
X472852Y538090D01*
X471778Y538632D01*
X470671Y539103D01*
X469534Y539497D01*
X468374Y539814D01*
X467195Y540054D01*
X466001Y540216D01*
X464801Y540295D01*
X463598Y540295D01*
X462398Y540216D01*
X461204Y540054D01*
X460025Y539814D01*
X458864Y539497D01*
X457728Y539103D01*
X456620Y538632D01*
X455546Y538090D01*
X454511Y537476D01*
X453518Y536795D01*
X452574Y536050D01*
X451682Y535243D01*
X450846Y534378D01*
X450069Y533458D01*
X449354Y532489D01*
X448707Y531475D01*
X448128Y530421D01*
X447623Y529328D01*
X447190Y528206D01*
X446833Y527056D01*
X446554Y525886D01*
X446355Y524699D01*
X446233Y523503D01*
X446193Y522300D01*
X446233Y521096D01*
X446355Y519899D01*
X446554Y518712D01*
X446833Y517543D01*
X447190Y516394D01*
X447623Y515270D01*
X448128Y514178D01*
X448707Y513123D01*
X449354Y512109D01*
X450069Y511140D01*
X450846Y510221D01*
X451682Y509357D01*
X452574Y508550D01*
X453518Y507804D01*
X454511Y507123D01*
X455546Y506509D01*
X456620Y505967D01*
X457728Y505497D01*
X458864Y505102D01*
X460025Y504785D01*
X461204Y504544D01*
X462398Y504384D01*
G37*
G36*
X-60902Y487604D02*
G01*
X-59697Y487604D01*
X-58497Y487683D01*
X-57304Y487844D01*
X-56126Y488085D01*
X-54965Y488402D01*
X-53829Y488796D01*
X-52721Y489266D01*
X-51647Y489809D01*
X-50610Y490423D01*
X-49619Y491104D01*
X-48675Y491849D01*
X-47781Y492656D01*
X-46945Y493521D01*
X-46168Y494441D01*
X-45455Y495410D01*
X-44808Y496424D01*
X-44229Y497478D01*
X-44200Y497541D01*
X-44170Y497478D01*
X-43591Y496424D01*
X-42944Y495410D01*
X-42231Y494441D01*
X-41454Y493521D01*
X-40618Y492656D01*
X-39724Y491849D01*
X-38780Y491104D01*
X-37789Y490423D01*
X-36752Y489809D01*
X-35679Y489266D01*
X-34571Y488796D01*
X-33434Y488402D01*
X-32273Y488085D01*
X-31095Y487844D01*
X-29902Y487683D01*
X-28702Y487604D01*
X-27498Y487604D01*
X-26297Y487683D01*
X-25105Y487844D01*
X-23926Y488085D01*
X-22764Y488402D01*
X-21629Y488796D01*
X-20520Y489266D01*
X-19447Y489809D01*
X-18411Y490423D01*
X-17418Y491104D01*
X-16475Y491849D01*
X-15582Y492656D01*
X-14746Y493521D01*
X-13968Y494441D01*
X-13254Y495410D01*
X-12608Y496424D01*
X-12029Y497478D01*
X-11877Y497806D01*
X-11770Y497579D01*
X-11192Y496523D01*
X-10545Y495509D01*
X-9831Y494540D01*
X-9054Y493622D01*
X-8217Y492757D01*
X-7325Y491950D01*
X-6381Y491203D01*
X-5389Y490522D01*
X-4353Y489909D01*
X-3279Y489367D01*
X-2170Y488897D01*
X-1035Y488501D01*
X126Y488184D01*
X1305Y487944D01*
X2497Y487784D01*
X3697Y487703D01*
X4902Y487703D01*
X6102Y487784D01*
X7294Y487944D01*
X8473Y488184D01*
X9634Y488501D01*
X10770Y488897D01*
X11878Y489367D01*
X12952Y489909D01*
X13989Y490522D01*
X14980Y491203D01*
X15924Y491950D01*
X16818Y492757D01*
X17654Y493622D01*
X18431Y494540D01*
X19144Y495509D01*
X19791Y496523D01*
X20370Y497579D01*
X20877Y498670D01*
X21310Y499794D01*
X21665Y500942D01*
X21944Y502112D01*
X22145Y503299D01*
X22265Y504497D01*
X22305Y505700D01*
X22265Y506902D01*
X22145Y508099D01*
X21944Y509286D01*
X21665Y510457D01*
X21310Y511606D01*
X20877Y512728D01*
X20370Y513820D01*
X19791Y514875D01*
X19144Y515889D01*
X18431Y516858D01*
X17654Y517777D01*
X16818Y518643D01*
X15924Y519450D01*
X14980Y520196D01*
X13989Y520877D01*
X12952Y521489D01*
X11878Y522033D01*
X10770Y522503D01*
X9634Y522898D01*
X8473Y523215D01*
X7294Y523454D01*
X6102Y523616D01*
X4902Y523695D01*
X3697Y523695D01*
X2497Y523616D01*
X1305Y523454D01*
X126Y523215D01*
X-1035Y522898D01*
X-2170Y522503D01*
X-3279Y522033D01*
X-4353Y521489D01*
X-5389Y520877D01*
X-6381Y520196D01*
X-7325Y519450D01*
X-8217Y518643D01*
X-9054Y517777D01*
X-9831Y516858D01*
X-10545Y515889D01*
X-11192Y514875D01*
X-11770Y513820D01*
X-11922Y513492D01*
X-12029Y513721D01*
X-12608Y514776D01*
X-13254Y515790D01*
X-13968Y516759D01*
X-14746Y517678D01*
X-15582Y518542D01*
X-16475Y519349D01*
X-17418Y520095D01*
X-18411Y520776D01*
X-19447Y521390D01*
X-20520Y521932D01*
X-21629Y522402D01*
X-22764Y522797D01*
X-23926Y523114D01*
X-25105Y523355D01*
X-26297Y523515D01*
X-27498Y523595D01*
X-28702Y523595D01*
X-29902Y523515D01*
X-31095Y523355D01*
X-32273Y523114D01*
X-33434Y522797D01*
X-34571Y522402D01*
X-35679Y521932D01*
X-36752Y521390D01*
X-37789Y520776D01*
X-38780Y520095D01*
X-39724Y519349D01*
X-40618Y518542D01*
X-41454Y517678D01*
X-42231Y516759D01*
X-42944Y515790D01*
X-43591Y514776D01*
X-44170Y513721D01*
X-44200Y513658D01*
X-44229Y513721D01*
X-44808Y514776D01*
X-45455Y515790D01*
X-46168Y516759D01*
X-46945Y517678D01*
X-47781Y518542D01*
X-48675Y519349D01*
X-49619Y520095D01*
X-50610Y520776D01*
X-51647Y521390D01*
X-52721Y521932D01*
X-53829Y522402D01*
X-54965Y522797D01*
X-56126Y523114D01*
X-57304Y523355D01*
X-58497Y523515D01*
X-59697Y523595D01*
X-60902Y523595D01*
X-62102Y523515D01*
X-63294Y523355D01*
X-64474Y523114D01*
X-65635Y522797D01*
X-66770Y522402D01*
X-67879Y521932D01*
X-68953Y521390D01*
X-69989Y520776D01*
X-70981Y520095D01*
X-71925Y519349D01*
X-72817Y518542D01*
X-73653Y517678D01*
X-74431Y516759D01*
X-75145Y515790D01*
X-75792Y514776D01*
X-76370Y513721D01*
X-76877Y512629D01*
X-77309Y511505D01*
X-77665Y510356D01*
X-77944Y509187D01*
X-78145Y508000D01*
X-78266Y506802D01*
X-78306Y505599D01*
X-78266Y504396D01*
X-78145Y503200D01*
X-77944Y502013D01*
X-77665Y500842D01*
X-77309Y499693D01*
X-76877Y498571D01*
X-76370Y497478D01*
X-75792Y496424D01*
X-75145Y495410D01*
X-74431Y494441D01*
X-73653Y493521D01*
X-72817Y492656D01*
X-71925Y491849D01*
X-70981Y491104D01*
X-69989Y490423D01*
X-68953Y489809D01*
X-67879Y489266D01*
X-66770Y488796D01*
X-65635Y488402D01*
X-64474Y488085D01*
X-63294Y487844D01*
X-62102Y487683D01*
G37*
G36*
X-31202Y149504D02*
G01*
X-29998Y149504D01*
X-28797Y149583D01*
X-27605Y149744D01*
X-26426Y149985D01*
X-25264Y150302D01*
X-24129Y150697D01*
X-23020Y151167D01*
X-21947Y151709D01*
X-20911Y152323D01*
X-19918Y153004D01*
X-18975Y153750D01*
X-18082Y154556D01*
X-17246Y155421D01*
X-16468Y156340D01*
X-15754Y157309D01*
X-15108Y158323D01*
X-14529Y159378D01*
X-14022Y160470D01*
X-13590Y161594D01*
X-13234Y162743D01*
X-12955Y163912D01*
X-12754Y165099D01*
X-12633Y166296D01*
X-12593Y167500D01*
X-12633Y168703D01*
X-12754Y169899D01*
X-12955Y171086D01*
X-13234Y172256D01*
X-13590Y173405D01*
X-14022Y174528D01*
X-14529Y175621D01*
X-15108Y176675D01*
X-15754Y177689D01*
X-16468Y178658D01*
X-17246Y179578D01*
X-18082Y180443D01*
X-18975Y181250D01*
X-19918Y181995D01*
X-20911Y182676D01*
X-21947Y183290D01*
X-23020Y183832D01*
X-24129Y184302D01*
X-25264Y184697D01*
X-26426Y185014D01*
X-27605Y185255D01*
X-28797Y185416D01*
X-29998Y185495D01*
X-31202Y185495D01*
X-32402Y185416D01*
X-33595Y185255D01*
X-34773Y185014D01*
X-35934Y184697D01*
X-37071Y184302D01*
X-38179Y183832D01*
X-39252Y183290D01*
X-40289Y182676D01*
X-41280Y181995D01*
X-42224Y181250D01*
X-43118Y180443D01*
X-43954Y179578D01*
X-44731Y178658D01*
X-45444Y177689D01*
X-46091Y176675D01*
X-46670Y175621D01*
X-47177Y174528D01*
X-47610Y173405D01*
X-47965Y172256D01*
X-48244Y171086D01*
X-48445Y169899D01*
X-48566Y168703D01*
X-48605Y167500D01*
X-48566Y166296D01*
X-48445Y165099D01*
X-48244Y163912D01*
X-47965Y162743D01*
X-47610Y161594D01*
X-47177Y160470D01*
X-46670Y159378D01*
X-46091Y158323D01*
X-45444Y157309D01*
X-44731Y156340D01*
X-43954Y155421D01*
X-43118Y154556D01*
X-42224Y153750D01*
X-41280Y153004D01*
X-40289Y152323D01*
X-39252Y151709D01*
X-38179Y151167D01*
X-37071Y150697D01*
X-35934Y150302D01*
X-34773Y149985D01*
X-33595Y149744D01*
X-32402Y149583D01*
G37*
G36*
X264697Y167503D02*
G01*
X265901Y167503D01*
X267101Y167584D01*
X268294Y167744D01*
X269474Y167984D01*
X270635Y168301D01*
X271770Y168697D01*
X272879Y169166D01*
X273953Y169710D01*
X274988Y170322D01*
X275981Y171003D01*
X276925Y171750D01*
X277817Y172557D01*
X278653Y173422D01*
X279430Y174340D01*
X280145Y175309D01*
X280792Y176323D01*
X281370Y177379D01*
X281876Y178470D01*
X282309Y179594D01*
X282665Y180742D01*
X282944Y181912D01*
X283144Y183099D01*
X283266Y184297D01*
X283306Y185500D01*
X283266Y186702D01*
X283144Y187899D01*
X282944Y189086D01*
X282665Y190257D01*
X282309Y191406D01*
X281876Y192528D01*
X281370Y193620D01*
X280792Y194675D01*
X280145Y195689D01*
X279430Y196658D01*
X278653Y197577D01*
X277817Y198442D01*
X276925Y199250D01*
X275981Y199996D01*
X274988Y200677D01*
X273953Y201289D01*
X272879Y201833D01*
X271770Y202303D01*
X270635Y202698D01*
X269474Y203015D01*
X268294Y203254D01*
X267101Y203416D01*
X265901Y203496D01*
X264697Y203496D01*
X263497Y203416D01*
X262304Y203254D01*
X261125Y203015D01*
X259965Y202698D01*
X258828Y202303D01*
X257721Y201833D01*
X256647Y201289D01*
X255610Y200677D01*
X254619Y199996D01*
X253675Y199250D01*
X252781Y198442D01*
X251945Y197577D01*
X251168Y196658D01*
X250455Y195689D01*
X249808Y194675D01*
X249228Y193620D01*
X248722Y192528D01*
X248289Y191406D01*
X247933Y190257D01*
X247654Y189086D01*
X247454Y187899D01*
X247334Y186702D01*
X247294Y185500D01*
X247334Y184297D01*
X247454Y183099D01*
X247654Y181912D01*
X247933Y180742D01*
X248289Y179594D01*
X248722Y178470D01*
X249228Y177379D01*
X249808Y176323D01*
X250455Y175309D01*
X251168Y174340D01*
X251945Y173422D01*
X252781Y172557D01*
X253675Y171750D01*
X254619Y171003D01*
X255610Y170322D01*
X256647Y169710D01*
X257721Y169166D01*
X258828Y168697D01*
X259965Y168301D01*
X261125Y167984D01*
X262304Y167744D01*
X263497Y167584D01*
G37*
G36*
X550397Y480904D02*
G01*
X551602Y480904D01*
X552802Y480983D01*
X553994Y481145D01*
X555173Y481385D01*
X556334Y481702D01*
X557470Y482096D01*
X558578Y482566D01*
X559652Y483110D01*
X560689Y483722D01*
X561680Y484403D01*
X562624Y485149D01*
X563517Y485956D01*
X564354Y486822D01*
X565131Y487741D01*
X565844Y488710D01*
X566491Y489724D01*
X567070Y490778D01*
X567577Y491871D01*
X568009Y492993D01*
X568365Y494142D01*
X568644Y495313D01*
X568845Y496500D01*
X568966Y497696D01*
X569005Y498899D01*
X568966Y500102D01*
X568845Y501300D01*
X568644Y502487D01*
X568365Y503656D01*
X568009Y504805D01*
X567577Y505929D01*
X567070Y507020D01*
X566491Y508076D01*
X565844Y509090D01*
X565131Y510059D01*
X564354Y510978D01*
X563517Y511842D01*
X562624Y512649D01*
X561680Y513395D01*
X560689Y514076D01*
X559652Y514690D01*
X558578Y515232D01*
X557470Y515702D01*
X556334Y516098D01*
X555173Y516415D01*
X553994Y516655D01*
X552802Y516815D01*
X551602Y516896D01*
X550397Y516896D01*
X549197Y516815D01*
X548005Y516655D01*
X546826Y516415D01*
X545664Y516098D01*
X544529Y515702D01*
X543420Y515232D01*
X542346Y514690D01*
X541310Y514076D01*
X540318Y513395D01*
X539375Y512649D01*
X538481Y511842D01*
X537645Y510978D01*
X536868Y510059D01*
X536154Y509090D01*
X535507Y508076D01*
X534929Y507020D01*
X534422Y505929D01*
X533990Y504805D01*
X533634Y503656D01*
X533355Y502487D01*
X533154Y501300D01*
X533033Y500102D01*
X532993Y498899D01*
X533033Y497696D01*
X533154Y496500D01*
X533355Y495313D01*
X533634Y494142D01*
X533990Y492993D01*
X534422Y491871D01*
X534929Y490778D01*
X535507Y489724D01*
X536154Y488710D01*
X536868Y487741D01*
X537645Y486822D01*
X538481Y485956D01*
X539375Y485149D01*
X540318Y484403D01*
X541310Y483722D01*
X542346Y483110D01*
X543420Y482566D01*
X544529Y482096D01*
X545664Y481702D01*
X546826Y481385D01*
X548005Y481145D01*
X549197Y480983D01*
G37*
G36*
X757897Y169504D02*
G01*
X759102Y169504D01*
X760302Y169583D01*
X761494Y169744D01*
X762673Y169985D01*
X763834Y170302D01*
X764970Y170697D01*
X766078Y171167D01*
X767152Y171709D01*
X768189Y172323D01*
X769180Y173004D01*
X770124Y173750D01*
X771017Y174556D01*
X771854Y175421D01*
X772631Y176340D01*
X773344Y177309D01*
X773991Y178323D01*
X774570Y179378D01*
X775077Y180470D01*
X775509Y181594D01*
X775865Y182743D01*
X776144Y183912D01*
X776345Y185099D01*
X776466Y186296D01*
X776505Y187500D01*
X776466Y188703D01*
X776345Y189899D01*
X776144Y191086D01*
X775865Y192256D01*
X775509Y193405D01*
X775077Y194528D01*
X774570Y195621D01*
X773991Y196675D01*
X773344Y197689D01*
X772631Y198658D01*
X771854Y199578D01*
X771017Y200443D01*
X770124Y201250D01*
X769180Y201995D01*
X768189Y202676D01*
X767152Y203290D01*
X766078Y203832D01*
X764970Y204302D01*
X763834Y204697D01*
X762673Y205014D01*
X761494Y205255D01*
X760302Y205416D01*
X759102Y205495D01*
X757897Y205495D01*
X756697Y205416D01*
X755505Y205255D01*
X754326Y205014D01*
X753164Y204697D01*
X752029Y204302D01*
X750920Y203832D01*
X749846Y203290D01*
X748810Y202676D01*
X747818Y201995D01*
X746875Y201250D01*
X745981Y200443D01*
X745145Y199578D01*
X744368Y198658D01*
X743654Y197689D01*
X743007Y196675D01*
X742429Y195621D01*
X741922Y194528D01*
X741490Y193405D01*
X741134Y192256D01*
X740855Y191086D01*
X740654Y189899D01*
X740533Y188703D01*
X740493Y187500D01*
X740533Y186296D01*
X740654Y185099D01*
X740855Y183912D01*
X741134Y182743D01*
X741490Y181594D01*
X741922Y180470D01*
X742429Y179378D01*
X743007Y178323D01*
X743654Y177309D01*
X744368Y176340D01*
X745145Y175421D01*
X745981Y174556D01*
X746875Y173750D01*
X747818Y173004D01*
X748810Y172323D01*
X749846Y171709D01*
X750920Y171167D01*
X752029Y170697D01*
X753164Y170302D01*
X754326Y169985D01*
X755505Y169744D01*
X756697Y169583D01*
G37*
G36*
X262798Y475603D02*
G01*
X264002Y475603D01*
X265201Y475684D01*
X266395Y475844D01*
X267573Y476084D01*
X268734Y476401D01*
X269871Y476797D01*
X270978Y477267D01*
X272052Y477809D01*
X273088Y478422D01*
X274080Y479103D01*
X275024Y479850D01*
X275918Y480657D01*
X276754Y481521D01*
X277530Y482440D01*
X278244Y483409D01*
X278891Y484423D01*
X279471Y485479D01*
X279976Y486570D01*
X280410Y487694D01*
X280766Y488843D01*
X281044Y490012D01*
X281244Y491199D01*
X281365Y492397D01*
X281405Y493600D01*
X281365Y494803D01*
X281244Y495999D01*
X281044Y497186D01*
X280766Y498357D01*
X280410Y499506D01*
X279976Y500628D01*
X279471Y501720D01*
X278891Y502775D01*
X278244Y503789D01*
X277530Y504758D01*
X276754Y505677D01*
X275918Y506543D01*
X275024Y507350D01*
X274080Y508096D01*
X273088Y508777D01*
X272052Y509389D01*
X270978Y509933D01*
X269871Y510403D01*
X268734Y510797D01*
X267573Y511114D01*
X266395Y511354D01*
X265201Y511516D01*
X264002Y511595D01*
X262798Y511595D01*
X261597Y511516D01*
X260405Y511354D01*
X259225Y511114D01*
X258064Y510797D01*
X256929Y510403D01*
X255820Y509933D01*
X254746Y509389D01*
X253711Y508777D01*
X252718Y508096D01*
X251774Y507350D01*
X250882Y506543D01*
X250046Y505677D01*
X249268Y504758D01*
X248554Y503789D01*
X247907Y502775D01*
X247328Y501720D01*
X246822Y500628D01*
X246390Y499506D01*
X246033Y498357D01*
X245754Y497186D01*
X245554Y495999D01*
X245433Y494803D01*
X245393Y493600D01*
X245433Y492397D01*
X245554Y491199D01*
X245754Y490012D01*
X246033Y488843D01*
X246390Y487694D01*
X246822Y486570D01*
X247328Y485479D01*
X247907Y484423D01*
X248554Y483409D01*
X249268Y482440D01*
X250046Y481521D01*
X250882Y480657D01*
X251774Y479850D01*
X252718Y479103D01*
X253711Y478422D01*
X254746Y477809D01*
X255820Y477267D01*
X256929Y476797D01*
X258064Y476401D01*
X259225Y476084D01*
X260405Y475844D01*
X261597Y475684D01*
G37*
G36*
X714841Y469214D02*
G01*
X725254Y475225D01*
X724504Y475819D01*
X723442Y476554D01*
X722337Y477224D01*
X721193Y477822D01*
X720014Y478350D01*
X718804Y478802D01*
X717568Y479178D01*
X716310Y479477D01*
X715037Y479697D01*
X713752Y479836D01*
X712462Y479897D01*
X711170Y479877D01*
X709882Y479776D01*
X708828Y479628D01*
G37*
G36*
X397597Y462804D02*
G01*
X398801Y462804D01*
X400001Y462883D01*
X401194Y463045D01*
X402373Y463285D01*
X403535Y463602D01*
X404670Y463996D01*
X405779Y464466D01*
X406853Y465009D01*
X407888Y465623D01*
X408881Y466304D01*
X409825Y467049D01*
X410717Y467856D01*
X411553Y468721D01*
X412330Y469641D01*
X413045Y470610D01*
X413692Y471624D01*
X414270Y472678D01*
X414776Y473771D01*
X415209Y474893D01*
X415565Y476042D01*
X415844Y477213D01*
X416044Y478400D01*
X416166Y479596D01*
X416206Y480799D01*
X416166Y482002D01*
X416044Y483200D01*
X415844Y484387D01*
X415565Y485556D01*
X415209Y486705D01*
X414776Y487829D01*
X414270Y488921D01*
X413692Y489976D01*
X413045Y490990D01*
X412330Y491959D01*
X411553Y492878D01*
X410717Y493742D01*
X409825Y494549D01*
X408881Y495295D01*
X407888Y495976D01*
X406853Y496590D01*
X405779Y497132D01*
X404670Y497602D01*
X403535Y497997D01*
X402373Y498314D01*
X401194Y498555D01*
X400001Y498715D01*
X398801Y498795D01*
X397597Y498795D01*
X396397Y498715D01*
X395204Y498555D01*
X394026Y498314D01*
X392865Y497997D01*
X391728Y497602D01*
X390621Y497132D01*
X389547Y496590D01*
X388510Y495976D01*
X387519Y495295D01*
X386575Y494549D01*
X385681Y493742D01*
X384845Y492878D01*
X384068Y491959D01*
X383355Y490990D01*
X382708Y489976D01*
X382128Y488921D01*
X381622Y487829D01*
X381189Y486705D01*
X380833Y485556D01*
X380554Y484387D01*
X380354Y483200D01*
X380234Y482002D01*
X380194Y480799D01*
X380234Y479596D01*
X380354Y478400D01*
X380554Y477213D01*
X380833Y476042D01*
X381189Y474893D01*
X381622Y473771D01*
X382128Y472678D01*
X382708Y471624D01*
X383355Y470610D01*
X384068Y469641D01*
X384845Y468721D01*
X385681Y467856D01*
X386575Y467049D01*
X387519Y466304D01*
X388510Y465623D01*
X389547Y465009D01*
X390621Y464466D01*
X391728Y463996D01*
X392865Y463602D01*
X394026Y463285D01*
X395204Y463045D01*
X396397Y462883D01*
G37*
G36*
X-100902Y184203D02*
G01*
X-99697Y184203D01*
X-98497Y184283D01*
X-97304Y184445D01*
X-96126Y184684D01*
X-94965Y185001D01*
X-93829Y185396D01*
X-92721Y185866D01*
X-91647Y186410D01*
X-90610Y187022D01*
X-89619Y187703D01*
X-88675Y188449D01*
X-87781Y189256D01*
X-86945Y190122D01*
X-86168Y191041D01*
X-85455Y192010D01*
X-84808Y193024D01*
X-84229Y194079D01*
X-83722Y195171D01*
X-83289Y196293D01*
X-82934Y197442D01*
X-82655Y198613D01*
X-82454Y199800D01*
X-82334Y200996D01*
X-82294Y202199D01*
X-82334Y203402D01*
X-82454Y204600D01*
X-82655Y205787D01*
X-82934Y206956D01*
X-83289Y208105D01*
X-83722Y209229D01*
X-84229Y210320D01*
X-84808Y211376D01*
X-85455Y212390D01*
X-86168Y213359D01*
X-86945Y214277D01*
X-87781Y215142D01*
X-88675Y215949D01*
X-89619Y216696D01*
X-90610Y217377D01*
X-91647Y217989D01*
X-92721Y218532D01*
X-93829Y219002D01*
X-94965Y219398D01*
X-96126Y219715D01*
X-97304Y219954D01*
X-98497Y220115D01*
X-99697Y220196D01*
X-100902Y220196D01*
X-102102Y220115D01*
X-103294Y219954D01*
X-104474Y219715D01*
X-105635Y219398D01*
X-106770Y219002D01*
X-107879Y218532D01*
X-108953Y217989D01*
X-109989Y217377D01*
X-110981Y216696D01*
X-111925Y215949D01*
X-112817Y215142D01*
X-113653Y214277D01*
X-114431Y213359D01*
X-115145Y212390D01*
X-115792Y211376D01*
X-116370Y210320D01*
X-116877Y209229D01*
X-117309Y208105D01*
X-117665Y206956D01*
X-117944Y205787D01*
X-118145Y204600D01*
X-118266Y203402D01*
X-118306Y202199D01*
X-118266Y200996D01*
X-118145Y199800D01*
X-117944Y198613D01*
X-117665Y197442D01*
X-117309Y196293D01*
X-116877Y195171D01*
X-116370Y194079D01*
X-115792Y193024D01*
X-115145Y192010D01*
X-114431Y191041D01*
X-113653Y190122D01*
X-112817Y189256D01*
X-111925Y188449D01*
X-110981Y187703D01*
X-109989Y187022D01*
X-108953Y186410D01*
X-107879Y185866D01*
X-106770Y185396D01*
X-105635Y185001D01*
X-104474Y184684D01*
X-103294Y184445D01*
X-102102Y184283D01*
G37*
G36*
X-83901Y-405396D02*
G01*
X-82698Y-405396D01*
X-81498Y-405315D01*
X-80304Y-405154D01*
X-79125Y-404915D01*
X-77965Y-404598D01*
X-76828Y-404203D01*
X-75721Y-403733D01*
X-74647Y-403189D01*
X-73611Y-402577D01*
X-72619Y-401896D01*
X-71675Y-401150D01*
X-70781Y-400342D01*
X-69945Y-399477D01*
X-69169Y-398559D01*
X-68455Y-397590D01*
X-67808Y-396576D01*
X-67228Y-395520D01*
X-66723Y-394429D01*
X-66289Y-393306D01*
X-65933Y-392157D01*
X-65654Y-390987D01*
X-65455Y-389800D01*
X-65334Y-388602D01*
X-65294Y-387400D01*
X-65334Y-386197D01*
X-65455Y-385000D01*
X-65654Y-383813D01*
X-65933Y-382642D01*
X-66289Y-381494D01*
X-66723Y-380371D01*
X-67228Y-379279D01*
X-67808Y-378224D01*
X-68455Y-377210D01*
X-69169Y-376241D01*
X-69945Y-375322D01*
X-70781Y-374457D01*
X-71675Y-373650D01*
X-72619Y-372903D01*
X-73611Y-372222D01*
X-74647Y-371610D01*
X-75721Y-371066D01*
X-76828Y-370597D01*
X-77965Y-370201D01*
X-79125Y-369884D01*
X-80304Y-369645D01*
X-81498Y-369484D01*
X-82698Y-369403D01*
X-83901Y-369403D01*
X-85101Y-369484D01*
X-86295Y-369645D01*
X-87474Y-369884D01*
X-88635Y-370201D01*
X-89771Y-370597D01*
X-90879Y-371066D01*
X-91953Y-371610D01*
X-92988Y-372222D01*
X-93981Y-372903D01*
X-94925Y-373650D01*
X-95817Y-374457D01*
X-96653Y-375322D01*
X-97430Y-376241D01*
X-98145Y-377210D01*
X-98792Y-378224D01*
X-99371Y-379279D01*
X-99876Y-380371D01*
X-100309Y-381494D01*
X-100666Y-382642D01*
X-100945Y-383813D01*
X-101144Y-385000D01*
X-101266Y-386197D01*
X-101306Y-387400D01*
X-101266Y-388602D01*
X-101144Y-389800D01*
X-100945Y-390987D01*
X-100666Y-392157D01*
X-100309Y-393306D01*
X-99876Y-394429D01*
X-99371Y-395520D01*
X-98792Y-396576D01*
X-98145Y-397590D01*
X-97430Y-398559D01*
X-96653Y-399477D01*
X-95817Y-400342D01*
X-94925Y-401150D01*
X-93981Y-401896D01*
X-92988Y-402577D01*
X-91953Y-403189D01*
X-90879Y-403733D01*
X-89771Y-404203D01*
X-88635Y-404598D01*
X-87474Y-404915D01*
X-86295Y-405154D01*
X-85101Y-405315D01*
G37*
G36*
X728418Y199634D02*
G01*
X729621Y199634D01*
X730821Y199713D01*
X732015Y199875D01*
X733194Y200115D01*
X734354Y200432D01*
X735491Y200826D01*
X736598Y201296D01*
X737672Y201840D01*
X738708Y202453D01*
X739700Y203134D01*
X740644Y203879D01*
X741538Y204686D01*
X742373Y205551D01*
X743150Y206471D01*
X743864Y207440D01*
X744511Y208454D01*
X745091Y209508D01*
X745596Y210601D01*
X746030Y211723D01*
X746386Y212872D01*
X746665Y214043D01*
X746864Y215230D01*
X746985Y216426D01*
X747025Y217629D01*
X746985Y218832D01*
X746864Y220030D01*
X746665Y221217D01*
X746386Y222386D01*
X746030Y223535D01*
X745596Y224659D01*
X745091Y225751D01*
X744511Y226806D01*
X743864Y227820D01*
X743150Y228789D01*
X742373Y229708D01*
X741538Y230572D01*
X740644Y231379D01*
X739700Y232125D01*
X738708Y232806D01*
X737672Y233420D01*
X736598Y233962D01*
X735491Y234432D01*
X734354Y234827D01*
X733194Y235144D01*
X732015Y235385D01*
X730821Y235545D01*
X729621Y235625D01*
X728418Y235625D01*
X727232Y235547D01*
X727991Y236873D01*
X728805Y238460D01*
X729548Y240081D01*
X730217Y241736D01*
X730811Y243418D01*
X731328Y245126D01*
X731766Y246855D01*
X732127Y248602D01*
X732407Y250363D01*
X732609Y252136D01*
X732730Y253915D01*
X732771Y255700D01*
X732730Y257483D01*
X732609Y259263D01*
X732407Y261035D01*
X732127Y262797D01*
X731766Y264544D01*
X731328Y266273D01*
X730811Y267982D01*
X730217Y269663D01*
X729548Y271318D01*
X728805Y272939D01*
X727991Y274526D01*
X727105Y276075D01*
X726148Y277581D01*
X725127Y279043D01*
X724039Y280459D01*
X722889Y281822D01*
X721678Y283132D01*
X720410Y284387D01*
X719085Y285583D01*
X717709Y286718D01*
X716283Y287788D01*
X714809Y288795D01*
X713292Y289733D01*
X711733Y290601D01*
X710137Y291399D01*
X708508Y292123D01*
X706845Y292773D01*
X705156Y293346D01*
X703443Y293845D01*
X701710Y294263D01*
X699958Y294605D01*
X698194Y294866D01*
X696418Y295046D01*
X694637Y295147D01*
X692853Y295167D01*
X691071Y295108D01*
X689292Y294967D01*
X687521Y294744D01*
X685763Y294443D01*
X684021Y294063D01*
X682296Y293605D01*
X680595Y293069D01*
X678918Y292458D01*
X677272Y291770D01*
X675659Y291008D01*
X674081Y290176D01*
X672543Y289272D01*
X671048Y288299D01*
X669597Y287260D01*
X668195Y286158D01*
X666845Y284992D01*
X665547Y283766D01*
X664308Y282483D01*
X663127Y281147D01*
X662008Y279758D01*
X660952Y278319D01*
X659964Y276833D01*
X659043Y275306D01*
X658191Y273737D01*
X657412Y272134D01*
X656706Y270495D01*
X656076Y268825D01*
X655520Y267130D01*
X655042Y265412D01*
X654642Y263674D01*
X654322Y261918D01*
X654080Y260151D01*
X653919Y258373D01*
X653840Y256592D01*
X653840Y254807D01*
X653919Y253025D01*
X654080Y251248D01*
X654322Y249481D01*
X654642Y247725D01*
X655042Y245987D01*
X655520Y244268D01*
X656076Y242573D01*
X656706Y240904D01*
X657412Y239265D01*
X658191Y237662D01*
X659043Y236093D01*
X659964Y234565D01*
X660952Y233081D01*
X662008Y231642D01*
X663127Y230252D01*
X664308Y228915D01*
X665547Y227633D01*
X666845Y226408D01*
X668195Y225241D01*
X669597Y224139D01*
X671048Y223099D01*
X672543Y222127D01*
X674081Y221224D01*
X675659Y220390D01*
X677272Y219630D01*
X678918Y218942D01*
X680595Y218330D01*
X682296Y217793D01*
X684021Y217336D01*
X685763Y216956D01*
X687521Y216655D01*
X689292Y216433D01*
X691071Y216291D01*
X692853Y216231D01*
X694637Y216251D01*
X696418Y216352D01*
X698194Y216534D01*
X699958Y216795D01*
X701710Y217136D01*
X703443Y217554D01*
X705156Y218052D01*
X706845Y218627D01*
X708508Y219277D01*
X710137Y220000D01*
X711265Y220565D01*
X711175Y220030D01*
X711053Y218832D01*
X711013Y217629D01*
X711053Y216426D01*
X711175Y215230D01*
X711374Y214043D01*
X711653Y212872D01*
X712010Y211723D01*
X712443Y210601D01*
X712948Y209508D01*
X713527Y208454D01*
X714174Y207440D01*
X714889Y206471D01*
X715666Y205551D01*
X716502Y204686D01*
X717394Y203879D01*
X718338Y203134D01*
X719331Y202453D01*
X720366Y201840D01*
X721440Y201296D01*
X722548Y200826D01*
X723684Y200432D01*
X724845Y200115D01*
X726024Y199875D01*
X727218Y199713D01*
G37*
G36*
X691638Y455817D02*
G01*
X702056Y461831D01*
X696044Y472242D01*
X695645Y471752D01*
X694893Y470702D01*
X694206Y469607D01*
X693589Y468472D01*
X693045Y467301D01*
X692573Y466098D01*
X692178Y464868D01*
X691859Y463616D01*
X691620Y462346D01*
X691459Y461064D01*
X691379Y459776D01*
X691379Y458483D01*
X691459Y457195D01*
X691620Y455913D01*
G37*
G36*
X128097Y450603D02*
G01*
X129301Y450603D01*
X130501Y450684D01*
X131694Y450844D01*
X132874Y451084D01*
X134035Y451401D01*
X135171Y451797D01*
X136278Y452267D01*
X137353Y452809D01*
X138388Y453422D01*
X139381Y454103D01*
X140325Y454850D01*
X141217Y455657D01*
X142053Y456521D01*
X142830Y457440D01*
X143544Y458409D01*
X144192Y459423D01*
X144771Y460479D01*
X145276Y461570D01*
X145709Y462694D01*
X146066Y463843D01*
X146345Y465012D01*
X146544Y466199D01*
X146665Y467397D01*
X146705Y468600D01*
X146665Y469803D01*
X146544Y470999D01*
X146345Y472186D01*
X146066Y473357D01*
X145709Y474506D01*
X145276Y475628D01*
X144771Y476720D01*
X144192Y477775D01*
X143544Y478789D01*
X142830Y479758D01*
X142053Y480677D01*
X141217Y481543D01*
X140325Y482350D01*
X139381Y483096D01*
X138388Y483777D01*
X137353Y484389D01*
X136278Y484933D01*
X135171Y485403D01*
X134035Y485797D01*
X132874Y486114D01*
X131694Y486354D01*
X130501Y486516D01*
X129301Y486595D01*
X128097Y486595D01*
X126898Y486516D01*
X125704Y486354D01*
X124525Y486114D01*
X123365Y485797D01*
X122228Y485403D01*
X121121Y484933D01*
X120046Y484389D01*
X119011Y483777D01*
X118018Y483096D01*
X117074Y482350D01*
X116181Y481543D01*
X115345Y480677D01*
X114569Y479758D01*
X113855Y478789D01*
X113207Y477775D01*
X112628Y476720D01*
X112123Y475628D01*
X111689Y474506D01*
X111333Y473357D01*
X111054Y472186D01*
X110855Y470999D01*
X110734Y469803D01*
X110694Y468600D01*
X110734Y467397D01*
X110855Y466199D01*
X111054Y465012D01*
X111333Y463843D01*
X111689Y462694D01*
X112123Y461570D01*
X112628Y460479D01*
X113207Y459423D01*
X113855Y458409D01*
X114569Y457440D01*
X115345Y456521D01*
X116181Y455657D01*
X117074Y454850D01*
X118018Y454103D01*
X119011Y453422D01*
X120046Y452809D01*
X121121Y452267D01*
X122228Y451797D01*
X123365Y451401D01*
X124525Y451084D01*
X125704Y450844D01*
X126898Y450684D01*
G37*
G36*
X91098Y450104D02*
G01*
X92301Y450104D01*
X93501Y450183D01*
X94695Y450344D01*
X95874Y450585D01*
X97034Y450902D01*
X98171Y451296D01*
X99278Y451766D01*
X100352Y452309D01*
X101388Y452923D01*
X102380Y453604D01*
X103324Y454349D01*
X104218Y455156D01*
X105054Y456021D01*
X105830Y456941D01*
X106544Y457910D01*
X107191Y458924D01*
X107771Y459978D01*
X108276Y461071D01*
X108710Y462193D01*
X109066Y463342D01*
X109345Y464513D01*
X109544Y465700D01*
X109665Y466896D01*
X109705Y468099D01*
X109665Y469302D01*
X109544Y470500D01*
X109345Y471687D01*
X109066Y472856D01*
X108710Y474005D01*
X108276Y475129D01*
X107771Y476221D01*
X107191Y477276D01*
X106544Y478290D01*
X105830Y479259D01*
X105054Y480178D01*
X104218Y481042D01*
X103324Y481849D01*
X102380Y482595D01*
X101388Y483276D01*
X100352Y483890D01*
X99278Y484432D01*
X98171Y484902D01*
X97034Y485297D01*
X95874Y485614D01*
X94695Y485855D01*
X93501Y486015D01*
X92301Y486095D01*
X91098Y486095D01*
X89898Y486015D01*
X88704Y485855D01*
X87525Y485614D01*
X86364Y485297D01*
X85228Y484902D01*
X84120Y484432D01*
X83046Y483890D01*
X82011Y483276D01*
X81018Y482595D01*
X80074Y481849D01*
X79182Y481042D01*
X78346Y480178D01*
X77569Y479259D01*
X76854Y478290D01*
X76207Y477276D01*
X75628Y476221D01*
X75123Y475129D01*
X74690Y474005D01*
X74333Y472856D01*
X74054Y471687D01*
X73855Y470500D01*
X73733Y469302D01*
X73693Y468099D01*
X73733Y466896D01*
X73855Y465700D01*
X74054Y464513D01*
X74333Y463342D01*
X74690Y462193D01*
X75123Y461071D01*
X75628Y459978D01*
X76207Y458924D01*
X76854Y457910D01*
X77569Y456941D01*
X78346Y456021D01*
X79182Y455156D01*
X80074Y454349D01*
X81018Y453604D01*
X82011Y452923D01*
X83046Y452309D01*
X84120Y451766D01*
X85228Y451296D01*
X86364Y450902D01*
X87525Y450585D01*
X88704Y450344D01*
X89898Y450183D01*
G37*
G36*
X326797Y216603D02*
G01*
X328001Y216603D01*
X329201Y216684D01*
X330394Y216844D01*
X331574Y217085D01*
X332735Y217402D01*
X333870Y217797D01*
X334979Y218267D01*
X336053Y218809D01*
X337088Y219423D01*
X338081Y220104D01*
X339025Y220850D01*
X339917Y221657D01*
X340753Y222521D01*
X341530Y223440D01*
X342245Y224409D01*
X342892Y225423D01*
X343470Y226478D01*
X343976Y227570D01*
X344409Y228694D01*
X344765Y229843D01*
X345045Y231012D01*
X345244Y232199D01*
X345365Y233396D01*
X345406Y234600D01*
X345365Y235803D01*
X345244Y236999D01*
X345045Y238186D01*
X344765Y239356D01*
X344409Y240506D01*
X343976Y241628D01*
X343470Y242721D01*
X342892Y243775D01*
X342245Y244789D01*
X341530Y245758D01*
X340753Y246678D01*
X339917Y247543D01*
X339025Y248350D01*
X338081Y249095D01*
X337088Y249776D01*
X336053Y250389D01*
X334979Y250933D01*
X333870Y251403D01*
X332735Y251797D01*
X331574Y252114D01*
X330394Y252354D01*
X329201Y252516D01*
X328001Y252595D01*
X326797Y252595D01*
X325597Y252516D01*
X324404Y252354D01*
X323225Y252114D01*
X322065Y251797D01*
X320928Y251403D01*
X319821Y250933D01*
X318747Y250389D01*
X317710Y249776D01*
X316719Y249095D01*
X315775Y248350D01*
X314881Y247543D01*
X314045Y246678D01*
X313269Y245758D01*
X312555Y244789D01*
X311908Y243775D01*
X311328Y242721D01*
X310823Y241628D01*
X310389Y240506D01*
X310033Y239356D01*
X309754Y238186D01*
X309555Y236999D01*
X309434Y235803D01*
X309394Y234600D01*
X309434Y233396D01*
X309555Y232199D01*
X309754Y231012D01*
X310033Y229843D01*
X310389Y228694D01*
X310823Y227570D01*
X311328Y226478D01*
X311908Y225423D01*
X312555Y224409D01*
X313269Y223440D01*
X314045Y222521D01*
X314881Y221657D01*
X315775Y220850D01*
X316719Y220104D01*
X317710Y219423D01*
X318747Y218809D01*
X319821Y218267D01*
X320928Y217797D01*
X322065Y217402D01*
X323225Y217085D01*
X324404Y216844D01*
X325597Y216684D01*
G37*
G36*
X728239Y446008D02*
G01*
X729018Y447026D01*
X729738Y448099D01*
X730389Y449214D01*
X730972Y450367D01*
X731480Y451556D01*
X731912Y452773D01*
X732269Y454014D01*
X732548Y455275D01*
X732749Y456552D01*
X732870Y457838D01*
X732910Y459130D01*
X732870Y460421D01*
X732749Y461707D01*
X732635Y462438D01*
X722223Y456428D01*
G37*
G36*
X241498Y236804D02*
G01*
X242701Y236804D01*
X243901Y236884D01*
X245095Y237044D01*
X246274Y237285D01*
X247434Y237602D01*
X248571Y237997D01*
X249678Y238467D01*
X250752Y239009D01*
X251788Y239623D01*
X252780Y240304D01*
X253724Y241050D01*
X254618Y241856D01*
X255453Y242721D01*
X256230Y243640D01*
X256944Y244609D01*
X257591Y245623D01*
X258171Y246678D01*
X258676Y247770D01*
X259110Y248894D01*
X259466Y250043D01*
X259745Y251212D01*
X259944Y252399D01*
X260065Y253596D01*
X260105Y254800D01*
X260065Y256003D01*
X259944Y257199D01*
X259745Y258386D01*
X259466Y259556D01*
X259110Y260706D01*
X258676Y261828D01*
X258171Y262921D01*
X257591Y263975D01*
X256944Y264989D01*
X256230Y265958D01*
X255453Y266878D01*
X254618Y267743D01*
X253724Y268550D01*
X252780Y269295D01*
X251788Y269976D01*
X250752Y270590D01*
X249678Y271132D01*
X248571Y271603D01*
X247434Y271997D01*
X246274Y272314D01*
X245095Y272554D01*
X243901Y272716D01*
X242701Y272795D01*
X241498Y272795D01*
X240298Y272716D01*
X239104Y272554D01*
X237925Y272314D01*
X236764Y271997D01*
X235628Y271603D01*
X234520Y271132D01*
X233446Y270590D01*
X232411Y269976D01*
X231418Y269295D01*
X230474Y268550D01*
X229582Y267743D01*
X228746Y266878D01*
X227969Y265958D01*
X227254Y264989D01*
X226607Y263975D01*
X226028Y262921D01*
X225523Y261828D01*
X225090Y260706D01*
X224733Y259556D01*
X224454Y258386D01*
X224255Y257199D01*
X224133Y256003D01*
X224093Y254800D01*
X224133Y253596D01*
X224255Y252399D01*
X224454Y251212D01*
X224733Y250043D01*
X225090Y248894D01*
X225523Y247770D01*
X226028Y246678D01*
X226607Y245623D01*
X227254Y244609D01*
X227969Y243640D01*
X228746Y242721D01*
X229582Y241856D01*
X230474Y241050D01*
X231418Y240304D01*
X232411Y239623D01*
X233446Y239009D01*
X234520Y238467D01*
X235628Y237997D01*
X236764Y237602D01*
X237925Y237285D01*
X239104Y237044D01*
X240298Y236884D01*
G37*
G36*
X312798Y261304D02*
G01*
X314002Y261304D01*
X315201Y261383D01*
X316395Y261545D01*
X317573Y261784D01*
X318734Y262101D01*
X319871Y262496D01*
X320978Y262966D01*
X322052Y263510D01*
X323088Y264122D01*
X324080Y264803D01*
X325024Y265549D01*
X325918Y266356D01*
X326754Y267222D01*
X327530Y268141D01*
X328244Y269110D01*
X328891Y270124D01*
X329471Y271179D01*
X329976Y272271D01*
X330410Y273393D01*
X330766Y274542D01*
X331044Y275713D01*
X331244Y276900D01*
X331365Y278096D01*
X331405Y279299D01*
X331365Y280502D01*
X331244Y281700D01*
X331044Y282887D01*
X330766Y284056D01*
X330410Y285205D01*
X329976Y286329D01*
X329471Y287420D01*
X328891Y288476D01*
X328244Y289490D01*
X327530Y290459D01*
X326754Y291377D01*
X325918Y292242D01*
X325024Y293049D01*
X324080Y293795D01*
X323088Y294477D01*
X322052Y295090D01*
X320978Y295632D01*
X319871Y296102D01*
X318734Y296498D01*
X317573Y296815D01*
X316395Y297055D01*
X315201Y297215D01*
X314002Y297296D01*
X312798Y297296D01*
X311597Y297215D01*
X310405Y297055D01*
X309225Y296815D01*
X308064Y296498D01*
X306929Y296102D01*
X305820Y295632D01*
X304746Y295090D01*
X303711Y294477D01*
X302718Y293795D01*
X301774Y293049D01*
X300882Y292242D01*
X300046Y291377D01*
X299268Y290459D01*
X298554Y289490D01*
X297907Y288476D01*
X297328Y287420D01*
X296822Y286329D01*
X296390Y285205D01*
X296033Y284056D01*
X295754Y282887D01*
X295554Y281700D01*
X295433Y280502D01*
X295393Y279299D01*
X295433Y278096D01*
X295554Y276900D01*
X295754Y275713D01*
X296033Y274542D01*
X296390Y273393D01*
X296822Y272271D01*
X297328Y271179D01*
X297907Y270124D01*
X298554Y269110D01*
X299268Y268141D01*
X300046Y267222D01*
X300882Y266356D01*
X301774Y265549D01*
X302718Y264803D01*
X303711Y264122D01*
X304746Y263510D01*
X305820Y262966D01*
X306929Y262496D01*
X308064Y262101D01*
X309225Y261784D01*
X310405Y261545D01*
X311597Y261383D01*
G37*
G36*
X724017Y297833D02*
G01*
X725222Y297833D01*
X726422Y297914D01*
X727614Y298074D01*
X728793Y298314D01*
X729954Y298631D01*
X731090Y299027D01*
X732199Y299497D01*
X733272Y300039D01*
X734309Y300652D01*
X735300Y301334D01*
X736244Y302080D01*
X737137Y302887D01*
X737973Y303751D01*
X738751Y304670D01*
X739465Y305639D01*
X740111Y306653D01*
X740690Y307708D01*
X741197Y308800D01*
X741629Y309924D01*
X741985Y311073D01*
X742264Y312242D01*
X742465Y313429D01*
X742586Y314627D01*
X742626Y315830D01*
X742586Y317033D01*
X742465Y318229D01*
X742264Y319416D01*
X741985Y320587D01*
X741629Y321736D01*
X741197Y322858D01*
X740690Y323951D01*
X740111Y325005D01*
X739465Y326019D01*
X738751Y326988D01*
X737973Y327907D01*
X737137Y328773D01*
X736244Y329580D01*
X735300Y330326D01*
X734309Y331006D01*
X733272Y331619D01*
X732199Y332163D01*
X731090Y332633D01*
X729954Y333027D01*
X728793Y333344D01*
X727614Y333584D01*
X726422Y333746D01*
X726112Y333766D01*
X726148Y333818D01*
X727105Y335324D01*
X727991Y336873D01*
X728805Y338460D01*
X729548Y340081D01*
X730217Y341736D01*
X730811Y343418D01*
X731328Y345126D01*
X731766Y346855D01*
X732127Y348602D01*
X732407Y350363D01*
X732609Y352136D01*
X732730Y353915D01*
X732771Y355700D01*
X732730Y357483D01*
X732609Y359263D01*
X732407Y361035D01*
X732127Y362797D01*
X731766Y364544D01*
X731328Y366273D01*
X730811Y367982D01*
X730217Y369663D01*
X729548Y371318D01*
X728805Y372939D01*
X727991Y374526D01*
X727105Y376075D01*
X726148Y377581D01*
X725127Y379043D01*
X724039Y380459D01*
X722889Y381822D01*
X721678Y383132D01*
X720410Y384387D01*
X719085Y385583D01*
X717709Y386718D01*
X716283Y387788D01*
X714809Y388795D01*
X713292Y389733D01*
X711733Y390601D01*
X710137Y391399D01*
X708508Y392123D01*
X706845Y392773D01*
X705156Y393346D01*
X703443Y393845D01*
X701710Y394263D01*
X699958Y394605D01*
X698194Y394866D01*
X696418Y395046D01*
X694637Y395147D01*
X692853Y395167D01*
X691071Y395108D01*
X689292Y394967D01*
X687521Y394744D01*
X685763Y394443D01*
X684021Y394063D01*
X682296Y393605D01*
X680595Y393069D01*
X678918Y392458D01*
X677272Y391770D01*
X675659Y391008D01*
X674081Y390176D01*
X672543Y389272D01*
X671048Y388299D01*
X669597Y387260D01*
X668195Y386158D01*
X666845Y384992D01*
X665547Y383766D01*
X664308Y382483D01*
X663127Y381147D01*
X662008Y379758D01*
X660952Y378319D01*
X659964Y376833D01*
X659043Y375306D01*
X658191Y373737D01*
X657412Y372134D01*
X656706Y370495D01*
X656076Y368825D01*
X655520Y367130D01*
X655042Y365412D01*
X654642Y363674D01*
X654322Y361918D01*
X654080Y360151D01*
X653919Y358373D01*
X653840Y356592D01*
X653840Y354807D01*
X653919Y353025D01*
X654080Y351248D01*
X654322Y349481D01*
X654642Y347725D01*
X655042Y345987D01*
X655520Y344268D01*
X656040Y342683D01*
X655135Y342997D01*
X653973Y343314D01*
X652794Y343555D01*
X651602Y343715D01*
X650401Y343795D01*
X649197Y343795D01*
X647997Y343715D01*
X646804Y343555D01*
X645626Y343314D01*
X644465Y342997D01*
X643329Y342602D01*
X642220Y342132D01*
X641147Y341590D01*
X640110Y340976D01*
X639119Y340295D01*
X638175Y339549D01*
X637281Y338742D01*
X636445Y337878D01*
X635668Y336959D01*
X634954Y335990D01*
X634308Y334976D01*
X633729Y333921D01*
X633222Y332829D01*
X632789Y331705D01*
X632434Y330556D01*
X632155Y329387D01*
X631954Y328200D01*
X631833Y327002D01*
X631793Y325799D01*
X631833Y324596D01*
X631954Y323400D01*
X632155Y322213D01*
X632434Y321042D01*
X632789Y319893D01*
X633222Y318771D01*
X633729Y317678D01*
X634308Y316624D01*
X634954Y315610D01*
X635668Y314641D01*
X636445Y313721D01*
X637281Y312856D01*
X638175Y312049D01*
X639119Y311304D01*
X640110Y310623D01*
X641147Y310009D01*
X642220Y309466D01*
X643329Y308996D01*
X644465Y308602D01*
X645626Y308285D01*
X646804Y308045D01*
X647997Y307883D01*
X649197Y307804D01*
X650401Y307804D01*
X651602Y307883D01*
X652794Y308045D01*
X653973Y308285D01*
X655135Y308602D01*
X656270Y308996D01*
X657379Y309466D01*
X658452Y310009D01*
X659489Y310623D01*
X660480Y311304D01*
X661424Y312049D01*
X662317Y312856D01*
X663153Y313721D01*
X663931Y314641D01*
X664645Y315610D01*
X665291Y316624D01*
X665870Y317678D01*
X666377Y318771D01*
X666809Y319893D01*
X667165Y321042D01*
X667444Y322213D01*
X667645Y323400D01*
X667766Y324596D01*
X667798Y325585D01*
X668195Y325241D01*
X669597Y324139D01*
X671048Y323099D01*
X672543Y322127D01*
X674081Y321224D01*
X675659Y320390D01*
X677272Y319630D01*
X678918Y318942D01*
X680595Y318330D01*
X682296Y317793D01*
X684021Y317336D01*
X685763Y316956D01*
X687521Y316655D01*
X689292Y316433D01*
X691071Y316291D01*
X692853Y316232D01*
X694637Y316251D01*
X696418Y316352D01*
X698194Y316534D01*
X699958Y316795D01*
X701710Y317136D01*
X703443Y317554D01*
X705156Y318052D01*
X706841Y318625D01*
X706774Y318229D01*
X706653Y317033D01*
X706613Y315830D01*
X706653Y314627D01*
X706774Y313429D01*
X706975Y312242D01*
X707254Y311073D01*
X707609Y309924D01*
X708042Y308800D01*
X708549Y307708D01*
X709128Y306653D01*
X709774Y305639D01*
X710488Y304670D01*
X711265Y303751D01*
X712101Y302887D01*
X712995Y302080D01*
X713939Y301334D01*
X714930Y300652D01*
X715967Y300039D01*
X717040Y299497D01*
X718149Y299027D01*
X719284Y298631D01*
X720446Y298314D01*
X721624Y298074D01*
X722817Y297914D01*
G37*
G36*
X462997Y444003D02*
G01*
X464201Y444003D01*
X465401Y444083D01*
X466594Y444245D01*
X467773Y444484D01*
X468935Y444801D01*
X470070Y445196D01*
X471179Y445666D01*
X472253Y446210D01*
X473288Y446822D01*
X474281Y447503D01*
X475225Y448249D01*
X476117Y449056D01*
X476953Y449922D01*
X477731Y450841D01*
X478445Y451810D01*
X479092Y452824D01*
X479670Y453879D01*
X480177Y454971D01*
X480609Y456093D01*
X480965Y457242D01*
X481244Y458413D01*
X481445Y459600D01*
X481566Y460796D01*
X481606Y461999D01*
X481566Y463202D01*
X481445Y464400D01*
X481244Y465587D01*
X480965Y466756D01*
X480609Y467905D01*
X480177Y469029D01*
X479670Y470120D01*
X479092Y471176D01*
X478445Y472190D01*
X477731Y473159D01*
X476953Y474077D01*
X476117Y474942D01*
X475225Y475749D01*
X474281Y476496D01*
X473288Y477177D01*
X472253Y477789D01*
X471179Y478332D01*
X470070Y478802D01*
X468935Y479198D01*
X467773Y479515D01*
X466594Y479755D01*
X465401Y479915D01*
X464201Y479996D01*
X462997Y479996D01*
X461797Y479915D01*
X460604Y479755D01*
X459426Y479515D01*
X458265Y479198D01*
X457128Y478802D01*
X456021Y478332D01*
X454947Y477789D01*
X453910Y477177D01*
X452919Y476496D01*
X451975Y475749D01*
X451081Y474942D01*
X450245Y474077D01*
X449468Y473159D01*
X448755Y472190D01*
X448108Y471176D01*
X447528Y470120D01*
X447022Y469029D01*
X446589Y467905D01*
X446233Y466756D01*
X445954Y465587D01*
X445754Y464400D01*
X445634Y463202D01*
X445594Y461999D01*
X445634Y460796D01*
X445754Y459600D01*
X445954Y458413D01*
X446233Y457242D01*
X446589Y456093D01*
X447022Y454971D01*
X447528Y453879D01*
X448108Y452824D01*
X448755Y451810D01*
X449468Y450841D01*
X450245Y449922D01*
X451081Y449056D01*
X451975Y448249D01*
X452919Y447503D01*
X453910Y446822D01*
X454947Y446210D01*
X456021Y445666D01*
X457128Y445196D01*
X458265Y444801D01*
X459426Y444484D01*
X460604Y444245D01*
X461797Y444083D01*
G37*
G36*
X-148602Y442004D02*
G01*
X-147398Y442004D01*
X-146198Y442083D01*
X-145005Y442244D01*
X-143825Y442485D01*
X-142664Y442802D01*
X-141529Y443197D01*
X-140420Y443667D01*
X-139346Y444209D01*
X-138311Y444823D01*
X-137318Y445504D01*
X-136374Y446250D01*
X-135482Y447056D01*
X-134646Y447921D01*
X-133869Y448840D01*
X-133154Y449809D01*
X-132507Y450823D01*
X-131929Y451878D01*
X-131423Y452970D01*
X-130990Y454094D01*
X-130634Y455243D01*
X-130354Y456412D01*
X-130155Y457599D01*
X-130034Y458796D01*
X-129993Y460000D01*
X-130034Y461203D01*
X-130155Y462399D01*
X-130354Y463586D01*
X-130634Y464756D01*
X-130990Y465905D01*
X-131423Y467028D01*
X-131929Y468121D01*
X-132507Y469175D01*
X-133154Y470189D01*
X-133869Y471158D01*
X-134646Y472078D01*
X-135482Y472943D01*
X-136374Y473750D01*
X-137318Y474495D01*
X-138311Y475176D01*
X-139346Y475790D01*
X-140420Y476332D01*
X-141529Y476802D01*
X-142664Y477197D01*
X-143825Y477514D01*
X-145005Y477755D01*
X-146198Y477916D01*
X-147398Y477995D01*
X-148602Y477995D01*
X-149801Y477916D01*
X-150995Y477755D01*
X-152174Y477514D01*
X-153334Y477197D01*
X-154471Y476802D01*
X-155578Y476332D01*
X-156652Y475790D01*
X-157689Y475176D01*
X-158680Y474495D01*
X-159625Y473750D01*
X-160518Y472943D01*
X-161354Y472078D01*
X-162130Y471158D01*
X-162844Y470189D01*
X-163491Y469175D01*
X-164071Y468121D01*
X-164576Y467028D01*
X-165010Y465905D01*
X-165366Y464756D01*
X-165645Y463586D01*
X-165844Y462399D01*
X-165965Y461203D01*
X-166005Y460000D01*
X-165965Y458796D01*
X-165844Y457599D01*
X-165645Y456412D01*
X-165366Y455243D01*
X-165010Y454094D01*
X-164576Y452970D01*
X-164071Y451878D01*
X-163491Y450823D01*
X-162844Y449809D01*
X-162130Y448840D01*
X-161354Y447921D01*
X-160518Y447056D01*
X-159625Y446250D01*
X-158680Y445504D01*
X-157689Y444823D01*
X-156652Y444209D01*
X-155578Y443667D01*
X-154471Y443197D01*
X-153334Y442802D01*
X-152174Y442485D01*
X-150995Y442244D01*
X-149801Y442083D01*
G37*
G36*
X308797Y337204D02*
G01*
X310001Y337204D01*
X311202Y337283D01*
X312394Y337444D01*
X313573Y337685D01*
X314735Y338002D01*
X315870Y338396D01*
X316979Y338867D01*
X318052Y339409D01*
X319088Y340023D01*
X320081Y340704D01*
X321024Y341449D01*
X321917Y342256D01*
X322753Y343121D01*
X323531Y344041D01*
X324245Y345009D01*
X324891Y346023D01*
X325470Y347078D01*
X325977Y348170D01*
X326409Y349293D01*
X326765Y350443D01*
X327044Y351612D01*
X327245Y352800D01*
X327366Y353996D01*
X327406Y355199D01*
X327366Y356403D01*
X327245Y357599D01*
X327044Y358786D01*
X326765Y359956D01*
X326409Y361105D01*
X325977Y362228D01*
X325470Y363321D01*
X324891Y364375D01*
X324245Y365389D01*
X323531Y366358D01*
X322753Y367278D01*
X321917Y368143D01*
X321024Y368949D01*
X320081Y369695D01*
X319088Y370376D01*
X318052Y370990D01*
X316979Y371532D01*
X315870Y372002D01*
X314735Y372397D01*
X313573Y372714D01*
X312394Y372955D01*
X311202Y373116D01*
X310001Y373195D01*
X308797Y373195D01*
X307597Y373116D01*
X306404Y372955D01*
X305226Y372714D01*
X304065Y372397D01*
X302928Y372002D01*
X301820Y371532D01*
X300747Y370990D01*
X299710Y370376D01*
X298719Y369695D01*
X297775Y368949D01*
X296881Y368143D01*
X296045Y367278D01*
X295268Y366358D01*
X294555Y365389D01*
X293908Y364375D01*
X293329Y363321D01*
X292822Y362228D01*
X292389Y361105D01*
X292034Y359956D01*
X291755Y358786D01*
X291554Y357599D01*
X291433Y356403D01*
X291394Y355199D01*
X291433Y353996D01*
X291554Y352800D01*
X291755Y351612D01*
X292034Y350443D01*
X292389Y349293D01*
X292822Y348170D01*
X293329Y347078D01*
X293908Y346023D01*
X294555Y345009D01*
X295268Y344041D01*
X296045Y343121D01*
X296881Y342256D01*
X297775Y341449D01*
X298719Y340704D01*
X299710Y340023D01*
X300747Y339409D01*
X301820Y338867D01*
X302928Y338396D01*
X304065Y338002D01*
X305226Y337685D01*
X306404Y337444D01*
X307597Y337283D01*
G37*
G36*
X270397Y337404D02*
G01*
X271602Y337404D01*
X272802Y337483D01*
X273994Y337644D01*
X275173Y337885D01*
X276334Y338202D01*
X277470Y338596D01*
X278578Y339067D01*
X279652Y339609D01*
X280689Y340223D01*
X281680Y340904D01*
X282624Y341649D01*
X283517Y342456D01*
X284354Y343321D01*
X285131Y344241D01*
X285844Y345210D01*
X286491Y346224D01*
X287070Y347278D01*
X287577Y348371D01*
X288009Y349493D01*
X288365Y350643D01*
X288644Y351813D01*
X288845Y353000D01*
X288966Y354196D01*
X289005Y355399D01*
X288966Y356603D01*
X288845Y357800D01*
X288644Y358987D01*
X288365Y360156D01*
X288009Y361305D01*
X287577Y362429D01*
X287070Y363521D01*
X286491Y364576D01*
X285844Y365590D01*
X285131Y366559D01*
X284354Y367478D01*
X283517Y368342D01*
X282624Y369149D01*
X281680Y369895D01*
X280689Y370576D01*
X279652Y371190D01*
X278578Y371732D01*
X277470Y372202D01*
X276334Y372597D01*
X275173Y372914D01*
X273994Y373155D01*
X272802Y373315D01*
X271602Y373395D01*
X270397Y373395D01*
X269197Y373315D01*
X268005Y373155D01*
X266826Y372914D01*
X265664Y372597D01*
X264529Y372202D01*
X263420Y371732D01*
X262346Y371190D01*
X261310Y370576D01*
X260318Y369895D01*
X259375Y369149D01*
X258481Y368342D01*
X257645Y367478D01*
X256868Y366559D01*
X256154Y365590D01*
X255507Y364576D01*
X254929Y363521D01*
X254422Y362429D01*
X253990Y361305D01*
X253634Y360156D01*
X253355Y358987D01*
X253154Y357800D01*
X253033Y356603D01*
X252993Y355399D01*
X253033Y354196D01*
X253154Y353000D01*
X253355Y351813D01*
X253634Y350643D01*
X253990Y349493D01*
X254422Y348371D01*
X254929Y347278D01*
X255507Y346224D01*
X256154Y345210D01*
X256868Y344241D01*
X257645Y343321D01*
X258481Y342456D01*
X259375Y341649D01*
X260318Y340904D01*
X261310Y340223D01*
X262346Y339609D01*
X263420Y339067D01*
X264529Y338596D01*
X265664Y338202D01*
X266826Y337885D01*
X268005Y337644D01*
X269197Y337483D01*
G37*
G36*
X712462Y438362D02*
G01*
X713752Y438422D01*
X715037Y438562D01*
X715448Y438634D01*
X709438Y449045D01*
X699025Y443033D01*
X699261Y442833D01*
X700299Y442064D01*
X701383Y441361D01*
X702510Y440727D01*
X703671Y440163D01*
X704867Y439675D01*
X706090Y439259D01*
X707337Y438922D01*
X708603Y438663D01*
X709882Y438483D01*
X711170Y438382D01*
G37*
G36*
X-29002Y378503D02*
G01*
X-27798Y378503D01*
X-26598Y378584D01*
X-25405Y378744D01*
X-24225Y378984D01*
X-23064Y379301D01*
X-21929Y379697D01*
X-20821Y380167D01*
X-19746Y380709D01*
X-18711Y381322D01*
X-17718Y382004D01*
X-16774Y382750D01*
X-15882Y383557D01*
X-15046Y384421D01*
X-14269Y385340D01*
X-13554Y386309D01*
X-12907Y387323D01*
X-12328Y388378D01*
X-11823Y389470D01*
X-11390Y390594D01*
X-11033Y391743D01*
X-10754Y392912D01*
X-10555Y394099D01*
X-10434Y395297D01*
X-10393Y396500D01*
X-10434Y397703D01*
X-10555Y398899D01*
X-10754Y400086D01*
X-11033Y401257D01*
X-11390Y402406D01*
X-11823Y403528D01*
X-12328Y404621D01*
X-12907Y405675D01*
X-13554Y406689D01*
X-14269Y407658D01*
X-15046Y408577D01*
X-15882Y409443D01*
X-16774Y410250D01*
X-17237Y410616D01*
X-16428Y410896D01*
X-15321Y411367D01*
X-14247Y411909D01*
X-13211Y412523D01*
X-12219Y413204D01*
X-11275Y413949D01*
X-10381Y414756D01*
X-9546Y415621D01*
X-8769Y416541D01*
X-8055Y417509D01*
X-7408Y418523D01*
X-6828Y419578D01*
X-6323Y420670D01*
X-5889Y421793D01*
X-5533Y422943D01*
X-5254Y424112D01*
X-5055Y425300D01*
X-4934Y426496D01*
X-4894Y427699D01*
X-4934Y428903D01*
X-5055Y430099D01*
X-5254Y431286D01*
X-5533Y432456D01*
X-5889Y433605D01*
X-6323Y434728D01*
X-6828Y435821D01*
X-7408Y436875D01*
X-8055Y437889D01*
X-8769Y438858D01*
X-9546Y439778D01*
X-10381Y440643D01*
X-11275Y441449D01*
X-12219Y442195D01*
X-13211Y442876D01*
X-14247Y443490D01*
X-15321Y444032D01*
X-16428Y444502D01*
X-17565Y444897D01*
X-18725Y445214D01*
X-19904Y445455D01*
X-21098Y445616D01*
X-22298Y445695D01*
X-23501Y445695D01*
X-24701Y445616D01*
X-25895Y445455D01*
X-27074Y445214D01*
X-28235Y444897D01*
X-29371Y444502D01*
X-30479Y444032D01*
X-31553Y443490D01*
X-32588Y442876D01*
X-33581Y442195D01*
X-34525Y441449D01*
X-35417Y440643D01*
X-36253Y439778D01*
X-37030Y438858D01*
X-37745Y437889D01*
X-38392Y436875D01*
X-38971Y435821D01*
X-39476Y434728D01*
X-39909Y433605D01*
X-40266Y432456D01*
X-40545Y431286D01*
X-40744Y430099D01*
X-40866Y428903D01*
X-40906Y427699D01*
X-40866Y426496D01*
X-40744Y425300D01*
X-40545Y424112D01*
X-40266Y422943D01*
X-39909Y421793D01*
X-39476Y420670D01*
X-38971Y419578D01*
X-38392Y418523D01*
X-37745Y417509D01*
X-37030Y416541D01*
X-36253Y415621D01*
X-35417Y414756D01*
X-34525Y413949D01*
X-34062Y413584D01*
X-34871Y413303D01*
X-35978Y412833D01*
X-37053Y412289D01*
X-38088Y411676D01*
X-39080Y410996D01*
X-40025Y410250D01*
X-40918Y409443D01*
X-41754Y408577D01*
X-42530Y407658D01*
X-43244Y406689D01*
X-43892Y405675D01*
X-44471Y404621D01*
X-44976Y403528D01*
X-45410Y402406D01*
X-45766Y401257D01*
X-46045Y400086D01*
X-46244Y398899D01*
X-46365Y397703D01*
X-46405Y396500D01*
X-46365Y395297D01*
X-46244Y394099D01*
X-46045Y392912D01*
X-45766Y391743D01*
X-45410Y390594D01*
X-44976Y389470D01*
X-44471Y388378D01*
X-43892Y387323D01*
X-43244Y386309D01*
X-42530Y385340D01*
X-41754Y384421D01*
X-40918Y383557D01*
X-40025Y382750D01*
X-39080Y382004D01*
X-38088Y381322D01*
X-37053Y380709D01*
X-35978Y380167D01*
X-34871Y379697D01*
X-33734Y379301D01*
X-32574Y378984D01*
X-31395Y378744D01*
X-30201Y378584D01*
G37*
G36*
X294498Y398404D02*
G01*
X295702Y398404D01*
X296902Y398483D01*
X298095Y398645D01*
X299273Y398885D01*
X300434Y399202D01*
X301570Y399596D01*
X302678Y400066D01*
X303752Y400610D01*
X304789Y401222D01*
X305780Y401903D01*
X306724Y402649D01*
X307618Y403456D01*
X308454Y404322D01*
X309230Y405241D01*
X309944Y406210D01*
X310591Y407224D01*
X311170Y408278D01*
X311676Y409371D01*
X312110Y410493D01*
X312465Y411642D01*
X312744Y412813D01*
X312944Y414000D01*
X313065Y415196D01*
X313105Y416399D01*
X313065Y417602D01*
X312944Y418800D01*
X312744Y419987D01*
X312465Y421156D01*
X312110Y422305D01*
X311676Y423429D01*
X311170Y424520D01*
X310591Y425576D01*
X309944Y426590D01*
X309230Y427559D01*
X308454Y428478D01*
X307618Y429342D01*
X306724Y430149D01*
X305780Y430895D01*
X304789Y431576D01*
X303752Y432190D01*
X302678Y432732D01*
X301570Y433202D01*
X300434Y433598D01*
X299273Y433915D01*
X298095Y434155D01*
X296902Y434315D01*
X295702Y434396D01*
X294498Y434396D01*
X293297Y434315D01*
X292105Y434155D01*
X290925Y433915D01*
X289764Y433598D01*
X288629Y433202D01*
X287520Y432732D01*
X286446Y432190D01*
X285410Y431576D01*
X284418Y430895D01*
X283474Y430149D01*
X282582Y429342D01*
X281746Y428478D01*
X280968Y427559D01*
X280254Y426590D01*
X279607Y425576D01*
X279029Y424520D01*
X278522Y423429D01*
X278090Y422305D01*
X277734Y421156D01*
X277454Y419987D01*
X277254Y418800D01*
X277133Y417602D01*
X277093Y416399D01*
X277133Y415196D01*
X277254Y414000D01*
X277454Y412813D01*
X277734Y411642D01*
X278090Y410493D01*
X278522Y409371D01*
X279029Y408278D01*
X279607Y407224D01*
X280254Y406210D01*
X280968Y405241D01*
X281746Y404322D01*
X282582Y403456D01*
X283474Y402649D01*
X284418Y401903D01*
X285410Y401222D01*
X286446Y400610D01*
X287520Y400066D01*
X288629Y399596D01*
X289764Y399202D01*
X290925Y398885D01*
X292105Y398645D01*
X293297Y398483D01*
G37*
G36*
X-486602Y189403D02*
G01*
X-485398Y189403D01*
X-484197Y189483D01*
X-483005Y189645D01*
X-481826Y189884D01*
X-480664Y190201D01*
X-479529Y190596D01*
X-478420Y191066D01*
X-477346Y191610D01*
X-476311Y192222D01*
X-475318Y192903D01*
X-474375Y193649D01*
X-473482Y194456D01*
X-472646Y195322D01*
X-471868Y196241D01*
X-471154Y197210D01*
X-470507Y198224D01*
X-469929Y199279D01*
X-469422Y200371D01*
X-468990Y201493D01*
X-468634Y202642D01*
X-468355Y203813D01*
X-468154Y205000D01*
X-468033Y206197D01*
X-467993Y207399D01*
X-468033Y208602D01*
X-468154Y209800D01*
X-468355Y210987D01*
X-468634Y212157D01*
X-468990Y213305D01*
X-469422Y214429D01*
X-469929Y215520D01*
X-470507Y216576D01*
X-471154Y217590D01*
X-471868Y218559D01*
X-472646Y219477D01*
X-473482Y220342D01*
X-474375Y221149D01*
X-475318Y221896D01*
X-476311Y222577D01*
X-477346Y223189D01*
X-478420Y223733D01*
X-479529Y224202D01*
X-480664Y224598D01*
X-481826Y224915D01*
X-483005Y225154D01*
X-484197Y225315D01*
X-485398Y225396D01*
X-486602Y225396D01*
X-487802Y225315D01*
X-488995Y225154D01*
X-490173Y224915D01*
X-491334Y224598D01*
X-492471Y224202D01*
X-493578Y223733D01*
X-494652Y223189D01*
X-495689Y222577D01*
X-496680Y221896D01*
X-497624Y221149D01*
X-498518Y220342D01*
X-499354Y219477D01*
X-500131Y218559D01*
X-500844Y217590D01*
X-501491Y216576D01*
X-502071Y215520D01*
X-502577Y214429D01*
X-503010Y213305D01*
X-503366Y212157D01*
X-503644Y210987D01*
X-503845Y209800D01*
X-503966Y208602D01*
X-504005Y207399D01*
X-503966Y206197D01*
X-503845Y205000D01*
X-503644Y203813D01*
X-503366Y202642D01*
X-503010Y201493D01*
X-502577Y200371D01*
X-502071Y199279D01*
X-501491Y198224D01*
X-500844Y197210D01*
X-500131Y196241D01*
X-499354Y195322D01*
X-498518Y194456D01*
X-497624Y193649D01*
X-496680Y192903D01*
X-495689Y192222D01*
X-494652Y191610D01*
X-493578Y191066D01*
X-492471Y190596D01*
X-491334Y190201D01*
X-490173Y189884D01*
X-488995Y189645D01*
X-487802Y189483D01*
G37*

%LPD*%
G36*
X34863Y175619D02*
G01*
X34245Y176590D01*
X33531Y177559D01*
X32753Y178478D01*
X31917Y179342D01*
X31024Y180149D01*
X30081Y180895D01*
X29088Y181576D01*
X28613Y181858D01*
X28680Y181903D01*
X29624Y182649D01*
X30518Y183456D01*
X31354Y184322D01*
X32130Y185241D01*
X32844Y186210D01*
X33491Y187224D01*
X33549Y187330D01*
X33607Y187224D01*
X34255Y186210D01*
X34969Y185241D01*
X35745Y184322D01*
X36581Y183456D01*
X37474Y182649D01*
X38419Y181903D01*
X39411Y181222D01*
X39880Y180945D01*
X39519Y180695D01*
X38575Y179949D01*
X37681Y179142D01*
X36845Y178278D01*
X36068Y177359D01*
X35354Y176390D01*
G37*

%LPC*%

%LPD*%
G36*
X65249Y176068D02*
G01*
X65045Y176390D01*
X64331Y177359D01*
X63553Y178278D01*
X62717Y179142D01*
X61824Y179949D01*
X60880Y180695D01*
X59889Y181376D01*
X59418Y181655D01*
X59781Y181903D01*
X60725Y182649D01*
X61617Y183456D01*
X62453Y184322D01*
X63230Y185241D01*
X63945Y186210D01*
X64121Y186487D01*
X64555Y185810D01*
X65268Y184841D01*
X66045Y183921D01*
X66881Y183056D01*
X67775Y182249D01*
X68719Y181503D01*
X69474Y180985D01*
X69174Y180749D01*
X68281Y179942D01*
X67445Y179077D01*
X66669Y178159D01*
X65954Y177190D01*
X65307Y176176D01*
G37*

%LPC*%

%LPD*%
D10*
G01*
X542790Y69410D03*
G01*
X654140Y-41950D03*
G01*
X229879Y-243490D03*
G01*
X341240Y-354850D03*
D11*
G01*
X712139Y459130D03*
G01*
X625529Y609149D03*
G01*
X594319Y650889D03*
G01*
X465599Y766799D03*
D12*
G01*
X693299Y55700D03*
D13*
G01*
X693299Y155700D03*
G01*
X693299Y255700D03*
G01*
X693299Y355700D03*
D14*
G01*
X-113400Y557800D03*
G01*
X260509Y-93229D03*
G01*
X239979Y-71359D03*
G01*
X395000Y40500D03*
G01*
X163400Y-180500D03*
G01*
X129600Y-182400D03*
G01*
X-131279Y-291269D03*
G01*
X-130479Y-322770D03*
G01*
X644799Y78600D03*
G01*
X732619Y118629D03*
G01*
X729020Y217629D03*
G01*
X724619Y315830D03*
G01*
X327399Y234600D03*
G01*
X313400Y279299D03*
G01*
X-148000Y460000D03*
G01*
X-83299Y-387400D03*
G01*
X-133100Y129800D03*
G01*
X411700Y661700D03*
G01*
X-28400Y396500D03*
G01*
X-142300Y557699D03*
G01*
X-84099Y557500D03*
G01*
X-54099Y557500D03*
G01*
X153400Y-433099D03*
G01*
X185999Y-427100D03*
G01*
X248199Y-167400D03*
G01*
X-253299Y-242500D03*
G01*
X307899Y-35999D03*
G01*
X282699Y-3400D03*
G01*
X316099Y13800D03*
G01*
X77799Y346399D03*
G01*
X426199Y790700D03*
G01*
X642600Y483600D03*
G01*
X-144099Y-383400D03*
G01*
X550999Y498899D03*
G01*
X288099Y255900D03*
G01*
X-399300Y428200D03*
G01*
X-399300Y460199D03*
G01*
X-399300Y492199D03*
G01*
X-474099Y423699D03*
G01*
X-474099Y455700D03*
G01*
X-474099Y487699D03*
G01*
X-474099Y519699D03*
G01*
X-474099Y551700D03*
G01*
X-465600Y585000D03*
G01*
X-443299Y610099D03*
G01*
X-393400Y565700D03*
G01*
X-432300Y640300D03*
G01*
X-410299Y669000D03*
G01*
X-326999Y520399D03*
G01*
X-305000Y499899D03*
G01*
X-284300Y478499D03*
G01*
X-273800Y451500D03*
G01*
X-274300Y423499D03*
G01*
X219719Y-178989D03*
G01*
X-486000Y207399D03*
G01*
X-530699Y207399D03*
G01*
X-134300Y-43400D03*
G01*
X75999Y-143600D03*
G01*
X-364099Y-128299D03*
G01*
X-379099Y-159200D03*
G01*
X-337799Y-101300D03*
G01*
X-304600Y-119800D03*
G01*
X-305299Y-87400D03*
G01*
X-273400Y-104400D03*
G01*
X-83699Y-44699D03*
G01*
X486099Y186399D03*
G01*
X470699Y157500D03*
G01*
X36199Y115999D03*
G01*
X18000Y196399D03*
G01*
X49099Y196399D03*
G01*
X79399Y195999D03*
G01*
X19399Y166399D03*
G01*
X50199Y166199D03*
G01*
X80799Y166999D03*
G01*
X609600Y393899D03*
G01*
X91700Y468099D03*
G01*
X128699Y468600D03*
G01*
X129200Y437100D03*
G01*
X91899Y437699D03*
G01*
X464200Y522300D03*
G01*
X463599Y461999D03*
G01*
X464099Y492199D03*
G01*
X-100299Y202199D03*
G01*
X-22899Y427699D03*
G01*
X242100Y254800D03*
G01*
X295100Y416399D03*
G01*
X-77300Y108699D03*
G01*
X270999Y355399D03*
G01*
X309399Y355199D03*
G01*
X18499Y-9299D03*
G01*
X265299Y185500D03*
G01*
X-6800Y-31900D03*
G01*
X233000Y192100D03*
G01*
X-60299Y505599D03*
G01*
X-28100Y505599D03*
G01*
X4300Y505700D03*
G01*
X456220Y76529D03*
G01*
X79300Y495700D03*
G01*
X263400Y493600D03*
G01*
X279799Y530799D03*
G01*
X609499Y67199D03*
G01*
X-223800Y56599D03*
G01*
X900Y565000D03*
G01*
X-4859Y86030D03*
G01*
X195000Y116500D03*
G01*
X163599Y117899D03*
G01*
X129300Y117899D03*
G01*
X-340399Y42899D03*
G01*
X-30600Y167500D03*
G01*
X659600Y295099D03*
G01*
X649799Y325799D03*
G01*
X446999Y616599D03*
G01*
X398199Y480799D03*
G01*
X758499Y187500D03*
G01*
X553299Y705999D03*
G01*
X-522600Y3099D03*
M02*
