G04 Layer: BottomLayer*
G04 EasyEDA v6.5.22, 2023-01-25 14:37:09*
G04 a2e63df7a23446a2ae1eb019cd18a306,9a4ed40c0dd746429eaf55b84663d2fb,10*
G04 Gerber Generator version 0.2*
G04 Scale: 100 percent, Rotated: No, Reflected: No *
G04 Dimensions in inches *
G04 leading zeros omitted , absolute positions ,3 integer and 6 decimal *
%FSLAX36Y36*%
%MOIN*%

%AMMACRO1*21,1,$1,$2,0,0,$3*%
%AMMACRO2*1,1,$1,$2,$3*1,1,$1,$4,$5*20,1,$1,$2,$3,$4,$5,0*%
%ADD10C,0.0150*%
%ADD11C,0.0070*%
%ADD12C,0.0084*%
%ADD13C,0.0060*%
%ADD14C,0.0080*%
%ADD15C,0.0160*%
%ADD16C,0.0140*%
%ADD17C,0.0120*%
%ADD18C,0.0100*%
%ADD19C,0.0220*%
%ADD20C,0.0244*%
%ADD21C,0.0124*%
%ADD22C,0.0090*%
%ADD23C,0.0083*%
%ADD24C,0.0143*%
%ADD25MACRO1,0.0118X0.0512X0.0000*%
%ADD26MACRO1,0.0118X0.0787X-90.0000*%
%ADD27R,0.0213X0.0223*%
%ADD28MACRO1,0.0213X0.0223X0.0000*%
%ADD29MACRO1,0.0213X0.0223X-90.0000*%
%ADD30MACRO1,0.0213X0.0223X90.0000*%
%ADD31R,0.0128X0.0119*%
%ADD32MACRO1,0.0128X0.0119X0.0000*%
%ADD33MACRO1,0.0128X0.0119X90.0000*%
%ADD34R,0.0128X0.0145*%
%ADD35MACRO1,0.0128X0.0145X0.0000*%
%ADD36MACRO1,0.0128X0.0145X-90.0000*%
%ADD37MACRO1,0.0128X0.0119X-135.0000*%
%ADD38MACRO1,0.0128X0.0119X45.0032*%
%ADD39MACRO1,0.0394X0.0236X-90.0000*%
%ADD40MACRO1,0.0709X0.0276X-90.0000*%
%ADD41O,0.059054999999999996X0.015747999999999998*%
%ADD42MACRO1,0.0118X0.0433X-134.9931*%
%ADD43MACRO1,0.0118X0.0433X-135.0103*%
%ADD44MACRO1,0.0118X0.0433X-134.9966*%
%ADD45MACRO1,0.0119X0.0433X-134.9966*%
%ADD46MACRO1,0.0118X0.0433X-135.0034*%
%ADD47MACRO1,0.0118X0.0433X-135.0000*%
%ADD48MACRO1,0.0119X0.0433X-135.0000*%
%ADD49MACRO1,0.0118X0.0433X-135.0069*%
%ADD50MACRO1,0.0119X0.0433X-134.9932*%
%ADD51MACRO1,0.0492X0.0276X90.0000*%
%ADD52MACRO1,0.0128X0.0119X-90.0000*%
%ADD53MACRO1,0.0213X0.0311X-90.0000*%
%ADD54MACRO1,0.0213X0.0311X90.0000*%
%ADD55R,0.0213X0.0311*%
%ADD56MACRO1,0.0213X0.0311X0.0000*%
%ADD57MACRO1,0.0315X0.0315X0.0000*%
%ADD58MACRO1,0.0866X0.0433X0.0000*%
%ADD59MACRO1,0.0413X0.0394X90.0000*%
%ADD60MACRO1,0.0394X0.0217X90.0000*%
%ADD61MACRO1,0.0492X0.0276X0.0000*%
%ADD62O,0.027559X0.069803*%
%ADD63MACRO1,0.0265X0.062X90.0000*%
%ADD64MACRO1,0.0236X0.0157X-59.9997*%
%ADD65MACRO1,0.0394X0.0138X-60.0004*%
%ADD66MACRO1,0.0374X0.0252X-59.9999*%
%ADD67MACRO1,0.0236X0.0157X-41.9989*%
%ADD68MACRO1,0.0236X0.0157X-42.0006*%
%ADD69MACRO1,0.0394X0.0138X-42.0000*%
%ADD70MACRO1,0.0374X0.0252X-41.9992*%
%ADD71MACRO1,0.0374X0.0252X-42.0003*%
%ADD72MACRO2,0.0472X-0.0139X0.0139X0.0139X-0.0139*%
%ADD73C,0.0295*%
%ADD74R,0.0669X0.0669*%
%ADD75C,0.0669*%
%ADD76C,0.0240*%
%ADD77C,0.0152*%

%LPD*%
G36*
X602060Y378620D02*
G01*
X600960Y378760D01*
X598760Y379400D01*
X595420Y379720D01*
X577420Y379720D01*
X575880Y380000D01*
X574580Y380880D01*
X573720Y382180D01*
X573420Y383720D01*
X573420Y384640D01*
X563900Y384640D01*
X562360Y384920D01*
X561060Y385820D01*
X560200Y387100D01*
X559900Y388640D01*
X559920Y391560D01*
X560220Y393060D01*
X561100Y394360D01*
X562400Y395240D01*
X563920Y395520D01*
X573420Y395520D01*
X573420Y412180D01*
X564080Y412180D01*
X562540Y412480D01*
X561240Y413360D01*
X560380Y414680D01*
X560080Y416220D01*
X560100Y419120D01*
X560420Y420640D01*
X561280Y421920D01*
X562580Y422800D01*
X564100Y423100D01*
X573420Y423100D01*
X573420Y428320D01*
X573720Y429840D01*
X574580Y431120D01*
X575860Y432000D01*
X577380Y432299D01*
X613740Y432640D01*
X615300Y432360D01*
X616600Y431480D01*
X617480Y430180D01*
X617780Y428640D01*
X617780Y423100D01*
X628280Y423100D01*
X629700Y422819D01*
X630940Y422060D01*
X631820Y420920D01*
X632240Y419540D01*
X632580Y416640D01*
X632420Y414960D01*
X631600Y413519D01*
X630240Y412540D01*
X628620Y412180D01*
X617780Y412180D01*
X617780Y395520D01*
X631480Y395520D01*
X632900Y395280D01*
X634140Y394520D01*
X635040Y393360D01*
X635460Y392000D01*
X635800Y389099D01*
X635640Y387400D01*
X634820Y385959D01*
X633460Y384960D01*
X631820Y384640D01*
X617780Y384640D01*
X617780Y382620D01*
X617480Y381079D01*
X616620Y379780D01*
X615320Y378940D01*
X613780Y378620D01*
G37*

%LPD*%
G36*
X-397400Y325180D02*
G01*
X-398940Y325500D01*
X-400240Y326380D01*
X-401100Y327660D01*
X-401400Y329180D01*
X-401400Y345860D01*
X-407340Y345860D01*
X-408880Y346200D01*
X-410160Y347040D01*
X-411040Y348360D01*
X-411340Y349880D01*
X-411340Y381780D01*
X-411040Y383320D01*
X-410160Y384600D01*
X-408880Y385480D01*
X-407340Y385760D01*
X-401400Y385760D01*
X-401400Y408960D01*
X-405120Y407020D01*
X-408240Y404580D01*
X-410660Y401980D01*
X-411940Y401040D01*
X-413480Y400680D01*
X-415060Y400940D01*
X-416380Y401820D01*
X-417280Y403120D01*
X-417600Y404680D01*
X-417600Y408800D01*
X-417879Y409480D01*
X-418860Y410480D01*
X-419739Y411780D01*
X-420040Y413300D01*
X-420040Y451019D01*
X-419880Y452100D01*
X-418860Y454020D01*
X-418100Y456200D01*
X-417819Y458680D01*
X-417819Y472740D01*
X-418180Y476100D01*
X-418160Y477340D01*
X-417819Y480280D01*
X-417819Y494320D01*
X-418100Y496820D01*
X-418860Y498960D01*
X-419880Y500880D01*
X-420040Y502000D01*
X-420040Y509640D01*
X-419739Y511140D01*
X-418860Y512440D01*
X-417560Y513320D01*
X-416040Y513620D01*
X-404480Y513620D01*
X-401980Y513920D01*
X-399840Y514660D01*
X-397860Y515700D01*
X-396760Y515860D01*
X-390980Y515860D01*
X-389460Y515560D01*
X-388160Y514700D01*
X-320780Y447299D01*
X-319900Y446019D01*
X-319600Y444480D01*
X-319600Y409180D01*
X-319900Y407660D01*
X-320780Y406380D01*
X-322060Y405500D01*
X-323600Y405180D01*
X-331900Y405180D01*
X-333200Y405420D01*
X-334360Y406060D01*
X-335600Y407020D01*
X-339080Y408900D01*
X-342819Y410180D01*
X-346719Y410840D01*
X-350680Y410840D01*
X-354600Y410180D01*
X-358340Y408900D01*
X-361820Y407020D01*
X-363060Y406060D01*
X-364219Y405420D01*
X-365520Y405180D01*
X-369200Y405180D01*
X-370620Y404360D01*
X-372200Y403620D01*
X-373940Y403620D01*
X-375520Y404360D01*
X-378900Y407020D01*
X-382620Y408960D01*
X-382620Y385760D01*
X-376680Y385760D01*
X-375160Y385480D01*
X-373860Y384600D01*
X-373000Y383320D01*
X-372680Y381780D01*
X-372680Y349880D01*
X-373000Y348360D01*
X-373860Y347040D01*
X-375160Y346200D01*
X-376680Y345860D01*
X-382620Y345860D01*
X-382620Y329180D01*
X-382920Y327660D01*
X-383800Y326380D01*
X-385100Y325500D01*
X-386620Y325180D01*
G37*

%LPD*%
G36*
X-498880Y319500D02*
G01*
X-500620Y319900D01*
X-502000Y321000D01*
X-522060Y345860D01*
X-522700Y346980D01*
X-522939Y348220D01*
X-524700Y397540D01*
X-522000Y497960D01*
X-521840Y524840D01*
X-521480Y526440D01*
X-520340Y528960D01*
X-510000Y549760D01*
X-498980Y570240D01*
X-487280Y590300D01*
X-474900Y609940D01*
X-461900Y629180D01*
X-448240Y647980D01*
X-433980Y666320D01*
X-419099Y684160D01*
X-403640Y701500D01*
X-387600Y718319D01*
X-371019Y734580D01*
X-368440Y736960D01*
X-367200Y737740D01*
X-365740Y737980D01*
X-283760Y737980D01*
X-282220Y737680D01*
X-280920Y736840D01*
X-237060Y692960D01*
X-236180Y691640D01*
X-235880Y690120D01*
X-235880Y650540D01*
X-236240Y648880D01*
X-237280Y647500D01*
X-238780Y646680D01*
X-240479Y646600D01*
X-242079Y647200D01*
X-243460Y648720D01*
X-245080Y650320D01*
X-247000Y651560D01*
X-249140Y652280D01*
X-251640Y652580D01*
X-258760Y652580D01*
X-258760Y634520D01*
X-239700Y634520D01*
X-238280Y634280D01*
X-237040Y633540D01*
X-236160Y632400D01*
X-235720Y631040D01*
X-235560Y629720D01*
X-234740Y627540D01*
X-233340Y625500D01*
X-232160Y624320D01*
X-230740Y623260D01*
X-228560Y622280D01*
X-225620Y621820D01*
X-172079Y621820D01*
X-170560Y621520D01*
X-169280Y620680D01*
X-168400Y619380D01*
X-168080Y617860D01*
X-166740Y473020D01*
X-167120Y471300D01*
X-168840Y467600D01*
X-169840Y463840D01*
X-170180Y459980D01*
X-169840Y456140D01*
X-168840Y452400D01*
X-166680Y447819D01*
X-166500Y446659D01*
X-166200Y414360D01*
X-166560Y412680D01*
X-167600Y411280D01*
X-169120Y410480D01*
X-170859Y410379D01*
X-173500Y410840D01*
X-177460Y410840D01*
X-181360Y410180D01*
X-185100Y408900D01*
X-188580Y407020D01*
X-191820Y404460D01*
X-193120Y403540D01*
X-194660Y403180D01*
X-199259Y403020D01*
X-200920Y403360D01*
X-205680Y407020D01*
X-209160Y408900D01*
X-212900Y410180D01*
X-216800Y410840D01*
X-220760Y410840D01*
X-224660Y410180D01*
X-228420Y408900D01*
X-231900Y407020D01*
X-235020Y404580D01*
X-236200Y403300D01*
X-237540Y402340D01*
X-239160Y402000D01*
X-241720Y402000D01*
X-243340Y402340D01*
X-244680Y403300D01*
X-245859Y404580D01*
X-248980Y407020D01*
X-252460Y408900D01*
X-256200Y410180D01*
X-260120Y410840D01*
X-264080Y410840D01*
X-267980Y410180D01*
X-271720Y408900D01*
X-275200Y407020D01*
X-277580Y405160D01*
X-278940Y403940D01*
X-279520Y403300D01*
X-280860Y402340D01*
X-282460Y402000D01*
X-284600Y402000D01*
X-286140Y402299D01*
X-288440Y403800D01*
X-289780Y405100D01*
X-290700Y406420D01*
X-291020Y407980D01*
X-291020Y452020D01*
X-291300Y455040D01*
X-292120Y457720D01*
X-293460Y460180D01*
X-295360Y462540D01*
X-356800Y523960D01*
X-357660Y525280D01*
X-357960Y526800D01*
X-357660Y528340D01*
X-356800Y529600D01*
X-355500Y530480D01*
X-353960Y530800D01*
X-351340Y530800D01*
X-351340Y549320D01*
X-380920Y549320D01*
X-381760Y547880D01*
X-383100Y546920D01*
X-384700Y546600D01*
X-396840Y546600D01*
X-398380Y546900D01*
X-399680Y547780D01*
X-402320Y550440D01*
X-403000Y550680D01*
X-414739Y550680D01*
X-416260Y551020D01*
X-417560Y551860D01*
X-418440Y553180D01*
X-418740Y554700D01*
X-418740Y564300D01*
X-418440Y565840D01*
X-417560Y567140D01*
X-395020Y589680D01*
X-393720Y590520D01*
X-392200Y590840D01*
X-384420Y590840D01*
X-382780Y590480D01*
X-381440Y589520D01*
X-380600Y588040D01*
X-380439Y586400D01*
X-380700Y584080D01*
X-380700Y575960D01*
X-351340Y575960D01*
X-351340Y582020D01*
X-351040Y583560D01*
X-350160Y584860D01*
X-348860Y585700D01*
X-347320Y586020D01*
X-307020Y585680D01*
X-305480Y585380D01*
X-304200Y584520D01*
X-303340Y583200D01*
X-303040Y581680D01*
X-303040Y575960D01*
X-284180Y575960D01*
X-282800Y575720D01*
X-281600Y575040D01*
X-280700Y573940D01*
X-280220Y572620D01*
X-280100Y571880D01*
X-279720Y573620D01*
X-278840Y574880D01*
X-277560Y575680D01*
X-276080Y575960D01*
X-273680Y575960D01*
X-273680Y582820D01*
X-275340Y582820D01*
X-276920Y583160D01*
X-278240Y584080D01*
X-279100Y585460D01*
X-279340Y587020D01*
X-275920Y656780D01*
X-275580Y658199D01*
X-274740Y659400D01*
X-273680Y660120D01*
X-273680Y667420D01*
X-303040Y667420D01*
X-303040Y661080D01*
X-303340Y659539D01*
X-304200Y658259D01*
X-305500Y657400D01*
X-307020Y657080D01*
X-347340Y656960D01*
X-348880Y657240D01*
X-350180Y658139D01*
X-351040Y659419D01*
X-351360Y660939D01*
X-351360Y667420D01*
X-380700Y667420D01*
X-380700Y659340D01*
X-380500Y657500D01*
X-380660Y655860D01*
X-381460Y654419D01*
X-382780Y653420D01*
X-384400Y653060D01*
X-403140Y652720D01*
X-405260Y652280D01*
X-407400Y651560D01*
X-409320Y650320D01*
X-410940Y648720D01*
X-412160Y646800D01*
X-412900Y644640D01*
X-413180Y642159D01*
X-413180Y613780D01*
X-413500Y612240D01*
X-414360Y610940D01*
X-443120Y582200D01*
X-445020Y579880D01*
X-446360Y577400D01*
X-447180Y574700D01*
X-447460Y571700D01*
X-447460Y557040D01*
X-447540Y556260D01*
X-450560Y540800D01*
X-450959Y539700D01*
X-452120Y538180D01*
X-452200Y537800D01*
X-452200Y523380D01*
X-450800Y521180D01*
X-450500Y519660D01*
X-450500Y498040D01*
X-450980Y494320D01*
X-450980Y480280D01*
X-450620Y476880D01*
X-450640Y475680D01*
X-450980Y472740D01*
X-450980Y458680D01*
X-450500Y454940D01*
X-450500Y407280D01*
X-450780Y405840D01*
X-451560Y404560D01*
X-454040Y401880D01*
X-455360Y400920D01*
X-456980Y400600D01*
X-458579Y400920D01*
X-459920Y401880D01*
X-462400Y404580D01*
X-465520Y407020D01*
X-469240Y408960D01*
X-469240Y385760D01*
X-463300Y385760D01*
X-461760Y385480D01*
X-460480Y384600D01*
X-459600Y383320D01*
X-459300Y381780D01*
X-459300Y349880D01*
X-459600Y348360D01*
X-460480Y347040D01*
X-461760Y346200D01*
X-463300Y345860D01*
X-469240Y345860D01*
X-469240Y323500D01*
X-469540Y321980D01*
X-470400Y320680D01*
X-471700Y319800D01*
X-473240Y319500D01*
X-484020Y319500D01*
X-485540Y319800D01*
X-486840Y320680D01*
X-487720Y321980D01*
X-488020Y323500D01*
X-488020Y345860D01*
X-502600Y345860D01*
X-502600Y344880D01*
X-502260Y340760D01*
X-501300Y336920D01*
X-499700Y333320D01*
X-497540Y329980D01*
X-494860Y327060D01*
X-494320Y326640D01*
X-493260Y325420D01*
X-492800Y323820D01*
X-493000Y322220D01*
X-493840Y320800D01*
X-495180Y319840D01*
X-496780Y319500D01*
G37*

%LPC*%
G36*
X-502600Y385760D02*
G01*
X-488020Y385760D01*
X-488020Y408960D01*
X-491740Y407020D01*
X-494860Y404580D01*
X-497540Y401659D01*
X-499700Y398360D01*
X-501300Y394720D01*
X-502260Y390880D01*
X-502600Y386800D01*
G37*
G36*
X-303040Y530800D02*
G01*
X-284120Y530800D01*
X-281320Y531100D01*
X-280780Y531060D01*
X-277540Y533020D01*
X-275940Y534660D01*
X-274720Y536580D01*
X-273960Y538740D01*
X-273680Y541220D01*
X-273680Y549320D01*
X-277000Y549320D01*
X-278580Y549660D01*
X-279000Y549940D01*
X-279340Y549700D01*
X-281020Y549320D01*
X-303040Y549320D01*
G37*
G36*
X-258760Y590840D02*
G01*
X-251640Y590840D01*
X-249140Y591100D01*
X-247000Y591860D01*
X-245080Y593100D01*
X-243460Y594700D01*
X-242240Y596640D01*
X-241500Y598760D01*
X-241220Y601260D01*
X-241220Y608880D01*
X-258760Y608880D01*
G37*
G36*
X-380700Y694100D02*
G01*
X-351360Y694100D01*
X-351360Y712600D01*
X-370280Y712600D01*
X-372760Y712340D01*
X-374920Y711580D01*
X-376840Y710360D01*
X-378459Y708760D01*
X-379680Y706840D01*
X-380420Y704680D01*
X-380700Y702200D01*
G37*
G36*
X-303040Y694100D02*
G01*
X-273680Y694100D01*
X-273680Y702200D01*
X-273980Y704680D01*
X-274720Y706840D01*
X-275940Y708760D01*
X-277540Y710360D01*
X-279480Y711580D01*
X-281620Y712340D01*
X-284120Y712600D01*
X-303040Y712600D01*
G37*

%LPD*%
G36*
X-3300Y148140D02*
G01*
X-4880Y148440D01*
X-6200Y149340D01*
X-7060Y150700D01*
X-7320Y152280D01*
X-4760Y213220D01*
X-4420Y214700D01*
X-3560Y215920D01*
X-2300Y216759D01*
X-840Y217060D01*
X9440Y217240D01*
X189440Y217240D01*
X191000Y216920D01*
X192320Y216040D01*
X193180Y214680D01*
X193440Y213100D01*
X192880Y199320D01*
X192460Y197659D01*
X191420Y196380D01*
X189920Y195620D01*
X188240Y195500D01*
X186680Y196119D01*
X185500Y197340D01*
X184060Y199640D01*
X182440Y201260D01*
X180520Y202440D01*
X178380Y203200D01*
X175880Y203500D01*
X163100Y203500D01*
X163100Y189160D01*
X188320Y189160D01*
X189880Y188840D01*
X191200Y187960D01*
X192060Y186600D01*
X192320Y185000D01*
X191920Y174780D01*
X191560Y173320D01*
X190680Y172060D01*
X189420Y171240D01*
X187920Y170940D01*
X163100Y170940D01*
X163100Y169420D01*
X162800Y167880D01*
X161920Y166600D01*
X160600Y165720D01*
X159060Y165440D01*
X131060Y165700D01*
X129540Y166040D01*
X128260Y166880D01*
X127400Y168180D01*
X127100Y169720D01*
X127100Y170940D01*
X103900Y170940D01*
X103900Y167040D01*
X104179Y164560D01*
X104940Y162399D01*
X105760Y160520D01*
X105740Y158960D01*
X105120Y157580D01*
X100280Y150620D01*
X99400Y149700D01*
X98280Y149100D01*
X97020Y148900D01*
G37*

%LPC*%
G36*
X103900Y189160D02*
G01*
X127100Y189160D01*
X127100Y203500D01*
X114320Y203500D01*
X111840Y203200D01*
X109680Y202440D01*
X107760Y201260D01*
X106140Y199640D01*
X104940Y197719D01*
X104179Y195539D01*
X103900Y193060D01*
G37*

%LPD*%
G36*
X202659Y80600D02*
G01*
X201119Y80900D01*
X199820Y81780D01*
X176780Y104840D01*
X176100Y105100D01*
X101460Y105100D01*
X97540Y105180D01*
X86039Y105180D01*
X80580Y105040D01*
X78960Y105320D01*
X77580Y106260D01*
X76700Y107640D01*
X76460Y109280D01*
X77200Y121400D01*
X77580Y122860D01*
X78500Y124100D01*
X91560Y136060D01*
X92800Y136820D01*
X94260Y137080D01*
X173800Y137080D01*
X174480Y137380D01*
X178720Y141640D01*
X179760Y142380D01*
X180980Y142760D01*
X182380Y143060D01*
X197320Y158020D01*
X198619Y158900D01*
X200159Y159180D01*
X314880Y159180D01*
X315960Y159060D01*
X317400Y158520D01*
X327160Y158940D01*
X328740Y158680D01*
X330080Y157820D01*
X331000Y156500D01*
X331320Y154940D01*
X331780Y85640D01*
X331480Y84100D01*
X330620Y82780D01*
X329320Y81900D01*
X327780Y81600D01*
X216400Y81600D01*
X214579Y80760D01*
X213420Y80600D01*
G37*

%LPD*%
G36*
X116199Y18180D02*
G01*
X114660Y18520D01*
X113379Y19360D01*
X112500Y20680D01*
X112200Y22200D01*
X112200Y34520D01*
X112500Y36060D01*
X113379Y37360D01*
X114660Y38200D01*
X116199Y38540D01*
X127100Y38540D01*
X127100Y52820D01*
X116199Y52820D01*
X114660Y53160D01*
X113379Y54000D01*
X112500Y55300D01*
X112200Y56820D01*
X112200Y67060D01*
X112500Y68580D01*
X113379Y69900D01*
X114660Y70740D01*
X116199Y71060D01*
X127100Y71060D01*
X127100Y71800D01*
X127400Y73320D01*
X128240Y74580D01*
X129500Y75480D01*
X131020Y75800D01*
X159020Y76400D01*
X160580Y76100D01*
X161900Y75260D01*
X162800Y73940D01*
X163100Y72400D01*
X163100Y71060D01*
X173900Y71060D01*
X175440Y70740D01*
X176720Y69900D01*
X177600Y68580D01*
X177900Y67060D01*
X177900Y56820D01*
X177600Y55300D01*
X176720Y54000D01*
X175440Y53160D01*
X173900Y52820D01*
X163100Y52820D01*
X163100Y38540D01*
X173900Y38540D01*
X175440Y38200D01*
X176720Y37360D01*
X177600Y36060D01*
X177900Y34520D01*
X177900Y22200D01*
X177600Y20680D01*
X176720Y19360D01*
X175440Y18520D01*
X173900Y18180D01*
G37*

%LPD*%
G36*
X-396540Y-178720D02*
G01*
X-397740Y-178520D01*
X-399400Y-177580D01*
X-400319Y-176700D01*
X-400900Y-175600D01*
X-401120Y-174320D01*
X-401700Y-118320D01*
X-401360Y-116640D01*
X-400379Y-115280D01*
X-398920Y-114460D01*
X-397239Y-114300D01*
X-395060Y-114520D01*
X-390020Y-114520D01*
X-390020Y-101500D01*
X-392900Y-101500D01*
X-394440Y-101220D01*
X-395740Y-100340D01*
X-396599Y-99060D01*
X-396900Y-97520D01*
X-396900Y-89900D01*
X-396599Y-88360D01*
X-395740Y-87040D01*
X-394440Y-86199D01*
X-392900Y-85879D01*
X-390020Y-85879D01*
X-390020Y-80620D01*
X-389720Y-79080D01*
X-388840Y-77780D01*
X-387540Y-76900D01*
X-386019Y-76620D01*
X-373459Y-76620D01*
X-371940Y-76900D01*
X-370640Y-77780D01*
X-369760Y-79080D01*
X-369460Y-80620D01*
X-369460Y-85879D01*
X-353980Y-85879D01*
X-353980Y-83300D01*
X-354240Y-81060D01*
X-354080Y-79380D01*
X-353240Y-77940D01*
X-351900Y-76960D01*
X-350260Y-76620D01*
X-334860Y-76620D01*
X-333519Y-76820D01*
X-332320Y-77520D01*
X-330220Y-79240D01*
X-329240Y-79740D01*
X-328060Y-80719D01*
X-327320Y-82080D01*
X-327160Y-83620D01*
X-327480Y-87400D01*
X-327140Y-91240D01*
X-325600Y-97040D01*
X-325600Y-112240D01*
X-325740Y-113300D01*
X-326440Y-115940D01*
X-326780Y-119820D01*
X-326440Y-123660D01*
X-325740Y-126300D01*
X-325600Y-127360D01*
X-325600Y-137060D01*
X-325900Y-138600D01*
X-326780Y-139900D01*
X-328060Y-140780D01*
X-329600Y-141060D01*
X-332280Y-141060D01*
X-332280Y-154100D01*
X-329600Y-154100D01*
X-328060Y-154380D01*
X-326780Y-155260D01*
X-325900Y-156560D01*
X-325600Y-158100D01*
X-325600Y-165700D01*
X-325900Y-167240D01*
X-326780Y-168560D01*
X-328060Y-169400D01*
X-329600Y-169720D01*
X-332280Y-169720D01*
X-332280Y-174720D01*
X-332580Y-176240D01*
X-333459Y-177540D01*
X-334760Y-178380D01*
X-336280Y-178720D01*
X-348840Y-178720D01*
X-350360Y-178380D01*
X-351659Y-177540D01*
X-352540Y-176240D01*
X-352840Y-174720D01*
X-352840Y-169720D01*
X-368320Y-169720D01*
X-368320Y-172320D01*
X-368100Y-174259D01*
X-368260Y-175900D01*
X-369080Y-177380D01*
X-370439Y-178359D01*
X-372060Y-178720D01*
G37*

%LPC*%
G36*
X-368320Y-154100D02*
G01*
X-352840Y-154100D01*
X-352840Y-141060D01*
X-357879Y-141060D01*
X-360379Y-141360D01*
X-362520Y-142120D01*
X-364460Y-143320D01*
X-366060Y-144920D01*
X-367280Y-146840D01*
X-368040Y-149000D01*
X-368320Y-151480D01*
G37*
G36*
X-369460Y-114520D02*
G01*
X-364420Y-114520D01*
X-361920Y-114260D01*
X-359780Y-113500D01*
X-357840Y-112280D01*
X-356240Y-110680D01*
X-355020Y-108740D01*
X-354260Y-106600D01*
X-353980Y-104120D01*
X-353980Y-101500D01*
X-369460Y-101500D01*
G37*

%LPD*%
G36*
X-305840Y-179120D02*
G01*
X-307400Y-178820D01*
X-308720Y-177979D01*
X-309600Y-176660D01*
X-309920Y-175100D01*
X-309920Y-169720D01*
X-311400Y-169720D01*
X-312940Y-169400D01*
X-314220Y-168560D01*
X-315100Y-167240D01*
X-315400Y-165700D01*
X-315400Y-158100D01*
X-315100Y-156560D01*
X-314220Y-155260D01*
X-312940Y-154380D01*
X-311400Y-154100D01*
X-309920Y-154100D01*
X-309920Y-141060D01*
X-311400Y-141060D01*
X-312940Y-140780D01*
X-314220Y-139900D01*
X-315100Y-138600D01*
X-315400Y-137060D01*
X-315400Y-77260D01*
X-315100Y-75740D01*
X-314240Y-74460D01*
X-312940Y-73580D01*
X-311420Y-73280D01*
X-263460Y-73020D01*
X-261940Y-73320D01*
X-260640Y-74160D01*
X-259760Y-75440D01*
X-259440Y-76960D01*
X-259200Y-91160D01*
X-260060Y-166200D01*
X-260380Y-167719D01*
X-261240Y-168980D01*
X-262540Y-169860D01*
X-264060Y-170140D01*
X-269880Y-170140D01*
X-270820Y-170040D01*
X-271700Y-169720D01*
X-289360Y-169720D01*
X-289740Y-171480D01*
X-290820Y-172860D01*
X-292820Y-174520D01*
X-296140Y-177800D01*
X-297400Y-178680D01*
X-298880Y-178980D01*
G37*

%LPC*%
G36*
X-289360Y-154100D02*
G01*
X-273880Y-154100D01*
X-273880Y-151480D01*
X-274160Y-149000D01*
X-274920Y-146840D01*
X-276140Y-144920D01*
X-277740Y-143320D01*
X-279680Y-142120D01*
X-281820Y-141360D01*
X-284320Y-141060D01*
X-289360Y-141060D01*
G37*

%LPD*%
G36*
X99840Y-465600D02*
G01*
X90540Y-465319D01*
X89019Y-465000D01*
X87739Y-464099D01*
X86920Y-462760D01*
X86660Y-461220D01*
X88660Y-397440D01*
X88940Y-396079D01*
X89660Y-394900D01*
X105120Y-377540D01*
X106460Y-376560D01*
X108080Y-376200D01*
X176240Y-375500D01*
X262160Y-376200D01*
X263020Y-376280D01*
X272600Y-378500D01*
X273840Y-379000D01*
X274820Y-379900D01*
X275480Y-381060D01*
X275700Y-382400D01*
X275700Y-427560D01*
X275400Y-429080D01*
X274520Y-430360D01*
X266600Y-438320D01*
X265620Y-439040D01*
X264460Y-439400D01*
X253060Y-441500D01*
X228020Y-453040D01*
X223039Y-455700D01*
X221840Y-456120D01*
X215560Y-457220D01*
X192560Y-460460D01*
X169460Y-462900D01*
X146280Y-464560D01*
X123080Y-465480D01*
G37*

%LPD*%
G36*
X433200Y90100D02*
G01*
X415600Y74000D01*
X420900Y41600D01*
X449380Y13220D01*
X468100Y30500D01*
X485800Y50100D01*
X499600Y62900D01*
X483000Y80000D01*
X478400Y83800D01*
X471100Y89000D01*
G37*
G36*
X97960Y-148700D02*
G01*
X97800Y-150700D01*
X97960Y-150700D01*
G37*
G36*
X255820Y-116359D02*
G01*
X191439Y-177360D01*
X210240Y-195859D01*
X223939Y-197240D01*
X232340Y-194940D01*
X245420Y-187560D01*
X265120Y-167040D01*
X286960Y-147300D01*
X284720Y-145660D01*
G37*
G36*
X449380Y13220D02*
G01*
X448600Y12500D01*
X450500Y12100D01*
G37*
G36*
X-150300Y-160400D02*
G01*
X-175700Y-160700D01*
X-175700Y-203600D01*
X-170900Y-204100D01*
X-164300Y-203900D01*
X-159700Y-204000D01*
X-152500Y-203600D01*
X-150800Y-203200D01*
X-149800Y-201500D01*
X-117700Y-195200D01*
X-86199Y-193400D01*
X-70500Y-193500D01*
X-55000Y-195799D01*
X-24800Y-201200D01*
X-24000Y-200400D01*
X-24000Y-173299D01*
X-24500Y-172800D01*
X-148800Y-172800D01*
X-149800Y-171800D01*
X-149800Y-160900D01*
G37*
G36*
X-118580Y-268560D02*
G01*
X-119980Y-269960D01*
X-175980Y-269960D01*
X-175580Y-270360D01*
X-175580Y-338180D01*
X-174780Y-337380D01*
X-117880Y-338180D01*
X-118580Y-337460D01*
G37*
G36*
X140100Y-148800D02*
G01*
X118600Y-149900D01*
X97960Y-150700D01*
X97960Y-197900D01*
X97840Y-198000D01*
X98180Y-197920D01*
X113539Y-196800D01*
X129260Y-195200D01*
X144660Y-194300D01*
X149340Y-194100D01*
X153460Y-194200D01*
X162240Y-193700D01*
X179140Y-193700D01*
X179440Y-176540D01*
X179400Y-149100D01*
X160200Y-149200D01*
G37*
G36*
X382400Y69300D02*
G01*
X365400Y53000D01*
X429799Y-11600D01*
X441420Y2340D01*
X443720Y4840D01*
X444620Y5639D01*
X445600Y6200D01*
X388200Y64400D01*
G37*
G36*
X248299Y-56700D02*
G01*
X237600Y-57200D01*
X222300Y-70700D01*
X246600Y-105600D01*
X264700Y-113100D01*
X292400Y-141200D01*
X306100Y-130399D01*
X308500Y-125900D01*
X308600Y-125900D01*
X280200Y-97600D01*
X275100Y-90300D01*
X260400Y-75100D01*
X250100Y-64100D01*
G37*
G36*
X175799Y-95600D02*
G01*
X-28400Y-96800D01*
X-28600Y-104900D01*
X-28180Y-217860D01*
X-38180Y-227860D01*
X-38280Y-227860D01*
X-40180Y-229760D01*
X-40180Y-471860D01*
X-39880Y-472180D01*
X9920Y-472180D01*
X53820Y-471860D01*
X53820Y-116860D01*
X177700Y-116500D01*
X178299Y-105600D01*
X178000Y-96300D01*
G37*
G36*
X14600Y273600D02*
G01*
X11100Y270100D01*
X11100Y214300D01*
X10400Y213600D01*
X57500Y208600D01*
X57500Y271500D01*
X55400Y273600D01*
G37*
G36*
X549800Y314800D02*
G01*
X547900Y293500D01*
X550600Y272400D01*
X614800Y273400D01*
X633600Y273000D01*
X633500Y296100D01*
X634800Y314600D01*
X612700Y314800D01*
G37*
G36*
X590400Y112400D02*
G01*
X580700Y112200D01*
X557900Y112300D01*
X557200Y97500D01*
X580600Y96900D01*
X580560Y79900D01*
X593360Y67100D01*
X593360Y51300D01*
X599040Y45599D01*
X620560Y45599D01*
X621940Y47000D01*
X621940Y54900D01*
X620560Y56300D01*
X620560Y87700D01*
X631260Y98400D01*
X638600Y97899D01*
X637900Y111700D01*
G37*
G36*
X387299Y140200D02*
G01*
X388700Y138800D01*
X388700Y94500D01*
X402299Y80900D01*
X432299Y80900D01*
X434500Y78700D01*
X474400Y78700D01*
X471599Y81500D01*
X471599Y115900D01*
X467299Y120200D01*
X434400Y120200D01*
X428000Y126600D01*
X428000Y139500D01*
G37*
G36*
X322100Y143300D02*
G01*
X325600Y99300D01*
X327100Y100800D01*
X378600Y100800D01*
X378600Y142800D01*
X378100Y143300D01*
G37*
D10*
X-430979Y-162469D02*
G01*
X-443379Y-162469D01*
X-477280Y-128569D01*
X-477280Y-108369D01*
D11*
X-268860Y-311799D02*
G01*
X-268860Y-327937D01*
X-226698Y-370099D01*
X-198198Y-370099D01*
X-198198Y-374900D01*
X-179898Y-393198D01*
X-173599Y-393198D01*
X-165097Y-401700D01*
X-161900Y-401700D01*
X-155600Y-407998D01*
X-118599Y-407998D01*
X-112300Y-401700D01*
X-112300Y-327301D01*
X-116602Y-322998D01*
X-130479Y-322770D01*
D12*
X-144080Y-383369D02*
G01*
X-150879Y-383369D01*
X-190180Y-344070D01*
X-201779Y-344070D01*
D13*
X595599Y252269D02*
G01*
X449979Y252269D01*
X440019Y262229D01*
X440019Y330178D01*
X432201Y337998D01*
X363598Y337998D01*
X355698Y330099D01*
X235487Y330099D01*
X225219Y319830D01*
X-340399Y42899D02*
G01*
X-305399Y7899D01*
X-305399Y-13029D01*
D12*
X551019Y498930D02*
G01*
X551019Y534429D01*
X495419Y590030D01*
X446999Y616599D02*
G01*
X455798Y616599D01*
X482367Y590030D01*
X495419Y590030D01*
D13*
X595599Y334949D02*
G01*
X640649Y334949D01*
X649799Y325799D01*
X659600Y295099D02*
G01*
X610799Y295099D01*
X609799Y296100D01*
X145101Y61948D02*
G01*
X202851Y61948D01*
X234101Y30698D01*
X234101Y-21601D01*
X255579Y-43079D01*
X65219Y50670D02*
G01*
X90569Y50670D01*
X101849Y61950D01*
X145100Y61950D01*
X595599Y197159D02*
G01*
X496858Y197159D01*
X486098Y186399D01*
X595599Y169600D02*
G01*
X518497Y169600D01*
X508198Y159301D01*
X472500Y159301D01*
X470698Y157500D01*
D14*
X242119Y254830D02*
G01*
X310122Y186829D01*
X400019Y186829D01*
X454647Y132201D01*
X515298Y132201D01*
X525136Y142040D01*
X595599Y142040D01*
X-53980Y267029D02*
G01*
X-40679Y267029D01*
X-14380Y294029D01*
X248617Y294029D01*
X265219Y310030D01*
X405717Y310030D01*
X417222Y298728D01*
X417222Y249729D01*
X442241Y224710D01*
X595599Y224710D01*
D13*
X165419Y-8670D02*
G01*
X165419Y-39270D01*
X162719Y-41570D01*
X151819Y-52469D01*
X109020Y-52469D01*
X105919Y-55570D01*
X106620Y-104169D01*
X65219Y16630D02*
G01*
X71120Y16630D01*
X97619Y-8670D01*
X131319Y-8670D01*
X-4859Y86030D02*
G01*
X-4859Y41660D01*
X20240Y16559D01*
X65199Y16559D01*
X486098Y186399D02*
G01*
X496858Y197159D01*
X305522Y-103771D02*
G01*
X269020Y-67267D01*
X269020Y-56520D01*
D15*
X75999Y-143600D02*
G01*
X88528Y-131071D01*
X148690Y-131071D01*
D16*
X-22901Y569839D02*
G01*
X-18060Y565000D01*
X900Y565000D01*
D14*
X-147997Y460000D02*
G01*
X-147997Y463312D01*
X-76581Y534729D01*
X-23930Y534729D01*
X-22899Y535760D01*
D16*
X293559Y383800D02*
G01*
X193699Y383800D01*
X156300Y346399D01*
X77799Y346399D01*
D17*
X-134300Y-43400D02*
G01*
X-132170Y-41269D01*
X-132170Y-13029D01*
D14*
X-6800Y-31900D02*
G01*
X-11298Y-36399D01*
X-11298Y-37699D01*
X-11298Y-6199D01*
X-25938Y8440D01*
X-41099Y8440D01*
D18*
X468639Y558499D02*
G01*
X469939Y557199D01*
X493099Y557199D01*
X508099Y542199D01*
X508099Y510000D01*
X490299Y492199D01*
X464099Y492199D01*
X148689Y-79870D02*
G01*
X150073Y-78487D01*
X210219Y-78487D01*
X-170439Y-138499D02*
G01*
X-200079Y-168139D01*
X-200079Y-184549D01*
D12*
X-136360Y-138499D02*
G01*
X-134898Y-137038D01*
X-136360Y-138499D01*
X-128931Y-131071D01*
X-79648Y-131071D01*
D18*
X279799Y530799D02*
G01*
X341340Y530799D01*
X366700Y556159D01*
D16*
X263400Y493600D02*
G01*
X265100Y495300D01*
X310569Y495300D01*
X366700Y590239D02*
G01*
X330709Y590239D01*
X310569Y570099D01*
D18*
X231829Y532699D02*
G01*
X224570Y539960D01*
X176499Y539960D01*
D13*
X33519Y394729D02*
G01*
X33519Y329929D01*
X43720Y319830D01*
X225219Y319830D01*
D19*
X84120Y247930D02*
G01*
X192820Y247930D01*
X233019Y207730D01*
X233019Y192130D01*
D18*
X-348710Y-13029D02*
G01*
X-348710Y-39690D01*
X-321800Y-66599D01*
X-304400Y-66399D01*
X-305299Y-87400D01*
D16*
X327641Y383800D02*
G01*
X343281Y368159D01*
X386099Y368159D01*
X494857Y470000D02*
G01*
X494857Y442539D01*
X524700Y412698D01*
X524700Y408670D01*
X528940Y470000D02*
G01*
X550999Y492060D01*
X550999Y498899D01*
X386099Y402240D02*
G01*
X392530Y408670D01*
X449902Y408670D01*
X487299Y329929D02*
G01*
X519879Y362509D01*
X595599Y362509D01*
D12*
X693301Y55698D02*
G01*
X670399Y78600D01*
X644799Y78600D01*
D14*
X-175399Y-71089D02*
G01*
X-175479Y-71010D01*
X-175479Y-13031D01*
D17*
X-477300Y-74259D02*
G01*
X-478627Y-72932D01*
X-478627Y-13031D01*
D14*
X347219Y41929D02*
G01*
X347319Y71430D01*
X356819Y80929D01*
X430820Y80929D01*
D11*
X361279Y-48029D02*
G01*
X323919Y-10670D01*
X282719Y-10670D01*
X282719Y-3369D01*
X347349Y-61959D02*
G01*
X325388Y-39999D01*
X311899Y-39999D01*
X307899Y-35999D01*
D12*
X-79650Y-105470D02*
G01*
X-79650Y-131069D01*
X-308440Y-210489D02*
G01*
X-282500Y-184549D01*
X-237480Y-184549D01*
X-220810Y-344099D02*
G01*
X-237480Y-327429D01*
X-237480Y-294789D01*
X-302939Y-311799D02*
G01*
X-308721Y-306019D01*
X-308721Y-273440D01*
X389110Y-20210D02*
G01*
X360619Y8279D01*
X360619Y28479D01*
X732622Y118629D02*
G01*
X695550Y155700D01*
X693299Y155700D01*
X729017Y217631D02*
G01*
X693299Y253348D01*
X693299Y255700D01*
X724619Y315828D02*
G01*
X693299Y347148D01*
X693299Y355700D01*
D20*
X220500Y-347840D02*
G01*
X189130Y-316471D01*
X-3681Y-316471D01*
D21*
X-253299Y-242500D02*
G01*
X-220100Y-242500D01*
X-200079Y-222480D01*
X-200079Y-184549D01*
D12*
X375209Y-34099D02*
G01*
X327308Y13800D01*
X316099Y13800D01*
D22*
X434560Y558499D02*
G01*
X432220Y556161D01*
X366698Y556161D01*
D12*
X-79678Y-79868D02*
G01*
X-55181Y-79868D01*
X-41099Y-65788D01*
X-41099Y-25639D01*
D23*
X-433100Y530199D02*
G01*
X-434400Y528899D01*
X-434400Y487300D01*
X-411480Y530230D02*
G01*
X-383379Y530230D01*
X-305380Y452229D01*
X-305380Y365830D01*
X-383299Y621700D02*
G01*
X-433100Y571898D01*
X-433100Y530198D01*
D24*
X-431000Y-140900D02*
G01*
X-422660Y-132559D01*
X-422660Y-93699D01*
X-422660Y-93699D02*
G01*
X-435320Y-81039D01*
X-435320Y-13029D01*
D23*
X-435321Y365828D02*
G01*
X-434400Y366750D01*
X-434400Y465700D01*
D12*
X255579Y-43079D02*
G01*
X221908Y-43079D01*
X210219Y-54769D01*
X210219Y-54769D02*
G01*
X210219Y-87570D01*
X248199Y-125549D01*
X248199Y-167400D01*
D14*
X105698Y557400D02*
G01*
X105698Y482098D01*
X91700Y468099D01*
X125698Y557400D02*
G01*
X128699Y554398D01*
X128699Y468600D01*
X-100299Y202199D02*
G01*
X-73007Y229492D01*
X-73007Y267300D01*
X-28400Y396500D02*
G01*
X-26599Y394699D01*
X14499Y394699D01*
X-148000Y460000D02*
G01*
X-143189Y464810D01*
X-123901Y464810D01*
X-123900Y445790D02*
G01*
X-40990Y445790D01*
X-22899Y427699D01*
D21*
X449819Y82829D02*
G01*
X456220Y76529D01*
D14*
X295101Y416399D02*
G01*
X302798Y416399D01*
X327640Y391558D01*
X327640Y383800D01*
D16*
X79300Y495700D02*
G01*
X85698Y502098D01*
X85698Y557400D01*
D12*
X411719Y661729D02*
G01*
X428220Y661729D01*
X444619Y678130D01*
X457020Y678130D01*
X460720Y674429D01*
X463620Y674429D01*
X498019Y640030D01*
X498019Y616430D01*
X498019Y616430D02*
G01*
X498019Y614630D01*
X511120Y601529D01*
D13*
X-218789Y-13029D02*
G01*
X-218789Y20210D01*
X-206300Y32699D01*
X-91800Y32699D01*
X-83800Y40700D01*
X-83800Y102199D01*
X-77300Y108699D01*
D14*
X-175380Y-90070D02*
G01*
X-144380Y-90070D01*
X-106977Y-52669D01*
X-106977Y-31370D01*
X-89980Y-14369D01*
X-89980Y4029D01*
X-78882Y15131D01*
X-78882Y27130D01*
X-57280Y48728D01*
X-57280Y72631D01*
X-47979Y81929D01*
X-47979Y105030D01*
X-37008Y115999D01*
X36199Y115999D01*
D13*
X65219Y50670D02*
G01*
X28530Y50670D01*
X24499Y54699D01*
D14*
X273220Y430630D02*
G01*
X254420Y411829D01*
X154719Y411829D01*
X150820Y407930D01*
X78119Y407930D01*
X64020Y421929D01*
X64020Y449130D01*
X83019Y468130D01*
X91719Y468130D01*
X463620Y462029D02*
G01*
X445019Y462029D01*
X419520Y436329D01*
X323720Y436329D01*
X320720Y439329D01*
X281920Y439329D01*
X273220Y430630D01*
X491918Y289580D02*
G01*
X585848Y289580D01*
X595599Y279830D01*
X589598Y285830D01*
X589598Y300498D01*
X128720Y468629D02*
G01*
X129819Y468629D01*
X157219Y443029D01*
X255919Y443029D01*
X268720Y455830D01*
X404420Y455830D01*
X429719Y481129D01*
X429719Y511129D01*
X438220Y519630D01*
X461520Y519630D01*
X464219Y522330D01*
D11*
X333419Y-75869D02*
G01*
X317319Y-59769D01*
X298819Y-59769D01*
X296120Y-59769D01*
X283919Y-47669D01*
X283919Y-3369D01*
X282719Y-3369D01*
D14*
X-22880Y569830D02*
G01*
X-18051Y565000D01*
X900Y565000D01*
X511120Y601529D02*
G01*
X548919Y563730D01*
X592420Y563730D01*
D18*
X592380Y563741D02*
G01*
X618109Y538011D01*
X618109Y473290D01*
X637899Y453499D01*
X659399Y453499D01*
X674601Y468701D01*
X674601Y473825D01*
D14*
X642619Y483629D02*
G01*
X641719Y502930D01*
X650919Y512130D01*
X650919Y523829D01*
X619480Y569295D02*
G01*
X639036Y588850D01*
X639036Y599904D01*
X650929Y523804D02*
G01*
X639036Y535697D01*
X639036Y599904D01*
X553301Y705999D02*
G01*
X550670Y703368D01*
X550670Y652519D01*
X625525Y609146D02*
G01*
X634767Y599904D01*
X639036Y599904D01*
D18*
X483689Y765099D02*
G01*
X451800Y765099D01*
X426201Y790698D01*
X176520Y574029D02*
G01*
X176520Y604329D01*
X168220Y612629D01*
X32719Y612629D01*
X27919Y607829D01*
X27919Y524429D01*
X37919Y514429D01*
X54020Y514429D01*
X65720Y526129D01*
X65720Y557429D01*
X176520Y539929D02*
G01*
X155820Y539929D01*
X147719Y548130D01*
X147719Y594130D01*
X45720Y594130D01*
X45720Y557429D01*
X-477280Y-108369D02*
G01*
X-490277Y-96071D01*
X-493482Y-96071D01*
X-498882Y-90670D01*
X-498882Y-72469D01*
X-522600Y-48751D01*
X-522600Y3099D01*
D14*
X585299Y663490D02*
G01*
X625527Y623263D01*
X625527Y609146D01*
X483720Y765129D02*
G01*
X483720Y738029D01*
X480019Y734830D01*
X472119Y727029D01*
X483720Y765129D02*
G01*
X526319Y722530D01*
X526319Y711729D01*
X522719Y708029D01*
X521719Y699029D01*
X516120Y693530D01*
D25*
G01*
X125698Y557400D03*
G01*
X105698Y557400D03*
G01*
X65698Y557400D03*
G01*
X45698Y557400D03*
G01*
X85698Y557400D03*
D26*
G01*
X595599Y417634D03*
G01*
X595599Y390074D03*
G01*
X595599Y334954D03*
G01*
X595599Y362514D03*
G01*
X595599Y307394D03*
G01*
X595599Y279834D03*
G01*
X595599Y114484D03*
G01*
X595599Y252274D03*
G01*
X595599Y224714D03*
G01*
X595599Y197164D03*
G01*
X595599Y169604D03*
G01*
X595599Y142044D03*
D27*
G01*
X65219Y50670D03*
D28*
G01*
X65219Y16589D03*
D29*
G01*
X-268859Y-311800D03*
G01*
X-302940Y-311800D03*
D30*
G01*
X494879Y470029D03*
G01*
X528960Y470029D03*
D31*
G01*
X-123879Y464839D03*
D32*
G01*
X-123880Y445819D03*
D27*
G01*
X-22880Y535790D03*
D28*
G01*
X-22880Y569870D03*
D33*
G01*
X14510Y394729D03*
G01*
X33530Y394729D03*
D27*
G01*
X176520Y539989D03*
D28*
G01*
X176520Y574070D03*
D27*
G01*
X366719Y590270D03*
D28*
G01*
X366719Y556189D03*
D30*
G01*
X434579Y558530D03*
G01*
X468660Y558530D03*
D33*
G01*
X-73010Y267300D03*
G01*
X-53990Y267300D03*
D27*
G01*
X-477300Y-74259D03*
D28*
G01*
X-477300Y-108340D03*
D34*
G01*
X-431000Y-140900D03*
D35*
G01*
X-430999Y-162496D03*
D36*
G01*
X-411504Y530199D03*
G01*
X-433096Y530199D03*
D31*
G01*
X-175399Y-71089D03*
D32*
G01*
X-175400Y-90109D03*
D37*
G01*
X360624Y28475D03*
G01*
X347175Y41924D03*
D38*
G01*
X255575Y-43075D03*
G01*
X269024Y-56524D03*
D39*
G01*
X-27230Y-434690D03*
G01*
X39699Y-434690D03*
G01*
X106630Y-434690D03*
D40*
G01*
X-81359Y-235879D03*
G01*
X160760Y-235879D03*
D29*
G01*
X-136359Y-138499D03*
G01*
X-170440Y-138499D03*
D41*
G01*
X-79650Y-156669D03*
G01*
X-79650Y-131069D03*
G01*
X-79650Y-105470D03*
G01*
X-79650Y-79870D03*
G01*
X148689Y-156669D03*
G01*
X148689Y-131069D03*
G01*
X148689Y-105470D03*
G01*
X148689Y-79870D03*
D42*
G01*
X425273Y15962D03*
D43*
G01*
X416930Y7617D03*
D44*
G01*
X402999Y-6311D03*
D45*
G01*
X389104Y-20205D03*
D46*
G01*
X375209Y-34101D03*
D47*
G01*
X361280Y-48030D03*
D46*
G01*
X347349Y-61961D03*
D47*
G01*
X333420Y-75889D03*
G01*
X319490Y-89820D03*
G01*
X305560Y-103750D03*
D48*
G01*
X291665Y-117645D03*
D49*
G01*
X283287Y-126024D03*
D47*
G01*
X439203Y29892D03*
D46*
G01*
X447547Y38236D03*
D49*
G01*
X269427Y-139883D03*
D50*
G01*
X261047Y-148262D03*
D30*
G01*
X131359Y-8700D03*
G01*
X165440Y-8700D03*
D51*
G01*
X449899Y408669D03*
G01*
X524699Y408669D03*
G01*
X487299Y329929D03*
D27*
G01*
X386099Y402240D03*
D28*
G01*
X386099Y368159D03*
D29*
G01*
X327640Y383799D03*
G01*
X293559Y383799D03*
D52*
G01*
X-201790Y-344099D03*
G01*
X-220810Y-344099D03*
D53*
G01*
X84158Y247899D03*
G01*
X41241Y247899D03*
D54*
G01*
X361741Y122100D03*
G01*
X404659Y122100D03*
D55*
G01*
X220500Y-347840D03*
D56*
G01*
X220500Y-390758D03*
D57*
G01*
X-308443Y-210490D03*
G01*
X-308719Y-273443D03*
D58*
G01*
X-327195Y562644D03*
D59*
G01*
X-271099Y621700D03*
D58*
G01*
X-327197Y680755D03*
D59*
G01*
X-383301Y621700D03*
D60*
G01*
X-162677Y-184551D03*
G01*
X-200077Y-184551D03*
G01*
X-237476Y-184551D03*
G01*
X-237476Y-294791D03*
G01*
X-200077Y-294791D03*
G01*
X-162677Y-294791D03*
D27*
G01*
X-41099Y8440D03*
D28*
G01*
X-41100Y-25640D03*
D61*
G01*
X310569Y570099D03*
G01*
X310569Y495300D03*
G01*
X231829Y532700D03*
D34*
G01*
X-434400Y487300D03*
D35*
G01*
X-434400Y465704D03*
D54*
G01*
X-422659Y-93700D03*
G01*
X-379741Y-93700D03*
D62*
G01*
X-132170Y-13029D03*
G01*
X-175479Y-13029D03*
G01*
X-218789Y-13029D03*
G01*
X-262089Y-13029D03*
G01*
X-305399Y-13029D03*
G01*
X-348710Y-13029D03*
G01*
X-392010Y-13029D03*
G01*
X-435320Y-13029D03*
G01*
X-478630Y-13029D03*
G01*
X-478630Y365830D03*
G01*
X-435320Y365830D03*
G01*
X-392010Y365830D03*
G01*
X-348710Y365830D03*
G01*
X-305399Y365830D03*
G01*
X-262089Y365830D03*
G01*
X-218789Y365830D03*
G01*
X-175479Y365830D03*
G01*
X-132170Y365830D03*
D63*
G01*
X145101Y61949D03*
G01*
X145101Y180059D03*
G36*
X288389Y158395D02*
G01*
X215389Y158395D01*
X213636Y158353D01*
X211887Y158229D01*
X210145Y158024D01*
X208415Y157739D01*
X206701Y157370D01*
X205006Y156923D01*
X203333Y156397D01*
X201687Y155794D01*
X200070Y155113D01*
X198487Y154358D01*
X196943Y153528D01*
X195437Y152627D01*
X193976Y151657D01*
X192563Y150621D01*
X191199Y149519D01*
X189889Y148353D01*
X188634Y147127D01*
X187438Y145844D01*
X186305Y144508D01*
X185235Y143119D01*
X184230Y141680D01*
X183296Y140198D01*
X182430Y138672D01*
X181638Y137107D01*
X180919Y133985D01*
X114095Y133985D01*
X114095Y108002D01*
X180919Y108002D01*
X181638Y104877D01*
X182430Y103314D01*
X183296Y101788D01*
X184230Y100304D01*
X185235Y98867D01*
X186305Y97478D01*
X187438Y96140D01*
X188634Y94857D01*
X189889Y93632D01*
X191199Y92467D01*
X192563Y91365D01*
X193976Y90327D01*
X195437Y89358D01*
X196943Y88456D01*
X198487Y87627D01*
X200070Y86873D01*
X201687Y86192D01*
X203333Y85587D01*
X205006Y85061D01*
X206701Y84614D01*
X208415Y84247D01*
X210145Y83960D01*
X211887Y83755D01*
X213636Y83632D01*
X215389Y83591D01*
X288389Y83591D01*
X290142Y83632D01*
X291891Y83755D01*
X293634Y83960D01*
X295363Y84247D01*
X297079Y84614D01*
X298774Y85061D01*
X300446Y85587D01*
X302092Y86192D01*
X303708Y86873D01*
X305291Y87627D01*
X306836Y88456D01*
X308342Y89358D01*
X309803Y90327D01*
X311216Y91365D01*
X312579Y92467D01*
X313891Y93632D01*
X315145Y94857D01*
X316341Y96140D01*
X317474Y97478D01*
X318544Y98867D01*
X319548Y100304D01*
X320483Y101788D01*
X321349Y103314D01*
X322142Y104877D01*
X322860Y106478D01*
X323503Y108108D01*
X324067Y109769D01*
X324555Y111453D01*
X324961Y113159D01*
X325289Y114881D01*
X325534Y116619D01*
X325698Y118364D01*
X325780Y120115D01*
X325780Y121869D01*
X325698Y123620D01*
X325534Y125367D01*
X325289Y127103D01*
X324961Y128825D01*
X324555Y130531D01*
X324067Y132217D01*
X323503Y133876D01*
X322860Y135507D01*
X322142Y137107D01*
X321349Y138672D01*
X320483Y140198D01*
X319548Y141680D01*
X318544Y143119D01*
X317474Y144508D01*
X316341Y145844D01*
X315145Y147127D01*
X313891Y148353D01*
X312579Y149519D01*
X311216Y150621D01*
X309803Y151657D01*
X308342Y152627D01*
X306836Y153528D01*
X305291Y154358D01*
X303708Y155113D01*
X302092Y155794D01*
X300446Y156397D01*
X298774Y156923D01*
X297079Y157370D01*
X295363Y157739D01*
X293634Y158024D01*
X291891Y158229D01*
X290142Y158353D01*
X288389Y158395D01*
G37*
D53*
G01*
X-299641Y-161900D03*
G01*
X-342559Y-161900D03*
D64*
G01*
X619482Y569293D03*
G01*
X674600Y473825D03*
D65*
G01*
X650927Y523804D03*
D66*
G01*
X710890Y475457D03*
G01*
X639040Y599905D03*
D67*
G01*
X472160Y727028D03*
D68*
G01*
X554081Y653266D03*
D69*
G01*
X516124Y693482D03*
D70*
G01*
X588092Y666031D03*
D71*
G01*
X481301Y762185D03*
D72*
G01*
X542790Y69410D03*
G01*
X654140Y-41950D03*
G01*
X229879Y-243490D03*
G01*
X341240Y-354850D03*
D73*
G01*
X712139Y459130D03*
G01*
X625529Y609149D03*
G01*
X594319Y650889D03*
G01*
X465599Y766799D03*
D74*
G01*
X693299Y55700D03*
D75*
G01*
X693299Y155700D03*
G01*
X693299Y255700D03*
G01*
X693299Y355700D03*
D76*
G01*
X-113400Y557800D03*
G01*
X260509Y-93229D03*
G01*
X239979Y-71359D03*
G01*
X395000Y40500D03*
G01*
X163400Y-180500D03*
G01*
X129600Y-182400D03*
G01*
X-131279Y-291269D03*
G01*
X-130479Y-322770D03*
G01*
X644799Y78600D03*
G01*
X732619Y118629D03*
G01*
X729020Y217629D03*
G01*
X724619Y315830D03*
G01*
X327399Y234600D03*
G01*
X313400Y279299D03*
G01*
X-148000Y460000D03*
G01*
X-83299Y-387400D03*
G01*
X-133100Y129800D03*
G01*
X411700Y661700D03*
G01*
X-28400Y396500D03*
G01*
X-142300Y557699D03*
G01*
X-84099Y557500D03*
G01*
X-54099Y557500D03*
G01*
X153400Y-433099D03*
G01*
X185999Y-427100D03*
G01*
X248199Y-167400D03*
G01*
X-253299Y-242500D03*
G01*
X307899Y-35999D03*
G01*
X282699Y-3400D03*
G01*
X316099Y13800D03*
G01*
X77799Y346399D03*
G01*
X426199Y790700D03*
G01*
X642600Y483600D03*
G01*
X-144099Y-383400D03*
G01*
X550999Y498899D03*
G01*
X288099Y255900D03*
G01*
X-399300Y428200D03*
G01*
X-399300Y460199D03*
G01*
X-399300Y492199D03*
G01*
X-474099Y423699D03*
G01*
X-474099Y455700D03*
G01*
X-474099Y487699D03*
G01*
X-474099Y519699D03*
G01*
X-474099Y551700D03*
G01*
X-465600Y585000D03*
G01*
X-443299Y610099D03*
G01*
X-393400Y565700D03*
G01*
X-432300Y640300D03*
G01*
X-410299Y669000D03*
G01*
X-326999Y520399D03*
G01*
X-305000Y499899D03*
G01*
X-284300Y478499D03*
G01*
X-273800Y451500D03*
G01*
X-274300Y423499D03*
G01*
X219719Y-178989D03*
G01*
X-486000Y207399D03*
G01*
X-530699Y207399D03*
G01*
X-134300Y-43400D03*
G01*
X75999Y-143600D03*
G01*
X-364099Y-128299D03*
G01*
X-379099Y-159200D03*
G01*
X-337799Y-101300D03*
G01*
X-304600Y-119800D03*
G01*
X-305299Y-87400D03*
G01*
X-273400Y-104400D03*
G01*
X-83699Y-44699D03*
G01*
X486099Y186399D03*
G01*
X470699Y157500D03*
G01*
X36199Y115999D03*
G01*
X18000Y196399D03*
G01*
X49099Y196399D03*
G01*
X79399Y195999D03*
G01*
X19399Y166399D03*
G01*
X50199Y166199D03*
G01*
X80799Y166999D03*
G01*
X609600Y393899D03*
G01*
X91700Y468099D03*
G01*
X128699Y468600D03*
G01*
X129200Y437100D03*
G01*
X91899Y437699D03*
G01*
X464200Y522300D03*
G01*
X463599Y461999D03*
G01*
X464099Y492199D03*
G01*
X-100299Y202199D03*
G01*
X-22899Y427699D03*
G01*
X242100Y254800D03*
G01*
X295100Y416399D03*
G01*
X-77300Y108699D03*
G01*
X270999Y355399D03*
G01*
X309399Y355199D03*
G01*
X18499Y-9299D03*
G01*
X265299Y185500D03*
G01*
X-6800Y-31900D03*
G01*
X233000Y192100D03*
G01*
X-60299Y505599D03*
G01*
X-28100Y505599D03*
G01*
X4300Y505700D03*
G01*
X456220Y76529D03*
G01*
X79300Y495700D03*
G01*
X263400Y493600D03*
G01*
X279799Y530799D03*
G01*
X609499Y67199D03*
G01*
X-223800Y56599D03*
G01*
X900Y565000D03*
G01*
X-4859Y86030D03*
G01*
X195000Y116500D03*
G01*
X163599Y117899D03*
G01*
X129300Y117899D03*
G01*
X-340399Y42899D03*
G01*
X-30600Y167500D03*
G01*
X659600Y295099D03*
G01*
X649799Y325799D03*
G01*
X446999Y616599D03*
G01*
X398199Y480799D03*
G01*
X758499Y187500D03*
G01*
X553299Y705999D03*
G01*
X-522600Y3099D03*
M02*
