G04 Layer: BottomSolderMaskLayer*
G04 EasyEDA v6.5.22, 2023-01-25 14:37:09*
G04 a2e63df7a23446a2ae1eb019cd18a306,9a4ed40c0dd746429eaf55b84663d2fb,10*
G04 Gerber Generator version 0.2*
G04 Scale: 100 percent, Rotated: No, Reflected: No *
G04 Dimensions in inches *
G04 leading zeros omitted , absolute positions ,3 integer and 6 decimal *
%FSLAX36Y36*%
%MOIN*%

%AMMACRO1*1,1,$1,$2,$3*1,1,$1,$4,$5*1,1,$1,0-$2,0-$3*1,1,$1,0-$4,0-$5*20,1,$1,$2,$3,$4,$5,0*20,1,$1,$4,$5,0-$2,0-$3,0*20,1,$1,0-$2,0-$3,0-$4,0-$5,0*20,1,$1,0-$4,0-$5,$2,$3,0*4,1,4,$2,$3,$4,$5,0-$2,0-$3,0-$4,0-$5,$2,$3,0*%
%AMMACRO2*1,1,$1,$2,$3*1,1,$1,$4,$5*20,1,$1,$2,$3,$4,$5,0*%
%ADD10MACRO1,0.004X0.0059X0.0256X-0.0059X0.0256*%
%ADD11MACRO1,0.0039X-0.0394X0.0059X-0.0394X-0.0059*%
%ADD12MACRO1,0.004X-0.0106X-0.0111X0.0106X-0.0111*%
%ADD13MACRO1,0.004X-0.0106X0.0111X0.0106X0.0111*%
%ADD14MACRO1,0.004X-0.0111X0.0106X-0.0111X-0.0106*%
%ADD15MACRO1,0.004X0.0111X0.0106X0.0111X-0.0106*%
%ADD16MACRO1,0.004X0.0111X-0.0106X0.0111X0.0106*%
%ADD17MACRO1,0.004X-0.0111X-0.0106X-0.0111X0.0106*%
%ADD18MACRO1,0.004X-0.0064X-0.006X0.0064X-0.006*%
%ADD19MACRO1,0.004X-0.0064X0.006X0.0064X0.006*%
%ADD20MACRO1,0.004X0.0106X0.0111X-0.0106X0.0111*%
%ADD21MACRO1,0.004X0.0106X-0.0111X-0.0106X-0.0111*%
%ADD22MACRO1,0.004X0.006X-0.0064X0.006X0.0064*%
%ADD23MACRO1,0.004X-0.006X-0.0064X-0.006X0.0064*%
%ADD24MACRO1,0.004X-0.0064X-0.0073X0.0064X-0.0073*%
%ADD25MACRO1,0.004X-0.0064X0.0073X0.0064X0.0073*%
%ADD26MACRO1,0.004X-0.0073X0.0064X-0.0073X-0.0064*%
%ADD27MACRO1,0.004X0.0073X0.0064X0.0073X-0.0064*%
%ADD28MACRO1,0.004X0.0003X0.0087X-0.0087X-0.0003*%
%ADD29MACRO1,0.004X0.0087X0.0003X-0.0003X-0.0087*%
%ADD30MACRO1,0.004X-0.0003X-0.0087X0.0087X0.0003*%
%ADD31MACRO1,0.004X-0.0087X-0.0003X0.0003X0.0087*%
%ADD32MACRO1,0.004X-0.0118X0.0197X-0.0118X-0.0197*%
%ADD33MACRO1,0.004X-0.0138X0.0354X-0.0138X-0.0354*%
%ADD34O,0.063055X0.019748*%
%ADD35MACRO1,0.004X-0.0111X0.0195X-0.0195X0.0111*%
%ADD36MACRO2,0.0512X-0.0139X0.0139X0.0139X-0.0139*%
%ADD37MACRO1,0.004X0.0138X-0.0246X0.0138X0.0246*%
%ADD38MACRO1,0.004X-0.006X0.0064X-0.006X-0.0064*%
%ADD39MACRO1,0.004X0.006X0.0064X0.006X-0.0064*%
%ADD40MACRO1,0.004X-0.0156X0.0106X-0.0156X-0.0106*%
%ADD41MACRO1,0.004X0.0156X0.0106X0.0156X-0.0106*%
%ADD42MACRO1,0.004X0.0156X-0.0106X0.0156X0.0106*%
%ADD43MACRO1,0.004X-0.0156X-0.0106X-0.0156X0.0106*%
%ADD44MACRO1,0.004X-0.0106X-0.0156X0.0106X-0.0156*%
%ADD45MACRO1,0.004X-0.0106X0.0156X0.0106X0.0156*%
%ADD46MACRO1,0.004X0.0157X0.0157X-0.0157X0.0157*%
%ADD47MACRO1,0.004X-0.0433X-0.0217X0.0433X-0.0217*%
%ADD48MACRO1,0.004X0.0197X-0.0207X0.0197X0.0207*%
%ADD49MACRO1,0.004X0.0108X-0.0197X0.0108X0.0197*%
%ADD50MACRO1,0.004X-0.0246X-0.0138X0.0246X-0.0138*%
%ADD51O,0.031559X0.07380300000000001*%
%ADD52MACRO1,0.004X-0.031X-0.0132X-0.031X0.0132*%
%ADD53MACRO1,0.004X-0.0127X0.0063X-0.0009X-0.0142*%
%ADD54MACRO1,0.004X-0.0158X0.0136X0.0039X-0.0205*%
%ADD55MACRO1,0.004X-0.0203X0.0099X-0.0016X-0.0225*%
%ADD56C,0.0335*%
%ADD57MACRO1,0.004X-0.014X0.0021X0.0035X-0.0138*%
%ADD58MACRO1,0.004X-0.0192X0.0081X0.01X-0.0183*%
%ADD59MACRO1,0.004X-0.0223X0.0032X0.0055X-0.0219*%
%ADD60MACRO1,0.004X-0.0335X-0.0335X-0.0335X0.0335*%
%ADD61C,0.0709*%
%ADD62C,0.0139*%

%LPD*%
D10*
G01*
X125698Y557400D03*
G01*
X105698Y557400D03*
G01*
X65698Y557400D03*
G01*
X45698Y557400D03*
G01*
X85698Y557400D03*
D11*
G01*
X595599Y417634D03*
G01*
X595599Y390074D03*
G01*
X595599Y334954D03*
G01*
X595599Y362514D03*
G01*
X595599Y307394D03*
G01*
X595599Y279834D03*
G01*
X595599Y114484D03*
G01*
X595599Y252274D03*
G01*
X595599Y224714D03*
G01*
X595599Y197164D03*
G01*
X595599Y169604D03*
G01*
X595599Y142044D03*
D12*
G01*
X65219Y50670D03*
D13*
G01*
X65219Y16589D03*
D14*
G01*
X-268859Y-311800D03*
D15*
G01*
X-302940Y-311800D03*
D16*
G01*
X494879Y470029D03*
D17*
G01*
X528960Y470029D03*
D18*
G01*
X-123880Y464839D03*
D19*
G01*
X-123880Y445819D03*
D20*
G01*
X-22880Y535789D03*
D21*
G01*
X-22880Y569870D03*
D22*
G01*
X14510Y394729D03*
D23*
G01*
X33530Y394729D03*
D20*
G01*
X176520Y539989D03*
D21*
G01*
X176520Y574070D03*
D12*
G01*
X366719Y590270D03*
D13*
G01*
X366719Y556189D03*
D16*
G01*
X434579Y558530D03*
D17*
G01*
X468660Y558530D03*
D22*
G01*
X-73010Y267300D03*
D23*
G01*
X-53990Y267300D03*
D12*
G01*
X-477300Y-74259D03*
D13*
G01*
X-477300Y-108340D03*
D24*
G01*
X-430999Y-140904D03*
D25*
G01*
X-430999Y-162496D03*
D26*
G01*
X-411504Y530199D03*
D27*
G01*
X-433096Y530199D03*
D18*
G01*
X-175400Y-71089D03*
D19*
G01*
X-175400Y-90109D03*
D28*
G01*
X360624Y28475D03*
D29*
G01*
X347175Y41924D03*
D30*
G01*
X255574Y-43075D03*
D31*
G01*
X269024Y-56524D03*
D32*
G01*
X-27230Y-434690D03*
G01*
X39699Y-434690D03*
G01*
X106630Y-434690D03*
D33*
G01*
X-81359Y-235879D03*
G01*
X160760Y-235879D03*
D14*
G01*
X-136359Y-138499D03*
D15*
G01*
X-170440Y-138499D03*
D34*
G01*
X-79650Y-156669D03*
G01*
X-79650Y-131069D03*
G01*
X-79650Y-105470D03*
G01*
X-79650Y-79870D03*
G01*
X148689Y-156669D03*
G01*
X148689Y-131069D03*
G01*
X148689Y-105470D03*
G01*
X148689Y-79870D03*
D35*
G01*
X425274Y15962D03*
G01*
X416929Y7617D03*
G01*
X402999Y-6311D03*
G01*
X389104Y-20205D03*
G01*
X375211Y-34101D03*
G01*
X361280Y-48030D03*
G01*
X347350Y-61961D03*
G01*
X333420Y-75889D03*
G01*
X319490Y-89820D03*
G01*
X305560Y-103750D03*
G01*
X291666Y-117645D03*
G01*
X283286Y-126024D03*
G01*
X439203Y29892D03*
G01*
X447546Y38236D03*
G01*
X269427Y-139883D03*
G01*
X261048Y-148262D03*
D36*
G01*
X542790Y69410D03*
G01*
X654140Y-41950D03*
G01*
X229879Y-243490D03*
G01*
X341240Y-354850D03*
D16*
G01*
X131359Y-8700D03*
D17*
G01*
X165440Y-8700D03*
D37*
G01*
X449899Y408669D03*
G01*
X524699Y408669D03*
G01*
X487299Y329929D03*
D12*
G01*
X386099Y402240D03*
D13*
G01*
X386099Y368159D03*
D14*
G01*
X327640Y383799D03*
D15*
G01*
X293559Y383799D03*
D38*
G01*
X-201790Y-344099D03*
D39*
G01*
X-220810Y-344099D03*
D40*
G01*
X84158Y247899D03*
D41*
G01*
X41240Y247899D03*
D42*
G01*
X361741Y122100D03*
D43*
G01*
X404659Y122100D03*
D44*
G01*
X220500Y-347840D03*
D45*
G01*
X220500Y-390758D03*
D46*
G01*
X-308443Y-210490D03*
G01*
X-308719Y-273443D03*
D47*
G01*
X-327195Y562644D03*
D48*
G01*
X-271099Y621700D03*
D47*
G01*
X-327197Y680755D03*
D48*
G01*
X-383301Y621700D03*
D49*
G01*
X-162677Y-184551D03*
G01*
X-200077Y-184551D03*
G01*
X-237476Y-184551D03*
G01*
X-237476Y-294791D03*
G01*
X-200077Y-294791D03*
G01*
X-162677Y-294791D03*
D12*
G01*
X-41100Y8440D03*
D13*
G01*
X-41100Y-25640D03*
D50*
G01*
X310569Y570099D03*
G01*
X310569Y495300D03*
G01*
X231829Y532700D03*
D24*
G01*
X-434400Y487296D03*
D25*
G01*
X-434400Y465704D03*
D42*
G01*
X-422659Y-93700D03*
D43*
G01*
X-379741Y-93700D03*
D51*
G01*
X-132170Y-13029D03*
G01*
X-175479Y-13029D03*
G01*
X-218789Y-13029D03*
G01*
X-262089Y-13029D03*
G01*
X-305399Y-13029D03*
G01*
X-348710Y-13029D03*
G01*
X-392010Y-13029D03*
G01*
X-435320Y-13029D03*
G01*
X-478630Y-13029D03*
G01*
X-478630Y365830D03*
G01*
X-435320Y365830D03*
G01*
X-392010Y365830D03*
G01*
X-348710Y365830D03*
G01*
X-305399Y365830D03*
G01*
X-262089Y365830D03*
G01*
X-218789Y365830D03*
G01*
X-175479Y365830D03*
G01*
X-132170Y365830D03*
D52*
G01*
X145101Y61949D03*
G01*
X145101Y180059D03*
G36*
X213519Y81630D02*
G01*
X209920Y82029D01*
X208019Y82330D01*
X204420Y83130D01*
X202719Y83730D01*
X200919Y84329D01*
X199219Y85030D01*
X197619Y85830D01*
X196019Y86729D01*
X192820Y88730D01*
X191319Y89830D01*
X189920Y90929D01*
X188519Y92229D01*
X185919Y94830D01*
X184819Y96230D01*
X183620Y97730D01*
X181620Y100729D01*
X180720Y102429D01*
X179819Y104229D01*
X179420Y106030D01*
X112119Y106030D01*
X112119Y135929D01*
X179420Y135929D01*
X179819Y137829D01*
X180720Y139630D01*
X181620Y141230D01*
X182619Y142730D01*
X183620Y144329D01*
X184819Y145729D01*
X185919Y147130D01*
X187219Y148530D01*
X188519Y149830D01*
X191319Y152229D01*
X192820Y153229D01*
X194420Y154329D01*
X197619Y156129D01*
X199219Y156929D01*
X200919Y157629D01*
X202719Y158229D01*
X204420Y158829D01*
X206220Y159329D01*
X208019Y159630D01*
X209920Y159929D01*
X211719Y160230D01*
X213519Y160329D01*
X290219Y160329D01*
X292119Y160230D01*
X297519Y159329D01*
X299319Y158829D01*
X301120Y158229D01*
X302820Y157629D01*
X304520Y156929D01*
X306220Y156129D01*
X309420Y154329D01*
X310919Y153229D01*
X312420Y152229D01*
X315219Y149830D01*
X316520Y148530D01*
X317820Y147130D01*
X319020Y145729D01*
X320119Y144329D01*
X321220Y142730D01*
X322219Y141230D01*
X323119Y139630D01*
X324719Y136230D01*
X325919Y132829D01*
X326920Y129229D01*
X327519Y125630D01*
X327619Y123730D01*
X327719Y121929D01*
X327719Y120030D01*
X327519Y116430D01*
X327219Y114529D01*
X326920Y112730D01*
X325919Y109130D01*
X324719Y105729D01*
X323919Y104029D01*
X323119Y102429D01*
X322219Y100729D01*
X321220Y99229D01*
X319020Y96230D01*
X317820Y94830D01*
X315219Y92229D01*
X313819Y90929D01*
X312420Y89830D01*
X310919Y88730D01*
X309420Y87730D01*
X307820Y86729D01*
X306220Y85830D01*
X304520Y85030D01*
X302820Y84329D01*
X301120Y83730D01*
X299319Y83130D01*
X295720Y82330D01*
X293919Y82029D01*
X292119Y81829D01*
X290219Y81630D01*
G37*
D40*
G01*
X-299641Y-161900D03*
D41*
G01*
X-342559Y-161900D03*
D53*
G01*
X619482Y569293D03*
G01*
X674600Y473826D03*
D54*
G01*
X650927Y523803D03*
D55*
G01*
X710890Y475457D03*
G01*
X639040Y599906D03*
D56*
G01*
X712139Y459130D03*
G01*
X625529Y609149D03*
D57*
G01*
X472160Y727028D03*
G01*
X554081Y653265D03*
D58*
G01*
X516124Y693482D03*
D59*
G01*
X588092Y666032D03*
G01*
X481301Y762185D03*
D56*
G01*
X594319Y650889D03*
G01*
X465599Y766799D03*
D60*
G01*
X693299Y55699D03*
D61*
G01*
X693299Y155700D03*
G01*
X693299Y255700D03*
G01*
X693299Y355700D03*
M02*
