G04 Layer: BottomPasteMaskLayer*
G04 Panelize: , Column: 1, Row: 1, Board Size: 43.14mm x 33.02mm, Panelized Board Size: 43.14mm x 33.02mm*
G04 EasyEDA v6.5.51, 2025-10-17 13:11:11*
G04 f2673ee1f0d542a68775028af259726c,9a4ed40c0dd746429eaf55b84663d2fb,10*
G04 Gerber Generator version 0.2*
G04 Scale: 100 percent, Rotated: No, Reflected: No *
G04 Dimensions in millimeters *
G04 leading zeros omitted , absolute positions ,4 integer and 5 decimal *
%FSLAX45Y45*%
%MOMM*%

%AMMACRO1*21,1,$1,$2,0,0,$3*%
%ADD10MACRO1,1.524X1.524X-44.9993*%
%ADD11MACRO1,1.524X1.524X-45.0007*%
%ADD12MACRO1,1.524X1.524X-134.9993*%
%ADD13MACRO1,1.524X1.524X-135.0007*%
%ADD14MACRO1,2X1.8X-90.0000*%
%ADD15MACRO1,0.7X1.25X0.0000*%
%ADD16MACRO1,0.27X0.25X0.0000*%
%ADD17MACRO1,0.27X0.25X90.0000*%
%ADD18C,0.0166*%
%ADD19MACRO1,0.8X0.8X90.0000*%
%ADD20MACRO1,0.49X1.157X-90.0000*%
%ADD21MACRO1,0.49X1.175X-90.0000*%
%ADD22MACRO1,0.3X1.3X90.0000*%
%ADD23MACRO1,2X3X90.0000*%
%ADD24O,1.772996X0.699999*%
%ADD25MACRO1,2.2X1.1X0.0000*%
%ADD26MACRO1,1.05X1X-90.0000*%
%ADD27R,0.4250X0.2800*%
%ADD28MACRO1,0.425X0.28X0.0000*%
%ADD29MACRO1,0.7X1.1X134.9985*%
%ADD30MACRO1,0.7X1.1X135.0015*%
%ADD31MACRO1,1.4X1.1X135.0000*%
%ADD32MACRO1,1.15X1.2X135.0009*%
%ADD33MACRO1,0.7X1.1X116.0007*%
%ADD34MACRO1,1.4X1.1X115.9997*%
%ADD35MACRO1,1.15X1.2X115.9997*%
%ADD36C,0.8000*%

%LPD*%
G36*
X-1099870Y583946D02*
G01*
X-1099870Y553974D01*
X-989888Y553974D01*
X-989888Y583946D01*
G37*
G36*
X-1099870Y633984D02*
G01*
X-1099870Y603758D01*
X-989888Y603758D01*
X-989888Y633984D01*
G37*
G36*
X-1099870Y683768D02*
G01*
X-1099870Y653796D01*
X-989888Y653796D01*
X-989888Y683768D01*
G37*
G36*
X-1099870Y733806D02*
G01*
X-1099870Y703834D01*
X-989888Y703834D01*
X-989888Y733806D01*
G37*
G36*
X-1099870Y783844D02*
G01*
X-1099870Y753872D01*
X-989888Y753872D01*
X-989888Y783844D01*
G37*
G36*
X-1099870Y833882D02*
G01*
X-1099870Y803910D01*
X-989888Y803910D01*
X-989888Y833882D01*
G37*
G36*
X-1099870Y883919D02*
G01*
X-1099870Y853948D01*
X-989888Y853948D01*
X-989888Y883919D01*
G37*
G36*
X-1099870Y933958D02*
G01*
X-1099870Y903986D01*
X-989888Y903986D01*
X-989888Y933958D01*
G37*
G36*
X-1100023Y454253D02*
G01*
X-1100023Y394004D01*
X-989736Y394004D01*
X-989736Y454253D01*
G37*
G36*
X-1100023Y534263D02*
G01*
X-1100023Y474014D01*
X-989736Y474014D01*
X-989736Y534263D01*
G37*
G36*
X-1100023Y1014171D02*
G01*
X-1100023Y953973D01*
X-989736Y953973D01*
X-989736Y1014171D01*
G37*
G36*
X-1100023Y1094079D02*
G01*
X-1100023Y1033830D01*
X-989736Y1033830D01*
X-989736Y1094079D01*
G37*
G36*
X-1610461Y1365859D02*
G01*
X-1617522Y1365453D01*
X-1621078Y1364945D01*
X-1627987Y1363268D01*
X-1631340Y1362151D01*
X-1637842Y1359255D01*
X-1643989Y1355648D01*
X-1649628Y1351330D01*
X-1654708Y1346403D01*
X-1659178Y1340866D01*
X-1662988Y1334871D01*
X-1666036Y1328420D01*
X-1667306Y1325118D01*
X-1669135Y1318260D01*
X-1669796Y1314754D01*
X-1670405Y1307642D01*
X-1670202Y1300530D01*
X-1669135Y1293520D01*
X-1667306Y1286662D01*
X-1664614Y1280058D01*
X-1661160Y1273860D01*
X-1657045Y1268069D01*
X-1652219Y1262837D01*
X-1646834Y1258214D01*
X-1640941Y1254201D01*
X-1634642Y1250950D01*
X-1627987Y1248511D01*
X-1621078Y1246835D01*
X-1614017Y1245971D01*
X-1506880Y1245971D01*
X-1499819Y1246835D01*
X-1492910Y1248511D01*
X-1486255Y1250950D01*
X-1479956Y1254201D01*
X-1474063Y1258214D01*
X-1468678Y1262837D01*
X-1463852Y1268069D01*
X-1459687Y1273860D01*
X-1456283Y1280058D01*
X-1453591Y1286662D01*
X-1451711Y1293520D01*
X-1450695Y1300530D01*
X-1450492Y1307642D01*
X-1451102Y1314754D01*
X-1451711Y1318260D01*
X-1453591Y1325118D01*
X-1456283Y1331671D01*
X-1459687Y1337919D01*
X-1463852Y1343710D01*
X-1468678Y1348943D01*
X-1474063Y1353566D01*
X-1476908Y1355648D01*
X-1483055Y1359255D01*
X-1489557Y1362151D01*
X-1496364Y1364183D01*
X-1499819Y1364945D01*
X-1506880Y1365758D01*
G37*
G36*
X-1210462Y1365859D02*
G01*
X-1217523Y1365453D01*
X-1221079Y1364945D01*
X-1227988Y1363268D01*
X-1231341Y1362151D01*
X-1237843Y1359255D01*
X-1243990Y1355648D01*
X-1249629Y1351330D01*
X-1254709Y1346403D01*
X-1259179Y1340866D01*
X-1262989Y1334871D01*
X-1266037Y1328420D01*
X-1267307Y1325118D01*
X-1269136Y1318260D01*
X-1269796Y1314754D01*
X-1270406Y1307642D01*
X-1270203Y1300530D01*
X-1269136Y1293520D01*
X-1267307Y1286662D01*
X-1264615Y1280058D01*
X-1261160Y1273860D01*
X-1257046Y1268069D01*
X-1252220Y1262837D01*
X-1246835Y1258214D01*
X-1240942Y1254201D01*
X-1234643Y1250950D01*
X-1227988Y1248511D01*
X-1221079Y1246835D01*
X-1214018Y1245971D01*
X-1106881Y1245971D01*
X-1099820Y1246835D01*
X-1092911Y1248511D01*
X-1086256Y1250950D01*
X-1079957Y1254201D01*
X-1074064Y1258214D01*
X-1068679Y1262837D01*
X-1063853Y1268069D01*
X-1059688Y1273860D01*
X-1056284Y1280058D01*
X-1053592Y1286662D01*
X-1051712Y1293520D01*
X-1050696Y1300530D01*
X-1050493Y1307642D01*
X-1051102Y1314754D01*
X-1051712Y1318260D01*
X-1053592Y1325118D01*
X-1056284Y1331671D01*
X-1059688Y1337919D01*
X-1063853Y1343710D01*
X-1068679Y1348943D01*
X-1074064Y1353566D01*
X-1076909Y1355648D01*
X-1083056Y1359255D01*
X-1089558Y1362151D01*
X-1096365Y1364183D01*
X-1099820Y1364945D01*
X-1106881Y1365758D01*
G37*
G36*
X-1610461Y241909D02*
G01*
X-1617522Y241503D01*
X-1624533Y240233D01*
X-1631340Y238150D01*
X-1637842Y235305D01*
X-1643989Y231648D01*
X-1649628Y227380D01*
X-1654708Y222402D01*
X-1659178Y216865D01*
X-1662988Y210870D01*
X-1666036Y204470D01*
X-1667306Y201117D01*
X-1669135Y194259D01*
X-1670202Y187248D01*
X-1670405Y180136D01*
X-1669796Y173024D01*
X-1668322Y166116D01*
X-1667306Y162712D01*
X-1664614Y156108D01*
X-1661160Y149860D01*
X-1657045Y144119D01*
X-1652219Y138836D01*
X-1646834Y134213D01*
X-1643989Y132130D01*
X-1637842Y128524D01*
X-1631340Y125679D01*
X-1627987Y124510D01*
X-1621078Y122834D01*
X-1614017Y122021D01*
X-1510436Y121920D01*
X-1503375Y122326D01*
X-1499819Y122834D01*
X-1492910Y124510D01*
X-1486255Y127000D01*
X-1479956Y130251D01*
X-1476908Y132130D01*
X-1471269Y136448D01*
X-1466189Y141427D01*
X-1461719Y146913D01*
X-1459687Y149860D01*
X-1456283Y156108D01*
X-1453591Y162712D01*
X-1451711Y169570D01*
X-1450695Y176580D01*
X-1450492Y183692D01*
X-1451102Y190754D01*
X-1451711Y194259D01*
X-1453591Y201117D01*
X-1456283Y207721D01*
X-1459687Y213918D01*
X-1463852Y219710D01*
X-1468678Y224942D01*
X-1471269Y227380D01*
X-1476908Y231648D01*
X-1483055Y235305D01*
X-1489557Y238150D01*
X-1496364Y240233D01*
X-1503375Y241503D01*
X-1510436Y241909D01*
G37*
G36*
X-1210462Y241909D02*
G01*
X-1217523Y241503D01*
X-1224534Y240233D01*
X-1231341Y238150D01*
X-1237843Y235305D01*
X-1243990Y231648D01*
X-1249629Y227380D01*
X-1254709Y222402D01*
X-1259179Y216865D01*
X-1262989Y210870D01*
X-1266037Y204470D01*
X-1267307Y201117D01*
X-1269136Y194259D01*
X-1270203Y187248D01*
X-1270406Y180136D01*
X-1269796Y173024D01*
X-1268323Y166116D01*
X-1267307Y162712D01*
X-1264615Y156108D01*
X-1261160Y149860D01*
X-1257046Y144119D01*
X-1252220Y138836D01*
X-1246835Y134213D01*
X-1243990Y132130D01*
X-1237843Y128524D01*
X-1231341Y125679D01*
X-1227988Y124510D01*
X-1221079Y122834D01*
X-1214018Y122021D01*
X-1110437Y121920D01*
X-1103376Y122326D01*
X-1099820Y122834D01*
X-1092911Y124510D01*
X-1086256Y127000D01*
X-1079957Y130251D01*
X-1076909Y132130D01*
X-1071270Y136448D01*
X-1066190Y141427D01*
X-1061720Y146913D01*
X-1059688Y149860D01*
X-1056284Y156108D01*
X-1053592Y162712D01*
X-1051712Y169570D01*
X-1050696Y176580D01*
X-1050493Y183692D01*
X-1051102Y190754D01*
X-1051712Y194259D01*
X-1053592Y201117D01*
X-1056284Y207721D01*
X-1059688Y213918D01*
X-1063853Y219710D01*
X-1068679Y224942D01*
X-1071270Y227380D01*
X-1076909Y231648D01*
X-1083056Y235305D01*
X-1089558Y238150D01*
X-1096365Y240233D01*
X-1103376Y241503D01*
X-1110437Y241909D01*
G37*
G36*
X-438810Y-274777D02*
G01*
X-442772Y-278790D01*
X-442772Y-324815D01*
X-438810Y-328777D01*
X-388721Y-328777D01*
X-384708Y-324815D01*
X-384708Y-278790D01*
X-388721Y-274777D01*
G37*
G36*
X-523849Y-274777D02*
G01*
X-527862Y-278790D01*
X-527862Y-324815D01*
X-523849Y-328777D01*
X-473811Y-328777D01*
X-469798Y-324815D01*
X-469798Y-278790D01*
X-473811Y-274777D01*
G37*
G36*
X-523544Y-392379D02*
G01*
X-527558Y-396392D01*
X-527558Y-442417D01*
X-523544Y-446379D01*
X-473506Y-446379D01*
X-469493Y-442417D01*
X-469493Y-396392D01*
X-473506Y-392379D01*
G37*
G36*
X-438505Y-392379D02*
G01*
X-442518Y-396392D01*
X-442518Y-442417D01*
X-438505Y-446379D01*
X-388416Y-446379D01*
X-384454Y-442417D01*
X-384454Y-396392D01*
X-388416Y-392379D01*
G37*
G36*
X875385Y629716D02*
G01*
X872998Y627278D01*
X872998Y599694D01*
X875385Y597306D01*
X901801Y597306D01*
X904189Y599694D01*
X904189Y627278D01*
X901801Y629716D01*
G37*
G36*
X827989Y629716D02*
G01*
X825601Y627278D01*
X825601Y599694D01*
X827989Y597306D01*
X854405Y597306D01*
X856792Y599694D01*
X856792Y627278D01*
X854405Y629716D01*
G37*
G36*
X528015Y1472996D02*
G01*
X525576Y1470609D01*
X525576Y1444193D01*
X528015Y1441805D01*
X555599Y1441805D01*
X557987Y1444193D01*
X557987Y1470609D01*
X555599Y1472996D01*
G37*
G36*
X528015Y1425600D02*
G01*
X525576Y1423212D01*
X525576Y1396796D01*
X528015Y1394409D01*
X555599Y1394409D01*
X557987Y1396796D01*
X557987Y1423212D01*
X555599Y1425600D01*
G37*
G36*
X872083Y834593D02*
G01*
X869696Y832205D01*
X869696Y804621D01*
X872083Y802182D01*
X898499Y802182D01*
X900887Y804621D01*
X900887Y832205D01*
X898499Y834593D01*
G37*
G36*
X824687Y834593D02*
G01*
X822299Y832205D01*
X822299Y804621D01*
X824687Y802182D01*
X851103Y802182D01*
X853490Y804621D01*
X853490Y832205D01*
X851103Y834593D01*
G37*
G36*
X-919226Y597712D02*
G01*
X-921613Y595274D01*
X-921613Y567690D01*
X-919226Y565302D01*
X-892810Y565302D01*
X-890422Y567690D01*
X-890422Y595274D01*
X-892810Y597712D01*
G37*
G36*
X-871829Y597712D02*
G01*
X-874217Y595274D01*
X-874217Y567690D01*
X-871829Y565302D01*
X-845413Y565302D01*
X-843026Y567690D01*
X-843026Y595274D01*
X-845413Y597712D01*
G37*
G36*
X-875385Y932484D02*
G01*
X-877773Y930097D01*
X-877773Y902462D01*
X-875385Y900074D01*
X-848969Y900074D01*
X-846582Y902462D01*
X-846582Y930097D01*
X-848969Y932484D01*
G37*
G36*
X-922782Y932484D02*
G01*
X-925169Y930097D01*
X-925169Y902462D01*
X-922782Y900074D01*
X-896366Y900074D01*
X-893978Y902462D01*
X-893978Y930097D01*
X-896366Y932484D01*
G37*
G36*
X1410817Y-92252D02*
G01*
X1408379Y-94640D01*
X1408379Y-122275D01*
X1410817Y-124663D01*
X1443736Y-124663D01*
X1446123Y-122275D01*
X1446123Y-94640D01*
X1443736Y-92252D01*
G37*
G36*
X1356868Y-92252D02*
G01*
X1354480Y-94640D01*
X1354480Y-122275D01*
X1356868Y-124663D01*
X1389786Y-124663D01*
X1392224Y-122275D01*
X1392224Y-94640D01*
X1389786Y-92252D01*
G37*
G36*
X822960Y1623009D02*
G01*
X818946Y1618996D01*
X818946Y1573022D01*
X822960Y1569008D01*
X873048Y1569008D01*
X877011Y1573022D01*
X877011Y1618996D01*
X873048Y1623009D01*
G37*
G36*
X908050Y1623009D02*
G01*
X904036Y1618996D01*
X904036Y1573022D01*
X908050Y1569008D01*
X958087Y1569008D01*
X962101Y1573022D01*
X962101Y1618996D01*
X958087Y1623009D01*
G37*
G36*
X1716786Y375208D02*
G01*
X1711807Y370179D01*
X1711807Y325170D01*
X1716786Y320192D01*
X1764792Y320192D01*
X1771802Y325170D01*
X1771802Y370179D01*
X1764792Y375208D01*
G37*
G36*
X1814779Y375208D02*
G01*
X1807768Y370179D01*
X1807768Y325170D01*
X1814779Y320192D01*
X1862785Y320192D01*
X1867814Y325170D01*
X1867814Y370179D01*
X1862785Y375208D01*
G37*
G36*
X-160782Y-89408D02*
G01*
X-165811Y-96418D01*
X-165811Y-144424D01*
X-160782Y-149402D01*
X-115824Y-149402D01*
X-110794Y-144424D01*
X-110794Y-96418D01*
X-115824Y-89408D01*
G37*
G36*
X-160782Y6604D02*
G01*
X-165811Y1574D01*
X-165811Y-46380D01*
X-160782Y-53390D01*
X-115824Y-53390D01*
X-110794Y-46380D01*
X-110794Y1574D01*
X-115824Y6604D01*
G37*
G36*
X1603349Y-94284D02*
G01*
X1600911Y-96672D01*
X1600911Y-124307D01*
X1603349Y-126695D01*
X1636268Y-126695D01*
X1638655Y-124307D01*
X1638655Y-96672D01*
X1636268Y-94284D01*
G37*
G36*
X1549400Y-94284D02*
G01*
X1547012Y-96672D01*
X1547012Y-124307D01*
X1549400Y-126695D01*
X1582318Y-126695D01*
X1584756Y-124307D01*
X1584756Y-96672D01*
X1582318Y-94284D01*
G37*
G36*
X-630682Y-154584D02*
G01*
X-635711Y-159613D01*
X-635711Y-204622D01*
X-630682Y-209600D01*
X-582676Y-209600D01*
X-575716Y-204622D01*
X-575716Y-159613D01*
X-582676Y-154584D01*
G37*
G36*
X-532688Y-154584D02*
G01*
X-539699Y-159613D01*
X-539699Y-204622D01*
X-532688Y-209600D01*
X-484682Y-209600D01*
X-479704Y-204622D01*
X-479704Y-159613D01*
X-484682Y-154584D01*
G37*
G36*
X-174142Y-642416D02*
G01*
X-176580Y-644804D01*
X-176580Y-672439D01*
X-174142Y-674827D01*
X-147726Y-674827D01*
X-145338Y-672439D01*
X-145338Y-644804D01*
X-147726Y-642416D01*
G37*
G36*
X-221589Y-642416D02*
G01*
X-223977Y-644804D01*
X-223977Y-672439D01*
X-221589Y-674827D01*
X-195173Y-674827D01*
X-192735Y-672439D01*
X-192735Y-644804D01*
X-195173Y-642416D01*
G37*
G36*
X-233425Y914D02*
G01*
X-235813Y-1524D01*
X-235813Y-34442D01*
X-233425Y-36830D01*
X-205790Y-36830D01*
X-203403Y-34442D01*
X-203403Y-1524D01*
X-205790Y914D01*
G37*
G36*
X-233425Y54864D02*
G01*
X-235813Y52425D01*
X-235813Y19507D01*
X-233425Y17119D01*
X-205790Y17119D01*
X-203403Y19507D01*
X-203403Y52425D01*
X-205790Y54864D01*
G37*
G36*
X-28194Y298754D02*
G01*
X-32207Y294792D01*
X-32207Y248767D01*
X-28194Y244805D01*
X21844Y244805D01*
X25857Y248767D01*
X25857Y294792D01*
X21844Y298754D01*
G37*
G36*
X-113283Y298754D02*
G01*
X-117297Y294792D01*
X-117297Y248767D01*
X-113283Y244805D01*
X-63195Y244805D01*
X-59232Y248767D01*
X-59232Y294792D01*
X-63195Y298754D01*
G37*
G36*
X629818Y1488135D02*
G01*
X625805Y1484172D01*
X625805Y1434084D01*
X629818Y1430070D01*
X675792Y1430070D01*
X679805Y1434084D01*
X679805Y1484172D01*
X675792Y1488135D01*
G37*
G36*
X629818Y1403096D02*
G01*
X625805Y1399082D01*
X625805Y1349044D01*
X629818Y1345031D01*
X675792Y1345031D01*
X679805Y1349044D01*
X679805Y1399082D01*
X675792Y1403096D01*
G37*
G36*
X905256Y1502359D02*
G01*
X901242Y1498346D01*
X901242Y1452372D01*
X905256Y1448358D01*
X955294Y1448358D01*
X959307Y1452372D01*
X959307Y1498346D01*
X955294Y1502359D01*
G37*
G36*
X820166Y1502359D02*
G01*
X816152Y1498346D01*
X816152Y1452372D01*
X820166Y1448358D01*
X870254Y1448358D01*
X874217Y1452372D01*
X874217Y1498346D01*
X870254Y1502359D01*
G37*
G36*
X1343101Y1271270D02*
G01*
X1338072Y1264259D01*
X1338072Y1216253D01*
X1343101Y1211275D01*
X1388110Y1211275D01*
X1393088Y1216253D01*
X1393088Y1264259D01*
X1388110Y1271270D01*
G37*
G36*
X1343101Y1367282D02*
G01*
X1338072Y1362252D01*
X1338072Y1314246D01*
X1343101Y1307236D01*
X1388110Y1307236D01*
X1393088Y1314246D01*
X1393088Y1362252D01*
X1388110Y1367282D01*
G37*
G36*
X1223213Y1264310D02*
G01*
X1219200Y1260348D01*
X1219200Y1210259D01*
X1223213Y1206246D01*
X1269187Y1206246D01*
X1273200Y1210259D01*
X1273200Y1260348D01*
X1269187Y1264310D01*
G37*
G36*
X1223213Y1349400D02*
G01*
X1219200Y1345387D01*
X1219200Y1295349D01*
X1223213Y1291336D01*
X1269187Y1291336D01*
X1273200Y1295349D01*
X1273200Y1345387D01*
X1269187Y1349400D01*
G37*
G36*
X-635457Y291490D02*
G01*
X-639470Y287528D01*
X-639470Y241503D01*
X-635457Y237490D01*
X-585368Y237490D01*
X-581406Y241503D01*
X-581406Y287528D01*
X-585368Y291490D01*
G37*
G36*
X-720496Y291490D02*
G01*
X-724509Y287528D01*
X-724509Y241503D01*
X-720496Y237490D01*
X-670458Y237490D01*
X-666445Y241503D01*
X-666445Y287528D01*
X-670458Y291490D01*
G37*
G36*
X-437286Y-524713D02*
G01*
X-441299Y-528675D01*
X-441299Y-574700D01*
X-437286Y-578713D01*
X-387248Y-578713D01*
X-383235Y-574700D01*
X-383235Y-528675D01*
X-387248Y-524713D01*
G37*
G36*
X-522376Y-524713D02*
G01*
X-526338Y-528675D01*
X-526338Y-574700D01*
X-522376Y-578713D01*
X-472287Y-578713D01*
X-468274Y-574700D01*
X-468274Y-528675D01*
X-472287Y-524713D01*
G37*
D10*
G01*
X-978101Y-113296D03*
D11*
G01*
X-798495Y-292900D03*
D12*
G01*
X-767623Y1789918D03*
D13*
G01*
X-947226Y1610313D03*
D14*
G01*
X1082898Y545000D03*
G01*
X2452895Y545000D03*
D15*
G01*
X939297Y1052830D03*
G01*
X1034293Y1302765D03*
G01*
X844301Y1302765D03*
D16*
G01*
X-812467Y728692D03*
G01*
X-812467Y771110D03*
D17*
G01*
X-800402Y506569D03*
G01*
X-842820Y506569D03*
D19*
G01*
X-403042Y-671446D03*
G01*
X-562942Y-670745D03*
D20*
G01*
X-483732Y146296D03*
G01*
X-483732Y51300D03*
G01*
X-483732Y-43695D03*
D21*
G01*
X-714466Y-43695D03*
G01*
X-714466Y146296D03*
D22*
G01*
X706615Y518853D03*
G01*
X706615Y568853D03*
G01*
X706615Y618853D03*
G01*
X706615Y668853D03*
G01*
X706615Y718853D03*
G01*
X706615Y768852D03*
G01*
X706615Y818852D03*
G01*
X706615Y868852D03*
G01*
X706615Y918852D03*
G01*
X706615Y968852D03*
D23*
G01*
X487265Y1133853D03*
G01*
X487268Y353852D03*
D24*
G01*
X2Y-770008D03*
G01*
X2Y-660001D03*
G01*
X2Y-549993D03*
G01*
X2Y-440011D03*
G01*
X2Y-330004D03*
G01*
X2Y-219997D03*
G01*
X2Y-110015D03*
G01*
X2Y-7D03*
G01*
X2Y109999D03*
G01*
X962306Y109999D03*
G01*
X962306Y-7D03*
G01*
X962306Y-110015D03*
G01*
X962306Y-219997D03*
G01*
X962306Y-330004D03*
G01*
X962306Y-440011D03*
G01*
X962306Y-549993D03*
G01*
X962306Y-660001D03*
G01*
X962306Y-770008D03*
D25*
G01*
X1290645Y-243998D03*
D26*
G01*
X1148158Y-394000D03*
D25*
G01*
X1290647Y-544000D03*
D26*
G01*
X1433151Y-394000D03*
D27*
G01*
X1237084Y-5824D03*
G01*
X1237084Y-55811D03*
G01*
X1237084Y-105824D03*
D28*
G01*
X1149579Y-105816D03*
G01*
X1149579Y-55816D03*
G01*
X1149579Y-5816D03*
D29*
G01*
X1429109Y1671365D03*
D30*
G01*
X1241725Y1858749D03*
D31*
G01*
X1324811Y1754450D03*
D32*
G01*
X1582905Y1750917D03*
G01*
X1321276Y2012544D03*
D33*
G01*
X1678846Y1237367D03*
G01*
X1562677Y1475549D03*
D34*
G01*
X1607278Y1349882D03*
D35*
G01*
X1850161Y1262514D03*
G01*
X1687964Y1595066D03*
D36*
G01*
X1460756Y137838D03*
G01*
X1587756Y137838D03*
G01*
X1714756Y137838D03*
G01*
X1841756Y137838D03*
G01*
X1333756Y137838D03*
G01*
X1206756Y137838D03*
M02*
