G04 Layer: TopSilkscreenLayer*
G04 Panelize: , Column: 1, Row: 1, Board Size: 43.14mm x 33.02mm, Panelized Board Size: 43.14mm x 33.02mm*
G04 EasyEDA v6.5.51, 2025-10-17 13:11:11*
G04 f2673ee1f0d542a68775028af259726c,9a4ed40c0dd746429eaf55b84663d2fb,10*
G04 Gerber Generator version 0.2*
G04 Scale: 100 percent, Rotated: No, Reflected: No *
G04 Dimensions in millimeters *
G04 leading zeros omitted , absolute positions ,4 integer and 5 decimal *
%FSLAX45Y45*%
%MOMM*%

%ADD10C,0.1524*%
%ADD11C,0.1200*%
%ADD12C,0.1270*%
%ADD13C,0.1250*%
%ADD14C,0.1520*%
%ADD15C,0.2540*%
%ADD16C,0.1500*%
%ADD17C,0.2000*%
%ADD18C,0.1000*%
%ADD19C,0.0128*%
%ADD20C,0.1999*%
%ADD21C,0.1001*%
%ADD22C,0.2500*%
%ADD23C,0.2500*%

%LPD*%
G36*
X1181811Y-56286D02*
G01*
X1153363Y-56337D01*
X1151128Y-57302D01*
X1150721Y-58369D01*
X1139088Y-58369D01*
X1137767Y-59080D01*
X1137767Y-60401D01*
X1128318Y-60401D01*
X1127455Y-61214D01*
X1127455Y-62382D01*
X1118819Y-62636D01*
X1117193Y-64516D01*
X1111656Y-64516D01*
X1110843Y-66598D01*
X1105154Y-66598D01*
X1104696Y-67767D01*
X1103833Y-68630D01*
X1099159Y-68630D01*
X1097483Y-70662D01*
X1093571Y-70713D01*
X1092504Y-71780D01*
X1092504Y-72745D01*
X1088542Y-72796D01*
X1086815Y-73304D01*
X1086612Y-74828D01*
X1083259Y-74828D01*
X1082192Y-75895D01*
X1082192Y-76809D01*
X1078280Y-77012D01*
X1078026Y-78943D01*
X1074369Y-78943D01*
X1072184Y-80975D01*
X1069644Y-80975D01*
X1068476Y-82245D01*
X1068476Y-83058D01*
X1066393Y-83058D01*
X1064463Y-84023D01*
X1064056Y-85090D01*
X1061618Y-85090D01*
X1061618Y-87172D01*
X1058316Y-87172D01*
X1057503Y-87985D01*
X1057503Y-89204D01*
X1055268Y-89204D01*
X1053795Y-89611D01*
X1053388Y-91287D01*
X1052017Y-91287D01*
X1049782Y-92811D01*
X1049578Y-93319D01*
X1047546Y-93319D01*
X1047140Y-95250D01*
X1043635Y-95910D01*
X1043381Y-97434D01*
X1041044Y-97434D01*
X1041044Y-99517D01*
X1038402Y-99517D01*
X1037285Y-100736D01*
X1037285Y-101549D01*
X1035710Y-101549D01*
X1034897Y-102362D01*
X1034897Y-103581D01*
X1032967Y-103784D01*
X1032764Y-105562D01*
X1029208Y-106172D01*
X1029004Y-107746D01*
X1027480Y-107746D01*
X1026668Y-108559D01*
X1026668Y-109728D01*
X1024788Y-109982D01*
X1024534Y-111861D01*
X1023010Y-111861D01*
X1021181Y-113944D01*
X1018743Y-114350D01*
X1018743Y-115925D01*
X1016508Y-116128D01*
X1016304Y-118008D01*
X1015136Y-118008D01*
X1014323Y-118821D01*
X1014323Y-120091D01*
X1013053Y-120091D01*
X1012240Y-120904D01*
X1012240Y-122072D01*
X1010361Y-122326D01*
X1010158Y-124155D01*
X1008278Y-124358D01*
X1008075Y-126187D01*
X1006246Y-126441D01*
X1006043Y-128270D01*
X1004163Y-128473D01*
X1003960Y-130352D01*
X1001979Y-130352D01*
X1001979Y-132384D01*
X1000048Y-132588D01*
X999845Y-134416D01*
X998016Y-134670D01*
X997813Y-136550D01*
X995781Y-136550D01*
X995781Y-138531D01*
X994156Y-138938D01*
X993394Y-140970D01*
X992124Y-140970D01*
X991717Y-143002D01*
X990142Y-143205D01*
X989482Y-146812D01*
X987704Y-147015D01*
X987501Y-148844D01*
X985672Y-149047D01*
X985469Y-150876D01*
X983742Y-151282D01*
X983386Y-153263D01*
X982065Y-153619D01*
X981405Y-155448D01*
X981405Y-157073D01*
X979474Y-157276D01*
X979271Y-159156D01*
X977290Y-159156D01*
X977290Y-161899D01*
X976325Y-161899D01*
X975207Y-163169D01*
X975207Y-165354D01*
X973988Y-165354D01*
X973175Y-166166D01*
X973175Y-167589D01*
X971600Y-168249D01*
X970991Y-171500D01*
X970127Y-171500D01*
X969060Y-172618D01*
X969060Y-175564D01*
X967130Y-175818D01*
X966825Y-177850D01*
X965453Y-178104D01*
X964946Y-178917D01*
X964895Y-181813D01*
X962863Y-181813D01*
X962863Y-185877D01*
X960983Y-186080D01*
X960780Y-189992D01*
X958900Y-190195D01*
X958697Y-194106D01*
X956868Y-194310D01*
X956665Y-198272D01*
X954633Y-198272D01*
X954633Y-202336D01*
X1076045Y-202336D01*
X1076045Y-187960D01*
X1077264Y-187960D01*
X1078077Y-187147D01*
X1078077Y-181508D01*
X1079601Y-181305D01*
X1080058Y-179578D01*
X1080160Y-176885D01*
X1081278Y-175615D01*
X1082192Y-175615D01*
X1082192Y-173329D01*
X1083564Y-172974D01*
X1084275Y-171145D01*
X1084275Y-169468D01*
X1086307Y-169468D01*
X1086307Y-167436D01*
X1088186Y-167233D01*
X1088440Y-165404D01*
X1090269Y-165150D01*
X1090472Y-163271D01*
X1092504Y-163271D01*
X1092504Y-161239D01*
X1094384Y-161188D01*
X1096060Y-159156D01*
X1098651Y-159156D01*
X1098651Y-157124D01*
X1102614Y-156921D01*
X1102817Y-155041D01*
X1108964Y-155041D01*
X1108964Y-154228D01*
X1110081Y-153009D01*
X1127404Y-153009D01*
X1127810Y-155041D01*
X1133500Y-155041D01*
X1134262Y-157124D01*
X1137666Y-157124D01*
X1138072Y-159156D01*
X1141831Y-159156D01*
X1142034Y-161036D01*
X1143863Y-161290D01*
X1144270Y-163271D01*
X1145844Y-163271D01*
X1146606Y-165354D01*
X1147978Y-165354D01*
X1148689Y-167386D01*
X1150010Y-167386D01*
X1150416Y-169468D01*
X1152093Y-169468D01*
X1152347Y-171348D01*
X1154226Y-171551D01*
X1154226Y-174548D01*
X1154633Y-175615D01*
X1156258Y-175615D01*
X1156258Y-178409D01*
X1156970Y-179730D01*
X1158341Y-179730D01*
X1158341Y-184607D01*
X1159052Y-185928D01*
X1160373Y-185928D01*
X1160373Y-204419D01*
X1159154Y-204419D01*
X1158341Y-205282D01*
X1158341Y-210515D01*
X1156258Y-210921D01*
X1156258Y-214731D01*
X1155039Y-214731D01*
X1154226Y-215544D01*
X1154226Y-217881D01*
X1153363Y-218694D01*
X1152144Y-219151D01*
X1152144Y-220878D01*
X1150264Y-221081D01*
X1150061Y-222961D01*
X1148842Y-222961D01*
X1148029Y-223774D01*
X1148029Y-224993D01*
X1146810Y-224993D01*
X1145997Y-225856D01*
X1145997Y-227025D01*
X1144117Y-227228D01*
X1143863Y-229108D01*
X1141780Y-229108D01*
X1140510Y-230276D01*
X1140510Y-231140D01*
X1137920Y-231343D01*
X1137716Y-233222D01*
X1133957Y-233222D01*
X1133551Y-234238D01*
X1131468Y-235305D01*
X1127658Y-235356D01*
X1125931Y-235864D01*
X1125728Y-237337D01*
X1110996Y-237337D01*
X1110996Y-236016D01*
X1109675Y-235305D01*
X1104595Y-235305D01*
X1104239Y-233934D01*
X1102410Y-233222D01*
X1100480Y-233222D01*
X1100124Y-231902D01*
X1098296Y-231190D01*
X1096670Y-231190D01*
X1096264Y-229565D01*
X1094232Y-229158D01*
X1092250Y-227075D01*
X1090472Y-227075D01*
X1090269Y-225196D01*
X1088440Y-224993D01*
X1088186Y-223113D01*
X1086307Y-222910D01*
X1086307Y-221132D01*
X1084275Y-219202D01*
X1084224Y-217982D01*
X1083767Y-217220D01*
X1082395Y-216966D01*
X1082040Y-213867D01*
X1081481Y-213004D01*
X1080160Y-213004D01*
X1080160Y-210210D01*
X1079449Y-208889D01*
X1078077Y-208889D01*
X1078077Y-202793D01*
X1076045Y-202336D01*
X953414Y-202387D01*
X952550Y-203200D01*
X952550Y-206502D01*
X950925Y-206908D01*
X950518Y-208381D01*
X950518Y-210972D01*
X950010Y-210972D01*
X948639Y-213207D01*
X948283Y-216966D01*
X946810Y-217170D01*
X946403Y-219252D01*
X946403Y-222961D01*
X945438Y-222961D01*
X944371Y-224028D01*
X944371Y-229108D01*
X942289Y-229108D01*
X942289Y-235610D01*
X940765Y-235813D01*
X940308Y-237540D01*
X940206Y-243535D01*
X939241Y-243535D01*
X938174Y-244602D01*
X938174Y-251967D01*
X936650Y-252628D01*
X936193Y-254355D01*
X936091Y-262737D01*
X935431Y-262737D01*
X934059Y-264972D01*
X934059Y-278485D01*
X932383Y-278892D01*
X932027Y-280416D01*
X931999Y-319989D01*
X960831Y-319989D01*
X960831Y-293065D01*
X962304Y-292404D01*
X962812Y-290677D01*
X962863Y-274116D01*
X964133Y-273710D01*
X964895Y-271983D01*
X964895Y-262077D01*
X966978Y-262077D01*
X966978Y-253746D01*
X968400Y-253390D01*
X969060Y-251714D01*
X969060Y-245567D01*
X970280Y-245567D01*
X971092Y-244754D01*
X971092Y-239420D01*
X971905Y-239420D01*
X973175Y-238302D01*
X973175Y-233222D01*
X974140Y-233222D01*
X975207Y-232156D01*
X975207Y-227126D01*
X977087Y-226923D01*
X977290Y-223215D01*
X979322Y-221335D01*
X979322Y-216763D01*
X981405Y-216763D01*
X981405Y-212699D01*
X983284Y-212496D01*
X983487Y-210616D01*
X1047496Y-210616D01*
X1047750Y-212140D01*
X1049274Y-212852D01*
X1049274Y-217779D01*
X1049680Y-218846D01*
X1051356Y-218846D01*
X1051356Y-222554D01*
X1051763Y-224688D01*
X1053388Y-225094D01*
X1053388Y-227584D01*
X1053795Y-229108D01*
X1055370Y-229108D01*
X1055827Y-232613D01*
X1057503Y-233375D01*
X1057503Y-235305D01*
X1059484Y-235305D01*
X1059942Y-238760D01*
X1061567Y-239521D01*
X1061974Y-241503D01*
X1063650Y-241503D01*
X1063853Y-243382D01*
X1065682Y-243586D01*
X1065936Y-245414D01*
X1067816Y-245617D01*
X1067816Y-247650D01*
X1069797Y-247650D01*
X1070051Y-249529D01*
X1071829Y-249732D01*
X1072235Y-251764D01*
X1074318Y-251764D01*
X1074318Y-252984D01*
X1075131Y-253847D01*
X1078026Y-253847D01*
X1078280Y-255727D01*
X1080465Y-255930D01*
X1080465Y-257098D01*
X1081328Y-257962D01*
X1084275Y-257962D01*
X1084275Y-259994D01*
X1088288Y-259994D01*
X1089050Y-262077D01*
X1094486Y-262077D01*
X1094892Y-264109D01*
X1101090Y-264109D01*
X1101090Y-265480D01*
X1102410Y-266192D01*
X1134872Y-266192D01*
X1135684Y-265328D01*
X1135684Y-264109D01*
X1141882Y-264109D01*
X1141882Y-263448D01*
X1142949Y-263448D01*
X1143304Y-262077D01*
X1147876Y-261874D01*
X1148080Y-260045D01*
X1151991Y-259842D01*
X1152194Y-257962D01*
X1156106Y-257759D01*
X1156309Y-255879D01*
X1157935Y-255879D01*
X1159764Y-255168D01*
X1160119Y-253847D01*
X1162253Y-253644D01*
X1162507Y-251764D01*
X1164488Y-251764D01*
X1164488Y-249732D01*
X1166571Y-249732D01*
X1166571Y-247650D01*
X1168450Y-247650D01*
X1169111Y-246125D01*
X1170686Y-245414D01*
X1170686Y-243535D01*
X1172718Y-243535D01*
X1172718Y-241503D01*
X1174800Y-241503D01*
X1174800Y-239471D01*
X1176680Y-239267D01*
X1176883Y-237337D01*
X1177544Y-237337D01*
X1178915Y-235966D01*
X1178915Y-233273D01*
X1180795Y-233070D01*
X1180998Y-230682D01*
X1183030Y-228854D01*
X1183030Y-224993D01*
X1185062Y-224993D01*
X1185062Y-220878D01*
X1186332Y-220878D01*
X1187145Y-220065D01*
X1187145Y-214782D01*
X1189024Y-213867D01*
X1189228Y-202082D01*
X1190498Y-201676D01*
X1191260Y-199542D01*
X1191260Y-190449D01*
X1190548Y-188620D01*
X1189177Y-188264D01*
X1189177Y-177038D01*
X1188770Y-175971D01*
X1187145Y-175971D01*
X1187145Y-169773D01*
X1185062Y-169367D01*
X1185011Y-165506D01*
X1184554Y-163779D01*
X1183030Y-163576D01*
X1183030Y-161696D01*
X1182268Y-159562D01*
X1180998Y-159156D01*
X1180795Y-157276D01*
X1178915Y-157073D01*
X1178915Y-153822D01*
X1178102Y-153009D01*
X1176883Y-153009D01*
X1176680Y-151130D01*
X1174800Y-150876D01*
X1174800Y-148894D01*
X1173886Y-148894D01*
X1172819Y-147675D01*
X1172159Y-145643D01*
X1170787Y-144983D01*
X1170025Y-143052D01*
X1168654Y-143052D01*
X1167587Y-140970D01*
X1166520Y-140970D01*
X1164132Y-138582D01*
X1162507Y-138582D01*
X1162253Y-136702D01*
X1160373Y-136499D01*
X1160373Y-135178D01*
X1159052Y-134467D01*
X1156309Y-134467D01*
X1156106Y-132588D01*
X1153871Y-132384D01*
X1153871Y-130759D01*
X1149959Y-130251D01*
X1147978Y-128320D01*
X1143914Y-128320D01*
X1143914Y-126695D01*
X1142390Y-126237D01*
X1137869Y-126237D01*
X1137107Y-124612D01*
X1134922Y-124206D01*
X1124915Y-124206D01*
X1123340Y-122529D01*
X1118565Y-122072D01*
X1113688Y-122529D01*
X1112977Y-124206D01*
X1101394Y-124206D01*
X1099413Y-125171D01*
X1099007Y-126237D01*
X1094740Y-126339D01*
X1093012Y-126796D01*
X1092809Y-128320D01*
X1089202Y-128320D01*
X1088390Y-129133D01*
X1088390Y-130352D01*
X1084275Y-130352D01*
X1084275Y-132435D01*
X1080973Y-132435D01*
X1080160Y-133248D01*
X1080160Y-134366D01*
X1077468Y-134823D01*
X1076198Y-136398D01*
X1074318Y-136906D01*
X1073912Y-138531D01*
X1072083Y-138785D01*
X1071880Y-140614D01*
X1070051Y-140817D01*
X1069797Y-142646D01*
X1067968Y-142900D01*
X1067765Y-144729D01*
X1065936Y-144932D01*
X1065682Y-146761D01*
X1063853Y-147015D01*
X1063650Y-148844D01*
X1061821Y-149047D01*
X1061567Y-150926D01*
X1060653Y-150926D01*
X1059586Y-152044D01*
X1059586Y-153263D01*
X1057503Y-155448D01*
X1057503Y-157124D01*
X1056538Y-157124D01*
X1055471Y-158191D01*
X1055471Y-161239D01*
X1054201Y-161239D01*
X1053388Y-162052D01*
X1053388Y-165354D01*
X1052423Y-165354D01*
X1051356Y-166420D01*
X1051356Y-171500D01*
X1050086Y-171500D01*
X1049274Y-172364D01*
X1049274Y-178054D01*
X1047546Y-178054D01*
X1047546Y-179730D01*
X1001979Y-179730D01*
X1001979Y-177698D01*
X1004011Y-177698D01*
X1004011Y-175615D01*
X1006094Y-175615D01*
X1006094Y-173024D01*
X1008126Y-171348D01*
X1008126Y-169468D01*
X1010208Y-169468D01*
X1010208Y-167436D01*
X1012088Y-167233D01*
X1012291Y-165354D01*
X1013460Y-165354D01*
X1014323Y-164541D01*
X1014323Y-163017D01*
X1015644Y-162661D01*
X1016355Y-160832D01*
X1016355Y-159156D01*
X1018438Y-159156D01*
X1018438Y-157124D01*
X1020470Y-157124D01*
X1020470Y-155041D01*
X1022553Y-155041D01*
X1022553Y-153009D01*
X1024585Y-153009D01*
X1024585Y-150926D01*
X1026668Y-150926D01*
X1026668Y-148894D01*
X1028700Y-148894D01*
X1028700Y-146812D01*
X1030782Y-146812D01*
X1030782Y-144780D01*
X1032814Y-144780D01*
X1032814Y-142697D01*
X1034897Y-142697D01*
X1034897Y-140665D01*
X1036574Y-140665D01*
X1038301Y-139852D01*
X1038656Y-138684D01*
X1040688Y-138277D01*
X1041095Y-136550D01*
X1042924Y-136347D01*
X1043178Y-134467D01*
X1045159Y-134467D01*
X1045159Y-132435D01*
X1047242Y-132435D01*
X1047242Y-130352D01*
X1050239Y-130352D01*
X1051356Y-129285D01*
X1051356Y-128371D01*
X1053236Y-128117D01*
X1053439Y-126237D01*
X1055471Y-126237D01*
X1055471Y-125628D01*
X1056843Y-125272D01*
X1056843Y-124256D01*
X1059383Y-124002D01*
X1059637Y-122123D01*
X1061313Y-122123D01*
X1063193Y-120142D01*
X1065580Y-119887D01*
X1065784Y-118008D01*
X1067612Y-118008D01*
X1069238Y-117602D01*
X1069848Y-115976D01*
X1071930Y-115976D01*
X1071930Y-113944D01*
X1075842Y-113741D01*
X1076096Y-111861D01*
X1079347Y-111861D01*
X1080160Y-111048D01*
X1080160Y-109778D01*
X1083919Y-109778D01*
X1084326Y-107746D01*
X1087577Y-107746D01*
X1088390Y-106883D01*
X1088390Y-105714D01*
X1092301Y-105511D01*
X1092555Y-103632D01*
X1096619Y-103632D01*
X1096619Y-102819D01*
X1097737Y-101549D01*
X1101953Y-101549D01*
X1102766Y-100736D01*
X1102766Y-99517D01*
X1107440Y-99517D01*
X1108252Y-98653D01*
X1108252Y-97434D01*
X1112875Y-97434D01*
X1114602Y-95402D01*
X1119073Y-95300D01*
X1120800Y-94843D01*
X1121003Y-93370D01*
X1127302Y-93167D01*
X1127506Y-91287D01*
X1135532Y-91236D01*
X1137208Y-89204D01*
X1147267Y-89204D01*
X1148130Y-87172D01*
X1161948Y-87071D01*
X1163624Y-86614D01*
X1164336Y-85090D01*
X1200150Y-85090D01*
X1200658Y-86004D01*
X1202385Y-87172D01*
X1216304Y-87172D01*
X1216304Y-88188D01*
X1218336Y-89204D01*
X1227226Y-89204D01*
X1228750Y-91287D01*
X1236370Y-91287D01*
X1237132Y-93319D01*
X1244701Y-93319D01*
X1244904Y-95199D01*
X1250848Y-95402D01*
X1251254Y-97434D01*
X1257096Y-97434D01*
X1257096Y-99517D01*
X1261211Y-99517D01*
X1261211Y-100482D01*
X1262735Y-101549D01*
X1267307Y-101549D01*
X1267714Y-103632D01*
X1271320Y-103632D01*
X1272082Y-105613D01*
X1275791Y-105867D01*
X1276045Y-107238D01*
X1276807Y-107696D01*
X1279702Y-107746D01*
X1279702Y-108712D01*
X1280820Y-109778D01*
X1284122Y-109778D01*
X1284376Y-111658D01*
X1287932Y-111861D01*
X1288338Y-113893D01*
X1291996Y-113893D01*
X1292402Y-115976D01*
X1294688Y-115976D01*
X1296365Y-118008D01*
X1298092Y-118008D01*
X1298854Y-120091D01*
X1302308Y-120091D01*
X1302512Y-121970D01*
X1304594Y-122326D01*
X1304848Y-123698D01*
X1305610Y-124206D01*
X1308506Y-124206D01*
X1308709Y-126085D01*
X1310538Y-126288D01*
X1310995Y-128320D01*
X1312570Y-128320D01*
X1314653Y-130352D01*
X1316736Y-130352D01*
X1316939Y-132232D01*
X1318717Y-132486D01*
X1319123Y-134467D01*
X1320850Y-134467D01*
X1321257Y-136550D01*
X1322882Y-136550D01*
X1324965Y-138582D01*
X1327048Y-138582D01*
X1327048Y-140665D01*
X1329080Y-140665D01*
X1329283Y-142544D01*
X1331112Y-142748D01*
X1331315Y-144576D01*
X1333195Y-144830D01*
X1333398Y-146659D01*
X1335278Y-146862D01*
X1335278Y-148894D01*
X1337310Y-148894D01*
X1337513Y-150774D01*
X1339392Y-150977D01*
X1339392Y-153009D01*
X1341424Y-153009D01*
X1341628Y-154889D01*
X1343456Y-155092D01*
X1343660Y-156921D01*
X1345539Y-157175D01*
X1345742Y-159004D01*
X1347571Y-159207D01*
X1347774Y-161036D01*
X1349705Y-161290D01*
X1349705Y-163271D01*
X1352092Y-165608D01*
X1352092Y-167030D01*
X1353718Y-167436D01*
X1354124Y-169468D01*
X1355801Y-169468D01*
X1356004Y-171348D01*
X1357934Y-171551D01*
X1357934Y-173634D01*
X1359916Y-175615D01*
X1360373Y-177698D01*
X1362049Y-177698D01*
X1362049Y-179730D01*
X1364081Y-179730D01*
X1364538Y-183540D01*
X1366113Y-183946D01*
X1366316Y-185775D01*
X1368196Y-185978D01*
X1368196Y-188722D01*
X1368907Y-190042D01*
X1370279Y-190042D01*
X1370279Y-192430D01*
X1372260Y-194208D01*
X1372463Y-196037D01*
X1374394Y-196240D01*
X1374394Y-198780D01*
X1374800Y-200304D01*
X1376375Y-200304D01*
X1376832Y-204114D01*
X1378508Y-204520D01*
X1378508Y-207467D01*
X1379575Y-208534D01*
X1380439Y-208534D01*
X1380845Y-211988D01*
X1381252Y-212648D01*
X1382623Y-212648D01*
X1382623Y-216763D01*
X1384655Y-216763D01*
X1384655Y-219811D01*
X1385062Y-220878D01*
X1386738Y-220878D01*
X1386738Y-224231D01*
X1387144Y-226466D01*
X1388770Y-227177D01*
X1388770Y-229108D01*
X1335278Y-229108D01*
X1335278Y-226212D01*
X1334770Y-225450D01*
X1333398Y-225196D01*
X1333195Y-219252D01*
X1331163Y-218795D01*
X1331163Y-215188D01*
X1329131Y-213664D01*
X1329131Y-210616D01*
X1328318Y-210616D01*
X1327048Y-209499D01*
X1327048Y-206806D01*
X1325016Y-206400D01*
X1325016Y-204063D01*
X1324305Y-202742D01*
X1322984Y-202742D01*
X1322781Y-200507D01*
X1320901Y-200304D01*
X1320698Y-198424D01*
X1318818Y-198221D01*
X1318818Y-196189D01*
X1316786Y-196189D01*
X1316786Y-194157D01*
X1314704Y-194157D01*
X1314704Y-192074D01*
X1312672Y-192074D01*
X1312468Y-190195D01*
X1310640Y-189992D01*
X1310436Y-188163D01*
X1308557Y-187909D01*
X1308557Y-186283D01*
X1306677Y-185826D01*
X1305306Y-184556D01*
X1304442Y-184556D01*
X1304442Y-183845D01*
X1302359Y-183845D01*
X1302359Y-182524D01*
X1301038Y-181813D01*
X1298244Y-181813D01*
X1298244Y-180187D01*
X1297178Y-179730D01*
X1294130Y-179730D01*
X1294130Y-178104D01*
X1292606Y-177698D01*
X1287983Y-177698D01*
X1287983Y-176072D01*
X1286865Y-175615D01*
X1281531Y-175615D01*
X1280820Y-174040D01*
X1278636Y-173583D01*
X1250188Y-173583D01*
X1248867Y-174294D01*
X1248867Y-175615D01*
X1241856Y-175666D01*
X1241044Y-176123D01*
X1240790Y-177546D01*
X1236675Y-177901D01*
X1235456Y-178460D01*
X1234846Y-179628D01*
X1231341Y-180086D01*
X1230680Y-180492D01*
X1230680Y-181813D01*
X1228598Y-181813D01*
X1228140Y-182981D01*
X1227328Y-183845D01*
X1224991Y-183845D01*
X1224178Y-184708D01*
X1224178Y-185928D01*
X1222451Y-185928D01*
X1221994Y-187096D01*
X1221130Y-187960D01*
X1219911Y-188010D01*
X1218387Y-188366D01*
X1218031Y-189941D01*
X1216304Y-190398D01*
X1215847Y-192074D01*
X1214729Y-192074D01*
X1213866Y-192938D01*
X1213866Y-194056D01*
X1211834Y-194462D01*
X1211834Y-196189D01*
X1210411Y-196189D01*
X1209598Y-198272D01*
X1208125Y-198678D01*
X1207719Y-200152D01*
X1207719Y-201422D01*
X1206855Y-202234D01*
X1205636Y-202692D01*
X1205636Y-204419D01*
X1204417Y-204419D01*
X1203604Y-205282D01*
X1203604Y-207568D01*
X1202740Y-208432D01*
X1201521Y-208889D01*
X1201521Y-210972D01*
X1200200Y-210972D01*
X1199794Y-211632D01*
X1199388Y-215087D01*
X1198524Y-215087D01*
X1197711Y-216103D01*
X1197254Y-221081D01*
X1195781Y-221284D01*
X1195374Y-223367D01*
X1195374Y-229108D01*
X1193292Y-229108D01*
X1193364Y-250698D01*
X1222095Y-250698D01*
X1222095Y-239369D01*
X1223518Y-238963D01*
X1224178Y-237337D01*
X1224178Y-231241D01*
X1226058Y-231038D01*
X1226261Y-227126D01*
X1228140Y-226923D01*
X1228344Y-223012D01*
X1230172Y-222808D01*
X1230376Y-220878D01*
X1231341Y-220878D01*
X1232408Y-219811D01*
X1232408Y-218287D01*
X1234440Y-216611D01*
X1234440Y-214731D01*
X1236472Y-214731D01*
X1236675Y-214223D01*
X1238910Y-212648D01*
X1239824Y-212648D01*
X1240637Y-211836D01*
X1240637Y-210667D01*
X1242517Y-210464D01*
X1242720Y-208534D01*
X1245971Y-208534D01*
X1246784Y-207721D01*
X1246784Y-206552D01*
X1250746Y-206349D01*
X1250950Y-204419D01*
X1256944Y-204368D01*
X1258620Y-203911D01*
X1259332Y-202387D01*
X1270406Y-202387D01*
X1272133Y-204419D01*
X1277670Y-204419D01*
X1277670Y-205435D01*
X1279194Y-206502D01*
X1281836Y-206502D01*
X1283919Y-208534D01*
X1286154Y-208534D01*
X1286510Y-209905D01*
X1288338Y-210616D01*
X1289964Y-210616D01*
X1290167Y-212496D01*
X1291996Y-212699D01*
X1292402Y-214731D01*
X1294028Y-214731D01*
X1294434Y-216763D01*
X1296162Y-216763D01*
X1296365Y-218694D01*
X1298244Y-218897D01*
X1298244Y-220878D01*
X1300327Y-220878D01*
X1300327Y-224993D01*
X1302359Y-224993D01*
X1302359Y-228041D01*
X1302766Y-229108D01*
X1304442Y-229108D01*
X1304442Y-233781D01*
X1304848Y-235305D01*
X1306474Y-235305D01*
X1306474Y-254152D01*
X1305102Y-254152D01*
X1304442Y-255473D01*
X1304442Y-260248D01*
X1303070Y-260604D01*
X1302359Y-262432D01*
X1302359Y-264058D01*
X1300683Y-264464D01*
X1300226Y-268224D01*
X1299057Y-268224D01*
X1298244Y-269036D01*
X1298244Y-270256D01*
X1296568Y-270713D01*
X1296162Y-272643D01*
X1294485Y-273050D01*
X1294485Y-273710D01*
X1292402Y-275539D01*
X1292402Y-276402D01*
X1290421Y-276860D01*
X1290015Y-278536D01*
X1287983Y-278536D01*
X1287983Y-280466D01*
X1284376Y-281076D01*
X1284122Y-282651D01*
X1282192Y-282651D01*
X1280363Y-283311D01*
X1280007Y-284683D01*
X1276146Y-284734D01*
X1274419Y-285242D01*
X1273759Y-286766D01*
X1255014Y-286766D01*
X1255014Y-285089D01*
X1253490Y-284683D01*
X1248867Y-284683D01*
X1248867Y-283057D01*
X1247800Y-282651D01*
X1244752Y-282651D01*
X1244752Y-280974D01*
X1243685Y-280568D01*
X1240637Y-280568D01*
X1240637Y-278536D01*
X1238605Y-278536D01*
X1238402Y-276606D01*
X1236522Y-276402D01*
X1236522Y-274726D01*
X1234440Y-274320D01*
X1234440Y-272694D01*
X1232458Y-272288D01*
X1232255Y-270459D01*
X1230325Y-270256D01*
X1230325Y-268630D01*
X1229664Y-266801D01*
X1228293Y-266446D01*
X1228293Y-264160D01*
X1226210Y-262128D01*
X1226210Y-259588D01*
X1225499Y-258267D01*
X1224178Y-258267D01*
X1224178Y-252425D01*
X1222095Y-250698D01*
X1193364Y-250698D01*
X1193393Y-259486D01*
X1193850Y-261213D01*
X1195374Y-261874D01*
X1195374Y-267157D01*
X1195781Y-268224D01*
X1197406Y-268224D01*
X1197406Y-273050D01*
X1198118Y-274421D01*
X1199489Y-274421D01*
X1199489Y-277418D01*
X1199896Y-278536D01*
X1201521Y-278536D01*
X1201521Y-281279D01*
X1202232Y-282651D01*
X1203604Y-282651D01*
X1203604Y-285038D01*
X1205636Y-286207D01*
X1205636Y-287477D01*
X1206347Y-288798D01*
X1207668Y-288798D01*
X1207871Y-290677D01*
X1209751Y-290880D01*
X1209954Y-292760D01*
X1211834Y-292963D01*
X1211834Y-294995D01*
X1213866Y-294995D01*
X1213866Y-297027D01*
X1215898Y-297027D01*
X1216101Y-298907D01*
X1217980Y-299110D01*
X1218184Y-300990D01*
X1219962Y-301193D01*
X1220368Y-303225D01*
X1222451Y-303225D01*
X1222451Y-304546D01*
X1223772Y-305257D01*
X1226210Y-305257D01*
X1226210Y-307340D01*
X1228953Y-307340D01*
X1229817Y-309219D01*
X1233424Y-309422D01*
X1234948Y-311454D01*
X1238554Y-311454D01*
X1238554Y-313486D01*
X1244600Y-313486D01*
X1245362Y-315569D01*
X1255369Y-315569D01*
X1255369Y-316585D01*
X1257401Y-317601D01*
X1273556Y-317601D01*
X1273556Y-315569D01*
X1283665Y-315366D01*
X1283868Y-313486D01*
X1291031Y-313486D01*
X1291031Y-311454D01*
X1295349Y-311454D01*
X1296162Y-310591D01*
X1296162Y-309372D01*
X1300327Y-309372D01*
X1300327Y-307340D01*
X1301953Y-307340D01*
X1303782Y-306628D01*
X1304137Y-305308D01*
X1306322Y-305104D01*
X1306525Y-303225D01*
X1308557Y-303225D01*
X1308557Y-302412D01*
X1309674Y-301142D01*
X1311402Y-301142D01*
X1312672Y-300024D01*
X1312672Y-299110D01*
X1313891Y-299110D01*
X1314704Y-298246D01*
X1314704Y-297078D01*
X1316583Y-296875D01*
X1316786Y-294995D01*
X1318006Y-294995D01*
X1318818Y-294132D01*
X1318818Y-292912D01*
X1320190Y-292912D01*
X1320901Y-291592D01*
X1320901Y-290068D01*
X1322019Y-288798D01*
X1322933Y-288798D01*
X1322933Y-286766D01*
X1324813Y-286562D01*
X1325016Y-284429D01*
X1326337Y-284073D01*
X1327048Y-282244D01*
X1327048Y-280568D01*
X1328267Y-280568D01*
X1329131Y-279755D01*
X1329131Y-276453D01*
X1330350Y-276453D01*
X1331163Y-275640D01*
X1331163Y-271780D01*
X1333195Y-270103D01*
X1333246Y-264109D01*
X1335278Y-264109D01*
X1335278Y-262077D01*
X1399082Y-262077D01*
X1399082Y-269189D01*
X1399489Y-271373D01*
X1401114Y-272084D01*
X1401114Y-284581D01*
X1401572Y-286766D01*
X1403146Y-288290D01*
X1403197Y-324104D01*
X1401622Y-324307D01*
X1401165Y-327406D01*
X1401114Y-340563D01*
X1399590Y-340766D01*
X1399133Y-342798D01*
X1399082Y-351231D01*
X1398371Y-351231D01*
X1397000Y-353466D01*
X1397000Y-360832D01*
X1395780Y-360832D01*
X1394968Y-361645D01*
X1394968Y-367030D01*
X1393088Y-368604D01*
X1392834Y-373430D01*
X1390853Y-375361D01*
X1390853Y-379323D01*
X1389888Y-379831D01*
X1388770Y-382066D01*
X1388770Y-385521D01*
X1387144Y-385927D01*
X1386738Y-387400D01*
X1386738Y-390702D01*
X1385874Y-391566D01*
X1384655Y-392023D01*
X1384655Y-395782D01*
X1383436Y-395782D01*
X1382623Y-396646D01*
X1382623Y-399897D01*
X1381607Y-399897D01*
X1380540Y-401015D01*
X1380540Y-404012D01*
X1379575Y-404012D01*
X1378508Y-405130D01*
X1378508Y-408127D01*
X1377492Y-408127D01*
X1376426Y-409244D01*
X1376426Y-412242D01*
X1375206Y-412242D01*
X1374394Y-413105D01*
X1374394Y-416356D01*
X1372463Y-416559D01*
X1372260Y-418693D01*
X1370939Y-419049D01*
X1370279Y-420878D01*
X1370279Y-422554D01*
X1368196Y-422554D01*
X1368196Y-425450D01*
X1366164Y-427126D01*
X1366164Y-428701D01*
X1365148Y-428701D01*
X1364081Y-429818D01*
X1364081Y-431038D01*
X1362049Y-433273D01*
X1362049Y-434898D01*
X1360779Y-434898D01*
X1359966Y-435711D01*
X1359966Y-437286D01*
X1358290Y-437286D01*
X1357833Y-441045D01*
X1356004Y-441248D01*
X1355801Y-443077D01*
X1353972Y-443280D01*
X1353769Y-445109D01*
X1352042Y-445566D01*
X1351635Y-447598D01*
X1350010Y-447598D01*
X1350010Y-449173D01*
X1347978Y-450697D01*
X1347520Y-453390D01*
X1345742Y-453593D01*
X1345539Y-455422D01*
X1343660Y-455625D01*
X1343456Y-457504D01*
X1341628Y-457708D01*
X1341424Y-459536D01*
X1339545Y-459740D01*
X1339342Y-461619D01*
X1337513Y-461822D01*
X1337310Y-463651D01*
X1335430Y-463854D01*
X1335227Y-465785D01*
X1333246Y-465785D01*
X1333246Y-467766D01*
X1331315Y-467969D01*
X1331112Y-469849D01*
X1329283Y-470052D01*
X1329080Y-471932D01*
X1326997Y-471932D01*
X1324559Y-474319D01*
X1323340Y-474319D01*
X1323086Y-475894D01*
X1320901Y-476097D01*
X1320901Y-478078D01*
X1318971Y-478282D01*
X1318768Y-480161D01*
X1317193Y-480161D01*
X1314958Y-482244D01*
X1313027Y-482650D01*
X1312824Y-484124D01*
X1310741Y-484428D01*
X1310538Y-486257D01*
X1307896Y-486664D01*
X1306525Y-488391D01*
X1305255Y-488391D01*
X1304442Y-489204D01*
X1304442Y-490474D01*
X1303020Y-490474D01*
X1301089Y-491439D01*
X1300683Y-492506D01*
X1299057Y-492506D01*
X1298244Y-493318D01*
X1298244Y-494588D01*
X1295552Y-494588D01*
X1294485Y-494995D01*
X1294485Y-496620D01*
X1292555Y-496620D01*
X1290828Y-498652D01*
X1288135Y-498856D01*
X1287932Y-500735D01*
X1284681Y-500735D01*
X1283868Y-501548D01*
X1283868Y-502818D01*
X1279702Y-502818D01*
X1279702Y-504850D01*
X1276451Y-504850D01*
X1275638Y-505663D01*
X1275638Y-506882D01*
X1271676Y-507085D01*
X1271473Y-508965D01*
X1267917Y-509016D01*
X1266190Y-509524D01*
X1265529Y-511048D01*
X1262024Y-511048D01*
X1261211Y-511860D01*
X1261211Y-513080D01*
X1257960Y-513080D01*
X1255369Y-513537D01*
X1255369Y-515162D01*
X1251102Y-515213D01*
X1249375Y-515670D01*
X1249172Y-517194D01*
X1244600Y-517194D01*
X1243076Y-517601D01*
X1242669Y-519277D01*
X1237030Y-519328D01*
X1235303Y-519785D01*
X1234643Y-521309D01*
X1228140Y-521309D01*
X1226616Y-521716D01*
X1226210Y-523341D01*
X1215542Y-523544D01*
X1213916Y-525424D01*
X1199540Y-525424D01*
X1197660Y-524459D01*
X1196746Y-524814D01*
X1195527Y-527456D01*
X1168654Y-527507D01*
X1168450Y-525932D01*
X1165352Y-525475D01*
X1152144Y-525424D01*
X1152144Y-455777D01*
X1154531Y-453440D01*
X1159560Y-453440D01*
X1160373Y-452577D01*
X1160373Y-451358D01*
X1164437Y-451358D01*
X1166520Y-449275D01*
X1169314Y-449275D01*
X1170686Y-447903D01*
X1170686Y-447243D01*
X1172718Y-447243D01*
X1172718Y-446430D01*
X1173886Y-445211D01*
X1176832Y-445211D01*
X1176832Y-443128D01*
X1178915Y-443128D01*
X1178915Y-441045D01*
X1181760Y-441045D01*
X1183030Y-439928D01*
X1183030Y-439013D01*
X1184249Y-439013D01*
X1185062Y-438200D01*
X1185062Y-436981D01*
X1186942Y-436778D01*
X1187196Y-434898D01*
X1188364Y-434898D01*
X1189177Y-434085D01*
X1189177Y-432816D01*
X1191260Y-432816D01*
X1191260Y-430530D01*
X1192631Y-430174D01*
X1193292Y-428345D01*
X1193292Y-426669D01*
X1195374Y-426669D01*
X1195374Y-424586D01*
X1196594Y-424586D01*
X1197406Y-423773D01*
X1197406Y-420522D01*
X1199286Y-420319D01*
X1199540Y-416407D01*
X1201369Y-416204D01*
X1201572Y-412292D01*
X1203401Y-412089D01*
X1203604Y-406146D01*
X1205484Y-405892D01*
X1205687Y-397865D01*
X1206449Y-397865D01*
X1207719Y-396748D01*
X1207719Y-371754D01*
X1205636Y-370941D01*
X1205636Y-363372D01*
X1203604Y-361848D01*
X1203604Y-357022D01*
X1201572Y-356616D01*
X1201369Y-352755D01*
X1199540Y-352552D01*
X1199286Y-348640D01*
X1197406Y-348437D01*
X1197406Y-344678D01*
X1195425Y-344271D01*
X1195222Y-342493D01*
X1193292Y-342239D01*
X1193292Y-339394D01*
X1192784Y-338632D01*
X1191412Y-338328D01*
X1191209Y-336448D01*
X1189177Y-336042D01*
X1189177Y-334416D01*
X1187145Y-334010D01*
X1187145Y-332333D01*
X1185062Y-331927D01*
X1185062Y-330301D01*
X1183030Y-329895D01*
X1183030Y-327914D01*
X1180693Y-327914D01*
X1180338Y-326542D01*
X1178509Y-325831D01*
X1176883Y-325831D01*
X1176680Y-323951D01*
X1174902Y-323748D01*
X1174140Y-322122D01*
X1170686Y-321614D01*
X1170686Y-320090D01*
X1169111Y-319684D01*
X1166571Y-319684D01*
X1166571Y-318262D01*
X1164793Y-317601D01*
X1161592Y-317601D01*
X1159865Y-315569D01*
X1154226Y-315569D01*
X1154226Y-313893D01*
X1152652Y-313486D01*
X1141120Y-313486D01*
X1138783Y-311454D01*
X1132840Y-311454D01*
X1130554Y-312877D01*
X1130554Y-313486D01*
X1118260Y-313486D01*
X1117193Y-314553D01*
X1117193Y-315518D01*
X1111199Y-315722D01*
X1110945Y-317601D01*
X1106728Y-317601D01*
X1105255Y-318008D01*
X1104849Y-319684D01*
X1101801Y-319684D01*
X1100734Y-320751D01*
X1100734Y-321716D01*
X1099058Y-321716D01*
X1097229Y-322427D01*
X1096873Y-323748D01*
X1094740Y-323951D01*
X1094536Y-325780D01*
X1091844Y-326186D01*
X1090574Y-327863D01*
X1088542Y-328066D01*
X1088339Y-329895D01*
X1086662Y-330301D01*
X1086256Y-332028D01*
X1085088Y-332028D01*
X1084275Y-332841D01*
X1084275Y-334060D01*
X1082192Y-334060D01*
X1082192Y-336042D01*
X1080465Y-336499D01*
X1080058Y-338480D01*
X1078585Y-338683D01*
X1077976Y-342290D01*
X1076198Y-342493D01*
X1075994Y-344373D01*
X1074674Y-344373D01*
X1073962Y-345694D01*
X1073962Y-348437D01*
X1072083Y-348640D01*
X1071880Y-352552D01*
X1070051Y-352755D01*
X1069848Y-356565D01*
X1067816Y-357327D01*
X1067816Y-362864D01*
X1066546Y-362864D01*
X1065733Y-363677D01*
X1065733Y-371398D01*
X1064209Y-371602D01*
X1063752Y-373684D01*
X1063752Y-383946D01*
X1094384Y-383946D01*
X1094587Y-373176D01*
X1095806Y-373176D01*
X1096619Y-372364D01*
X1096619Y-366979D01*
X1098651Y-366979D01*
X1098651Y-362864D01*
X1100734Y-362864D01*
X1100734Y-360832D01*
X1101953Y-360832D01*
X1102766Y-360019D01*
X1102766Y-358495D01*
X1104138Y-358140D01*
X1104849Y-356311D01*
X1104849Y-354634D01*
X1106881Y-354634D01*
X1106881Y-353822D01*
X1108049Y-352602D01*
X1109776Y-352602D01*
X1110996Y-351434D01*
X1110996Y-350570D01*
X1112875Y-350367D01*
X1113129Y-348488D01*
X1115923Y-348488D01*
X1117193Y-347319D01*
X1117193Y-346405D01*
X1118870Y-346405D01*
X1120698Y-345744D01*
X1121054Y-344373D01*
X1126134Y-344373D01*
X1127455Y-343662D01*
X1127455Y-342290D01*
X1144270Y-342290D01*
X1144270Y-343560D01*
X1145082Y-344373D01*
X1150467Y-344373D01*
X1150467Y-345389D01*
X1152448Y-346405D01*
X1154582Y-346405D01*
X1154582Y-347776D01*
X1155903Y-348488D01*
X1158290Y-348488D01*
X1158748Y-350520D01*
X1160729Y-350520D01*
X1160729Y-351891D01*
X1162050Y-352602D01*
X1164488Y-352602D01*
X1164488Y-354634D01*
X1166571Y-354634D01*
X1166571Y-356768D01*
X1168552Y-358749D01*
X1169162Y-360629D01*
X1170635Y-360883D01*
X1170838Y-362712D01*
X1172718Y-362915D01*
X1172718Y-365912D01*
X1173175Y-366979D01*
X1174800Y-366979D01*
X1174800Y-370332D01*
X1175258Y-372516D01*
X1176782Y-373278D01*
X1177036Y-383133D01*
X1177899Y-383692D01*
X1176832Y-387045D01*
X1176832Y-395782D01*
X1175207Y-396189D01*
X1174800Y-397713D01*
X1174800Y-401980D01*
X1172718Y-401980D01*
X1172718Y-405130D01*
X1171854Y-405942D01*
X1170686Y-406400D01*
X1170686Y-408076D01*
X1168958Y-408533D01*
X1168552Y-410565D01*
X1166926Y-410565D01*
X1166926Y-412242D01*
X1164996Y-414274D01*
X1163066Y-415035D01*
X1162710Y-416306D01*
X1160729Y-416712D01*
X1160322Y-418439D01*
X1159154Y-418439D01*
X1158341Y-419252D01*
X1158341Y-420471D01*
X1155293Y-420471D01*
X1154226Y-421589D01*
X1154226Y-422554D01*
X1151178Y-422554D01*
X1150112Y-423621D01*
X1150112Y-424586D01*
X1145032Y-424586D01*
X1143914Y-425043D01*
X1143914Y-426618D01*
X1142136Y-425704D01*
X1141171Y-426059D01*
X1141171Y-426669D01*
X1127455Y-426669D01*
X1127455Y-425043D01*
X1126388Y-424586D01*
X1121308Y-424586D01*
X1121308Y-422554D01*
X1117193Y-422554D01*
X1117193Y-420928D01*
X1116076Y-420471D01*
X1113129Y-420471D01*
X1112875Y-418592D01*
X1110996Y-418388D01*
X1110996Y-416763D01*
X1109065Y-416356D01*
X1108303Y-414680D01*
X1106982Y-414680D01*
X1104849Y-412597D01*
X1104849Y-411429D01*
X1104341Y-410616D01*
X1102969Y-410362D01*
X1102715Y-408127D01*
X1100734Y-408127D01*
X1100734Y-406349D01*
X1098702Y-404418D01*
X1098499Y-402132D01*
X1096619Y-401929D01*
X1096619Y-396443D01*
X1094587Y-395681D01*
X1094384Y-383946D01*
X1063752Y-383946D01*
X1063752Y-395274D01*
X1064209Y-397002D01*
X1065733Y-397662D01*
X1065733Y-404571D01*
X1066190Y-406095D01*
X1067816Y-406095D01*
X1067816Y-412242D01*
X1069848Y-412242D01*
X1069848Y-415290D01*
X1070254Y-416356D01*
X1071930Y-416356D01*
X1071930Y-419404D01*
X1072337Y-420471D01*
X1073861Y-420471D01*
X1074470Y-424434D01*
X1075994Y-424637D01*
X1076198Y-426516D01*
X1078077Y-426720D01*
X1078077Y-428701D01*
X1080414Y-430936D01*
X1080668Y-432308D01*
X1082090Y-432968D01*
X1082852Y-434898D01*
X1084122Y-434898D01*
X1084884Y-436880D01*
X1086510Y-437134D01*
X1086713Y-438708D01*
X1088694Y-439115D01*
X1088694Y-440334D01*
X1090066Y-441045D01*
X1092454Y-441045D01*
X1092657Y-442976D01*
X1094486Y-443179D01*
X1094892Y-445211D01*
X1098600Y-445211D01*
X1098854Y-447090D01*
X1101090Y-447293D01*
X1101090Y-448513D01*
X1102817Y-449275D01*
X1105154Y-449275D01*
X1107135Y-451358D01*
X1110945Y-451358D01*
X1111656Y-453440D01*
X1118006Y-453440D01*
X1119225Y-454558D01*
X1119225Y-517194D01*
X1115110Y-517194D01*
X1115110Y-515874D01*
X1113790Y-515162D01*
X1108964Y-515162D01*
X1108964Y-513892D01*
X1108151Y-513080D01*
X1102766Y-513080D01*
X1102766Y-511454D01*
X1101699Y-511048D01*
X1098753Y-511048D01*
X1098346Y-509422D01*
X1096162Y-508965D01*
X1094536Y-508965D01*
X1094536Y-508406D01*
X1091742Y-506933D01*
X1088440Y-506933D01*
X1088186Y-505002D01*
X1084326Y-504799D01*
X1084072Y-502970D01*
X1080160Y-502767D01*
X1080160Y-500735D01*
X1077061Y-500735D01*
X1075537Y-498703D01*
X1073962Y-498703D01*
X1073200Y-496976D01*
X1069848Y-496519D01*
X1069848Y-494588D01*
X1065733Y-494588D01*
X1065733Y-492506D01*
X1063853Y-492506D01*
X1063193Y-490982D01*
X1059586Y-490321D01*
X1059383Y-488543D01*
X1057554Y-488340D01*
X1057198Y-486765D01*
X1055014Y-486359D01*
X1053439Y-486359D01*
X1053236Y-484428D01*
X1051356Y-484225D01*
X1051356Y-482549D01*
X1049375Y-482142D01*
X1048613Y-480517D01*
X1045159Y-480059D01*
X1045159Y-478129D01*
X1043127Y-478129D01*
X1043127Y-476351D01*
X1041044Y-475945D01*
X1041044Y-474319D01*
X1039063Y-473913D01*
X1038656Y-472338D01*
X1036726Y-471982D01*
X1035964Y-470306D01*
X1034034Y-469798D01*
X1032814Y-468731D01*
X1032814Y-467817D01*
X1030782Y-467817D01*
X1030782Y-465785D01*
X1028700Y-465785D01*
X1028700Y-463702D01*
X1026718Y-463702D01*
X1026464Y-461822D01*
X1024585Y-461619D01*
X1024585Y-459587D01*
X1022553Y-459587D01*
X1022553Y-457504D01*
X1020470Y-457504D01*
X1020470Y-455625D01*
X1018946Y-454964D01*
X1017422Y-451713D01*
X1016457Y-451713D01*
X1016050Y-449681D01*
X1014476Y-449478D01*
X1014272Y-447548D01*
X1012291Y-447141D01*
X1012088Y-445363D01*
X1010208Y-445160D01*
X1010005Y-443280D01*
X1008176Y-443077D01*
X1007973Y-439521D01*
X1006094Y-439318D01*
X1006094Y-437286D01*
X1004062Y-436880D01*
X1003858Y-435051D01*
X1001979Y-434848D01*
X1001928Y-432003D01*
X1001420Y-431190D01*
X1000099Y-430936D01*
X999744Y-428904D01*
X997864Y-428701D01*
X997864Y-426262D01*
X997153Y-424942D01*
X995832Y-424942D01*
X995629Y-422706D01*
X993749Y-422503D01*
X993749Y-419049D01*
X991666Y-418287D01*
X991666Y-416763D01*
X990955Y-414934D01*
X989634Y-414578D01*
X989634Y-412750D01*
X987602Y-411226D01*
X987399Y-408330D01*
X985519Y-408127D01*
X985316Y-404215D01*
X983487Y-404012D01*
X983284Y-400100D01*
X981405Y-399846D01*
X981405Y-396036D01*
X979322Y-394055D01*
X979322Y-390702D01*
X978255Y-389636D01*
X977290Y-389636D01*
X977290Y-385826D01*
X975207Y-385419D01*
X975207Y-379984D01*
X973175Y-379171D01*
X973175Y-373989D01*
X972312Y-373176D01*
X971092Y-373176D01*
X971092Y-367385D01*
X969060Y-366928D01*
X969060Y-359816D01*
X967943Y-358749D01*
X966978Y-358749D01*
X966978Y-350520D01*
X964895Y-350520D01*
X964895Y-340258D01*
X964133Y-338531D01*
X962863Y-338531D01*
X962863Y-321767D01*
X962050Y-319989D01*
X931999Y-319989D01*
X931976Y-331571D01*
X932434Y-333756D01*
X934008Y-334111D01*
X934212Y-348081D01*
X936091Y-349554D01*
X936091Y-358089D01*
X937107Y-360070D01*
X938174Y-360476D01*
X938174Y-366572D01*
X938580Y-368706D01*
X940206Y-369112D01*
X940206Y-374091D01*
X940663Y-376326D01*
X942289Y-377037D01*
X942289Y-381711D01*
X942949Y-383438D01*
X944371Y-383438D01*
X944371Y-388315D01*
X945032Y-389636D01*
X946403Y-389636D01*
X946403Y-392988D01*
X946810Y-395020D01*
X948486Y-395782D01*
X948486Y-398830D01*
X948893Y-399897D01*
X950518Y-399897D01*
X950518Y-403250D01*
X950976Y-405485D01*
X952550Y-406196D01*
X952550Y-408889D01*
X953262Y-410209D01*
X954582Y-410209D01*
X954786Y-414172D01*
X956665Y-414375D01*
X956665Y-417372D01*
X957122Y-418439D01*
X958748Y-418439D01*
X958748Y-422554D01*
X960831Y-422554D01*
X960831Y-425602D01*
X961237Y-426669D01*
X962863Y-426669D01*
X962863Y-429006D01*
X963523Y-430784D01*
X964895Y-430784D01*
X964895Y-432460D01*
X965606Y-434289D01*
X966927Y-434644D01*
X967130Y-436778D01*
X969060Y-436981D01*
X969060Y-439318D01*
X969721Y-441045D01*
X971042Y-441045D01*
X971245Y-442976D01*
X973175Y-443179D01*
X973175Y-446176D01*
X973582Y-447243D01*
X975156Y-447243D01*
X975360Y-449122D01*
X977188Y-449326D01*
X977595Y-452729D01*
X978001Y-453440D01*
X979271Y-453440D01*
X979474Y-455320D01*
X981405Y-455523D01*
X981405Y-457200D01*
X983386Y-459079D01*
X983589Y-461467D01*
X985418Y-461670D01*
X985824Y-463702D01*
X987501Y-463702D01*
X987704Y-465582D01*
X989634Y-465785D01*
X989634Y-467817D01*
X991666Y-467817D01*
X991666Y-470509D01*
X992733Y-471576D01*
X993749Y-471576D01*
X994156Y-473659D01*
X995730Y-474065D01*
X996187Y-476046D01*
X997762Y-476046D01*
X998169Y-478129D01*
X999794Y-478129D01*
X1000201Y-480161D01*
X1001877Y-480161D01*
X1002284Y-482244D01*
X1003909Y-482244D01*
X1004366Y-484276D01*
X1005992Y-484276D01*
X1006398Y-486359D01*
X1008024Y-486359D01*
X1008481Y-488391D01*
X1010107Y-488391D01*
X1010513Y-490474D01*
X1012139Y-490474D01*
X1012545Y-492506D01*
X1014171Y-492506D01*
X1014933Y-494588D01*
X1016609Y-494588D01*
X1016965Y-495909D01*
X1018794Y-496620D01*
X1020470Y-496620D01*
X1020470Y-498703D01*
X1022502Y-498703D01*
X1022705Y-500583D01*
X1024534Y-500786D01*
X1024940Y-502818D01*
X1026515Y-502818D01*
X1027277Y-504850D01*
X1028649Y-504850D01*
X1030782Y-506069D01*
X1030782Y-506933D01*
X1032764Y-506933D01*
X1032967Y-508812D01*
X1034745Y-509016D01*
X1035507Y-511048D01*
X1038961Y-511048D01*
X1039164Y-512927D01*
X1040993Y-513130D01*
X1041450Y-515162D01*
X1043076Y-515162D01*
X1045159Y-516331D01*
X1045159Y-517194D01*
X1047140Y-517194D01*
X1047851Y-519277D01*
X1051306Y-519277D01*
X1051509Y-521157D01*
X1053693Y-521360D01*
X1053998Y-522681D01*
X1055827Y-523392D01*
X1057452Y-523392D01*
X1057706Y-525272D01*
X1061618Y-525475D01*
X1061618Y-527507D01*
X1065682Y-527507D01*
X1065936Y-529386D01*
X1069797Y-529590D01*
X1070203Y-531622D01*
X1073912Y-531622D01*
X1074318Y-533654D01*
X1077925Y-533654D01*
X1078738Y-535736D01*
X1082548Y-535736D01*
X1082548Y-537057D01*
X1083868Y-537768D01*
X1088288Y-537768D01*
X1088694Y-539851D01*
X1092504Y-539851D01*
X1092504Y-540816D01*
X1094028Y-541883D01*
X1098499Y-541883D01*
X1099312Y-543966D01*
X1104747Y-543966D01*
X1105509Y-545998D01*
X1111300Y-545998D01*
X1111504Y-547522D01*
X1113231Y-547979D01*
X1119073Y-548081D01*
X1119886Y-550113D01*
X1127810Y-550113D01*
X1128217Y-551180D01*
X1130198Y-552196D01*
X1138732Y-552196D01*
X1139647Y-554075D01*
X1154379Y-554431D01*
X1154633Y-555802D01*
X1155395Y-556310D01*
X1209751Y-556310D01*
X1209751Y-554228D01*
X1223721Y-554228D01*
X1225702Y-552196D01*
X1234440Y-552196D01*
X1236065Y-551535D01*
X1236472Y-550113D01*
X1243939Y-550113D01*
X1244752Y-549300D01*
X1244752Y-548081D01*
X1252372Y-548081D01*
X1253134Y-545998D01*
X1258316Y-545998D01*
X1259128Y-545185D01*
X1259128Y-543966D01*
X1265326Y-543966D01*
X1265326Y-541883D01*
X1270660Y-541883D01*
X1271473Y-541070D01*
X1271473Y-539851D01*
X1275435Y-539800D01*
X1277112Y-537768D01*
X1280972Y-537768D01*
X1281785Y-536956D01*
X1281785Y-535736D01*
X1285748Y-535533D01*
X1285951Y-533654D01*
X1290015Y-533654D01*
X1290015Y-531622D01*
X1294130Y-531622D01*
X1294130Y-529539D01*
X1298244Y-529539D01*
X1298244Y-527507D01*
X1302359Y-527507D01*
X1302359Y-525475D01*
X1306322Y-525272D01*
X1306525Y-523392D01*
X1309776Y-523392D01*
X1310589Y-522528D01*
X1310589Y-521309D01*
X1312672Y-521309D01*
X1312672Y-519277D01*
X1316583Y-519074D01*
X1316786Y-517194D01*
X1318412Y-517194D01*
X1320241Y-516534D01*
X1320596Y-515162D01*
X1322933Y-515162D01*
X1322933Y-513080D01*
X1324559Y-513080D01*
X1326743Y-511962D01*
X1327099Y-511048D01*
X1329131Y-511048D01*
X1329131Y-508965D01*
X1331163Y-508965D01*
X1331163Y-506933D01*
X1333195Y-506933D01*
X1334820Y-506272D01*
X1335227Y-504901D01*
X1337157Y-504698D01*
X1337360Y-502818D01*
X1339392Y-502818D01*
X1339392Y-500735D01*
X1341475Y-500735D01*
X1341475Y-498703D01*
X1343101Y-498703D01*
X1344930Y-497992D01*
X1345285Y-496620D01*
X1346809Y-496620D01*
X1347622Y-495808D01*
X1347622Y-494588D01*
X1349705Y-494588D01*
X1349705Y-492556D01*
X1351584Y-492353D01*
X1351788Y-490474D01*
X1353820Y-490474D01*
X1353820Y-488391D01*
X1355852Y-488391D01*
X1355852Y-486359D01*
X1357934Y-486359D01*
X1357934Y-484276D01*
X1359966Y-484276D01*
X1359966Y-482244D01*
X1362049Y-482244D01*
X1362049Y-480161D01*
X1364081Y-480161D01*
X1364081Y-478129D01*
X1366164Y-478129D01*
X1366164Y-476046D01*
X1368196Y-476046D01*
X1368196Y-474014D01*
X1370076Y-473811D01*
X1370330Y-471932D01*
X1371498Y-471932D01*
X1372311Y-471119D01*
X1372311Y-469950D01*
X1373987Y-468884D01*
X1374444Y-467309D01*
X1376426Y-465480D01*
X1376426Y-463702D01*
X1378508Y-463702D01*
X1378508Y-461670D01*
X1380388Y-461467D01*
X1380591Y-459587D01*
X1381658Y-459587D01*
X1382572Y-458368D01*
X1382623Y-455472D01*
X1384655Y-455472D01*
X1384655Y-453440D01*
X1386535Y-453237D01*
X1386738Y-451104D01*
X1388110Y-450748D01*
X1388770Y-448919D01*
X1388770Y-447243D01*
X1390853Y-447243D01*
X1390853Y-445211D01*
X1391970Y-445211D01*
X1392885Y-443992D01*
X1392885Y-441096D01*
X1394764Y-440893D01*
X1395018Y-438505D01*
X1397000Y-436626D01*
X1397000Y-434898D01*
X1398219Y-434898D01*
X1399082Y-434085D01*
X1399082Y-430834D01*
X1400962Y-430631D01*
X1401165Y-426669D01*
X1403197Y-426669D01*
X1403197Y-424688D01*
X1404112Y-424332D01*
X1405229Y-422097D01*
X1405229Y-419811D01*
X1406347Y-419811D01*
X1406702Y-418439D01*
X1407312Y-418439D01*
X1407312Y-415848D01*
X1409344Y-414172D01*
X1409344Y-410209D01*
X1411427Y-410209D01*
X1411427Y-406146D01*
X1413306Y-405892D01*
X1413510Y-401980D01*
X1414373Y-401980D01*
X1415542Y-400710D01*
X1415542Y-395833D01*
X1417421Y-395630D01*
X1417624Y-391160D01*
X1419656Y-389331D01*
X1419656Y-383438D01*
X1421688Y-383438D01*
X1421688Y-377342D01*
X1423568Y-377088D01*
X1423771Y-370941D01*
X1425803Y-370027D01*
X1425803Y-360883D01*
X1427683Y-360629D01*
X1427886Y-350570D01*
X1429766Y-350367D01*
X1429918Y-337515D01*
X1430934Y-337515D01*
X1432001Y-335229D01*
X1431798Y-276047D01*
X1429918Y-274421D01*
X1429918Y-262534D01*
X1427886Y-261010D01*
X1427886Y-252171D01*
X1425803Y-249986D01*
X1425803Y-243941D01*
X1425143Y-242112D01*
X1423771Y-241757D01*
X1423771Y-235762D01*
X1421688Y-234238D01*
X1421688Y-229463D01*
X1420672Y-227431D01*
X1419656Y-227431D01*
X1419656Y-223367D01*
X1418945Y-221538D01*
X1417574Y-221183D01*
X1417574Y-217119D01*
X1415542Y-216712D01*
X1415542Y-211277D01*
X1413459Y-210566D01*
X1413459Y-206806D01*
X1411427Y-206400D01*
X1411427Y-202438D01*
X1409344Y-200355D01*
X1409344Y-198729D01*
X1408633Y-196596D01*
X1407312Y-196138D01*
X1407312Y-193751D01*
X1406601Y-192430D01*
X1405229Y-192430D01*
X1405229Y-189636D01*
X1404518Y-188315D01*
X1403197Y-188315D01*
X1403197Y-186232D01*
X1401165Y-184404D01*
X1400962Y-181965D01*
X1399082Y-181762D01*
X1399082Y-178003D01*
X1397000Y-177596D01*
X1397000Y-174752D01*
X1396187Y-173939D01*
X1395018Y-173939D01*
X1394764Y-171704D01*
X1392885Y-171450D01*
X1392885Y-168046D01*
X1390853Y-167284D01*
X1390650Y-165506D01*
X1388770Y-165303D01*
X1388770Y-162407D01*
X1388262Y-161645D01*
X1386890Y-161391D01*
X1386535Y-159359D01*
X1384655Y-159105D01*
X1384655Y-157175D01*
X1382623Y-155092D01*
X1382623Y-153619D01*
X1380591Y-152857D01*
X1380388Y-151130D01*
X1378508Y-150876D01*
X1378508Y-148894D01*
X1376426Y-148894D01*
X1376426Y-146862D01*
X1375613Y-145084D01*
X1374394Y-145084D01*
X1374394Y-143357D01*
X1372311Y-142646D01*
X1372311Y-140970D01*
X1370279Y-140563D01*
X1370076Y-138785D01*
X1368247Y-138531D01*
X1368044Y-136702D01*
X1366164Y-136499D01*
X1365961Y-134670D01*
X1364132Y-134416D01*
X1363929Y-132588D01*
X1362049Y-132384D01*
X1362049Y-130352D01*
X1359966Y-130352D01*
X1359966Y-128320D01*
X1357934Y-128320D01*
X1357731Y-126441D01*
X1355902Y-126187D01*
X1355699Y-124358D01*
X1353820Y-124155D01*
X1353616Y-122326D01*
X1351788Y-122072D01*
X1351584Y-120243D01*
X1349705Y-120040D01*
X1349502Y-118211D01*
X1347622Y-117957D01*
X1347622Y-116281D01*
X1345590Y-115874D01*
X1345590Y-114604D01*
X1343253Y-113639D01*
X1342796Y-112217D01*
X1339443Y-111760D01*
X1339240Y-109982D01*
X1337360Y-109728D01*
X1337157Y-107899D01*
X1335278Y-107696D01*
X1335278Y-106070D01*
X1333093Y-105613D01*
X1331112Y-103632D01*
X1329131Y-103632D01*
X1328928Y-101752D01*
X1327099Y-101498D01*
X1326743Y-99923D01*
X1324559Y-99517D01*
X1322984Y-99517D01*
X1322781Y-97637D01*
X1320901Y-97383D01*
X1320901Y-96113D01*
X1319530Y-95402D01*
X1316786Y-95402D01*
X1316583Y-93522D01*
X1314805Y-93268D01*
X1314043Y-91643D01*
X1310589Y-91186D01*
X1310589Y-89611D01*
X1309522Y-89204D01*
X1306525Y-89204D01*
X1306322Y-87325D01*
X1303934Y-87122D01*
X1301902Y-85090D01*
X1300429Y-85090D01*
X1299667Y-83413D01*
X1296162Y-82956D01*
X1296162Y-81381D01*
X1292148Y-80924D01*
X1291437Y-79349D01*
X1289253Y-78943D01*
X1287576Y-78943D01*
X1287170Y-77876D01*
X1285240Y-76860D01*
X1281785Y-76860D01*
X1281785Y-75234D01*
X1280718Y-74828D01*
X1277670Y-74828D01*
X1277670Y-73406D01*
X1275892Y-72745D01*
X1271473Y-72745D01*
X1271473Y-71120D01*
X1270406Y-70713D01*
X1267104Y-70713D01*
X1266748Y-69342D01*
X1264920Y-68630D01*
X1261160Y-68630D01*
X1259586Y-66751D01*
X1254506Y-66497D01*
X1252524Y-64516D01*
X1246936Y-64516D01*
X1246174Y-62890D01*
X1243990Y-62484D01*
X1237945Y-62484D01*
X1237386Y-61569D01*
X1235659Y-60401D01*
X1227632Y-60401D01*
X1227074Y-59486D01*
X1225397Y-58369D01*
X1213662Y-58369D01*
X1212900Y-56743D01*
X1210310Y-56286D01*
G37*
D10*
X-396415Y68673D02*
G01*
X-396415Y25239D01*
X-393367Y16603D01*
X-387525Y10761D01*
X-378889Y7967D01*
X-373301Y7967D01*
X-364665Y10761D01*
X-358823Y16603D01*
X-355775Y25239D01*
X-355775Y68673D01*
X-308023Y68673D02*
G01*
X-336725Y28287D01*
X-293545Y28287D01*
X-308023Y68673D02*
G01*
X-308023Y7967D01*
D11*
X-372930Y-419737D02*
G01*
X-370390Y-425325D01*
X-364802Y-430659D01*
X-359468Y-433453D01*
X-348546Y-433453D01*
X-342958Y-430659D01*
X-337624Y-425325D01*
X-334830Y-419737D01*
X-332036Y-411609D01*
X-332036Y-397893D01*
X-334830Y-389765D01*
X-337624Y-384431D01*
X-342958Y-378843D01*
X-348546Y-376049D01*
X-359468Y-376049D01*
X-364802Y-378843D01*
X-370390Y-384431D01*
X-372930Y-389765D01*
X-390964Y-422531D02*
G01*
X-396552Y-425325D01*
X-404680Y-433453D01*
X-404680Y-376049D01*
X-438970Y-433453D02*
G01*
X-430842Y-430659D01*
X-425254Y-422531D01*
X-422714Y-408815D01*
X-422714Y-400687D01*
X-425254Y-386971D01*
X-430842Y-378843D01*
X-438970Y-376049D01*
X-444558Y-376049D01*
X-452686Y-378843D01*
X-458020Y-386971D01*
X-460814Y-400687D01*
X-460814Y-408815D01*
X-458020Y-422531D01*
X-452686Y-430659D01*
X-444558Y-433453D01*
X-438970Y-433453D01*
D12*
X-155191Y-772213D02*
G01*
X-161033Y-775261D01*
X-166621Y-781103D01*
X-169669Y-786691D01*
X-172463Y-795327D01*
X-172463Y-809805D01*
X-169669Y-818441D01*
X-166621Y-824283D01*
X-161033Y-830125D01*
X-155191Y-832919D01*
X-143761Y-832919D01*
X-137919Y-830125D01*
X-132077Y-824283D01*
X-129283Y-818441D01*
X-126235Y-809805D01*
X-126235Y-795327D01*
X-129283Y-786691D01*
X-132077Y-781103D01*
X-137919Y-775261D01*
X-143761Y-772213D01*
X-155191Y-772213D01*
X-146555Y-821489D02*
G01*
X-129283Y-838761D01*
X-78483Y-772213D02*
G01*
X-107185Y-812853D01*
X-64005Y-812853D01*
X-78483Y-772213D02*
G01*
X-78483Y-832919D01*
X-474278Y-717496D02*
G01*
X-474278Y-777948D01*
X-474278Y-717496D02*
G01*
X-448370Y-717496D01*
X-439734Y-720290D01*
X-436686Y-723084D01*
X-433892Y-728926D01*
X-433892Y-734768D01*
X-436686Y-740610D01*
X-439734Y-743404D01*
X-448370Y-746198D01*
X-474278Y-746198D01*
X-454212Y-746198D02*
G01*
X-433892Y-777948D01*
X-412048Y-731974D02*
G01*
X-412048Y-728926D01*
X-409000Y-723084D01*
X-406206Y-720290D01*
X-400364Y-717496D01*
X-388934Y-717496D01*
X-383092Y-720290D01*
X-380298Y-723084D01*
X-377250Y-728926D01*
X-377250Y-734768D01*
X-380298Y-740610D01*
X-385886Y-749246D01*
X-414842Y-777948D01*
X-374456Y-777948D01*
X-320862Y-717496D02*
G01*
X-349564Y-717496D01*
X-352612Y-743404D01*
X-349564Y-740610D01*
X-340928Y-737562D01*
X-332292Y-737562D01*
X-323656Y-740610D01*
X-317814Y-746198D01*
X-315020Y-754834D01*
X-315020Y-760676D01*
X-317814Y-769312D01*
X-323656Y-775154D01*
X-332292Y-777948D01*
X-340928Y-777948D01*
X-349564Y-775154D01*
X-352612Y-772360D01*
X-355406Y-766518D01*
X-638802Y-642678D02*
G01*
X-578350Y-642678D01*
X-638802Y-642678D02*
G01*
X-638802Y-616516D01*
X-636008Y-607880D01*
X-633214Y-605086D01*
X-627372Y-602292D01*
X-621530Y-602292D01*
X-615688Y-605086D01*
X-612894Y-607880D01*
X-610100Y-616516D01*
X-610100Y-642678D01*
X-610100Y-622358D02*
G01*
X-578350Y-602292D01*
X-638802Y-577400D02*
G01*
X-638802Y-545650D01*
X-615688Y-562922D01*
X-615688Y-554286D01*
X-612894Y-548444D01*
X-610100Y-545650D01*
X-601464Y-542856D01*
X-595622Y-542856D01*
X-586986Y-545650D01*
X-581144Y-551492D01*
X-578350Y-560128D01*
X-578350Y-568764D01*
X-581144Y-577400D01*
X-583938Y-580194D01*
X-589780Y-583242D01*
X-638802Y-489008D02*
G01*
X-638802Y-517964D01*
X-612894Y-520758D01*
X-615688Y-517964D01*
X-618736Y-509328D01*
X-618736Y-500692D01*
X-615688Y-492056D01*
X-610100Y-486214D01*
X-601464Y-483166D01*
X-595622Y-483166D01*
X-586986Y-486214D01*
X-581144Y-492056D01*
X-578350Y-500692D01*
X-578350Y-509328D01*
X-581144Y-517964D01*
X-583938Y-520758D01*
X-589780Y-523806D01*
X-850059Y431639D02*
G01*
X-850059Y371441D01*
X-850059Y431639D02*
G01*
X-829993Y431639D01*
X-821357Y428845D01*
X-815515Y423003D01*
X-812721Y417415D01*
X-809927Y408779D01*
X-809927Y394555D01*
X-812721Y385919D01*
X-815515Y380077D01*
X-821357Y374489D01*
X-829993Y371441D01*
X-850059Y371441D01*
X-790877Y420209D02*
G01*
X-785289Y423003D01*
X-776653Y431639D01*
X-776653Y371441D01*
X-4963Y-323522D02*
G01*
X-10805Y-326570D01*
X-16393Y-332158D01*
X-19441Y-338000D01*
X-19441Y-349684D01*
X-16393Y-355272D01*
X-10805Y-361114D01*
X-4963Y-363908D01*
X3672Y-366956D01*
X18150Y-366956D01*
X26786Y-363908D01*
X32628Y-361114D01*
X38470Y-355272D01*
X41264Y-349684D01*
X41264Y-338000D01*
X38470Y-332158D01*
X32628Y-326570D01*
X26786Y-323522D01*
X-7757Y-304472D02*
G01*
X-10805Y-298884D01*
X-19441Y-290248D01*
X41264Y-290248D01*
X-19441Y-242242D02*
G01*
X20944Y-271198D01*
X20944Y-227764D01*
X-19441Y-242242D02*
G01*
X41264Y-242242D01*
X171848Y129593D02*
G01*
X171848Y86413D01*
X174896Y77777D01*
X180484Y71935D01*
X189120Y68887D01*
X194962Y68887D01*
X203598Y71935D01*
X209440Y77777D01*
X212234Y86413D01*
X212234Y129593D01*
X231284Y118163D02*
G01*
X237126Y120957D01*
X245762Y129593D01*
X245762Y68887D01*
X264812Y118163D02*
G01*
X270654Y120957D01*
X279290Y129593D01*
X279290Y68887D01*
X-326016Y211696D02*
G01*
X-326016Y150990D01*
X-326016Y211696D02*
G01*
X-300108Y211696D01*
X-291472Y208902D01*
X-288678Y205854D01*
X-285630Y200012D01*
X-285630Y194424D01*
X-288678Y188582D01*
X-291472Y185788D01*
X-300108Y182740D01*
X-326016Y182740D01*
X-305950Y182740D02*
G01*
X-285630Y150990D01*
X-266580Y200012D02*
G01*
X-260738Y203060D01*
X-252102Y211696D01*
X-252102Y150990D01*
X-198508Y211696D02*
G01*
X-227464Y211696D01*
X-230258Y185788D01*
X-227464Y188582D01*
X-218828Y191376D01*
X-209938Y191376D01*
X-201302Y188582D01*
X-195714Y182740D01*
X-192666Y174104D01*
X-192666Y168262D01*
X-195714Y159626D01*
X-201302Y154038D01*
X-209938Y150990D01*
X-218828Y150990D01*
X-227464Y154038D01*
X-230258Y156832D01*
X-233052Y162674D01*
X-999906Y-281165D02*
G01*
X-1005748Y-283959D01*
X-1011336Y-289801D01*
X-1014130Y-295389D01*
X-1017178Y-304025D01*
X-1017178Y-318249D01*
X-1014130Y-326885D01*
X-1011336Y-332727D01*
X-1005748Y-338315D01*
X-999906Y-341363D01*
X-988476Y-341363D01*
X-982634Y-338315D01*
X-977046Y-332727D01*
X-973998Y-326885D01*
X-971204Y-318249D01*
X-971204Y-304025D01*
X-973998Y-295389D01*
X-977046Y-289801D01*
X-982634Y-283959D01*
X-988476Y-281165D01*
X-999906Y-281165D01*
X-991270Y-329933D02*
G01*
X-973998Y-346951D01*
X-946566Y-281165D02*
G01*
X-915070Y-281165D01*
X-932342Y-304025D01*
X-923706Y-304025D01*
X-918118Y-306819D01*
X-915070Y-309867D01*
X-912276Y-318249D01*
X-912276Y-324091D01*
X-915070Y-332727D01*
X-920912Y-338315D01*
X-929548Y-341363D01*
X-937930Y-341363D01*
X-946566Y-338315D01*
X-949614Y-335521D01*
X-952408Y-329933D01*
X1331038Y263237D02*
G01*
X1331038Y202531D01*
X1331038Y263237D02*
G01*
X1356946Y263237D01*
X1365582Y260443D01*
X1368376Y257395D01*
X1371424Y251553D01*
X1371424Y245965D01*
X1368376Y240123D01*
X1365582Y237329D01*
X1356946Y234281D01*
X1331038Y234281D01*
X1351104Y234281D02*
G01*
X1371424Y202531D01*
X1419176Y263237D02*
G01*
X1390474Y222851D01*
X1433654Y222851D01*
X1419176Y263237D02*
G01*
X1419176Y202531D01*
X1332308Y346549D02*
G01*
X1332308Y285843D01*
X1332308Y346549D02*
G01*
X1358216Y346549D01*
X1366852Y343755D01*
X1369646Y340707D01*
X1372694Y334865D01*
X1372694Y329277D01*
X1369646Y323435D01*
X1366852Y320641D01*
X1358216Y317593D01*
X1332308Y317593D01*
X1352374Y317593D02*
G01*
X1372694Y285843D01*
X1406222Y346549D02*
G01*
X1397586Y343755D01*
X1394538Y337913D01*
X1394538Y332071D01*
X1397586Y326229D01*
X1403174Y323435D01*
X1414858Y320641D01*
X1423494Y317593D01*
X1429336Y312005D01*
X1432130Y306163D01*
X1432130Y297527D01*
X1429336Y291685D01*
X1426288Y288891D01*
X1417652Y285843D01*
X1406222Y285843D01*
X1397586Y288891D01*
X1394538Y291685D01*
X1391744Y297527D01*
X1391744Y306163D01*
X1394538Y312005D01*
X1400380Y317593D01*
X1409016Y320641D01*
X1420446Y323435D01*
X1426288Y326229D01*
X1429336Y332071D01*
X1429336Y337913D01*
X1426288Y343755D01*
X1417652Y346549D01*
X1406222Y346549D01*
X1330784Y439767D02*
G01*
X1330784Y379061D01*
X1330784Y439767D02*
G01*
X1356692Y439767D01*
X1365328Y436973D01*
X1368122Y433925D01*
X1371170Y428083D01*
X1371170Y422495D01*
X1368122Y416653D01*
X1365328Y413859D01*
X1356692Y410811D01*
X1330784Y410811D01*
X1350850Y410811D02*
G01*
X1371170Y379061D01*
X1393014Y425289D02*
G01*
X1393014Y428083D01*
X1396062Y433925D01*
X1398856Y436973D01*
X1404698Y439767D01*
X1416128Y439767D01*
X1421970Y436973D01*
X1424764Y433925D01*
X1427812Y428083D01*
X1427812Y422495D01*
X1424764Y416653D01*
X1418922Y408017D01*
X1390220Y379061D01*
X1430606Y379061D01*
X1449656Y428083D02*
G01*
X1455498Y431131D01*
X1464134Y439767D01*
X1464134Y379061D01*
X1343992Y514189D02*
G01*
X1343992Y453483D01*
X1343992Y514189D02*
G01*
X1369900Y514189D01*
X1378536Y511395D01*
X1381330Y508347D01*
X1384378Y502505D01*
X1384378Y496917D01*
X1381330Y491075D01*
X1378536Y488281D01*
X1369900Y485233D01*
X1343992Y485233D01*
X1364058Y485233D02*
G01*
X1384378Y453483D01*
X1406222Y499711D02*
G01*
X1406222Y502505D01*
X1409270Y508347D01*
X1412064Y511395D01*
X1417906Y514189D01*
X1429336Y514189D01*
X1435178Y511395D01*
X1437972Y508347D01*
X1441020Y502505D01*
X1441020Y496917D01*
X1437972Y491075D01*
X1432130Y482439D01*
X1403428Y453483D01*
X1443814Y453483D01*
X1468706Y514189D02*
G01*
X1500456Y514189D01*
X1482930Y491075D01*
X1491820Y491075D01*
X1497408Y488281D01*
X1500456Y485233D01*
X1503250Y476597D01*
X1503250Y470755D01*
X1500456Y462119D01*
X1494614Y456531D01*
X1485978Y453483D01*
X1477342Y453483D01*
X1468706Y456531D01*
X1465658Y459325D01*
X1462864Y465167D01*
X-908987Y1167985D02*
G01*
X-911781Y1173827D01*
X-917623Y1179669D01*
X-923465Y1182463D01*
X-934895Y1182463D01*
X-940737Y1179669D01*
X-946579Y1173827D01*
X-949373Y1167985D01*
X-952167Y1159349D01*
X-952167Y1144871D01*
X-949373Y1136235D01*
X-946579Y1130393D01*
X-940737Y1124805D01*
X-934895Y1121757D01*
X-923465Y1121757D01*
X-917623Y1124805D01*
X-911781Y1130393D01*
X-908987Y1136235D01*
X-875459Y1182463D02*
G01*
X-884095Y1179669D01*
X-886889Y1173827D01*
X-886889Y1167985D01*
X-884095Y1162143D01*
X-878253Y1159349D01*
X-866823Y1156555D01*
X-858187Y1153507D01*
X-852345Y1147919D01*
X-849551Y1142077D01*
X-849551Y1133441D01*
X-852345Y1127599D01*
X-855139Y1124805D01*
X-864029Y1121757D01*
X-875459Y1121757D01*
X-884095Y1124805D01*
X-886889Y1127599D01*
X-889937Y1133441D01*
X-889937Y1142077D01*
X-886889Y1147919D01*
X-881301Y1153507D01*
X-872665Y1156555D01*
X-860981Y1159349D01*
X-855139Y1162143D01*
X-852345Y1167985D01*
X-852345Y1173827D01*
X-855139Y1179669D01*
X-864029Y1182463D01*
X-875459Y1182463D01*
X-1141432Y-126128D02*
G01*
X-1141432Y-186265D01*
X-1141432Y-126128D02*
G01*
X-1115659Y-126128D01*
X-1107069Y-128993D01*
X-1104206Y-131856D01*
X-1101341Y-137584D01*
X-1101341Y-143311D01*
X-1104206Y-149039D01*
X-1107069Y-151902D01*
X-1115659Y-154767D01*
X-1141432Y-154767D01*
X-1121387Y-154767D02*
G01*
X-1101341Y-186265D01*
X-1048077Y-126128D02*
G01*
X-1076713Y-126128D01*
X-1079578Y-151902D01*
X-1076713Y-149039D01*
X-1068123Y-146174D01*
X-1059533Y-146174D01*
X-1050942Y-149039D01*
X-1045215Y-154767D01*
X-1042349Y-163357D01*
X-1042349Y-169085D01*
X-1045215Y-177675D01*
X-1050942Y-183403D01*
X-1059533Y-186265D01*
X-1068123Y-186265D01*
X-1076713Y-183403D01*
X-1079578Y-180538D01*
X-1082441Y-174810D01*
X-142664Y36388D02*
G01*
X-148437Y33502D01*
X-154211Y27729D01*
X-157096Y21958D01*
X-157096Y10411D01*
X-154211Y4638D01*
X-148437Y-1132D01*
X-142664Y-4020D01*
X-134005Y-6906D01*
X-119575Y-6906D01*
X-110914Y-4020D01*
X-105143Y-1132D01*
X-99369Y4638D01*
X-96484Y10411D01*
X-96484Y21958D01*
X-99369Y27729D01*
X-105143Y33502D01*
X-110914Y36388D01*
X-142664Y58326D02*
G01*
X-145552Y58326D01*
X-151325Y61211D01*
X-154211Y64099D01*
X-157096Y69870D01*
X-157096Y81417D01*
X-154211Y87188D01*
X-151325Y90076D01*
X-145552Y92961D01*
X-139778Y92961D01*
X-134005Y90076D01*
X-125346Y84302D01*
X-96484Y55438D01*
X-96484Y95849D01*
X-635200Y197131D02*
G01*
X-640974Y194246D01*
X-646747Y188473D01*
X-649632Y182702D01*
X-649632Y171155D01*
X-646747Y165381D01*
X-640974Y159611D01*
X-635200Y156723D01*
X-626541Y153837D01*
X-612112Y153837D01*
X-603450Y156723D01*
X-597679Y159611D01*
X-591906Y165381D01*
X-589020Y171155D01*
X-589020Y182702D01*
X-591906Y188473D01*
X-597679Y194246D01*
X-603450Y197131D01*
X-629429Y253705D02*
G01*
X-620770Y250819D01*
X-614997Y245046D01*
X-612112Y236387D01*
X-612112Y233502D01*
X-614997Y224843D01*
X-620770Y219069D01*
X-629429Y216181D01*
X-632315Y216181D01*
X-640974Y219069D01*
X-646747Y224843D01*
X-649632Y233502D01*
X-649632Y236387D01*
X-646747Y245046D01*
X-640974Y250819D01*
X-629429Y253705D01*
X-614997Y253705D01*
X-600565Y250819D01*
X-591906Y245046D01*
X-589020Y236387D01*
X-589020Y230614D01*
X-591906Y221955D01*
X-597679Y219069D01*
X-1025911Y-129197D02*
G01*
X-1025911Y-189809D01*
X-1025911Y-129197D02*
G01*
X-1005705Y-129197D01*
X-997046Y-132082D01*
X-991275Y-137855D01*
X-988387Y-143629D01*
X-985502Y-152288D01*
X-985502Y-166717D01*
X-988387Y-175379D01*
X-991275Y-181150D01*
X-997046Y-186923D01*
X-1005705Y-189809D01*
X-1025911Y-189809D01*
X-963566Y-143629D02*
G01*
X-963566Y-140741D01*
X-960678Y-134970D01*
X-957793Y-132082D01*
X-952019Y-129197D01*
X-940475Y-129197D01*
X-934702Y-132082D01*
X-931816Y-134970D01*
X-928928Y-140741D01*
X-928928Y-146514D01*
X-931816Y-152288D01*
X-937587Y-160947D01*
X-966452Y-189809D01*
X-926043Y-189809D01*
X-1102149Y1678002D02*
G01*
X-1102149Y1634568D01*
X-1099355Y1625932D01*
X-1093513Y1620090D01*
X-1084877Y1617296D01*
X-1079035Y1617296D01*
X-1070399Y1620090D01*
X-1064557Y1625932D01*
X-1061763Y1634568D01*
X-1061763Y1678002D01*
X-1008169Y1669366D02*
G01*
X-1010963Y1674954D01*
X-1019599Y1678002D01*
X-1025441Y1678002D01*
X-1034077Y1674954D01*
X-1039919Y1666318D01*
X-1042713Y1651840D01*
X-1042713Y1637616D01*
X-1039919Y1625932D01*
X-1034077Y1620090D01*
X-1025441Y1617296D01*
X-1022647Y1617296D01*
X-1013757Y1620090D01*
X-1008169Y1625932D01*
X-1005121Y1634568D01*
X-1005121Y1637616D01*
X-1008169Y1646252D01*
X-1013757Y1651840D01*
X-1022647Y1654888D01*
X-1025441Y1654888D01*
X-1034077Y1651840D01*
X-1039919Y1646252D01*
X-1042713Y1637616D01*
X1120957Y1849699D02*
G01*
X1115115Y1846905D01*
X1109527Y1841063D01*
X1106479Y1835475D01*
X1106479Y1823791D01*
X1109527Y1817949D01*
X1115115Y1812361D01*
X1120957Y1809313D01*
X1129593Y1806519D01*
X1144071Y1806519D01*
X1152707Y1809313D01*
X1158549Y1812361D01*
X1164391Y1817949D01*
X1167185Y1823791D01*
X1167185Y1835475D01*
X1164391Y1841063D01*
X1158549Y1846905D01*
X1152707Y1849699D01*
X1120957Y1871797D02*
G01*
X1118163Y1871797D01*
X1112321Y1874591D01*
X1109527Y1877639D01*
X1106479Y1883227D01*
X1106479Y1894911D01*
X1109527Y1900499D01*
X1112321Y1903547D01*
X1118163Y1906341D01*
X1123751Y1906341D01*
X1129593Y1903547D01*
X1138229Y1897705D01*
X1167185Y1868749D01*
X1167185Y1909389D01*
X1106479Y1957141D02*
G01*
X1146865Y1928439D01*
X1146865Y1971619D01*
X1106479Y1957141D02*
G01*
X1167185Y1957141D01*
X-623592Y1226334D02*
G01*
X-626386Y1232176D01*
X-632228Y1238018D01*
X-638070Y1240812D01*
X-649500Y1240812D01*
X-655342Y1238018D01*
X-660930Y1232176D01*
X-663978Y1226334D01*
X-666772Y1217698D01*
X-666772Y1203220D01*
X-663978Y1194584D01*
X-660930Y1188742D01*
X-655342Y1183154D01*
X-649500Y1180106D01*
X-638070Y1180106D01*
X-632228Y1183154D01*
X-626386Y1188742D01*
X-623592Y1194584D01*
X-604542Y1229382D02*
G01*
X-598700Y1232176D01*
X-590064Y1240812D01*
X-590064Y1180106D01*
X-536470Y1232176D02*
G01*
X-539264Y1238018D01*
X-547900Y1240812D01*
X-553742Y1240812D01*
X-562378Y1238018D01*
X-568220Y1229382D01*
X-571014Y1214904D01*
X-571014Y1200426D01*
X-568220Y1188742D01*
X-562378Y1183154D01*
X-553742Y1180106D01*
X-550694Y1180106D01*
X-542058Y1183154D01*
X-536470Y1188742D01*
X-533422Y1197632D01*
X-533422Y1200426D01*
X-536470Y1209062D01*
X-542058Y1214904D01*
X-550694Y1217698D01*
X-553742Y1217698D01*
X-562378Y1214904D01*
X-568220Y1209062D01*
X-571014Y1200426D01*
X1625744Y78486D02*
G01*
X1625744Y35305D01*
X1628538Y26415D01*
X1634380Y20828D01*
X1643016Y17780D01*
X1648858Y17780D01*
X1657494Y20828D01*
X1663336Y26415D01*
X1666130Y35305D01*
X1666130Y78486D01*
X1685180Y67055D02*
G01*
X1691022Y69850D01*
X1699658Y78486D01*
X1699658Y17780D01*
X1753252Y78486D02*
G01*
X1724296Y78486D01*
X1721502Y52578D01*
X1724296Y55371D01*
X1733186Y58165D01*
X1741822Y58165D01*
X1750458Y55371D01*
X1756046Y49530D01*
X1759094Y40894D01*
X1759094Y35305D01*
X1756046Y26415D01*
X1750458Y20828D01*
X1741822Y17780D01*
X1733186Y17780D01*
X1724296Y20828D01*
X1721502Y23621D01*
X1718708Y29463D01*
X-611703Y1769409D02*
G01*
X-550997Y1769409D01*
X-611703Y1769409D02*
G01*
X-611703Y1795317D01*
X-608655Y1803953D01*
X-605861Y1806747D01*
X-600019Y1809795D01*
X-594177Y1809795D01*
X-588589Y1806747D01*
X-585541Y1803953D01*
X-582747Y1795317D01*
X-582747Y1769409D01*
X-582747Y1789475D02*
G01*
X-550997Y1809795D01*
X-597225Y1831639D02*
G01*
X-600019Y1831639D01*
X-605861Y1834433D01*
X-608655Y1837481D01*
X-611703Y1843323D01*
X-611703Y1854753D01*
X-608655Y1860595D01*
X-605861Y1863389D01*
X-600019Y1866183D01*
X-594177Y1866183D01*
X-588589Y1863389D01*
X-579953Y1857547D01*
X-550997Y1828845D01*
X-550997Y1869231D01*
X-611703Y1916983D02*
G01*
X-571317Y1888281D01*
X-571317Y1931461D01*
X-611703Y1916983D02*
G01*
X-550997Y1916983D01*
X1159591Y700384D02*
G01*
X1156797Y706226D01*
X1150955Y711814D01*
X1145367Y714862D01*
X1133683Y714862D01*
X1127841Y711814D01*
X1122253Y706226D01*
X1119205Y700384D01*
X1116411Y691748D01*
X1116411Y677270D01*
X1119205Y668634D01*
X1122253Y662792D01*
X1127841Y656950D01*
X1133683Y654156D01*
X1145367Y654156D01*
X1150955Y656950D01*
X1156797Y662792D01*
X1159591Y668634D01*
X1181689Y700384D02*
G01*
X1181689Y703178D01*
X1184483Y709020D01*
X1187531Y711814D01*
X1193119Y714862D01*
X1204803Y714862D01*
X1210391Y711814D01*
X1213439Y709020D01*
X1216233Y703178D01*
X1216233Y697590D01*
X1213439Y691748D01*
X1207597Y683112D01*
X1178641Y654156D01*
X1219281Y654156D01*
X1272875Y714862D02*
G01*
X1243919Y714862D01*
X1241125Y688700D01*
X1243919Y691748D01*
X1252555Y694542D01*
X1261191Y694542D01*
X1270081Y691748D01*
X1275669Y685906D01*
X1278717Y677270D01*
X1278717Y671428D01*
X1275669Y662792D01*
X1270081Y656950D01*
X1261191Y654156D01*
X1252555Y654156D01*
X1243919Y656950D01*
X1241125Y659998D01*
X1238331Y665840D01*
X1106220Y1237808D02*
G01*
X1166926Y1237808D01*
X1106220Y1237808D02*
G01*
X1106220Y1263716D01*
X1109268Y1272352D01*
X1112062Y1275400D01*
X1117904Y1278194D01*
X1123492Y1278194D01*
X1129334Y1275400D01*
X1132382Y1272352D01*
X1135176Y1263716D01*
X1135176Y1237808D01*
X1135176Y1258128D02*
G01*
X1166926Y1278194D01*
X1120698Y1300038D02*
G01*
X1117904Y1300038D01*
X1112062Y1303086D01*
X1109268Y1305880D01*
X1106220Y1311722D01*
X1106220Y1323152D01*
X1109268Y1328994D01*
X1112062Y1331788D01*
X1117904Y1334836D01*
X1123492Y1334836D01*
X1129334Y1331788D01*
X1137970Y1326200D01*
X1166926Y1297244D01*
X1166926Y1337630D01*
X1106220Y1373952D02*
G01*
X1109268Y1365316D01*
X1117904Y1359728D01*
X1132382Y1356680D01*
X1141018Y1356680D01*
X1155242Y1359728D01*
X1164132Y1365316D01*
X1166926Y1373952D01*
X1166926Y1379794D01*
X1164132Y1388430D01*
X1155242Y1394272D01*
X1141018Y1397066D01*
X1132382Y1397066D01*
X1117904Y1394272D01*
X1109268Y1388430D01*
X1106220Y1379794D01*
X1106220Y1373952D01*
X1424442Y1228511D02*
G01*
X1485148Y1228511D01*
X1424442Y1228511D02*
G01*
X1424442Y1254419D01*
X1427236Y1263055D01*
X1430284Y1266103D01*
X1435872Y1268897D01*
X1441714Y1268897D01*
X1447556Y1266103D01*
X1450350Y1263055D01*
X1453398Y1254419D01*
X1453398Y1228511D01*
X1453398Y1248577D02*
G01*
X1485148Y1268897D01*
X1435872Y1287947D02*
G01*
X1433078Y1293789D01*
X1424442Y1302425D01*
X1485148Y1302425D01*
X1433078Y1356019D02*
G01*
X1427236Y1353225D01*
X1424442Y1344589D01*
X1424442Y1338747D01*
X1427236Y1330111D01*
X1435872Y1324269D01*
X1450350Y1321475D01*
X1464828Y1321475D01*
X1476512Y1324269D01*
X1482100Y1330111D01*
X1485148Y1338747D01*
X1485148Y1341541D01*
X1482100Y1350177D01*
X1476512Y1356019D01*
X1467622Y1358813D01*
X1464828Y1358813D01*
X1456192Y1356019D01*
X1450350Y1350177D01*
X1447556Y1341541D01*
X1447556Y1338747D01*
X1450350Y1330111D01*
X1456192Y1324269D01*
X1464828Y1321475D01*
X1159337Y590402D02*
G01*
X1156543Y596244D01*
X1150701Y601832D01*
X1145113Y604880D01*
X1133429Y604880D01*
X1127587Y601832D01*
X1121999Y596244D01*
X1118951Y590402D01*
X1116157Y581766D01*
X1116157Y567288D01*
X1118951Y558652D01*
X1121999Y552810D01*
X1127587Y546968D01*
X1133429Y544174D01*
X1145113Y544174D01*
X1150701Y546968D01*
X1156543Y552810D01*
X1159337Y558652D01*
X1181435Y590402D02*
G01*
X1181435Y593196D01*
X1184229Y599038D01*
X1187277Y601832D01*
X1192865Y604880D01*
X1204549Y604880D01*
X1210137Y601832D01*
X1213185Y599038D01*
X1215979Y593196D01*
X1215979Y587608D01*
X1213185Y581766D01*
X1207343Y573130D01*
X1178387Y544174D01*
X1219027Y544174D01*
X1272621Y596244D02*
G01*
X1269827Y601832D01*
X1260937Y604880D01*
X1255349Y604880D01*
X1246713Y601832D01*
X1240871Y593196D01*
X1238077Y578718D01*
X1238077Y564494D01*
X1240871Y552810D01*
X1246713Y546968D01*
X1255349Y544174D01*
X1258143Y544174D01*
X1266779Y546968D01*
X1272621Y552810D01*
X1275415Y561446D01*
X1275415Y564494D01*
X1272621Y573130D01*
X1266779Y578718D01*
X1258143Y581766D01*
X1255349Y581766D01*
X1246713Y578718D01*
X1240871Y573130D01*
X1238077Y564494D01*
X893950Y9502D02*
G01*
X893950Y-51203D01*
X893950Y9502D02*
G01*
X919858Y9502D01*
X928494Y6708D01*
X931542Y3660D01*
X934336Y-1927D01*
X934336Y-7769D01*
X931542Y-13611D01*
X928494Y-16405D01*
X919858Y-19453D01*
X893950Y-19453D01*
X914016Y-19453D02*
G01*
X934336Y-51203D01*
X959228Y9502D02*
G01*
X990978Y9502D01*
X973452Y-13611D01*
X982342Y-13611D01*
X987930Y-16405D01*
X990978Y-19453D01*
X993772Y-28089D01*
X993772Y-33677D01*
X990978Y-42567D01*
X985136Y-48155D01*
X976500Y-51203D01*
X967864Y-51203D01*
X959228Y-48155D01*
X956180Y-45361D01*
X953386Y-39519D01*
X1030094Y9502D02*
G01*
X1021458Y6708D01*
X1015616Y-1927D01*
X1012822Y-16405D01*
X1012822Y-25041D01*
X1015616Y-39519D01*
X1021458Y-48155D01*
X1030094Y-51203D01*
X1035936Y-51203D01*
X1044572Y-48155D01*
X1050414Y-39519D01*
X1053208Y-25041D01*
X1053208Y-16405D01*
X1050414Y-1927D01*
X1044572Y6708D01*
X1035936Y9502D01*
X1030094Y9502D01*
X542434Y161056D02*
G01*
X542434Y100350D01*
X542434Y161056D02*
G01*
X568342Y161056D01*
X576978Y158262D01*
X580026Y155214D01*
X582820Y149626D01*
X582820Y143784D01*
X580026Y137942D01*
X576978Y135148D01*
X568342Y132100D01*
X542434Y132100D01*
X562500Y132100D02*
G01*
X582820Y100350D01*
X604664Y146578D02*
G01*
X604664Y149626D01*
X607712Y155214D01*
X610506Y158262D01*
X616348Y161056D01*
X627778Y161056D01*
X633620Y158262D01*
X636414Y155214D01*
X639462Y149626D01*
X639462Y143784D01*
X636414Y137942D01*
X630826Y129306D01*
X601870Y100350D01*
X642256Y100350D01*
X698898Y140736D02*
G01*
X695850Y132100D01*
X690262Y126512D01*
X681626Y123464D01*
X678578Y123464D01*
X669942Y126512D01*
X664100Y132100D01*
X661306Y140736D01*
X661306Y143784D01*
X664100Y152420D01*
X669942Y158262D01*
X678578Y161056D01*
X681626Y161056D01*
X690262Y158262D01*
X695850Y152420D01*
X698898Y140736D01*
X698898Y126512D01*
X695850Y112034D01*
X690262Y103398D01*
X681626Y100350D01*
X675784Y100350D01*
X667148Y103398D01*
X664100Y108986D01*
X733579Y-125001D02*
G01*
X733579Y-185707D01*
X733579Y-125001D02*
G01*
X759487Y-125001D01*
X768123Y-127795D01*
X771171Y-130843D01*
X773965Y-136431D01*
X773965Y-142273D01*
X771171Y-148115D01*
X768123Y-150909D01*
X759487Y-153957D01*
X733579Y-153957D01*
X753645Y-153957D02*
G01*
X773965Y-185707D01*
X793015Y-136431D02*
G01*
X798857Y-133637D01*
X807493Y-125001D01*
X807493Y-185707D01*
X826543Y-136431D02*
G01*
X832131Y-133637D01*
X841021Y-125001D01*
X841021Y-185707D01*
D10*
X1453812Y1196754D02*
G01*
X1453812Y1153320D01*
X1456606Y1144684D01*
X1462448Y1139096D01*
X1471084Y1136048D01*
X1476926Y1136048D01*
X1485562Y1139096D01*
X1491404Y1144684D01*
X1494198Y1153320D01*
X1494198Y1196754D01*
X1527726Y1196754D02*
G01*
X1519090Y1193960D01*
X1516042Y1188118D01*
X1516042Y1182276D01*
X1519090Y1176434D01*
X1524678Y1173640D01*
X1536362Y1170846D01*
X1544998Y1167798D01*
X1550840Y1162210D01*
X1553634Y1156368D01*
X1553634Y1147732D01*
X1550840Y1141890D01*
X1547792Y1139096D01*
X1539156Y1136048D01*
X1527726Y1136048D01*
X1519090Y1139096D01*
X1516042Y1141890D01*
X1513248Y1147732D01*
X1513248Y1156368D01*
X1516042Y1162210D01*
X1521884Y1167798D01*
X1530520Y1170846D01*
X1542204Y1173640D01*
X1547792Y1176434D01*
X1550840Y1182276D01*
X1550840Y1188118D01*
X1547792Y1193960D01*
X1539156Y1196754D01*
X1527726Y1196754D01*
X1113421Y2217458D02*
G01*
X1113421Y2169706D01*
X1116469Y2160054D01*
X1122819Y2153704D01*
X1132471Y2150656D01*
X1138821Y2150656D01*
X1148473Y2153704D01*
X1154823Y2160054D01*
X1157871Y2169706D01*
X1157871Y2217458D01*
X1178953Y2204758D02*
G01*
X1185303Y2207806D01*
X1194701Y2217458D01*
X1194701Y2150656D01*
D12*
X1367657Y1788332D02*
G01*
X1367657Y1745152D01*
X1370451Y1736516D01*
X1376293Y1730674D01*
X1384929Y1727626D01*
X1390771Y1727626D01*
X1399407Y1730674D01*
X1404995Y1736516D01*
X1408043Y1745152D01*
X1408043Y1788332D01*
X1461637Y1788332D02*
G01*
X1432935Y1788332D01*
X1429887Y1762424D01*
X1432935Y1765218D01*
X1441571Y1768266D01*
X1450207Y1768266D01*
X1458843Y1765218D01*
X1464685Y1759376D01*
X1467479Y1750740D01*
X1467479Y1745152D01*
X1464685Y1736516D01*
X1458843Y1730674D01*
X1450207Y1727626D01*
X1441571Y1727626D01*
X1432935Y1730674D01*
X1429887Y1733468D01*
X1427093Y1739310D01*
D10*
X1104361Y1500296D02*
G01*
X1165067Y1500296D01*
X1104361Y1500296D02*
G01*
X1104361Y1526204D01*
X1107155Y1534840D01*
X1110203Y1537888D01*
X1115791Y1540682D01*
X1121633Y1540682D01*
X1127475Y1537888D01*
X1130269Y1534840D01*
X1133317Y1526204D01*
X1133317Y1500296D01*
X1133317Y1520362D02*
G01*
X1165067Y1540682D01*
X1115791Y1559732D02*
G01*
X1112997Y1565574D01*
X1104361Y1574210D01*
X1165067Y1574210D01*
X1124681Y1630598D02*
G01*
X1133317Y1627804D01*
X1138905Y1621962D01*
X1141953Y1613326D01*
X1141953Y1610532D01*
X1138905Y1601896D01*
X1133317Y1596054D01*
X1124681Y1593260D01*
X1121633Y1593260D01*
X1112997Y1596054D01*
X1107155Y1601896D01*
X1104361Y1610532D01*
X1104361Y1613326D01*
X1107155Y1621962D01*
X1112997Y1627804D01*
X1124681Y1630598D01*
X1138905Y1630598D01*
X1153383Y1627804D01*
X1162019Y1621962D01*
X1165067Y1613326D01*
X1165067Y1607738D01*
X1162019Y1598848D01*
X1156431Y1596054D01*
X1423131Y1495724D02*
G01*
X1483837Y1495724D01*
X1423131Y1495724D02*
G01*
X1423131Y1521632D01*
X1425925Y1530268D01*
X1428973Y1533316D01*
X1434561Y1536110D01*
X1440403Y1536110D01*
X1446245Y1533316D01*
X1449039Y1530268D01*
X1452087Y1521632D01*
X1452087Y1495724D01*
X1452087Y1515790D02*
G01*
X1483837Y1536110D01*
X1434561Y1555160D02*
G01*
X1431767Y1561002D01*
X1423131Y1569638D01*
X1483837Y1569638D01*
X1423131Y1603166D02*
G01*
X1425925Y1594276D01*
X1431767Y1591482D01*
X1437609Y1591482D01*
X1443451Y1594276D01*
X1446245Y1600118D01*
X1449039Y1611802D01*
X1452087Y1620438D01*
X1457675Y1626026D01*
X1463517Y1629074D01*
X1472153Y1629074D01*
X1477995Y1626026D01*
X1480789Y1623232D01*
X1483837Y1614596D01*
X1483837Y1603166D01*
X1480789Y1594276D01*
X1477995Y1591482D01*
X1472153Y1588688D01*
X1463517Y1588688D01*
X1457675Y1591482D01*
X1452087Y1597324D01*
X1449039Y1605960D01*
X1446245Y1617390D01*
X1443451Y1623232D01*
X1437609Y1626026D01*
X1431767Y1626026D01*
X1425925Y1623232D01*
X1423131Y1614596D01*
X1423131Y1603166D01*
D12*
X-662063Y2144311D02*
G01*
X-664857Y2150153D01*
X-670699Y2155995D01*
X-676541Y2158789D01*
X-687971Y2158789D01*
X-693813Y2155995D01*
X-699401Y2150153D01*
X-702449Y2144311D01*
X-705243Y2135675D01*
X-705243Y2121197D01*
X-702449Y2112561D01*
X-699401Y2106719D01*
X-693813Y2101131D01*
X-687971Y2098083D01*
X-676541Y2098083D01*
X-670699Y2101131D01*
X-664857Y2106719D01*
X-662063Y2112561D01*
X-608215Y2150153D02*
G01*
X-611263Y2155995D01*
X-619899Y2158789D01*
X-625741Y2158789D01*
X-634377Y2155995D01*
X-639965Y2147359D01*
X-643013Y2132881D01*
X-643013Y2118403D01*
X-639965Y2106719D01*
X-634377Y2101131D01*
X-625741Y2098083D01*
X-622693Y2098083D01*
X-614057Y2101131D01*
X-608215Y2106719D01*
X-605421Y2115609D01*
X-605421Y2118403D01*
X-608215Y2127039D01*
X-614057Y2132881D01*
X-622693Y2135675D01*
X-625741Y2135675D01*
X-634377Y2132881D01*
X-639965Y2127039D01*
X-643013Y2118403D01*
X2135040Y1144869D02*
G01*
X2135040Y1101689D01*
X2138088Y1093053D01*
X2143676Y1087211D01*
X2152312Y1084417D01*
X2158154Y1084417D01*
X2166790Y1087211D01*
X2172632Y1093053D01*
X2175426Y1101689D01*
X2175426Y1144869D01*
X2234862Y1144869D02*
G01*
X2206160Y1084417D01*
X2194476Y1144869D02*
G01*
X2234862Y1144869D01*
X1853184Y542051D02*
G01*
X1847458Y539186D01*
X1841731Y533458D01*
X1838866Y527733D01*
X1836003Y519140D01*
X1836003Y504822D01*
X1838866Y496232D01*
X1841731Y490504D01*
X1847458Y484776D01*
X1853184Y481914D01*
X1864639Y481914D01*
X1870367Y484776D01*
X1876094Y490504D01*
X1878957Y496232D01*
X1881822Y504822D01*
X1881822Y519140D01*
X1878957Y527733D01*
X1876094Y533458D01*
X1870367Y539186D01*
X1864639Y542051D01*
X1853184Y542051D01*
X1861776Y493369D02*
G01*
X1878957Y476186D01*
X1900722Y530595D02*
G01*
X1906447Y533458D01*
X1915040Y542051D01*
X1915040Y481914D01*
X1410058Y150357D02*
G01*
X1407195Y156082D01*
X1401467Y161810D01*
X1395740Y164675D01*
X1384284Y164675D01*
X1378559Y161810D01*
X1372831Y156082D01*
X1369966Y150357D01*
X1367104Y141765D01*
X1367104Y127447D01*
X1369966Y118856D01*
X1372831Y113129D01*
X1378559Y107401D01*
X1384284Y104538D01*
X1395740Y104538D01*
X1401467Y107401D01*
X1407195Y113129D01*
X1410058Y118856D01*
X1434685Y164675D02*
G01*
X1466187Y164675D01*
X1449003Y141765D01*
X1457594Y141765D01*
X1463321Y138902D01*
X1466187Y136037D01*
X1469049Y127447D01*
X1469049Y121719D01*
X1466187Y113129D01*
X1460459Y107401D01*
X1451866Y104538D01*
X1443276Y104538D01*
X1434685Y107401D01*
X1431823Y110266D01*
X1428958Y115994D01*
X1535790Y832182D02*
G01*
X1596402Y832182D01*
X1535790Y832182D02*
G01*
X1535790Y858159D01*
X1538676Y866818D01*
X1541564Y869706D01*
X1547334Y872591D01*
X1553108Y872591D01*
X1558881Y869706D01*
X1561767Y866818D01*
X1564652Y858159D01*
X1564652Y832182D01*
X1564652Y852388D02*
G01*
X1596402Y872591D01*
X1535790Y897415D02*
G01*
X1535790Y929165D01*
X1558881Y911847D01*
X1558881Y920506D01*
X1561767Y926277D01*
X1564652Y929165D01*
X1573311Y932050D01*
X1579084Y932050D01*
X1587743Y929165D01*
X1593517Y923391D01*
X1596402Y914732D01*
X1596402Y906073D01*
X1593517Y897415D01*
X1590631Y894527D01*
X1584858Y891641D01*
X1550222Y953985D02*
G01*
X1547334Y953985D01*
X1541564Y956873D01*
X1538676Y959759D01*
X1535790Y965532D01*
X1535790Y977077D01*
X1538676Y982850D01*
X1541564Y985735D01*
X1547334Y988623D01*
X1553108Y988623D01*
X1558881Y985735D01*
X1567540Y979965D01*
X1596402Y951100D01*
X1596402Y991509D01*
X1939315Y362394D02*
G01*
X1999927Y362394D01*
X1939315Y362394D02*
G01*
X1939315Y388371D01*
X1942200Y397029D01*
X1945088Y399917D01*
X1950859Y402803D01*
X1956633Y402803D01*
X1962406Y399917D01*
X1965291Y397029D01*
X1968177Y388371D01*
X1968177Y362394D01*
X1968177Y382600D02*
G01*
X1999927Y402803D01*
X1939315Y427626D02*
G01*
X1939315Y459376D01*
X1962406Y442059D01*
X1962406Y450717D01*
X1965291Y456488D01*
X1968177Y459376D01*
X1976836Y462262D01*
X1982609Y462262D01*
X1991268Y459376D01*
X1997041Y453603D01*
X1999927Y444944D01*
X1999927Y436285D01*
X1997041Y427626D01*
X1994156Y424738D01*
X1988383Y421853D01*
X1950859Y481312D02*
G01*
X1947974Y487085D01*
X1939315Y495744D01*
X1999927Y495744D01*
X2072208Y908403D02*
G01*
X2132820Y908403D01*
X2072208Y908403D02*
G01*
X2072208Y934379D01*
X2075093Y943038D01*
X2077981Y945926D01*
X2083752Y948811D01*
X2089525Y948811D01*
X2095299Y945926D01*
X2098184Y943038D01*
X2101070Y934379D01*
X2101070Y908403D01*
X2101070Y928608D02*
G01*
X2132820Y948811D01*
X2086640Y970747D02*
G01*
X2083752Y970747D01*
X2077981Y973635D01*
X2075093Y976520D01*
X2072208Y982294D01*
X2072208Y993838D01*
X2075093Y999611D01*
X2077981Y1002497D01*
X2083752Y1005385D01*
X2089525Y1005385D01*
X2095299Y1002497D01*
X2103958Y996726D01*
X2132820Y967861D01*
X2132820Y1008270D01*
X2086640Y1030206D02*
G01*
X2083752Y1030206D01*
X2077981Y1033094D01*
X2075093Y1035979D01*
X2072208Y1041753D01*
X2072208Y1053297D01*
X2075093Y1059070D01*
X2077981Y1061956D01*
X2083752Y1064844D01*
X2089525Y1064844D01*
X2095299Y1061956D01*
X2103958Y1056185D01*
X2132820Y1027320D01*
X2132820Y1067729D01*
X1539113Y575111D02*
G01*
X1599725Y575111D01*
X1539113Y575111D02*
G01*
X1539113Y601088D01*
X1541998Y609747D01*
X1544886Y612635D01*
X1550657Y615520D01*
X1556430Y615520D01*
X1562204Y612635D01*
X1565089Y609747D01*
X1567975Y601088D01*
X1567975Y575111D01*
X1567975Y595317D02*
G01*
X1599725Y615520D01*
X1539113Y640344D02*
G01*
X1539113Y672094D01*
X1562204Y654776D01*
X1562204Y663435D01*
X1565089Y669206D01*
X1567975Y672094D01*
X1576633Y674979D01*
X1582407Y674979D01*
X1591066Y672094D01*
X1596839Y666320D01*
X1599725Y657661D01*
X1599725Y649003D01*
X1596839Y640344D01*
X1593954Y637456D01*
X1588180Y634570D01*
X1539113Y699803D02*
G01*
X1539113Y731553D01*
X1562204Y714235D01*
X1562204Y722894D01*
X1565089Y728665D01*
X1567975Y731553D01*
X1576633Y734438D01*
X1582407Y734438D01*
X1591066Y731553D01*
X1596839Y725779D01*
X1599725Y717120D01*
X1599725Y708461D01*
X1596839Y699803D01*
X1593954Y696915D01*
X1588180Y694029D01*
X1771596Y970170D02*
G01*
X1765754Y967376D01*
X1760166Y961534D01*
X1757118Y955946D01*
X1757118Y944262D01*
X1760166Y938420D01*
X1765754Y932832D01*
X1771596Y929784D01*
X1780232Y926990D01*
X1794710Y926990D01*
X1803346Y929784D01*
X1809188Y932832D01*
X1815030Y938420D01*
X1817824Y944262D01*
X1817824Y955946D01*
X1815030Y961534D01*
X1809188Y967376D01*
X1803346Y970170D01*
X1757118Y1024018D02*
G01*
X1757118Y995062D01*
X1783280Y992268D01*
X1780232Y995062D01*
X1777438Y1003698D01*
X1777438Y1012334D01*
X1780232Y1020970D01*
X1786074Y1026812D01*
X1794710Y1029860D01*
X1800552Y1029860D01*
X1809188Y1026812D01*
X1815030Y1020970D01*
X1817824Y1012334D01*
X1817824Y1003698D01*
X1815030Y995062D01*
X1811982Y992268D01*
X1806140Y989220D01*
D10*
X53931Y-317939D02*
G01*
X-25077Y-317939D01*
X-25077Y-417659D02*
G01*
X53931Y-417659D01*
X69171Y-402419D02*
G01*
X69171Y-333179D01*
X-149329Y-317939D02*
G01*
X-70319Y-317939D01*
X-70319Y-417659D02*
G01*
X-149329Y-417659D01*
X-164569Y-402419D02*
G01*
X-164569Y-333179D01*
D13*
X-213700Y-442236D02*
G01*
X-213700Y-436498D01*
X-48600Y-436498D01*
X-213700Y-632231D02*
G01*
X-213700Y-545566D01*
X-48600Y-640565D02*
G01*
X-48600Y-741298D01*
X-213700Y-741298D01*
X-213700Y-735558D01*
X-48600Y-436498D02*
G01*
X-48600Y-537232D01*
D10*
X-339239Y-620519D02*
G01*
X-339239Y-692322D01*
X-438960Y-692322D01*
X-438960Y-620519D01*
X-339239Y-575276D02*
G01*
X-339239Y-503473D01*
X-438960Y-503473D01*
X-438960Y-575276D01*
X-557458Y-576178D02*
G01*
X-557458Y-504375D01*
X-457738Y-504375D01*
X-457738Y-576178D01*
X-557458Y-621421D02*
G01*
X-557458Y-693224D01*
X-457738Y-693224D01*
X-457738Y-621421D01*
D14*
X-879627Y-29875D02*
G01*
X-879627Y-60797D01*
X-723600Y-29875D02*
G01*
X-723600Y-60797D01*
X-723600Y-39900D02*
G01*
X-701614Y-39900D01*
X-901613Y-39900D02*
G01*
X-879627Y-39900D01*
X-879627Y-49928D02*
G01*
X-901613Y-49928D01*
X-701614Y-49928D02*
G01*
X-723600Y-49928D01*
X-723600Y-29875D02*
G01*
X-701614Y-29875D01*
X-901613Y-29875D02*
G01*
X-879627Y-29875D01*
X-879627Y309201D02*
G01*
X-901613Y309201D01*
X-901613Y249201D01*
X-723600Y-60797D02*
G01*
X-701614Y-60797D01*
X-701614Y289201D01*
X-701614Y309201D01*
X-723600Y309201D01*
X-901613Y269201D02*
G01*
X-901613Y-60797D01*
X-879627Y-60797D01*
D15*
X-801613Y78402D02*
G01*
X-842253Y180002D01*
X-842253Y180002D02*
G01*
X-760973Y180002D01*
X-760973Y180002D02*
G01*
X-801613Y78402D01*
D10*
X-45059Y6830D02*
G01*
X-45059Y-72179D01*
X54660Y-72179D02*
G01*
X54660Y6830D01*
X39420Y22070D02*
G01*
X-29819Y22070D01*
X-45059Y-196430D02*
G01*
X-45059Y-117421D01*
X54660Y-117421D02*
G01*
X54660Y-196430D01*
X39420Y-211670D02*
G01*
X-29819Y-211670D01*
X153588Y-845004D02*
G01*
X91079Y-845004D01*
X91079Y-845004D01*
X91079Y-29766D01*
X91079Y-29766D01*
X153588Y-29766D01*
X643808Y-845004D02*
G01*
X706318Y-845004D01*
X706318Y-845004D01*
X706318Y-29766D01*
X706318Y-29766D01*
X643808Y-29766D01*
X-421678Y201058D02*
G01*
X-349874Y201058D01*
X-349874Y101338D01*
X-421678Y101338D01*
X-466920Y201058D02*
G01*
X-538723Y201058D01*
X-538723Y101338D01*
X-466920Y101338D01*
D13*
X-587735Y-257299D02*
G01*
X-581997Y-257299D01*
X-581997Y-422399D01*
X-777730Y-257299D02*
G01*
X-691065Y-257299D01*
X-786063Y-422399D02*
G01*
X-886797Y-422399D01*
X-886797Y-257299D01*
X-881057Y-257299D01*
X-581997Y-422399D02*
G01*
X-682731Y-422399D01*
D10*
X1238473Y278168D02*
G01*
X1192921Y278168D01*
X1192921Y200047D01*
X1238473Y200047D01*
X1271711Y278168D02*
G01*
X1317264Y278168D01*
X1317264Y200047D01*
X1271711Y200047D01*
X1237711Y357162D02*
G01*
X1192159Y357162D01*
X1192159Y279041D01*
X1237711Y279041D01*
X1270949Y357162D02*
G01*
X1316502Y357162D01*
X1316502Y279041D01*
X1270949Y279041D01*
X1236949Y450126D02*
G01*
X1191397Y450126D01*
X1191397Y372005D01*
X1236949Y372005D01*
X1270187Y450126D02*
G01*
X1315740Y450126D01*
X1315740Y372005D01*
X1270187Y372005D01*
X1240251Y536232D02*
G01*
X1194699Y536232D01*
X1194699Y458111D01*
X1240251Y458111D01*
X1273489Y536232D02*
G01*
X1319042Y536232D01*
X1319042Y458111D01*
X1273489Y458111D01*
X-943025Y1211041D02*
G01*
X-943025Y1290050D01*
X-1042746Y1290050D02*
G01*
X-1042746Y1211041D01*
X-1027506Y1195801D02*
G01*
X-958265Y1195801D01*
X-943025Y1414302D02*
G01*
X-943025Y1335293D01*
X-1042746Y1335293D02*
G01*
X-1042746Y1414302D01*
X-1027506Y1429542D02*
G01*
X-958265Y1429542D01*
X-1067993Y-35575D02*
G01*
X-1067993Y-107378D01*
X-1167714Y-107378D01*
X-1167714Y-35575D01*
X-1067993Y9667D02*
G01*
X-1067993Y81470D01*
X-1167714Y81470D01*
X-1167714Y9667D01*
X-173459Y-54068D02*
G01*
X-173459Y-133080D01*
X-73738Y-133078D02*
G01*
X-73738Y-54068D01*
X-88978Y-38828D02*
G01*
X-158219Y-38828D01*
X-173459Y-257329D02*
G01*
X-173459Y-178320D01*
X-73738Y-178318D02*
G01*
X-73738Y-257329D01*
X-88978Y-272569D02*
G01*
X-158219Y-272569D01*
X-569137Y-82072D02*
G01*
X-569137Y-3063D01*
X-668858Y-3063D02*
G01*
X-668858Y-82072D01*
X-653618Y-97312D02*
G01*
X-584377Y-97312D01*
X-569137Y121188D02*
G01*
X-569137Y42179D01*
X-668858Y42179D02*
G01*
X-668858Y121188D01*
X-653618Y136428D02*
G01*
X-584377Y136428D01*
D14*
X-1044765Y-77190D02*
G01*
X-1044765Y52809D01*
X-951166Y52806D02*
G01*
X-951166Y-77193D01*
D16*
X-974631Y1765744D02*
G01*
X-664624Y1765741D01*
X-664624Y1455737D02*
G01*
X-664624Y1765741D01*
X-974628Y1455864D02*
G01*
X-664624Y1455864D01*
X-977044Y1765744D02*
G01*
X-977044Y1681924D01*
X-977044Y1539684D02*
G01*
X-977044Y1455864D01*
D10*
X1201181Y1844085D02*
G01*
X1280190Y1844085D01*
X1280190Y1943806D02*
G01*
X1201181Y1943806D01*
X1185941Y1928563D02*
G01*
X1185941Y1859328D01*
X1404442Y1844085D02*
G01*
X1325432Y1844085D01*
X1325432Y1943806D02*
G01*
X1404442Y1943806D01*
X1419682Y1928563D02*
G01*
X1419682Y1859328D01*
X-656838Y1476994D02*
G01*
X-656838Y1397985D01*
X-557118Y1397985D02*
G01*
X-557118Y1476994D01*
X-572358Y1492234D02*
G01*
X-641598Y1492234D01*
X-656838Y1273733D02*
G01*
X-656838Y1352743D01*
X-557118Y1352743D02*
G01*
X-557118Y1273733D01*
X-572358Y1258493D02*
G01*
X-641598Y1258493D01*
D15*
X1527627Y429102D02*
G01*
X1527627Y389907D01*
X1527627Y168681D02*
G01*
X1527627Y129100D01*
X1827629Y129100D02*
G01*
X1827629Y168681D01*
X1827629Y389907D02*
G01*
X1827629Y429102D01*
X1527627Y429102D02*
G01*
X1567154Y429102D01*
X1788228Y429102D02*
G01*
X1827629Y429102D01*
X1527627Y129100D02*
G01*
X1567154Y129100D01*
X1788380Y129100D02*
G01*
X1827629Y129100D01*
D10*
X-528162Y1625285D02*
G01*
X-528162Y1553481D01*
X-627882Y1553481D01*
X-627882Y1625285D01*
X-528162Y1670527D02*
G01*
X-528162Y1742330D01*
X-627882Y1742330D01*
X-627882Y1670527D01*
X1514713Y739424D02*
G01*
X1435704Y739424D01*
X1435704Y639704D02*
G01*
X1514713Y639704D01*
X1529953Y654944D02*
G01*
X1529953Y724184D01*
X1311452Y739424D02*
G01*
X1390462Y739424D01*
X1390462Y639704D02*
G01*
X1311452Y639704D01*
X1296212Y654944D02*
G01*
X1296212Y724184D01*
X1185407Y1298453D02*
G01*
X1185407Y1370256D01*
X1285128Y1370256D01*
X1285128Y1298453D01*
X1185407Y1253210D02*
G01*
X1185407Y1181407D01*
X1285128Y1181407D01*
X1285128Y1253210D01*
X1302501Y1299723D02*
G01*
X1302501Y1371526D01*
X1402222Y1371526D01*
X1402222Y1299723D01*
X1302501Y1254480D02*
G01*
X1302501Y1182677D01*
X1402222Y1182677D01*
X1402222Y1254480D01*
X1512681Y622330D02*
G01*
X1433672Y622330D01*
X1433672Y522610D02*
G01*
X1512681Y522610D01*
X1527921Y537850D02*
G01*
X1527921Y607090D01*
X1309420Y622330D02*
G01*
X1388430Y622330D01*
X1388430Y522610D02*
G01*
X1309420Y522610D01*
X1294180Y537850D02*
G01*
X1294180Y607090D01*
X933777Y107160D02*
G01*
X888225Y107160D01*
X888225Y29039D01*
X933777Y29039D01*
X967016Y107160D02*
G01*
X1012568Y107160D01*
X1012568Y29039D01*
X967016Y29039D01*
X763379Y167459D02*
G01*
X717826Y167459D01*
X717826Y89339D01*
X763379Y89339D01*
X796617Y167459D02*
G01*
X842170Y167459D01*
X842170Y89339D01*
X796617Y89339D01*
X744237Y-282117D02*
G01*
X744237Y-327670D01*
X822358Y-327670D01*
X822358Y-282117D01*
X744237Y-248879D02*
G01*
X744237Y-203327D01*
X822358Y-203327D01*
X822358Y-248879D01*
D17*
X1514370Y799614D02*
G01*
X1514370Y772114D01*
X1444370Y772114D01*
X1239372Y772114D02*
G01*
X1169370Y772114D01*
X1169370Y799614D01*
X1514370Y1089614D02*
G01*
X1514370Y1117114D01*
X1444370Y1117114D01*
X1239372Y1117114D02*
G01*
X1169370Y1117114D01*
X1169370Y1089614D01*
D12*
X-472993Y1776811D02*
G01*
X-472993Y2281814D01*
X1067008Y2281814D01*
X1067008Y1776811D01*
X1067008Y231830D02*
G01*
X-472993Y231830D01*
D10*
X1345892Y1703915D02*
G01*
X1250652Y1703915D01*
X1250652Y1799155D01*
X1345892Y1799155D01*
X1345892Y1703915D01*
X1186693Y1580865D02*
G01*
X1186693Y1652668D01*
X1286413Y1652668D01*
X1286413Y1580865D01*
X1186693Y1535623D02*
G01*
X1186693Y1463819D01*
X1286413Y1463819D01*
X1286413Y1535623D01*
X1306581Y1580611D02*
G01*
X1306581Y1652414D01*
X1406301Y1652414D01*
X1406301Y1580611D01*
X1306581Y1535369D02*
G01*
X1306581Y1463565D01*
X1406301Y1463565D01*
X1406301Y1535369D01*
X-787349Y1980316D02*
G01*
X-708339Y1980316D01*
X-708339Y2080036D02*
G01*
X-787349Y2080036D01*
X-802589Y2064796D02*
G01*
X-802589Y1995556D01*
X-584088Y1980316D02*
G01*
X-663097Y1980316D01*
X-663097Y2080036D02*
G01*
X-584088Y2080036D01*
X-568848Y2064796D02*
G01*
X-568848Y1995556D01*
D15*
X2472463Y471459D02*
G01*
X2472463Y423959D01*
X2172464Y1016467D02*
G01*
X2172464Y1063957D01*
X2472463Y1063957D01*
X2472463Y1016469D01*
X2472463Y423959D02*
G01*
X2172464Y423959D01*
X2172464Y471462D01*
D18*
X2353716Y951712D02*
G01*
X2353716Y886205D01*
X2291206Y886205D01*
X2291206Y951712D01*
X2353716Y951712D01*
X2382469Y598957D02*
G01*
X2382469Y528955D01*
X2262479Y528955D01*
X2262479Y598957D01*
X2382469Y598957D01*
D13*
X1851797Y856160D02*
G01*
X1851797Y861898D01*
X2016897Y861898D01*
X1851797Y666165D02*
G01*
X1851797Y752830D01*
X2016897Y657832D02*
G01*
X2016897Y557098D01*
X1851797Y557098D01*
X1851797Y562838D01*
X2016897Y861898D02*
G01*
X2016897Y761164D01*
D10*
X1130467Y80040D02*
G01*
X1209476Y80040D01*
X1209476Y179760D02*
G01*
X1130467Y179760D01*
X1115227Y164520D02*
G01*
X1115227Y95280D01*
X1333728Y80040D02*
G01*
X1254719Y80040D01*
X1254719Y179760D02*
G01*
X1333728Y179760D01*
X1348968Y164520D02*
G01*
X1348968Y95280D01*
X1611835Y882119D02*
G01*
X1611835Y953922D01*
X1711556Y953922D01*
X1711556Y882119D01*
X1611835Y836876D02*
G01*
X1611835Y765073D01*
X1711556Y765073D01*
X1711556Y836876D01*
X2117156Y427078D02*
G01*
X2117156Y355274D01*
X2017435Y355274D01*
X2017435Y427078D01*
X2117156Y472320D02*
G01*
X2117156Y544123D01*
X2017435Y544123D01*
X2017435Y472320D01*
X2054156Y954176D02*
G01*
X2054156Y882373D01*
X1954436Y882373D01*
X1954436Y954176D01*
X2054156Y999418D02*
G01*
X2054156Y1071222D01*
X1954436Y1071222D01*
X1954436Y999418D01*
X1713656Y623575D02*
G01*
X1713656Y551771D01*
X1613936Y551771D01*
X1613936Y623575D01*
X1713656Y668817D02*
G01*
X1713656Y740620D01*
X1613936Y740620D01*
X1613936Y668817D01*
X1935957Y886566D02*
G01*
X1935957Y965575D01*
X1836237Y965575D02*
G01*
X1836237Y886566D01*
X1851477Y871326D02*
G01*
X1920717Y871326D01*
X1935957Y1089827D02*
G01*
X1935957Y1010818D01*
X1836237Y1010818D02*
G01*
X1836237Y1089827D01*
X1851477Y1105067D02*
G01*
X1920717Y1105067D01*
D20*
G75*
G01*
X-617751Y1606944D02*
G03*
X-617751Y1606512I-10005J-216D01*
D21*
G75*
G01*
X-527911Y-34298D02*
G03*
X-537893Y-34298I-4991J-356D01*
G75*
G01*
X-537893Y-34298D02*
G03*
X-527911Y-34298I4991J357D01*
D10*
G75*
G01*
X53932Y-417660D02*
G03*
X69172Y-402420I0J15240D01*
G75*
G01*
X69172Y-333179D02*
G03*
X53932Y-317939I-15240J0D01*
G75*
G01*
X-149329Y-417660D02*
G02*
X-164569Y-402420I0J15240D01*
G75*
G01*
X-164569Y-333179D02*
G02*
X-149329Y-317939I15240J0D01*
G75*
G01*
X54661Y6830D02*
G03*
X39421Y22070I-15240J0D01*
G75*
G01*
X-29820Y22070D02*
G03*
X-45060Y6830I0J-15240D01*
G75*
G01*
X54661Y-196431D02*
G02*
X39421Y-211671I-15240J0D01*
G75*
G01*
X-29820Y-211671D02*
G02*
X-45060Y-196431I0J15240D01*
G75*
G01*
X-1042746Y1211042D02*
G03*
X-1027506Y1195802I15240J0D01*
G75*
G01*
X-958266Y1195802D02*
G03*
X-943026Y1211042I0J15240D01*
G75*
G01*
X-1042746Y1414302D02*
G02*
X-1027506Y1429542I15240J0D01*
G75*
G01*
X-958266Y1429542D02*
G02*
X-943026Y1414302I0J-15240D01*
G75*
G01*
X-73739Y-54069D02*
G03*
X-88979Y-38829I-15240J0D01*
G75*
G01*
X-158219Y-38829D02*
G03*
X-173459Y-54069I0J-15240D01*
G75*
G01*
X-73739Y-257330D02*
G02*
X-88979Y-272570I-15240J0D01*
G75*
G01*
X-158219Y-272570D02*
G02*
X-173459Y-257330I0J15240D01*
G75*
G01*
X-668858Y-82072D02*
G03*
X-653618Y-97312I15240J0D01*
G75*
G01*
X-584378Y-97312D02*
G03*
X-569138Y-82072I0J15240D01*
G75*
G01*
X-668858Y121188D02*
G02*
X-653618Y136428I15240J0D01*
G75*
G01*
X-584378Y136428D02*
G02*
X-569138Y121188I0J-15240D01*
D16*
G75*
G01*
X-977044Y1679384D02*
G02*
X-977044Y1539684I-21730J-69850D01*
D10*
G75*
G01*
X1201181Y1943806D02*
G03*
X1185941Y1928564I0J-15240D01*
G75*
G01*
X1185941Y1859328D02*
G03*
X1201181Y1844086I15240J-2D01*
G75*
G01*
X1404442Y1943806D02*
G02*
X1419682Y1928564I0J-15240D01*
G75*
G01*
X1419682Y1859328D02*
G02*
X1404442Y1844086I-15240J-2D01*
G75*
G01*
X-557119Y1476995D02*
G03*
X-572359Y1492235I-15240J0D01*
G75*
G01*
X-641599Y1492235D02*
G03*
X-656839Y1476995I0J-15240D01*
G75*
G01*
X-557119Y1273734D02*
G02*
X-572359Y1258494I-15240J0D01*
G75*
G01*
X-641599Y1258494D02*
G02*
X-656839Y1273734I0J15240D01*
G75*
G01*
X1514714Y639704D02*
G03*
X1529954Y654944I0J15240D01*
G75*
G01*
X1529954Y724184D02*
G03*
X1514714Y739424I-15240J0D01*
G75*
G01*
X1311453Y639704D02*
G02*
X1296213Y654944I0J15240D01*
G75*
G01*
X1296213Y724184D02*
G02*
X1311453Y739424I15240J0D01*
G75*
G01*
X1512682Y522610D02*
G03*
X1527922Y537850I0J15240D01*
G75*
G01*
X1527922Y607090D02*
G03*
X1512682Y622330I-15240J0D01*
G75*
G01*
X1309421Y522610D02*
G02*
X1294181Y537850I0J15240D01*
G75*
G01*
X1294181Y607090D02*
G02*
X1309421Y622330I15240J0D01*
D22*
G75*
G01*
X1546850Y787133D02*
G03*
X1546850Y787387I12499J127D01*
D10*
G75*
G01*
X-787349Y2080036D02*
G03*
X-802589Y2064796I0J-15240D01*
G75*
G01*
X-802589Y1995556D02*
G03*
X-787349Y1980316I15240J0D01*
G75*
G01*
X-584088Y2080036D02*
G02*
X-568848Y2064796I0J-15240D01*
G75*
G01*
X-568848Y1995556D02*
G02*
X-584088Y1980316I-15240J0D01*
G75*
G01*
X1130468Y179761D02*
G03*
X1115228Y164521I0J-15240D01*
G75*
G01*
X1115228Y95280D02*
G03*
X1130468Y80040I15240J0D01*
G75*
G01*
X1333729Y179761D02*
G02*
X1348969Y164521I0J-15240D01*
G75*
G01*
X1348969Y95280D02*
G02*
X1333729Y80040I-15240J0D01*
G75*
G01*
X1836237Y886567D02*
G03*
X1851477Y871327I15240J0D01*
G75*
G01*
X1920718Y871327D02*
G03*
X1935958Y886567I0J15240D01*
G75*
G01*
X1836237Y1089828D02*
G02*
X1851477Y1105068I15240J0D01*
G75*
G01*
X1920718Y1105068D02*
G02*
X1935958Y1089828I0J-15240D01*
D16*
G75*
G01
X-907692Y1281168D02*
G03X-907692Y1281168I-10008J0D01*
G75*
G01
X2149706Y515358D02*
G03X2149706Y515358I-10008J0D01*
G75*
G01
X-686305Y-113800D02*
G03X-686305Y-113800I-14986J0D01*
G75*
G01
X-991004Y82034D02*
G03X-991004Y82034I-10008J0D01*
D13*
G75*
G01
X-342796Y-568917D02*
G03X-342796Y-568917I-5004J0D01*
D23*
G75*
G01
X144503Y-881921D02*
G03X144503Y-881921I-12497J0D01*
D13*
G75*
G01
X-709394Y-123198D02*
G03X-709394Y-123198I-5004J0D01*
D15*
G75*
G01
X1554178Y94607D02*
G03X1554178Y94607I-5436J0D01*
D18*
G75*
G01
X1328677Y1827726D02*
G03X1328677Y1827726I-5004J0D01*
G75*
G01
X2344829Y918964D02*
G03X2344829Y918964I-22352J0D01*
D13*
G75*
G01
X1722707Y729480D02*
G03X1722707Y729480I-5004J0D01*
M02*
