G04 Layer: BottomSolderMaskLayer*
G04 Panelize: , Column: 1, Row: 1, Board Size: 43.14mm x 33.02mm, Panelized Board Size: 43.14mm x 33.02mm*
G04 EasyEDA v6.5.51, 2025-10-17 13:11:11*
G04 f2673ee1f0d542a68775028af259726c,9a4ed40c0dd746429eaf55b84663d2fb,10*
G04 Gerber Generator version 0.2*
G04 Scale: 100 percent, Rotated: No, Reflected: No *
G04 Dimensions in millimeters *
G04 leading zeros omitted , absolute positions ,4 integer and 5 decimal *
%FSLAX45Y45*%
%MOMM*%

%AMMACRO1*4,1,8,-0.021,-1.1284,-1.1284,-0.0211,-1.1284,0.021,-0.021,1.1284,0.0211,1.1284,1.1284,0.021,1.1284,-0.0211,0.0211,-1.1284,-0.021,-1.1284,0*%
%AMMACRO2*4,1,8,-0.0211,-1.1284,-1.1284,-0.021,-1.1284,0.0211,-0.0211,1.1284,0.021,1.1284,1.1284,0.0211,1.1284,-0.021,0.021,-1.1284,-0.0211,-1.1284,0*%
%AMMACRO3*4,1,8,-0.0211,-1.1284,-1.1284,-0.0211,-1.1284,0.021,-0.0211,1.1284,0.021,1.1284,1.1284,0.021,1.1284,-0.0211,0.021,-1.1284,-0.0211,-1.1284,0*%
%AMMACRO4*4,1,8,-0.021,-1.1284,-1.1284,-0.021,-1.1284,0.0211,-0.021,1.1284,0.0211,1.1284,1.1284,0.0211,1.1284,-0.021,0.0211,-1.1284,-0.021,-1.1284,0*%
%AMMACRO5*4,1,8,-0.571,-0.2007,-0.6007,-0.1709,-0.6007,0.1709,-0.571,0.2007,0.5709,0.2007,0.6007,0.1709,0.6007,-0.1709,0.5709,-0.2007,-0.571,-0.2007,0*%
%AMMACRO6*4,1,8,-0.571,-0.2019,-0.6007,-0.1722,-0.6007,0.1722,-0.571,0.2019,0.5709,0.2019,0.6007,0.1722,0.6007,-0.1722,0.5709,-0.2019,-0.571,-0.2019,0*%
%AMMACRO7*4,1,8,-0.9211,-1.0508,-0.9508,-1.021,-0.9508,1.0211,-0.9211,1.0508,0.921,1.0508,0.9508,1.0211,0.9508,-1.021,0.921,-1.0508,-0.9211,-1.0508,0*%
%AMMACRO8*4,1,8,-0.3039,-0.3208,-0.3336,-0.291,-0.3336,0.2911,-0.3039,0.3208,0.3038,0.3208,0.3336,0.2911,0.3336,-0.291,0.3038,-0.3208,-0.3039,-0.3208,0*%
%AMMACRO9*4,1,8,-0.3711,-0.6758,-0.4008,-0.646,-0.4008,0.646,-0.3711,0.6758,0.371,0.6758,0.4008,0.646,0.4008,-0.646,0.371,-0.6758,-0.3711,-0.6758,0*%
%AMMACRO10*4,1,8,-0.1726,-0.2128,-0.2024,-0.183,-0.2024,0.1831,-0.1726,0.2128,0.1726,0.2128,0.2024,0.1831,0.2024,-0.183,0.1726,-0.2128,-0.1726,-0.2128,0*%
%AMMACRO11*4,1,8,-0.1831,-0.2024,-0.2128,-0.1726,-0.2128,0.1726,-0.1831,0.2024,0.183,0.2024,0.2128,0.1726,0.2128,-0.1726,0.183,-0.2024,-0.1831,-0.2024,0*%
%AMMACRO12*4,1,8,-0.1557,-0.175,-0.185,-0.1457,-0.185,0.1457,-0.1557,0.175,0.1557,0.175,0.185,0.1457,0.185,-0.1457,0.1557,-0.175,-0.1557,-0.175,0*%
%AMMACRO13*4,1,8,-0.1457,-0.185,-0.175,-0.1557,-0.175,0.1557,-0.1457,0.185,0.1457,0.185,0.175,0.1557,0.175,-0.1557,0.1457,-0.185,-0.1457,-0.185,0*%
%AMMACRO14*4,1,8,-0.4211,-0.4508,-0.4508,-0.421,-0.4508,0.4211,-0.4211,0.4508,0.421,0.4508,0.4508,0.4211,0.4508,-0.421,0.421,-0.4508,-0.4211,-0.4508,0*%
%AMMACRO15*4,1,8,-0.5996,-0.2958,-0.6293,-0.266,-0.6293,0.2661,-0.5996,0.2958,0.5995,0.2958,0.6293,0.2661,0.6293,-0.266,0.5995,-0.2958,-0.5996,-0.2958,0*%
%AMMACRO16*4,1,8,-0.6086,-0.2958,-0.6383,-0.266,-0.6383,0.2661,-0.6086,0.2958,0.6085,0.2958,0.6383,0.2661,0.6383,-0.266,0.6085,-0.2958,-0.6086,-0.2958,0*%
%AMMACRO17*4,1,8,-0.6711,-0.2008,-0.7008,-0.171,-0.7008,0.1711,-0.6711,0.2008,0.671,0.2008,0.7008,0.1711,0.7008,-0.171,0.671,-0.2008,-0.6711,-0.2008,0*%
%AMMACRO18*4,1,8,-1.5211,-1.0508,-1.5508,-1.021,-1.5508,1.0211,-1.5211,1.0508,1.521,1.0508,1.5508,1.0211,1.5508,-1.021,1.521,-1.0508,-1.5211,-1.0508,0*%
%AMMACRO19*4,1,8,-1.1211,-0.6008,-1.1508,-0.571,-1.1508,0.5711,-1.1211,0.6008,1.121,0.6008,1.1508,0.5711,1.1508,-0.571,1.121,-0.6008,-1.1211,-0.6008,0*%
%AMMACRO20*4,1,8,-0.5211,-0.5758,-0.5508,-0.546,-0.5508,0.5461,-0.5211,0.5758,0.521,0.5758,0.5508,0.5461,0.5508,-0.546,0.521,-0.5758,-0.5211,-0.5758,0*%
%AMMACRO21*4,1,8,-0.2336,-0.1908,-0.2633,-0.161,-0.2633,0.1611,-0.2336,0.1908,0.2335,0.1908,0.2633,0.1611,0.2633,-0.161,0.2335,-0.1908,-0.2336,-0.1908,0*%
%AMMACRO22*4,1,8,-0.2053,-0.2128,-0.235,-0.183,-0.235,0.1831,-0.2053,0.2128,0.2053,0.2128,0.235,0.1831,0.235,-0.183,0.2053,-0.2128,-0.2053,-0.2128,0*%
%AMMACRO23*4,1,8,-0.4161,-0.3208,-0.4458,-0.291,-0.4458,0.2911,-0.4161,0.3208,0.4161,0.3208,0.4458,0.2911,0.4458,-0.291,0.4161,-0.3208,-0.4161,-0.3208,0*%
%AMMACRO24*4,1,8,-0.2911,-0.4458,-0.3208,-0.4161,-0.3208,0.4161,-0.2911,0.4458,0.291,0.4458,0.3208,0.4161,0.3208,-0.4161,0.291,-0.4458,-0.2911,-0.4458,0*%
%AMMACRO25*4,1,8,-0.1831,-0.235,-0.2128,-0.2053,-0.2128,0.2053,-0.1831,0.235,0.183,0.235,0.2128,0.2053,0.2128,-0.2053,0.183,-0.235,-0.1831,-0.235,0*%
%AMMACRO26*4,1,8,-0.2911,-0.3336,-0.3208,-0.3038,-0.3208,0.3039,-0.2911,0.3336,0.291,0.3336,0.3208,0.3039,0.3208,-0.3038,0.291,-0.3336,-0.2911,-0.3336,0*%
%AMMACRO27*4,1,8,-0.1625,-0.6872,-0.6872,-0.1625,-0.6872,-0.1204,0.1204,0.6872,0.1625,0.6872,0.6872,0.1625,0.6872,0.1204,-0.1204,-0.6872,-0.1625,-0.6872,0*%
%AMMACRO28*4,1,8,0.085,-0.9347,-0.9347,0.085,-0.9347,0.1271,-0.1271,0.9347,-0.085,0.9347,0.9347,-0.085,0.9347,-0.1271,0.1271,-0.9347,0.085,-0.9347,0*%
%AMMACRO29*4,1,8,-0.0387,-0.8816,-0.8816,-0.0387,-0.8816,0.0034,-0.0034,0.8816,0.0387,0.8816,0.8816,0.0387,0.8816,-0.0034,0.0033,-0.8816,-0.0387,-0.8816,0*%
%AMMACRO30*4,1,8,-0.0387,-0.8816,-0.8816,-0.0387,-0.8816,0.0034,-0.0034,0.8816,0.0387,0.8816,0.8816,0.0387,0.8816,-0.0034,0.0034,-0.8816,-0.0387,-0.8816,0*%
%AMMACRO31*4,1,8,-0.3376,-0.6106,-0.3774,-0.5969,-0.7027,0.0701,-0.689,0.1099,0.3375,0.6106,0.3773,0.5969,0.7027,-0.0701,0.689,-0.1099,-0.3376,-0.6106,0*%
%AMMACRO32*4,1,8,-0.1841,-0.9252,-0.2239,-0.9115,-0.8561,0.3847,-0.8424,0.4245,0.1841,0.9252,0.2239,0.9115,0.8561,-0.3847,0.8424,-0.4245,-0.1841,-0.9252,0*%
%AMMACRO33*4,1,8,-0.2839,-0.8347,-0.3237,-0.821,-0.8462,0.2504,-0.8325,0.2902,0.2839,0.8347,0.3237,0.821,0.8462,-0.2504,0.8325,-0.2902,-0.2839,-0.8347,0*%
%ADD10MACRO1*%
%ADD11MACRO2*%
%ADD12MACRO3*%
%ADD13MACRO4*%
%ADD14MACRO5*%
%ADD15MACRO6*%
%ADD16C,0.0154*%
%ADD17O,2.301596X1.301598*%
%ADD18MACRO7*%
%ADD19MACRO8*%
%ADD20MACRO9*%
%ADD21MACRO10*%
%ADD22MACRO11*%
%ADD23MACRO12*%
%ADD24MACRO13*%
%ADD25MACRO14*%
%ADD26MACRO15*%
%ADD27MACRO16*%
%ADD28MACRO17*%
%ADD29MACRO18*%
%ADD30O,1.874596X0.801599*%
%ADD31MACRO19*%
%ADD32MACRO20*%
%ADD33MACRO21*%
%ADD34MACRO22*%
%ADD35MACRO23*%
%ADD36MACRO24*%
%ADD37MACRO25*%
%ADD38MACRO26*%
%ADD39MACRO27*%
%ADD40MACRO28*%
%ADD41MACRO29*%
%ADD42MACRO30*%
%ADD43C,0.9000*%
%ADD44MACRO31*%
%ADD45MACRO32*%
%ADD46MACRO33*%
%ADD47C,0.9016*%

%LPD*%
D10*
G01*
X-978103Y-113294D03*
D11*
G01*
X-798497Y-292900D03*
D12*
G01*
X-767623Y1789920D03*
D13*
G01*
X-947229Y1610314D03*
D14*
G01*
X-1045382Y488970D03*
G01*
X-1045382Y518942D03*
G01*
X-1045382Y568980D03*
D15*
G01*
X-1045382Y618891D03*
D14*
G01*
X-1045382Y668802D03*
G01*
X-1045382Y718840D03*
G01*
X-1045382Y768878D03*
G01*
X-1045382Y818916D03*
G01*
X-1045382Y868954D03*
G01*
X-1045382Y918992D03*
D15*
G01*
X-1045382Y968903D03*
D14*
G01*
X-1045382Y999002D03*
G01*
X-1045382Y438932D03*
G01*
X-1045382Y408960D03*
G01*
X-1045382Y1048786D03*
D15*
G01*
X-1045382Y1078885D03*
D17*
G01*
X-1160447Y181907D03*
G01*
X-1560446Y181907D03*
G01*
X-1160447Y1305882D03*
G01*
X-1560446Y1305882D03*
D18*
G01*
X1082898Y545000D03*
G01*
X2452895Y545000D03*
D19*
G01*
X-413015Y-301800D03*
G01*
X-499581Y-301800D03*
G01*
X-499281Y-419399D03*
G01*
X-412715Y-419399D03*
D20*
G01*
X939297Y1052830D03*
G01*
X1034293Y1302766D03*
G01*
X844301Y1302766D03*
D21*
G01*
X889053Y613498D03*
G01*
X840742Y613498D03*
D22*
G01*
X541799Y1457853D03*
G01*
X541799Y1409542D03*
D21*
G01*
X885753Y818398D03*
G01*
X837443Y818398D03*
D23*
G01*
X-812467Y728692D03*
G01*
X-812467Y771110D03*
D24*
G01*
X-800402Y506569D03*
G01*
X-842820Y506569D03*
D25*
G01*
X-403042Y-671446D03*
G01*
X-562942Y-670745D03*
D26*
G01*
X-483732Y146296D03*
G01*
X-483732Y51300D03*
G01*
X-483732Y-43695D03*
D27*
G01*
X-714466Y-43695D03*
G01*
X-714466Y146296D03*
D21*
G01*
X-906472Y581499D03*
G01*
X-858161Y581499D03*
G01*
X-861717Y916271D03*
G01*
X-910028Y916271D03*
D28*
G01*
X706615Y518853D03*
G01*
X706615Y568853D03*
G01*
X706615Y618853D03*
G01*
X706615Y668853D03*
G01*
X706615Y718853D03*
G01*
X706615Y768852D03*
G01*
X706615Y818852D03*
G01*
X706615Y868852D03*
G01*
X706615Y918852D03*
G01*
X706615Y968852D03*
D29*
G01*
X487265Y1133853D03*
G01*
X487268Y353852D03*
D30*
G01*
X2Y-770008D03*
G01*
X2Y-660001D03*
G01*
X2Y-549993D03*
G01*
X2Y-440011D03*
G01*
X2Y-330004D03*
G01*
X2Y-219997D03*
G01*
X2Y-110015D03*
G01*
X2Y-7D03*
G01*
X2Y109999D03*
G01*
X962306Y109999D03*
G01*
X962306Y-7D03*
G01*
X962306Y-110015D03*
G01*
X962306Y-219997D03*
G01*
X962306Y-330004D03*
G01*
X962306Y-440011D03*
G01*
X962306Y-549993D03*
G01*
X962306Y-660001D03*
G01*
X962306Y-770008D03*
D31*
G01*
X1290645Y-243998D03*
D32*
G01*
X1148158Y-394000D03*
D31*
G01*
X1290647Y-544000D03*
D32*
G01*
X1433151Y-394000D03*
D33*
G01*
X1237080Y-5816D03*
G01*
X1237080Y-55816D03*
G01*
X1237080Y-105816D03*
G01*
X1149579Y-105816D03*
G01*
X1149579Y-55816D03*
G01*
X1149579Y-5816D03*
D34*
G01*
X1427723Y-108457D03*
G01*
X1372880Y-108457D03*
D19*
G01*
X847248Y1595996D03*
G01*
X933814Y1595996D03*
D35*
G01*
X1844301Y347698D03*
G01*
X1735289Y347698D03*
D36*
G01*
X-138300Y-16893D03*
G01*
X-138300Y-125905D03*
D34*
G01*
X1620255Y-110490D03*
G01*
X1565412Y-110490D03*
D35*
G01*
X-503191Y-182100D03*
G01*
X-612203Y-182100D03*
D21*
G01*
X-160502Y-658622D03*
G01*
X-208813Y-658622D03*
D37*
G01*
X-219600Y-18422D03*
G01*
X-219600Y36421D03*
D19*
G01*
X-2437Y271780D03*
G01*
X-89002Y271780D03*
D38*
G01*
X652797Y1459878D03*
G01*
X652797Y1373313D03*
D39*
G01*
X1429108Y1671368D03*
G01*
X1241724Y1858749D03*
D40*
G01*
X1324810Y1754452D03*
D41*
G01*
X1582903Y1750918D03*
D42*
G01*
X1321274Y2012546D03*
D43*
G01*
X1562254Y1730265D03*
G01*
X1300609Y1991885D03*
D19*
G01*
X931020Y1475346D03*
G01*
X844454Y1475346D03*
D44*
G01*
X1678844Y1237371D03*
G01*
X1562676Y1475550D03*
D45*
G01*
X1607277Y1349885D03*
D46*
G01*
X1850160Y1262517D03*
G01*
X1687963Y1595069D03*
D43*
G01*
X1823900Y1249697D03*
G01*
X1661695Y1582234D03*
D36*
G01*
X1365585Y1343764D03*
G01*
X1365585Y1234752D03*
D38*
G01*
X1246205Y1234545D03*
G01*
X1246205Y1321111D03*
D19*
G01*
X-609672Y264507D03*
G01*
X-696238Y264507D03*
G01*
X-411516Y-551698D03*
G01*
X-498082Y-551698D03*
D47*
G01*
X1460756Y137838D03*
G01*
X1587756Y137838D03*
G01*
X1714756Y137838D03*
G01*
X1841756Y137838D03*
G01*
X1333756Y137838D03*
G01*
X1206756Y137838D03*
M02*
