G04 Layer: TopSolderMaskLayer*
G04 Panelize: , Column: 1, Row: 1, Board Size: 43.14mm x 33.02mm, Panelized Board Size: 43.14mm x 33.02mm*
G04 EasyEDA v6.5.51, 2025-10-17 13:11:11*
G04 f2673ee1f0d542a68775028af259726c,9a4ed40c0dd746429eaf55b84663d2fb,10*
G04 Gerber Generator version 0.2*
G04 Scale: 100 percent, Rotated: No, Reflected: No *
G04 Dimensions in millimeters *
G04 leading zeros omitted , absolute positions ,4 integer and 5 decimal *
%FSLAX45Y45*%
%MOMM*%

%AMMACRO1*4,1,8,-0.642,-0.7015,-0.7015,-0.642,-0.7015,0.642,-0.642,0.7015,0.642,0.7015,0.7015,0.642,0.7015,-0.642,0.642,-0.7015,-0.642,-0.7015,0*%
%AMMACRO2*4,1,8,-0.2211,-0.2134,-0.2508,-0.1836,-0.2508,0.1836,-0.2211,0.2134,0.2211,0.2134,0.2508,0.1836,0.2508,-0.1836,0.2211,-0.2134,-0.2211,-0.2134,0*%
%AMMACRO3*4,1,8,-0.2211,-0.1507,-0.2508,-0.121,-0.2508,0.121,-0.2211,0.1507,0.2211,0.1507,0.2508,0.121,0.2508,-0.121,0.2211,-0.1507,-0.2211,-0.1507,0*%
%AMMACRO4*4,1,8,-0.821,-0.6858,-0.8508,-0.656,-0.8508,0.6561,-0.821,0.6858,0.821,0.6858,0.8508,0.6561,0.8508,-0.656,0.821,-0.6858,-0.821,-0.6858,0*%
%AMMACRO5*4,1,8,-0.3961,-0.7758,-0.4258,-0.7461,-0.4258,0.7461,-0.3961,0.7758,0.3961,0.7758,0.4258,0.7461,0.4258,-0.7461,0.3961,-0.7758,-0.3961,-0.7758,0*%
%AMMACRO6*4,1,8,-0.146,-0.1758,-0.1758,-0.146,-0.1758,0.146,-0.146,0.1758,0.146,0.1758,0.1758,0.146,0.1758,-0.146,0.146,-0.1758,-0.146,-0.1758,0*%
%AMMACRO7*4,1,8,-0.1336,-0.1758,-0.1633,-0.146,-0.1633,0.146,-0.1336,0.1758,0.1336,0.1758,0.1633,0.146,0.1633,-0.146,0.1336,-0.1758,-0.1336,-0.1758,0*%
%AMMACRO8*4,1,8,-0.271,-0.1558,-0.3007,-0.1261,-0.3007,0.1261,-0.271,0.1558,0.271,0.1558,0.3007,0.1261,0.3007,-0.1261,0.271,-0.1558,-0.271,-0.1558,0*%
%AMMACRO9*4,1,8,-0.4161,-0.3208,-0.4458,-0.291,-0.4458,0.2911,-0.4161,0.3208,0.4161,0.3208,0.4458,0.2911,0.4458,-0.291,0.4161,-0.3208,-0.4161,-0.3208,0*%
%AMMACRO10*4,1,8,-0.646,-0.4008,-0.6758,-0.371,-0.6758,0.3711,-0.646,0.4008,0.646,0.4008,0.6758,0.3711,0.6758,-0.371,0.646,-0.4008,-0.646,-0.4008,0*%
%AMMACRO11*4,1,8,-0.2911,-0.3336,-0.3208,-0.3038,-0.3208,0.3039,-0.2911,0.3336,0.291,0.3336,0.3208,0.3039,0.3208,-0.3038,0.291,-0.3336,-0.2911,-0.3336,0*%
%AMMACRO12*4,1,8,-0.6211,-0.6508,-0.6508,-0.621,-0.6508,0.6211,-0.6211,0.6508,0.621,0.6508,0.6508,0.6211,0.6508,-0.621,0.621,-0.6508,-0.6211,-0.6508,0*%
%AMMACRO13*4,1,8,-0.2911,-0.4458,-0.3208,-0.4161,-0.3208,0.4161,-0.2911,0.4458,0.291,0.4458,0.3208,0.4161,0.3208,-0.4161,0.291,-0.4458,-0.2911,-0.4458,0*%
%AMMACRO14*4,1,8,-0.3767,-0.9211,-0.4064,-0.8913,-0.4064,0.8914,-0.3767,0.9211,0.3766,0.9211,0.4064,0.8914,0.4064,-0.8913,0.3766,-0.9211,-0.3767,-0.9211,0*%
%AMMACRO15*4,1,8,-0.3039,-0.3208,-0.3336,-0.291,-0.3336,0.2911,-0.3039,0.3208,0.3038,0.3208,0.3336,0.2911,0.3336,-0.291,0.3038,-0.3208,-0.3039,-0.3208,0*%
%AMMACRO16*4,1,8,-0.3711,-0.6758,-0.4008,-0.646,-0.4008,0.646,-0.3711,0.6758,0.371,0.6758,0.4008,0.646,0.4008,-0.646,0.371,-0.6758,-0.3711,-0.6758,0*%
%AMMACRO17*4,1,8,-0.1726,-0.2128,-0.2024,-0.183,-0.2024,0.1831,-0.1726,0.2128,0.1726,0.2128,0.2024,0.1831,0.2024,-0.183,0.1726,-0.2128,-0.1726,-0.2128,0*%
%AMMACRO18*4,1,8,-0.2911,-0.4459,-0.3208,-0.4161,-0.3208,0.4161,-0.2911,0.4459,0.291,0.4458,0.3208,0.4161,0.3208,-0.4161,0.291,-0.4459,-0.2911,-0.4459,0*%
%AMMACRO19*4,1,8,0.291,-0.4458,-0.2911,-0.4458,-0.3208,-0.4161,-0.3208,0.4161,-0.2911,0.4458,0.291,0.4458,0.3208,0.4161,0.3208,-0.4161,0.291,-0.4458,0*%
%AMMACRO20*4,1,8,-0.3207,-0.3,-0.35,-0.2707,-0.35,0.2707,-0.3207,0.3,0.3207,0.3,0.35,0.2707,0.35,-0.2707,0.3207,-0.3,-0.3207,-0.3,0*%
%AMMACRO21*4,1,8,-0.1562,-0.665,-0.165,-0.6562,-0.165,0.6562,-0.1562,0.665,0.1562,0.665,0.165,0.6562,0.165,-0.6562,0.1562,-0.665,-0.1562,-0.665,0*%
%AMMACRO22*4,1,8,-0.1711,-0.7008,-0.2008,-0.671,-0.2008,0.6711,-0.1711,0.7008,0.171,0.7008,0.2008,0.6711,0.2008,-0.671,0.171,-0.7008,-0.1711,-0.7008,0*%
%AMMACRO23*4,1,8,-0.1711,-0.7008,-0.2008,-0.671,-0.2008,0.6711,-0.171,0.7008,0.1711,0.7008,0.2008,0.6711,0.2008,-0.671,0.1711,-0.7008,-0.1711,-0.7008,0*%
%AMMACRO24*4,1,8,-0.1711,-0.7008,-0.2009,-0.6711,-0.2008,0.671,-0.1711,0.7008,0.1711,0.7008,0.2009,0.6711,0.2008,-0.671,0.1711,-0.7008,-0.1711,-0.7008,0*%
%AMMACRO25*4,1,8,-0.146,-0.3508,-0.1758,-0.321,-0.1758,0.3211,-0.146,0.3508,0.146,0.3508,0.1758,0.3211,0.1758,-0.321,0.146,-0.3508,-0.146,-0.3508,0*%
%AMMACRO26*4,1,8,-0.1461,-0.3508,-0.1758,-0.321,-0.1758,0.3211,-0.1461,0.3508,0.146,0.3508,0.1758,0.3211,0.1758,-0.321,0.146,-0.3508,-0.1461,-0.3508,0*%
%AMMACRO27*4,1,8,-0.3211,-0.1758,-0.3508,-0.146,-0.3508,0.1461,-0.3211,0.1758,0.321,0.1758,0.3508,0.1461,0.3508,-0.146,0.321,-0.1758,-0.3211,-0.1758,0*%
%AMMACRO28*4,1,8,-0.7711,-0.8008,-0.8008,-0.771,-0.8008,0.7711,-0.7711,0.8008,0.771,0.8008,0.8008,0.7711,0.8008,-0.771,0.771,-0.8008,-0.7711,-0.8008,0*%
%AMMACRO29*4,1,8,-0.1831,-0.2024,-0.2128,-0.1726,-0.2128,0.1726,-0.1831,0.2024,0.183,0.2024,0.2128,0.1726,0.2128,-0.1726,0.183,-0.2024,-0.1831,-0.2024,0*%
%AMMACRO30*4,1,8,-0.4421,-0.5016,-0.5016,-0.4421,-0.5016,0.4421,-0.4421,0.5016,0.4421,0.5016,0.5016,0.4421,0.5016,-0.4421,0.4421,-0.5016,-0.4421,-0.5016,0*%
%AMMACRO31*4,1,8,-0.4421,-0.3016,-0.5016,-0.2421,-0.5016,0.2421,-0.4421,0.3016,0.4421,0.3016,0.5016,0.2421,0.5016,-0.2421,0.4421,-0.3016,-0.4421,-0.3016,0*%
%AMMACRO32*4,1,8,-0.2707,-0.3,-0.3,-0.2707,-0.3,0.2707,-0.2707,0.3,0.2707,0.3,0.3,0.2707,0.3,-0.2707,0.2707,-0.3,-0.2707,-0.3,0*%
%AMMACRO33*4,1,8,-0.6207,-1.208,-0.65,-1.1787,-0.65,1.1787,-0.6207,1.208,0.6207,1.208,0.65,1.1787,0.65,-1.1787,0.6207,-1.208,-0.6207,-1.208,0*%
%ADD10MACRO1*%
%ADD11O,2.301596X1.301598*%
%ADD12C,0.9000*%
%ADD13MACRO2*%
%ADD14MACRO3*%
%ADD15C,0.0112*%
%ADD16MACRO4*%
%ADD17MACRO5*%
%ADD18MACRO6*%
%ADD19MACRO7*%
%ADD20MACRO8*%
%ADD21MACRO9*%
%ADD22MACRO10*%
%ADD23MACRO11*%
%ADD24MACRO12*%
%ADD25MACRO13*%
%ADD26MACRO14*%
%ADD27MACRO15*%
%ADD28MACRO16*%
%ADD29MACRO17*%
%ADD30MACRO18*%
%ADD31MACRO19*%
%ADD32MACRO20*%
%ADD33MACRO21*%
%ADD34MACRO22*%
%ADD35MACRO23*%
%ADD36MACRO24*%
%ADD37MACRO25*%
%ADD38MACRO26*%
%ADD39MACRO27*%
%ADD40MACRO28*%
%ADD41MACRO29*%
%ADD42O,0.901598X0.38161*%
%ADD43O,0.38161X0.901598*%
%ADD44MACRO30*%
%ADD45MACRO31*%
%ADD46C,0.3016*%
%ADD47MACRO32*%
%ADD48MACRO33*%

%LPD*%
D10*
G01*
X52250Y1011948D03*
G01*
X52250Y846950D03*
G01*
X217248Y846950D03*
G01*
X382247Y846950D03*
G01*
X382247Y1011948D03*
G01*
X382247Y1176947D03*
G01*
X217248Y1176947D03*
G01*
X217248Y1011948D03*
D11*
G01*
X-1160447Y181907D03*
G01*
X-1560446Y181907D03*
G01*
X-1160447Y1305882D03*
G01*
X-1560446Y1305882D03*
D12*
G01*
X1562254Y1730265D03*
G01*
X1300609Y1991885D03*
G01*
X1823900Y1249697D03*
G01*
X1661695Y1582234D03*
D13*
G01*
X-467890Y-34297D03*
D14*
G01*
X-467890Y-80601D03*
D13*
G01*
X-467890Y-126804D03*
G01*
X-227911Y-126804D03*
D14*
G01*
X-227911Y-80601D03*
D13*
G01*
X-227911Y-34297D03*
D16*
G01*
X-347901Y-84081D03*
D17*
G01*
X-270405Y-248089D03*
G01*
X-425396Y-248089D03*
D18*
G01*
X-475409Y-248089D03*
D19*
G01*
X-399107Y-333103D03*
G01*
X-296694Y-333103D03*
D18*
G01*
X-297888Y-8084D03*
G01*
X-397913Y-8084D03*
D20*
G01*
X-347901Y-158097D03*
D21*
G01*
X6807Y-367799D03*
G01*
X-102204Y-367799D03*
D22*
G01*
X167Y-588898D03*
G01*
X-249768Y-683894D03*
G01*
X-249768Y-493902D03*
D23*
G01*
X-389100Y-554615D03*
G01*
X-389100Y-641181D03*
G01*
X-507598Y-642082D03*
G01*
X-507598Y-555517D03*
D24*
G01*
X-801613Y289201D03*
G01*
X-801613Y-30797D03*
D25*
G01*
X4800Y-40294D03*
G01*
X4800Y-149306D03*
D26*
G01*
X208198Y-836927D03*
G01*
X335198Y-836927D03*
G01*
X462198Y-836927D03*
G01*
X589198Y-836927D03*
G01*
X589198Y-37868D03*
G01*
X462198Y-37868D03*
G01*
X335198Y-37868D03*
G01*
X208198Y-37868D03*
D27*
G01*
X-487582Y151198D03*
G01*
X-401016Y151198D03*
D28*
G01*
X-734397Y-471167D03*
G01*
X-829393Y-221231D03*
G01*
X-639401Y-221231D03*
D29*
G01*
X1230937Y239107D03*
G01*
X1279248Y239107D03*
G01*
X1230175Y318101D03*
G01*
X1278486Y318101D03*
G01*
X1229413Y411065D03*
G01*
X1277724Y411065D03*
G01*
X1232715Y497171D03*
G01*
X1281026Y497171D03*
D25*
G01*
X-992886Y1258166D03*
G01*
X-992886Y1367177D03*
D23*
G01*
X-1117854Y30328D03*
G01*
X-1117854Y-56236D03*
D30*
G01*
X-123598Y-101192D03*
D31*
G01*
X-123598Y-210205D03*
D25*
G01*
X-618997Y-34947D03*
G01*
X-618997Y74063D03*
D32*
G01*
X-997965Y-52193D03*
G01*
X-997965Y27809D03*
D33*
G01*
X-916769Y1377092D03*
G01*
X-866782Y1377094D03*
G01*
X-816795Y1377094D03*
G01*
X-766782Y1377094D03*
G01*
X-716770Y1377094D03*
D34*
G01*
X-716795Y1847093D03*
G01*
X-766782Y1847093D03*
D35*
G01*
X-816771Y1847093D03*
D36*
G01*
X-866783Y1847094D03*
D34*
G01*
X-916795Y1847093D03*
D21*
G01*
X1248305Y1893945D03*
G01*
X1357317Y1893945D03*
D25*
G01*
X-606978Y1429870D03*
G01*
X-606978Y1320858D03*
D37*
G01*
X1602767Y129092D03*
G01*
X1652767Y129090D03*
D38*
G01*
X1702767Y129092D03*
G01*
X1752767Y129092D03*
D39*
G01*
X1827616Y204294D03*
G01*
X1827616Y254294D03*
G01*
X1827613Y304294D03*
G01*
X1827616Y354294D03*
D38*
G01*
X1752615Y429087D03*
G01*
X1702615Y429087D03*
G01*
X1652615Y429087D03*
D37*
G01*
X1602767Y429089D03*
D39*
G01*
X1527616Y354294D03*
G01*
X1527614Y304294D03*
G01*
X1527616Y254294D03*
G01*
X1527616Y204294D03*
D40*
G01*
X1677616Y279087D03*
D23*
G01*
X-578022Y1691189D03*
G01*
X-578022Y1604623D03*
D21*
G01*
X1467589Y689564D03*
G01*
X1358577Y689564D03*
D23*
G01*
X1235268Y1232548D03*
G01*
X1235268Y1319114D03*
G01*
X1352362Y1233818D03*
G01*
X1352362Y1320384D03*
D21*
G01*
X1465557Y572470D03*
G01*
X1356545Y572470D03*
D29*
G01*
X926241Y68099D03*
G01*
X974552Y68099D03*
G01*
X755843Y128399D03*
G01*
X804153Y128399D03*
D41*
G01*
X783297Y-289653D03*
G01*
X783297Y-241343D03*
D42*
G01*
X1481889Y844618D03*
G01*
X1481889Y894631D03*
G01*
X1481889Y944618D03*
G01*
X1481889Y994630D03*
G01*
X1481889Y1044618D03*
D43*
G01*
X1391871Y1084623D03*
G01*
X1341884Y1084623D03*
G01*
X1291871Y1084623D03*
D42*
G01*
X1201879Y1044618D03*
G01*
X1201879Y994630D03*
G01*
X1201879Y944618D03*
G01*
X1201879Y894631D03*
G01*
X1201879Y844618D03*
D43*
G01*
X1291871Y804638D03*
G01*
X1341884Y804638D03*
G01*
X1391871Y804638D03*
D44*
G01*
X-402991Y1704319D03*
G36*
X-318002Y1654154D02*
G01*
X-318696Y1654177D01*
X-319387Y1654248D01*
X-320070Y1654368D01*
X-320743Y1654530D01*
X-321406Y1654741D01*
X-322051Y1654995D01*
X-322676Y1655292D01*
X-323281Y1655632D01*
X-323862Y1656013D01*
X-324413Y1656433D01*
X-324937Y1656890D01*
X-325427Y1657380D01*
X-325884Y1657903D01*
X-326303Y1658454D01*
X-326684Y1659036D01*
X-327025Y1659641D01*
X-327322Y1660265D01*
X-327576Y1660911D01*
X-327786Y1661574D01*
X-327949Y1662247D01*
X-328068Y1662930D01*
X-328140Y1663621D01*
X-328162Y1664314D01*
X-328162Y1744324D01*
X-328140Y1745018D01*
X-328068Y1745708D01*
X-327949Y1746392D01*
X-327786Y1747065D01*
X-327576Y1747728D01*
X-327322Y1748373D01*
X-327025Y1748998D01*
X-326684Y1749602D01*
X-326303Y1750184D01*
X-325884Y1750735D01*
X-325427Y1751258D01*
X-324937Y1751749D01*
X-324413Y1752206D01*
X-323862Y1752625D01*
X-323281Y1753006D01*
X-322676Y1753346D01*
X-322051Y1753643D01*
X-321406Y1753897D01*
X-320743Y1754108D01*
X-320070Y1754271D01*
X-319387Y1754390D01*
X-318696Y1754461D01*
X-318002Y1754484D01*
X-277997Y1754484D01*
X-277304Y1754461D01*
X-276613Y1754390D01*
X-275930Y1754271D01*
X-275257Y1754108D01*
X-274594Y1753897D01*
X-273949Y1753643D01*
X-273324Y1753346D01*
X-272719Y1753006D01*
X-272138Y1752625D01*
X-271586Y1752206D01*
X-271063Y1751749D01*
X-270573Y1751258D01*
X-270116Y1750735D01*
X-269697Y1750184D01*
X-269316Y1749602D01*
X-268975Y1748998D01*
X-268678Y1748373D01*
X-268424Y1747728D01*
X-268213Y1747065D01*
X-268051Y1746392D01*
X-267931Y1745708D01*
X-267860Y1745018D01*
X-267837Y1744324D01*
X-267837Y1664314D01*
X-267860Y1663621D01*
X-267931Y1662930D01*
X-268051Y1662247D01*
X-268213Y1661574D01*
X-268424Y1660911D01*
X-268678Y1660265D01*
X-268975Y1659641D01*
X-269316Y1659036D01*
X-269697Y1658454D01*
X-270116Y1657903D01*
X-270573Y1657380D01*
X-271063Y1656890D01*
X-271586Y1656433D01*
X-272138Y1656013D01*
X-272719Y1655632D01*
X-273324Y1655292D01*
X-273949Y1654995D01*
X-274594Y1654741D01*
X-275257Y1654530D01*
X-275930Y1654368D01*
X-276613Y1654248D01*
X-277304Y1654177D01*
X-277997Y1654154D01*
G37*
G36*
X-232989Y1654154D02*
G01*
X-233682Y1654177D01*
X-234373Y1654248D01*
X-235056Y1654368D01*
X-235729Y1654530D01*
X-236392Y1654741D01*
X-237037Y1654995D01*
X-237662Y1655292D01*
X-238267Y1655632D01*
X-238848Y1656013D01*
X-239400Y1656433D01*
X-239923Y1656890D01*
X-240413Y1657380D01*
X-240870Y1657903D01*
X-241289Y1658454D01*
X-241670Y1659036D01*
X-242011Y1659641D01*
X-242308Y1660265D01*
X-242562Y1660911D01*
X-242773Y1661574D01*
X-242935Y1662247D01*
X-243055Y1662930D01*
X-243126Y1663621D01*
X-243149Y1664314D01*
X-243149Y1744324D01*
X-243126Y1745018D01*
X-243055Y1745708D01*
X-242935Y1746392D01*
X-242773Y1747065D01*
X-242562Y1747728D01*
X-242308Y1748373D01*
X-242011Y1748998D01*
X-241670Y1749602D01*
X-241289Y1750184D01*
X-240870Y1750735D01*
X-240413Y1751258D01*
X-239923Y1751749D01*
X-239400Y1752206D01*
X-238848Y1752625D01*
X-238267Y1753006D01*
X-237662Y1753346D01*
X-237037Y1753643D01*
X-236392Y1753897D01*
X-235729Y1754108D01*
X-235056Y1754271D01*
X-234373Y1754390D01*
X-233682Y1754461D01*
X-232989Y1754484D01*
X-192984Y1754484D01*
X-192290Y1754461D01*
X-191599Y1754390D01*
X-190916Y1754271D01*
X-190243Y1754108D01*
X-189580Y1753897D01*
X-188935Y1753643D01*
X-188310Y1753346D01*
X-187706Y1753006D01*
X-187124Y1752625D01*
X-186573Y1752206D01*
X-186049Y1751749D01*
X-185559Y1751258D01*
X-185102Y1750735D01*
X-184683Y1750184D01*
X-184302Y1749602D01*
X-183962Y1748998D01*
X-183664Y1748373D01*
X-183410Y1747728D01*
X-183200Y1747065D01*
X-183037Y1746392D01*
X-182918Y1745708D01*
X-182846Y1745018D01*
X-182824Y1744324D01*
X-182824Y1664314D01*
X-182846Y1663621D01*
X-182918Y1662930D01*
X-183037Y1662247D01*
X-183200Y1661574D01*
X-183410Y1660911D01*
X-183664Y1660265D01*
X-183962Y1659641D01*
X-184302Y1659036D01*
X-184683Y1658454D01*
X-185102Y1657903D01*
X-185559Y1657380D01*
X-186049Y1656890D01*
X-186573Y1656433D01*
X-187124Y1656013D01*
X-187706Y1655632D01*
X-188310Y1655292D01*
X-188935Y1654995D01*
X-189580Y1654741D01*
X-190243Y1654530D01*
X-190916Y1654368D01*
X-191599Y1654248D01*
X-192290Y1654177D01*
X-192984Y1654154D01*
G37*
G36*
X-148000Y1654154D02*
G01*
X-148694Y1654177D01*
X-149385Y1654248D01*
X-150068Y1654368D01*
X-150741Y1654530D01*
X-151404Y1654741D01*
X-152049Y1654995D01*
X-152674Y1655292D01*
X-153278Y1655632D01*
X-153860Y1656013D01*
X-154411Y1656433D01*
X-154934Y1656890D01*
X-155425Y1657380D01*
X-155882Y1657903D01*
X-156301Y1658454D01*
X-156682Y1659036D01*
X-157022Y1659641D01*
X-157319Y1660265D01*
X-157573Y1660911D01*
X-157784Y1661574D01*
X-157947Y1662247D01*
X-158066Y1662930D01*
X-158137Y1663621D01*
X-158160Y1664314D01*
X-158160Y1744324D01*
X-158137Y1745018D01*
X-158066Y1745708D01*
X-157947Y1746392D01*
X-157784Y1747065D01*
X-157573Y1747728D01*
X-157319Y1748373D01*
X-157022Y1748998D01*
X-156682Y1749602D01*
X-156301Y1750184D01*
X-155882Y1750735D01*
X-155425Y1751258D01*
X-154934Y1751749D01*
X-154411Y1752206D01*
X-153860Y1752625D01*
X-153278Y1753006D01*
X-152674Y1753346D01*
X-152049Y1753643D01*
X-151404Y1753897D01*
X-150741Y1754108D01*
X-150068Y1754271D01*
X-149385Y1754390D01*
X-148694Y1754461D01*
X-148000Y1754484D01*
X-107995Y1754484D01*
X-107302Y1754461D01*
X-106611Y1754390D01*
X-105928Y1754271D01*
X-105255Y1754108D01*
X-104592Y1753897D01*
X-103946Y1753643D01*
X-103322Y1753346D01*
X-102717Y1753006D01*
X-102135Y1752625D01*
X-101584Y1752206D01*
X-101061Y1751749D01*
X-100571Y1751258D01*
X-100114Y1750735D01*
X-99695Y1750184D01*
X-99313Y1749602D01*
X-98973Y1748998D01*
X-98676Y1748373D01*
X-98422Y1747728D01*
X-98211Y1747065D01*
X-98049Y1746392D01*
X-97929Y1745708D01*
X-97858Y1745018D01*
X-97835Y1744324D01*
X-97835Y1664314D01*
X-97858Y1663621D01*
X-97929Y1662930D01*
X-98049Y1662247D01*
X-98211Y1661574D01*
X-98422Y1660911D01*
X-98676Y1660265D01*
X-98973Y1659641D01*
X-99313Y1659036D01*
X-99695Y1658454D01*
X-100114Y1657903D01*
X-100571Y1657380D01*
X-101061Y1656890D01*
X-101584Y1656433D01*
X-102135Y1656013D01*
X-102717Y1655632D01*
X-103322Y1655292D01*
X-103946Y1654995D01*
X-104592Y1654741D01*
X-105255Y1654530D01*
X-105928Y1654368D01*
X-106611Y1654248D01*
X-107302Y1654177D01*
X-107995Y1654154D01*
G37*
G36*
X-62986Y1654154D02*
G01*
X-63680Y1654177D01*
X-64371Y1654248D01*
X-65054Y1654368D01*
X-65727Y1654530D01*
X-66390Y1654741D01*
X-67035Y1654995D01*
X-67660Y1655292D01*
X-68265Y1655632D01*
X-68846Y1656013D01*
X-69397Y1656433D01*
X-69921Y1656890D01*
X-70411Y1657380D01*
X-70868Y1657903D01*
X-71287Y1658454D01*
X-71668Y1659036D01*
X-72009Y1659641D01*
X-72306Y1660265D01*
X-72560Y1660911D01*
X-72770Y1661574D01*
X-72933Y1662247D01*
X-73052Y1662930D01*
X-73124Y1663621D01*
X-73146Y1664314D01*
X-73146Y1744324D01*
X-73124Y1745018D01*
X-73052Y1745708D01*
X-72933Y1746392D01*
X-72770Y1747065D01*
X-72560Y1747728D01*
X-72306Y1748373D01*
X-72009Y1748998D01*
X-71668Y1749602D01*
X-71287Y1750184D01*
X-70868Y1750735D01*
X-70411Y1751258D01*
X-69921Y1751749D01*
X-69397Y1752206D01*
X-68846Y1752625D01*
X-68265Y1753006D01*
X-67660Y1753346D01*
X-67035Y1753643D01*
X-66390Y1753897D01*
X-65727Y1754108D01*
X-65054Y1754271D01*
X-64371Y1754390D01*
X-63680Y1754461D01*
X-62986Y1754484D01*
X-22981Y1754484D01*
X-22288Y1754461D01*
X-21597Y1754390D01*
X-20914Y1754271D01*
X-20241Y1754108D01*
X-19578Y1753897D01*
X-18933Y1753643D01*
X-18308Y1753346D01*
X-17703Y1753006D01*
X-17122Y1752625D01*
X-16570Y1752206D01*
X-16047Y1751749D01*
X-15557Y1751258D01*
X-15100Y1750735D01*
X-14681Y1750184D01*
X-14300Y1749602D01*
X-13959Y1748998D01*
X-13662Y1748373D01*
X-13408Y1747728D01*
X-13197Y1747065D01*
X-13035Y1746392D01*
X-12915Y1745708D01*
X-12844Y1745018D01*
X-12821Y1744324D01*
X-12821Y1664314D01*
X-12844Y1663621D01*
X-12915Y1662930D01*
X-13035Y1662247D01*
X-13197Y1661574D01*
X-13408Y1660911D01*
X-13662Y1660265D01*
X-13959Y1659641D01*
X-14300Y1659036D01*
X-14681Y1658454D01*
X-15100Y1657903D01*
X-15557Y1657380D01*
X-16047Y1656890D01*
X-16570Y1656433D01*
X-17122Y1656013D01*
X-17703Y1655632D01*
X-18308Y1655292D01*
X-18933Y1654995D01*
X-19578Y1654741D01*
X-20241Y1654530D01*
X-20914Y1654368D01*
X-21597Y1654248D01*
X-22288Y1654177D01*
X-22981Y1654154D01*
G37*
G36*
X22001Y1654154D02*
G01*
X21308Y1654177D01*
X20617Y1654248D01*
X19933Y1654368D01*
X19260Y1654530D01*
X18597Y1654741D01*
X17952Y1654995D01*
X17327Y1655292D01*
X16723Y1655632D01*
X16141Y1656013D01*
X15590Y1656433D01*
X15067Y1656890D01*
X14577Y1657380D01*
X14119Y1657903D01*
X13700Y1658454D01*
X13319Y1659036D01*
X12979Y1659641D01*
X12682Y1660265D01*
X12428Y1660911D01*
X12217Y1661574D01*
X12054Y1662247D01*
X11935Y1662930D01*
X11864Y1663621D01*
X11841Y1664314D01*
X11841Y1744324D01*
X11864Y1745018D01*
X11935Y1745708D01*
X12054Y1746392D01*
X12217Y1747065D01*
X12428Y1747728D01*
X12682Y1748373D01*
X12979Y1748998D01*
X13319Y1749602D01*
X13700Y1750184D01*
X14119Y1750735D01*
X14577Y1751258D01*
X15067Y1751749D01*
X15590Y1752206D01*
X16141Y1752625D01*
X16723Y1753006D01*
X17327Y1753346D01*
X17952Y1753643D01*
X18597Y1753897D01*
X19260Y1754108D01*
X19933Y1754271D01*
X20617Y1754390D01*
X21308Y1754461D01*
X22001Y1754484D01*
X62006Y1754484D01*
X62699Y1754461D01*
X63390Y1754390D01*
X64074Y1754271D01*
X64747Y1754108D01*
X65410Y1753897D01*
X66055Y1753643D01*
X66680Y1753346D01*
X67284Y1753006D01*
X67866Y1752625D01*
X68417Y1752206D01*
X68940Y1751749D01*
X69430Y1751258D01*
X69888Y1750735D01*
X70307Y1750184D01*
X70688Y1749602D01*
X71028Y1748998D01*
X71325Y1748373D01*
X71579Y1747728D01*
X71790Y1747065D01*
X71953Y1746392D01*
X72072Y1745708D01*
X72143Y1745018D01*
X72166Y1744324D01*
X72166Y1664314D01*
X72143Y1663621D01*
X72072Y1662930D01*
X71953Y1662247D01*
X71790Y1661574D01*
X71579Y1660911D01*
X71325Y1660265D01*
X71028Y1659641D01*
X70688Y1659036D01*
X70307Y1658454D01*
X69888Y1657903D01*
X69430Y1657380D01*
X68940Y1656890D01*
X68417Y1656433D01*
X67866Y1656013D01*
X67284Y1655632D01*
X66680Y1655292D01*
X66055Y1654995D01*
X65410Y1654741D01*
X64747Y1654530D01*
X64074Y1654368D01*
X63390Y1654248D01*
X62699Y1654177D01*
X62006Y1654154D01*
G37*
G36*
X107015Y1654154D02*
G01*
X106321Y1654177D01*
X105630Y1654248D01*
X104947Y1654368D01*
X104274Y1654530D01*
X103611Y1654741D01*
X102966Y1654995D01*
X102341Y1655292D01*
X101737Y1655632D01*
X101155Y1656013D01*
X100604Y1656433D01*
X100081Y1656890D01*
X99590Y1657380D01*
X99133Y1657903D01*
X98714Y1658454D01*
X98333Y1659036D01*
X97993Y1659641D01*
X97696Y1660265D01*
X97442Y1660911D01*
X97231Y1661574D01*
X97068Y1662247D01*
X96949Y1662930D01*
X96878Y1663621D01*
X96855Y1664314D01*
X96855Y1744324D01*
X96878Y1745018D01*
X96949Y1745708D01*
X97068Y1746392D01*
X97231Y1747065D01*
X97442Y1747728D01*
X97696Y1748373D01*
X97993Y1748998D01*
X98333Y1749602D01*
X98714Y1750184D01*
X99133Y1750735D01*
X99590Y1751258D01*
X100081Y1751749D01*
X100604Y1752206D01*
X101155Y1752625D01*
X101737Y1753006D01*
X102341Y1753346D01*
X102966Y1753643D01*
X103611Y1753897D01*
X104274Y1754108D01*
X104947Y1754271D01*
X105630Y1754390D01*
X106321Y1754461D01*
X107015Y1754484D01*
X146994Y1754484D01*
X147688Y1754461D01*
X148379Y1754390D01*
X149062Y1754271D01*
X149735Y1754108D01*
X150398Y1753897D01*
X151043Y1753643D01*
X151668Y1753346D01*
X152272Y1753006D01*
X152854Y1752625D01*
X153405Y1752206D01*
X153929Y1751749D01*
X154419Y1751258D01*
X154876Y1750735D01*
X155295Y1750184D01*
X155676Y1749602D01*
X156016Y1748998D01*
X156314Y1748373D01*
X156568Y1747728D01*
X156778Y1747065D01*
X156941Y1746392D01*
X157060Y1745708D01*
X157132Y1745018D01*
X157154Y1744324D01*
X157154Y1664314D01*
X157132Y1663621D01*
X157060Y1662930D01*
X156941Y1662247D01*
X156778Y1661574D01*
X156568Y1660911D01*
X156314Y1660265D01*
X156016Y1659641D01*
X155676Y1659036D01*
X155295Y1658454D01*
X154876Y1657903D01*
X154419Y1657380D01*
X153929Y1656890D01*
X153405Y1656433D01*
X152854Y1656013D01*
X152272Y1655632D01*
X151668Y1655292D01*
X151043Y1654995D01*
X150398Y1654741D01*
X149735Y1654530D01*
X149062Y1654368D01*
X148379Y1654248D01*
X147688Y1654177D01*
X146994Y1654154D01*
G37*
G36*
X192003Y1654154D02*
G01*
X191310Y1654177D01*
X190619Y1654248D01*
X189936Y1654368D01*
X189263Y1654530D01*
X188600Y1654741D01*
X187954Y1654995D01*
X187330Y1655292D01*
X186725Y1655632D01*
X186143Y1656013D01*
X185592Y1656433D01*
X185069Y1656890D01*
X184579Y1657380D01*
X184122Y1657903D01*
X183702Y1658454D01*
X183321Y1659036D01*
X182981Y1659641D01*
X182684Y1660265D01*
X182430Y1660911D01*
X182219Y1661574D01*
X182057Y1662247D01*
X181937Y1662930D01*
X181866Y1663621D01*
X181843Y1664314D01*
X181843Y1744324D01*
X181866Y1745018D01*
X181937Y1745708D01*
X182057Y1746392D01*
X182219Y1747065D01*
X182430Y1747728D01*
X182684Y1748373D01*
X182981Y1748998D01*
X183321Y1749602D01*
X183702Y1750184D01*
X184122Y1750735D01*
X184579Y1751258D01*
X185069Y1751749D01*
X185592Y1752206D01*
X186143Y1752625D01*
X186725Y1753006D01*
X187330Y1753346D01*
X187954Y1753643D01*
X188600Y1753897D01*
X189263Y1754108D01*
X189936Y1754271D01*
X190619Y1754390D01*
X191310Y1754461D01*
X192003Y1754484D01*
X232008Y1754484D01*
X232702Y1754461D01*
X233392Y1754390D01*
X234076Y1754271D01*
X234749Y1754108D01*
X235412Y1753897D01*
X236057Y1753643D01*
X236682Y1753346D01*
X237286Y1753006D01*
X237868Y1752625D01*
X238419Y1752206D01*
X238942Y1751749D01*
X239433Y1751258D01*
X239890Y1750735D01*
X240309Y1750184D01*
X240690Y1749602D01*
X241030Y1748998D01*
X241327Y1748373D01*
X241581Y1747728D01*
X241792Y1747065D01*
X241955Y1746392D01*
X242074Y1745708D01*
X242145Y1745018D01*
X242168Y1744324D01*
X242168Y1664314D01*
X242145Y1663621D01*
X242074Y1662930D01*
X241955Y1662247D01*
X241792Y1661574D01*
X241581Y1660911D01*
X241327Y1660265D01*
X241030Y1659641D01*
X240690Y1659036D01*
X240309Y1658454D01*
X239890Y1657903D01*
X239433Y1657380D01*
X238942Y1656890D01*
X238419Y1656433D01*
X237868Y1656013D01*
X237286Y1655632D01*
X236682Y1655292D01*
X236057Y1654995D01*
X235412Y1654741D01*
X234749Y1654530D01*
X234076Y1654368D01*
X233392Y1654248D01*
X232702Y1654177D01*
X232008Y1654154D01*
G37*
G36*
X362005Y1654154D02*
G01*
X361312Y1654177D01*
X360621Y1654248D01*
X359938Y1654368D01*
X359265Y1654530D01*
X358602Y1654741D01*
X357957Y1654995D01*
X357332Y1655292D01*
X356727Y1655632D01*
X356146Y1656013D01*
X355594Y1656433D01*
X355071Y1656890D01*
X354581Y1657380D01*
X354124Y1657903D01*
X353705Y1658454D01*
X353324Y1659036D01*
X352983Y1659641D01*
X352686Y1660265D01*
X352432Y1660911D01*
X352221Y1661574D01*
X352059Y1662247D01*
X351939Y1662930D01*
X351868Y1663621D01*
X351845Y1664314D01*
X351845Y1744324D01*
X351868Y1745018D01*
X351939Y1745708D01*
X352059Y1746392D01*
X352221Y1747065D01*
X352432Y1747728D01*
X352686Y1748373D01*
X352983Y1748998D01*
X353324Y1749602D01*
X353705Y1750184D01*
X354124Y1750735D01*
X354581Y1751258D01*
X355071Y1751749D01*
X355594Y1752206D01*
X356146Y1752625D01*
X356727Y1753006D01*
X357332Y1753346D01*
X357957Y1753643D01*
X358602Y1753897D01*
X359265Y1754108D01*
X359938Y1754271D01*
X360621Y1754390D01*
X361312Y1754461D01*
X362005Y1754484D01*
X402010Y1754484D01*
X402704Y1754461D01*
X403395Y1754390D01*
X404078Y1754271D01*
X404751Y1754108D01*
X405414Y1753897D01*
X406059Y1753643D01*
X406684Y1753346D01*
X407288Y1753006D01*
X407870Y1752625D01*
X408421Y1752206D01*
X408945Y1751749D01*
X409435Y1751258D01*
X409892Y1750735D01*
X410311Y1750184D01*
X410692Y1749602D01*
X411032Y1748998D01*
X411330Y1748373D01*
X411584Y1747728D01*
X411794Y1747065D01*
X411957Y1746392D01*
X412076Y1745708D01*
X412148Y1745018D01*
X412170Y1744324D01*
X412170Y1664314D01*
X412148Y1663621D01*
X412076Y1662930D01*
X411957Y1662247D01*
X411794Y1661574D01*
X411584Y1660911D01*
X411330Y1660265D01*
X411032Y1659641D01*
X410692Y1659036D01*
X410311Y1658454D01*
X409892Y1657903D01*
X409435Y1657380D01*
X408945Y1656890D01*
X408421Y1656433D01*
X407870Y1656013D01*
X407288Y1655632D01*
X406684Y1655292D01*
X406059Y1654995D01*
X405414Y1654741D01*
X404751Y1654530D01*
X404078Y1654368D01*
X403395Y1654248D01*
X402704Y1654177D01*
X402010Y1654154D01*
G37*
G36*
X277017Y1654154D02*
G01*
X276324Y1654177D01*
X275633Y1654248D01*
X274949Y1654368D01*
X274276Y1654530D01*
X273613Y1654741D01*
X272968Y1654995D01*
X272343Y1655292D01*
X271739Y1655632D01*
X271157Y1656013D01*
X270606Y1656433D01*
X270083Y1656890D01*
X269593Y1657380D01*
X269135Y1657903D01*
X268716Y1658454D01*
X268335Y1659036D01*
X267995Y1659641D01*
X267698Y1660265D01*
X267444Y1660911D01*
X267233Y1661574D01*
X267070Y1662247D01*
X266951Y1662930D01*
X266880Y1663621D01*
X266857Y1664314D01*
X266857Y1744324D01*
X266880Y1745018D01*
X266951Y1745708D01*
X267070Y1746392D01*
X267233Y1747065D01*
X267444Y1747728D01*
X267698Y1748373D01*
X267995Y1748998D01*
X268335Y1749602D01*
X268716Y1750184D01*
X269135Y1750735D01*
X269593Y1751258D01*
X270083Y1751749D01*
X270606Y1752206D01*
X271157Y1752625D01*
X271739Y1753006D01*
X272343Y1753346D01*
X272968Y1753643D01*
X273613Y1753897D01*
X274276Y1754108D01*
X274949Y1754271D01*
X275633Y1754390D01*
X276324Y1754461D01*
X277017Y1754484D01*
X316997Y1754484D01*
X317690Y1754461D01*
X318381Y1754390D01*
X319064Y1754271D01*
X319737Y1754108D01*
X320400Y1753897D01*
X321045Y1753643D01*
X321670Y1753346D01*
X322275Y1753006D01*
X322856Y1752625D01*
X323408Y1752206D01*
X323931Y1751749D01*
X324421Y1751258D01*
X324878Y1750735D01*
X325297Y1750184D01*
X325678Y1749602D01*
X326019Y1748998D01*
X326316Y1748373D01*
X326570Y1747728D01*
X326781Y1747065D01*
X326943Y1746392D01*
X327063Y1745708D01*
X327134Y1745018D01*
X327157Y1744324D01*
X327157Y1664314D01*
X327134Y1663621D01*
X327063Y1662930D01*
X326943Y1662247D01*
X326781Y1661574D01*
X326570Y1660911D01*
X326316Y1660265D01*
X326019Y1659641D01*
X325678Y1659036D01*
X325297Y1658454D01*
X324878Y1657903D01*
X324421Y1657380D01*
X323931Y1656890D01*
X323408Y1656433D01*
X322856Y1656013D01*
X322275Y1655632D01*
X321670Y1655292D01*
X321045Y1654995D01*
X320400Y1654741D01*
X319737Y1654530D01*
X319064Y1654368D01*
X318381Y1654248D01*
X317690Y1654177D01*
X316997Y1654154D01*
G37*
G36*
X447019Y1654154D02*
G01*
X446326Y1654177D01*
X445635Y1654248D01*
X444952Y1654368D01*
X444279Y1654530D01*
X443616Y1654741D01*
X442970Y1654995D01*
X442346Y1655292D01*
X441741Y1655632D01*
X441159Y1656013D01*
X440608Y1656433D01*
X440085Y1656890D01*
X439595Y1657380D01*
X439138Y1657903D01*
X438718Y1658454D01*
X438337Y1659036D01*
X437997Y1659641D01*
X437700Y1660265D01*
X437446Y1660911D01*
X437235Y1661574D01*
X437073Y1662247D01*
X436953Y1662930D01*
X436882Y1663621D01*
X436859Y1664314D01*
X436859Y1744324D01*
X436882Y1745018D01*
X436953Y1745708D01*
X437073Y1746392D01*
X437235Y1747065D01*
X437446Y1747728D01*
X437700Y1748373D01*
X437997Y1748998D01*
X438337Y1749602D01*
X438718Y1750184D01*
X439138Y1750735D01*
X439595Y1751258D01*
X440085Y1751749D01*
X440608Y1752206D01*
X441159Y1752625D01*
X441741Y1753006D01*
X442346Y1753346D01*
X442970Y1753643D01*
X443616Y1753897D01*
X444279Y1754108D01*
X444952Y1754271D01*
X445635Y1754390D01*
X446326Y1754461D01*
X447019Y1754484D01*
X486999Y1754484D01*
X487692Y1754461D01*
X488383Y1754390D01*
X489066Y1754271D01*
X489739Y1754108D01*
X490402Y1753897D01*
X491048Y1753643D01*
X491672Y1753346D01*
X492277Y1753006D01*
X492859Y1752625D01*
X493410Y1752206D01*
X493933Y1751749D01*
X494423Y1751258D01*
X494880Y1750735D01*
X495300Y1750184D01*
X495681Y1749602D01*
X496021Y1748998D01*
X496318Y1748373D01*
X496572Y1747728D01*
X496783Y1747065D01*
X496945Y1746392D01*
X497065Y1745708D01*
X497136Y1745018D01*
X497159Y1744324D01*
X497159Y1664314D01*
X497136Y1663621D01*
X497065Y1662930D01*
X496945Y1662247D01*
X496783Y1661574D01*
X496572Y1660911D01*
X496318Y1660265D01*
X496021Y1659641D01*
X495681Y1659036D01*
X495300Y1658454D01*
X494880Y1657903D01*
X494423Y1657380D01*
X493933Y1656890D01*
X493410Y1656433D01*
X492859Y1656013D01*
X492277Y1655632D01*
X491672Y1655292D01*
X491048Y1654995D01*
X490402Y1654741D01*
X489739Y1654530D01*
X489066Y1654368D01*
X488383Y1654248D01*
X487692Y1654177D01*
X486999Y1654154D01*
G37*
G36*
X532008Y1654154D02*
G01*
X531314Y1654177D01*
X530623Y1654248D01*
X529940Y1654368D01*
X529267Y1654530D01*
X528604Y1654741D01*
X527959Y1654995D01*
X527334Y1655292D01*
X526729Y1655632D01*
X526148Y1656013D01*
X525597Y1656433D01*
X525073Y1656890D01*
X524583Y1657380D01*
X524126Y1657903D01*
X523707Y1658454D01*
X523326Y1659036D01*
X522986Y1659641D01*
X522688Y1660265D01*
X522434Y1660911D01*
X522224Y1661574D01*
X522061Y1662247D01*
X521942Y1662930D01*
X521870Y1663621D01*
X521848Y1664314D01*
X521848Y1744324D01*
X521870Y1745018D01*
X521942Y1745708D01*
X522061Y1746392D01*
X522224Y1747065D01*
X522434Y1747728D01*
X522688Y1748373D01*
X522986Y1748998D01*
X523326Y1749602D01*
X523707Y1750184D01*
X524126Y1750735D01*
X524583Y1751258D01*
X525073Y1751749D01*
X525597Y1752206D01*
X526148Y1752625D01*
X526729Y1753006D01*
X527334Y1753346D01*
X527959Y1753643D01*
X528604Y1753897D01*
X529267Y1754108D01*
X529940Y1754271D01*
X530623Y1754390D01*
X531314Y1754461D01*
X532008Y1754484D01*
X572013Y1754484D01*
X572706Y1754461D01*
X573397Y1754390D01*
X574080Y1754271D01*
X574753Y1754108D01*
X575416Y1753897D01*
X576061Y1753643D01*
X576686Y1753346D01*
X577291Y1753006D01*
X577872Y1752625D01*
X578424Y1752206D01*
X578947Y1751749D01*
X579437Y1751258D01*
X579894Y1750735D01*
X580313Y1750184D01*
X580694Y1749602D01*
X581035Y1748998D01*
X581332Y1748373D01*
X581586Y1747728D01*
X581797Y1747065D01*
X581959Y1746392D01*
X582079Y1745708D01*
X582150Y1745018D01*
X582173Y1744324D01*
X582173Y1664314D01*
X582150Y1663621D01*
X582079Y1662930D01*
X581959Y1662247D01*
X581797Y1661574D01*
X581586Y1660911D01*
X581332Y1660265D01*
X581035Y1659641D01*
X580694Y1659036D01*
X580313Y1658454D01*
X579894Y1657903D01*
X579437Y1657380D01*
X578947Y1656890D01*
X578424Y1656433D01*
X577872Y1656013D01*
X577291Y1655632D01*
X576686Y1655292D01*
X576061Y1654995D01*
X575416Y1654741D01*
X574753Y1654530D01*
X574080Y1654368D01*
X573397Y1654248D01*
X572706Y1654177D01*
X572013Y1654154D01*
G37*
G36*
X616996Y1654154D02*
G01*
X616303Y1654177D01*
X615612Y1654248D01*
X614928Y1654368D01*
X614255Y1654530D01*
X613592Y1654741D01*
X612947Y1654995D01*
X612322Y1655292D01*
X611718Y1655632D01*
X611136Y1656013D01*
X610585Y1656433D01*
X610062Y1656890D01*
X609572Y1657380D01*
X609114Y1657903D01*
X608695Y1658454D01*
X608314Y1659036D01*
X607974Y1659641D01*
X607677Y1660265D01*
X607423Y1660911D01*
X607212Y1661574D01*
X607049Y1662247D01*
X606930Y1662930D01*
X606859Y1663621D01*
X606836Y1664314D01*
X606836Y1744324D01*
X606859Y1745018D01*
X606930Y1745708D01*
X607049Y1746392D01*
X607212Y1747065D01*
X607423Y1747728D01*
X607677Y1748373D01*
X607974Y1748998D01*
X608314Y1749602D01*
X608695Y1750184D01*
X609114Y1750735D01*
X609572Y1751258D01*
X610062Y1751749D01*
X610585Y1752206D01*
X611136Y1752625D01*
X611718Y1753006D01*
X612322Y1753346D01*
X612947Y1753643D01*
X613592Y1753897D01*
X614255Y1754108D01*
X614928Y1754271D01*
X615612Y1754390D01*
X616303Y1754461D01*
X616996Y1754484D01*
X657001Y1754484D01*
X657694Y1754461D01*
X658385Y1754390D01*
X659069Y1754271D01*
X659742Y1754108D01*
X660405Y1753897D01*
X661050Y1753643D01*
X661675Y1753346D01*
X662279Y1753006D01*
X662861Y1752625D01*
X663412Y1752206D01*
X663935Y1751749D01*
X664425Y1751258D01*
X664883Y1750735D01*
X665302Y1750184D01*
X665683Y1749602D01*
X666023Y1748998D01*
X666320Y1748373D01*
X666574Y1747728D01*
X666785Y1747065D01*
X666948Y1746392D01*
X667067Y1745708D01*
X667138Y1745018D01*
X667161Y1744324D01*
X667161Y1664314D01*
X667138Y1663621D01*
X667067Y1662930D01*
X666948Y1662247D01*
X666785Y1661574D01*
X666574Y1660911D01*
X666320Y1660265D01*
X666023Y1659641D01*
X665683Y1659036D01*
X665302Y1658454D01*
X664883Y1657903D01*
X664425Y1657380D01*
X663935Y1656890D01*
X663412Y1656433D01*
X662861Y1656013D01*
X662279Y1655632D01*
X661675Y1655292D01*
X661050Y1654995D01*
X660405Y1654741D01*
X659742Y1654530D01*
X659069Y1654368D01*
X658385Y1654248D01*
X657694Y1654177D01*
X657001Y1654154D01*
G37*
G36*
X702010Y1654154D02*
G01*
X701316Y1654177D01*
X700625Y1654248D01*
X699942Y1654368D01*
X699269Y1654530D01*
X698606Y1654741D01*
X697961Y1654995D01*
X697336Y1655292D01*
X696732Y1655632D01*
X696150Y1656013D01*
X695599Y1656433D01*
X695076Y1656890D01*
X694585Y1657380D01*
X694128Y1657903D01*
X693709Y1658454D01*
X693328Y1659036D01*
X692988Y1659641D01*
X692691Y1660265D01*
X692437Y1660911D01*
X692226Y1661574D01*
X692063Y1662247D01*
X691944Y1662930D01*
X691873Y1663621D01*
X691850Y1664314D01*
X691850Y1744324D01*
X691873Y1745018D01*
X691944Y1745708D01*
X692063Y1746392D01*
X692226Y1747065D01*
X692437Y1747728D01*
X692691Y1748373D01*
X692988Y1748998D01*
X693328Y1749602D01*
X693709Y1750184D01*
X694128Y1750735D01*
X694585Y1751258D01*
X695076Y1751749D01*
X695599Y1752206D01*
X696150Y1752625D01*
X696732Y1753006D01*
X697336Y1753346D01*
X697961Y1753643D01*
X698606Y1753897D01*
X699269Y1754108D01*
X699942Y1754271D01*
X700625Y1754390D01*
X701316Y1754461D01*
X702010Y1754484D01*
X742015Y1754484D01*
X742708Y1754461D01*
X743399Y1754390D01*
X744082Y1754271D01*
X744755Y1754108D01*
X745418Y1753897D01*
X746064Y1753643D01*
X746688Y1753346D01*
X747293Y1753006D01*
X747875Y1752625D01*
X748426Y1752206D01*
X748949Y1751749D01*
X749439Y1751258D01*
X749896Y1750735D01*
X750315Y1750184D01*
X750697Y1749602D01*
X751037Y1748998D01*
X751334Y1748373D01*
X751588Y1747728D01*
X751799Y1747065D01*
X751961Y1746392D01*
X752081Y1745708D01*
X752152Y1745018D01*
X752175Y1744324D01*
X752175Y1664314D01*
X752152Y1663621D01*
X752081Y1662930D01*
X751961Y1662247D01*
X751799Y1661574D01*
X751588Y1660911D01*
X751334Y1660265D01*
X751037Y1659641D01*
X750697Y1659036D01*
X750315Y1658454D01*
X749896Y1657903D01*
X749439Y1657380D01*
X748949Y1656890D01*
X748426Y1656433D01*
X747875Y1656013D01*
X747293Y1655632D01*
X746688Y1655292D01*
X746064Y1654995D01*
X745418Y1654741D01*
X744755Y1654530D01*
X744082Y1654368D01*
X743399Y1654248D01*
X742708Y1654177D01*
X742015Y1654154D01*
G37*
G36*
X786998Y1654154D02*
G01*
X786305Y1654177D01*
X785614Y1654248D01*
X784931Y1654368D01*
X784258Y1654530D01*
X783595Y1654741D01*
X782949Y1654995D01*
X782325Y1655292D01*
X781720Y1655632D01*
X781138Y1656013D01*
X780587Y1656433D01*
X780064Y1656890D01*
X779574Y1657380D01*
X779117Y1657903D01*
X778697Y1658454D01*
X778316Y1659036D01*
X777976Y1659641D01*
X777679Y1660265D01*
X777425Y1660911D01*
X777214Y1661574D01*
X777052Y1662247D01*
X776932Y1662930D01*
X776861Y1663621D01*
X776838Y1664314D01*
X776838Y1744324D01*
X776861Y1745018D01*
X776932Y1745708D01*
X777052Y1746392D01*
X777214Y1747065D01*
X777425Y1747728D01*
X777679Y1748373D01*
X777976Y1748998D01*
X778316Y1749602D01*
X778697Y1750184D01*
X779117Y1750735D01*
X779574Y1751258D01*
X780064Y1751749D01*
X780587Y1752206D01*
X781138Y1752625D01*
X781720Y1753006D01*
X782325Y1753346D01*
X782949Y1753643D01*
X783595Y1753897D01*
X784258Y1754108D01*
X784931Y1754271D01*
X785614Y1754390D01*
X786305Y1754461D01*
X786998Y1754484D01*
X827003Y1754484D01*
X827697Y1754461D01*
X828387Y1754390D01*
X829071Y1754271D01*
X829744Y1754108D01*
X830407Y1753897D01*
X831052Y1753643D01*
X831677Y1753346D01*
X832281Y1753006D01*
X832863Y1752625D01*
X833414Y1752206D01*
X833937Y1751749D01*
X834428Y1751258D01*
X834885Y1750735D01*
X835304Y1750184D01*
X835685Y1749602D01*
X836025Y1748998D01*
X836322Y1748373D01*
X836576Y1747728D01*
X836787Y1747065D01*
X836950Y1746392D01*
X837069Y1745708D01*
X837140Y1745018D01*
X837163Y1744324D01*
X837163Y1664314D01*
X837140Y1663621D01*
X837069Y1662930D01*
X836950Y1662247D01*
X836787Y1661574D01*
X836576Y1660911D01*
X836322Y1660265D01*
X836025Y1659641D01*
X835685Y1659036D01*
X835304Y1658454D01*
X834885Y1657903D01*
X834428Y1657380D01*
X833937Y1656890D01*
X833414Y1656433D01*
X832863Y1656013D01*
X832281Y1655632D01*
X831677Y1655292D01*
X831052Y1654995D01*
X830407Y1654741D01*
X829744Y1654530D01*
X829071Y1654368D01*
X828387Y1654248D01*
X827697Y1654177D01*
X827003Y1654154D01*
G37*
G36*
X872012Y1654154D02*
G01*
X871319Y1654177D01*
X870628Y1654248D01*
X869944Y1654368D01*
X869271Y1654530D01*
X868608Y1654741D01*
X867963Y1654995D01*
X867338Y1655292D01*
X866734Y1655632D01*
X866152Y1656013D01*
X865601Y1656433D01*
X865078Y1656890D01*
X864588Y1657380D01*
X864130Y1657903D01*
X863711Y1658454D01*
X863330Y1659036D01*
X862990Y1659641D01*
X862693Y1660265D01*
X862439Y1660911D01*
X862228Y1661574D01*
X862065Y1662247D01*
X861946Y1662930D01*
X861875Y1663621D01*
X861852Y1664314D01*
X861852Y1744324D01*
X861875Y1745018D01*
X861946Y1745708D01*
X862065Y1746392D01*
X862228Y1747065D01*
X862439Y1747728D01*
X862693Y1748373D01*
X862990Y1748998D01*
X863330Y1749602D01*
X863711Y1750184D01*
X864130Y1750735D01*
X864588Y1751258D01*
X865078Y1751749D01*
X865601Y1752206D01*
X866152Y1752625D01*
X866734Y1753006D01*
X867338Y1753346D01*
X867963Y1753643D01*
X868608Y1753897D01*
X869271Y1754108D01*
X869944Y1754271D01*
X870628Y1754390D01*
X871319Y1754461D01*
X872012Y1754484D01*
X912017Y1754484D01*
X912710Y1754461D01*
X913401Y1754390D01*
X914085Y1754271D01*
X914758Y1754108D01*
X915421Y1753897D01*
X916066Y1753643D01*
X916691Y1753346D01*
X917295Y1753006D01*
X917877Y1752625D01*
X918428Y1752206D01*
X918951Y1751749D01*
X919441Y1751258D01*
X919899Y1750735D01*
X920318Y1750184D01*
X920699Y1749602D01*
X921039Y1748998D01*
X921336Y1748373D01*
X921590Y1747728D01*
X921801Y1747065D01*
X921964Y1746392D01*
X922083Y1745708D01*
X922154Y1745018D01*
X922177Y1744324D01*
X922177Y1664314D01*
X922154Y1663621D01*
X922083Y1662930D01*
X921964Y1662247D01*
X921801Y1661574D01*
X921590Y1660911D01*
X921336Y1660265D01*
X921039Y1659641D01*
X920699Y1659036D01*
X920318Y1658454D01*
X919899Y1657903D01*
X919441Y1657380D01*
X918951Y1656890D01*
X918428Y1656433D01*
X917877Y1656013D01*
X917295Y1655632D01*
X916691Y1655292D01*
X916066Y1654995D01*
X915421Y1654741D01*
X914758Y1654530D01*
X914085Y1654368D01*
X913401Y1654248D01*
X912710Y1654177D01*
X912017Y1654154D01*
G37*
G01*
X997005Y1704319D03*
D45*
G01*
X997005Y1599316D03*
G01*
X997005Y1514327D03*
G01*
X997005Y1429313D03*
G01*
X997005Y1344325D03*
G01*
X997005Y1259311D03*
G01*
X997005Y1174323D03*
G01*
X997005Y1089309D03*
G01*
X997005Y1004321D03*
G01*
X997005Y919332D03*
G01*
X997005Y834318D03*
G01*
X997005Y749330D03*
G01*
X997005Y664316D03*
G01*
X997005Y579328D03*
G01*
X997005Y494314D03*
G01*
X997005Y409326D03*
D44*
G01*
X997005Y304322D03*
G36*
X872012Y254157D02*
G01*
X871319Y254180D01*
X870628Y254251D01*
X869944Y254370D01*
X869271Y254533D01*
X868608Y254744D01*
X867963Y254998D01*
X867338Y255295D01*
X866734Y255635D01*
X866152Y256016D01*
X865601Y256435D01*
X865078Y256893D01*
X864588Y257383D01*
X864130Y257906D01*
X863711Y258457D01*
X863330Y259039D01*
X862990Y259643D01*
X862693Y260268D01*
X862439Y260913D01*
X862228Y261576D01*
X862065Y262249D01*
X861946Y262933D01*
X861875Y263624D01*
X861852Y264317D01*
X861852Y344327D01*
X861875Y345020D01*
X861946Y345711D01*
X862065Y346395D01*
X862228Y347068D01*
X862439Y347731D01*
X862693Y348376D01*
X862990Y349001D01*
X863330Y349605D01*
X863711Y350187D01*
X864130Y350738D01*
X864588Y351261D01*
X865078Y351751D01*
X865601Y352209D01*
X866152Y352628D01*
X866734Y353009D01*
X867338Y353349D01*
X867963Y353646D01*
X868608Y353900D01*
X869271Y354111D01*
X869944Y354274D01*
X870628Y354393D01*
X871319Y354464D01*
X872012Y354487D01*
X912017Y354487D01*
X912710Y354464D01*
X913401Y354393D01*
X914085Y354274D01*
X914758Y354111D01*
X915421Y353900D01*
X916066Y353646D01*
X916691Y353349D01*
X917295Y353009D01*
X917877Y352628D01*
X918428Y352209D01*
X918951Y351751D01*
X919441Y351261D01*
X919899Y350738D01*
X920318Y350187D01*
X920699Y349605D01*
X921039Y349001D01*
X921336Y348376D01*
X921590Y347731D01*
X921801Y347068D01*
X921964Y346395D01*
X922083Y345711D01*
X922154Y345020D01*
X922177Y344327D01*
X922177Y264317D01*
X922154Y263624D01*
X922083Y262933D01*
X921964Y262249D01*
X921801Y261576D01*
X921590Y260913D01*
X921336Y260268D01*
X921039Y259643D01*
X920699Y259039D01*
X920318Y258457D01*
X919899Y257906D01*
X919441Y257383D01*
X918951Y256893D01*
X918428Y256435D01*
X917877Y256016D01*
X917295Y255635D01*
X916691Y255295D01*
X916066Y254998D01*
X915421Y254744D01*
X914758Y254533D01*
X914085Y254370D01*
X913401Y254251D01*
X912710Y254180D01*
X912017Y254157D01*
G37*
G36*
X786998Y254157D02*
G01*
X786305Y254180D01*
X785614Y254251D01*
X784931Y254370D01*
X784258Y254533D01*
X783595Y254744D01*
X782949Y254998D01*
X782325Y255295D01*
X781720Y255635D01*
X781138Y256016D01*
X780587Y256435D01*
X780064Y256893D01*
X779574Y257383D01*
X779117Y257906D01*
X778697Y258457D01*
X778316Y259039D01*
X777976Y259643D01*
X777679Y260268D01*
X777425Y260913D01*
X777214Y261576D01*
X777052Y262249D01*
X776932Y262933D01*
X776861Y263624D01*
X776838Y264317D01*
X776838Y344327D01*
X776861Y345020D01*
X776932Y345711D01*
X777052Y346395D01*
X777214Y347068D01*
X777425Y347731D01*
X777679Y348376D01*
X777976Y349001D01*
X778316Y349605D01*
X778697Y350187D01*
X779117Y350738D01*
X779574Y351261D01*
X780064Y351751D01*
X780587Y352209D01*
X781138Y352628D01*
X781720Y353009D01*
X782325Y353349D01*
X782949Y353646D01*
X783595Y353900D01*
X784258Y354111D01*
X784931Y354274D01*
X785614Y354393D01*
X786305Y354464D01*
X786998Y354487D01*
X827003Y354487D01*
X827697Y354464D01*
X828387Y354393D01*
X829071Y354274D01*
X829744Y354111D01*
X830407Y353900D01*
X831052Y353646D01*
X831677Y353349D01*
X832281Y353009D01*
X832863Y352628D01*
X833414Y352209D01*
X833937Y351751D01*
X834428Y351261D01*
X834885Y350738D01*
X835304Y350187D01*
X835685Y349605D01*
X836025Y349001D01*
X836322Y348376D01*
X836576Y347731D01*
X836787Y347068D01*
X836950Y346395D01*
X837069Y345711D01*
X837140Y345020D01*
X837163Y344327D01*
X837163Y264317D01*
X837140Y263624D01*
X837069Y262933D01*
X836950Y262249D01*
X836787Y261576D01*
X836576Y260913D01*
X836322Y260268D01*
X836025Y259643D01*
X835685Y259039D01*
X835304Y258457D01*
X834885Y257906D01*
X834428Y257383D01*
X833937Y256893D01*
X833414Y256435D01*
X832863Y256016D01*
X832281Y255635D01*
X831677Y255295D01*
X831052Y254998D01*
X830407Y254744D01*
X829744Y254533D01*
X829071Y254370D01*
X828387Y254251D01*
X827697Y254180D01*
X827003Y254157D01*
G37*
G36*
X702010Y254157D02*
G01*
X701316Y254180D01*
X700625Y254251D01*
X699942Y254370D01*
X699269Y254533D01*
X698606Y254744D01*
X697961Y254998D01*
X697336Y255295D01*
X696732Y255635D01*
X696150Y256016D01*
X695599Y256435D01*
X695076Y256893D01*
X694585Y257383D01*
X694128Y257906D01*
X693709Y258457D01*
X693328Y259039D01*
X692988Y259643D01*
X692691Y260268D01*
X692437Y260913D01*
X692226Y261576D01*
X692063Y262249D01*
X691944Y262933D01*
X691873Y263624D01*
X691850Y264317D01*
X691850Y344327D01*
X691873Y345020D01*
X691944Y345711D01*
X692063Y346395D01*
X692226Y347068D01*
X692437Y347731D01*
X692691Y348376D01*
X692988Y349001D01*
X693328Y349605D01*
X693709Y350187D01*
X694128Y350738D01*
X694585Y351261D01*
X695076Y351751D01*
X695599Y352209D01*
X696150Y352628D01*
X696732Y353009D01*
X697336Y353349D01*
X697961Y353646D01*
X698606Y353900D01*
X699269Y354111D01*
X699942Y354274D01*
X700625Y354393D01*
X701316Y354464D01*
X702010Y354487D01*
X742015Y354487D01*
X742708Y354464D01*
X743399Y354393D01*
X744082Y354274D01*
X744755Y354111D01*
X745418Y353900D01*
X746064Y353646D01*
X746688Y353349D01*
X747293Y353009D01*
X747875Y352628D01*
X748426Y352209D01*
X748949Y351751D01*
X749439Y351261D01*
X749896Y350738D01*
X750315Y350187D01*
X750697Y349605D01*
X751037Y349001D01*
X751334Y348376D01*
X751588Y347731D01*
X751799Y347068D01*
X751961Y346395D01*
X752081Y345711D01*
X752152Y345020D01*
X752175Y344327D01*
X752175Y264317D01*
X752152Y263624D01*
X752081Y262933D01*
X751961Y262249D01*
X751799Y261576D01*
X751588Y260913D01*
X751334Y260268D01*
X751037Y259643D01*
X750697Y259039D01*
X750315Y258457D01*
X749896Y257906D01*
X749439Y257383D01*
X748949Y256893D01*
X748426Y256435D01*
X747875Y256016D01*
X747293Y255635D01*
X746688Y255295D01*
X746064Y254998D01*
X745418Y254744D01*
X744755Y254533D01*
X744082Y254370D01*
X743399Y254251D01*
X742708Y254180D01*
X742015Y254157D01*
G37*
G36*
X616996Y254157D02*
G01*
X616303Y254180D01*
X615612Y254251D01*
X614928Y254370D01*
X614255Y254533D01*
X613592Y254744D01*
X612947Y254998D01*
X612322Y255295D01*
X611718Y255635D01*
X611136Y256016D01*
X610585Y256435D01*
X610062Y256893D01*
X609572Y257383D01*
X609114Y257906D01*
X608695Y258457D01*
X608314Y259039D01*
X607974Y259643D01*
X607677Y260268D01*
X607423Y260913D01*
X607212Y261576D01*
X607049Y262249D01*
X606930Y262933D01*
X606859Y263624D01*
X606836Y264317D01*
X606836Y344327D01*
X606859Y345020D01*
X606930Y345711D01*
X607049Y346395D01*
X607212Y347068D01*
X607423Y347731D01*
X607677Y348376D01*
X607974Y349001D01*
X608314Y349605D01*
X608695Y350187D01*
X609114Y350738D01*
X609572Y351261D01*
X610062Y351751D01*
X610585Y352209D01*
X611136Y352628D01*
X611718Y353009D01*
X612322Y353349D01*
X612947Y353646D01*
X613592Y353900D01*
X614255Y354111D01*
X614928Y354274D01*
X615612Y354393D01*
X616303Y354464D01*
X616996Y354487D01*
X657001Y354487D01*
X657694Y354464D01*
X658385Y354393D01*
X659069Y354274D01*
X659742Y354111D01*
X660405Y353900D01*
X661050Y353646D01*
X661675Y353349D01*
X662279Y353009D01*
X662861Y352628D01*
X663412Y352209D01*
X663935Y351751D01*
X664425Y351261D01*
X664883Y350738D01*
X665302Y350187D01*
X665683Y349605D01*
X666023Y349001D01*
X666320Y348376D01*
X666574Y347731D01*
X666785Y347068D01*
X666948Y346395D01*
X667067Y345711D01*
X667138Y345020D01*
X667161Y344327D01*
X667161Y264317D01*
X667138Y263624D01*
X667067Y262933D01*
X666948Y262249D01*
X666785Y261576D01*
X666574Y260913D01*
X666320Y260268D01*
X666023Y259643D01*
X665683Y259039D01*
X665302Y258457D01*
X664883Y257906D01*
X664425Y257383D01*
X663935Y256893D01*
X663412Y256435D01*
X662861Y256016D01*
X662279Y255635D01*
X661675Y255295D01*
X661050Y254998D01*
X660405Y254744D01*
X659742Y254533D01*
X659069Y254370D01*
X658385Y254251D01*
X657694Y254180D01*
X657001Y254157D01*
G37*
G36*
X532008Y254157D02*
G01*
X531314Y254180D01*
X530623Y254251D01*
X529940Y254370D01*
X529267Y254533D01*
X528604Y254744D01*
X527959Y254998D01*
X527334Y255295D01*
X526729Y255635D01*
X526148Y256016D01*
X525597Y256435D01*
X525073Y256893D01*
X524583Y257383D01*
X524126Y257906D01*
X523707Y258457D01*
X523326Y259039D01*
X522986Y259643D01*
X522688Y260268D01*
X522434Y260913D01*
X522224Y261576D01*
X522061Y262249D01*
X521942Y262933D01*
X521870Y263624D01*
X521848Y264317D01*
X521848Y344327D01*
X521870Y345020D01*
X521942Y345711D01*
X522061Y346395D01*
X522224Y347068D01*
X522434Y347731D01*
X522688Y348376D01*
X522986Y349001D01*
X523326Y349605D01*
X523707Y350187D01*
X524126Y350738D01*
X524583Y351261D01*
X525073Y351751D01*
X525597Y352209D01*
X526148Y352628D01*
X526729Y353009D01*
X527334Y353349D01*
X527959Y353646D01*
X528604Y353900D01*
X529267Y354111D01*
X529940Y354274D01*
X530623Y354393D01*
X531314Y354464D01*
X532008Y354487D01*
X572013Y354487D01*
X572706Y354464D01*
X573397Y354393D01*
X574080Y354274D01*
X574753Y354111D01*
X575416Y353900D01*
X576061Y353646D01*
X576686Y353349D01*
X577291Y353009D01*
X577872Y352628D01*
X578424Y352209D01*
X578947Y351751D01*
X579437Y351261D01*
X579894Y350738D01*
X580313Y350187D01*
X580694Y349605D01*
X581035Y349001D01*
X581332Y348376D01*
X581586Y347731D01*
X581797Y347068D01*
X581959Y346395D01*
X582079Y345711D01*
X582150Y345020D01*
X582173Y344327D01*
X582173Y264317D01*
X582150Y263624D01*
X582079Y262933D01*
X581959Y262249D01*
X581797Y261576D01*
X581586Y260913D01*
X581332Y260268D01*
X581035Y259643D01*
X580694Y259039D01*
X580313Y258457D01*
X579894Y257906D01*
X579437Y257383D01*
X578947Y256893D01*
X578424Y256435D01*
X577872Y256016D01*
X577291Y255635D01*
X576686Y255295D01*
X576061Y254998D01*
X575416Y254744D01*
X574753Y254533D01*
X574080Y254370D01*
X573397Y254251D01*
X572706Y254180D01*
X572013Y254157D01*
G37*
G36*
X447019Y254157D02*
G01*
X446326Y254180D01*
X445635Y254251D01*
X444952Y254370D01*
X444279Y254533D01*
X443616Y254744D01*
X442970Y254998D01*
X442346Y255295D01*
X441741Y255635D01*
X441159Y256016D01*
X440608Y256435D01*
X440085Y256893D01*
X439595Y257383D01*
X439138Y257906D01*
X438718Y258457D01*
X438337Y259039D01*
X437997Y259643D01*
X437700Y260268D01*
X437446Y260913D01*
X437235Y261576D01*
X437073Y262249D01*
X436953Y262933D01*
X436882Y263624D01*
X436859Y264317D01*
X436859Y344327D01*
X436882Y345020D01*
X436953Y345711D01*
X437073Y346395D01*
X437235Y347068D01*
X437446Y347731D01*
X437700Y348376D01*
X437997Y349001D01*
X438337Y349605D01*
X438718Y350187D01*
X439138Y350738D01*
X439595Y351261D01*
X440085Y351751D01*
X440608Y352209D01*
X441159Y352628D01*
X441741Y353009D01*
X442346Y353349D01*
X442970Y353646D01*
X443616Y353900D01*
X444279Y354111D01*
X444952Y354274D01*
X445635Y354393D01*
X446326Y354464D01*
X447019Y354487D01*
X486999Y354487D01*
X487692Y354464D01*
X488383Y354393D01*
X489066Y354274D01*
X489739Y354111D01*
X490402Y353900D01*
X491048Y353646D01*
X491672Y353349D01*
X492277Y353009D01*
X492859Y352628D01*
X493410Y352209D01*
X493933Y351751D01*
X494423Y351261D01*
X494880Y350738D01*
X495300Y350187D01*
X495681Y349605D01*
X496021Y349001D01*
X496318Y348376D01*
X496572Y347731D01*
X496783Y347068D01*
X496945Y346395D01*
X497065Y345711D01*
X497136Y345020D01*
X497159Y344327D01*
X497159Y264317D01*
X497136Y263624D01*
X497065Y262933D01*
X496945Y262249D01*
X496783Y261576D01*
X496572Y260913D01*
X496318Y260268D01*
X496021Y259643D01*
X495681Y259039D01*
X495300Y258457D01*
X494880Y257906D01*
X494423Y257383D01*
X493933Y256893D01*
X493410Y256435D01*
X492859Y256016D01*
X492277Y255635D01*
X491672Y255295D01*
X491048Y254998D01*
X490402Y254744D01*
X489739Y254533D01*
X489066Y254370D01*
X488383Y254251D01*
X487692Y254180D01*
X486999Y254157D01*
G37*
G36*
X362005Y254157D02*
G01*
X361312Y254180D01*
X360621Y254251D01*
X359938Y254370D01*
X359265Y254533D01*
X358602Y254744D01*
X357957Y254998D01*
X357332Y255295D01*
X356727Y255635D01*
X356146Y256016D01*
X355594Y256435D01*
X355071Y256893D01*
X354581Y257383D01*
X354124Y257906D01*
X353705Y258457D01*
X353324Y259039D01*
X352983Y259643D01*
X352686Y260268D01*
X352432Y260913D01*
X352221Y261576D01*
X352059Y262249D01*
X351939Y262933D01*
X351868Y263624D01*
X351845Y264317D01*
X351845Y344327D01*
X351868Y345020D01*
X351939Y345711D01*
X352059Y346395D01*
X352221Y347068D01*
X352432Y347731D01*
X352686Y348376D01*
X352983Y349001D01*
X353324Y349605D01*
X353705Y350187D01*
X354124Y350738D01*
X354581Y351261D01*
X355071Y351751D01*
X355594Y352209D01*
X356146Y352628D01*
X356727Y353009D01*
X357332Y353349D01*
X357957Y353646D01*
X358602Y353900D01*
X359265Y354111D01*
X359938Y354274D01*
X360621Y354393D01*
X361312Y354464D01*
X362005Y354487D01*
X402010Y354487D01*
X402704Y354464D01*
X403395Y354393D01*
X404078Y354274D01*
X404751Y354111D01*
X405414Y353900D01*
X406059Y353646D01*
X406684Y353349D01*
X407288Y353009D01*
X407870Y352628D01*
X408421Y352209D01*
X408945Y351751D01*
X409435Y351261D01*
X409892Y350738D01*
X410311Y350187D01*
X410692Y349605D01*
X411032Y349001D01*
X411330Y348376D01*
X411584Y347731D01*
X411794Y347068D01*
X411957Y346395D01*
X412076Y345711D01*
X412148Y345020D01*
X412170Y344327D01*
X412170Y264317D01*
X412148Y263624D01*
X412076Y262933D01*
X411957Y262249D01*
X411794Y261576D01*
X411584Y260913D01*
X411330Y260268D01*
X411032Y259643D01*
X410692Y259039D01*
X410311Y258457D01*
X409892Y257906D01*
X409435Y257383D01*
X408945Y256893D01*
X408421Y256435D01*
X407870Y256016D01*
X407288Y255635D01*
X406684Y255295D01*
X406059Y254998D01*
X405414Y254744D01*
X404751Y254533D01*
X404078Y254370D01*
X403395Y254251D01*
X402704Y254180D01*
X402010Y254157D01*
G37*
G36*
X277017Y254157D02*
G01*
X276324Y254180D01*
X275633Y254251D01*
X274949Y254370D01*
X274276Y254533D01*
X273613Y254744D01*
X272968Y254998D01*
X272343Y255295D01*
X271739Y255635D01*
X271157Y256016D01*
X270606Y256435D01*
X270083Y256893D01*
X269593Y257383D01*
X269135Y257906D01*
X268716Y258457D01*
X268335Y259039D01*
X267995Y259643D01*
X267698Y260268D01*
X267444Y260913D01*
X267233Y261576D01*
X267070Y262249D01*
X266951Y262933D01*
X266880Y263624D01*
X266857Y264317D01*
X266857Y344327D01*
X266880Y345020D01*
X266951Y345711D01*
X267070Y346395D01*
X267233Y347068D01*
X267444Y347731D01*
X267698Y348376D01*
X267995Y349001D01*
X268335Y349605D01*
X268716Y350187D01*
X269135Y350738D01*
X269593Y351261D01*
X270083Y351751D01*
X270606Y352209D01*
X271157Y352628D01*
X271739Y353009D01*
X272343Y353349D01*
X272968Y353646D01*
X273613Y353900D01*
X274276Y354111D01*
X274949Y354274D01*
X275633Y354393D01*
X276324Y354464D01*
X277017Y354487D01*
X316997Y354487D01*
X317690Y354464D01*
X318381Y354393D01*
X319064Y354274D01*
X319737Y354111D01*
X320400Y353900D01*
X321045Y353646D01*
X321670Y353349D01*
X322275Y353009D01*
X322856Y352628D01*
X323408Y352209D01*
X323931Y351751D01*
X324421Y351261D01*
X324878Y350738D01*
X325297Y350187D01*
X325678Y349605D01*
X326019Y349001D01*
X326316Y348376D01*
X326570Y347731D01*
X326781Y347068D01*
X326943Y346395D01*
X327063Y345711D01*
X327134Y345020D01*
X327157Y344327D01*
X327157Y264317D01*
X327134Y263624D01*
X327063Y262933D01*
X326943Y262249D01*
X326781Y261576D01*
X326570Y260913D01*
X326316Y260268D01*
X326019Y259643D01*
X325678Y259039D01*
X325297Y258457D01*
X324878Y257906D01*
X324421Y257383D01*
X323931Y256893D01*
X323408Y256435D01*
X322856Y256016D01*
X322275Y255635D01*
X321670Y255295D01*
X321045Y254998D01*
X320400Y254744D01*
X319737Y254533D01*
X319064Y254370D01*
X318381Y254251D01*
X317690Y254180D01*
X316997Y254157D01*
G37*
G36*
X192003Y254157D02*
G01*
X191310Y254180D01*
X190619Y254251D01*
X189936Y254370D01*
X189263Y254533D01*
X188600Y254744D01*
X187954Y254998D01*
X187330Y255295D01*
X186725Y255635D01*
X186143Y256016D01*
X185592Y256435D01*
X185069Y256893D01*
X184579Y257383D01*
X184122Y257906D01*
X183702Y258457D01*
X183321Y259039D01*
X182981Y259643D01*
X182684Y260268D01*
X182430Y260913D01*
X182219Y261576D01*
X182057Y262249D01*
X181937Y262933D01*
X181866Y263624D01*
X181843Y264317D01*
X181843Y344327D01*
X181866Y345020D01*
X181937Y345711D01*
X182057Y346395D01*
X182219Y347068D01*
X182430Y347731D01*
X182684Y348376D01*
X182981Y349001D01*
X183321Y349605D01*
X183702Y350187D01*
X184122Y350738D01*
X184579Y351261D01*
X185069Y351751D01*
X185592Y352209D01*
X186143Y352628D01*
X186725Y353009D01*
X187330Y353349D01*
X187954Y353646D01*
X188600Y353900D01*
X189263Y354111D01*
X189936Y354274D01*
X190619Y354393D01*
X191310Y354464D01*
X192003Y354487D01*
X232008Y354487D01*
X232702Y354464D01*
X233392Y354393D01*
X234076Y354274D01*
X234749Y354111D01*
X235412Y353900D01*
X236057Y353646D01*
X236682Y353349D01*
X237286Y353009D01*
X237868Y352628D01*
X238419Y352209D01*
X238942Y351751D01*
X239433Y351261D01*
X239890Y350738D01*
X240309Y350187D01*
X240690Y349605D01*
X241030Y349001D01*
X241327Y348376D01*
X241581Y347731D01*
X241792Y347068D01*
X241955Y346395D01*
X242074Y345711D01*
X242145Y345020D01*
X242168Y344327D01*
X242168Y264317D01*
X242145Y263624D01*
X242074Y262933D01*
X241955Y262249D01*
X241792Y261576D01*
X241581Y260913D01*
X241327Y260268D01*
X241030Y259643D01*
X240690Y259039D01*
X240309Y258457D01*
X239890Y257906D01*
X239433Y257383D01*
X238942Y256893D01*
X238419Y256435D01*
X237868Y256016D01*
X237286Y255635D01*
X236682Y255295D01*
X236057Y254998D01*
X235412Y254744D01*
X234749Y254533D01*
X234076Y254370D01*
X233392Y254251D01*
X232702Y254180D01*
X232008Y254157D01*
G37*
G36*
X107015Y254157D02*
G01*
X106321Y254180D01*
X105630Y254251D01*
X104947Y254370D01*
X104274Y254533D01*
X103611Y254744D01*
X102966Y254998D01*
X102341Y255295D01*
X101737Y255635D01*
X101155Y256016D01*
X100604Y256435D01*
X100081Y256893D01*
X99590Y257383D01*
X99133Y257906D01*
X98714Y258457D01*
X98333Y259039D01*
X97993Y259643D01*
X97696Y260268D01*
X97442Y260913D01*
X97231Y261576D01*
X97068Y262249D01*
X96949Y262933D01*
X96878Y263624D01*
X96855Y264317D01*
X96855Y344327D01*
X96878Y345020D01*
X96949Y345711D01*
X97068Y346395D01*
X97231Y347068D01*
X97442Y347731D01*
X97696Y348376D01*
X97993Y349001D01*
X98333Y349605D01*
X98714Y350187D01*
X99133Y350738D01*
X99590Y351261D01*
X100081Y351751D01*
X100604Y352209D01*
X101155Y352628D01*
X101737Y353009D01*
X102341Y353349D01*
X102966Y353646D01*
X103611Y353900D01*
X104274Y354111D01*
X104947Y354274D01*
X105630Y354393D01*
X106321Y354464D01*
X107015Y354487D01*
X146994Y354487D01*
X147688Y354464D01*
X148379Y354393D01*
X149062Y354274D01*
X149735Y354111D01*
X150398Y353900D01*
X151043Y353646D01*
X151668Y353349D01*
X152272Y353009D01*
X152854Y352628D01*
X153405Y352209D01*
X153929Y351751D01*
X154419Y351261D01*
X154876Y350738D01*
X155295Y350187D01*
X155676Y349605D01*
X156016Y349001D01*
X156314Y348376D01*
X156568Y347731D01*
X156778Y347068D01*
X156941Y346395D01*
X157060Y345711D01*
X157132Y345020D01*
X157154Y344327D01*
X157154Y264317D01*
X157132Y263624D01*
X157060Y262933D01*
X156941Y262249D01*
X156778Y261576D01*
X156568Y260913D01*
X156314Y260268D01*
X156016Y259643D01*
X155676Y259039D01*
X155295Y258457D01*
X154876Y257906D01*
X154419Y257383D01*
X153929Y256893D01*
X153405Y256435D01*
X152854Y256016D01*
X152272Y255635D01*
X151668Y255295D01*
X151043Y254998D01*
X150398Y254744D01*
X149735Y254533D01*
X149062Y254370D01*
X148379Y254251D01*
X147688Y254180D01*
X146994Y254157D01*
G37*
G36*
X22001Y254157D02*
G01*
X21308Y254180D01*
X20617Y254251D01*
X19933Y254370D01*
X19260Y254533D01*
X18597Y254744D01*
X17952Y254998D01*
X17327Y255295D01*
X16723Y255635D01*
X16141Y256016D01*
X15590Y256435D01*
X15067Y256893D01*
X14577Y257383D01*
X14119Y257906D01*
X13700Y258457D01*
X13319Y259039D01*
X12979Y259643D01*
X12682Y260268D01*
X12428Y260913D01*
X12217Y261576D01*
X12054Y262249D01*
X11935Y262933D01*
X11864Y263624D01*
X11841Y264317D01*
X11841Y344327D01*
X11864Y345020D01*
X11935Y345711D01*
X12054Y346395D01*
X12217Y347068D01*
X12428Y347731D01*
X12682Y348376D01*
X12979Y349001D01*
X13319Y349605D01*
X13700Y350187D01*
X14119Y350738D01*
X14577Y351261D01*
X15067Y351751D01*
X15590Y352209D01*
X16141Y352628D01*
X16723Y353009D01*
X17327Y353349D01*
X17952Y353646D01*
X18597Y353900D01*
X19260Y354111D01*
X19933Y354274D01*
X20617Y354393D01*
X21308Y354464D01*
X22001Y354487D01*
X62006Y354487D01*
X62699Y354464D01*
X63390Y354393D01*
X64074Y354274D01*
X64747Y354111D01*
X65410Y353900D01*
X66055Y353646D01*
X66680Y353349D01*
X67284Y353009D01*
X67866Y352628D01*
X68417Y352209D01*
X68940Y351751D01*
X69430Y351261D01*
X69888Y350738D01*
X70307Y350187D01*
X70688Y349605D01*
X71028Y349001D01*
X71325Y348376D01*
X71579Y347731D01*
X71790Y347068D01*
X71953Y346395D01*
X72072Y345711D01*
X72143Y345020D01*
X72166Y344327D01*
X72166Y264317D01*
X72143Y263624D01*
X72072Y262933D01*
X71953Y262249D01*
X71790Y261576D01*
X71579Y260913D01*
X71325Y260268D01*
X71028Y259643D01*
X70688Y259039D01*
X70307Y258457D01*
X69888Y257906D01*
X69430Y257383D01*
X68940Y256893D01*
X68417Y256435D01*
X67866Y256016D01*
X67284Y255635D01*
X66680Y255295D01*
X66055Y254998D01*
X65410Y254744D01*
X64747Y254533D01*
X64074Y254370D01*
X63390Y254251D01*
X62699Y254180D01*
X62006Y254157D01*
G37*
G36*
X-62986Y254157D02*
G01*
X-63680Y254180D01*
X-64371Y254251D01*
X-65054Y254370D01*
X-65727Y254533D01*
X-66390Y254744D01*
X-67035Y254998D01*
X-67660Y255295D01*
X-68265Y255635D01*
X-68846Y256016D01*
X-69397Y256435D01*
X-69921Y256893D01*
X-70411Y257383D01*
X-70868Y257906D01*
X-71287Y258457D01*
X-71668Y259039D01*
X-72009Y259643D01*
X-72306Y260268D01*
X-72560Y260913D01*
X-72770Y261576D01*
X-72933Y262249D01*
X-73052Y262933D01*
X-73124Y263624D01*
X-73146Y264317D01*
X-73146Y344327D01*
X-73124Y345020D01*
X-73052Y345711D01*
X-72933Y346395D01*
X-72770Y347068D01*
X-72560Y347731D01*
X-72306Y348376D01*
X-72009Y349001D01*
X-71668Y349605D01*
X-71287Y350187D01*
X-70868Y350738D01*
X-70411Y351261D01*
X-69921Y351751D01*
X-69397Y352209D01*
X-68846Y352628D01*
X-68265Y353009D01*
X-67660Y353349D01*
X-67035Y353646D01*
X-66390Y353900D01*
X-65727Y354111D01*
X-65054Y354274D01*
X-64371Y354393D01*
X-63680Y354464D01*
X-62986Y354487D01*
X-22981Y354487D01*
X-22288Y354464D01*
X-21597Y354393D01*
X-20914Y354274D01*
X-20241Y354111D01*
X-19578Y353900D01*
X-18933Y353646D01*
X-18308Y353349D01*
X-17703Y353009D01*
X-17122Y352628D01*
X-16570Y352209D01*
X-16047Y351751D01*
X-15557Y351261D01*
X-15100Y350738D01*
X-14681Y350187D01*
X-14300Y349605D01*
X-13959Y349001D01*
X-13662Y348376D01*
X-13408Y347731D01*
X-13197Y347068D01*
X-13035Y346395D01*
X-12915Y345711D01*
X-12844Y345020D01*
X-12821Y344327D01*
X-12821Y264317D01*
X-12844Y263624D01*
X-12915Y262933D01*
X-13035Y262249D01*
X-13197Y261576D01*
X-13408Y260913D01*
X-13662Y260268D01*
X-13959Y259643D01*
X-14300Y259039D01*
X-14681Y258457D01*
X-15100Y257906D01*
X-15557Y257383D01*
X-16047Y256893D01*
X-16570Y256435D01*
X-17122Y256016D01*
X-17703Y255635D01*
X-18308Y255295D01*
X-18933Y254998D01*
X-19578Y254744D01*
X-20241Y254533D01*
X-20914Y254370D01*
X-21597Y254251D01*
X-22288Y254180D01*
X-22981Y254157D01*
G37*
G36*
X-148000Y254157D02*
G01*
X-148694Y254180D01*
X-149385Y254251D01*
X-150068Y254370D01*
X-150741Y254533D01*
X-151404Y254744D01*
X-152049Y254998D01*
X-152674Y255295D01*
X-153278Y255635D01*
X-153860Y256016D01*
X-154411Y256435D01*
X-154934Y256893D01*
X-155425Y257383D01*
X-155882Y257906D01*
X-156301Y258457D01*
X-156682Y259039D01*
X-157022Y259643D01*
X-157319Y260268D01*
X-157573Y260913D01*
X-157784Y261576D01*
X-157947Y262249D01*
X-158066Y262933D01*
X-158137Y263624D01*
X-158160Y264317D01*
X-158160Y344327D01*
X-158137Y345020D01*
X-158066Y345711D01*
X-157947Y346395D01*
X-157784Y347068D01*
X-157573Y347731D01*
X-157319Y348376D01*
X-157022Y349001D01*
X-156682Y349605D01*
X-156301Y350187D01*
X-155882Y350738D01*
X-155425Y351261D01*
X-154934Y351751D01*
X-154411Y352209D01*
X-153860Y352628D01*
X-153278Y353009D01*
X-152674Y353349D01*
X-152049Y353646D01*
X-151404Y353900D01*
X-150741Y354111D01*
X-150068Y354274D01*
X-149385Y354393D01*
X-148694Y354464D01*
X-148000Y354487D01*
X-107995Y354487D01*
X-107302Y354464D01*
X-106611Y354393D01*
X-105928Y354274D01*
X-105255Y354111D01*
X-104592Y353900D01*
X-103946Y353646D01*
X-103322Y353349D01*
X-102717Y353009D01*
X-102135Y352628D01*
X-101584Y352209D01*
X-101061Y351751D01*
X-100571Y351261D01*
X-100114Y350738D01*
X-99695Y350187D01*
X-99313Y349605D01*
X-98973Y349001D01*
X-98676Y348376D01*
X-98422Y347731D01*
X-98211Y347068D01*
X-98049Y346395D01*
X-97929Y345711D01*
X-97858Y345020D01*
X-97835Y344327D01*
X-97835Y264317D01*
X-97858Y263624D01*
X-97929Y262933D01*
X-98049Y262249D01*
X-98211Y261576D01*
X-98422Y260913D01*
X-98676Y260268D01*
X-98973Y259643D01*
X-99313Y259039D01*
X-99695Y258457D01*
X-100114Y257906D01*
X-100571Y257383D01*
X-101061Y256893D01*
X-101584Y256435D01*
X-102135Y256016D01*
X-102717Y255635D01*
X-103322Y255295D01*
X-103946Y254998D01*
X-104592Y254744D01*
X-105255Y254533D01*
X-105928Y254370D01*
X-106611Y254251D01*
X-107302Y254180D01*
X-107995Y254157D01*
G37*
G36*
X-232989Y254157D02*
G01*
X-233682Y254180D01*
X-234373Y254251D01*
X-235056Y254370D01*
X-235729Y254533D01*
X-236392Y254744D01*
X-237037Y254998D01*
X-237662Y255295D01*
X-238267Y255635D01*
X-238848Y256016D01*
X-239400Y256435D01*
X-239923Y256893D01*
X-240413Y257383D01*
X-240870Y257906D01*
X-241289Y258457D01*
X-241670Y259039D01*
X-242011Y259643D01*
X-242308Y260268D01*
X-242562Y260913D01*
X-242773Y261576D01*
X-242935Y262249D01*
X-243055Y262933D01*
X-243126Y263624D01*
X-243149Y264317D01*
X-243149Y344327D01*
X-243126Y345020D01*
X-243055Y345711D01*
X-242935Y346395D01*
X-242773Y347068D01*
X-242562Y347731D01*
X-242308Y348376D01*
X-242011Y349001D01*
X-241670Y349605D01*
X-241289Y350187D01*
X-240870Y350738D01*
X-240413Y351261D01*
X-239923Y351751D01*
X-239400Y352209D01*
X-238848Y352628D01*
X-238267Y353009D01*
X-237662Y353349D01*
X-237037Y353646D01*
X-236392Y353900D01*
X-235729Y354111D01*
X-235056Y354274D01*
X-234373Y354393D01*
X-233682Y354464D01*
X-232989Y354487D01*
X-192984Y354487D01*
X-192290Y354464D01*
X-191599Y354393D01*
X-190916Y354274D01*
X-190243Y354111D01*
X-189580Y353900D01*
X-188935Y353646D01*
X-188310Y353349D01*
X-187706Y353009D01*
X-187124Y352628D01*
X-186573Y352209D01*
X-186049Y351751D01*
X-185559Y351261D01*
X-185102Y350738D01*
X-184683Y350187D01*
X-184302Y349605D01*
X-183962Y349001D01*
X-183664Y348376D01*
X-183410Y347731D01*
X-183200Y347068D01*
X-183037Y346395D01*
X-182918Y345711D01*
X-182846Y345020D01*
X-182824Y344327D01*
X-182824Y264317D01*
X-182846Y263624D01*
X-182918Y262933D01*
X-183037Y262249D01*
X-183200Y261576D01*
X-183410Y260913D01*
X-183664Y260268D01*
X-183962Y259643D01*
X-184302Y259039D01*
X-184683Y258457D01*
X-185102Y257906D01*
X-185559Y257383D01*
X-186049Y256893D01*
X-186573Y256435D01*
X-187124Y256016D01*
X-187706Y255635D01*
X-188310Y255295D01*
X-188935Y254998D01*
X-189580Y254744D01*
X-190243Y254533D01*
X-190916Y254370D01*
X-191599Y254251D01*
X-192290Y254180D01*
X-192984Y254157D01*
G37*
G36*
X-318002Y254157D02*
G01*
X-318696Y254180D01*
X-319387Y254251D01*
X-320070Y254370D01*
X-320743Y254533D01*
X-321406Y254744D01*
X-322051Y254998D01*
X-322676Y255295D01*
X-323281Y255635D01*
X-323862Y256016D01*
X-324413Y256435D01*
X-324937Y256893D01*
X-325427Y257383D01*
X-325884Y257906D01*
X-326303Y258457D01*
X-326684Y259039D01*
X-327025Y259643D01*
X-327322Y260268D01*
X-327576Y260913D01*
X-327786Y261576D01*
X-327949Y262249D01*
X-328068Y262933D01*
X-328140Y263624D01*
X-328162Y264317D01*
X-328162Y344327D01*
X-328140Y345020D01*
X-328068Y345711D01*
X-327949Y346395D01*
X-327786Y347068D01*
X-327576Y347731D01*
X-327322Y348376D01*
X-327025Y349001D01*
X-326684Y349605D01*
X-326303Y350187D01*
X-325884Y350738D01*
X-325427Y351261D01*
X-324937Y351751D01*
X-324413Y352209D01*
X-323862Y352628D01*
X-323281Y353009D01*
X-322676Y353349D01*
X-322051Y353646D01*
X-321406Y353900D01*
X-320743Y354111D01*
X-320070Y354274D01*
X-319387Y354393D01*
X-318696Y354464D01*
X-318002Y354487D01*
X-277997Y354487D01*
X-277304Y354464D01*
X-276613Y354393D01*
X-275930Y354274D01*
X-275257Y354111D01*
X-274594Y353900D01*
X-273949Y353646D01*
X-273324Y353349D01*
X-272719Y353009D01*
X-272138Y352628D01*
X-271586Y352209D01*
X-271063Y351751D01*
X-270573Y351261D01*
X-270116Y350738D01*
X-269697Y350187D01*
X-269316Y349605D01*
X-268975Y349001D01*
X-268678Y348376D01*
X-268424Y347731D01*
X-268213Y347068D01*
X-268051Y346395D01*
X-267931Y345711D01*
X-267860Y345020D01*
X-267837Y344327D01*
X-267837Y264317D01*
X-267860Y263624D01*
X-267931Y262933D01*
X-268051Y262249D01*
X-268213Y261576D01*
X-268424Y260913D01*
X-268678Y260268D01*
X-268975Y259643D01*
X-269316Y259039D01*
X-269697Y258457D01*
X-270116Y257906D01*
X-270573Y257383D01*
X-271063Y256893D01*
X-271586Y256435D01*
X-272138Y256016D01*
X-272719Y255635D01*
X-273324Y255295D01*
X-273949Y254998D01*
X-274594Y254744D01*
X-275257Y254533D01*
X-275930Y254370D01*
X-276613Y254251D01*
X-277304Y254180D01*
X-277997Y254157D01*
G37*
G01*
X-402991Y304322D03*
D45*
G01*
X-402991Y409326D03*
G01*
X-402991Y494314D03*
G01*
X-402991Y579328D03*
G01*
X-402991Y664316D03*
G01*
X-402991Y749330D03*
G01*
X-402991Y834318D03*
G01*
X-402991Y919332D03*
G01*
X-402991Y1004321D03*
G01*
X-402991Y1089309D03*
G01*
X-402991Y1174323D03*
G01*
X-402991Y1259311D03*
G01*
X-402991Y1344325D03*
G01*
X-402991Y1429313D03*
G01*
X-402991Y1599316D03*
G01*
X-402991Y1514327D03*
D46*
G01*
X1318262Y1771515D03*
G01*
X1318262Y1731535D03*
G01*
X1278282Y1771515D03*
G01*
X1278282Y1731535D03*
D23*
G01*
X1236553Y1514961D03*
G01*
X1236553Y1601527D03*
G01*
X1356441Y1514707D03*
G01*
X1356441Y1601273D03*
D21*
G01*
X-740224Y2030176D03*
G01*
X-631212Y2030176D03*
D47*
G01*
X2217465Y518962D03*
G01*
X2217465Y593963D03*
G01*
X2217465Y668962D03*
G01*
X2217465Y743963D03*
G01*
X2217465Y818962D03*
G01*
X2217465Y893963D03*
G01*
X2217465Y968961D03*
G01*
X2322466Y478962D03*
D48*
G01*
X2322468Y743964D03*
D47*
G01*
X2322466Y1008961D03*
G01*
X2427465Y518962D03*
G01*
X2427465Y593963D03*
G01*
X2427465Y668962D03*
G01*
X2427465Y743963D03*
G01*
X2427465Y818962D03*
G01*
X2427465Y893963D03*
G01*
X2427465Y968961D03*
D22*
G01*
X2065665Y709498D03*
G01*
X1815729Y614502D03*
G01*
X1815729Y804494D03*
D21*
G01*
X1177592Y129900D03*
G01*
X1286603Y129900D03*
D23*
G01*
X1661695Y816215D03*
G01*
X1661695Y902780D03*
G01*
X2067295Y492982D03*
G01*
X2067295Y406416D03*
G01*
X2004296Y1020080D03*
G01*
X2004296Y933514D03*
G01*
X1663796Y689479D03*
G01*
X1663796Y602913D03*
D25*
G01*
X1886097Y933691D03*
G01*
X1886097Y1042703D03*
M02*
