M48
INCH,LZ
;FILE_FORMAT=2:4
;TYPE=PLATED
;Layer: PTH_Through_Via
;EasyEDA v6.5.22, 2023-02-04 18:08:32
;803b958340a141a7ad8343e076188523,c17a8ced473b4d519dda31697e0e54b6,10
;Gerber Generator version 0.2
;Holesize 1 = 0.0120 inch
T01C0.0120
%
G05
G90
T01
X-001475Y003698
X002264Y-002812
X002059Y-002594
X003609Y-001475
X001293Y-003685
X000955Y-003704
X006107Y-001094
X006985Y-000694
X006949Y000296
X006905Y001278
X002933Y000466
X002793Y000913
X-001821Y002720
X-000633Y-005275
X-001672Y-000582
X003776Y004737
X-000625Y002085
X-001764Y003697
X-001182Y003695
X-000882Y003695
X002141Y-003554
X002738Y-002240
X002486Y-001914
X002820Y-001742
X000437Y001584
X003921Y006027
X006440Y002691
X005254Y002809
X-004334Y002402
X-004334Y002722
X-004334Y003042
X-005082Y002357
X-005082Y002677
X-005082Y002997
X-005082Y003317
X-005082Y003637
X-004997Y003970
X-004774Y004221
X-004275Y003777
X-004664Y004523
X-004444Y004810
X-003611Y003324
X-003391Y003119
X-003184Y002905
X-003079Y002635
X-003084Y002355
X001856Y-003670
X-005141Y000381
X-005602Y000569
X-001679Y-002314
X-004190Y-003100
X-004011Y-003374
X-003394Y-002754
X-003075Y-002924
X-000655Y-001750
X004520Y-000016
X004366Y-000305
X-000179Y-000655
X005755Y002059
X000576Y002801
X000946Y002806
X000951Y002491
X000578Y002497
X004272Y003098
X004242Y002744
X-001344Y000142
X-000570Y002397
X002080Y000668
X002610Y002269
X002369Y001674
X002753Y001672
X000311Y-001776
X002312Y-000025
X002069Y-000324
X-000944Y003176
X-000622Y003176
X-000298Y003177
X004221Y-001115
X000452Y003077
X002293Y003056
X002457Y003428
X005754Y-001208
X-002579Y-001314
X-000332Y003770
X000000Y000000
X-003745Y-001451
X-000747Y-000189
X004869Y001071
X006157Y001378
X004313Y003664
X003652Y002924
X007244Y-000005
X005136Y005250
X-005581Y-001756
X005092Y004206
X005324Y003405
X001763Y-004904
X-004260Y-004126
X-003985Y-003881
X-003965Y-004386
X-003700Y-004176
X-001118Y-004525
X-001091Y-003780
X-002892Y-003660
X-000659Y-002045
X000610Y-001025
X001412Y-000963
X-002365Y-004792
X-002895Y-004012
X-001002Y-000449
X-002619Y002892
X-003090Y000700
X003615Y003245
X001514Y-006002
X002840Y-001002
X-005620Y001657
X-001525Y-005680
X-000377Y-000095
X000364Y-006398
X000205Y-003853
X000369Y-003180
X000699Y-003180
X004328Y004013
X-002625Y-002925
X002461Y-000677
X002571Y-000347
X001946Y-000993
X001927Y-000655
M30
