G04 Layer: BottomSilkscreenLayer*
G04 EasyEDA v6.5.22, 2023-02-04 18:08:32*
G04 803b958340a141a7ad8343e076188523,c17a8ced473b4d519dda31697e0e54b6,10*
G04 Gerber Generator version 0.2*
G04 Scale: 100 percent, Rotated: No, Reflected: No *
G04 Dimensions in inches *
G04 leading zeros omitted , absolute positions ,3 integer and 6 decimal *
%FSLAX36Y36*%
%MOIN*%

%ADD10C,0.0060*%
%ADD11C,0.0050*%
%ADD12C,0.0039*%
%ADD13C,0.0100*%
%ADD14C,0.0059*%
%ADD15C,0.0060*%
%ADD16C,0.0098*%
%ADD17C,0.0111*%

%LPD*%
D10*
X513073Y446773D02*
G01*
X489449Y423149D01*
X513073Y446773D02*
G01*
X502948Y456897D01*
X498449Y459148D01*
X496199Y459148D01*
X492825Y458022D01*
X490574Y455772D01*
X489449Y452397D01*
X489449Y450148D01*
X491700Y445648D01*
X501823Y435523D02*
G01*
X491700Y445648D01*
X487200Y447898D01*
X484949Y447898D01*
X481575Y446773D01*
X478200Y443398D01*
X477075Y440023D01*
X477075Y437773D01*
X479324Y433273D01*
X489449Y423149D01*
X483149Y476696D02*
G01*
X484274Y473321D01*
X484274Y468822D01*
X483149Y465447D01*
X480900Y460947D01*
X475276Y455322D01*
X470775Y453072D01*
X467400Y451947D01*
X462901Y451947D01*
X459525Y453072D01*
X455027Y457572D01*
X453901Y460947D01*
X453901Y465447D01*
X455027Y468822D01*
X457277Y473321D01*
X462901Y478946D01*
X467400Y481196D01*
X470775Y482321D01*
X475276Y482321D01*
X478649Y481196D01*
X483149Y476696D01*
X457727Y502120D02*
G01*
X458851Y498745D01*
X458851Y494245D01*
X457727Y490870D01*
X455477Y486371D01*
X449852Y480746D01*
X445352Y478496D01*
X441976Y477371D01*
X437478Y477371D01*
X434103Y478496D01*
X429602Y482996D01*
X428478Y486371D01*
X428478Y490870D01*
X429602Y494245D01*
X431853Y498745D01*
X437478Y504370D01*
X441976Y506621D01*
X445352Y507745D01*
X449852Y507745D01*
X453226Y506621D01*
X457727Y502120D01*
X431177Y528669D02*
G01*
X407554Y505045D01*
X439053Y520794D02*
G01*
X423302Y536543D01*
X568337Y266810D02*
G01*
X539404Y250106D01*
X568337Y266810D02*
G01*
X561177Y279210D01*
X557413Y282548D01*
X555240Y283130D01*
X551689Y282917D01*
X548933Y281326D01*
X546974Y278357D01*
X546391Y276184D01*
X547400Y271255D01*
X554560Y258856D01*
X548991Y268500D02*
G01*
X528267Y269394D01*
X551950Y295192D02*
G01*
X523018Y278488D01*
X551950Y295192D02*
G01*
X541610Y313103D01*
X538172Y287238D02*
G01*
X531810Y298260D01*
X523018Y278488D02*
G01*
X512677Y296399D01*
X521090Y339099D02*
G01*
X525437Y337934D01*
X529201Y334596D01*
X532382Y329085D01*
X533391Y324157D01*
X532227Y319810D01*
X529471Y318219D01*
X525919Y318006D01*
X523747Y318588D01*
X520778Y320548D01*
X513249Y327224D01*
X510281Y329184D01*
X508108Y329766D01*
X504557Y329553D01*
X500424Y327167D01*
X499259Y322820D01*
X500267Y317892D01*
X503450Y312381D01*
X507214Y309043D01*
X511559Y307878D01*
X519974Y350578D02*
G01*
X491041Y333874D01*
X519974Y350578D02*
G01*
X509633Y368489D01*
X506195Y342624D02*
G01*
X499831Y353646D01*
X491041Y333874D02*
G01*
X480699Y351785D01*
X498815Y387228D02*
G01*
X469881Y370522D01*
X504382Y377583D02*
G01*
X493247Y396871D01*
D11*
X496581Y-77400D02*
G01*
X497718Y-75127D01*
X501126Y-71718D01*
X477264Y-71718D01*
X495444Y-63082D02*
G01*
X496581Y-63082D01*
X498855Y-61945D01*
X499991Y-60809D01*
X501126Y-58536D01*
X501126Y-53991D01*
X499991Y-51718D01*
X498855Y-50582D01*
X496581Y-49445D01*
X494309Y-49445D01*
X492035Y-50582D01*
X488626Y-52855D01*
X477264Y-64218D01*
X477264Y-48309D01*
D10*
X656313Y-27983D02*
G01*
X622908Y-28566D01*
X656313Y-27983D02*
G01*
X656117Y-16849D01*
X654444Y-12105D01*
X651207Y-8979D01*
X647997Y-7444D01*
X643199Y-5936D01*
X635245Y-6075D01*
X630501Y-7750D01*
X627346Y-9396D01*
X624221Y-12632D01*
X622713Y-17432D01*
X622908Y-28566D01*
X655740Y4783D02*
G01*
X622336Y4200D01*
X650397Y37468D02*
G01*
X653632Y34342D01*
X655308Y29597D01*
X655419Y23235D01*
X653910Y18435D01*
X650785Y15198D01*
X647604Y15142D01*
X644395Y16678D01*
X642776Y18242D01*
X641131Y21394D01*
X637782Y30883D01*
X636135Y34036D01*
X634517Y35599D01*
X631309Y37134D01*
X626536Y37051D01*
X623410Y33814D01*
X621904Y29014D01*
X622015Y22652D01*
X623689Y17907D01*
X626926Y14782D01*
X654985Y48050D02*
G01*
X621581Y47466D01*
X654985Y48050D02*
G01*
X654736Y62365D01*
X653061Y67109D01*
X651442Y68673D01*
X648235Y70208D01*
X643461Y70124D01*
X640308Y68478D01*
X638746Y66860D01*
X637238Y62059D01*
X637488Y47744D01*
X654413Y80817D02*
G01*
X621009Y80234D01*
X621009Y80234D02*
G01*
X620676Y99322D01*
X653675Y123129D02*
G01*
X620493Y109820D01*
X653675Y123129D02*
G01*
X620048Y135271D01*
X631544Y114787D02*
G01*
X631266Y130693D01*
X653269Y146352D02*
G01*
X637141Y158800D01*
X619643Y158496D01*
X652825Y171803D02*
G01*
X637141Y158800D01*
D11*
X116154Y316144D02*
G01*
X117291Y318417D01*
X119564Y320690D01*
X121836Y321826D01*
X126382Y321826D01*
X128654Y320690D01*
X130927Y318417D01*
X132064Y316144D01*
X133199Y312735D01*
X133199Y307054D01*
X132064Y303644D01*
X130927Y301372D01*
X128654Y299099D01*
X126382Y297963D01*
X121836Y297963D01*
X119564Y299099D01*
X117291Y301372D01*
X116154Y303644D01*
X116154Y307054D01*
X121836Y307054D02*
G01*
X116154Y307054D01*
X108654Y307054D02*
G01*
X95018Y307054D01*
X95018Y309326D01*
X96154Y311599D01*
X97291Y312735D01*
X99564Y313872D01*
X102973Y313872D01*
X105245Y312735D01*
X107518Y310463D01*
X108654Y307054D01*
X108654Y304782D01*
X107518Y301372D01*
X105245Y299099D01*
X102973Y297963D01*
X99564Y297963D01*
X97291Y299099D01*
X95018Y301372D01*
X75018Y310463D02*
G01*
X76154Y312735D01*
X79564Y313872D01*
X82973Y313872D01*
X86382Y312735D01*
X87518Y310463D01*
X86382Y308190D01*
X84108Y307054D01*
X78427Y305917D01*
X76154Y304782D01*
X75018Y302509D01*
X75018Y301372D01*
X76154Y299099D01*
X79564Y297963D01*
X82973Y297963D01*
X86382Y299099D01*
X87518Y301372D01*
X64108Y321826D02*
G01*
X64108Y302509D01*
X62973Y299099D01*
X60699Y297963D01*
X58427Y297963D01*
X67518Y313872D02*
G01*
X59564Y313872D01*
X50927Y313872D02*
G01*
X50927Y302509D01*
X49791Y299099D01*
X47518Y297963D01*
X44108Y297963D01*
X41836Y299099D01*
X38427Y302509D01*
X38427Y313872D02*
G01*
X38427Y297963D01*
X30927Y313872D02*
G01*
X30927Y297963D01*
X30927Y307054D02*
G01*
X29791Y310463D01*
X27518Y312735D01*
X25245Y313872D01*
X21836Y313872D01*
X14336Y307054D02*
G01*
X699Y307054D01*
X699Y309326D01*
X1836Y311599D01*
X2973Y312735D01*
X5245Y313872D01*
X8654Y313872D01*
X10927Y312735D01*
X13199Y310463D01*
X14336Y307054D01*
X14336Y304782D01*
X13199Y301372D01*
X10927Y299099D01*
X8654Y297963D01*
X5245Y297963D01*
X2973Y299099D01*
X699Y301372D01*
D10*
X686851Y295865D02*
G01*
X709584Y259484D01*
X686851Y295865D02*
G01*
X671247Y286115D01*
X667133Y281186D01*
X666466Y278292D01*
X666943Y273756D01*
X669116Y270280D01*
X672983Y267862D01*
X675824Y267278D01*
X682057Y268815D01*
X697660Y278565D02*
G01*
X682057Y268815D01*
X677997Y263802D01*
X677277Y260993D01*
X677753Y256455D01*
X681036Y251198D01*
X684907Y248781D01*
X687748Y248197D01*
X693981Y249733D01*
X709584Y259484D01*
X655493Y266603D02*
G01*
X650905Y266210D01*
X642412Y268097D01*
X665147Y231716D01*
X553662Y613898D02*
G01*
X526087Y581036D01*
X553662Y613898D02*
G01*
X539567Y625725D01*
X533609Y628116D01*
X530650Y627856D01*
X526484Y626000D01*
X523849Y622860D01*
X522745Y618433D01*
X523068Y615552D01*
X526454Y610099D01*
X540551Y598271D02*
G01*
X526454Y610099D01*
X520433Y612411D01*
X517538Y612229D01*
X513370Y610373D01*
X509385Y605623D01*
X508281Y601197D01*
X508605Y598315D01*
X511993Y592863D01*
X526087Y581036D01*
X513248Y634496D02*
G01*
X514534Y636028D01*
X515636Y640454D01*
X515378Y643413D01*
X513523Y647581D01*
X507318Y652787D01*
X502892Y653890D01*
X499933Y653632D01*
X495766Y651776D01*
X493130Y648636D01*
X492025Y644209D01*
X491246Y636900D01*
X493837Y608098D01*
X471851Y626544D01*
D11*
X-330399Y545426D02*
G01*
X-330399Y521563D01*
X-330399Y545426D02*
G01*
X-340627Y545426D01*
X-344035Y544290D01*
X-345172Y543154D01*
X-346309Y540881D01*
X-346309Y538608D01*
X-345172Y536335D01*
X-344035Y535199D01*
X-340627Y534063D01*
X-330399Y534063D01*
X-338355Y534063D02*
G01*
X-346309Y521563D01*
X-353809Y545426D02*
G01*
X-353809Y521563D01*
X-353809Y545426D02*
G01*
X-368581Y545426D01*
X-353809Y534063D02*
G01*
X-362899Y534063D01*
X-377218Y539744D02*
G01*
X-377218Y540881D01*
X-378355Y543154D01*
X-379490Y544290D01*
X-381764Y545426D01*
X-386309Y545426D01*
X-388581Y544290D01*
X-389718Y543154D01*
X-390855Y540881D01*
X-390855Y538608D01*
X-389718Y536335D01*
X-387444Y532926D01*
X-376081Y521563D01*
X-391990Y521563D01*
X-575527Y90099D02*
G01*
X-558482Y90099D01*
X-555073Y88963D01*
X-552799Y86690D01*
X-551664Y83281D01*
X-551664Y81008D01*
X-552799Y77599D01*
X-555073Y75326D01*
X-558482Y74190D01*
X-575527Y74190D01*
X-570982Y66690D02*
G01*
X-572118Y64417D01*
X-575527Y61008D01*
X-551664Y61008D01*
X-575527Y42144D02*
G01*
X-559618Y53508D01*
X-559618Y36463D01*
X-575527Y42144D02*
G01*
X-551664Y42144D01*
D12*
X173540Y-529604D02*
G01*
X173540Y-510814D01*
X173540Y-510814D02*
G01*
X184277Y-510814D01*
X190182Y-529604D02*
G01*
X190182Y-510814D01*
X190182Y-529604D02*
G01*
X201814Y-529604D01*
X190182Y-520656D02*
G01*
X197340Y-520656D01*
X190182Y-510814D02*
G01*
X201814Y-510814D01*
X207719Y-529604D02*
G01*
X207719Y-510814D01*
X207719Y-529604D02*
G01*
X213984Y-529604D01*
X216667Y-528709D01*
X218458Y-526920D01*
X219351Y-525130D01*
X220246Y-522445D01*
X220246Y-517972D01*
X219351Y-515288D01*
X218458Y-513498D01*
X216667Y-511708D01*
X213984Y-510814D01*
X207719Y-510814D01*
X226153Y-526025D02*
G01*
X227942Y-526920D01*
X230626Y-529604D01*
X230626Y-510814D01*
D11*
X331405Y-558694D02*
G01*
X316943Y-573157D01*
X313086Y-575086D01*
X309229Y-575086D01*
X305371Y-573157D01*
X303442Y-571229D01*
X301514Y-567372D01*
X301514Y-563515D01*
X303442Y-559658D01*
X317907Y-545195D01*
X295150Y-528224D02*
G01*
X299008Y-528224D01*
X302865Y-530153D01*
X306721Y-534009D01*
X308649Y-537866D01*
X308649Y-541723D01*
X306721Y-543652D01*
X303828Y-544616D01*
X301899Y-544616D01*
X299008Y-543652D01*
X291293Y-539795D01*
X288401Y-538831D01*
X286472Y-538831D01*
X283580Y-539795D01*
X280686Y-542688D01*
X280686Y-546545D01*
X282615Y-550402D01*
X286472Y-554257D01*
X290330Y-556186D01*
X294187Y-556186D01*
X291679Y-518967D02*
G01*
X271431Y-539216D01*
X291679Y-518967D02*
G01*
X283001Y-510289D01*
X279143Y-508360D01*
X277215Y-508360D01*
X274323Y-509325D01*
X272394Y-511254D01*
X271431Y-514146D01*
X271431Y-516075D01*
X273359Y-519932D01*
X282037Y-528610D02*
G01*
X273359Y-519932D01*
X269502Y-518003D01*
X267574Y-518003D01*
X264681Y-518967D01*
X261787Y-521860D01*
X260824Y-524753D01*
X260824Y-526681D01*
X262752Y-530538D01*
X271431Y-539216D01*
X267959Y-502961D02*
G01*
X266994Y-500068D01*
X266994Y-494283D01*
X246746Y-514532D01*
X181854Y-153345D02*
G01*
X179582Y-152209D01*
X177309Y-149936D01*
X176172Y-147664D01*
X176172Y-143118D01*
X177309Y-140845D01*
X179582Y-138573D01*
X181854Y-137436D01*
X185263Y-136300D01*
X190945Y-136300D01*
X194354Y-137436D01*
X196626Y-138573D01*
X198900Y-140845D01*
X200036Y-143118D01*
X200036Y-147664D01*
X198900Y-149936D01*
X196626Y-152209D01*
X194354Y-153345D01*
X184126Y-175618D02*
G01*
X187536Y-174482D01*
X189809Y-172209D01*
X190945Y-168800D01*
X190945Y-167664D01*
X189809Y-164255D01*
X187536Y-161982D01*
X184126Y-160845D01*
X182991Y-160845D01*
X179582Y-161982D01*
X177309Y-164255D01*
X176172Y-167664D01*
X176172Y-168800D01*
X177309Y-172209D01*
X179582Y-174482D01*
X184126Y-175618D01*
X189809Y-175618D01*
X195491Y-174482D01*
X198900Y-172209D01*
X200036Y-168800D01*
X200036Y-166527D01*
X198900Y-163118D01*
X196626Y-161982D01*
X-75000Y50326D02*
G01*
X-75000Y26463D01*
X-75000Y50326D02*
G01*
X-85226Y50326D01*
X-88635Y49190D01*
X-89772Y48054D01*
X-90909Y45781D01*
X-90909Y43508D01*
X-89772Y41235D01*
X-88635Y40099D01*
X-85226Y38963D01*
X-75000Y38963D01*
X-82955Y38963D02*
G01*
X-90909Y26463D01*
X-113181Y42372D02*
G01*
X-112044Y38963D01*
X-109772Y36690D01*
X-106364Y35554D01*
X-105226Y35554D01*
X-101818Y36690D01*
X-99544Y38963D01*
X-98409Y42372D01*
X-98409Y43508D01*
X-99544Y46917D01*
X-101818Y49190D01*
X-105226Y50326D01*
X-106364Y50326D01*
X-109772Y49190D01*
X-112044Y46917D01*
X-113181Y42372D01*
X-113181Y36690D01*
X-112044Y31008D01*
X-109772Y27599D01*
X-106364Y26463D01*
X-104090Y26463D01*
X-100681Y27599D01*
X-99544Y29872D01*
X380000Y266526D02*
G01*
X380000Y242663D01*
X380000Y266526D02*
G01*
X369773Y266526D01*
X366364Y265390D01*
X365227Y264254D01*
X364090Y261981D01*
X364090Y259708D01*
X365227Y257435D01*
X366364Y256299D01*
X369773Y255163D01*
X380000Y255163D01*
X372044Y255163D02*
G01*
X364090Y242663D01*
X356590Y261981D02*
G01*
X354318Y263117D01*
X350909Y266526D01*
X350909Y242663D01*
X342273Y260844D02*
G01*
X342273Y261981D01*
X341135Y264254D01*
X340000Y265390D01*
X337727Y266526D01*
X333181Y266526D01*
X330909Y265390D01*
X329773Y264254D01*
X328635Y261981D01*
X328635Y259708D01*
X329773Y257435D01*
X332044Y254026D01*
X343409Y242663D01*
X327500Y242663D01*
X228400Y211472D02*
G01*
X228400Y182835D01*
X228400Y211472D02*
G01*
X216126Y211472D01*
X212035Y210108D01*
X210672Y208744D01*
X209309Y206017D01*
X209309Y203290D01*
X210672Y200563D01*
X212035Y199199D01*
X216126Y197835D01*
X228400Y197835D01*
X218855Y197835D02*
G01*
X209309Y182835D01*
X200308Y206017D02*
G01*
X197582Y207381D01*
X193491Y211472D01*
X193491Y182835D01*
X181764Y211472D02*
G01*
X166764Y211472D01*
X174944Y200563D01*
X170855Y200563D01*
X168127Y199199D01*
X166764Y197835D01*
X165399Y193744D01*
X165399Y191017D01*
X166764Y186926D01*
X169490Y184199D01*
X173581Y182835D01*
X177673Y182835D01*
X181764Y184199D01*
X183127Y185563D01*
X184490Y188290D01*
X477350Y334278D02*
G01*
X477350Y310416D01*
X477350Y334278D02*
G01*
X467124Y334278D01*
X463715Y333143D01*
X462578Y332006D01*
X461441Y329733D01*
X461441Y327460D01*
X462578Y325187D01*
X463715Y324051D01*
X467124Y322916D01*
X477350Y322916D01*
X469395Y322916D02*
G01*
X461441Y310416D01*
X452806Y328596D02*
G01*
X452806Y329733D01*
X451669Y332006D01*
X450533Y333143D01*
X448260Y334278D01*
X443715Y334278D01*
X441441Y333143D01*
X440306Y332006D01*
X439169Y329733D01*
X439169Y327460D01*
X440306Y325187D01*
X442578Y321778D01*
X453941Y310416D01*
X438033Y310416D01*
X416895Y334278D02*
G01*
X428260Y334278D01*
X429395Y324051D01*
X428260Y325187D01*
X424850Y326324D01*
X421441Y326324D01*
X418033Y325187D01*
X415760Y322916D01*
X414624Y319506D01*
X414624Y317233D01*
X415760Y313824D01*
X418033Y311551D01*
X421441Y310416D01*
X424850Y310416D01*
X428260Y311551D01*
X429395Y312687D01*
X430533Y314960D01*
X-120600Y332527D02*
G01*
X-120600Y308663D01*
X-120600Y332527D02*
G01*
X-130826Y332527D01*
X-134236Y331390D01*
X-135372Y330254D01*
X-136508Y327981D01*
X-136508Y325708D01*
X-135372Y323435D01*
X-134236Y322300D01*
X-130826Y321163D01*
X-120600Y321163D01*
X-128554Y321163D02*
G01*
X-136508Y308663D01*
X-145145Y326844D02*
G01*
X-145145Y327981D01*
X-146282Y330254D01*
X-147417Y331390D01*
X-149691Y332527D01*
X-154236Y332527D01*
X-156508Y331390D01*
X-157645Y330254D01*
X-158782Y327981D01*
X-158782Y325708D01*
X-157645Y323435D01*
X-155372Y320027D01*
X-144008Y308663D01*
X-159917Y308663D01*
X-181054Y329117D02*
G01*
X-179917Y331390D01*
X-176508Y332527D01*
X-174236Y332527D01*
X-170826Y331390D01*
X-168554Y327981D01*
X-167417Y322300D01*
X-167417Y316617D01*
X-168554Y312072D01*
X-170826Y309800D01*
X-174236Y308663D01*
X-175372Y308663D01*
X-178782Y309800D01*
X-181054Y312072D01*
X-182191Y315481D01*
X-182191Y316617D01*
X-181054Y320027D01*
X-178782Y322300D01*
X-175372Y323435D01*
X-174236Y323435D01*
X-170826Y322300D01*
X-168554Y320027D01*
X-167417Y316617D01*
X-24499Y304726D02*
G01*
X-24499Y280863D01*
X-24499Y304726D02*
G01*
X-34727Y304726D01*
X-38136Y303590D01*
X-39273Y302454D01*
X-40408Y300181D01*
X-40408Y297908D01*
X-39273Y295635D01*
X-38136Y294499D01*
X-34727Y293363D01*
X-24499Y293363D01*
X-32454Y293363D02*
G01*
X-40408Y280863D01*
X-49044Y299044D02*
G01*
X-49044Y300181D01*
X-50181Y302454D01*
X-51318Y303590D01*
X-53590Y304726D01*
X-58136Y304726D01*
X-60408Y303590D01*
X-61544Y302454D01*
X-62681Y300181D01*
X-62681Y297908D01*
X-61544Y295635D01*
X-59273Y292226D01*
X-47908Y280863D01*
X-63818Y280863D01*
X-87227Y304726D02*
G01*
X-75864Y280863D01*
X-71318Y304726D02*
G01*
X-87227Y304726D01*
X21400Y256726D02*
G01*
X21400Y232863D01*
X21400Y256726D02*
G01*
X11172Y256726D01*
X7763Y255590D01*
X6626Y254454D01*
X5491Y252181D01*
X5491Y249908D01*
X6626Y247635D01*
X7763Y246499D01*
X11172Y245363D01*
X21400Y245363D01*
X13445Y245363D02*
G01*
X5491Y232863D01*
X-3145Y251044D02*
G01*
X-3145Y252181D01*
X-4282Y254454D01*
X-5417Y255590D01*
X-7690Y256726D01*
X-12236Y256726D01*
X-14508Y255590D01*
X-15645Y254454D01*
X-16782Y252181D01*
X-16782Y249908D01*
X-15645Y247635D01*
X-13373Y244226D01*
X-2008Y232863D01*
X-17917Y232863D01*
X-31099Y256726D02*
G01*
X-27690Y255590D01*
X-26554Y253317D01*
X-26554Y251044D01*
X-27690Y248772D01*
X-29963Y247635D01*
X-34508Y246499D01*
X-37917Y245363D01*
X-40190Y243090D01*
X-41327Y240817D01*
X-41327Y237408D01*
X-40190Y235135D01*
X-39054Y233999D01*
X-35645Y232863D01*
X-31099Y232863D01*
X-27690Y233999D01*
X-26554Y235135D01*
X-25417Y237408D01*
X-25417Y240817D01*
X-26554Y243090D01*
X-28827Y245363D01*
X-32236Y246499D01*
X-36782Y247635D01*
X-39054Y248772D01*
X-40190Y251044D01*
X-40190Y253317D01*
X-39054Y255590D01*
X-35645Y256726D01*
X-31099Y256726D01*
X381599Y330226D02*
G01*
X381599Y306363D01*
X381599Y330226D02*
G01*
X371373Y330226D01*
X367964Y329090D01*
X366827Y327954D01*
X365690Y325681D01*
X365690Y323408D01*
X366827Y321135D01*
X367964Y320000D01*
X371373Y318863D01*
X381599Y318863D01*
X373644Y318863D02*
G01*
X365690Y306363D01*
X355918Y330226D02*
G01*
X343418Y330226D01*
X350236Y321135D01*
X346827Y321135D01*
X344555Y320000D01*
X343418Y318863D01*
X342282Y315454D01*
X342282Y313181D01*
X343418Y309773D01*
X345690Y307500D01*
X349099Y306363D01*
X352509Y306363D01*
X355918Y307500D01*
X357055Y308635D01*
X358190Y310908D01*
X333644Y324544D02*
G01*
X333644Y325681D01*
X332509Y327954D01*
X331373Y329090D01*
X329099Y330226D01*
X324555Y330226D01*
X322282Y329090D01*
X321144Y327954D01*
X320009Y325681D01*
X320009Y323408D01*
X321144Y321135D01*
X323418Y317726D01*
X334782Y306363D01*
X318873Y306363D01*
X-53777Y69149D02*
G01*
X-29913Y69149D01*
X-53777Y69149D02*
G01*
X-53777Y58922D01*
X-52641Y55513D01*
X-51504Y54376D01*
X-49232Y53240D01*
X-46958Y53240D01*
X-44686Y54376D01*
X-43549Y55513D01*
X-42413Y58922D01*
X-42413Y69149D01*
X-42413Y61194D02*
G01*
X-29913Y53240D01*
X-53777Y43467D02*
G01*
X-53777Y30967D01*
X-44686Y37785D01*
X-44686Y34376D01*
X-43549Y32104D01*
X-42413Y30967D01*
X-39004Y29831D01*
X-36732Y29831D01*
X-33323Y30967D01*
X-31049Y33240D01*
X-29913Y36649D01*
X-29913Y40058D01*
X-31049Y43467D01*
X-32186Y44604D01*
X-34458Y45740D01*
X-53777Y10967D02*
G01*
X-37867Y22331D01*
X-37867Y5285D01*
X-53777Y10967D02*
G01*
X-29913Y10967D01*
X54912Y-340240D02*
G01*
X78775Y-340240D01*
X54912Y-340240D02*
G01*
X54912Y-350467D01*
X56049Y-353876D01*
X57184Y-355013D01*
X59458Y-356149D01*
X61730Y-356149D01*
X64004Y-355013D01*
X65140Y-353876D01*
X66275Y-350467D01*
X66275Y-340240D01*
X66275Y-348195D02*
G01*
X78775Y-356149D01*
X59458Y-363649D02*
G01*
X58321Y-365922D01*
X54912Y-369331D01*
X78775Y-369331D01*
X54912Y-383649D02*
G01*
X56049Y-380240D01*
X59458Y-377967D01*
X65140Y-376831D01*
X68549Y-376831D01*
X74230Y-377967D01*
X77640Y-380240D01*
X78775Y-383649D01*
X78775Y-385922D01*
X77640Y-389331D01*
X74230Y-391604D01*
X68549Y-392740D01*
X65140Y-392740D01*
X59458Y-391604D01*
X56049Y-389331D01*
X54912Y-385922D01*
X54912Y-383649D01*
X412979Y405296D02*
G01*
X412979Y381433D01*
X412979Y405296D02*
G01*
X402753Y405296D01*
X399344Y404160D01*
X398207Y403024D01*
X397070Y400751D01*
X397070Y398478D01*
X398207Y396205D01*
X399344Y395069D01*
X402753Y393933D01*
X412979Y393933D01*
X405024Y393933D02*
G01*
X397070Y381433D01*
X387298Y405296D02*
G01*
X374798Y405296D01*
X381616Y396205D01*
X378207Y396205D01*
X375934Y395069D01*
X374798Y393933D01*
X373662Y390524D01*
X373662Y388251D01*
X374798Y384842D01*
X377070Y382569D01*
X380479Y381433D01*
X383888Y381433D01*
X387298Y382569D01*
X388434Y383705D01*
X389570Y385978D01*
X363888Y405296D02*
G01*
X351388Y405296D01*
X358207Y396205D01*
X354798Y396205D01*
X352524Y395069D01*
X351388Y393933D01*
X350253Y390524D01*
X350253Y388251D01*
X351388Y384842D01*
X353662Y382569D01*
X357070Y381433D01*
X360479Y381433D01*
X363888Y382569D01*
X365024Y383705D01*
X366162Y385978D01*
X-576247Y-202214D02*
G01*
X-555581Y-190282D01*
X-576247Y-202214D02*
G01*
X-571134Y-211071D01*
X-568445Y-213455D01*
X-566893Y-213871D01*
X-564355Y-213719D01*
X-562388Y-212582D01*
X-560987Y-210462D01*
X-560572Y-208909D01*
X-561292Y-205389D01*
X-566405Y-196532D01*
X-562429Y-203421D02*
G01*
X-547626Y-204059D01*
X-563406Y-224455D02*
G01*
X-557156Y-235280D01*
X-552692Y-224830D01*
X-550987Y-227782D01*
X-548868Y-229182D01*
X-547314Y-229598D01*
X-543795Y-228878D01*
X-541827Y-227741D01*
X-539441Y-225053D01*
X-538611Y-221948D01*
X-539331Y-218428D01*
X-541035Y-215475D01*
X-543724Y-213091D01*
X-545276Y-212675D01*
X-547812Y-212827D01*
D10*
X-389200Y-368200D02*
G01*
X-432100Y-368200D01*
X-432100Y-368200D02*
G01*
X-432100Y-343700D01*
X-397399Y-330199D02*
G01*
X-395299Y-326100D01*
X-389200Y-319900D01*
X-432100Y-319900D01*
D11*
X-493599Y351426D02*
G01*
X-493599Y327563D01*
X-493599Y327563D02*
G01*
X-507236Y327563D01*
X-515873Y345744D02*
G01*
X-515873Y346881D01*
X-517008Y349154D01*
X-518145Y350290D01*
X-520417Y351426D01*
X-524964Y351426D01*
X-527236Y350290D01*
X-528373Y349154D01*
X-529508Y346881D01*
X-529508Y344608D01*
X-528373Y342335D01*
X-526099Y338926D01*
X-514736Y327563D01*
X-530645Y327563D01*
X-232899Y-256273D02*
G01*
X-232899Y-280136D01*
X-232899Y-256273D02*
G01*
X-243127Y-256273D01*
X-246535Y-257409D01*
X-247672Y-258545D01*
X-248809Y-260818D01*
X-248809Y-263091D01*
X-247672Y-265364D01*
X-246535Y-266500D01*
X-243127Y-267636D01*
X-232899Y-267636D01*
X-240855Y-267636D02*
G01*
X-248809Y-280136D01*
X-256309Y-260818D02*
G01*
X-258581Y-259682D01*
X-261990Y-256273D01*
X-261990Y-280136D01*
X-280855Y-256273D02*
G01*
X-269490Y-272182D01*
X-286535Y-272182D01*
X-280855Y-256273D02*
G01*
X-280855Y-280136D01*
X263562Y-191738D02*
G01*
X280435Y-174864D01*
X263562Y-191738D02*
G01*
X270793Y-198970D01*
X274008Y-200577D01*
X275614Y-200577D01*
X278024Y-199774D01*
X279632Y-198167D01*
X280435Y-195756D01*
X280435Y-194149D01*
X278828Y-190935D01*
X271597Y-183703D01*
X277222Y-189328D02*
G01*
X291684Y-186114D01*
X291364Y-219541D02*
G01*
X300203Y-194631D01*
X280114Y-208291D02*
G01*
X291364Y-219541D01*
X279238Y-218462D02*
G01*
X262363Y-235336D01*
X279238Y-218462D02*
G01*
X272007Y-211230D01*
X268792Y-209623D01*
X267184Y-209623D01*
X264774Y-210426D01*
X263167Y-212033D01*
X262363Y-214444D01*
X262363Y-216051D01*
X263971Y-219265D01*
X271203Y-226497D01*
X265578Y-220872D02*
G01*
X251114Y-224086D01*
X259471Y-205123D02*
G01*
X258667Y-202712D01*
X258667Y-197891D01*
X241793Y-214765D01*
X242115Y-181339D02*
G01*
X233275Y-206248D01*
X253365Y-192588D02*
G01*
X242115Y-181339D01*
X117280Y-41667D02*
G01*
X117280Y-17804D01*
X117280Y-41667D02*
G01*
X127506Y-41667D01*
X130915Y-40531D01*
X132052Y-39395D01*
X133189Y-37122D01*
X133189Y-34849D01*
X132052Y-32576D01*
X130915Y-31440D01*
X127506Y-30304D01*
X117280Y-30304D01*
X125235Y-30304D02*
G01*
X133189Y-17804D01*
X141824Y-35985D02*
G01*
X141824Y-37122D01*
X142961Y-39395D01*
X144098Y-40531D01*
X146370Y-41667D01*
X150915Y-41667D01*
X153189Y-40531D01*
X154324Y-39395D01*
X155461Y-37122D01*
X155461Y-34849D01*
X154324Y-32576D01*
X152052Y-29167D01*
X140689Y-17804D01*
X156598Y-17804D01*
X425857Y142432D02*
G01*
X428585Y141068D01*
X431313Y138341D01*
X432676Y135614D01*
X434040Y131523D01*
X434040Y124704D01*
X432676Y120614D01*
X431313Y117886D01*
X428585Y115159D01*
X425857Y113795D01*
X420403Y113795D01*
X417676Y115159D01*
X414948Y117886D01*
X413585Y120614D01*
X412222Y124704D01*
X412222Y131523D01*
X413585Y135614D01*
X414948Y138341D01*
X417676Y141068D01*
X420403Y142432D01*
X425857Y142432D01*
X421766Y119250D02*
G01*
X413585Y111068D01*
X401858Y135614D02*
G01*
X401858Y136977D01*
X400495Y139704D01*
X399130Y141068D01*
X396404Y142432D01*
X390949Y142432D01*
X388221Y141068D01*
X386858Y139704D01*
X385495Y136977D01*
X385495Y134250D01*
X386858Y131523D01*
X389584Y127432D01*
X403221Y113795D01*
X384130Y113795D01*
X47669Y-373163D02*
G01*
X47669Y-397026D01*
X47669Y-373163D02*
G01*
X37443Y-373163D01*
X34034Y-374299D01*
X32897Y-375435D01*
X31760Y-377708D01*
X31760Y-379981D01*
X32897Y-382254D01*
X34034Y-383390D01*
X37443Y-384526D01*
X47669Y-384526D01*
X39714Y-384526D02*
G01*
X31760Y-397026D01*
X10625Y-376572D02*
G01*
X11760Y-374299D01*
X15169Y-373163D01*
X17443Y-373163D01*
X20852Y-374299D01*
X23125Y-377708D01*
X24260Y-383390D01*
X24260Y-389072D01*
X23125Y-393617D01*
X20852Y-395890D01*
X17443Y-397026D01*
X16306Y-397026D01*
X12897Y-395890D01*
X10625Y-393617D01*
X9488Y-390208D01*
X9488Y-389072D01*
X10625Y-385663D01*
X12897Y-383390D01*
X16306Y-382254D01*
X17443Y-382254D01*
X20852Y-383390D01*
X23125Y-385663D01*
X24260Y-389072D01*
X-99544Y-133355D02*
G01*
X-98409Y-131082D01*
X-96135Y-128809D01*
X-93864Y-127673D01*
X-89318Y-127673D01*
X-87044Y-128809D01*
X-84772Y-131082D01*
X-83635Y-133355D01*
X-82500Y-136764D01*
X-82500Y-142445D01*
X-83635Y-145855D01*
X-84772Y-148127D01*
X-87044Y-150400D01*
X-89318Y-151536D01*
X-93864Y-151536D01*
X-96135Y-150400D01*
X-98409Y-148127D01*
X-99544Y-145855D01*
X-108181Y-133355D02*
G01*
X-108181Y-132218D01*
X-109318Y-129945D01*
X-110455Y-128809D01*
X-112726Y-127673D01*
X-117272Y-127673D01*
X-119544Y-128809D01*
X-120681Y-129945D01*
X-121818Y-132218D01*
X-121818Y-134491D01*
X-120681Y-136764D01*
X-118409Y-140173D01*
X-107044Y-151536D01*
X-122955Y-151536D01*
X-106544Y-578555D02*
G01*
X-105408Y-576282D01*
X-103136Y-574009D01*
X-100864Y-572873D01*
X-96318Y-572873D01*
X-94044Y-574009D01*
X-91773Y-576282D01*
X-90636Y-578555D01*
X-89499Y-581964D01*
X-89499Y-587645D01*
X-90636Y-591055D01*
X-91773Y-593327D01*
X-94044Y-595600D01*
X-96318Y-596736D01*
X-100864Y-596736D01*
X-103136Y-595600D01*
X-105408Y-593327D01*
X-106544Y-591055D01*
X-114044Y-577418D02*
G01*
X-116318Y-576282D01*
X-119727Y-572873D01*
X-119727Y-596736D01*
X-129499Y-572873D02*
G01*
X-141999Y-572873D01*
X-135181Y-581964D01*
X-138590Y-581964D01*
X-140864Y-583100D01*
X-141999Y-584236D01*
X-143136Y-587645D01*
X-143136Y-589918D01*
X-141999Y-593327D01*
X-139727Y-595600D01*
X-136318Y-596736D01*
X-132908Y-596736D01*
X-129499Y-595600D01*
X-128364Y-594464D01*
X-127227Y-592191D01*
X-39753Y-473970D02*
G01*
X-56797Y-473970D01*
X-60207Y-472834D01*
X-62479Y-470561D01*
X-63616Y-467152D01*
X-63616Y-464879D01*
X-62479Y-461470D01*
X-60207Y-459197D01*
X-56797Y-458061D01*
X-39753Y-458061D01*
X-44297Y-450561D02*
G01*
X-43162Y-448288D01*
X-39753Y-444879D01*
X-63616Y-444879D01*
X-39753Y-430561D02*
G01*
X-40888Y-433970D01*
X-44297Y-436243D01*
X-49979Y-437379D01*
X-53388Y-437379D01*
X-59071Y-436243D01*
X-62479Y-433970D01*
X-63616Y-430561D01*
X-63616Y-428288D01*
X-62479Y-424879D01*
X-59071Y-422606D01*
X-53388Y-421470D01*
X-49979Y-421470D01*
X-44297Y-422606D01*
X-40888Y-424879D01*
X-39753Y-428288D01*
X-39753Y-430561D01*
X175343Y404391D02*
G01*
X176478Y406664D01*
X178752Y408936D01*
X181024Y410073D01*
X184434Y411209D01*
X190114Y411209D01*
X193524Y410073D01*
X195797Y408936D01*
X198069Y406664D01*
X199206Y404391D01*
X199206Y399845D01*
X198069Y397573D01*
X195797Y395300D01*
X193524Y394164D01*
X190114Y393027D01*
X184434Y393027D01*
X181024Y394164D01*
X178752Y395300D01*
X176478Y397573D01*
X175343Y399845D01*
X175343Y404391D01*
X194660Y400982D02*
G01*
X201478Y394164D01*
X179888Y385527D02*
G01*
X178752Y383254D01*
X175343Y379845D01*
X199206Y379845D01*
X-508945Y291944D02*
G01*
X-507808Y294217D01*
X-505536Y296490D01*
X-503263Y297626D01*
X-498717Y297626D01*
X-496445Y296490D01*
X-494173Y294217D01*
X-493036Y291944D01*
X-491899Y288535D01*
X-491899Y282854D01*
X-493036Y279444D01*
X-494173Y277172D01*
X-496445Y274899D01*
X-498717Y273763D01*
X-503263Y273763D01*
X-505536Y274899D01*
X-507808Y277172D01*
X-508945Y279444D01*
X-532354Y297626D02*
G01*
X-520991Y273763D01*
X-516445Y297626D02*
G01*
X-532354Y297626D01*
X-370045Y-243755D02*
G01*
X-368909Y-241482D01*
X-366635Y-239209D01*
X-364363Y-238073D01*
X-359817Y-238073D01*
X-357545Y-239209D01*
X-355272Y-241482D01*
X-354135Y-243755D01*
X-353000Y-247164D01*
X-353000Y-252845D01*
X-354135Y-256255D01*
X-355272Y-258527D01*
X-357545Y-260800D01*
X-359817Y-261936D01*
X-364363Y-261936D01*
X-366635Y-260800D01*
X-368909Y-258527D01*
X-370045Y-256255D01*
X-388909Y-238073D02*
G01*
X-377545Y-253982D01*
X-394591Y-253982D01*
X-388909Y-238073D02*
G01*
X-388909Y-261936D01*
X170299Y-311173D02*
G01*
X170299Y-328218D01*
X169164Y-331627D01*
X166890Y-333900D01*
X163482Y-335036D01*
X161208Y-335036D01*
X157799Y-333900D01*
X155527Y-331627D01*
X154390Y-328218D01*
X154390Y-311173D01*
X135527Y-311173D02*
G01*
X146890Y-327082D01*
X129845Y-327082D01*
X135527Y-311173D02*
G01*
X135527Y-335036D01*
X-316445Y-293855D02*
G01*
X-315308Y-291582D01*
X-313036Y-289309D01*
X-310763Y-288173D01*
X-306217Y-288173D01*
X-303945Y-289309D01*
X-301673Y-291582D01*
X-300536Y-293855D01*
X-299399Y-297264D01*
X-299399Y-302945D01*
X-300536Y-306355D01*
X-301673Y-308627D01*
X-303945Y-310900D01*
X-306217Y-312036D01*
X-310763Y-312036D01*
X-313036Y-310900D01*
X-315308Y-308627D01*
X-316445Y-306355D01*
X-325082Y-293855D02*
G01*
X-325082Y-292717D01*
X-326217Y-290445D01*
X-327354Y-289309D01*
X-329627Y-288173D01*
X-334173Y-288173D01*
X-336445Y-289309D01*
X-337582Y-290445D01*
X-338717Y-292717D01*
X-338717Y-294991D01*
X-337582Y-297264D01*
X-335308Y-300673D01*
X-323945Y-312036D01*
X-339854Y-312036D01*
X-349627Y-288173D02*
G01*
X-362127Y-288173D01*
X-355308Y-297264D01*
X-358717Y-297264D01*
X-360991Y-298400D01*
X-362127Y-299536D01*
X-363263Y-302945D01*
X-363263Y-305217D01*
X-362127Y-308627D01*
X-359854Y-310900D01*
X-356445Y-312036D01*
X-353036Y-312036D01*
X-349627Y-310900D01*
X-348491Y-309764D01*
X-347354Y-307491D01*
D10*
X-134173Y-513582D02*
G01*
X-135308Y-515855D01*
X-137582Y-518127D01*
X-139854Y-519264D01*
X-143263Y-520400D01*
X-148945Y-520400D01*
X-152354Y-519264D01*
X-154627Y-518127D01*
X-156899Y-515855D01*
X-158036Y-513582D01*
X-158036Y-509036D01*
X-156899Y-506764D01*
X-154627Y-504491D01*
X-152354Y-503355D01*
X-148945Y-502218D01*
X-143263Y-502218D01*
X-139854Y-503355D01*
X-137582Y-504491D01*
X-135308Y-506764D01*
X-134173Y-509036D01*
X-134173Y-513582D01*
X-153491Y-510173D02*
G01*
X-160308Y-503355D01*
X-134173Y-492445D02*
G01*
X-134173Y-479945D01*
X-143263Y-486764D01*
X-143263Y-483355D01*
X-144399Y-481082D01*
X-145536Y-479945D01*
X-148945Y-478809D01*
X-151217Y-478809D01*
X-154627Y-479945D01*
X-156899Y-482218D01*
X-158036Y-485627D01*
X-158036Y-489036D01*
X-156899Y-492445D01*
X-155763Y-493582D01*
X-153491Y-494718D01*
X-9318Y-289873D02*
G01*
X-7044Y-291009D01*
X-4772Y-293282D01*
X-3635Y-295555D01*
X-2500Y-298964D01*
X-2500Y-304645D01*
X-3635Y-308055D01*
X-4772Y-310327D01*
X-7044Y-312600D01*
X-9318Y-313736D01*
X-13864Y-313736D01*
X-16135Y-312600D01*
X-18409Y-310327D01*
X-19544Y-308055D01*
X-20681Y-304645D01*
X-20681Y-298964D01*
X-19544Y-295555D01*
X-18409Y-293282D01*
X-16135Y-291009D01*
X-13864Y-289873D01*
X-9318Y-289873D01*
X-12726Y-309191D02*
G01*
X-19544Y-316009D01*
X-39544Y-289873D02*
G01*
X-28181Y-305782D01*
X-45226Y-305782D01*
X-39544Y-289873D02*
G01*
X-39544Y-313736D01*
X-337826Y-378600D02*
G01*
X-320781Y-378600D01*
X-317372Y-379736D01*
X-315100Y-382009D01*
X-313963Y-385418D01*
X-313963Y-387690D01*
X-315100Y-391100D01*
X-317372Y-393373D01*
X-320781Y-394509D01*
X-337826Y-394509D01*
X-337826Y-417918D02*
G01*
X-313963Y-406555D01*
X-337826Y-402009D02*
G01*
X-337826Y-417918D01*
X325174Y-178569D02*
G01*
X294314Y-148768D01*
X325174Y-178569D02*
G01*
X335108Y-168282D01*
X337977Y-162433D01*
X337806Y-156707D01*
X336315Y-152349D01*
X333244Y-146603D01*
X325907Y-139518D01*
X320129Y-136719D01*
X315721Y-135381D01*
X309993Y-135411D01*
X304248Y-138481D01*
X294314Y-148768D01*
X348521Y-142588D02*
G01*
X352880Y-141098D01*
X361575Y-140875D01*
X330715Y-111074D01*
D13*
X-95779Y110333D02*
G01*
X-95779Y117724D01*
X-195779Y110333D02*
G01*
X-195779Y117724D01*
X641700Y428235D02*
G01*
X612016Y409688D01*
X672993Y378153D02*
G01*
X643311Y359606D01*
X672993Y378153D02*
G01*
X641700Y428235D01*
X649443Y349795D02*
G01*
X605887Y419500D01*
X515812Y403245D02*
G01*
X510537Y411689D01*
X544459Y432884D01*
X636844Y290153D02*
G01*
X600623Y267519D01*
X595348Y275962D01*
X493104Y587665D02*
G01*
X470607Y560853D01*
X538344Y549705D02*
G01*
X515847Y522893D01*
X538344Y549705D02*
G01*
X493104Y587665D01*
X524709Y515457D02*
G01*
X461746Y568290D01*
X381102Y524997D02*
G01*
X373476Y531396D01*
X399188Y562039D01*
X531158Y454841D02*
G01*
X503703Y422123D01*
X496078Y428523D01*
X-313047Y400735D02*
G01*
X-313047Y404893D01*
X-313047Y462463D02*
G01*
X-313047Y466621D01*
D10*
X-146628Y-205523D02*
G01*
X-137663Y-205523D01*
X-137663Y-205523D01*
X-137663Y182366D01*
X-137663Y182366D01*
X-146628Y182366D01*
X-532335Y-205523D02*
G01*
X-541301Y-205523D01*
X-541301Y-205523D01*
X-541301Y182366D01*
X-541301Y182366D01*
X-532335Y182366D01*
D14*
X123190Y-515866D02*
G01*
X123190Y-516256D01*
X136184Y-529252D01*
X149963Y-515866D02*
G01*
X149570Y-515866D01*
X136184Y-529252D01*
X149963Y-515866D02*
G01*
X123190Y-515866D01*
X165712Y-515077D02*
G01*
X165712Y-469799D01*
X106652Y-515077D02*
G01*
X106652Y-469799D01*
X165711Y-469799D02*
G01*
X107444Y-469799D01*
X106562Y-530038D02*
G01*
X106562Y-571381D01*
X122314Y-583190D02*
G01*
X118377Y-583190D01*
X106562Y-571381D01*
X149871Y-583190D02*
G01*
X122314Y-583190D01*
X149871Y-583190D02*
G01*
X153814Y-583190D01*
X165622Y-571381D01*
X165622Y-530038D02*
G01*
X165622Y-571381D01*
X136184Y-515866D02*
G01*
X136184Y-529252D01*
D13*
X648437Y-322361D02*
G01*
X467480Y-141405D01*
X218599Y-390286D01*
X399556Y-571242D01*
X648437Y-322361D01*
X613060Y-253015D02*
G01*
X598918Y-238873D01*
X584776Y-253015D01*
X598918Y-267157D01*
X613060Y-253015D01*
X344351Y-521709D02*
G01*
X330209Y-507567D01*
X316068Y-521709D01*
X330209Y-535851D01*
X344351Y-521709D01*
X231922Y-409279D02*
G01*
X217780Y-395137D01*
X203638Y-409279D01*
X217780Y-423421D01*
X231922Y-409279D01*
X500622Y-140578D02*
G01*
X486481Y-126436D01*
X472339Y-140578D01*
X486481Y-154720D01*
X500622Y-140578D01*
X464567Y-245944D02*
G01*
X429211Y-210588D01*
X386786Y-253015D01*
X422141Y-288371D01*
X464567Y-245944D01*
X365573Y-344939D02*
G01*
X330217Y-309583D01*
X287790Y-352010D01*
X323145Y-387365D01*
X365573Y-344939D01*
D10*
X124570Y-200812D02*
G01*
X124570Y-169706D01*
X163829Y-169706D02*
G01*
X163829Y-200812D01*
X157830Y-206811D02*
G01*
X130569Y-206811D01*
X124570Y-120788D02*
G01*
X124570Y-151894D01*
X163829Y-151894D02*
G01*
X163829Y-120788D01*
X157830Y-114788D02*
G01*
X130569Y-114788D01*
X-104122Y63951D02*
G01*
X-122056Y63951D01*
X-122056Y94707D01*
X-104122Y94707D01*
X-91036Y63951D02*
G01*
X-73103Y63951D01*
X-73103Y94707D01*
X-91036Y94707D01*
X332390Y188323D02*
G01*
X332390Y160054D01*
X371649Y160054D01*
X371649Y188323D01*
X332390Y206135D02*
G01*
X332390Y234404D01*
X371649Y234404D01*
X371649Y206135D01*
X267614Y215459D02*
G01*
X239345Y215459D01*
X239345Y176199D01*
X267614Y176199D01*
X285425Y215459D02*
G01*
X313694Y215459D01*
X313694Y176199D01*
X285425Y176199D01*
X486725Y262399D02*
G01*
X514994Y262399D01*
X514994Y301659D01*
X486725Y301659D01*
X468914Y262399D02*
G01*
X440645Y262399D01*
X440645Y301659D01*
X468914Y301659D01*
X-173357Y273872D02*
G01*
X-173357Y291806D01*
X-142601Y291806D01*
X-142601Y273872D01*
X-173357Y260786D02*
G01*
X-173357Y242853D01*
X-142601Y242853D01*
X-142601Y260786D01*
X-37349Y373735D02*
G01*
X-37349Y402004D01*
X-76610Y402004D01*
X-76610Y373735D01*
X-37349Y355924D02*
G01*
X-37349Y327654D01*
X-76610Y327654D01*
X-76610Y355924D01*
X-16622Y191351D02*
G01*
X-34556Y191351D01*
X-34556Y222107D01*
X-16622Y222107D01*
X-3536Y191351D02*
G01*
X14396Y191351D01*
X14396Y222107D01*
X-3536Y222107D01*
X312989Y376323D02*
G01*
X312989Y348054D01*
X352250Y348054D01*
X352250Y376323D01*
X312989Y394135D02*
G01*
X312989Y422404D01*
X352250Y422404D01*
X352250Y394135D01*
X-13145Y-56481D02*
G01*
X15123Y-56481D01*
X15123Y-17221D01*
X-13145Y-17221D01*
X-30956Y-56481D02*
G01*
X-59225Y-56481D01*
X-59225Y-17221D01*
X-30956Y-17221D01*
X119405Y-442530D02*
G01*
X147674Y-442530D01*
X147674Y-403270D01*
X119405Y-403270D01*
X101594Y-442530D02*
G01*
X73325Y-442530D01*
X73325Y-403270D01*
X101594Y-403270D01*
X390006Y333969D02*
G01*
X418275Y333969D01*
X418275Y373229D01*
X390006Y373229D01*
X372193Y333969D02*
G01*
X343924Y333969D01*
X343924Y373229D01*
X372193Y373229D01*
X-531030Y-288206D02*
G01*
X-531030Y-316475D01*
X-491769Y-316475D01*
X-491769Y-288206D01*
X-531030Y-270394D02*
G01*
X-531030Y-242125D01*
X-491769Y-242125D01*
X-491769Y-270394D01*
X-480478Y-333157D02*
G01*
X-480478Y-318650D01*
X-474477Y-312651D01*
X-455721Y-312651D01*
X-449722Y-318650D01*
X-449722Y-333157D01*
X-480478Y-346243D02*
G01*
X-480478Y-360749D01*
X-474477Y-366749D01*
X-455721Y-366749D01*
X-449722Y-360749D01*
X-449722Y-346243D01*
X-449857Y357577D02*
G01*
X-435351Y357577D01*
X-429350Y351577D01*
X-429350Y332821D01*
X-435351Y326821D01*
X-449857Y326821D01*
X-462942Y357577D02*
G01*
X-477448Y357577D01*
X-483449Y351577D01*
X-483449Y332821D01*
X-477448Y326821D01*
X-462942Y326821D01*
X-224877Y-262057D02*
G01*
X-224877Y-244123D01*
X-194121Y-244123D01*
X-194121Y-262057D01*
X-224877Y-275143D02*
G01*
X-224877Y-293077D01*
X-194121Y-293077D01*
X-194121Y-275143D01*
X312253Y-140300D02*
G01*
X324934Y-127618D01*
X346682Y-149366D01*
X333999Y-162047D01*
X303000Y-149553D02*
G01*
X290317Y-162234D01*
X312066Y-183982D01*
X324746Y-171300D01*
X212700Y-244048D02*
G01*
X200018Y-231366D01*
X221765Y-209618D01*
X234447Y-222300D01*
X221953Y-253300D02*
G01*
X234633Y-265982D01*
X256382Y-244234D01*
X243699Y-231552D01*
X75155Y-57281D02*
G01*
X103424Y-57281D01*
X103424Y-18021D01*
X75155Y-18021D01*
X57343Y-57281D02*
G01*
X29074Y-57281D01*
X29074Y-18021D01*
X57343Y-18021D01*
X513287Y209890D02*
G01*
X513287Y152708D01*
X472672Y152708D01*
X393113Y209890D02*
G01*
X393113Y152708D01*
X433728Y152708D01*
X471129Y209890D02*
G01*
X435271Y209890D01*
X32357Y-434978D02*
G01*
X14422Y-434978D01*
X14422Y-404222D01*
X32357Y-404222D01*
X45443Y-434978D02*
G01*
X63377Y-434978D01*
X63377Y-404222D01*
X45443Y-404222D01*
X39412Y-146630D02*
G01*
X8305Y-146630D01*
X8306Y-107370D02*
G01*
X39412Y-107370D01*
X45411Y-113369D02*
G01*
X45411Y-140630D01*
X-40612Y-146630D02*
G01*
X-9506Y-146630D01*
X-9504Y-107370D02*
G01*
X-40612Y-107370D01*
X-46611Y-113369D02*
G01*
X-46611Y-140630D01*
X-160670Y-506688D02*
G01*
X-160670Y-537794D01*
X-199930Y-537794D02*
G01*
X-199930Y-506688D01*
X-193930Y-500688D02*
G01*
X-166670Y-500688D01*
X-160670Y-586712D02*
G01*
X-160670Y-555606D01*
X-199930Y-555606D02*
G01*
X-199930Y-586712D01*
X-193930Y-592712D02*
G01*
X-166670Y-592712D01*
D13*
X-41319Y-484567D02*
G01*
X-41319Y-555434D01*
X80727Y-484567D02*
G01*
X80727Y-555434D01*
D10*
X265690Y284612D02*
G01*
X208509Y284612D01*
X208509Y325227D01*
X265690Y404786D02*
G01*
X208509Y404786D01*
X208509Y364171D01*
X265690Y326770D02*
G01*
X265690Y362628D01*
X-453122Y309548D02*
G01*
X-453122Y295042D01*
X-483877Y295042D02*
G01*
X-483877Y309548D01*
X-477878Y315548D02*
G01*
X-459121Y315548D01*
X-453122Y267450D02*
G01*
X-453122Y281956D01*
X-483877Y281956D02*
G01*
X-483877Y267450D01*
X-477878Y261450D02*
G01*
X-459121Y261450D01*
X-475312Y-262070D02*
G01*
X-444206Y-262070D01*
X-444206Y-301330D02*
G01*
X-475312Y-301330D01*
X-481311Y-295330D02*
G01*
X-481311Y-268070D01*
X-395288Y-262070D02*
G01*
X-426394Y-262070D01*
X-426394Y-301330D02*
G01*
X-395288Y-301330D01*
X-389287Y-295330D02*
G01*
X-389287Y-268070D01*
X5542Y-160713D02*
G01*
X109966Y-160713D01*
X109966Y-205942D01*
X5542Y-343877D02*
G01*
X109966Y-343877D01*
X109966Y-298648D01*
X-310187Y-363830D02*
G01*
X-341293Y-363830D01*
X-341293Y-324570D02*
G01*
X-310187Y-324570D01*
X-304188Y-330570D02*
G01*
X-304188Y-357830D01*
X-390212Y-363830D02*
G01*
X-359106Y-363830D01*
X-359106Y-324570D02*
G01*
X-390212Y-324570D01*
X-396211Y-330570D02*
G01*
X-396211Y-357830D01*
X-172613Y-456509D02*
G01*
X-172613Y-513691D01*
X-213227Y-513691D01*
X-292786Y-456509D02*
G01*
X-292786Y-513691D01*
X-252172Y-513691D01*
X-214771Y-456509D02*
G01*
X-250628Y-456509D01*
X-131590Y-316512D02*
G01*
X-74408Y-316512D01*
X-74408Y-357128D01*
X-131590Y-436687D02*
G01*
X-74408Y-436687D01*
X-74408Y-396072D01*
X-131590Y-358671D02*
G01*
X-131590Y-394529D01*
X-232969Y-335694D02*
G01*
X-232969Y-307425D01*
X-272229Y-307425D01*
X-272229Y-335694D01*
X-232969Y-353506D02*
G01*
X-232969Y-381775D01*
X-272229Y-381775D01*
X-272229Y-353506D01*
D15*
X238289Y-172589D02*
G01*
X229832Y-181346D01*
X194102Y-129917D02*
G01*
X185645Y-138674D01*
X191360Y-132756D02*
G01*
X185132Y-126743D01*
X241774Y-181440D02*
G01*
X235547Y-175428D01*
X232804Y-178268D02*
G01*
X239031Y-184281D01*
X182390Y-129583D02*
G01*
X188617Y-135596D01*
X194102Y-129917D02*
G01*
X187875Y-123904D01*
X244516Y-178602D02*
G01*
X238289Y-172589D01*
X331023Y-76560D02*
G01*
X337250Y-82573D01*
X320839Y-99565D01*
X185645Y-138674D02*
G01*
X179418Y-132661D01*
X275138Y-33540D01*
X280609Y-27876D01*
X286835Y-33889D01*
X326310Y-93902D02*
G01*
X236059Y-187359D01*
X229832Y-181346D01*
D13*
X245807Y-120588D02*
G01*
X285104Y-102929D01*
X285104Y-102929D02*
G01*
X262084Y-80700D01*
X262084Y-80700D02*
G01*
X245807Y-120588D01*
D10*
G75*
G01*
X163830Y-200812D02*
G02*
X157830Y-206812I-6000J0D01*
G75*
G01*
X130570Y-206812D02*
G02*
X124570Y-200812I0J6000D01*
G75*
G01*
X163830Y-120788D02*
G03*
X157830Y-114788I-6000J0D01*
G75*
G01*
X130570Y-114788D02*
G03*
X124570Y-120788I0J-6000D01*
G75*
G01*
X39412Y-107370D02*
G02*
X45412Y-113370I0J-6000D01*
G75*
G01*
X45412Y-140630D02*
G02*
X39412Y-146630I-6000J0D01*
G75*
G01*
X-40612Y-107370D02*
G03*
X-46612Y-113370I0J-6000D01*
G75*
G01*
X-46612Y-140630D02*
G03*
X-40612Y-146630I6000J0D01*
G75*
G01*
X-199930Y-506688D02*
G02*
X-193930Y-500688I6000J0D01*
G75*
G01*
X-166670Y-500688D02*
G02*
X-160670Y-506688I0J-6000D01*
G75*
G01*
X-199930Y-586712D02*
G03*
X-193930Y-592712I6000J0D01*
G75*
G01*
X-166670Y-592712D02*
G03*
X-160670Y-586712I0J6000D01*
G75*
G01*
X-483878Y309549D02*
G02*
X-477878Y315549I6000J0D01*
G75*
G01*
X-459122Y315549D02*
G02*
X-453122Y309549I0J-6000D01*
G75*
G01*
X-483878Y267451D02*
G03*
X-477878Y261451I6000J0D01*
G75*
G01*
X-459122Y261451D02*
G03*
X-453122Y267451I0J6000D01*
G75*
G01*
X-475312Y-301330D02*
G02*
X-481312Y-295330I0J6000D01*
G75*
G01*
X-481312Y-268070D02*
G02*
X-475312Y-262070I6000J0D01*
G75*
G01*
X-395288Y-301330D02*
G03*
X-389288Y-295330I0J6000D01*
G75*
G01*
X-389288Y-268070D02*
G03*
X-395288Y-262070I-6000J0D01*
G75*
G01*
X-310188Y-324570D02*
G02*
X-304188Y-330570I0J-6000D01*
G75*
G01*
X-304188Y-357830D02*
G02*
X-310188Y-363830I-6000J0D01*
G75*
G01*
X-390212Y-324570D02*
G03*
X-396212Y-330570I0J-6000D01*
G75*
G01*
X-396212Y-357830D02*
G03*
X-390212Y-363830I6000J0D01*
D13*
G75*
G01
X-185780Y174040D02*
G03X-185780Y174040I-5000J0D01*
G75*
G01
X266740Y424280D02*
G03X266740Y424280I-5000J0D01*
G75*
G01
X-334700Y433680D02*
G03X-334700Y433680I-27560J0D01*
G75*
G01
X-355430Y433680D02*
G03X-355430Y433680I-8800J0D01*
D16*
G75*
G01
X-161330Y-248980D02*
G03X-161330Y-248980I-4920J0D01*
D13*
G75*
G01
X444190Y-132810D02*
G03X444190Y-132810I-7910J0D01*
G75*
G01
X546500Y250610D02*
G03X546500Y250610I-5000J0D01*
G75*
G01
X89700Y-575000D02*
G03X89700Y-575000I-5000J0D01*
M02*
