G04 Layer: BottomSolderMaskLayer*
G04 EasyEDA v6.5.22, 2023-02-04 18:08:32*
G04 803b958340a141a7ad8343e076188523,c17a8ced473b4d519dda31697e0e54b6,10*
G04 Gerber Generator version 0.2*
G04 Scale: 100 percent, Rotated: No, Reflected: No *
G04 Dimensions in inches *
G04 leading zeros omitted , absolute positions ,3 integer and 6 decimal *
%FSLAX36Y36*%
%MOIN*%

%AMMACRO1*1,1,$1,$2,$3*1,1,$1,$4,$5*1,1,$1,0-$2,0-$3*1,1,$1,0-$4,0-$5*20,1,$1,$2,$3,$4,$5,0*20,1,$1,$4,$5,0-$2,0-$3,0*20,1,$1,0-$2,0-$3,0-$4,0-$5,0*20,1,$1,0-$4,0-$5,$2,$3,0*4,1,4,$2,$3,$4,$5,0-$2,0-$3,0-$4,0-$5,$2,$3,0*%
%AMMACRO2*1,1,$1,$2,$3*1,1,$1,$4,$5*20,1,$1,$2,$3,$4,$5,0*%
%ADD10MACRO1,0.004X0.0059X0.0256X-0.0059X0.0256*%
%ADD11MACRO1,0.004X0.0257X-0.0002X0.0111X0.0232*%
%ADD12MACRO1,0.004X0.033X-0.0119X0.0038X0.0348*%
%ADD13MACRO1,0.004X0.032X-0.0067X0.008X0.0317*%
%ADD14C,0.0354*%
%ADD15MACRO1,0.004X0.0245X0.0077X0.0034X0.0254*%
%ADD16MACRO1,0.004X0.035X-0.0011X-0.0072X0.0343*%
%ADD17MACRO1,0.004X0.0325X0.0035X-0.0022X0.0326*%
%ADD18MACRO1,0.004X-0.0433X-0.0217X0.0433X-0.0217*%
%ADD19MACRO1,0.004X0.0197X-0.0207X0.0197X0.0207*%
%ADD20O,0.031559X0.07380300000000001*%
%ADD21MACRO1,0.004X-0.0157X-0.0157X0.0157X-0.0157*%
%ADD22MACRO1,0.004X-0.0111X0.0195X-0.0195X0.0111*%
%ADD23MACRO2,0.0512X-0.0139X0.0139X0.0139X-0.0139*%
%ADD24MACRO1,0.004X0.0106X0.0156X-0.0106X0.0156*%
%ADD25MACRO1,0.004X0.0106X-0.0156X-0.0106X-0.0156*%
%ADD26MACRO1,0.004X0.006X-0.0064X0.006X0.0064*%
%ADD27MACRO1,0.004X-0.006X-0.0064X-0.006X0.0064*%
%ADD28MACRO1,0.004X-0.0106X-0.0111X0.0106X-0.0111*%
%ADD29MACRO1,0.004X-0.0106X0.0111X0.0106X0.0111*%
%ADD30MACRO1,0.004X-0.0111X0.0106X-0.0111X-0.0106*%
%ADD31MACRO1,0.004X0.0111X0.0106X0.0111X-0.0106*%
%ADD32MACRO1,0.004X0.0111X-0.0106X0.0111X0.0106*%
%ADD33MACRO1,0.004X-0.0111X-0.0106X-0.0111X0.0106*%
%ADD34MACRO1,0.004X-0.0064X-0.006X0.0064X-0.006*%
%ADD35MACRO1,0.004X-0.0064X0.006X0.0064X0.006*%
%ADD36MACRO1,0.004X0.0106X0.0111X-0.0106X0.0111*%
%ADD37MACRO1,0.004X0.0106X-0.0111X-0.0106X-0.0111*%
%ADD38MACRO1,0.0039X-0.0394X0.0059X-0.0394X-0.0059*%
%ADD39MACRO1,0.004X-0.0064X-0.0073X0.0064X-0.0073*%
%ADD40MACRO1,0.004X-0.0064X0.0073X0.0064X0.0073*%
%ADD41MACRO1,0.004X-0.0073X0.0064X-0.0073X-0.0064*%
%ADD42MACRO1,0.004X0.0073X0.0064X0.0073X-0.0064*%
%ADD43MACRO1,0.004X-0.0087X0.0003X0.0003X-0.0087*%
%ADD44MACRO1,0.004X-0.0003X0.0087X0.0087X-0.0003*%
%ADD45MACRO1,0.004X-0.0003X-0.0087X0.0087X0.0003*%
%ADD46MACRO1,0.004X-0.0087X-0.0003X0.0003X0.0087*%
%ADD47MACRO1,0.004X0.0138X-0.0246X0.0138X0.0246*%
%ADD48MACRO1,0.004X-0.0156X0.0106X-0.0156X-0.0106*%
%ADD49MACRO1,0.004X0.0156X0.0106X0.0156X-0.0106*%
%ADD50MACRO1,0.004X-0.0106X-0.0156X0.0106X-0.0156*%
%ADD51MACRO1,0.004X-0.0106X0.0156X0.0106X0.0156*%
%ADD52MACRO1,0.004X-0.0108X0.0197X-0.0108X-0.0197*%
%ADD53MACRO1,0.004X-0.0246X-0.0138X0.0246X-0.0138*%
%ADD54MACRO1,0.004X0.0156X-0.0106X0.0156X0.0106*%
%ADD55MACRO1,0.004X-0.0156X-0.0106X-0.0156X0.0106*%
%ADD56MACRO1,0.004X-0.031X-0.0132X-0.031X0.0132*%
%ADD57MACRO1,0.004X0.0246X0.0138X-0.0246X0.0138*%
%ADD58MACRO1,0.004X0.0006X-0.0334X0.0334X0.0006*%
%ADD59MACRO1,0.004X-0.0335X-0.0335X-0.0335X0.0335*%
%ADD60C,0.0709*%
%ADD61C,0.0148*%

%LPD*%
D10*
G01*
X91599Y369399D03*
G01*
X71599Y369399D03*
G01*
X31599Y369399D03*
G01*
X11599Y369399D03*
G01*
X51599Y369399D03*
D11*
G01*
X592104Y300915D03*
G01*
X536818Y389393D03*
D12*
G01*
X559453Y342024D03*
D13*
G01*
X658147Y317811D03*
G01*
X580954Y441345D03*
D14*
G01*
X648389Y311719D03*
G01*
X571199Y435249D03*
D15*
G01*
X485282Y451251D03*
G01*
X405361Y518313D03*
D16*
G01*
X441525Y480258D03*
D17*
G01*
X542872Y487728D03*
G01*
X431283Y581362D03*
D14*
G01*
X535479Y478919D03*
G01*
X423890Y572549D03*
D18*
G01*
X-361276Y374623D03*
D19*
G01*
X-305178Y433679D03*
D18*
G01*
X-361276Y492734D03*
D19*
G01*
X-417380Y433679D03*
D20*
G01*
X-166250Y-201010D03*
G01*
X-209560Y-201010D03*
G01*
X-252870Y-201010D03*
G01*
X-296170Y-201010D03*
G01*
X-339480Y-201010D03*
G01*
X-382789Y-201010D03*
G01*
X-426090Y-201010D03*
G01*
X-469399Y-201010D03*
G01*
X-512709Y-201010D03*
G01*
X-512709Y177849D03*
G01*
X-469399Y177849D03*
G01*
X-426090Y177849D03*
G01*
X-382789Y177849D03*
G01*
X-339480Y177849D03*
G01*
X-296170Y177849D03*
G01*
X-252870Y177849D03*
G01*
X-209560Y177849D03*
G01*
X-166250Y177849D03*
D21*
G01*
X135790Y-556022D03*
G01*
X136066Y-493069D03*
D22*
G01*
X391204Y-172072D03*
G01*
X382860Y-180416D03*
G01*
X368930Y-194346D03*
G01*
X355035Y-208241D03*
G01*
X341140Y-222136D03*
G01*
X327210Y-236066D03*
G01*
X313280Y-249996D03*
G01*
X299350Y-263926D03*
G01*
X285420Y-277856D03*
G01*
X271490Y-291786D03*
G01*
X257595Y-305680D03*
G01*
X249217Y-314060D03*
G01*
X405134Y-158142D03*
G01*
X413477Y-149799D03*
G01*
X235357Y-327919D03*
G01*
X226977Y-336298D03*
D23*
G01*
X508719Y-118620D03*
G01*
X620070Y-229980D03*
G01*
X195819Y-431520D03*
G01*
X307170Y-542880D03*
D24*
G01*
X144200Y-182259D03*
D25*
G01*
X144200Y-139341D03*
D26*
G01*
X-107089Y79329D03*
D27*
G01*
X-88069Y79329D03*
D28*
G01*
X352020Y214270D03*
D29*
G01*
X352020Y180189D03*
D30*
G01*
X293560Y195829D03*
D31*
G01*
X259479Y195829D03*
D32*
G01*
X460779Y282029D03*
D33*
G01*
X494860Y282029D03*
D34*
G01*
X-157980Y276839D03*
D35*
G01*
X-157980Y257819D03*
D36*
G01*
X-56979Y347789D03*
D37*
G01*
X-56979Y381870D03*
D26*
G01*
X-19589Y206729D03*
D27*
G01*
X-569Y206729D03*
D28*
G01*
X332619Y402270D03*
D29*
G01*
X332619Y368189D03*
D38*
G01*
X561500Y229634D03*
G01*
X561500Y202074D03*
G01*
X561500Y146954D03*
G01*
X561500Y174514D03*
G01*
X561500Y119394D03*
G01*
X561500Y91834D03*
G01*
X561500Y-73515D03*
G01*
X561500Y64274D03*
G01*
X561500Y36714D03*
G01*
X561500Y9164D03*
G01*
X561500Y-18395D03*
G01*
X561500Y-45955D03*
D32*
G01*
X-39091Y-36851D03*
D33*
G01*
X-5010Y-36851D03*
D32*
G01*
X93459Y-422900D03*
D33*
G01*
X127540Y-422900D03*
D32*
G01*
X364059Y353599D03*
D33*
G01*
X398140Y353599D03*
D28*
G01*
X-511399Y-262259D03*
D29*
G01*
X-511399Y-296340D03*
D39*
G01*
X-465099Y-328904D03*
D40*
G01*
X-465099Y-350496D03*
D41*
G01*
X-445604Y342199D03*
D42*
G01*
X-467195Y342199D03*
D34*
G01*
X-209500Y-259090D03*
D35*
G01*
X-209500Y-278110D03*
D43*
G01*
X325224Y-149075D03*
D44*
G01*
X311775Y-162524D03*
D45*
G01*
X221475Y-231075D03*
D46*
G01*
X234924Y-244524D03*
D32*
G01*
X49208Y-37651D03*
D33*
G01*
X83289Y-37651D03*
D47*
G01*
X415799Y220669D03*
G01*
X490599Y220669D03*
G01*
X453199Y141929D03*
D26*
G01*
X29390Y-419600D03*
D27*
G01*
X48410Y-419600D03*
D48*
G01*
X20859Y-127000D03*
D49*
G01*
X-22058Y-127000D03*
D50*
G01*
X-180299Y-525241D03*
D51*
G01*
X-180299Y-568159D03*
D52*
G01*
X-17703Y-575119D03*
G01*
X19697Y-575119D03*
G01*
X57097Y-575119D03*
G01*
X57097Y-464879D03*
G01*
X19697Y-464879D03*
G01*
X-17703Y-464879D03*
D53*
G01*
X276469Y382099D03*
G01*
X276469Y307300D03*
G01*
X197730Y344700D03*
D39*
G01*
X-468499Y299295D03*
D40*
G01*
X-468499Y277703D03*
D54*
G01*
X-456759Y-281700D03*
D55*
G01*
X-413841Y-281700D03*
D56*
G01*
X-20198Y-311350D03*
G01*
X-20198Y-193240D03*
G36*
X48220Y-291670D02*
G01*
X44620Y-291270D01*
X42719Y-290970D01*
X39120Y-290170D01*
X37420Y-289570D01*
X35619Y-288970D01*
X33919Y-288270D01*
X32319Y-287470D01*
X30720Y-286570D01*
X27520Y-284570D01*
X26019Y-283470D01*
X24620Y-282370D01*
X23220Y-281070D01*
X20619Y-278470D01*
X19520Y-277070D01*
X18320Y-275570D01*
X16319Y-272570D01*
X15420Y-270869D01*
X14520Y-269070D01*
X14120Y-267270D01*
X-53180Y-267270D01*
X-53180Y-237370D01*
X14120Y-237370D01*
X14520Y-235470D01*
X15420Y-233670D01*
X16319Y-232070D01*
X17319Y-230570D01*
X18320Y-228970D01*
X19520Y-227570D01*
X20619Y-226170D01*
X21920Y-224770D01*
X23220Y-223470D01*
X26019Y-221070D01*
X27520Y-220070D01*
X29120Y-218970D01*
X32319Y-217170D01*
X33919Y-216370D01*
X35619Y-215670D01*
X37420Y-215070D01*
X39120Y-214470D01*
X40919Y-213970D01*
X42719Y-213670D01*
X44620Y-213369D01*
X46419Y-213070D01*
X48220Y-212970D01*
X124920Y-212970D01*
X126819Y-213070D01*
X132219Y-213970D01*
X134020Y-214470D01*
X135820Y-215070D01*
X137520Y-215670D01*
X139220Y-216370D01*
X140919Y-217170D01*
X144120Y-218970D01*
X145619Y-220070D01*
X147120Y-221070D01*
X149920Y-223470D01*
X151220Y-224770D01*
X152520Y-226170D01*
X153720Y-227570D01*
X154819Y-228970D01*
X155919Y-230570D01*
X156920Y-232070D01*
X157820Y-233670D01*
X159420Y-237070D01*
X160619Y-240470D01*
X161620Y-244070D01*
X162219Y-247670D01*
X162319Y-249570D01*
X162420Y-251370D01*
X162420Y-253270D01*
X162219Y-256870D01*
X161920Y-258770D01*
X161620Y-260570D01*
X160619Y-264170D01*
X159420Y-267570D01*
X158620Y-269270D01*
X157820Y-270869D01*
X156920Y-272570D01*
X155919Y-274070D01*
X153720Y-277070D01*
X152520Y-278470D01*
X149920Y-281070D01*
X148519Y-282370D01*
X147120Y-283470D01*
X145619Y-284570D01*
X144120Y-285570D01*
X142520Y-286570D01*
X140919Y-287470D01*
X139220Y-288270D01*
X137520Y-288970D01*
X135820Y-289570D01*
X134020Y-290170D01*
X130420Y-290970D01*
X128620Y-291270D01*
X126819Y-291470D01*
X124920Y-291670D01*
G37*
D48*
G01*
X-328741Y-344200D03*
D49*
G01*
X-371658Y-344200D03*
D47*
G01*
X-270099Y-445730D03*
G01*
X-195300Y-445730D03*
G01*
X-232700Y-524470D03*
D57*
G01*
X-142369Y-414000D03*
G01*
X-142369Y-339200D03*
G01*
X-63629Y-376600D03*
D36*
G01*
X-252600Y-361640D03*
D37*
G01*
X-252600Y-327559D03*
D58*
G01*
X303459Y-60888D03*
G01*
X215943Y-151514D03*
D59*
G01*
X659220Y-132270D03*
D60*
G01*
X659220Y-32270D03*
G01*
X659220Y67729D03*
G01*
X659220Y167729D03*
M02*
