G04 Layer: TopPasteMaskLayer*
G04 EasyEDA v6.5.22, 2023-02-04 18:08:32*
G04 803b958340a141a7ad8343e076188523,c17a8ced473b4d519dda31697e0e54b6,10*
G04 Gerber Generator version 0.2*
G04 Scale: 100 percent, Rotated: No, Reflected: No *
G04 Dimensions in inches *
G04 leading zeros omitted , absolute positions ,3 integer and 6 decimal *
%FSLAX36Y36*%
%MOIN*%

%AMMACRO1*4,1,4,-0.0079,0.0158,0.0079,0.0158,0.0079,-0.0158,-0.0079,-0.0158,-0.0079,0.0158,0*%
%AMMACRO2*21,1,$1,$2,0,0,$3*%
%ADD10R,0.0472X0.0472*%
%ADD11R,0.0315X0.0315*%
%ADD12MACRO1*%
%ADD13R,0.0315X0.0158*%
%ADD14O,0.031495999999999996X0.011024*%
%ADD15O,0.011024X0.031495999999999996*%
%ADD16MACRO2,0.0236X0.0394X115.0006*%
%ADD17MACRO2,0.0236X0.0394X114.9986*%
%ADD18MACRO2,0.0236X0.0394X114.9974*%
%ADD19MACRO2,0.0236X0.0394X115.0018*%
%ADD20MACRO2,0.0276X0.0709X114.9992*%
%ADD21MACRO2,0.0276X0.0709X115.0009*%
%ADD22R,0.0280X0.0685*%
%ADD23R,0.0236X0.0098*%
%ADD24R,0.0098X0.0236*%
%ADD25R,0.0591X0.0591*%
%ADD26R,0.0512X0.0118*%
%ADD27R,0.0163X0.0118*%

%LPD*%
G36*
X486580Y296640D02*
G01*
X485020Y295060D01*
X485020Y276940D01*
X486580Y275360D01*
X506300Y275360D01*
X507879Y276940D01*
X507879Y295060D01*
X506300Y296640D01*
G37*
G36*
X453100Y296640D02*
G01*
X451520Y295060D01*
X451520Y276940D01*
X453100Y275360D01*
X472800Y275360D01*
X474380Y276940D01*
X474380Y295060D01*
X472800Y296640D01*
G37*
G36*
X486500Y344420D02*
G01*
X484920Y342860D01*
X484920Y324739D01*
X486500Y323180D01*
X506200Y323180D01*
X507780Y324739D01*
X507780Y342860D01*
X506200Y344420D01*
G37*
G36*
X453000Y344420D02*
G01*
X451420Y342860D01*
X451420Y324739D01*
X453000Y323180D01*
X472700Y323180D01*
X474280Y324739D01*
X474280Y342860D01*
X472700Y344420D01*
G37*
G36*
X460980Y421900D02*
G01*
X460200Y421120D01*
X460200Y414820D01*
X460980Y414040D01*
X467280Y414040D01*
X468060Y414820D01*
X468060Y421120D01*
X467280Y421900D01*
G37*
G36*
X476719Y421900D02*
G01*
X475940Y421120D01*
X475940Y414820D01*
X476719Y414040D01*
X483020Y414040D01*
X483820Y414820D01*
X483820Y421120D01*
X483020Y421900D01*
G37*
G36*
X460980Y406160D02*
G01*
X460200Y405379D01*
X460200Y399080D01*
X460980Y398280D01*
X467280Y398280D01*
X468060Y399080D01*
X468060Y405379D01*
X467280Y406160D01*
G37*
G36*
X476719Y406160D02*
G01*
X475940Y405379D01*
X475940Y399080D01*
X476719Y398280D01*
X483020Y398280D01*
X483820Y399080D01*
X483820Y405379D01*
X483020Y406160D01*
G37*
G36*
X238280Y-563680D02*
G01*
X236720Y-565240D01*
X236720Y-583360D01*
X238280Y-584940D01*
X258000Y-584940D01*
X259579Y-583360D01*
X259579Y-565240D01*
X258000Y-563680D01*
G37*
G36*
X204800Y-563680D02*
G01*
X203220Y-565240D01*
X203220Y-583360D01*
X204800Y-584940D01*
X224520Y-584940D01*
X226080Y-583360D01*
X226080Y-565240D01*
X224520Y-563680D01*
G37*
G36*
X225100Y-512280D02*
G01*
X223520Y-513840D01*
X223520Y-531960D01*
X225100Y-533540D01*
X244800Y-533540D01*
X246380Y-531960D01*
X246380Y-513840D01*
X244800Y-512280D01*
G37*
G36*
X191600Y-512280D02*
G01*
X190020Y-513840D01*
X190020Y-531960D01*
X191600Y-533540D01*
X211320Y-533540D01*
X212880Y-531960D01*
X212880Y-513840D01*
X211320Y-512280D01*
G37*
G36*
X471960Y486420D02*
G01*
X470379Y484840D01*
X470379Y465120D01*
X471960Y463560D01*
X490080Y463560D01*
X491640Y465120D01*
X491640Y484840D01*
X490080Y486420D01*
G37*
G36*
X471960Y519900D02*
G01*
X470379Y518320D01*
X470379Y498620D01*
X471960Y497040D01*
X490080Y497040D01*
X491640Y498620D01*
X491640Y518320D01*
X490080Y519900D01*
G37*
G36*
X-179540Y-367620D02*
G01*
X-180479Y-368560D01*
X-180479Y-378960D01*
X-179540Y-379920D01*
X-168660Y-379920D01*
X-167719Y-378960D01*
X-167719Y-368560D01*
X-168660Y-367620D01*
G37*
G36*
X-179540Y-386280D02*
G01*
X-180479Y-387239D01*
X-180479Y-397640D01*
X-179540Y-398579D01*
X-168660Y-398579D01*
X-167719Y-397640D01*
X-167719Y-387239D01*
X-168660Y-386280D01*
G37*
G36*
X-142340Y-475720D02*
G01*
X-143280Y-476659D01*
X-143280Y-487060D01*
X-142340Y-488020D01*
X-131460Y-488020D01*
X-130520Y-487060D01*
X-130520Y-476659D01*
X-131460Y-475720D01*
G37*
G36*
X-142340Y-494380D02*
G01*
X-143280Y-495340D01*
X-143280Y-505740D01*
X-142340Y-506680D01*
X-131460Y-506680D01*
X-130520Y-505740D01*
X-130520Y-495340D01*
X-131460Y-494380D01*
G37*
G36*
X16560Y-206320D02*
G01*
X15620Y-207260D01*
X15620Y-218140D01*
X16560Y-219080D01*
X26960Y-219080D01*
X27919Y-218140D01*
X27919Y-207260D01*
X26960Y-206320D01*
G37*
G36*
X35240Y-206320D02*
G01*
X34280Y-207260D01*
X34280Y-218140D01*
X35240Y-219080D01*
X45640Y-219080D01*
X46580Y-218140D01*
X46580Y-207260D01*
X45640Y-206320D01*
G37*
G36*
X-118560Y-536320D02*
G01*
X-119520Y-537260D01*
X-119520Y-548140D01*
X-118560Y-549080D01*
X-108160Y-549080D01*
X-107220Y-548140D01*
X-107220Y-537260D01*
X-108160Y-536320D01*
G37*
G36*
X-137240Y-536320D02*
G01*
X-138180Y-537260D01*
X-138180Y-548140D01*
X-137240Y-549080D01*
X-126840Y-549080D01*
X-125879Y-548140D01*
X-125879Y-537260D01*
X-126840Y-536320D01*
G37*
G36*
X-132060Y-592320D02*
G01*
X-133020Y-593260D01*
X-133020Y-604140D01*
X-132060Y-605080D01*
X-121660Y-605080D01*
X-120719Y-604140D01*
X-120719Y-593260D01*
X-121660Y-592320D01*
G37*
G36*
X-150740Y-592320D02*
G01*
X-151680Y-593260D01*
X-151680Y-604140D01*
X-150740Y-605080D01*
X-140340Y-605080D01*
X-139380Y-604140D01*
X-139380Y-593260D01*
X-140340Y-592320D01*
G37*
G36*
X388160Y-59400D02*
G01*
X387200Y-60340D01*
X387200Y-71200D01*
X388160Y-72140D01*
X398560Y-72140D01*
X399500Y-71200D01*
X399500Y-60340D01*
X398560Y-59400D01*
G37*
G36*
X369480Y-59400D02*
G01*
X368540Y-60340D01*
X368540Y-71200D01*
X369480Y-72140D01*
X379880Y-72140D01*
X380840Y-71200D01*
X380840Y-60340D01*
X379880Y-59400D01*
G37*
G36*
X416760Y5200D02*
G01*
X415800Y4260D01*
X415800Y-6600D01*
X416760Y-7540D01*
X427160Y-7540D01*
X428100Y-6600D01*
X428100Y4260D01*
X427160Y5200D01*
G37*
G36*
X398080Y5200D02*
G01*
X397140Y4260D01*
X397140Y-6600D01*
X398080Y-7540D01*
X408480Y-7540D01*
X409440Y-6600D01*
X409440Y4260D01*
X408480Y5200D01*
G37*
G36*
X596940Y279520D02*
G01*
X594180Y277560D01*
X594180Y259840D01*
X596940Y257880D01*
X615840Y257880D01*
X617800Y259840D01*
X617800Y277560D01*
X615840Y279520D01*
G37*
G36*
X558360Y279520D02*
G01*
X556400Y277560D01*
X556400Y259840D01*
X558360Y257880D01*
X577260Y257880D01*
X580020Y259840D01*
X580020Y277560D01*
X577260Y279520D01*
G37*
G36*
X439580Y235120D02*
G01*
X438020Y233560D01*
X438020Y215440D01*
X439580Y213860D01*
X459300Y213860D01*
X460880Y215440D01*
X460880Y233560D01*
X459300Y235120D01*
G37*
G36*
X406100Y235120D02*
G01*
X404520Y233560D01*
X404520Y215440D01*
X406100Y213860D01*
X425820Y213860D01*
X427380Y215440D01*
X427380Y233560D01*
X425820Y235120D01*
G37*
G36*
X360040Y204579D02*
G01*
X358459Y203000D01*
X358459Y183280D01*
X360040Y181720D01*
X378160Y181720D01*
X379720Y183280D01*
X379720Y203000D01*
X378160Y204579D01*
G37*
G36*
X360040Y171080D02*
G01*
X358459Y169500D01*
X358459Y149800D01*
X360040Y148220D01*
X378160Y148220D01*
X379720Y149800D01*
X379720Y169500D01*
X378160Y171080D01*
G37*
G36*
X596660Y332960D02*
G01*
X593900Y330980D01*
X593900Y313280D01*
X596660Y311300D01*
X615560Y311300D01*
X617520Y313280D01*
X617520Y330980D01*
X615560Y332960D01*
G37*
G36*
X558080Y332960D02*
G01*
X556120Y330980D01*
X556120Y313280D01*
X558080Y311300D01*
X576980Y311300D01*
X579740Y313280D01*
X579740Y330980D01*
X576980Y332960D01*
G37*
G36*
X-285160Y271080D02*
G01*
X-286720Y269500D01*
X-286720Y249780D01*
X-285160Y248220D01*
X-267040Y248220D01*
X-265460Y249780D01*
X-265460Y269500D01*
X-267040Y271080D01*
G37*
G36*
X-285160Y237580D02*
G01*
X-286720Y236000D01*
X-286720Y216300D01*
X-285160Y214720D01*
X-267040Y214720D01*
X-265460Y216300D01*
X-265460Y236000D01*
X-267040Y237580D01*
G37*
G36*
X-333700Y99980D02*
G01*
X-334640Y99040D01*
X-334640Y88160D01*
X-333700Y87220D01*
X-320740Y87220D01*
X-319780Y88160D01*
X-319780Y99040D01*
X-320740Y99980D01*
G37*
G36*
X-312460Y99980D02*
G01*
X-313420Y99040D01*
X-313420Y88160D01*
X-312460Y87220D01*
X-299500Y87220D01*
X-298560Y88160D01*
X-298560Y99040D01*
X-299500Y99980D01*
G37*
G36*
X-564840Y98520D02*
G01*
X-566800Y96560D01*
X-566800Y78840D01*
X-564840Y76880D01*
X-545940Y76880D01*
X-543180Y78840D01*
X-543180Y96560D01*
X-545940Y98520D01*
G37*
G36*
X-526260Y98520D02*
G01*
X-529020Y96560D01*
X-529020Y78840D01*
X-526260Y76880D01*
X-507360Y76880D01*
X-505400Y78840D01*
X-505400Y96560D01*
X-507360Y98520D01*
G37*
G36*
X-289960Y370100D02*
G01*
X-291920Y368140D01*
X-291920Y349240D01*
X-289960Y346480D01*
X-272240Y346480D01*
X-270280Y349240D01*
X-270280Y368140D01*
X-272240Y370100D01*
G37*
G36*
X-289960Y332320D02*
G01*
X-291920Y329560D01*
X-291920Y310660D01*
X-289960Y308700D01*
X-272240Y308700D01*
X-270280Y310660D01*
X-270280Y329560D01*
X-272240Y332320D01*
G37*
G36*
X409860Y495439D02*
G01*
X407900Y492680D01*
X407900Y473780D01*
X409860Y471820D01*
X427580Y471820D01*
X429540Y473780D01*
X429540Y492680D01*
X427580Y495439D01*
G37*
G36*
X409860Y533240D02*
G01*
X407900Y531260D01*
X407900Y512380D01*
X409860Y509620D01*
X427580Y509620D01*
X429540Y512380D01*
X429540Y531260D01*
X427580Y533240D01*
G37*
G36*
X-133640Y-219780D02*
G01*
X-135600Y-221740D01*
X-135600Y-239460D01*
X-133640Y-241420D01*
X-114740Y-241420D01*
X-111980Y-239460D01*
X-111980Y-221740D01*
X-114740Y-219780D01*
G37*
G36*
X-95060Y-219780D02*
G01*
X-97820Y-221740D01*
X-97820Y-239460D01*
X-95060Y-241420D01*
X-76160Y-241420D01*
X-74200Y-239460D01*
X-74200Y-221740D01*
X-76160Y-219780D01*
G37*
G36*
X527540Y388820D02*
G01*
X525580Y386060D01*
X525580Y367160D01*
X527540Y365180D01*
X545260Y365180D01*
X547220Y367160D01*
X547220Y386060D01*
X545260Y388820D01*
G37*
G36*
X527540Y426599D02*
G01*
X525580Y424640D01*
X525580Y405740D01*
X527540Y402980D01*
X545260Y402980D01*
X547220Y405740D01*
X547220Y424640D01*
X545260Y426599D01*
G37*
D10*
G01*
X47820Y139130D03*
G01*
X47820Y204089D03*
G01*
X112780Y204089D03*
G01*
X112780Y139130D03*
G01*
X112780Y74169D03*
G01*
X47820Y74169D03*
G01*
X-17139Y74169D03*
G01*
X-17139Y139130D03*
D11*
G01*
X-229589Y413899D03*
D12*
G01*
X-188254Y413899D03*
G01*
X-154784Y413899D03*
G01*
X-121325Y413899D03*
G01*
X-87854Y413899D03*
G01*
X-54394Y413899D03*
G01*
X-20929Y413899D03*
G01*
X12535Y413899D03*
G01*
X79465Y413899D03*
G01*
X45999Y413899D03*
G01*
X112930Y413899D03*
G01*
X146394Y413899D03*
G01*
X179855Y413899D03*
G01*
X213324Y413899D03*
G01*
X246784Y413899D03*
G01*
X280255Y413899D03*
D11*
G01*
X321589Y413899D03*
D13*
G01*
X321589Y372559D03*
G01*
X321589Y339099D03*
G01*
X321589Y305629D03*
G01*
X321589Y272169D03*
G01*
X321589Y238699D03*
G01*
X321589Y205239D03*
G01*
X321589Y171769D03*
G01*
X321589Y138309D03*
G01*
X321589Y104849D03*
G01*
X321589Y71379D03*
G01*
X321589Y37919D03*
G01*
X321589Y4449D03*
G01*
X321589Y-29010D03*
G01*
X321589Y-62480D03*
G01*
X321589Y-95940D03*
D11*
G01*
X321589Y-137280D03*
D12*
G01*
X280255Y-137280D03*
G01*
X246784Y-137280D03*
G01*
X213324Y-137280D03*
G01*
X179855Y-137280D03*
G01*
X146394Y-137280D03*
G01*
X112930Y-137280D03*
G01*
X79465Y-137280D03*
G01*
X45999Y-137280D03*
G01*
X12535Y-137280D03*
G01*
X-20929Y-137280D03*
G01*
X-54394Y-137280D03*
G01*
X-87854Y-137280D03*
G01*
X-121325Y-137280D03*
G01*
X-154784Y-137280D03*
G01*
X-188254Y-137280D03*
D11*
G01*
X-229589Y-137280D03*
D13*
G01*
X-229589Y-95940D03*
G01*
X-229589Y-62480D03*
G01*
X-229589Y-29010D03*
G01*
X-229589Y4449D03*
G01*
X-229589Y37919D03*
G01*
X-229589Y71379D03*
G01*
X-229589Y104849D03*
G01*
X-229589Y138309D03*
G01*
X-229589Y171769D03*
G01*
X-229589Y205239D03*
G01*
X-229589Y238699D03*
G01*
X-229589Y272169D03*
G01*
X-229589Y305629D03*
G01*
X-229589Y372559D03*
G01*
X-229589Y339099D03*
D14*
G01*
X524220Y87919D03*
G01*
X524220Y107609D03*
G01*
X524220Y127289D03*
G01*
X524220Y146979D03*
G01*
X524220Y166659D03*
D15*
G01*
X488779Y182409D03*
G01*
X469099Y182409D03*
G01*
X449409Y182409D03*
D14*
G01*
X413980Y166659D03*
G01*
X413980Y146979D03*
G01*
X413980Y127289D03*
G01*
X413980Y107609D03*
G01*
X413980Y87919D03*
D15*
G01*
X449409Y72179D03*
G01*
X469099Y72179D03*
G01*
X488779Y72179D03*
D16*
G01*
X-554859Y-137747D03*
D17*
G01*
X-526574Y-198407D03*
D18*
G01*
X-441717Y-380383D03*
D19*
G01*
X-470003Y-319724D03*
G01*
X-498288Y-259065D03*
D20*
G01*
X-237220Y-341496D03*
D21*
G01*
X-421908Y54566D03*
D18*
G01*
X-583146Y-77089D03*
D22*
G01*
X-31999Y-580000D03*
G01*
X18000Y-580000D03*
G01*
X68000Y-580000D03*
G01*
X118000Y-580000D03*
G01*
X118000Y-265410D03*
G01*
X68000Y-265410D03*
G01*
X18000Y-265410D03*
G01*
X-31999Y-265410D03*
D23*
G01*
X-177449Y-508670D03*
G01*
X-177449Y-488980D03*
G01*
X-177449Y-469300D03*
G01*
X-177449Y-449610D03*
D24*
G01*
X-207049Y-420140D03*
G01*
X-226739Y-420140D03*
G01*
X-246419Y-420150D03*
G01*
X-266109Y-420140D03*
D23*
G01*
X-295559Y-449670D03*
G01*
X-295559Y-469360D03*
G01*
X-295559Y-489039D03*
G01*
X-295559Y-508670D03*
D24*
G01*
X-266109Y-538260D03*
G01*
X-246419Y-538260D03*
G01*
X-226739Y-538260D03*
G01*
X-207049Y-538260D03*
D25*
G01*
X-236499Y-479200D03*
D26*
G01*
X-328879Y126429D03*
G01*
X-328879Y146109D03*
G01*
X-328879Y165789D03*
G01*
X-328879Y185479D03*
G01*
X-328879Y205169D03*
G01*
X-513919Y205159D03*
G01*
X-513919Y185479D03*
G01*
X-513919Y165799D03*
G01*
X-513919Y146109D03*
G01*
X-513919Y126419D03*
M02*
