M48
METRIC,LZ,000.000
;FILE_FORMAT=3:3
;TYPE=PLATED
;Layer: PTH_Through_Via
;EasyEDA v6.5.32, 2023-07-27 20:51:34
;7f8d34143daf4d43a3b22917546c404d,9a4ed40c0dd746429eaf55b84663d2fb,10
;Gerber Generator version 0.2
;Holesize 1 = 0.305 mm
T01C0.305
%
G05
G90
T01
X-002812Y-009436
X-003334Y-008881
X000604Y-006039
X-005279Y-011653
X-006137Y-011701
X005154Y-004313
X009342Y-005789
X009317Y001242
X-001113Y-001109
X-001468Y-000201
X-013188Y004616
X-008675Y-015067
X-012810Y-003771
X001028Y009739
X-010188Y001072
X-013043Y007097
X-003264Y-011029
X-001608Y-007983
X-002248Y-007155
X-001400Y-006718
X-005215Y001652
X001396Y013016
X007795Y004542
X004782Y004842
X-019532Y003667
X-019532Y004480
X-019532Y005293
X-021471Y004507
X-021471Y005319
X-021471Y006132
X-021471Y006945
X-021255Y007791
X-020689Y008428
X-019192Y007211
X-020228Y009050
X-019851Y009924
X-003848Y-011615
X-012828Y-008171
X-017184Y-009288
X-016591Y-010028
X-010227Y-006738
X002918Y-002334
X002527Y-003068
X-009018Y-003957
X-007100Y004822
X-006160Y004834
X002240Y005481
X002212Y004677
X-011977Y-001932
X-010303Y002602
X-003280Y-000596
X-001741Y003313
X-002495Y001667
X-001482Y001687
X-007773Y-006804
X-002383Y-002283
X-012937Y005792
X002159Y-005124
X-006653Y004161
X-001154Y005944
X-015114Y-005631
X-009669Y007234
X-008563Y-002293
X-018075Y-005979
X-010460Y-002773
X003805Y000549
X006167Y000907
X002438Y006865
X000713Y005134
X004483Y011042
X004371Y008390
X004960Y006356
X-004085Y-014749
X-010237Y-007487
X-007013Y-004896
X-011108Y-003433
X-015215Y005053
X-016411Y-000515
X000881Y005921
X-004718Y-017538
X-013898Y-016764
X-009520Y-002534
X-007638Y-018544
X-008156Y-012372
X-008070Y-010790
X-007218Y006329
X-001982Y004974
X007901Y-002306
X-002475Y-003388
X-002093Y-004239
X-003849Y-007683
X-003620Y-004366
X-004265Y-004886
X-004352Y-004129
X008503Y-006746
X005786Y-006746
X009138Y002520
X-021446Y003643
X-018219Y-013927
X-018836Y-013236
X-017492Y-014580
X-016151Y-015469
X-016875Y-015179
X-018038Y-010049
X-019143Y-010620
X-011991Y-014516
X-017726Y011171
X-017535Y006472
X-016745Y011435
X-015813Y013205
X-007795Y-015149
X-012741Y-012367
X002482Y-000765
X002321Y008388
X-001349Y-004838
X-015279Y003720
X-003176Y004745
X-011677Y004585
X005110Y002805
X-007186Y-010785
M30
