G04 Layer: InnerLayer1*
G04 Panelize: , Column: 1, Row: 1, Board Size: 35.35mm x 33.79mm, Panelized Board Size: 35.35mm x 33.79mm*
G04 EasyEDA v6.5.32, 2023-07-27 20:51:34*
G04 7f8d34143daf4d43a3b22917546c404d,9a4ed40c0dd746429eaf55b84663d2fb,10*
G04 Gerber Generator version 0.2*
G04 Scale: 100 percent, Rotated: No, Reflected: No *
G04 Dimensions in millimeters *
G04 leading zeros omitted , absolute positions ,4 integer and 5 decimal *
%FSLAX45Y45*%
%MOMM*%

%AMMACRO1*1,1,$1,$2,$3*1,1,$1,$4,$5*20,1,$1,$2,$3,$4,$5,0*%
%ADD10C,0.8000*%
%ADD11MACRO1,1.2X-0.3535X0.3535X0.3535X-0.3535*%
%ADD12C,0.6096*%

%LPD*%
G36*
X-666973Y-1915464D02*
G01*
X-686059Y-1915388D01*
X-705142Y-1915109D01*
X-724222Y-1914626D01*
X-743295Y-1913940D01*
X-762360Y-1913051D01*
X-781415Y-1911959D01*
X-800458Y-1910666D01*
X-819482Y-1909168D01*
X-838494Y-1907468D01*
X-857483Y-1905566D01*
X-876454Y-1903463D01*
X-895400Y-1901156D01*
X-914321Y-1898650D01*
X-933213Y-1895942D01*
X-952075Y-1893031D01*
X-970907Y-1889922D01*
X-989703Y-1886610D01*
X-1008463Y-1883100D01*
X-1027186Y-1879391D01*
X-1045865Y-1875482D01*
X-1064503Y-1871372D01*
X-1083099Y-1867067D01*
X-1101646Y-1862564D01*
X-1120142Y-1857862D01*
X-1138590Y-1852965D01*
X-1156982Y-1847872D01*
X-1175321Y-1842582D01*
X-1193601Y-1837098D01*
X-1211823Y-1831421D01*
X-1229984Y-1825548D01*
X-1248079Y-1819483D01*
X-1266111Y-1813227D01*
X-1284074Y-1806778D01*
X-1301968Y-1800136D01*
X-1319791Y-1793306D01*
X-1337538Y-1786288D01*
X-1355211Y-1779079D01*
X-1372806Y-1771683D01*
X-1390319Y-1764101D01*
X-1407754Y-1756333D01*
X-1425102Y-1748378D01*
X-1442366Y-1740240D01*
X-1459542Y-1731919D01*
X-1476628Y-1723415D01*
X-1493624Y-1714731D01*
X-1510527Y-1705866D01*
X-1527332Y-1696819D01*
X-1544043Y-1687596D01*
X-1560652Y-1678195D01*
X-1577162Y-1668619D01*
X-1593568Y-1658866D01*
X-1609869Y-1648940D01*
X-1626064Y-1638841D01*
X-1642150Y-1628569D01*
X-1658127Y-1618127D01*
X-1673989Y-1607515D01*
X-1689740Y-1596735D01*
X-1705373Y-1585788D01*
X-1720890Y-1574675D01*
X-1736290Y-1563400D01*
X-1751566Y-1551957D01*
X-1766719Y-1540357D01*
X-1781751Y-1528592D01*
X-1796653Y-1516669D01*
X-1811428Y-1504589D01*
X-1826077Y-1492354D01*
X-1840593Y-1479961D01*
X-1854974Y-1467413D01*
X-1869224Y-1454716D01*
X-1883336Y-1441866D01*
X-1897308Y-1428866D01*
X-1911144Y-1415719D01*
X-1924839Y-1402425D01*
X-1938393Y-1388988D01*
X-1951802Y-1375404D01*
X-1965063Y-1361681D01*
X-1978179Y-1347815D01*
X-1991149Y-1333812D01*
X-2003966Y-1319672D01*
X-2016632Y-1305394D01*
X-2029147Y-1290985D01*
X-2041507Y-1276441D01*
X-2053711Y-1261767D01*
X-2065759Y-1246964D01*
X-2077648Y-1232034D01*
X-2089378Y-1216980D01*
X-2100948Y-1201798D01*
X-2112355Y-1186497D01*
X-2123597Y-1171074D01*
X-2134676Y-1155532D01*
X-2145588Y-1139873D01*
X-2156332Y-1124099D01*
X-2166909Y-1108212D01*
X-2177315Y-1092212D01*
X-2187549Y-1076104D01*
X-2197613Y-1059886D01*
X-2207503Y-1043564D01*
X-2217219Y-1027135D01*
X-2226759Y-1010605D01*
X-2236124Y-993975D01*
X-2245311Y-977244D01*
X-2254318Y-960419D01*
X-2263147Y-943498D01*
X-2271793Y-926482D01*
X-2280259Y-909378D01*
X-2288542Y-892182D01*
X-2296642Y-874900D01*
X-2304557Y-857534D01*
X-2312286Y-840082D01*
X-2319830Y-822551D01*
X-2327188Y-804941D01*
X-2334356Y-787252D01*
X-2341336Y-769487D01*
X-2348125Y-751652D01*
X-2354727Y-733742D01*
X-2361135Y-715764D01*
X-2367353Y-697720D01*
X-2373378Y-679610D01*
X-2379210Y-661438D01*
X-2384846Y-643204D01*
X-2390289Y-624911D01*
X-2395540Y-606559D01*
X-2400592Y-588154D01*
X-2405448Y-569699D01*
X-2410109Y-551190D01*
X-2414569Y-532632D01*
X-2418834Y-514029D01*
X-2422900Y-495381D01*
X-2426769Y-476691D01*
X-2430437Y-457961D01*
X-2433906Y-439193D01*
X-2437175Y-420390D01*
X-2440244Y-401553D01*
X-2443111Y-382684D01*
X-2445778Y-363786D01*
X-2448242Y-344860D01*
X-2450505Y-325907D01*
X-2452568Y-306933D01*
X-2454427Y-287939D01*
X-2456086Y-268925D01*
X-2457538Y-249895D01*
X-2458791Y-230850D01*
X-2459840Y-211792D01*
X-2460688Y-192727D01*
X-2461331Y-173652D01*
X-2461770Y-154571D01*
X-2462009Y-135486D01*
X-2462042Y-116400D01*
X-2461872Y-97315D01*
X-2461498Y-78234D01*
X-2460924Y-59156D01*
X-2460144Y-40086D01*
X-2459164Y-21026D01*
X-2457978Y-1976D01*
X-2456591Y17058D01*
X-2455001Y36078D01*
X-2453208Y55079D01*
X-2451214Y74061D01*
X-2449017Y93019D01*
X-2446619Y111953D01*
X-2444021Y130860D01*
X-2441219Y149740D01*
X-2438217Y168589D01*
X-2435016Y187403D01*
X-2431613Y206184D01*
X-2428011Y224927D01*
X-2424211Y243631D01*
X-2420211Y262293D01*
X-2416012Y280911D01*
X-2411615Y299483D01*
X-2407020Y318007D01*
X-2402230Y336483D01*
X-2397241Y354906D01*
X-2392057Y373273D01*
X-2386680Y391586D01*
X-2381107Y409839D01*
X-2375339Y428033D01*
X-2369378Y446166D01*
X-2363226Y464230D01*
X-2356878Y482231D01*
X-2350343Y500164D01*
X-2343614Y518025D01*
X-2336698Y535813D01*
X-2329594Y553526D01*
X-2322299Y571162D01*
X-2314816Y588721D01*
X-2307150Y606198D01*
X-2299296Y623595D01*
X-2291257Y640905D01*
X-2283035Y658129D01*
X-2274630Y675264D01*
X-2266043Y692310D01*
X-2257275Y709261D01*
X-2248326Y726119D01*
X-2239200Y742881D01*
X-2229896Y759546D01*
X-2220414Y776109D01*
X-2210755Y792571D01*
X-2200922Y808929D01*
X-2190917Y825182D01*
X-2180739Y841329D01*
X-2170389Y857364D01*
X-2159868Y873290D01*
X-2149180Y889101D01*
X-2138324Y904798D01*
X-2127300Y920379D01*
X-2116112Y935842D01*
X-2104760Y951184D01*
X-2093247Y966403D01*
X-2081570Y981501D01*
X-2069734Y996475D01*
X-2057737Y1011318D01*
X-2045586Y1026035D01*
X-2033277Y1040622D01*
X-2020813Y1055077D01*
X-2008197Y1069398D01*
X-1995429Y1083584D01*
X-1982510Y1097635D01*
X-1969444Y1111544D01*
X-1956229Y1125316D01*
X-1942868Y1138946D01*
X-1929363Y1152433D01*
X-1915716Y1165776D01*
X-1901926Y1178971D01*
X-1887999Y1192019D01*
X-1873933Y1204920D01*
X-1859729Y1217668D01*
X-1845391Y1230266D01*
X-1830920Y1242710D01*
X-1816315Y1254998D01*
X-1801583Y1267129D01*
X-1786722Y1279105D01*
X-1771733Y1290921D01*
X-1756620Y1302578D01*
X-1741385Y1314074D01*
X-1726026Y1325405D01*
X-1710550Y1336573D01*
X-1694954Y1347574D01*
X-1679242Y1358409D01*
X-1663415Y1369077D01*
X-1647477Y1379575D01*
X-1631426Y1389903D01*
X-1615267Y1400060D01*
X-1599001Y1410045D01*
X-1582630Y1419854D01*
X-1566156Y1429491D01*
X-1549580Y1438950D01*
X-1532902Y1448234D01*
X-1524815Y1452623D01*
X-1524815Y891857D01*
X-1523037Y890079D01*
X52270Y890079D01*
X61414Y899223D01*
X61414Y954526D01*
X61996Y953272D01*
X63466Y950592D01*
X65110Y948016D01*
X66923Y945555D01*
X68897Y943221D01*
X71020Y941024D01*
X73289Y938974D01*
X75686Y937079D01*
X78206Y935349D01*
X80838Y933792D01*
X83565Y932413D01*
X86380Y931219D01*
X89265Y930216D01*
X92214Y929411D01*
X95209Y928801D01*
X98239Y928392D01*
X101287Y928189D01*
X104345Y928189D01*
X107393Y928392D01*
X110423Y928801D01*
X113418Y929411D01*
X116367Y930216D01*
X119253Y931219D01*
X122067Y932413D01*
X124795Y933792D01*
X127426Y935349D01*
X129946Y937079D01*
X132344Y938974D01*
X134612Y941024D01*
X136735Y943221D01*
X138709Y945555D01*
X140522Y948016D01*
X142166Y950592D01*
X143637Y953272D01*
X144922Y956045D01*
X146022Y958898D01*
X146926Y961816D01*
X147634Y964788D01*
X148142Y967803D01*
X148450Y970843D01*
X148551Y973899D01*
X148450Y976955D01*
X148142Y979995D01*
X147634Y983010D01*
X146926Y985982D01*
X146022Y988900D01*
X144922Y991753D01*
X143637Y994526D01*
X142166Y997206D01*
X140522Y999782D01*
X138709Y1002243D01*
X136735Y1004577D01*
X134612Y1006774D01*
X132344Y1008824D01*
X129946Y1010719D01*
X127426Y1012449D01*
X124795Y1014006D01*
X122067Y1015385D01*
X119253Y1016579D01*
X116367Y1017582D01*
X113418Y1018387D01*
X110423Y1018997D01*
X107393Y1019406D01*
X104345Y1019609D01*
X101287Y1019609D01*
X98239Y1019406D01*
X95209Y1018997D01*
X92214Y1018387D01*
X89265Y1017582D01*
X86380Y1016579D01*
X83565Y1015385D01*
X80838Y1014006D01*
X78206Y1012449D01*
X75686Y1010719D01*
X73289Y1008824D01*
X71020Y1006774D01*
X68897Y1004577D01*
X66923Y1002243D01*
X65110Y999782D01*
X63466Y997206D01*
X61996Y994526D01*
X61414Y993272D01*
X61414Y1413319D01*
X61239Y1451033D01*
X76921Y1443575D01*
X93916Y1435270D01*
X110820Y1426781D01*
X127632Y1418112D01*
X144348Y1409263D01*
X160969Y1400235D01*
X177495Y1391028D01*
X193918Y1381645D01*
X210240Y1372087D01*
X226458Y1362351D01*
X242572Y1352445D01*
X258579Y1342364D01*
X274474Y1332113D01*
X290261Y1321691D01*
X305932Y1311102D01*
X321490Y1300342D01*
X336933Y1289418D01*
X352254Y1278328D01*
X367459Y1267073D01*
X382539Y1255656D01*
X397497Y1244079D01*
X412330Y1232339D01*
X427037Y1220444D01*
X441614Y1208389D01*
X456059Y1196179D01*
X470374Y1183815D01*
X484555Y1171298D01*
X498602Y1158628D01*
X512511Y1145809D01*
X526282Y1132839D01*
X539912Y1119725D01*
X553399Y1106464D01*
X566745Y1093061D01*
X579948Y1079512D01*
X593001Y1065824D01*
X605906Y1051996D01*
X618665Y1038029D01*
X631271Y1023927D01*
X643724Y1009690D01*
X656026Y995321D01*
X668172Y980821D01*
X680161Y966190D01*
X691992Y951430D01*
X703663Y936546D01*
X715175Y921537D01*
X726526Y906406D01*
X737712Y891151D01*
X748733Y875779D01*
X759589Y860290D01*
X770280Y844684D01*
X780801Y828964D01*
X791151Y813132D01*
X801331Y797191D01*
X811342Y781141D01*
X821176Y764984D01*
X830839Y748720D01*
X840325Y732358D01*
X849635Y715891D01*
X858768Y699328D01*
X867722Y682665D01*
X876498Y665909D01*
X885090Y649058D01*
X893503Y632117D01*
X901735Y615086D01*
X909782Y597966D01*
X917643Y580763D01*
X925322Y563476D01*
X932812Y546107D01*
X940114Y528657D01*
X947232Y511131D01*
X954158Y493532D01*
X960897Y475856D01*
X967445Y458111D01*
X973802Y440296D01*
X979967Y422412D01*
X985939Y404464D01*
X991720Y386453D01*
X997305Y368383D01*
X1002695Y350250D01*
X1007892Y332064D01*
X1012893Y313822D01*
X1017696Y295526D01*
X1022304Y277180D01*
X1026716Y258787D01*
X1030927Y240344D01*
X1034940Y221861D01*
X1038755Y203334D01*
X1042372Y184767D01*
X1045789Y166164D01*
X1049004Y147523D01*
X1052019Y128849D01*
X1054834Y110144D01*
X1057450Y91412D01*
X1059860Y72651D01*
X1062073Y53865D01*
X1064082Y35057D01*
X1065888Y16228D01*
X1067493Y-2618D01*
X1068892Y-21483D01*
X1070094Y-40360D01*
X1071090Y-59250D01*
X1071882Y-78148D01*
X1072471Y-97055D01*
X1072860Y-115966D01*
X1073043Y-134881D01*
X1073025Y-153796D01*
X1072802Y-172709D01*
X1072375Y-191620D01*
X1071747Y-210525D01*
X1070914Y-229422D01*
X1069881Y-248310D01*
X1068644Y-267185D01*
X1067203Y-286044D01*
X1065560Y-304888D01*
X1063716Y-323715D01*
X1061669Y-342518D01*
X1059418Y-361299D01*
X1056967Y-380055D01*
X1054315Y-398785D01*
X1051463Y-417484D01*
X1048410Y-436151D01*
X1045154Y-454784D01*
X1041699Y-473382D01*
X1038047Y-491942D01*
X1034194Y-510458D01*
X1030142Y-528937D01*
X1025893Y-547367D01*
X1021445Y-565754D01*
X1016800Y-584090D01*
X1011958Y-602373D01*
X1006922Y-620608D01*
X1001687Y-638784D01*
X996259Y-656904D01*
X990638Y-674964D01*
X984821Y-692962D01*
X978811Y-710900D01*
X972609Y-728769D01*
X966215Y-746572D01*
X959632Y-764303D01*
X952858Y-781964D01*
X945896Y-799551D01*
X938743Y-817062D01*
X931405Y-834496D01*
X923876Y-851849D01*
X916165Y-869121D01*
X908268Y-886310D01*
X900186Y-903411D01*
X891921Y-920424D01*
X883472Y-937348D01*
X874844Y-954184D01*
X866035Y-970922D01*
X857046Y-987564D01*
X847879Y-1004110D01*
X838537Y-1020556D01*
X829017Y-1036904D01*
X819401Y-1053012D01*
X819401Y-1053198D01*
X819322Y-1053144D01*
X819401Y-1053012D01*
X819401Y-1038466D01*
X341119Y-560184D01*
X-303024Y-1204328D01*
X-326951Y-1227518D01*
X-303024Y-1252842D01*
X148841Y-1704708D01*
X173987Y-1704708D01*
X159143Y-1712534D01*
X142171Y-1721264D01*
X125107Y-1729813D01*
X107952Y-1738180D01*
X90711Y-1746364D01*
X73383Y-1754362D01*
X55968Y-1762178D01*
X38475Y-1769808D01*
X20899Y-1777250D01*
X3246Y-1784504D01*
X-14483Y-1791571D01*
X-32285Y-1798449D01*
X-50162Y-1805137D01*
X-68107Y-1811632D01*
X-86121Y-1817938D01*
X-104203Y-1824050D01*
X-122346Y-1829970D01*
X-140553Y-1835698D01*
X-158818Y-1841230D01*
X-177144Y-1846569D01*
X-195524Y-1851710D01*
X-213956Y-1856658D01*
X-232443Y-1861408D01*
X-250977Y-1865962D01*
X-269560Y-1870316D01*
X-288185Y-1874474D01*
X-306857Y-1878434D01*
X-325569Y-1882193D01*
X-344319Y-1885751D01*
X-363108Y-1889114D01*
X-381929Y-1892274D01*
X-400784Y-1895233D01*
X-419671Y-1897992D01*
X-438584Y-1900549D01*
X-457525Y-1902907D01*
X-476488Y-1905060D01*
X-495472Y-1907011D01*
X-514479Y-1908761D01*
X-533501Y-1910311D01*
X-552541Y-1911654D01*
X-571591Y-1912797D01*
X-590654Y-1913737D01*
X-609727Y-1914474D01*
X-628804Y-1915007D01*
X-647887Y-1915337D01*
G37*

%LPC*%
G36*
X-40165Y-1718563D02*
G01*
X-39413Y-1718553D01*
X-36423Y-1718442D01*
X-35674Y-1718393D01*
X-32692Y-1718132D01*
X-31953Y-1718050D01*
X-28989Y-1717641D01*
X-28249Y-1717520D01*
X-25311Y-1716963D01*
X-24584Y-1716808D01*
X-21676Y-1716107D01*
X-20952Y-1715912D01*
X-18082Y-1715066D01*
X-17363Y-1714835D01*
X-14541Y-1713847D01*
X-13845Y-1713583D01*
X-11074Y-1712455D01*
X-10388Y-1712158D01*
X-7675Y-1710893D01*
X-7007Y-1710560D01*
X-4363Y-1709163D01*
X-3708Y-1708795D01*
X-1135Y-1707266D01*
X-502Y-1706869D01*
X1988Y-1705216D01*
X2595Y-1704792D01*
X5003Y-1703016D01*
X5605Y-1702546D01*
X7919Y-1700651D01*
X8473Y-1700174D01*
X10693Y-1698167D01*
X11242Y-1697647D01*
X13357Y-1695531D01*
X13878Y-1694982D01*
X15885Y-1692762D01*
X16362Y-1692208D01*
X18257Y-1689895D01*
X18727Y-1689293D01*
X20502Y-1686885D01*
X20927Y-1686278D01*
X22580Y-1683786D01*
X22976Y-1683153D01*
X24505Y-1680580D01*
X24874Y-1679925D01*
X26271Y-1677281D01*
X26603Y-1676613D01*
X27868Y-1673900D01*
X28166Y-1673214D01*
X29293Y-1670443D01*
X29557Y-1669747D01*
X30546Y-1666925D01*
X30777Y-1666206D01*
X31622Y-1663336D01*
X31818Y-1662612D01*
X32519Y-1659704D01*
X32674Y-1658978D01*
X33230Y-1656039D01*
X33352Y-1655300D01*
X33761Y-1652336D01*
X33842Y-1651596D01*
X34104Y-1648614D01*
X34152Y-1647865D01*
X34264Y-1644876D01*
X34274Y-1644124D01*
X34236Y-1641134D01*
X34208Y-1640395D01*
X34023Y-1637408D01*
X33957Y-1636656D01*
X33621Y-1633684D01*
X33520Y-1632948D01*
X33037Y-1629994D01*
X32898Y-1629252D01*
X32268Y-1626328D01*
X32095Y-1625617D01*
X31323Y-1622727D01*
X31104Y-1621988D01*
X30185Y-1619140D01*
X29944Y-1618452D01*
X28887Y-1615653D01*
X28602Y-1614949D01*
X27406Y-1612209D01*
X27091Y-1611538D01*
X25760Y-1608858D01*
X25405Y-1608183D01*
X23939Y-1605574D01*
X23566Y-1604944D01*
X21976Y-1602412D01*
X21556Y-1601782D01*
X19839Y-1599331D01*
X19397Y-1598731D01*
X17561Y-1596369D01*
X17091Y-1595795D01*
X15140Y-1593527D01*
X14632Y-1592966D01*
X12570Y-1590799D01*
X12311Y-1590535D01*
X-58397Y-1519826D01*
X-58661Y-1519567D01*
X-60827Y-1517505D01*
X-61389Y-1516997D01*
X-63657Y-1515046D01*
X-64231Y-1514576D01*
X-66593Y-1512740D01*
X-67193Y-1512298D01*
X-69644Y-1510581D01*
X-70274Y-1510162D01*
X-72806Y-1508572D01*
X-73436Y-1508198D01*
X-76045Y-1506733D01*
X-76720Y-1506377D01*
X-79400Y-1505046D01*
X-80070Y-1504731D01*
X-82811Y-1503535D01*
X-83515Y-1503250D01*
X-86314Y-1502194D01*
X-87002Y-1501952D01*
X-89849Y-1501033D01*
X-90589Y-1500814D01*
X-93479Y-1500042D01*
X-94190Y-1499869D01*
X-97114Y-1499240D01*
X-97856Y-1499100D01*
X-100810Y-1498617D01*
X-101546Y-1498516D01*
X-104518Y-1498180D01*
X-105270Y-1498114D01*
X-108257Y-1497929D01*
X-108996Y-1497901D01*
X-111986Y-1497863D01*
X-112737Y-1497873D01*
X-115727Y-1497985D01*
X-116476Y-1498033D01*
X-119458Y-1498295D01*
X-120197Y-1498376D01*
X-123162Y-1498785D01*
X-123901Y-1498907D01*
X-126839Y-1499463D01*
X-127566Y-1499618D01*
X-130474Y-1500319D01*
X-131198Y-1500515D01*
X-134068Y-1501360D01*
X-134787Y-1501592D01*
X-137609Y-1502580D01*
X-138305Y-1502844D01*
X-141076Y-1503972D01*
X-141762Y-1504269D01*
X-144475Y-1505534D01*
X-145143Y-1505866D01*
X-147787Y-1507263D01*
X-148442Y-1507632D01*
X-151015Y-1509161D01*
X-151648Y-1509557D01*
X-154139Y-1511211D01*
X-154746Y-1511635D01*
X-157154Y-1513410D01*
X-157756Y-1513880D01*
X-160070Y-1515775D01*
X-160624Y-1516252D01*
X-162844Y-1518259D01*
X-163393Y-1518780D01*
X-165508Y-1520896D01*
X-166029Y-1521444D01*
X-168036Y-1523664D01*
X-168513Y-1524218D01*
X-170408Y-1526532D01*
X-170878Y-1527134D01*
X-172653Y-1529542D01*
X-173078Y-1530149D01*
X-174731Y-1532641D01*
X-175127Y-1533273D01*
X-176656Y-1535846D01*
X-177025Y-1536501D01*
X-178422Y-1539146D01*
X-178755Y-1539814D01*
X-180019Y-1542526D01*
X-180317Y-1543212D01*
X-181444Y-1545983D01*
X-181709Y-1546679D01*
X-182697Y-1549501D01*
X-182928Y-1550220D01*
X-183774Y-1553090D01*
X-183969Y-1553814D01*
X-184670Y-1556722D01*
X-184825Y-1557449D01*
X-185381Y-1560388D01*
X-185503Y-1561127D01*
X-185912Y-1564091D01*
X-185994Y-1564830D01*
X-186255Y-1567812D01*
X-186303Y-1568561D01*
X-186415Y-1571551D01*
X-186425Y-1572303D01*
X-186387Y-1575292D01*
X-186359Y-1576031D01*
X-186174Y-1579018D01*
X-186108Y-1579770D01*
X-185773Y-1582742D01*
X-185671Y-1583479D01*
X-185188Y-1586433D01*
X-185049Y-1587174D01*
X-184419Y-1590098D01*
X-184246Y-1590809D01*
X-183474Y-1593700D01*
X-183255Y-1594439D01*
X-182336Y-1597286D01*
X-182095Y-1597974D01*
X-181038Y-1600774D01*
X-180754Y-1601477D01*
X-179557Y-1604218D01*
X-179242Y-1604888D01*
X-177911Y-1607568D01*
X-177556Y-1608244D01*
X-176090Y-1610852D01*
X-175717Y-1611482D01*
X-174127Y-1614015D01*
X-173708Y-1614644D01*
X-171991Y-1617096D01*
X-171549Y-1617695D01*
X-169712Y-1620057D01*
X-169242Y-1620631D01*
X-167292Y-1622899D01*
X-166784Y-1623461D01*
X-164721Y-1625627D01*
X-164462Y-1625892D01*
X-93753Y-1696600D01*
X-93489Y-1696859D01*
X-91323Y-1698922D01*
X-90761Y-1699430D01*
X-88493Y-1701380D01*
X-87919Y-1701850D01*
X-85557Y-1703687D01*
X-84957Y-1704129D01*
X-82506Y-1705846D01*
X-81876Y-1706265D01*
X-79344Y-1707855D01*
X-78714Y-1708228D01*
X-76106Y-1709694D01*
X-75430Y-1710049D01*
X-72750Y-1711380D01*
X-72080Y-1711695D01*
X-69339Y-1712892D01*
X-68635Y-1713176D01*
X-65836Y-1714233D01*
X-65148Y-1714474D01*
X-62301Y-1715394D01*
X-61561Y-1715612D01*
X-58671Y-1716384D01*
X-57960Y-1716557D01*
X-55036Y-1717187D01*
X-54295Y-1717327D01*
X-51341Y-1717809D01*
X-50604Y-1717911D01*
X-47632Y-1718246D01*
X-46880Y-1718312D01*
X-43893Y-1718497D01*
X-43154Y-1718525D01*
G37*
G36*
X-1616641Y-1592607D02*
G01*
X-1613583Y-1592607D01*
X-1610535Y-1592404D01*
X-1607505Y-1591995D01*
X-1604510Y-1591386D01*
X-1601561Y-1590581D01*
X-1598675Y-1589577D01*
X-1595861Y-1588383D01*
X-1593133Y-1587004D01*
X-1590502Y-1585447D01*
X-1587982Y-1583717D01*
X-1585584Y-1581823D01*
X-1583316Y-1579773D01*
X-1581193Y-1577576D01*
X-1579219Y-1575241D01*
X-1577406Y-1572780D01*
X-1575762Y-1570205D01*
X-1574291Y-1567525D01*
X-1573006Y-1564751D01*
X-1571906Y-1561899D01*
X-1571002Y-1558980D01*
X-1570294Y-1556009D01*
X-1569786Y-1552994D01*
X-1569478Y-1549953D01*
X-1569377Y-1546898D01*
X-1569478Y-1543842D01*
X-1569786Y-1540802D01*
X-1570294Y-1537787D01*
X-1571002Y-1534815D01*
X-1571906Y-1531896D01*
X-1573006Y-1529044D01*
X-1574291Y-1526270D01*
X-1575762Y-1523591D01*
X-1577406Y-1521015D01*
X-1579219Y-1518554D01*
X-1581193Y-1516219D01*
X-1583316Y-1514022D01*
X-1585584Y-1511973D01*
X-1587982Y-1510078D01*
X-1590502Y-1508348D01*
X-1593133Y-1506791D01*
X-1595861Y-1505412D01*
X-1598675Y-1504218D01*
X-1601561Y-1503215D01*
X-1604510Y-1502410D01*
X-1607505Y-1501800D01*
X-1610535Y-1501391D01*
X-1613583Y-1501188D01*
X-1616641Y-1501188D01*
X-1619689Y-1501391D01*
X-1622719Y-1501800D01*
X-1625714Y-1502410D01*
X-1628663Y-1503215D01*
X-1631548Y-1504218D01*
X-1634362Y-1505412D01*
X-1637090Y-1506791D01*
X-1639722Y-1508348D01*
X-1642242Y-1510078D01*
X-1642447Y-1510240D01*
X-1642684Y-1508831D01*
X-1643392Y-1505859D01*
X-1644296Y-1502940D01*
X-1645396Y-1500088D01*
X-1646681Y-1497314D01*
X-1648152Y-1494635D01*
X-1649796Y-1492059D01*
X-1651609Y-1489598D01*
X-1653583Y-1487263D01*
X-1655706Y-1485066D01*
X-1657974Y-1483017D01*
X-1660372Y-1481122D01*
X-1662892Y-1479392D01*
X-1665523Y-1477835D01*
X-1668251Y-1476456D01*
X-1671065Y-1475262D01*
X-1673951Y-1474259D01*
X-1676900Y-1473453D01*
X-1679895Y-1472844D01*
X-1682925Y-1472435D01*
X-1685973Y-1472232D01*
X-1689031Y-1472232D01*
X-1692079Y-1472435D01*
X-1695109Y-1472844D01*
X-1698104Y-1473453D01*
X-1701053Y-1474259D01*
X-1703938Y-1475262D01*
X-1706752Y-1476456D01*
X-1707596Y-1476882D01*
X-1707118Y-1475851D01*
X-1706018Y-1472999D01*
X-1705114Y-1470080D01*
X-1704406Y-1467109D01*
X-1703898Y-1464094D01*
X-1703590Y-1461053D01*
X-1703489Y-1457998D01*
X-1703590Y-1454942D01*
X-1703898Y-1451902D01*
X-1704406Y-1448887D01*
X-1705114Y-1445915D01*
X-1706018Y-1442996D01*
X-1707118Y-1440144D01*
X-1708403Y-1437370D01*
X-1709874Y-1434691D01*
X-1711518Y-1432115D01*
X-1713331Y-1429654D01*
X-1715305Y-1427319D01*
X-1717428Y-1425122D01*
X-1719696Y-1423073D01*
X-1722094Y-1421178D01*
X-1724614Y-1419448D01*
X-1727245Y-1417891D01*
X-1729973Y-1416512D01*
X-1732787Y-1415318D01*
X-1735673Y-1414315D01*
X-1738622Y-1413510D01*
X-1741617Y-1412900D01*
X-1744647Y-1412491D01*
X-1747695Y-1412288D01*
X-1750753Y-1412288D01*
X-1753801Y-1412491D01*
X-1756831Y-1412900D01*
X-1759826Y-1413510D01*
X-1762775Y-1414315D01*
X-1765660Y-1415318D01*
X-1768475Y-1416512D01*
X-1771202Y-1417891D01*
X-1773834Y-1419448D01*
X-1776354Y-1421178D01*
X-1778751Y-1423073D01*
X-1781020Y-1425122D01*
X-1783143Y-1427319D01*
X-1785117Y-1429654D01*
X-1786930Y-1432115D01*
X-1788574Y-1434691D01*
X-1790044Y-1437370D01*
X-1791329Y-1440144D01*
X-1792429Y-1442996D01*
X-1793333Y-1445915D01*
X-1794042Y-1448887D01*
X-1794550Y-1451902D01*
X-1794857Y-1454942D01*
X-1794959Y-1457998D01*
X-1794857Y-1461053D01*
X-1794550Y-1464094D01*
X-1794042Y-1467109D01*
X-1793333Y-1470080D01*
X-1792429Y-1472999D01*
X-1791329Y-1475851D01*
X-1790044Y-1478625D01*
X-1788574Y-1481305D01*
X-1786930Y-1483880D01*
X-1785117Y-1486341D01*
X-1783143Y-1488676D01*
X-1781020Y-1490873D01*
X-1778751Y-1492923D01*
X-1776354Y-1494817D01*
X-1773834Y-1496547D01*
X-1771202Y-1498104D01*
X-1768475Y-1499483D01*
X-1765660Y-1500677D01*
X-1762775Y-1501681D01*
X-1759826Y-1502486D01*
X-1756831Y-1503095D01*
X-1753801Y-1503504D01*
X-1750753Y-1503707D01*
X-1747695Y-1503707D01*
X-1744647Y-1503504D01*
X-1741617Y-1503095D01*
X-1738622Y-1502486D01*
X-1735673Y-1501681D01*
X-1732787Y-1500677D01*
X-1729973Y-1499483D01*
X-1729130Y-1499057D01*
X-1729607Y-1500088D01*
X-1730707Y-1502940D01*
X-1731611Y-1505859D01*
X-1732320Y-1508831D01*
X-1732828Y-1511846D01*
X-1733135Y-1514886D01*
X-1733237Y-1517942D01*
X-1733135Y-1520997D01*
X-1732828Y-1524038D01*
X-1732320Y-1527053D01*
X-1731611Y-1530024D01*
X-1730707Y-1532943D01*
X-1729607Y-1535795D01*
X-1728322Y-1538569D01*
X-1726852Y-1541249D01*
X-1725208Y-1543824D01*
X-1723395Y-1546285D01*
X-1721421Y-1548620D01*
X-1719298Y-1550817D01*
X-1717029Y-1552867D01*
X-1714632Y-1554761D01*
X-1712112Y-1556491D01*
X-1709480Y-1558048D01*
X-1706752Y-1559427D01*
X-1703938Y-1560621D01*
X-1701053Y-1561625D01*
X-1698104Y-1562430D01*
X-1695109Y-1563039D01*
X-1692079Y-1563448D01*
X-1689031Y-1563651D01*
X-1685973Y-1563651D01*
X-1682925Y-1563448D01*
X-1679895Y-1563039D01*
X-1676900Y-1562430D01*
X-1673951Y-1561625D01*
X-1671065Y-1560621D01*
X-1668251Y-1559427D01*
X-1665523Y-1558048D01*
X-1662892Y-1556491D01*
X-1660372Y-1554761D01*
X-1660166Y-1554599D01*
X-1659930Y-1556009D01*
X-1659221Y-1558980D01*
X-1658317Y-1561899D01*
X-1657217Y-1564751D01*
X-1655932Y-1567525D01*
X-1654462Y-1570205D01*
X-1652818Y-1572780D01*
X-1651005Y-1575241D01*
X-1649031Y-1577576D01*
X-1646908Y-1579773D01*
X-1644639Y-1581823D01*
X-1642242Y-1583717D01*
X-1639722Y-1585447D01*
X-1637090Y-1587004D01*
X-1634362Y-1588383D01*
X-1631548Y-1589577D01*
X-1628663Y-1590581D01*
X-1625714Y-1591386D01*
X-1622719Y-1591995D01*
X-1619689Y-1592404D01*
G37*
G36*
X-781057Y-1560578D02*
G01*
X-777999Y-1560578D01*
X-774951Y-1560375D01*
X-771921Y-1559966D01*
X-768926Y-1559356D01*
X-765977Y-1558551D01*
X-763092Y-1557548D01*
X-760277Y-1556354D01*
X-757549Y-1554975D01*
X-754918Y-1553418D01*
X-752398Y-1551688D01*
X-750001Y-1549793D01*
X-747732Y-1547743D01*
X-745609Y-1545546D01*
X-743635Y-1543212D01*
X-741822Y-1540751D01*
X-740178Y-1538175D01*
X-738708Y-1535496D01*
X-737422Y-1532722D01*
X-736323Y-1529869D01*
X-735418Y-1526951D01*
X-734710Y-1523979D01*
X-734202Y-1520964D01*
X-733894Y-1517924D01*
X-733793Y-1514868D01*
X-733894Y-1511813D01*
X-734202Y-1508772D01*
X-734710Y-1505757D01*
X-735418Y-1502785D01*
X-736323Y-1499867D01*
X-737422Y-1497015D01*
X-738708Y-1494241D01*
X-740178Y-1491561D01*
X-741822Y-1488986D01*
X-743635Y-1486524D01*
X-745609Y-1484190D01*
X-747732Y-1481993D01*
X-750001Y-1479943D01*
X-752398Y-1478048D01*
X-754918Y-1476319D01*
X-757549Y-1474762D01*
X-760277Y-1473382D01*
X-763092Y-1472189D01*
X-765977Y-1471185D01*
X-768926Y-1470380D01*
X-771921Y-1469770D01*
X-774951Y-1469362D01*
X-777999Y-1469158D01*
X-781057Y-1469158D01*
X-784105Y-1469362D01*
X-787135Y-1469770D01*
X-790130Y-1470380D01*
X-793079Y-1471185D01*
X-795964Y-1472189D01*
X-798779Y-1473382D01*
X-801507Y-1474762D01*
X-804138Y-1476319D01*
X-806658Y-1478048D01*
X-809056Y-1479943D01*
X-811324Y-1481993D01*
X-813447Y-1484190D01*
X-815421Y-1486524D01*
X-817234Y-1488986D01*
X-818878Y-1491561D01*
X-820348Y-1494241D01*
X-821634Y-1497015D01*
X-822418Y-1499049D01*
X-822670Y-1497553D01*
X-823379Y-1494581D01*
X-824283Y-1491663D01*
X-825383Y-1488810D01*
X-826668Y-1486037D01*
X-828139Y-1483357D01*
X-829782Y-1480781D01*
X-831595Y-1478320D01*
X-833569Y-1475986D01*
X-835693Y-1473789D01*
X-837961Y-1471739D01*
X-840359Y-1469844D01*
X-842878Y-1468114D01*
X-845510Y-1466557D01*
X-848238Y-1465178D01*
X-851052Y-1463984D01*
X-853937Y-1462981D01*
X-856886Y-1462176D01*
X-859881Y-1461566D01*
X-862911Y-1461157D01*
X-865959Y-1460954D01*
X-869017Y-1460954D01*
X-872065Y-1461157D01*
X-875096Y-1461566D01*
X-878090Y-1462176D01*
X-881039Y-1462981D01*
X-883925Y-1463984D01*
X-886739Y-1465178D01*
X-889467Y-1466557D01*
X-892098Y-1468114D01*
X-894618Y-1469844D01*
X-897016Y-1471739D01*
X-899284Y-1473789D01*
X-901407Y-1475986D01*
X-903381Y-1478320D01*
X-905195Y-1480781D01*
X-906838Y-1483357D01*
X-908309Y-1486037D01*
X-909594Y-1488810D01*
X-910694Y-1491663D01*
X-911598Y-1494581D01*
X-912307Y-1497553D01*
X-912815Y-1500568D01*
X-913122Y-1503608D01*
X-913223Y-1506664D01*
X-913122Y-1509720D01*
X-912815Y-1512760D01*
X-912307Y-1515775D01*
X-911598Y-1518747D01*
X-910694Y-1521665D01*
X-909594Y-1524518D01*
X-908309Y-1527291D01*
X-906838Y-1529971D01*
X-905195Y-1532547D01*
X-903381Y-1535008D01*
X-901407Y-1537342D01*
X-899284Y-1539539D01*
X-897016Y-1541589D01*
X-894618Y-1543484D01*
X-892098Y-1545214D01*
X-889467Y-1546771D01*
X-886739Y-1548150D01*
X-883925Y-1549344D01*
X-881039Y-1550347D01*
X-878090Y-1551152D01*
X-875096Y-1551762D01*
X-872065Y-1552171D01*
X-869017Y-1552374D01*
X-865959Y-1552374D01*
X-862911Y-1552171D01*
X-859881Y-1551762D01*
X-856886Y-1551152D01*
X-853937Y-1550347D01*
X-851052Y-1549344D01*
X-848238Y-1548150D01*
X-845510Y-1546771D01*
X-842878Y-1545214D01*
X-840359Y-1543484D01*
X-837961Y-1541589D01*
X-835693Y-1539539D01*
X-833569Y-1537342D01*
X-831595Y-1535008D01*
X-829782Y-1532547D01*
X-828139Y-1529971D01*
X-826668Y-1527291D01*
X-825383Y-1524518D01*
X-824598Y-1522483D01*
X-824346Y-1523979D01*
X-823638Y-1526951D01*
X-822733Y-1529869D01*
X-821634Y-1532722D01*
X-820348Y-1535496D01*
X-818878Y-1538175D01*
X-817234Y-1540751D01*
X-815421Y-1543212D01*
X-813447Y-1545546D01*
X-811324Y-1547743D01*
X-809056Y-1549793D01*
X-806658Y-1551688D01*
X-804138Y-1553418D01*
X-801507Y-1554975D01*
X-798779Y-1556354D01*
X-795964Y-1557548D01*
X-793079Y-1558551D01*
X-790130Y-1559356D01*
X-787135Y-1559966D01*
X-784105Y-1560375D01*
G37*
G36*
X-410014Y-1520624D02*
G01*
X-406956Y-1520624D01*
X-403908Y-1520421D01*
X-400878Y-1520012D01*
X-397883Y-1519402D01*
X-394934Y-1518597D01*
X-392048Y-1517594D01*
X-389234Y-1516400D01*
X-386506Y-1515021D01*
X-383875Y-1513464D01*
X-381355Y-1511734D01*
X-378957Y-1509839D01*
X-376689Y-1507789D01*
X-374566Y-1505592D01*
X-372592Y-1503258D01*
X-370779Y-1500797D01*
X-369135Y-1498221D01*
X-367664Y-1495541D01*
X-366379Y-1492768D01*
X-365279Y-1489915D01*
X-364375Y-1486997D01*
X-363667Y-1484025D01*
X-363159Y-1481010D01*
X-362851Y-1477970D01*
X-362750Y-1474914D01*
X-362851Y-1471858D01*
X-363159Y-1468818D01*
X-363667Y-1465803D01*
X-364375Y-1462831D01*
X-365279Y-1459913D01*
X-366379Y-1457060D01*
X-367664Y-1454287D01*
X-369135Y-1451607D01*
X-370779Y-1449031D01*
X-372592Y-1446570D01*
X-374566Y-1444236D01*
X-376689Y-1442039D01*
X-378957Y-1439989D01*
X-381355Y-1438094D01*
X-383875Y-1436364D01*
X-386506Y-1434807D01*
X-389234Y-1433428D01*
X-392048Y-1432234D01*
X-394934Y-1431231D01*
X-397883Y-1430426D01*
X-400878Y-1429816D01*
X-403908Y-1429407D01*
X-406956Y-1429204D01*
X-410014Y-1429204D01*
X-413062Y-1429407D01*
X-416092Y-1429816D01*
X-419087Y-1430426D01*
X-422036Y-1431231D01*
X-424921Y-1432234D01*
X-427736Y-1433428D01*
X-430463Y-1434807D01*
X-433095Y-1436364D01*
X-435615Y-1438094D01*
X-438012Y-1439989D01*
X-440281Y-1442039D01*
X-442404Y-1444236D01*
X-444378Y-1446570D01*
X-446191Y-1449031D01*
X-447835Y-1451607D01*
X-449305Y-1454287D01*
X-450590Y-1457060D01*
X-451690Y-1459913D01*
X-452594Y-1462831D01*
X-453303Y-1465803D01*
X-453811Y-1468818D01*
X-454118Y-1471858D01*
X-454220Y-1474914D01*
X-454118Y-1477970D01*
X-453811Y-1481010D01*
X-453303Y-1484025D01*
X-452594Y-1486997D01*
X-451690Y-1489915D01*
X-450590Y-1492768D01*
X-449305Y-1495541D01*
X-447835Y-1498221D01*
X-446191Y-1500797D01*
X-444378Y-1503258D01*
X-442404Y-1505592D01*
X-440281Y-1507789D01*
X-438012Y-1509839D01*
X-435615Y-1511734D01*
X-433095Y-1513464D01*
X-430463Y-1515021D01*
X-427736Y-1516400D01*
X-424921Y-1517594D01*
X-422036Y-1518597D01*
X-419087Y-1519402D01*
X-416092Y-1520012D01*
X-413062Y-1520421D01*
G37*
G36*
X-1823397Y-1438429D02*
G01*
X-1820339Y-1438429D01*
X-1817291Y-1438226D01*
X-1814261Y-1437817D01*
X-1811266Y-1437208D01*
X-1808317Y-1436403D01*
X-1805431Y-1435399D01*
X-1802617Y-1434205D01*
X-1799889Y-1432826D01*
X-1797258Y-1431269D01*
X-1794738Y-1429539D01*
X-1792340Y-1427645D01*
X-1790072Y-1425595D01*
X-1787949Y-1423398D01*
X-1785975Y-1421063D01*
X-1784162Y-1418602D01*
X-1782518Y-1416027D01*
X-1781047Y-1413347D01*
X-1779762Y-1410573D01*
X-1778662Y-1407721D01*
X-1777758Y-1404802D01*
X-1777050Y-1401831D01*
X-1776542Y-1398816D01*
X-1776234Y-1395775D01*
X-1776133Y-1392720D01*
X-1776234Y-1389664D01*
X-1776542Y-1386624D01*
X-1777050Y-1383609D01*
X-1777758Y-1380637D01*
X-1778662Y-1377718D01*
X-1779762Y-1374866D01*
X-1781047Y-1372092D01*
X-1782518Y-1369413D01*
X-1784162Y-1366837D01*
X-1785975Y-1364376D01*
X-1787949Y-1362041D01*
X-1790072Y-1359844D01*
X-1792340Y-1357795D01*
X-1794738Y-1355900D01*
X-1797258Y-1354170D01*
X-1799889Y-1352613D01*
X-1802617Y-1351234D01*
X-1805431Y-1350040D01*
X-1808317Y-1349037D01*
X-1811266Y-1348231D01*
X-1814261Y-1347622D01*
X-1817291Y-1347213D01*
X-1820339Y-1347010D01*
X-1823397Y-1347010D01*
X-1826445Y-1347213D01*
X-1829475Y-1347622D01*
X-1832470Y-1348231D01*
X-1835419Y-1349037D01*
X-1838304Y-1350040D01*
X-1841118Y-1351234D01*
X-1843846Y-1352613D01*
X-1846478Y-1354170D01*
X-1848998Y-1355900D01*
X-1851395Y-1357795D01*
X-1853664Y-1359844D01*
X-1855787Y-1362041D01*
X-1857761Y-1364376D01*
X-1859574Y-1366837D01*
X-1861218Y-1369413D01*
X-1862688Y-1372092D01*
X-1863973Y-1374866D01*
X-1865073Y-1377718D01*
X-1865977Y-1380637D01*
X-1866686Y-1383609D01*
X-1867194Y-1386624D01*
X-1867501Y-1389664D01*
X-1867603Y-1392720D01*
X-1867501Y-1395775D01*
X-1867194Y-1398816D01*
X-1866686Y-1401831D01*
X-1865977Y-1404802D01*
X-1865073Y-1407721D01*
X-1863973Y-1410573D01*
X-1862688Y-1413347D01*
X-1861218Y-1416027D01*
X-1859574Y-1418602D01*
X-1857761Y-1421063D01*
X-1855787Y-1423398D01*
X-1853664Y-1425595D01*
X-1851395Y-1427645D01*
X-1848998Y-1429539D01*
X-1846478Y-1431269D01*
X-1843846Y-1432826D01*
X-1841118Y-1434205D01*
X-1838304Y-1435399D01*
X-1835419Y-1436403D01*
X-1832470Y-1437208D01*
X-1829475Y-1437817D01*
X-1826445Y-1438226D01*
G37*
G36*
X-322994Y-1435709D02*
G01*
X-322242Y-1435699D01*
X-319252Y-1435587D01*
X-318503Y-1435539D01*
X-315521Y-1435277D01*
X-314782Y-1435196D01*
X-311818Y-1434787D01*
X-311078Y-1434665D01*
X-308140Y-1434109D01*
X-307413Y-1433954D01*
X-304505Y-1433253D01*
X-303781Y-1433057D01*
X-300911Y-1432212D01*
X-300192Y-1431980D01*
X-297370Y-1430992D01*
X-296674Y-1430728D01*
X-293903Y-1429600D01*
X-293217Y-1429303D01*
X-290504Y-1428038D01*
X-289836Y-1427706D01*
X-287192Y-1426309D01*
X-286537Y-1425940D01*
X-283964Y-1424411D01*
X-283331Y-1424015D01*
X-280840Y-1422361D01*
X-280233Y-1421937D01*
X-277825Y-1420162D01*
X-277223Y-1419692D01*
X-274909Y-1417797D01*
X-274355Y-1417319D01*
X-272135Y-1415313D01*
X-271586Y-1414792D01*
X-269471Y-1412676D01*
X-268950Y-1412128D01*
X-266943Y-1409908D01*
X-266466Y-1409354D01*
X-264571Y-1407040D01*
X-264101Y-1406438D01*
X-262326Y-1404030D01*
X-261901Y-1403423D01*
X-260248Y-1400931D01*
X-259852Y-1400299D01*
X-258323Y-1397726D01*
X-257954Y-1397071D01*
X-256557Y-1394426D01*
X-256225Y-1393758D01*
X-254960Y-1391046D01*
X-254662Y-1390360D01*
X-253535Y-1387589D01*
X-253271Y-1386893D01*
X-252282Y-1384071D01*
X-252051Y-1383352D01*
X-251205Y-1380482D01*
X-251010Y-1379758D01*
X-250309Y-1376850D01*
X-250154Y-1376123D01*
X-249598Y-1373184D01*
X-249476Y-1372445D01*
X-249067Y-1369481D01*
X-248986Y-1368742D01*
X-248724Y-1365760D01*
X-248676Y-1365011D01*
X-248564Y-1362021D01*
X-248554Y-1361269D01*
X-248592Y-1358280D01*
X-248620Y-1357541D01*
X-248805Y-1354554D01*
X-248871Y-1353802D01*
X-249207Y-1350830D01*
X-249308Y-1350093D01*
X-249791Y-1347139D01*
X-249930Y-1346398D01*
X-250560Y-1343474D01*
X-250733Y-1342763D01*
X-251505Y-1339872D01*
X-251724Y-1339133D01*
X-252643Y-1336286D01*
X-252884Y-1335598D01*
X-253941Y-1332798D01*
X-254226Y-1332095D01*
X-255422Y-1329354D01*
X-255737Y-1328684D01*
X-257068Y-1326004D01*
X-257423Y-1325328D01*
X-258889Y-1322720D01*
X-259262Y-1322090D01*
X-260852Y-1319557D01*
X-261272Y-1318928D01*
X-262989Y-1316476D01*
X-263431Y-1315877D01*
X-265267Y-1313515D01*
X-265737Y-1312941D01*
X-267688Y-1310673D01*
X-268196Y-1310111D01*
X-270258Y-1307945D01*
X-270517Y-1307680D01*
X-341226Y-1236972D01*
X-341490Y-1236713D01*
X-343656Y-1234650D01*
X-344218Y-1234142D01*
X-346486Y-1232192D01*
X-347060Y-1231722D01*
X-349422Y-1229885D01*
X-350022Y-1229443D01*
X-352473Y-1227726D01*
X-353103Y-1227307D01*
X-355635Y-1225717D01*
X-356265Y-1225344D01*
X-358874Y-1223878D01*
X-359549Y-1223523D01*
X-362229Y-1222192D01*
X-362899Y-1221877D01*
X-365640Y-1220680D01*
X-366344Y-1220396D01*
X-369143Y-1219339D01*
X-369831Y-1219098D01*
X-372678Y-1218178D01*
X-373418Y-1217960D01*
X-376308Y-1217188D01*
X-377019Y-1217015D01*
X-379943Y-1216385D01*
X-380685Y-1216245D01*
X-383639Y-1215763D01*
X-384375Y-1215661D01*
X-387347Y-1215326D01*
X-388099Y-1215260D01*
X-391086Y-1215075D01*
X-391825Y-1215047D01*
X-394815Y-1215009D01*
X-395566Y-1215019D01*
X-398556Y-1215130D01*
X-399305Y-1215179D01*
X-402287Y-1215440D01*
X-403026Y-1215522D01*
X-405991Y-1215931D01*
X-406730Y-1216052D01*
X-409668Y-1216609D01*
X-410395Y-1216764D01*
X-413303Y-1217465D01*
X-414027Y-1217660D01*
X-416897Y-1218506D01*
X-417616Y-1218737D01*
X-420438Y-1219725D01*
X-421134Y-1219989D01*
X-423905Y-1221117D01*
X-424591Y-1221414D01*
X-427304Y-1222679D01*
X-427972Y-1223012D01*
X-430616Y-1224409D01*
X-431271Y-1224777D01*
X-433844Y-1226306D01*
X-434477Y-1226703D01*
X-436968Y-1228356D01*
X-437575Y-1228780D01*
X-439983Y-1230556D01*
X-440585Y-1231026D01*
X-442899Y-1232921D01*
X-443453Y-1233398D01*
X-445673Y-1235405D01*
X-446222Y-1235925D01*
X-448337Y-1238041D01*
X-448858Y-1238590D01*
X-450865Y-1240810D01*
X-451342Y-1241364D01*
X-453237Y-1243677D01*
X-453707Y-1244279D01*
X-455482Y-1246687D01*
X-455907Y-1247294D01*
X-457560Y-1249786D01*
X-457956Y-1250419D01*
X-459486Y-1252992D01*
X-459854Y-1253647D01*
X-461251Y-1256291D01*
X-461584Y-1256959D01*
X-462848Y-1259672D01*
X-463146Y-1260358D01*
X-464273Y-1263129D01*
X-464538Y-1263825D01*
X-465526Y-1266647D01*
X-465757Y-1267366D01*
X-466603Y-1270236D01*
X-466798Y-1270960D01*
X-467499Y-1273868D01*
X-467654Y-1274594D01*
X-468210Y-1277533D01*
X-468332Y-1278272D01*
X-468741Y-1281236D01*
X-468823Y-1281976D01*
X-469084Y-1284958D01*
X-469132Y-1285707D01*
X-469244Y-1288696D01*
X-469254Y-1289448D01*
X-469216Y-1292438D01*
X-469188Y-1293177D01*
X-469003Y-1296164D01*
X-468937Y-1296916D01*
X-468602Y-1299888D01*
X-468500Y-1300624D01*
X-468017Y-1303578D01*
X-467878Y-1304320D01*
X-467248Y-1307244D01*
X-467075Y-1307955D01*
X-466303Y-1310845D01*
X-466084Y-1311584D01*
X-465165Y-1314432D01*
X-464924Y-1315120D01*
X-463867Y-1317919D01*
X-463583Y-1318623D01*
X-462386Y-1321363D01*
X-462071Y-1322034D01*
X-460740Y-1324714D01*
X-460385Y-1325389D01*
X-458919Y-1327998D01*
X-458546Y-1328628D01*
X-456956Y-1331160D01*
X-456537Y-1331790D01*
X-454820Y-1334241D01*
X-454378Y-1334841D01*
X-452541Y-1337203D01*
X-452071Y-1337777D01*
X-450121Y-1340045D01*
X-449613Y-1340606D01*
X-447550Y-1342773D01*
X-447291Y-1343037D01*
X-376582Y-1413746D01*
X-376318Y-1414005D01*
X-374152Y-1416067D01*
X-373590Y-1416575D01*
X-371322Y-1418526D01*
X-370748Y-1418996D01*
X-368386Y-1420832D01*
X-367786Y-1421274D01*
X-365335Y-1422991D01*
X-364705Y-1423410D01*
X-362173Y-1425000D01*
X-361543Y-1425374D01*
X-358935Y-1426839D01*
X-358259Y-1427195D01*
X-355579Y-1428526D01*
X-354909Y-1428841D01*
X-352168Y-1430037D01*
X-351464Y-1430322D01*
X-348665Y-1431378D01*
X-347977Y-1431620D01*
X-345130Y-1432539D01*
X-344390Y-1432758D01*
X-341500Y-1433530D01*
X-340789Y-1433702D01*
X-337865Y-1434332D01*
X-337124Y-1434472D01*
X-334170Y-1434955D01*
X-333433Y-1435056D01*
X-330461Y-1435392D01*
X-329709Y-1435458D01*
X-326722Y-1435643D01*
X-325983Y-1435671D01*
G37*
G36*
X-1885119Y-1369341D02*
G01*
X-1882061Y-1369341D01*
X-1879013Y-1369138D01*
X-1875983Y-1368729D01*
X-1872988Y-1368120D01*
X-1870039Y-1367315D01*
X-1867153Y-1366311D01*
X-1864339Y-1365117D01*
X-1861611Y-1363738D01*
X-1858980Y-1362181D01*
X-1856460Y-1360451D01*
X-1854062Y-1358557D01*
X-1851794Y-1356507D01*
X-1849671Y-1354310D01*
X-1847697Y-1351975D01*
X-1845884Y-1349514D01*
X-1844240Y-1346939D01*
X-1842769Y-1344259D01*
X-1841484Y-1341485D01*
X-1840384Y-1338633D01*
X-1839480Y-1335714D01*
X-1838772Y-1332743D01*
X-1838264Y-1329728D01*
X-1837956Y-1326687D01*
X-1837855Y-1323632D01*
X-1837956Y-1320576D01*
X-1838264Y-1317536D01*
X-1838772Y-1314521D01*
X-1839480Y-1311549D01*
X-1840384Y-1308630D01*
X-1841484Y-1305778D01*
X-1842769Y-1303004D01*
X-1844240Y-1300325D01*
X-1845884Y-1297749D01*
X-1847697Y-1295288D01*
X-1849671Y-1292953D01*
X-1851794Y-1290756D01*
X-1854062Y-1288707D01*
X-1856460Y-1286812D01*
X-1858980Y-1285082D01*
X-1861611Y-1283525D01*
X-1864339Y-1282146D01*
X-1867153Y-1280952D01*
X-1870039Y-1279949D01*
X-1872988Y-1279143D01*
X-1875983Y-1278534D01*
X-1879013Y-1278125D01*
X-1882061Y-1277922D01*
X-1885119Y-1277922D01*
X-1888167Y-1278125D01*
X-1891197Y-1278534D01*
X-1894192Y-1279143D01*
X-1897141Y-1279949D01*
X-1900026Y-1280952D01*
X-1902840Y-1282146D01*
X-1905568Y-1283525D01*
X-1908200Y-1285082D01*
X-1910720Y-1286812D01*
X-1913117Y-1288707D01*
X-1915386Y-1290756D01*
X-1917509Y-1292953D01*
X-1919483Y-1295288D01*
X-1921296Y-1297749D01*
X-1922940Y-1300325D01*
X-1924410Y-1303004D01*
X-1925695Y-1305778D01*
X-1926795Y-1308630D01*
X-1927699Y-1311549D01*
X-1928408Y-1314521D01*
X-1928916Y-1317536D01*
X-1929223Y-1320576D01*
X-1929325Y-1323632D01*
X-1929223Y-1326687D01*
X-1928916Y-1329728D01*
X-1928408Y-1332743D01*
X-1927699Y-1335714D01*
X-1926795Y-1338633D01*
X-1925695Y-1341485D01*
X-1924410Y-1344259D01*
X-1922940Y-1346939D01*
X-1921296Y-1349514D01*
X-1919483Y-1351975D01*
X-1917509Y-1354310D01*
X-1915386Y-1356507D01*
X-1913117Y-1358557D01*
X-1910720Y-1360451D01*
X-1908200Y-1362181D01*
X-1905568Y-1363738D01*
X-1902840Y-1365117D01*
X-1900026Y-1366311D01*
X-1897141Y-1367315D01*
X-1894192Y-1368120D01*
X-1891197Y-1368729D01*
X-1888167Y-1369138D01*
G37*
G36*
X-1275671Y-1282372D02*
G01*
X-1272613Y-1282372D01*
X-1269565Y-1282169D01*
X-1266535Y-1281760D01*
X-1263540Y-1281150D01*
X-1260591Y-1280345D01*
X-1257706Y-1279342D01*
X-1254892Y-1278148D01*
X-1252164Y-1276769D01*
X-1249532Y-1275212D01*
X-1247012Y-1273482D01*
X-1244615Y-1271587D01*
X-1242347Y-1269537D01*
X-1240223Y-1267340D01*
X-1238250Y-1265006D01*
X-1236436Y-1262545D01*
X-1234793Y-1259969D01*
X-1233322Y-1257289D01*
X-1232037Y-1254516D01*
X-1230937Y-1251663D01*
X-1230033Y-1248745D01*
X-1229324Y-1245773D01*
X-1228816Y-1242758D01*
X-1228509Y-1239718D01*
X-1228407Y-1236662D01*
X-1228509Y-1233606D01*
X-1228816Y-1230566D01*
X-1229324Y-1227551D01*
X-1230033Y-1224579D01*
X-1230937Y-1221661D01*
X-1232037Y-1218808D01*
X-1233322Y-1216035D01*
X-1234793Y-1213355D01*
X-1236436Y-1210779D01*
X-1238250Y-1208318D01*
X-1240223Y-1205984D01*
X-1242347Y-1203787D01*
X-1244615Y-1201737D01*
X-1247012Y-1199842D01*
X-1249532Y-1198112D01*
X-1252164Y-1196555D01*
X-1254892Y-1195176D01*
X-1257706Y-1193982D01*
X-1260591Y-1192979D01*
X-1263540Y-1192174D01*
X-1266535Y-1191564D01*
X-1269565Y-1191155D01*
X-1272613Y-1190952D01*
X-1275671Y-1190952D01*
X-1278719Y-1191155D01*
X-1281750Y-1191564D01*
X-1284744Y-1192174D01*
X-1287693Y-1192979D01*
X-1290579Y-1193982D01*
X-1293393Y-1195176D01*
X-1296121Y-1196555D01*
X-1298752Y-1198112D01*
X-1301272Y-1199842D01*
X-1303670Y-1201737D01*
X-1305938Y-1203787D01*
X-1308061Y-1205984D01*
X-1310035Y-1208318D01*
X-1311849Y-1210779D01*
X-1313492Y-1213355D01*
X-1314963Y-1216035D01*
X-1316248Y-1218808D01*
X-1317348Y-1221661D01*
X-1318252Y-1224579D01*
X-1318961Y-1227551D01*
X-1319469Y-1230566D01*
X-1319776Y-1233606D01*
X-1319877Y-1236662D01*
X-1319776Y-1239718D01*
X-1319469Y-1242758D01*
X-1318961Y-1245773D01*
X-1318252Y-1248745D01*
X-1317348Y-1251663D01*
X-1316248Y-1254516D01*
X-1314963Y-1257289D01*
X-1313492Y-1259969D01*
X-1311849Y-1262545D01*
X-1310035Y-1265006D01*
X-1308061Y-1267340D01*
X-1305938Y-1269537D01*
X-1303670Y-1271587D01*
X-1301272Y-1273482D01*
X-1298752Y-1275212D01*
X-1296121Y-1276769D01*
X-1293393Y-1278148D01*
X-1290579Y-1279342D01*
X-1287693Y-1280345D01*
X-1284744Y-1281150D01*
X-1281750Y-1281760D01*
X-1278719Y-1282169D01*
G37*
G36*
X-615246Y-1215824D02*
G01*
X-612188Y-1215824D01*
X-609140Y-1215621D01*
X-606110Y-1215212D01*
X-603115Y-1214602D01*
X-600166Y-1213797D01*
X-597280Y-1212794D01*
X-594466Y-1211600D01*
X-591738Y-1210221D01*
X-589107Y-1208664D01*
X-586587Y-1206934D01*
X-584189Y-1205039D01*
X-581921Y-1202989D01*
X-579798Y-1200792D01*
X-577824Y-1198458D01*
X-576011Y-1195997D01*
X-574367Y-1193421D01*
X-572896Y-1190741D01*
X-571611Y-1187968D01*
X-570511Y-1185115D01*
X-569927Y-1183233D01*
X-568685Y-1185915D01*
X-567215Y-1188595D01*
X-565571Y-1191171D01*
X-563758Y-1193632D01*
X-561784Y-1195966D01*
X-559661Y-1198163D01*
X-557392Y-1200213D01*
X-554995Y-1202108D01*
X-552475Y-1203838D01*
X-549843Y-1205395D01*
X-547115Y-1206774D01*
X-544301Y-1207968D01*
X-541416Y-1208971D01*
X-538467Y-1209776D01*
X-535472Y-1210386D01*
X-532442Y-1210795D01*
X-529394Y-1210998D01*
X-526336Y-1210998D01*
X-523288Y-1210795D01*
X-520258Y-1210386D01*
X-517263Y-1209776D01*
X-514314Y-1208971D01*
X-511428Y-1207968D01*
X-508614Y-1206774D01*
X-505886Y-1205395D01*
X-503255Y-1203838D01*
X-500735Y-1202108D01*
X-498337Y-1200213D01*
X-496069Y-1198163D01*
X-493946Y-1195966D01*
X-491972Y-1193632D01*
X-490159Y-1191171D01*
X-488515Y-1188595D01*
X-487044Y-1185915D01*
X-485759Y-1183142D01*
X-484659Y-1180289D01*
X-483755Y-1177371D01*
X-483047Y-1174399D01*
X-482539Y-1171384D01*
X-482231Y-1168344D01*
X-482130Y-1165288D01*
X-482231Y-1162232D01*
X-482539Y-1159192D01*
X-483047Y-1156177D01*
X-483755Y-1153205D01*
X-484659Y-1150287D01*
X-485759Y-1147434D01*
X-487044Y-1144661D01*
X-488515Y-1141981D01*
X-490159Y-1139405D01*
X-491972Y-1136944D01*
X-493946Y-1134610D01*
X-496069Y-1132413D01*
X-498337Y-1130363D01*
X-500735Y-1128468D01*
X-503255Y-1126738D01*
X-505886Y-1125181D01*
X-508614Y-1123802D01*
X-511428Y-1122608D01*
X-514314Y-1121605D01*
X-517263Y-1120800D01*
X-520258Y-1120190D01*
X-523288Y-1119781D01*
X-526336Y-1119578D01*
X-529394Y-1119578D01*
X-532442Y-1119781D01*
X-535472Y-1120190D01*
X-538467Y-1120800D01*
X-541416Y-1121605D01*
X-544301Y-1122608D01*
X-547115Y-1123802D01*
X-549843Y-1125181D01*
X-552475Y-1126738D01*
X-554995Y-1128468D01*
X-557392Y-1130363D01*
X-559661Y-1132413D01*
X-561784Y-1134610D01*
X-563758Y-1136944D01*
X-565571Y-1139405D01*
X-567215Y-1141981D01*
X-568685Y-1144661D01*
X-569970Y-1147434D01*
X-571070Y-1150287D01*
X-571654Y-1152169D01*
X-572896Y-1149487D01*
X-574367Y-1146807D01*
X-576011Y-1144231D01*
X-577824Y-1141770D01*
X-579798Y-1139436D01*
X-581921Y-1137239D01*
X-584189Y-1135189D01*
X-586587Y-1133294D01*
X-589107Y-1131564D01*
X-591738Y-1130007D01*
X-594466Y-1128628D01*
X-597280Y-1127434D01*
X-600166Y-1126431D01*
X-603115Y-1125626D01*
X-606110Y-1125016D01*
X-609140Y-1124607D01*
X-612188Y-1124404D01*
X-615246Y-1124404D01*
X-618294Y-1124607D01*
X-621324Y-1125016D01*
X-624319Y-1125626D01*
X-627268Y-1126431D01*
X-630153Y-1127434D01*
X-632968Y-1128628D01*
X-635695Y-1130007D01*
X-638327Y-1131564D01*
X-640847Y-1133294D01*
X-643244Y-1135189D01*
X-645513Y-1137239D01*
X-647636Y-1139436D01*
X-649610Y-1141770D01*
X-651423Y-1144231D01*
X-653067Y-1146807D01*
X-654537Y-1149487D01*
X-655822Y-1152260D01*
X-656922Y-1155113D01*
X-657826Y-1158031D01*
X-658535Y-1161003D01*
X-659043Y-1164018D01*
X-659350Y-1167058D01*
X-659452Y-1170114D01*
X-659350Y-1173170D01*
X-659043Y-1176210D01*
X-658535Y-1179225D01*
X-657826Y-1182197D01*
X-656922Y-1185115D01*
X-655822Y-1187968D01*
X-654537Y-1190741D01*
X-653067Y-1193421D01*
X-651423Y-1195997D01*
X-649610Y-1198458D01*
X-647636Y-1200792D01*
X-645513Y-1202989D01*
X-643244Y-1205039D01*
X-640847Y-1206934D01*
X-638327Y-1208664D01*
X-635695Y-1210221D01*
X-632968Y-1211600D01*
X-630153Y-1212794D01*
X-627268Y-1213797D01*
X-624319Y-1214602D01*
X-621324Y-1215212D01*
X-618294Y-1215621D01*
G37*
G36*
X-1660583Y-1048539D02*
G01*
X-1657525Y-1048539D01*
X-1654477Y-1048336D01*
X-1651447Y-1047927D01*
X-1648452Y-1047318D01*
X-1645503Y-1046513D01*
X-1642618Y-1045509D01*
X-1639803Y-1044315D01*
X-1637075Y-1042936D01*
X-1634444Y-1041379D01*
X-1631924Y-1039649D01*
X-1629526Y-1037755D01*
X-1627258Y-1035705D01*
X-1625135Y-1033508D01*
X-1623161Y-1031173D01*
X-1621348Y-1028712D01*
X-1619704Y-1026137D01*
X-1618234Y-1023457D01*
X-1616948Y-1020683D01*
X-1615848Y-1017831D01*
X-1614944Y-1014912D01*
X-1614236Y-1011941D01*
X-1613728Y-1008926D01*
X-1613420Y-1005885D01*
X-1613319Y-1002830D01*
X-1613420Y-999774D01*
X-1613728Y-996734D01*
X-1614236Y-993719D01*
X-1614944Y-990747D01*
X-1615848Y-987828D01*
X-1616948Y-984976D01*
X-1618234Y-982202D01*
X-1619704Y-979523D01*
X-1621348Y-976947D01*
X-1623161Y-974486D01*
X-1625135Y-972151D01*
X-1627258Y-969954D01*
X-1629526Y-967905D01*
X-1631924Y-966010D01*
X-1634444Y-964280D01*
X-1637075Y-962723D01*
X-1639803Y-961344D01*
X-1642618Y-960150D01*
X-1645503Y-959147D01*
X-1648452Y-958342D01*
X-1651447Y-957732D01*
X-1654477Y-957323D01*
X-1657525Y-957120D01*
X-1660583Y-957120D01*
X-1663631Y-957323D01*
X-1666661Y-957732D01*
X-1669656Y-958342D01*
X-1672605Y-959147D01*
X-1675490Y-960150D01*
X-1678304Y-961344D01*
X-1681032Y-962723D01*
X-1683664Y-964280D01*
X-1686184Y-966010D01*
X-1688581Y-967905D01*
X-1690850Y-969954D01*
X-1692973Y-972151D01*
X-1694947Y-974486D01*
X-1696760Y-976947D01*
X-1698404Y-979523D01*
X-1699874Y-982202D01*
X-1701159Y-984976D01*
X-1702259Y-987828D01*
X-1703163Y-990747D01*
X-1703872Y-993719D01*
X-1704380Y-996734D01*
X-1704687Y-999774D01*
X-1704789Y-1002830D01*
X-1704687Y-1005885D01*
X-1704380Y-1008926D01*
X-1703872Y-1011941D01*
X-1703163Y-1014912D01*
X-1702259Y-1017831D01*
X-1701159Y-1020683D01*
X-1699874Y-1023457D01*
X-1698404Y-1026137D01*
X-1696760Y-1028712D01*
X-1694947Y-1031173D01*
X-1692973Y-1033508D01*
X-1690850Y-1035705D01*
X-1688581Y-1037755D01*
X-1686184Y-1039649D01*
X-1683664Y-1041379D01*
X-1681032Y-1042936D01*
X-1678304Y-1044315D01*
X-1675490Y-1045509D01*
X-1672605Y-1046513D01*
X-1669656Y-1047318D01*
X-1666661Y-1047927D01*
X-1663631Y-1048336D01*
G37*
G36*
X-282735Y-989332D02*
G01*
X-279676Y-989332D01*
X-276628Y-989129D01*
X-273598Y-988720D01*
X-270603Y-988110D01*
X-267655Y-987305D01*
X-264769Y-986302D01*
X-261955Y-985108D01*
X-259227Y-983729D01*
X-256595Y-982172D01*
X-254076Y-980442D01*
X-251678Y-978547D01*
X-249410Y-976497D01*
X-247286Y-974300D01*
X-245313Y-971966D01*
X-243499Y-969505D01*
X-241856Y-966929D01*
X-240385Y-964250D01*
X-239100Y-961476D01*
X-238000Y-958623D01*
X-237096Y-955705D01*
X-236387Y-952733D01*
X-235879Y-949718D01*
X-235572Y-946678D01*
X-235470Y-943622D01*
X-235572Y-940567D01*
X-235879Y-937526D01*
X-236387Y-934511D01*
X-237096Y-931539D01*
X-238000Y-928621D01*
X-239100Y-925769D01*
X-240385Y-922995D01*
X-241856Y-920315D01*
X-243499Y-917740D01*
X-245313Y-915278D01*
X-247286Y-912944D01*
X-249410Y-910747D01*
X-251678Y-908697D01*
X-254076Y-906802D01*
X-256595Y-905073D01*
X-259227Y-903516D01*
X-261955Y-902136D01*
X-264769Y-900943D01*
X-267655Y-899939D01*
X-270603Y-899134D01*
X-273598Y-898525D01*
X-276628Y-898116D01*
X-279676Y-897912D01*
X-282735Y-897912D01*
X-285783Y-898116D01*
X-288813Y-898525D01*
X-288856Y-898532D01*
X-288533Y-897183D01*
X-288025Y-894168D01*
X-287718Y-891128D01*
X-287616Y-888072D01*
X-287718Y-885017D01*
X-288025Y-881976D01*
X-288533Y-878961D01*
X-289242Y-875990D01*
X-290146Y-873071D01*
X-291246Y-870219D01*
X-292531Y-867445D01*
X-294002Y-864765D01*
X-295645Y-862190D01*
X-297459Y-859729D01*
X-299432Y-857394D01*
X-301556Y-855197D01*
X-303824Y-853147D01*
X-306222Y-851253D01*
X-308742Y-849523D01*
X-311373Y-847966D01*
X-314101Y-846587D01*
X-316915Y-845393D01*
X-319801Y-844389D01*
X-322750Y-843584D01*
X-325744Y-842975D01*
X-328775Y-842566D01*
X-331823Y-842363D01*
X-334881Y-842363D01*
X-337929Y-842566D01*
X-340959Y-842975D01*
X-343954Y-843584D01*
X-346903Y-844389D01*
X-349788Y-845393D01*
X-352602Y-846587D01*
X-355330Y-847966D01*
X-357962Y-849523D01*
X-360481Y-851253D01*
X-362879Y-853147D01*
X-365147Y-855197D01*
X-367271Y-857394D01*
X-369244Y-859729D01*
X-371058Y-862190D01*
X-372701Y-864765D01*
X-374172Y-867445D01*
X-375457Y-870219D01*
X-376557Y-873071D01*
X-377461Y-875990D01*
X-378170Y-878961D01*
X-378678Y-881976D01*
X-378985Y-885017D01*
X-379087Y-888072D01*
X-378985Y-891128D01*
X-378678Y-894168D01*
X-378170Y-897183D01*
X-377461Y-900155D01*
X-376557Y-903074D01*
X-375457Y-905926D01*
X-374172Y-908700D01*
X-372701Y-911379D01*
X-371058Y-913955D01*
X-369244Y-916416D01*
X-367271Y-918751D01*
X-365147Y-920948D01*
X-362879Y-922997D01*
X-360481Y-924892D01*
X-357962Y-926622D01*
X-355330Y-928179D01*
X-352602Y-929558D01*
X-349788Y-930752D01*
X-346903Y-931755D01*
X-343954Y-932560D01*
X-340959Y-933170D01*
X-337929Y-933579D01*
X-334881Y-933782D01*
X-331823Y-933782D01*
X-328775Y-933579D01*
X-325744Y-933170D01*
X-325701Y-933162D01*
X-326024Y-934511D01*
X-326532Y-937526D01*
X-326839Y-940567D01*
X-326941Y-943622D01*
X-326839Y-946678D01*
X-326532Y-949718D01*
X-326024Y-952733D01*
X-325315Y-955705D01*
X-324411Y-958623D01*
X-323311Y-961476D01*
X-322026Y-964250D01*
X-320555Y-966929D01*
X-318912Y-969505D01*
X-317098Y-971966D01*
X-315125Y-974300D01*
X-313001Y-976497D01*
X-310733Y-978547D01*
X-308335Y-980442D01*
X-305815Y-982172D01*
X-303184Y-983729D01*
X-300456Y-985108D01*
X-297642Y-986302D01*
X-294756Y-987305D01*
X-291807Y-988110D01*
X-288813Y-988720D01*
X-285783Y-989129D01*
G37*
G36*
X-1719892Y-974524D02*
G01*
X-1716834Y-974524D01*
X-1713786Y-974321D01*
X-1710756Y-973912D01*
X-1707761Y-973302D01*
X-1704812Y-972497D01*
X-1701927Y-971494D01*
X-1699112Y-970300D01*
X-1696384Y-968921D01*
X-1693753Y-967364D01*
X-1691233Y-965634D01*
X-1688835Y-963739D01*
X-1686567Y-961689D01*
X-1684444Y-959492D01*
X-1682470Y-957158D01*
X-1680657Y-954697D01*
X-1679013Y-952121D01*
X-1677543Y-949441D01*
X-1676257Y-946668D01*
X-1675157Y-943815D01*
X-1674253Y-940897D01*
X-1673545Y-937925D01*
X-1673037Y-934910D01*
X-1672729Y-931870D01*
X-1672628Y-928814D01*
X-1672729Y-925758D01*
X-1673037Y-922718D01*
X-1673545Y-919703D01*
X-1674253Y-916731D01*
X-1675157Y-913813D01*
X-1676257Y-910960D01*
X-1677543Y-908187D01*
X-1679013Y-905507D01*
X-1680657Y-902931D01*
X-1682470Y-900470D01*
X-1684444Y-898136D01*
X-1686567Y-895939D01*
X-1688835Y-893889D01*
X-1691233Y-891994D01*
X-1693753Y-890264D01*
X-1696384Y-888707D01*
X-1699112Y-887328D01*
X-1701927Y-886134D01*
X-1704812Y-885131D01*
X-1707761Y-884326D01*
X-1710756Y-883716D01*
X-1713786Y-883307D01*
X-1716834Y-883104D01*
X-1719892Y-883104D01*
X-1722940Y-883307D01*
X-1725970Y-883716D01*
X-1728965Y-884326D01*
X-1731914Y-885131D01*
X-1734799Y-886134D01*
X-1737613Y-887328D01*
X-1740341Y-888707D01*
X-1742973Y-890264D01*
X-1745493Y-891994D01*
X-1747890Y-893889D01*
X-1750159Y-895939D01*
X-1752282Y-898136D01*
X-1754256Y-900470D01*
X-1756069Y-902931D01*
X-1757713Y-905507D01*
X-1759183Y-908187D01*
X-1760468Y-910960D01*
X-1761568Y-913813D01*
X-1762472Y-916731D01*
X-1763181Y-919703D01*
X-1763689Y-922718D01*
X-1763996Y-925758D01*
X-1764098Y-928814D01*
X-1763996Y-931870D01*
X-1763689Y-934910D01*
X-1763181Y-937925D01*
X-1762472Y-940897D01*
X-1761568Y-943815D01*
X-1760468Y-946668D01*
X-1759183Y-949441D01*
X-1757713Y-952121D01*
X-1756069Y-954697D01*
X-1754256Y-957158D01*
X-1752282Y-959492D01*
X-1750159Y-961689D01*
X-1747890Y-963739D01*
X-1745493Y-965634D01*
X-1742973Y-967364D01*
X-1740341Y-968921D01*
X-1737613Y-970300D01*
X-1734799Y-971494D01*
X-1731914Y-972497D01*
X-1728965Y-973302D01*
X-1725970Y-973912D01*
X-1722940Y-974321D01*
G37*
G36*
X754600Y-923797D02*
G01*
X755352Y-923787D01*
X758342Y-923676D01*
X759091Y-923627D01*
X762073Y-923366D01*
X762812Y-923284D01*
X765776Y-922875D01*
X766516Y-922754D01*
X769454Y-922197D01*
X770181Y-922042D01*
X773089Y-921341D01*
X773813Y-921146D01*
X776683Y-920300D01*
X777402Y-920069D01*
X780224Y-919081D01*
X780920Y-918817D01*
X783691Y-917689D01*
X784377Y-917392D01*
X787090Y-916127D01*
X787758Y-915794D01*
X790402Y-914397D01*
X791057Y-914029D01*
X793630Y-912500D01*
X794263Y-912103D01*
X796754Y-910450D01*
X797361Y-910026D01*
X799769Y-908250D01*
X800371Y-907780D01*
X802685Y-905885D01*
X803239Y-905408D01*
X805459Y-903401D01*
X806008Y-902881D01*
X808123Y-900765D01*
X808644Y-900216D01*
X810651Y-897996D01*
X811128Y-897442D01*
X813023Y-895129D01*
X813493Y-894527D01*
X815268Y-892119D01*
X815693Y-891512D01*
X817346Y-889020D01*
X817742Y-888387D01*
X819271Y-885814D01*
X819640Y-885159D01*
X821037Y-882515D01*
X821369Y-881847D01*
X822634Y-879134D01*
X822932Y-878448D01*
X824059Y-875677D01*
X824323Y-874981D01*
X825312Y-872159D01*
X825543Y-871440D01*
X826388Y-868570D01*
X826584Y-867846D01*
X827285Y-864938D01*
X827440Y-864212D01*
X827996Y-861273D01*
X828118Y-860534D01*
X828527Y-857570D01*
X828608Y-856830D01*
X828870Y-853848D01*
X828918Y-853099D01*
X829030Y-850110D01*
X829040Y-849358D01*
X829002Y-846368D01*
X828974Y-845629D01*
X828789Y-842642D01*
X828723Y-841890D01*
X828387Y-838918D01*
X828286Y-838182D01*
X827803Y-835228D01*
X827664Y-834486D01*
X827034Y-831562D01*
X826861Y-830851D01*
X826089Y-827961D01*
X825870Y-827222D01*
X824951Y-824374D01*
X824710Y-823686D01*
X823653Y-820887D01*
X823368Y-820183D01*
X822172Y-817443D01*
X821857Y-816772D01*
X820526Y-814092D01*
X820171Y-813417D01*
X818705Y-810808D01*
X818332Y-810178D01*
X816742Y-807646D01*
X816322Y-807016D01*
X814605Y-804565D01*
X814163Y-803965D01*
X812327Y-801603D01*
X811857Y-801029D01*
X809906Y-798761D01*
X809398Y-798200D01*
X807336Y-796033D01*
X807077Y-795769D01*
X736368Y-725060D01*
X736104Y-724801D01*
X733938Y-722739D01*
X733376Y-722231D01*
X731108Y-720280D01*
X730534Y-719810D01*
X728172Y-717974D01*
X727572Y-717532D01*
X725121Y-715815D01*
X724491Y-715396D01*
X721959Y-713806D01*
X721329Y-713432D01*
X718720Y-711967D01*
X718045Y-711611D01*
X715365Y-710280D01*
X714695Y-709965D01*
X711954Y-708769D01*
X711250Y-708484D01*
X708451Y-707428D01*
X707763Y-707186D01*
X704916Y-706267D01*
X704176Y-706048D01*
X701286Y-705276D01*
X700575Y-705103D01*
X697651Y-704474D01*
X696909Y-704334D01*
X693955Y-703851D01*
X693219Y-703750D01*
X690247Y-703414D01*
X689495Y-703348D01*
X686508Y-703163D01*
X685769Y-703135D01*
X682779Y-703097D01*
X682028Y-703107D01*
X679038Y-703219D01*
X678289Y-703267D01*
X675307Y-703529D01*
X674568Y-703610D01*
X671603Y-704019D01*
X670864Y-704141D01*
X667926Y-704697D01*
X667199Y-704852D01*
X664291Y-705553D01*
X663567Y-705749D01*
X660697Y-706594D01*
X659978Y-706826D01*
X657156Y-707814D01*
X656460Y-708078D01*
X653689Y-709206D01*
X653003Y-709503D01*
X650290Y-710768D01*
X649622Y-711100D01*
X646978Y-712497D01*
X646323Y-712866D01*
X643750Y-714395D01*
X643117Y-714791D01*
X640626Y-716445D01*
X640019Y-716869D01*
X637611Y-718644D01*
X637009Y-719114D01*
X634695Y-721009D01*
X634141Y-721486D01*
X631921Y-723493D01*
X631372Y-724014D01*
X629257Y-726130D01*
X628736Y-726678D01*
X626729Y-728898D01*
X626252Y-729452D01*
X624357Y-731766D01*
X623887Y-732368D01*
X622112Y-734776D01*
X621687Y-735383D01*
X620034Y-737875D01*
X619638Y-738507D01*
X618109Y-741080D01*
X617740Y-741735D01*
X616343Y-744380D01*
X616010Y-745048D01*
X614746Y-747760D01*
X614448Y-748446D01*
X613321Y-751217D01*
X613056Y-751913D01*
X612068Y-754735D01*
X611837Y-755454D01*
X610991Y-758324D01*
X610796Y-759048D01*
X610095Y-761956D01*
X609940Y-762683D01*
X609384Y-765622D01*
X609262Y-766361D01*
X608853Y-769325D01*
X608771Y-770064D01*
X608510Y-773046D01*
X608462Y-773795D01*
X608350Y-776785D01*
X608340Y-777537D01*
X608378Y-780526D01*
X608406Y-781265D01*
X608591Y-784252D01*
X608657Y-785004D01*
X608992Y-787976D01*
X609094Y-788713D01*
X609577Y-791667D01*
X609716Y-792408D01*
X610346Y-795332D01*
X610519Y-796043D01*
X611291Y-798934D01*
X611510Y-799673D01*
X612429Y-802520D01*
X612670Y-803208D01*
X613727Y-806008D01*
X614011Y-806711D01*
X615208Y-809452D01*
X615523Y-810122D01*
X616854Y-812802D01*
X617209Y-813478D01*
X618675Y-816086D01*
X619048Y-816716D01*
X620638Y-819249D01*
X621057Y-819878D01*
X622774Y-822330D01*
X623216Y-822929D01*
X625053Y-825291D01*
X625523Y-825865D01*
X627473Y-828133D01*
X627981Y-828695D01*
X630044Y-830861D01*
X630303Y-831126D01*
X701012Y-901834D01*
X701276Y-902093D01*
X703442Y-904156D01*
X704004Y-904664D01*
X706272Y-906614D01*
X706846Y-907084D01*
X709208Y-908921D01*
X709808Y-909363D01*
X712259Y-911080D01*
X712889Y-911499D01*
X715421Y-913089D01*
X716051Y-913462D01*
X718659Y-914928D01*
X719335Y-915283D01*
X722015Y-916614D01*
X722685Y-916929D01*
X725426Y-918126D01*
X726130Y-918410D01*
X728929Y-919467D01*
X729617Y-919708D01*
X732464Y-920628D01*
X733204Y-920846D01*
X736094Y-921618D01*
X736805Y-921791D01*
X739729Y-922421D01*
X740470Y-922561D01*
X743424Y-923043D01*
X744161Y-923145D01*
X747133Y-923480D01*
X747885Y-923546D01*
X750872Y-923731D01*
X751611Y-923759D01*
G37*
G36*
X-162364Y-843968D02*
G01*
X-159306Y-843968D01*
X-156258Y-843765D01*
X-153228Y-843356D01*
X-150233Y-842746D01*
X-147284Y-841941D01*
X-144398Y-840938D01*
X-141584Y-839744D01*
X-138856Y-838365D01*
X-136225Y-836808D01*
X-133705Y-835078D01*
X-131307Y-833183D01*
X-129039Y-831133D01*
X-126916Y-828936D01*
X-124942Y-826602D01*
X-123129Y-824141D01*
X-121485Y-821565D01*
X-120014Y-818885D01*
X-118729Y-816112D01*
X-117629Y-813259D01*
X-116725Y-810341D01*
X-116017Y-807369D01*
X-115509Y-804354D01*
X-115201Y-801314D01*
X-115100Y-798258D01*
X-115201Y-795202D01*
X-115509Y-792162D01*
X-116017Y-789147D01*
X-116725Y-786175D01*
X-117629Y-783257D01*
X-118729Y-780404D01*
X-120014Y-777631D01*
X-121485Y-774951D01*
X-123129Y-772375D01*
X-124942Y-769914D01*
X-126916Y-767580D01*
X-129039Y-765383D01*
X-131307Y-763333D01*
X-133705Y-761438D01*
X-136225Y-759708D01*
X-138856Y-758151D01*
X-141584Y-756772D01*
X-144398Y-755578D01*
X-147284Y-754575D01*
X-150233Y-753770D01*
X-153228Y-753160D01*
X-156258Y-752751D01*
X-159306Y-752548D01*
X-162364Y-752548D01*
X-165412Y-752751D01*
X-168442Y-753160D01*
X-171437Y-753770D01*
X-174386Y-754575D01*
X-177271Y-755578D01*
X-180086Y-756772D01*
X-182813Y-758151D01*
X-185445Y-759708D01*
X-187965Y-761438D01*
X-190362Y-763333D01*
X-192631Y-765383D01*
X-194754Y-767580D01*
X-196728Y-769914D01*
X-198541Y-772375D01*
X-200185Y-774951D01*
X-201655Y-777631D01*
X-202940Y-780404D01*
X-204040Y-783257D01*
X-204944Y-786175D01*
X-205653Y-789147D01*
X-206161Y-792162D01*
X-206468Y-795202D01*
X-206570Y-798258D01*
X-206468Y-801314D01*
X-206161Y-804354D01*
X-205653Y-807369D01*
X-204944Y-810341D01*
X-204040Y-813259D01*
X-202940Y-816112D01*
X-201655Y-818885D01*
X-200185Y-821565D01*
X-198541Y-824141D01*
X-196728Y-826602D01*
X-194754Y-828936D01*
X-192631Y-831133D01*
X-190362Y-833183D01*
X-187965Y-835078D01*
X-185445Y-836808D01*
X-182813Y-838365D01*
X-180086Y-839744D01*
X-177271Y-840938D01*
X-174386Y-841941D01*
X-171437Y-842746D01*
X-168442Y-843356D01*
X-165412Y-843765D01*
G37*
G36*
X-1025202Y-794438D02*
G01*
X-1022144Y-794438D01*
X-1019096Y-794235D01*
X-1016066Y-793826D01*
X-1013071Y-793216D01*
X-1010122Y-792411D01*
X-1007236Y-791408D01*
X-1004422Y-790214D01*
X-1001694Y-788835D01*
X-999063Y-787278D01*
X-996543Y-785548D01*
X-994145Y-783653D01*
X-991877Y-781603D01*
X-989754Y-779406D01*
X-987780Y-777072D01*
X-985967Y-774611D01*
X-984323Y-772035D01*
X-982852Y-769355D01*
X-981567Y-766582D01*
X-980467Y-763729D01*
X-979563Y-760811D01*
X-978855Y-757839D01*
X-978347Y-754824D01*
X-978039Y-751784D01*
X-977938Y-748728D01*
X-978039Y-745672D01*
X-978347Y-742632D01*
X-978855Y-739617D01*
X-979563Y-736645D01*
X-980467Y-733727D01*
X-981567Y-730874D01*
X-982852Y-728101D01*
X-984323Y-725421D01*
X-985967Y-722845D01*
X-987780Y-720384D01*
X-989754Y-718050D01*
X-991877Y-715853D01*
X-994145Y-713803D01*
X-996543Y-711908D01*
X-996975Y-711611D01*
X-995527Y-710618D01*
X-993129Y-708723D01*
X-990861Y-706673D01*
X-988738Y-704476D01*
X-986764Y-702142D01*
X-984951Y-699681D01*
X-983307Y-697105D01*
X-981836Y-694425D01*
X-980551Y-691652D01*
X-979451Y-688799D01*
X-978547Y-685881D01*
X-977839Y-682909D01*
X-977331Y-679894D01*
X-977023Y-676854D01*
X-976922Y-673798D01*
X-977023Y-670742D01*
X-977331Y-667702D01*
X-977839Y-664687D01*
X-978547Y-661715D01*
X-979451Y-658797D01*
X-980551Y-655944D01*
X-981836Y-653171D01*
X-983307Y-650491D01*
X-984951Y-647915D01*
X-986764Y-645454D01*
X-988738Y-643120D01*
X-990861Y-640923D01*
X-993129Y-638873D01*
X-995527Y-636978D01*
X-998047Y-635248D01*
X-1000678Y-633691D01*
X-1003406Y-632312D01*
X-1006220Y-631118D01*
X-1009106Y-630115D01*
X-1012055Y-629310D01*
X-1015050Y-628700D01*
X-1018080Y-628291D01*
X-1021128Y-628088D01*
X-1024186Y-628088D01*
X-1027234Y-628291D01*
X-1030264Y-628700D01*
X-1033259Y-629310D01*
X-1036208Y-630115D01*
X-1039093Y-631118D01*
X-1041907Y-632312D01*
X-1044635Y-633691D01*
X-1047267Y-635248D01*
X-1049787Y-636978D01*
X-1052184Y-638873D01*
X-1054453Y-640923D01*
X-1056576Y-643120D01*
X-1058550Y-645454D01*
X-1060363Y-647915D01*
X-1062007Y-650491D01*
X-1063477Y-653171D01*
X-1064762Y-655944D01*
X-1065862Y-658797D01*
X-1066766Y-661715D01*
X-1067475Y-664687D01*
X-1067983Y-667702D01*
X-1068290Y-670742D01*
X-1068392Y-673798D01*
X-1068290Y-676854D01*
X-1067983Y-679894D01*
X-1067475Y-682909D01*
X-1066766Y-685881D01*
X-1065862Y-688799D01*
X-1064762Y-691652D01*
X-1063477Y-694425D01*
X-1062007Y-697105D01*
X-1060363Y-699681D01*
X-1058550Y-702142D01*
X-1056576Y-704476D01*
X-1054453Y-706673D01*
X-1052184Y-708723D01*
X-1049787Y-710618D01*
X-1049355Y-710915D01*
X-1050803Y-711908D01*
X-1053200Y-713803D01*
X-1055469Y-715853D01*
X-1057592Y-718050D01*
X-1059566Y-720384D01*
X-1061379Y-722845D01*
X-1063023Y-725421D01*
X-1064493Y-728101D01*
X-1065778Y-730874D01*
X-1066878Y-733727D01*
X-1067782Y-736645D01*
X-1068491Y-739617D01*
X-1068999Y-742632D01*
X-1069306Y-745672D01*
X-1069408Y-748728D01*
X-1069306Y-751784D01*
X-1068999Y-754824D01*
X-1068491Y-757839D01*
X-1067782Y-760811D01*
X-1066878Y-763729D01*
X-1065778Y-766582D01*
X-1064493Y-769355D01*
X-1063023Y-772035D01*
X-1061379Y-774611D01*
X-1059566Y-777072D01*
X-1057592Y-779406D01*
X-1055469Y-781603D01*
X-1053200Y-783653D01*
X-1050803Y-785548D01*
X-1048283Y-787278D01*
X-1045651Y-788835D01*
X-1042923Y-790214D01*
X-1040109Y-791408D01*
X-1037224Y-792411D01*
X-1034275Y-793216D01*
X-1031280Y-793826D01*
X-1028250Y-794235D01*
G37*
G36*
X-226372Y-761164D02*
G01*
X-223314Y-761164D01*
X-220266Y-760961D01*
X-217236Y-760552D01*
X-214241Y-759942D01*
X-211292Y-759137D01*
X-208406Y-758134D01*
X-205592Y-756940D01*
X-202864Y-755561D01*
X-200233Y-754004D01*
X-197713Y-752274D01*
X-195315Y-750379D01*
X-193047Y-748329D01*
X-190924Y-746132D01*
X-188950Y-743798D01*
X-187137Y-741337D01*
X-185493Y-738761D01*
X-184022Y-736081D01*
X-182737Y-733308D01*
X-181637Y-730455D01*
X-180733Y-727537D01*
X-180025Y-724565D01*
X-179517Y-721550D01*
X-179209Y-718510D01*
X-179108Y-715454D01*
X-179209Y-712398D01*
X-179517Y-709358D01*
X-180025Y-706343D01*
X-180733Y-703371D01*
X-181637Y-700453D01*
X-182737Y-697600D01*
X-184022Y-694827D01*
X-185493Y-692147D01*
X-187137Y-689571D01*
X-188950Y-687110D01*
X-190924Y-684776D01*
X-193047Y-682579D01*
X-195315Y-680529D01*
X-197713Y-678634D01*
X-200233Y-676904D01*
X-202864Y-675347D01*
X-205592Y-673968D01*
X-208406Y-672774D01*
X-211292Y-671771D01*
X-214241Y-670966D01*
X-217236Y-670356D01*
X-220266Y-669947D01*
X-223314Y-669744D01*
X-226372Y-669744D01*
X-229420Y-669947D01*
X-232450Y-670356D01*
X-235445Y-670966D01*
X-238394Y-671771D01*
X-241279Y-672774D01*
X-244093Y-673968D01*
X-246821Y-675347D01*
X-249453Y-676904D01*
X-251973Y-678634D01*
X-254370Y-680529D01*
X-256639Y-682579D01*
X-258762Y-684776D01*
X-260736Y-687110D01*
X-262549Y-689571D01*
X-264193Y-692147D01*
X-265663Y-694827D01*
X-266948Y-697600D01*
X-268048Y-700453D01*
X-268952Y-703371D01*
X-269661Y-706343D01*
X-270169Y-709358D01*
X-270476Y-712398D01*
X-270578Y-715454D01*
X-270476Y-718510D01*
X-270169Y-721550D01*
X-269661Y-724565D01*
X-268952Y-727537D01*
X-268048Y-730455D01*
X-266948Y-733308D01*
X-265663Y-736081D01*
X-264193Y-738761D01*
X-262549Y-741337D01*
X-260736Y-743798D01*
X-258762Y-746132D01*
X-256639Y-748329D01*
X-254370Y-750379D01*
X-251973Y-752274D01*
X-249453Y-754004D01*
X-246821Y-755561D01*
X-244093Y-756940D01*
X-241279Y-758134D01*
X-238394Y-759137D01*
X-235445Y-759942D01*
X-232450Y-760552D01*
X-229420Y-760961D01*
G37*
G36*
X-778822Y-726112D02*
G01*
X-775764Y-726112D01*
X-772716Y-725909D01*
X-769686Y-725500D01*
X-766691Y-724890D01*
X-763742Y-724085D01*
X-760856Y-723082D01*
X-758042Y-721888D01*
X-755314Y-720509D01*
X-752683Y-718952D01*
X-750163Y-717222D01*
X-747765Y-715327D01*
X-745497Y-713277D01*
X-743374Y-711080D01*
X-741400Y-708746D01*
X-739587Y-706285D01*
X-737943Y-703709D01*
X-736472Y-701029D01*
X-735187Y-698256D01*
X-734087Y-695403D01*
X-733183Y-692485D01*
X-732475Y-689513D01*
X-731967Y-686498D01*
X-731659Y-683458D01*
X-731558Y-680402D01*
X-731659Y-677346D01*
X-731967Y-674306D01*
X-732475Y-671291D01*
X-733183Y-668319D01*
X-734087Y-665401D01*
X-735187Y-662548D01*
X-736472Y-659775D01*
X-737943Y-657095D01*
X-739587Y-654519D01*
X-741400Y-652058D01*
X-743374Y-649724D01*
X-745497Y-647527D01*
X-747765Y-645477D01*
X-750163Y-643582D01*
X-752683Y-641852D01*
X-755314Y-640295D01*
X-758042Y-638916D01*
X-760856Y-637722D01*
X-763742Y-636719D01*
X-766691Y-635914D01*
X-769686Y-635304D01*
X-772716Y-634895D01*
X-775764Y-634692D01*
X-778822Y-634692D01*
X-781870Y-634895D01*
X-784900Y-635304D01*
X-787895Y-635914D01*
X-790844Y-636719D01*
X-793729Y-637722D01*
X-796543Y-638916D01*
X-799271Y-640295D01*
X-801903Y-641852D01*
X-804423Y-643582D01*
X-806820Y-645477D01*
X-809089Y-647527D01*
X-811212Y-649724D01*
X-813186Y-652058D01*
X-814999Y-654519D01*
X-816643Y-657095D01*
X-818113Y-659775D01*
X-819398Y-662548D01*
X-820498Y-665401D01*
X-821402Y-668319D01*
X-822111Y-671291D01*
X-822619Y-674306D01*
X-822926Y-677346D01*
X-823028Y-680402D01*
X-822926Y-683458D01*
X-822619Y-686498D01*
X-822111Y-689513D01*
X-821402Y-692485D01*
X-820498Y-695403D01*
X-819398Y-698256D01*
X-818113Y-701029D01*
X-816643Y-703709D01*
X-814999Y-706285D01*
X-813186Y-708746D01*
X-811212Y-711080D01*
X-809089Y-713277D01*
X-806820Y-715327D01*
X-804423Y-717222D01*
X-801903Y-718952D01*
X-799271Y-720509D01*
X-796543Y-721888D01*
X-793729Y-723082D01*
X-790844Y-724085D01*
X-787895Y-724890D01*
X-784900Y-725500D01*
X-781870Y-725909D01*
G37*
G36*
X-141536Y-717476D02*
G01*
X-138478Y-717476D01*
X-135430Y-717273D01*
X-132400Y-716864D01*
X-129405Y-716254D01*
X-126456Y-715449D01*
X-123570Y-714446D01*
X-120756Y-713252D01*
X-118028Y-711873D01*
X-115397Y-710316D01*
X-112877Y-708586D01*
X-110479Y-706691D01*
X-108211Y-704641D01*
X-106088Y-702444D01*
X-104114Y-700110D01*
X-102301Y-697649D01*
X-100657Y-695073D01*
X-99186Y-692393D01*
X-97901Y-689620D01*
X-96801Y-686767D01*
X-95897Y-683849D01*
X-95189Y-680877D01*
X-94681Y-677862D01*
X-94373Y-674822D01*
X-94272Y-671766D01*
X-94373Y-668710D01*
X-94681Y-665670D01*
X-95189Y-662655D01*
X-95897Y-659683D01*
X-96801Y-656765D01*
X-97901Y-653912D01*
X-99186Y-651139D01*
X-100657Y-648459D01*
X-102301Y-645883D01*
X-104114Y-643422D01*
X-106088Y-641088D01*
X-108211Y-638891D01*
X-110479Y-636841D01*
X-112877Y-634946D01*
X-115397Y-633216D01*
X-118028Y-631659D01*
X-120756Y-630280D01*
X-123570Y-629086D01*
X-126456Y-628083D01*
X-129405Y-627278D01*
X-132400Y-626668D01*
X-135430Y-626259D01*
X-138478Y-626056D01*
X-141536Y-626056D01*
X-144584Y-626259D01*
X-147614Y-626668D01*
X-150609Y-627278D01*
X-153558Y-628083D01*
X-156443Y-629086D01*
X-159257Y-630280D01*
X-161985Y-631659D01*
X-164617Y-633216D01*
X-167137Y-634946D01*
X-169534Y-636841D01*
X-171803Y-638891D01*
X-173926Y-641088D01*
X-175900Y-643422D01*
X-177713Y-645883D01*
X-179357Y-648459D01*
X-180827Y-651139D01*
X-182112Y-653912D01*
X-183212Y-656765D01*
X-184116Y-659683D01*
X-184825Y-662655D01*
X-185333Y-665670D01*
X-185640Y-668710D01*
X-185742Y-671766D01*
X-185640Y-674822D01*
X-185333Y-677862D01*
X-184825Y-680877D01*
X-184116Y-683849D01*
X-183212Y-686767D01*
X-182112Y-689620D01*
X-180827Y-692393D01*
X-179357Y-695073D01*
X-177713Y-697649D01*
X-175900Y-700110D01*
X-173926Y-702444D01*
X-171803Y-704641D01*
X-169534Y-706691D01*
X-167137Y-708586D01*
X-164617Y-710316D01*
X-161985Y-711873D01*
X-159257Y-713252D01*
X-156443Y-714446D01*
X-153558Y-715449D01*
X-150609Y-716254D01*
X-147614Y-716864D01*
X-144584Y-717273D01*
G37*
G36*
X58869Y-649658D02*
G01*
X61927Y-649658D01*
X64975Y-649455D01*
X68005Y-649046D01*
X71000Y-648436D01*
X73949Y-647631D01*
X76835Y-646628D01*
X79649Y-645434D01*
X82377Y-644055D01*
X85008Y-642498D01*
X87528Y-640768D01*
X89926Y-638873D01*
X92194Y-636823D01*
X94317Y-634626D01*
X96291Y-632292D01*
X98104Y-629831D01*
X99748Y-627255D01*
X101219Y-624575D01*
X102504Y-621802D01*
X103604Y-618949D01*
X104508Y-616031D01*
X105216Y-613059D01*
X105724Y-610044D01*
X106032Y-607004D01*
X106133Y-603948D01*
X106032Y-600892D01*
X105724Y-597852D01*
X105216Y-594837D01*
X104508Y-591865D01*
X103604Y-588947D01*
X102504Y-586094D01*
X101219Y-583321D01*
X99748Y-580641D01*
X98104Y-578065D01*
X96291Y-575604D01*
X94317Y-573270D01*
X92194Y-571073D01*
X89926Y-569023D01*
X87528Y-567128D01*
X85008Y-565398D01*
X82377Y-563841D01*
X79649Y-562462D01*
X76835Y-561268D01*
X73949Y-560265D01*
X71000Y-559460D01*
X68005Y-558850D01*
X64975Y-558441D01*
X61927Y-558238D01*
X58869Y-558238D01*
X55821Y-558441D01*
X52791Y-558850D01*
X49796Y-559460D01*
X46847Y-560265D01*
X43962Y-561268D01*
X41147Y-562462D01*
X38420Y-563841D01*
X35788Y-565398D01*
X33268Y-567128D01*
X30871Y-569023D01*
X28602Y-571073D01*
X26479Y-573270D01*
X24505Y-575604D01*
X22692Y-578065D01*
X21048Y-580641D01*
X19578Y-583321D01*
X18293Y-586094D01*
X17193Y-588947D01*
X16289Y-591865D01*
X15580Y-594837D01*
X15072Y-597852D01*
X14765Y-600892D01*
X14663Y-603948D01*
X14765Y-607004D01*
X15072Y-610044D01*
X15580Y-613059D01*
X16289Y-616031D01*
X17193Y-618949D01*
X18293Y-621802D01*
X19578Y-624575D01*
X21048Y-627255D01*
X22692Y-629831D01*
X24505Y-632292D01*
X26479Y-634626D01*
X28602Y-636823D01*
X30871Y-638873D01*
X33268Y-640768D01*
X35788Y-642498D01*
X38420Y-644055D01*
X41147Y-645434D01*
X43962Y-646628D01*
X46847Y-647631D01*
X49796Y-648436D01*
X52791Y-649046D01*
X55821Y-649455D01*
G37*
G36*
X-1809046Y-643562D02*
G01*
X-1805988Y-643562D01*
X-1802940Y-643359D01*
X-1799910Y-642950D01*
X-1796915Y-642340D01*
X-1793966Y-641535D01*
X-1791080Y-640532D01*
X-1788266Y-639338D01*
X-1785538Y-637959D01*
X-1782907Y-636402D01*
X-1780387Y-634672D01*
X-1777989Y-632777D01*
X-1775721Y-630727D01*
X-1773598Y-628530D01*
X-1771624Y-626196D01*
X-1769811Y-623735D01*
X-1768167Y-621159D01*
X-1766696Y-618479D01*
X-1765411Y-615706D01*
X-1764311Y-612853D01*
X-1763407Y-609935D01*
X-1762699Y-606963D01*
X-1762191Y-603948D01*
X-1761883Y-600908D01*
X-1761782Y-597852D01*
X-1761883Y-594796D01*
X-1762191Y-591756D01*
X-1762699Y-588741D01*
X-1763407Y-585769D01*
X-1764311Y-582851D01*
X-1765411Y-579998D01*
X-1766696Y-577225D01*
X-1768167Y-574545D01*
X-1769811Y-571969D01*
X-1771624Y-569508D01*
X-1773598Y-567174D01*
X-1775721Y-564977D01*
X-1777989Y-562927D01*
X-1780387Y-561032D01*
X-1782907Y-559302D01*
X-1785538Y-557745D01*
X-1788266Y-556366D01*
X-1791080Y-555172D01*
X-1793966Y-554169D01*
X-1796915Y-553364D01*
X-1799910Y-552754D01*
X-1802940Y-552345D01*
X-1805988Y-552142D01*
X-1809046Y-552142D01*
X-1812094Y-552345D01*
X-1815124Y-552754D01*
X-1818119Y-553364D01*
X-1821068Y-554169D01*
X-1823953Y-555172D01*
X-1826768Y-556366D01*
X-1829495Y-557745D01*
X-1832127Y-559302D01*
X-1834647Y-561032D01*
X-1837044Y-562927D01*
X-1839313Y-564977D01*
X-1841436Y-567174D01*
X-1843410Y-569508D01*
X-1845223Y-571969D01*
X-1846867Y-574545D01*
X-1848337Y-577225D01*
X-1849622Y-579998D01*
X-1850722Y-582851D01*
X-1851626Y-585769D01*
X-1852335Y-588741D01*
X-1852843Y-591756D01*
X-1853150Y-594796D01*
X-1853252Y-597852D01*
X-1853150Y-600908D01*
X-1852843Y-603948D01*
X-1852335Y-606963D01*
X-1851626Y-609935D01*
X-1850722Y-612853D01*
X-1849622Y-615706D01*
X-1848337Y-618479D01*
X-1846867Y-621159D01*
X-1845223Y-623735D01*
X-1843410Y-626196D01*
X-1841436Y-628530D01*
X-1839313Y-630727D01*
X-1837044Y-632777D01*
X-1834647Y-634672D01*
X-1832127Y-636402D01*
X-1829495Y-637959D01*
X-1826768Y-639338D01*
X-1823953Y-640532D01*
X-1821068Y-641535D01*
X-1818119Y-642340D01*
X-1815124Y-642950D01*
X-1812094Y-643359D01*
G37*
G36*
X471771Y-640943D02*
G01*
X472523Y-640933D01*
X475513Y-640821D01*
X476262Y-640773D01*
X479244Y-640511D01*
X479983Y-640430D01*
X482947Y-640021D01*
X483687Y-639899D01*
X486625Y-639343D01*
X487352Y-639188D01*
X490260Y-638487D01*
X490984Y-638291D01*
X493854Y-637446D01*
X494573Y-637214D01*
X497395Y-636226D01*
X498091Y-635962D01*
X500862Y-634834D01*
X501548Y-634537D01*
X504261Y-633272D01*
X504929Y-632940D01*
X507573Y-631543D01*
X508228Y-631174D01*
X510801Y-629645D01*
X511434Y-629249D01*
X513925Y-627595D01*
X514532Y-627171D01*
X516940Y-625396D01*
X517542Y-624926D01*
X519856Y-623031D01*
X520410Y-622553D01*
X522630Y-620547D01*
X523179Y-620026D01*
X525294Y-617910D01*
X525815Y-617362D01*
X527822Y-615142D01*
X528299Y-614588D01*
X530194Y-612274D01*
X530664Y-611672D01*
X532439Y-609264D01*
X532864Y-608657D01*
X534517Y-606165D01*
X534913Y-605533D01*
X536442Y-602960D01*
X536811Y-602305D01*
X538208Y-599660D01*
X538540Y-598992D01*
X539805Y-596280D01*
X540103Y-595594D01*
X541230Y-592823D01*
X541494Y-592127D01*
X542483Y-589305D01*
X542714Y-588586D01*
X543560Y-585716D01*
X543755Y-584992D01*
X544456Y-582084D01*
X544611Y-581357D01*
X545167Y-578418D01*
X545289Y-577679D01*
X545698Y-574715D01*
X545779Y-573976D01*
X546041Y-570994D01*
X546089Y-570245D01*
X546201Y-567255D01*
X546211Y-566503D01*
X546173Y-563514D01*
X546145Y-562775D01*
X545960Y-559788D01*
X545894Y-559036D01*
X545558Y-556064D01*
X545457Y-555327D01*
X544974Y-552373D01*
X544835Y-551632D01*
X544205Y-548708D01*
X544032Y-547997D01*
X543260Y-545106D01*
X543041Y-544367D01*
X542122Y-541520D01*
X541881Y-540832D01*
X540824Y-538032D01*
X540539Y-537329D01*
X539343Y-534588D01*
X539028Y-533918D01*
X537697Y-531238D01*
X537342Y-530562D01*
X535876Y-527954D01*
X535503Y-527324D01*
X533913Y-524791D01*
X533493Y-524162D01*
X531776Y-521710D01*
X531334Y-521111D01*
X529498Y-518749D01*
X529028Y-518175D01*
X527077Y-515907D01*
X526569Y-515345D01*
X524507Y-513179D01*
X524248Y-512914D01*
X453539Y-442206D01*
X453275Y-441947D01*
X451109Y-439884D01*
X450547Y-439376D01*
X448279Y-437426D01*
X447705Y-436956D01*
X445343Y-435119D01*
X444743Y-434677D01*
X442292Y-432960D01*
X441662Y-432541D01*
X439130Y-430951D01*
X438500Y-430578D01*
X435891Y-429112D01*
X435216Y-428757D01*
X432536Y-427426D01*
X431866Y-427111D01*
X429125Y-425914D01*
X428421Y-425630D01*
X425622Y-424573D01*
X424934Y-424332D01*
X422087Y-423412D01*
X421347Y-423194D01*
X418457Y-422422D01*
X417746Y-422249D01*
X414822Y-421619D01*
X414080Y-421479D01*
X411126Y-420997D01*
X410390Y-420895D01*
X407418Y-420560D01*
X406666Y-420494D01*
X403679Y-420309D01*
X402940Y-420281D01*
X399950Y-420243D01*
X399199Y-420253D01*
X396209Y-420364D01*
X395460Y-420413D01*
X392478Y-420674D01*
X391739Y-420756D01*
X388774Y-421165D01*
X388035Y-421286D01*
X385097Y-421843D01*
X384370Y-421998D01*
X381462Y-422699D01*
X380738Y-422894D01*
X377868Y-423740D01*
X377149Y-423971D01*
X374327Y-424959D01*
X373631Y-425223D01*
X370860Y-426351D01*
X370174Y-426648D01*
X367461Y-427913D01*
X366793Y-428246D01*
X364149Y-429643D01*
X363494Y-430011D01*
X360921Y-431540D01*
X360288Y-431937D01*
X357797Y-433590D01*
X357190Y-434014D01*
X354782Y-435790D01*
X354180Y-436260D01*
X351866Y-438155D01*
X351312Y-438632D01*
X349092Y-440639D01*
X348543Y-441159D01*
X346428Y-443275D01*
X345907Y-443824D01*
X343900Y-446044D01*
X343423Y-446598D01*
X341528Y-448911D01*
X341058Y-449513D01*
X339283Y-451921D01*
X338858Y-452528D01*
X337205Y-455020D01*
X336809Y-455653D01*
X335280Y-458226D01*
X334911Y-458881D01*
X333514Y-461525D01*
X333181Y-462193D01*
X331917Y-464906D01*
X331619Y-465592D01*
X330492Y-468363D01*
X330227Y-469059D01*
X329239Y-471881D01*
X329008Y-472600D01*
X328162Y-475470D01*
X327967Y-476194D01*
X327266Y-479102D01*
X327111Y-479828D01*
X326555Y-482767D01*
X326433Y-483506D01*
X326024Y-486470D01*
X325942Y-487210D01*
X325681Y-490192D01*
X325633Y-490941D01*
X325521Y-493930D01*
X325511Y-494682D01*
X325549Y-497672D01*
X325577Y-498411D01*
X325762Y-501398D01*
X325828Y-502150D01*
X326163Y-505122D01*
X326265Y-505858D01*
X326748Y-508812D01*
X326887Y-509554D01*
X327517Y-512478D01*
X327690Y-513189D01*
X328462Y-516079D01*
X328681Y-516818D01*
X329600Y-519666D01*
X329841Y-520354D01*
X330898Y-523153D01*
X331182Y-523857D01*
X332379Y-526597D01*
X332694Y-527268D01*
X334025Y-529948D01*
X334380Y-530623D01*
X335846Y-533232D01*
X336219Y-533862D01*
X337809Y-536394D01*
X338228Y-537024D01*
X339945Y-539475D01*
X340387Y-540075D01*
X342224Y-542437D01*
X342694Y-543011D01*
X344644Y-545279D01*
X345152Y-545840D01*
X347215Y-548007D01*
X347474Y-548271D01*
X418183Y-618980D01*
X418447Y-619239D01*
X420613Y-621301D01*
X421175Y-621809D01*
X423443Y-623760D01*
X424017Y-624230D01*
X426379Y-626066D01*
X426979Y-626508D01*
X429430Y-628225D01*
X430060Y-628644D01*
X432592Y-630234D01*
X433222Y-630608D01*
X435830Y-632073D01*
X436506Y-632429D01*
X439186Y-633760D01*
X439856Y-634075D01*
X442597Y-635271D01*
X443301Y-635556D01*
X446100Y-636612D01*
X446788Y-636854D01*
X449635Y-637773D01*
X450375Y-637992D01*
X453265Y-638764D01*
X453976Y-638936D01*
X456900Y-639566D01*
X457641Y-639706D01*
X460595Y-640189D01*
X461332Y-640290D01*
X464304Y-640626D01*
X465056Y-640692D01*
X468043Y-640877D01*
X468782Y-640905D01*
G37*
G36*
X932680Y-624588D02*
G01*
X935738Y-624588D01*
X938786Y-624385D01*
X941816Y-623976D01*
X944811Y-623366D01*
X947760Y-622561D01*
X950645Y-621558D01*
X953460Y-620364D01*
X956188Y-618985D01*
X958819Y-617428D01*
X961339Y-615698D01*
X963736Y-613803D01*
X966005Y-611753D01*
X968128Y-609556D01*
X970102Y-607222D01*
X971915Y-604761D01*
X973559Y-602185D01*
X975029Y-599506D01*
X976315Y-596732D01*
X977414Y-593879D01*
X978319Y-590961D01*
X979027Y-587989D01*
X979535Y-584974D01*
X979843Y-581934D01*
X979944Y-578878D01*
X979843Y-575823D01*
X979535Y-572782D01*
X979027Y-569767D01*
X978319Y-566795D01*
X977414Y-563877D01*
X976315Y-561025D01*
X975029Y-558251D01*
X973559Y-555571D01*
X971915Y-552996D01*
X970102Y-550534D01*
X968128Y-548200D01*
X966005Y-546003D01*
X963736Y-543953D01*
X961339Y-542058D01*
X958819Y-540329D01*
X956188Y-538772D01*
X953460Y-537392D01*
X950645Y-536199D01*
X947760Y-535195D01*
X944811Y-534390D01*
X941816Y-533780D01*
X938786Y-533372D01*
X935738Y-533168D01*
X932680Y-533168D01*
X929632Y-533372D01*
X926602Y-533780D01*
X923607Y-534390D01*
X920658Y-535195D01*
X917773Y-536199D01*
X914958Y-537392D01*
X912230Y-538772D01*
X909599Y-540329D01*
X907079Y-542058D01*
X904681Y-543953D01*
X902413Y-546003D01*
X900290Y-548200D01*
X898316Y-550534D01*
X896503Y-552996D01*
X894859Y-555571D01*
X893389Y-558251D01*
X892103Y-561025D01*
X891004Y-563877D01*
X890099Y-566795D01*
X889391Y-569767D01*
X888883Y-572782D01*
X888575Y-575823D01*
X888474Y-578878D01*
X888575Y-581934D01*
X888883Y-584974D01*
X889391Y-587989D01*
X890099Y-590961D01*
X891004Y-593879D01*
X892103Y-596732D01*
X893389Y-599506D01*
X894859Y-602185D01*
X896503Y-604761D01*
X898316Y-607222D01*
X900290Y-609556D01*
X902413Y-611753D01*
X904681Y-613803D01*
X907079Y-615698D01*
X909599Y-617428D01*
X912230Y-618985D01*
X914958Y-620364D01*
X917773Y-621558D01*
X920658Y-622561D01*
X923607Y-623366D01*
X926602Y-623976D01*
X929632Y-624385D01*
G37*
G36*
X-428048Y-534342D02*
G01*
X-424990Y-534342D01*
X-421942Y-534139D01*
X-418912Y-533730D01*
X-415917Y-533120D01*
X-412968Y-532315D01*
X-410082Y-531312D01*
X-407268Y-530118D01*
X-404540Y-528739D01*
X-401909Y-527182D01*
X-399389Y-525452D01*
X-396991Y-523557D01*
X-394723Y-521507D01*
X-392600Y-519310D01*
X-390626Y-516976D01*
X-388813Y-514515D01*
X-387169Y-511939D01*
X-385698Y-509259D01*
X-384413Y-506486D01*
X-383313Y-503633D01*
X-382409Y-500715D01*
X-381701Y-497743D01*
X-381193Y-494728D01*
X-380885Y-491688D01*
X-380784Y-488632D01*
X-380885Y-485576D01*
X-381193Y-482536D01*
X-381701Y-479521D01*
X-382160Y-477588D01*
X-381253Y-478048D01*
X-378439Y-479242D01*
X-375554Y-480245D01*
X-372605Y-481050D01*
X-369610Y-481660D01*
X-366580Y-482069D01*
X-363532Y-482272D01*
X-360474Y-482272D01*
X-357426Y-482069D01*
X-354396Y-481660D01*
X-351401Y-481050D01*
X-348452Y-480245D01*
X-345566Y-479242D01*
X-342752Y-478048D01*
X-340024Y-476669D01*
X-337393Y-475112D01*
X-334873Y-473382D01*
X-332475Y-471487D01*
X-330207Y-469437D01*
X-328084Y-467240D01*
X-326110Y-464906D01*
X-324297Y-462445D01*
X-322653Y-459869D01*
X-321182Y-457189D01*
X-319897Y-454416D01*
X-318797Y-451563D01*
X-317893Y-448645D01*
X-317185Y-445673D01*
X-316677Y-442658D01*
X-316369Y-439618D01*
X-316268Y-436562D01*
X-316369Y-433506D01*
X-316677Y-430466D01*
X-317185Y-427451D01*
X-317893Y-424479D01*
X-318797Y-421561D01*
X-319897Y-418708D01*
X-321182Y-415935D01*
X-322653Y-413255D01*
X-324297Y-410679D01*
X-326110Y-408218D01*
X-328084Y-405884D01*
X-330207Y-403687D01*
X-332475Y-401637D01*
X-334873Y-399742D01*
X-337393Y-398012D01*
X-340024Y-396455D01*
X-342752Y-395076D01*
X-345566Y-393882D01*
X-348452Y-392879D01*
X-351401Y-392074D01*
X-354396Y-391464D01*
X-357426Y-391055D01*
X-360474Y-390852D01*
X-363532Y-390852D01*
X-366580Y-391055D01*
X-369610Y-391464D01*
X-372605Y-392074D01*
X-375554Y-392879D01*
X-378439Y-393882D01*
X-381253Y-395076D01*
X-383981Y-396455D01*
X-386613Y-398012D01*
X-389133Y-399742D01*
X-390987Y-401208D01*
X-391071Y-400857D01*
X-391975Y-397939D01*
X-393075Y-395086D01*
X-394360Y-392313D01*
X-395831Y-389633D01*
X-397474Y-387057D01*
X-399287Y-384596D01*
X-401261Y-382262D01*
X-403385Y-380065D01*
X-405653Y-378015D01*
X-408050Y-376120D01*
X-410570Y-374390D01*
X-413202Y-372833D01*
X-415930Y-371454D01*
X-418744Y-370260D01*
X-421629Y-369257D01*
X-424578Y-368452D01*
X-427573Y-367842D01*
X-430603Y-367433D01*
X-433651Y-367230D01*
X-436709Y-367230D01*
X-439757Y-367433D01*
X-442788Y-367842D01*
X-445782Y-368452D01*
X-448731Y-369257D01*
X-451617Y-370260D01*
X-454431Y-371454D01*
X-457159Y-372833D01*
X-459790Y-374390D01*
X-462310Y-376120D01*
X-464708Y-378015D01*
X-466976Y-380065D01*
X-469099Y-382262D01*
X-471073Y-384596D01*
X-472887Y-387057D01*
X-474530Y-389633D01*
X-476001Y-392313D01*
X-477286Y-395086D01*
X-478386Y-397939D01*
X-479290Y-400857D01*
X-479999Y-403829D01*
X-480507Y-406844D01*
X-480814Y-409884D01*
X-480915Y-412940D01*
X-480814Y-415996D01*
X-480507Y-419036D01*
X-479999Y-422051D01*
X-479290Y-425023D01*
X-478386Y-427941D01*
X-477286Y-430794D01*
X-476001Y-433567D01*
X-474530Y-436247D01*
X-472887Y-438823D01*
X-471073Y-441284D01*
X-469099Y-443618D01*
X-466976Y-445815D01*
X-464708Y-447865D01*
X-462310Y-449760D01*
X-459790Y-451490D01*
X-457159Y-453047D01*
X-455970Y-453646D01*
X-456046Y-453707D01*
X-458315Y-455757D01*
X-460438Y-457954D01*
X-462412Y-460288D01*
X-464225Y-462749D01*
X-465869Y-465325D01*
X-467339Y-468005D01*
X-468624Y-470778D01*
X-469724Y-473631D01*
X-470628Y-476549D01*
X-471337Y-479521D01*
X-471845Y-482536D01*
X-472152Y-485576D01*
X-472254Y-488632D01*
X-472152Y-491688D01*
X-471845Y-494728D01*
X-471337Y-497743D01*
X-470628Y-500715D01*
X-469724Y-503633D01*
X-468624Y-506486D01*
X-467339Y-509259D01*
X-465869Y-511939D01*
X-464225Y-514515D01*
X-462412Y-516976D01*
X-460438Y-519310D01*
X-458315Y-521507D01*
X-456046Y-523557D01*
X-453649Y-525452D01*
X-451129Y-527182D01*
X-448497Y-528739D01*
X-445769Y-530118D01*
X-442955Y-531312D01*
X-440070Y-532315D01*
X-437121Y-533120D01*
X-434126Y-533730D01*
X-431096Y-534139D01*
G37*
G36*
X513834Y-477014D02*
G01*
X516892Y-477014D01*
X519940Y-476811D01*
X522970Y-476402D01*
X525965Y-475792D01*
X528914Y-474987D01*
X531799Y-473984D01*
X534614Y-472790D01*
X537342Y-471411D01*
X539973Y-469854D01*
X542493Y-468124D01*
X544890Y-466229D01*
X547159Y-464179D01*
X549282Y-461982D01*
X551256Y-459648D01*
X553069Y-457187D01*
X554713Y-454611D01*
X556183Y-451932D01*
X557469Y-449158D01*
X558568Y-446305D01*
X559473Y-443387D01*
X560181Y-440415D01*
X560689Y-437400D01*
X560997Y-434360D01*
X561098Y-431304D01*
X560997Y-428249D01*
X560689Y-425208D01*
X560181Y-422193D01*
X559473Y-419221D01*
X558568Y-416303D01*
X557469Y-413451D01*
X556183Y-410677D01*
X554713Y-407997D01*
X553069Y-405422D01*
X551256Y-402960D01*
X549282Y-400626D01*
X547159Y-398429D01*
X544890Y-396379D01*
X542493Y-394484D01*
X539973Y-392755D01*
X537342Y-391198D01*
X534614Y-389818D01*
X531799Y-388625D01*
X528914Y-387621D01*
X525965Y-386816D01*
X522970Y-386206D01*
X519940Y-385798D01*
X516892Y-385594D01*
X513834Y-385594D01*
X510786Y-385798D01*
X507756Y-386206D01*
X504761Y-386816D01*
X501812Y-387621D01*
X498927Y-388625D01*
X496112Y-389818D01*
X493384Y-391198D01*
X490753Y-392755D01*
X488233Y-394484D01*
X485835Y-396379D01*
X483567Y-398429D01*
X481444Y-400626D01*
X479470Y-402960D01*
X477657Y-405422D01*
X476013Y-407997D01*
X474543Y-410677D01*
X473257Y-413451D01*
X472158Y-416303D01*
X471253Y-419221D01*
X470545Y-422193D01*
X470037Y-425208D01*
X469729Y-428249D01*
X469628Y-431304D01*
X469729Y-434360D01*
X470037Y-437400D01*
X470545Y-440415D01*
X471253Y-443387D01*
X472158Y-446305D01*
X473257Y-449158D01*
X474543Y-451932D01*
X476013Y-454611D01*
X477657Y-457187D01*
X479470Y-459648D01*
X481444Y-461982D01*
X483567Y-464179D01*
X485835Y-466229D01*
X488233Y-468124D01*
X490753Y-469854D01*
X493384Y-471411D01*
X496112Y-472790D01*
X498927Y-473984D01*
X501812Y-474987D01*
X504761Y-475792D01*
X507756Y-476402D01*
X510786Y-476811D01*
G37*
G36*
X-210878Y-469572D02*
G01*
X-207820Y-469572D01*
X-204772Y-469369D01*
X-201742Y-468960D01*
X-198747Y-468350D01*
X-195798Y-467545D01*
X-192912Y-466542D01*
X-190098Y-465348D01*
X-187370Y-463969D01*
X-184739Y-462412D01*
X-182219Y-460682D01*
X-179821Y-458787D01*
X-177553Y-456737D01*
X-175430Y-454540D01*
X-173456Y-452206D01*
X-171643Y-449745D01*
X-169999Y-447169D01*
X-168528Y-444489D01*
X-167243Y-441716D01*
X-166143Y-438863D01*
X-165239Y-435945D01*
X-164531Y-432973D01*
X-164023Y-429958D01*
X-163715Y-426918D01*
X-163614Y-423862D01*
X-163715Y-420806D01*
X-164023Y-417766D01*
X-164531Y-414751D01*
X-165239Y-411779D01*
X-166143Y-408861D01*
X-167243Y-406008D01*
X-168528Y-403235D01*
X-169999Y-400555D01*
X-171643Y-397979D01*
X-173456Y-395518D01*
X-175430Y-393184D01*
X-177553Y-390987D01*
X-179821Y-388937D01*
X-182219Y-387042D01*
X-184739Y-385312D01*
X-187370Y-383755D01*
X-190098Y-382376D01*
X-192912Y-381182D01*
X-195798Y-380179D01*
X-198747Y-379374D01*
X-201742Y-378764D01*
X-204772Y-378355D01*
X-207820Y-378152D01*
X-210878Y-378152D01*
X-213926Y-378355D01*
X-216956Y-378764D01*
X-219951Y-379374D01*
X-222900Y-380179D01*
X-225785Y-381182D01*
X-228600Y-382376D01*
X-231327Y-383755D01*
X-233959Y-385312D01*
X-236479Y-387042D01*
X-238876Y-388937D01*
X-241145Y-390987D01*
X-243268Y-393184D01*
X-245242Y-395518D01*
X-247055Y-397979D01*
X-248699Y-400555D01*
X-250169Y-403235D01*
X-251454Y-406008D01*
X-252554Y-408861D01*
X-253458Y-411779D01*
X-254167Y-414751D01*
X-254675Y-417766D01*
X-254982Y-420806D01*
X-255084Y-423862D01*
X-254982Y-426918D01*
X-254675Y-429958D01*
X-254167Y-432973D01*
X-253458Y-435945D01*
X-252554Y-438863D01*
X-251454Y-441716D01*
X-250169Y-444489D01*
X-248699Y-447169D01*
X-247055Y-449745D01*
X-245242Y-452206D01*
X-243268Y-454540D01*
X-241145Y-456737D01*
X-238876Y-458787D01*
X-236479Y-460682D01*
X-233959Y-462412D01*
X-231327Y-463969D01*
X-228600Y-465348D01*
X-225785Y-466542D01*
X-222900Y-467545D01*
X-219951Y-468350D01*
X-216956Y-468960D01*
X-213926Y-469369D01*
G37*
G36*
X-903282Y-441378D02*
G01*
X-900224Y-441378D01*
X-897176Y-441175D01*
X-894146Y-440766D01*
X-891151Y-440156D01*
X-888202Y-439351D01*
X-885316Y-438348D01*
X-882502Y-437154D01*
X-879774Y-435775D01*
X-877143Y-434218D01*
X-874623Y-432488D01*
X-872225Y-430593D01*
X-869957Y-428543D01*
X-867834Y-426346D01*
X-865860Y-424012D01*
X-864047Y-421551D01*
X-862403Y-418975D01*
X-860932Y-416295D01*
X-859647Y-413522D01*
X-858547Y-410669D01*
X-857643Y-407751D01*
X-856935Y-404779D01*
X-856427Y-401764D01*
X-856119Y-398724D01*
X-856018Y-395668D01*
X-856119Y-392612D01*
X-856427Y-389572D01*
X-856935Y-386557D01*
X-857643Y-383585D01*
X-858547Y-380667D01*
X-859647Y-377814D01*
X-860932Y-375041D01*
X-862403Y-372361D01*
X-864047Y-369785D01*
X-865860Y-367324D01*
X-867834Y-364990D01*
X-869957Y-362793D01*
X-872225Y-360743D01*
X-874623Y-358848D01*
X-877143Y-357118D01*
X-879774Y-355561D01*
X-882502Y-354182D01*
X-885316Y-352988D01*
X-888202Y-351985D01*
X-891151Y-351180D01*
X-894146Y-350570D01*
X-897176Y-350161D01*
X-900224Y-349958D01*
X-903282Y-349958D01*
X-906330Y-350161D01*
X-909360Y-350570D01*
X-912355Y-351180D01*
X-915304Y-351985D01*
X-918189Y-352988D01*
X-921003Y-354182D01*
X-923731Y-355561D01*
X-926363Y-357118D01*
X-928883Y-358848D01*
X-931280Y-360743D01*
X-933549Y-362793D01*
X-935672Y-364990D01*
X-937646Y-367324D01*
X-939459Y-369785D01*
X-941103Y-372361D01*
X-942573Y-375041D01*
X-943858Y-377814D01*
X-944958Y-380667D01*
X-945862Y-383585D01*
X-946571Y-386557D01*
X-947079Y-389572D01*
X-947386Y-392612D01*
X-947488Y-395668D01*
X-947386Y-398724D01*
X-947079Y-401764D01*
X-946571Y-404779D01*
X-945862Y-407751D01*
X-944958Y-410669D01*
X-943858Y-413522D01*
X-942573Y-416295D01*
X-941103Y-418975D01*
X-939459Y-421551D01*
X-937646Y-424012D01*
X-935672Y-426346D01*
X-933549Y-428543D01*
X-931280Y-430593D01*
X-928883Y-432488D01*
X-926363Y-434218D01*
X-923731Y-435775D01*
X-921003Y-437154D01*
X-918189Y-438348D01*
X-915304Y-439351D01*
X-912355Y-440156D01*
X-909360Y-440766D01*
X-906330Y-441175D01*
G37*
G36*
X-1282504Y-422836D02*
G01*
X-1279446Y-422836D01*
X-1276398Y-422633D01*
X-1273368Y-422224D01*
X-1270373Y-421614D01*
X-1267424Y-420809D01*
X-1264538Y-419806D01*
X-1261724Y-418612D01*
X-1258996Y-417233D01*
X-1256365Y-415676D01*
X-1253845Y-413946D01*
X-1251447Y-412051D01*
X-1249179Y-410001D01*
X-1247056Y-407804D01*
X-1245082Y-405470D01*
X-1243269Y-403009D01*
X-1241625Y-400433D01*
X-1240154Y-397753D01*
X-1238869Y-394980D01*
X-1237769Y-392127D01*
X-1236865Y-389209D01*
X-1236157Y-386237D01*
X-1235649Y-383222D01*
X-1235341Y-380182D01*
X-1235240Y-377126D01*
X-1235341Y-374070D01*
X-1235649Y-371030D01*
X-1236157Y-368015D01*
X-1236865Y-365043D01*
X-1237769Y-362125D01*
X-1238869Y-359272D01*
X-1240154Y-356499D01*
X-1241625Y-353819D01*
X-1243269Y-351243D01*
X-1245082Y-348782D01*
X-1247056Y-346448D01*
X-1249179Y-344251D01*
X-1251447Y-342201D01*
X-1253845Y-340306D01*
X-1256365Y-338576D01*
X-1258996Y-337019D01*
X-1261724Y-335640D01*
X-1264538Y-334446D01*
X-1267424Y-333443D01*
X-1270373Y-332638D01*
X-1273368Y-332028D01*
X-1276398Y-331619D01*
X-1279446Y-331416D01*
X-1282504Y-331416D01*
X-1285552Y-331619D01*
X-1288582Y-332028D01*
X-1291577Y-332638D01*
X-1294526Y-333443D01*
X-1297411Y-334446D01*
X-1300225Y-335640D01*
X-1302953Y-337019D01*
X-1305585Y-338576D01*
X-1308105Y-340306D01*
X-1310502Y-342201D01*
X-1312771Y-344251D01*
X-1314894Y-346448D01*
X-1316868Y-348782D01*
X-1318681Y-351243D01*
X-1320325Y-353819D01*
X-1321795Y-356499D01*
X-1323080Y-359272D01*
X-1324180Y-362125D01*
X-1325084Y-365043D01*
X-1325793Y-368015D01*
X-1326301Y-371030D01*
X-1326608Y-374070D01*
X-1326710Y-377126D01*
X-1326608Y-380182D01*
X-1326301Y-383222D01*
X-1325793Y-386237D01*
X-1325084Y-389209D01*
X-1324180Y-392127D01*
X-1323080Y-394980D01*
X-1321795Y-397753D01*
X-1320325Y-400433D01*
X-1318681Y-403009D01*
X-1316868Y-405470D01*
X-1314894Y-407804D01*
X-1312771Y-410001D01*
X-1310502Y-412051D01*
X-1308105Y-413946D01*
X-1305585Y-415676D01*
X-1302953Y-417233D01*
X-1300225Y-418612D01*
X-1297411Y-419806D01*
X-1294526Y-420809D01*
X-1291577Y-421614D01*
X-1288582Y-422224D01*
X-1285552Y-422633D01*
G37*
G36*
X-1112324Y-389054D02*
G01*
X-1109266Y-389054D01*
X-1106218Y-388851D01*
X-1103188Y-388442D01*
X-1100193Y-387832D01*
X-1097244Y-387027D01*
X-1094359Y-386024D01*
X-1091544Y-384830D01*
X-1088816Y-383451D01*
X-1086185Y-381894D01*
X-1083665Y-380164D01*
X-1081267Y-378269D01*
X-1078999Y-376219D01*
X-1076876Y-374022D01*
X-1074902Y-371688D01*
X-1073089Y-369227D01*
X-1071445Y-366651D01*
X-1069975Y-363971D01*
X-1068689Y-361198D01*
X-1067589Y-358345D01*
X-1066685Y-355427D01*
X-1065977Y-352455D01*
X-1065469Y-349440D01*
X-1065161Y-346400D01*
X-1065060Y-343344D01*
X-1065161Y-340288D01*
X-1065469Y-337248D01*
X-1065977Y-334233D01*
X-1066685Y-331261D01*
X-1067589Y-328343D01*
X-1068689Y-325490D01*
X-1069975Y-322717D01*
X-1071445Y-320037D01*
X-1073089Y-317461D01*
X-1074902Y-315000D01*
X-1076876Y-312666D01*
X-1078999Y-310469D01*
X-1081267Y-308419D01*
X-1083665Y-306524D01*
X-1086185Y-304794D01*
X-1088816Y-303237D01*
X-1091544Y-301858D01*
X-1094359Y-300664D01*
X-1097244Y-299661D01*
X-1100193Y-298856D01*
X-1103188Y-298246D01*
X-1106218Y-297837D01*
X-1109266Y-297634D01*
X-1112324Y-297634D01*
X-1115372Y-297837D01*
X-1118402Y-298246D01*
X-1121397Y-298856D01*
X-1124346Y-299661D01*
X-1127231Y-300664D01*
X-1130045Y-301858D01*
X-1132773Y-303237D01*
X-1135405Y-304794D01*
X-1137925Y-306524D01*
X-1140322Y-308419D01*
X-1142591Y-310469D01*
X-1144714Y-312666D01*
X-1146688Y-315000D01*
X-1148501Y-317461D01*
X-1150145Y-320037D01*
X-1151615Y-322717D01*
X-1152900Y-325490D01*
X-1154000Y-328343D01*
X-1154904Y-331261D01*
X-1155613Y-334233D01*
X-1156121Y-337248D01*
X-1156428Y-340288D01*
X-1156530Y-343344D01*
X-1156428Y-346400D01*
X-1156121Y-349440D01*
X-1155613Y-352455D01*
X-1154904Y-355427D01*
X-1154000Y-358345D01*
X-1152900Y-361198D01*
X-1151615Y-363971D01*
X-1150145Y-366651D01*
X-1148501Y-369227D01*
X-1146688Y-371688D01*
X-1144714Y-374022D01*
X-1142591Y-376219D01*
X-1140322Y-378269D01*
X-1137925Y-380164D01*
X-1135405Y-381894D01*
X-1132773Y-383451D01*
X-1130045Y-384830D01*
X-1127231Y-386024D01*
X-1124346Y-387027D01*
X-1121397Y-387832D01*
X-1118402Y-388442D01*
X-1115372Y-388851D01*
G37*
G36*
X-249003Y-384482D02*
G01*
X-245945Y-384482D01*
X-242897Y-384279D01*
X-239867Y-383870D01*
X-236872Y-383260D01*
X-233923Y-382455D01*
X-231038Y-381452D01*
X-228224Y-380258D01*
X-225496Y-378879D01*
X-222864Y-377322D01*
X-220344Y-375592D01*
X-217947Y-373697D01*
X-215679Y-371647D01*
X-213555Y-369450D01*
X-211581Y-367116D01*
X-209768Y-364655D01*
X-208125Y-362079D01*
X-206654Y-359399D01*
X-205369Y-356626D01*
X-204269Y-353773D01*
X-203365Y-350855D01*
X-202656Y-347883D01*
X-202148Y-344868D01*
X-201841Y-341828D01*
X-201739Y-338772D01*
X-201841Y-335716D01*
X-202148Y-332676D01*
X-202656Y-329661D01*
X-203365Y-326689D01*
X-204269Y-323771D01*
X-205369Y-320918D01*
X-206654Y-318145D01*
X-208125Y-315465D01*
X-209768Y-312889D01*
X-211581Y-310428D01*
X-213555Y-308094D01*
X-215679Y-305897D01*
X-217947Y-303847D01*
X-220344Y-301952D01*
X-222864Y-300222D01*
X-225496Y-298665D01*
X-228224Y-297286D01*
X-231038Y-296092D01*
X-233923Y-295089D01*
X-236872Y-294284D01*
X-239867Y-293674D01*
X-242897Y-293265D01*
X-245945Y-293062D01*
X-249003Y-293062D01*
X-252051Y-293265D01*
X-255082Y-293674D01*
X-258076Y-294284D01*
X-261025Y-295089D01*
X-263911Y-296092D01*
X-266725Y-297286D01*
X-269453Y-298665D01*
X-272084Y-300222D01*
X-274604Y-301952D01*
X-277002Y-303847D01*
X-279270Y-305897D01*
X-281393Y-308094D01*
X-283367Y-310428D01*
X-285181Y-312889D01*
X-286824Y-315465D01*
X-288295Y-318145D01*
X-289580Y-320918D01*
X-290680Y-323771D01*
X-291584Y-326689D01*
X-292293Y-329661D01*
X-292801Y-332676D01*
X-293108Y-335716D01*
X-293209Y-338772D01*
X-293108Y-341828D01*
X-292801Y-344868D01*
X-292293Y-347883D01*
X-291584Y-350855D01*
X-290680Y-353773D01*
X-289580Y-356626D01*
X-288295Y-359399D01*
X-286824Y-362079D01*
X-285181Y-364655D01*
X-283367Y-367116D01*
X-281393Y-369450D01*
X-279270Y-371647D01*
X-277002Y-373697D01*
X-274604Y-375592D01*
X-272084Y-377322D01*
X-269453Y-378879D01*
X-266725Y-380258D01*
X-263911Y-381452D01*
X-261025Y-382455D01*
X-258076Y-383260D01*
X-255082Y-383870D01*
X-252051Y-384279D01*
G37*
G36*
X251147Y-352478D02*
G01*
X254205Y-352478D01*
X257253Y-352275D01*
X260283Y-351866D01*
X263278Y-351256D01*
X266227Y-350451D01*
X269113Y-349448D01*
X271927Y-348254D01*
X274655Y-346875D01*
X277286Y-345318D01*
X279806Y-343588D01*
X282204Y-341693D01*
X284472Y-339643D01*
X286595Y-337446D01*
X288569Y-335112D01*
X290382Y-332651D01*
X292026Y-330075D01*
X293497Y-327395D01*
X294782Y-324622D01*
X295882Y-321769D01*
X296786Y-318851D01*
X297494Y-315879D01*
X298002Y-312864D01*
X298310Y-309824D01*
X298411Y-306768D01*
X298310Y-303712D01*
X298002Y-300672D01*
X297494Y-297657D01*
X296786Y-294685D01*
X295882Y-291767D01*
X294782Y-288914D01*
X293497Y-286141D01*
X292026Y-283461D01*
X290382Y-280885D01*
X288983Y-278985D01*
X290263Y-279072D01*
X293321Y-279072D01*
X296369Y-278869D01*
X299399Y-278460D01*
X302394Y-277850D01*
X305343Y-277045D01*
X308229Y-276042D01*
X311043Y-274848D01*
X313771Y-273469D01*
X316402Y-271912D01*
X318922Y-270182D01*
X321320Y-268287D01*
X323588Y-266237D01*
X325711Y-264040D01*
X327685Y-261706D01*
X329498Y-259245D01*
X331142Y-256669D01*
X332613Y-253989D01*
X333898Y-251216D01*
X334998Y-248363D01*
X335902Y-245445D01*
X336610Y-242473D01*
X337118Y-239458D01*
X337426Y-236418D01*
X337527Y-233362D01*
X337426Y-230306D01*
X337118Y-227266D01*
X336610Y-224251D01*
X335902Y-221279D01*
X334998Y-218361D01*
X333898Y-215508D01*
X332613Y-212735D01*
X331142Y-210055D01*
X329498Y-207479D01*
X327685Y-205018D01*
X325711Y-202684D01*
X323588Y-200487D01*
X321320Y-198437D01*
X318922Y-196542D01*
X316402Y-194812D01*
X313771Y-193255D01*
X311043Y-191876D01*
X308229Y-190682D01*
X305343Y-189679D01*
X302394Y-188874D01*
X299399Y-188264D01*
X296369Y-187855D01*
X293321Y-187652D01*
X290263Y-187652D01*
X287215Y-187855D01*
X284185Y-188264D01*
X281190Y-188874D01*
X278241Y-189679D01*
X275356Y-190682D01*
X272542Y-191876D01*
X269814Y-193255D01*
X267182Y-194812D01*
X264662Y-196542D01*
X262265Y-198437D01*
X259996Y-200487D01*
X257873Y-202684D01*
X255899Y-205018D01*
X254086Y-207479D01*
X252442Y-210055D01*
X250972Y-212735D01*
X249687Y-215508D01*
X248587Y-218361D01*
X247683Y-221279D01*
X246974Y-224251D01*
X246466Y-227266D01*
X246159Y-230306D01*
X246057Y-233362D01*
X246159Y-236418D01*
X246466Y-239458D01*
X246974Y-242473D01*
X247683Y-245445D01*
X248587Y-248363D01*
X249687Y-251216D01*
X250972Y-253989D01*
X252442Y-256669D01*
X254086Y-259245D01*
X255485Y-261145D01*
X254205Y-261058D01*
X251147Y-261058D01*
X248099Y-261261D01*
X245069Y-261670D01*
X242074Y-262280D01*
X239125Y-263085D01*
X236240Y-264088D01*
X233426Y-265282D01*
X230698Y-266661D01*
X228066Y-268218D01*
X225546Y-269948D01*
X223149Y-271843D01*
X220880Y-273893D01*
X218757Y-276090D01*
X216783Y-278424D01*
X214970Y-280885D01*
X213326Y-283461D01*
X211856Y-286141D01*
X210571Y-288914D01*
X209471Y-291767D01*
X208567Y-294685D01*
X207858Y-297657D01*
X207350Y-300672D01*
X207043Y-303712D01*
X206941Y-306768D01*
X207043Y-309824D01*
X207350Y-312864D01*
X207858Y-315879D01*
X208567Y-318851D01*
X209471Y-321769D01*
X210571Y-324622D01*
X211856Y-327395D01*
X213326Y-330075D01*
X214970Y-332651D01*
X216783Y-335112D01*
X218757Y-337446D01*
X220880Y-339643D01*
X223149Y-341693D01*
X225546Y-343588D01*
X228066Y-345318D01*
X230698Y-346875D01*
X233426Y-348254D01*
X236240Y-349448D01*
X239125Y-350451D01*
X242074Y-351256D01*
X245069Y-351866D01*
X248099Y-352275D01*
G37*
G36*
X-1047554Y-323014D02*
G01*
X-1044496Y-323014D01*
X-1041448Y-322811D01*
X-1038418Y-322402D01*
X-1035423Y-321792D01*
X-1032474Y-320987D01*
X-1029588Y-319984D01*
X-1026774Y-318790D01*
X-1024046Y-317411D01*
X-1021415Y-315854D01*
X-1018895Y-314124D01*
X-1016497Y-312229D01*
X-1014229Y-310179D01*
X-1012106Y-307982D01*
X-1010132Y-305648D01*
X-1008319Y-303187D01*
X-1006675Y-300611D01*
X-1005204Y-297931D01*
X-1003919Y-295158D01*
X-1002819Y-292305D01*
X-1001915Y-289387D01*
X-1001207Y-286415D01*
X-1000699Y-283400D01*
X-1000391Y-280360D01*
X-1000290Y-277304D01*
X-1000391Y-274248D01*
X-1000699Y-271208D01*
X-1001207Y-268193D01*
X-1001915Y-265221D01*
X-1002819Y-262303D01*
X-1003919Y-259450D01*
X-1005204Y-256677D01*
X-1006675Y-253997D01*
X-1008319Y-251421D01*
X-1010132Y-248960D01*
X-1012106Y-246626D01*
X-1014229Y-244429D01*
X-1016497Y-242379D01*
X-1018895Y-240484D01*
X-1021415Y-238754D01*
X-1024046Y-237197D01*
X-1026774Y-235818D01*
X-1029588Y-234624D01*
X-1032474Y-233621D01*
X-1035423Y-232816D01*
X-1038418Y-232206D01*
X-1041448Y-231797D01*
X-1044496Y-231594D01*
X-1047554Y-231594D01*
X-1050602Y-231797D01*
X-1053632Y-232206D01*
X-1056627Y-232816D01*
X-1059576Y-233621D01*
X-1062461Y-234624D01*
X-1065275Y-235818D01*
X-1068003Y-237197D01*
X-1070635Y-238754D01*
X-1073155Y-240484D01*
X-1075552Y-242379D01*
X-1077821Y-244429D01*
X-1079944Y-246626D01*
X-1081918Y-248960D01*
X-1083731Y-251421D01*
X-1085375Y-253997D01*
X-1086845Y-256677D01*
X-1088130Y-259450D01*
X-1089230Y-262303D01*
X-1090134Y-265221D01*
X-1090843Y-268193D01*
X-1091351Y-271208D01*
X-1091658Y-274248D01*
X-1091760Y-277304D01*
X-1091658Y-280360D01*
X-1091351Y-283400D01*
X-1090843Y-286415D01*
X-1090134Y-289387D01*
X-1089230Y-292305D01*
X-1088130Y-295158D01*
X-1086845Y-297931D01*
X-1085375Y-300611D01*
X-1083731Y-303187D01*
X-1081918Y-305648D01*
X-1079944Y-307982D01*
X-1077821Y-310179D01*
X-1075552Y-312229D01*
X-1073155Y-314124D01*
X-1070635Y-315854D01*
X-1068003Y-317411D01*
X-1065275Y-318790D01*
X-1062461Y-319984D01*
X-1059576Y-320987D01*
X-1056627Y-321792D01*
X-1053632Y-322402D01*
X-1050602Y-322811D01*
G37*
G36*
X788611Y-276278D02*
G01*
X791669Y-276278D01*
X794717Y-276075D01*
X797747Y-275666D01*
X800742Y-275056D01*
X803691Y-274251D01*
X806577Y-273248D01*
X809391Y-272054D01*
X812119Y-270675D01*
X814750Y-269118D01*
X817270Y-267388D01*
X819668Y-265493D01*
X821936Y-263443D01*
X824059Y-261246D01*
X826033Y-258912D01*
X827846Y-256451D01*
X829490Y-253875D01*
X830961Y-251195D01*
X832246Y-248422D01*
X833346Y-245569D01*
X834250Y-242651D01*
X834958Y-239679D01*
X835466Y-236664D01*
X835774Y-233624D01*
X835875Y-230568D01*
X835774Y-227512D01*
X835466Y-224472D01*
X834958Y-221457D01*
X834250Y-218485D01*
X833346Y-215567D01*
X832246Y-212714D01*
X830961Y-209941D01*
X829490Y-207261D01*
X827846Y-204685D01*
X826033Y-202224D01*
X824059Y-199890D01*
X821936Y-197693D01*
X819668Y-195643D01*
X817270Y-193748D01*
X814750Y-192018D01*
X812119Y-190461D01*
X809391Y-189082D01*
X806577Y-187888D01*
X803691Y-186885D01*
X800742Y-186080D01*
X797747Y-185470D01*
X794717Y-185061D01*
X791669Y-184858D01*
X788611Y-184858D01*
X785563Y-185061D01*
X782533Y-185470D01*
X779538Y-186080D01*
X776589Y-186885D01*
X773704Y-187888D01*
X770890Y-189082D01*
X768162Y-190461D01*
X765530Y-192018D01*
X763010Y-193748D01*
X760613Y-195643D01*
X758344Y-197693D01*
X756221Y-199890D01*
X754247Y-202224D01*
X752434Y-204685D01*
X750790Y-207261D01*
X749320Y-209941D01*
X748035Y-212714D01*
X746935Y-215567D01*
X746031Y-218485D01*
X745322Y-221457D01*
X744814Y-224472D01*
X744507Y-227512D01*
X744405Y-230568D01*
X744507Y-233624D01*
X744814Y-236664D01*
X745322Y-239679D01*
X746031Y-242651D01*
X746935Y-245569D01*
X748035Y-248422D01*
X749320Y-251195D01*
X750790Y-253875D01*
X752434Y-256451D01*
X754247Y-258912D01*
X756221Y-261246D01*
X758344Y-263443D01*
X760613Y-265493D01*
X763010Y-267388D01*
X765530Y-269118D01*
X768162Y-270675D01*
X770890Y-272054D01*
X773704Y-273248D01*
X776589Y-274251D01*
X779538Y-275056D01*
X782533Y-275666D01*
X785563Y-276075D01*
G37*
G36*
X-857816Y-275008D02*
G01*
X-854758Y-275008D01*
X-851710Y-274805D01*
X-848680Y-274396D01*
X-845685Y-273786D01*
X-842736Y-272981D01*
X-839850Y-271978D01*
X-837036Y-270784D01*
X-834308Y-269405D01*
X-831677Y-267848D01*
X-829157Y-266118D01*
X-826759Y-264223D01*
X-824491Y-262173D01*
X-822368Y-259976D01*
X-820394Y-257642D01*
X-818581Y-255181D01*
X-816937Y-252605D01*
X-815466Y-249925D01*
X-814181Y-247152D01*
X-813081Y-244299D01*
X-812177Y-241381D01*
X-811469Y-238409D01*
X-810961Y-235394D01*
X-810653Y-232354D01*
X-810552Y-229298D01*
X-810653Y-226242D01*
X-810961Y-223202D01*
X-811469Y-220187D01*
X-812177Y-217215D01*
X-813081Y-214297D01*
X-814181Y-211444D01*
X-815466Y-208671D01*
X-816937Y-205991D01*
X-818581Y-203415D01*
X-820394Y-200954D01*
X-822368Y-198620D01*
X-824491Y-196423D01*
X-826759Y-194373D01*
X-829157Y-192478D01*
X-831677Y-190748D01*
X-834308Y-189191D01*
X-837036Y-187812D01*
X-839850Y-186618D01*
X-842736Y-185615D01*
X-845685Y-184810D01*
X-848680Y-184200D01*
X-851710Y-183791D01*
X-854758Y-183588D01*
X-857816Y-183588D01*
X-860864Y-183791D01*
X-863894Y-184200D01*
X-866889Y-184810D01*
X-869838Y-185615D01*
X-872723Y-186618D01*
X-875537Y-187812D01*
X-878265Y-189191D01*
X-880897Y-190748D01*
X-883417Y-192478D01*
X-885814Y-194373D01*
X-888083Y-196423D01*
X-890206Y-198620D01*
X-892180Y-200954D01*
X-893993Y-203415D01*
X-895637Y-205991D01*
X-897107Y-208671D01*
X-898392Y-211444D01*
X-899492Y-214297D01*
X-900396Y-217215D01*
X-901105Y-220187D01*
X-901613Y-223202D01*
X-901920Y-226242D01*
X-902022Y-229298D01*
X-901920Y-232354D01*
X-901613Y-235394D01*
X-901105Y-238409D01*
X-900396Y-241381D01*
X-899492Y-244299D01*
X-898392Y-247152D01*
X-897107Y-249925D01*
X-895637Y-252605D01*
X-893993Y-255181D01*
X-892180Y-257642D01*
X-890206Y-259976D01*
X-888083Y-262173D01*
X-885814Y-264223D01*
X-883417Y-266118D01*
X-880897Y-267848D01*
X-878265Y-269405D01*
X-875537Y-270784D01*
X-872723Y-271978D01*
X-869838Y-272981D01*
X-866889Y-273786D01*
X-863894Y-274396D01*
X-860864Y-274805D01*
G37*
G36*
X-239834Y-273992D02*
G01*
X-236776Y-273992D01*
X-233728Y-273789D01*
X-230698Y-273380D01*
X-227703Y-272770D01*
X-224754Y-271965D01*
X-221868Y-270962D01*
X-219054Y-269768D01*
X-216326Y-268389D01*
X-213695Y-266832D01*
X-211175Y-265102D01*
X-208777Y-263207D01*
X-206509Y-261157D01*
X-204386Y-258960D01*
X-202412Y-256626D01*
X-200599Y-254165D01*
X-198955Y-251589D01*
X-197484Y-248909D01*
X-196199Y-246136D01*
X-195099Y-243283D01*
X-194195Y-240365D01*
X-193487Y-237393D01*
X-192979Y-234378D01*
X-192671Y-231338D01*
X-192570Y-228282D01*
X-192671Y-225226D01*
X-192979Y-222186D01*
X-193487Y-219171D01*
X-194195Y-216199D01*
X-195099Y-213281D01*
X-196199Y-210428D01*
X-197484Y-207655D01*
X-198955Y-204975D01*
X-200599Y-202399D01*
X-202412Y-199938D01*
X-204386Y-197604D01*
X-206509Y-195407D01*
X-208777Y-193357D01*
X-211175Y-191462D01*
X-213695Y-189732D01*
X-216326Y-188175D01*
X-219054Y-186796D01*
X-221868Y-185602D01*
X-224754Y-184599D01*
X-227703Y-183794D01*
X-230698Y-183184D01*
X-233728Y-182775D01*
X-236776Y-182572D01*
X-239834Y-182572D01*
X-242882Y-182775D01*
X-245912Y-183184D01*
X-248907Y-183794D01*
X-251856Y-184599D01*
X-254741Y-185602D01*
X-257555Y-186796D01*
X-260283Y-188175D01*
X-262915Y-189732D01*
X-265435Y-191462D01*
X-267832Y-193357D01*
X-270101Y-195407D01*
X-272224Y-197604D01*
X-274198Y-199938D01*
X-276011Y-202399D01*
X-277655Y-204975D01*
X-279125Y-207655D01*
X-280410Y-210428D01*
X-281510Y-213281D01*
X-282414Y-216199D01*
X-283123Y-219171D01*
X-283631Y-222186D01*
X-283938Y-225226D01*
X-284040Y-228282D01*
X-283938Y-231338D01*
X-283631Y-234378D01*
X-283123Y-237393D01*
X-282414Y-240365D01*
X-281510Y-243283D01*
X-280410Y-246136D01*
X-279125Y-248909D01*
X-277655Y-251589D01*
X-276011Y-254165D01*
X-274198Y-256626D01*
X-272224Y-258960D01*
X-270101Y-261157D01*
X-267832Y-263207D01*
X-265435Y-265102D01*
X-262915Y-266832D01*
X-260283Y-268389D01*
X-257555Y-269768D01*
X-254741Y-270962D01*
X-251856Y-271965D01*
X-248907Y-272770D01*
X-245912Y-273380D01*
X-242882Y-273789D01*
G37*
G36*
X-1199192Y-238940D02*
G01*
X-1196134Y-238940D01*
X-1193086Y-238737D01*
X-1190056Y-238328D01*
X-1187061Y-237718D01*
X-1184112Y-236913D01*
X-1181227Y-235910D01*
X-1178412Y-234716D01*
X-1175684Y-233337D01*
X-1173053Y-231780D01*
X-1170533Y-230050D01*
X-1168135Y-228155D01*
X-1165867Y-226105D01*
X-1163744Y-223908D01*
X-1161770Y-221574D01*
X-1159957Y-219113D01*
X-1158313Y-216537D01*
X-1156843Y-213857D01*
X-1155557Y-211084D01*
X-1154457Y-208231D01*
X-1153553Y-205313D01*
X-1152845Y-202341D01*
X-1152337Y-199326D01*
X-1152029Y-196286D01*
X-1151928Y-193230D01*
X-1152029Y-190174D01*
X-1152337Y-187134D01*
X-1152845Y-184119D01*
X-1153553Y-181147D01*
X-1154457Y-178229D01*
X-1155557Y-175376D01*
X-1156843Y-172603D01*
X-1158313Y-169923D01*
X-1159957Y-167347D01*
X-1161770Y-164886D01*
X-1163744Y-162552D01*
X-1165867Y-160355D01*
X-1168135Y-158305D01*
X-1170533Y-156410D01*
X-1173053Y-154680D01*
X-1175684Y-153123D01*
X-1178412Y-151744D01*
X-1181227Y-150550D01*
X-1184112Y-149547D01*
X-1187061Y-148742D01*
X-1190056Y-148132D01*
X-1193086Y-147723D01*
X-1196134Y-147520D01*
X-1199192Y-147520D01*
X-1202240Y-147723D01*
X-1205270Y-148132D01*
X-1208265Y-148742D01*
X-1211214Y-149547D01*
X-1214099Y-150550D01*
X-1216913Y-151744D01*
X-1219641Y-153123D01*
X-1222273Y-154680D01*
X-1224793Y-156410D01*
X-1227190Y-158305D01*
X-1229459Y-160355D01*
X-1231582Y-162552D01*
X-1233556Y-164886D01*
X-1235369Y-167347D01*
X-1237013Y-169923D01*
X-1238483Y-172603D01*
X-1239768Y-175376D01*
X-1240868Y-178229D01*
X-1241772Y-181147D01*
X-1242481Y-184119D01*
X-1242989Y-187134D01*
X-1243296Y-190174D01*
X-1243398Y-193230D01*
X-1243296Y-196286D01*
X-1242989Y-199326D01*
X-1242481Y-202341D01*
X-1241772Y-205313D01*
X-1240868Y-208231D01*
X-1239768Y-211084D01*
X-1238483Y-213857D01*
X-1237013Y-216537D01*
X-1235369Y-219113D01*
X-1233556Y-221574D01*
X-1231582Y-223908D01*
X-1229459Y-226105D01*
X-1227190Y-228155D01*
X-1224793Y-230050D01*
X-1222273Y-231780D01*
X-1219641Y-233337D01*
X-1216913Y-234716D01*
X-1214099Y-235910D01*
X-1211214Y-236913D01*
X-1208265Y-237718D01*
X-1205270Y-238328D01*
X-1202240Y-238737D01*
G37*
G36*
X-112834Y-156644D02*
G01*
X-109776Y-156644D01*
X-106728Y-156441D01*
X-103698Y-156032D01*
X-100703Y-155422D01*
X-97754Y-154617D01*
X-94868Y-153614D01*
X-92054Y-152420D01*
X-89326Y-151041D01*
X-86695Y-149484D01*
X-84175Y-147754D01*
X-81777Y-145859D01*
X-79509Y-143809D01*
X-77386Y-141612D01*
X-75412Y-139278D01*
X-73599Y-136817D01*
X-71955Y-134241D01*
X-70484Y-131561D01*
X-69199Y-128788D01*
X-68099Y-125935D01*
X-67195Y-123017D01*
X-66487Y-120045D01*
X-65979Y-117030D01*
X-65671Y-113990D01*
X-65570Y-110934D01*
X-65671Y-107878D01*
X-65979Y-104838D01*
X-66487Y-101823D01*
X-67195Y-98851D01*
X-68099Y-95933D01*
X-69199Y-93080D01*
X-70484Y-90307D01*
X-71955Y-87627D01*
X-73599Y-85051D01*
X-75412Y-82590D01*
X-77386Y-80256D01*
X-79509Y-78059D01*
X-81777Y-76009D01*
X-84175Y-74114D01*
X-86695Y-72384D01*
X-89326Y-70827D01*
X-92054Y-69448D01*
X-94868Y-68254D01*
X-97754Y-67251D01*
X-100703Y-66446D01*
X-103698Y-65836D01*
X-106728Y-65427D01*
X-109776Y-65224D01*
X-112834Y-65224D01*
X-115882Y-65427D01*
X-118912Y-65836D01*
X-121907Y-66446D01*
X-124856Y-67251D01*
X-127741Y-68254D01*
X-130555Y-69448D01*
X-133283Y-70827D01*
X-135915Y-72384D01*
X-138435Y-74114D01*
X-140832Y-76009D01*
X-143101Y-78059D01*
X-145224Y-80256D01*
X-147198Y-82590D01*
X-149011Y-85051D01*
X-150655Y-87627D01*
X-152125Y-90307D01*
X-153410Y-93080D01*
X-154510Y-95933D01*
X-155414Y-98851D01*
X-156123Y-101823D01*
X-156631Y-104838D01*
X-156938Y-107878D01*
X-157040Y-110934D01*
X-156938Y-113990D01*
X-156631Y-117030D01*
X-156123Y-120045D01*
X-155414Y-123017D01*
X-154510Y-125935D01*
X-153410Y-128788D01*
X-152125Y-131561D01*
X-150655Y-134241D01*
X-149011Y-136817D01*
X-147198Y-139278D01*
X-145224Y-141612D01*
X-143101Y-143809D01*
X-140832Y-145859D01*
X-138435Y-147754D01*
X-135915Y-149484D01*
X-133283Y-151041D01*
X-130555Y-152420D01*
X-127741Y-153614D01*
X-124856Y-154617D01*
X-121907Y-155422D01*
X-118912Y-156032D01*
X-115882Y-156441D01*
G37*
G36*
X246677Y-122176D02*
G01*
X249735Y-122176D01*
X252783Y-121973D01*
X255813Y-121564D01*
X258808Y-120954D01*
X261757Y-120149D01*
X264642Y-119146D01*
X267456Y-117952D01*
X270184Y-116573D01*
X272816Y-115016D01*
X275336Y-113286D01*
X277733Y-111391D01*
X280001Y-109341D01*
X282125Y-107144D01*
X284099Y-104810D01*
X285912Y-102349D01*
X287555Y-99773D01*
X289026Y-97094D01*
X290311Y-94320D01*
X291411Y-91467D01*
X292315Y-88549D01*
X293024Y-85577D01*
X293532Y-82562D01*
X293839Y-79522D01*
X293941Y-76466D01*
X293839Y-73411D01*
X293532Y-70370D01*
X293024Y-67355D01*
X292315Y-64383D01*
X291411Y-61465D01*
X290311Y-58613D01*
X289026Y-55839D01*
X287555Y-53159D01*
X285912Y-50584D01*
X284099Y-48122D01*
X282125Y-45788D01*
X280001Y-43591D01*
X277733Y-41541D01*
X275336Y-39646D01*
X272816Y-37917D01*
X270184Y-36360D01*
X267456Y-34980D01*
X264642Y-33787D01*
X261757Y-32783D01*
X258808Y-31978D01*
X255813Y-31368D01*
X252783Y-30960D01*
X249735Y-30756D01*
X246677Y-30756D01*
X243629Y-30960D01*
X240598Y-31368D01*
X237604Y-31978D01*
X234655Y-32783D01*
X231769Y-33787D01*
X228955Y-34980D01*
X226227Y-36360D01*
X223596Y-37917D01*
X221076Y-39646D01*
X218678Y-41541D01*
X216410Y-43591D01*
X214287Y-45788D01*
X212313Y-48122D01*
X210499Y-50584D01*
X208856Y-53159D01*
X207385Y-55839D01*
X206100Y-58613D01*
X205000Y-61465D01*
X204096Y-64383D01*
X203387Y-67355D01*
X202879Y-70370D01*
X202572Y-73411D01*
X202471Y-76466D01*
X202572Y-79522D01*
X202879Y-82562D01*
X203387Y-85577D01*
X204096Y-88549D01*
X205000Y-91467D01*
X206100Y-94320D01*
X207385Y-97094D01*
X208856Y-99773D01*
X210499Y-102349D01*
X212313Y-104810D01*
X214287Y-107144D01*
X216410Y-109341D01*
X218678Y-111391D01*
X221076Y-113286D01*
X223596Y-115016D01*
X226227Y-116573D01*
X228955Y-117952D01*
X231769Y-119146D01*
X234655Y-120149D01*
X237604Y-120954D01*
X240598Y-121564D01*
X243629Y-121973D01*
G37*
G36*
X-329496Y-105336D02*
G01*
X-326438Y-105336D01*
X-323390Y-105133D01*
X-320360Y-104724D01*
X-317365Y-104114D01*
X-314416Y-103309D01*
X-311530Y-102306D01*
X-308716Y-101112D01*
X-305988Y-99733D01*
X-303357Y-98176D01*
X-300837Y-96446D01*
X-298439Y-94551D01*
X-296171Y-92501D01*
X-294048Y-90304D01*
X-292074Y-87970D01*
X-290261Y-85509D01*
X-288617Y-82933D01*
X-287146Y-80253D01*
X-285861Y-77480D01*
X-284761Y-74627D01*
X-283857Y-71709D01*
X-283149Y-68737D01*
X-282641Y-65722D01*
X-282333Y-62682D01*
X-282232Y-59626D01*
X-282333Y-56570D01*
X-282641Y-53530D01*
X-283149Y-50515D01*
X-283857Y-47543D01*
X-284761Y-44625D01*
X-285861Y-41772D01*
X-287146Y-38999D01*
X-288617Y-36319D01*
X-290261Y-33743D01*
X-292074Y-31282D01*
X-294048Y-28948D01*
X-296171Y-26751D01*
X-298439Y-24701D01*
X-300837Y-22806D01*
X-303357Y-21076D01*
X-305988Y-19519D01*
X-308716Y-18140D01*
X-311530Y-16946D01*
X-314416Y-15943D01*
X-317365Y-15138D01*
X-320360Y-14528D01*
X-323390Y-14119D01*
X-326438Y-13916D01*
X-329496Y-13916D01*
X-332544Y-14119D01*
X-335574Y-14528D01*
X-338569Y-15138D01*
X-341518Y-15943D01*
X-344403Y-16946D01*
X-347218Y-18140D01*
X-349945Y-19519D01*
X-352577Y-21076D01*
X-355097Y-22806D01*
X-357494Y-24701D01*
X-359763Y-26751D01*
X-361886Y-28948D01*
X-363860Y-31282D01*
X-365673Y-33743D01*
X-367317Y-36319D01*
X-368787Y-38999D01*
X-370072Y-41772D01*
X-371172Y-44625D01*
X-372076Y-47543D01*
X-372785Y-50515D01*
X-373293Y-53530D01*
X-373600Y-56570D01*
X-373702Y-59626D01*
X-373600Y-62682D01*
X-373293Y-65722D01*
X-372785Y-68737D01*
X-372076Y-71709D01*
X-371172Y-74627D01*
X-370072Y-77480D01*
X-368787Y-80253D01*
X-367317Y-82933D01*
X-365673Y-85509D01*
X-363860Y-87970D01*
X-361886Y-90304D01*
X-359763Y-92501D01*
X-357494Y-94551D01*
X-355097Y-96446D01*
X-352577Y-98176D01*
X-349945Y-99733D01*
X-347218Y-101112D01*
X-344403Y-102306D01*
X-341518Y-103309D01*
X-338569Y-104114D01*
X-335574Y-104724D01*
X-332544Y-105133D01*
G37*
G36*
X-148343Y-65788D02*
G01*
X-145285Y-65788D01*
X-142237Y-65585D01*
X-139207Y-65176D01*
X-136212Y-64566D01*
X-133263Y-63761D01*
X-130378Y-62758D01*
X-127563Y-61564D01*
X-124835Y-60185D01*
X-122204Y-58628D01*
X-119684Y-56898D01*
X-117287Y-55003D01*
X-115018Y-52953D01*
X-112895Y-50756D01*
X-110921Y-48422D01*
X-109108Y-45961D01*
X-107464Y-43385D01*
X-105994Y-40706D01*
X-104708Y-37932D01*
X-103609Y-35079D01*
X-102704Y-32161D01*
X-101996Y-29189D01*
X-101488Y-26174D01*
X-101180Y-23134D01*
X-101079Y-20078D01*
X-101180Y-17023D01*
X-101488Y-13982D01*
X-101996Y-10967D01*
X-102704Y-7995D01*
X-103609Y-5077D01*
X-104708Y-2225D01*
X-105994Y548D01*
X-107464Y3228D01*
X-109108Y5803D01*
X-110921Y8265D01*
X-112895Y10599D01*
X-115018Y12796D01*
X-117287Y14846D01*
X-119684Y16741D01*
X-122204Y18470D01*
X-124835Y20027D01*
X-127563Y21407D01*
X-130378Y22600D01*
X-133263Y23604D01*
X-136212Y24409D01*
X-139207Y25019D01*
X-142237Y25427D01*
X-145285Y25631D01*
X-148343Y25631D01*
X-151391Y25427D01*
X-154421Y25019D01*
X-157416Y24409D01*
X-160365Y23604D01*
X-163250Y22600D01*
X-166065Y21407D01*
X-168793Y20027D01*
X-171424Y18470D01*
X-173944Y16741D01*
X-176342Y14846D01*
X-178610Y12796D01*
X-180733Y10599D01*
X-182707Y8265D01*
X-184520Y5803D01*
X-186164Y3228D01*
X-187634Y548D01*
X-188920Y-2225D01*
X-190019Y-5077D01*
X-190924Y-7995D01*
X-191632Y-10967D01*
X-192140Y-13982D01*
X-192448Y-17023D01*
X-192549Y-20078D01*
X-192448Y-23134D01*
X-192140Y-26174D01*
X-191632Y-29189D01*
X-190924Y-32161D01*
X-190019Y-35079D01*
X-188920Y-37932D01*
X-187634Y-40706D01*
X-186164Y-43385D01*
X-184520Y-45961D01*
X-182707Y-48422D01*
X-180733Y-50756D01*
X-178610Y-52953D01*
X-176342Y-55003D01*
X-173944Y-56898D01*
X-171424Y-58628D01*
X-168793Y-60185D01*
X-166065Y-61564D01*
X-163250Y-62758D01*
X-160365Y-63761D01*
X-157416Y-64566D01*
X-154421Y-65176D01*
X-151391Y-65585D01*
G37*
G36*
X615180Y44955D02*
G01*
X618238Y44955D01*
X621286Y45158D01*
X624316Y45567D01*
X627311Y46177D01*
X630260Y46982D01*
X633145Y47985D01*
X635960Y49179D01*
X638688Y50558D01*
X641319Y52115D01*
X643839Y53845D01*
X646236Y55740D01*
X648505Y57790D01*
X650628Y59987D01*
X652602Y62321D01*
X654415Y64782D01*
X656059Y67358D01*
X657529Y70037D01*
X658815Y72811D01*
X659914Y75664D01*
X660819Y78582D01*
X661527Y81554D01*
X662035Y84569D01*
X662343Y87609D01*
X662444Y90665D01*
X662343Y93720D01*
X662035Y96761D01*
X661527Y99776D01*
X660819Y102748D01*
X659914Y105666D01*
X658815Y108518D01*
X657529Y111292D01*
X656059Y113972D01*
X654415Y116547D01*
X652602Y119009D01*
X650628Y121343D01*
X648505Y123540D01*
X646236Y125590D01*
X643839Y127485D01*
X641319Y129214D01*
X638688Y130771D01*
X635960Y132151D01*
X633145Y133344D01*
X630260Y134348D01*
X627311Y135153D01*
X624316Y135763D01*
X621286Y136171D01*
X618238Y136375D01*
X615180Y136375D01*
X612132Y136171D01*
X609102Y135763D01*
X606107Y135153D01*
X603158Y134348D01*
X600273Y133344D01*
X597458Y132151D01*
X594730Y130771D01*
X592099Y129214D01*
X589579Y127485D01*
X587181Y125590D01*
X584913Y123540D01*
X582790Y121343D01*
X580816Y119009D01*
X579003Y116547D01*
X577359Y113972D01*
X575889Y111292D01*
X574603Y108518D01*
X573504Y105666D01*
X572599Y102748D01*
X571891Y99776D01*
X571383Y96761D01*
X571075Y93720D01*
X570974Y90665D01*
X571075Y87609D01*
X571383Y84569D01*
X571891Y81554D01*
X572599Y78582D01*
X573504Y75664D01*
X574603Y72811D01*
X575889Y70037D01*
X577359Y67358D01*
X579003Y64782D01*
X580816Y62321D01*
X582790Y59987D01*
X584913Y57790D01*
X587181Y55740D01*
X589579Y53845D01*
X592099Y52115D01*
X594730Y50558D01*
X597458Y49179D01*
X600273Y47985D01*
X603158Y46982D01*
X606107Y46177D01*
X609102Y45567D01*
X612132Y45158D01*
G37*
G36*
X-1020325Y61465D02*
G01*
X-1017267Y61465D01*
X-1014219Y61668D01*
X-1011189Y62077D01*
X-1008194Y62687D01*
X-1005245Y63492D01*
X-1002360Y64495D01*
X-999545Y65689D01*
X-996817Y67068D01*
X-994186Y68625D01*
X-991666Y70355D01*
X-989269Y72250D01*
X-987000Y74300D01*
X-984877Y76497D01*
X-982903Y78831D01*
X-981090Y81292D01*
X-979446Y83868D01*
X-977976Y86547D01*
X-976690Y89321D01*
X-975591Y92174D01*
X-974686Y95092D01*
X-973978Y98064D01*
X-973470Y101079D01*
X-973162Y104119D01*
X-973061Y107175D01*
X-973162Y110230D01*
X-973470Y113271D01*
X-973978Y116286D01*
X-974686Y119258D01*
X-975591Y122176D01*
X-976690Y125028D01*
X-977976Y127802D01*
X-979446Y130482D01*
X-981090Y133057D01*
X-982903Y135519D01*
X-984877Y137853D01*
X-987000Y140050D01*
X-989269Y142100D01*
X-991666Y143995D01*
X-994186Y145724D01*
X-996817Y147281D01*
X-999545Y148661D01*
X-1002360Y149854D01*
X-1005245Y150858D01*
X-1008194Y151663D01*
X-1011189Y152272D01*
X-1014219Y152681D01*
X-1017267Y152885D01*
X-1020325Y152885D01*
X-1023373Y152681D01*
X-1026403Y152272D01*
X-1029398Y151663D01*
X-1032347Y150858D01*
X-1035232Y149854D01*
X-1038047Y148661D01*
X-1040775Y147281D01*
X-1043406Y145724D01*
X-1045926Y143995D01*
X-1048324Y142100D01*
X-1050592Y140050D01*
X-1052715Y137853D01*
X-1054689Y135519D01*
X-1056502Y133057D01*
X-1058146Y130482D01*
X-1059616Y127802D01*
X-1060902Y125028D01*
X-1062001Y122176D01*
X-1062906Y119258D01*
X-1063614Y116286D01*
X-1064122Y113271D01*
X-1064430Y110230D01*
X-1064531Y107175D01*
X-1064430Y104119D01*
X-1064122Y101079D01*
X-1063614Y98064D01*
X-1062906Y95092D01*
X-1062001Y92174D01*
X-1060902Y89321D01*
X-1059616Y86547D01*
X-1058146Y83868D01*
X-1056502Y81292D01*
X-1054689Y78831D01*
X-1052715Y76497D01*
X-1050592Y74300D01*
X-1048324Y72250D01*
X-1045926Y70355D01*
X-1043406Y68625D01*
X-1040775Y67068D01*
X-1038047Y65689D01*
X-1035232Y64495D01*
X-1032347Y63492D01*
X-1029398Y62687D01*
X-1026403Y62077D01*
X-1023373Y61668D01*
G37*
G36*
X930140Y78483D02*
G01*
X933198Y78483D01*
X936246Y78686D01*
X939276Y79095D01*
X942271Y79705D01*
X945220Y80510D01*
X948105Y81513D01*
X950920Y82707D01*
X953648Y84086D01*
X956279Y85643D01*
X958799Y87373D01*
X961196Y89268D01*
X963465Y91318D01*
X965588Y93515D01*
X967562Y95849D01*
X969375Y98310D01*
X971019Y100886D01*
X972489Y103565D01*
X973775Y106339D01*
X974874Y109192D01*
X975779Y112110D01*
X976487Y115082D01*
X976995Y118097D01*
X977303Y121137D01*
X977404Y124193D01*
X977303Y127248D01*
X976995Y130289D01*
X976487Y133304D01*
X975779Y136276D01*
X974874Y139194D01*
X973775Y142046D01*
X972489Y144820D01*
X971019Y147500D01*
X969375Y150075D01*
X967562Y152537D01*
X965588Y154871D01*
X963465Y157068D01*
X961196Y159118D01*
X958799Y161013D01*
X956279Y162742D01*
X953648Y164299D01*
X950920Y165679D01*
X948105Y166872D01*
X945220Y167876D01*
X942271Y168681D01*
X939276Y169290D01*
X936246Y169699D01*
X933198Y169903D01*
X930140Y169903D01*
X927092Y169699D01*
X924062Y169290D01*
X921067Y168681D01*
X918118Y167876D01*
X915233Y166872D01*
X912418Y165679D01*
X909690Y164299D01*
X907059Y162742D01*
X904539Y161013D01*
X902141Y159118D01*
X899873Y157068D01*
X897750Y154871D01*
X895776Y152537D01*
X893963Y150075D01*
X892319Y147500D01*
X890849Y144820D01*
X889563Y142046D01*
X888464Y139194D01*
X887559Y136276D01*
X886851Y133304D01*
X886343Y130289D01*
X886035Y127248D01*
X885934Y124193D01*
X886035Y121137D01*
X886343Y118097D01*
X886851Y115082D01*
X887559Y112110D01*
X888464Y109192D01*
X889563Y106339D01*
X890849Y103565D01*
X892319Y100886D01*
X893963Y98310D01*
X895776Y95849D01*
X897750Y93515D01*
X899873Y91318D01*
X902141Y89268D01*
X904539Y87373D01*
X907059Y85643D01*
X909690Y84086D01*
X912418Y82707D01*
X915233Y81513D01*
X918118Y80510D01*
X921067Y79705D01*
X924062Y79095D01*
X927092Y78686D01*
G37*
G36*
X-251035Y120977D02*
G01*
X-247977Y120977D01*
X-244929Y121180D01*
X-241899Y121589D01*
X-238904Y122199D01*
X-235955Y123004D01*
X-233070Y124007D01*
X-230256Y125201D01*
X-227528Y126580D01*
X-224896Y128137D01*
X-222377Y129867D01*
X-219979Y131762D01*
X-217711Y133812D01*
X-215587Y136009D01*
X-213613Y138343D01*
X-211800Y140804D01*
X-210157Y143380D01*
X-208686Y146060D01*
X-207401Y148833D01*
X-206301Y151686D01*
X-205397Y154604D01*
X-204688Y157576D01*
X-204180Y160591D01*
X-203873Y163631D01*
X-203771Y166687D01*
X-203873Y169743D01*
X-204180Y172783D01*
X-204688Y175798D01*
X-205397Y178770D01*
X-206301Y181688D01*
X-207401Y184541D01*
X-208686Y187314D01*
X-210157Y189994D01*
X-211800Y192570D01*
X-213613Y195031D01*
X-215587Y197365D01*
X-217711Y199562D01*
X-219979Y201612D01*
X-222377Y203507D01*
X-224896Y205237D01*
X-227528Y206794D01*
X-230256Y208173D01*
X-233070Y209367D01*
X-235955Y210370D01*
X-238904Y211175D01*
X-241899Y211785D01*
X-244929Y212194D01*
X-247977Y212397D01*
X-251035Y212397D01*
X-254083Y212194D01*
X-257114Y211785D01*
X-260108Y211175D01*
X-263057Y210370D01*
X-265943Y209367D01*
X-268757Y208173D01*
X-271485Y206794D01*
X-274116Y205237D01*
X-276636Y203507D01*
X-279034Y201612D01*
X-281302Y199562D01*
X-283425Y197365D01*
X-285399Y195031D01*
X-287213Y192570D01*
X-288856Y189994D01*
X-290327Y187314D01*
X-291612Y184541D01*
X-292712Y181688D01*
X-293616Y178770D01*
X-294325Y175798D01*
X-294833Y172783D01*
X-295140Y169743D01*
X-295241Y166687D01*
X-295140Y163631D01*
X-294833Y160591D01*
X-294325Y157576D01*
X-293616Y154604D01*
X-292712Y151686D01*
X-291612Y148833D01*
X-290327Y146060D01*
X-288856Y143380D01*
X-287213Y140804D01*
X-285399Y138343D01*
X-283425Y136009D01*
X-281302Y133812D01*
X-279034Y131762D01*
X-276636Y129867D01*
X-274116Y128137D01*
X-271485Y126580D01*
X-268757Y125201D01*
X-265943Y124007D01*
X-263057Y123004D01*
X-260108Y122199D01*
X-257114Y121589D01*
X-254083Y121180D01*
G37*
G36*
X-149689Y123009D02*
G01*
X-146631Y123009D01*
X-143583Y123212D01*
X-140553Y123621D01*
X-137558Y124231D01*
X-134609Y125036D01*
X-131724Y126039D01*
X-128910Y127233D01*
X-126182Y128612D01*
X-123550Y130169D01*
X-121030Y131899D01*
X-118633Y133794D01*
X-116365Y135844D01*
X-114241Y138041D01*
X-112268Y140375D01*
X-110454Y142836D01*
X-108811Y145412D01*
X-107340Y148092D01*
X-106055Y150865D01*
X-104955Y153718D01*
X-104051Y156636D01*
X-103342Y159608D01*
X-102834Y162623D01*
X-102527Y165663D01*
X-102425Y168719D01*
X-102527Y171775D01*
X-102834Y174815D01*
X-103342Y177830D01*
X-104051Y180802D01*
X-104955Y183720D01*
X-106055Y186573D01*
X-107340Y189346D01*
X-108811Y192026D01*
X-110454Y194602D01*
X-112268Y197063D01*
X-114241Y199397D01*
X-116365Y201594D01*
X-118633Y203644D01*
X-121030Y205539D01*
X-123550Y207269D01*
X-126182Y208826D01*
X-128910Y210205D01*
X-131724Y211399D01*
X-134609Y212402D01*
X-137558Y213207D01*
X-140553Y213817D01*
X-143583Y214226D01*
X-146631Y214429D01*
X-149689Y214429D01*
X-152737Y214226D01*
X-155768Y213817D01*
X-158762Y213207D01*
X-161711Y212402D01*
X-164597Y211399D01*
X-167411Y210205D01*
X-170139Y208826D01*
X-172770Y207269D01*
X-175290Y205539D01*
X-177688Y203644D01*
X-179956Y201594D01*
X-182079Y199397D01*
X-184053Y197063D01*
X-185867Y194602D01*
X-187510Y192026D01*
X-188981Y189346D01*
X-190266Y186573D01*
X-191366Y183720D01*
X-192270Y180802D01*
X-192979Y177830D01*
X-193487Y174815D01*
X-193794Y171775D01*
X-193895Y168719D01*
X-193794Y165663D01*
X-193487Y162623D01*
X-192979Y159608D01*
X-192270Y156636D01*
X-191366Y153718D01*
X-190266Y150865D01*
X-188981Y148092D01*
X-187510Y145412D01*
X-185867Y142836D01*
X-184053Y140375D01*
X-182079Y138041D01*
X-179956Y135844D01*
X-177688Y133794D01*
X-175290Y131899D01*
X-172770Y130169D01*
X-170139Y128612D01*
X-167411Y127233D01*
X-164597Y126039D01*
X-161711Y125036D01*
X-158762Y124231D01*
X-155768Y123621D01*
X-152737Y123212D01*
G37*
G36*
X-1031831Y214449D02*
G01*
X-1028773Y214449D01*
X-1025725Y214652D01*
X-1022695Y215061D01*
X-1019700Y215671D01*
X-1016751Y216476D01*
X-1013866Y217479D01*
X-1011052Y218673D01*
X-1008324Y220052D01*
X-1005692Y221609D01*
X-1003172Y223339D01*
X-1000775Y225234D01*
X-998507Y227284D01*
X-996383Y229481D01*
X-994409Y231815D01*
X-992596Y234276D01*
X-990953Y236852D01*
X-989482Y239532D01*
X-988197Y242305D01*
X-987097Y245158D01*
X-986193Y248076D01*
X-985484Y251048D01*
X-984976Y254063D01*
X-984669Y257103D01*
X-984567Y260159D01*
X-984669Y263215D01*
X-984976Y266255D01*
X-985484Y269270D01*
X-986193Y272242D01*
X-987097Y275160D01*
X-988197Y278013D01*
X-989482Y280786D01*
X-990953Y283466D01*
X-992596Y286042D01*
X-994409Y288503D01*
X-996383Y290837D01*
X-998507Y293034D01*
X-1000775Y295084D01*
X-1003172Y296979D01*
X-1005692Y298709D01*
X-1008324Y300266D01*
X-1011052Y301645D01*
X-1013866Y302839D01*
X-1016751Y303842D01*
X-1019700Y304647D01*
X-1022695Y305257D01*
X-1025725Y305666D01*
X-1028773Y305869D01*
X-1031831Y305869D01*
X-1034879Y305666D01*
X-1037910Y305257D01*
X-1040904Y304647D01*
X-1043853Y303842D01*
X-1046739Y302839D01*
X-1049553Y301645D01*
X-1052281Y300266D01*
X-1054912Y298709D01*
X-1057432Y296979D01*
X-1059830Y295084D01*
X-1062098Y293034D01*
X-1064221Y290837D01*
X-1066195Y288503D01*
X-1068009Y286042D01*
X-1069652Y283466D01*
X-1071123Y280786D01*
X-1072408Y278013D01*
X-1073508Y275160D01*
X-1074412Y272242D01*
X-1075121Y269270D01*
X-1075629Y266255D01*
X-1075936Y263215D01*
X-1076037Y260159D01*
X-1075936Y257103D01*
X-1075629Y254063D01*
X-1075121Y251048D01*
X-1074412Y248076D01*
X-1073508Y245158D01*
X-1072408Y242305D01*
X-1071123Y239532D01*
X-1069652Y236852D01*
X-1068009Y234276D01*
X-1066195Y231815D01*
X-1064221Y229481D01*
X-1062098Y227284D01*
X-1059830Y225234D01*
X-1057432Y223339D01*
X-1054912Y221609D01*
X-1052281Y220052D01*
X-1049553Y218673D01*
X-1046739Y217479D01*
X-1043853Y216476D01*
X-1040904Y215671D01*
X-1037910Y215061D01*
X-1034879Y214652D01*
G37*
G36*
X-175597Y285569D02*
G01*
X-172539Y285569D01*
X-169491Y285772D01*
X-166461Y286181D01*
X-163466Y286791D01*
X-160517Y287596D01*
X-157632Y288599D01*
X-154818Y289793D01*
X-152090Y291172D01*
X-149458Y292729D01*
X-146938Y294459D01*
X-144541Y296354D01*
X-142273Y298404D01*
X-140149Y300601D01*
X-138175Y302935D01*
X-136362Y305396D01*
X-134719Y307972D01*
X-133248Y310652D01*
X-131963Y313425D01*
X-130863Y316278D01*
X-129959Y319196D01*
X-129250Y322168D01*
X-128742Y325183D01*
X-128435Y328223D01*
X-128333Y331279D01*
X-128435Y334335D01*
X-128742Y337375D01*
X-129250Y340390D01*
X-129959Y343362D01*
X-130863Y346280D01*
X-131963Y349133D01*
X-133248Y351906D01*
X-134719Y354586D01*
X-136362Y357162D01*
X-138175Y359623D01*
X-140149Y361957D01*
X-142273Y364154D01*
X-144541Y366204D01*
X-146938Y368099D01*
X-149458Y369829D01*
X-152090Y371386D01*
X-154818Y372765D01*
X-157632Y373959D01*
X-160517Y374962D01*
X-163466Y375767D01*
X-166461Y376377D01*
X-169491Y376786D01*
X-172539Y376989D01*
X-175597Y376989D01*
X-178645Y376786D01*
X-181676Y376377D01*
X-184670Y375767D01*
X-187619Y374962D01*
X-190505Y373959D01*
X-193319Y372765D01*
X-196047Y371386D01*
X-198678Y369829D01*
X-201198Y368099D01*
X-203596Y366204D01*
X-205864Y364154D01*
X-207987Y361957D01*
X-209961Y359623D01*
X-211775Y357162D01*
X-213418Y354586D01*
X-214889Y351906D01*
X-216174Y349133D01*
X-217274Y346280D01*
X-218178Y343362D01*
X-218887Y340390D01*
X-219395Y337375D01*
X-219702Y334335D01*
X-219803Y331279D01*
X-219702Y328223D01*
X-219395Y325183D01*
X-218887Y322168D01*
X-218178Y319196D01*
X-217274Y316278D01*
X-216174Y313425D01*
X-214889Y310652D01*
X-213418Y307972D01*
X-211775Y305396D01*
X-209961Y302935D01*
X-207987Y300601D01*
X-205864Y298404D01*
X-203596Y296354D01*
X-201198Y294459D01*
X-198678Y292729D01*
X-196047Y291172D01*
X-193319Y289793D01*
X-190505Y288599D01*
X-187619Y287596D01*
X-184670Y286791D01*
X-181676Y286181D01*
X-178645Y285772D01*
G37*
G36*
X-1320350Y415871D02*
G01*
X-1317292Y415871D01*
X-1314244Y416074D01*
X-1311214Y416483D01*
X-1308219Y417093D01*
X-1305270Y417898D01*
X-1302384Y418901D01*
X-1299570Y420095D01*
X-1296842Y421474D01*
X-1294211Y423031D01*
X-1291691Y424761D01*
X-1289293Y426656D01*
X-1287025Y428706D01*
X-1284902Y430903D01*
X-1282928Y433237D01*
X-1281115Y435698D01*
X-1279471Y438274D01*
X-1278000Y440954D01*
X-1276715Y443727D01*
X-1275615Y446580D01*
X-1274711Y449498D01*
X-1274003Y452470D01*
X-1273495Y455485D01*
X-1273187Y458525D01*
X-1273086Y461581D01*
X-1273187Y464637D01*
X-1273495Y467677D01*
X-1274003Y470692D01*
X-1274711Y473664D01*
X-1275615Y476582D01*
X-1276715Y479435D01*
X-1278000Y482208D01*
X-1279471Y484888D01*
X-1281115Y487464D01*
X-1282928Y489925D01*
X-1284902Y492259D01*
X-1287025Y494456D01*
X-1289293Y496506D01*
X-1291691Y498401D01*
X-1294211Y500131D01*
X-1296842Y501688D01*
X-1299570Y503067D01*
X-1302384Y504261D01*
X-1305270Y505264D01*
X-1308219Y506069D01*
X-1311214Y506679D01*
X-1314244Y507088D01*
X-1317292Y507291D01*
X-1320350Y507291D01*
X-1323398Y507088D01*
X-1326428Y506679D01*
X-1329423Y506069D01*
X-1332372Y505264D01*
X-1335257Y504261D01*
X-1338071Y503067D01*
X-1340799Y501688D01*
X-1343431Y500131D01*
X-1345951Y498401D01*
X-1348348Y496506D01*
X-1350617Y494456D01*
X-1352740Y492259D01*
X-1354714Y489925D01*
X-1356527Y487464D01*
X-1358171Y484888D01*
X-1359641Y482208D01*
X-1360926Y479435D01*
X-1362026Y476582D01*
X-1362930Y473664D01*
X-1363639Y470692D01*
X-1364147Y467677D01*
X-1364454Y464637D01*
X-1364556Y461581D01*
X-1364454Y458525D01*
X-1364147Y455485D01*
X-1363639Y452470D01*
X-1362930Y449498D01*
X-1362026Y446580D01*
X-1360926Y443727D01*
X-1359641Y440954D01*
X-1358171Y438274D01*
X-1356527Y435698D01*
X-1354714Y433237D01*
X-1352740Y430903D01*
X-1350617Y428706D01*
X-1348348Y426656D01*
X-1345951Y424761D01*
X-1343431Y423031D01*
X-1340799Y421474D01*
X-1338071Y420095D01*
X-1335257Y418901D01*
X-1332372Y417898D01*
X-1329423Y417093D01*
X-1326428Y416483D01*
X-1323398Y416074D01*
G37*
G36*
X219651Y421967D02*
G01*
X222709Y421967D01*
X225757Y422170D01*
X228787Y422579D01*
X231782Y423189D01*
X234731Y423994D01*
X237617Y424997D01*
X240431Y426191D01*
X243159Y427570D01*
X245790Y429127D01*
X248310Y430857D01*
X250708Y432752D01*
X252976Y434802D01*
X255099Y436999D01*
X257073Y439333D01*
X258886Y441794D01*
X260530Y444370D01*
X262001Y447050D01*
X263286Y449823D01*
X264386Y452676D01*
X265290Y455594D01*
X265998Y458566D01*
X266506Y461581D01*
X266814Y464621D01*
X266915Y467677D01*
X266814Y470733D01*
X266506Y473773D01*
X265998Y476788D01*
X265290Y479760D01*
X264386Y482678D01*
X263286Y485531D01*
X262001Y488304D01*
X260530Y490984D01*
X258886Y493560D01*
X257073Y496021D01*
X255099Y498355D01*
X252976Y500552D01*
X250708Y502602D01*
X248310Y504497D01*
X245790Y506227D01*
X244261Y507131D01*
X246004Y508012D01*
X248635Y509569D01*
X251155Y511299D01*
X253552Y513194D01*
X255821Y515244D01*
X257944Y517441D01*
X259918Y519775D01*
X261731Y522236D01*
X263375Y524812D01*
X264845Y527491D01*
X266131Y530265D01*
X267230Y533118D01*
X268135Y536036D01*
X268843Y539008D01*
X269351Y542023D01*
X269659Y545063D01*
X269760Y548119D01*
X269659Y551174D01*
X269351Y554215D01*
X268843Y557230D01*
X268135Y560202D01*
X267230Y563120D01*
X266131Y565972D01*
X264845Y568746D01*
X263375Y571426D01*
X261731Y574001D01*
X259918Y576463D01*
X257944Y578797D01*
X255821Y580994D01*
X253552Y583044D01*
X251155Y584939D01*
X248635Y586668D01*
X246004Y588225D01*
X243276Y589605D01*
X240461Y590798D01*
X237576Y591802D01*
X234627Y592607D01*
X231632Y593217D01*
X228602Y593625D01*
X225554Y593829D01*
X222496Y593829D01*
X219448Y593625D01*
X216418Y593217D01*
X213423Y592607D01*
X210474Y591802D01*
X207589Y590798D01*
X204774Y589605D01*
X202046Y588225D01*
X199415Y586668D01*
X196895Y584939D01*
X194497Y583044D01*
X192229Y580994D01*
X190106Y578797D01*
X188132Y576463D01*
X186319Y574001D01*
X184675Y571426D01*
X183205Y568746D01*
X181919Y565972D01*
X180820Y563120D01*
X179915Y560202D01*
X179207Y557230D01*
X178699Y554215D01*
X178391Y551174D01*
X178290Y548119D01*
X178391Y545063D01*
X178699Y542023D01*
X179207Y539008D01*
X179915Y536036D01*
X180820Y533118D01*
X181919Y530265D01*
X183205Y527491D01*
X184675Y524812D01*
X186319Y522236D01*
X188132Y519775D01*
X190106Y517441D01*
X192229Y515244D01*
X194497Y513194D01*
X196895Y511299D01*
X199415Y509569D01*
X200944Y508665D01*
X199202Y507784D01*
X196570Y506227D01*
X194050Y504497D01*
X191653Y502602D01*
X189384Y500552D01*
X187261Y498355D01*
X185287Y496021D01*
X183474Y493560D01*
X181830Y490984D01*
X180360Y488304D01*
X179075Y485531D01*
X177975Y482678D01*
X177071Y479760D01*
X176362Y476788D01*
X175854Y473773D01*
X175547Y470733D01*
X175445Y467677D01*
X175547Y464621D01*
X175854Y461581D01*
X176362Y458566D01*
X177071Y455594D01*
X177975Y452676D01*
X179075Y449823D01*
X180360Y447050D01*
X181830Y444370D01*
X183474Y441794D01*
X185287Y439333D01*
X187261Y436999D01*
X189384Y434802D01*
X191653Y432752D01*
X194050Y430857D01*
X196570Y429127D01*
X199202Y427570D01*
X201930Y426191D01*
X204744Y424997D01*
X207629Y423994D01*
X210578Y423189D01*
X213573Y422579D01*
X216603Y422170D01*
G37*
G36*
X-711512Y436445D02*
G01*
X-708454Y436445D01*
X-705406Y436648D01*
X-702376Y437057D01*
X-699381Y437667D01*
X-696432Y438472D01*
X-693546Y439475D01*
X-690732Y440669D01*
X-688004Y442048D01*
X-685373Y443605D01*
X-682853Y445335D01*
X-680455Y447230D01*
X-678187Y449280D01*
X-676064Y451477D01*
X-674090Y453811D01*
X-672277Y456272D01*
X-670633Y458848D01*
X-669162Y461528D01*
X-667877Y464301D01*
X-666777Y467154D01*
X-665873Y470072D01*
X-665165Y473044D01*
X-664657Y476059D01*
X-664349Y479099D01*
X-664248Y482155D01*
X-664349Y485211D01*
X-664657Y488251D01*
X-665165Y491266D01*
X-665873Y494238D01*
X-666777Y497156D01*
X-667877Y500009D01*
X-669162Y502782D01*
X-670633Y505462D01*
X-672277Y508038D01*
X-674090Y510499D01*
X-676064Y512833D01*
X-678187Y515030D01*
X-680455Y517080D01*
X-682853Y518975D01*
X-685373Y520705D01*
X-688004Y522262D01*
X-690732Y523641D01*
X-693546Y524835D01*
X-696432Y525838D01*
X-699381Y526643D01*
X-702376Y527253D01*
X-705406Y527662D01*
X-708454Y527865D01*
X-711512Y527865D01*
X-714560Y527662D01*
X-717590Y527253D01*
X-720585Y526643D01*
X-723534Y525838D01*
X-726419Y524835D01*
X-729234Y523641D01*
X-731961Y522262D01*
X-734593Y520705D01*
X-737113Y518975D01*
X-739510Y517080D01*
X-741779Y515030D01*
X-743902Y512833D01*
X-745876Y510499D01*
X-747689Y508038D01*
X-749333Y505462D01*
X-750803Y502782D01*
X-752088Y500009D01*
X-753188Y497156D01*
X-754092Y494238D01*
X-754801Y491266D01*
X-755309Y488251D01*
X-755616Y485211D01*
X-755718Y482155D01*
X-755616Y479099D01*
X-755309Y476059D01*
X-754801Y473044D01*
X-754092Y470072D01*
X-753188Y467154D01*
X-752088Y464301D01*
X-750803Y461528D01*
X-749333Y458848D01*
X-747689Y456272D01*
X-745876Y453811D01*
X-743902Y451477D01*
X-741779Y449280D01*
X-739510Y447230D01*
X-737113Y445335D01*
X-734593Y443605D01*
X-731961Y442048D01*
X-729234Y440669D01*
X-726419Y439475D01*
X-723534Y438472D01*
X-720585Y437667D01*
X-717590Y437057D01*
X-714560Y436648D01*
G37*
G36*
X-617532Y437715D02*
G01*
X-614474Y437715D01*
X-611426Y437918D01*
X-608396Y438327D01*
X-605401Y438937D01*
X-602452Y439742D01*
X-599566Y440745D01*
X-596752Y441939D01*
X-594024Y443318D01*
X-591393Y444875D01*
X-588873Y446605D01*
X-586475Y448500D01*
X-584207Y450550D01*
X-582084Y452747D01*
X-580110Y455081D01*
X-578297Y457542D01*
X-576653Y460118D01*
X-575182Y462798D01*
X-573897Y465571D01*
X-572797Y468424D01*
X-571893Y471342D01*
X-571185Y474314D01*
X-570677Y477329D01*
X-570369Y480369D01*
X-570268Y483425D01*
X-570369Y486481D01*
X-570677Y489521D01*
X-571185Y492536D01*
X-571893Y495508D01*
X-572797Y498426D01*
X-573897Y501279D01*
X-575182Y504052D01*
X-576653Y506732D01*
X-578297Y509308D01*
X-580110Y511769D01*
X-582084Y514103D01*
X-584207Y516300D01*
X-586475Y518350D01*
X-588873Y520245D01*
X-591393Y521975D01*
X-594024Y523532D01*
X-596752Y524911D01*
X-599566Y526105D01*
X-602452Y527108D01*
X-605401Y527913D01*
X-608396Y528523D01*
X-611426Y528932D01*
X-614474Y529135D01*
X-617532Y529135D01*
X-620580Y528932D01*
X-623610Y528523D01*
X-626605Y527913D01*
X-629554Y527108D01*
X-632439Y526105D01*
X-635253Y524911D01*
X-637981Y523532D01*
X-640613Y521975D01*
X-643133Y520245D01*
X-645530Y518350D01*
X-647799Y516300D01*
X-649922Y514103D01*
X-651896Y511769D01*
X-653709Y509308D01*
X-655353Y506732D01*
X-656823Y504052D01*
X-658108Y501279D01*
X-659208Y498426D01*
X-660112Y495508D01*
X-660821Y492536D01*
X-661329Y489521D01*
X-661636Y486481D01*
X-661738Y483425D01*
X-661636Y480369D01*
X-661329Y477329D01*
X-660821Y474314D01*
X-660112Y471342D01*
X-659208Y468424D01*
X-658108Y465571D01*
X-656823Y462798D01*
X-655353Y460118D01*
X-653709Y457542D01*
X-651896Y455081D01*
X-649922Y452747D01*
X-647799Y450550D01*
X-645530Y448500D01*
X-643133Y446605D01*
X-640613Y444875D01*
X-637981Y443318D01*
X-635253Y441939D01*
X-632439Y440745D01*
X-629554Y439742D01*
X-626605Y438937D01*
X-623610Y438327D01*
X-620580Y437918D01*
G37*
G36*
X476699Y438477D02*
G01*
X479757Y438477D01*
X482805Y438680D01*
X485835Y439089D01*
X488830Y439699D01*
X491779Y440504D01*
X494665Y441507D01*
X497479Y442701D01*
X500207Y444080D01*
X502838Y445637D01*
X505358Y447367D01*
X507756Y449262D01*
X510024Y451312D01*
X512147Y453509D01*
X514121Y455843D01*
X515934Y458304D01*
X517578Y460880D01*
X519049Y463560D01*
X520334Y466333D01*
X521434Y469186D01*
X522338Y472104D01*
X523046Y475076D01*
X523554Y478091D01*
X523862Y481131D01*
X523963Y484187D01*
X523862Y487243D01*
X523554Y490283D01*
X523046Y493298D01*
X522338Y496270D01*
X521434Y499188D01*
X520334Y502041D01*
X519049Y504814D01*
X517578Y507494D01*
X515934Y510070D01*
X514121Y512531D01*
X512147Y514865D01*
X510024Y517062D01*
X507756Y519112D01*
X505358Y521007D01*
X502838Y522737D01*
X500207Y524294D01*
X497479Y525673D01*
X494665Y526867D01*
X491779Y527870D01*
X488830Y528675D01*
X485835Y529285D01*
X482805Y529694D01*
X479757Y529897D01*
X476699Y529897D01*
X473651Y529694D01*
X470621Y529285D01*
X467626Y528675D01*
X464677Y527870D01*
X461792Y526867D01*
X458978Y525673D01*
X456250Y524294D01*
X453618Y522737D01*
X451098Y521007D01*
X448701Y519112D01*
X446432Y517062D01*
X444309Y514865D01*
X442335Y512531D01*
X440522Y510070D01*
X438878Y507494D01*
X437408Y504814D01*
X436123Y502041D01*
X435023Y499188D01*
X434119Y496270D01*
X433410Y493298D01*
X432902Y490283D01*
X432595Y487243D01*
X432493Y484187D01*
X432595Y481131D01*
X432902Y478091D01*
X433410Y475076D01*
X434119Y472104D01*
X435023Y469186D01*
X436123Y466333D01*
X437408Y463560D01*
X438878Y460880D01*
X440522Y458304D01*
X442335Y455843D01*
X444309Y453509D01*
X446432Y451312D01*
X448701Y449262D01*
X451098Y447367D01*
X453618Y445637D01*
X456250Y444080D01*
X458978Y442701D01*
X461792Y441507D01*
X464677Y440504D01*
X467626Y439699D01*
X470621Y439089D01*
X473651Y438680D01*
G37*
G36*
X-199702Y451685D02*
G01*
X-196644Y451685D01*
X-193596Y451888D01*
X-190566Y452297D01*
X-187571Y452907D01*
X-184622Y453712D01*
X-181736Y454715D01*
X-178922Y455909D01*
X-176194Y457288D01*
X-173563Y458845D01*
X-171043Y460575D01*
X-168645Y462470D01*
X-166377Y464520D01*
X-164254Y466717D01*
X-162280Y469051D01*
X-160467Y471512D01*
X-158823Y474088D01*
X-157352Y476768D01*
X-156067Y479541D01*
X-154967Y482394D01*
X-154063Y485312D01*
X-153355Y488284D01*
X-152847Y491299D01*
X-152539Y494339D01*
X-152438Y497395D01*
X-152539Y500451D01*
X-152847Y503491D01*
X-153355Y506506D01*
X-154063Y509478D01*
X-154967Y512396D01*
X-156067Y515249D01*
X-157352Y518022D01*
X-158823Y520702D01*
X-160467Y523278D01*
X-162280Y525739D01*
X-164254Y528073D01*
X-166377Y530270D01*
X-168645Y532320D01*
X-171043Y534215D01*
X-173563Y535945D01*
X-176194Y537502D01*
X-178922Y538881D01*
X-181736Y540075D01*
X-184622Y541078D01*
X-187571Y541883D01*
X-190566Y542493D01*
X-193596Y542902D01*
X-196644Y543105D01*
X-199702Y543105D01*
X-202750Y542902D01*
X-205780Y542493D01*
X-208775Y541883D01*
X-211724Y541078D01*
X-214609Y540075D01*
X-217423Y538881D01*
X-220151Y537502D01*
X-222783Y535945D01*
X-225303Y534215D01*
X-227700Y532320D01*
X-229969Y530270D01*
X-232092Y528073D01*
X-234066Y525739D01*
X-235879Y523278D01*
X-237523Y520702D01*
X-238993Y518022D01*
X-240278Y515249D01*
X-241378Y512396D01*
X-242282Y509478D01*
X-242991Y506506D01*
X-243499Y503491D01*
X-243806Y500451D01*
X-243908Y497395D01*
X-243806Y494339D01*
X-243499Y491299D01*
X-242991Y488284D01*
X-242282Y485312D01*
X-241378Y482394D01*
X-240278Y479541D01*
X-238993Y476768D01*
X-237523Y474088D01*
X-235879Y471512D01*
X-234066Y469051D01*
X-232092Y466717D01*
X-229969Y464520D01*
X-227700Y462470D01*
X-225303Y460575D01*
X-222783Y458845D01*
X-220151Y457288D01*
X-217423Y455909D01*
X-214609Y454715D01*
X-211724Y453712D01*
X-208775Y452907D01*
X-205780Y452297D01*
X-202750Y451888D01*
G37*
G36*
X-1523042Y459559D02*
G01*
X-1519984Y459559D01*
X-1516936Y459762D01*
X-1513906Y460171D01*
X-1510911Y460781D01*
X-1507962Y461586D01*
X-1505077Y462589D01*
X-1502262Y463783D01*
X-1499534Y465162D01*
X-1496903Y466719D01*
X-1494383Y468449D01*
X-1491985Y470344D01*
X-1489717Y472394D01*
X-1487594Y474591D01*
X-1485620Y476925D01*
X-1483807Y479386D01*
X-1482163Y481962D01*
X-1480693Y484642D01*
X-1479407Y487415D01*
X-1478307Y490268D01*
X-1477403Y493186D01*
X-1476695Y496158D01*
X-1476187Y499173D01*
X-1475879Y502213D01*
X-1475778Y505269D01*
X-1475879Y508325D01*
X-1476187Y511365D01*
X-1476695Y514380D01*
X-1477403Y517352D01*
X-1478307Y520270D01*
X-1479407Y523123D01*
X-1480693Y525896D01*
X-1482163Y528576D01*
X-1483807Y531152D01*
X-1485620Y533613D01*
X-1487594Y535947D01*
X-1489717Y538144D01*
X-1491985Y540194D01*
X-1494383Y542089D01*
X-1496903Y543819D01*
X-1499534Y545376D01*
X-1502262Y546755D01*
X-1505077Y547949D01*
X-1507962Y548952D01*
X-1510911Y549757D01*
X-1513906Y550367D01*
X-1516936Y550776D01*
X-1519984Y550979D01*
X-1523042Y550979D01*
X-1526090Y550776D01*
X-1529120Y550367D01*
X-1532115Y549757D01*
X-1535064Y548952D01*
X-1537949Y547949D01*
X-1540763Y546755D01*
X-1543491Y545376D01*
X-1546123Y543819D01*
X-1548643Y542089D01*
X-1551040Y540194D01*
X-1553309Y538144D01*
X-1555432Y535947D01*
X-1557406Y533613D01*
X-1559219Y531152D01*
X-1560863Y528576D01*
X-1562333Y525896D01*
X-1563618Y523123D01*
X-1564718Y520270D01*
X-1565622Y517352D01*
X-1566331Y514380D01*
X-1566839Y511365D01*
X-1567146Y508325D01*
X-1567248Y505269D01*
X-1567146Y502213D01*
X-1566839Y499173D01*
X-1566331Y496158D01*
X-1565622Y493186D01*
X-1564718Y490268D01*
X-1563618Y487415D01*
X-1562333Y484642D01*
X-1560863Y481962D01*
X-1559219Y479386D01*
X-1557406Y476925D01*
X-1555432Y474591D01*
X-1553309Y472394D01*
X-1551040Y470344D01*
X-1548643Y468449D01*
X-1546123Y466719D01*
X-1543491Y465162D01*
X-1540763Y463783D01*
X-1537949Y462589D01*
X-1535064Y461586D01*
X-1532115Y460781D01*
X-1529120Y460171D01*
X-1526090Y459762D01*
G37*
G36*
X69791Y467687D02*
G01*
X72849Y467687D01*
X75897Y467890D01*
X78927Y468299D01*
X81922Y468909D01*
X84871Y469714D01*
X87756Y470717D01*
X90571Y471911D01*
X93299Y473290D01*
X95930Y474847D01*
X98450Y476577D01*
X100848Y478472D01*
X103116Y480522D01*
X105239Y482719D01*
X107213Y485053D01*
X109026Y487514D01*
X110670Y490090D01*
X112140Y492770D01*
X113426Y495543D01*
X114526Y498396D01*
X115430Y501314D01*
X116138Y504286D01*
X116646Y507301D01*
X116954Y510341D01*
X117055Y513397D01*
X116954Y516453D01*
X116646Y519493D01*
X116138Y522508D01*
X115430Y525480D01*
X114526Y528398D01*
X113426Y531251D01*
X112140Y534024D01*
X110670Y536704D01*
X109026Y539280D01*
X107213Y541741D01*
X105239Y544075D01*
X103116Y546272D01*
X100848Y548322D01*
X98450Y550217D01*
X95930Y551947D01*
X93299Y553504D01*
X90571Y554883D01*
X87756Y556077D01*
X84871Y557080D01*
X81922Y557885D01*
X78927Y558495D01*
X75897Y558904D01*
X72849Y559107D01*
X69791Y559107D01*
X66743Y558904D01*
X63713Y558495D01*
X60718Y557885D01*
X57769Y557080D01*
X54884Y556077D01*
X52070Y554883D01*
X49342Y553504D01*
X46710Y551947D01*
X44190Y550217D01*
X41793Y548322D01*
X39524Y546272D01*
X37401Y544075D01*
X35427Y541741D01*
X33614Y539280D01*
X31970Y536704D01*
X30500Y534024D01*
X29215Y531251D01*
X28115Y528398D01*
X27211Y525480D01*
X26502Y522508D01*
X25994Y519493D01*
X25687Y516453D01*
X25585Y513397D01*
X25687Y510341D01*
X25994Y507301D01*
X26502Y504286D01*
X27211Y501314D01*
X28115Y498396D01*
X29215Y495543D01*
X30500Y492770D01*
X31970Y490090D01*
X33614Y487514D01*
X35427Y485053D01*
X37401Y482719D01*
X39524Y480522D01*
X41793Y478472D01*
X44190Y476577D01*
X46710Y474847D01*
X49342Y473290D01*
X52070Y471911D01*
X54884Y470717D01*
X57769Y469714D01*
X60718Y468909D01*
X63713Y468299D01*
X66743Y467890D01*
G37*
G36*
X789830Y507222D02*
G01*
X793201Y507273D01*
X796561Y507530D01*
X799899Y507989D01*
X800994Y508210D01*
X784311Y534908D01*
X757610Y518226D01*
X758332Y517669D01*
X761123Y515780D01*
X764024Y514065D01*
X767026Y512531D01*
X770115Y511182D01*
X773280Y510024D01*
X776508Y509061D01*
X779790Y508297D01*
X783115Y507735D01*
X786465Y507375D01*
G37*
G36*
X834915Y529412D02*
G01*
X835962Y530816D01*
X837808Y533636D01*
X839480Y536562D01*
X840968Y539587D01*
X842269Y542693D01*
X843379Y545876D01*
X844293Y549120D01*
X845007Y552414D01*
X845517Y555746D01*
X845827Y559102D01*
X845929Y562470D01*
X845827Y565838D01*
X845517Y569193D01*
X845007Y572526D01*
X844948Y572797D01*
X818235Y556107D01*
G37*
G36*
X-1295204Y533473D02*
G01*
X-1292146Y533473D01*
X-1289098Y533676D01*
X-1286068Y534085D01*
X-1283073Y534695D01*
X-1280124Y535500D01*
X-1277238Y536503D01*
X-1274424Y537697D01*
X-1271696Y539076D01*
X-1269065Y540633D01*
X-1266545Y542363D01*
X-1264147Y544258D01*
X-1261879Y546308D01*
X-1259756Y548505D01*
X-1257782Y550839D01*
X-1255969Y553300D01*
X-1254325Y555876D01*
X-1252854Y558556D01*
X-1251569Y561329D01*
X-1250469Y564182D01*
X-1249565Y567100D01*
X-1248857Y570072D01*
X-1248349Y573087D01*
X-1248041Y576127D01*
X-1247940Y579183D01*
X-1248041Y582239D01*
X-1248349Y585279D01*
X-1248857Y588294D01*
X-1249565Y591266D01*
X-1250469Y594184D01*
X-1251569Y597037D01*
X-1252854Y599810D01*
X-1254325Y602490D01*
X-1255969Y605066D01*
X-1257782Y607527D01*
X-1259756Y609861D01*
X-1261879Y612058D01*
X-1264147Y614108D01*
X-1266545Y616003D01*
X-1269065Y617733D01*
X-1271696Y619290D01*
X-1274424Y620669D01*
X-1277238Y621863D01*
X-1280124Y622866D01*
X-1283073Y623671D01*
X-1286068Y624281D01*
X-1289098Y624690D01*
X-1292146Y624893D01*
X-1295204Y624893D01*
X-1298252Y624690D01*
X-1301282Y624281D01*
X-1304277Y623671D01*
X-1307226Y622866D01*
X-1310111Y621863D01*
X-1312925Y620669D01*
X-1315653Y619290D01*
X-1318285Y617733D01*
X-1320805Y616003D01*
X-1323202Y614108D01*
X-1325471Y612058D01*
X-1327594Y609861D01*
X-1329568Y607527D01*
X-1331381Y605066D01*
X-1333025Y602490D01*
X-1334495Y599810D01*
X-1335780Y597037D01*
X-1336880Y594184D01*
X-1337784Y591266D01*
X-1338493Y588294D01*
X-1339001Y585279D01*
X-1339308Y582239D01*
X-1339410Y579183D01*
X-1339308Y576127D01*
X-1339001Y573087D01*
X-1338493Y570072D01*
X-1337784Y567100D01*
X-1336880Y564182D01*
X-1335780Y561329D01*
X-1334495Y558556D01*
X-1333025Y555876D01*
X-1331381Y553300D01*
X-1329568Y550839D01*
X-1327594Y548505D01*
X-1325471Y546308D01*
X-1323202Y544258D01*
X-1320805Y542363D01*
X-1318285Y540633D01*
X-1315653Y539076D01*
X-1312925Y537697D01*
X-1310111Y536503D01*
X-1307226Y535500D01*
X-1304277Y534695D01*
X-1301282Y534085D01*
X-1298252Y533676D01*
G37*
G36*
X-116898Y548713D02*
G01*
X-113840Y548713D01*
X-110792Y548916D01*
X-107762Y549325D01*
X-104767Y549935D01*
X-101818Y550740D01*
X-98932Y551743D01*
X-96118Y552937D01*
X-93390Y554316D01*
X-90759Y555873D01*
X-88239Y557603D01*
X-85841Y559498D01*
X-83573Y561548D01*
X-81450Y563745D01*
X-79476Y566079D01*
X-77663Y568540D01*
X-76019Y571116D01*
X-74548Y573796D01*
X-73263Y576569D01*
X-72163Y579422D01*
X-71259Y582340D01*
X-70551Y585312D01*
X-70043Y588327D01*
X-69735Y591367D01*
X-69634Y594423D01*
X-69735Y597479D01*
X-70043Y600519D01*
X-70551Y603534D01*
X-71259Y606506D01*
X-72163Y609424D01*
X-73263Y612277D01*
X-74548Y615050D01*
X-76019Y617730D01*
X-77663Y620306D01*
X-79476Y622767D01*
X-81450Y625101D01*
X-83573Y627298D01*
X-85841Y629348D01*
X-88239Y631243D01*
X-90759Y632973D01*
X-93390Y634530D01*
X-96118Y635909D01*
X-98932Y637103D01*
X-101818Y638106D01*
X-104767Y638911D01*
X-107762Y639521D01*
X-110792Y639930D01*
X-113840Y640133D01*
X-116898Y640133D01*
X-119946Y639930D01*
X-122976Y639521D01*
X-125971Y638911D01*
X-128920Y638106D01*
X-131805Y637103D01*
X-134619Y635909D01*
X-137347Y634530D01*
X-139979Y632973D01*
X-142499Y631243D01*
X-144896Y629348D01*
X-147165Y627298D01*
X-149288Y625101D01*
X-151262Y622767D01*
X-153075Y620306D01*
X-154719Y617730D01*
X-156189Y615050D01*
X-157474Y612277D01*
X-158574Y609424D01*
X-159478Y606506D01*
X-160187Y603534D01*
X-160695Y600519D01*
X-161002Y597479D01*
X-161104Y594423D01*
X-161002Y591367D01*
X-160695Y588327D01*
X-160187Y585312D01*
X-159478Y582340D01*
X-158574Y579422D01*
X-157474Y576569D01*
X-156189Y573796D01*
X-154719Y571116D01*
X-153075Y568540D01*
X-151262Y566079D01*
X-149288Y563745D01*
X-147165Y561548D01*
X-144896Y559498D01*
X-142499Y557603D01*
X-139979Y555873D01*
X-137347Y554316D01*
X-134619Y552937D01*
X-131805Y551743D01*
X-128920Y550740D01*
X-125971Y549935D01*
X-122976Y549325D01*
X-119946Y548916D01*
G37*
G36*
X736417Y552152D02*
G01*
X763112Y568832D01*
X746419Y595548D01*
X746371Y595490D01*
X744440Y592729D01*
X742680Y589854D01*
X741100Y586877D01*
X739706Y583808D01*
X738499Y580664D01*
X737486Y577448D01*
X736673Y574177D01*
X736058Y570864D01*
X735650Y567519D01*
X735444Y564154D01*
X735444Y560786D01*
X735650Y557420D01*
X736058Y554075D01*
G37*
G36*
X797036Y590031D02*
G01*
X823739Y606717D01*
X821634Y608236D01*
X818786Y610039D01*
X815835Y611665D01*
X812787Y613107D01*
X809660Y614359D01*
X806462Y615421D01*
X803203Y616285D01*
X799899Y616950D01*
X796561Y617410D01*
X793201Y617667D01*
X789830Y617717D01*
X786465Y617565D01*
X783115Y617204D01*
X780348Y616737D01*
G37*
G36*
X242308Y640839D02*
G01*
X245366Y640839D01*
X248414Y641042D01*
X251444Y641451D01*
X254439Y642061D01*
X257388Y642866D01*
X260273Y643869D01*
X263088Y645063D01*
X265816Y646442D01*
X268447Y647999D01*
X270967Y649729D01*
X273364Y651624D01*
X275633Y653674D01*
X277756Y655871D01*
X279730Y658205D01*
X281543Y660666D01*
X283187Y663242D01*
X284657Y665921D01*
X285943Y668695D01*
X287042Y671548D01*
X287947Y674466D01*
X288655Y677438D01*
X289163Y680453D01*
X289471Y683493D01*
X289572Y686549D01*
X289471Y689604D01*
X289163Y692645D01*
X288655Y695660D01*
X287947Y698632D01*
X287042Y701550D01*
X285943Y704402D01*
X284657Y707176D01*
X283187Y709856D01*
X281543Y712431D01*
X279730Y714893D01*
X277756Y717227D01*
X275633Y719424D01*
X273364Y721474D01*
X270967Y723369D01*
X268447Y725098D01*
X265816Y726655D01*
X263088Y728035D01*
X260273Y729228D01*
X257388Y730232D01*
X254439Y731037D01*
X251444Y731647D01*
X248414Y732055D01*
X245366Y732259D01*
X242308Y732259D01*
X239260Y732055D01*
X236230Y731647D01*
X233235Y731037D01*
X230286Y730232D01*
X227401Y729228D01*
X224586Y728035D01*
X221858Y726655D01*
X219227Y725098D01*
X216707Y723369D01*
X214309Y721474D01*
X212041Y719424D01*
X209918Y717227D01*
X207944Y714893D01*
X206131Y712431D01*
X204487Y709856D01*
X203017Y707176D01*
X201731Y704402D01*
X200632Y701550D01*
X199727Y698632D01*
X199019Y695660D01*
X198511Y692645D01*
X198203Y689604D01*
X198102Y686549D01*
X198203Y683493D01*
X198511Y680453D01*
X199019Y677438D01*
X199727Y674466D01*
X200632Y671548D01*
X201731Y668695D01*
X203017Y665921D01*
X204487Y663242D01*
X206131Y660666D01*
X207944Y658205D01*
X209918Y655871D01*
X212041Y653674D01*
X214309Y651624D01*
X216707Y649729D01*
X219227Y647999D01*
X221858Y646442D01*
X224586Y645063D01*
X227401Y643869D01*
X230286Y642866D01*
X233235Y642061D01*
X236230Y641451D01*
X239260Y641042D01*
G37*
G36*
X-968433Y677644D02*
G01*
X-965375Y677644D01*
X-962327Y677847D01*
X-959297Y678256D01*
X-956302Y678865D01*
X-953353Y679670D01*
X-950468Y680674D01*
X-947653Y681868D01*
X-944925Y683247D01*
X-942294Y684804D01*
X-939774Y686534D01*
X-937376Y688428D01*
X-935108Y690478D01*
X-932985Y692675D01*
X-931011Y695010D01*
X-929198Y697471D01*
X-927554Y700046D01*
X-926084Y702726D01*
X-924798Y705500D01*
X-923698Y708352D01*
X-922794Y711271D01*
X-922086Y714242D01*
X-921578Y717257D01*
X-921270Y720298D01*
X-921169Y723353D01*
X-921270Y726409D01*
X-921578Y729449D01*
X-922086Y732464D01*
X-922794Y735436D01*
X-923698Y738355D01*
X-924798Y741207D01*
X-926084Y743981D01*
X-927554Y746660D01*
X-929198Y749236D01*
X-931011Y751697D01*
X-932985Y754032D01*
X-935108Y756229D01*
X-937376Y758278D01*
X-939774Y760173D01*
X-942294Y761903D01*
X-944925Y763460D01*
X-947653Y764839D01*
X-950468Y766033D01*
X-953353Y767036D01*
X-956302Y767842D01*
X-959297Y768451D01*
X-962327Y768860D01*
X-965375Y769063D01*
X-968433Y769063D01*
X-971481Y768860D01*
X-974511Y768451D01*
X-977506Y767842D01*
X-980455Y767036D01*
X-983340Y766033D01*
X-986154Y764839D01*
X-988882Y763460D01*
X-991514Y761903D01*
X-994034Y760173D01*
X-996431Y758278D01*
X-998700Y756229D01*
X-1000823Y754032D01*
X-1002797Y751697D01*
X-1004610Y749236D01*
X-1006254Y746660D01*
X-1007724Y743981D01*
X-1009009Y741207D01*
X-1010109Y738355D01*
X-1011013Y735436D01*
X-1011722Y732464D01*
X-1012230Y729449D01*
X-1012537Y726409D01*
X-1012639Y723353D01*
X-1012537Y720298D01*
X-1012230Y717257D01*
X-1011722Y714242D01*
X-1011013Y711271D01*
X-1010109Y708352D01*
X-1009009Y705500D01*
X-1007724Y702726D01*
X-1006254Y700046D01*
X-1004610Y697471D01*
X-1002797Y695010D01*
X-1000823Y692675D01*
X-998700Y690478D01*
X-996431Y688428D01*
X-994034Y686534D01*
X-991514Y684804D01*
X-988882Y683247D01*
X-986154Y681868D01*
X-983340Y680674D01*
X-980455Y679670D01*
X-977506Y678865D01*
X-974511Y678256D01*
X-971481Y677847D01*
G37*
G36*
X435551Y793315D02*
G01*
X438609Y793315D01*
X441657Y793518D01*
X444687Y793927D01*
X447682Y794537D01*
X450631Y795342D01*
X453517Y796345D01*
X456331Y797539D01*
X459059Y798918D01*
X461690Y800475D01*
X464210Y802205D01*
X466608Y804100D01*
X468876Y806150D01*
X470999Y808347D01*
X472973Y810681D01*
X474786Y813142D01*
X476430Y815718D01*
X477901Y818398D01*
X479186Y821171D01*
X480286Y824024D01*
X481190Y826942D01*
X481898Y829914D01*
X482406Y832929D01*
X482714Y835969D01*
X482815Y839025D01*
X482714Y842081D01*
X482406Y845121D01*
X481898Y848136D01*
X481190Y851108D01*
X480286Y854026D01*
X479186Y856879D01*
X477901Y859652D01*
X476430Y862332D01*
X474786Y864908D01*
X472973Y867369D01*
X470999Y869703D01*
X468876Y871900D01*
X466608Y873950D01*
X464210Y875845D01*
X461690Y877575D01*
X459059Y879132D01*
X456331Y880511D01*
X453517Y881705D01*
X450631Y882708D01*
X447682Y883513D01*
X444687Y884123D01*
X441657Y884532D01*
X438609Y884735D01*
X435551Y884735D01*
X432503Y884532D01*
X429473Y884123D01*
X426478Y883513D01*
X423529Y882708D01*
X420644Y881705D01*
X417830Y880511D01*
X415102Y879132D01*
X412470Y877575D01*
X409950Y875845D01*
X407553Y873950D01*
X405284Y871900D01*
X403161Y869703D01*
X401187Y867369D01*
X399374Y864908D01*
X397730Y862332D01*
X396260Y859652D01*
X394975Y856879D01*
X393875Y854026D01*
X392971Y851108D01*
X392262Y848136D01*
X391754Y845121D01*
X391447Y842081D01*
X391345Y839025D01*
X391447Y835969D01*
X391754Y832929D01*
X392262Y829914D01*
X392971Y826942D01*
X393875Y824024D01*
X394975Y821171D01*
X396260Y818398D01*
X397730Y815718D01*
X399374Y813142D01*
X401187Y810681D01*
X403161Y808347D01*
X405284Y806150D01*
X407553Y804100D01*
X409950Y802205D01*
X412470Y800475D01*
X415102Y798918D01*
X417830Y797539D01*
X420644Y796345D01*
X423529Y795342D01*
X426478Y794537D01*
X429473Y793927D01*
X432503Y793518D01*
G37*
G36*
X593768Y820988D02*
G01*
X597138Y821039D01*
X600499Y821296D01*
X603836Y821756D01*
X604931Y821977D01*
X588248Y848674D01*
X561548Y831992D01*
X562269Y831435D01*
X565061Y829546D01*
X567961Y827831D01*
X570964Y826297D01*
X574052Y824948D01*
X577217Y823790D01*
X580445Y822827D01*
X583727Y822063D01*
X587052Y821502D01*
X590402Y821141D01*
G37*
G36*
X638853Y843178D02*
G01*
X639899Y844583D01*
X641746Y847402D01*
X643417Y850328D01*
X644906Y853353D01*
X646206Y856460D01*
X647316Y859642D01*
X648230Y862886D01*
X648944Y866180D01*
X649455Y869513D01*
X649765Y872868D01*
X649866Y876236D01*
X649765Y879604D01*
X649455Y882959D01*
X648944Y886292D01*
X648886Y886564D01*
X622172Y869873D01*
G37*
G36*
X540354Y865919D02*
G01*
X567049Y882599D01*
X550357Y909314D01*
X550308Y909256D01*
X548378Y906495D01*
X546618Y903620D01*
X545038Y900643D01*
X543643Y897575D01*
X542437Y894430D01*
X541423Y891214D01*
X540611Y887943D01*
X539996Y884631D01*
X539587Y881286D01*
X539381Y877920D01*
X539381Y874552D01*
X539587Y871186D01*
X539996Y867841D01*
G37*
G36*
X600974Y903798D02*
G01*
X627677Y920483D01*
X625571Y922002D01*
X622724Y923805D01*
X619772Y925431D01*
X616724Y926873D01*
X613597Y928126D01*
X610400Y929187D01*
X607141Y930051D01*
X603836Y930716D01*
X600499Y931176D01*
X597138Y931433D01*
X593768Y931484D01*
X590402Y931331D01*
X587052Y930970D01*
X584286Y930503D01*
G37*
G36*
X505757Y930894D02*
G01*
X509127Y930945D01*
X512488Y931202D01*
X515825Y931661D01*
X519130Y932327D01*
X522389Y933190D01*
X525586Y934252D01*
X528713Y935504D01*
X531761Y936947D01*
X533181Y937729D01*
X509066Y957966D01*
X488820Y933838D01*
X489206Y933696D01*
X492434Y932733D01*
X495716Y931969D01*
X499041Y931407D01*
X502391Y931047D01*
G37*
G36*
X458182Y959556D02*
G01*
X478424Y983675D01*
X454296Y1003922D01*
X453412Y1001120D01*
X452600Y997849D01*
X451985Y994537D01*
X451576Y991191D01*
X451370Y987826D01*
X451370Y984458D01*
X451576Y981092D01*
X451985Y977747D01*
X452600Y974435D01*
X453412Y971163D01*
X454426Y967948D01*
X455632Y964803D01*
X457027Y961735D01*
G37*
G36*
X558893Y968369D02*
G01*
X559305Y969548D01*
X560219Y972792D01*
X560933Y976086D01*
X561444Y979418D01*
X561754Y982774D01*
X561855Y986142D01*
X561754Y989510D01*
X561444Y992865D01*
X560933Y996198D01*
X560219Y999492D01*
X559305Y1002736D01*
X558195Y1005918D01*
X556895Y1009025D01*
X555406Y1012050D01*
X555017Y1012731D01*
X534776Y988608D01*
G37*
G36*
X504134Y1014318D02*
G01*
X524372Y1038435D01*
X522389Y1039093D01*
X519130Y1039957D01*
X515825Y1040622D01*
X512488Y1041082D01*
X509127Y1041339D01*
X505757Y1041389D01*
X502391Y1041237D01*
X499041Y1040876D01*
X495716Y1040315D01*
X492434Y1039550D01*
X489206Y1038588D01*
X486041Y1037429D01*
X482953Y1036081D01*
X479999Y1034572D01*
G37*
G36*
X446727Y1058491D02*
G01*
X449785Y1058491D01*
X452833Y1058694D01*
X455863Y1059103D01*
X458858Y1059713D01*
X461807Y1060518D01*
X464693Y1061521D01*
X467507Y1062715D01*
X470235Y1064094D01*
X472866Y1065651D01*
X475386Y1067381D01*
X477784Y1069276D01*
X480052Y1071326D01*
X482175Y1073523D01*
X484149Y1075857D01*
X485962Y1078318D01*
X487606Y1080894D01*
X489077Y1083574D01*
X490362Y1086347D01*
X491462Y1089200D01*
X492366Y1092118D01*
X493074Y1095090D01*
X493582Y1098105D01*
X493890Y1101145D01*
X493991Y1104201D01*
X493890Y1107257D01*
X493582Y1110297D01*
X493074Y1113312D01*
X492366Y1116284D01*
X491462Y1119202D01*
X490362Y1122055D01*
X489077Y1124828D01*
X487606Y1127508D01*
X485962Y1130084D01*
X484149Y1132545D01*
X482175Y1134879D01*
X480052Y1137076D01*
X477784Y1139126D01*
X475386Y1141021D01*
X472866Y1142751D01*
X470235Y1144308D01*
X467507Y1145687D01*
X464693Y1146881D01*
X461807Y1147884D01*
X458858Y1148689D01*
X455863Y1149299D01*
X452833Y1149708D01*
X449785Y1149911D01*
X446727Y1149911D01*
X443679Y1149708D01*
X440649Y1149299D01*
X437654Y1148689D01*
X434705Y1147884D01*
X431820Y1146881D01*
X429006Y1145687D01*
X426278Y1144308D01*
X423646Y1142751D01*
X421126Y1141021D01*
X418729Y1139126D01*
X416460Y1137076D01*
X414337Y1134879D01*
X412363Y1132545D01*
X410550Y1130084D01*
X408906Y1127508D01*
X407436Y1124828D01*
X406151Y1122055D01*
X405051Y1119202D01*
X404147Y1116284D01*
X403438Y1113312D01*
X402930Y1110297D01*
X402623Y1107257D01*
X402521Y1104201D01*
X402623Y1101145D01*
X402930Y1098105D01*
X403438Y1095090D01*
X404147Y1092118D01*
X405051Y1089200D01*
X406151Y1086347D01*
X407436Y1083574D01*
X408906Y1080894D01*
X410550Y1078318D01*
X412363Y1075857D01*
X414337Y1073523D01*
X416460Y1071326D01*
X418729Y1069276D01*
X421126Y1067381D01*
X423646Y1065651D01*
X426278Y1064094D01*
X429006Y1062715D01*
X431820Y1061521D01*
X434705Y1060518D01*
X437654Y1059713D01*
X440649Y1059103D01*
X443679Y1058694D01*
G37*
G36*
X-1676077Y1097760D02*
G01*
X-1673019Y1097760D01*
X-1669971Y1097963D01*
X-1666941Y1098372D01*
X-1663946Y1098981D01*
X-1660997Y1099786D01*
X-1658111Y1100790D01*
X-1655297Y1101984D01*
X-1652569Y1103363D01*
X-1649938Y1104920D01*
X-1647418Y1106650D01*
X-1645020Y1108544D01*
X-1642752Y1110594D01*
X-1640629Y1112791D01*
X-1638655Y1115126D01*
X-1636842Y1117587D01*
X-1635198Y1120162D01*
X-1633727Y1122842D01*
X-1632442Y1125616D01*
X-1631342Y1128468D01*
X-1630438Y1131387D01*
X-1629730Y1134358D01*
X-1629222Y1137373D01*
X-1628914Y1140414D01*
X-1628813Y1143469D01*
X-1628914Y1146525D01*
X-1629222Y1149565D01*
X-1629730Y1152580D01*
X-1630438Y1155552D01*
X-1631342Y1158471D01*
X-1632442Y1161323D01*
X-1633727Y1164097D01*
X-1635198Y1166776D01*
X-1636842Y1169352D01*
X-1638655Y1171813D01*
X-1640629Y1174148D01*
X-1642752Y1176345D01*
X-1645020Y1178394D01*
X-1647418Y1180289D01*
X-1649938Y1182019D01*
X-1652569Y1183576D01*
X-1655297Y1184955D01*
X-1658111Y1186149D01*
X-1660997Y1187152D01*
X-1663946Y1187957D01*
X-1666941Y1188567D01*
X-1669971Y1188976D01*
X-1673019Y1189179D01*
X-1676077Y1189179D01*
X-1679125Y1188976D01*
X-1682155Y1188567D01*
X-1685150Y1187957D01*
X-1688099Y1187152D01*
X-1690984Y1186149D01*
X-1693798Y1184955D01*
X-1696526Y1183576D01*
X-1699158Y1182019D01*
X-1701678Y1180289D01*
X-1704075Y1178394D01*
X-1706344Y1176345D01*
X-1708467Y1174148D01*
X-1710441Y1171813D01*
X-1712254Y1169352D01*
X-1713898Y1166776D01*
X-1715368Y1164097D01*
X-1716653Y1161323D01*
X-1717753Y1158471D01*
X-1718657Y1155552D01*
X-1719366Y1152580D01*
X-1719874Y1149565D01*
X-1720181Y1146525D01*
X-1720283Y1143469D01*
X-1720181Y1140414D01*
X-1719874Y1137373D01*
X-1719366Y1134358D01*
X-1718657Y1131387D01*
X-1717753Y1128468D01*
X-1716653Y1125616D01*
X-1715368Y1122842D01*
X-1713898Y1120162D01*
X-1712254Y1117587D01*
X-1710441Y1115126D01*
X-1708467Y1112791D01*
X-1706344Y1110594D01*
X-1704075Y1108544D01*
X-1701678Y1106650D01*
X-1699158Y1104920D01*
X-1696526Y1103363D01*
X-1693798Y1101984D01*
X-1690984Y1100790D01*
X-1688099Y1099786D01*
X-1685150Y1098981D01*
X-1682155Y1098372D01*
X-1679125Y1097963D01*
G37*
G36*
X222318Y1168714D02*
G01*
X225689Y1168765D01*
X229049Y1169022D01*
X232387Y1169482D01*
X235691Y1170147D01*
X238950Y1171011D01*
X242148Y1172072D01*
X245275Y1173325D01*
X248323Y1174767D01*
X249742Y1175550D01*
X225628Y1195786D01*
X205381Y1171658D01*
X205767Y1171516D01*
X208996Y1170553D01*
X212277Y1169789D01*
X215602Y1169228D01*
X218953Y1168867D01*
G37*
G36*
X174744Y1197376D02*
G01*
X194985Y1221496D01*
X170858Y1241742D01*
X169974Y1238940D01*
X169161Y1235669D01*
X168546Y1232357D01*
X168137Y1229012D01*
X167932Y1225646D01*
X167932Y1222278D01*
X168137Y1218912D01*
X168546Y1215567D01*
X169161Y1212255D01*
X169974Y1208984D01*
X170987Y1205768D01*
X172194Y1202623D01*
X173588Y1199555D01*
G37*
G36*
X275455Y1206190D02*
G01*
X275866Y1207368D01*
X276781Y1210612D01*
X277495Y1213906D01*
X278005Y1217239D01*
X278315Y1220594D01*
X278417Y1223962D01*
X278315Y1227330D01*
X278005Y1230685D01*
X277495Y1234018D01*
X276781Y1237312D01*
X275866Y1240556D01*
X274756Y1243738D01*
X273456Y1246845D01*
X271967Y1249870D01*
X271579Y1250551D01*
X251338Y1226428D01*
G37*
G36*
X220695Y1252138D02*
G01*
X240934Y1276256D01*
X238950Y1276913D01*
X235691Y1277777D01*
X232387Y1278442D01*
X229049Y1278902D01*
X225689Y1279159D01*
X222318Y1279210D01*
X218953Y1279057D01*
X215602Y1278696D01*
X212277Y1278135D01*
X208996Y1277371D01*
X205767Y1276408D01*
X202603Y1275250D01*
X199514Y1273901D01*
X196560Y1272392D01*
G37*

%LPD*%
D10*
G01*
X790674Y562470D03*
G01*
X594611Y876236D03*
D11*
G01*
X435861Y-530593D03*
G01*
X718690Y-813447D03*
G01*
X-358904Y-1325359D03*
G01*
X-76075Y-1608213D03*
D10*
G01*
X506600Y986142D03*
G01*
X223161Y1223962D03*
D12*
G01*
X-281205Y-943622D03*
G01*
X-333352Y-888072D03*
G01*
X60398Y-603948D03*
G01*
X-527865Y-1165288D03*
G01*
X-613717Y-1170114D03*
G01*
X515363Y-431304D03*
G01*
X934209Y-578878D03*
G01*
X931669Y124193D03*
G01*
X-111305Y-110934D03*
G01*
X-146814Y-20078D03*
G01*
X-1318821Y461581D03*
G01*
X-867488Y-1506664D03*
G01*
X-1280975Y-377126D03*
G01*
X102816Y973899D03*
G01*
X-1018796Y107175D03*
G01*
X-1304343Y709739D03*
G01*
X-326392Y-1102880D03*
G01*
X-160835Y-798258D03*
G01*
X-224843Y-715454D03*
G01*
X-140007Y-671766D03*
G01*
X-521540Y165163D03*
G01*
X139646Y1301559D03*
G01*
X779472Y454215D03*
G01*
X478228Y484187D03*
G01*
X-1953186Y366737D03*
G01*
X-1953186Y448017D03*
G01*
X-1953186Y529297D03*
G01*
X-2147115Y450659D03*
G01*
X-2147115Y531939D03*
G01*
X-2147115Y613219D03*
G01*
X-2147115Y694499D03*
G01*
X-2125525Y779081D03*
G01*
X-2068883Y842835D03*
G01*
X-1919150Y721067D03*
G01*
X-2022782Y904963D03*
G01*
X-1985063Y992441D03*
G01*
X-384812Y-1161453D03*
G01*
X-1282753Y-817054D03*
G01*
X-1718363Y-928814D03*
G01*
X-1659054Y-1002830D03*
G01*
X-1022657Y-673798D03*
G01*
X291792Y-233362D03*
G01*
X252676Y-306768D03*
G01*
X-901753Y-395668D03*
G01*
X-709983Y482155D03*
G01*
X-616003Y483425D03*
G01*
X224025Y548119D03*
G01*
X221180Y467677D03*
G01*
X-1197663Y-193230D03*
G01*
X-1030302Y260159D03*
G01*
X-327967Y-59626D03*
G01*
X-174068Y331279D03*
G01*
X-249506Y166687D03*
G01*
X-148160Y168719D03*
G01*
X-777293Y-680402D03*
G01*
X-238305Y-228282D03*
G01*
X-1293675Y579183D03*
G01*
X215897Y-512432D03*
G01*
X-665279Y416115D03*
G01*
X-115369Y594423D03*
G01*
X-1511353Y-563054D03*
G01*
X-966904Y723353D03*
G01*
X-856287Y-229298D03*
G01*
X-1807517Y-597852D03*
G01*
X-1046025Y-277304D03*
G01*
X380489Y54851D03*
G01*
X616709Y90665D03*
G01*
X243837Y686549D03*
G01*
X71320Y513397D03*
G01*
X448256Y1104201D03*
G01*
X437080Y839025D03*
G01*
X496008Y635571D03*
G01*
X-408485Y-1474914D03*
G01*
X-1023673Y-748728D03*
G01*
X-701347Y-489648D03*
G01*
X-1110795Y-343344D03*
G01*
X-1521513Y505269D03*
G01*
X-1641147Y-51498D03*
G01*
X88084Y592137D03*
G01*
X-471782Y-1753755D03*
G01*
X-1389814Y-1676438D03*
G01*
X-952045Y-253428D03*
G01*
X-763831Y-1854390D03*
G01*
X-815596Y-1237246D03*
G01*
X-806960Y-1079004D03*
G01*
X-721794Y632929D03*
G01*
X-198173Y497395D03*
G01*
X790140Y-230568D03*
G01*
X-247474Y-338772D03*
G01*
X-209349Y-423862D03*
G01*
X-384863Y-768286D03*
G01*
X-362003Y-436562D03*
G01*
X-426519Y-488632D03*
G01*
X-435180Y-412940D03*
G01*
X850338Y-674560D03*
G01*
X578558Y-674560D03*
G01*
X913838Y252031D03*
G01*
X-2144600Y364299D03*
G01*
X-1821868Y-1392720D03*
G01*
X-1883590Y-1323632D03*
G01*
X-1749224Y-1457998D03*
G01*
X-1615112Y-1546898D03*
G01*
X-1687502Y-1517942D03*
G01*
X-1803834Y-1004862D03*
G01*
X-1914324Y-1062012D03*
G01*
X-1199060Y-1451648D03*
G01*
X-1772592Y1117053D03*
G01*
X-1753542Y647153D03*
G01*
X-1674548Y1143469D03*
G01*
X-1581330Y1320507D03*
G01*
X-779528Y-1514868D03*
G01*
X-1274142Y-1236662D03*
G01*
X248206Y-76466D03*
G01*
X232077Y838771D03*
G01*
X-134927Y-483806D03*
G01*
X-1527888Y371970D03*
G01*
X-317578Y474535D03*
G01*
X-1167716Y458533D03*
G01*
X510969Y280479D03*
G01*
X-718568Y-1078496D03*
M02*
