G04 Layer: TopSilkscreenLayer*
G04 Panelize: , Column: 1, Row: 1, Board Size: 35.35mm x 33.79mm, Panelized Board Size: 35.35mm x 33.79mm*
G04 EasyEDA v6.5.32, 2023-07-27 20:51:34*
G04 7f8d34143daf4d43a3b22917546c404d,9a4ed40c0dd746429eaf55b84663d2fb,10*
G04 Gerber Generator version 0.2*
G04 Scale: 100 percent, Rotated: No, Reflected: No *
G04 Dimensions in millimeters *
G04 leading zeros omitted , absolute positions ,4 integer and 5 decimal *
%FSLAX45Y45*%
%MOMM*%

%ADD10C,0.1524*%
%ADD11C,0.1270*%
%ADD12C,0.1000*%
%ADD13C,0.0762*%
%ADD14C,0.2540*%
%ADD15C,0.2000*%
%ADD16C,0.1500*%
%ADD17C,0.1999*%
%ADD18C,0.2500*%
%ADD19C,0.2500*%
%ADD20C,0.0139*%

%LPD*%
D10*
X110487Y529729D02*
G01*
X110487Y469023D01*
X110487Y529729D02*
G01*
X136395Y529729D01*
X145031Y526935D01*
X148079Y523887D01*
X150873Y518299D01*
X150873Y512457D01*
X148079Y506615D01*
X145031Y503821D01*
X136395Y500773D01*
X110487Y500773D01*
X130553Y500773D02*
G01*
X150873Y469023D01*
X169923Y518299D02*
G01*
X175765Y521093D01*
X184401Y529729D01*
X184401Y469023D01*
X217929Y529729D02*
G01*
X209039Y526935D01*
X206245Y521093D01*
X206245Y515251D01*
X209039Y509409D01*
X214881Y506615D01*
X226565Y503821D01*
X235201Y500773D01*
X240789Y495185D01*
X243837Y489343D01*
X243837Y480707D01*
X240789Y474865D01*
X237995Y472071D01*
X229359Y469023D01*
X217929Y469023D01*
X209039Y472071D01*
X206245Y474865D01*
X203451Y480707D01*
X203451Y489343D01*
X206245Y495185D01*
X212087Y500773D01*
X220723Y503821D01*
X232153Y506615D01*
X237995Y509409D01*
X240789Y515251D01*
X240789Y521093D01*
X237995Y526935D01*
X229359Y529729D01*
X217929Y529729D01*
X730755Y199021D02*
G01*
X725421Y209435D01*
X715007Y219849D01*
X704847Y225183D01*
X684019Y225183D01*
X673605Y219849D01*
X663191Y209435D01*
X657857Y199021D01*
X652777Y183527D01*
X652777Y157619D01*
X657857Y141871D01*
X663191Y131457D01*
X673605Y121043D01*
X684019Y115963D01*
X704847Y115963D01*
X715007Y121043D01*
X725421Y131457D01*
X730755Y141871D01*
X730755Y157619D01*
X704847Y157619D02*
G01*
X730755Y157619D01*
X765045Y225183D02*
G01*
X765045Y115963D01*
X765045Y225183D02*
G01*
X811781Y225183D01*
X827275Y219849D01*
X832609Y214769D01*
X837689Y204355D01*
X837689Y188607D01*
X832609Y178193D01*
X827275Y173113D01*
X811781Y168033D01*
X765045Y168033D01*
X871979Y225183D02*
G01*
X871979Y115963D01*
X937511Y225183D02*
G01*
X927097Y219849D01*
X916683Y209435D01*
X911603Y199021D01*
X906269Y183527D01*
X906269Y157619D01*
X911603Y141871D01*
X916683Y131457D01*
X927097Y121043D01*
X937511Y115963D01*
X958339Y115963D01*
X968753Y121043D01*
X979167Y131457D01*
X984247Y141871D01*
X989327Y157619D01*
X989327Y183527D01*
X984247Y199021D01*
X979167Y209435D01*
X968753Y219849D01*
X958339Y225183D01*
X937511Y225183D01*
X-1706151Y-816904D02*
G01*
X-1750550Y-858304D01*
X-1706151Y-816904D02*
G01*
X-1688482Y-835850D01*
X-1684637Y-844072D01*
X-1684959Y-848194D01*
X-1687154Y-854407D01*
X-1691241Y-858220D01*
X-1697591Y-859975D01*
X-1701540Y-859835D01*
X-1709658Y-855598D01*
X-1727329Y-836650D02*
G01*
X-1709658Y-855598D01*
X-1705813Y-863820D01*
X-1705950Y-867770D01*
X-1708144Y-873983D01*
X-1714461Y-879873D01*
X-1720811Y-881628D01*
X-1724761Y-881489D01*
X-1732879Y-877252D01*
X-1750550Y-858304D01*
X-1649851Y-877277D02*
G01*
X-1710014Y-901773D01*
X-1649851Y-877277D02*
G01*
X-1678487Y-935583D01*
X-1689262Y-894232D02*
G01*
X-1669689Y-915222D01*
X-1607411Y-922789D02*
G01*
X-1651810Y-964191D01*
X-1621096Y-908113D02*
G01*
X-1593552Y-937651D01*
X-1566877Y-966256D02*
G01*
X-1611274Y-1007658D01*
X-1580560Y-951583D02*
G01*
X-1553019Y-981118D01*
X-1540027Y-995050D02*
G01*
X-1584424Y-1036452D01*
X-1540027Y-995050D02*
G01*
X-1514561Y-1022357D01*
X-1561203Y-1014798D02*
G01*
X-1545440Y-1031704D01*
X-1584424Y-1036452D02*
G01*
X-1558960Y-1063759D01*
X-1501569Y-1036289D02*
G01*
X-1545968Y-1077691D01*
X-1501569Y-1036289D02*
G01*
X-1483728Y-1055423D01*
X-1479880Y-1063645D01*
X-1480205Y-1067767D01*
X-1482399Y-1073980D01*
X-1486486Y-1077793D01*
X-1492836Y-1079548D01*
X-1496786Y-1079408D01*
X-1504904Y-1075171D01*
X-1522747Y-1056038D01*
X-1508889Y-1070899D02*
G01*
X-1518251Y-1107414D01*
X-1460860Y-1079944D02*
G01*
X-1466448Y-1116411D01*
X-1489669Y-1138064D01*
X-1429506Y-1113569D02*
G01*
X-1466448Y-1116411D01*
X-1404988Y-1152525D02*
G01*
X-1443070Y-1188036D01*
X-1441780Y-1151059D02*
G01*
X-1406268Y-1189141D01*
X-1983600Y-124965D02*
G01*
X-1983600Y-185671D01*
X-1943214Y-124965D02*
G01*
X-1943214Y-185671D01*
X-1983600Y-153921D02*
G01*
X-1943214Y-153921D01*
X-1901050Y-124965D02*
G01*
X-1924164Y-185671D01*
X-1901050Y-124965D02*
G01*
X-1877936Y-185671D01*
X-1915528Y-165351D02*
G01*
X-1886572Y-165351D01*
X-1858886Y-124965D02*
G01*
X-1858886Y-185671D01*
X-1858886Y-124965D02*
G01*
X-1832978Y-124965D01*
X-1824342Y-127759D01*
X-1821548Y-130807D01*
X-1818500Y-136395D01*
X-1818500Y-145031D01*
X-1821548Y-150873D01*
X-1824342Y-153921D01*
X-1832978Y-156715D01*
X-1858886Y-156715D01*
X-1779384Y-124965D02*
G01*
X-1779384Y-185671D01*
X-1799450Y-124965D02*
G01*
X-1759064Y-124965D01*
X-1740014Y-124965D02*
G01*
X-1740014Y-185671D01*
X-1677784Y-139443D02*
G01*
X-1680578Y-133601D01*
X-1686420Y-127759D01*
X-1692262Y-124965D01*
X-1703692Y-124965D01*
X-1709534Y-127759D01*
X-1715122Y-133601D01*
X-1718170Y-139443D01*
X-1720964Y-148079D01*
X-1720964Y-162557D01*
X-1718170Y-171193D01*
X-1715122Y-176781D01*
X-1709534Y-182623D01*
X-1703692Y-185671D01*
X-1692262Y-185671D01*
X-1686420Y-182623D01*
X-1680578Y-176781D01*
X-1677784Y-171193D01*
D11*
X-1869589Y1131354D02*
G01*
X-1872383Y1137196D01*
X-1878225Y1143038D01*
X-1884067Y1145832D01*
X-1895497Y1145832D01*
X-1901339Y1143038D01*
X-1906927Y1137196D01*
X-1909975Y1131354D01*
X-1912769Y1122718D01*
X-1912769Y1108240D01*
X-1909975Y1099604D01*
X-1906927Y1093762D01*
X-1901339Y1088174D01*
X-1895497Y1085126D01*
X-1884067Y1085126D01*
X-1878225Y1088174D01*
X-1872383Y1093762D01*
X-1869589Y1099604D01*
X-1815741Y1137196D02*
G01*
X-1818789Y1143038D01*
X-1827425Y1145832D01*
X-1833267Y1145832D01*
X-1841903Y1143038D01*
X-1847491Y1134402D01*
X-1850539Y1119924D01*
X-1850539Y1105446D01*
X-1847491Y1093762D01*
X-1841903Y1088174D01*
X-1833267Y1085126D01*
X-1830219Y1085126D01*
X-1821583Y1088174D01*
X-1815741Y1093762D01*
X-1812947Y1102652D01*
X-1812947Y1105446D01*
X-1815741Y1114082D01*
X-1821583Y1119924D01*
X-1830219Y1122718D01*
X-1833267Y1122718D01*
X-1841903Y1119924D01*
X-1847491Y1114082D01*
X-1850539Y1105446D01*
D10*
X-1904245Y-342336D02*
G01*
X-1968972Y-336849D01*
X-1904245Y-342336D02*
G01*
X-1956229Y-381287D01*
X-1947057Y-339549D02*
G01*
X-1939076Y-367385D01*
X-1892625Y-382866D02*
G01*
X-1934375Y-394837D01*
X-1941906Y-399905D01*
X-1945911Y-407131D01*
X-1946216Y-416201D01*
X-1944606Y-421817D01*
X-1939541Y-429348D01*
X-1932315Y-433354D01*
X-1923242Y-433659D01*
X-1881492Y-421688D01*
X-1876242Y-439999D02*
G01*
X-1934596Y-456732D01*
X-1876242Y-439999D02*
G01*
X-1870641Y-459531D01*
X-1871190Y-468673D01*
X-1874951Y-475830D01*
X-1879795Y-480126D01*
X-1887326Y-485193D01*
X-1901245Y-489183D01*
X-1910316Y-488878D01*
X-1916701Y-487801D01*
X-1923928Y-483796D01*
X-1928995Y-476265D01*
X-1934596Y-456732D01*
X-1859859Y-497133D02*
G01*
X-1918213Y-513867D01*
X-1849846Y-532048D02*
G01*
X-1854316Y-527517D01*
X-1861299Y-523440D01*
X-1867684Y-522366D01*
X-1876826Y-521817D01*
X-1890742Y-525807D01*
X-1898205Y-531116D01*
X-1903049Y-535414D01*
X-1907054Y-542640D01*
X-1908200Y-548782D01*
X-1904979Y-560011D01*
X-1900684Y-564857D01*
X-1893529Y-568619D01*
X-1887072Y-569937D01*
X-1877999Y-570245D01*
X-1864083Y-566254D01*
X-1856552Y-561187D01*
X-1851776Y-556646D01*
X-1847946Y-549734D01*
X-1846625Y-543280D01*
X-1849846Y-532048D01*
X115059Y655205D02*
G01*
X115059Y594499D01*
X115059Y655205D02*
G01*
X140967Y655205D01*
X149603Y652411D01*
X152651Y649363D01*
X155445Y643775D01*
X155445Y637933D01*
X152651Y632091D01*
X149603Y629297D01*
X140967Y626249D01*
X115059Y626249D01*
X135125Y626249D02*
G01*
X155445Y594499D01*
X174495Y643775D02*
G01*
X180337Y646569D01*
X188973Y655205D01*
X188973Y594499D01*
X245361Y634885D02*
G01*
X242567Y626249D01*
X236725Y620661D01*
X228089Y617613D01*
X225295Y617613D01*
X216659Y620661D01*
X210817Y626249D01*
X208023Y634885D01*
X208023Y637933D01*
X210817Y646569D01*
X216659Y652411D01*
X225295Y655205D01*
X228089Y655205D01*
X236725Y652411D01*
X242567Y646569D01*
X245361Y634885D01*
X245361Y620661D01*
X242567Y606183D01*
X236725Y597547D01*
X228089Y594499D01*
X222501Y594499D01*
X213611Y597547D01*
X210817Y603135D01*
X297456Y743826D02*
G01*
X297456Y700646D01*
X300250Y692010D01*
X306092Y686168D01*
X314728Y683120D01*
X320570Y683120D01*
X329206Y686168D01*
X334794Y692010D01*
X337842Y700646D01*
X337842Y743826D01*
X391436Y743826D02*
G01*
X362734Y743826D01*
X359686Y717918D01*
X362734Y720712D01*
X371370Y723760D01*
X380006Y723760D01*
X388642Y720712D01*
X394484Y714870D01*
X397278Y706234D01*
X397278Y700646D01*
X394484Y692010D01*
X388642Y686168D01*
X380006Y683120D01*
X371370Y683120D01*
X362734Y686168D01*
X359686Y688962D01*
X356892Y694804D01*
X-729256Y1500512D02*
G01*
X-729256Y1452760D01*
X-726208Y1443108D01*
X-719858Y1436758D01*
X-710206Y1433710D01*
X-703856Y1433710D01*
X-694204Y1436758D01*
X-687854Y1443108D01*
X-684806Y1452760D01*
X-684806Y1500512D01*
X-663724Y1487812D02*
G01*
X-657374Y1490860D01*
X-647976Y1500512D01*
X-647976Y1433710D01*
X433082Y-187881D02*
G01*
X433082Y-144447D01*
X430288Y-135811D01*
X424446Y-130223D01*
X415810Y-127175D01*
X409968Y-127175D01*
X401332Y-130223D01*
X395490Y-135811D01*
X392696Y-144447D01*
X392696Y-187881D01*
X359168Y-187881D02*
G01*
X367804Y-185087D01*
X370852Y-179245D01*
X370852Y-173403D01*
X367804Y-167561D01*
X362216Y-164767D01*
X350532Y-161973D01*
X341896Y-158925D01*
X336054Y-153337D01*
X333260Y-147495D01*
X333260Y-138859D01*
X336054Y-133017D01*
X339102Y-130223D01*
X347738Y-127175D01*
X359168Y-127175D01*
X367804Y-130223D01*
X370852Y-133017D01*
X373646Y-138859D01*
X373646Y-147495D01*
X370852Y-153337D01*
X365010Y-158925D01*
X356374Y-161973D01*
X344690Y-164767D01*
X339102Y-167561D01*
X336054Y-173403D01*
X336054Y-179245D01*
X339102Y-185087D01*
X347738Y-187881D01*
X359168Y-187881D01*
D11*
X-319229Y-1110830D02*
G01*
X-275795Y-1110830D01*
X-267159Y-1108036D01*
X-261317Y-1102194D01*
X-258523Y-1093558D01*
X-258523Y-1087716D01*
X-261317Y-1079080D01*
X-267159Y-1073492D01*
X-275795Y-1070444D01*
X-319229Y-1070444D01*
X-319229Y-1045806D02*
G01*
X-319229Y-1014056D01*
X-296115Y-1031328D01*
X-296115Y-1022692D01*
X-293067Y-1016850D01*
X-290273Y-1014056D01*
X-281637Y-1011008D01*
X-275795Y-1011008D01*
X-267159Y-1014056D01*
X-261317Y-1019644D01*
X-258523Y-1028280D01*
X-258523Y-1036916D01*
X-261317Y-1045806D01*
X-264365Y-1048600D01*
X-269953Y-1051394D01*
X-352808Y-1771256D02*
G01*
X-352808Y-1831962D01*
X-352808Y-1771256D02*
G01*
X-326900Y-1771256D01*
X-318264Y-1774050D01*
X-315216Y-1777098D01*
X-312422Y-1782686D01*
X-312422Y-1788528D01*
X-315216Y-1794370D01*
X-318264Y-1797164D01*
X-326900Y-1800212D01*
X-352808Y-1800212D01*
X-332742Y-1800212D02*
G01*
X-312422Y-1831962D01*
X-258828Y-1771256D02*
G01*
X-287530Y-1771256D01*
X-290578Y-1797164D01*
X-287530Y-1794370D01*
X-278894Y-1791576D01*
X-270258Y-1791576D01*
X-261622Y-1794370D01*
X-255780Y-1800212D01*
X-252986Y-1808848D01*
X-252986Y-1814436D01*
X-255780Y-1823326D01*
X-261622Y-1828914D01*
X-270258Y-1831962D01*
X-278894Y-1831962D01*
X-287530Y-1828914D01*
X-290578Y-1826120D01*
X-293372Y-1820278D01*
X-279656Y-1424292D02*
G01*
X-279656Y-1484998D01*
X-279656Y-1424292D02*
G01*
X-253748Y-1424292D01*
X-245112Y-1427086D01*
X-242064Y-1430134D01*
X-239270Y-1435722D01*
X-239270Y-1441564D01*
X-242064Y-1447406D01*
X-245112Y-1450200D01*
X-253748Y-1453248D01*
X-279656Y-1453248D01*
X-259590Y-1453248D02*
G01*
X-239270Y-1484998D01*
X-220220Y-1435722D02*
G01*
X-214378Y-1432928D01*
X-205742Y-1424292D01*
X-205742Y-1484998D01*
X-152148Y-1424292D02*
G01*
X-181104Y-1424292D01*
X-183898Y-1450200D01*
X-181104Y-1447406D01*
X-172214Y-1444612D01*
X-163578Y-1444612D01*
X-154942Y-1447406D01*
X-149354Y-1453248D01*
X-146306Y-1461884D01*
X-146306Y-1467472D01*
X-149354Y-1476362D01*
X-154942Y-1481950D01*
X-163578Y-1484998D01*
X-172214Y-1484998D01*
X-181104Y-1481950D01*
X-183898Y-1479156D01*
X-186692Y-1473314D01*
X322323Y1191907D02*
G01*
X322323Y1131201D01*
X322323Y1191907D02*
G01*
X348231Y1191907D01*
X356867Y1189113D01*
X359915Y1186065D01*
X362709Y1180477D01*
X362709Y1174635D01*
X359915Y1168793D01*
X356867Y1165999D01*
X348231Y1162951D01*
X322323Y1162951D01*
X342389Y1162951D02*
G01*
X362709Y1131201D01*
X381759Y1180477D02*
G01*
X387601Y1183271D01*
X396237Y1191907D01*
X396237Y1131201D01*
X-1318770Y-1037343D02*
G01*
X-1258064Y-1037343D01*
X-1318770Y-1037343D02*
G01*
X-1318770Y-1011435D01*
X-1315976Y-1002799D01*
X-1312928Y-999751D01*
X-1307340Y-996957D01*
X-1301498Y-996957D01*
X-1295656Y-999751D01*
X-1292862Y-1002799D01*
X-1289814Y-1011435D01*
X-1289814Y-1037343D01*
X-1289814Y-1017277D02*
G01*
X-1258064Y-996957D01*
X-1318770Y-948951D02*
G01*
X-1278384Y-977907D01*
X-1278384Y-934727D01*
X-1318770Y-948951D02*
G01*
X-1258064Y-948951D01*
X-1223149Y-1033294D02*
G01*
X-1162443Y-1033294D01*
X-1223149Y-1033294D02*
G01*
X-1223149Y-1007386D01*
X-1220101Y-998750D01*
X-1217307Y-995956D01*
X-1211465Y-992908D01*
X-1205623Y-992908D01*
X-1200035Y-995956D01*
X-1196987Y-998750D01*
X-1194193Y-1007386D01*
X-1194193Y-1033294D01*
X-1194193Y-1013228D02*
G01*
X-1162443Y-992908D01*
X-1223149Y-959380D02*
G01*
X-1220101Y-968270D01*
X-1214513Y-971064D01*
X-1208671Y-971064D01*
X-1202829Y-968270D01*
X-1200035Y-962428D01*
X-1196987Y-950744D01*
X-1194193Y-942108D01*
X-1188351Y-936520D01*
X-1182763Y-933472D01*
X-1173873Y-933472D01*
X-1168285Y-936520D01*
X-1165237Y-939314D01*
X-1162443Y-947950D01*
X-1162443Y-959380D01*
X-1165237Y-968270D01*
X-1168285Y-971064D01*
X-1173873Y-973858D01*
X-1182763Y-973858D01*
X-1188351Y-971064D01*
X-1194193Y-965222D01*
X-1196987Y-956586D01*
X-1200035Y-945156D01*
X-1202829Y-939314D01*
X-1208671Y-936520D01*
X-1214513Y-936520D01*
X-1220101Y-939314D01*
X-1223149Y-947950D01*
X-1223149Y-959380D01*
X-691695Y-747712D02*
G01*
X-691695Y-808418D01*
X-691695Y-747712D02*
G01*
X-665787Y-747712D01*
X-657151Y-750506D01*
X-654103Y-753554D01*
X-651309Y-759142D01*
X-651309Y-764984D01*
X-654103Y-770826D01*
X-657151Y-773620D01*
X-665787Y-776668D01*
X-691695Y-776668D01*
X-671629Y-776668D02*
G01*
X-651309Y-808418D01*
X-632259Y-759142D02*
G01*
X-626417Y-756348D01*
X-617781Y-747712D01*
X-617781Y-808418D01*
X-598731Y-759142D02*
G01*
X-593143Y-756348D01*
X-584253Y-747712D01*
X-584253Y-808418D01*
X-1272120Y-1708045D02*
G01*
X-1272120Y-1768751D01*
X-1272120Y-1708045D02*
G01*
X-1246212Y-1708045D01*
X-1237576Y-1711093D01*
X-1234782Y-1713887D01*
X-1231734Y-1719729D01*
X-1231734Y-1725571D01*
X-1234782Y-1731159D01*
X-1237576Y-1734207D01*
X-1246212Y-1737001D01*
X-1272120Y-1737001D01*
X-1252054Y-1737001D02*
G01*
X-1231734Y-1768751D01*
X-1209890Y-1722523D02*
G01*
X-1209890Y-1719729D01*
X-1207096Y-1713887D01*
X-1204048Y-1711093D01*
X-1198206Y-1708045D01*
X-1186776Y-1708045D01*
X-1180934Y-1711093D01*
X-1178140Y-1713887D01*
X-1175346Y-1719729D01*
X-1175346Y-1725571D01*
X-1178140Y-1731159D01*
X-1183982Y-1739795D01*
X-1212684Y-1768751D01*
X-1172298Y-1768751D01*
X-1153248Y-1719729D02*
G01*
X-1147406Y-1716681D01*
X-1138770Y-1708045D01*
X-1138770Y-1768751D01*
X-922312Y-1809061D02*
G01*
X-922312Y-1869513D01*
X-922312Y-1809061D02*
G01*
X-896150Y-1809061D01*
X-887514Y-1811855D01*
X-884720Y-1814649D01*
X-881926Y-1820491D01*
X-881926Y-1826333D01*
X-884720Y-1832175D01*
X-887514Y-1834969D01*
X-896150Y-1837763D01*
X-922312Y-1837763D01*
X-901992Y-1837763D02*
G01*
X-881926Y-1869513D01*
X-859828Y-1823285D02*
G01*
X-859828Y-1820491D01*
X-857034Y-1814649D01*
X-853986Y-1811855D01*
X-848398Y-1809061D01*
X-836714Y-1809061D01*
X-831126Y-1811855D01*
X-828078Y-1814649D01*
X-825284Y-1820491D01*
X-825284Y-1826333D01*
X-828078Y-1832175D01*
X-833920Y-1840811D01*
X-862876Y-1869513D01*
X-822236Y-1869513D01*
X-797598Y-1809061D02*
G01*
X-765848Y-1809061D01*
X-783120Y-1832175D01*
X-774484Y-1832175D01*
X-768642Y-1834969D01*
X-765848Y-1837763D01*
X-762800Y-1846399D01*
X-762800Y-1852241D01*
X-765848Y-1860877D01*
X-771436Y-1866719D01*
X-780326Y-1869513D01*
X-788962Y-1869513D01*
X-797598Y-1866719D01*
X-800392Y-1863925D01*
X-803186Y-1858083D01*
X202689Y-366382D02*
G01*
X202689Y-427088D01*
X202689Y-366382D02*
G01*
X228597Y-366382D01*
X237233Y-369176D01*
X240281Y-372224D01*
X243075Y-377812D01*
X243075Y-383654D01*
X240281Y-389496D01*
X237233Y-392290D01*
X228597Y-395338D01*
X202689Y-395338D01*
X222755Y-395338D02*
G01*
X243075Y-427088D01*
X264919Y-380860D02*
G01*
X264919Y-377812D01*
X267967Y-372224D01*
X270761Y-369176D01*
X276603Y-366382D01*
X288033Y-366382D01*
X293875Y-369176D01*
X296669Y-372224D01*
X299717Y-377812D01*
X299717Y-383654D01*
X296669Y-389496D01*
X291081Y-398132D01*
X262125Y-427088D01*
X302511Y-427088D01*
X359153Y-386702D02*
G01*
X356105Y-395338D01*
X350517Y-400926D01*
X341881Y-403974D01*
X338833Y-403974D01*
X330197Y-400926D01*
X324355Y-395338D01*
X321561Y-386702D01*
X321561Y-383654D01*
X324355Y-375018D01*
X330197Y-369176D01*
X338833Y-366382D01*
X341881Y-366382D01*
X350517Y-369176D01*
X356105Y-375018D01*
X359153Y-386702D01*
X359153Y-400926D01*
X356105Y-415404D01*
X350517Y-424040D01*
X341881Y-427088D01*
X336039Y-427088D01*
X327403Y-424040D01*
X324355Y-418452D01*
X248665Y-228345D02*
G01*
X248665Y-289052D01*
X248665Y-228345D02*
G01*
X274574Y-228345D01*
X283210Y-231139D01*
X286258Y-234187D01*
X289052Y-239776D01*
X289052Y-245618D01*
X286258Y-251460D01*
X283210Y-254253D01*
X274574Y-257302D01*
X248665Y-257302D01*
X268731Y-257302D02*
G01*
X289052Y-289052D01*
X313944Y-228345D02*
G01*
X345694Y-228345D01*
X328168Y-251460D01*
X337058Y-251460D01*
X342646Y-254253D01*
X345694Y-257302D01*
X348488Y-265937D01*
X348488Y-271526D01*
X345694Y-280415D01*
X339852Y-286003D01*
X331215Y-289052D01*
X322580Y-289052D01*
X313944Y-286003D01*
X310896Y-283210D01*
X308102Y-277368D01*
X384810Y-228345D02*
G01*
X376174Y-231139D01*
X370331Y-239776D01*
X367538Y-254253D01*
X367538Y-262889D01*
X370331Y-277368D01*
X376174Y-286003D01*
X384810Y-289052D01*
X390652Y-289052D01*
X399288Y-286003D01*
X405130Y-277368D01*
X407924Y-262889D01*
X407924Y-254253D01*
X405130Y-239776D01*
X399288Y-231139D01*
X390652Y-228345D01*
X384810Y-228345D01*
D12*
X833117Y423049D02*
G01*
X830831Y427367D01*
X826259Y431939D01*
X821687Y434225D01*
X812543Y434225D01*
X808225Y431939D01*
X803653Y427367D01*
X801367Y423049D01*
X799081Y416194D01*
X799081Y404761D01*
X801367Y397903D01*
X803653Y393331D01*
X808225Y388759D01*
X812543Y386473D01*
X821687Y386473D01*
X826259Y388759D01*
X830831Y393331D01*
X833117Y397903D01*
X850389Y423049D02*
G01*
X850389Y425335D01*
X852672Y429653D01*
X854961Y431939D01*
X859533Y434225D01*
X868674Y434225D01*
X872995Y431939D01*
X875281Y429653D01*
X877567Y425335D01*
X877567Y420761D01*
X875281Y416191D01*
X870963Y409333D01*
X848103Y386473D01*
X879853Y386473D01*
X922271Y427367D02*
G01*
X919985Y431939D01*
X913127Y434225D01*
X908555Y434225D01*
X901697Y431939D01*
X897125Y425335D01*
X894839Y413905D01*
X894839Y402475D01*
X897125Y393331D01*
X901697Y388759D01*
X908555Y386473D01*
X910841Y386473D01*
X917699Y388757D01*
X922271Y393331D01*
X924557Y400189D01*
X924557Y402475D01*
X922271Y409333D01*
X917699Y413905D01*
X910841Y416194D01*
X908555Y416191D01*
X901697Y413905D01*
X897125Y409333D01*
X894839Y402475D01*
D11*
X364995Y361581D02*
G01*
X364995Y300875D01*
X364995Y361581D02*
G01*
X390903Y361581D01*
X399539Y358787D01*
X402587Y355739D01*
X405381Y350151D01*
X405381Y344309D01*
X402587Y338467D01*
X399539Y335673D01*
X390903Y332625D01*
X364995Y332625D01*
X385061Y332625D02*
G01*
X405381Y300875D01*
X424431Y350151D02*
G01*
X430273Y352945D01*
X438909Y361581D01*
X438909Y300875D01*
X492503Y352945D02*
G01*
X489709Y358787D01*
X481073Y361581D01*
X475231Y361581D01*
X466595Y358787D01*
X460753Y350151D01*
X457959Y335673D01*
X457959Y321195D01*
X460753Y309511D01*
X466595Y303923D01*
X475231Y300875D01*
X478025Y300875D01*
X486661Y303923D01*
X492503Y309511D01*
X495297Y318401D01*
X495297Y321195D01*
X492503Y329831D01*
X486661Y335673D01*
X478025Y338467D01*
X475231Y338467D01*
X466595Y335673D01*
X460753Y329831D01*
X457959Y321195D01*
D13*
X150190Y-75234D02*
G01*
X106756Y-75234D01*
X150190Y-75234D02*
G01*
X150190Y-93776D01*
X148158Y-100126D01*
X146126Y-102158D01*
X142062Y-104190D01*
X137744Y-104190D01*
X133680Y-102158D01*
X131648Y-100126D01*
X129616Y-93776D01*
X129616Y-75234D01*
X129616Y-89712D02*
G01*
X106756Y-104190D01*
X139776Y-120192D02*
G01*
X142062Y-120192D01*
X146126Y-122224D01*
X148158Y-124256D01*
X150190Y-128320D01*
X150190Y-136702D01*
X148158Y-140766D01*
X146126Y-143052D01*
X142062Y-145084D01*
X137744Y-145084D01*
X133680Y-143052D01*
X127330Y-138734D01*
X106756Y-117906D01*
X106756Y-147116D01*
X150190Y-173278D02*
G01*
X148158Y-166928D01*
X142062Y-162864D01*
X131648Y-160832D01*
X125298Y-160832D01*
X114884Y-162864D01*
X108788Y-166928D01*
X106756Y-173278D01*
X106756Y-177342D01*
X108788Y-183692D01*
X114884Y-187756D01*
X125298Y-189788D01*
X131648Y-189788D01*
X142062Y-187756D01*
X148158Y-183692D01*
X150190Y-177342D01*
X150190Y-173278D01*
D12*
X680209Y693305D02*
G01*
X677923Y697623D01*
X673351Y702195D01*
X668779Y704481D01*
X659635Y704481D01*
X655317Y702195D01*
X650745Y697623D01*
X648459Y693305D01*
X646173Y686447D01*
X646173Y675017D01*
X648459Y668159D01*
X650745Y663587D01*
X655317Y659015D01*
X659635Y656729D01*
X668779Y656729D01*
X673351Y659015D01*
X677923Y663587D01*
X680209Y668159D01*
X697481Y693305D02*
G01*
X697481Y695591D01*
X699767Y699909D01*
X702053Y702195D01*
X706625Y704481D01*
X715769Y704481D01*
X720087Y702195D01*
X722373Y699909D01*
X724659Y695591D01*
X724659Y691019D01*
X722373Y686447D01*
X718055Y679589D01*
X695195Y656729D01*
X726945Y656729D01*
X769363Y704481D02*
G01*
X746503Y704481D01*
X744217Y684161D01*
X746503Y686447D01*
X753361Y688733D01*
X760219Y688733D01*
X767077Y686447D01*
X771649Y681875D01*
X773935Y675017D01*
X773935Y670445D01*
X771649Y663587D01*
X767077Y659015D01*
X760219Y656729D01*
X753361Y656729D01*
X746503Y659015D01*
X744217Y661301D01*
X741931Y665873D01*
D11*
X-1621360Y779833D02*
G01*
X-1560654Y779833D01*
X-1621360Y779833D02*
G01*
X-1621360Y805741D01*
X-1618312Y814377D01*
X-1615518Y817171D01*
X-1609676Y820219D01*
X-1603834Y820219D01*
X-1598246Y817171D01*
X-1595198Y814377D01*
X-1592404Y805741D01*
X-1592404Y779833D01*
X-1592404Y799899D02*
G01*
X-1560654Y820219D01*
X-1606882Y842063D02*
G01*
X-1609676Y842063D01*
X-1615518Y844857D01*
X-1618312Y847905D01*
X-1621360Y853747D01*
X-1621360Y865177D01*
X-1618312Y871019D01*
X-1615518Y873813D01*
X-1609676Y876607D01*
X-1603834Y876607D01*
X-1598246Y873813D01*
X-1589610Y867971D01*
X-1560654Y839269D01*
X-1560654Y879655D01*
X-1621360Y927407D02*
G01*
X-1580974Y898705D01*
X-1580974Y941885D01*
X-1621360Y927407D02*
G01*
X-1560654Y927407D01*
X-1994796Y380845D02*
G01*
X-2000638Y378051D01*
X-2006480Y372209D01*
X-2009274Y366367D01*
X-2009274Y354937D01*
X-2006480Y349095D01*
X-2000638Y343507D01*
X-1994796Y340459D01*
X-1986160Y337665D01*
X-1971682Y337665D01*
X-1963046Y340459D01*
X-1957204Y343507D01*
X-1951616Y349095D01*
X-1948568Y354937D01*
X-1948568Y366367D01*
X-1951616Y372209D01*
X-1957204Y378051D01*
X-1963046Y380845D01*
X-2009274Y414373D02*
G01*
X-2006480Y405737D01*
X-2000638Y402943D01*
X-1994796Y402943D01*
X-1988954Y405737D01*
X-1986160Y411579D01*
X-1983366Y423009D01*
X-1980318Y431645D01*
X-1974730Y437487D01*
X-1968888Y440281D01*
X-1960252Y440281D01*
X-1954410Y437487D01*
X-1951616Y434693D01*
X-1948568Y426057D01*
X-1948568Y414373D01*
X-1951616Y405737D01*
X-1954410Y402943D01*
X-1960252Y399895D01*
X-1968888Y399895D01*
X-1974730Y402943D01*
X-1980318Y408531D01*
X-1983366Y417167D01*
X-1986160Y428851D01*
X-1988954Y434693D01*
X-1994796Y437487D01*
X-2000638Y437487D01*
X-2006480Y434693D01*
X-2009274Y426057D01*
X-2009274Y414373D01*
X-1456956Y-1511297D02*
G01*
X-1413776Y-1511297D01*
X-1404886Y-1508503D01*
X-1399298Y-1502661D01*
X-1396250Y-1494025D01*
X-1396250Y-1488183D01*
X-1399298Y-1479547D01*
X-1404886Y-1473705D01*
X-1413776Y-1470911D01*
X-1456956Y-1470911D01*
X-1445526Y-1451861D02*
G01*
X-1448320Y-1446019D01*
X-1456956Y-1437383D01*
X-1396250Y-1437383D01*
X-1456956Y-1383789D02*
G01*
X-1456956Y-1412745D01*
X-1431048Y-1415539D01*
X-1433842Y-1412745D01*
X-1436636Y-1403855D01*
X-1436636Y-1395219D01*
X-1433842Y-1386583D01*
X-1428000Y-1380995D01*
X-1419364Y-1377947D01*
X-1413776Y-1377947D01*
X-1404886Y-1380995D01*
X-1399298Y-1386583D01*
X-1396250Y-1395219D01*
X-1396250Y-1403855D01*
X-1399298Y-1412745D01*
X-1402092Y-1415539D01*
X-1407934Y-1418333D01*
X-1580502Y669698D02*
G01*
X-1574660Y672492D01*
X-1568818Y678334D01*
X-1566024Y684176D01*
X-1566024Y695606D01*
X-1568818Y701448D01*
X-1574660Y707036D01*
X-1580502Y710084D01*
X-1589138Y712878D01*
X-1603616Y712878D01*
X-1612252Y710084D01*
X-1618094Y707036D01*
X-1623682Y701448D01*
X-1626730Y695606D01*
X-1626730Y684176D01*
X-1623682Y678334D01*
X-1618094Y672492D01*
X-1612252Y669698D01*
X-1577454Y650648D02*
G01*
X-1574660Y644806D01*
X-1566024Y636170D01*
X-1626730Y636170D01*
X-1574660Y582576D02*
G01*
X-1568818Y585370D01*
X-1566024Y594006D01*
X-1566024Y599848D01*
X-1568818Y608484D01*
X-1577454Y614326D01*
X-1591932Y617120D01*
X-1606410Y617120D01*
X-1618094Y614326D01*
X-1623682Y608484D01*
X-1626730Y599848D01*
X-1626730Y596800D01*
X-1623682Y588164D01*
X-1618094Y582576D01*
X-1609204Y579528D01*
X-1606410Y579528D01*
X-1597774Y582576D01*
X-1591932Y588164D01*
X-1589138Y596800D01*
X-1589138Y599848D01*
X-1591932Y608484D01*
X-1597774Y614326D01*
X-1606410Y617120D01*
X197609Y883297D02*
G01*
X194815Y889139D01*
X188973Y894981D01*
X183131Y897775D01*
X171701Y897775D01*
X165859Y894981D01*
X160271Y889139D01*
X157223Y883297D01*
X154429Y874661D01*
X154429Y860183D01*
X157223Y851547D01*
X160271Y845705D01*
X165859Y840117D01*
X171701Y837069D01*
X183131Y837069D01*
X188973Y840117D01*
X194815Y845705D01*
X197609Y851547D01*
X216659Y886345D02*
G01*
X222501Y889139D01*
X231137Y897775D01*
X231137Y837069D01*
X-1161036Y-694550D02*
G01*
X-1163830Y-688708D01*
X-1169672Y-682866D01*
X-1175514Y-680072D01*
X-1186944Y-680072D01*
X-1192786Y-682866D01*
X-1198374Y-688708D01*
X-1201422Y-694550D01*
X-1204216Y-703186D01*
X-1204216Y-717664D01*
X-1201422Y-726300D01*
X-1198374Y-732142D01*
X-1192786Y-737730D01*
X-1186944Y-740778D01*
X-1175514Y-740778D01*
X-1169672Y-737730D01*
X-1163830Y-732142D01*
X-1161036Y-726300D01*
X-1141986Y-691502D02*
G01*
X-1136144Y-688708D01*
X-1127508Y-680072D01*
X-1127508Y-740778D01*
X-1079502Y-680072D02*
G01*
X-1108458Y-720458D01*
X-1065024Y-720458D01*
X-1079502Y-680072D02*
G01*
X-1079502Y-740778D01*
X619960Y763079D02*
G01*
X617674Y767651D01*
X613102Y772223D01*
X608530Y774512D01*
X599640Y774512D01*
X595068Y772223D01*
X590496Y767651D01*
X588210Y763079D01*
X585924Y756221D01*
X585924Y744791D01*
X588208Y737933D01*
X590496Y733615D01*
X595066Y729046D01*
X599640Y726757D01*
X608528Y726760D01*
X613102Y729043D01*
X617674Y733615D01*
X619958Y737933D01*
X637232Y763079D02*
G01*
X637232Y765365D01*
X639518Y769940D01*
X641802Y772223D01*
X646376Y774512D01*
X655518Y774512D01*
X660092Y772226D01*
X662378Y769940D01*
X664662Y765368D01*
X664662Y760793D01*
X662378Y756221D01*
X657804Y749363D01*
X634944Y726760D01*
X666950Y726760D01*
X704540Y774512D02*
G01*
X681936Y742508D01*
X715972Y742508D01*
X704540Y774512D02*
G01*
X704542Y726760D01*
X-2047369Y800930D02*
G01*
X-2047369Y757496D01*
X-2044575Y748860D01*
X-2038733Y743018D01*
X-2030097Y740224D01*
X-2024255Y740224D01*
X-2015619Y743018D01*
X-2009777Y748860D01*
X-2006983Y757496D01*
X-2006983Y800930D01*
X-1953389Y792294D02*
G01*
X-1956183Y797882D01*
X-1964819Y800930D01*
X-1970661Y800930D01*
X-1979297Y797882D01*
X-1985139Y789246D01*
X-1987933Y774768D01*
X-1987933Y760544D01*
X-1985139Y748860D01*
X-1979297Y743018D01*
X-1970661Y740224D01*
X-1967867Y740224D01*
X-1958977Y743018D01*
X-1953389Y748860D01*
X-1950341Y757496D01*
X-1950341Y760544D01*
X-1953389Y769180D01*
X-1958977Y774768D01*
X-1967867Y777816D01*
X-1970661Y777816D01*
X-1979297Y774768D01*
X-1985139Y769180D01*
X-1987933Y760544D01*
D14*
X620268Y-373887D02*
G01*
X620268Y-69087D01*
X1026668Y-373887D02*
G01*
X1026668Y-69087D01*
X-1867616Y-811964D02*
G01*
X-1382580Y-1332102D01*
X-1642648Y-1574622D01*
X-2127686Y-1054483D01*
X-1867616Y-811964D01*
X-1668462Y-78026D02*
G01*
X-2379662Y-78026D01*
X-2379662Y277573D01*
X-1668462Y277573D01*
X-1668462Y-78026D01*
D10*
X-1763234Y1177165D02*
G01*
X-1684225Y1177165D01*
X-1684225Y1276885D02*
G01*
X-1763234Y1276885D01*
X-1778474Y1261645D02*
G01*
X-1778474Y1192405D01*
X-1559974Y1177165D02*
G01*
X-1638983Y1177165D01*
X-1638983Y1276885D02*
G01*
X-1559974Y1276885D01*
X-1544734Y1261645D02*
G01*
X-1544734Y1192405D01*
D14*
X-2103942Y-114861D02*
G01*
X-1907908Y-798515D01*
X-2249731Y-896533D01*
X-2445765Y-212877D01*
X-2103942Y-114861D01*
D10*
X339529Y447281D02*
G01*
X267726Y447281D01*
X267726Y547001D01*
X339529Y547001D01*
X384771Y447281D02*
G01*
X456575Y447281D01*
X456575Y547001D01*
X384771Y547001D01*
X339275Y568693D02*
G01*
X267472Y568693D01*
X267472Y668413D01*
X339275Y668413D01*
X384517Y568693D02*
G01*
X456321Y568693D01*
X456321Y668413D01*
X384517Y668413D01*
X390215Y859972D02*
G01*
X390215Y764733D01*
X294975Y764733D01*
X294975Y859972D01*
X390215Y859972D01*
D11*
X-1499308Y892716D02*
G01*
X-1499308Y1397718D01*
X40693Y1397718D01*
X40693Y892716D01*
X40693Y-652264D02*
G01*
X-1499308Y-652264D01*
D15*
X554822Y-52857D02*
G01*
X554822Y-80357D01*
X484822Y-80357D01*
X279824Y-80357D02*
G01*
X209821Y-80357D01*
X209821Y-52857D01*
X554822Y237142D02*
G01*
X554822Y264642D01*
X484822Y264642D01*
X279824Y264642D02*
G01*
X209821Y264642D01*
X209821Y237142D01*
D10*
X-913437Y-1725802D02*
G01*
X-975946Y-1725802D01*
X-975946Y-1725802D01*
X-975946Y-910564D01*
X-975946Y-910564D01*
X-913437Y-910564D01*
X-423217Y-1725802D02*
G01*
X-360707Y-1725802D01*
X-360707Y-1725802D01*
X-360707Y-910564D01*
X-360707Y-910564D01*
X-423217Y-910564D01*
X-291152Y-1737880D02*
G01*
X-362955Y-1737880D01*
X-362955Y-1638160D01*
X-291152Y-1638160D01*
X-245910Y-1737880D02*
G01*
X-174106Y-1737880D01*
X-174106Y-1638160D01*
X-245910Y-1638160D01*
X-324680Y-1607324D02*
G01*
X-396483Y-1607324D01*
X-396483Y-1507604D01*
X-324680Y-1507604D01*
X-279438Y-1607324D02*
G01*
X-207634Y-1607324D01*
X-207634Y-1507604D01*
X-279438Y-1507604D01*
X315643Y1042316D02*
G01*
X315643Y1114120D01*
X415363Y1114120D01*
X415363Y1042316D01*
X315643Y997074D02*
G01*
X315643Y925271D01*
X415363Y925271D01*
X415363Y997074D01*
X-1256276Y-1111189D02*
G01*
X-1256276Y-1065636D01*
X-1334396Y-1065636D01*
X-1334396Y-1111189D01*
X-1256276Y-1144427D02*
G01*
X-1256276Y-1189979D01*
X-1334396Y-1189979D01*
X-1334396Y-1144427D01*
X-1162296Y-1108903D02*
G01*
X-1162296Y-1063350D01*
X-1240416Y-1063350D01*
X-1240416Y-1108903D01*
X-1162296Y-1142141D02*
G01*
X-1162296Y-1187693D01*
X-1240416Y-1187693D01*
X-1240416Y-1142141D01*
X-793912Y-730496D02*
G01*
X-839464Y-730496D01*
X-839464Y-808616D01*
X-793912Y-808616D01*
X-760674Y-730496D02*
G01*
X-715121Y-730496D01*
X-715121Y-808616D01*
X-760674Y-808616D01*
X-1039449Y-1720334D02*
G01*
X-993896Y-1720334D01*
X-993896Y-1642214D01*
X-1039449Y-1642214D01*
X-1072687Y-1720334D02*
G01*
X-1118240Y-1720334D01*
X-1118240Y-1642214D01*
X-1072687Y-1642214D01*
X-1039195Y-1821426D02*
G01*
X-993642Y-1821426D01*
X-993642Y-1743306D01*
X-1039195Y-1743306D01*
X-1072433Y-1821426D02*
G01*
X-1117986Y-1821426D01*
X-1117986Y-1743306D01*
X-1072433Y-1743306D01*
X135742Y-435414D02*
G01*
X181295Y-435414D01*
X181295Y-357294D01*
X135742Y-357294D01*
X102504Y-435414D02*
G01*
X56951Y-435414D01*
X56951Y-357294D01*
X102504Y-357294D01*
X177909Y-292806D02*
G01*
X223461Y-292806D01*
X223461Y-214685D01*
X177909Y-214685D01*
X144670Y-292806D02*
G01*
X99118Y-292806D01*
X99118Y-214685D01*
X144670Y-214685D01*
X533316Y403339D02*
G01*
X612325Y403339D01*
X612325Y503059D02*
G01*
X533316Y503059D01*
X518076Y487819D02*
G01*
X518076Y418579D01*
X736577Y403339D02*
G01*
X657567Y403339D01*
X657567Y503059D02*
G01*
X736577Y503059D01*
X751817Y487819D02*
G01*
X751817Y418579D01*
X220149Y291071D02*
G01*
X148346Y291071D01*
X148346Y390791D01*
X220149Y390791D01*
X265391Y291071D02*
G01*
X337195Y291071D01*
X337195Y390791D01*
X265391Y390791D01*
X185750Y18526D02*
G01*
X185750Y-53276D01*
X86029Y-53276D01*
X86029Y18526D01*
X185750Y63769D02*
G01*
X185750Y135572D01*
X86029Y135572D01*
X86029Y63769D01*
X532604Y539051D02*
G01*
X611614Y539051D01*
X611614Y638771D02*
G01*
X532604Y638771D01*
X517364Y623531D02*
G01*
X517364Y554291D01*
X735865Y539051D02*
G01*
X656856Y539051D01*
X656856Y638771D02*
G01*
X735865Y638771D01*
X751105Y623531D02*
G01*
X751105Y554291D01*
X-1544688Y1038796D02*
G01*
X-1544688Y966993D01*
X-1644408Y966993D01*
X-1644408Y1038796D01*
X-1544688Y1084038D02*
G01*
X-1544688Y1155842D01*
X-1644408Y1155842D01*
X-1644408Y1084038D01*
X-1929264Y438988D02*
G01*
X-1929264Y402142D01*
X-1851144Y402142D02*
G01*
X-1851144Y438988D01*
X-1866384Y454228D02*
G01*
X-1914024Y454228D01*
X-1929264Y332059D02*
G01*
X-1929264Y368904D01*
X-1851144Y368904D02*
G01*
X-1851144Y332059D01*
X-1866384Y316819D02*
G01*
X-1914024Y316819D01*
D14*
X-1349085Y-1601647D02*
G01*
X-1309890Y-1601647D01*
X-1088664Y-1601647D02*
G01*
X-1049083Y-1601647D01*
X-1049083Y-1301645D02*
G01*
X-1088664Y-1301645D01*
X-1309890Y-1301645D02*
G01*
X-1349085Y-1301645D01*
X-1349085Y-1601647D02*
G01*
X-1349085Y-1562120D01*
X-1349085Y-1341046D02*
G01*
X-1349085Y-1301645D01*
X-1049083Y-1601647D02*
G01*
X-1049083Y-1562120D01*
X-1049083Y-1340893D02*
G01*
X-1049083Y-1301645D01*
D10*
X-1656854Y532874D02*
G01*
X-1656854Y453864D01*
X-1557134Y453864D02*
G01*
X-1557134Y532874D01*
X-1572374Y548114D02*
G01*
X-1641614Y548114D01*
X-1656854Y329613D02*
G01*
X-1656854Y408622D01*
X-1557134Y408622D02*
G01*
X-1557134Y329613D01*
X-1572374Y314373D02*
G01*
X-1641614Y314373D01*
X157401Y1148758D02*
G01*
X157401Y1069748D01*
X257121Y1069748D02*
G01*
X257121Y1148758D01*
X241881Y1163998D02*
G01*
X172641Y1163998D01*
X157401Y945497D02*
G01*
X157401Y1024506D01*
X257121Y1024506D02*
G01*
X257121Y945497D01*
X241881Y930257D02*
G01*
X172641Y930257D01*
X-1021102Y-765162D02*
G01*
X-1100112Y-765162D01*
X-1100112Y-864882D02*
G01*
X-1021102Y-864882D01*
X-1005862Y-849642D02*
G01*
X-1005862Y-780402D01*
X-1224363Y-765162D02*
G01*
X-1145354Y-765162D01*
X-1145354Y-864882D02*
G01*
X-1224363Y-864882D01*
X-1239603Y-849642D02*
G01*
X-1239603Y-780402D01*
X456308Y877917D02*
G01*
X456308Y798908D01*
X556028Y798908D02*
G01*
X556028Y877917D01*
X540786Y893157D02*
G01*
X471551Y893157D01*
X456308Y674657D02*
G01*
X456308Y753666D01*
X556028Y753666D02*
G01*
X556028Y674657D01*
X540786Y659417D02*
G01*
X471551Y659417D01*
D16*
X-1947214Y928811D02*
G01*
X-1637207Y928809D01*
X-1637207Y618804D02*
G01*
X-1637207Y928809D01*
X-1947212Y618931D02*
G01*
X-1637207Y618931D01*
X-1949627Y928811D02*
G01*
X-1949627Y844991D01*
X-1949627Y702751D02*
G01*
X-1949627Y618931D01*
D17*
G75*
G01*
X-1569824Y719087D02*
G03*
X-1569824Y718655I-10005J-216D01*
D10*
G75*
G01*
X-1763235Y1276886D02*
G03*
X-1778475Y1261646I0J-15240D01*
G75*
G01*
X-1778475Y1192406D02*
G03*
X-1763235Y1177166I15240J0D01*
G75*
G01*
X-1559974Y1276886D02*
G02*
X-1544734Y1261646I0J-15240D01*
G75*
G01*
X-1544734Y1192406D02*
G02*
X-1559974Y1177166I-15240J0D01*
D18*
G75*
G01*
X587301Y-65339D02*
G03*
X587301Y-65085I12499J127D01*
D10*
G75*
G01*
X533316Y503060D02*
G03*
X518076Y487820I0J-15240D01*
G75*
G01*
X518076Y418579D02*
G03*
X533316Y403339I15240J0D01*
G75*
G01*
X736577Y503060D02*
G02*
X751817Y487820I0J-15240D01*
G75*
G01*
X751817Y418579D02*
G02*
X736577Y403339I-15240J0D01*
G75*
G01*
X532605Y638772D02*
G03*
X517365Y623532I0J-15240D01*
G75*
G01*
X517365Y554292D02*
G03*
X532605Y539052I15240J0D01*
G75*
G01*
X735866Y638772D02*
G02*
X751106Y623532I0J-15240D01*
G75*
G01*
X751106Y554292D02*
G02*
X735866Y539052I-15240J0D01*
G75*
G01*
X-1851144Y438988D02*
G03*
X-1866384Y454228I-15240J0D01*
G75*
G01*
X-1914025Y454228D02*
G03*
X-1929265Y438988I0J-15240D01*
G75*
G01*
X-1851144Y332059D02*
G02*
X-1866384Y316819I-15240J0D01*
G75*
G01*
X-1914025Y316819D02*
G02*
X-1929265Y332059I0J15240D01*
G75*
G01*
X-1557134Y532874D02*
G03*
X-1572374Y548114I-15240J0D01*
G75*
G01*
X-1641615Y548114D02*
G03*
X-1656855Y532874I0J-15240D01*
G75*
G01*
X-1557134Y329613D02*
G02*
X-1572374Y314373I-15240J0D01*
G75*
G01*
X-1641615Y314373D02*
G02*
X-1656855Y329613I0J15240D01*
G75*
G01*
X257122Y1148758D02*
G03*
X241882Y1163998I-15240J0D01*
G75*
G01*
X172641Y1163998D02*
G03*
X157401Y1148758I0J-15240D01*
G75*
G01*
X257122Y945497D02*
G02*
X241882Y930257I-15240J0D01*
G75*
G01*
X172641Y930257D02*
G02*
X157401Y945497I0J15240D01*
G75*
G01*
X-1021103Y-864883D02*
G03*
X-1005863Y-849643I0J15240D01*
G75*
G01*
X-1005863Y-780402D02*
G03*
X-1021103Y-765162I-15240J0D01*
G75*
G01*
X-1224364Y-864883D02*
G02*
X-1239604Y-849643I0J15240D01*
G75*
G01*
X-1239604Y-780402D02*
G02*
X-1224364Y-765162I15240J0D01*
G75*
G01*
X556029Y877918D02*
G03*
X540786Y893158I-15240J0D01*
G75*
G01*
X471551Y893158D02*
G03*
X456308Y877918I-3J-15240D01*
G75*
G01*
X556029Y674657D02*
G02*
X540786Y659417I-15240J0D01*
G75*
G01*
X471551Y659417D02*
G02*
X456308Y674657I-3J15240D01*
D16*
G75*
G01*
X-1949628Y842452D02*
G02*
X-1949628Y702752I-21730J-69850D01*
D14*
G75*
G01
X1090165Y7099D02*
G03X1090165Y7099I-25400J0D01*
D12*
G75*
G01
X271396Y837756D02*
G03X271396Y837756I-5004J0D01*
D19*
G75*
G01
X-922531Y-1762722D02*
G03X-922531Y-1762722I-12497J0D01*
D14*
G75*
G01
X-1009145Y-1580528D02*
G03X-1009145Y-1580528I-5436J0D01*
M02*
