G04 Layer: TopSolderMaskLayer*
G04 Panelize: , Column: 1, Row: 1, Board Size: 35.35mm x 33.79mm, Panelized Board Size: 35.35mm x 33.79mm*
G04 EasyEDA v6.5.32, 2023-07-27 20:51:34*
G04 7f8d34143daf4d43a3b22917546c404d,9a4ed40c0dd746429eaf55b84663d2fb,10*
G04 Gerber Generator version 0.2*
G04 Scale: 100 percent, Rotated: No, Reflected: No *
G04 Dimensions in millimeters *
G04 leading zeros omitted , absolute positions ,4 integer and 5 decimal *
%FSLAX45Y45*%
%MOMM*%

%AMMACRO1*1,1,$1,$2,$3*1,1,$1,$4,$5*1,1,$1,0-$2,0-$3*1,1,$1,0-$4,0-$5*20,1,$1,$2,$3,$4,$5,0*20,1,$1,$4,$5,0-$2,0-$3,0*20,1,$1,0-$2,0-$3,0-$4,0-$5,0*20,1,$1,0-$4,0-$5,$2,$3,0*4,1,4,$2,$3,$4,$5,0-$2,0-$3,0-$4,0-$5,$2,$3,0*%
%AMMACRO2*1,1,$1,$2,$3*1,1,$1,$4,$5*20,1,$1,$2,$3,$4,$5,0*%
%AMMACRO3*4,1,4,-0.3023,-0.5016,-0.3023,0.5016,0.3023,0.5016,0.3023,-0.5016,-0.3023,-0.5016,0*%
%AMMACRO4*4,1,4,-0.301,-0.5016,-0.301,0.5016,0.301,0.5016,0.301,-0.5016,-0.301,-0.5016,0*%
%ADD10MACRO1,0.2032X-0.5999X0.5999X0.5999X0.5999*%
%ADD11C,0.9000*%
%ADD12MACRO2,1.3016X-0.3535X0.3535X0.3535X-0.3535*%
%ADD13MACRO1,0.1016X0.37X1.1X0.37X-1.1*%
%ADD14MACRO1,0.1016X-0.0065X1.8398X1.8349X-0.1348*%
%ADD15MACRO1,0.1016X1.35X-1.25X-1.35X-1.25*%
%ADD16MACRO1,0.1016X0.395X0.27X0.395X-0.27*%
%ADD17MACRO1,0.1016X-0.395X0.27X-0.395X-0.27*%
%ADD18MACRO1,0.1016X0.8294X1.6422X1.5737X-0.9531*%
%ADD19MACRO1,0.1016X0.8295X1.6422X1.5737X-0.9532*%
%ADD20MACRO1,0.1016X-0.2828X-0.27X-0.2828X0.27*%
%ADD21MACRO1,0.1016X0.2828X-0.27X0.2828X0.27*%
%ADD22C,0.3016*%
%ADD23MACRO1,0.2032X-0.4X0.4X0.4X0.4*%
%ADD24MACRO3*%
%ADD25MACRO4*%
%ADD26MACRO1,0.2032X-0.4001X0.4X0.4001X0.4*%
%ADD27MACRO1,0.2032X-0.4001X0.2X0.4001X0.2*%
%ADD28MACRO1,0.2032X-0.4X0.2X0.4X0.2*%
%ADD29O,0.9015984X0.38160960000000005*%
%ADD30O,0.38160960000000005X0.9015984*%
%ADD31MACRO1,0.1016X-0.3556X0.8703X0.3556X0.8703*%
%ADD32MACRO1,0.1016X-0.27X0.2828X0.27X0.2828*%
%ADD33MACRO1,0.1016X-0.27X-0.2828X0.27X-0.2828*%
%ADD34MACRO1,0.1016X0.162X-0.1516X-0.162X-0.1516*%
%ADD35MACRO1,0.1016X0.162X0.1516X-0.162X0.1516*%
%ADD36MACRO1,0.1016X0.1516X0.162X0.1516X-0.162*%
%ADD37MACRO1,0.1016X-0.1516X0.162X-0.1516X-0.162*%
%ADD38MACRO1,0.1016X-0.1516X-0.162X-0.1516X0.162*%
%ADD39MACRO1,0.1016X0.1516X-0.162X0.1516X0.162*%
%ADD40MACRO1,0.1016X0.27X-0.2828X-0.27X-0.2828*%
%ADD41MACRO1,0.1016X0.27X0.2828X-0.27X0.2828*%
%ADD42R,0.6416X0.6673*%
%ADD43MACRO1,0.1016X0.162X-0.1842X-0.162X-0.1842*%
%ADD44MACRO1,0.1016X0.162X0.1842X-0.162X0.1842*%
%ADD45MACRO1,0.1016X0.3X0.125X0.3X-0.125*%
%ADD46MACRO1,0.1016X-0.125X0.3X0.125X0.3*%
%ADD47MACRO1,0.1016X-0.3X-0.125X-0.3X0.125*%
%ADD48MACRO1,0.1016X0.125X-0.3X-0.125X-0.3*%
%ADD49MACRO1,0.1016X0.75X-0.75X-0.75X-0.75*%
%ADD50MACRO1,0.1016X0.27X-0.395X-0.27X-0.395*%
%ADD51MACRO1,0.1016X0.27X0.395X-0.27X0.395*%
%ADD52MACRO1,0.1016X-0.395X-0.27X-0.395X0.27*%
%ADD53MACRO1,0.1016X0.395X-0.27X0.395X0.27*%
%ADD54MACRO1,0.03X-0.15X0.65X0.15X0.65*%
%ADD55MACRO1,0.1016X-0.15X0.65X0.15X0.65*%
%ADD56C,0.0137*%

%LPD*%
D10*
G01*
X-734824Y124091D03*
G01*
X-734824Y289090D03*
G01*
X-569826Y289090D03*
G01*
X-569826Y124091D03*
G01*
X-569826Y-40906D03*
G01*
X-734824Y-40906D03*
G01*
X-899822Y-40906D03*
G01*
X-899822Y124091D03*
D11*
G01*
X790674Y562470D03*
G01*
X594611Y876236D03*
D12*
G01*
X435861Y-530593D03*
G01*
X718690Y-813447D03*
G01*
X-358904Y-1325359D03*
G01*
X-76075Y-1608213D03*
D11*
G01*
X506600Y986142D03*
G01*
X223161Y1223962D03*
D13*
G01*
X950468Y-41488D03*
G01*
X950468Y-401487D03*
G01*
X823468Y-41488D03*
G01*
X823468Y-401487D03*
G01*
X696468Y-41488D03*
G01*
X696468Y-401487D03*
D14*
G01*
X-1876393Y-1063260D03*
G01*
X-1649492Y-1306581D03*
D15*
G01*
X-1846263Y99775D03*
G01*
X-2178963Y99775D03*
D16*
G01*
X-1716110Y1227025D03*
D17*
G01*
X-1607098Y1227025D03*
D18*
G01*
X-2225846Y-334788D03*
D19*
G01*
X-2134142Y-654597D03*
D20*
G01*
X405433Y497141D03*
D21*
G01*
X318867Y497141D03*
D20*
G01*
X405179Y618553D03*
D21*
G01*
X318613Y618553D03*
D22*
G01*
X322602Y832345D03*
G01*
X362582Y832345D03*
G01*
X322602Y792365D03*
G01*
X362582Y792365D03*
D23*
G01*
X-1429306Y820224D03*
D24*
G01*
X-1324358Y820178D03*
G01*
X-1239268Y820178D03*
D25*
G01*
X-1154305Y820178D03*
D24*
G01*
X-1069342Y820178D03*
G01*
X-984252Y820178D03*
D25*
G01*
X-899289Y820178D03*
D24*
G01*
X-814326Y820178D03*
D25*
G01*
X-644273Y820178D03*
G01*
X-729363Y820178D03*
D24*
G01*
X-559310Y820178D03*
D25*
G01*
X-474347Y820178D03*
G01*
X-389257Y820178D03*
D24*
G01*
X-304294Y820178D03*
D25*
G01*
X-219331Y820178D03*
G01*
X-134241Y820178D03*
D26*
G01*
X-29309Y820224D03*
D27*
G01*
X-29309Y715220D03*
G01*
X-29309Y630232D03*
G01*
X-29309Y545218D03*
G01*
X-29309Y460230D03*
G01*
X-29309Y375216D03*
G01*
X-29309Y290228D03*
G01*
X-29309Y205214D03*
G01*
X-29309Y120225D03*
G01*
X-29309Y35237D03*
G01*
X-29309Y-49776D03*
G01*
X-29309Y-134764D03*
G01*
X-29309Y-219778D03*
G01*
X-29309Y-304766D03*
G01*
X-29309Y-389780D03*
G01*
X-29309Y-474769D03*
D26*
G01*
X-29309Y-579772D03*
D25*
G01*
X-134241Y-579869D03*
G01*
X-219331Y-579869D03*
D24*
G01*
X-304294Y-579869D03*
D25*
G01*
X-389257Y-579869D03*
G01*
X-474347Y-579869D03*
D24*
G01*
X-559310Y-579869D03*
D25*
G01*
X-644273Y-579869D03*
G01*
X-729363Y-579869D03*
D24*
G01*
X-814326Y-579869D03*
D25*
G01*
X-899289Y-579869D03*
D24*
G01*
X-984252Y-579869D03*
G01*
X-1069342Y-579869D03*
D25*
G01*
X-1154305Y-579869D03*
D24*
G01*
X-1239268Y-579869D03*
G01*
X-1324358Y-579869D03*
D23*
G01*
X-1429306Y-579772D03*
D28*
G01*
X-1429306Y-474769D03*
G01*
X-1429306Y-389780D03*
G01*
X-1429306Y-304766D03*
G01*
X-1429306Y-219778D03*
G01*
X-1429306Y-134764D03*
G01*
X-1429306Y-49776D03*
G01*
X-1429306Y35237D03*
G01*
X-1429306Y120225D03*
G01*
X-1429306Y205214D03*
G01*
X-1429306Y290228D03*
G01*
X-1429306Y375216D03*
G01*
X-1429306Y460230D03*
G01*
X-1429306Y545218D03*
G01*
X-1429306Y715220D03*
G01*
X-1429306Y630232D03*
D29*
G01*
X522348Y-7861D03*
G01*
X522348Y42151D03*
G01*
X522348Y92138D03*
G01*
X522348Y142151D03*
G01*
X522348Y192138D03*
D30*
G01*
X432330Y232143D03*
G01*
X382343Y232143D03*
G01*
X332331Y232143D03*
D29*
G01*
X242338Y192138D03*
G01*
X242338Y142151D03*
G01*
X242338Y92138D03*
G01*
X242338Y42151D03*
G01*
X242338Y-7861D03*
D30*
G01*
X332331Y-47840D03*
G01*
X382343Y-47840D03*
G01*
X432330Y-47840D03*
D31*
G01*
X-858827Y-1717725D03*
G01*
X-731827Y-1717725D03*
G01*
X-604827Y-1717725D03*
G01*
X-477827Y-1717725D03*
G01*
X-477827Y-918667D03*
G01*
X-604827Y-918667D03*
G01*
X-731827Y-918667D03*
G01*
X-858827Y-918667D03*
D20*
G01*
X-225248Y-1688020D03*
D21*
G01*
X-311814Y-1688020D03*
D20*
G01*
X-258776Y-1557464D03*
D21*
G01*
X-345342Y-1557464D03*
D32*
G01*
X365503Y976412D03*
D33*
G01*
X365503Y1062978D03*
D34*
G01*
X-1295336Y-1103652D03*
D35*
G01*
X-1295336Y-1151963D03*
D34*
G01*
X-1201356Y-1101366D03*
D35*
G01*
X-1201356Y-1149677D03*
D36*
G01*
X-801448Y-769556D03*
D37*
G01*
X-753137Y-769556D03*
D38*
G01*
X-1031913Y-1681274D03*
D39*
G01*
X-1080223Y-1681274D03*
D38*
G01*
X-1031659Y-1782366D03*
D39*
G01*
X-1079969Y-1782366D03*
D38*
G01*
X143278Y-396354D03*
D39*
G01*
X94968Y-396354D03*
D38*
G01*
X185445Y-253745D03*
D39*
G01*
X137134Y-253745D03*
D16*
G01*
X580440Y453199D03*
D17*
G01*
X689452Y453199D03*
D20*
G01*
X286053Y340931D03*
D21*
G01*
X199487Y340931D03*
D40*
G01*
X135890Y84430D03*
D41*
G01*
X135890Y-2134D03*
D16*
G01*
X579729Y588911D03*
D17*
G01*
X688741Y588911D03*
D42*
G01*
X-1594538Y1104709D03*
D41*
G01*
X-1594548Y1018134D03*
D43*
G01*
X-1890204Y412945D03*
D44*
G01*
X-1890204Y358101D03*
D45*
G01*
X-1049075Y-1526506D03*
G01*
X-1049073Y-1476507D03*
G01*
X-1049075Y-1426507D03*
G01*
X-1049075Y-1376507D03*
D46*
G01*
X-1124277Y-1301658D03*
G01*
X-1174277Y-1301658D03*
G01*
X-1224277Y-1301661D03*
G01*
X-1274277Y-1301658D03*
D47*
G01*
X-1349070Y-1376659D03*
G01*
X-1349070Y-1426659D03*
G01*
X-1349070Y-1476659D03*
G01*
X-1349072Y-1526506D03*
D48*
G01*
X-1274277Y-1601657D03*
G01*
X-1224277Y-1601660D03*
G01*
X-1174277Y-1601657D03*
G01*
X-1124277Y-1601657D03*
D49*
G01*
X-1199070Y-1451658D03*
D50*
G01*
X-1606994Y485749D03*
D51*
G01*
X-1606994Y376737D03*
D50*
G01*
X207261Y1101633D03*
D51*
G01*
X207261Y992621D03*
D52*
G01*
X-1068227Y-815022D03*
D53*
G01*
X-1177239Y-815022D03*
D50*
G01*
X506168Y830793D03*
D51*
G01*
X506168Y721781D03*
D54*
G01*
X-1889353Y540160D03*
G01*
X-1839366Y540161D03*
G01*
X-1789379Y540161D03*
G01*
X-1739366Y540161D03*
G01*
X-1689353Y540161D03*
D55*
G01*
X-1689379Y1010160D03*
G01*
X-1739366Y1010160D03*
G01*
X-1789353Y1010160D03*
G01*
X-1839366Y1010160D03*
G01*
X-1889378Y1010160D03*
M02*
