G04 Layer: BottomSolderMaskLayer*
G04 Panelize: , Column: 1, Row: 1, Board Size: 35.35mm x 33.79mm, Panelized Board Size: 35.35mm x 33.79mm*
G04 EasyEDA v6.5.32, 2023-07-27 20:51:34*
G04 7f8d34143daf4d43a3b22917546c404d,9a4ed40c0dd746429eaf55b84663d2fb,10*
G04 Gerber Generator version 0.2*
G04 Scale: 100 percent, Rotated: No, Reflected: No *
G04 Dimensions in millimeters *
G04 leading zeros omitted , absolute positions ,4 integer and 5 decimal *
%FSLAX45Y45*%
%MOMM*%

%AMMACRO1*1,1,$1,$2,$3*1,1,$1,$4,$5*1,1,$1,0-$2,0-$3*1,1,$1,0-$4,0-$5*20,1,$1,$2,$3,$4,$5,0*20,1,$1,$4,$5,0-$2,0-$3,0*20,1,$1,0-$2,0-$3,0-$4,0-$5,0*20,1,$1,0-$4,0-$5,$2,$3,0*4,1,4,$2,$3,$4,$5,0-$2,0-$3,0-$4,0-$5,$2,$3,0*%
%AMMACRO2*1,1,$1,$2,$3*1,1,$1,$4,$5*20,1,$1,$2,$3,$4,$5,0*%
%ADD10MACRO1,0.1016X0.6519X-0.0054X0.2809X0.5883*%
%ADD11MACRO1,0.1016X0.8374X-0.3022X0.0955X0.8851*%
%ADD12MACRO1,0.1016X0.8135X-0.1697X0.2041X0.8056*%
%ADD13C,0.9000*%
%ADD14MACRO1,0.1X0.15X0.625X-0.15X0.625*%
%ADD15MACRO1,0.1X1X1.25X-1X1.25*%
%ADD16MACRO1,0.1016X-1.1X-0.55X1.1X-0.55*%
%ADD17MACRO1,0.1016X0.5X-0.525X0.5X0.525*%
%ADD18MACRO1,0.1016X-0.2829X0.4948X-0.4948X0.2829*%
%ADD19MACRO1,0.1016X-0.282X0.4957X-0.4957X0.282*%
%ADD20MACRO2,1.3016X-0.3535X0.3535X0.3535X-0.3535*%
%ADD21MACRO1,0.1016X-0.65X0.15X-0.65X-0.15*%
%ADD22R,1.4016X0.4016*%
%ADD23R,3.1016X2.1016*%
%ADD24MACRO1,0.1016X-1.5X1X-1.5X-1*%
%ADD25MACRO1,0.1X-0.3X0.25X-0.3X-0.25*%
%ADD26MACRO1,0.1X-0.1832X0.0167X-0.0026X-0.184*%
%ADD27MACRO1,0.1016X0X-0.8485X0.8485X0*%
%ADD28MACRO1,0.1X0.125X-0.135X0.125X0.135*%
%ADD29MACRO1,0.1016X-0.2828X0.27X-0.2828X-0.27*%
%ADD30MACRO1,0.1016X0.2828X0.27X0.2828X-0.27*%
%ADD31MACRO1,0.1016X0.6216X0.1964X0.0854X0.6463*%
%ADD32MACRO1,0.1016X0.6217X0.1964X0.0854X0.6463*%
%ADD33MACRO1,0.1016X0.8898X-0.0286X-0.1827X0.8713*%
%ADD34MACRO1,0.1016X0.8261X0.09X-0.0548X0.8292*%
%ADD35O,0.8015985999999999X1.8745962*%
%ADD36MACRO1,0.1016X-0.4X-0.4X0.4X-0.4*%
%ADD37MACRO1,0.1016X0.27X0.395X-0.27X0.395*%
%ADD38MACRO1,0.1016X0.27X-0.395X-0.27X-0.395*%
%ADD39MACRO1,0.1016X0.1516X-0.162X0.1516X0.162*%
%ADD40MACRO1,0.1016X-0.1516X-0.162X-0.1516X0.162*%
%ADD41MACRO1,0.1016X-0.27X-0.2828X0.27X-0.2828*%
%ADD42MACRO1,0.1016X-0.27X0.2828X0.27X0.2828*%
%ADD43MACRO1,0.1016X0.2828X-0.27X0.2828X0.27*%
%ADD44MACRO1,0.1016X-0.2828X-0.27X-0.2828X0.27*%
%ADD45MACRO1,0.1016X-0.162X-0.1516X0.162X-0.1516*%
%ADD46MACRO1,0.1016X-0.162X0.1516X0.162X0.1516*%
%ADD47MACRO1,0.1016X0.27X0.2828X-0.27X0.2828*%
%ADD48MACRO1,0.1016X0.27X-0.2828X-0.27X-0.2828*%
%ADD49MACRO1,0.1016X-0.162X-0.1842X0.162X-0.1842*%
%ADD50MACRO1,0.1016X-0.162X0.1842X0.162X0.1842*%
%ADD51MACRO1,0.1016X-0.1842X0.162X-0.1842X-0.162*%
%ADD52MACRO1,0.1016X0.1842X0.162X0.1842X-0.162*%
%ADD53MACRO1,0.1016X-0.2217X0.0074X0.0074X-0.2217*%
%ADD54MACRO1,0.1016X-0.0074X0.2217X0.2217X-0.0074*%
%ADD55MACRO1,0.1016X-0.0074X-0.2217X0.2217X0.0074*%
%ADD56MACRO1,0.1016X-0.2217X-0.0074X0.0074X0.2217*%
%ADD57MACRO1,0.1016X0.35X-0.625X0.35X0.625*%
%ADD58MACRO1,0.1016X-0.395X0.27X-0.395X-0.27*%
%ADD59MACRO1,0.1016X0.395X0.27X0.395X-0.27*%
%ADD60MACRO1,0.1016X-0.27X-0.395X0.27X-0.395*%
%ADD61MACRO1,0.1016X-0.27X0.395X0.27X0.395*%
%ADD62MACRO1,0.1016X-0.275X0.5X-0.275X-0.5*%
%ADD63MACRO1,0.1016X-0.625X-0.35X0.625X-0.35*%
%ADD64MACRO1,0.1016X0.395X-0.27X0.395X0.27*%
%ADD65MACRO1,0.1016X-0.395X-0.27X-0.395X0.27*%
%ADD66MACRO1,0.1016X-0.7875X-0.336X-0.7875X0.336*%
%ADD67MACRO1,0.1016X0.625X0.35X-0.625X0.35*%
%ADD68C,0.0162*%

%LPD*%
D10*
G01*
X647710Y535039D03*
G01*
X507281Y759772D03*
D11*
G01*
X564774Y639457D03*
D12*
G01*
X815458Y577955D03*
G01*
X619389Y891731D03*
D13*
G01*
X790674Y562470D03*
G01*
X594611Y876236D03*
D14*
G01*
X-619912Y746848D03*
G01*
X-669912Y746848D03*
G01*
X-719912Y746848D03*
G01*
X-769912Y746848D03*
G01*
X-819911Y746848D03*
G01*
X-869911Y746848D03*
D15*
G01*
X-450910Y489343D03*
G01*
X-1038905Y489343D03*
D16*
G01*
X-1773928Y722245D03*
D17*
G01*
X-1631441Y872247D03*
D16*
G01*
X-1773930Y1022247D03*
D17*
G01*
X-1916435Y872247D03*
D18*
G01*
X137370Y-666362D03*
G01*
X116177Y-687556D03*
G01*
X80794Y-722938D03*
D19*
G01*
X45501Y-758230D03*
D18*
G01*
X10209Y-793523D03*
G01*
X-25172Y-828906D03*
G01*
X-60554Y-864288D03*
G01*
X-95937Y-899670D03*
G01*
X-131319Y-935052D03*
G01*
X-166701Y-970434D03*
D19*
G01*
X-201993Y-1005726D03*
D18*
G01*
X-223276Y-1027010D03*
G01*
X172753Y-630980D03*
G01*
X193945Y-609787D03*
G01*
X-258479Y-1062212D03*
D19*
G01*
X-279763Y-1083495D03*
D20*
G01*
X435861Y-530593D03*
G01*
X718690Y-813447D03*
G01*
X-358904Y-1325359D03*
G01*
X-76075Y-1608213D03*
D21*
G01*
X502666Y90449D03*
G01*
X502666Y40449D03*
G01*
X502666Y-9550D03*
D22*
G01*
X502663Y-59550D03*
D21*
G01*
X502666Y-109550D03*
G01*
X502666Y-159550D03*
G01*
X502666Y-209550D03*
G01*
X502666Y-259549D03*
G01*
X502666Y-309549D03*
D22*
G01*
X502663Y-359549D03*
D23*
G01*
X722017Y-524548D03*
D24*
G01*
X722012Y255450D03*
D25*
G01*
X53286Y-400617D03*
G01*
X53286Y-320615D03*
D26*
G01*
X-147895Y-618394D03*
G01*
X-116371Y-590010D03*
D27*
G01*
X-124148Y-336637D03*
G01*
X-350422Y-562910D03*
D28*
G01*
X-278056Y-727392D03*
G01*
X-320474Y-727392D03*
D29*
G01*
X-73884Y248978D03*
D30*
G01*
X-160450Y248978D03*
D31*
G01*
X379105Y915859D03*
D32*
G01*
X176103Y1086196D03*
D33*
G01*
X267962Y989537D03*
D34*
G01*
X525382Y1008510D03*
G01*
X241946Y1246341D03*
D13*
G01*
X506600Y986142D03*
G01*
X223161Y1223962D03*
D35*
G01*
X-1278562Y-739863D03*
G01*
X-1388569Y-739863D03*
G01*
X-1498577Y-739863D03*
G01*
X-1608559Y-739863D03*
G01*
X-1718566Y-739863D03*
G01*
X-1828573Y-739863D03*
G01*
X-1938555Y-739863D03*
G01*
X-2048563Y-739863D03*
G01*
X-2158570Y-739863D03*
G01*
X-2158570Y222440D03*
G01*
X-2048563Y222440D03*
G01*
X-1938555Y222440D03*
G01*
X-1828573Y222440D03*
G01*
X-1718566Y222440D03*
G01*
X-1608559Y222440D03*
G01*
X-1498577Y222440D03*
G01*
X-1388569Y222440D03*
G01*
X-1278562Y222440D03*
D36*
G01*
X-511380Y-1641594D03*
G01*
X-510679Y-1481693D03*
D37*
G01*
X-500941Y-692236D03*
D38*
G01*
X-500941Y-583224D03*
D39*
G01*
X-1128295Y-27800D03*
D40*
G01*
X-1079985Y-27800D03*
D41*
G01*
X37843Y314948D03*
D42*
G01*
X37843Y228382D03*
D43*
G01*
X314092Y487057D03*
D44*
G01*
X400658Y487057D03*
D45*
G01*
X-1257556Y473875D03*
D46*
G01*
X-1257556Y425564D03*
D47*
G01*
X-1206045Y619466D03*
D48*
G01*
X-1206045Y706032D03*
D39*
G01*
X-909652Y117919D03*
D40*
G01*
X-861341Y117919D03*
D41*
G01*
X90116Y795948D03*
D42*
G01*
X90116Y709382D03*
D43*
G01*
X-955579Y-322900D03*
D44*
G01*
X-869014Y-322900D03*
D43*
G01*
X-618900Y-1303464D03*
D44*
G01*
X-532334Y-1303464D03*
D43*
G01*
X202769Y765868D03*
D44*
G01*
X289335Y765868D03*
D41*
G01*
X-2155243Y-895437D03*
D42*
G01*
X-2155243Y-982003D03*
D49*
G01*
X-2037641Y-1064714D03*
D50*
G01*
X-2037641Y-1119558D03*
D51*
G01*
X-1988121Y639889D03*
D52*
G01*
X-2042965Y639889D03*
D45*
G01*
X-1388417Y-887387D03*
D46*
G01*
X-1388417Y-935697D03*
D53*
G01*
X-30217Y-607950D03*
D54*
G01*
X-64377Y-642110D03*
D55*
G01*
X-293740Y-816230D03*
D56*
G01*
X-259577Y-850390D03*
D43*
G01*
X-731297Y-324932D03*
D44*
G01*
X-644732Y-324932D03*
D57*
G01*
X199844Y331203D03*
G01*
X389835Y331203D03*
G01*
X294839Y131203D03*
D39*
G01*
X-781636Y-1295082D03*
D40*
G01*
X-733325Y-1295082D03*
D58*
G01*
X-803305Y-551878D03*
D59*
G01*
X-912317Y-551878D03*
D60*
G01*
X-1314249Y-1563410D03*
D61*
G01*
X-1314249Y-1672422D03*
D62*
G01*
X-901252Y-1690100D03*
G01*
X-806256Y-1690100D03*
G01*
X-711260Y-1690100D03*
G01*
X-711260Y-1410091D03*
G01*
X-806256Y-1410091D03*
G01*
X-901252Y-1410091D03*
D63*
G01*
X-45087Y688149D03*
G01*
X-45087Y498158D03*
G01*
X-245087Y593154D03*
D49*
G01*
X-2046277Y530913D03*
D50*
G01*
X-2046277Y476069D03*
D64*
G01*
X-2016455Y-944816D03*
D65*
G01*
X-1907443Y-944816D03*
D66*
G01*
X-907590Y-1020127D03*
G01*
X-907590Y-720128D03*
G36*
X-733808Y-970140D02*
G01*
X-742952Y-969124D01*
X-747778Y-968362D01*
X-756922Y-966330D01*
X-761240Y-964806D01*
X-765812Y-963282D01*
X-770130Y-961504D01*
X-774194Y-959472D01*
X-778258Y-957186D01*
X-786386Y-952106D01*
X-790196Y-949312D01*
X-793752Y-946518D01*
X-797308Y-943216D01*
X-803912Y-936612D01*
X-806706Y-933056D01*
X-809754Y-929246D01*
X-814834Y-921626D01*
X-817120Y-917308D01*
X-819406Y-912736D01*
X-820422Y-908164D01*
X-991364Y-908164D01*
X-991364Y-832218D01*
X-820422Y-832218D01*
X-819406Y-827392D01*
X-817120Y-822820D01*
X-814834Y-818756D01*
X-812294Y-814946D01*
X-809754Y-810882D01*
X-806706Y-807326D01*
X-803912Y-803770D01*
X-800610Y-800214D01*
X-797308Y-796912D01*
X-790196Y-790816D01*
X-786386Y-788276D01*
X-782322Y-785482D01*
X-774194Y-780910D01*
X-770130Y-778878D01*
X-765812Y-777100D01*
X-761240Y-775576D01*
X-756922Y-774052D01*
X-752350Y-772782D01*
X-747778Y-772020D01*
X-742952Y-771258D01*
X-738380Y-770496D01*
X-733808Y-770242D01*
X-538990Y-770242D01*
X-534164Y-770496D01*
X-520448Y-772782D01*
X-515876Y-774052D01*
X-511304Y-775576D01*
X-506986Y-777100D01*
X-502668Y-778878D01*
X-498350Y-780910D01*
X-490222Y-785482D01*
X-486412Y-788276D01*
X-482602Y-790816D01*
X-475490Y-796912D01*
X-472188Y-800214D01*
X-468886Y-803770D01*
X-465838Y-807326D01*
X-463044Y-810882D01*
X-460250Y-814946D01*
X-457710Y-818756D01*
X-455424Y-822820D01*
X-451360Y-831456D01*
X-448312Y-840092D01*
X-445772Y-849236D01*
X-444248Y-858380D01*
X-443994Y-863206D01*
X-443740Y-867778D01*
X-443740Y-872604D01*
X-444248Y-881748D01*
X-445010Y-886574D01*
X-445772Y-891146D01*
X-448312Y-900290D01*
X-451360Y-908926D01*
X-453392Y-913244D01*
X-455424Y-917308D01*
X-457710Y-921626D01*
X-460250Y-925436D01*
X-465838Y-933056D01*
X-468886Y-936612D01*
X-475490Y-943216D01*
X-479046Y-946518D01*
X-482602Y-949312D01*
X-486412Y-952106D01*
X-490222Y-954646D01*
X-494286Y-957186D01*
X-498350Y-959472D01*
X-502668Y-961504D01*
X-506986Y-963282D01*
X-511304Y-964806D01*
X-515876Y-966330D01*
X-525020Y-968362D01*
X-529592Y-969124D01*
X-534164Y-969632D01*
X-538990Y-970140D01*
G37*
D58*
G01*
X-1691289Y-1103566D03*
D59*
G01*
X-1800301Y-1103566D03*
D57*
G01*
X-1542341Y-1361452D03*
G01*
X-1352350Y-1361452D03*
G01*
X-1447346Y-1561452D03*
D67*
G01*
X-1187310Y-1316530D03*
G01*
X-1187310Y-1126539D03*
G01*
X-987310Y-1221535D03*
D47*
G01*
X-1497891Y-1147865D03*
D48*
G01*
X-1497891Y-1061299D03*
D43*
G01*
X-184306Y817943D03*
D44*
G01*
X-97740Y817943D03*
D43*
G01*
X-687172Y141986D03*
D44*
G01*
X-600607Y141986D03*
M02*
