M48
METRIC,LZ,000.000
;FILE_FORMAT=3:3
;TYPE=PLATED
;Layer: PTH_Through_Via
;EasyEDA v6.5.37, 2023-11-04 14:50:19
;5fb9839a784f4b4dba235304687c7bf2,9a4ed40c0dd746429eaf55b84663d2fb,10
;Gerber Generator version 0.2
;Holesize 1 = 0.305 mm
T01C0.305
;Holesize 2 = 0.310 mm
T02C0.310
%
G05
G90
T01
X-005201Y013200
X018918Y002037
X-005265Y017642
X-007581Y012651
X006937Y-008392
X-005237Y014295
X002780Y014401
X001878Y013919
X-002996Y015994
X-003050Y013441
X-009785Y015750
X-007332Y016959
X-006311Y019727
X-010018Y011521
X011107Y013810
X014865Y011701
X015883Y010889
X017973Y004033
X015364Y004054
X-009251Y007765
X-008842Y006617
X000457Y005288
X001133Y004701
X-009103Y004338
X-009075Y010117
X-007060Y-005666
X-004811Y-003917
X-002126Y-003632
X002101Y001923
X001880Y001153
X-001427Y-004201
X002860Y001293
X002131Y-002253
X008954Y001933
X008954Y004409
X006960Y000180
X-000409Y004138
X011168Y-001811
X011420Y000632
X011603Y004976
X011633Y004105
X011628Y003282
X-005453Y007483
X-004892Y006650
X-002187Y005923
X-003076Y005893
X008275Y006779
X008202Y-000285
X008156Y004519
X005743Y007315
X005961Y-001811
X007376Y004102
X005147Y008058
X008273Y007607
X-003188Y008329
X023335Y005416
X023317Y009473
X021412Y007465
X021161Y009812
X022158Y004381
X017137Y010660
X010897Y007493
X010902Y008326
X011080Y009197
X011039Y010076
X011455Y011707
X011166Y010891
X017242Y007183
X019606Y007089
X018334Y007770
X020130Y007716
X015702Y009451
X001410Y010770
X001341Y009314
X003002Y010805
X002967Y009314
X011483Y015733
X014839Y015860
X007747Y015098
X014854Y016683
X007066Y010328
X003929Y005265
X007493Y013096
X014216Y015174
X012477Y013918
X011576Y018921
X012835Y009947
X008784Y010646
X023181Y008179
X024289Y004544
X016625Y001851
X012463Y000614
X-009891Y003023
X-010137Y-001354
X-007691Y008425
X-004953Y002616
X-001519Y-003068
X-001772Y-007741
X-002065Y001834
X-002725Y-007094
X001290Y000528
X-001059Y001874
X005801Y005461
X008705Y008750
X011125Y006533
X013503Y009145
X015558Y005729
X012408Y006040
X010790Y-000706
X014526Y-002680
X010000Y001801
X023219Y007429
X023232Y006675
X013470Y013891
X011593Y002454
X013142Y-000325
X014028Y-000302
X014529Y-001816
X015431Y-001836
X016965Y-001781
X016944Y-000887
X015413Y-002804
X014255Y-005052
X011482Y-003941
X012907Y-005440
X012907Y-002440
T02
X-005443Y-001318
M30
