G04 Layer: TopSolderMaskLayer*
G04 Panelize: , Column: 1, Row: 1, Board Size: 43.14mm x 33.02mm, Panelized Board Size: 43.14mm x 33.02mm*
G04 EasyEDA v6.5.37, 2023-11-04 14:50:19*
G04 5fb9839a784f4b4dba235304687c7bf2,9a4ed40c0dd746429eaf55b84663d2fb,10*
G04 Gerber Generator version 0.2*
G04 Scale: 100 percent, Rotated: No, Reflected: No *
G04 Dimensions in millimeters *
G04 leading zeros omitted , absolute positions ,4 integer and 5 decimal *
%FSLAX45Y45*%
%MOMM*%

%AMMACRO1*1,1,$1,$2,$3*1,1,$1,$4,$5*1,1,$1,0-$2,0-$3*1,1,$1,0-$4,0-$5*20,1,$1,$2,$3,$4,$5,0*20,1,$1,$4,$5,0-$2,0-$3,0*20,1,$1,0-$2,0-$3,0-$4,0-$5,0*20,1,$1,0-$4,0-$5,$2,$3,0*4,1,4,$2,$3,$4,$5,0-$2,0-$3,0-$4,0-$5,$2,$3,0*%
%AMMACRO2*4,1,4,-0.301,-0.5016,-0.301,0.5016,0.301,0.5016,0.301,-0.5016,-0.301,-0.5016,0*%
%AMMACRO3*4,1,4,-0.3023,-0.5016,-0.3023,0.5016,0.3023,0.5016,0.3023,-0.5016,-0.3023,-0.5016,0*%
%ADD10MACRO1,0.2032X-0.5999X0.5999X0.5999X0.5999*%
%ADD11O,2.3015956X1.3015976000000002*%
%ADD12C,0.9000*%
%ADD13MACRO1,0.1016X-0.35X0.625X0.35X0.625*%
%ADD14MACRO1,0.1016X0.1516X0.162X0.1516X-0.162*%
%ADD15MACRO1,0.1016X-0.1516X0.162X-0.1516X-0.162*%
%ADD16MACRO1,0.1016X-0.27X0.395X0.27X0.395*%
%ADD17MACRO1,0.1016X-0.27X-0.395X0.27X-0.395*%
%ADD18MACRO1,0.1016X-0.5525X0.3111X-0.5525X-0.3111*%
%ADD19MACRO1,0.1016X-0.5525X0.3112X-0.5525X-0.3112*%
%ADD20MACRO1,0.1016X-0.5524X0.3111X-0.5524X-0.3111*%
%ADD21MACRO1,0.1016X-0.2828X-0.27X-0.2828X0.27*%
%ADD22MACRO1,0.1016X0.2828X-0.27X0.2828X0.27*%
%ADD23MACRO1,0.1016X0.27X-0.2828X-0.27X-0.2828*%
%ADD24MACRO1,0.1016X0.27X0.2828X-0.27X0.2828*%
%ADD25MACRO1,0.1016X-0.395X-0.27X-0.395X0.27*%
%ADD26MACRO1,0.1016X0.395X-0.27X0.395X0.27*%
%ADD27MACRO1,0.1016X0.2828X0.27X0.2828X-0.27*%
%ADD28MACRO1,0.1016X-0.2828X0.27X-0.2828X-0.27*%
%ADD29MACRO1,0.1016X-0.6X-0.6X-0.6X0.6*%
%ADD30MACRO1,0.1X0.3X0.25X0.3X-0.25*%
%ADD31MACRO1,0.03X-0.15X0.65X0.15X0.65*%
%ADD32MACRO1,0.1016X-0.15X0.65X0.15X0.65*%
%ADD33MACRO1,0.1016X0.395X0.27X0.395X-0.27*%
%ADD34MACRO1,0.1016X-0.395X0.27X-0.395X-0.27*%
%ADD35MACRO1,0.1016X0.27X-0.395X-0.27X-0.395*%
%ADD36MACRO1,0.1016X0.27X0.395X-0.27X0.395*%
%ADD37MACRO1,0.1016X0.125X-0.3X-0.125X-0.3*%
%ADD38MACRO1,0.1016X0.3X0.125X0.3X-0.125*%
%ADD39MACRO1,0.1016X-0.125X0.3X0.125X0.3*%
%ADD40MACRO1,0.1016X-0.3X-0.125X-0.3X0.125*%
%ADD41MACRO1,0.1016X-0.75X-0.75X-0.75X0.75*%
%ADD42MACRO1,0.1016X-0.27X0.2828X0.27X0.2828*%
%ADD43MACRO1,0.1016X-0.27X-0.2828X0.27X-0.2828*%
%ADD44MACRO1,0.1016X-0.162X0.1516X0.162X0.1516*%
%ADD45MACRO1,0.1016X-0.162X-0.1516X0.162X-0.1516*%
%ADD46MACRO1,0.1016X-0.1516X-0.162X-0.1516X0.162*%
%ADD47MACRO1,0.1016X0.1516X-0.162X0.1516X0.162*%
%ADD48MACRO1,0.1016X-0.3556X0.8703X0.3556X0.8703*%
%ADD49O,0.9015984X0.38160960000000005*%
%ADD50O,0.38160960000000005X0.9015984*%
%ADD51MACRO1,0.2032X-0.4001X0.4001X0.4001X0.4001*%
%ADD52MACRO2*%
%ADD53MACRO3*%
%ADD54MACRO1,0.2032X-0.4X0.4001X0.4X0.4001*%
%ADD55MACRO1,0.2032X-0.4X0.2X0.4X0.2*%
%ADD56MACRO1,0.2032X-0.4001X0.2X0.4001X0.2*%
%ADD57C,0.3016*%
%ADD58MACRO1,0.1016X0.37X1.1X0.37X-1.1*%
%ADD59MACRO1,0.1X0.25X0.25X0.25X-0.25*%
%ADD60MACRO1,0.1X0.6X1.158X0.6X-1.158*%
%ADD61C,0.0178*%

%LPD*%
D10*
G01*
X52250Y1011948D03*
G01*
X52250Y846950D03*
G01*
X217248Y846950D03*
G01*
X382247Y846950D03*
G01*
X382247Y1011948D03*
G01*
X382247Y1176947D03*
G01*
X217248Y1176947D03*
G01*
X217248Y1011948D03*
D11*
G01*
X-1160447Y181907D03*
G01*
X-1560446Y181907D03*
G01*
X-1160447Y1305882D03*
G01*
X-1560446Y1305882D03*
D12*
G01*
X1562254Y1730265D03*
G01*
X1300609Y1991885D03*
G01*
X1823900Y1249697D03*
G01*
X1661695Y1582234D03*
D13*
G01*
X-720519Y-460662D03*
G01*
X-815515Y-210726D03*
G01*
X-625523Y-210726D03*
D14*
G01*
X1230937Y239107D03*
D15*
G01*
X1279248Y239107D03*
D14*
G01*
X1230175Y318101D03*
D15*
G01*
X1278486Y318101D03*
D14*
G01*
X1229413Y411065D03*
D15*
G01*
X1277724Y411065D03*
D14*
G01*
X1232715Y497171D03*
D15*
G01*
X1281026Y497171D03*
D16*
G01*
X-992886Y1258166D03*
D17*
G01*
X-992886Y1367177D03*
D18*
G01*
X-195879Y-225783D03*
D19*
G01*
X-195879Y-35834D03*
D18*
G01*
X-455884Y-35831D03*
G01*
X-455884Y-130746D03*
D20*
G01*
X-455881Y-225778D03*
D21*
G01*
X-370737Y100076D03*
D22*
G01*
X-457302Y100076D03*
D23*
G01*
X-1117854Y30328D03*
D24*
G01*
X-1117854Y-56236D03*
D25*
G01*
X-86464Y99568D03*
D26*
G01*
X-195475Y99568D03*
D21*
G01*
X-288441Y-452373D03*
D22*
G01*
X-375006Y-452373D03*
D27*
G01*
X-376784Y-567689D03*
D28*
G01*
X-290219Y-567689D03*
D16*
G01*
X-618997Y-34947D03*
D17*
G01*
X-618997Y74063D03*
D29*
G01*
X-801629Y289285D03*
G01*
X-801629Y-30713D03*
D30*
G01*
X-997965Y-52193D03*
G01*
X-997965Y27809D03*
D31*
G01*
X-916769Y1377092D03*
G01*
X-866782Y1377094D03*
G01*
X-816795Y1377094D03*
G01*
X-766782Y1377094D03*
G01*
X-716770Y1377094D03*
D32*
G01*
X-716795Y1847093D03*
G01*
X-766782Y1847093D03*
G01*
X-816770Y1847093D03*
G01*
X-866782Y1847093D03*
G01*
X-916795Y1847093D03*
D33*
G01*
X1248305Y1893945D03*
D34*
G01*
X1357317Y1893945D03*
D35*
G01*
X-25064Y-35201D03*
D36*
G01*
X-25064Y-144213D03*
D35*
G01*
X-606978Y1429870D03*
D36*
G01*
X-606978Y1320858D03*
D37*
G01*
X1587647Y35145D03*
G01*
X1637647Y35143D03*
G01*
X1687647Y35145D03*
G01*
X1737647Y35145D03*
D38*
G01*
X1812495Y110347D03*
G01*
X1812495Y160347D03*
G01*
X1812493Y210347D03*
G01*
X1812495Y260347D03*
D39*
G01*
X1737494Y335140D03*
G01*
X1687494Y335140D03*
G01*
X1637494Y335140D03*
G01*
X1587647Y335142D03*
D40*
G01*
X1512496Y260347D03*
G01*
X1512493Y210347D03*
G01*
X1512496Y160347D03*
G01*
X1512496Y110347D03*
D41*
G01*
X1662496Y185140D03*
D23*
G01*
X-578022Y1691189D03*
D24*
G01*
X-578022Y1604623D03*
D25*
G01*
X1467589Y689564D03*
D26*
G01*
X1358577Y689564D03*
D42*
G01*
X1235268Y1232548D03*
D43*
G01*
X1235268Y1319114D03*
D42*
G01*
X1352362Y1233818D03*
D43*
G01*
X1352362Y1320384D03*
D25*
G01*
X1465557Y572470D03*
D26*
G01*
X1356545Y572470D03*
D44*
G01*
X757935Y-192557D03*
D45*
G01*
X757935Y-144246D03*
D14*
G01*
X607034Y106680D03*
D15*
G01*
X655345Y106680D03*
D46*
G01*
X506755Y105918D03*
D47*
G01*
X458444Y105918D03*
D48*
G01*
X215646Y-845553D03*
G01*
X342646Y-845553D03*
G01*
X469646Y-845553D03*
G01*
X596646Y-845553D03*
G01*
X596646Y-46494D03*
G01*
X469646Y-46494D03*
G01*
X342646Y-46494D03*
G01*
X215646Y-46494D03*
D49*
G01*
X1481889Y844618D03*
G01*
X1481889Y894631D03*
G01*
X1481889Y944618D03*
G01*
X1481889Y994630D03*
G01*
X1481889Y1044618D03*
D50*
G01*
X1391871Y1084623D03*
G01*
X1341884Y1084623D03*
G01*
X1291871Y1084623D03*
D49*
G01*
X1201879Y1044618D03*
G01*
X1201879Y994630D03*
G01*
X1201879Y944618D03*
G01*
X1201879Y894631D03*
G01*
X1201879Y844618D03*
D50*
G01*
X1291871Y804638D03*
G01*
X1341884Y804638D03*
G01*
X1391871Y804638D03*
D51*
G01*
X-402991Y1704319D03*
D52*
G01*
X-297990Y1704306D03*
D53*
G01*
X-213027Y1704306D03*
G01*
X-127937Y1704306D03*
D52*
G01*
X-42974Y1704306D03*
D53*
G01*
X41988Y1704306D03*
D52*
G01*
X126951Y1704306D03*
G01*
X212041Y1704306D03*
G01*
X381967Y1704306D03*
D53*
G01*
X297004Y1704306D03*
D52*
G01*
X467057Y1704306D03*
D53*
G01*
X552020Y1704306D03*
D52*
G01*
X636983Y1704306D03*
G01*
X722073Y1704306D03*
D53*
G01*
X807036Y1704306D03*
D52*
G01*
X891999Y1704306D03*
D54*
G01*
X997005Y1704319D03*
D55*
G01*
X997005Y1599316D03*
G01*
X997005Y1514327D03*
G01*
X997005Y1429313D03*
G01*
X997005Y1344325D03*
G01*
X997005Y1259311D03*
G01*
X997005Y1174323D03*
G01*
X997005Y1089309D03*
G01*
X997005Y1004321D03*
G01*
X997005Y919332D03*
G01*
X997005Y834318D03*
G01*
X997005Y749330D03*
G01*
X997005Y664316D03*
G01*
X997005Y579328D03*
G01*
X997005Y494314D03*
G01*
X997005Y409326D03*
D54*
G01*
X997005Y304322D03*
D52*
G01*
X891999Y304258D03*
D53*
G01*
X807036Y304258D03*
D52*
G01*
X722073Y304258D03*
G01*
X636983Y304258D03*
D53*
G01*
X552020Y304258D03*
D52*
G01*
X467057Y304258D03*
G01*
X381967Y304258D03*
D53*
G01*
X297004Y304258D03*
D52*
G01*
X212041Y304258D03*
G01*
X126951Y304258D03*
D53*
G01*
X41988Y304258D03*
D52*
G01*
X-42974Y304258D03*
D53*
G01*
X-127937Y304258D03*
G01*
X-213027Y304258D03*
D52*
G01*
X-297990Y304258D03*
D51*
G01*
X-402991Y304322D03*
D56*
G01*
X-402991Y409326D03*
G01*
X-402991Y494314D03*
G01*
X-402991Y579328D03*
G01*
X-402991Y664316D03*
G01*
X-402991Y749330D03*
G01*
X-402991Y834318D03*
G01*
X-402991Y919332D03*
G01*
X-402991Y1004321D03*
G01*
X-402991Y1089309D03*
G01*
X-402991Y1174323D03*
G01*
X-402991Y1259311D03*
G01*
X-402991Y1344325D03*
G01*
X-402991Y1429313D03*
G01*
X-402991Y1599316D03*
G01*
X-402991Y1514327D03*
D57*
G01*
X1318262Y1771515D03*
G01*
X1318262Y1731535D03*
G01*
X1278282Y1771515D03*
G01*
X1278282Y1731535D03*
D42*
G01*
X1236553Y1514961D03*
D43*
G01*
X1236553Y1601527D03*
D42*
G01*
X1356441Y1514707D03*
D43*
G01*
X1356441Y1601273D03*
D33*
G01*
X-740224Y2030176D03*
D34*
G01*
X-631212Y2030176D03*
D58*
G01*
X1960880Y920663D03*
G01*
X1960880Y560664D03*
G01*
X1833880Y920663D03*
G01*
X1833880Y560664D03*
G01*
X1706880Y920663D03*
G01*
X1706880Y560664D03*
D59*
G01*
X2217464Y518963D03*
G01*
X2217464Y593965D03*
G01*
X2217464Y668963D03*
G01*
X2217464Y743964D03*
G01*
X2217464Y818963D03*
G01*
X2217464Y893964D03*
G01*
X2217464Y968963D03*
G01*
X2322465Y478963D03*
D60*
G01*
X2322466Y743966D03*
D59*
G01*
X2322465Y1008962D03*
G01*
X2427464Y518963D03*
G01*
X2427464Y593965D03*
G01*
X2427464Y668963D03*
G01*
X2427464Y743964D03*
G01*
X2427464Y818963D03*
G01*
X2427464Y893964D03*
G01*
X2427464Y968963D03*
M02*
