G04 Layer: BottomPasteMaskLayer*
G04 Panelize: , Column: 1, Row: 1, Board Size: 43.14mm x 33.02mm, Panelized Board Size: 43.14mm x 33.02mm*
G04 EasyEDA v6.5.37, 2023-11-04 14:50:19*
G04 5fb9839a784f4b4dba235304687c7bf2,9a4ed40c0dd746429eaf55b84663d2fb,10*
G04 Gerber Generator version 0.2*
G04 Scale: 100 percent, Rotated: No, Reflected: No *
G04 Dimensions in millimeters *
G04 leading zeros omitted , absolute positions ,4 integer and 5 decimal *
%FSLAX45Y45*%
%MOMM*%

%AMMACRO1*21,1,$1,$2,0,0,$3*%
%ADD10MACRO1,0.7X1.25X-90.0000*%
%ADD11MACRO1,0.7X1.25X0.0000*%
%ADD12MACRO1,0.27X0.25X0.0000*%
%ADD13MACRO1,0.27X0.25X90.0000*%
%ADD14MACRO1,2.7X2.5X-45.0000*%
%ADD15MACRO1,2.7X2.5X-44.9996*%
%ADD16MACRO1,0.8X0.8X90.0000*%
%ADD17MACRO1,0.49X1.157X-90.0000*%
%ADD18MACRO1,0.49X1.175X-90.0000*%
%ADD19MACRO1,2.7X2.5X0.0000*%
%ADD20MACRO1,0.3X1.3X90.0000*%
%ADD21MACRO1,2X3X90.0000*%
%ADD22MACRO1,2.7X2.5X-135.0000*%
%ADD23MACRO1,2.7X2.5X-134.9996*%
%ADD24O,1.7729962X0.6999986*%
%ADD25MACRO1,2.2X1.1X0.0000*%
%ADD26MACRO1,1.05X1X-90.0000*%
%ADD27R,0.4250X0.2800*%
%ADD28MACRO1,0.425X0.28X0.0000*%
%ADD29MACRO1,0.7X1.1X134.9985*%
%ADD30MACRO1,0.7X1.1X135.0015*%
%ADD31MACRO1,1.4X1.1X135.0000*%
%ADD32MACRO1,1.15X1.2X135.0009*%
%ADD33MACRO1,0.7X1.1X116.0007*%
%ADD34MACRO1,1.4X1.1X115.9997*%
%ADD35MACRO1,1.15X1.2X115.9997*%
%ADD36C,0.0172*%

%LPD*%
G36*
X947826Y633272D02*
G01*
X945438Y630834D01*
X945438Y603250D01*
X947826Y600862D01*
X974242Y600862D01*
X976630Y603250D01*
X976630Y630834D01*
X974242Y633272D01*
G37*
G36*
X900430Y633272D02*
G01*
X898042Y630834D01*
X898042Y603250D01*
X900430Y600862D01*
X926846Y600862D01*
X929233Y603250D01*
X929233Y630834D01*
X926846Y633272D01*
G37*
G36*
X-237490Y1360474D02*
G01*
X-239877Y1358087D01*
X-239877Y1331671D01*
X-237490Y1329232D01*
X-209905Y1329232D01*
X-207517Y1331671D01*
X-207517Y1358087D01*
X-209905Y1360474D01*
G37*
G36*
X-237490Y1313027D02*
G01*
X-239877Y1310640D01*
X-239877Y1284224D01*
X-237490Y1281836D01*
X-209905Y1281836D01*
X-207517Y1284224D01*
X-207517Y1310640D01*
X-209905Y1313027D01*
G37*
G36*
X950112Y834694D02*
G01*
X947724Y832307D01*
X947724Y804672D01*
X950112Y802284D01*
X976528Y802284D01*
X978916Y804672D01*
X978916Y832307D01*
X976528Y834694D01*
G37*
G36*
X902716Y834694D02*
G01*
X900328Y832307D01*
X900328Y804672D01*
X902716Y802284D01*
X929132Y802284D01*
X931519Y804672D01*
X931519Y832307D01*
X929132Y834694D01*
G37*
G36*
X-1099870Y583946D02*
G01*
X-1099870Y553974D01*
X-989888Y553974D01*
X-989888Y583946D01*
G37*
G36*
X-1099870Y633984D02*
G01*
X-1099870Y603758D01*
X-989888Y603758D01*
X-989888Y633984D01*
G37*
G36*
X-1099870Y683768D02*
G01*
X-1099870Y653796D01*
X-989888Y653796D01*
X-989888Y683768D01*
G37*
G36*
X-1099870Y733806D02*
G01*
X-1099870Y703834D01*
X-989888Y703834D01*
X-989888Y733806D01*
G37*
G36*
X-1099870Y783844D02*
G01*
X-1099870Y753872D01*
X-989888Y753872D01*
X-989888Y783844D01*
G37*
G36*
X-1099870Y833882D02*
G01*
X-1099870Y803910D01*
X-989888Y803910D01*
X-989888Y833882D01*
G37*
G36*
X-1099870Y883919D02*
G01*
X-1099870Y853948D01*
X-989888Y853948D01*
X-989888Y883919D01*
G37*
G36*
X-1099870Y933958D02*
G01*
X-1099870Y903986D01*
X-989888Y903986D01*
X-989888Y933958D01*
G37*
G36*
X-1100023Y454253D02*
G01*
X-1100023Y394004D01*
X-989736Y394004D01*
X-989736Y454253D01*
G37*
G36*
X-1100023Y534263D02*
G01*
X-1100023Y474014D01*
X-989736Y474014D01*
X-989736Y534263D01*
G37*
G36*
X-1100023Y1014171D02*
G01*
X-1100023Y953973D01*
X-989736Y953973D01*
X-989736Y1014171D01*
G37*
G36*
X-1100023Y1094079D02*
G01*
X-1100023Y1033830D01*
X-989736Y1033830D01*
X-989736Y1094079D01*
G37*
G36*
X-1610461Y1365859D02*
G01*
X-1617522Y1365453D01*
X-1621078Y1364945D01*
X-1627987Y1363268D01*
X-1631340Y1362151D01*
X-1637842Y1359255D01*
X-1643989Y1355648D01*
X-1649628Y1351330D01*
X-1654708Y1346403D01*
X-1659178Y1340866D01*
X-1662988Y1334871D01*
X-1666036Y1328420D01*
X-1667306Y1325118D01*
X-1669135Y1318260D01*
X-1669796Y1314754D01*
X-1670405Y1307642D01*
X-1670202Y1300530D01*
X-1669135Y1293520D01*
X-1667306Y1286662D01*
X-1664614Y1280058D01*
X-1661160Y1273860D01*
X-1657045Y1268069D01*
X-1652219Y1262837D01*
X-1646834Y1258214D01*
X-1640941Y1254201D01*
X-1634642Y1250950D01*
X-1627987Y1248511D01*
X-1621078Y1246835D01*
X-1614017Y1245971D01*
X-1506880Y1245971D01*
X-1499819Y1246835D01*
X-1492910Y1248511D01*
X-1486255Y1250950D01*
X-1479956Y1254201D01*
X-1474063Y1258214D01*
X-1468678Y1262837D01*
X-1463852Y1268069D01*
X-1459687Y1273860D01*
X-1456283Y1280058D01*
X-1453591Y1286662D01*
X-1451711Y1293520D01*
X-1450695Y1300530D01*
X-1450492Y1307642D01*
X-1451102Y1314754D01*
X-1451711Y1318260D01*
X-1453591Y1325118D01*
X-1456283Y1331671D01*
X-1459687Y1337919D01*
X-1463852Y1343710D01*
X-1468678Y1348943D01*
X-1474063Y1353566D01*
X-1476908Y1355648D01*
X-1483055Y1359255D01*
X-1489557Y1362151D01*
X-1496364Y1364183D01*
X-1499819Y1364945D01*
X-1506880Y1365758D01*
G37*
G36*
X-1210462Y1365859D02*
G01*
X-1217523Y1365453D01*
X-1221079Y1364945D01*
X-1227988Y1363268D01*
X-1231341Y1362151D01*
X-1237843Y1359255D01*
X-1243990Y1355648D01*
X-1249629Y1351330D01*
X-1254709Y1346403D01*
X-1259179Y1340866D01*
X-1262989Y1334871D01*
X-1266037Y1328420D01*
X-1267307Y1325118D01*
X-1269136Y1318260D01*
X-1269796Y1314754D01*
X-1270406Y1307642D01*
X-1270203Y1300530D01*
X-1269136Y1293520D01*
X-1267307Y1286662D01*
X-1264615Y1280058D01*
X-1261160Y1273860D01*
X-1257046Y1268069D01*
X-1252220Y1262837D01*
X-1246835Y1258214D01*
X-1240942Y1254201D01*
X-1234643Y1250950D01*
X-1227988Y1248511D01*
X-1221079Y1246835D01*
X-1214018Y1245971D01*
X-1106881Y1245971D01*
X-1099820Y1246835D01*
X-1092911Y1248511D01*
X-1086256Y1250950D01*
X-1079957Y1254201D01*
X-1074064Y1258214D01*
X-1068679Y1262837D01*
X-1063853Y1268069D01*
X-1059688Y1273860D01*
X-1056284Y1280058D01*
X-1053592Y1286662D01*
X-1051712Y1293520D01*
X-1050696Y1300530D01*
X-1050493Y1307642D01*
X-1051102Y1314754D01*
X-1051712Y1318260D01*
X-1053592Y1325118D01*
X-1056284Y1331671D01*
X-1059688Y1337919D01*
X-1063853Y1343710D01*
X-1068679Y1348943D01*
X-1074064Y1353566D01*
X-1076909Y1355648D01*
X-1083056Y1359255D01*
X-1089558Y1362151D01*
X-1096365Y1364183D01*
X-1099820Y1364945D01*
X-1106881Y1365758D01*
G37*
G36*
X-1610461Y241909D02*
G01*
X-1617522Y241503D01*
X-1624533Y240233D01*
X-1631340Y238150D01*
X-1637842Y235305D01*
X-1643989Y231648D01*
X-1649628Y227380D01*
X-1654708Y222402D01*
X-1659178Y216865D01*
X-1662988Y210870D01*
X-1666036Y204470D01*
X-1667306Y201117D01*
X-1669135Y194259D01*
X-1670202Y187248D01*
X-1670405Y180136D01*
X-1669796Y173024D01*
X-1668322Y166116D01*
X-1667306Y162712D01*
X-1664614Y156108D01*
X-1661160Y149860D01*
X-1657045Y144119D01*
X-1652219Y138836D01*
X-1646834Y134213D01*
X-1643989Y132130D01*
X-1637842Y128524D01*
X-1631340Y125679D01*
X-1627987Y124510D01*
X-1621078Y122834D01*
X-1614017Y122021D01*
X-1510436Y121920D01*
X-1503375Y122326D01*
X-1499819Y122834D01*
X-1492910Y124510D01*
X-1486255Y127000D01*
X-1479956Y130251D01*
X-1476908Y132130D01*
X-1471269Y136448D01*
X-1466189Y141427D01*
X-1461719Y146913D01*
X-1459687Y149860D01*
X-1456283Y156108D01*
X-1453591Y162712D01*
X-1451711Y169570D01*
X-1450695Y176580D01*
X-1450492Y183692D01*
X-1451102Y190754D01*
X-1451711Y194259D01*
X-1453591Y201117D01*
X-1456283Y207721D01*
X-1459687Y213918D01*
X-1463852Y219710D01*
X-1468678Y224942D01*
X-1471269Y227380D01*
X-1476908Y231648D01*
X-1483055Y235305D01*
X-1489557Y238150D01*
X-1496364Y240233D01*
X-1503375Y241503D01*
X-1510436Y241909D01*
G37*
G36*
X-1210462Y241909D02*
G01*
X-1217523Y241503D01*
X-1224534Y240233D01*
X-1231341Y238150D01*
X-1237843Y235305D01*
X-1243990Y231648D01*
X-1249629Y227380D01*
X-1254709Y222402D01*
X-1259179Y216865D01*
X-1262989Y210870D01*
X-1266037Y204470D01*
X-1267307Y201117D01*
X-1269136Y194259D01*
X-1270203Y187248D01*
X-1270406Y180136D01*
X-1269796Y173024D01*
X-1268323Y166116D01*
X-1267307Y162712D01*
X-1264615Y156108D01*
X-1261160Y149860D01*
X-1257046Y144119D01*
X-1252220Y138836D01*
X-1246835Y134213D01*
X-1243990Y132130D01*
X-1237843Y128524D01*
X-1231341Y125679D01*
X-1227988Y124510D01*
X-1221079Y122834D01*
X-1214018Y122021D01*
X-1110437Y121920D01*
X-1103376Y122326D01*
X-1099820Y122834D01*
X-1092911Y124510D01*
X-1086256Y127000D01*
X-1079957Y130251D01*
X-1076909Y132130D01*
X-1071270Y136448D01*
X-1066190Y141427D01*
X-1061720Y146913D01*
X-1059688Y149860D01*
X-1056284Y156108D01*
X-1053592Y162712D01*
X-1051712Y169570D01*
X-1050696Y176580D01*
X-1050493Y183692D01*
X-1051102Y190754D01*
X-1051712Y194259D01*
X-1053592Y201117D01*
X-1056284Y207721D01*
X-1059688Y213918D01*
X-1063853Y219710D01*
X-1068679Y224942D01*
X-1071270Y227380D01*
X-1076909Y231648D01*
X-1083056Y235305D01*
X-1089558Y238150D01*
X-1096365Y240233D01*
X-1103376Y241503D01*
X-1110437Y241909D01*
G37*
G36*
X-919226Y597712D02*
G01*
X-921613Y595274D01*
X-921613Y567690D01*
X-919226Y565302D01*
X-892810Y565302D01*
X-890422Y567690D01*
X-890422Y595274D01*
X-892810Y597712D01*
G37*
G36*
X-871829Y597712D02*
G01*
X-874217Y595274D01*
X-874217Y567690D01*
X-871829Y565302D01*
X-845413Y565302D01*
X-843026Y567690D01*
X-843026Y595274D01*
X-845413Y597712D01*
G37*
G36*
X-875385Y932484D02*
G01*
X-877773Y930097D01*
X-877773Y902462D01*
X-875385Y900074D01*
X-848969Y900074D01*
X-846582Y902462D01*
X-846582Y930097D01*
X-848969Y932484D01*
G37*
G36*
X-922782Y932484D02*
G01*
X-925169Y930097D01*
X-925169Y902462D01*
X-922782Y900074D01*
X-896366Y900074D01*
X-893978Y902462D01*
X-893978Y930097D01*
X-896366Y932484D01*
G37*
G36*
X1410817Y-92252D02*
G01*
X1408379Y-94640D01*
X1408379Y-122275D01*
X1410817Y-124663D01*
X1443736Y-124663D01*
X1446123Y-122275D01*
X1446123Y-94640D01*
X1443736Y-92252D01*
G37*
G36*
X1356868Y-92252D02*
G01*
X1354480Y-94640D01*
X1354480Y-122275D01*
X1356868Y-124663D01*
X1389786Y-124663D01*
X1392224Y-122275D01*
X1392224Y-94640D01*
X1389786Y-92252D01*
G37*
G36*
X1216761Y162356D02*
G01*
X1209751Y157378D01*
X1209751Y112369D01*
X1216761Y107391D01*
X1264767Y107391D01*
X1269746Y112369D01*
X1269746Y157378D01*
X1264767Y162356D01*
G37*
G36*
X1118768Y162356D02*
G01*
X1113790Y157378D01*
X1113790Y112369D01*
X1118768Y107391D01*
X1166774Y107391D01*
X1173784Y112369D01*
X1173784Y157378D01*
X1166774Y162356D01*
G37*
G36*
X1185773Y753313D02*
G01*
X1181811Y749350D01*
X1181811Y699262D01*
X1185773Y695248D01*
X1231798Y695248D01*
X1235811Y699262D01*
X1235811Y749350D01*
X1231798Y753313D01*
G37*
G36*
X1185773Y838403D02*
G01*
X1181811Y834390D01*
X1181811Y784301D01*
X1185773Y780338D01*
X1231798Y780338D01*
X1235811Y784301D01*
X1235811Y834390D01*
X1231798Y838403D01*
G37*
G36*
X844905Y1521510D02*
G01*
X840892Y1517497D01*
X840892Y1471472D01*
X844905Y1467510D01*
X894943Y1467510D01*
X898956Y1471472D01*
X898956Y1517497D01*
X894943Y1521510D01*
G37*
G36*
X929944Y1521510D02*
G01*
X925931Y1517497D01*
X925931Y1471472D01*
X929944Y1467510D01*
X980033Y1467510D01*
X983996Y1471472D01*
X983996Y1517497D01*
X980033Y1521510D01*
G37*
G36*
X1780286Y646480D02*
G01*
X1776272Y642518D01*
X1776272Y596493D01*
X1780286Y592531D01*
X1830324Y592531D01*
X1834337Y596493D01*
X1834337Y642518D01*
X1830324Y646480D01*
G37*
G36*
X1865375Y646480D02*
G01*
X1861362Y642518D01*
X1861362Y596493D01*
X1865375Y592531D01*
X1915414Y592531D01*
X1919427Y596493D01*
X1919427Y642518D01*
X1915414Y646480D01*
G37*
G36*
X1917801Y1048461D02*
G01*
X1913788Y1044448D01*
X1913788Y994359D01*
X1917801Y990396D01*
X1963826Y990396D01*
X1967788Y994359D01*
X1967788Y1044448D01*
X1963826Y1048461D01*
G37*
G36*
X1917801Y963371D02*
G01*
X1913788Y959408D01*
X1913788Y909319D01*
X1917801Y905306D01*
X1963826Y905306D01*
X1967788Y909319D01*
X1967788Y959408D01*
X1963826Y963371D01*
G37*
G36*
X1644040Y119430D02*
G01*
X1639062Y114452D01*
X1639062Y69443D01*
X1644040Y64465D01*
X1692046Y64465D01*
X1699056Y69443D01*
X1699056Y114452D01*
X1692046Y119430D01*
G37*
G36*
X1742033Y119430D02*
G01*
X1735023Y114452D01*
X1735023Y69443D01*
X1742033Y64465D01*
X1790039Y64465D01*
X1795018Y69443D01*
X1795018Y114452D01*
X1790039Y119430D01*
G37*
G36*
X-171856Y-87579D02*
G01*
X-176834Y-94589D01*
X-176834Y-142595D01*
X-171856Y-147624D01*
X-126847Y-147624D01*
X-121869Y-142595D01*
X-121869Y-94589D01*
X-126847Y-87579D01*
G37*
G36*
X-171856Y8382D02*
G01*
X-176834Y3403D01*
X-176834Y-44602D01*
X-171856Y-51612D01*
X-126847Y-51612D01*
X-121869Y-44602D01*
X-121869Y3403D01*
X-126847Y8382D01*
G37*
G36*
X1603349Y-94284D02*
G01*
X1600911Y-96672D01*
X1600911Y-124307D01*
X1603349Y-126695D01*
X1636268Y-126695D01*
X1638655Y-124307D01*
X1638655Y-96672D01*
X1636268Y-94284D01*
G37*
G36*
X1549400Y-94284D02*
G01*
X1547012Y-96672D01*
X1547012Y-124307D01*
X1549400Y-126695D01*
X1582318Y-126695D01*
X1584756Y-124307D01*
X1584756Y-96672D01*
X1582318Y-94284D01*
G37*
G36*
X-525627Y-115519D02*
G01*
X-530606Y-120497D01*
X-530606Y-165506D01*
X-525627Y-170484D01*
X-477621Y-170484D01*
X-470611Y-165506D01*
X-470611Y-120497D01*
X-477621Y-115519D01*
G37*
G36*
X-427634Y-115519D02*
G01*
X-434644Y-120497D01*
X-434644Y-165506D01*
X-427634Y-170484D01*
X-379628Y-170484D01*
X-374650Y-165506D01*
X-374650Y-120497D01*
X-379628Y-115519D01*
G37*
G36*
X-174142Y-642416D02*
G01*
X-176580Y-644804D01*
X-176580Y-672439D01*
X-174142Y-674827D01*
X-147726Y-674827D01*
X-145338Y-672439D01*
X-145338Y-644804D01*
X-147726Y-642416D01*
G37*
G36*
X-221589Y-642416D02*
G01*
X-223977Y-644804D01*
X-223977Y-672439D01*
X-221589Y-674827D01*
X-195173Y-674827D01*
X-192735Y-672439D01*
X-192735Y-644804D01*
X-195173Y-642416D01*
G37*
G36*
X-269595Y304D02*
G01*
X-271983Y-2133D01*
X-271983Y-35052D01*
X-269595Y-37439D01*
X-241960Y-37439D01*
X-239572Y-35052D01*
X-239572Y-2133D01*
X-241960Y304D01*
G37*
G36*
X-269595Y54203D02*
G01*
X-271983Y51816D01*
X-271983Y18897D01*
X-269595Y16459D01*
X-241960Y16459D01*
X-239572Y18897D01*
X-239572Y51816D01*
X-241960Y54203D01*
G37*
G36*
X-28194Y298754D02*
G01*
X-32207Y294792D01*
X-32207Y248767D01*
X-28194Y244805D01*
X21844Y244805D01*
X25857Y248767D01*
X25857Y294792D01*
X21844Y298754D01*
G37*
G36*
X-113283Y298754D02*
G01*
X-117297Y294792D01*
X-117297Y248767D01*
X-113283Y244805D01*
X-63195Y244805D01*
X-59232Y248767D01*
X-59232Y294792D01*
X-63195Y298754D01*
G37*
G36*
X1298803Y752805D02*
G01*
X1294790Y748842D01*
X1294790Y698754D01*
X1298803Y694740D01*
X1344828Y694740D01*
X1348841Y698754D01*
X1348841Y748842D01*
X1344828Y752805D01*
G37*
G36*
X1298803Y837895D02*
G01*
X1294790Y833882D01*
X1294790Y783793D01*
X1298803Y779830D01*
X1344828Y779830D01*
X1348841Y783793D01*
X1348841Y833882D01*
X1344828Y837895D01*
G37*
G36*
X-142544Y1362862D02*
G01*
X-146558Y1358849D01*
X-146558Y1308811D01*
X-142544Y1304798D01*
X-96570Y1304798D01*
X-92557Y1308811D01*
X-92557Y1358849D01*
X-96570Y1362862D01*
G37*
G36*
X-142544Y1277772D02*
G01*
X-146558Y1273810D01*
X-146558Y1223721D01*
X-142544Y1219708D01*
X-96570Y1219708D01*
X-92557Y1223721D01*
X-92557Y1273810D01*
X-96570Y1277772D01*
G37*
G36*
X927150Y1400860D02*
G01*
X923137Y1396847D01*
X923137Y1350822D01*
X927150Y1346860D01*
X977239Y1346860D01*
X981202Y1350822D01*
X981202Y1396847D01*
X977239Y1400860D01*
G37*
G36*
X842111Y1400860D02*
G01*
X838098Y1396847D01*
X838098Y1350822D01*
X842111Y1346860D01*
X892149Y1346860D01*
X896162Y1350822D01*
X896162Y1396847D01*
X892149Y1400860D01*
G37*
G36*
X1343101Y1271270D02*
G01*
X1338072Y1264259D01*
X1338072Y1216253D01*
X1343101Y1211275D01*
X1388110Y1211275D01*
X1393088Y1216253D01*
X1393088Y1264259D01*
X1388110Y1271270D01*
G37*
G36*
X1343101Y1367282D02*
G01*
X1338072Y1362252D01*
X1338072Y1314246D01*
X1343101Y1307236D01*
X1388110Y1307236D01*
X1393088Y1314246D01*
X1393088Y1362252D01*
X1388110Y1367282D01*
G37*
G36*
X1223213Y1264310D02*
G01*
X1219200Y1260348D01*
X1219200Y1210259D01*
X1223213Y1206246D01*
X1269187Y1206246D01*
X1273200Y1210259D01*
X1273200Y1260348D01*
X1269187Y1264310D01*
G37*
G36*
X1223213Y1349400D02*
G01*
X1219200Y1345387D01*
X1219200Y1295349D01*
X1223213Y1291336D01*
X1269187Y1291336D01*
X1273200Y1295349D01*
X1273200Y1345387D01*
X1269187Y1349400D01*
G37*
G36*
X1802485Y1055878D02*
G01*
X1797507Y1050899D01*
X1797507Y1002893D01*
X1802485Y995883D01*
X1847494Y995883D01*
X1852472Y1002893D01*
X1852472Y1050899D01*
X1847494Y1055878D01*
G37*
G36*
X1802485Y959916D02*
G01*
X1797507Y952906D01*
X1797507Y904900D01*
X1802485Y899921D01*
X1847494Y899921D01*
X1852472Y904900D01*
X1852472Y952906D01*
X1847494Y959916D01*
G37*
G36*
X-635457Y291490D02*
G01*
X-639470Y287528D01*
X-639470Y241503D01*
X-635457Y237490D01*
X-585368Y237490D01*
X-581406Y241503D01*
X-581406Y287528D01*
X-585368Y291490D01*
G37*
G36*
X-720496Y291490D02*
G01*
X-724509Y287528D01*
X-724509Y241503D01*
X-720496Y237490D01*
X-670458Y237490D01*
X-666445Y241503D01*
X-666445Y287528D01*
X-670458Y291490D01*
G37*
G36*
X-325628Y-463753D02*
G01*
X-329641Y-467715D01*
X-329641Y-513740D01*
X-325628Y-517702D01*
X-275590Y-517702D01*
X-271576Y-513740D01*
X-271576Y-467715D01*
X-275590Y-463753D01*
G37*
G36*
X-410718Y-463753D02*
G01*
X-414731Y-467715D01*
X-414731Y-513740D01*
X-410718Y-517702D01*
X-360629Y-517702D01*
X-356666Y-513740D01*
X-356666Y-467715D01*
X-360629Y-463753D01*
G37*
D10*
G01*
X1705688Y819497D03*
G01*
X1455752Y914493D03*
G01*
X1455752Y724501D03*
D11*
G01*
X961214Y951323D03*
G01*
X1056210Y1201259D03*
G01*
X866218Y1201259D03*
D12*
G01*
X-812467Y728692D03*
G01*
X-812467Y771110D03*
D13*
G01*
X-800402Y506569D03*
G01*
X-842820Y506569D03*
D14*
G01*
X-971875Y-60822D03*
D15*
G01*
X-736620Y-296076D03*
D16*
G01*
X-366565Y-646828D03*
G01*
X-526465Y-646127D03*
D17*
G01*
X-434797Y174243D03*
G01*
X-434797Y79248D03*
G01*
X-434797Y-15748D03*
D18*
G01*
X-665530Y-15748D03*
G01*
X-665530Y174243D03*
D19*
G01*
X1744978Y376426D03*
G01*
X1412279Y376426D03*
D20*
G01*
X706615Y518853D03*
G01*
X706615Y568853D03*
G01*
X706615Y618853D03*
G01*
X706615Y668853D03*
G01*
X706615Y718853D03*
G01*
X706615Y768852D03*
G01*
X706615Y818852D03*
G01*
X706615Y868852D03*
G01*
X706615Y918852D03*
G01*
X706615Y968852D03*
D21*
G01*
X487265Y1133853D03*
G01*
X487268Y353852D03*
D22*
G01*
X-742574Y1809485D03*
D23*
G01*
X-977827Y1574231D03*
D24*
G01*
X2Y-770008D03*
G01*
X2Y-660001D03*
G01*
X2Y-549993D03*
G01*
X2Y-440011D03*
G01*
X2Y-330004D03*
G01*
X2Y-219997D03*
G01*
X2Y-110015D03*
G01*
X2Y-7D03*
G01*
X2Y109999D03*
G01*
X962306Y109999D03*
G01*
X962306Y-7D03*
G01*
X962306Y-110015D03*
G01*
X962306Y-219997D03*
G01*
X962306Y-330004D03*
G01*
X962306Y-440011D03*
G01*
X962306Y-549993D03*
G01*
X962306Y-660001D03*
G01*
X962306Y-770008D03*
D25*
G01*
X1290645Y-243998D03*
D26*
G01*
X1148158Y-394000D03*
D25*
G01*
X1290647Y-544000D03*
D26*
G01*
X1433151Y-394000D03*
D27*
G01*
X1237084Y-5824D03*
G01*
X1237084Y-55811D03*
G01*
X1237084Y-105824D03*
D28*
G01*
X1149579Y-105816D03*
G01*
X1149579Y-55816D03*
G01*
X1149579Y-5816D03*
D29*
G01*
X1429109Y1671365D03*
D30*
G01*
X1241725Y1858749D03*
D31*
G01*
X1324811Y1754450D03*
D32*
G01*
X1582905Y1750917D03*
G01*
X1321276Y2012544D03*
D33*
G01*
X1678846Y1237367D03*
G01*
X1562677Y1475549D03*
D34*
G01*
X1607278Y1349882D03*
D35*
G01*
X1850161Y1262514D03*
G01*
X1687964Y1595066D03*
M02*
