G04 Layer: TopSilkscreenLayer*
G04 Panelize: , Column: 1, Row: 1, Board Size: 43.14mm x 33.02mm, Panelized Board Size: 43.14mm x 33.02mm*
G04 EasyEDA v6.5.37, 2023-11-04 14:50:19*
G04 5fb9839a784f4b4dba235304687c7bf2,9a4ed40c0dd746429eaf55b84663d2fb,10*
G04 Gerber Generator version 0.2*
G04 Scale: 100 percent, Rotated: No, Reflected: No *
G04 Dimensions in millimeters *
G04 leading zeros omitted , absolute positions ,4 integer and 5 decimal *
%FSLAX45Y45*%
%MOMM*%

%ADD10C,0.1270*%
%ADD11C,0.1524*%
%ADD12C,0.1250*%
%ADD13C,0.2540*%
%ADD14C,0.1520*%
%ADD15C,0.1500*%
%ADD16C,0.2000*%
%ADD17C,0.1000*%
%ADD18C,0.1999*%
%ADD19C,0.2489*%
%ADD20C,0.2500*%
%ADD21C,0.2500*%
%ADD22C,0.0152*%

%LPD*%
G36*
X1148689Y-39878D02*
G01*
X1146454Y-40894D01*
X1146048Y-41910D01*
X1134414Y-41910D01*
X1133094Y-42621D01*
X1133094Y-43992D01*
X1123645Y-43992D01*
X1122781Y-44805D01*
X1122781Y-45974D01*
X1114145Y-46228D01*
X1112570Y-48107D01*
X1106982Y-48107D01*
X1106170Y-50139D01*
X1100480Y-50139D01*
X1100023Y-51358D01*
X1099210Y-52222D01*
X1094486Y-52222D01*
X1092809Y-54254D01*
X1088898Y-54254D01*
X1087831Y-55372D01*
X1087831Y-56337D01*
X1083868Y-56388D01*
X1082141Y-56896D01*
X1081938Y-58369D01*
X1078636Y-58369D01*
X1077518Y-59486D01*
X1077518Y-60401D01*
X1073607Y-60604D01*
X1073353Y-62484D01*
X1069695Y-62484D01*
X1067511Y-64566D01*
X1064971Y-64566D01*
X1063802Y-65836D01*
X1063802Y-66598D01*
X1061720Y-66598D01*
X1059789Y-67614D01*
X1059383Y-68681D01*
X1056944Y-68681D01*
X1056944Y-70713D01*
X1053642Y-70713D01*
X1052830Y-71577D01*
X1052830Y-72796D01*
X1050594Y-72796D01*
X1049121Y-73202D01*
X1048715Y-74879D01*
X1047343Y-74879D01*
X1045108Y-76403D01*
X1044905Y-76911D01*
X1042873Y-76911D01*
X1042466Y-78841D01*
X1038961Y-79502D01*
X1038758Y-81026D01*
X1036370Y-81026D01*
X1036370Y-83058D01*
X1033729Y-83058D01*
X1032611Y-84328D01*
X1032611Y-85140D01*
X1031036Y-85140D01*
X1030224Y-85953D01*
X1030224Y-87172D01*
X1028344Y-87376D01*
X1028141Y-89154D01*
X1024534Y-89763D01*
X1024331Y-91338D01*
X1022807Y-91338D01*
X1021994Y-92151D01*
X1021994Y-93319D01*
X1020114Y-93522D01*
X1019860Y-95453D01*
X1018336Y-95453D01*
X1016508Y-97536D01*
X1014069Y-97942D01*
X1014069Y-99517D01*
X1011885Y-99720D01*
X1011631Y-101600D01*
X1010462Y-101600D01*
X1009650Y-102412D01*
X1009650Y-103682D01*
X1008380Y-103682D01*
X1007567Y-104495D01*
X1007567Y-105664D01*
X1005687Y-105867D01*
X1005484Y-107746D01*
X1003655Y-107950D01*
X1003401Y-109778D01*
X1001572Y-109982D01*
X1001369Y-111861D01*
X999540Y-112064D01*
X999286Y-113944D01*
X997305Y-113944D01*
X997305Y-115976D01*
X995426Y-116179D01*
X995171Y-118008D01*
X993343Y-118211D01*
X993140Y-120142D01*
X991108Y-120142D01*
X991108Y-122123D01*
X989482Y-122529D01*
X988771Y-124561D01*
X987450Y-124561D01*
X987044Y-126593D01*
X985469Y-126796D01*
X984808Y-130352D01*
X983081Y-130606D01*
X982827Y-132435D01*
X980998Y-132638D01*
X980795Y-134467D01*
X979068Y-134874D01*
X978712Y-136855D01*
X977392Y-137210D01*
X976731Y-139039D01*
X976731Y-140665D01*
X974801Y-140868D01*
X974598Y-142748D01*
X972616Y-142748D01*
X972616Y-145491D01*
X971702Y-145491D01*
X970534Y-146761D01*
X970534Y-148945D01*
X969314Y-148945D01*
X968502Y-149758D01*
X968502Y-151180D01*
X966927Y-151841D01*
X966317Y-155092D01*
X965453Y-155092D01*
X964387Y-156159D01*
X964387Y-159156D01*
X962507Y-159410D01*
X962152Y-161442D01*
X960780Y-161696D01*
X960272Y-162458D01*
X960272Y-165404D01*
X958189Y-165404D01*
X958189Y-169468D01*
X956310Y-169672D01*
X956106Y-173583D01*
X954278Y-173786D01*
X954024Y-177698D01*
X952195Y-177901D01*
X951992Y-181864D01*
X949960Y-181864D01*
X949960Y-185928D01*
X1071372Y-185928D01*
X1071372Y-171551D01*
X1072591Y-171551D01*
X1073404Y-170738D01*
X1073404Y-165100D01*
X1074928Y-164896D01*
X1075385Y-163169D01*
X1075486Y-160477D01*
X1076604Y-159207D01*
X1077518Y-159207D01*
X1077518Y-156921D01*
X1078890Y-156565D01*
X1079601Y-154736D01*
X1079601Y-153060D01*
X1081633Y-153060D01*
X1081633Y-151028D01*
X1083513Y-150825D01*
X1083767Y-148945D01*
X1085596Y-148742D01*
X1085799Y-146862D01*
X1087831Y-146862D01*
X1087831Y-144830D01*
X1089710Y-144780D01*
X1091387Y-142748D01*
X1093978Y-142748D01*
X1093978Y-140716D01*
X1097940Y-140512D01*
X1098143Y-138633D01*
X1104290Y-138633D01*
X1104290Y-137820D01*
X1105408Y-136601D01*
X1122730Y-136601D01*
X1123137Y-138633D01*
X1128826Y-138633D01*
X1129588Y-140716D01*
X1132992Y-140716D01*
X1133398Y-142748D01*
X1137158Y-142748D01*
X1137361Y-144627D01*
X1139190Y-144830D01*
X1139596Y-146862D01*
X1141171Y-146862D01*
X1141933Y-148945D01*
X1143304Y-148945D01*
X1144016Y-150977D01*
X1145336Y-150977D01*
X1145743Y-153060D01*
X1147470Y-153060D01*
X1147673Y-154940D01*
X1149553Y-155143D01*
X1149553Y-158140D01*
X1149959Y-159207D01*
X1151585Y-159207D01*
X1151585Y-162001D01*
X1152296Y-163322D01*
X1153668Y-163322D01*
X1153668Y-168198D01*
X1154379Y-169519D01*
X1155700Y-169519D01*
X1155700Y-188010D01*
X1154480Y-188010D01*
X1153668Y-188823D01*
X1153668Y-194106D01*
X1151585Y-194513D01*
X1151585Y-198323D01*
X1150366Y-198323D01*
X1149553Y-199136D01*
X1149553Y-201472D01*
X1148689Y-202285D01*
X1147470Y-202742D01*
X1147470Y-204419D01*
X1145590Y-204673D01*
X1145387Y-206552D01*
X1144219Y-206552D01*
X1143355Y-207365D01*
X1143355Y-208584D01*
X1142136Y-208584D01*
X1141323Y-209448D01*
X1141323Y-210616D01*
X1139444Y-210820D01*
X1139190Y-212699D01*
X1137107Y-212699D01*
X1135837Y-213867D01*
X1135837Y-214731D01*
X1133246Y-214934D01*
X1133043Y-216814D01*
X1129284Y-216814D01*
X1128928Y-217830D01*
X1126794Y-218897D01*
X1122984Y-218948D01*
X1121257Y-219456D01*
X1121054Y-220929D01*
X1106322Y-220929D01*
X1106322Y-219608D01*
X1105001Y-218897D01*
X1099921Y-218897D01*
X1099566Y-217525D01*
X1097737Y-216814D01*
X1095806Y-216814D01*
X1095451Y-215442D01*
X1093622Y-214782D01*
X1091996Y-214782D01*
X1091590Y-213156D01*
X1089558Y-212750D01*
X1087577Y-210667D01*
X1085799Y-210667D01*
X1085596Y-208788D01*
X1083767Y-208534D01*
X1083513Y-206705D01*
X1081633Y-206502D01*
X1081633Y-204724D01*
X1079601Y-202742D01*
X1079601Y-201574D01*
X1079093Y-200812D01*
X1077722Y-200558D01*
X1077366Y-197459D01*
X1076807Y-196596D01*
X1075486Y-196596D01*
X1075486Y-193802D01*
X1074775Y-192481D01*
X1073404Y-192481D01*
X1073404Y-186385D01*
X1071372Y-185928D01*
X948740Y-185978D01*
X947928Y-186791D01*
X947928Y-190093D01*
X946251Y-190500D01*
X945845Y-191973D01*
X945845Y-194564D01*
X945337Y-194564D01*
X943965Y-196748D01*
X943610Y-200558D01*
X942136Y-200761D01*
X941730Y-202844D01*
X941730Y-206552D01*
X940765Y-206552D01*
X939698Y-207619D01*
X939698Y-212699D01*
X937615Y-212699D01*
X937615Y-219202D01*
X936091Y-219405D01*
X935634Y-221132D01*
X935583Y-227126D01*
X934567Y-227126D01*
X933500Y-228193D01*
X933500Y-235508D01*
X931976Y-236220D01*
X931519Y-237896D01*
X931468Y-246329D01*
X930757Y-246329D01*
X929386Y-248564D01*
X929386Y-262077D01*
X927760Y-262483D01*
X927353Y-264007D01*
X927353Y-303580D01*
X956157Y-303580D01*
X956157Y-276656D01*
X957681Y-275996D01*
X958138Y-274269D01*
X958189Y-257708D01*
X959459Y-257302D01*
X960272Y-255574D01*
X960272Y-245617D01*
X962304Y-245617D01*
X962304Y-237337D01*
X963726Y-236982D01*
X964387Y-235305D01*
X964387Y-229158D01*
X965606Y-229158D01*
X966419Y-228346D01*
X966419Y-223012D01*
X967232Y-223012D01*
X968502Y-221894D01*
X968502Y-216814D01*
X969467Y-216814D01*
X970534Y-215747D01*
X970534Y-210718D01*
X972413Y-210464D01*
X972616Y-206806D01*
X974648Y-204876D01*
X974648Y-200355D01*
X976731Y-200355D01*
X976731Y-196291D01*
X978611Y-196088D01*
X978814Y-194208D01*
X1042873Y-194208D01*
X1043076Y-195732D01*
X1044600Y-196392D01*
X1044600Y-201320D01*
X1045006Y-202438D01*
X1046683Y-202438D01*
X1046683Y-206095D01*
X1047089Y-208279D01*
X1048715Y-208686D01*
X1048715Y-211175D01*
X1049172Y-212699D01*
X1050696Y-212699D01*
X1051153Y-216154D01*
X1052830Y-216916D01*
X1052830Y-218897D01*
X1054811Y-218897D01*
X1055268Y-222351D01*
X1056894Y-223062D01*
X1057300Y-225044D01*
X1058976Y-225044D01*
X1059180Y-226923D01*
X1061008Y-227177D01*
X1061262Y-229006D01*
X1063142Y-229209D01*
X1063142Y-231241D01*
X1065123Y-231241D01*
X1065377Y-233121D01*
X1067155Y-233324D01*
X1067562Y-235356D01*
X1069644Y-235356D01*
X1069644Y-236575D01*
X1070457Y-237388D01*
X1073353Y-237388D01*
X1073607Y-239267D01*
X1075842Y-239521D01*
X1075842Y-240690D01*
X1076655Y-241503D01*
X1079601Y-241503D01*
X1079601Y-243586D01*
X1083665Y-243586D01*
X1084376Y-245617D01*
X1089812Y-245617D01*
X1090218Y-247700D01*
X1096416Y-247700D01*
X1096416Y-249021D01*
X1097737Y-249732D01*
X1130198Y-249732D01*
X1131011Y-248920D01*
X1131011Y-247700D01*
X1137208Y-247700D01*
X1137208Y-246989D01*
X1138275Y-246989D01*
X1138631Y-245668D01*
X1143203Y-245465D01*
X1143406Y-243636D01*
X1147318Y-243433D01*
X1147521Y-241554D01*
X1151432Y-241350D01*
X1151636Y-239471D01*
X1153261Y-239471D01*
X1155090Y-238760D01*
X1155446Y-237439D01*
X1157630Y-237236D01*
X1157833Y-235356D01*
X1159814Y-235356D01*
X1159814Y-233273D01*
X1161897Y-233273D01*
X1161897Y-231241D01*
X1163777Y-231241D01*
X1164488Y-229717D01*
X1166012Y-229006D01*
X1166012Y-227126D01*
X1168044Y-227126D01*
X1168044Y-225044D01*
X1170127Y-225044D01*
X1170127Y-223062D01*
X1172006Y-222859D01*
X1172210Y-220929D01*
X1172870Y-220929D01*
X1174242Y-219557D01*
X1174242Y-216865D01*
X1176121Y-216662D01*
X1176324Y-214274D01*
X1178356Y-212394D01*
X1178356Y-208584D01*
X1180388Y-208584D01*
X1180388Y-204470D01*
X1181658Y-204470D01*
X1182471Y-203657D01*
X1182471Y-198374D01*
X1184351Y-197459D01*
X1184554Y-185674D01*
X1185824Y-185267D01*
X1186586Y-183134D01*
X1186586Y-173990D01*
X1185875Y-172161D01*
X1184503Y-171805D01*
X1184503Y-160629D01*
X1184097Y-159562D01*
X1182471Y-159562D01*
X1182471Y-153365D01*
X1180388Y-152958D01*
X1180338Y-149098D01*
X1179880Y-147370D01*
X1178356Y-147167D01*
X1178356Y-145237D01*
X1177594Y-143103D01*
X1176324Y-142748D01*
X1176121Y-140868D01*
X1174242Y-140665D01*
X1174242Y-137414D01*
X1173429Y-136601D01*
X1172210Y-136601D01*
X1172006Y-134670D01*
X1170127Y-134467D01*
X1170127Y-132486D01*
X1169212Y-132486D01*
X1168146Y-131267D01*
X1167485Y-129184D01*
X1166114Y-128574D01*
X1165402Y-126644D01*
X1163980Y-126644D01*
X1162913Y-124561D01*
X1161897Y-124561D01*
X1159459Y-122174D01*
X1157833Y-122174D01*
X1157630Y-120294D01*
X1155700Y-120091D01*
X1155700Y-118770D01*
X1154379Y-118059D01*
X1151636Y-118059D01*
X1151432Y-116179D01*
X1149197Y-115976D01*
X1149197Y-114350D01*
X1145286Y-113842D01*
X1143304Y-111912D01*
X1139240Y-111912D01*
X1139240Y-110235D01*
X1137716Y-109829D01*
X1133195Y-109829D01*
X1132484Y-108204D01*
X1130249Y-107797D01*
X1120241Y-107746D01*
X1118666Y-106121D01*
X1113891Y-105664D01*
X1109014Y-106121D01*
X1108303Y-107797D01*
X1096721Y-107797D01*
X1094740Y-108762D01*
X1094384Y-109829D01*
X1090066Y-109880D01*
X1088339Y-110388D01*
X1088136Y-111912D01*
X1084529Y-111912D01*
X1083716Y-112725D01*
X1083716Y-113944D01*
X1079601Y-113944D01*
X1079601Y-116027D01*
X1076299Y-116027D01*
X1075486Y-116839D01*
X1075486Y-117957D01*
X1072794Y-118414D01*
X1071524Y-119989D01*
X1069644Y-120497D01*
X1069238Y-122123D01*
X1067409Y-122377D01*
X1067206Y-124206D01*
X1065377Y-124409D01*
X1065123Y-126237D01*
X1063294Y-126441D01*
X1063091Y-128320D01*
X1061262Y-128524D01*
X1061008Y-130352D01*
X1059180Y-130606D01*
X1058976Y-132435D01*
X1057148Y-132638D01*
X1056894Y-134518D01*
X1055979Y-134518D01*
X1054912Y-135585D01*
X1054912Y-136855D01*
X1052830Y-139039D01*
X1052830Y-140716D01*
X1051864Y-140716D01*
X1050798Y-141782D01*
X1050798Y-144830D01*
X1049528Y-144830D01*
X1048715Y-145643D01*
X1048715Y-148945D01*
X1047750Y-148945D01*
X1046683Y-150012D01*
X1046683Y-155092D01*
X1045413Y-155092D01*
X1044600Y-155905D01*
X1044600Y-161594D01*
X1042924Y-161594D01*
X1042924Y-163322D01*
X997305Y-163322D01*
X997305Y-161290D01*
X999337Y-161290D01*
X999337Y-159207D01*
X1001420Y-159207D01*
X1001420Y-156616D01*
X1003452Y-154940D01*
X1003452Y-153060D01*
X1005535Y-153060D01*
X1005535Y-151028D01*
X1007414Y-150825D01*
X1007618Y-148945D01*
X1008786Y-148945D01*
X1009650Y-148082D01*
X1009650Y-146608D01*
X1011021Y-146253D01*
X1011682Y-144424D01*
X1011682Y-142748D01*
X1013764Y-142748D01*
X1013764Y-140716D01*
X1015796Y-140716D01*
X1015796Y-138633D01*
X1017879Y-138633D01*
X1017879Y-136601D01*
X1019911Y-136601D01*
X1019911Y-134518D01*
X1021994Y-134518D01*
X1021994Y-132486D01*
X1024026Y-132486D01*
X1024026Y-130403D01*
X1026109Y-130403D01*
X1026109Y-128371D01*
X1028141Y-128371D01*
X1028141Y-126288D01*
X1030224Y-126288D01*
X1030224Y-124256D01*
X1031900Y-124256D01*
X1033627Y-123444D01*
X1033983Y-122275D01*
X1036015Y-121869D01*
X1036472Y-120142D01*
X1038250Y-119938D01*
X1038504Y-118059D01*
X1040485Y-118059D01*
X1040485Y-116027D01*
X1042568Y-116027D01*
X1042568Y-113944D01*
X1045616Y-113944D01*
X1046683Y-112877D01*
X1046683Y-111963D01*
X1048562Y-111709D01*
X1048766Y-109829D01*
X1050798Y-109829D01*
X1050798Y-109220D01*
X1052169Y-108864D01*
X1052169Y-107797D01*
X1054709Y-107594D01*
X1054963Y-105714D01*
X1056640Y-105714D01*
X1058519Y-103733D01*
X1060907Y-103479D01*
X1061110Y-101600D01*
X1062939Y-101600D01*
X1064564Y-101142D01*
X1065174Y-99568D01*
X1067257Y-99568D01*
X1067257Y-97536D01*
X1071168Y-97332D01*
X1071422Y-95453D01*
X1074674Y-95453D01*
X1075486Y-94589D01*
X1075486Y-93370D01*
X1079246Y-93370D01*
X1079652Y-91338D01*
X1082903Y-91338D01*
X1083716Y-90474D01*
X1083716Y-89306D01*
X1087628Y-89103D01*
X1087882Y-87172D01*
X1091946Y-87172D01*
X1091946Y-86410D01*
X1093063Y-85140D01*
X1097280Y-85140D01*
X1098092Y-84328D01*
X1098092Y-83058D01*
X1102766Y-83058D01*
X1103579Y-82245D01*
X1103579Y-81026D01*
X1108252Y-80975D01*
X1109929Y-78943D01*
X1114399Y-78892D01*
X1116126Y-78435D01*
X1116330Y-76911D01*
X1122629Y-76758D01*
X1122832Y-74879D01*
X1130858Y-74828D01*
X1132535Y-72796D01*
X1142593Y-72796D01*
X1143457Y-70713D01*
X1157274Y-70662D01*
X1159002Y-70205D01*
X1159662Y-68681D01*
X1195476Y-68681D01*
X1196035Y-69596D01*
X1197711Y-70713D01*
X1211630Y-70713D01*
X1211630Y-71729D01*
X1213662Y-72796D01*
X1222552Y-72796D01*
X1224076Y-74879D01*
X1231696Y-74879D01*
X1232458Y-76911D01*
X1240028Y-76911D01*
X1240231Y-78790D01*
X1246174Y-78994D01*
X1246581Y-81026D01*
X1252423Y-81026D01*
X1252423Y-83058D01*
X1256538Y-83058D01*
X1256538Y-84074D01*
X1258062Y-85140D01*
X1262634Y-85140D01*
X1263040Y-87172D01*
X1266698Y-87172D01*
X1267460Y-89204D01*
X1271117Y-89408D01*
X1271371Y-90779D01*
X1272133Y-91287D01*
X1275080Y-91338D01*
X1275080Y-92303D01*
X1276146Y-93370D01*
X1279448Y-93370D01*
X1279702Y-95250D01*
X1283258Y-95453D01*
X1283665Y-97485D01*
X1287322Y-97485D01*
X1287729Y-99568D01*
X1290015Y-99568D01*
X1291691Y-101549D01*
X1293418Y-101600D01*
X1294180Y-103682D01*
X1297635Y-103682D01*
X1297838Y-105562D01*
X1299921Y-105918D01*
X1300175Y-107238D01*
X1300937Y-107746D01*
X1303832Y-107797D01*
X1304036Y-109677D01*
X1305864Y-109880D01*
X1306322Y-111912D01*
X1307947Y-111912D01*
X1309979Y-113944D01*
X1312062Y-113944D01*
X1312265Y-115824D01*
X1314094Y-116027D01*
X1314500Y-118059D01*
X1316177Y-118059D01*
X1316583Y-120142D01*
X1318209Y-120142D01*
X1320292Y-122174D01*
X1322374Y-122174D01*
X1322374Y-124256D01*
X1324406Y-124256D01*
X1324610Y-126136D01*
X1326438Y-126339D01*
X1326692Y-128168D01*
X1328521Y-128371D01*
X1328724Y-130251D01*
X1330604Y-130454D01*
X1330604Y-132486D01*
X1332636Y-132486D01*
X1332839Y-134366D01*
X1334719Y-134569D01*
X1334719Y-136601D01*
X1336751Y-136601D01*
X1336954Y-138480D01*
X1338783Y-138684D01*
X1339037Y-140512D01*
X1340866Y-140716D01*
X1341069Y-142595D01*
X1342898Y-142798D01*
X1343152Y-144627D01*
X1345031Y-144881D01*
X1345031Y-146812D01*
X1347419Y-149148D01*
X1347419Y-150622D01*
X1349044Y-151028D01*
X1349451Y-153060D01*
X1351127Y-153060D01*
X1351381Y-154940D01*
X1353261Y-155143D01*
X1353261Y-157226D01*
X1355242Y-159207D01*
X1355699Y-161290D01*
X1357376Y-161290D01*
X1357376Y-163322D01*
X1359408Y-163322D01*
X1359865Y-167132D01*
X1361440Y-167487D01*
X1361643Y-169316D01*
X1363522Y-169570D01*
X1363522Y-172313D01*
X1364234Y-173634D01*
X1365605Y-173634D01*
X1365605Y-176022D01*
X1367586Y-177800D01*
X1367840Y-179628D01*
X1369720Y-179832D01*
X1369720Y-182372D01*
X1370126Y-183896D01*
X1371701Y-183896D01*
X1372158Y-187706D01*
X1373835Y-188112D01*
X1373835Y-191058D01*
X1374902Y-192125D01*
X1375765Y-192125D01*
X1376172Y-195580D01*
X1376629Y-196240D01*
X1377950Y-196240D01*
X1377950Y-200355D01*
X1379982Y-200355D01*
X1379982Y-203403D01*
X1380388Y-204470D01*
X1382064Y-204470D01*
X1382064Y-207822D01*
X1382471Y-210007D01*
X1384096Y-210769D01*
X1384096Y-212699D01*
X1330604Y-212699D01*
X1330604Y-209804D01*
X1330096Y-209042D01*
X1328724Y-208788D01*
X1328521Y-202844D01*
X1326489Y-202387D01*
X1326489Y-198780D01*
X1324457Y-197256D01*
X1324457Y-194208D01*
X1323644Y-194208D01*
X1322374Y-193040D01*
X1322374Y-190398D01*
X1320342Y-189992D01*
X1320342Y-187655D01*
X1319631Y-186334D01*
X1318310Y-186334D01*
X1318107Y-184099D01*
X1316228Y-183845D01*
X1316024Y-182016D01*
X1314145Y-181813D01*
X1314145Y-179781D01*
X1312113Y-179781D01*
X1312113Y-177749D01*
X1310030Y-177749D01*
X1310030Y-175666D01*
X1308049Y-175666D01*
X1307795Y-173786D01*
X1305966Y-173583D01*
X1305763Y-171754D01*
X1303883Y-171500D01*
X1303883Y-169875D01*
X1302004Y-169418D01*
X1300632Y-168148D01*
X1299768Y-168148D01*
X1299768Y-167436D01*
X1297686Y-167436D01*
X1297686Y-166116D01*
X1296365Y-165404D01*
X1293571Y-165404D01*
X1293571Y-163728D01*
X1292504Y-163322D01*
X1289456Y-163322D01*
X1289456Y-161696D01*
X1287932Y-161290D01*
X1283309Y-161290D01*
X1283309Y-159613D01*
X1282192Y-159207D01*
X1276858Y-159207D01*
X1276146Y-157581D01*
X1273962Y-157175D01*
X1245514Y-157175D01*
X1244193Y-157886D01*
X1244193Y-159207D01*
X1237183Y-159207D01*
X1236370Y-159715D01*
X1236116Y-161086D01*
X1232001Y-161493D01*
X1230782Y-162052D01*
X1230172Y-163220D01*
X1226667Y-163626D01*
X1226007Y-164033D01*
X1226007Y-165404D01*
X1223924Y-165404D01*
X1223467Y-166573D01*
X1222654Y-167436D01*
X1220317Y-167436D01*
X1219504Y-168249D01*
X1219504Y-169519D01*
X1217777Y-169519D01*
X1217320Y-170688D01*
X1216456Y-171551D01*
X1215237Y-171551D01*
X1213713Y-171958D01*
X1213358Y-173532D01*
X1211630Y-173990D01*
X1211224Y-175666D01*
X1210056Y-175666D01*
X1209192Y-176479D01*
X1209192Y-177647D01*
X1207160Y-178054D01*
X1207160Y-179781D01*
X1205738Y-179781D01*
X1204925Y-181864D01*
X1203452Y-182270D01*
X1203045Y-183743D01*
X1203045Y-184962D01*
X1202182Y-185826D01*
X1201013Y-186283D01*
X1201013Y-188010D01*
X1199743Y-188010D01*
X1198930Y-188823D01*
X1198930Y-191160D01*
X1198067Y-192024D01*
X1196898Y-192481D01*
X1196898Y-194564D01*
X1195527Y-194564D01*
X1195120Y-195224D01*
X1194714Y-198678D01*
X1193850Y-198678D01*
X1193038Y-199644D01*
X1192580Y-204673D01*
X1191107Y-204876D01*
X1190701Y-206959D01*
X1190701Y-212699D01*
X1188618Y-212699D01*
X1188690Y-234238D01*
X1217422Y-234238D01*
X1217422Y-222961D01*
X1218895Y-222554D01*
X1219504Y-220929D01*
X1219504Y-214833D01*
X1221384Y-214579D01*
X1221587Y-210718D01*
X1223467Y-210464D01*
X1223670Y-206603D01*
X1225499Y-206349D01*
X1225702Y-204470D01*
X1226667Y-204470D01*
X1227734Y-203403D01*
X1227734Y-201879D01*
X1229766Y-200202D01*
X1229817Y-198323D01*
X1231798Y-198323D01*
X1232001Y-197815D01*
X1234236Y-196240D01*
X1235151Y-196240D01*
X1235964Y-195427D01*
X1235964Y-194259D01*
X1237843Y-194005D01*
X1238046Y-192125D01*
X1241298Y-192125D01*
X1242161Y-191312D01*
X1242161Y-190093D01*
X1246073Y-189890D01*
X1246276Y-188010D01*
X1252270Y-187960D01*
X1253947Y-187502D01*
X1254658Y-185978D01*
X1265732Y-185978D01*
X1267460Y-188010D01*
X1272997Y-188010D01*
X1272997Y-189026D01*
X1274521Y-190093D01*
X1277162Y-190093D01*
X1279245Y-192125D01*
X1281480Y-192125D01*
X1281836Y-193497D01*
X1283665Y-194208D01*
X1285290Y-194208D01*
X1285494Y-196088D01*
X1287322Y-196291D01*
X1287729Y-198323D01*
X1289354Y-198323D01*
X1289812Y-200355D01*
X1291488Y-200355D01*
X1291691Y-202234D01*
X1293571Y-202488D01*
X1293571Y-204470D01*
X1295654Y-204470D01*
X1295654Y-208584D01*
X1297686Y-208584D01*
X1297686Y-211632D01*
X1298092Y-212699D01*
X1299768Y-212699D01*
X1299768Y-217322D01*
X1300175Y-218897D01*
X1301800Y-218897D01*
X1301800Y-237744D01*
X1300480Y-237744D01*
X1299768Y-239064D01*
X1299768Y-243840D01*
X1298397Y-244195D01*
X1297686Y-246024D01*
X1297686Y-247599D01*
X1296009Y-248056D01*
X1295552Y-251815D01*
X1294384Y-251815D01*
X1293571Y-252628D01*
X1293571Y-253847D01*
X1291894Y-254254D01*
X1291488Y-256184D01*
X1289812Y-256641D01*
X1289812Y-257302D01*
X1287729Y-259130D01*
X1287729Y-259994D01*
X1285748Y-260451D01*
X1285341Y-262077D01*
X1283309Y-262077D01*
X1283309Y-264007D01*
X1279702Y-264668D01*
X1279448Y-266192D01*
X1277518Y-266192D01*
X1275689Y-266903D01*
X1275334Y-268274D01*
X1271473Y-268325D01*
X1269746Y-268833D01*
X1269085Y-270306D01*
X1250391Y-270306D01*
X1250391Y-268681D01*
X1248816Y-268274D01*
X1244193Y-268274D01*
X1244193Y-266649D01*
X1243126Y-266192D01*
X1240078Y-266192D01*
X1240078Y-264566D01*
X1239012Y-264160D01*
X1235964Y-264160D01*
X1235964Y-262077D01*
X1233932Y-262077D01*
X1233728Y-260197D01*
X1231849Y-259994D01*
X1231849Y-258317D01*
X1229817Y-257911D01*
X1229817Y-256235D01*
X1227785Y-255828D01*
X1227582Y-254050D01*
X1225702Y-253847D01*
X1225702Y-252221D01*
X1224991Y-250393D01*
X1223619Y-250037D01*
X1223619Y-247751D01*
X1221587Y-245668D01*
X1221587Y-243179D01*
X1220876Y-241858D01*
X1219504Y-241858D01*
X1219504Y-235966D01*
X1217422Y-234238D01*
X1188690Y-234238D01*
X1188720Y-243078D01*
X1189177Y-244805D01*
X1190701Y-245465D01*
X1190701Y-250748D01*
X1191107Y-251815D01*
X1192733Y-251815D01*
X1192733Y-256641D01*
X1193444Y-257962D01*
X1194816Y-257962D01*
X1194816Y-261010D01*
X1195222Y-262077D01*
X1196898Y-262077D01*
X1196898Y-264871D01*
X1197559Y-266192D01*
X1198930Y-266192D01*
X1198930Y-268630D01*
X1200962Y-269798D01*
X1201013Y-271068D01*
X1201674Y-272389D01*
X1202994Y-272389D01*
X1203198Y-274269D01*
X1205077Y-274472D01*
X1205280Y-276352D01*
X1207160Y-276555D01*
X1207160Y-278587D01*
X1209192Y-278587D01*
X1209192Y-280619D01*
X1211224Y-280619D01*
X1211427Y-282498D01*
X1213307Y-282702D01*
X1213510Y-284581D01*
X1215288Y-284784D01*
X1215694Y-286766D01*
X1217777Y-286766D01*
X1217777Y-288137D01*
X1219098Y-288848D01*
X1221587Y-288848D01*
X1221587Y-290880D01*
X1224280Y-290880D01*
X1225143Y-292811D01*
X1228750Y-293014D01*
X1230274Y-294995D01*
X1233881Y-294995D01*
X1233881Y-297078D01*
X1239926Y-297078D01*
X1240688Y-299161D01*
X1250696Y-299161D01*
X1250696Y-300126D01*
X1252728Y-301193D01*
X1268882Y-301193D01*
X1268882Y-299161D01*
X1278991Y-298958D01*
X1279245Y-297078D01*
X1286357Y-297078D01*
X1286357Y-294995D01*
X1290675Y-294995D01*
X1291539Y-294182D01*
X1291539Y-292963D01*
X1295654Y-292963D01*
X1295654Y-290880D01*
X1297279Y-290880D01*
X1299108Y-290220D01*
X1299464Y-288899D01*
X1301648Y-288696D01*
X1301851Y-286766D01*
X1303883Y-286766D01*
X1303883Y-286004D01*
X1305001Y-284734D01*
X1306728Y-284734D01*
X1307998Y-283616D01*
X1307998Y-282651D01*
X1309217Y-282651D01*
X1310030Y-281838D01*
X1310030Y-280670D01*
X1311910Y-280466D01*
X1312164Y-278587D01*
X1313332Y-278587D01*
X1314145Y-277723D01*
X1314145Y-276504D01*
X1315516Y-276504D01*
X1316228Y-275183D01*
X1316228Y-273659D01*
X1317345Y-272389D01*
X1318260Y-272389D01*
X1318260Y-270357D01*
X1320139Y-270154D01*
X1320342Y-268020D01*
X1321663Y-267665D01*
X1322374Y-265836D01*
X1322374Y-264160D01*
X1323594Y-264160D01*
X1324457Y-263347D01*
X1324457Y-260045D01*
X1325676Y-260045D01*
X1326489Y-259232D01*
X1326489Y-255371D01*
X1328521Y-253695D01*
X1328572Y-247700D01*
X1330604Y-247700D01*
X1330604Y-245617D01*
X1394409Y-245617D01*
X1394409Y-252780D01*
X1394815Y-254965D01*
X1396441Y-255676D01*
X1396441Y-268173D01*
X1396898Y-270357D01*
X1398524Y-271881D01*
X1398524Y-307644D01*
X1396949Y-307898D01*
X1396492Y-310946D01*
X1396441Y-324104D01*
X1394917Y-324358D01*
X1394460Y-326390D01*
X1394409Y-334822D01*
X1393698Y-334822D01*
X1392326Y-337007D01*
X1392326Y-344424D01*
X1391107Y-344424D01*
X1390294Y-345236D01*
X1390294Y-350621D01*
X1388414Y-352196D01*
X1388160Y-357022D01*
X1386179Y-358952D01*
X1386179Y-362864D01*
X1385214Y-363423D01*
X1384096Y-365607D01*
X1384096Y-369062D01*
X1382471Y-369519D01*
X1382064Y-370992D01*
X1382064Y-374294D01*
X1381201Y-375158D01*
X1379982Y-375615D01*
X1379982Y-379374D01*
X1378762Y-379374D01*
X1377950Y-380187D01*
X1377950Y-383489D01*
X1376934Y-383489D01*
X1375867Y-384556D01*
X1375867Y-387604D01*
X1374902Y-387604D01*
X1373835Y-388670D01*
X1373835Y-391718D01*
X1372819Y-391718D01*
X1371752Y-392785D01*
X1371752Y-395833D01*
X1370533Y-395833D01*
X1369720Y-396646D01*
X1369720Y-399897D01*
X1367840Y-400151D01*
X1367586Y-402285D01*
X1366266Y-402640D01*
X1365605Y-404469D01*
X1365605Y-406146D01*
X1363522Y-406146D01*
X1363522Y-409041D01*
X1361490Y-410718D01*
X1361490Y-412292D01*
X1360474Y-412292D01*
X1359408Y-413410D01*
X1359408Y-414629D01*
X1357376Y-416864D01*
X1357376Y-418490D01*
X1356106Y-418490D01*
X1355293Y-419303D01*
X1355293Y-420878D01*
X1353616Y-420878D01*
X1353159Y-424637D01*
X1351381Y-424840D01*
X1351127Y-426669D01*
X1349298Y-426872D01*
X1349095Y-428701D01*
X1347419Y-429107D01*
X1346962Y-431190D01*
X1345336Y-431190D01*
X1345336Y-432765D01*
X1343304Y-434289D01*
X1342898Y-436981D01*
X1341069Y-437184D01*
X1340866Y-439013D01*
X1339037Y-439216D01*
X1338783Y-441096D01*
X1336954Y-441299D01*
X1336751Y-443128D01*
X1334922Y-443331D01*
X1334668Y-445211D01*
X1332839Y-445414D01*
X1332636Y-447243D01*
X1330807Y-447446D01*
X1330553Y-449326D01*
X1328572Y-449326D01*
X1328572Y-451358D01*
X1326692Y-451561D01*
X1326438Y-453440D01*
X1324610Y-453643D01*
X1324406Y-455523D01*
X1322324Y-455523D01*
X1319885Y-457911D01*
X1318666Y-457911D01*
X1318463Y-459485D01*
X1316228Y-459689D01*
X1316228Y-461619D01*
X1314297Y-461873D01*
X1314094Y-463753D01*
X1312519Y-463753D01*
X1310284Y-465835D01*
X1308354Y-466242D01*
X1308150Y-467664D01*
X1306118Y-468020D01*
X1305864Y-469849D01*
X1303223Y-470255D01*
X1301902Y-471982D01*
X1300581Y-471982D01*
X1299768Y-472795D01*
X1299768Y-474014D01*
X1298346Y-474014D01*
X1296416Y-475030D01*
X1296009Y-476097D01*
X1294384Y-476097D01*
X1293571Y-476910D01*
X1293571Y-478129D01*
X1290878Y-478129D01*
X1289812Y-478586D01*
X1289812Y-480212D01*
X1287881Y-480212D01*
X1286154Y-482244D01*
X1283462Y-482447D01*
X1283258Y-484327D01*
X1280007Y-484327D01*
X1279194Y-485140D01*
X1279194Y-486359D01*
X1275080Y-486359D01*
X1275080Y-488442D01*
X1271778Y-488442D01*
X1270965Y-489254D01*
X1270965Y-490474D01*
X1267002Y-490677D01*
X1266799Y-492556D01*
X1263243Y-492607D01*
X1261516Y-493115D01*
X1260856Y-494588D01*
X1257350Y-494588D01*
X1256538Y-495452D01*
X1256538Y-496671D01*
X1253286Y-496671D01*
X1250696Y-497078D01*
X1250696Y-498703D01*
X1246428Y-498805D01*
X1244701Y-499262D01*
X1244498Y-500786D01*
X1239926Y-500786D01*
X1238402Y-501192D01*
X1237996Y-502869D01*
X1232357Y-502920D01*
X1230630Y-503377D01*
X1229969Y-504901D01*
X1223467Y-504901D01*
X1221943Y-505307D01*
X1221536Y-506933D01*
X1210868Y-507136D01*
X1209243Y-509016D01*
X1194917Y-509016D01*
X1193038Y-508050D01*
X1192072Y-508406D01*
X1190853Y-511048D01*
X1163980Y-511098D01*
X1163777Y-509524D01*
X1160678Y-509066D01*
X1147470Y-509016D01*
X1147470Y-439369D01*
X1149858Y-436981D01*
X1154887Y-436981D01*
X1155700Y-436168D01*
X1155700Y-434949D01*
X1159764Y-434949D01*
X1161846Y-432866D01*
X1164640Y-432866D01*
X1166012Y-431495D01*
X1166012Y-430834D01*
X1168044Y-430834D01*
X1168044Y-430022D01*
X1169212Y-428751D01*
X1172159Y-428751D01*
X1172159Y-426720D01*
X1174242Y-426720D01*
X1174242Y-424637D01*
X1177086Y-424637D01*
X1178356Y-423519D01*
X1178356Y-422605D01*
X1179576Y-422605D01*
X1180388Y-421792D01*
X1180388Y-420573D01*
X1182319Y-420370D01*
X1182522Y-418490D01*
X1183690Y-418490D01*
X1184503Y-417677D01*
X1184503Y-416407D01*
X1186586Y-416407D01*
X1186586Y-414121D01*
X1187958Y-413766D01*
X1188618Y-411937D01*
X1188618Y-410260D01*
X1190701Y-410260D01*
X1190701Y-408178D01*
X1191920Y-408178D01*
X1192733Y-407365D01*
X1192733Y-404114D01*
X1194663Y-403910D01*
X1194866Y-399999D01*
X1196695Y-399796D01*
X1196898Y-395884D01*
X1198778Y-395681D01*
X1198981Y-389737D01*
X1200810Y-389483D01*
X1201013Y-381457D01*
X1201775Y-381457D01*
X1203045Y-380288D01*
X1203045Y-355346D01*
X1201013Y-354533D01*
X1201013Y-346913D01*
X1198930Y-345440D01*
X1198930Y-340614D01*
X1196898Y-340207D01*
X1196695Y-336346D01*
X1194866Y-336143D01*
X1194663Y-332232D01*
X1192733Y-332028D01*
X1192733Y-328269D01*
X1190752Y-327863D01*
X1190548Y-326034D01*
X1188618Y-325831D01*
X1188618Y-322986D01*
X1188110Y-322173D01*
X1186738Y-321919D01*
X1186535Y-320040D01*
X1184503Y-319633D01*
X1184503Y-317957D01*
X1182471Y-317550D01*
X1182471Y-315925D01*
X1180388Y-315518D01*
X1180388Y-313842D01*
X1178356Y-313436D01*
X1178356Y-311505D01*
X1176020Y-311505D01*
X1175664Y-310134D01*
X1173835Y-309422D01*
X1172210Y-309422D01*
X1172006Y-307543D01*
X1170228Y-307340D01*
X1169466Y-305663D01*
X1166012Y-305206D01*
X1166012Y-303682D01*
X1164488Y-303276D01*
X1161897Y-303276D01*
X1161897Y-301853D01*
X1160119Y-301193D01*
X1156919Y-301193D01*
X1155192Y-299161D01*
X1149553Y-299161D01*
X1149553Y-297484D01*
X1148029Y-297078D01*
X1136446Y-297078D01*
X1134110Y-294995D01*
X1128217Y-294995D01*
X1125880Y-296468D01*
X1125880Y-297078D01*
X1113586Y-297078D01*
X1112520Y-298145D01*
X1112520Y-299110D01*
X1106525Y-299313D01*
X1106271Y-301193D01*
X1102055Y-301193D01*
X1100582Y-301599D01*
X1100175Y-303276D01*
X1097127Y-303276D01*
X1096060Y-304342D01*
X1096060Y-305308D01*
X1094384Y-305308D01*
X1092555Y-306019D01*
X1092200Y-307340D01*
X1090066Y-307543D01*
X1089863Y-309321D01*
X1087170Y-309778D01*
X1085900Y-311404D01*
X1083868Y-311658D01*
X1083665Y-313486D01*
X1081989Y-313893D01*
X1081582Y-315620D01*
X1080414Y-315620D01*
X1079601Y-316433D01*
X1079601Y-317652D01*
X1077518Y-317652D01*
X1077518Y-319633D01*
X1075791Y-320090D01*
X1075385Y-322072D01*
X1073912Y-322275D01*
X1073302Y-325831D01*
X1071524Y-326034D01*
X1071321Y-327964D01*
X1070000Y-327964D01*
X1069289Y-329285D01*
X1069289Y-332028D01*
X1067409Y-332232D01*
X1067206Y-336143D01*
X1065377Y-336346D01*
X1065174Y-340156D01*
X1063142Y-340918D01*
X1063142Y-346456D01*
X1061872Y-346456D01*
X1061059Y-347268D01*
X1061059Y-354990D01*
X1059535Y-355193D01*
X1059078Y-357276D01*
X1059078Y-367538D01*
X1089710Y-367538D01*
X1089914Y-356768D01*
X1091133Y-356768D01*
X1091946Y-355904D01*
X1091946Y-350570D01*
X1093978Y-350570D01*
X1093978Y-346456D01*
X1096060Y-346456D01*
X1096060Y-344424D01*
X1097280Y-344424D01*
X1098092Y-343560D01*
X1098092Y-342087D01*
X1099464Y-341731D01*
X1100175Y-339902D01*
X1100175Y-338226D01*
X1102207Y-338226D01*
X1102207Y-337413D01*
X1103376Y-336194D01*
X1105103Y-336194D01*
X1106322Y-335026D01*
X1106322Y-334162D01*
X1108252Y-333959D01*
X1108456Y-332079D01*
X1111250Y-332079D01*
X1112520Y-330911D01*
X1112520Y-329996D01*
X1114196Y-329996D01*
X1116025Y-329285D01*
X1116380Y-327964D01*
X1121460Y-327964D01*
X1122781Y-327253D01*
X1122781Y-325882D01*
X1139596Y-325882D01*
X1139596Y-327101D01*
X1140409Y-327964D01*
X1145794Y-327964D01*
X1145794Y-328980D01*
X1147826Y-329996D01*
X1149908Y-329996D01*
X1149908Y-331368D01*
X1151229Y-332079D01*
X1153617Y-332079D01*
X1154074Y-334111D01*
X1156055Y-334111D01*
X1156055Y-335483D01*
X1157376Y-336194D01*
X1159814Y-336194D01*
X1159814Y-338226D01*
X1161897Y-338226D01*
X1161897Y-340360D01*
X1163878Y-342341D01*
X1164539Y-344220D01*
X1165961Y-344424D01*
X1166164Y-346303D01*
X1168044Y-346506D01*
X1168044Y-349504D01*
X1168501Y-350570D01*
X1170127Y-350570D01*
X1170127Y-353923D01*
X1170584Y-356108D01*
X1172108Y-356819D01*
X1172362Y-366725D01*
X1173226Y-367233D01*
X1172210Y-370636D01*
X1172159Y-379374D01*
X1170533Y-379780D01*
X1170127Y-381254D01*
X1170127Y-385572D01*
X1168044Y-385572D01*
X1168044Y-388670D01*
X1167231Y-389534D01*
X1166012Y-389991D01*
X1166012Y-391668D01*
X1164285Y-392074D01*
X1163878Y-394106D01*
X1162253Y-394106D01*
X1162253Y-395782D01*
X1160373Y-397865D01*
X1158392Y-398576D01*
X1158036Y-399897D01*
X1156106Y-400304D01*
X1155649Y-402031D01*
X1154480Y-402031D01*
X1153668Y-402844D01*
X1153668Y-404063D01*
X1150620Y-404063D01*
X1149553Y-405180D01*
X1149553Y-406146D01*
X1146505Y-406146D01*
X1145438Y-407212D01*
X1145438Y-408178D01*
X1140358Y-408178D01*
X1139240Y-408584D01*
X1139240Y-410209D01*
X1137462Y-409295D01*
X1136497Y-409651D01*
X1136497Y-410260D01*
X1122781Y-410260D01*
X1122781Y-408584D01*
X1121714Y-408178D01*
X1116634Y-408178D01*
X1116634Y-406146D01*
X1112520Y-406146D01*
X1112520Y-404469D01*
X1111402Y-404063D01*
X1108456Y-404063D01*
X1108252Y-402183D01*
X1106322Y-401980D01*
X1106322Y-400354D01*
X1104392Y-399948D01*
X1103630Y-398272D01*
X1102309Y-398272D01*
X1100175Y-396189D01*
X1100175Y-394970D01*
X1099667Y-394208D01*
X1098296Y-393954D01*
X1098042Y-391718D01*
X1096060Y-391718D01*
X1096060Y-389940D01*
X1094028Y-388010D01*
X1093825Y-385724D01*
X1091946Y-385521D01*
X1091946Y-380034D01*
X1089914Y-379272D01*
X1089710Y-367538D01*
X1059078Y-367538D01*
X1059078Y-378866D01*
X1059535Y-380593D01*
X1061059Y-381254D01*
X1061059Y-388112D01*
X1061516Y-389686D01*
X1063142Y-389686D01*
X1063142Y-395833D01*
X1065174Y-395833D01*
X1065174Y-398881D01*
X1065631Y-399948D01*
X1067257Y-399948D01*
X1067257Y-402996D01*
X1067663Y-404063D01*
X1069187Y-404063D01*
X1069797Y-408025D01*
X1071321Y-408228D01*
X1071524Y-410057D01*
X1073404Y-410311D01*
X1073404Y-412292D01*
X1075740Y-414528D01*
X1075994Y-415899D01*
X1077417Y-416559D01*
X1078179Y-418490D01*
X1079449Y-418490D01*
X1080211Y-420471D01*
X1081836Y-420725D01*
X1082040Y-422300D01*
X1084072Y-422706D01*
X1084072Y-423926D01*
X1085392Y-424637D01*
X1087780Y-424637D01*
X1087983Y-426516D01*
X1089812Y-426770D01*
X1090218Y-428751D01*
X1093927Y-428751D01*
X1094181Y-430631D01*
X1096416Y-430885D01*
X1096416Y-432104D01*
X1098143Y-432866D01*
X1100480Y-432866D01*
X1102461Y-434949D01*
X1106271Y-434949D01*
X1106982Y-436981D01*
X1113332Y-436981D01*
X1114552Y-438150D01*
X1114552Y-500786D01*
X1110437Y-500786D01*
X1110437Y-499414D01*
X1109116Y-498703D01*
X1104290Y-498703D01*
X1104290Y-497484D01*
X1103477Y-496671D01*
X1098092Y-496671D01*
X1098092Y-495046D01*
X1097026Y-494588D01*
X1094079Y-494588D01*
X1093673Y-492963D01*
X1091488Y-492556D01*
X1089863Y-492556D01*
X1089863Y-491998D01*
X1087069Y-490474D01*
X1083767Y-490474D01*
X1083513Y-488594D01*
X1079652Y-488391D01*
X1079398Y-486562D01*
X1075486Y-486359D01*
X1075486Y-484327D01*
X1072388Y-484327D01*
X1070914Y-482244D01*
X1069289Y-482244D01*
X1068527Y-480568D01*
X1065174Y-480110D01*
X1065174Y-478129D01*
X1061059Y-478129D01*
X1061059Y-476097D01*
X1059180Y-476097D01*
X1058519Y-474573D01*
X1054912Y-473913D01*
X1054709Y-472135D01*
X1052931Y-471932D01*
X1052525Y-470357D01*
X1050340Y-469900D01*
X1048766Y-469900D01*
X1048562Y-468020D01*
X1046683Y-467817D01*
X1046683Y-466140D01*
X1044702Y-465734D01*
X1043940Y-464108D01*
X1040485Y-463651D01*
X1040485Y-461670D01*
X1038453Y-461670D01*
X1038453Y-459943D01*
X1036370Y-459536D01*
X1036370Y-457911D01*
X1034389Y-457504D01*
X1033983Y-455930D01*
X1032052Y-455574D01*
X1031290Y-453898D01*
X1029360Y-453390D01*
X1028141Y-452323D01*
X1028141Y-451408D01*
X1026109Y-451408D01*
X1026109Y-449326D01*
X1024026Y-449326D01*
X1024026Y-447293D01*
X1022045Y-447293D01*
X1021791Y-445414D01*
X1019911Y-445160D01*
X1019911Y-443179D01*
X1017879Y-443179D01*
X1017879Y-441096D01*
X1015796Y-441096D01*
X1015796Y-439216D01*
X1014272Y-438556D01*
X1012748Y-435305D01*
X1011783Y-435305D01*
X1011377Y-433273D01*
X1009802Y-433070D01*
X1009599Y-431139D01*
X1007618Y-430733D01*
X1007414Y-428955D01*
X1005535Y-428701D01*
X1005332Y-426872D01*
X1003503Y-426669D01*
X1003300Y-423113D01*
X1001420Y-422909D01*
X1001420Y-420878D01*
X999388Y-420471D01*
X999185Y-418642D01*
X997305Y-418439D01*
X997254Y-415543D01*
X996797Y-414782D01*
X995426Y-414528D01*
X995070Y-412496D01*
X993190Y-412242D01*
X993190Y-409854D01*
X992479Y-408533D01*
X991158Y-408533D01*
X990955Y-406298D01*
X989076Y-406095D01*
X989076Y-402640D01*
X986993Y-401878D01*
X986993Y-400354D01*
X986332Y-398526D01*
X984961Y-398170D01*
X984961Y-396341D01*
X982929Y-394817D01*
X982726Y-391922D01*
X980846Y-391668D01*
X980643Y-387807D01*
X978814Y-387553D01*
X978611Y-383692D01*
X976731Y-383438D01*
X976731Y-379628D01*
X974648Y-377647D01*
X974648Y-374294D01*
X973582Y-373227D01*
X972616Y-373227D01*
X972616Y-369417D01*
X970534Y-369011D01*
X970534Y-363575D01*
X968502Y-362762D01*
X968502Y-357581D01*
X967638Y-356768D01*
X966419Y-356768D01*
X966419Y-350977D01*
X964387Y-350520D01*
X964387Y-343408D01*
X963269Y-342341D01*
X962304Y-342341D01*
X962304Y-334111D01*
X960272Y-334111D01*
X960272Y-323850D01*
X959459Y-322122D01*
X958189Y-322122D01*
X958189Y-305358D01*
X957376Y-303580D01*
X927353Y-303580D01*
X927353Y-315163D01*
X927760Y-317296D01*
X929335Y-317703D01*
X929538Y-331673D01*
X931468Y-333146D01*
X931468Y-341680D01*
X932434Y-343611D01*
X933500Y-344017D01*
X933500Y-350164D01*
X933958Y-352298D01*
X935583Y-352704D01*
X935583Y-357682D01*
X935990Y-359918D01*
X937615Y-360629D01*
X937615Y-365302D01*
X938276Y-367030D01*
X939698Y-367030D01*
X939698Y-371906D01*
X940409Y-373227D01*
X941730Y-373227D01*
X941730Y-376529D01*
X942136Y-378612D01*
X943813Y-379374D01*
X943813Y-382422D01*
X944219Y-383489D01*
X945845Y-383489D01*
X945845Y-386842D01*
X946302Y-389026D01*
X947928Y-389788D01*
X947928Y-392480D01*
X948639Y-393801D01*
X949909Y-393801D01*
X950163Y-397713D01*
X952042Y-397967D01*
X952042Y-400913D01*
X952449Y-402031D01*
X954074Y-402031D01*
X954074Y-406146D01*
X956157Y-406146D01*
X956157Y-409143D01*
X956564Y-410260D01*
X958189Y-410260D01*
X958189Y-412597D01*
X958850Y-414375D01*
X960272Y-414375D01*
X960272Y-416051D01*
X960932Y-417880D01*
X962253Y-418185D01*
X962507Y-420370D01*
X964387Y-420573D01*
X964387Y-422909D01*
X965047Y-424637D01*
X966368Y-424637D01*
X966622Y-426516D01*
X968502Y-426770D01*
X968502Y-429717D01*
X968908Y-430834D01*
X970483Y-430834D01*
X970686Y-432714D01*
X972515Y-432917D01*
X972921Y-436321D01*
X973328Y-436981D01*
X974598Y-436981D01*
X974801Y-438861D01*
X976731Y-439115D01*
X976731Y-440791D01*
X978712Y-442671D01*
X978966Y-445058D01*
X980744Y-445262D01*
X981151Y-447293D01*
X982827Y-447293D01*
X983081Y-449173D01*
X984961Y-449376D01*
X984961Y-451408D01*
X986993Y-451408D01*
X986993Y-454101D01*
X988060Y-455168D01*
X989076Y-455168D01*
X989482Y-457250D01*
X991057Y-457657D01*
X991514Y-459638D01*
X993089Y-459638D01*
X993495Y-461670D01*
X995171Y-461670D01*
X995578Y-463753D01*
X997203Y-463753D01*
X997610Y-465785D01*
X999286Y-465785D01*
X999693Y-467868D01*
X1001318Y-467868D01*
X1001725Y-469900D01*
X1003350Y-469900D01*
X1003808Y-471982D01*
X1005433Y-471982D01*
X1005840Y-474014D01*
X1007465Y-474014D01*
X1007922Y-476097D01*
X1009497Y-476097D01*
X1010259Y-478129D01*
X1011936Y-478129D01*
X1012291Y-479501D01*
X1014120Y-480212D01*
X1015796Y-480212D01*
X1015796Y-482244D01*
X1017828Y-482244D01*
X1018032Y-484174D01*
X1019860Y-484378D01*
X1020267Y-486359D01*
X1021842Y-486359D01*
X1022603Y-488442D01*
X1023975Y-488442D01*
X1026109Y-489661D01*
X1026109Y-490474D01*
X1028090Y-490474D01*
X1028344Y-492404D01*
X1030071Y-492607D01*
X1030833Y-494588D01*
X1034287Y-494588D01*
X1034491Y-496519D01*
X1036319Y-496722D01*
X1036777Y-498703D01*
X1038402Y-498703D01*
X1040485Y-499922D01*
X1040485Y-500786D01*
X1042466Y-500786D01*
X1043228Y-502869D01*
X1046632Y-502869D01*
X1046835Y-504748D01*
X1049020Y-504951D01*
X1049324Y-506272D01*
X1051153Y-506933D01*
X1052779Y-506933D01*
X1053033Y-508863D01*
X1056944Y-509066D01*
X1056944Y-511098D01*
X1061008Y-511098D01*
X1061262Y-512978D01*
X1065123Y-513181D01*
X1065530Y-515213D01*
X1069238Y-515213D01*
X1069644Y-517245D01*
X1073251Y-517245D01*
X1074064Y-519328D01*
X1077874Y-519328D01*
X1077874Y-520649D01*
X1079195Y-521360D01*
X1083614Y-521360D01*
X1084021Y-523443D01*
X1087831Y-523443D01*
X1087831Y-524408D01*
X1089355Y-525475D01*
X1093825Y-525475D01*
X1094638Y-527558D01*
X1100074Y-527558D01*
X1100836Y-529590D01*
X1106627Y-529590D01*
X1106881Y-531114D01*
X1108557Y-531571D01*
X1114399Y-531672D01*
X1115212Y-533704D01*
X1123188Y-533704D01*
X1123543Y-534771D01*
X1125524Y-535787D01*
X1134059Y-535787D01*
X1134973Y-537667D01*
X1149705Y-537972D01*
X1149959Y-539343D01*
X1150772Y-539851D01*
X1205077Y-539902D01*
X1205077Y-537819D01*
X1219047Y-537819D01*
X1221028Y-535787D01*
X1229766Y-535787D01*
X1231392Y-535127D01*
X1231798Y-533704D01*
X1239266Y-533704D01*
X1240078Y-532892D01*
X1240078Y-531672D01*
X1247698Y-531672D01*
X1248460Y-529590D01*
X1253642Y-529590D01*
X1254506Y-528777D01*
X1254506Y-527558D01*
X1260652Y-527558D01*
X1260652Y-525475D01*
X1265986Y-525475D01*
X1266850Y-524662D01*
X1266850Y-523443D01*
X1270762Y-523392D01*
X1272438Y-521360D01*
X1276299Y-521360D01*
X1277112Y-520547D01*
X1277112Y-519328D01*
X1281074Y-519125D01*
X1281277Y-517245D01*
X1285341Y-517245D01*
X1285341Y-515213D01*
X1289456Y-515213D01*
X1289456Y-513130D01*
X1293571Y-513130D01*
X1293571Y-511098D01*
X1297686Y-511098D01*
X1297686Y-509066D01*
X1301648Y-508863D01*
X1301851Y-506933D01*
X1305102Y-506933D01*
X1305915Y-506120D01*
X1305915Y-504901D01*
X1307998Y-504901D01*
X1307998Y-502869D01*
X1311910Y-502666D01*
X1312164Y-500786D01*
X1313738Y-500786D01*
X1315567Y-500075D01*
X1315974Y-498703D01*
X1318260Y-498703D01*
X1318260Y-496671D01*
X1319885Y-496671D01*
X1322070Y-495554D01*
X1322476Y-494588D01*
X1324457Y-494588D01*
X1324457Y-492556D01*
X1326489Y-492556D01*
X1326489Y-490474D01*
X1328521Y-490474D01*
X1330198Y-489864D01*
X1330553Y-488492D01*
X1332484Y-488289D01*
X1332738Y-486359D01*
X1334719Y-486359D01*
X1334719Y-484327D01*
X1336802Y-484327D01*
X1336802Y-482244D01*
X1338478Y-482244D01*
X1340256Y-481584D01*
X1340612Y-480212D01*
X1342136Y-480212D01*
X1342948Y-479399D01*
X1342948Y-478129D01*
X1345031Y-478129D01*
X1345031Y-476148D01*
X1346911Y-475945D01*
X1347114Y-474014D01*
X1349146Y-474014D01*
X1349146Y-471982D01*
X1351178Y-471982D01*
X1351178Y-469900D01*
X1353261Y-469900D01*
X1353261Y-467868D01*
X1355293Y-467868D01*
X1355293Y-465785D01*
X1357376Y-465785D01*
X1357376Y-463753D01*
X1359408Y-463753D01*
X1359408Y-461670D01*
X1361490Y-461670D01*
X1361490Y-459638D01*
X1363522Y-459638D01*
X1363522Y-457606D01*
X1365402Y-457403D01*
X1365656Y-455523D01*
X1366824Y-455523D01*
X1367637Y-454710D01*
X1367637Y-453542D01*
X1369314Y-452475D01*
X1369771Y-450900D01*
X1371752Y-449021D01*
X1371752Y-447293D01*
X1373835Y-447293D01*
X1373835Y-445262D01*
X1375714Y-445058D01*
X1375918Y-443179D01*
X1376984Y-443179D01*
X1377899Y-441959D01*
X1377950Y-439064D01*
X1379982Y-439064D01*
X1379982Y-437032D01*
X1381861Y-436829D01*
X1382115Y-434644D01*
X1383436Y-434340D01*
X1384096Y-432511D01*
X1384096Y-430834D01*
X1386179Y-430834D01*
X1386179Y-428751D01*
X1387297Y-428751D01*
X1388211Y-427583D01*
X1388211Y-424688D01*
X1390091Y-424484D01*
X1390345Y-422097D01*
X1392326Y-420217D01*
X1392326Y-418490D01*
X1393596Y-418490D01*
X1394409Y-417677D01*
X1394409Y-414426D01*
X1396288Y-414172D01*
X1396492Y-410260D01*
X1398524Y-410260D01*
X1398524Y-408279D01*
X1399489Y-407924D01*
X1400556Y-405688D01*
X1400556Y-403402D01*
X1401673Y-403402D01*
X1402029Y-402031D01*
X1402638Y-402031D01*
X1402638Y-399389D01*
X1404670Y-397713D01*
X1404670Y-393801D01*
X1406753Y-393801D01*
X1406753Y-389737D01*
X1408633Y-389483D01*
X1408836Y-385572D01*
X1409700Y-385572D01*
X1410868Y-384302D01*
X1410868Y-379425D01*
X1412748Y-379222D01*
X1412951Y-374751D01*
X1414983Y-372922D01*
X1414983Y-367030D01*
X1417015Y-367030D01*
X1417015Y-360934D01*
X1418894Y-360680D01*
X1419098Y-354482D01*
X1421130Y-353618D01*
X1421130Y-344474D01*
X1423009Y-344220D01*
X1423212Y-334162D01*
X1425092Y-333959D01*
X1425295Y-321106D01*
X1426260Y-321106D01*
X1427327Y-318820D01*
X1427124Y-259638D01*
X1425244Y-258013D01*
X1425244Y-246125D01*
X1423212Y-244602D01*
X1423212Y-235762D01*
X1421130Y-233578D01*
X1421130Y-227482D01*
X1420469Y-225704D01*
X1419098Y-225348D01*
X1419098Y-219354D01*
X1417015Y-217830D01*
X1417015Y-213004D01*
X1415999Y-211023D01*
X1414983Y-211023D01*
X1414983Y-206908D01*
X1414272Y-205079D01*
X1412900Y-204774D01*
X1412900Y-200710D01*
X1410868Y-200304D01*
X1410868Y-194868D01*
X1408785Y-194106D01*
X1408785Y-190398D01*
X1406753Y-189992D01*
X1406753Y-186029D01*
X1404670Y-183946D01*
X1404670Y-182321D01*
X1403959Y-180187D01*
X1402638Y-179730D01*
X1402638Y-177342D01*
X1401927Y-176022D01*
X1400556Y-176022D01*
X1400556Y-173228D01*
X1399844Y-171907D01*
X1398524Y-171907D01*
X1398524Y-169824D01*
X1396492Y-167944D01*
X1396288Y-165557D01*
X1394409Y-165354D01*
X1394409Y-161594D01*
X1392326Y-161188D01*
X1392326Y-158343D01*
X1391513Y-157480D01*
X1390345Y-157480D01*
X1390091Y-155295D01*
X1388211Y-155041D01*
X1388211Y-151638D01*
X1386179Y-150825D01*
X1385976Y-149098D01*
X1384096Y-148894D01*
X1384096Y-145999D01*
X1383588Y-145237D01*
X1382217Y-144983D01*
X1381861Y-142951D01*
X1379982Y-142697D01*
X1379982Y-140766D01*
X1377950Y-138684D01*
X1377950Y-137210D01*
X1375918Y-136448D01*
X1375714Y-134670D01*
X1373835Y-134467D01*
X1373835Y-132486D01*
X1371752Y-132486D01*
X1371752Y-130454D01*
X1370990Y-128676D01*
X1369720Y-128676D01*
X1369720Y-126949D01*
X1367637Y-126237D01*
X1367637Y-124561D01*
X1365656Y-124155D01*
X1365402Y-122377D01*
X1363573Y-122123D01*
X1363370Y-120294D01*
X1361541Y-120091D01*
X1361287Y-118211D01*
X1359458Y-118008D01*
X1359255Y-116179D01*
X1357376Y-115976D01*
X1357376Y-113944D01*
X1355293Y-113944D01*
X1355293Y-111912D01*
X1353312Y-111912D01*
X1353058Y-109982D01*
X1351229Y-109778D01*
X1351026Y-107950D01*
X1349197Y-107746D01*
X1348943Y-105867D01*
X1347114Y-105664D01*
X1346911Y-103835D01*
X1345031Y-103632D01*
X1344828Y-101752D01*
X1342948Y-101549D01*
X1342948Y-99872D01*
X1340916Y-99466D01*
X1340916Y-98196D01*
X1338580Y-97231D01*
X1338122Y-95808D01*
X1334770Y-95351D01*
X1334566Y-93522D01*
X1332738Y-93319D01*
X1332484Y-91490D01*
X1330604Y-91287D01*
X1330604Y-89662D01*
X1328420Y-89154D01*
X1326438Y-87172D01*
X1324508Y-87172D01*
X1324254Y-85293D01*
X1322425Y-85090D01*
X1322070Y-83515D01*
X1319885Y-83058D01*
X1318310Y-83058D01*
X1318107Y-81178D01*
X1316228Y-80975D01*
X1316228Y-79654D01*
X1314907Y-78943D01*
X1312164Y-78943D01*
X1311910Y-77063D01*
X1310132Y-76860D01*
X1309370Y-75234D01*
X1305915Y-74777D01*
X1305915Y-73202D01*
X1304848Y-72796D01*
X1301851Y-72796D01*
X1301648Y-70916D01*
X1299260Y-70662D01*
X1297228Y-68681D01*
X1295755Y-68681D01*
X1294993Y-67005D01*
X1291539Y-66548D01*
X1291539Y-64973D01*
X1287475Y-64516D01*
X1286764Y-62941D01*
X1284579Y-62484D01*
X1282903Y-62484D01*
X1282496Y-61467D01*
X1280566Y-60452D01*
X1277112Y-60452D01*
X1277112Y-58826D01*
X1276045Y-58369D01*
X1272997Y-58369D01*
X1272997Y-56997D01*
X1271219Y-56337D01*
X1266850Y-56337D01*
X1266850Y-54711D01*
X1265732Y-54254D01*
X1262430Y-54254D01*
X1262075Y-52933D01*
X1260246Y-52222D01*
X1256487Y-52222D01*
X1254912Y-50342D01*
X1249832Y-50088D01*
X1247851Y-48107D01*
X1242263Y-48107D01*
X1241501Y-46482D01*
X1239316Y-46024D01*
X1233271Y-46024D01*
X1232712Y-45161D01*
X1231036Y-43992D01*
X1222959Y-43992D01*
X1222400Y-43078D01*
X1220724Y-41910D01*
X1208989Y-41910D01*
X1208227Y-40335D01*
X1205636Y-39878D01*
G37*
D10*
X-621967Y-477934D02*
G01*
X-627809Y-480728D01*
X-633397Y-486570D01*
X-636191Y-492158D01*
X-639239Y-500794D01*
X-639239Y-515018D01*
X-636191Y-523654D01*
X-633397Y-529496D01*
X-627809Y-535084D01*
X-621967Y-538132D01*
X-610537Y-538132D01*
X-604695Y-535084D01*
X-599107Y-529496D01*
X-596059Y-523654D01*
X-593265Y-515018D01*
X-593265Y-500794D01*
X-596059Y-492158D01*
X-599107Y-486570D01*
X-604695Y-480728D01*
X-610537Y-477934D01*
X-621967Y-477934D01*
X-613331Y-526702D02*
G01*
X-596059Y-543720D01*
X-568627Y-477934D02*
G01*
X-537131Y-477934D01*
X-554403Y-500794D01*
X-545767Y-500794D01*
X-540179Y-503588D01*
X-537131Y-506636D01*
X-534337Y-515018D01*
X-534337Y-520860D01*
X-537131Y-529496D01*
X-542973Y-535084D01*
X-551609Y-538132D01*
X-559991Y-538132D01*
X-568627Y-535084D01*
X-571675Y-532290D01*
X-574469Y-526702D01*
X1331038Y263237D02*
G01*
X1331038Y202531D01*
X1331038Y263237D02*
G01*
X1356946Y263237D01*
X1365582Y260443D01*
X1368376Y257395D01*
X1371424Y251553D01*
X1371424Y245965D01*
X1368376Y240123D01*
X1365582Y237329D01*
X1356946Y234281D01*
X1331038Y234281D01*
X1351104Y234281D02*
G01*
X1371424Y202531D01*
X1419176Y263237D02*
G01*
X1390474Y222851D01*
X1433654Y222851D01*
X1419176Y263237D02*
G01*
X1419176Y202531D01*
X1332308Y346549D02*
G01*
X1332308Y285843D01*
X1332308Y346549D02*
G01*
X1358216Y346549D01*
X1366852Y343755D01*
X1369646Y340707D01*
X1372694Y334865D01*
X1372694Y329277D01*
X1369646Y323435D01*
X1366852Y320641D01*
X1358216Y317593D01*
X1332308Y317593D01*
X1352374Y317593D02*
G01*
X1372694Y285843D01*
X1406222Y346549D02*
G01*
X1397586Y343755D01*
X1394538Y337913D01*
X1394538Y332071D01*
X1397586Y326229D01*
X1403174Y323435D01*
X1414858Y320641D01*
X1423494Y317593D01*
X1429336Y312005D01*
X1432130Y306163D01*
X1432130Y297527D01*
X1429336Y291685D01*
X1426288Y288891D01*
X1417652Y285843D01*
X1406222Y285843D01*
X1397586Y288891D01*
X1394538Y291685D01*
X1391744Y297527D01*
X1391744Y306163D01*
X1394538Y312005D01*
X1400380Y317593D01*
X1409016Y320641D01*
X1420446Y323435D01*
X1426288Y326229D01*
X1429336Y332071D01*
X1429336Y337913D01*
X1426288Y343755D01*
X1417652Y346549D01*
X1406222Y346549D01*
X1330784Y439767D02*
G01*
X1330784Y379061D01*
X1330784Y439767D02*
G01*
X1356692Y439767D01*
X1365328Y436973D01*
X1368122Y433925D01*
X1371170Y428083D01*
X1371170Y422495D01*
X1368122Y416653D01*
X1365328Y413859D01*
X1356692Y410811D01*
X1330784Y410811D01*
X1350850Y410811D02*
G01*
X1371170Y379061D01*
X1393014Y425289D02*
G01*
X1393014Y428083D01*
X1396062Y433925D01*
X1398856Y436973D01*
X1404698Y439767D01*
X1416128Y439767D01*
X1421970Y436973D01*
X1424764Y433925D01*
X1427812Y428083D01*
X1427812Y422495D01*
X1424764Y416653D01*
X1418922Y408017D01*
X1390220Y379061D01*
X1430606Y379061D01*
X1449656Y428083D02*
G01*
X1455498Y431131D01*
X1464134Y439767D01*
X1464134Y379061D01*
X1343992Y514189D02*
G01*
X1343992Y453483D01*
X1343992Y514189D02*
G01*
X1369900Y514189D01*
X1378536Y511395D01*
X1381330Y508347D01*
X1384378Y502505D01*
X1384378Y496917D01*
X1381330Y491075D01*
X1378536Y488281D01*
X1369900Y485233D01*
X1343992Y485233D01*
X1364058Y485233D02*
G01*
X1384378Y453483D01*
X1406222Y499711D02*
G01*
X1406222Y502505D01*
X1409270Y508347D01*
X1412064Y511395D01*
X1417906Y514189D01*
X1429336Y514189D01*
X1435178Y511395D01*
X1437972Y508347D01*
X1441020Y502505D01*
X1441020Y496917D01*
X1437972Y491075D01*
X1432130Y482439D01*
X1403428Y453483D01*
X1443814Y453483D01*
X1468706Y514189D02*
G01*
X1500456Y514189D01*
X1482930Y491075D01*
X1491820Y491075D01*
X1497408Y488281D01*
X1500456Y485233D01*
X1503250Y476597D01*
X1503250Y470755D01*
X1500456Y462119D01*
X1494614Y456531D01*
X1485978Y453483D01*
X1477342Y453483D01*
X1468706Y456531D01*
X1465658Y459325D01*
X1462864Y465167D01*
X-908987Y1167985D02*
G01*
X-911781Y1173827D01*
X-917623Y1179669D01*
X-923465Y1182463D01*
X-934895Y1182463D01*
X-940737Y1179669D01*
X-946579Y1173827D01*
X-949373Y1167985D01*
X-952167Y1159349D01*
X-952167Y1144871D01*
X-949373Y1136235D01*
X-946579Y1130393D01*
X-940737Y1124805D01*
X-934895Y1121757D01*
X-923465Y1121757D01*
X-917623Y1124805D01*
X-911781Y1130393D01*
X-908987Y1136235D01*
X-875459Y1182463D02*
G01*
X-884095Y1179669D01*
X-886889Y1173827D01*
X-886889Y1167985D01*
X-884095Y1162143D01*
X-878253Y1159349D01*
X-866823Y1156555D01*
X-858187Y1153507D01*
X-852345Y1147919D01*
X-849551Y1142077D01*
X-849551Y1133441D01*
X-852345Y1127599D01*
X-855139Y1124805D01*
X-864029Y1121757D01*
X-875459Y1121757D01*
X-884095Y1124805D01*
X-886889Y1127599D01*
X-889937Y1133441D01*
X-889937Y1142077D01*
X-886889Y1147919D01*
X-881301Y1153507D01*
X-872665Y1156555D01*
X-860981Y1159349D01*
X-855139Y1162143D01*
X-852345Y1167985D01*
X-852345Y1173827D01*
X-855139Y1179669D01*
X-864029Y1182463D01*
X-875459Y1182463D01*
X-362033Y-300095D02*
G01*
X-362033Y-343052D01*
X-359171Y-351642D01*
X-353443Y-357370D01*
X-344853Y-360232D01*
X-339125Y-360232D01*
X-330532Y-357370D01*
X-324807Y-351642D01*
X-321942Y-343052D01*
X-321942Y-300095D01*
X-274406Y-300095D02*
G01*
X-303042Y-340187D01*
X-260088Y-340187D01*
X-274406Y-300095D02*
G01*
X-274406Y-360232D01*
X-484619Y215615D02*
G01*
X-484619Y155478D01*
X-484619Y215615D02*
G01*
X-458845Y215615D01*
X-450255Y212750D01*
X-447393Y209887D01*
X-444527Y204160D01*
X-444527Y198432D01*
X-447393Y192704D01*
X-450255Y189842D01*
X-458845Y186977D01*
X-484619Y186977D01*
X-464573Y186977D02*
G01*
X-444527Y155478D01*
X-422765Y201297D02*
G01*
X-422765Y204160D01*
X-419900Y209887D01*
X-417037Y212750D01*
X-411309Y215615D01*
X-399856Y215615D01*
X-394129Y212750D01*
X-391264Y209887D01*
X-388401Y204160D01*
X-388401Y198432D01*
X-391264Y192704D01*
X-396991Y184114D01*
X-425627Y155478D01*
X-385536Y155478D01*
X-332275Y215615D02*
G01*
X-360911Y215615D01*
X-363773Y189842D01*
X-360911Y192704D01*
X-352318Y195569D01*
X-343728Y195569D01*
X-335137Y192704D01*
X-329410Y186977D01*
X-326547Y178386D01*
X-326547Y172659D01*
X-329410Y164068D01*
X-335137Y158341D01*
X-343728Y155478D01*
X-352318Y155478D01*
X-360911Y158341D01*
X-363773Y161206D01*
X-366638Y166933D01*
X-1148331Y-133014D02*
G01*
X-1148331Y-193151D01*
X-1148331Y-133014D02*
G01*
X-1122558Y-133014D01*
X-1113967Y-135879D01*
X-1111105Y-138742D01*
X-1108240Y-144470D01*
X-1108240Y-150197D01*
X-1111105Y-155925D01*
X-1113967Y-158788D01*
X-1122558Y-161653D01*
X-1148331Y-161653D01*
X-1128285Y-161653D02*
G01*
X-1108240Y-193151D01*
X-1054976Y-133014D02*
G01*
X-1083612Y-133014D01*
X-1086477Y-158788D01*
X-1083612Y-155925D01*
X-1075021Y-153060D01*
X-1066431Y-153060D01*
X-1057841Y-155925D01*
X-1052113Y-161653D01*
X-1049248Y-170243D01*
X-1049248Y-175971D01*
X-1052113Y-184561D01*
X-1057841Y-190289D01*
X-1066431Y-193151D01*
X-1075021Y-193151D01*
X-1083612Y-190289D01*
X-1086477Y-187424D01*
X-1089339Y-181696D01*
X-160898Y206273D02*
G01*
X-163784Y212046D01*
X-169557Y217820D01*
X-175328Y220705D01*
X-186875Y220705D01*
X-192648Y217820D01*
X-198419Y212046D01*
X-201307Y206273D01*
X-204193Y197614D01*
X-204193Y183184D01*
X-201307Y174523D01*
X-198419Y168752D01*
X-192648Y162979D01*
X-186875Y160093D01*
X-175328Y160093D01*
X-169557Y162979D01*
X-163784Y168752D01*
X-160898Y174523D01*
X-138960Y206273D02*
G01*
X-138960Y209161D01*
X-136075Y214934D01*
X-133187Y217820D01*
X-127416Y220705D01*
X-115869Y220705D01*
X-110098Y217820D01*
X-107210Y214934D01*
X-104325Y209161D01*
X-104325Y203387D01*
X-107210Y197614D01*
X-112984Y188955D01*
X-141848Y160093D01*
X-101437Y160093D01*
X-198280Y-410276D02*
G01*
X-198280Y-470888D01*
X-198280Y-410276D02*
G01*
X-172303Y-410276D01*
X-163644Y-413161D01*
X-160756Y-416046D01*
X-157871Y-421820D01*
X-157871Y-427593D01*
X-160756Y-433367D01*
X-163644Y-436252D01*
X-172303Y-439138D01*
X-198280Y-439138D01*
X-178074Y-439138D02*
G01*
X-157871Y-470888D01*
X-135935Y-424708D02*
G01*
X-135935Y-421820D01*
X-133047Y-416046D01*
X-130162Y-413161D01*
X-124388Y-410276D01*
X-112844Y-410276D01*
X-107071Y-413161D01*
X-104185Y-416046D01*
X-101297Y-421820D01*
X-101297Y-427593D01*
X-104185Y-433367D01*
X-109956Y-442026D01*
X-138821Y-470888D01*
X-98412Y-470888D01*
X-209471Y-543732D02*
G01*
X-209471Y-604344D01*
X-209471Y-543732D02*
G01*
X-183494Y-543732D01*
X-174835Y-546618D01*
X-171947Y-549503D01*
X-169062Y-555277D01*
X-169062Y-561050D01*
X-171947Y-566823D01*
X-174835Y-569709D01*
X-183494Y-572594D01*
X-209471Y-572594D01*
X-189265Y-572594D02*
G01*
X-169062Y-604344D01*
X-144238Y-543732D02*
G01*
X-112488Y-543732D01*
X-129806Y-566823D01*
X-121147Y-566823D01*
X-115376Y-569709D01*
X-112488Y-572594D01*
X-109603Y-581253D01*
X-109603Y-587027D01*
X-112488Y-595685D01*
X-118262Y-601459D01*
X-126921Y-604344D01*
X-135580Y-604344D01*
X-144238Y-601459D01*
X-147126Y-598573D01*
X-150012Y-592800D01*
X-61688Y-543732D02*
G01*
X-90553Y-584141D01*
X-47256Y-584141D01*
X-61688Y-543732D02*
G01*
X-61688Y-604344D01*
X-635200Y197131D02*
G01*
X-640974Y194246D01*
X-646747Y188473D01*
X-649632Y182702D01*
X-649632Y171155D01*
X-646747Y165381D01*
X-640974Y159611D01*
X-635200Y156723D01*
X-626541Y153837D01*
X-612112Y153837D01*
X-603450Y156723D01*
X-597679Y159611D01*
X-591906Y165381D01*
X-589020Y171155D01*
X-589020Y182702D01*
X-591906Y188473D01*
X-597679Y194246D01*
X-603450Y197131D01*
X-629429Y253705D02*
G01*
X-620770Y250819D01*
X-614997Y245046D01*
X-612112Y236387D01*
X-612112Y233502D01*
X-614997Y224843D01*
X-620770Y219069D01*
X-629429Y216181D01*
X-632315Y216181D01*
X-640974Y219069D01*
X-646747Y224843D01*
X-649632Y233502D01*
X-649632Y236387D01*
X-646747Y245046D01*
X-640974Y250819D01*
X-629429Y253705D01*
X-614997Y253705D01*
X-600565Y250819D01*
X-591906Y245046D01*
X-589020Y236387D01*
X-589020Y230614D01*
X-591906Y221955D01*
X-597679Y219069D01*
X-849975Y431672D02*
G01*
X-849975Y371535D01*
X-849975Y431672D02*
G01*
X-829929Y431670D01*
X-821339Y428807D01*
X-815611Y423080D01*
X-812749Y417352D01*
X-809884Y408762D01*
X-809884Y394444D01*
X-812749Y385853D01*
X-815611Y380126D01*
X-821339Y374398D01*
X-829929Y371535D01*
X-849975Y371535D01*
X-790986Y420217D02*
G01*
X-785258Y423080D01*
X-776668Y431672D01*
X-776665Y371535D01*
X-1025911Y-129197D02*
G01*
X-1025911Y-189809D01*
X-1025911Y-129197D02*
G01*
X-1005705Y-129197D01*
X-997046Y-132082D01*
X-991275Y-137855D01*
X-988387Y-143629D01*
X-985502Y-152288D01*
X-985502Y-166717D01*
X-988387Y-175379D01*
X-991275Y-181150D01*
X-997046Y-186923D01*
X-1005705Y-189809D01*
X-1025911Y-189809D01*
X-963566Y-143629D02*
G01*
X-963566Y-140741D01*
X-960678Y-134970D01*
X-957793Y-132082D01*
X-952019Y-129197D01*
X-940475Y-129197D01*
X-934702Y-132082D01*
X-931816Y-134970D01*
X-928928Y-140741D01*
X-928928Y-146514D01*
X-931816Y-152288D01*
X-937587Y-160947D01*
X-966452Y-189809D01*
X-926043Y-189809D01*
X-1102149Y1678002D02*
G01*
X-1102149Y1634568D01*
X-1099355Y1625932D01*
X-1093513Y1620090D01*
X-1084877Y1617296D01*
X-1079035Y1617296D01*
X-1070399Y1620090D01*
X-1064557Y1625932D01*
X-1061763Y1634568D01*
X-1061763Y1678002D01*
X-1008169Y1669366D02*
G01*
X-1010963Y1674954D01*
X-1019599Y1678002D01*
X-1025441Y1678002D01*
X-1034077Y1674954D01*
X-1039919Y1666318D01*
X-1042713Y1651840D01*
X-1042713Y1637616D01*
X-1039919Y1625932D01*
X-1034077Y1620090D01*
X-1025441Y1617296D01*
X-1022647Y1617296D01*
X-1013757Y1620090D01*
X-1008169Y1625932D01*
X-1005121Y1634568D01*
X-1005121Y1637616D01*
X-1008169Y1646252D01*
X-1013757Y1651840D01*
X-1022647Y1654888D01*
X-1025441Y1654888D01*
X-1034077Y1651840D01*
X-1039919Y1646252D01*
X-1042713Y1637616D01*
X1483240Y1876930D02*
G01*
X1480446Y1882772D01*
X1474604Y1888360D01*
X1469016Y1891408D01*
X1457332Y1891408D01*
X1451490Y1888360D01*
X1445902Y1882772D01*
X1442854Y1876930D01*
X1440060Y1868294D01*
X1440060Y1853816D01*
X1442854Y1845180D01*
X1445902Y1839338D01*
X1451490Y1833496D01*
X1457332Y1830702D01*
X1469016Y1830702D01*
X1474604Y1833496D01*
X1480446Y1839338D01*
X1483240Y1845180D01*
X1505338Y1876930D02*
G01*
X1505338Y1879724D01*
X1508132Y1885566D01*
X1511180Y1888360D01*
X1516768Y1891408D01*
X1528452Y1891408D01*
X1534040Y1888360D01*
X1537088Y1885566D01*
X1539882Y1879724D01*
X1539882Y1874136D01*
X1537088Y1868294D01*
X1531246Y1859658D01*
X1502290Y1830702D01*
X1542930Y1830702D01*
X1590682Y1891408D02*
G01*
X1561980Y1851022D01*
X1605160Y1851022D01*
X1590682Y1891408D02*
G01*
X1590682Y1830702D01*
X-40205Y-314896D02*
G01*
X-46047Y-317690D01*
X-51889Y-323532D01*
X-54683Y-329374D01*
X-54683Y-340804D01*
X-51889Y-346646D01*
X-46047Y-352234D01*
X-40205Y-355282D01*
X-31569Y-358076D01*
X-17091Y-358076D01*
X-8455Y-355282D01*
X-2613Y-352234D01*
X2974Y-346646D01*
X6022Y-340804D01*
X6022Y-329374D01*
X2974Y-323532D01*
X-2613Y-317690D01*
X-8455Y-314896D01*
X-43253Y-295846D02*
G01*
X-46047Y-290004D01*
X-54683Y-281368D01*
X6022Y-281368D01*
X-54683Y-233362D02*
G01*
X-14297Y-262318D01*
X-14297Y-218884D01*
X-54683Y-233362D02*
G01*
X6022Y-233362D01*
X-623592Y1226334D02*
G01*
X-626386Y1232176D01*
X-632228Y1238018D01*
X-638070Y1240812D01*
X-649500Y1240812D01*
X-655342Y1238018D01*
X-660930Y1232176D01*
X-663978Y1226334D01*
X-666772Y1217698D01*
X-666772Y1203220D01*
X-663978Y1194584D01*
X-660930Y1188742D01*
X-655342Y1183154D01*
X-649500Y1180106D01*
X-638070Y1180106D01*
X-632228Y1183154D01*
X-626386Y1188742D01*
X-623592Y1194584D01*
X-604542Y1229382D02*
G01*
X-598700Y1232176D01*
X-590064Y1240812D01*
X-590064Y1180106D01*
X-536470Y1232176D02*
G01*
X-539264Y1238018D01*
X-547900Y1240812D01*
X-553742Y1240812D01*
X-562378Y1238018D01*
X-568220Y1229382D01*
X-571014Y1214904D01*
X-571014Y1200426D01*
X-568220Y1188742D01*
X-562378Y1183154D01*
X-553742Y1180106D01*
X-550694Y1180106D01*
X-542058Y1183154D01*
X-536470Y1188742D01*
X-533422Y1197632D01*
X-533422Y1200426D01*
X-536470Y1209062D01*
X-542058Y1214904D01*
X-550694Y1217698D01*
X-553742Y1217698D01*
X-562378Y1214904D01*
X-568220Y1209062D01*
X-571014Y1200426D01*
X1615798Y457283D02*
G01*
X1615798Y414103D01*
X1618592Y405213D01*
X1624434Y399625D01*
X1633070Y396577D01*
X1638912Y396577D01*
X1647548Y399625D01*
X1653390Y405213D01*
X1656184Y414103D01*
X1656184Y457283D01*
X1675234Y445853D02*
G01*
X1681076Y448647D01*
X1689712Y457283D01*
X1689712Y396577D01*
X1743306Y457283D02*
G01*
X1714350Y457283D01*
X1711556Y431375D01*
X1714350Y434169D01*
X1723240Y436963D01*
X1731876Y436963D01*
X1740512Y434169D01*
X1746100Y428327D01*
X1749148Y419691D01*
X1749148Y414103D01*
X1746100Y405213D01*
X1740512Y399625D01*
X1731876Y396577D01*
X1723240Y396577D01*
X1714350Y399625D01*
X1711556Y402419D01*
X1708762Y408261D01*
X-611703Y1769409D02*
G01*
X-550997Y1769409D01*
X-611703Y1769409D02*
G01*
X-611703Y1795317D01*
X-608655Y1803953D01*
X-605861Y1806747D01*
X-600019Y1809795D01*
X-594177Y1809795D01*
X-588589Y1806747D01*
X-585541Y1803953D01*
X-582747Y1795317D01*
X-582747Y1769409D01*
X-582747Y1789475D02*
G01*
X-550997Y1809795D01*
X-597225Y1831639D02*
G01*
X-600019Y1831639D01*
X-605861Y1834433D01*
X-608655Y1837481D01*
X-611703Y1843323D01*
X-611703Y1854753D01*
X-608655Y1860595D01*
X-605861Y1863389D01*
X-600019Y1866183D01*
X-594177Y1866183D01*
X-588589Y1863389D01*
X-579953Y1857547D01*
X-550997Y1828845D01*
X-550997Y1869231D01*
X-611703Y1916983D02*
G01*
X-571317Y1888281D01*
X-571317Y1931461D01*
X-611703Y1916983D02*
G01*
X-550997Y1916983D01*
X1159591Y700384D02*
G01*
X1156797Y706226D01*
X1150955Y711814D01*
X1145367Y714862D01*
X1133683Y714862D01*
X1127841Y711814D01*
X1122253Y706226D01*
X1119205Y700384D01*
X1116411Y691748D01*
X1116411Y677270D01*
X1119205Y668634D01*
X1122253Y662792D01*
X1127841Y656950D01*
X1133683Y654156D01*
X1145367Y654156D01*
X1150955Y656950D01*
X1156797Y662792D01*
X1159591Y668634D01*
X1181689Y700384D02*
G01*
X1181689Y703178D01*
X1184483Y709020D01*
X1187531Y711814D01*
X1193119Y714862D01*
X1204803Y714862D01*
X1210391Y711814D01*
X1213439Y709020D01*
X1216233Y703178D01*
X1216233Y697590D01*
X1213439Y691748D01*
X1207597Y683112D01*
X1178641Y654156D01*
X1219281Y654156D01*
X1272875Y714862D02*
G01*
X1243919Y714862D01*
X1241125Y688700D01*
X1243919Y691748D01*
X1252555Y694542D01*
X1261191Y694542D01*
X1270081Y691748D01*
X1275669Y685906D01*
X1278717Y677270D01*
X1278717Y671428D01*
X1275669Y662792D01*
X1270081Y656950D01*
X1261191Y654156D01*
X1252555Y654156D01*
X1243919Y656950D01*
X1241125Y659998D01*
X1238331Y665840D01*
X1108623Y1212331D02*
G01*
X1169329Y1212331D01*
X1108623Y1212331D02*
G01*
X1108623Y1238239D01*
X1111671Y1246875D01*
X1114465Y1249923D01*
X1120307Y1252717D01*
X1125895Y1252717D01*
X1131737Y1249923D01*
X1134785Y1246875D01*
X1137579Y1238239D01*
X1137579Y1212331D01*
X1137579Y1232651D02*
G01*
X1169329Y1252717D01*
X1123101Y1274561D02*
G01*
X1120307Y1274561D01*
X1114465Y1277609D01*
X1111671Y1280403D01*
X1108623Y1286245D01*
X1108623Y1297675D01*
X1111671Y1303517D01*
X1114465Y1306311D01*
X1120307Y1309359D01*
X1125895Y1309359D01*
X1131737Y1306311D01*
X1140373Y1300723D01*
X1169329Y1271767D01*
X1169329Y1312153D01*
X1108623Y1348475D02*
G01*
X1111671Y1339839D01*
X1120307Y1334251D01*
X1134785Y1331203D01*
X1143421Y1331203D01*
X1157645Y1334251D01*
X1166535Y1339839D01*
X1169329Y1348475D01*
X1169329Y1354317D01*
X1166535Y1362953D01*
X1157645Y1368795D01*
X1143421Y1371589D01*
X1134785Y1371589D01*
X1120307Y1368795D01*
X1111671Y1362953D01*
X1108623Y1354317D01*
X1108623Y1348475D01*
X1419344Y1210825D02*
G01*
X1480050Y1210825D01*
X1419344Y1210825D02*
G01*
X1419344Y1236733D01*
X1422138Y1245369D01*
X1425186Y1248417D01*
X1430774Y1251211D01*
X1436616Y1251211D01*
X1442458Y1248417D01*
X1445252Y1245369D01*
X1448300Y1236733D01*
X1448300Y1210825D01*
X1448300Y1230891D02*
G01*
X1480050Y1251211D01*
X1430774Y1270261D02*
G01*
X1427980Y1276103D01*
X1419344Y1284739D01*
X1480050Y1284739D01*
X1427980Y1338333D02*
G01*
X1422138Y1335539D01*
X1419344Y1326903D01*
X1419344Y1321061D01*
X1422138Y1312425D01*
X1430774Y1306583D01*
X1445252Y1303789D01*
X1459730Y1303789D01*
X1471414Y1306583D01*
X1477002Y1312425D01*
X1480050Y1321061D01*
X1480050Y1323855D01*
X1477002Y1332491D01*
X1471414Y1338333D01*
X1462524Y1341127D01*
X1459730Y1341127D01*
X1451094Y1338333D01*
X1445252Y1332491D01*
X1442458Y1323855D01*
X1442458Y1321061D01*
X1445252Y1312425D01*
X1451094Y1306583D01*
X1459730Y1303789D01*
X1159337Y590402D02*
G01*
X1156543Y596244D01*
X1150701Y601832D01*
X1145113Y604880D01*
X1133429Y604880D01*
X1127587Y601832D01*
X1121999Y596244D01*
X1118951Y590402D01*
X1116157Y581766D01*
X1116157Y567288D01*
X1118951Y558652D01*
X1121999Y552810D01*
X1127587Y546968D01*
X1133429Y544174D01*
X1145113Y544174D01*
X1150701Y546968D01*
X1156543Y552810D01*
X1159337Y558652D01*
X1181435Y590402D02*
G01*
X1181435Y593196D01*
X1184229Y599038D01*
X1187277Y601832D01*
X1192865Y604880D01*
X1204549Y604880D01*
X1210137Y601832D01*
X1213185Y599038D01*
X1215979Y593196D01*
X1215979Y587608D01*
X1213185Y581766D01*
X1207343Y573130D01*
X1178387Y544174D01*
X1219027Y544174D01*
X1272621Y596244D02*
G01*
X1269827Y601832D01*
X1260937Y604880D01*
X1255349Y604880D01*
X1246713Y601832D01*
X1240871Y593196D01*
X1238077Y578718D01*
X1238077Y564494D01*
X1240871Y552810D01*
X1246713Y546968D01*
X1255349Y544174D01*
X1258143Y544174D01*
X1266779Y546968D01*
X1272621Y552810D01*
X1275415Y561446D01*
X1275415Y564494D01*
X1272621Y573130D01*
X1266779Y578718D01*
X1258143Y581766D01*
X1255349Y581766D01*
X1246713Y578718D01*
X1240871Y573130D01*
X1238077Y564494D01*
X725843Y-408124D02*
G01*
X786549Y-408124D01*
X725843Y-408124D02*
G01*
X725843Y-382216D01*
X728637Y-373580D01*
X731685Y-370532D01*
X737273Y-367738D01*
X743115Y-367738D01*
X748957Y-370532D01*
X751751Y-373580D01*
X754799Y-382216D01*
X754799Y-408124D01*
X754799Y-388058D02*
G01*
X786549Y-367738D01*
X725843Y-342846D02*
G01*
X725843Y-311096D01*
X748957Y-328622D01*
X748957Y-319732D01*
X751751Y-314144D01*
X754799Y-311096D01*
X763435Y-308302D01*
X769023Y-308302D01*
X777913Y-311096D01*
X783501Y-316938D01*
X786549Y-325574D01*
X786549Y-334210D01*
X783501Y-342846D01*
X780707Y-345894D01*
X774865Y-348688D01*
X725843Y-271980D02*
G01*
X728637Y-280616D01*
X737273Y-286458D01*
X751751Y-289252D01*
X760387Y-289252D01*
X774865Y-286458D01*
X783501Y-280616D01*
X786549Y-271980D01*
X786549Y-266138D01*
X783501Y-257502D01*
X774865Y-251660D01*
X760387Y-248866D01*
X751751Y-248866D01*
X737273Y-251660D01*
X728637Y-257502D01*
X725843Y-266138D01*
X725843Y-271980D01*
X558596Y219278D02*
G01*
X558596Y158572D01*
X558596Y219278D02*
G01*
X584504Y219278D01*
X593140Y216484D01*
X596188Y213436D01*
X598982Y207848D01*
X598982Y202006D01*
X596188Y196164D01*
X593140Y193370D01*
X584504Y190322D01*
X558596Y190322D01*
X578662Y190322D02*
G01*
X598982Y158572D01*
X620826Y204800D02*
G01*
X620826Y207848D01*
X623874Y213436D01*
X626668Y216484D01*
X632510Y219278D01*
X643940Y219278D01*
X649782Y216484D01*
X652576Y213436D01*
X655624Y207848D01*
X655624Y202006D01*
X652576Y196164D01*
X646988Y187528D01*
X618032Y158572D01*
X658418Y158572D01*
X715060Y198958D02*
G01*
X712012Y190322D01*
X706424Y184734D01*
X697788Y181686D01*
X694740Y181686D01*
X686104Y184734D01*
X680262Y190322D01*
X677468Y198958D01*
X677468Y202006D01*
X680262Y210642D01*
X686104Y216484D01*
X694740Y219278D01*
X697788Y219278D01*
X706424Y216484D01*
X712012Y210642D01*
X715060Y198958D01*
X715060Y184734D01*
X712012Y170256D01*
X706424Y161620D01*
X697788Y158572D01*
X691946Y158572D01*
X683310Y161620D01*
X680262Y167208D01*
X429740Y216542D02*
G01*
X429740Y155836D01*
X429740Y216542D02*
G01*
X455648Y216542D01*
X464284Y213748D01*
X467332Y210700D01*
X470126Y205112D01*
X470126Y199270D01*
X467332Y193428D01*
X464284Y190634D01*
X455648Y187586D01*
X429740Y187586D01*
X449806Y187586D02*
G01*
X470126Y155836D01*
X489176Y205112D02*
G01*
X495018Y207906D01*
X503654Y216542D01*
X503654Y155836D01*
X522704Y205112D02*
G01*
X528292Y207906D01*
X537182Y216542D01*
X537182Y155836D01*
X190350Y121831D02*
G01*
X190350Y78397D01*
X193144Y69761D01*
X198986Y63919D01*
X207622Y61125D01*
X213464Y61125D01*
X222100Y63919D01*
X227688Y69761D01*
X230736Y78397D01*
X230736Y121831D01*
X255374Y121831D02*
G01*
X287124Y121831D01*
X269852Y98717D01*
X278488Y98717D01*
X284330Y95669D01*
X287124Y92875D01*
X290172Y84239D01*
X290172Y78397D01*
X287124Y69761D01*
X281536Y63919D01*
X272900Y61125D01*
X264264Y61125D01*
X255374Y63919D01*
X252580Y66967D01*
X249786Y72555D01*
D11*
X1453812Y1196754D02*
G01*
X1453812Y1153320D01*
X1456606Y1144684D01*
X1462448Y1139096D01*
X1471084Y1136048D01*
X1476926Y1136048D01*
X1485562Y1139096D01*
X1491404Y1144684D01*
X1494198Y1153320D01*
X1494198Y1196754D01*
X1527726Y1196754D02*
G01*
X1519090Y1193960D01*
X1516042Y1188118D01*
X1516042Y1182276D01*
X1519090Y1176434D01*
X1524678Y1173640D01*
X1536362Y1170846D01*
X1544998Y1167798D01*
X1550840Y1162210D01*
X1553634Y1156368D01*
X1553634Y1147732D01*
X1550840Y1141890D01*
X1547792Y1139096D01*
X1539156Y1136048D01*
X1527726Y1136048D01*
X1519090Y1139096D01*
X1516042Y1141890D01*
X1513248Y1147732D01*
X1513248Y1156368D01*
X1516042Y1162210D01*
X1521884Y1167798D01*
X1530520Y1170846D01*
X1542204Y1173640D01*
X1547792Y1176434D01*
X1550840Y1182276D01*
X1550840Y1188118D01*
X1547792Y1193960D01*
X1539156Y1196754D01*
X1527726Y1196754D01*
X1113421Y2217458D02*
G01*
X1113421Y2169706D01*
X1116469Y2160054D01*
X1122819Y2153704D01*
X1132471Y2150656D01*
X1138821Y2150656D01*
X1148473Y2153704D01*
X1154823Y2160054D01*
X1157871Y2169706D01*
X1157871Y2217458D01*
X1178953Y2204758D02*
G01*
X1185303Y2207806D01*
X1194701Y2217458D01*
X1194701Y2150656D01*
D10*
X1367657Y1788332D02*
G01*
X1367657Y1745152D01*
X1370451Y1736516D01*
X1376293Y1730674D01*
X1384929Y1727626D01*
X1390771Y1727626D01*
X1399407Y1730674D01*
X1404995Y1736516D01*
X1408043Y1745152D01*
X1408043Y1788332D01*
X1461637Y1788332D02*
G01*
X1432935Y1788332D01*
X1429887Y1762424D01*
X1432935Y1765218D01*
X1441571Y1768266D01*
X1450207Y1768266D01*
X1458843Y1765218D01*
X1464685Y1759376D01*
X1467479Y1750740D01*
X1467479Y1745152D01*
X1464685Y1736516D01*
X1458843Y1730674D01*
X1450207Y1727626D01*
X1441571Y1727626D01*
X1432935Y1730674D01*
X1429887Y1733468D01*
X1427093Y1739310D01*
D11*
X1104361Y1500296D02*
G01*
X1165067Y1500296D01*
X1104361Y1500296D02*
G01*
X1104361Y1526204D01*
X1107155Y1534840D01*
X1110203Y1537888D01*
X1115791Y1540682D01*
X1121633Y1540682D01*
X1127475Y1537888D01*
X1130269Y1534840D01*
X1133317Y1526204D01*
X1133317Y1500296D01*
X1133317Y1520362D02*
G01*
X1165067Y1540682D01*
X1115791Y1559732D02*
G01*
X1112997Y1565574D01*
X1104361Y1574210D01*
X1165067Y1574210D01*
X1124681Y1630598D02*
G01*
X1133317Y1627804D01*
X1138905Y1621962D01*
X1141953Y1613326D01*
X1141953Y1610532D01*
X1138905Y1601896D01*
X1133317Y1596054D01*
X1124681Y1593260D01*
X1121633Y1593260D01*
X1112997Y1596054D01*
X1107155Y1601896D01*
X1104361Y1610532D01*
X1104361Y1613326D01*
X1107155Y1621962D01*
X1112997Y1627804D01*
X1124681Y1630598D01*
X1138905Y1630598D01*
X1153383Y1627804D01*
X1162019Y1621962D01*
X1165067Y1613326D01*
X1165067Y1607738D01*
X1162019Y1598848D01*
X1156431Y1596054D01*
X1423131Y1495724D02*
G01*
X1483837Y1495724D01*
X1423131Y1495724D02*
G01*
X1423131Y1521632D01*
X1425925Y1530268D01*
X1428973Y1533316D01*
X1434561Y1536110D01*
X1440403Y1536110D01*
X1446245Y1533316D01*
X1449039Y1530268D01*
X1452087Y1521632D01*
X1452087Y1495724D01*
X1452087Y1515790D02*
G01*
X1483837Y1536110D01*
X1434561Y1555160D02*
G01*
X1431767Y1561002D01*
X1423131Y1569638D01*
X1483837Y1569638D01*
X1423131Y1603166D02*
G01*
X1425925Y1594276D01*
X1431767Y1591482D01*
X1437609Y1591482D01*
X1443451Y1594276D01*
X1446245Y1600118D01*
X1449039Y1611802D01*
X1452087Y1620438D01*
X1457675Y1626026D01*
X1463517Y1629074D01*
X1472153Y1629074D01*
X1477995Y1626026D01*
X1480789Y1623232D01*
X1483837Y1614596D01*
X1483837Y1603166D01*
X1480789Y1594276D01*
X1477995Y1591482D01*
X1472153Y1588688D01*
X1463517Y1588688D01*
X1457675Y1591482D01*
X1452087Y1597324D01*
X1449039Y1605960D01*
X1446245Y1617390D01*
X1443451Y1623232D01*
X1437609Y1626026D01*
X1431767Y1626026D01*
X1425925Y1623232D01*
X1423131Y1614596D01*
X1423131Y1603166D01*
D10*
X-662063Y2144311D02*
G01*
X-664857Y2150153D01*
X-670699Y2155995D01*
X-676541Y2158789D01*
X-687971Y2158789D01*
X-693813Y2155995D01*
X-699401Y2150153D01*
X-702449Y2144311D01*
X-705243Y2135675D01*
X-705243Y2121197D01*
X-702449Y2112561D01*
X-699401Y2106719D01*
X-693813Y2101131D01*
X-687971Y2098083D01*
X-676541Y2098083D01*
X-670699Y2101131D01*
X-664857Y2106719D01*
X-662063Y2112561D01*
X-608215Y2150153D02*
G01*
X-611263Y2155995D01*
X-619899Y2158789D01*
X-625741Y2158789D01*
X-634377Y2155995D01*
X-639965Y2147359D01*
X-643013Y2132881D01*
X-643013Y2118403D01*
X-639965Y2106719D01*
X-634377Y2101131D01*
X-625741Y2098083D01*
X-622693Y2098083D01*
X-614057Y2101131D01*
X-608215Y2106719D01*
X-605421Y2115609D01*
X-605421Y2118403D01*
X-608215Y2127039D01*
X-614057Y2132881D01*
X-622693Y2135675D01*
X-625741Y2135675D01*
X-634377Y2132881D01*
X-639965Y2127039D01*
X-643013Y2118403D01*
X1827281Y1109324D02*
G01*
X1827281Y1048618D01*
X1867667Y1109324D02*
G01*
X1867667Y1048618D01*
X1827281Y1080368D02*
G01*
X1867667Y1080368D01*
X1889511Y1094846D02*
G01*
X1889511Y1097640D01*
X1892559Y1103482D01*
X1895353Y1106276D01*
X1901195Y1109324D01*
X1912625Y1109324D01*
X1918467Y1106276D01*
X1921261Y1103482D01*
X1924309Y1097640D01*
X1924309Y1091798D01*
X1921261Y1086210D01*
X1915673Y1077574D01*
X1886717Y1048618D01*
X1927103Y1048618D01*
X2058870Y405594D02*
G01*
X2058870Y362414D01*
X2061918Y353778D01*
X2067506Y347936D01*
X2076142Y345142D01*
X2081984Y345142D01*
X2090620Y347936D01*
X2096462Y353778D01*
X2099256Y362414D01*
X2099256Y405594D01*
X2158692Y405594D02*
G01*
X2129990Y345142D01*
X2118306Y405594D02*
G01*
X2158692Y405594D01*
D12*
X-573857Y-246794D02*
G01*
X-568119Y-246794D01*
X-568119Y-411894D01*
X-763851Y-246794D02*
G01*
X-677186Y-246794D01*
X-772185Y-411894D02*
G01*
X-872919Y-411894D01*
X-872919Y-246794D01*
X-867178Y-246794D01*
X-568119Y-411894D02*
G01*
X-668853Y-411894D01*
D11*
X1238473Y278168D02*
G01*
X1192921Y278168D01*
X1192921Y200047D01*
X1238473Y200047D01*
X1271711Y278168D02*
G01*
X1317264Y278168D01*
X1317264Y200047D01*
X1271711Y200047D01*
X1237711Y357162D02*
G01*
X1192159Y357162D01*
X1192159Y279041D01*
X1237711Y279041D01*
X1270949Y357162D02*
G01*
X1316502Y357162D01*
X1316502Y279041D01*
X1270949Y279041D01*
X1236949Y450126D02*
G01*
X1191397Y450126D01*
X1191397Y372005D01*
X1236949Y372005D01*
X1270187Y450126D02*
G01*
X1315740Y450126D01*
X1315740Y372005D01*
X1270187Y372005D01*
X1240251Y536232D02*
G01*
X1194699Y536232D01*
X1194699Y458111D01*
X1240251Y458111D01*
X1273489Y536232D02*
G01*
X1319042Y536232D01*
X1319042Y458111D01*
X1273489Y458111D01*
X-943025Y1211041D02*
G01*
X-943025Y1290050D01*
X-1042746Y1290050D02*
G01*
X-1042746Y1211041D01*
X-1027506Y1195801D02*
G01*
X-958265Y1195801D01*
X-943025Y1414302D02*
G01*
X-943025Y1335293D01*
X-1042746Y1335293D02*
G01*
X-1042746Y1414302D01*
X-1027506Y1429542D02*
G01*
X-958265Y1429542D01*
D13*
X-375920Y-272000D02*
G01*
X-375920Y7907D01*
X-375920Y7907D02*
G01*
X-275843Y7907D01*
X-275843Y-272000D01*
X-375920Y-272000D01*
D11*
X-436641Y50215D02*
G01*
X-508444Y50215D01*
X-508444Y149936D01*
X-436641Y149936D01*
X-391398Y50215D02*
G01*
X-319595Y50215D01*
X-319595Y149936D01*
X-391398Y149936D01*
X-1067993Y-35575D02*
G01*
X-1067993Y-107378D01*
X-1167714Y-107378D01*
X-1167714Y-35575D01*
X-1067993Y9667D02*
G01*
X-1067993Y81470D01*
X-1167714Y81470D01*
X-1167714Y9667D01*
X-39339Y149428D02*
G01*
X-118351Y149428D01*
X-118348Y49707D02*
G01*
X-39339Y49707D01*
X-24099Y64947D02*
G01*
X-24099Y134188D01*
X-242600Y149428D02*
G01*
X-163591Y149428D01*
X-163588Y49707D02*
G01*
X-242600Y49707D01*
X-257840Y64947D02*
G01*
X-257840Y134188D01*
X-354345Y-502234D02*
G01*
X-426148Y-502234D01*
X-426148Y-402513D01*
X-354345Y-402513D01*
X-309102Y-502234D02*
G01*
X-237299Y-502234D01*
X-237299Y-402513D01*
X-309102Y-402513D01*
X-310880Y-517829D02*
G01*
X-239077Y-517829D01*
X-239077Y-617550D01*
X-310880Y-617550D01*
X-356123Y-517829D02*
G01*
X-427926Y-517829D01*
X-427926Y-617550D01*
X-356123Y-617550D01*
X-569137Y-82072D02*
G01*
X-569137Y-3063D01*
X-668858Y-3063D02*
G01*
X-668858Y-82072D01*
X-653618Y-97312D02*
G01*
X-584377Y-97312D01*
X-569137Y121188D02*
G01*
X-569137Y42179D01*
X-668858Y42179D02*
G01*
X-668858Y121188D01*
X-653618Y136428D02*
G01*
X-584377Y136428D01*
D14*
X-879642Y-29791D02*
G01*
X-879642Y-60713D01*
X-723615Y-29791D02*
G01*
X-723615Y-60713D01*
X-723615Y-39817D02*
G01*
X-701629Y-39817D01*
X-901628Y-39817D02*
G01*
X-879642Y-39817D01*
X-879640Y-49844D02*
G01*
X-901628Y-49844D01*
X-701631Y-49844D02*
G01*
X-723615Y-49844D01*
X-723615Y-29791D02*
G01*
X-701629Y-29791D01*
X-901628Y-29791D02*
G01*
X-879642Y-29791D01*
X-879642Y309285D02*
G01*
X-901628Y309285D01*
X-901628Y249285D01*
X-723615Y-60713D02*
G01*
X-701629Y-60713D01*
X-701631Y289285D01*
X-701629Y309285D01*
X-723615Y309285D01*
X-901628Y269285D02*
G01*
X-901628Y-60713D01*
X-879642Y-60713D01*
D13*
X-801629Y78483D02*
G01*
X-842269Y180086D01*
X-842269Y180086D02*
G01*
X-760989Y180086D01*
X-760989Y180086D02*
G01*
X-801629Y78483D01*
D14*
X-1044765Y-77190D02*
G01*
X-1044765Y52809D01*
X-951166Y52806D02*
G01*
X-951166Y-77193D01*
D15*
X-974631Y1765744D02*
G01*
X-664624Y1765741D01*
X-664624Y1455737D02*
G01*
X-664624Y1765741D01*
X-974628Y1455864D02*
G01*
X-664624Y1455864D01*
X-977044Y1765744D02*
G01*
X-977044Y1681924D01*
X-977044Y1539684D02*
G01*
X-977044Y1455864D01*
D11*
X1201181Y1844085D02*
G01*
X1280190Y1844085D01*
X1280190Y1943806D02*
G01*
X1201181Y1943806D01*
X1185941Y1928563D02*
G01*
X1185941Y1859328D01*
X1404442Y1844085D02*
G01*
X1325432Y1844085D01*
X1325432Y1943806D02*
G01*
X1404442Y1943806D01*
X1419682Y1928563D02*
G01*
X1419682Y1859328D01*
X-74924Y11922D02*
G01*
X-74924Y-67086D01*
X24795Y-67086D02*
G01*
X24795Y11922D01*
X9555Y27162D02*
G01*
X-59684Y27162D01*
X-74924Y-191338D02*
G01*
X-74924Y-112328D01*
X24795Y-112328D02*
G01*
X24795Y-191338D01*
X9555Y-206578D02*
G01*
X-59684Y-206578D01*
X-656838Y1476994D02*
G01*
X-656838Y1397985D01*
X-557118Y1397985D02*
G01*
X-557118Y1476994D01*
X-572358Y1492234D02*
G01*
X-641598Y1492234D01*
X-656838Y1273733D02*
G01*
X-656838Y1352743D01*
X-557118Y1352743D02*
G01*
X-557118Y1273733D01*
X-572358Y1258493D02*
G01*
X-641598Y1258493D01*
D13*
X1512506Y335155D02*
G01*
X1512506Y295960D01*
X1512506Y74734D02*
G01*
X1512506Y35153D01*
X1812508Y35153D02*
G01*
X1812508Y74734D01*
X1812508Y295960D02*
G01*
X1812508Y335155D01*
X1512506Y335155D02*
G01*
X1552033Y335155D01*
X1773107Y335155D02*
G01*
X1812508Y335155D01*
X1512506Y35153D02*
G01*
X1552033Y35153D01*
X1773260Y35153D02*
G01*
X1812508Y35153D01*
D11*
X-528162Y1625285D02*
G01*
X-528162Y1553481D01*
X-627882Y1553481D01*
X-627882Y1625285D01*
X-528162Y1670527D02*
G01*
X-528162Y1742330D01*
X-627882Y1742330D01*
X-627882Y1670527D01*
X1514713Y739424D02*
G01*
X1435704Y739424D01*
X1435704Y639704D02*
G01*
X1514713Y639704D01*
X1529953Y654944D02*
G01*
X1529953Y724184D01*
X1311452Y739424D02*
G01*
X1390462Y739424D01*
X1390462Y639704D02*
G01*
X1311452Y639704D01*
X1296212Y654944D02*
G01*
X1296212Y724184D01*
X1185407Y1298453D02*
G01*
X1185407Y1370256D01*
X1285128Y1370256D01*
X1285128Y1298453D01*
X1185407Y1253210D02*
G01*
X1185407Y1181407D01*
X1285128Y1181407D01*
X1285128Y1253210D01*
X1302501Y1299723D02*
G01*
X1302501Y1371526D01*
X1402222Y1371526D01*
X1402222Y1299723D01*
X1302501Y1254480D02*
G01*
X1302501Y1182677D01*
X1402222Y1182677D01*
X1402222Y1254480D01*
X1512681Y622330D02*
G01*
X1433672Y622330D01*
X1433672Y522610D02*
G01*
X1512681Y522610D01*
X1527921Y537850D02*
G01*
X1527921Y607090D01*
X1309420Y622330D02*
G01*
X1388430Y622330D01*
X1388430Y522610D02*
G01*
X1309420Y522610D01*
X1294180Y537850D02*
G01*
X1294180Y607090D01*
X718875Y-185021D02*
G01*
X718875Y-230573D01*
X796996Y-230573D01*
X796996Y-185021D01*
X718875Y-151782D02*
G01*
X718875Y-106230D01*
X796996Y-106230D01*
X796996Y-151782D01*
X614570Y145740D02*
G01*
X569018Y145740D01*
X569018Y67619D01*
X614570Y67619D01*
X647809Y145740D02*
G01*
X693361Y145740D01*
X693361Y67619D01*
X647809Y67619D01*
X499219Y66857D02*
G01*
X544771Y66857D01*
X544771Y144978D01*
X499219Y144978D01*
X465980Y66857D02*
G01*
X420428Y66857D01*
X420428Y144978D01*
X465980Y144978D01*
X161036Y-853630D02*
G01*
X98526Y-853630D01*
X98526Y-853630D01*
X98526Y-38392D01*
X98526Y-38392D01*
X161036Y-38392D01*
X651256Y-853630D02*
G01*
X713765Y-853630D01*
X713765Y-853630D01*
X713765Y-38392D01*
X713765Y-38392D01*
X651256Y-38392D01*
D16*
X1514370Y799614D02*
G01*
X1514370Y772114D01*
X1444370Y772114D01*
X1239372Y772114D02*
G01*
X1169370Y772114D01*
X1169370Y799614D01*
X1514370Y1089614D02*
G01*
X1514370Y1117114D01*
X1444370Y1117114D01*
X1239372Y1117114D02*
G01*
X1169370Y1117114D01*
X1169370Y1089614D01*
D10*
X-472993Y1776811D02*
G01*
X-472993Y2281814D01*
X1067008Y2281814D01*
X1067008Y1776811D01*
X1067008Y231830D02*
G01*
X-472993Y231830D01*
D11*
X1345892Y1703915D02*
G01*
X1250652Y1703915D01*
X1250652Y1799155D01*
X1345892Y1799155D01*
X1345892Y1703915D01*
X1186693Y1580865D02*
G01*
X1186693Y1652668D01*
X1286413Y1652668D01*
X1286413Y1580865D01*
X1186693Y1535623D02*
G01*
X1186693Y1463819D01*
X1286413Y1463819D01*
X1286413Y1535623D01*
X1306581Y1580611D02*
G01*
X1306581Y1652414D01*
X1406301Y1652414D01*
X1406301Y1580611D01*
X1306581Y1535369D02*
G01*
X1306581Y1463565D01*
X1406301Y1463565D01*
X1406301Y1535369D01*
X-787349Y1980316D02*
G01*
X-708339Y1980316D01*
X-708339Y2080036D02*
G01*
X-787349Y2080036D01*
X-802589Y2064796D02*
G01*
X-802589Y1995556D01*
X-584088Y1980316D02*
G01*
X-663097Y1980316D01*
X-663097Y2080036D02*
G01*
X-584088Y2080036D01*
X-568848Y2064796D02*
G01*
X-568848Y1995556D01*
D13*
X1630679Y588263D02*
G01*
X1630679Y893063D01*
X2037079Y588263D02*
G01*
X2037079Y893063D01*
X2472463Y471459D02*
G01*
X2472463Y423959D01*
X2172464Y1016467D02*
G01*
X2172464Y1063957D01*
X2472463Y1063957D01*
X2472463Y1016469D01*
X2472463Y423959D02*
G01*
X2172464Y423959D01*
X2172464Y471462D01*
D17*
X2353716Y951712D02*
G01*
X2353716Y886205D01*
X2291206Y886205D01*
X2291206Y951712D01*
X2353716Y951712D01*
X2382469Y598957D02*
G01*
X2382469Y528955D01*
X2262479Y528955D01*
X2262479Y598957D01*
X2382469Y598957D01*
D18*
G75*
G01*
X-617751Y1606944D02*
G03*
X-617751Y1606512I-10005J-216D01*
D11*
G75*
G01*
X-1042746Y1211042D02*
G03*
X-1027506Y1195802I15240J0D01*
G75*
G01*
X-958266Y1195802D02*
G03*
X-943026Y1211042I0J15240D01*
G75*
G01*
X-1042746Y1414302D02*
G02*
X-1027506Y1429542I15240J0D01*
G75*
G01*
X-958266Y1429542D02*
G02*
X-943026Y1414302I0J-15240D01*
D19*
G75*
G01*
X-478028Y47147D02*
G02*
X-478028Y46893I12445J-127D01*
D11*
G75*
G01*
X-39340Y49708D02*
G03*
X-24100Y64948I0J15240D01*
G75*
G01*
X-24100Y134188D02*
G03*
X-39340Y149428I-15240J0D01*
G75*
G01*
X-242600Y49708D02*
G02*
X-257840Y64948I0J15240D01*
G75*
G01*
X-257840Y134188D02*
G02*
X-242600Y149428I15240J0D01*
G75*
G01*
X-668858Y-82072D02*
G03*
X-653618Y-97312I15240J0D01*
G75*
G01*
X-584378Y-97312D02*
G03*
X-569138Y-82072I0J15240D01*
G75*
G01*
X-668858Y121188D02*
G02*
X-653618Y136428I15240J0D01*
G75*
G01*
X-584378Y136428D02*
G02*
X-569138Y121188I0J-15240D01*
D15*
G75*
G01*
X-977044Y1679384D02*
G02*
X-977044Y1539684I-21730J-69850D01*
D11*
G75*
G01*
X1201181Y1943806D02*
G03*
X1185941Y1928564I0J-15240D01*
G75*
G01*
X1185941Y1859328D02*
G03*
X1201181Y1844086I15240J-2D01*
G75*
G01*
X1404442Y1943806D02*
G02*
X1419682Y1928564I0J-15240D01*
G75*
G01*
X1419682Y1859328D02*
G02*
X1404442Y1844086I-15240J-2D01*
G75*
G01*
X24795Y11923D02*
G03*
X9555Y27163I-15240J0D01*
G75*
G01*
X-59685Y27163D02*
G03*
X-74925Y11923I0J-15240D01*
G75*
G01*
X24795Y-191338D02*
G02*
X9555Y-206578I-15240J0D01*
G75*
G01*
X-59685Y-206578D02*
G02*
X-74925Y-191338I0J15240D01*
G75*
G01*
X-557119Y1476995D02*
G03*
X-572359Y1492235I-15240J0D01*
G75*
G01*
X-641599Y1492235D02*
G03*
X-656839Y1476995I0J-15240D01*
G75*
G01*
X-557119Y1273734D02*
G02*
X-572359Y1258494I-15240J0D01*
G75*
G01*
X-641599Y1258494D02*
G02*
X-656839Y1273734I0J15240D01*
G75*
G01*
X1514714Y639704D02*
G03*
X1529954Y654944I0J15240D01*
G75*
G01*
X1529954Y724184D02*
G03*
X1514714Y739424I-15240J0D01*
G75*
G01*
X1311453Y639704D02*
G02*
X1296213Y654944I0J15240D01*
G75*
G01*
X1296213Y724184D02*
G02*
X1311453Y739424I15240J0D01*
G75*
G01*
X1512682Y522610D02*
G03*
X1527922Y537850I0J15240D01*
G75*
G01*
X1527922Y607090D02*
G03*
X1512682Y622330I-15240J0D01*
G75*
G01*
X1309421Y522610D02*
G02*
X1294181Y537850I0J15240D01*
G75*
G01*
X1294181Y607090D02*
G02*
X1309421Y622330I15240J0D01*
D20*
G75*
G01*
X1546850Y787133D02*
G03*
X1546850Y787387I12499J127D01*
D11*
G75*
G01*
X-787349Y2080036D02*
G03*
X-802589Y2064796I0J-15240D01*
G75*
G01*
X-802589Y1995556D02*
G03*
X-787349Y1980316I15240J0D01*
G75*
G01*
X-584088Y2080036D02*
G02*
X-568848Y2064796I0J-15240D01*
G75*
G01*
X-568848Y1995556D02*
G02*
X-584088Y1980316I-15240J0D01*
D15*
G75*
G01
X-907692Y1281168D02*
G03X-907692Y1281168I-10008J0D01*
G75*
G01
X2149706Y515358D02*
G03X2149706Y515358I-10008J0D01*
G75*
G01
X-686305Y-113800D02*
G03X-686305Y-113800I-14986J0D01*
G75*
G01
X-991004Y82034D02*
G03X-991004Y82034I-10008J0D01*
D12*
G75*
G01
X-695526Y-112682D02*
G03X-695526Y-112682I-5004J0D01*
D13*
G75*
G01
X1539065Y653D02*
G03X1539065Y653I-5436J0D01*
D21*
G75*
G01
X151945Y-890557D02*
G03X151945Y-890557I-12497J0D01*
D17*
G75*
G01
X1328677Y1827726D02*
G03X1328677Y1827726I-5004J0D01*
D13*
G75*
G01
X2100583Y969256D02*
G03X2100583Y969256I-25400J0D01*
D17*
G75*
G01
X2344829Y918964D02*
G03X2344829Y918964I-22352J0D01*
M02*
