G04 Layer: BottomSilkscreenLayer*
G04 Panelize: , Column: 1, Row: 1, Board Size: 43.14mm x 33.02mm, Panelized Board Size: 43.14mm x 33.02mm*
G04 EasyEDA v6.5.37, 2023-11-04 14:50:19*
G04 5fb9839a784f4b4dba235304687c7bf2,9a4ed40c0dd746429eaf55b84663d2fb,10*
G04 Gerber Generator version 0.2*
G04 Scale: 100 percent, Rotated: No, Reflected: No *
G04 Dimensions in millimeters *
G04 leading zeros omitted , absolute positions ,4 integer and 5 decimal *
%FSLAX45Y45*%
%MOMM*%

%ADD10C,0.1270*%
%ADD11C,0.1524*%
%ADD12C,0.1000*%
%ADD13C,0.0500*%
%ADD14C,0.1250*%
%ADD15C,0.0100*%
%ADD16C,0.2540*%
%ADD17C,0.1500*%
%ADD18C,0.3000*%
%ADD19C,0.2500*%
%ADD20C,0.0101*%

%LPD*%
D10*
X1209073Y-634337D02*
G01*
X1212253Y-627974D01*
X1218618Y-621609D01*
X1224981Y-618426D01*
X1237708Y-618426D01*
X1244071Y-621609D01*
X1250436Y-627974D01*
X1253616Y-634337D01*
X1256799Y-643882D01*
X1256799Y-659790D01*
X1253616Y-669335D01*
X1250436Y-675700D01*
X1244071Y-682063D01*
X1237708Y-685246D01*
X1224981Y-685246D01*
X1218618Y-682063D01*
X1212253Y-675700D01*
X1209073Y-669335D01*
X1209073Y-659790D01*
X1224981Y-659790D02*
G01*
X1209073Y-659790D01*
X1188072Y-618426D02*
G01*
X1188072Y-685246D01*
X1188072Y-618426D02*
G01*
X1159436Y-618426D01*
X1149891Y-621609D01*
X1146708Y-624791D01*
X1143528Y-631154D01*
X1143528Y-640699D01*
X1146708Y-647064D01*
X1149891Y-650245D01*
X1159436Y-653427D01*
X1188072Y-653427D01*
X1077981Y-627974D02*
G01*
X1084346Y-621609D01*
X1093891Y-618426D01*
X1106617Y-618426D01*
X1116162Y-621609D01*
X1122527Y-627974D01*
X1122527Y-634337D01*
X1119344Y-640699D01*
X1116162Y-643882D01*
X1109799Y-647064D01*
X1090709Y-653427D01*
X1084346Y-656610D01*
X1081163Y-659790D01*
X1077981Y-666155D01*
X1077981Y-675700D01*
X1084346Y-682063D01*
X1093891Y-685246D01*
X1106617Y-685246D01*
X1116162Y-682063D01*
X1122527Y-675700D01*
D11*
X1361099Y1620199D02*
G01*
X1313853Y1572953D01*
X1361099Y1620199D02*
G01*
X1340850Y1640448D01*
X1331851Y1644949D01*
X1327353Y1644949D01*
X1320601Y1642699D01*
X1316103Y1638200D01*
X1313853Y1631449D01*
X1313853Y1626951D01*
X1318351Y1617952D01*
X1338602Y1597703D02*
G01*
X1318351Y1617952D01*
X1309352Y1622450D01*
X1304853Y1622450D01*
X1298102Y1620199D01*
X1291353Y1613451D01*
X1289103Y1606702D01*
X1289103Y1602201D01*
X1293604Y1593202D01*
X1313853Y1572953D01*
X1301254Y1680047D02*
G01*
X1303502Y1673298D01*
X1303502Y1664299D01*
X1301254Y1657548D01*
X1296753Y1648548D01*
X1285504Y1637299D01*
X1276504Y1632800D01*
X1269756Y1630550D01*
X1260756Y1630550D01*
X1254005Y1632800D01*
X1245006Y1641800D01*
X1242755Y1648548D01*
X1242755Y1657548D01*
X1245006Y1664299D01*
X1249507Y1673298D01*
X1260756Y1684548D01*
X1269756Y1689046D01*
X1276504Y1691297D01*
X1285504Y1691297D01*
X1292252Y1689046D01*
X1301254Y1680047D01*
X1250406Y1730895D02*
G01*
X1252656Y1724144D01*
X1252656Y1715145D01*
X1250406Y1708396D01*
X1245905Y1699397D01*
X1234655Y1688147D01*
X1225656Y1683646D01*
X1218907Y1681398D01*
X1209908Y1681398D01*
X1203159Y1683646D01*
X1194158Y1692645D01*
X1191910Y1699397D01*
X1191910Y1708396D01*
X1194158Y1715145D01*
X1198659Y1724144D01*
X1209908Y1735394D01*
X1218907Y1739894D01*
X1225656Y1742145D01*
X1234655Y1742145D01*
X1241407Y1739894D01*
X1250406Y1730895D01*
X1197310Y1783991D02*
G01*
X1150061Y1736745D01*
X1213058Y1768243D02*
G01*
X1181559Y1799742D01*
D10*
X728118Y1711977D02*
G01*
X735390Y1719252D01*
X746300Y1722887D01*
X760846Y1722887D01*
X771756Y1719252D01*
X779028Y1711977D01*
X779028Y1704705D01*
X775390Y1697433D01*
X771756Y1693796D01*
X764481Y1690161D01*
X742665Y1682887D01*
X735390Y1679252D01*
X731756Y1675615D01*
X728118Y1668343D01*
X728118Y1657433D01*
X735390Y1650161D01*
X746300Y1646524D01*
X760846Y1646524D01*
X771756Y1650161D01*
X779028Y1657433D01*
X693209Y1722887D02*
G01*
X693209Y1661071D01*
X689574Y1650161D01*
X682299Y1646524D01*
X675027Y1646524D01*
X704118Y1697433D02*
G01*
X678665Y1697433D01*
X607392Y1697433D02*
G01*
X607392Y1646524D01*
X607392Y1686524D02*
G01*
X614664Y1693796D01*
X621936Y1697433D01*
X632846Y1697433D01*
X640118Y1693796D01*
X647392Y1686524D01*
X651027Y1675615D01*
X651027Y1668343D01*
X647392Y1657433D01*
X640118Y1650161D01*
X632846Y1646524D01*
X621936Y1646524D01*
X614664Y1650161D01*
X607392Y1657433D01*
X583392Y1697433D02*
G01*
X583392Y1646524D01*
X583392Y1675615D02*
G01*
X579754Y1686524D01*
X572482Y1693796D01*
X565210Y1697433D01*
X554301Y1697433D01*
X530301Y1722887D02*
G01*
X530301Y1646524D01*
X506300Y1722887D02*
G01*
X502665Y1719252D01*
X499028Y1722887D01*
X502665Y1726524D01*
X506300Y1722887D01*
X502665Y1697433D02*
G01*
X502665Y1646524D01*
X475028Y1697433D02*
G01*
X475028Y1646524D01*
X475028Y1682887D02*
G01*
X464118Y1693796D01*
X456846Y1697433D01*
X445937Y1697433D01*
X438665Y1693796D01*
X435028Y1682887D01*
X435028Y1646524D01*
X367393Y1697433D02*
G01*
X367393Y1639252D01*
X371027Y1628343D01*
X374665Y1624705D01*
X381937Y1621071D01*
X392846Y1621071D01*
X400118Y1624705D01*
X367393Y1686524D02*
G01*
X374665Y1693796D01*
X381937Y1697433D01*
X392846Y1697433D01*
X400118Y1693796D01*
X407393Y1686524D01*
X411027Y1675615D01*
X411027Y1668343D01*
X407393Y1657433D01*
X400118Y1650161D01*
X392846Y1646524D01*
X381937Y1646524D01*
X374665Y1650161D01*
X367393Y1657433D01*
X287393Y1722887D02*
G01*
X269212Y1646524D01*
X251028Y1722887D02*
G01*
X269212Y1646524D01*
X251028Y1722887D02*
G01*
X232846Y1646524D01*
X214665Y1722887D02*
G01*
X232846Y1646524D01*
X147030Y1697433D02*
G01*
X147030Y1646524D01*
X147030Y1686524D02*
G01*
X154302Y1693796D01*
X161574Y1697433D01*
X172483Y1697433D01*
X179755Y1693796D01*
X187030Y1686524D01*
X190665Y1675615D01*
X190665Y1668343D01*
X187030Y1657433D01*
X179755Y1650161D01*
X172483Y1646524D01*
X161574Y1646524D01*
X154302Y1650161D01*
X147030Y1657433D01*
X112120Y1722887D02*
G01*
X112120Y1661071D01*
X108483Y1650161D01*
X101211Y1646524D01*
X93939Y1646524D01*
X123029Y1697433D02*
G01*
X97574Y1697433D01*
X26301Y1686524D02*
G01*
X33576Y1693796D01*
X40848Y1697433D01*
X51757Y1697433D01*
X59029Y1693796D01*
X66301Y1686524D01*
X69938Y1675615D01*
X69938Y1668343D01*
X66301Y1657433D01*
X59029Y1650161D01*
X51757Y1646524D01*
X40848Y1646524D01*
X33576Y1650161D01*
X26301Y1657433D01*
X2301Y1722887D02*
G01*
X2301Y1646524D01*
X2301Y1682887D02*
G01*
X-8605Y1693796D01*
X-15880Y1697433D01*
X-26789Y1697433D01*
X-34061Y1693796D01*
X-37698Y1682887D01*
X-37698Y1646524D01*
X-121333Y1704705D02*
G01*
X-121333Y1708343D01*
X-124970Y1715615D01*
X-128605Y1719252D01*
X-135879Y1722887D01*
X-150423Y1722887D01*
X-157698Y1719252D01*
X-161333Y1715615D01*
X-164970Y1708343D01*
X-164970Y1701071D01*
X-161333Y1693796D01*
X-154061Y1682887D01*
X-117698Y1646524D01*
X-168605Y1646524D01*
X-214424Y1722887D02*
G01*
X-203514Y1719252D01*
X-196242Y1708343D01*
X-192605Y1690161D01*
X-192605Y1679252D01*
X-196242Y1661071D01*
X-203514Y1650161D01*
X-214424Y1646524D01*
X-221696Y1646524D01*
X-232605Y1650161D01*
X-239880Y1661071D01*
X-243514Y1679252D01*
X-243514Y1690161D01*
X-239880Y1708343D01*
X-232605Y1719252D01*
X-221696Y1722887D01*
X-214424Y1722887D01*
X-271152Y1704705D02*
G01*
X-271152Y1708343D01*
X-274787Y1715615D01*
X-278424Y1719252D01*
X-285696Y1722887D01*
X-300243Y1722887D01*
X-307515Y1719252D01*
X-311152Y1715615D01*
X-314787Y1708343D01*
X-314787Y1701071D01*
X-311152Y1693796D01*
X-303877Y1682887D01*
X-267515Y1646524D01*
X-318424Y1646524D01*
X-349697Y1722887D02*
G01*
X-389696Y1722887D01*
X-367878Y1693796D01*
X-378787Y1693796D01*
X-386059Y1690161D01*
X-389696Y1686524D01*
X-393334Y1675615D01*
X-393334Y1668343D01*
X-389696Y1657433D01*
X-382424Y1650161D01*
X-371515Y1646524D01*
X-360606Y1646524D01*
X-349697Y1650161D01*
X-346059Y1653796D01*
X-342425Y1661071D01*
X788921Y1608035D02*
G01*
X788921Y1531673D01*
X788921Y1608035D02*
G01*
X756193Y1608035D01*
X745284Y1604401D01*
X741649Y1600763D01*
X738012Y1593491D01*
X738012Y1586219D01*
X741649Y1578945D01*
X745284Y1575310D01*
X756193Y1571673D01*
X788921Y1571673D02*
G01*
X756193Y1571673D01*
X745284Y1568035D01*
X741649Y1564401D01*
X738012Y1557126D01*
X738012Y1546219D01*
X741649Y1538945D01*
X745284Y1535310D01*
X756193Y1531673D01*
X788921Y1531673D01*
X714011Y1608035D02*
G01*
X714011Y1531673D01*
X690011Y1582582D02*
G01*
X690011Y1546219D01*
X686376Y1535310D01*
X679104Y1531673D01*
X668195Y1531673D01*
X660920Y1535310D01*
X650011Y1546219D01*
X650011Y1582582D02*
G01*
X650011Y1531673D01*
X626013Y1560763D02*
G01*
X582376Y1560763D01*
X582376Y1568035D01*
X586013Y1575310D01*
X589648Y1578945D01*
X596922Y1582582D01*
X607832Y1582582D01*
X615104Y1578945D01*
X622376Y1571673D01*
X626013Y1560763D01*
X626013Y1553491D01*
X622376Y1542582D01*
X615104Y1535310D01*
X607832Y1531673D01*
X596922Y1531673D01*
X589648Y1535310D01*
X582376Y1542582D01*
X502376Y1608035D02*
G01*
X502376Y1531673D01*
X502376Y1608035D02*
G01*
X455104Y1608035D01*
X502376Y1571673D02*
G01*
X473285Y1571673D01*
X431104Y1608035D02*
G01*
X427466Y1604401D01*
X423832Y1608035D01*
X427466Y1611673D01*
X431104Y1608035D01*
X427466Y1582582D02*
G01*
X427466Y1531673D01*
X359831Y1571673D02*
G01*
X363468Y1578945D01*
X374375Y1582582D01*
X385284Y1582582D01*
X396194Y1578945D01*
X399831Y1571673D01*
X396194Y1564401D01*
X388922Y1560763D01*
X370740Y1557126D01*
X363468Y1553491D01*
X359831Y1546219D01*
X359831Y1542582D01*
X363468Y1535310D01*
X374375Y1531673D01*
X385284Y1531673D01*
X396194Y1535310D01*
X399831Y1542582D01*
X335831Y1608035D02*
G01*
X335831Y1531673D01*
X335831Y1568035D02*
G01*
X324921Y1578945D01*
X317649Y1582582D01*
X306740Y1582582D01*
X299468Y1578945D01*
X295831Y1568035D01*
X295831Y1531673D01*
X190378Y1608035D02*
G01*
X190378Y1531673D01*
X215831Y1608035D02*
G01*
X164922Y1608035D01*
X104559Y1608035D02*
G01*
X140921Y1557126D01*
X86377Y1557126D01*
X104559Y1608035D02*
G01*
X104559Y1531673D01*
X-22712Y1608035D02*
G01*
X6377Y1531673D01*
X-22712Y1608035D02*
G01*
X-51803Y1531673D01*
X-4531Y1557126D02*
G01*
X-40893Y1557126D01*
X-75803Y1608035D02*
G01*
X-75803Y1531673D01*
X-75803Y1608035D02*
G01*
X-104894Y1531673D01*
X-133984Y1608035D02*
G01*
X-104894Y1531673D01*
X-133984Y1608035D02*
G01*
X-133984Y1531673D01*
X-213984Y1608035D02*
G01*
X-213984Y1531673D01*
X-213984Y1608035D02*
G01*
X-243075Y1531673D01*
X-272166Y1608035D02*
G01*
X-243075Y1531673D01*
X-272166Y1608035D02*
G01*
X-272166Y1531673D01*
X-325257Y1608035D02*
G01*
X-296166Y1531673D01*
X-325257Y1608035D02*
G01*
X-354347Y1531673D01*
X-307075Y1557126D02*
G01*
X-343441Y1557126D01*
X-432894Y1589854D02*
G01*
X-429257Y1597126D01*
X-421985Y1604401D01*
X-414713Y1608035D01*
X-400166Y1608035D01*
X-392894Y1604401D01*
X-385622Y1597126D01*
X-381985Y1589854D01*
X-378348Y1578945D01*
X-378348Y1560763D01*
X-381985Y1549854D01*
X-385622Y1542582D01*
X-392894Y1535310D01*
X-400166Y1531673D01*
X-414713Y1531673D01*
X-421985Y1535310D01*
X-429257Y1542582D01*
X-432894Y1549854D01*
X-432894Y1560763D01*
X-414713Y1560763D02*
G01*
X-432894Y1560763D01*
D11*
X1609732Y1185148D02*
G01*
X1549676Y1155857D01*
X1609732Y1185148D02*
G01*
X1597179Y1210886D01*
X1590136Y1218072D01*
X1585879Y1219537D01*
X1578767Y1219606D01*
X1573047Y1216817D01*
X1568724Y1211168D01*
X1567258Y1206914D01*
X1568582Y1196939D01*
X1581134Y1171201D01*
X1571370Y1191219D02*
G01*
X1530149Y1195895D01*
X1581000Y1244061D02*
G01*
X1520944Y1214770D01*
X1581000Y1244061D02*
G01*
X1562867Y1281239D01*
X1552402Y1230111D02*
G01*
X1541244Y1252989D01*
X1520944Y1214770D02*
G01*
X1502811Y1251945D01*
X1525557Y1335966D02*
G01*
X1534063Y1333035D01*
X1541109Y1325852D01*
X1546689Y1314411D01*
X1548013Y1304437D01*
X1545081Y1295928D01*
X1539364Y1293139D01*
X1532249Y1293207D01*
X1527992Y1294673D01*
X1522343Y1298999D01*
X1508257Y1313367D01*
X1502605Y1317693D01*
X1498353Y1319159D01*
X1491236Y1319227D01*
X1482658Y1315041D01*
X1479727Y1306535D01*
X1481053Y1296560D01*
X1486634Y1285120D01*
X1493674Y1277937D01*
X1502186Y1275006D01*
X1524929Y1359024D02*
G01*
X1464873Y1329733D01*
X1524929Y1359024D02*
G01*
X1506796Y1396202D01*
X1496331Y1345077D02*
G01*
X1485171Y1367955D01*
X1464873Y1329733D02*
G01*
X1446738Y1366911D01*
X1487827Y1435094D02*
G01*
X1427772Y1405806D01*
X1497589Y1415077D02*
G01*
X1478064Y1455112D01*
D10*
X1467197Y1040958D02*
G01*
X1472923Y1038092D01*
X1478650Y1032365D01*
X1481515Y1026640D01*
X1484378Y1018047D01*
X1484378Y1003729D01*
X1481515Y995138D01*
X1478650Y989411D01*
X1472923Y983684D01*
X1467197Y980821D01*
X1455742Y980821D01*
X1450014Y983684D01*
X1444287Y989411D01*
X1441424Y995138D01*
X1438559Y1003729D01*
X1438559Y1018047D01*
X1441424Y1026640D01*
X1444287Y1032365D01*
X1450014Y1038092D01*
X1455742Y1040958D01*
X1467197Y1040958D01*
X1458605Y992276D02*
G01*
X1441424Y975093D01*
X1419659Y1029502D02*
G01*
X1413934Y1032365D01*
X1405341Y1040958D01*
X1405341Y980821D01*
X798492Y1263919D02*
G01*
X804217Y1261054D01*
X809945Y1255326D01*
X812810Y1249601D01*
X815672Y1241008D01*
X815672Y1226690D01*
X812810Y1218100D01*
X809945Y1212372D01*
X804217Y1206645D01*
X798492Y1203782D01*
X787036Y1203782D01*
X781309Y1206645D01*
X775581Y1212372D01*
X772718Y1218100D01*
X769853Y1226690D01*
X769853Y1241008D01*
X772718Y1249601D01*
X775581Y1255326D01*
X781309Y1261054D01*
X787036Y1263919D01*
X798492Y1263919D01*
X789899Y1215237D02*
G01*
X772718Y1198054D01*
X748090Y1249601D02*
G01*
X748090Y1252463D01*
X745228Y1258191D01*
X742363Y1261054D01*
X736635Y1263919D01*
X725182Y1263919D01*
X719454Y1261054D01*
X716589Y1258191D01*
X713727Y1252463D01*
X713727Y1246736D01*
X716589Y1241008D01*
X722317Y1232418D01*
X750953Y1203782D01*
X710864Y1203782D01*
X976200Y559572D02*
G01*
X976200Y498960D01*
X976200Y559572D02*
G01*
X950224Y559572D01*
X941565Y556686D01*
X938677Y553801D01*
X935791Y548027D01*
X935791Y542254D01*
X938677Y536481D01*
X941565Y533595D01*
X950224Y530710D01*
X976200Y530710D01*
X955995Y530710D02*
G01*
X935791Y498960D01*
X879218Y539369D02*
G01*
X882106Y530710D01*
X887877Y524936D01*
X896536Y522051D01*
X899424Y522051D01*
X908083Y524936D01*
X913856Y530710D01*
X916741Y539369D01*
X916741Y542254D01*
X913856Y550913D01*
X908083Y556686D01*
X899424Y559572D01*
X896536Y559572D01*
X887877Y556686D01*
X882106Y550913D01*
X879218Y539369D01*
X879218Y524936D01*
X882106Y510504D01*
X887877Y501845D01*
X896536Y498960D01*
X902309Y498960D01*
X910968Y501845D01*
X913856Y507619D01*
X-191183Y1236431D02*
G01*
X-191183Y1175819D01*
X-191183Y1236431D02*
G01*
X-217159Y1236431D01*
X-225818Y1233545D01*
X-228706Y1230660D01*
X-231592Y1224887D01*
X-231592Y1219113D01*
X-228706Y1213340D01*
X-225818Y1210454D01*
X-217159Y1207569D01*
X-191183Y1207569D01*
X-211388Y1207569D02*
G01*
X-231592Y1175819D01*
X-253527Y1221999D02*
G01*
X-253527Y1224887D01*
X-256415Y1230660D01*
X-259300Y1233545D01*
X-265074Y1236431D01*
X-276618Y1236431D01*
X-282392Y1233545D01*
X-285277Y1230660D01*
X-288165Y1224887D01*
X-288165Y1219113D01*
X-285277Y1213340D01*
X-279506Y1204681D01*
X-250642Y1175819D01*
X-291050Y1175819D01*
X-344738Y1227772D02*
G01*
X-341850Y1233545D01*
X-333192Y1236431D01*
X-327418Y1236431D01*
X-318759Y1233545D01*
X-312988Y1224887D01*
X-310100Y1210454D01*
X-310100Y1196022D01*
X-312988Y1184478D01*
X-318759Y1178704D01*
X-327418Y1175819D01*
X-330306Y1175819D01*
X-338965Y1178704D01*
X-344738Y1184478D01*
X-347624Y1193137D01*
X-347624Y1196022D01*
X-344738Y1204681D01*
X-338965Y1210454D01*
X-330306Y1213340D01*
X-327418Y1213340D01*
X-318759Y1210454D01*
X-312988Y1204681D01*
X-310100Y1196022D01*
X1001930Y763838D02*
G01*
X1001930Y703226D01*
X1001930Y763838D02*
G01*
X975954Y763838D01*
X967295Y760953D01*
X964407Y758068D01*
X961522Y752294D01*
X961522Y746521D01*
X964407Y740747D01*
X967295Y737862D01*
X975954Y734976D01*
X1001930Y734976D01*
X981725Y734976D02*
G01*
X961522Y703226D01*
X939586Y749406D02*
G01*
X939586Y752294D01*
X936698Y758068D01*
X933813Y760953D01*
X928039Y763838D01*
X916495Y763838D01*
X910722Y760953D01*
X907836Y758068D01*
X904948Y752294D01*
X904948Y746521D01*
X907836Y740747D01*
X913607Y732088D01*
X942472Y703226D01*
X902063Y703226D01*
X868580Y763838D02*
G01*
X877239Y760953D01*
X880125Y755180D01*
X880125Y749406D01*
X877239Y743635D01*
X871466Y740747D01*
X859922Y737862D01*
X851263Y734976D01*
X845489Y729203D01*
X842604Y723430D01*
X842604Y714771D01*
X845489Y708997D01*
X848375Y706112D01*
X857036Y703226D01*
X868580Y703226D01*
X877239Y706112D01*
X880125Y708997D01*
X883013Y714771D01*
X883013Y723430D01*
X880125Y729203D01*
X874354Y734976D01*
X865695Y737862D01*
X854148Y740747D01*
X848375Y743635D01*
X845489Y749406D01*
X845489Y755180D01*
X848375Y760953D01*
X857036Y763838D01*
X868580Y763838D01*
X-764791Y856300D02*
G01*
X-764791Y796163D01*
X-764791Y856300D02*
G01*
X-784837Y856300D01*
X-793427Y853434D01*
X-799155Y847707D01*
X-802017Y841982D01*
X-804882Y833389D01*
X-804882Y819071D01*
X-802017Y810480D01*
X-799155Y804753D01*
X-793427Y799026D01*
X-784837Y796163D01*
X-764791Y796163D01*
X-829510Y856300D02*
G01*
X-861009Y856300D01*
X-843828Y833389D01*
X-852418Y833389D01*
X-858146Y830526D01*
X-861009Y827661D01*
X-863874Y819071D01*
X-863874Y813343D01*
X-861009Y804753D01*
X-855281Y799026D01*
X-846691Y796163D01*
X-838100Y796163D01*
X-829510Y799026D01*
X-826645Y801890D01*
X-823782Y807618D01*
X-769312Y473445D02*
G01*
X-769312Y413308D01*
X-769312Y473445D02*
G01*
X-789358Y473445D01*
X-797948Y470580D01*
X-803676Y464853D01*
X-806538Y459127D01*
X-809404Y450535D01*
X-809404Y436217D01*
X-806538Y427626D01*
X-803676Y421899D01*
X-797948Y416172D01*
X-789358Y413308D01*
X-769312Y413308D01*
X-856940Y473445D02*
G01*
X-828304Y433354D01*
X-871258Y433354D01*
X-856940Y473445D02*
G01*
X-856940Y413308D01*
D11*
X-714941Y78851D02*
G01*
X-761225Y32570D01*
X-714941Y32570D02*
G01*
X-761225Y78851D01*
X-747341Y126679D02*
G01*
X-801336Y72682D01*
X-747341Y126679D02*
G01*
X-770481Y149819D01*
X-780768Y154962D01*
X-785909Y154962D01*
X-793622Y152392D01*
X-798766Y147248D01*
X-801336Y139534D01*
X-801336Y134393D01*
X-796196Y124106D01*
X-773054Y100964D02*
G01*
X-796196Y124106D01*
X-806480Y129250D01*
X-811623Y129250D01*
X-819337Y126679D01*
X-827049Y118965D01*
X-829622Y111252D01*
X-829622Y106108D01*
X-824478Y95824D01*
X-801336Y72682D01*
X-820879Y200218D02*
G01*
X-854306Y125651D01*
X-820879Y200218D02*
G01*
X-895446Y166791D01*
X-844021Y151363D02*
G01*
X-869734Y177076D01*
X-876419Y255757D02*
G01*
X-930417Y201759D01*
X-858420Y237759D02*
G01*
X-894417Y273756D01*
X-942243Y259872D02*
G01*
X-988527Y306153D01*
D12*
X-310258Y-735835D02*
G01*
X-310258Y-783562D01*
X-310258Y-783562D02*
G01*
X-337530Y-783562D01*
X-352531Y-735835D02*
G01*
X-352531Y-783562D01*
X-352531Y-735835D02*
G01*
X-382076Y-735835D01*
X-352531Y-758563D02*
G01*
X-370713Y-758563D01*
X-352531Y-783562D02*
G01*
X-382076Y-783562D01*
X-397075Y-735835D02*
G01*
X-397075Y-783562D01*
X-397075Y-735835D02*
G01*
X-412986Y-735835D01*
X-419803Y-738108D01*
X-424350Y-742652D01*
X-426620Y-747199D01*
X-428894Y-754016D01*
X-428894Y-765380D01*
X-426620Y-772198D01*
X-424350Y-776744D01*
X-419803Y-781290D01*
X-412986Y-783562D01*
X-397075Y-783562D01*
X-443895Y-744926D02*
G01*
X-448439Y-742652D01*
X-455258Y-735835D01*
X-455258Y-783562D01*
D10*
X-1264079Y1412072D02*
G01*
X-1264079Y1368778D01*
X-1266964Y1360119D01*
X-1272738Y1354345D01*
X-1281396Y1351460D01*
X-1287170Y1351460D01*
X-1295829Y1354345D01*
X-1301602Y1360119D01*
X-1304488Y1368778D01*
X-1304488Y1412072D01*
X-1363946Y1403413D02*
G01*
X-1358173Y1409186D01*
X-1349514Y1412072D01*
X-1337970Y1412072D01*
X-1329311Y1409186D01*
X-1323538Y1403413D01*
X-1323538Y1397640D01*
X-1326423Y1391869D01*
X-1329311Y1388981D01*
X-1335084Y1386095D01*
X-1352402Y1380322D01*
X-1358173Y1377436D01*
X-1361061Y1374551D01*
X-1363946Y1368778D01*
X-1363946Y1360119D01*
X-1358173Y1354345D01*
X-1349514Y1351460D01*
X-1337970Y1351460D01*
X-1329311Y1354345D01*
X-1323538Y1360119D01*
X-1382996Y1412072D02*
G01*
X-1382996Y1351460D01*
X-1382996Y1412072D02*
G01*
X-1408973Y1412072D01*
X-1417634Y1409186D01*
X-1420520Y1406301D01*
X-1423405Y1400528D01*
X-1423405Y1394754D01*
X-1420520Y1388981D01*
X-1417634Y1386095D01*
X-1408973Y1383210D01*
X-1382996Y1383210D02*
G01*
X-1408973Y1383210D01*
X-1417634Y1380322D01*
X-1420520Y1377436D01*
X-1423405Y1371663D01*
X-1423405Y1363004D01*
X-1420520Y1357231D01*
X-1417634Y1354345D01*
X-1408973Y1351460D01*
X-1382996Y1351460D01*
X-1442455Y1400528D02*
G01*
X-1448229Y1403413D01*
X-1456888Y1412072D01*
X-1456888Y1351460D01*
X-240362Y274921D02*
G01*
X-240362Y231487D01*
X-243156Y222851D01*
X-248998Y217263D01*
X-257634Y214215D01*
X-263476Y214215D01*
X-272112Y217263D01*
X-277700Y222851D01*
X-280748Y231487D01*
X-280748Y274921D01*
X-299798Y263237D02*
G01*
X-305640Y266285D01*
X-314276Y274921D01*
X-314276Y214215D01*
X-350598Y274921D02*
G01*
X-341962Y272127D01*
X-336120Y263237D01*
X-333326Y249013D01*
X-333326Y240377D01*
X-336120Y225899D01*
X-341962Y217263D01*
X-350598Y214215D01*
X-356440Y214215D01*
X-365076Y217263D01*
X-370664Y225899D01*
X-373712Y240377D01*
X-373712Y249013D01*
X-370664Y263237D01*
X-365076Y272127D01*
X-356440Y274921D01*
X-350598Y274921D01*
X-722833Y613757D02*
G01*
X-722833Y553145D01*
X-722833Y613757D02*
G01*
X-748809Y613757D01*
X-757468Y610872D01*
X-760356Y607987D01*
X-763242Y602213D01*
X-763242Y596440D01*
X-760356Y590666D01*
X-757468Y587781D01*
X-748809Y584895D01*
X-722833Y584895D01*
X-743038Y584895D02*
G01*
X-763242Y553145D01*
X-822700Y613757D02*
G01*
X-793838Y553145D01*
X-782292Y613757D02*
G01*
X-822700Y613757D01*
X-825649Y1037269D02*
G01*
X-825649Y976657D01*
X-825649Y1037269D02*
G01*
X-851626Y1037269D01*
X-860285Y1034384D01*
X-863173Y1031499D01*
X-866058Y1025725D01*
X-866058Y1019952D01*
X-863173Y1014178D01*
X-860285Y1011293D01*
X-851626Y1008407D01*
X-825649Y1008407D01*
X-845855Y1008407D02*
G01*
X-866058Y976657D01*
X-885108Y1025725D02*
G01*
X-890882Y1028611D01*
X-899540Y1037269D01*
X-899540Y976657D01*
X-958999Y1037269D02*
G01*
X-930135Y976657D01*
X-918590Y1037269D02*
G01*
X-958999Y1037269D01*
D11*
X1143802Y409816D02*
G01*
X1172893Y333453D01*
X1143802Y409816D02*
G01*
X1114712Y333453D01*
X1161983Y358907D02*
G01*
X1125621Y358907D01*
X1090711Y409816D02*
G01*
X1090711Y355272D01*
X1087074Y344363D01*
X1079802Y337091D01*
X1068892Y333453D01*
X1061620Y333453D01*
X1050711Y337091D01*
X1043439Y344363D01*
X1039802Y355272D01*
X1039802Y409816D01*
X1015801Y409816D02*
G01*
X1015801Y333453D01*
X1015801Y409816D02*
G01*
X990348Y409816D01*
X979439Y406181D01*
X972167Y398906D01*
X968529Y391634D01*
X964892Y380725D01*
X964892Y362544D01*
X968529Y351635D01*
X972167Y344363D01*
X979439Y337091D01*
X990348Y333453D01*
X1015801Y333453D01*
X940894Y409816D02*
G01*
X940894Y333453D01*
X895075Y409816D02*
G01*
X902347Y406181D01*
X909622Y398906D01*
X913256Y391634D01*
X916894Y380725D01*
X916894Y362544D01*
X913256Y351635D01*
X909622Y344363D01*
X902347Y337091D01*
X895075Y333453D01*
X880529Y333453D01*
X873257Y337091D01*
X865985Y344363D01*
X862347Y351635D01*
X858713Y362544D01*
X858713Y380725D01*
X862347Y391634D01*
X865985Y398906D01*
X873257Y406181D01*
X880529Y409816D01*
X895075Y409816D01*
D10*
X82054Y944072D02*
G01*
X142666Y944072D01*
X82054Y944072D02*
G01*
X82054Y923866D01*
X84940Y915207D01*
X90713Y909436D01*
X96486Y906548D01*
X105145Y903663D01*
X119575Y903663D01*
X128236Y906548D01*
X134007Y909436D01*
X139781Y915207D01*
X142666Y923866D01*
X142666Y944072D01*
X82054Y884613D02*
G01*
X142666Y884613D01*
X90713Y825154D02*
G01*
X84940Y830927D01*
X82054Y839586D01*
X82054Y851131D01*
X84940Y859789D01*
X90713Y865563D01*
X96486Y865563D01*
X102257Y862677D01*
X105145Y859789D01*
X108031Y854016D01*
X113804Y836698D01*
X116690Y830927D01*
X119575Y828039D01*
X125349Y825154D01*
X134007Y825154D01*
X139781Y830927D01*
X142666Y839586D01*
X142666Y851131D01*
X139781Y859789D01*
X134007Y865563D01*
X82054Y806104D02*
G01*
X142666Y806104D01*
X82054Y806104D02*
G01*
X82054Y780127D01*
X84940Y771466D01*
X87825Y768581D01*
X93599Y765695D01*
X102257Y765695D01*
X108031Y768581D01*
X110916Y771466D01*
X113804Y780127D01*
X113804Y806104D01*
X82054Y746645D02*
G01*
X142666Y746645D01*
X142666Y746645D02*
G01*
X142666Y712007D01*
X82054Y669866D02*
G01*
X142666Y692957D01*
X82054Y669866D02*
G01*
X142666Y646777D01*
X122463Y684298D02*
G01*
X122463Y655436D01*
X82054Y627727D02*
G01*
X110916Y604636D01*
X142666Y604636D01*
X82054Y581545D02*
G01*
X110916Y604636D01*
D12*
X277101Y283809D02*
G01*
X258051Y296509D01*
X277101Y296509D02*
G01*
X258051Y283809D01*
X277101Y302605D02*
G01*
X258051Y315305D01*
X277101Y315305D02*
G01*
X258051Y302605D01*
D13*
X287007Y1161115D02*
G01*
X267957Y1153749D01*
X287007Y1161115D02*
G01*
X267957Y1168481D01*
X274307Y1156543D02*
G01*
X274307Y1165687D01*
D11*
X-578906Y1649737D02*
G01*
X-532625Y1603453D01*
X-532625Y1649737D02*
G01*
X-578906Y1603453D01*
X-626734Y1617337D02*
G01*
X-572736Y1563342D01*
X-662731Y1581340D02*
G01*
X-608733Y1527342D01*
X-601019Y1591624D02*
G01*
X-637019Y1555628D01*
X-700272Y1543799D02*
G01*
X-625706Y1510372D01*
X-700272Y1543799D02*
G01*
X-666846Y1469232D01*
X-651418Y1520657D02*
G01*
X-677130Y1494944D01*
X-737814Y1506258D02*
G01*
X-683816Y1452262D01*
X-737814Y1506258D02*
G01*
X-760956Y1483116D01*
X-766097Y1472831D01*
X-766097Y1467688D01*
X-763526Y1459974D01*
X-755812Y1452262D01*
X-748098Y1449689D01*
X-742955Y1449689D01*
X-732670Y1454833D01*
X-709528Y1477975D01*
X-808781Y1435290D02*
G01*
X-754783Y1381292D01*
X-790783Y1453288D02*
G01*
X-826780Y1417292D01*
X-843749Y1400322D02*
G01*
X-789754Y1346324D01*
X-886434Y1331925D02*
G01*
X-889005Y1339639D01*
X-889005Y1349923D01*
X-886434Y1357637D01*
X-876150Y1367922D01*
X-868436Y1370495D01*
X-858149Y1370495D01*
X-850435Y1367922D01*
X-840150Y1362781D01*
X-827295Y1349923D01*
X-822152Y1339639D01*
X-819581Y1331925D01*
X-819581Y1321640D01*
X-822152Y1313926D01*
X-832436Y1303639D01*
X-840150Y1301069D01*
X-850435Y1301069D01*
X-858149Y1303639D01*
X-885405Y1296954D02*
G01*
X-931689Y1250673D01*
D10*
X457456Y-872916D02*
G01*
X457459Y-916211D01*
X454571Y-924869D01*
X448797Y-930643D01*
X440138Y-933531D01*
X434365Y-933528D01*
X425706Y-930643D01*
X419933Y-924869D01*
X417047Y-916211D01*
X417047Y-872916D01*
X397997Y-884461D02*
G01*
X392224Y-881573D01*
X383565Y-872916D01*
X383565Y-933528D01*
X335650Y-872916D02*
G01*
X364515Y-913325D01*
X321221Y-913325D01*
X335650Y-872916D02*
G01*
X335650Y-933528D01*
X1652524Y-235412D02*
G01*
X1652524Y-302232D01*
X1652524Y-235412D02*
G01*
X1623888Y-235412D01*
X1614342Y-238594D01*
X1611160Y-241777D01*
X1607977Y-248140D01*
X1607977Y-254505D01*
X1611160Y-260868D01*
X1614342Y-264050D01*
X1623888Y-267230D01*
X1652524Y-267230D01*
X1630250Y-267230D02*
G01*
X1607977Y-302232D01*
X1586979Y-235412D02*
G01*
X1586979Y-302232D01*
X1586979Y-235412D02*
G01*
X1545615Y-235412D01*
X1586979Y-267230D02*
G01*
X1561523Y-267230D01*
X1521434Y-251322D02*
G01*
X1521434Y-248140D01*
X1518251Y-241777D01*
X1515069Y-238594D01*
X1508706Y-235412D01*
X1495978Y-235412D01*
X1489616Y-238594D01*
X1486433Y-241777D01*
X1483250Y-248140D01*
X1483250Y-254505D01*
X1486433Y-260868D01*
X1492796Y-270413D01*
X1524614Y-302232D01*
X1480070Y-302232D01*
X1166855Y-165788D02*
G01*
X1166855Y-208744D01*
X1163993Y-217335D01*
X1158265Y-223062D01*
X1149675Y-225925D01*
X1143947Y-225925D01*
X1135354Y-223062D01*
X1129629Y-217335D01*
X1126764Y-208744D01*
X1126764Y-165788D01*
X1105001Y-180106D02*
G01*
X1105001Y-177243D01*
X1102136Y-171516D01*
X1099273Y-168653D01*
X1093546Y-165788D01*
X1082093Y-165788D01*
X1076365Y-168653D01*
X1073500Y-171516D01*
X1070637Y-177243D01*
X1070637Y-182971D01*
X1073500Y-188699D01*
X1079228Y-197289D01*
X1107864Y-225925D01*
X1067772Y-225925D01*
X1443667Y9773D02*
G01*
X1443667Y-50363D01*
X1443667Y-50363D02*
G01*
X1409303Y-50363D01*
X1387541Y-4544D02*
G01*
X1387541Y-1681D01*
X1384675Y4046D01*
X1381813Y6908D01*
X1376085Y9773D01*
X1364630Y9773D01*
X1358905Y6908D01*
X1356039Y4046D01*
X1353177Y-1681D01*
X1353177Y-7409D01*
X1356039Y-13136D01*
X1361767Y-21727D01*
X1390403Y-50363D01*
X1350312Y-50363D01*
X1388762Y148615D02*
G01*
X1391625Y154340D01*
X1397353Y160068D01*
X1403080Y162933D01*
X1414536Y162933D01*
X1420261Y160068D01*
X1425989Y154340D01*
X1428854Y148615D01*
X1431716Y140022D01*
X1431716Y125704D01*
X1428854Y117114D01*
X1425989Y111386D01*
X1420261Y105658D01*
X1414536Y102796D01*
X1403080Y102796D01*
X1397353Y105658D01*
X1391625Y111386D01*
X1388762Y117114D01*
X1364134Y162933D02*
G01*
X1332633Y162933D01*
X1349816Y140022D01*
X1341226Y140022D01*
X1335498Y137160D01*
X1332633Y134294D01*
X1329771Y125704D01*
X1329771Y119976D01*
X1332633Y111386D01*
X1338361Y105658D01*
X1346954Y102796D01*
X1355544Y102796D01*
X1364134Y105658D01*
X1366997Y108524D01*
X1369862Y114251D01*
X1235674Y881722D02*
G01*
X1175062Y881722D01*
X1235674Y881722D02*
G01*
X1235674Y907699D01*
X1232788Y916358D01*
X1229901Y919246D01*
X1224130Y922131D01*
X1218356Y922131D01*
X1212583Y919246D01*
X1209697Y916358D01*
X1206812Y907699D01*
X1206812Y881722D01*
X1206812Y901928D02*
G01*
X1175062Y922131D01*
X1235674Y946955D02*
G01*
X1235674Y978705D01*
X1212583Y961387D01*
X1212583Y970046D01*
X1209697Y975817D01*
X1206812Y978705D01*
X1198153Y981590D01*
X1192380Y981590D01*
X1183721Y978705D01*
X1177947Y972931D01*
X1175062Y964272D01*
X1175062Y955614D01*
X1177947Y946955D01*
X1180833Y944067D01*
X1186606Y941181D01*
X1221242Y1003526D02*
G01*
X1224130Y1003526D01*
X1229901Y1006414D01*
X1232788Y1009299D01*
X1235674Y1015072D01*
X1235674Y1026617D01*
X1232788Y1032390D01*
X1229901Y1035276D01*
X1224130Y1038164D01*
X1218356Y1038164D01*
X1212583Y1035276D01*
X1203924Y1029505D01*
X1175062Y1000640D01*
X1175062Y1041049D01*
X1165684Y1515399D02*
G01*
X1165684Y1454787D01*
X1165684Y1515399D02*
G01*
X1139708Y1515399D01*
X1131049Y1512514D01*
X1128161Y1509626D01*
X1125275Y1503855D01*
X1125275Y1498081D01*
X1128161Y1492308D01*
X1131049Y1489422D01*
X1139708Y1486537D01*
X1165684Y1486537D01*
X1145479Y1486537D02*
G01*
X1125275Y1454787D01*
X1106225Y1503855D02*
G01*
X1100452Y1506740D01*
X1091793Y1515399D01*
X1091793Y1454787D01*
X1069858Y1500967D02*
G01*
X1069858Y1503855D01*
X1066970Y1509626D01*
X1064084Y1512514D01*
X1058311Y1515399D01*
X1046767Y1515399D01*
X1040993Y1512514D01*
X1038108Y1509626D01*
X1035220Y1503855D01*
X1035220Y1498081D01*
X1038108Y1492308D01*
X1043881Y1483649D01*
X1072743Y1454787D01*
X1032334Y1454787D01*
X1962411Y749874D02*
G01*
X1962411Y689262D01*
X1962411Y749874D02*
G01*
X1936435Y749874D01*
X1927776Y746988D01*
X1924888Y744100D01*
X1922002Y738329D01*
X1922002Y732556D01*
X1924888Y726782D01*
X1927776Y723897D01*
X1936435Y721012D01*
X1962411Y721012D01*
X1942205Y721012D02*
G01*
X1922002Y689262D01*
X1897179Y749874D02*
G01*
X1865429Y749874D01*
X1882747Y726782D01*
X1874088Y726782D01*
X1868317Y723897D01*
X1865429Y721012D01*
X1862543Y712353D01*
X1862543Y706579D01*
X1865429Y697920D01*
X1871202Y692147D01*
X1879861Y689262D01*
X1888520Y689262D01*
X1897179Y692147D01*
X1900067Y695032D01*
X1902952Y700806D01*
X1843493Y738329D02*
G01*
X1837720Y741215D01*
X1829061Y749874D01*
X1829061Y689262D01*
X2040049Y855720D02*
G01*
X2040049Y795108D01*
X2040049Y855720D02*
G01*
X2014072Y855720D01*
X2005413Y852835D01*
X2002525Y849947D01*
X1999640Y844176D01*
X1999640Y838403D01*
X2002525Y832629D01*
X2005413Y829744D01*
X2014072Y826858D01*
X2040049Y826858D01*
X2019843Y826858D02*
G01*
X1999640Y795108D01*
X1977704Y841288D02*
G01*
X1977704Y844176D01*
X1974816Y849947D01*
X1971931Y852835D01*
X1966158Y855720D01*
X1954613Y855720D01*
X1948840Y852835D01*
X1945954Y849947D01*
X1943066Y844176D01*
X1943066Y838403D01*
X1945954Y832629D01*
X1951725Y823970D01*
X1980590Y795108D01*
X1940181Y795108D01*
X1918246Y841288D02*
G01*
X1918246Y844176D01*
X1915358Y849947D01*
X1912472Y852835D01*
X1906699Y855720D01*
X1895154Y855720D01*
X1889381Y852835D01*
X1886496Y849947D01*
X1883608Y844176D01*
X1883608Y838403D01*
X1886496Y832629D01*
X1892266Y823970D01*
X1921131Y795108D01*
X1880722Y795108D01*
X1759343Y2166D02*
G01*
X1762229Y7940D01*
X1768002Y13713D01*
X1773773Y16598D01*
X1785320Y16598D01*
X1791093Y13713D01*
X1796864Y7940D01*
X1799752Y2166D01*
X1802638Y-6492D01*
X1802638Y-20921D01*
X1799752Y-29583D01*
X1796864Y-35354D01*
X1791093Y-41127D01*
X1785320Y-44013D01*
X1773773Y-44013D01*
X1768002Y-41127D01*
X1762229Y-35354D01*
X1759343Y-29583D01*
X1737405Y2166D02*
G01*
X1737405Y5054D01*
X1734520Y10828D01*
X1731632Y13713D01*
X1725861Y16598D01*
X1714314Y16598D01*
X1708543Y13713D01*
X1705655Y10828D01*
X1702770Y5054D01*
X1702770Y-718D01*
X1705655Y-6492D01*
X1711429Y-15151D01*
X1740293Y-44013D01*
X1699882Y-44013D01*
X1675061Y16598D02*
G01*
X1643311Y16598D01*
X1660629Y-6492D01*
X1651970Y-6492D01*
X1646196Y-9377D01*
X1643311Y-12263D01*
X1640423Y-20921D01*
X1640423Y-26695D01*
X1643311Y-35354D01*
X1649082Y-41127D01*
X1657743Y-44013D01*
X1666402Y-44013D01*
X1675061Y-41127D01*
X1677946Y-38242D01*
X1680832Y-32468D01*
X-140914Y109280D02*
G01*
X-138028Y115054D01*
X-132255Y120827D01*
X-126484Y123713D01*
X-114937Y123713D01*
X-109164Y120827D01*
X-103393Y115054D01*
X-100505Y109280D01*
X-97619Y100622D01*
X-97619Y86192D01*
X-100505Y77530D01*
X-103393Y71760D01*
X-109164Y65986D01*
X-114937Y63101D01*
X-126484Y63101D01*
X-132255Y65986D01*
X-138028Y71760D01*
X-140914Y77530D01*
X-188828Y123713D02*
G01*
X-159964Y83304D01*
X-203260Y83304D01*
X-188828Y123713D02*
G01*
X-188828Y63101D01*
X1736483Y-91051D02*
G01*
X1739369Y-85277D01*
X1745142Y-79504D01*
X1750913Y-76619D01*
X1762460Y-76619D01*
X1768233Y-79504D01*
X1774004Y-85277D01*
X1776892Y-91051D01*
X1779777Y-99710D01*
X1779777Y-114139D01*
X1776892Y-122801D01*
X1774004Y-128572D01*
X1768233Y-134345D01*
X1762460Y-137231D01*
X1750913Y-137231D01*
X1745142Y-134345D01*
X1739369Y-128572D01*
X1736483Y-122801D01*
X1677022Y-76619D02*
G01*
X1705886Y-137231D01*
X1717433Y-76619D02*
G01*
X1677022Y-76619D01*
X-379079Y-231533D02*
G01*
X-376191Y-225760D01*
X-370420Y-219986D01*
X-364647Y-217103D01*
X-353103Y-217103D01*
X-347327Y-219989D01*
X-341556Y-225762D01*
X-338668Y-231536D01*
X-335782Y-240195D01*
X-335782Y-254624D01*
X-338668Y-263286D01*
X-341556Y-269057D01*
X-347327Y-274830D01*
X-353100Y-277713D01*
X-364650Y-277713D01*
X-370418Y-274830D01*
X-376191Y-269057D01*
X-379079Y-263286D01*
X-398127Y-228645D02*
G01*
X-403900Y-225762D01*
X-412559Y-217103D01*
X-412559Y-277713D01*
X-437382Y-217103D02*
G01*
X-469135Y-217103D01*
X-451817Y-240192D01*
X-460474Y-240192D01*
X-466247Y-243080D01*
X-469132Y-245963D01*
X-472018Y-254622D01*
X-472020Y-260398D01*
X-469135Y-269057D01*
X-463359Y-274830D01*
X-454700Y-277715D01*
X-446041Y-277713D01*
X-437382Y-274828D01*
X-434500Y-271945D01*
X-431609Y-266169D01*
X-106385Y-549638D02*
G01*
X-106385Y-610250D01*
X-106385Y-549638D02*
G01*
X-132361Y-549638D01*
X-141020Y-552523D01*
X-143908Y-555409D01*
X-146794Y-561182D01*
X-146794Y-566955D01*
X-143908Y-572729D01*
X-141020Y-575614D01*
X-132361Y-578500D01*
X-106385Y-578500D01*
X-126591Y-578500D02*
G01*
X-146794Y-610250D01*
X-165844Y-561182D02*
G01*
X-171617Y-558297D01*
X-180276Y-549638D01*
X-180276Y-610250D01*
X-228191Y-549638D02*
G01*
X-199326Y-590047D01*
X-242620Y-590047D01*
X-228191Y-549638D02*
G01*
X-228191Y-610250D01*
X-219707Y-74594D02*
G01*
X-219707Y-135206D01*
X-219707Y-135206D02*
G01*
X-254342Y-135206D01*
X-273392Y-86139D02*
G01*
X-279166Y-83253D01*
X-287825Y-74594D01*
X-287825Y-135206D01*
X-85854Y397583D02*
G01*
X-85852Y336971D01*
X-85854Y397583D02*
G01*
X-111828Y397586D01*
X-120489Y394698D01*
X-123375Y391812D01*
X-126263Y386039D01*
X-126260Y380265D01*
X-123375Y374492D01*
X-120487Y371607D01*
X-111828Y368721D01*
X-85852Y368721D01*
X-106057Y368721D02*
G01*
X-126260Y336969D01*
X-151084Y397586D02*
G01*
X-182834Y397586D01*
X-165516Y374495D01*
X-174175Y374492D01*
X-179946Y371607D01*
X-182834Y368719D01*
X-185719Y360062D01*
X-185719Y354289D01*
X-182834Y345627D01*
X-177060Y339857D01*
X-168402Y336971D01*
X-159743Y336969D01*
X-151084Y339857D01*
X-148198Y342742D01*
X-145310Y348515D01*
X1348308Y885619D02*
G01*
X1287696Y885619D01*
X1348308Y885619D02*
G01*
X1348308Y911595D01*
X1345422Y920254D01*
X1342534Y923142D01*
X1336763Y926028D01*
X1330990Y926028D01*
X1325217Y923142D01*
X1322331Y920254D01*
X1319446Y911595D01*
X1319446Y885619D01*
X1319446Y905824D02*
G01*
X1287696Y926028D01*
X1348308Y950851D02*
G01*
X1348308Y982601D01*
X1325217Y965283D01*
X1325217Y973942D01*
X1322331Y979713D01*
X1319446Y982601D01*
X1310787Y985486D01*
X1305013Y985486D01*
X1296355Y982601D01*
X1290581Y976828D01*
X1287696Y968169D01*
X1287696Y959510D01*
X1290581Y950851D01*
X1293467Y947963D01*
X1299240Y945078D01*
X1348308Y1010310D02*
G01*
X1348308Y1042060D01*
X1325217Y1024742D01*
X1325217Y1033401D01*
X1322331Y1039172D01*
X1319446Y1042060D01*
X1310787Y1044945D01*
X1305013Y1044945D01*
X1296355Y1042060D01*
X1290581Y1036286D01*
X1287696Y1027628D01*
X1287696Y1018969D01*
X1290581Y1010310D01*
X1293467Y1007422D01*
X1299240Y1004536D01*
X-26288Y1466390D02*
G01*
X-26288Y1405778D01*
X-26288Y1466390D02*
G01*
X-52265Y1466390D01*
X-60924Y1463504D01*
X-63812Y1460616D01*
X-66697Y1454845D01*
X-66697Y1449072D01*
X-63812Y1443299D01*
X-60924Y1440413D01*
X-52265Y1437528D01*
X-26288Y1437528D01*
X-46494Y1437528D02*
G01*
X-66697Y1405778D01*
X-88633Y1451957D02*
G01*
X-88633Y1454845D01*
X-91521Y1460616D01*
X-94406Y1463504D01*
X-100180Y1466390D01*
X-111724Y1466390D01*
X-117497Y1463504D01*
X-120383Y1460616D01*
X-123271Y1454845D01*
X-123271Y1449072D01*
X-120383Y1443299D01*
X-114612Y1434640D01*
X-85747Y1405778D01*
X-126156Y1405778D01*
X-185615Y1466390D02*
G01*
X-156753Y1405778D01*
X-145206Y1466390D02*
G01*
X-185615Y1466390D01*
X1288475Y2102434D02*
G01*
X1245615Y2059576D01*
X1288475Y2102434D02*
G01*
X1270106Y2120803D01*
X1261943Y2124885D01*
X1257858Y2124885D01*
X1251737Y2122843D01*
X1247655Y2118761D01*
X1245615Y2112639D01*
X1245615Y2108558D01*
X1249697Y2100394D01*
X1268064Y2082025D02*
G01*
X1249697Y2100394D01*
X1241534Y2104476D01*
X1237452Y2104476D01*
X1231328Y2102434D01*
X1225204Y2096312D01*
X1223164Y2090188D01*
X1223164Y2086107D01*
X1227246Y2077946D01*
X1245615Y2059576D01*
X1234186Y2136315D02*
G01*
X1236225Y2138357D01*
X1238265Y2144478D01*
X1238265Y2148560D01*
X1236225Y2154681D01*
X1228062Y2162848D01*
X1221938Y2164890D01*
X1217856Y2164887D01*
X1211734Y2162848D01*
X1207653Y2158766D01*
X1205613Y2152642D01*
X1203571Y2142436D01*
X1203571Y2101618D01*
X1174996Y2130193D01*
X1158493Y1410530D02*
G01*
X1158493Y1349918D01*
X1158493Y1410530D02*
G01*
X1132517Y1410530D01*
X1123858Y1407645D01*
X1120970Y1404757D01*
X1118085Y1398986D01*
X1118085Y1393212D01*
X1120970Y1387439D01*
X1123858Y1384554D01*
X1132517Y1381668D01*
X1158493Y1381668D01*
X1138288Y1381668D02*
G01*
X1118085Y1349918D01*
X1099035Y1398986D02*
G01*
X1093261Y1401871D01*
X1084602Y1410530D01*
X1084602Y1349918D01*
X1059779Y1410530D02*
G01*
X1028029Y1410530D01*
X1045349Y1387439D01*
X1036690Y1387439D01*
X1030917Y1384554D01*
X1028029Y1381668D01*
X1025143Y1373009D01*
X1025143Y1367236D01*
X1028029Y1358577D01*
X1033802Y1352804D01*
X1042461Y1349918D01*
X1051120Y1349918D01*
X1059779Y1352804D01*
X1062667Y1355689D01*
X1065552Y1361462D01*
D11*
X1977029Y1147505D02*
G01*
X1918586Y1115110D01*
X1977029Y1147505D02*
G01*
X1963145Y1172550D01*
X1955733Y1179357D01*
X1951408Y1180597D01*
X1944298Y1180297D01*
X1938733Y1177211D01*
X1934712Y1171343D01*
X1933473Y1167018D01*
X1935314Y1157127D01*
X1949201Y1132080D02*
G01*
X1935314Y1157127D01*
X1927908Y1163932D01*
X1923580Y1165171D01*
X1916470Y1164869D01*
X1908124Y1160241D01*
X1904100Y1154374D01*
X1902861Y1150051D01*
X1904705Y1140157D01*
X1918586Y1115110D01*
X1934118Y1198661D02*
G01*
X1933818Y1205771D01*
X1937539Y1218747D01*
X1879097Y1186352D01*
D10*
X1384218Y1112398D02*
G01*
X1390058Y1109604D01*
X1395902Y1103762D01*
X1398694Y1097920D01*
X1398694Y1086490D01*
X1395900Y1080648D01*
X1390060Y1075060D01*
X1384218Y1072012D01*
X1375580Y1069218D01*
X1361102Y1069218D01*
X1352466Y1072012D01*
X1346624Y1075060D01*
X1341036Y1080648D01*
X1337988Y1086490D01*
X1337988Y1097920D01*
X1341036Y1103762D01*
X1346626Y1109604D01*
X1352468Y1112398D01*
X1387264Y1131450D02*
G01*
X1390058Y1137290D01*
X1398694Y1145926D01*
X1337988Y1145926D01*
X1275427Y1080993D02*
G01*
X1214719Y1080993D01*
X1275427Y1080993D02*
G01*
X1275427Y1106901D01*
X1272631Y1115534D01*
X1269583Y1118585D01*
X1263997Y1121379D01*
X1258155Y1121379D01*
X1252313Y1118585D01*
X1249519Y1115537D01*
X1246471Y1106901D01*
X1246471Y1080993D01*
X1246471Y1101059D02*
G01*
X1214721Y1121379D01*
X1263997Y1140429D02*
G01*
X1266791Y1146271D01*
X1275427Y1154907D01*
X1214721Y1154907D01*
X1706879Y1037488D02*
G01*
X1709674Y1043330D01*
X1715515Y1048918D01*
X1721104Y1051966D01*
X1732788Y1051966D01*
X1738629Y1048918D01*
X1744218Y1043330D01*
X1747265Y1037488D01*
X1750059Y1028852D01*
X1750059Y1014374D01*
X1747265Y1005738D01*
X1744218Y999896D01*
X1738629Y994054D01*
X1732788Y991260D01*
X1721104Y991260D01*
X1715515Y994054D01*
X1709674Y999896D01*
X1706879Y1005738D01*
X1653031Y1051966D02*
G01*
X1681988Y1051966D01*
X1684781Y1025804D01*
X1681988Y1028852D01*
X1673352Y1031646D01*
X1664715Y1031646D01*
X1656079Y1028852D01*
X1650238Y1023010D01*
X1647190Y1014374D01*
X1647190Y1008532D01*
X1650238Y999896D01*
X1656079Y994054D01*
X1664715Y991260D01*
X1673352Y991260D01*
X1681988Y994054D01*
X1684781Y997102D01*
X1687829Y1002944D01*
X-770381Y314266D02*
G01*
X-770381Y253654D01*
X-770381Y314266D02*
G01*
X-796358Y314266D01*
X-805017Y311381D01*
X-807905Y308495D01*
X-810790Y302722D01*
X-810790Y296948D01*
X-807905Y291175D01*
X-805017Y288289D01*
X-796358Y285404D01*
X-770381Y285404D01*
X-790587Y285404D02*
G01*
X-810790Y253654D01*
X-864476Y305607D02*
G01*
X-861590Y311381D01*
X-852931Y314266D01*
X-847158Y314266D01*
X-838499Y311381D01*
X-832726Y302722D01*
X-829840Y288289D01*
X-829840Y273857D01*
X-832726Y262313D01*
X-838499Y256539D01*
X-847158Y253654D01*
X-850046Y253654D01*
X-858705Y256539D01*
X-864476Y262313D01*
X-867364Y270972D01*
X-867364Y273857D01*
X-864476Y282516D01*
X-858705Y288289D01*
X-850046Y291175D01*
X-847158Y291175D01*
X-838499Y288289D01*
X-832726Y282516D01*
X-829840Y273857D01*
X-291007Y-366199D02*
G01*
X-291007Y-426811D01*
X-291007Y-366199D02*
G01*
X-316984Y-366199D01*
X-325643Y-369084D01*
X-328531Y-371970D01*
X-331416Y-377743D01*
X-331416Y-383517D01*
X-328531Y-389290D01*
X-325643Y-392176D01*
X-316984Y-395061D01*
X-291007Y-395061D01*
X-311213Y-395061D02*
G01*
X-331416Y-426811D01*
X-350466Y-377743D02*
G01*
X-356240Y-374858D01*
X-364898Y-366199D01*
X-364898Y-426811D01*
X-401266Y-366199D02*
G01*
X-392607Y-369084D01*
X-386834Y-377743D01*
X-383948Y-392176D01*
X-383948Y-400834D01*
X-386834Y-415267D01*
X-392607Y-423926D01*
X-401266Y-426811D01*
X-407040Y-426811D01*
X-415698Y-423926D01*
X-421472Y-415267D01*
X-424357Y-400834D01*
X-424357Y-392176D01*
X-421472Y-377743D01*
X-415698Y-369084D01*
X-407040Y-366199D01*
X-401266Y-366199D01*
D14*
X1491820Y672835D02*
G01*
X1491820Y667097D01*
X1656920Y667097D01*
X1491820Y862830D02*
G01*
X1491820Y776165D01*
X1656920Y871164D02*
G01*
X1656920Y971897D01*
X1491820Y971897D01*
X1491820Y966157D01*
X1656920Y667097D02*
G01*
X1656920Y767831D01*
X814552Y1165191D02*
G01*
X808814Y1165191D01*
X808814Y1000091D01*
X1004547Y1165191D02*
G01*
X917882Y1165191D01*
X1012880Y1000091D02*
G01*
X1113614Y1000091D01*
X1113614Y1165191D01*
X1107874Y1165191D01*
X808814Y1000091D02*
G01*
X909548Y1000091D01*
D11*
X953957Y656120D02*
G01*
X999510Y656120D01*
X999510Y577999D01*
X953957Y577999D01*
X920719Y656120D02*
G01*
X875167Y656120D01*
X875167Y577999D01*
X920719Y577999D01*
X-262755Y1337767D02*
G01*
X-262755Y1383319D01*
X-184635Y1383319D01*
X-184635Y1337767D01*
X-262755Y1304528D02*
G01*
X-262755Y1258976D01*
X-184635Y1258976D01*
X-184635Y1304528D01*
X956243Y857542D02*
G01*
X1001796Y857542D01*
X1001796Y779421D01*
X956243Y779421D01*
X923005Y857542D02*
G01*
X877453Y857542D01*
X877453Y779421D01*
X923005Y779421D01*
D15*
X-827453Y719904D02*
G01*
X-797455Y719904D01*
X-797455Y779899D01*
X-827453Y779899D01*
X-827453Y719904D01*
X-827453Y741164D02*
G01*
X-797455Y741164D01*
X-797455Y758664D01*
X-827453Y758664D01*
X-827453Y741164D01*
X-791613Y491583D02*
G01*
X-791613Y521581D01*
X-851608Y521581D01*
X-851608Y491583D01*
X-791613Y491583D01*
X-812873Y491583D02*
G01*
X-812873Y521581D01*
X-830374Y521581D01*
X-830374Y491583D01*
X-812873Y491583D01*
D16*
X-1223322Y-60822D02*
G01*
X-720427Y-563717D01*
X-468983Y-312270D01*
X-971875Y190624D01*
X-1223322Y-60822D01*
D17*
X-468561Y-678830D02*
G01*
X-467570Y-678830D01*
X-434560Y-645828D01*
X-468561Y-610826D02*
G01*
X-468561Y-611827D01*
X-434560Y-645828D01*
X-468561Y-610826D02*
G01*
X-468561Y-678830D01*
X-470565Y-570824D02*
G01*
X-585571Y-570824D01*
X-470565Y-720836D02*
G01*
X-585571Y-720836D01*
X-585571Y-570829D02*
G01*
X-585571Y-718827D01*
X-432564Y-721065D02*
G01*
X-327553Y-721065D01*
X-297558Y-681055D02*
G01*
X-297558Y-691057D01*
X-327553Y-721065D01*
X-297558Y-611063D02*
G01*
X-297558Y-681055D01*
X-297558Y-611063D02*
G01*
X-297558Y-601047D01*
X-327553Y-571052D01*
X-432564Y-571052D02*
G01*
X-327553Y-571052D01*
X-468561Y-645828D02*
G01*
X-434560Y-645828D01*
D16*
X-1777311Y296892D02*
G01*
X-1127300Y296892D01*
X-1127300Y1190896D01*
X-1777311Y1190896D01*
X-1777311Y296892D01*
X-1589224Y235882D02*
G01*
X-1538424Y235882D01*
X-1538424Y286682D01*
X-1589224Y286682D01*
X-1589224Y235882D01*
X-1589199Y1201082D02*
G01*
X-1538399Y1201082D01*
X-1538399Y1251882D01*
X-1589199Y1251882D01*
X-1589199Y1201082D01*
X-1185339Y1201082D02*
G01*
X-1134539Y1201082D01*
X-1134539Y1251882D01*
X-1185339Y1251882D01*
X-1185339Y1201082D01*
X-1185339Y235882D02*
G01*
X-1134539Y235882D01*
X-1134539Y286682D01*
X-1185339Y286682D01*
X-1185339Y235882D01*
X-1309824Y489882D02*
G01*
X-1182824Y489882D01*
X-1182824Y642282D01*
X-1309824Y642282D01*
X-1309824Y489882D01*
X-1309824Y845482D02*
G01*
X-1182824Y845482D01*
X-1182824Y997882D01*
X-1309824Y997882D01*
X-1309824Y845482D01*
D11*
X-465043Y231868D02*
G01*
X-635284Y231868D01*
X-465043Y-73372D02*
G01*
X-635284Y-73372D01*
X-635284Y31607D02*
G01*
X-635284Y126888D01*
X-898936Y542439D02*
G01*
X-944488Y542439D01*
X-944488Y620560D01*
X-898936Y620560D01*
X-865698Y542439D02*
G01*
X-820145Y542439D01*
X-820145Y620560D01*
X-865698Y620560D01*
X-869254Y955332D02*
G01*
X-823701Y955332D01*
X-823701Y877211D01*
X-869254Y877211D01*
X-902492Y955332D02*
G01*
X-948044Y955332D01*
X-948044Y877211D01*
X-902492Y877211D01*
D16*
X1922779Y554228D02*
G01*
X1211579Y554228D01*
X1211579Y198628D01*
X1922779Y198628D01*
X1922779Y554228D01*
D14*
X638591Y273860D02*
G01*
X644116Y273860D01*
X644116Y487189D01*
X305259Y1223858D02*
G01*
X294116Y1223858D01*
X294116Y1273860D01*
X194116Y1273860D01*
X194116Y213857D01*
X644116Y1000516D02*
G01*
X644116Y1223858D01*
X638586Y1223858D01*
X194116Y213857D02*
G01*
X294116Y213857D01*
X294116Y273860D01*
X305262Y273860D01*
D16*
X-742574Y2060933D02*
G01*
X-1245468Y1558038D01*
X-994021Y1306593D01*
X-491126Y1809485D01*
X-742574Y2060933D01*
D11*
X-11463Y-819840D02*
G01*
X-11463Y-842611D01*
X-11463Y-842611D01*
X973777Y-842611D01*
X973777Y-842611D01*
X973777Y-819840D01*
X-11463Y159857D02*
G01*
X-11463Y182628D01*
X-11463Y182628D01*
X973777Y182628D01*
X973777Y182628D01*
X973777Y159857D01*
D16*
X1168145Y-310324D02*
G01*
X1168145Y-320885D01*
X1168145Y-467113D02*
G01*
X1168145Y-477674D01*
D11*
X1250950Y31803D02*
G01*
X1135710Y31803D01*
X1250950Y-143436D02*
G01*
X1135710Y-143436D01*
X1416921Y-69397D02*
G01*
X1453766Y-69397D01*
X1469006Y-84637D01*
X1469006Y-132278D01*
X1453766Y-147518D01*
X1416921Y-147518D01*
X1383682Y-69397D02*
G01*
X1346837Y-69397D01*
X1331597Y-84637D01*
X1331597Y-132278D01*
X1346837Y-147518D01*
X1383682Y-147518D01*
X1090137Y184734D02*
G01*
X1169146Y184734D01*
X1169146Y85013D02*
G01*
X1090137Y85013D01*
X1074897Y100253D02*
G01*
X1074897Y169494D01*
X1293398Y184734D02*
G01*
X1214389Y184734D01*
X1214389Y85013D02*
G01*
X1293398Y85013D01*
X1308638Y100253D02*
G01*
X1308638Y169494D01*
X1258646Y789447D02*
G01*
X1258646Y861250D01*
X1158925Y861250D01*
X1158925Y789447D01*
X1258646Y744204D02*
G01*
X1258646Y672401D01*
X1158925Y672401D01*
X1158925Y744204D01*
X935070Y1444630D02*
G01*
X1006873Y1444630D01*
X1006873Y1544350D01*
X935070Y1544350D01*
X889828Y1444630D02*
G01*
X818024Y1444630D01*
X818024Y1544350D01*
X889828Y1544350D01*
X1870471Y569645D02*
G01*
X1942274Y569645D01*
X1942274Y669366D01*
X1870471Y669366D01*
X1825228Y569645D02*
G01*
X1753425Y569645D01*
X1753425Y669366D01*
X1825228Y669366D01*
X1890953Y954262D02*
G01*
X1890953Y882459D01*
X1990674Y882459D01*
X1990674Y954262D01*
X1890953Y999505D02*
G01*
X1890953Y1071308D01*
X1990674Y1071308D01*
X1990674Y999505D01*
X1818670Y42087D02*
G01*
X1739661Y42087D01*
X1739661Y141808D02*
G01*
X1818670Y141808D01*
X1833910Y126568D02*
G01*
X1833910Y57327D01*
X1615409Y42087D02*
G01*
X1694418Y42087D01*
X1694418Y141808D02*
G01*
X1615409Y141808D01*
X1600169Y126568D02*
G01*
X1600169Y57327D01*
X-99491Y32034D02*
G01*
X-99491Y-46974D01*
X-199212Y-46974D02*
G01*
X-199212Y32034D01*
X-183972Y47274D02*
G01*
X-114731Y47274D01*
X-99491Y-171226D02*
G01*
X-99491Y-92217D01*
X-199212Y-92217D02*
G01*
X-199212Y-171226D01*
X-183972Y-186466D02*
G01*
X-114731Y-186466D01*
X1646298Y-149550D02*
G01*
X1609453Y-149550D01*
X1609453Y-71429D02*
G01*
X1646298Y-71429D01*
X1661538Y-86669D02*
G01*
X1661538Y-134310D01*
X1539369Y-149550D02*
G01*
X1576214Y-149550D01*
X1576214Y-71429D02*
G01*
X1539369Y-71429D01*
X1524129Y-86669D02*
G01*
X1524129Y-134310D01*
X-350997Y-192862D02*
G01*
X-430006Y-192862D01*
X-430006Y-93141D02*
G01*
X-350997Y-93141D01*
X-335757Y-108384D02*
G01*
X-335757Y-177619D01*
X-554258Y-192862D02*
G01*
X-475249Y-192862D01*
X-475249Y-93141D02*
G01*
X-554258Y-93141D01*
X-569498Y-108384D02*
G01*
X-569498Y-177619D01*
X-168038Y-619561D02*
G01*
X-122486Y-619561D01*
X-122486Y-697682D01*
X-168038Y-697682D01*
X-201277Y-619561D02*
G01*
X-246829Y-619561D01*
X-246829Y-697682D01*
X-201277Y-697682D01*
X-216717Y-8237D02*
G01*
X-216717Y-45082D01*
X-231957Y-60322D01*
X-279598Y-60322D01*
X-294838Y-45082D01*
X-294838Y-8237D01*
X-216717Y25001D02*
G01*
X-216717Y61846D01*
X-231957Y77086D01*
X-279598Y77086D01*
X-294838Y61846D01*
X-294838Y25001D01*
X-68341Y321640D02*
G01*
X-140144Y321640D01*
X-140144Y221919D01*
X-68341Y221919D01*
X-23098Y321640D02*
G01*
X48704Y321640D01*
X48704Y221919D01*
X-23098Y221919D01*
X1371676Y788939D02*
G01*
X1371676Y860742D01*
X1271955Y860742D01*
X1271955Y788939D01*
X1371676Y743696D02*
G01*
X1371676Y671893D01*
X1271955Y671893D01*
X1271955Y743696D01*
X-169412Y1268669D02*
G01*
X-169412Y1196865D01*
X-69692Y1196865D01*
X-69692Y1268669D01*
X-169412Y1313911D02*
G01*
X-169412Y1385714D01*
X-69692Y1385714D01*
X-69692Y1313911D01*
D16*
X1479100Y2014809D02*
G01*
X1416237Y1951946D01*
X1585168Y1908743D02*
G01*
X1522305Y1845878D01*
X1585168Y1908743D02*
G01*
X1479100Y2014809D01*
X1543083Y1825101D02*
G01*
X1395463Y1972726D01*
X1181821Y1881032D02*
G01*
X1163942Y1898914D01*
X1235786Y1970758D01*
X1545983Y1670296D02*
G01*
X1469273Y1593585D01*
X1451394Y1611464D01*
D11*
X887034Y1423700D02*
G01*
X815230Y1423700D01*
X815230Y1323980D01*
X887034Y1323980D01*
X932276Y1423700D02*
G01*
X1004079Y1423700D01*
X1004079Y1323980D01*
X932276Y1323980D01*
D16*
X1837928Y1545823D02*
G01*
X1758025Y1506855D01*
X1903686Y1411003D02*
G01*
X1823783Y1372034D01*
X1903686Y1411003D02*
G01*
X1837928Y1545823D01*
X1836663Y1345623D02*
G01*
X1745145Y1533265D01*
X1513296Y1516123D02*
G01*
X1502209Y1538848D01*
X1593527Y1583387D01*
X1789005Y1198305D02*
G01*
X1691500Y1150749D01*
X1680413Y1173474D01*
D11*
X1415445Y1390888D02*
G01*
X1415445Y1311879D01*
X1315725Y1311876D02*
G01*
X1315725Y1390888D01*
X1330965Y1406128D02*
G01*
X1400205Y1406128D01*
X1415445Y1187627D02*
G01*
X1415445Y1266639D01*
X1315725Y1266637D02*
G01*
X1315725Y1187627D01*
X1330965Y1172387D02*
G01*
X1400205Y1172387D01*
X1296065Y1300449D02*
G01*
X1296065Y1372252D01*
X1196345Y1372252D01*
X1196345Y1300446D01*
X1296065Y1255209D02*
G01*
X1296065Y1183403D01*
X1196345Y1183403D01*
X1196345Y1255207D01*
X1775129Y876269D02*
G01*
X1775129Y955278D01*
X1874850Y955278D02*
G01*
X1874850Y876269D01*
X1859610Y861029D02*
G01*
X1790369Y861029D01*
X1775129Y1079530D02*
G01*
X1775129Y1000521D01*
X1874850Y1000521D02*
G01*
X1874850Y1079530D01*
X1859610Y1094770D02*
G01*
X1790369Y1094770D01*
X-675576Y314368D02*
G01*
X-747379Y314368D01*
X-747379Y214647D01*
X-675576Y214647D01*
X-630334Y314368D02*
G01*
X-558530Y314368D01*
X-558530Y214647D01*
X-630334Y214647D01*
X-365775Y-440867D02*
G01*
X-437578Y-440867D01*
X-437578Y-540588D01*
X-365775Y-540588D01*
X-320532Y-440867D02*
G01*
X-248729Y-440867D01*
X-248729Y-540588D01*
X-320532Y-540588D01*
G75*
G01*
X1090138Y85014D02*
G02*
X1074898Y100254I0J15240D01*
G75*
G01*
X1074898Y169494D02*
G02*
X1090138Y184734I15240J0D01*
G75*
G01*
X1293398Y85014D02*
G03*
X1308638Y100254I0J15240D01*
G75*
G01*
X1308638Y169494D02*
G03*
X1293398Y184734I-15240J0D01*
G75*
G01*
X1818670Y141808D02*
G02*
X1833910Y126568I0J-15240D01*
G75*
G01*
X1833910Y57328D02*
G02*
X1818670Y42088I-15240J0D01*
G75*
G01*
X1615410Y141808D02*
G03*
X1600170Y126568I0J-15240D01*
G75*
G01*
X1600170Y57328D02*
G03*
X1615410Y42088I15240J0D01*
G75*
G01*
X-199212Y32034D02*
G02*
X-183972Y47274I15240J0D01*
G75*
G01*
X-114732Y47274D02*
G02*
X-99492Y32034I0J-15240D01*
G75*
G01*
X-199212Y-171226D02*
G03*
X-183972Y-186466I15240J0D01*
G75*
G01*
X-114732Y-186466D02*
G03*
X-99492Y-171226I0J15240D01*
G75*
G01*
X1646298Y-71430D02*
G02*
X1661538Y-86670I0J-15240D01*
G75*
G01*
X1661538Y-134310D02*
G02*
X1646298Y-149550I-15240J0D01*
G75*
G01*
X1539370Y-71430D02*
G03*
X1524130Y-86670I0J-15240D01*
G75*
G01*
X1524130Y-134310D02*
G03*
X1539370Y-149550I15240J0D01*
G75*
G01*
X-350998Y-93142D02*
G02*
X-335758Y-108384I0J-15240D01*
G75*
G01*
X-335758Y-177620D02*
G02*
X-350998Y-192862I-15240J-2D01*
G75*
G01*
X-554258Y-93142D02*
G03*
X-569498Y-108384I0J-15240D01*
G75*
G01*
X-569498Y-177620D02*
G03*
X-554258Y-192862I15240J-2D01*
G75*
G01*
X1315725Y1390889D02*
G02*
X1330965Y1406129I15240J0D01*
G75*
G01*
X1400205Y1406129D02*
G02*
X1415445Y1390889I0J-15240D01*
G75*
G01*
X1315725Y1187628D02*
G03*
X1330965Y1172388I15240J0D01*
G75*
G01*
X1400205Y1172388D02*
G03*
X1415445Y1187628I0J15240D01*
G75*
G01*
X1874850Y876270D02*
G02*
X1859610Y861030I-15240J0D01*
G75*
G01*
X1790370Y861030D02*
G02*
X1775130Y876270I0J15240D01*
G75*
G01*
X1874850Y1079530D02*
G03*
X1859610Y1094770I-15240J0D01*
G75*
G01*
X1790370Y1094770D02*
G03*
X1775130Y1079530I0J-15240D01*
D12*
G75*
G01
X779351Y264279D02*
G03X779351Y264279I-6604J0D01*
G75*
G01
X685371Y193921D02*
G03X685371Y193921I-5842J0D01*
D17*
G75*
G01
X-748942Y505960D02*
G03X-748942Y505960I-10008J0D01*
G75*
G01
X-801774Y691126D02*
G03X-801774Y691126I-10008J0D01*
D14*
G75*
G01
X1362713Y799508D02*
G03X1362713Y799508I-5004J0D01*
G75*
G01
X946229Y1299304D02*
G03X946229Y1299304I-5004J0D01*
D16*
G75*
G01
X-1035733Y337482D02*
G03X-1035733Y337482I-20091J0D01*
D18*
G75*
G01
X-420850Y244340D02*
G03X-420850Y244340I-15011J0D01*
D16*
G75*
G01
X684406Y293870D02*
G03X684406Y293870I-10312J0D01*
D19*
G75*
G01
X-109344Y-770009D02*
G03X-109344Y-770009I-12497J0D01*
D16*
G75*
G01
X1363144Y-394012D02*
G03X1363144Y-394012I-70002J0D01*
G75*
G01
X1320498Y-394012D02*
G03X1320498Y-394012I-22352J0D01*
D17*
G75*
G01
X1295809Y-5824D02*
G03X1295809Y-5824I-7493J0D01*
M02*
