G04 Layer: InnerLayer2*
G04 Panelize: , Column: 1, Row: 1, Board Size: 43.14mm x 33.02mm, Panelized Board Size: 43.14mm x 33.02mm*
G04 EasyEDA v6.5.37, 2023-11-04 14:50:19*
G04 5fb9839a784f4b4dba235304687c7bf2,9a4ed40c0dd746429eaf55b84663d2fb,10*
G04 Gerber Generator version 0.2*
G04 Scale: 100 percent, Rotated: No, Reflected: No *
G04 Dimensions in millimeters *
G04 leading zeros omitted , absolute positions ,4 integer and 5 decimal *
%FSLAX45Y45*%
%MOMM*%

%ADD10C,0.1600*%
%ADD11C,0.2000*%
%ADD12O,2.1999956000000003X1.1999976*%
%ADD13C,0.8000*%
%ADD14C,0.6096*%
%ADD15C,0.6200*%
%ADD16C,0.0178*%

%LPD*%
G36*
X271780Y-965758D02*
G01*
X213258Y-963930D01*
X154889Y-960069D01*
X96672Y-954278D01*
X38709Y-946505D01*
X-18999Y-936752D01*
X-76301Y-925068D01*
X-133197Y-911402D01*
X-189636Y-895858D01*
X-245465Y-878382D01*
X-300685Y-859028D01*
X-355193Y-837844D01*
X-408990Y-814781D01*
X-461924Y-789940D01*
X-514045Y-763270D01*
X-565200Y-734872D01*
X-615340Y-704748D01*
X-664464Y-672947D01*
X-709930Y-641299D01*
X-712774Y-638302D01*
X-714197Y-634441D01*
X-713943Y-630326D01*
X-712114Y-626668D01*
X-708964Y-624027D01*
X-705002Y-622858D01*
X-696214Y-622046D01*
X-686765Y-619506D01*
X-677824Y-615391D01*
X-669798Y-609752D01*
X-662838Y-602792D01*
X-657199Y-594766D01*
X-653084Y-585825D01*
X-650544Y-576376D01*
X-649681Y-566572D01*
X-650544Y-556768D01*
X-653084Y-547319D01*
X-657199Y-538378D01*
X-662838Y-530352D01*
X-669798Y-523392D01*
X-677824Y-517753D01*
X-686765Y-513638D01*
X-696214Y-511098D01*
X-706018Y-510235D01*
X-715822Y-511098D01*
X-725271Y-513638D01*
X-734212Y-517753D01*
X-742238Y-523392D01*
X-749198Y-530352D01*
X-754837Y-538378D01*
X-758952Y-547319D01*
X-761492Y-556768D01*
X-762355Y-566572D01*
X-761492Y-576376D01*
X-760577Y-579932D01*
X-760323Y-584149D01*
X-761847Y-588060D01*
X-764794Y-591058D01*
X-768756Y-592582D01*
X-772972Y-592378D01*
X-776732Y-590499D01*
X-804926Y-567842D01*
X-849274Y-529691D01*
X-892302Y-490067D01*
X-934008Y-448970D01*
X-974242Y-406501D01*
X-1013002Y-362712D01*
X-1050290Y-317601D01*
X-1086002Y-271272D01*
X-1120140Y-223774D01*
X-1152652Y-175107D01*
X-1183487Y-125374D01*
X-1212596Y-74625D01*
X-1239977Y-22961D01*
X-1265580Y29616D01*
X-1268933Y34798D01*
X-1272286Y38252D01*
X-1277366Y42062D01*
X-1283258Y44551D01*
X-1456131Y95250D01*
X-1459992Y97434D01*
X-1462633Y101041D01*
X-1463395Y105460D01*
X-1462227Y109728D01*
X-1459331Y113131D01*
X-1454200Y116992D01*
X-1445514Y125679D01*
X-1438198Y135483D01*
X-1432306Y146253D01*
X-1428038Y157734D01*
X-1425448Y169672D01*
X-1424533Y181914D01*
X-1425448Y194106D01*
X-1428038Y206095D01*
X-1432306Y217576D01*
X-1438198Y228346D01*
X-1445514Y238150D01*
X-1454200Y246786D01*
X-1461211Y252069D01*
X-1464005Y255219D01*
X-1465224Y259232D01*
X-1464767Y263398D01*
X-1462633Y267055D01*
X-1459230Y269494D01*
X-1455115Y270357D01*
X-1265732Y270357D01*
X-1261618Y269494D01*
X-1258214Y267055D01*
X-1256080Y263398D01*
X-1255623Y259232D01*
X-1256893Y255219D01*
X-1259636Y252069D01*
X-1266647Y246786D01*
X-1275334Y238150D01*
X-1282700Y228346D01*
X-1288542Y217576D01*
X-1292860Y206095D01*
X-1295450Y194106D01*
X-1296314Y181914D01*
X-1295450Y169672D01*
X-1292860Y157734D01*
X-1288542Y146253D01*
X-1282700Y135483D01*
X-1275334Y125679D01*
X-1266647Y116992D01*
X-1256842Y109677D01*
X-1246124Y103784D01*
X-1234643Y99517D01*
X-1222654Y96875D01*
X-1210056Y96012D01*
X-1110792Y96012D01*
X-1098194Y96875D01*
X-1086256Y99517D01*
X-1074775Y103784D01*
X-1064006Y109677D01*
X-1054201Y116992D01*
X-1045514Y125679D01*
X-1038199Y135483D01*
X-1032306Y146253D01*
X-1028039Y157734D01*
X-1025448Y169672D01*
X-1024534Y181914D01*
X-1025448Y194106D01*
X-1028039Y206095D01*
X-1032306Y217576D01*
X-1038199Y228346D01*
X-1045514Y238150D01*
X-1054201Y246786D01*
X-1064006Y254152D01*
X-1074775Y260045D01*
X-1086256Y264312D01*
X-1097127Y266700D01*
X-1100683Y268173D01*
X-1103376Y270916D01*
X-1104900Y274421D01*
X-1105001Y278282D01*
X-1103680Y281889D01*
X-1101953Y284683D01*
X-1099870Y290220D01*
X-1099108Y296418D01*
X-1099108Y1185672D01*
X-1099566Y1190447D01*
X-1101344Y1196238D01*
X-1104442Y1201318D01*
X-1106525Y1203452D01*
X-1108710Y1206601D01*
X-1109522Y1210360D01*
X-1108913Y1214170D01*
X-1106881Y1217472D01*
X-1103833Y1219758D01*
X-1100074Y1220774D01*
X-1098194Y1220876D01*
X-1086256Y1223518D01*
X-1074775Y1227785D01*
X-1064006Y1233627D01*
X-1054201Y1240993D01*
X-1045514Y1249680D01*
X-1038199Y1259484D01*
X-1032306Y1270203D01*
X-1028039Y1281684D01*
X-1025448Y1293672D01*
X-1024534Y1305915D01*
X-1025448Y1318107D01*
X-1028039Y1330096D01*
X-1032306Y1341577D01*
X-1038199Y1352346D01*
X-1045514Y1362151D01*
X-1054201Y1370787D01*
X-1064006Y1378153D01*
X-1074775Y1384046D01*
X-1086256Y1388313D01*
X-1098194Y1390904D01*
X-1110792Y1391818D01*
X-1210056Y1391818D01*
X-1222654Y1390904D01*
X-1234643Y1388313D01*
X-1246124Y1384046D01*
X-1256842Y1378153D01*
X-1266647Y1370787D01*
X-1275334Y1362151D01*
X-1282700Y1352346D01*
X-1288542Y1341577D01*
X-1292860Y1330096D01*
X-1295450Y1318107D01*
X-1296314Y1305915D01*
X-1295450Y1293672D01*
X-1292860Y1281684D01*
X-1288542Y1270203D01*
X-1282700Y1259484D01*
X-1275334Y1249680D01*
X-1266647Y1240993D01*
X-1256842Y1233627D01*
X-1252270Y1231138D01*
X-1248918Y1228191D01*
X-1247140Y1224127D01*
X-1247292Y1219708D01*
X-1249324Y1215745D01*
X-1252829Y1213053D01*
X-1257147Y1212088D01*
X-1463751Y1212088D01*
X-1468069Y1213053D01*
X-1471574Y1215745D01*
X-1473555Y1219708D01*
X-1473708Y1224127D01*
X-1471930Y1228191D01*
X-1468577Y1231138D01*
X-1464005Y1233627D01*
X-1454200Y1240993D01*
X-1445514Y1249680D01*
X-1438198Y1259484D01*
X-1432306Y1270203D01*
X-1428038Y1281684D01*
X-1425448Y1293672D01*
X-1424533Y1305915D01*
X-1425448Y1318107D01*
X-1428038Y1330096D01*
X-1432306Y1341577D01*
X-1438198Y1352346D01*
X-1445514Y1362151D01*
X-1454200Y1370787D01*
X-1464005Y1378153D01*
X-1465732Y1379067D01*
X-1468729Y1381607D01*
X-1470558Y1385062D01*
X-1470964Y1388973D01*
X-1469847Y1392732D01*
X-1467408Y1395780D01*
X-1463954Y1397660D01*
X-1283106Y1456029D01*
X-1277467Y1458569D01*
X-1272844Y1462278D01*
X-1268222Y1468069D01*
X-1265478Y1472590D01*
X-1240078Y1524863D01*
X-1212951Y1576070D01*
X-1184097Y1626362D01*
X-1153566Y1675688D01*
X-1121410Y1723948D01*
X-1087678Y1771091D01*
X-1052372Y1817065D01*
X-1015492Y1861820D01*
X-977188Y1905355D01*
X-937412Y1947519D01*
X-896213Y1988362D01*
X-853694Y2027783D01*
X-809904Y2065731D01*
X-764794Y2102205D01*
X-718566Y2137156D01*
X-671118Y2170531D01*
X-622604Y2202281D01*
X-573074Y2232355D01*
X-524001Y2259939D01*
X-519988Y2261209D01*
X-515823Y2260701D01*
X-512216Y2258618D01*
X-509727Y2255164D01*
X-508863Y2251100D01*
X-508863Y1774545D01*
X-508101Y1768043D01*
X-505968Y1762506D01*
X-502462Y1757375D01*
X-499414Y1754327D01*
X-495808Y1751685D01*
X-491540Y1749755D01*
X-488391Y1747520D01*
X-486257Y1744319D01*
X-485546Y1740509D01*
X-485546Y1477721D01*
X-483666Y1475130D01*
X-482752Y1474927D01*
X216306Y1474927D01*
X220268Y1474114D01*
X223621Y1471828D01*
X225806Y1468424D01*
X226466Y1464411D01*
X222707Y1450695D01*
X220675Y1446784D01*
X217170Y1444142D01*
X212902Y1443177D01*
X208584Y1444142D01*
X207060Y1444802D01*
X197612Y1447342D01*
X187807Y1448206D01*
X178003Y1447342D01*
X168554Y1444802D01*
X159613Y1440688D01*
X151587Y1435049D01*
X144627Y1428089D01*
X138988Y1420063D01*
X134874Y1411122D01*
X132334Y1401673D01*
X131470Y1391869D01*
X132334Y1382064D01*
X134874Y1372616D01*
X138988Y1363675D01*
X144627Y1355648D01*
X151587Y1348689D01*
X159613Y1343050D01*
X168554Y1338935D01*
X178003Y1336395D01*
X187807Y1335532D01*
X197612Y1336395D01*
X207060Y1338935D01*
X216001Y1343050D01*
X219456Y1344930D01*
X222554Y1345438D01*
X688136Y1345438D01*
X692099Y1344625D01*
X695452Y1342288D01*
X697636Y1338884D01*
X698296Y1334922D01*
X697331Y1330960D01*
X696366Y1328877D01*
X693826Y1319428D01*
X692962Y1309624D01*
X693826Y1299819D01*
X696366Y1290370D01*
X700532Y1281430D01*
X706170Y1273403D01*
X713079Y1266444D01*
X721156Y1260805D01*
X730046Y1256690D01*
X739546Y1254150D01*
X749350Y1253286D01*
X759104Y1254150D01*
X768604Y1256690D01*
X777494Y1260805D01*
X785571Y1266444D01*
X792480Y1273403D01*
X798118Y1281430D01*
X802284Y1290370D01*
X804824Y1299819D01*
X805688Y1309624D01*
X804824Y1319428D01*
X802284Y1328877D01*
X801319Y1330960D01*
X800354Y1334922D01*
X801014Y1338884D01*
X803198Y1342288D01*
X806551Y1344625D01*
X810514Y1345438D01*
X973683Y1345438D01*
X981252Y1346200D01*
X987958Y1348384D01*
X994206Y1351991D01*
X998474Y1355648D01*
X1037590Y1394815D01*
X1041044Y1397050D01*
X1045108Y1397762D01*
X1049070Y1396796D01*
X1052372Y1394358D01*
X1054455Y1390802D01*
X1054912Y1386738D01*
X1054404Y1380998D01*
X1055268Y1371193D01*
X1057808Y1361744D01*
X1061974Y1352804D01*
X1067612Y1344777D01*
X1074521Y1337818D01*
X1082598Y1332179D01*
X1091488Y1328064D01*
X1100988Y1325524D01*
X1110792Y1324660D01*
X1120546Y1325524D01*
X1130046Y1328064D01*
X1138936Y1332179D01*
X1147013Y1337818D01*
X1153922Y1344777D01*
X1159560Y1352804D01*
X1163726Y1361744D01*
X1166266Y1371193D01*
X1167130Y1380998D01*
X1166266Y1390802D01*
X1163726Y1400251D01*
X1159560Y1409192D01*
X1153922Y1417218D01*
X1147013Y1424178D01*
X1138936Y1429816D01*
X1130046Y1433931D01*
X1120546Y1436471D01*
X1110792Y1437335D01*
X1105052Y1436827D01*
X1100988Y1437335D01*
X1097381Y1439367D01*
X1094943Y1442669D01*
X1094028Y1446682D01*
X1094740Y1450695D01*
X1096975Y1454150D01*
X1110488Y1467662D01*
X1113790Y1469847D01*
X1117650Y1470660D01*
X1174851Y1470660D01*
X1182420Y1471422D01*
X1189126Y1473606D01*
X1195374Y1477213D01*
X1199642Y1480870D01*
X1267968Y1549196D01*
X1271270Y1551381D01*
X1275130Y1552194D01*
X1434084Y1552194D01*
X1437995Y1551381D01*
X1441297Y1549196D01*
X1447647Y1542796D01*
X1455724Y1537157D01*
X1464614Y1533042D01*
X1474114Y1530502D01*
X1483918Y1529638D01*
X1493672Y1530502D01*
X1503172Y1533042D01*
X1512062Y1537157D01*
X1520139Y1542796D01*
X1527048Y1549755D01*
X1532686Y1557782D01*
X1536852Y1566722D01*
X1539392Y1576171D01*
X1540256Y1585976D01*
X1539392Y1595780D01*
X1536852Y1605229D01*
X1532686Y1614170D01*
X1528470Y1620215D01*
X1526844Y1623974D01*
X1526844Y1628089D01*
X1528470Y1631848D01*
X1534210Y1640078D01*
X1538376Y1649018D01*
X1540764Y1657857D01*
X1542237Y1661109D01*
X1544777Y1663598D01*
X1548028Y1665071D01*
X1551584Y1665376D01*
X1560931Y1664411D01*
X1571548Y1665071D01*
X1581861Y1667408D01*
X1591716Y1671320D01*
X1600809Y1676806D01*
X1608836Y1683715D01*
X1615744Y1691792D01*
X1621231Y1700834D01*
X1625193Y1710689D01*
X1627479Y1721002D01*
X1628139Y1731619D01*
X1627073Y1742135D01*
X1624330Y1752396D01*
X1619961Y1762048D01*
X1614119Y1770888D01*
X1606956Y1778711D01*
X1598625Y1785213D01*
X1589328Y1790344D01*
X1579321Y1793900D01*
X1568907Y1795830D01*
X1558290Y1796034D01*
X1547825Y1794560D01*
X1537665Y1791411D01*
X1528216Y1786636D01*
X1519580Y1780438D01*
X1512112Y1772970D01*
X1505915Y1764334D01*
X1501190Y1754886D01*
X1498041Y1744776D01*
X1496415Y1733346D01*
X1495196Y1729689D01*
X1492656Y1726793D01*
X1489303Y1725015D01*
X1475638Y1723745D01*
X1466138Y1721205D01*
X1457248Y1717090D01*
X1449171Y1711452D01*
X1442923Y1705152D01*
X1439621Y1702968D01*
X1435709Y1702155D01*
X1113078Y1702155D01*
X1107694Y1702511D01*
X1104036Y1704593D01*
X1101547Y1708048D01*
X1100683Y1712163D01*
X1100683Y1762048D01*
X1101750Y1766620D01*
X1102918Y1774088D01*
X1102918Y2251100D01*
X1103782Y2255164D01*
X1106170Y2258517D01*
X1109726Y2260650D01*
X1113790Y2261209D01*
X1118666Y2259634D01*
X1169517Y2230932D01*
X1219301Y2200554D01*
X1268069Y2168550D01*
X1315770Y2134870D01*
X1362252Y2099564D01*
X1407515Y2062734D01*
X1451508Y2024430D01*
X1494180Y1984603D01*
X1535480Y1943404D01*
X1575358Y1900783D01*
X1613763Y1856892D01*
X1650695Y1811680D01*
X1686052Y1765249D01*
X1719783Y1717649D01*
X1751939Y1668983D01*
X1782419Y1619199D01*
X1811172Y1568450D01*
X1838198Y1516735D01*
X1863496Y1464106D01*
X1886966Y1410716D01*
X1908606Y1356512D01*
X1928418Y1301597D01*
X1946351Y1246073D01*
X1961083Y1194612D01*
X1961743Y1190193D01*
X1963775Y1184554D01*
X1967026Y1179677D01*
X1972157Y1175004D01*
X1977389Y1172057D01*
X1983689Y1170330D01*
X2512466Y1091946D01*
X2515870Y1090777D01*
X2518664Y1088542D01*
X2520492Y1085443D01*
X2521102Y1081887D01*
X2521102Y406806D01*
X2520442Y403199D01*
X2518562Y400050D01*
X2515717Y397814D01*
X2512212Y396697D01*
X2470251Y391464D01*
X2465832Y391922D01*
X2461971Y394208D01*
X2459532Y397916D01*
X2458872Y402336D01*
X2460193Y406603D01*
X2463190Y409854D01*
X2465120Y411226D01*
X2472080Y418185D01*
X2477719Y426212D01*
X2481834Y435152D01*
X2484374Y444601D01*
X2485237Y454406D01*
X2484374Y464210D01*
X2481834Y473659D01*
X2477719Y482600D01*
X2472080Y490626D01*
X2465120Y497585D01*
X2457094Y503224D01*
X2448153Y507339D01*
X2438704Y509879D01*
X2428900Y510743D01*
X2419096Y509879D01*
X2409647Y507339D01*
X2400706Y503224D01*
X2397302Y500837D01*
X2393289Y499160D01*
X2388870Y499313D01*
X2384958Y501345D01*
X2382316Y504850D01*
X2381351Y509168D01*
X2382316Y513435D01*
X2386431Y522376D01*
X2388971Y531825D01*
X2389835Y541629D01*
X2388971Y551434D01*
X2386431Y560882D01*
X2382316Y569823D01*
X2376678Y577850D01*
X2369718Y584809D01*
X2361692Y590448D01*
X2352751Y594563D01*
X2346045Y596392D01*
X2342337Y598220D01*
X2339695Y601370D01*
X2338527Y605332D01*
X2338984Y609396D01*
X2341067Y612952D01*
X2344369Y615391D01*
X2351430Y618693D01*
X2359507Y624332D01*
X2366416Y631291D01*
X2372055Y639318D01*
X2376220Y648258D01*
X2378760Y657707D01*
X2379624Y667512D01*
X2378760Y677316D01*
X2376220Y686765D01*
X2372055Y695706D01*
X2368804Y700328D01*
X2367178Y704088D01*
X2367178Y708202D01*
X2368804Y711962D01*
X2370785Y714756D01*
X2374900Y723696D01*
X2377440Y733145D01*
X2378303Y742950D01*
X2377440Y752754D01*
X2374900Y762203D01*
X2370785Y771144D01*
X2366416Y777290D01*
X2364790Y781100D01*
X2364790Y785164D01*
X2371090Y798626D01*
X2373630Y808075D01*
X2374493Y817880D01*
X2373630Y827684D01*
X2371090Y837133D01*
X2366975Y846074D01*
X2361336Y854100D01*
X2354376Y861060D01*
X2346350Y866698D01*
X2337409Y870813D01*
X2335174Y871423D01*
X2331567Y873252D01*
X2328926Y876300D01*
X2327706Y880110D01*
X2328062Y884123D01*
X2329942Y887679D01*
X2333040Y890219D01*
X2336901Y891387D01*
X2341524Y891794D01*
X2350973Y894334D01*
X2359914Y898448D01*
X2367940Y904087D01*
X2374900Y911047D01*
X2380538Y919073D01*
X2384653Y928014D01*
X2387193Y937463D01*
X2388057Y947267D01*
X2387193Y957071D01*
X2384653Y966520D01*
X2380538Y975461D01*
X2374900Y983487D01*
X2367940Y990447D01*
X2359914Y996086D01*
X2350973Y1000201D01*
X2341524Y1002741D01*
X2331720Y1003604D01*
X2321915Y1002741D01*
X2312466Y1000201D01*
X2303526Y996086D01*
X2295499Y990447D01*
X2288540Y983487D01*
X2282901Y975461D01*
X2278786Y966520D01*
X2276246Y957071D01*
X2275382Y947267D01*
X2276246Y937463D01*
X2278786Y928014D01*
X2282901Y919073D01*
X2288540Y911047D01*
X2295499Y904087D01*
X2303526Y898448D01*
X2312466Y894334D01*
X2314702Y893724D01*
X2318308Y891895D01*
X2320950Y888847D01*
X2322169Y885037D01*
X2321814Y881024D01*
X2319934Y877468D01*
X2316835Y874928D01*
X2312974Y873760D01*
X2308352Y873353D01*
X2298903Y870813D01*
X2289962Y866698D01*
X2281936Y861060D01*
X2274976Y854100D01*
X2269337Y846074D01*
X2265222Y837133D01*
X2262682Y827684D01*
X2261819Y817880D01*
X2262682Y808075D01*
X2265222Y798626D01*
X2269337Y789686D01*
X2273706Y783539D01*
X2275332Y779729D01*
X2275332Y775614D01*
X2269032Y762203D01*
X2266492Y752754D01*
X2265629Y742950D01*
X2266492Y733145D01*
X2269032Y723696D01*
X2273147Y714756D01*
X2276398Y710133D01*
X2278024Y706374D01*
X2278024Y702259D01*
X2276398Y698500D01*
X2274468Y695706D01*
X2270302Y686765D01*
X2267762Y677316D01*
X2266899Y667512D01*
X2267762Y657707D01*
X2270302Y648258D01*
X2274468Y639318D01*
X2280107Y631291D01*
X2287016Y624332D01*
X2295093Y618693D01*
X2303983Y614578D01*
X2310739Y612749D01*
X2314397Y610920D01*
X2317038Y607771D01*
X2318207Y603808D01*
X2317750Y599744D01*
X2315718Y596188D01*
X2312416Y593750D01*
X2305304Y590448D01*
X2297277Y584809D01*
X2290318Y577850D01*
X2284679Y569823D01*
X2280564Y560882D01*
X2278024Y551434D01*
X2277160Y541629D01*
X2278024Y531825D01*
X2280564Y522376D01*
X2284679Y513435D01*
X2290318Y505409D01*
X2297277Y498449D01*
X2305304Y492810D01*
X2314244Y488696D01*
X2323693Y486156D01*
X2333498Y485292D01*
X2343302Y486156D01*
X2352751Y488696D01*
X2361692Y492810D01*
X2365095Y495198D01*
X2369108Y496874D01*
X2373528Y496722D01*
X2377440Y494690D01*
X2380081Y491185D01*
X2381046Y486867D01*
X2380081Y482600D01*
X2375966Y473659D01*
X2373426Y464210D01*
X2372563Y454406D01*
X2373426Y444601D01*
X2375966Y435152D01*
X2380081Y426212D01*
X2385720Y418185D01*
X2392680Y411226D01*
X2400706Y405587D01*
X2407310Y402539D01*
X2410764Y399897D01*
X2412796Y396087D01*
X2413050Y391769D01*
X2411476Y387705D01*
X2408377Y384708D01*
X2404262Y383235D01*
X1984400Y330911D01*
X1978304Y329387D01*
X1973122Y326593D01*
X1968398Y322580D01*
X1964791Y317804D01*
X1962404Y312013D01*
X1946198Y255473D01*
X1928164Y199796D01*
X1908302Y144780D01*
X1886559Y90474D01*
X1862988Y36931D01*
X1837639Y-15798D01*
X1810461Y-67614D01*
X1781606Y-118516D01*
X1762455Y-149656D01*
X1759762Y-152603D01*
X1756105Y-154228D01*
X1752142Y-154381D01*
X1748383Y-152908D01*
X1745488Y-150164D01*
X1739646Y-141833D01*
X1737360Y-139496D01*
X1735124Y-136194D01*
X1734362Y-132334D01*
X1735124Y-128422D01*
X1743252Y-116789D01*
X1747418Y-107899D01*
X1749958Y-98399D01*
X1750822Y-88646D01*
X1749958Y-78841D01*
X1747418Y-69342D01*
X1743252Y-60452D01*
X1737614Y-52425D01*
X1730654Y-45466D01*
X1722628Y-39827D01*
X1713738Y-35712D01*
X1704238Y-33121D01*
X1694434Y-32308D01*
X1684680Y-33121D01*
X1675180Y-35712D01*
X1666290Y-39827D01*
X1658213Y-45466D01*
X1651304Y-52425D01*
X1645666Y-60452D01*
X1641500Y-69342D01*
X1638960Y-78841D01*
X1638096Y-88646D01*
X1638960Y-98399D01*
X1641500Y-107899D01*
X1645666Y-116789D01*
X1651304Y-124866D01*
X1653590Y-127152D01*
X1655825Y-130454D01*
X1656588Y-134366D01*
X1655825Y-138226D01*
X1647698Y-149860D01*
X1643532Y-158750D01*
X1640992Y-168249D01*
X1640128Y-178054D01*
X1640992Y-187807D01*
X1643532Y-197307D01*
X1647698Y-206197D01*
X1653336Y-214274D01*
X1660245Y-221234D01*
X1668322Y-226821D01*
X1677212Y-230987D01*
X1686712Y-233527D01*
X1688185Y-233679D01*
X1692249Y-234899D01*
X1695450Y-237693D01*
X1697228Y-241554D01*
X1697278Y-245770D01*
X1695602Y-249682D01*
X1684782Y-264820D01*
X1649272Y-311353D01*
X1612239Y-356616D01*
X1573631Y-400608D01*
X1533601Y-443230D01*
X1492554Y-484073D01*
X1489354Y-486206D01*
X1485595Y-487019D01*
X1481734Y-486359D01*
X1478483Y-484276D01*
X1476197Y-481177D01*
X1474266Y-477012D01*
X1468628Y-468985D01*
X1461668Y-462026D01*
X1453642Y-456387D01*
X1444752Y-452272D01*
X1435252Y-449681D01*
X1425448Y-448868D01*
X1415694Y-449681D01*
X1406194Y-452272D01*
X1397304Y-456387D01*
X1389227Y-462026D01*
X1382318Y-468985D01*
X1376680Y-477012D01*
X1372514Y-485901D01*
X1369974Y-495401D01*
X1369110Y-505206D01*
X1369974Y-514959D01*
X1372514Y-524459D01*
X1376680Y-533349D01*
X1382318Y-541426D01*
X1389227Y-548386D01*
X1396187Y-553212D01*
X1398828Y-555904D01*
X1400302Y-559358D01*
X1400403Y-563067D01*
X1399184Y-566623D01*
X1396796Y-569468D01*
X1359662Y-599541D01*
X1312976Y-634796D01*
X1265123Y-668477D01*
X1216152Y-700532D01*
X1166114Y-730859D01*
X1115110Y-759510D01*
X1063142Y-786384D01*
X1010310Y-811479D01*
X956614Y-834796D01*
X902208Y-856234D01*
X847090Y-875842D01*
X791311Y-893571D01*
X734974Y-909370D01*
X678180Y-923290D01*
X620877Y-935278D01*
X563219Y-945286D01*
X505307Y-953312D01*
X447090Y-959408D01*
X388721Y-963523D01*
X330250Y-965606D01*
G37*

%LPC*%
G36*
X693724Y-895553D02*
G01*
X703478Y-894689D01*
X712978Y-892149D01*
X721868Y-888034D01*
X729945Y-882396D01*
X736854Y-875436D01*
X742492Y-867410D01*
X746658Y-858469D01*
X749198Y-849020D01*
X750062Y-839216D01*
X749198Y-829411D01*
X746658Y-819962D01*
X742492Y-811022D01*
X736854Y-802995D01*
X729945Y-796036D01*
X721868Y-790397D01*
X712978Y-786282D01*
X703478Y-783742D01*
X693724Y-782878D01*
X683920Y-783742D01*
X674420Y-786282D01*
X665530Y-790397D01*
X657453Y-796036D01*
X650544Y-802995D01*
X644906Y-811022D01*
X640740Y-819962D01*
X638200Y-829411D01*
X637336Y-839216D01*
X638200Y-849020D01*
X640740Y-858469D01*
X644906Y-867410D01*
X650544Y-875436D01*
X657453Y-882396D01*
X665530Y-888034D01*
X674420Y-892149D01*
X683920Y-894689D01*
G37*
G36*
X-177190Y-830427D02*
G01*
X-167386Y-829564D01*
X-157937Y-827024D01*
X-148996Y-822909D01*
X-140970Y-817270D01*
X-134010Y-810310D01*
X-128371Y-802284D01*
X-124256Y-793343D01*
X-121716Y-783894D01*
X-120853Y-774090D01*
X-121716Y-764286D01*
X-124256Y-754837D01*
X-128371Y-745896D01*
X-134010Y-737870D01*
X-140970Y-730910D01*
X-148996Y-725271D01*
X-157937Y-721156D01*
X-167386Y-718616D01*
X-177190Y-717753D01*
X-186994Y-718616D01*
X-196443Y-721156D01*
X-202133Y-723798D01*
X-206248Y-724712D01*
X-210413Y-723900D01*
X-213867Y-721512D01*
X-216001Y-717854D01*
X-216560Y-713689D01*
X-216154Y-709422D01*
X-216408Y-706424D01*
X-215849Y-702056D01*
X-213512Y-698347D01*
X-212090Y-696925D01*
X-208788Y-694740D01*
X-204876Y-693928D01*
X73761Y-693928D01*
X81330Y-693166D01*
X88036Y-690981D01*
X94284Y-687374D01*
X98552Y-683717D01*
X152755Y-629513D01*
X157530Y-623620D01*
X160731Y-617321D01*
X162610Y-610362D01*
X163017Y-604774D01*
X163017Y3200D01*
X163830Y7112D01*
X166014Y10414D01*
X172212Y16611D01*
X177850Y24638D01*
X182016Y33578D01*
X184556Y43027D01*
X185166Y50292D01*
X186080Y53695D01*
X188112Y56591D01*
X191008Y58623D01*
X194411Y59537D01*
X197764Y59842D01*
X207264Y62382D01*
X216154Y66497D01*
X224231Y72136D01*
X231140Y79095D01*
X234797Y84277D01*
X237642Y87020D01*
X241350Y88442D01*
X245313Y88392D01*
X248970Y86766D01*
X257860Y80467D01*
X266750Y76352D01*
X276250Y73812D01*
X286054Y72948D01*
X295808Y73812D01*
X305308Y76352D01*
X314198Y80467D01*
X322275Y86106D01*
X329184Y93065D01*
X334822Y101092D01*
X338988Y110032D01*
X341528Y119481D01*
X342392Y129285D01*
X341528Y139090D01*
X338988Y148539D01*
X334822Y157480D01*
X329184Y165506D01*
X322275Y172466D01*
X314198Y178104D01*
X305308Y182219D01*
X295808Y184759D01*
X286054Y185623D01*
X277266Y184861D01*
X273354Y185318D01*
X269849Y187198D01*
X267360Y190296D01*
X266293Y194106D01*
X265277Y205740D01*
X266344Y209296D01*
X268579Y212242D01*
X271729Y214172D01*
X275386Y214833D01*
X829818Y214833D01*
X833932Y214020D01*
X837336Y211582D01*
X839469Y207975D01*
X839927Y203809D01*
X839012Y193294D01*
X839876Y183489D01*
X842416Y174040D01*
X846582Y165100D01*
X852220Y157073D01*
X859129Y150114D01*
X867206Y144475D01*
X876096Y140360D01*
X885596Y137820D01*
X895400Y136956D01*
X905154Y137820D01*
X914653Y140360D01*
X923544Y144475D01*
X931621Y150114D01*
X935329Y153822D01*
X939037Y156210D01*
X943406Y156768D01*
X947572Y155448D01*
X950823Y152501D01*
X956868Y143865D01*
X963777Y136906D01*
X971854Y131267D01*
X980744Y127152D01*
X990244Y124612D01*
X1000048Y123748D01*
X1009802Y124612D01*
X1019302Y127152D01*
X1028192Y131267D01*
X1036269Y136906D01*
X1043178Y143865D01*
X1048816Y151892D01*
X1052982Y160832D01*
X1055522Y170281D01*
X1056386Y180086D01*
X1055522Y189890D01*
X1051560Y204317D01*
X1052220Y208330D01*
X1054404Y211734D01*
X1057706Y214071D01*
X1061720Y214833D01*
X1106830Y214833D01*
X1110030Y214325D01*
X1112875Y212852D01*
X1116126Y209143D01*
X1123035Y202184D01*
X1131112Y196545D01*
X1140002Y192430D01*
X1149502Y189890D01*
X1159306Y189026D01*
X1169060Y189890D01*
X1178560Y192430D01*
X1187450Y196545D01*
X1195527Y202184D01*
X1202436Y209143D01*
X1208074Y217170D01*
X1212240Y226110D01*
X1214780Y235559D01*
X1215644Y245364D01*
X1214780Y255168D01*
X1212240Y264617D01*
X1208074Y273558D01*
X1204518Y278587D01*
X1203045Y281787D01*
X1202740Y285292D01*
X1203655Y288747D01*
X1211630Y299974D01*
X1215796Y308914D01*
X1218336Y318363D01*
X1219200Y328168D01*
X1218336Y337972D01*
X1215796Y347421D01*
X1211630Y356362D01*
X1206906Y363118D01*
X1205280Y366877D01*
X1205280Y370992D01*
X1206906Y374802D01*
X1212138Y382270D01*
X1216304Y391210D01*
X1218844Y400659D01*
X1219708Y410464D01*
X1218844Y420268D01*
X1216304Y429717D01*
X1212138Y438658D01*
X1206500Y446684D01*
X1204722Y448513D01*
X1202690Y451408D01*
X1201775Y454812D01*
X1202080Y458317D01*
X1203553Y461518D01*
X1209090Y469392D01*
X1213256Y478332D01*
X1215796Y487781D01*
X1216660Y497585D01*
X1215796Y507390D01*
X1213256Y516839D01*
X1209090Y525780D01*
X1203452Y533806D01*
X1196543Y540766D01*
X1188466Y546404D01*
X1179576Y550519D01*
X1170076Y553059D01*
X1160322Y553923D01*
X1150518Y553059D01*
X1141018Y550519D01*
X1132128Y546404D01*
X1124051Y540766D01*
X1117650Y534314D01*
X1114856Y532333D01*
X1111554Y531418D01*
X1104747Y530707D01*
X1097991Y528523D01*
X1091742Y524916D01*
X1087526Y521258D01*
X959815Y393598D01*
X956513Y391414D01*
X952652Y390601D01*
X948182Y390601D01*
X943914Y391566D01*
X940409Y394258D01*
X938377Y398170D01*
X938174Y402539D01*
X939850Y406603D01*
X944168Y412750D01*
X948334Y421690D01*
X950874Y431139D01*
X951737Y440943D01*
X950874Y450748D01*
X948334Y460197D01*
X944168Y469138D01*
X938530Y477164D01*
X931621Y484124D01*
X923544Y489762D01*
X914653Y493877D01*
X905154Y496417D01*
X895400Y497281D01*
X885596Y496417D01*
X876096Y493877D01*
X866800Y489559D01*
X862787Y488594D01*
X858723Y489305D01*
X855319Y491591D01*
X851865Y495046D01*
X843787Y500684D01*
X834898Y504799D01*
X825398Y507339D01*
X815644Y508203D01*
X805840Y507339D01*
X796340Y504799D01*
X791006Y502310D01*
X786688Y501345D01*
X575614Y501345D01*
X571754Y502158D01*
X568452Y504342D01*
X545795Y526999D01*
X543610Y530250D01*
X542798Y534060D01*
X541375Y655472D01*
X542137Y659434D01*
X544372Y662736D01*
X554939Y673354D01*
X557733Y675335D01*
X561086Y676249D01*
X574344Y675182D01*
X584098Y676046D01*
X593598Y678586D01*
X602488Y682701D01*
X610565Y688340D01*
X617474Y695299D01*
X623112Y703326D01*
X627278Y712266D01*
X629818Y721715D01*
X630682Y731520D01*
X629818Y741324D01*
X627278Y750773D01*
X623112Y759714D01*
X617474Y767740D01*
X610565Y774700D01*
X602488Y780338D01*
X593598Y784453D01*
X584098Y786993D01*
X579628Y787400D01*
X575818Y788517D01*
X572770Y791006D01*
X570839Y794461D01*
X570433Y798423D01*
X571042Y805789D01*
X570179Y815594D01*
X567639Y825042D01*
X563524Y833983D01*
X557885Y842010D01*
X550926Y848969D01*
X542899Y854608D01*
X533958Y858723D01*
X524510Y861263D01*
X514705Y862126D01*
X504901Y861263D01*
X495452Y858723D01*
X486511Y854608D01*
X478485Y848969D01*
X471525Y842010D01*
X465886Y833983D01*
X461772Y825042D01*
X459232Y815594D01*
X458368Y805789D01*
X458927Y799490D01*
X458317Y795121D01*
X455980Y791413D01*
X445820Y781304D01*
X441045Y775360D01*
X437794Y769061D01*
X435965Y762101D01*
X435508Y756310D01*
X436626Y584098D01*
X435813Y580085D01*
X433527Y576732D01*
X430072Y574548D01*
X426059Y573887D01*
X422097Y574852D01*
X412242Y579475D01*
X402742Y582015D01*
X392988Y582879D01*
X383184Y582015D01*
X373684Y579475D01*
X364794Y575360D01*
X356717Y569722D01*
X349808Y562762D01*
X344170Y554736D01*
X340004Y545795D01*
X337464Y536346D01*
X336600Y526542D01*
X337464Y516737D01*
X340004Y507288D01*
X344170Y498348D01*
X349808Y490321D01*
X356717Y483362D01*
X364794Y477723D01*
X373684Y473608D01*
X383184Y471068D01*
X392988Y470204D01*
X402742Y471068D01*
X412242Y473608D01*
X421335Y477875D01*
X425399Y479551D01*
X429768Y479399D01*
X433679Y477367D01*
X436372Y473913D01*
X437337Y469646D01*
X437337Y465226D01*
X438200Y457657D01*
X440435Y450951D01*
X444093Y444703D01*
X447548Y440690D01*
X480263Y407974D01*
X482498Y404672D01*
X483260Y400761D01*
X482498Y396900D01*
X480263Y393598D01*
X476961Y391414D01*
X473100Y390601D01*
X24282Y390601D01*
X20624Y391312D01*
X17475Y393242D01*
X15240Y396189D01*
X14173Y399745D01*
X15494Y413766D01*
X14630Y423570D01*
X12090Y433019D01*
X7924Y441959D01*
X2286Y449986D01*
X-4622Y456946D01*
X-12700Y462584D01*
X-21590Y466699D01*
X-31089Y469239D01*
X-40894Y470103D01*
X-50647Y469239D01*
X-60147Y466699D01*
X-69037Y462584D01*
X-77114Y456946D01*
X-84023Y449986D01*
X-89662Y441959D01*
X-93827Y433019D01*
X-96367Y423570D01*
X-97231Y413766D01*
X-95910Y399745D01*
X-96977Y396189D01*
X-99212Y393242D01*
X-102362Y391312D01*
X-106019Y390601D01*
X-169113Y390601D01*
X-172974Y391414D01*
X-176276Y393598D01*
X-181762Y399084D01*
X-183997Y402386D01*
X-184759Y406298D01*
X-184759Y542645D01*
X-183997Y546506D01*
X-181762Y549808D01*
X-175514Y556107D01*
X-169875Y564134D01*
X-165709Y573074D01*
X-163169Y582523D01*
X-162306Y592328D01*
X-163169Y602132D01*
X-165709Y611581D01*
X-169875Y620522D01*
X-175514Y628548D01*
X-182422Y635508D01*
X-190500Y641146D01*
X-199390Y645261D01*
X-208889Y647801D01*
X-218694Y648665D01*
X-228447Y647801D01*
X-237947Y645261D01*
X-246837Y641146D01*
X-255066Y635355D01*
X-257962Y632764D01*
X-260807Y630885D01*
X-264160Y630123D01*
X-267512Y630478D01*
X-270611Y631952D01*
X-279400Y638098D01*
X-288290Y642213D01*
X-297789Y644753D01*
X-307594Y645617D01*
X-317347Y644753D01*
X-326847Y642213D01*
X-335737Y638098D01*
X-343814Y632460D01*
X-350723Y625500D01*
X-356362Y617474D01*
X-360527Y608533D01*
X-363067Y599084D01*
X-363931Y589280D01*
X-363067Y579475D01*
X-360527Y570026D01*
X-356362Y561086D01*
X-350723Y553059D01*
X-344474Y546760D01*
X-342239Y543458D01*
X-341477Y539597D01*
X-341477Y369366D01*
X-340664Y361797D01*
X-338480Y355041D01*
X-334873Y348792D01*
X-331266Y344576D01*
X-322275Y335584D01*
X-320090Y332282D01*
X-319328Y328371D01*
X-320090Y324510D01*
X-322275Y321208D01*
X-325577Y319024D01*
X-329488Y318211D01*
X-334975Y318211D01*
X-338836Y319024D01*
X-342138Y321208D01*
X-452221Y431292D01*
X-454406Y434593D01*
X-455218Y438454D01*
X-455218Y615340D01*
X-454406Y619252D01*
X-452221Y622554D01*
X-446024Y628751D01*
X-440385Y636778D01*
X-436219Y645718D01*
X-433679Y655167D01*
X-432816Y664972D01*
X-433679Y674776D01*
X-436219Y684225D01*
X-440385Y693166D01*
X-446024Y701192D01*
X-452932Y708152D01*
X-461009Y713790D01*
X-469900Y717905D01*
X-479399Y720445D01*
X-482244Y720699D01*
X-486409Y722020D01*
X-489661Y725017D01*
X-491337Y729081D01*
X-491185Y733450D01*
X-489813Y738479D01*
X-488950Y748284D01*
X-489813Y758088D01*
X-492353Y767537D01*
X-496519Y776478D01*
X-502158Y784504D01*
X-509066Y791464D01*
X-517143Y797102D01*
X-526034Y801217D01*
X-535533Y803757D01*
X-545287Y804621D01*
X-555091Y803757D01*
X-564286Y801319D01*
X-567944Y801014D01*
X-571500Y802081D01*
X-574446Y804316D01*
X-576376Y807466D01*
X-577088Y811123D01*
X-577088Y1093368D01*
X-577799Y1099667D01*
X-579678Y1105154D01*
X-582777Y1110030D01*
X-586841Y1114145D01*
X-591769Y1117193D01*
X-597357Y1119174D01*
X-603148Y1119835D01*
X-702411Y1119835D01*
X-708710Y1119124D01*
X-714197Y1117193D01*
X-719074Y1114145D01*
X-723188Y1110030D01*
X-726236Y1105154D01*
X-728218Y1099515D01*
X-728878Y1093774D01*
X-728878Y901649D01*
X-729691Y897686D01*
X-731977Y894334D01*
X-735380Y892149D01*
X-739394Y891489D01*
X-743356Y892454D01*
X-749808Y895451D01*
X-759307Y897991D01*
X-769061Y898855D01*
X-778865Y897991D01*
X-788365Y895451D01*
X-797255Y891336D01*
X-805332Y885698D01*
X-812241Y878738D01*
X-817880Y870712D01*
X-822045Y861771D01*
X-824585Y852322D01*
X-825449Y842518D01*
X-824585Y832713D01*
X-822045Y823264D01*
X-817880Y814324D01*
X-812241Y806297D01*
X-805332Y799338D01*
X-797255Y793699D01*
X-788365Y789584D01*
X-778865Y787044D01*
X-769061Y786180D01*
X-759307Y787044D01*
X-749808Y789584D01*
X-743356Y792581D01*
X-739394Y793546D01*
X-735380Y792886D01*
X-731977Y790702D01*
X-729691Y787349D01*
X-728878Y783386D01*
X-728878Y394512D01*
X-728065Y387908D01*
X-726236Y382727D01*
X-723188Y377799D01*
X-719074Y373735D01*
X-714197Y370636D01*
X-708710Y368757D01*
X-702411Y367995D01*
X-603554Y367995D01*
X-597204Y368757D01*
X-591769Y370636D01*
X-586841Y373735D01*
X-580237Y380593D01*
X-577037Y382270D01*
X-573430Y382676D01*
X-569874Y381762D01*
X-566928Y379730D01*
X-516077Y328879D01*
X-513943Y325678D01*
X-513130Y321868D01*
X-513791Y318058D01*
X-515874Y314807D01*
X-518972Y312521D01*
X-523443Y310438D01*
X-531520Y304800D01*
X-538429Y297840D01*
X-544068Y289814D01*
X-548233Y280924D01*
X-550773Y271424D01*
X-551637Y261620D01*
X-550773Y251866D01*
X-548233Y242366D01*
X-544068Y233476D01*
X-538429Y225399D01*
X-531520Y218440D01*
X-523443Y212852D01*
X-514553Y208686D01*
X-505053Y206146D01*
X-495300Y205282D01*
X-485495Y206146D01*
X-475996Y208686D01*
X-467106Y212852D01*
X-459079Y218440D01*
X-452120Y225399D01*
X-446481Y233476D01*
X-444398Y237896D01*
X-442112Y241046D01*
X-438810Y243128D01*
X-435000Y243789D01*
X-431241Y242976D01*
X-427990Y240792D01*
X-412343Y225145D01*
X-406450Y220370D01*
X-400151Y217170D01*
X-393192Y215290D01*
X-387604Y214833D01*
X-169926Y214833D01*
X-166268Y214172D01*
X-163118Y212242D01*
X-160832Y209296D01*
X-159816Y205740D01*
X-160070Y202082D01*
X-161391Y197256D01*
X-162255Y187452D01*
X-161391Y177647D01*
X-158851Y168198D01*
X-154686Y159258D01*
X-149047Y151231D01*
X-142138Y144272D01*
X-134061Y138633D01*
X-125171Y134518D01*
X-115671Y131978D01*
X-112166Y131673D01*
X-108458Y130606D01*
X-105460Y128270D01*
X-103479Y125018D01*
X-102870Y121208D01*
X-103733Y117500D01*
X-105867Y114350D01*
X-237490Y-17322D01*
X-242570Y-23571D01*
X-245973Y-30226D01*
X-247954Y-37592D01*
X-248412Y-43484D01*
X-248412Y-315468D01*
X-249174Y-319328D01*
X-251358Y-322630D01*
X-255727Y-326999D01*
X-261366Y-335026D01*
X-265531Y-343966D01*
X-268071Y-353415D01*
X-268935Y-363220D01*
X-268071Y-373024D01*
X-265531Y-382473D01*
X-261366Y-391414D01*
X-255727Y-399440D01*
X-248818Y-406400D01*
X-240741Y-412038D01*
X-231851Y-416153D01*
X-222351Y-418693D01*
X-212547Y-419557D01*
X-209346Y-419303D01*
X-205384Y-419709D01*
X-201930Y-421640D01*
X-199440Y-424738D01*
X-195681Y-439369D01*
X-191516Y-448309D01*
X-185877Y-456336D01*
X-178968Y-463296D01*
X-170891Y-468934D01*
X-162001Y-473049D01*
X-152501Y-475589D01*
X-142697Y-476453D01*
X-132943Y-475589D01*
X-123444Y-473049D01*
X-114554Y-468934D01*
X-106476Y-463296D01*
X-99568Y-456336D01*
X-96418Y-451866D01*
X-94589Y-449884D01*
X-88696Y-445058D01*
X-61264Y-417576D01*
X-56184Y-411327D01*
X-52781Y-404672D01*
X-50800Y-397306D01*
X-50342Y-391414D01*
X-50342Y-19253D01*
X-49580Y-15341D01*
X-47396Y-12039D01*
X41198Y76555D01*
X44500Y78740D01*
X48412Y79502D01*
X64871Y79502D01*
X68478Y78841D01*
X71628Y76911D01*
X73914Y73964D01*
X74930Y70408D01*
X74676Y66700D01*
X73558Y62636D01*
X72694Y52832D01*
X73558Y43027D01*
X76098Y33578D01*
X80264Y24638D01*
X85902Y16611D01*
X92252Y10261D01*
X94437Y6959D01*
X95250Y3048D01*
X95250Y-586943D01*
X94437Y-590804D01*
X92252Y-594106D01*
X63195Y-623163D01*
X59893Y-625348D01*
X56032Y-626160D01*
X-222605Y-626160D01*
X-230174Y-626922D01*
X-236931Y-629107D01*
X-243179Y-632714D01*
X-247396Y-636371D01*
X-261467Y-650392D01*
X-265176Y-652780D01*
X-269544Y-653338D01*
X-272542Y-653084D01*
X-282295Y-653948D01*
X-291795Y-656488D01*
X-300685Y-660603D01*
X-308762Y-666242D01*
X-315671Y-673201D01*
X-321310Y-681228D01*
X-325475Y-690168D01*
X-328015Y-699617D01*
X-328879Y-709422D01*
X-328015Y-719226D01*
X-325475Y-728675D01*
X-321310Y-737616D01*
X-315671Y-745642D01*
X-308762Y-752602D01*
X-300685Y-758240D01*
X-291795Y-762355D01*
X-282295Y-764895D01*
X-272542Y-765759D01*
X-262737Y-764895D01*
X-253238Y-762355D01*
X-247599Y-759714D01*
X-243484Y-758799D01*
X-239318Y-759612D01*
X-235864Y-762000D01*
X-233679Y-765657D01*
X-233171Y-769823D01*
X-233527Y-774090D01*
X-232664Y-783894D01*
X-230124Y-793343D01*
X-226009Y-802284D01*
X-220370Y-810310D01*
X-213410Y-817270D01*
X-205384Y-822909D01*
X-196443Y-827024D01*
X-186994Y-829564D01*
G37*
G36*
X1290675Y-600303D02*
G01*
X1300480Y-599440D01*
X1309928Y-596900D01*
X1318869Y-592785D01*
X1326896Y-587146D01*
X1333855Y-580186D01*
X1339494Y-572160D01*
X1343609Y-563219D01*
X1346149Y-553770D01*
X1347012Y-543966D01*
X1346149Y-534162D01*
X1343609Y-524713D01*
X1339494Y-515772D01*
X1333855Y-507746D01*
X1326896Y-500786D01*
X1318869Y-495147D01*
X1309928Y-491032D01*
X1300480Y-488492D01*
X1290675Y-487629D01*
X1280871Y-488492D01*
X1271422Y-491032D01*
X1262481Y-495147D01*
X1254455Y-500786D01*
X1247495Y-507746D01*
X1241856Y-515772D01*
X1237742Y-524713D01*
X1235202Y-534162D01*
X1234338Y-543966D01*
X1235202Y-553770D01*
X1237742Y-563219D01*
X1241856Y-572160D01*
X1247495Y-580186D01*
X1254455Y-587146D01*
X1262481Y-592785D01*
X1271422Y-596900D01*
X1280871Y-599440D01*
G37*
G36*
X1148181Y-450443D02*
G01*
X1157986Y-449580D01*
X1167434Y-447040D01*
X1176375Y-442925D01*
X1184402Y-437286D01*
X1191361Y-430326D01*
X1197000Y-422300D01*
X1201115Y-413359D01*
X1203655Y-403910D01*
X1204518Y-394106D01*
X1203655Y-384302D01*
X1201115Y-374853D01*
X1197000Y-365912D01*
X1191361Y-357886D01*
X1184402Y-350926D01*
X1176375Y-345287D01*
X1167434Y-341172D01*
X1157986Y-338632D01*
X1148181Y-337769D01*
X1138377Y-338632D01*
X1128928Y-341172D01*
X1119987Y-345287D01*
X1111961Y-350926D01*
X1105001Y-357886D01*
X1099362Y-365912D01*
X1095248Y-374853D01*
X1092708Y-384302D01*
X1091844Y-394106D01*
X1092708Y-403910D01*
X1095248Y-413359D01*
X1099362Y-422300D01*
X1105001Y-430326D01*
X1111961Y-437286D01*
X1119987Y-442925D01*
X1128928Y-447040D01*
X1138377Y-449580D01*
G37*
G36*
X-481076Y-448005D02*
G01*
X-471271Y-447141D01*
X-461772Y-444601D01*
X-452882Y-440486D01*
X-444804Y-434848D01*
X-437896Y-427888D01*
X-432257Y-419862D01*
X-428091Y-410921D01*
X-425551Y-401472D01*
X-424688Y-391668D01*
X-425551Y-381863D01*
X-428091Y-372414D01*
X-432257Y-363474D01*
X-437896Y-355447D01*
X-444804Y-348488D01*
X-452882Y-342849D01*
X-461772Y-338734D01*
X-471271Y-336194D01*
X-481076Y-335330D01*
X-490829Y-336194D01*
X-500329Y-338734D01*
X-509219Y-342849D01*
X-517296Y-348488D01*
X-524205Y-355447D01*
X-529844Y-363474D01*
X-534009Y-372414D01*
X-536549Y-381863D01*
X-537413Y-391668D01*
X-536549Y-401472D01*
X-534009Y-410921D01*
X-529844Y-419862D01*
X-524205Y-427888D01*
X-517296Y-434848D01*
X-509219Y-440486D01*
X-500329Y-444601D01*
X-490829Y-447141D01*
G37*
G36*
X1541272Y-336753D02*
G01*
X1551076Y-335889D01*
X1560576Y-333349D01*
X1569466Y-329184D01*
X1577492Y-323596D01*
X1584452Y-316636D01*
X1590090Y-308559D01*
X1594256Y-299669D01*
X1596796Y-290169D01*
X1597660Y-280416D01*
X1596796Y-270611D01*
X1594256Y-261112D01*
X1590090Y-252221D01*
X1584452Y-244195D01*
X1580388Y-240080D01*
X1578152Y-236778D01*
X1577390Y-232917D01*
X1578152Y-229006D01*
X1580388Y-225704D01*
X1586230Y-219862D01*
X1591868Y-211785D01*
X1596034Y-202895D01*
X1598574Y-193395D01*
X1599438Y-183642D01*
X1598574Y-173837D01*
X1596034Y-164338D01*
X1591868Y-155448D01*
X1586230Y-147421D01*
X1579270Y-140462D01*
X1571244Y-134823D01*
X1562354Y-130708D01*
X1552854Y-128117D01*
X1543050Y-127304D01*
X1533296Y-128117D01*
X1523796Y-130708D01*
X1514906Y-134823D01*
X1502867Y-143357D01*
X1499006Y-144119D01*
X1495094Y-143357D01*
X1491843Y-141122D01*
X1489100Y-138430D01*
X1481074Y-132791D01*
X1472184Y-128676D01*
X1462684Y-126085D01*
X1452880Y-125272D01*
X1443126Y-126085D01*
X1433626Y-128676D01*
X1424736Y-132791D01*
X1416659Y-138430D01*
X1409750Y-145389D01*
X1404112Y-153416D01*
X1399946Y-162306D01*
X1397406Y-171805D01*
X1396542Y-181610D01*
X1397406Y-191363D01*
X1399946Y-200863D01*
X1404112Y-209753D01*
X1410512Y-218795D01*
X1411986Y-221945D01*
X1412341Y-225450D01*
X1411478Y-228854D01*
X1403858Y-239775D01*
X1399692Y-248666D01*
X1397152Y-258165D01*
X1396288Y-267970D01*
X1397152Y-277723D01*
X1399692Y-287223D01*
X1403858Y-296113D01*
X1409496Y-304190D01*
X1416405Y-311150D01*
X1424482Y-316738D01*
X1433372Y-320903D01*
X1442872Y-323443D01*
X1452626Y-324307D01*
X1462430Y-323443D01*
X1471930Y-320903D01*
X1480820Y-316738D01*
X1484172Y-314401D01*
X1487373Y-312928D01*
X1490929Y-312623D01*
X1494332Y-313537D01*
X1497228Y-315620D01*
X1505102Y-323596D01*
X1513128Y-329184D01*
X1522018Y-333349D01*
X1531518Y-335889D01*
G37*
G36*
X1290675Y-300329D02*
G01*
X1300480Y-299466D01*
X1309928Y-296926D01*
X1318869Y-292811D01*
X1326896Y-287172D01*
X1333855Y-280212D01*
X1339494Y-272186D01*
X1343609Y-263245D01*
X1346149Y-253796D01*
X1347012Y-243992D01*
X1346149Y-234188D01*
X1343609Y-224739D01*
X1339494Y-215798D01*
X1333855Y-207771D01*
X1326896Y-200812D01*
X1318869Y-195173D01*
X1309928Y-191058D01*
X1300480Y-188518D01*
X1290675Y-187655D01*
X1280871Y-188518D01*
X1271422Y-191058D01*
X1262481Y-195173D01*
X1254455Y-200812D01*
X1247495Y-207771D01*
X1241856Y-215798D01*
X1237742Y-224739D01*
X1235202Y-234188D01*
X1234338Y-243992D01*
X1235202Y-253796D01*
X1237742Y-263245D01*
X1241856Y-272186D01*
X1247495Y-280212D01*
X1254455Y-287172D01*
X1262481Y-292811D01*
X1271422Y-296926D01*
X1280871Y-299466D01*
G37*
G36*
X596188Y-237439D02*
G01*
X605942Y-236575D01*
X615442Y-234035D01*
X624332Y-229920D01*
X632409Y-224282D01*
X639318Y-217322D01*
X644956Y-209296D01*
X649122Y-200355D01*
X651662Y-190906D01*
X652526Y-181102D01*
X651662Y-171297D01*
X649122Y-161848D01*
X644956Y-152908D01*
X639318Y-144881D01*
X632409Y-137922D01*
X624332Y-132283D01*
X615442Y-128168D01*
X605942Y-125628D01*
X596188Y-124764D01*
X586384Y-125628D01*
X576884Y-128168D01*
X567994Y-132283D01*
X559917Y-137922D01*
X553008Y-144881D01*
X547370Y-152908D01*
X543204Y-161848D01*
X540664Y-171297D01*
X539800Y-181102D01*
X540664Y-190906D01*
X543204Y-200355D01*
X547370Y-209296D01*
X553008Y-217322D01*
X559917Y-224282D01*
X567994Y-229920D01*
X576884Y-234035D01*
X586384Y-236575D01*
G37*
G36*
X-1013663Y-191719D02*
G01*
X-1003909Y-190855D01*
X-994410Y-188315D01*
X-985519Y-184200D01*
X-977442Y-178562D01*
X-970534Y-171602D01*
X-964895Y-163576D01*
X-960729Y-154635D01*
X-958189Y-145186D01*
X-957326Y-135382D01*
X-958189Y-125577D01*
X-960729Y-116128D01*
X-964895Y-107187D01*
X-970534Y-99161D01*
X-977442Y-92202D01*
X-985519Y-86563D01*
X-994410Y-82448D01*
X-1003909Y-79908D01*
X-1013663Y-79044D01*
X-1023467Y-79908D01*
X-1032967Y-82448D01*
X-1041857Y-86563D01*
X-1049934Y-92202D01*
X-1056843Y-99161D01*
X-1062482Y-107187D01*
X-1066647Y-116128D01*
X-1069187Y-125577D01*
X-1070051Y-135382D01*
X-1069187Y-145186D01*
X-1066647Y-154635D01*
X-1062482Y-163576D01*
X-1056843Y-171602D01*
X-1049934Y-178562D01*
X-1041857Y-184200D01*
X-1032967Y-188315D01*
X-1023467Y-190855D01*
G37*
G36*
X-541883Y-188671D02*
G01*
X-532333Y-187401D01*
X-523087Y-184607D01*
X-514502Y-180238D01*
X-506730Y-174498D01*
X-500024Y-167538D01*
X-494639Y-159562D01*
X-490677Y-150774D01*
X-488238Y-141427D01*
X-487426Y-131826D01*
X-488238Y-122224D01*
X-490677Y-112877D01*
X-494639Y-104089D01*
X-500024Y-96113D01*
X-506730Y-89154D01*
X-514502Y-83413D01*
X-523087Y-79044D01*
X-532333Y-76250D01*
X-541883Y-74980D01*
X-551535Y-75438D01*
X-560933Y-77470D01*
X-569925Y-81026D01*
X-578104Y-86106D01*
X-585368Y-92456D01*
X-591413Y-99974D01*
X-596138Y-108407D01*
X-599338Y-117500D01*
X-600964Y-127000D01*
X-600964Y-136652D01*
X-599338Y-146151D01*
X-596138Y-155244D01*
X-591413Y-163677D01*
X-585368Y-171196D01*
X-578104Y-177546D01*
X-569925Y-182626D01*
X-560933Y-186182D01*
X-551535Y-188214D01*
G37*
G36*
X1078992Y-126949D02*
G01*
X1088796Y-126085D01*
X1098296Y-123545D01*
X1107186Y-119380D01*
X1115212Y-113792D01*
X1122172Y-106832D01*
X1127810Y-98755D01*
X1131976Y-89865D01*
X1134516Y-80365D01*
X1135380Y-70612D01*
X1134516Y-60807D01*
X1131976Y-51308D01*
X1127810Y-42418D01*
X1122172Y-34391D01*
X1115212Y-27432D01*
X1107186Y-21793D01*
X1098296Y-17678D01*
X1088796Y-15087D01*
X1078992Y-14274D01*
X1069238Y-15087D01*
X1059738Y-17678D01*
X1050848Y-21793D01*
X1042771Y-27432D01*
X1035862Y-34391D01*
X1030224Y-42418D01*
X1026058Y-51308D01*
X1023518Y-60807D01*
X1022654Y-70612D01*
X1023518Y-80365D01*
X1026058Y-89865D01*
X1030224Y-98755D01*
X1035862Y-106832D01*
X1042771Y-113792D01*
X1050848Y-119380D01*
X1059738Y-123545D01*
X1069238Y-126085D01*
G37*
G36*
X1314196Y-88849D02*
G01*
X1324000Y-87985D01*
X1333500Y-85445D01*
X1342390Y-81280D01*
X1350416Y-75692D01*
X1352499Y-73609D01*
X1355394Y-71577D01*
X1358849Y-70662D01*
X1362354Y-71018D01*
X1365554Y-72542D01*
X1374749Y-79044D01*
X1383588Y-83159D01*
X1393088Y-85699D01*
X1402842Y-86563D01*
X1412646Y-85699D01*
X1422146Y-83159D01*
X1431036Y-78994D01*
X1439062Y-73406D01*
X1446022Y-66446D01*
X1451660Y-58369D01*
X1455826Y-49479D01*
X1458366Y-39979D01*
X1459230Y-30226D01*
X1458366Y-20421D01*
X1455826Y-10922D01*
X1451660Y-2032D01*
X1446022Y5994D01*
X1439062Y12954D01*
X1431036Y18592D01*
X1422146Y22707D01*
X1412646Y25298D01*
X1402842Y26111D01*
X1393088Y25298D01*
X1383588Y22707D01*
X1374698Y18592D01*
X1366621Y12954D01*
X1364589Y10871D01*
X1361694Y8839D01*
X1358239Y7924D01*
X1354734Y8280D01*
X1351483Y9804D01*
X1342339Y16306D01*
X1333500Y20421D01*
X1324000Y23012D01*
X1314196Y23825D01*
X1307287Y23215D01*
X1303070Y23774D01*
X1299464Y25908D01*
X1297025Y29413D01*
X1296212Y33528D01*
X1297178Y37642D01*
X1299260Y42113D01*
X1301800Y51562D01*
X1302664Y61366D01*
X1301800Y71170D01*
X1299260Y80619D01*
X1295095Y89560D01*
X1289456Y97586D01*
X1282547Y104546D01*
X1274470Y110185D01*
X1265580Y114300D01*
X1256080Y116839D01*
X1246327Y117703D01*
X1236522Y116839D01*
X1227023Y114300D01*
X1218133Y110185D01*
X1210056Y104546D01*
X1203147Y97586D01*
X1197508Y89560D01*
X1193342Y80619D01*
X1190802Y71170D01*
X1189939Y61366D01*
X1190802Y51562D01*
X1193342Y42113D01*
X1197508Y33172D01*
X1203147Y25146D01*
X1210056Y18186D01*
X1218133Y12547D01*
X1227023Y8432D01*
X1236522Y5892D01*
X1246327Y5029D01*
X1253236Y5638D01*
X1257452Y5130D01*
X1261059Y2946D01*
X1263497Y-508D01*
X1264310Y-4673D01*
X1263345Y-8788D01*
X1261262Y-13208D01*
X1258722Y-22707D01*
X1257858Y-32512D01*
X1258722Y-42265D01*
X1261262Y-51765D01*
X1265428Y-60655D01*
X1271066Y-68732D01*
X1277975Y-75692D01*
X1286052Y-81280D01*
X1294942Y-85445D01*
X1304442Y-87985D01*
G37*
G36*
X820216Y-84785D02*
G01*
X829970Y-83921D01*
X839469Y-81381D01*
X848360Y-77266D01*
X856437Y-71628D01*
X863346Y-64668D01*
X868984Y-56641D01*
X873150Y-47701D01*
X875690Y-38252D01*
X876553Y-28448D01*
X875690Y-18643D01*
X873150Y-9194D01*
X868984Y-254D01*
X863346Y7772D01*
X856437Y14732D01*
X848360Y20370D01*
X839469Y24485D01*
X829970Y27025D01*
X820216Y27889D01*
X810412Y27025D01*
X800912Y24485D01*
X792022Y20370D01*
X783945Y14732D01*
X777036Y7772D01*
X771398Y-254D01*
X768299Y-6908D01*
X766978Y-8636D01*
X766927Y-10414D01*
X764692Y-18643D01*
X763828Y-28448D01*
X764692Y-38252D01*
X767232Y-47701D01*
X771398Y-56641D01*
X777036Y-64668D01*
X783945Y-71628D01*
X792022Y-77266D01*
X800912Y-81381D01*
X810412Y-83921D01*
G37*
G36*
X696010Y-38303D02*
G01*
X705764Y-37439D01*
X715264Y-34899D01*
X724154Y-30784D01*
X732231Y-25146D01*
X739140Y-18186D01*
X744778Y-10160D01*
X747877Y-3505D01*
X749198Y-1778D01*
X749249Y0D01*
X751484Y8229D01*
X752348Y18034D01*
X751484Y27838D01*
X748944Y37287D01*
X744778Y46228D01*
X739140Y54254D01*
X732231Y61214D01*
X724154Y66852D01*
X715264Y70967D01*
X705764Y73507D01*
X696010Y74371D01*
X686206Y73507D01*
X676706Y70967D01*
X667816Y66852D01*
X659739Y61214D01*
X652830Y54254D01*
X647192Y46228D01*
X643026Y37287D01*
X640486Y27838D01*
X639622Y18034D01*
X640486Y8229D01*
X643026Y-1219D01*
X647192Y-10160D01*
X652830Y-18186D01*
X659739Y-25146D01*
X667816Y-30784D01*
X676706Y-34899D01*
X686206Y-37439D01*
G37*
G36*
X1662531Y128778D02*
G01*
X1672336Y129641D01*
X1681784Y132181D01*
X1690725Y136347D01*
X1698752Y141986D01*
X1705711Y148894D01*
X1711350Y156972D01*
X1715465Y165862D01*
X1718005Y175361D01*
X1718868Y185115D01*
X1718005Y194919D01*
X1715465Y204419D01*
X1711350Y213309D01*
X1705711Y221386D01*
X1698752Y228295D01*
X1690725Y233934D01*
X1681784Y238099D01*
X1672336Y240639D01*
X1662531Y241503D01*
X1652727Y240639D01*
X1643278Y238099D01*
X1634337Y233934D01*
X1626311Y228295D01*
X1619351Y221386D01*
X1613712Y213309D01*
X1609598Y204419D01*
X1607058Y194919D01*
X1606194Y185115D01*
X1607058Y175361D01*
X1609598Y165862D01*
X1613712Y156972D01*
X1619351Y148894D01*
X1626311Y141986D01*
X1634337Y136347D01*
X1643278Y132181D01*
X1652727Y129641D01*
G37*
G36*
X-989076Y245922D02*
G01*
X-979271Y246786D01*
X-969771Y249326D01*
X-960882Y253441D01*
X-952804Y259079D01*
X-945896Y266039D01*
X-940257Y274066D01*
X-936091Y283006D01*
X-933551Y292455D01*
X-932687Y302260D01*
X-933551Y312064D01*
X-936091Y321513D01*
X-940257Y330454D01*
X-945896Y338480D01*
X-952804Y345440D01*
X-960882Y351078D01*
X-969771Y355193D01*
X-979271Y357733D01*
X-989076Y358597D01*
X-998829Y357733D01*
X-1008329Y355193D01*
X-1017219Y351078D01*
X-1025296Y345440D01*
X-1032205Y338480D01*
X-1037844Y330454D01*
X-1042009Y321513D01*
X-1044549Y312064D01*
X-1045413Y302260D01*
X-1044549Y292455D01*
X-1042009Y283006D01*
X-1037844Y274066D01*
X-1032205Y266039D01*
X-1025296Y259079D01*
X-1017219Y253441D01*
X-1008329Y249326D01*
X-998829Y246786D01*
G37*
G36*
X1797354Y347014D02*
G01*
X1807108Y347878D01*
X1816607Y350418D01*
X1825498Y354533D01*
X1833575Y360172D01*
X1840484Y367131D01*
X1846122Y375158D01*
X1850288Y384098D01*
X1852828Y393547D01*
X1853692Y403352D01*
X1852828Y413156D01*
X1850288Y422605D01*
X1846122Y431546D01*
X1840484Y439572D01*
X1833575Y446532D01*
X1825498Y452170D01*
X1816607Y456285D01*
X1807108Y458825D01*
X1797354Y459689D01*
X1787550Y458825D01*
X1778050Y456285D01*
X1769160Y452170D01*
X1761083Y446532D01*
X1754174Y439572D01*
X1748536Y431546D01*
X1744370Y422605D01*
X1741830Y413156D01*
X1740966Y403352D01*
X1741830Y393547D01*
X1744370Y384098D01*
X1748536Y375158D01*
X1754174Y367131D01*
X1761083Y360172D01*
X1769160Y354533D01*
X1778050Y350418D01*
X1787550Y347878D01*
G37*
G36*
X1536496Y349046D02*
G01*
X1546250Y349910D01*
X1555750Y352450D01*
X1564640Y356565D01*
X1572717Y362204D01*
X1579626Y369163D01*
X1585264Y377190D01*
X1589430Y386130D01*
X1591970Y395579D01*
X1592834Y405384D01*
X1591970Y415188D01*
X1589430Y424637D01*
X1585264Y433578D01*
X1579626Y441604D01*
X1572717Y448564D01*
X1564640Y454202D01*
X1555750Y458317D01*
X1546250Y460857D01*
X1536496Y461721D01*
X1526692Y460857D01*
X1517192Y458317D01*
X1508302Y454202D01*
X1500225Y448564D01*
X1493316Y441604D01*
X1487678Y433578D01*
X1483512Y424637D01*
X1480972Y415188D01*
X1480108Y405384D01*
X1480972Y395579D01*
X1483512Y386130D01*
X1487678Y377190D01*
X1493316Y369163D01*
X1500225Y362204D01*
X1508302Y356565D01*
X1517192Y352450D01*
X1526692Y349910D01*
G37*
G36*
X-910285Y377494D02*
G01*
X-900531Y378358D01*
X-891032Y380898D01*
X-882142Y385013D01*
X-874064Y390652D01*
X-867156Y397611D01*
X-861517Y405638D01*
X-857351Y414578D01*
X-854811Y424027D01*
X-853948Y433832D01*
X-854811Y443636D01*
X-857351Y453085D01*
X-861517Y462026D01*
X-867156Y470052D01*
X-874064Y477012D01*
X-882142Y482650D01*
X-891032Y486765D01*
X-900531Y489305D01*
X-910285Y490169D01*
X-920089Y489305D01*
X-929589Y486765D01*
X-938479Y482650D01*
X-946556Y477012D01*
X-953465Y470052D01*
X-959103Y462026D01*
X-963269Y453085D01*
X-965809Y443636D01*
X-966673Y433832D01*
X-965809Y424027D01*
X-963269Y414578D01*
X-959103Y405638D01*
X-953465Y397611D01*
X-946556Y390652D01*
X-938479Y385013D01*
X-929589Y380898D01*
X-920089Y378358D01*
G37*
G36*
X2215794Y381812D02*
G01*
X2225598Y382676D01*
X2235047Y385216D01*
X2243988Y389331D01*
X2252014Y394970D01*
X2258974Y401929D01*
X2264613Y409956D01*
X2268728Y418896D01*
X2271268Y428345D01*
X2272131Y438150D01*
X2271268Y447954D01*
X2268728Y457403D01*
X2264613Y466343D01*
X2258974Y474370D01*
X2252014Y481330D01*
X2243988Y486968D01*
X2235047Y491083D01*
X2225598Y493623D01*
X2215794Y494487D01*
X2205990Y493623D01*
X2196541Y491083D01*
X2187600Y486968D01*
X2179574Y481330D01*
X2172614Y474370D01*
X2166975Y466343D01*
X2162860Y457403D01*
X2160320Y447954D01*
X2159457Y438150D01*
X2160320Y428345D01*
X2162860Y418896D01*
X2166975Y409956D01*
X2172614Y401929D01*
X2179574Y394970D01*
X2187600Y389331D01*
X2196541Y385216D01*
X2205990Y382676D01*
G37*
G36*
X113334Y413816D02*
G01*
X123088Y414680D01*
X132588Y417220D01*
X141478Y421335D01*
X149555Y426974D01*
X156464Y433933D01*
X162102Y441959D01*
X166268Y450900D01*
X168808Y460349D01*
X169672Y470154D01*
X168808Y479958D01*
X166268Y489407D01*
X162102Y498348D01*
X156464Y506374D01*
X149555Y513334D01*
X141478Y518972D01*
X132588Y523087D01*
X123088Y525627D01*
X108559Y526846D01*
X105105Y528777D01*
X102616Y531876D01*
X101498Y535686D01*
X101244Y538632D01*
X98704Y548081D01*
X94538Y557022D01*
X88900Y565048D01*
X81991Y572008D01*
X73914Y577646D01*
X65024Y581761D01*
X55524Y584301D01*
X45770Y585165D01*
X35966Y584301D01*
X26466Y581761D01*
X17576Y577646D01*
X9499Y572008D01*
X2590Y565048D01*
X-3048Y557022D01*
X-7213Y548081D01*
X-9753Y538632D01*
X-10617Y528828D01*
X-9753Y519023D01*
X-7213Y509574D01*
X-3048Y500634D01*
X2590Y492607D01*
X9499Y485648D01*
X17576Y480009D01*
X26466Y475894D01*
X35966Y473354D01*
X50495Y472135D01*
X53949Y470204D01*
X56438Y467106D01*
X57556Y463296D01*
X57810Y460349D01*
X60350Y450900D01*
X64516Y441959D01*
X70154Y433933D01*
X77063Y426974D01*
X85140Y421335D01*
X94030Y417220D01*
X103530Y414680D01*
G37*
G36*
X1240840Y547674D02*
G01*
X1250594Y548538D01*
X1260094Y551078D01*
X1268984Y555193D01*
X1277061Y560832D01*
X1283970Y567791D01*
X1289608Y575818D01*
X1293774Y584758D01*
X1296314Y594207D01*
X1297178Y604012D01*
X1296314Y613816D01*
X1293774Y623265D01*
X1289608Y632206D01*
X1283970Y640232D01*
X1277061Y647192D01*
X1268984Y652830D01*
X1260094Y656945D01*
X1250594Y659485D01*
X1240840Y660349D01*
X1231036Y659485D01*
X1221536Y656945D01*
X1212646Y652830D01*
X1204569Y647192D01*
X1197660Y640232D01*
X1192022Y632206D01*
X1187856Y623265D01*
X1185316Y613816D01*
X1184452Y604012D01*
X1185316Y594207D01*
X1187856Y584758D01*
X1192022Y575818D01*
X1197660Y567791D01*
X1204569Y560832D01*
X1212646Y555193D01*
X1221536Y551078D01*
X1231036Y548538D01*
G37*
G36*
X1112570Y596950D02*
G01*
X1122324Y597814D01*
X1131824Y600354D01*
X1140714Y604469D01*
X1148791Y610108D01*
X1155700Y617067D01*
X1161338Y625094D01*
X1165504Y634034D01*
X1168044Y643483D01*
X1168908Y653288D01*
X1168044Y663092D01*
X1165504Y672541D01*
X1161338Y681482D01*
X1155700Y689508D01*
X1145235Y700024D01*
X1143863Y704037D01*
X1144270Y708304D01*
X1146352Y711962D01*
X1149807Y714502D01*
X1153922Y715365D01*
X1659026Y715365D01*
X1663344Y714451D01*
X1666849Y711758D01*
X1668881Y707847D01*
X1671218Y699058D01*
X1675384Y690118D01*
X1681022Y682091D01*
X1687931Y675132D01*
X1696008Y669493D01*
X1704898Y665378D01*
X1714398Y662838D01*
X1724202Y661974D01*
X1733956Y662838D01*
X1743456Y665378D01*
X1752346Y669493D01*
X1760423Y675132D01*
X1767332Y682091D01*
X1772564Y689559D01*
X1775815Y692556D01*
X1780032Y693877D01*
X1784350Y693318D01*
X1788058Y690930D01*
X1793646Y685393D01*
X1799589Y680618D01*
X1805889Y677418D01*
X1812848Y675538D01*
X1818386Y675132D01*
X1910842Y675132D01*
X1914753Y674319D01*
X1918055Y672134D01*
X1924405Y665734D01*
X1932482Y660095D01*
X1941372Y655980D01*
X1950872Y653440D01*
X1960676Y652576D01*
X1970430Y653440D01*
X1979930Y655980D01*
X1988820Y660095D01*
X1996897Y665734D01*
X2003806Y672693D01*
X2009444Y680720D01*
X2013610Y689660D01*
X2016150Y699109D01*
X2016912Y707644D01*
X2018080Y711606D01*
X2020722Y714756D01*
X2024380Y716584D01*
X2032254Y718718D01*
X2041143Y722833D01*
X2049221Y728472D01*
X2056130Y735431D01*
X2061768Y743458D01*
X2065578Y751586D01*
X2067915Y754837D01*
X2071370Y756869D01*
X2075383Y757428D01*
X2079243Y756412D01*
X2082444Y753973D01*
X2084425Y750468D01*
X2085746Y736701D01*
X2088286Y727252D01*
X2092452Y718312D01*
X2098090Y710285D01*
X2104999Y703326D01*
X2113076Y697687D01*
X2121966Y693572D01*
X2131466Y691032D01*
X2141270Y690168D01*
X2151024Y691032D01*
X2160524Y693572D01*
X2169414Y697687D01*
X2177491Y703326D01*
X2184400Y710285D01*
X2190038Y718312D01*
X2194204Y727252D01*
X2196744Y736701D01*
X2197608Y746506D01*
X2196744Y756310D01*
X2194204Y765759D01*
X2190038Y774700D01*
X2184400Y782726D01*
X2177491Y789686D01*
X2169414Y795324D01*
X2160524Y799439D01*
X2151024Y801979D01*
X2141270Y802843D01*
X2131466Y801979D01*
X2121966Y799439D01*
X2113076Y795324D01*
X2104999Y789686D01*
X2098090Y782726D01*
X2092452Y774700D01*
X2088642Y766572D01*
X2086305Y763320D01*
X2082850Y761288D01*
X2078888Y760730D01*
X2074976Y761746D01*
X2071776Y764184D01*
X2069795Y767689D01*
X2068474Y781456D01*
X2065934Y790905D01*
X2061768Y799846D01*
X2056130Y807872D01*
X2049881Y814171D01*
X2047646Y817473D01*
X2046884Y821334D01*
X2046884Y878433D01*
X2046681Y882243D01*
X2046122Y885748D01*
X2045207Y889152D01*
X2043938Y892454D01*
X2042312Y895654D01*
X2040382Y898601D01*
X2038146Y901344D01*
X2035657Y903884D01*
X2032914Y906119D01*
X2029917Y908050D01*
X2026767Y909624D01*
X2023465Y910894D01*
X2020011Y911860D01*
X2016506Y912368D01*
X2012696Y912571D01*
X1632915Y912571D01*
X1629257Y913282D01*
X1626107Y915212D01*
X1623822Y918159D01*
X1622806Y921715D01*
X1623060Y925372D01*
X1625752Y935329D01*
X1626616Y945134D01*
X1625752Y954938D01*
X1623212Y964387D01*
X1619046Y973328D01*
X1613509Y981202D01*
X1611833Y985266D01*
X1612036Y989634D01*
X1614068Y993546D01*
X1617573Y996238D01*
X1621840Y997203D01*
X1678279Y997203D01*
X1685848Y997966D01*
X1692554Y1000150D01*
X1698802Y1003757D01*
X1703222Y1007567D01*
X1706727Y1009497D01*
X1710740Y1009954D01*
X1713788Y1009700D01*
X1723542Y1010564D01*
X1733042Y1013104D01*
X1741932Y1017219D01*
X1750009Y1022858D01*
X1756918Y1029817D01*
X1762556Y1037844D01*
X1766722Y1046784D01*
X1769262Y1056233D01*
X1770125Y1066038D01*
X1769262Y1075842D01*
X1766722Y1085291D01*
X1762556Y1094232D01*
X1756918Y1102258D01*
X1750009Y1109218D01*
X1741932Y1114856D01*
X1733042Y1118971D01*
X1723542Y1121511D01*
X1713788Y1122375D01*
X1703984Y1121511D01*
X1694484Y1118971D01*
X1685594Y1114856D01*
X1677517Y1109218D01*
X1670608Y1102258D01*
X1664970Y1094232D01*
X1663496Y1091031D01*
X1660804Y1087526D01*
X1656892Y1085494D01*
X1652524Y1085342D01*
X1648460Y1087018D01*
X1645462Y1090269D01*
X1644142Y1094435D01*
X1643786Y1098702D01*
X1641246Y1108151D01*
X1637080Y1117092D01*
X1631442Y1125118D01*
X1624533Y1132078D01*
X1616456Y1137716D01*
X1607566Y1141831D01*
X1598066Y1144371D01*
X1588312Y1145235D01*
X1578508Y1144371D01*
X1569008Y1141831D01*
X1560118Y1137716D01*
X1551381Y1131620D01*
X1547317Y1129893D01*
X1542948Y1130096D01*
X1539036Y1132128D01*
X1536344Y1135634D01*
X1535430Y1139901D01*
X1536344Y1144219D01*
X1539443Y1150874D01*
X1541983Y1160322D01*
X1542846Y1170127D01*
X1541983Y1179931D01*
X1539443Y1189380D01*
X1535328Y1198321D01*
X1529689Y1206347D01*
X1522730Y1213307D01*
X1514703Y1218946D01*
X1505762Y1223060D01*
X1496314Y1225600D01*
X1486509Y1226464D01*
X1476705Y1225600D01*
X1467256Y1223060D01*
X1458315Y1218946D01*
X1450289Y1213307D01*
X1443329Y1206347D01*
X1437690Y1198321D01*
X1433576Y1189380D01*
X1431188Y1180541D01*
X1429258Y1176782D01*
X1426006Y1174140D01*
X1421892Y1173022D01*
X1417726Y1173683D01*
X1414170Y1176020D01*
X1395780Y1194409D01*
X1389888Y1199184D01*
X1383588Y1202385D01*
X1376629Y1204264D01*
X1371041Y1204671D01*
X1195171Y1204671D01*
X1191260Y1205484D01*
X1187958Y1207668D01*
X1181811Y1213866D01*
X1173734Y1219504D01*
X1164844Y1223619D01*
X1155344Y1226159D01*
X1145590Y1227023D01*
X1135786Y1226159D01*
X1126286Y1223619D01*
X1117396Y1219504D01*
X1109319Y1213866D01*
X1102410Y1206906D01*
X1096772Y1198880D01*
X1092606Y1189939D01*
X1090066Y1180490D01*
X1089202Y1170686D01*
X1090066Y1160881D01*
X1093165Y1149400D01*
X1093368Y1145286D01*
X1091996Y1141425D01*
X1089152Y1138478D01*
X1080363Y1132332D01*
X1073454Y1125372D01*
X1067816Y1117346D01*
X1063650Y1108405D01*
X1061110Y1098956D01*
X1060246Y1089152D01*
X1061110Y1079347D01*
X1063650Y1069898D01*
X1068019Y1060551D01*
X1068933Y1056538D01*
X1068222Y1052525D01*
X1065987Y1049070D01*
X1060754Y1043838D01*
X1055116Y1035812D01*
X1050950Y1026871D01*
X1048410Y1017422D01*
X1047546Y1007618D01*
X1048410Y997813D01*
X1050950Y988364D01*
X1055116Y979424D01*
X1060754Y971397D01*
X1063447Y968654D01*
X1065479Y965809D01*
X1066393Y962355D01*
X1066088Y958850D01*
X1064615Y955649D01*
X1059180Y947928D01*
X1055014Y938987D01*
X1052474Y929538D01*
X1051610Y919734D01*
X1052474Y909929D01*
X1055014Y900480D01*
X1060704Y887933D01*
X1060704Y884021D01*
X1059281Y880414D01*
X1056538Y877569D01*
X1053947Y875792D01*
X1047038Y868832D01*
X1041400Y860806D01*
X1037234Y851865D01*
X1034694Y842416D01*
X1033830Y832612D01*
X1034694Y822807D01*
X1037234Y813358D01*
X1041400Y804418D01*
X1046480Y797153D01*
X1048105Y793394D01*
X1048105Y789279D01*
X1046480Y785469D01*
X1040892Y777494D01*
X1036726Y768553D01*
X1034186Y759104D01*
X1033322Y749300D01*
X1034186Y739495D01*
X1036726Y730046D01*
X1040892Y721106D01*
X1046530Y713079D01*
X1052982Y706577D01*
X1055217Y703326D01*
X1055979Y699414D01*
X1055217Y695502D01*
X1052982Y692251D01*
X1049680Y690016D01*
X1045819Y689254D01*
X1008278Y689305D01*
X1004366Y690067D01*
X1001064Y692251D01*
X992733Y700582D01*
X990549Y703884D01*
X989787Y707796D01*
X989787Y845413D01*
X988923Y853389D01*
X986637Y860501D01*
X982827Y867105D01*
X978966Y871575D01*
X950417Y900125D01*
X944168Y905205D01*
X937514Y908608D01*
X930148Y910590D01*
X924255Y911047D01*
X918057Y911047D01*
X914196Y911809D01*
X910894Y913993D01*
X906729Y918210D01*
X898652Y923848D01*
X889762Y927963D01*
X880262Y930503D01*
X870508Y931367D01*
X860704Y930503D01*
X851204Y927963D01*
X842314Y923848D01*
X834237Y918210D01*
X827328Y911250D01*
X821690Y903224D01*
X817524Y894283D01*
X814984Y884834D01*
X814120Y875030D01*
X814984Y865225D01*
X817524Y855776D01*
X821690Y846836D01*
X827328Y838809D01*
X831900Y834237D01*
X834034Y831087D01*
X834847Y827328D01*
X834237Y823569D01*
X832307Y820318D01*
X829259Y817981D01*
X825601Y816914D01*
X817524Y816203D01*
X808024Y813663D01*
X799134Y809548D01*
X791057Y803910D01*
X784148Y796950D01*
X778510Y788924D01*
X774344Y779983D01*
X771804Y770534D01*
X770940Y760730D01*
X771804Y750925D01*
X774344Y741476D01*
X778510Y732536D01*
X783793Y724966D01*
X785418Y721207D01*
X785418Y717092D01*
X783793Y713333D01*
X778764Y706120D01*
X774598Y697179D01*
X772058Y687730D01*
X771194Y677926D01*
X772058Y668121D01*
X774598Y658672D01*
X778764Y649732D01*
X784402Y641705D01*
X791311Y634746D01*
X799388Y629107D01*
X808278Y624992D01*
X817778Y622452D01*
X827582Y621588D01*
X837336Y622452D01*
X846836Y624992D01*
X855726Y629107D01*
X863803Y634746D01*
X870712Y641705D01*
X876350Y649732D01*
X880516Y658672D01*
X883056Y668121D01*
X883919Y677926D01*
X883056Y687730D01*
X880516Y697179D01*
X876350Y706120D01*
X871067Y713689D01*
X869442Y717448D01*
X869442Y721563D01*
X871067Y725322D01*
X876096Y732536D01*
X880262Y741476D01*
X882802Y750925D01*
X883666Y760730D01*
X882802Y770534D01*
X880262Y779983D01*
X876096Y788924D01*
X870458Y796950D01*
X865886Y801522D01*
X863752Y804672D01*
X862939Y808431D01*
X863549Y812190D01*
X865479Y815441D01*
X868527Y817778D01*
X872185Y818845D01*
X880262Y819556D01*
X889762Y822096D01*
X898652Y826211D01*
X901953Y828548D01*
X906018Y830224D01*
X910437Y830021D01*
X914349Y827989D01*
X916990Y824534D01*
X917956Y820216D01*
X917956Y689203D01*
X918819Y681228D01*
X921105Y674116D01*
X924915Y667512D01*
X928776Y663041D01*
X963421Y628396D01*
X969670Y623316D01*
X976325Y619912D01*
X983691Y617931D01*
X989533Y617474D01*
X1064818Y617423D01*
X1068730Y616661D01*
X1071981Y614426D01*
X1076299Y610108D01*
X1084376Y604469D01*
X1093266Y600354D01*
X1102766Y597814D01*
G37*
G36*
X-884123Y605332D02*
G01*
X-874369Y606196D01*
X-864869Y608736D01*
X-855980Y612851D01*
X-847902Y618490D01*
X-840994Y625449D01*
X-835355Y633476D01*
X-831189Y642416D01*
X-828649Y651865D01*
X-827786Y661670D01*
X-828649Y671474D01*
X-831189Y680923D01*
X-835355Y689864D01*
X-840994Y697890D01*
X-847902Y704850D01*
X-855980Y710488D01*
X-864869Y714603D01*
X-874369Y717143D01*
X-880821Y717702D01*
X-884478Y718769D01*
X-887526Y721106D01*
X-889457Y724357D01*
X-890066Y728167D01*
X-889253Y731875D01*
X-887120Y735025D01*
X-881887Y740257D01*
X-876249Y748284D01*
X-872083Y757224D01*
X-869543Y766673D01*
X-868680Y776478D01*
X-869543Y786282D01*
X-872083Y795731D01*
X-876249Y804672D01*
X-881887Y812698D01*
X-888796Y819658D01*
X-896874Y825296D01*
X-905764Y829411D01*
X-915263Y831951D01*
X-925017Y832815D01*
X-934821Y831951D01*
X-944321Y829411D01*
X-953211Y825296D01*
X-961288Y819658D01*
X-968197Y812698D01*
X-973836Y804672D01*
X-978001Y795731D01*
X-980541Y786282D01*
X-981405Y776478D01*
X-980541Y766673D01*
X-978001Y757224D01*
X-973836Y748284D01*
X-968197Y740257D01*
X-961288Y733298D01*
X-953211Y727659D01*
X-944321Y723544D01*
X-934821Y721004D01*
X-928369Y720445D01*
X-924712Y719378D01*
X-921664Y717042D01*
X-919734Y713790D01*
X-919124Y709980D01*
X-919937Y706272D01*
X-922070Y703122D01*
X-927303Y697890D01*
X-932942Y689864D01*
X-937107Y680923D01*
X-939647Y671474D01*
X-940511Y661670D01*
X-939647Y651865D01*
X-937107Y642416D01*
X-932942Y633476D01*
X-927303Y625449D01*
X-920394Y618490D01*
X-912317Y612851D01*
X-903427Y608736D01*
X-893927Y606196D01*
G37*
G36*
X-318719Y776528D02*
G01*
X-308965Y777392D01*
X-299466Y779932D01*
X-290576Y784047D01*
X-282498Y789686D01*
X-275590Y796645D01*
X-269951Y804672D01*
X-265785Y813612D01*
X-263245Y823061D01*
X-262382Y832866D01*
X-263245Y842670D01*
X-265785Y852119D01*
X-269951Y861060D01*
X-275590Y869086D01*
X-282498Y876046D01*
X-290576Y881684D01*
X-299466Y885799D01*
X-308965Y888339D01*
X-318719Y889203D01*
X-328523Y888339D01*
X-338023Y885799D01*
X-346913Y881684D01*
X-354990Y876046D01*
X-361899Y869086D01*
X-367538Y861060D01*
X-371703Y852119D01*
X-374243Y842670D01*
X-375107Y832866D01*
X-374243Y823061D01*
X-371703Y813612D01*
X-367538Y804672D01*
X-361899Y796645D01*
X-354990Y789686D01*
X-346913Y784047D01*
X-338023Y779932D01*
X-328523Y777392D01*
G37*
G36*
X296722Y875080D02*
G01*
X306476Y875944D01*
X315976Y878484D01*
X324866Y882599D01*
X332943Y888237D01*
X339852Y895197D01*
X345490Y903224D01*
X349656Y912164D01*
X352196Y921613D01*
X353060Y931418D01*
X352196Y941222D01*
X349656Y950671D01*
X345490Y959612D01*
X339852Y967638D01*
X332943Y974598D01*
X324866Y980236D01*
X315976Y984351D01*
X306476Y986891D01*
X296722Y987755D01*
X286918Y986891D01*
X277418Y984351D01*
X268528Y980236D01*
X260451Y974598D01*
X253542Y967638D01*
X247904Y959612D01*
X243738Y950671D01*
X241198Y941222D01*
X240334Y931418D01*
X241198Y921613D01*
X243738Y912164D01*
X247904Y903224D01*
X253542Y895197D01*
X260451Y888237D01*
X268528Y882599D01*
X277418Y878484D01*
X286918Y875944D01*
G37*
G36*
X134162Y875080D02*
G01*
X143916Y875944D01*
X153416Y878484D01*
X162306Y882599D01*
X170383Y888237D01*
X177292Y895197D01*
X182930Y903224D01*
X187096Y912164D01*
X189636Y921613D01*
X190500Y931418D01*
X189636Y941222D01*
X187096Y950671D01*
X182930Y959612D01*
X177292Y967638D01*
X170383Y974598D01*
X162306Y980236D01*
X153416Y984351D01*
X143916Y986891D01*
X134162Y987755D01*
X124358Y986891D01*
X114858Y984351D01*
X105968Y980236D01*
X97891Y974598D01*
X90982Y967638D01*
X85344Y959612D01*
X81178Y950671D01*
X78638Y941222D01*
X77774Y931418D01*
X78638Y921613D01*
X81178Y912164D01*
X85344Y903224D01*
X90982Y895197D01*
X97891Y888237D01*
X105968Y882599D01*
X114858Y878484D01*
X124358Y875944D01*
G37*
G36*
X2116124Y924864D02*
G01*
X2125878Y925728D01*
X2135378Y928268D01*
X2144268Y932383D01*
X2152345Y938021D01*
X2159254Y944981D01*
X2164892Y953008D01*
X2169058Y961948D01*
X2171598Y971397D01*
X2172462Y981202D01*
X2171598Y991006D01*
X2169058Y1000455D01*
X2164892Y1009396D01*
X2159254Y1017422D01*
X2152345Y1024382D01*
X2144268Y1030020D01*
X2135378Y1034135D01*
X2125878Y1036675D01*
X2116124Y1037539D01*
X2106320Y1036675D01*
X2096820Y1034135D01*
X2087930Y1030020D01*
X2079853Y1024382D01*
X2072944Y1017422D01*
X2067306Y1009396D01*
X2063140Y1000455D01*
X2060600Y991006D01*
X2059736Y981202D01*
X2060600Y971397D01*
X2063140Y961948D01*
X2067306Y953008D01*
X2072944Y944981D01*
X2079853Y938021D01*
X2087930Y932383D01*
X2096820Y928268D01*
X2106320Y925728D01*
G37*
G36*
X-907542Y955344D02*
G01*
X-897737Y956208D01*
X-888237Y958748D01*
X-879348Y962863D01*
X-871270Y968502D01*
X-864362Y975461D01*
X-858723Y983487D01*
X-854557Y992428D01*
X-852017Y1001877D01*
X-851153Y1011682D01*
X-852017Y1021486D01*
X-854557Y1030935D01*
X-858723Y1039876D01*
X-864362Y1047902D01*
X-871270Y1054862D01*
X-879348Y1060500D01*
X-888237Y1064615D01*
X-897737Y1067155D01*
X-907542Y1068019D01*
X-917295Y1067155D01*
X-926795Y1064615D01*
X-935685Y1060500D01*
X-943762Y1054862D01*
X-950671Y1047902D01*
X-956310Y1039876D01*
X-960475Y1030935D01*
X-963015Y1021486D01*
X-963879Y1011682D01*
X-963015Y1001877D01*
X-960475Y992428D01*
X-956310Y983487D01*
X-950671Y975461D01*
X-943762Y968502D01*
X-935685Y962863D01*
X-926795Y958748D01*
X-917295Y956208D01*
G37*
G36*
X706678Y976426D02*
G01*
X716432Y977290D01*
X725932Y979830D01*
X734822Y983945D01*
X742899Y989584D01*
X749808Y996543D01*
X755446Y1004569D01*
X759612Y1013510D01*
X762152Y1022959D01*
X763016Y1032764D01*
X762152Y1042568D01*
X759612Y1052017D01*
X755446Y1060958D01*
X749808Y1068984D01*
X742899Y1075944D01*
X734822Y1081582D01*
X725932Y1085697D01*
X716432Y1088237D01*
X706678Y1089101D01*
X696874Y1088237D01*
X687374Y1085697D01*
X678484Y1081582D01*
X670407Y1075944D01*
X663498Y1068984D01*
X657860Y1060958D01*
X653694Y1052017D01*
X651154Y1042568D01*
X650290Y1032764D01*
X651154Y1022959D01*
X653694Y1013510D01*
X657860Y1004569D01*
X663498Y996543D01*
X670407Y989584D01*
X678484Y983945D01*
X687374Y979830D01*
X696874Y977290D01*
G37*
G36*
X141020Y1020622D02*
G01*
X150774Y1021486D01*
X160274Y1024026D01*
X169164Y1028141D01*
X177241Y1033780D01*
X184150Y1040739D01*
X189788Y1048766D01*
X193954Y1057706D01*
X196494Y1067155D01*
X197358Y1076960D01*
X196494Y1086764D01*
X193954Y1096213D01*
X189788Y1105154D01*
X184150Y1113180D01*
X177241Y1120140D01*
X169164Y1125778D01*
X160274Y1129893D01*
X150774Y1132433D01*
X141020Y1133297D01*
X131216Y1132433D01*
X121716Y1129893D01*
X112826Y1125778D01*
X104749Y1120140D01*
X97840Y1113180D01*
X92202Y1105154D01*
X88036Y1096213D01*
X85496Y1086764D01*
X84632Y1076960D01*
X85496Y1067155D01*
X88036Y1057706D01*
X92202Y1048766D01*
X97840Y1040739D01*
X104749Y1033780D01*
X112826Y1028141D01*
X121716Y1024026D01*
X131216Y1021486D01*
G37*
G36*
X300278Y1024178D02*
G01*
X310032Y1025042D01*
X319532Y1027582D01*
X328422Y1031697D01*
X336499Y1037336D01*
X343408Y1044295D01*
X349046Y1052322D01*
X353212Y1061262D01*
X355752Y1070711D01*
X356616Y1080516D01*
X355752Y1090320D01*
X353212Y1099769D01*
X349046Y1108710D01*
X343408Y1116736D01*
X336499Y1123696D01*
X328422Y1129334D01*
X319532Y1133449D01*
X310032Y1135989D01*
X300278Y1136853D01*
X290474Y1135989D01*
X280974Y1133449D01*
X272084Y1129334D01*
X264007Y1123696D01*
X257098Y1116736D01*
X251460Y1108710D01*
X247294Y1099769D01*
X244754Y1090320D01*
X243890Y1080516D01*
X244754Y1070711D01*
X247294Y1061262D01*
X251460Y1052322D01*
X257098Y1044295D01*
X264007Y1037336D01*
X272084Y1031697D01*
X280974Y1027582D01*
X290474Y1025042D01*
G37*
G36*
X-1001776Y1095806D02*
G01*
X-991971Y1096670D01*
X-982471Y1099210D01*
X-973582Y1103376D01*
X-965555Y1108964D01*
X-958596Y1115923D01*
X-952957Y1124000D01*
X-948791Y1132890D01*
X-946251Y1142390D01*
X-945387Y1152144D01*
X-946251Y1161948D01*
X-948791Y1171448D01*
X-952957Y1180338D01*
X-958596Y1188364D01*
X-965555Y1195324D01*
X-973582Y1200962D01*
X-982471Y1205077D01*
X-991971Y1207668D01*
X-1001776Y1208481D01*
X-1011529Y1207668D01*
X-1021029Y1205077D01*
X-1029919Y1200962D01*
X-1037996Y1195324D01*
X-1044905Y1188364D01*
X-1050544Y1180338D01*
X-1054709Y1171448D01*
X-1057249Y1161948D01*
X-1058113Y1152144D01*
X-1057249Y1142390D01*
X-1054709Y1132890D01*
X-1050544Y1124000D01*
X-1044905Y1115923D01*
X-1037996Y1108964D01*
X-1029919Y1103376D01*
X-1021029Y1099210D01*
X-1011529Y1096670D01*
G37*
G36*
X1821992Y1183894D02*
G01*
X1832559Y1184402D01*
X1842922Y1186637D01*
X1852828Y1190498D01*
X1861921Y1195933D01*
X1870100Y1202690D01*
X1877009Y1210716D01*
X1882597Y1219758D01*
X1886661Y1229512D01*
X1889048Y1239875D01*
X1889810Y1250442D01*
X1888845Y1261008D01*
X1886204Y1271270D01*
X1881936Y1280972D01*
X1876196Y1289862D01*
X1869084Y1297736D01*
X1860753Y1304340D01*
X1851558Y1309522D01*
X1841601Y1313180D01*
X1831187Y1315212D01*
X1820570Y1315516D01*
X1810054Y1314094D01*
X1799945Y1311046D01*
X1790395Y1306423D01*
X1781708Y1300276D01*
X1774189Y1292860D01*
X1767890Y1284325D01*
X1763064Y1274876D01*
X1759813Y1264818D01*
X1758238Y1254302D01*
X1758340Y1243736D01*
X1760169Y1233271D01*
X1763623Y1223264D01*
X1768652Y1213916D01*
X1775104Y1205534D01*
X1782825Y1198270D01*
X1791614Y1192326D01*
X1801266Y1187856D01*
X1811477Y1185062D01*
G37*
G36*
X-758088Y1208786D02*
G01*
X-748284Y1209649D01*
X-738835Y1212189D01*
X-729894Y1216304D01*
X-721868Y1221943D01*
X-714908Y1228902D01*
X-709269Y1236929D01*
X-705154Y1245870D01*
X-702614Y1255318D01*
X-701751Y1265123D01*
X-702614Y1274927D01*
X-705154Y1284376D01*
X-709269Y1293317D01*
X-714908Y1301343D01*
X-721868Y1308303D01*
X-729894Y1313942D01*
X-738835Y1318056D01*
X-748284Y1320596D01*
X-758088Y1321460D01*
X-767892Y1320596D01*
X-777341Y1318056D01*
X-786282Y1313942D01*
X-794308Y1308303D01*
X-801268Y1301343D01*
X-806907Y1293317D01*
X-811022Y1284376D01*
X-813562Y1274927D01*
X-814425Y1265123D01*
X-813562Y1255318D01*
X-811022Y1245870D01*
X-806907Y1236929D01*
X-801268Y1228902D01*
X-794308Y1221943D01*
X-786282Y1216304D01*
X-777341Y1212189D01*
X-767892Y1209649D01*
G37*
G36*
X-520090Y1263650D02*
G01*
X-510285Y1264513D01*
X-500837Y1267053D01*
X-491896Y1271168D01*
X-483870Y1276807D01*
X-476910Y1283766D01*
X-471271Y1291793D01*
X-467156Y1300734D01*
X-464616Y1310182D01*
X-463753Y1319987D01*
X-464616Y1329791D01*
X-467156Y1339240D01*
X-471271Y1348181D01*
X-476910Y1356207D01*
X-483870Y1363167D01*
X-491896Y1368806D01*
X-500837Y1372920D01*
X-510285Y1375460D01*
X-520090Y1376324D01*
X-529894Y1375460D01*
X-539343Y1372920D01*
X-548284Y1368806D01*
X-556310Y1363167D01*
X-563270Y1356207D01*
X-568909Y1348181D01*
X-573024Y1339240D01*
X-575564Y1329791D01*
X-576427Y1319987D01*
X-575564Y1310182D01*
X-573024Y1300734D01*
X-568909Y1291793D01*
X-563270Y1283766D01*
X-556310Y1276807D01*
X-548284Y1271168D01*
X-539343Y1267053D01*
X-529894Y1264513D01*
G37*
G36*
X-304952Y1287780D02*
G01*
X-295148Y1288643D01*
X-285699Y1291183D01*
X-276758Y1295298D01*
X-268732Y1300937D01*
X-261772Y1307896D01*
X-256133Y1315923D01*
X-252018Y1324864D01*
X-249478Y1334312D01*
X-248615Y1344117D01*
X-249478Y1353921D01*
X-252018Y1363370D01*
X-256133Y1372311D01*
X-261772Y1380337D01*
X-268732Y1387297D01*
X-276758Y1392936D01*
X-285699Y1397050D01*
X-295148Y1399590D01*
X-304952Y1400454D01*
X-314756Y1399590D01*
X-324205Y1397050D01*
X-333146Y1392936D01*
X-341172Y1387297D01*
X-348132Y1380337D01*
X-353771Y1372311D01*
X-357886Y1363370D01*
X-360426Y1353921D01*
X-361289Y1344117D01*
X-360426Y1334312D01*
X-357886Y1324864D01*
X-353771Y1315923D01*
X-348132Y1307896D01*
X-341172Y1300937D01*
X-333146Y1295298D01*
X-324205Y1291183D01*
X-314756Y1288643D01*
G37*
G36*
X1347012Y1332788D02*
G01*
X1356766Y1333652D01*
X1366266Y1336192D01*
X1375156Y1340307D01*
X1383233Y1345946D01*
X1390142Y1352905D01*
X1395780Y1360932D01*
X1399946Y1369872D01*
X1402486Y1379321D01*
X1403350Y1389126D01*
X1402486Y1398930D01*
X1399946Y1408379D01*
X1395780Y1417320D01*
X1390142Y1425346D01*
X1383233Y1432306D01*
X1375156Y1437944D01*
X1366266Y1442059D01*
X1356766Y1444599D01*
X1347012Y1445463D01*
X1337208Y1444599D01*
X1327708Y1442059D01*
X1318818Y1437944D01*
X1310741Y1432306D01*
X1303832Y1425346D01*
X1298194Y1417320D01*
X1294028Y1408379D01*
X1291488Y1398930D01*
X1290624Y1389126D01*
X1291488Y1379321D01*
X1294028Y1369872D01*
X1298194Y1360932D01*
X1303832Y1352905D01*
X1310741Y1345946D01*
X1318818Y1340307D01*
X1327708Y1336192D01*
X1337208Y1333652D01*
G37*
G36*
X1659788Y1516430D02*
G01*
X1670405Y1516989D01*
X1680768Y1519174D01*
X1690624Y1523085D01*
X1699768Y1528470D01*
X1707896Y1535277D01*
X1714804Y1543253D01*
X1720392Y1552295D01*
X1724456Y1562100D01*
X1726895Y1572412D01*
X1727606Y1582978D01*
X1726641Y1593545D01*
X1723999Y1603806D01*
X1719732Y1613509D01*
X1713992Y1622399D01*
X1706880Y1630273D01*
X1698599Y1636877D01*
X1689354Y1642110D01*
X1679397Y1645716D01*
X1668983Y1647748D01*
X1658366Y1648053D01*
X1647850Y1646682D01*
X1637741Y1643634D01*
X1628190Y1638960D01*
X1619554Y1632864D01*
X1611985Y1625447D01*
X1605686Y1616862D01*
X1600860Y1607464D01*
X1597609Y1597355D01*
X1596034Y1586890D01*
X1596136Y1576273D01*
X1597964Y1565808D01*
X1601419Y1555800D01*
X1606448Y1546453D01*
X1612900Y1538071D01*
X1620621Y1530807D01*
X1629410Y1524863D01*
X1639062Y1520444D01*
X1649272Y1517599D01*
G37*
G36*
X-978509Y1518716D02*
G01*
X-968705Y1519580D01*
X-959256Y1522120D01*
X-950315Y1526235D01*
X-942289Y1531874D01*
X-935329Y1538833D01*
X-929690Y1546860D01*
X-925576Y1555800D01*
X-923036Y1565249D01*
X-922172Y1575054D01*
X-923036Y1584858D01*
X-925576Y1594307D01*
X-929690Y1603248D01*
X-935329Y1611274D01*
X-942289Y1618234D01*
X-950315Y1623872D01*
X-959256Y1627987D01*
X-968705Y1630527D01*
X-978509Y1631391D01*
X-988314Y1630527D01*
X-997762Y1627987D01*
X-1006703Y1623872D01*
X-1014730Y1618234D01*
X-1021689Y1611274D01*
X-1027328Y1603248D01*
X-1031443Y1594307D01*
X-1033983Y1584858D01*
X-1034846Y1575054D01*
X-1033983Y1565249D01*
X-1031443Y1555800D01*
X-1027328Y1546860D01*
X-1021689Y1538833D01*
X-1014730Y1531874D01*
X-1006703Y1526235D01*
X-997762Y1522120D01*
X-988314Y1519580D01*
G37*
G36*
X-733196Y1639570D02*
G01*
X-723392Y1640433D01*
X-713943Y1642973D01*
X-705002Y1647088D01*
X-696976Y1652727D01*
X-690016Y1659686D01*
X-684377Y1667713D01*
X-680262Y1676654D01*
X-677722Y1686102D01*
X-676859Y1695907D01*
X-677722Y1705711D01*
X-680262Y1715160D01*
X-684377Y1724101D01*
X-690016Y1732127D01*
X-696976Y1739087D01*
X-705002Y1744725D01*
X-713943Y1748840D01*
X-723392Y1751380D01*
X-733196Y1752244D01*
X-743000Y1751380D01*
X-752449Y1748840D01*
X-761390Y1744725D01*
X-769416Y1739087D01*
X-776376Y1732127D01*
X-782015Y1724101D01*
X-786130Y1715160D01*
X-788670Y1705711D01*
X-789533Y1695907D01*
X-788670Y1686102D01*
X-786130Y1676654D01*
X-782015Y1667713D01*
X-776376Y1659686D01*
X-769416Y1652727D01*
X-761390Y1647088D01*
X-752449Y1642973D01*
X-743000Y1640433D01*
G37*
G36*
X-631088Y1916328D02*
G01*
X-621284Y1917192D01*
X-611835Y1919732D01*
X-602894Y1923846D01*
X-594868Y1929485D01*
X-587908Y1936445D01*
X-582269Y1944471D01*
X-578154Y1953412D01*
X-575614Y1962861D01*
X-574751Y1972665D01*
X-575614Y1982470D01*
X-578154Y1991918D01*
X-582269Y2000859D01*
X-587908Y2008886D01*
X-594868Y2015845D01*
X-602894Y2021484D01*
X-611835Y2025599D01*
X-621284Y2028139D01*
X-631088Y2029002D01*
X-640892Y2028139D01*
X-650341Y2025599D01*
X-659282Y2021484D01*
X-667308Y2015845D01*
X-674268Y2008886D01*
X-679907Y2000859D01*
X-684022Y1991918D01*
X-686562Y1982470D01*
X-687425Y1972665D01*
X-686562Y1962861D01*
X-684022Y1953412D01*
X-679907Y1944471D01*
X-674268Y1936445D01*
X-667308Y1929485D01*
X-659282Y1923846D01*
X-650341Y1919732D01*
X-640892Y1917192D01*
G37*
G36*
X1299311Y1926031D02*
G01*
X1309928Y1926691D01*
X1320241Y1929028D01*
X1330096Y1932990D01*
X1339138Y1938477D01*
X1347216Y1945335D01*
X1354124Y1953412D01*
X1359560Y1962454D01*
X1363522Y1972310D01*
X1365859Y1982673D01*
X1366520Y1993239D01*
X1365453Y2003755D01*
X1362710Y2014016D01*
X1358341Y2023668D01*
X1352499Y2032507D01*
X1345336Y2040331D01*
X1336954Y2046884D01*
X1327708Y2051964D01*
X1317701Y2055520D01*
X1307287Y2057450D01*
X1296670Y2057654D01*
X1286154Y2056180D01*
X1276045Y2053031D01*
X1266545Y2048256D01*
X1257960Y2042058D01*
X1250492Y2034590D01*
X1244295Y2026005D01*
X1239520Y2016506D01*
X1236370Y2006396D01*
X1234897Y1995881D01*
X1235100Y1985264D01*
X1237030Y1974850D01*
X1240586Y1964893D01*
X1245717Y1955596D01*
X1252220Y1947214D01*
X1260043Y1940052D01*
X1268882Y1934210D01*
X1278534Y1929841D01*
X1288796Y1927098D01*
G37*

%LPD*%
G36*
X1334871Y872693D02*
G01*
X1330960Y873506D01*
X1327658Y875690D01*
X1282090Y921461D01*
X1279956Y924610D01*
X1279144Y928319D01*
X1279753Y932129D01*
X1281684Y935380D01*
X1284732Y937717D01*
X1288389Y938733D01*
X1293266Y939190D01*
X1302766Y941730D01*
X1311656Y945845D01*
X1319733Y951484D01*
X1326642Y958443D01*
X1332280Y966469D01*
X1336446Y975410D01*
X1339088Y985316D01*
X1341018Y989076D01*
X1344269Y991717D01*
X1348384Y992835D01*
X1352550Y992174D01*
X1356106Y989837D01*
X1455877Y890066D01*
X1458061Y886764D01*
X1458874Y882853D01*
X1458061Y878992D01*
X1455877Y875690D01*
X1452575Y873506D01*
X1448714Y872693D01*
G37*

%LPD*%
D10*
X1539318Y798923D02*
G01*
X1727786Y798923D01*
X1817956Y709007D01*
X1960704Y709007D01*
X1145618Y1170779D02*
G01*
X1371424Y1170779D01*
X1511124Y1031079D01*
X1678764Y1031079D01*
X1713816Y1066131D01*
X1162814Y328160D02*
G01*
X1119614Y328160D01*
X1075773Y284319D01*
X-353235Y284319D01*
X-489127Y420207D01*
X-489127Y665065D01*
X1108026Y919827D02*
G01*
X1235788Y919827D01*
X1316560Y838801D01*
X1702640Y838801D01*
X1090246Y832705D02*
G01*
X1227152Y832705D01*
X1260680Y798923D01*
X1542620Y798923D01*
D11*
X-142669Y-420022D02*
G01*
X-114475Y-420022D01*
X-86281Y-391828D01*
X-86281Y-160D01*
X29288Y115409D01*
X188038Y115409D01*
X-212519Y-363126D02*
G01*
X-212519Y-43086D01*
X22938Y192371D01*
X210136Y192371D01*
D10*
X1103965Y1007711D02*
G01*
X1139273Y1007457D01*
X1182446Y1049619D01*
X1344246Y1049619D01*
X1515188Y878677D01*
X2012952Y878677D01*
X2012952Y771644D01*
X1116662Y1089245D02*
G01*
X1364312Y1089245D01*
X1508330Y945227D01*
X1570306Y945227D01*
D11*
X870536Y875123D02*
G01*
X924638Y875123D01*
X953848Y845913D01*
X953848Y688687D01*
X989154Y653381D01*
X1112520Y653288D01*
D10*
X469391Y756920D02*
G01*
X514682Y802210D01*
X514682Y805781D01*
X507238Y673607D02*
G01*
X565150Y731520D01*
X574293Y731520D01*
X815672Y451959D02*
G01*
X800178Y467453D01*
X557354Y467453D01*
X509094Y515713D01*
X507238Y673607D01*
X737694Y410303D02*
G01*
X525858Y410303D01*
X471248Y464913D01*
X469391Y756920D01*
X-272541Y-709421D02*
G01*
X-223172Y-660052D01*
X74246Y-660052D01*
X74246Y-660052D02*
G01*
X129110Y-605188D01*
X129110Y52925D01*
X1089665Y749289D02*
G01*
X1693169Y749289D01*
X1724154Y718304D01*
X1159258Y245356D02*
G01*
X1155857Y248757D01*
X-388038Y248757D01*
X-545261Y405988D01*
X-545261Y748377D01*
X1163322Y410458D02*
G01*
X1113017Y410458D01*
X1023114Y320547D01*
X-259326Y320547D01*
X-307591Y368813D01*
X-307591Y589272D01*
X1160272Y497578D02*
G01*
X1111740Y497578D01*
X970861Y356707D01*
X-187368Y356707D01*
X-218691Y388030D01*
X-218691Y592320D01*
X774694Y1509778D02*
G01*
X952245Y1507997D01*
X1112512Y1668264D01*
X1485394Y1668264D01*
X187784Y1391759D02*
G01*
X200484Y1379313D01*
X974168Y1379313D01*
X1099390Y1504535D01*
X1175336Y1504535D01*
X1256870Y1586069D01*
X1483946Y1586069D01*
X277957Y1440131D02*
G01*
X280957Y1435351D01*
X957828Y1435351D01*
X1095745Y1573268D01*
X1148336Y1573268D01*
X1629923Y838804D02*
G01*
X1771548Y838804D01*
X1833374Y776978D01*
D12*
G01*
X-1160447Y181907D03*
G01*
X-1560446Y181907D03*
G01*
X-1160447Y1305882D03*
G01*
X-1560446Y1305882D03*
D13*
G01*
X1562254Y1730265D03*
G01*
X1300609Y1991885D03*
G01*
X1823900Y1249697D03*
G01*
X1661695Y1582234D03*
D14*
G01*
X-520113Y1319979D03*
G01*
X1891794Y203700D03*
G01*
X-526463Y1764225D03*
G01*
X-758111Y1265115D03*
G01*
X693676Y-839223D03*
G01*
X-523669Y1429453D03*
G01*
X277954Y1440121D03*
G01*
X187784Y1391861D03*
G01*
X-299641Y1599379D03*
G01*
X-304975Y1344109D03*
G01*
X-978532Y1575046D03*
G01*
X-733219Y1695899D03*
G01*
X-631111Y1972657D03*
G01*
X-1001773Y1152136D03*
G01*
X1110744Y1380990D03*
G01*
X1486486Y1170119D03*
G01*
X1588264Y1088890D03*
G01*
X1797306Y403344D03*
G01*
X1536448Y405376D03*
G01*
X-925065Y776470D03*
G01*
X-884171Y661662D03*
G01*
X45722Y528820D03*
G01*
X113286Y470146D03*
G01*
X-910333Y433824D03*
G01*
X-907539Y1011674D03*
G01*
X-706041Y-566580D03*
G01*
X-481073Y-391675D03*
G01*
X-212595Y-363227D03*
G01*
X210060Y192270D03*
G01*
X187962Y115308D03*
G01*
X-142745Y-420123D03*
G01*
X286006Y129278D03*
G01*
X213108Y-225305D03*
G01*
X895352Y193286D03*
G01*
X895352Y440936D03*
G01*
X695962Y18026D03*
G01*
X-40891Y413758D03*
G01*
X1116840Y-181109D03*
G01*
X1141986Y63238D03*
G01*
X1160274Y497578D03*
G01*
X1163322Y410456D03*
G01*
X1162814Y328160D03*
G01*
X-545335Y748276D03*
G01*
X-489201Y664964D03*
G01*
X-218691Y592320D03*
G01*
X-307591Y589272D03*
G01*
X827534Y677918D03*
G01*
X820168Y-28455D03*
G01*
X815596Y451858D03*
G01*
X574296Y731512D03*
G01*
X596140Y-181109D03*
G01*
X737618Y410202D03*
G01*
X514682Y805781D03*
G01*
X827280Y760722D03*
G01*
X-318767Y832858D03*
G01*
X2333475Y541621D03*
G01*
X2331697Y947259D03*
G01*
X2141222Y746498D03*
G01*
X2116076Y981194D03*
G01*
X2215771Y438142D03*
G01*
X1713740Y1066030D03*
G01*
X1089662Y749292D03*
G01*
X1090170Y832604D03*
G01*
X1107950Y919726D03*
G01*
X1103886Y1007610D03*
G01*
X1145542Y1170678D03*
G01*
X1116586Y1089144D03*
G01*
X1724154Y718304D03*
G01*
X1960628Y708906D03*
G01*
X1833374Y776978D03*
G01*
X2012952Y771644D03*
G01*
X1570230Y945126D03*
G01*
X140972Y1076952D03*
G01*
X134114Y931410D03*
G01*
X300230Y1080508D03*
G01*
X296674Y931410D03*
G01*
X1148336Y1573268D03*
G01*
X1483870Y1585968D03*
G01*
X774702Y1509768D03*
G01*
X1485394Y1668264D03*
G01*
X706630Y1032756D03*
G01*
X392940Y526534D03*
G01*
X749302Y1309616D03*
G01*
X1421640Y1517388D03*
G01*
X1247726Y1391759D03*
G01*
X1157556Y1892139D03*
G01*
X1283464Y994656D03*
G01*
X878410Y1064607D03*
G01*
X2318133Y817872D03*
G01*
X2428877Y454398D03*
G01*
X1662508Y185132D03*
G01*
X1246278Y61358D03*
G01*
X-989073Y302252D03*
G01*
X-1013711Y-135389D03*
G01*
X-769109Y842510D03*
G01*
X-495297Y261612D03*
G01*
X-151889Y-306839D03*
G01*
X-177213Y-774098D03*
G01*
X-206499Y183380D03*
G01*
X-272539Y-709429D03*
G01*
X129034Y52824D03*
G01*
X-105915Y187444D03*
G01*
X580138Y546092D03*
G01*
X870460Y875022D03*
G01*
X1112522Y653280D03*
G01*
X1350342Y914493D03*
G01*
X1555828Y572863D03*
G01*
X1240792Y604004D03*
G01*
X1078994Y-70619D03*
G01*
X1452628Y-267977D03*
G01*
X1000000Y180078D03*
G01*
X2321943Y742942D03*
G01*
X2323238Y667504D03*
G01*
X1346964Y1389118D03*
D15*
G01*
X-544319Y-131833D03*
D14*
G01*
X1159258Y245356D03*
G01*
X1314198Y-32519D03*
G01*
X1402844Y-30233D03*
G01*
X1452882Y-181617D03*
G01*
X1543052Y-183649D03*
G01*
X1696468Y-178061D03*
G01*
X1694436Y-88653D03*
G01*
X1541274Y-280423D03*
G01*
X1425450Y-505213D03*
G01*
X1148158Y-394114D03*
G01*
X1290652Y-543974D03*
G01*
X1290652Y-244000D03*
M02*
